<svg width="250" height="250" viewBox="0 0 250 250" fill="none" xmlns="http://www.w3.org/2000/svg">
<rect width="250" height="250" fill="#C70025"/>
<path d="M42.3027 167.117C40.747 167.117 40 166.534 40 165.558V144.532H41.0688C42.6299 144.532 43.3715 145.115 43.3715 146.091V167.117H42.3027ZM59.9896 167.117C58.4306 167.117 57.5549 166.534 57.5549 165.558V155.402C57.5549 153.78 56.3211 152.805 54.7607 152.805H52.3293C50.7737 152.805 49.8651 153.78 49.8651 155.402V167.117H49.2126C47.657 167.117 46.7812 166.534 46.7812 165.558V150.148H47.7857C48.6936 150.148 49.5392 150.696 49.5392 151.673C50.61 150.631 52.1027 150.148 53.9842 150.148H54.4382C58.3314 150.148 60.6367 152.32 60.6367 156.865V167.117H59.9896V167.117ZM70.7968 167.117C66.9003 167.117 64.9201 165.951 64.9201 161.408V152.805H62.2574V152.222C62.2574 150.892 62.7436 150.147 63.5905 150.147H64.9195V145.701C64.9195 145.346 65.2118 145.05 65.5706 145.05H67.3542C67.7103 145.05 68.0013 145.345 68.0013 145.701V150.147H73.5179V150.73C73.5179 152.062 73.0337 152.805 72.1902 152.805H68.002V162.217C68.002 163.838 68.9106 164.49 70.4716 164.49H72.4517C73.2926 164.49 73.7781 165.236 73.7781 166.564V167.117H70.7968ZM88.1532 159.882H78.6469V161.891C78.6469 163.517 79.8807 164.49 81.4363 164.49H87.8957C88.7064 164.49 89.2596 165.072 89.2596 166.37V167.117H81.7609C77.8684 167.117 75.563 164.978 75.563 160.433V156.864C75.563 152.32 77.8684 150.147 81.7609 150.147H83.2576C87.1501 150.147 89.452 152.32 89.452 156.864V158.583C89.4527 159.2 88.8385 159.882 88.1532 159.882ZM86.3696 155.402C86.3696 153.78 85.1357 152.805 83.5801 152.805H81.4363C79.8807 152.805 78.6469 153.78 78.6469 155.402V157.576H86.3702L86.3696 155.402ZM101.912 152.805H98.2791C96.7181 152.805 95.78 153.78 95.78 155.402V167.117H95.1275C93.5719 167.117 92.6961 166.534 92.6961 165.558V150.148H93.7C94.6085 150.148 95.4521 150.696 95.4521 151.673C96.1984 150.892 96.9782 150.148 98.6003 150.148H103.242V150.731C103.242 152.062 102.756 152.805 101.912 152.805ZM118.395 167.117C116.84 167.117 115.961 166.534 115.961 165.558V155.402C115.961 153.78 114.731 152.805 113.17 152.805H110.736C109.179 152.805 108.272 153.78 108.272 155.402V167.117H107.623C106.063 167.117 105.188 166.534 105.188 165.558V150.148H106.194C107.104 150.148 107.945 150.696 107.945 151.673C109.016 150.631 110.512 150.148 112.39 150.148H112.845C116.741 150.148 119.043 152.32 119.043 156.865V167.117H118.395V167.117ZM134.167 167.117C133.261 167.117 132.413 166.239 132.413 165.266C131.735 166.341 130.013 167.117 128.293 167.117H127.482C123.586 167.117 121.318 165.041 121.318 161.73V161.34C121.318 158.098 123.587 156.246 127.482 156.246H132.09V154.917C132.09 153.293 130.859 152.775 129.625 152.775H124.075C123.231 152.775 122.746 152.029 122.746 150.696V150.148H129.301C133.192 150.148 135.173 151.346 135.173 155.892V167.117H134.167ZM132.091 158.613H127.157C125.602 158.613 124.401 159.589 124.401 161.211V161.891C124.401 163.517 125.602 164.49 127.157 164.49H129.626C131.179 164.49 132.091 163.517 132.091 161.891L132.091 158.613ZM145.328 167.117C141.432 167.117 139.455 165.951 139.455 161.408V152.805H136.794V152.222C136.794 150.892 137.279 150.147 138.127 150.147H139.455V145.701C139.455 145.346 139.747 145.05 140.104 145.05H141.889C142.245 145.05 142.538 145.345 142.538 145.701V150.147H148.054V150.73C148.054 152.062 147.566 152.805 146.722 152.805H142.538V162.217C142.538 163.838 143.447 164.49 145.003 164.49H146.983C147.827 164.49 148.313 165.236 148.313 166.564V167.117H145.328ZM153.474 147.81H151.268C150.618 147.81 150.1 147.289 150.1 146.644V145.702C150.1 145.05 150.618 144.532 151.268 144.532H153.474C154.124 144.532 154.642 145.05 154.642 145.702V146.644C154.643 147.288 154.124 147.81 153.474 147.81ZM153.345 167.117C151.785 167.117 150.91 166.534 150.91 165.558V150.148H151.916C153.474 150.148 153.995 150.731 153.995 151.704V167.117H153.345ZM164.896 167.117H163.402C159.509 167.117 157.236 164.978 157.236 160.433V156.864C157.236 152.32 159.509 150.147 163.402 150.147H164.896C168.79 150.147 171.092 152.32 171.092 156.864V160.433C171.092 164.978 168.789 167.117 164.896 167.117ZM168.012 155.402C168.012 153.78 166.809 152.805 165.253 152.805H163.08C161.519 152.805 160.32 153.78 160.32 155.402V161.891C160.32 163.517 161.519 164.49 163.08 164.49H165.253C166.809 164.49 168.012 163.517 168.012 161.891V155.402ZM186.896 167.117C185.34 167.117 184.461 166.534 184.461 165.558V155.402C184.461 153.78 183.23 152.805 181.67 152.805H179.235C177.68 152.805 176.77 153.78 176.77 155.402V167.117H176.123C174.563 167.117 173.689 166.534 173.689 165.558V150.148H174.694C175.604 150.148 176.445 150.696 176.445 151.673C177.517 150.631 179.011 150.148 180.89 150.148H181.344C185.24 150.148 187.543 152.32 187.543 156.865V167.117H186.896V167.117ZM202.667 167.117C201.758 167.117 200.913 166.239 200.913 165.266C200.233 166.341 198.513 167.117 196.794 167.117H195.98C192.086 167.117 189.816 165.041 189.816 161.73V161.34C189.816 158.098 192.087 156.246 195.98 156.246H200.587V154.917C200.587 153.293 199.356 152.775 198.123 152.775H192.575C191.731 152.775 191.244 152.029 191.244 150.696V150.148H197.797C201.695 150.148 203.669 151.346 203.669 155.892V167.117H202.667ZM200.587 158.613H195.657C194.098 158.613 192.898 159.589 192.898 161.211V161.891C192.898 163.517 194.098 164.49 195.657 164.49H198.123C199.679 164.49 200.587 163.517 200.587 161.891V158.613ZM209.35 167.117C207.793 167.117 206.918 166.534 206.918 165.558V143.885H207.6C209.156 143.885 210 144.468 210 145.441V167.117H209.35ZM77.7396 82.8828H40.0376V101.991H58.8913V121.105H40.0376V140.228H96.5954V121.105H77.7396V82.8828ZM134.299 101.991V82.8828H115.452V101.991H96.596L96.5954 121.105H115.452V140.228H134.299V121.105H153.158V101.991H134.299ZM190.856 121.105V82.8828H153.157V101.991H172.006V121.105H153.158V140.228H209.712V121.105H190.856Z" fill="white"/>
</svg>
