<svg width="250" height="250" viewBox="0 0 250 250" fill="none" xmlns="http://www.w3.org/2000/svg">
<rect width="250" height="250" fill="#96033A"/>
<path d="M77.8046 115.349H96.6644V134.209H40V115.349H58.8598V96.4042H40V77.5444H77.8046V115.349ZM134.472 134.212H115.528V115.352H96.6678V96.4042H115.528V77.5444H134.472V96.4042H153.332V115.349H134.472V134.212ZM191.14 115.349H210V134.209H153.332V115.349H172.192V96.4042H153.332V77.5444H191.137V115.349H191.14Z" fill="white"/>
<path d="M210 151.294H40V172.456H210V151.294Z" fill="white"/>
<path d="M52.0224 152.372H56.2078C56.4798 152.372 56.6702 152.497 56.779 152.752L62.542 166.971L68.305 152.752C68.4138 152.497 68.6042 152.372 68.8762 152.372H72.9528C73.2792 152.372 73.4424 152.535 73.4424 152.861V170.915C73.4424 171.242 73.2792 171.405 72.9528 171.405H70.532C70.2056 171.405 70.0424 171.242 70.0424 170.915V156.452L64.1434 171.024C64.0346 171.279 63.8442 171.405 63.5722 171.405H61.4234C61.1514 171.405 60.961 171.279 60.8522 171.024L54.926 156.452V170.915C54.926 171.242 54.7628 171.405 54.4364 171.405H52.0156C51.6892 171.405 51.526 171.242 51.526 170.915V152.861C51.5328 152.535 51.696 152.372 52.0224 152.372Z" fill="#96033A"/>
<path d="M84.047 152.344H87.0934C87.3654 152.344 87.5558 152.47 87.6646 152.725L95.0324 170.833C95.1038 170.997 95.1038 171.133 95.0324 171.241C94.961 171.35 94.8318 171.405 94.6516 171.405H91.8772C91.6222 171.405 91.442 171.279 91.3332 171.024L89.9188 167.355H81.0278L79.6134 171.024C79.5046 171.279 79.3244 171.405 79.0694 171.405H76.4582C76.278 171.405 76.1488 171.35 76.0774 171.241C76.006 171.133 76.006 170.997 76.0774 170.833L83.4724 152.725C83.5846 152.473 83.775 152.344 84.047 152.344ZM82.0648 164.608H88.8886L85.4614 155.635L82.0648 164.608Z" fill="#96033A"/>
<path d="M97.6708 170.915V152.861C97.6708 152.535 97.834 152.372 98.1604 152.372H106.453C108.483 152.372 110.101 152.888 111.305 153.922C112.512 154.956 113.114 156.36 113.114 158.135V158.76C113.114 160.518 112.512 161.919 111.305 162.959C110.098 164.003 108.483 164.523 106.453 164.523H101.152V170.912C101.152 171.238 100.989 171.401 100.663 171.401H98.1604C97.834 171.405 97.6708 171.242 97.6708 170.915ZM109.578 158.764V158.22C109.578 157.295 109.255 156.567 108.612 156.03C107.969 155.496 107.092 155.228 105.987 155.228H101.149V161.725H105.987C107.113 161.725 107.99 161.463 108.626 160.936C109.261 160.413 109.578 159.688 109.578 158.764Z" fill="#96033A"/>
<path d="M120.536 152.344H123.582C123.854 152.344 124.045 152.47 124.153 152.725L131.521 170.833C131.593 170.997 131.593 171.133 131.521 171.241C131.45 171.35 131.321 171.405 131.14 171.405H128.366C128.111 171.405 127.931 171.279 127.822 171.024L126.408 167.355H117.517L116.102 171.024C115.993 171.279 115.813 171.405 115.558 171.405H112.947C112.767 171.405 112.638 171.35 112.566 171.241C112.495 171.133 112.495 170.997 112.566 170.833L119.961 152.725C120.073 152.473 120.264 152.344 120.536 152.344ZM118.55 164.608H125.374L121.947 155.635L118.55 164.608Z" fill="#96033A"/>
<path d="M143.343 152.1H145.9C146.226 152.1 146.389 152.263 146.389 152.589V154.548H149.541C151.863 154.548 153.72 155.132 155.114 156.302C156.508 157.472 157.208 159.025 157.208 160.963V162.595C157.208 164.533 156.511 166.091 155.114 167.26C153.72 168.43 151.86 169.015 149.541 169.015H146.389V171.191C146.389 171.517 146.226 171.68 145.9 171.68H143.343C143.016 171.68 142.853 171.517 142.853 171.191V169.015H139.725C137.403 169.015 135.547 168.43 134.153 167.26C132.755 166.091 132.058 164.537 132.058 162.595V160.963C132.058 159.025 132.755 157.468 134.153 156.302C135.547 155.132 137.406 154.548 139.725 154.548H142.853V152.589C142.857 152.263 143.016 152.1 143.343 152.1ZM139.919 166.186H142.857V157.376H139.919C138.522 157.376 137.454 157.699 136.713 158.342C135.968 158.985 135.598 159.906 135.598 161.103V162.463C135.598 163.66 135.968 164.578 136.713 165.224C137.454 165.863 138.522 166.186 139.919 166.186ZM153.675 162.459V161.099C153.675 159.903 153.298 158.985 152.547 158.339C151.795 157.696 150.721 157.373 149.323 157.373H146.389V166.182H149.323C150.717 166.182 151.792 165.863 152.547 165.217C153.301 164.578 153.675 163.656 153.675 162.459Z" fill="#96033A"/>
<path d="M168.52 171.758C165.766 171.758 163.576 170.993 161.955 169.46C160.333 167.93 159.52 165.866 159.52 163.275V160.501C159.52 157.944 160.34 155.894 161.982 154.344C163.621 152.793 165.8 152.018 168.52 152.018C171.274 152.018 173.464 152.783 175.085 154.316C176.707 155.85 177.52 157.91 177.52 160.501V163.275C177.52 165.832 176.7 167.886 175.062 169.433C173.419 170.983 171.24 171.758 168.52 171.758ZM164.498 167.325C165.46 168.287 166.8 168.766 168.523 168.766C170.244 168.766 171.587 168.287 172.549 167.325C173.508 166.366 173.991 165.013 173.991 163.275V160.501C173.991 158.76 173.511 157.41 172.549 156.452C171.587 155.493 170.247 155.01 168.523 155.01C166.803 155.01 165.46 155.489 164.498 156.452C163.539 157.414 163.056 158.764 163.056 160.501V163.275C163.056 165.016 163.536 166.366 164.498 167.325Z" fill="#96033A"/>
<path d="M184.616 152.861V160.229H193.724V152.861C193.724 152.535 193.887 152.372 194.214 152.372H196.771C197.097 152.372 197.26 152.535 197.26 152.861V170.915C197.26 171.242 197.097 171.405 196.771 171.405H194.214C193.887 171.405 193.724 171.242 193.724 170.915V163.33H184.616V170.915C184.616 171.242 184.452 171.405 184.126 171.405H181.569C181.243 171.405 181.08 171.242 181.08 170.915V152.861C181.08 152.535 181.243 152.372 181.569 152.372H184.126C184.452 152.372 184.616 152.535 184.616 152.861Z" fill="#96033A"/>
</svg>
