<svg width="250" height="250" viewBox="0 0 250 250" fill="none" xmlns="http://www.w3.org/2000/svg">
<rect width="250" height="250" fill="#FE0000"/>
<path d="M125.432 149.172C127.092 149.172 128.486 149.803 129.582 151.064C130.678 152.326 131.209 153.854 131.209 155.68C131.209 157.506 130.678 159.033 129.582 160.295C128.486 161.557 127.125 162.154 125.432 162.154C123.705 162.154 122.311 161.523 121.248 160.295C120.186 159.066 119.654 157.506 119.654 155.646C119.654 153.82 120.186 152.26 121.281 151.031C122.377 149.77 123.738 149.172 125.432 149.172Z" fill="white"/>
<path d="M102.359 157.672C103.246 157.678 103.899 157.722 104.348 157.971C104.945 158.303 105.244 158.967 105.244 159.963C105.244 160.859 104.912 161.457 104.281 161.789C103.65 162.121 102.654 162.453 101.293 162.453H99.4667V157.672H102.359Z" fill="white"/>
<path d="M100.496 148.939C101.725 148.939 102.555 149.039 103.019 149.238C103.85 149.537 104.281 150.201 104.281 151.23C104.281 152.094 103.949 152.858 103.285 153.19C102.721 153.455 101.725 153.754 100.397 153.754H99.4667V148.939H100.496Z" fill="white"/>
<path d="M125.531 94.5196C126.56 94.5196 127.391 94.8185 127.955 95.4161C128.553 96.0138 128.851 96.844 128.851 97.9064C128.851 98.9356 128.553 99.7656 127.955 100.363C127.358 100.961 126.56 101.26 125.531 101.26C124.502 101.26 123.672 100.961 123.107 100.363C122.51 99.7656 122.211 98.9356 122.211 97.9064C122.211 96.8439 122.51 96.0138 123.107 95.4161C123.705 94.8185 124.502 94.5196 125.531 94.5196Z" fill="white"/>
<path d="M144.822 87.2149C146.682 87.215 147.611 89.5391 147.611 94.1542C147.611 98.8026 146.682 101.127 144.822 101.127C142.963 101.127 142 98.8028 142 94.1876C142 91.7969 142.232 90.037 142.664 88.9081C143.096 87.7793 143.826 87.2149 144.822 87.2149Z" fill="white"/>
<path fill-rule="evenodd" clip-rule="evenodd" d="M125 40C171.949 40 210 78.0508 210 125C210 171.949 171.949 210 125 210C107.701 210 91.6307 204.854 78.2167 195.955H54.0118V171.75C45.1466 158.336 40 142.266 40 125C40 78.0508 78.0508 40 125 40ZM125.432 144.092C122.211 144.092 119.422 145.221 117.098 147.479C114.774 149.736 113.611 152.459 113.611 155.68C113.611 159.332 115.039 162.32 117.894 164.611C120.119 166.371 122.609 167.268 125.399 167.268C128.652 167.267 131.441 166.139 133.732 163.914C136.023 161.656 137.186 158.934 137.186 155.68C137.219 152.426 136.09 149.703 133.766 147.445C131.475 145.187 128.685 144.092 125.432 144.092ZM145.287 155.082L137.086 166.67H143.926L147.678 160.129C148.01 159.564 148.242 158.967 148.408 158.303C148.541 158.867 148.807 159.498 149.172 160.129L152.924 166.67H159.797L151.629 155.215L159 144.59H151.861L149.205 149.703C148.807 150.5 148.541 151.131 148.441 151.529C148.142 150.633 147.91 150.002 147.711 149.703L145.055 144.59H137.883L145.287 155.082ZM93.922 153.688H91.5313V157.672H93.922V166.437H99.8652C101.99 166.437 103.584 166.471 104.58 166.371C106.008 166.205 107.17 165.94 108.066 165.475C109.992 164.479 110.955 162.752 110.955 160.295C110.955 158.701 110.49 157.439 109.627 156.443C108.764 155.447 107.535 154.883 105.941 154.783C107.369 154.385 108.399 153.82 109.029 153.09C109.66 152.359 109.959 151.363 109.959 150.101C109.959 147.844 108.93 146.449 106.838 145.519C105.676 145.021 103.484 144.922 100.33 144.922H93.922V153.688ZM102.322 125.697C102.322 127.723 102.422 129.25 102.621 130.279C102.887 131.674 103.418 132.836 104.215 133.766C105.776 135.559 108.432 136.455 112.117 136.455C115.604 136.455 118.127 135.691 119.654 134.197C121.182 132.67 121.945 130.246 121.945 126.893V113.777H115.936V124.369C115.936 127.058 115.736 128.818 115.404 129.648C114.906 130.81 113.811 131.375 112.117 131.375C110.623 131.375 109.627 130.943 109.062 130.047C108.564 129.25 108.332 127.822 108.332 125.764V113.777H102.322V125.697ZM83.629 118.957H88.543V135.857H94.5527V118.957H99.5001V113.777H83.629V118.957ZM126.527 135.857H132.338V124.967C132.338 123.871 132.238 122.41 132.006 120.617C132.969 122.676 133.633 123.938 133.998 124.469L142.332 135.857H148.109V113.777H142.332V124.668C142.332 125.764 142.432 127.191 142.664 129.017C141.701 126.893 141.037 125.598 140.672 125.133L132.338 113.777H126.527V135.857ZM152.858 135.857H166.371V130.91H158.734V127.158H165.939V122.443H158.734V118.625H166.371V113.777H152.858V135.857ZM121.149 88.1445C119.787 90.2363 118.858 91.7638 118.326 92.9259C117.563 94.586 117.197 96.1465 117.197 97.707C117.197 100.131 117.928 102.024 119.422 103.484C120.916 104.945 122.975 105.676 125.565 105.676C128.154 105.676 130.213 104.945 131.74 103.451C133.267 101.957 134.031 100.031 134.031 97.6405C134.064 95.582 133.433 93.8888 132.172 92.5939C130.91 91.299 129.383 90.6348 127.557 90.6348C126.826 90.6348 126.029 90.9336 125.232 91.1328L130.379 83.5292H124.236L121.149 88.1445ZM106.307 82.7325C103.75 82.7325 101.791 83.3302 100.397 84.4591C99.0021 85.6212 98.2716 87.215 98.2384 89.2736H103.584C103.584 87.6798 104.414 86.8829 106.041 86.8829C106.738 86.8829 107.336 87.0819 107.801 87.5135C108.266 87.9452 108.498 88.4765 108.498 89.1737C108.498 90.9003 107.435 91.7638 105.344 91.7638H105.045V95.3163C105.211 95.2831 105.41 95.2832 105.709 95.2832C107.9 95.2832 108.996 96.2795 108.996 98.2384C108.996 100.064 108.033 100.994 106.107 100.994C104.314 100.994 103.418 100.031 103.418 98.0724V97.707H97.8065V98.0059C97.8065 100.363 98.5373 102.189 100.065 103.584C101.592 104.945 103.617 105.643 106.174 105.643C108.631 105.643 110.623 104.979 112.15 103.65C113.678 102.322 114.441 100.596 114.441 98.4375C114.441 96.9766 114.076 95.748 113.312 94.7852C112.549 93.8223 111.453 93.2245 110.092 92.9921C112.416 92.2948 113.578 90.7676 113.578 88.4435C113.578 86.7169 112.914 85.3224 111.652 84.2931C110.357 83.2306 108.598 82.7325 106.307 82.7325ZM144.822 82.7656C142.232 82.7656 140.207 83.7618 138.713 85.7872C137.219 87.8126 136.455 90.6017 136.455 94.1876C136.455 97.8066 137.219 100.596 138.713 102.621C140.207 104.646 142.266 105.643 144.822 105.643C147.412 105.643 149.437 104.646 150.932 102.654C152.426 100.662 153.156 97.9062 153.156 94.3867C153.189 90.668 152.426 87.8126 150.965 85.7872C149.504 83.7619 147.445 82.7656 144.822 82.7656Z" fill="white"/>
</svg>
