<svg width="250" height="250" viewBox="0 0 250 250" fill="none" xmlns="http://www.w3.org/2000/svg">
<rect width="250" height="250" fill="#E40A22"/>
<path fill-rule="evenodd" clip-rule="evenodd" d="M135.222 172.611H40V77.3891H135.222V172.611ZM94.7777 123.436C97.6866 125.847 99.4583 128.961 99.4583 132.748C99.4583 139.662 94.0383 145.082 86.5913 145.082C79.1185 145.082 74.4156 140.731 71.7447 134.898L62.4591 144.272C66.2251 150.71 74.3788 157.791 86.5604 157.791C100.816 157.791 112.784 146.869 112.784 132.817C112.784 125.117 109.212 118.88 104.011 114.209L94.7777 123.436ZM79.011 118.644L87.6108 127.243L112.912 101.942L104.312 93.3426L79.011 118.644ZM75.0227 104.186H89.979L101.819 92.3455H63.1823L75.0227 104.186Z" fill="white"/>
<path fill-rule="evenodd" clip-rule="evenodd" d="M142.686 113.778L146.274 110.164C146.274 110.164 149.176 113.641 153.564 113.641C155.756 113.641 157.546 112.693 157.546 110.912C157.546 106.152 144.518 108.176 144.518 99.321C144.518 95.1132 148.102 92.2699 153.938 92.2699C158.31 92.2699 161.24 94.048 163.598 96.5054L160.026 100.046C158.717 98.5534 156.309 96.9621 154.032 96.9621C151.359 96.9621 150.66 98.1185 150.66 99.2019C150.66 103.43 163.761 101.35 163.761 110.789C163.761 115.387 159.665 118.59 153.794 118.59C148.542 118.59 144.975 116.496 142.686 113.778Z" fill="white"/>
<path fill-rule="evenodd" clip-rule="evenodd" d="M178.732 92.2692C173.862 92.2692 170.675 94.4518 168.562 96.5209L172.126 100.084C173.674 98.5344 175.628 97.1687 178.388 97.1687C182.043 97.1687 183.269 99.2113 183.269 101.342V101.966C174.228 102.583 167.052 105.026 167.052 111.414C167.052 116.462 170.991 118.591 175.503 118.591C180.17 118.591 182.574 116.612 183.643 115.274L183.769 117.896H189.314V102.316C189.314 95.8439 185.248 92.2692 178.732 92.2692ZM183.269 106.098V108.425C183.269 111.645 179.694 113.885 176.824 113.885C174.518 113.885 173.245 112.669 173.245 111.064C173.245 108.037 176.96 106.818 183.269 106.098Z" fill="white"/>
<path fill-rule="evenodd" clip-rule="evenodd" d="M200.406 83.8702V92.9686H207.884V97.8294H200.406V110.114C200.406 112.06 201.231 113.283 203.461 113.283C205.233 113.283 206.293 111.929 206.293 111.929L210 115.636C208.918 116.663 206.863 118.615 203 118.615C197.675 118.615 194.424 115.527 194.424 110.293V89.8527L200.406 83.8702Z" fill="white"/>
</svg>
