<svg width="250" height="250" viewBox="0 0 250 250" fill="none" xmlns="http://www.w3.org/2000/svg">
<rect width="250" height="250" fill="#AA0000"/>
<path d="M113.849 40.5337C104.031 41.9115 96.4962 44.2797 87.1526 48.93C70.3168 57.3263 57.7008 69.8562 49.3045 86.4767C32.5549 119.545 38.7983 158.857 64.9776 184.994C98.2185 218.278 151.869 218.278 185.11 184.994C192.344 177.803 197.424 170.569 201.945 161.096C207.285 149.858 209.567 140.17 209.954 127.296C210.385 112.355 207.801 100.729 201.041 87.0364C192.602 70.0715 179.9 57.3694 162.935 48.93C154.065 44.5381 148.381 42.6866 138.822 40.9212C133.44 39.9739 119.489 39.7155 113.849 40.5337ZM167.887 68.6075C167.887 68.8228 166.896 75.3246 165.734 83.1612C164.571 90.9547 163.581 97.4134 163.581 97.4565C163.581 97.5426 154.108 97.5856 142.525 97.5856H121.47L120.996 100.255C120.738 101.762 120.436 103.829 120.264 104.819L119.963 106.714L123.364 106.326C128.144 105.853 137.057 105.982 140.114 106.585C154.539 109.513 163.796 117.608 167.542 130.611C168.403 133.539 168.532 134.917 168.489 141.29C168.489 147.447 168.317 149.169 167.542 152.054C163.624 166.349 152.902 176.683 137.961 180.602C126.378 183.659 109.026 182.798 95.9364 178.535C91.4584 177.071 84.7844 173.885 84.7844 173.196C84.7844 172.55 88.229 150.461 88.4443 149.772C88.5735 149.385 89.4777 149.643 91.5445 150.719C97.831 153.863 107.605 156.403 115.356 156.877C127.972 157.652 135.765 152.14 135.808 142.366C135.808 137.328 133.139 133.41 128.058 130.999C124.01 129.061 121.125 128.544 113.504 128.286C105.754 128.028 100.802 128.501 95.1614 129.965C93.439 130.396 91.932 130.697 91.8028 130.611C91.6306 130.396 100.974 70.5882 101.405 69.0381C101.62 68.3492 103.601 68.3061 134.775 68.3061C152.988 68.3061 167.887 68.4353 167.887 68.6075Z" fill="white"/>
</svg>
