<svg width="250" height="250" viewBox="0 0 250 250" fill="none" xmlns="http://www.w3.org/2000/svg">
<rect width="250" height="250" fill="#0055B8"/>
<path d="M126.598 121.209L114.018 106.147C116.194 104.345 118.529 102.288 121.022 99.9759C123.515 97.6753 125.958 95.2953 128.349 92.8359C130.729 90.3766 132.786 88.1043 134.52 86.0189H158.388V163.981H136.696V112.437C135.393 113.956 133.857 115.474 132.089 116.993C130.31 118.5 128.479 119.906 126.598 121.209Z" fill="white"/>
<path d="M178.21 121.209L165.63 106.147C167.806 104.345 170.141 102.288 172.634 99.9759C175.127 97.6753 177.564 95.2953 179.944 92.8359C182.335 90.3766 184.398 88.1043 186.132 86.0189H210V163.981H188.308V112.437C187.005 113.956 185.469 115.474 183.701 116.993C181.922 118.5 180.091 119.906 178.21 121.209Z" fill="white"/>
<path fill-rule="evenodd" clip-rule="evenodd" d="M97.817 163.981L94.026 152.829H65.925L62.236 163.981H40L67.659 86.0189H93.686L121.685 163.981H97.817ZM87.617 133.874L79.916 110.924L72.215 133.874H87.617Z" fill="white"/>
</svg>
