<svg width="250" height="250" viewBox="0 0 250 250" fill="none" xmlns="http://www.w3.org/2000/svg">
<rect width="250" height="250" fill="#FF8900"/>
<path d="M120.239 177.867C116.079 176.497 112.13 172.617 109.335 167.153C108.688 165.888 108.159 164.761 108.159 164.648C108.159 164.327 110.107 163.255 110.198 163.526C110.24 163.654 110.792 164.585 111.422 165.594C116.156 173.168 122.635 174.001 125.706 167.429C126.567 165.587 126.978 163.886 127.473 160.124C128.181 154.735 129.274 148.135 129.764 146.289C131.137 141.116 134.077 137.033 141.44 130.076C147.846 124.021 150.934 119.311 151.295 115.038C151.368 114.177 151.359 113.473 151.275 113.473C151.191 113.473 150.496 114.024 149.731 114.698C148.966 115.371 147.178 116.791 145.759 117.853C142.123 120.574 140.55 121.977 139.474 123.458C138.96 124.166 138.472 124.744 138.389 124.744C138.306 124.744 137.84 123.547 137.352 122.083C136.655 119.988 136.465 119.111 136.461 117.961C136.453 116.234 136.761 115.548 138.516 113.368C140.795 110.538 141.965 107.39 141.967 104.08C141.97 100.557 140.422 97.4872 135.902 92.0544C133.888 89.6337 128.054 83.4158 127.797 83.4158C127.712 83.4158 127.667 84.8012 127.696 86.4945C127.817 93.5294 126.466 98.8994 122.632 106.622C120.185 111.552 119.669 112.741 118.692 115.709C117.662 118.838 117.337 120.561 117.2 123.633L117.077 126.384L116.171 127.273C115.672 127.762 115.211 128.108 115.145 128.043C114.855 127.752 114.597 123.553 114.706 120.883C114.907 115.967 116.068 111.567 118.918 104.915C124.312 92.3261 125.712 87.651 125.422 83.1851C125.303 81.335 125.136 80.7576 123.288 75.7971C121.713 71.5676 122.158 67.4387 124.604 63.5911C125.224 62.6154 125.299 62.3705 125.113 61.9213C124.993 61.6317 124.515 60.5336 124.05 59.4811C122.624 56.2506 122.27 54.5669 122.259 50.9583C122.249 47.6109 122.499 46.2019 123.486 44.0452C124.342 42.1739 126.721 40 127.913 40C128.756 40 128.629 40.3566 127.473 41.2292C125.016 43.0845 124.137 46.3051 124.977 50.3739C125.85 54.5973 127.586 57.5858 133.338 64.7654C146.928 81.726 153.763 91.6725 159.123 102.287C162.531 109.038 163.906 112.568 165.321 118.203C166.777 124.003 167.243 128.815 166.822 133.72C165.908 144.39 161.632 151.832 154.288 155.535C149.242 158.08 142.62 158.508 136.684 156.675C134.533 156.011 134.6 156.159 135.102 153.171C135.6 150.206 135.958 149.048 136.364 149.093C136.522 149.11 137.543 149.286 138.634 149.483C143.459 150.353 148.666 149.277 152.619 146.594C153.895 145.727 156.224 143.475 157.348 142.021C159.278 139.524 160.816 136.221 161.72 132.634C162.385 129.99 162.638 124.594 162.228 121.788C161.913 119.635 160.815 115.972 159.578 112.951C155.242 102.363 147.687 91.0196 131.354 70.5789C130.62 69.6605 129.269 67.8993 128.351 66.6652C127.432 65.4311 126.612 64.4214 126.528 64.4214C126.247 64.4214 125.302 66.0339 124.947 67.1206C124.695 67.8915 124.622 68.6472 124.69 69.8084C124.87 72.9315 126.186 74.8801 132.777 81.7907C136.798 86.0071 139.073 88.7507 141.079 91.8062C144.807 97.4852 146.153 103.166 144.886 107.874C144.761 108.336 144.7 108.755 144.75 108.805C145.032 109.086 149.051 105.44 150.261 103.805C150.672 103.25 151.084 102.88 151.183 102.978C151.436 103.231 152.747 108.532 153.234 111.27C153.911 115.08 154.145 117.804 154.016 120.385C153.877 123.158 153.494 124.519 152.081 127.249C150.642 130.033 148.732 132.37 143.199 138.118C137.728 143.803 135.798 146.161 135.107 148.007C134.418 149.849 133.594 154.43 133.116 159.08C132.413 165.911 131.743 170.646 131.237 172.354C130.482 174.903 129.15 176.637 127.217 177.589C125.989 178.193 125.6 178.278 123.83 178.331C122.151 178.382 121.576 178.307 120.239 177.867Z" fill="white"/>
<path d="M141.195 169.184C139.615 168.402 138.473 166.689 137.27 163.296C136.849 162.107 136.756 161.605 136.924 161.437C137.285 161.076 137.688 161.54 138.189 162.893C138.818 164.589 139.494 165.699 140.11 166.045C140.567 166.301 140.726 166.302 141.255 166.05C141.749 165.814 141.882 165.603 141.934 164.975C142.056 163.502 142.866 164.27 143.517 166.476C143.975 168.028 143.945 168.308 143.242 169.011C142.515 169.738 142.344 169.752 141.195 169.184Z" fill="white"/>
<path d="M111.59 74.897C111.59 77.1692 113.472 79.0977 115.791 79.0977C116.832 79.0977 117.783 78.7146 118.517 78.0867L119.065 77.6953L118.981 79.1499C118.873 81.061 118.155 82.5208 116.378 84.4399C114.458 86.5137 112.588 87.8578 106.489 91.5432C98.1578 96.5783 95.3284 98.5595 92.3283 101.458C88.473 105.183 85.7834 109.696 84.6053 114.425C82.9966 120.883 83.5122 127.091 86.2426 134.242C87.0233 136.286 87.0379 136.402 87.1558 139.877C87.4689 149.113 89.7862 155.468 94.5787 160.235C97.0131 162.656 99.2394 163.809 102.145 164.168C102.871 164.258 103.932 164.295 104.506 164.246C111.466 163.659 114.508 157.9 116 142.486C116.194 140.477 116.458 138.535 116.587 138.168C116.745 137.718 118.119 136.318 120.813 133.857C125.053 129.983 125.901 128.881 125.901 127.262C125.902 126.262 125.049 120.293 124.877 120.1C124.802 120.016 124.32 120.524 123.807 121.229C122.951 122.406 120.219 125.061 116.645 128.188C114.303 130.239 113.865 131.316 113.071 136.968C111.686 146.819 109.928 152.012 106.979 154.964C104.254 157.692 99.8197 158.381 96.3333 156.615C92.7904 154.819 90.1673 149.436 89.8497 143.321L89.7257 140.921L91.3369 142.428C93.4816 144.431 95.2256 145.304 97.09 145.304C98.8474 145.305 99.4259 145.133 100.338 144.332C101.681 143.154 102.315 141.266 102.315 138.436C102.315 132.782 99.2809 126.004 95.9681 124.268C94.6316 123.568 92.8508 123.635 91.5717 124.431C90.3369 125.2 89.1181 126.886 88.4864 128.71C88.2275 129.458 87.9228 130.115 87.808 130.171C87.4225 130.359 87.0582 127.795 87.0514 124.849C87.0464 122.683 87.1591 121.376 87.4819 119.8C88.6883 113.909 91.0178 109.709 95.6224 105.117C98.7373 102.011 101.952 99.563 109.157 94.8177C114.727 91.1489 117.107 89.1681 118.426 87.1077C119.008 86.1988 119.127 86.1036 119.183 86.4946C119.382 87.8878 117.699 92.2029 113.834 100.219C110.667 106.787 109.675 109.081 108.081 113.486C106.071 119.043 104.825 124.001 104.095 129.336C103.629 132.752 103.463 139.794 103.75 144.28C104.005 148.274 104.888 154.53 105.243 154.886C105.386 155.029 105.679 154.866 106.157 154.377L106.868 153.653L106.489 151.357C105.091 142.892 105.622 133.854 108.061 124.581C109.786 118.024 111.856 112.797 116.769 102.619C121.098 93.6533 121.874 90.622 121.668 83.4158C121.497 77.4386 120.704 73.9487 119.111 72.177C118.241 71.209 117.319 70.7029 116.104 70.7029C113.151 70.7029 111.59 72.6206 111.59 74.897ZM95.9615 131.241C96.3654 131.252 96.7515 131.353 97.1161 131.541C97.8703 131.931 98.9778 133.59 98.9751 134.333C98.974 134.626 98.6938 135.347 98.3554 135.937C97.875 136.775 97.5004 137.13 96.6464 137.555C95.195 138.278 93.4608 138.303 91.9826 137.614C90.3835 136.868 90.3286 136.731 91.0368 135.233C92.2145 132.743 94.2116 131.193 95.9615 131.241Z" fill="white"/>
<path d="M125.882 149.871C123.232 147.328 120.591 143.608 118.676 139.722L117.879 138.106L118.803 137.165C119.311 136.648 119.832 136.224 119.961 136.224C120.09 136.224 120.564 136.764 121.013 137.425C122.018 138.902 125.496 142.525 127.422 144.1C128.691 145.139 128.835 145.33 128.709 145.809C128.631 146.105 128.348 147.416 128.079 148.721C127.811 150.026 127.543 151.142 127.484 151.2C127.426 151.259 126.705 150.661 125.882 149.871Z" fill="white"/>
<path d="M97.6407 117.253C96.8841 116.464 96.6783 115.46 96.9042 113.66C97.0338 112.628 97.316 111.759 97.8539 110.736C99.231 108.115 103.567 104.305 103.567 105.715C103.567 105.798 102.686 106.771 101.609 107.878C98.6984 110.87 97.7444 113.065 98.7815 114.384C99.5063 115.305 100.854 115.04 100.854 113.976C100.854 113.386 101.546 112.525 101.863 112.721C102.188 112.922 102.169 113.614 101.808 114.813C101.006 117.479 98.9884 118.66 97.6407 117.253Z" fill="white"/>
<path d="M126.538 114.36C126.008 112.451 126.17 112.189 131.304 106.652C133.414 104.377 135.408 102.15 135.736 101.705C136.373 100.838 136.402 100.856 136.723 102.339C136.867 103.005 136.832 103.38 136.572 103.951C136.386 104.361 134.496 106.59 132.372 108.905C130.248 111.22 128.182 113.565 127.78 114.117C127.378 114.668 126.983 115.125 126.902 115.131C126.822 115.137 126.658 114.79 126.538 114.36Z" fill="white"/>
<path d="M114.543 82.0488C114.543 83.1629 114.101 84.2313 113.313 85.0191C112.525 85.8069 111.457 86.2494 110.343 86.2494C109.229 86.2494 108.16 85.8069 107.372 85.0191C106.585 84.2313 106.142 83.1629 106.142 82.0488C106.142 80.9347 106.585 79.8663 107.372 79.0785C108.16 78.2907 109.229 77.8481 110.343 77.8481C111.457 77.8481 112.525 78.2907 113.313 79.0785C114.101 79.8663 114.543 80.9347 114.543 82.0488Z" fill="white"/>
<path d="M136.44 127.508L131.052 124.903L128.04 131.131L133.428 133.737L136.44 127.508Z" fill="white"/>
<path d="M154.105 138.808L148.717 136.202L145.705 142.431L151.094 145.036L154.105 138.808Z" fill="white"/>
<path d="M125.584 154.141L120.951 150.352L116.518 155.772L121.151 159.561L125.584 154.141Z" fill="white"/>
<path d="M124.532 163.573L119.899 159.784L115.466 165.205L120.099 168.994L124.532 163.573Z" fill="white"/>
<path fill-rule="evenodd" clip-rule="evenodd" d="M74.1819 190.99L69.368 204.72H72.923L73.7579 202.261H78.3499L79.0414 204.72H82.7985L78.0695 190.99H74.1819ZM76.067 195.008L77.365 199.078H74.7624L76.067 195.008Z" fill="white"/>
<path fill-rule="evenodd" clip-rule="evenodd" d="M106.832 190.99L102.018 204.72H105.573L106.408 202.261H111L111.691 204.72H115.448L110.719 190.99H106.832ZM108.717 195.008L110.015 199.078H107.412L108.717 195.008Z" fill="white"/>
<path fill-rule="evenodd" clip-rule="evenodd" d="M172.015 190.99L167.201 204.72H170.756L171.591 202.261H176.183L176.875 204.72H180.632L175.903 190.99H172.015ZM173.9 195.008L175.198 199.078H172.596L173.9 195.008Z" fill="white"/>
<path fill-rule="evenodd" clip-rule="evenodd" d="M85.2044 204.688H93.015V201.8H88.6174V191.003H85.2372L85.2044 204.688Z" fill="white"/>
<path fill-rule="evenodd" clip-rule="evenodd" d="M130.788 191.003V204.787H140.01V201.964H134.135V199.372H138.73V196.582H134.168V193.891H139.583V191.003H130.788Z" fill="white"/>
<path fill-rule="evenodd" clip-rule="evenodd" d="M143.062 191.003V204.787H152.284V201.964H146.409V199.372H151.004V196.582H146.442V193.891H151.857V191.003H143.062Z" fill="white"/>
<path fill-rule="evenodd" clip-rule="evenodd" d="M118.055 191.003V193.891H122.945L117.858 201.308V204.787H127.605V201.8H122.485L127.473 194.482V191.003H118.055Z" fill="white"/>
<path fill-rule="evenodd" clip-rule="evenodd" d="M96.321 190.97H99.7915V205.083C99.7915 205.083 100.018 207.258 98.5256 208.891C96.4533 211.158 92.758 209.248 92.758 209.248L93.5447 206.379C93.5447 206.379 94.0074 206.703 94.6552 206.703C95.5185 206.703 96.3673 205.756 96.3673 204.667L96.321 190.97Z" fill="white"/>
<path fill-rule="evenodd" clip-rule="evenodd" d="M155.339 191.003V204.72H158.783V199.6C159.59 199.6 160.163 199.51 160.518 199.933C160.936 200.432 162.585 204.714 162.585 204.714L166.134 204.72L164.001 199.274C164.001 199.274 163.549 198.165 163.055 198.165C163.583 197.8 164.229 197.271 164.229 197.271C164.229 197.271 165.181 196.69 165.181 194.786C165.181 192.883 163.953 191.003 161.835 191.003H155.339ZM158.763 193.932H160.426C161.047 193.932 161.679 194.581 161.679 195.295C161.679 196.009 161.085 196.639 160.452 196.639H158.763V193.932Z" fill="white"/>
</svg>
