<svg width="250" height="250" viewBox="0 0 250 250" fill="none" xmlns="http://www.w3.org/2000/svg">
<rect width="250" height="250" fill="black"/>
<path d="M65.4977 97.1393C45.2089 97.1393 42.0544 110.451 42.0544 114.499H54.1354L54.1808 114.342C55.1136 111.132 57.6323 107.589 65.6975 107.589C75.3862 107.589 76.428 115.371 76.4511 117.389L76.452 117.564C76.451 117.851 76.4453 118.436 76.4434 118.629L76.4413 118.697L75.9512 118.696H75.793L75.0398 118.695H74.8314L74.2033 118.694H73.9988L73.1367 118.693H72.7611H72.2231C54.5088 118.764 40 122.358 40 136.552C40 144.02 47.5404 152.872 59.1621 152.872C66.6312 152.872 73.8918 149.839 76.7075 147.536L77.0308 151.617H88.5299V122.706L88.5282 122.218C88.4124 106.182 82.4413 97.1393 65.4977 97.1393ZM72.873 128.361H72.8743H74.082L75.2627 128.363H75.4496H76.5416V131.31L76.533 131.676C76.4722 133.133 76.0428 134.575 75.354 136.028C73.936 139.164 68.6965 142.36 62.0898 142.36C56.3754 142.36 52.351 140.517 52.351 136.439C52.351 130.901 58.6838 129.339 63.3593 128.863C68.0107 128.394 70.9727 128.357 72.873 128.361Z" fill="white"/>
<path d="M114.653 98.4262H95.5525V151.617H108.03V112.628L118.839 151.617H130.336L141.154 112.628V151.617H153.618L153.599 98.4262H134.516L124.585 136.668C123.69 132.469 114.653 98.4262 114.653 98.4262Z" fill="white"/>
<path d="M185.021 97.1278C170.011 97.1278 159.424 108.438 159.424 125.002C159.424 140.864 169.949 152.871 185.021 152.871C197.613 152.871 207.516 143.935 210 131.304H197.974C195.985 137.512 191.071 141.698 185.021 141.698C177.083 141.698 171.105 134.506 171.105 125.002C171.105 115.502 177.082 108.307 185.021 108.307C191.04 108.307 195.928 112.448 197.942 118.587H209.98C207.454 106.018 197.572 97.1278 185.021 97.1278Z" fill="white"/>
</svg>
