<svg width="250" height="250" viewBox="0 0 250 250" fill="none" xmlns="http://www.w3.org/2000/svg">
<rect width="250" height="250" fill="#0074FF"/>
<path d="M46.2346 157.201C42.3895 157.201 40 160.304 40 163.722C40 167.658 42.8492 170.441 46.3007 170.441C48.8442 170.441 50.4204 168.59 50.4204 168.59V170H54.4593V157.663H50.4204V159.191C50.4204 159.191 49.0473 157.201 46.2346 157.201ZM47.4242 160.608C49.251 160.608 50.5379 162.42 50.5379 163.788C50.5379 165.661 49.078 166.938 47.4242 166.938C45.8503 166.938 44.2225 165.874 44.2225 163.81C44.2225 162.176 45.5701 160.608 47.4242 160.608Z" fill="white"/>
<path d="M57.3526 169.997V157.66H61.4179V159.278C61.4179 159.278 62.7692 157.19 65.7553 157.19C69.1297 157.19 70.2771 159.329 70.2771 162.008V169.997H66.2118V163.418C66.2118 161.338 65.409 160.482 64.0712 160.482C62.5395 160.482 61.4179 161.806 61.4179 163.888V169.997H57.3526Z" fill="white"/>
<path d="M72.9325 169.997V157.66H77.0448V169.997H72.9325Z" fill="white"/>
<path d="M77.4126 153.085C77.4126 154.405 76.3423 155.475 75.0219 155.475C73.7016 155.475 72.6313 154.405 72.6313 153.085C72.6313 151.764 73.7016 150.694 75.0219 150.694C76.3423 150.694 77.4126 151.764 77.4126 153.085Z" fill="white"/>
<path d="M92.8362 164.122V169.997H88.7709V163.417C88.7709 161.338 87.9681 160.481 86.6304 160.481C85.0986 160.481 83.9771 161.806 83.9771 163.887V169.997H79.9117V157.66H83.9771V159.278C83.9771 159.278 85.3283 157.19 88.3144 157.19C90.3842 157.19 91.6161 157.995 92.2593 159.235C92.2593 159.235 93.5872 157.177 97.0003 157.177C100.201 157.177 101.766 159.125 101.766 161.773V169.997H97.7005V163.417C97.7005 161.813 97.0689 160.443 95.5586 160.443C94.015 160.443 92.8362 161.835 92.8362 164.122Z" fill="white"/>
<path d="M109.6 157.201C105.754 157.201 103.365 160.304 103.365 163.722C103.365 167.658 106.214 170.441 109.666 170.441C112.209 170.441 113.785 168.59 113.785 168.59V170H117.824V157.663H113.785V159.191C113.785 159.191 112.412 157.201 109.6 157.201ZM110.789 160.608C112.616 160.608 113.903 162.42 113.903 163.788C113.903 165.661 112.443 166.938 110.789 166.938C109.215 166.938 107.587 165.874 107.587 163.81C107.587 162.176 108.935 160.608 110.789 160.608Z" fill="white"/>
<path d="M120.71 169.997V152.725H124.822V169.997H120.71Z" fill="white"/>
<path d="M161.139 157.201C157.294 157.201 154.904 160.304 154.904 163.722C154.904 167.658 157.754 170.441 161.205 170.441C163.749 170.441 165.325 168.59 165.325 168.59V170H169.364V157.663H165.325V159.191C165.325 159.191 163.952 157.201 161.139 157.201ZM162.329 160.608C164.155 160.608 165.442 162.42 165.442 163.788C165.442 165.661 163.982 166.938 162.329 166.938C160.755 166.938 159.127 165.874 159.127 163.81C159.127 162.176 160.475 160.608 162.329 160.608Z" fill="white"/>
<path d="M149.064 169.997V152.725H153.177V169.997H149.064Z" fill="white"/>
<path d="M141.2 157.201C145.045 157.201 147.435 160.304 147.435 163.722C147.435 167.658 144.586 170.441 141.134 170.441C138.591 170.441 137.014 168.59 137.014 168.59V174.932H132.976V157.663H137.014V159.191C137.014 159.191 138.388 157.201 141.2 157.201ZM140.011 160.608C138.184 160.608 136.897 162.42 136.897 163.788C136.897 165.661 138.357 166.938 140.011 166.938C141.585 166.938 143.212 165.874 143.212 163.81C143.212 162.176 141.865 160.608 140.011 160.608Z" fill="white"/>
<path d="M172.263 169.997V157.66H176.328V159.278C176.328 159.278 177.68 157.19 180.666 157.19C184.04 157.19 185.188 159.329 185.188 162.008V169.997H181.122V163.418C181.122 161.338 180.319 160.482 178.982 160.482C177.45 160.482 176.328 161.806 176.328 163.888V169.997H172.263Z" fill="white"/>
<path d="M193.434 157.201C189.587 157.201 186.818 159.688 186.818 163.817C186.818 167.855 189.616 170.426 194.183 170.426C196.437 170.426 198.663 169.42 198.663 169.42L197.76 166.497C197.76 166.497 196.241 167.276 194.514 167.276C192.344 167.276 191.334 166.056 191.062 164.948H199.992C200.118 160.733 198.375 157.201 193.434 157.201ZM193.611 160.167C195.036 160.167 196.065 161.167 196.249 162.481H190.996C191.143 161.069 192.443 160.167 193.611 160.167Z" fill="white"/>
<path d="M206.807 154.723V157.66H209.627V160.833H206.807V165.767C206.807 166.776 207.218 167.269 208.418 167.269C208.956 167.269 209.65 167.088 209.65 167.088L210 170.025C210 170.025 209.096 170.392 207.436 170.392C204.338 170.392 202.694 168.865 202.694 166.002V160.833H200.862V157.66H202.694V154.723H206.807Z" fill="white"/>
<path d="M135.178 75.068V94.6452C135.178 94.6452 138.218 97.1335 139.664 99.1316C132.217 94.2725 124.304 92.2315 114.682 92.2315C98.8439 92.2315 84.4229 99.5697 77.3033 111.716L78.2223 113.443C78.2223 113.443 81.3203 109.718 88.4781 106.065C80.6598 113.778 77.3852 119.93 72.5782 134.116L80.2036 141.711C90.1808 130.547 104.86 123.172 121.431 123.172C137.111 123.172 151.549 130.189 160.576 139.518L168.79 131.28C164.185 123.399 158.206 116.131 153.453 111.085C158.37 113.893 166.221 115.499 173.72 115.499C186.84 115.499 196.48 108.435 196.48 98.8171C196.48 86.9689 186.322 79.7584 169.753 77.0167L167.074 81.5118C175.412 82.9988 188.384 87.852 188.384 96.5218C188.384 101.278 184.705 105.267 179.404 105.267C172.853 105.267 167.412 97.961 164.106 91.5096L159.047 91.3879C153.239 84.2017 143.851 77.1891 135.178 75.068Z" fill="white"/>
</svg>
