<svg width="250" height="250" viewBox="0 0 250 250" fill="none" xmlns="http://www.w3.org/2000/svg">
<rect width="250" height="250" fill="#003480"/>
<path d="M162.051 144.341L183.482 136.713V104.566L151.335 116.19V124.181L162.051 120.185V144.341Z" fill="white"/>
<path d="M171.313 85.8589C158.599 85.8589 146.431 92.0342 139.165 102.569L144.796 106.564C150.789 98.0276 160.597 92.7608 171.131 92.7608C188.749 92.9425 202.916 107.291 202.734 124.908V125.09C202.916 142.708 188.93 157.056 171.494 157.238C160.778 157.419 150.789 152.152 144.795 143.434L138.983 147.43C146.248 157.964 158.054 164.14 170.768 164.14C192.381 164.321 209.817 146.885 209.999 125.272C210.18 103.658 192.745 86.0408 171.313 85.8589Z" fill="white"/>
<path d="M121.73 106.927C117.916 106.927 115.373 106.927 113.375 107.109H110.106H109.924V142.707H111.195C113.92 142.707 117.189 142.889 120.458 142.889C132.627 142.889 139.347 136.532 139.347 124.727C139.347 112.921 133.354 106.745 121.73 106.927ZM121.185 136.714C119.732 136.714 118.46 136.714 117.189 136.532V113.102C118.279 113.102 119.732 112.921 121.185 112.921C128.268 112.921 131.719 116.916 131.719 124.908C131.719 132.899 128.45 136.714 121.185 136.714Z" fill="white"/>
<path d="M61.0685 107.29L52.1689 107.109L40 142.889H47.2651L49.6262 135.624H63.0666L65.4277 142.889H73.4195L61.0685 107.29ZM51.4422 129.449L54.8931 118.551C55.4379 117.098 55.8012 115.464 56.1644 113.829C56.5277 115.1 56.8909 116.735 57.4358 118.551L60.8867 129.449H51.4422Z" fill="white"/>
<path d="M97.573 130.538C97.0282 129.63 96.3017 128.722 95.9385 127.996C100.297 126.724 103.385 122.547 103.204 117.824C103.204 110.741 98.6629 106.927 90.308 106.927C86.4939 106.927 83.2247 106.927 80.6816 107.109H77.594V142.889H84.6772V129.267H88.673L96.6648 142.889H105.201L97.573 130.538ZM84.6775 112.921H89.763C93.7587 112.921 95.575 114.556 95.575 118.006C95.575 121.457 93.5771 123.092 89.5813 123.092H84.6775V112.921Z" fill="white"/>
</svg>
