<svg width="250" height="250" viewBox="0 0 250 250" fill="none" xmlns="http://www.w3.org/2000/svg">
<rect width="250" height="250" fill="#DB502B"/>
<path fill-rule="evenodd" clip-rule="evenodd" d="M199.963 93.4142C194.416 93.4142 189.926 97.9173 189.926 103.451C189.926 109.017 194.416 113.531 199.963 113.531C205.508 113.531 210 109.018 210 103.451C210.007 97.9175 205.512 93.4142 199.964 93.4142H199.963ZM199.963 94.8996C204.672 94.8996 208.536 98.7294 208.536 103.451C208.536 108.205 204.672 112.067 199.963 112.067C195.255 112.067 191.39 108.206 191.39 103.451C191.39 98.7295 195.255 94.8996 199.963 94.8996ZM86.0135 97.3825C85.6333 97.3825 85.3345 97.6925 85.3345 98.0615V140.713C85.3345 141.082 85.6339 141.392 86.0135 141.392H92.04C92.4203 141.392 92.719 141.082 92.719 140.713V98.0615C92.719 97.6925 92.4203 97.3825 92.04 97.3825H86.0135ZM131.956 97.4035C131.576 97.4035 131.277 97.7135 131.277 98.0826V140.713C131.277 141.092 131.576 141.392 131.956 141.392H138.004C138.383 141.392 138.683 141.091 138.683 140.713V127.536C138.683 122.499 141.632 118.22 145.388 118.22C148.106 118.22 148.911 120.007 148.911 123.016L148.889 140.713C148.889 141.092 149.201 141.392 149.569 141.392H155.574C155.941 141.392 156.253 141.091 156.253 140.713V121.233C156.253 116.205 154.174 112.045 147.701 112.045C143.257 112.045 139.957 114.181 138.279 117.413L138.144 117.35C138.551 115.671 138.674 113.252 138.674 111.515V98.0825C138.674 97.7135 138.375 97.4034 137.995 97.4034H131.947L131.956 97.4035ZM204.043 97.4672L193.899 101.117V103.621L197.252 102.411V109.966L204.042 107.547V97.467L204.043 97.4672ZM57.4721 111.005C51.9122 111.005 46.5762 116.492 43.7426 121.063C42.4235 123.382 40.6607 127.069 40.1565 130.718C39.6495 134.357 40.2439 138.307 43.8912 140.374C49.4137 143.518 55.3011 140.791 59.4242 137.636C59.7946 137.374 60.1644 137.041 60.5913 136.681C61.6498 135.779 62.5459 134.892 63.2438 134.135C63.2634 134.106 63.3089 134.058 63.3287 134.029C64.1907 133.126 65.0896 132.142 65.9811 131.122L66.0872 131.334C69.086 136.691 73.0359 141.848 79.0528 141.392C79.7803 141.266 79.7651 140.641 79.7743 139.864C79.7841 138.35 79.7319 134.941 79.7319 134.941C79.7515 134.398 79.3362 134.118 78.6284 134.05C78.2981 134.021 77.6634 134.012 77.3128 133.838C75.7127 133.052 74.9509 131.603 73.6418 129.488C72.777 128.09 71.973 126.571 71.1378 124.989C72.837 122.902 79.4988 114.485 79.4981 114.485C81.3716 111.922 80.3354 111.747 78.6283 111.747L73.2172 111.726C72.4319 111.765 71.9042 112.046 71.7105 112.299C71.2535 112.871 70.5132 113.855 69.7371 114.845C68.9026 115.932 68.1045 116.999 67.2968 118.028C64.9192 114.166 62.1509 111.004 57.4717 111.004L57.4721 111.005ZM178.192 111.302C172.622 111.302 167.319 116.789 164.483 121.36C163.154 123.679 161.392 127.378 160.897 131.037C160.393 134.675 160.983 138.603 164.632 140.671C172.259 145.008 180.578 138.168 183.984 134.432C184.227 134.17 184.343 133.534 184.069 133.116L180.865 129C180.283 128.31 179.658 128.233 178.87 129C176.843 130.979 175.754 132.622 172.504 134.029C170.117 135.058 168.78 134.518 168.303 133.732C167.061 131.713 170.517 126.088 170.934 125.35C173.593 121.09 176.386 119.05 178.17 118.963C178.54 118.943 179.218 119.153 179.889 119.832C180.547 120.492 181.242 121.486 181.99 122.718C183.505 125.242 185.079 128.527 186.828 131.652C189.816 137.008 193.639 141.869 199.666 141.413C200.383 141.297 200.366 140.683 200.366 139.906C200.376 138.383 200.323 134.962 200.323 134.962C200.353 134.428 199.939 134.15 199.241 134.092C198.911 134.063 198.276 134.046 197.926 133.88C196.316 133.094 195.756 131.911 194.446 129.806C193.057 127.554 191.953 124.848 190.477 122.209C187.431 116.735 184.442 111.302 178.191 111.302L178.192 111.302ZM115.55 111.769C111.213 111.769 108.154 113.78 106.532 117.138H106.405C106.571 116.031 106.661 114.694 106.681 113.53C106.69 113.501 106.681 112.894 106.681 112.894C106.681 112.516 106.393 112.215 106.023 112.215H100.506C100.128 112.215 99.8265 112.516 99.8265 112.894V155.907C99.8265 156.285 100.128 156.586 100.506 156.586H106.532C106.912 156.586 107.232 156.285 107.232 155.907V155.164V141.244C108.455 141.418 109.537 141.477 110.925 141.477C120.862 141.477 126.075 135.176 126.075 125.18C126.075 116.679 122.373 111.769 115.55 111.769L115.55 111.769ZM113.407 117.838C116.754 117.838 118.33 120.61 118.33 125.986C118.33 133.1 115.258 135.748 111.094 135.748C109.601 135.748 108.395 135.588 107.232 135.238V127.26C107.232 122.349 109.535 117.838 113.407 117.838H113.407ZM57.4326 118.665C57.7904 118.645 58.481 118.856 59.1514 119.535C59.812 120.195 60.5679 121.179 61.3158 122.421C61.6657 123.003 62.0381 123.628 62.3981 124.288C61.0388 125.929 59.7214 127.44 58.4087 128.808C56.4087 130.759 54.9895 132.333 51.7669 133.731C49.3795 134.76 48.0611 134.21 47.5866 133.434C46.3542 131.415 49.801 125.769 50.2179 125.031C52.8785 120.771 55.6566 118.752 57.4326 118.665Z" fill="white"/>
</svg>
