<svg width="250" height="250" viewBox="0 0 250 250" fill="none" xmlns="http://www.w3.org/2000/svg">
<rect width="250" height="250" fill="#142947"/>
<mask id="mask0_261_223" style="mask-type:luminance" maskUnits="userSpaceOnUse" x="40" y="95" width="170" height="60">
<path d="M210 95H40V154.409H210V95Z" fill="white"/>
</mask>
<g mask="url(#mask0_261_223)">
<path d="M83.5675 99.7385C85.3099 99.7385 86.5755 100.318 87.3259 101.354L87.696 100.117H92.1675L88.2925 113.074H83.8734L84.3127 111.61H84.2621C82.9862 112.671 81.2354 113.454 79.4677 113.454C75.6789 113.454 73.94 110.399 75.0739 106.61C76.2062 102.821 79.7804 99.7401 83.5692 99.7401H83.5709L83.5675 99.7385ZM81.9435 109.64C83.6858 109.64 85.3267 108.377 85.8557 106.61C86.3914 104.817 85.4315 103.554 83.7635 103.554C82.0956 103.554 80.3566 104.817 79.8176 106.61C79.2886 108.377 80.1234 109.64 81.9418 109.64H81.9435Z" fill="white"/>
<path d="M95.1977 100.117H99.6692L99.1099 101.986H99.1605C99.1605 101.986 101.248 99.7386 103.799 99.7386C105.467 99.7386 106.387 100.548 106.387 100.548L103.385 104.337C103.385 104.337 102.764 103.63 101.273 103.63C98.9493 103.63 97.9337 105.929 97.834 106.257L95.7942 113.075H91.3227L95.1977 100.119V100.117Z" fill="white"/>
<path d="M109.493 107.215C108.896 109.209 110.36 109.892 111.495 109.892C112.935 109.892 113.648 109.613 115.085 108.452L117.834 110.067C115.636 112.518 112.983 113.451 110.105 113.451C106.191 113.451 103.904 110.368 105.03 106.606C106.162 102.818 110.292 99.7369 114.206 99.7369C118.12 99.7369 120.457 102.061 119.097 106.606C119.044 106.784 118.96 107.061 118.891 107.211H109.493V107.215ZM115.284 104.741C115.49 103.377 114.774 102.644 113.462 102.644C111.921 102.644 110.792 103.553 110.36 104.741H115.284Z" fill="white"/>
<path d="M123.183 100.117H127.654L127.247 101.481H127.298C128.609 100.47 130.116 99.7386 131.531 99.7386C133.905 99.7386 136.858 100.927 135.778 104.536L133.224 113.074H128.753L130.944 105.75C131.33 104.462 130.816 103.225 129.376 103.225C128.038 103.225 126.355 104.462 125.969 105.75L123.777 113.074H119.306L123.181 100.117H123.183Z" fill="white"/>
<path d="M145.495 99.7386C147.237 99.7386 148.503 100.318 149.253 101.354L149.623 100.117H154.095L150.22 113.074H145.8L146.24 111.61H146.19C144.914 112.672 143.163 113.454 141.395 113.454C137.606 113.454 135.867 110.399 137.001 106.61C138.134 102.821 141.708 99.7403 145.499 99.7403L145.495 99.7386ZM143.873 109.64C145.615 109.64 147.255 108.377 147.785 106.61C148.32 104.817 147.36 103.554 145.692 103.554C144.024 103.554 142.286 104.817 141.747 106.61C141.218 108.377 142.052 109.64 143.871 109.64H143.873Z" fill="white"/>
<path d="M68.1217 116.783L63.476 122.642C63.476 122.642 60.9496 121.026 58.244 121.026C56.2905 121.026 55.3846 121.38 55.0247 122.593C54.6208 123.957 56.304 124.361 58.2998 125.067C61.3924 126.128 65.2319 128.048 63.6585 133.351C61.3958 140.979 54.1223 142.193 48.8599 142.193C42.646 142.193 39.9726 138.706 39.9726 138.706L45.3938 132.594C45.3938 132.594 48.0166 135.575 50.8726 135.575C52.1248 135.575 53.6728 135.423 54.1831 133.706C54.7375 131.837 51.9761 131.685 49.5189 130.171C47.317 128.807 45.2536 126.989 46.4061 123.098C47.9794 117.795 53.3382 114.762 60.1012 114.762C65.0612 114.762 68.1199 116.783 68.1199 116.783H68.1217Z" fill="url(#paint0_linear_261_223)"/>
<path d="M82.7295 142.191C79.2719 142.191 76.7607 141.028 75.2702 138.958L70.6398 154.568H61.7711L73.3555 115.519H82.1228L81.2542 118.449H81.3556C83.8888 116.328 87.3599 114.762 90.8665 114.762C98.3816 114.762 101.831 120.874 99.5815 128.452C97.3338 136.03 90.2446 142.193 82.7295 142.193V142.191ZM85.9488 122.389C82.4913 122.389 79.2381 124.913 78.1887 128.45C77.124 132.036 79.0303 134.563 82.3374 134.563C85.6447 134.563 89.1005 132.038 90.1635 128.45C91.2129 124.915 89.5585 122.389 85.9488 122.389Z" fill="url(#paint1_linear_261_223)"/>
<path d="M121.43 114.762C129.949 114.762 135.083 120.42 132.685 128.503C130.316 136.484 122.16 142.193 113.291 142.193C104.423 142.193 99.5017 136.484 101.871 128.503C104.269 120.42 112.761 114.762 121.43 114.762ZM115.505 134.564C118.963 134.564 122.216 132.04 123.265 128.503C124.33 124.917 122.424 122.39 119.117 122.39C115.81 122.39 112.354 124.915 111.291 128.503C110.241 132.038 111.896 134.564 115.505 134.564Z" fill="url(#paint2_linear_261_223)"/>
<path d="M140.797 115.519H149.666L148.557 119.257H148.658C148.658 119.257 152.799 114.76 157.858 114.76C161.165 114.76 162.99 116.376 162.99 116.376L157.036 123.953C157.036 123.953 155.802 122.539 152.846 122.539C148.238 122.539 146.222 127.136 146.027 127.793L141.982 141.432H133.112L140.802 115.517H140.799L140.797 115.519Z" fill="url(#paint3_linear_261_223)"/>
<path d="M170.114 105.87H178.982L176.122 115.517H181.532L179.508 122.336H174.097L171.653 130.57C170.933 132.995 171.191 134.156 172.593 134.156C173.745 134.156 175.037 133.346 175.037 133.346L175.097 140.569C175.097 140.569 171.761 142.184 168.104 142.184C161.041 142.184 160.91 136.881 162.274 132.283L165.226 122.331H161.519L163.543 115.512H167.251L170.112 105.865H170.114V105.87Z" fill="url(#paint4_linear_261_223)"/>
<path d="M180.918 135.257L179.839 141.772H203.154L204.413 133.954H192.845C192.845 133.954 193.412 133.34 193.565 133.148C195.482 130.728 197.367 128.242 199.318 125.702C201.37 123.034 203.421 120.307 205.311 117.511C206.957 115.078 208.284 112.542 209.146 109.693C209.798 107.542 210.232 105.371 209.867 103.118C209.311 99.6993 207.661 97.2832 204.472 96.106C201.838 95.1365 199.073 94.9305 196.338 95.4024C191.34 96.2656 188.012 99.2549 186.312 104.109C185.513 106.39 185.015 108.899 184.813 111.308C184.807 111.385 184.813 111.619 184.813 111.619H194.284C194.284 111.619 194.362 111.267 194.387 111.149C194.663 109.71 194.859 108.257 195.111 106.814C195.29 105.796 195.504 104.786 195.961 103.854C196.31 103.143 196.943 102.593 197.719 102.423C198.824 102.182 199.875 102.45 200.088 104.06C200.139 104.453 200.125 104.842 200.092 105.233C200.011 106.21 199.75 107.142 199.388 108.041C198.701 109.745 197.818 111.341 196.84 112.88C194.556 116.475 192.062 119.916 189.584 123.367C186.854 127.166 183.978 131.102 181.347 134.727C181.226 134.893 180.921 135.26 180.921 135.26H180.92L180.918 135.257Z" fill="url(#paint5_linear_261_223)"/>
</g>
<defs>
<linearGradient id="paint0_linear_261_223" x1="38.6629" y1="154.49" x2="61.6746" y2="117.687" gradientUnits="userSpaceOnUse">
<stop stop-color="#E6E6E6"/>
<stop offset="0.68" stop-color="#B3B3B3"/>
<stop offset="1" stop-color="#E6E6E6"/>
</linearGradient>
<linearGradient id="paint1_linear_261_223" x1="75.9073" y1="142.201" x2="94.0183" y2="108.24" gradientUnits="userSpaceOnUse">
<stop stop-color="#E6E6E6"/>
<stop offset="0.68" stop-color="#B3B3B3"/>
<stop offset="1" stop-color="#E6E6E6"/>
</linearGradient>
<linearGradient id="paint2_linear_261_223" x1="115.429" y1="133.605" x2="126.331" y2="103.522" gradientUnits="userSpaceOnUse">
<stop stop-color="#E6E6E6"/>
<stop offset="0.68" stop-color="#B3B3B3"/>
<stop offset="1" stop-color="#E6E6E6"/>
</linearGradient>
<linearGradient id="paint3_linear_261_223" x1="140.114" y1="146.666" x2="162.182" y2="89.1157" gradientUnits="userSpaceOnUse">
<stop stop-color="#E6E6E6"/>
<stop offset="0.68" stop-color="#B3B3B3"/>
<stop offset="1" stop-color="#E6E6E6"/>
</linearGradient>
<linearGradient id="paint4_linear_261_223" x1="164.481" y1="145.078" x2="186.624" y2="66.2577" gradientUnits="userSpaceOnUse">
<stop stop-color="#E6E6E6"/>
<stop offset="0.68" stop-color="#B3B3B3"/>
<stop offset="1" stop-color="#E6E6E6"/>
</linearGradient>
<linearGradient id="paint5_linear_261_223" x1="192.212" y1="93.496" x2="197.237" y2="144.66" gradientUnits="userSpaceOnUse">
<stop stop-color="#E6E6E6"/>
<stop offset="0.85" stop-color="#B3B3B3"/>
<stop offset="1" stop-color="#E6E6E6"/>
</linearGradient>
</defs>
</svg>
