<svg width="250" height="250" viewBox="0 0 250 250" fill="none" xmlns="http://www.w3.org/2000/svg">
<rect width="250" height="250" fill="#262634"/>
<path d="M108.591 104.615C110.054 104.615 111.117 105.1 111.747 105.967L112.058 104.932H115.812L112.558 115.78H108.848L109.216 114.555H109.174C108.103 115.443 106.632 116.098 105.148 116.098C101.966 116.098 100.506 113.54 101.458 110.368C102.409 107.196 105.41 104.616 108.592 104.616H108.594L108.591 104.615ZM107.228 112.904C108.691 112.904 110.069 111.847 110.514 110.366C110.963 108.865 110.157 107.808 108.757 107.808C107.356 107.808 105.896 108.865 105.443 110.366C104.999 111.847 105.7 112.904 107.227 112.904H107.228Z" fill="url(#paint0_linear_49_5)"/>
<path d="M118.357 104.932H122.112L121.643 106.497H121.685C121.685 106.497 123.438 104.615 125.581 104.615C126.981 104.615 127.753 105.292 127.753 105.292L125.233 108.465C125.233 108.465 124.711 107.873 123.459 107.873C121.508 107.873 120.655 109.798 120.571 110.072L118.858 115.782H115.104L118.357 104.933V104.932Z" fill="url(#paint1_linear_49_5)"/>
<path d="M130.362 110.873C129.861 112.543 131.09 113.114 132.044 113.114C133.253 113.114 133.851 112.881 135.058 111.909L137.366 113.262C135.52 115.313 133.292 116.094 130.876 116.094C127.589 116.094 125.669 113.513 126.614 110.364C127.565 107.191 131.033 104.612 134.32 104.612C137.606 104.612 139.569 106.557 138.427 110.364C138.383 110.512 138.312 110.744 138.253 110.87H130.362V110.873ZM135.225 108.802C135.398 107.66 134.797 107.046 133.695 107.046C132.401 107.046 131.453 107.807 131.09 108.802H135.225Z" fill="url(#paint2_linear_49_5)"/>
<path d="M141.858 104.932H145.613L145.271 106.074H145.313C146.415 105.227 147.68 104.615 148.868 104.615C150.862 104.615 153.341 105.609 152.434 108.632L150.29 115.78H146.535L148.376 109.648C148.699 108.569 148.268 107.534 147.059 107.534C145.935 107.534 144.522 108.569 144.198 109.648L142.357 115.78H138.603L141.857 104.932H141.858Z" fill="url(#paint3_linear_49_5)"/>
<path d="M160.595 104.615C162.058 104.615 163.121 105.1 163.751 105.967L164.061 104.932H167.816L164.562 115.78H160.851L161.22 114.555H161.178C160.106 115.443 158.636 116.098 157.152 116.098C153.97 116.098 152.51 113.54 153.462 110.368C154.413 107.196 157.414 104.616 160.597 104.616L160.595 104.615ZM159.232 112.904C160.695 112.904 162.073 111.847 162.517 110.366C162.967 108.865 162.161 107.808 160.761 107.808C159.36 107.808 157.9 108.865 157.447 110.366C157.003 111.847 157.704 112.904 159.231 112.904H159.232Z" fill="url(#paint4_linear_49_5)"/>
<path d="M95.6212 118.885L91.7201 123.79C91.7201 123.79 89.5985 122.438 87.3266 122.438C85.6861 122.438 84.9255 122.733 84.6232 123.749C84.2841 124.891 85.6975 125.229 87.3734 125.821C89.9703 126.709 93.1945 128.317 91.8733 132.757C89.9732 139.144 83.8654 140.16 79.4464 140.16C74.2284 140.16 71.9834 137.241 71.9834 137.241L76.5358 132.123C76.5358 132.123 78.7383 134.619 81.1365 134.619C82.1881 134.619 83.488 134.492 83.9165 133.054C84.382 131.489 82.0632 131.362 79.9998 130.094C78.1508 128.952 76.4181 127.429 77.3859 124.172C78.707 119.732 83.207 117.192 88.8862 117.192C93.0512 117.192 95.6197 118.885 95.6197 118.885H95.6212Z" fill="url(#paint5_linear_49_5)"/>
<path d="M107.888 140.158C104.984 140.158 102.875 139.185 101.624 137.452L97.7355 150.522H90.2881L100.016 117.826H107.378L106.649 120.28H106.734C108.861 118.504 111.776 117.192 114.721 117.192C121.031 117.192 123.928 122.31 122.039 128.655C120.151 134.999 114.198 140.16 107.888 140.16V140.158ZM110.591 123.578C107.688 123.578 104.956 125.692 104.075 128.653C103.181 131.656 104.781 133.771 107.558 133.771C110.336 133.771 113.238 131.657 114.13 128.653C115.011 125.693 113.622 123.578 110.591 123.578Z" fill="url(#paint6_linear_49_5)"/>
<path d="M140.386 117.192C147.54 117.192 151.851 121.93 149.837 128.697C147.848 135.38 140.999 140.16 133.552 140.16C126.104 140.16 121.972 135.38 123.962 128.697C125.975 121.93 133.106 117.192 140.386 117.192ZM135.411 133.774C138.314 133.774 141.046 131.66 141.927 128.699C142.821 125.696 141.221 123.581 138.443 123.581C135.666 123.581 132.764 125.695 131.872 128.699C130.99 131.659 132.38 133.774 135.411 133.774Z" fill="url(#paint7_linear_49_5)"/>
<path d="M156.648 117.828H164.095L163.164 120.957H163.25C163.25 120.957 166.726 117.192 170.975 117.192C173.752 117.192 175.285 118.545 175.285 118.545L170.284 124.89C170.284 124.89 169.248 123.705 166.766 123.705C162.896 123.705 161.203 127.554 161.04 128.104L157.643 139.525H150.195L156.652 117.826H156.649L156.648 117.828Z" fill="url(#paint8_linear_49_5)"/>
<path d="M181.267 109.748H188.715L186.312 117.826H190.856L189.156 123.535H184.612L182.56 130.429C181.956 132.46 182.171 133.432 183.349 133.432C184.317 133.432 185.401 132.754 185.401 132.754L185.452 138.801C185.452 138.801 182.651 140.154 179.58 140.154C173.648 140.154 173.539 135.714 174.684 131.864L177.163 123.531H174.05L175.75 117.822H178.863L181.266 109.744H181.267V109.748Z" fill="url(#paint9_linear_49_5)"/>
<path d="M190.104 134.153L189.181 139.526H209.14L210.217 133.079H200.315C200.315 133.079 200.8 132.573 200.931 132.414C202.573 130.419 204.186 128.369 205.856 126.275C207.613 124.075 209.369 121.826 210.986 119.521C212.396 117.515 213.532 115.424 214.27 113.075C214.828 111.3 215.2 109.51 214.886 107.653C214.411 104.834 212.999 102.842 210.268 101.871C208.013 101.072 205.646 100.902 203.305 101.291C199.026 102.003 196.177 104.468 194.722 108.47C194.038 110.351 193.612 112.42 193.439 114.406C193.434 114.47 193.439 114.662 193.439 114.662H201.547C201.547 114.662 201.613 114.372 201.635 114.275C201.872 113.089 202.039 111.89 202.255 110.7C202.408 109.861 202.591 109.028 202.983 108.26C203.281 107.674 203.823 107.22 204.487 107.08C205.433 106.881 206.333 107.102 206.515 108.429C206.559 108.753 206.547 109.075 206.519 109.397C206.45 110.202 206.225 110.971 205.916 111.712C205.328 113.117 204.572 114.433 203.735 115.702C201.779 118.667 199.645 121.504 197.523 124.349C195.186 127.482 192.724 130.728 190.472 133.716C190.368 133.853 190.107 134.156 190.107 134.156H190.106L190.104 134.153Z" fill="url(#paint10_linear_49_5)"/>
<path d="M60.1881 91H58.1006V158.809H60.1881V91Z" fill="url(#paint11_linear_49_5)"/>
<path d="M43.5764 141.285H44.8025C44.9742 141.285 45.1147 141.146 45.1161 140.973V133.522L37.5254 139.135C39.075 140.463 41.2122 141.283 43.5764 141.283V141.285Z" fill="url(#paint12_linear_49_5)"/>
<path d="M37.5252 139.137L45.1159 133.524V133.133L36.4736 138.049C36.783 138.441 37.1363 138.804 37.5252 139.138V139.137Z" fill="url(#paint13_linear_49_5)"/>
<path d="M44.5741 114.095C44.4861 114.095 44.3967 114.118 44.3144 114.163L36.7422 118.476C36.6599 118.522 36.5917 118.59 36.5463 118.671C36.403 118.921 36.491 119.241 36.7422 119.384L44.3158 123.691C44.3953 123.736 44.4847 123.759 44.5755 123.76C44.865 123.76 45.0992 123.527 45.0992 123.238V114.618C45.0992 114.528 45.075 114.439 45.0311 114.36C44.9346 114.19 44.7572 114.095 44.5741 114.095Z" fill="url(#paint14_linear_49_5)"/>
<path d="M50.3754 129.232L41.9418 124.435L35.8042 120.942C35.7261 120.898 35.6367 120.874 35.5459 120.874H35.5445C35.5076 120.874 35.4721 120.878 35.4367 120.885C35.1982 120.933 35.018 121.144 35.0166 121.396V133.948C35.0209 134.694 35.15 135.427 35.3969 136.12C35.4409 136.245 35.4906 136.368 35.5431 136.491C35.5516 136.512 35.5615 136.533 35.57 136.555C35.624 136.679 35.6822 136.801 35.7432 136.922C35.7432 136.922 35.7432 136.925 35.7446 136.925C35.9475 137.32 36.1902 137.696 36.4712 138.047L45.1134 133.132L50.3726 130.141C50.4549 130.094 50.523 130.026 50.5684 129.945C50.7117 129.695 50.6237 129.375 50.3726 129.232H50.3754Z" fill="url(#paint15_linear_49_5)"/>
<path d="M39.2451 114.099C41.9939 114.539 44.5809 112.673 45.0222 109.931C45.4635 107.189 43.5918 104.61 40.8416 104.17C40.5705 104.127 40.3023 104.107 40.0369 104.107C37.6046 104.107 35.4618 105.867 35.0645 108.339C34.6231 111.08 36.4949 113.659 39.2451 114.099Z" fill="url(#paint16_linear_49_5)"/>
<defs>
<linearGradient id="paint0_linear_49_5" x1="107.986" y1="111.455" x2="112.345" y2="84.4221" gradientUnits="userSpaceOnUse">
<stop stop-color="#5C5D5C"/>
<stop offset="0.33" stop-color="#8D8E8D"/>
</linearGradient>
<linearGradient id="paint1_linear_49_5" x1="121.308" y1="111.241" x2="124.636" y2="91.4482" gradientUnits="userSpaceOnUse">
<stop stop-color="#5C5D5C"/>
<stop offset="0.33" stop-color="#8D8E8D"/>
</linearGradient>
<linearGradient id="paint2_linear_49_5" x1="132.259" y1="111.605" x2="136.599" y2="91.1717" gradientUnits="userSpaceOnUse">
<stop stop-color="#5C5D5C"/>
<stop offset="0.33" stop-color="#8D8E8D"/>
</linearGradient>
<linearGradient id="paint3_linear_49_5" x1="145.56" y1="112.053" x2="151.814" y2="88.6251" gradientUnits="userSpaceOnUse">
<stop stop-color="#5C5D5C"/>
<stop offset="0.33" stop-color="#8D8E8D"/>
</linearGradient>
<linearGradient id="paint4_linear_49_5" x1="159.351" y1="112.122" x2="165.216" y2="91.6177" gradientUnits="userSpaceOnUse">
<stop stop-color="#5C5D5C"/>
<stop offset="0.44" stop-color="#8D8E8D"/>
</linearGradient>
<linearGradient id="paint5_linear_49_5" x1="81.172" y1="134.226" x2="93.3651" y2="114.034" gradientUnits="userSpaceOnUse">
<stop stop-color="#828382"/>
<stop offset="1" stop-color="#AAAAAB"/>
</linearGradient>
<linearGradient id="paint6_linear_49_5" x1="102.159" y1="140.168" x2="117.298" y2="111.695" gradientUnits="userSpaceOnUse">
<stop stop-color="#828382"/>
<stop offset="1" stop-color="#AAAAAB"/>
</linearGradient>
<linearGradient id="paint7_linear_49_5" x1="132.763" y1="134.876" x2="147.639" y2="112.566" gradientUnits="userSpaceOnUse">
<stop stop-color="#828382"/>
<stop offset="1" stop-color="#AAAAAB"/>
</linearGradient>
<linearGradient id="paint8_linear_49_5" x1="155.415" y1="132.252" x2="170.385" y2="112.178" gradientUnits="userSpaceOnUse">
<stop stop-color="#828382"/>
<stop offset="1" stop-color="#AAAAAB"/>
</linearGradient>
<linearGradient id="paint9_linear_49_5" x1="180.203" y1="128.925" x2="189.302" y2="114.838" gradientUnits="userSpaceOnUse">
<stop stop-color="#808080"/>
<stop offset="1" stop-color="#AAAAAB"/>
</linearGradient>
<linearGradient id="paint10_linear_49_5" x1="193.228" y1="136.799" x2="222.545" y2="92.2896" gradientUnits="userSpaceOnUse">
<stop offset="0.33" stop-color="#5C5D5C"/>
<stop offset="0.83" stop-color="#8C8C8C"/>
</linearGradient>
<linearGradient id="paint11_linear_49_5" x1="45.8411" y1="121.424" x2="113.8" y2="139.305" gradientUnits="userSpaceOnUse">
<stop stop-color="#333333"/>
<stop offset="0.32" stop-color="#999999"/>
</linearGradient>
<linearGradient id="paint12_linear_49_5" x1="40.4487" y1="134.975" x2="54.3182" y2="156.64" gradientUnits="userSpaceOnUse">
<stop stop-color="#333333"/>
<stop offset="0.33" stop-color="#999999"/>
</linearGradient>
<linearGradient id="paint13_linear_49_5" x1="42.6041" y1="138.533" x2="38.1048" y2="131.175" gradientUnits="userSpaceOnUse">
<stop stop-color="#333333"/>
<stop offset="1" stop-color="#1A1A1A"/>
</linearGradient>
<linearGradient id="paint14_linear_49_5" x1="39.0099" y1="110.679" x2="53.582" y2="160.915" gradientUnits="userSpaceOnUse">
<stop stop-color="#333333"/>
<stop offset="0.33" stop-color="#999999"/>
</linearGradient>
<linearGradient id="paint15_linear_49_5" x1="41.0988" y1="137.503" x2="48.0762" y2="88.9779" gradientUnits="userSpaceOnUse">
<stop stop-color="#333333"/>
<stop offset="0.33" stop-color="#999999"/>
</linearGradient>
<linearGradient id="paint16_linear_49_5" x1="33.0721" y1="116.169" x2="73.5199" y2="75.1251" gradientUnits="userSpaceOnUse">
<stop stop-color="#333333"/>
<stop offset="0.33" stop-color="#999999"/>
</linearGradient>
</defs>
</svg>
