<svg width="250" height="250" viewBox="0 0 250 250" fill="none" xmlns="http://www.w3.org/2000/svg">
<rect width="250" height="250" fill="#262634"/>
<path d="M109.732 103.967C111.218 103.967 112.297 104.465 112.937 105.355L113.253 104.292H117.066L113.761 115.422H109.993L110.368 114.165H110.324C109.236 115.076 107.743 115.748 106.236 115.748C103.005 115.748 101.522 113.124 102.489 109.869C103.455 106.615 106.503 103.969 109.733 103.969H109.735L109.732 103.967ZM108.349 112.471C109.834 112.471 111.234 111.386 111.685 109.868C112.142 108.328 111.323 107.243 109.901 107.243C108.478 107.243 106.995 108.328 106.536 109.868C106.085 111.386 106.797 112.471 108.347 112.471H108.349Z" fill="url(#paint0_linear_49_2)"/>
<path d="M119.651 104.292H123.464L122.987 105.898H123.03C123.03 105.898 124.81 103.967 126.986 103.967C128.409 103.967 129.193 104.662 129.193 104.662L126.633 107.917C126.633 107.917 126.103 107.31 124.832 107.31C122.85 107.31 121.984 109.284 121.899 109.566L120.16 115.423H116.347L119.651 104.294V104.292Z" fill="url(#paint1_linear_49_2)"/>
<path d="M131.842 110.387C131.333 112.1 132.581 112.687 133.549 112.687C134.777 112.687 135.385 112.447 136.61 111.45L138.955 112.838C137.08 114.943 134.818 115.744 132.363 115.744C129.026 115.744 127.076 113.096 128.036 109.865C129.001 106.61 132.523 103.964 135.861 103.964C139.198 103.964 141.191 105.96 140.031 109.865C139.987 110.017 139.915 110.255 139.856 110.385H131.842V110.387ZM136.78 108.262C136.956 107.091 136.345 106.461 135.227 106.461C133.913 106.461 132.95 107.242 132.581 108.262H136.78Z" fill="url(#paint2_linear_49_2)"/>
<path d="M143.515 104.292H147.328L146.981 105.464H147.024C148.142 104.596 149.428 103.967 150.634 103.967C152.659 103.967 155.176 104.988 154.255 108.088L152.078 115.422H148.265L150.134 109.13C150.462 108.024 150.024 106.962 148.796 106.962C147.655 106.962 146.22 108.024 145.891 109.13L144.022 115.422H140.209L143.513 104.292H143.515Z" fill="url(#paint3_linear_49_2)"/>
<path d="M162.542 103.967C164.027 103.967 165.107 104.465 165.747 105.355L166.062 104.292H169.875L166.571 115.422H162.802L163.177 114.165H163.134C162.046 115.076 160.553 115.748 159.046 115.748C155.815 115.748 154.332 113.124 155.299 109.869C156.264 106.615 159.312 103.969 162.544 103.969L162.542 103.967ZM161.158 112.471C162.644 112.471 164.043 111.386 164.494 109.868C164.951 108.328 164.133 107.243 162.71 107.243C161.288 107.243 159.805 108.328 159.345 109.868C158.894 111.386 159.606 112.471 161.157 112.471H161.158Z" fill="url(#paint4_linear_49_2)"/>
<path d="M96.5618 118.606L92.6002 123.639C92.6002 123.639 90.4458 122.251 88.1386 122.251C86.4727 122.251 85.7003 122.555 85.3934 123.597C85.0489 124.768 86.4843 125.115 88.1862 125.722C90.8234 126.634 94.0975 128.283 92.7559 132.838C90.8263 139.39 84.6238 140.432 80.1363 140.432C74.8374 140.432 72.5576 137.438 72.5576 137.438L77.1806 132.187C77.1806 132.187 79.4172 134.748 81.8526 134.748C82.9205 134.748 84.2405 134.617 84.6757 133.143C85.1484 131.537 82.7937 131.406 80.6983 130.106C78.8206 128.934 77.061 127.372 78.0438 124.031C79.3855 119.476 83.9552 116.87 89.7224 116.87C93.952 116.87 96.5603 118.606 96.5603 118.606H96.5618Z" fill="url(#paint5_linear_49_2)"/>
<path d="M109.018 140.431C106.069 140.431 103.928 139.432 102.657 137.654L98.7083 151.062H91.1455L101.024 117.521H108.5L107.76 120.038H107.846C110.006 118.216 112.966 116.87 115.957 116.87C122.365 116.87 125.306 122.121 123.388 128.63C121.472 135.138 115.426 140.432 109.018 140.432V140.431ZM111.763 123.421C108.815 123.421 106.041 125.59 105.146 128.628C104.238 131.708 105.863 133.878 108.684 133.878C111.504 133.878 114.451 131.71 115.357 128.628C116.252 125.591 114.841 123.421 111.763 123.421Z" fill="url(#paint6_linear_49_2)"/>
<path d="M142.02 116.87C149.285 116.87 153.663 121.73 151.618 128.673C149.598 135.529 142.643 140.432 135.08 140.432C127.517 140.432 123.321 135.529 125.341 128.673C127.386 121.73 134.628 116.87 142.02 116.87ZM136.968 133.881C139.917 133.881 142.691 131.713 143.586 128.675C144.493 125.594 142.868 123.424 140.048 123.424C137.227 123.424 134.28 125.593 133.374 128.675C132.479 131.711 133.89 133.881 136.968 133.881Z" fill="url(#paint7_linear_49_2)"/>
<path d="M158.534 117.522H166.097L165.152 120.733H165.238C165.238 120.733 168.769 116.87 173.083 116.87C175.903 116.87 177.46 118.258 177.46 118.258L172.381 124.767C172.381 124.767 171.329 123.552 168.809 123.552C164.879 123.552 163.16 127.5 162.994 128.065L159.544 139.781H151.981L158.538 117.521H158.535L158.534 117.522Z" fill="url(#paint8_linear_49_2)"/>
<path d="M183.535 109.233H191.098L188.658 117.521H193.273L191.546 123.378H186.932L184.848 130.45C184.234 132.533 184.453 133.53 185.649 133.53C186.632 133.53 187.733 132.835 187.733 132.835L187.785 139.039C187.785 139.039 184.94 140.427 181.822 140.427C175.798 140.427 175.687 135.872 176.85 131.922L179.368 123.373H176.206L177.932 117.516H181.094L183.534 109.229H183.535V109.233Z" fill="url(#paint9_linear_49_2)"/>
<path d="M194.897 116.465L197.475 107.612L210.737 100.35H215L203.317 139.788H194.372L202.527 112.33L194.897 116.465Z" fill="url(#paint10_linear_49_2)"/>
<path d="M60.5778 90H58.458V159.564H60.5778V90Z" fill="url(#paint11_linear_49_2)"/>
<path d="M43.7092 141.586H44.9543C45.1287 141.586 45.2714 141.444 45.2728 141.267V133.623L37.5645 139.381C39.1381 140.743 41.3084 141.585 43.7092 141.585V141.586Z" fill="url(#paint12_linear_49_2)"/>
<path d="M37.5649 139.383L45.2733 133.625V133.224L36.4971 138.267C36.8112 138.669 37.1701 139.042 37.5649 139.384V139.383Z" fill="url(#paint13_linear_49_2)"/>
<path d="M44.7221 113.693C44.6327 113.693 44.5419 113.716 44.4584 113.762L36.7687 118.187C36.6851 118.235 36.616 118.304 36.5699 118.387C36.4243 118.644 36.5137 118.972 36.7687 119.119L44.4598 123.537C44.5405 123.584 44.6313 123.607 44.7235 123.609C45.0175 123.609 45.2553 123.369 45.2553 123.073V114.23C45.2553 114.137 45.2308 114.045 45.1861 113.964C45.0881 113.79 44.908 113.693 44.7221 113.693Z" fill="url(#paint14_linear_49_2)"/>
<path d="M50.6135 129.222L42.0491 124.301L35.8164 120.717C35.7371 120.672 35.6464 120.647 35.5541 120.647H35.5527C35.5152 120.647 35.4792 120.652 35.4432 120.659C35.2011 120.708 35.018 120.925 35.0166 121.183V134.06C35.0209 134.825 35.1521 135.577 35.4028 136.288C35.4475 136.416 35.4979 136.542 35.5512 136.668C35.5599 136.69 35.57 136.712 35.5786 136.734C35.6334 136.862 35.6925 136.986 35.7544 137.111C35.7544 137.111 35.7544 137.114 35.7559 137.114C35.962 137.519 36.2084 137.905 36.4937 138.265L45.2699 133.222L50.6106 130.154C50.6942 130.106 50.7633 130.036 50.8095 129.953C50.955 129.697 50.8657 129.368 50.6106 129.222H50.6135Z" fill="url(#paint15_linear_49_2)"/>
<path d="M39.3109 113.697C42.1023 114.149 44.7294 112.234 45.1776 109.421C45.6257 106.608 43.7249 103.963 40.9321 103.511C40.6569 103.466 40.3845 103.446 40.115 103.446C37.645 103.446 35.469 105.252 35.0655 107.788C34.6173 110.599 36.5181 113.246 39.3109 113.697Z" fill="url(#paint16_linear_49_2)"/>
<defs>
<linearGradient id="paint0_linear_49_2" x1="109.118" y1="110.984" x2="113.633" y2="83.2663" gradientUnits="userSpaceOnUse">
<stop stop-color="#5C5D5C"/>
<stop offset="0.33" stop-color="#8D8E8D"/>
</linearGradient>
<linearGradient id="paint1_linear_49_2" x1="122.647" y1="110.765" x2="126.095" y2="90.4713" gradientUnits="userSpaceOnUse">
<stop stop-color="#5C5D5C"/>
<stop offset="0.33" stop-color="#8D8E8D"/>
</linearGradient>
<linearGradient id="paint2_linear_49_2" x1="133.768" y1="111.138" x2="138.262" y2="90.1947" gradientUnits="userSpaceOnUse">
<stop stop-color="#5C5D5C"/>
<stop offset="0.33" stop-color="#8D8E8D"/>
</linearGradient>
<linearGradient id="paint3_linear_49_2" x1="147.275" y1="111.598" x2="153.747" y2="87.5964" gradientUnits="userSpaceOnUse">
<stop stop-color="#5C5D5C"/>
<stop offset="0.33" stop-color="#8D8E8D"/>
</linearGradient>
<linearGradient id="paint4_linear_49_2" x1="161.279" y1="111.669" x2="167.348" y2="90.6664" gradientUnits="userSpaceOnUse">
<stop stop-color="#5C5D5C"/>
<stop offset="0.44" stop-color="#8D8E8D"/>
</linearGradient>
<linearGradient id="paint5_linear_49_2" x1="81.8886" y1="134.344" x2="94.4563" y2="113.743" gradientUnits="userSpaceOnUse">
<stop stop-color="#828382"/>
<stop offset="1" stop-color="#AAAAAB"/>
</linearGradient>
<linearGradient id="paint6_linear_49_2" x1="103.2" y1="140.441" x2="118.82" y2="111.363" gradientUnits="userSpaceOnUse">
<stop stop-color="#828382"/>
<stop offset="1" stop-color="#AAAAAB"/>
</linearGradient>
<linearGradient id="paint7_linear_49_2" x1="134.279" y1="135.012" x2="149.599" y2="112.268" gradientUnits="userSpaceOnUse">
<stop stop-color="#828382"/>
<stop offset="1" stop-color="#AAAAAB"/>
</linearGradient>
<linearGradient id="paint8_linear_49_2" x1="157.282" y1="132.319" x2="172.684" y2="111.877" gradientUnits="userSpaceOnUse">
<stop stop-color="#828382"/>
<stop offset="1" stop-color="#AAAAAB"/>
</linearGradient>
<linearGradient id="paint9_linear_49_2" x1="182.455" y1="128.907" x2="191.827" y2="114.542" gradientUnits="userSpaceOnUse">
<stop stop-color="#808080"/>
<stop offset="1" stop-color="#AAAAAB"/>
</linearGradient>
<linearGradient id="paint10_linear_49_2" x1="196.382" y1="131.868" x2="227.097" y2="70.2732" gradientUnits="userSpaceOnUse">
<stop offset="0.33" stop-color="#5C5D5C"/>
<stop offset="0.65" stop-color="#8C8C8C"/>
</linearGradient>
<linearGradient id="paint11_linear_49_2" x1="46.0085" y1="121.212" x2="115.111" y2="139.209" gradientUnits="userSpaceOnUse">
<stop stop-color="#333333"/>
<stop offset="0.32" stop-color="#999999"/>
</linearGradient>
<linearGradient id="paint12_linear_49_2" x1="40.5331" y1="135.114" x2="54.8218" y2="157.207" gradientUnits="userSpaceOnUse">
<stop stop-color="#333333"/>
<stop offset="0.33" stop-color="#999999"/>
</linearGradient>
<linearGradient id="paint13_linear_49_2" x1="42.7226" y1="138.763" x2="38.0856" y2="131.257" gradientUnits="userSpaceOnUse">
<stop stop-color="#333333"/>
<stop offset="1" stop-color="#1A1A1A"/>
</linearGradient>
<linearGradient id="paint14_linear_49_2" x1="39.0716" y1="110.189" x2="54.1497" y2="161.642" gradientUnits="userSpaceOnUse">
<stop stop-color="#333333"/>
<stop offset="0.33" stop-color="#999999"/>
</linearGradient>
<linearGradient id="paint15_linear_49_2" x1="41.1931" y1="137.706" x2="48.4213" y2="87.9463" gradientUnits="userSpaceOnUse">
<stop stop-color="#333333"/>
<stop offset="0.33" stop-color="#999999"/>
</linearGradient>
<linearGradient id="paint16_linear_49_2" x1="33.0422" y1="115.821" x2="74.5411" y2="74.1364" gradientUnits="userSpaceOnUse">
<stop stop-color="#333333"/>
<stop offset="0.33" stop-color="#999999"/>
</linearGradient>
</defs>
</svg>
