<svg width="250" height="250" viewBox="0 0 250 250" fill="none" xmlns="http://www.w3.org/2000/svg">
<rect width="250" height="250" fill="#142947"/>
<mask id="mask0_252_15" style="mask-type:luminance" maskUnits="userSpaceOnUse" x="40" y="95" width="170" height="61">
<path d="M210 95H40V155.054H210V95Z" fill="white"/>
</mask>
<g mask="url(#mask0_252_15)">
<path d="M84.3169 99.4298C86.0891 99.4298 87.3766 100.019 88.1398 101.073L88.5163 99.8148H93.0648L89.1232 112.994H84.628L85.0749 111.506H85.0234C83.7255 112.585 81.9446 113.381 80.1466 113.381C76.2926 113.381 74.5238 110.273 75.6773 106.419C76.8289 102.565 80.4646 99.4315 84.3185 99.4315H84.3203L84.3169 99.4298ZM82.6649 109.501C84.4372 109.501 86.1063 108.217 86.6443 106.419C87.1892 104.595 86.2129 103.311 84.5163 103.311C82.8196 103.311 81.0507 104.595 80.5024 106.419C79.9644 108.217 80.8136 109.501 82.6632 109.501H82.6649Z" fill="white"/>
<path d="M96.1467 99.8148H100.695L100.126 101.716H100.178C100.178 101.716 102.301 99.4298 104.896 99.4298C106.593 99.4298 107.528 100.253 107.528 100.253L104.475 104.107C104.475 104.107 103.843 103.389 102.327 103.389C99.9629 103.389 98.9298 105.726 98.8284 106.06L96.7536 112.996H92.2051L96.1467 99.8165V99.8148Z" fill="white"/>
<path d="M110.688 107.035C110.081 109.063 111.57 109.757 112.725 109.757C114.189 109.757 114.915 109.474 116.376 108.293L119.173 109.936C116.936 112.429 114.237 113.378 111.31 113.378C107.329 113.378 105.003 110.242 106.148 106.416C107.3 102.562 111.501 99.4281 115.482 99.4281C119.463 99.4281 121.84 101.792 120.457 106.416C120.403 106.596 120.317 106.878 120.247 107.031H110.688V107.035ZM116.579 104.518C116.788 103.131 116.059 102.385 114.726 102.385C113.158 102.385 112.01 103.31 111.57 104.518H116.579Z" fill="white"/>
<path d="M124.613 99.8148H129.162L128.747 101.202H128.799C130.133 100.174 131.666 99.4298 133.105 99.4298C135.52 99.4298 138.523 100.638 137.425 104.31L134.828 112.994H130.279L132.509 105.544C132.9 104.234 132.378 102.976 130.913 102.976C129.552 102.976 127.84 104.234 127.448 105.544L125.218 112.994H120.67L124.611 99.8148H124.613Z" fill="white"/>
<path d="M147.309 99.4298C149.081 99.4298 150.369 100.019 151.132 101.073L151.508 99.8148H156.056L152.115 112.994H147.62L148.067 111.506H148.016C146.718 112.585 144.937 113.381 143.138 113.381C139.285 113.381 137.516 110.273 138.669 106.419C139.821 102.565 143.457 99.4315 147.313 99.4315L147.309 99.4298ZM145.659 109.501C147.431 109.501 149.1 108.217 149.638 106.419C150.183 104.595 149.207 103.311 147.51 103.311C145.813 103.311 144.045 104.595 143.496 106.419C142.958 108.217 143.807 109.501 145.657 109.501H145.659Z" fill="white"/>
<path d="M68.6054 116.768L63.8798 122.727C63.8798 122.727 61.31 121.084 58.5579 121.084C56.5708 121.084 55.6493 121.443 55.2832 122.677C54.8724 124.065 56.5845 124.475 58.6146 125.194C61.7604 126.273 65.6658 128.226 64.0655 133.62C61.7638 141.38 54.3653 142.614 49.0124 142.614C42.6917 142.614 39.9723 139.068 39.9723 139.068L45.4868 132.85C45.4868 132.85 48.1546 135.883 51.0597 135.883C52.3334 135.883 53.908 135.728 54.4272 133.981C54.991 132.08 52.1822 131.925 49.6828 130.385C47.443 128.998 45.3441 127.148 46.5164 123.191C48.1168 117.797 53.5677 114.712 60.447 114.712C65.4922 114.712 68.6036 116.768 68.6036 116.768H68.6054Z" fill="url(#paint0_linear_252_15)"/>
<path d="M83.4643 142.612C79.9472 142.612 77.3929 141.43 75.8767 139.324L71.1667 155.202H62.1455L73.9291 115.482H82.8472L81.9637 118.462H82.0668C84.6435 116.305 88.1743 114.712 91.7412 114.712C99.3855 114.712 102.894 120.929 100.606 128.637C98.3197 136.345 91.1086 142.614 83.4643 142.614V142.612ZM86.739 122.469C83.2219 122.469 79.9129 125.037 78.8454 128.635C77.7624 132.283 79.7015 134.853 83.0655 134.853C86.4296 134.853 89.9449 132.285 91.026 128.635C92.0935 125.039 90.4107 122.469 86.739 122.469Z" fill="url(#paint1_linear_252_15)"/>
<path d="M122.831 114.712C131.496 114.712 136.718 120.467 134.279 128.689C131.869 136.807 123.573 142.614 114.552 142.614C105.531 142.614 100.525 136.807 102.935 128.689C105.374 120.467 114.012 114.712 122.831 114.712ZM116.804 134.855C120.321 134.855 123.63 132.286 124.698 128.689C125.781 125.041 123.842 122.471 120.477 122.471C117.113 122.471 113.598 125.039 112.517 128.689C111.449 132.285 113.132 134.855 116.804 134.855Z" fill="url(#paint2_linear_252_15)"/>
<path d="M142.53 115.482H151.551L150.423 119.284H150.527C150.527 119.284 154.738 114.71 159.885 114.71C163.249 114.71 165.105 116.353 165.105 116.353L159.048 124.061C159.048 124.061 157.793 122.622 154.787 122.622C150.099 122.622 148.048 127.298 147.85 127.967L143.735 141.84H134.714L142.535 115.48H142.532L142.53 115.482Z" fill="url(#paint3_linear_252_15)"/>
<path d="M172.351 105.666H181.373L178.462 115.48H183.966L181.907 122.416H176.403L173.918 130.791C173.185 133.258 173.446 134.439 174.873 134.439C176.045 134.439 177.358 133.615 177.358 133.615L177.42 140.962C177.42 140.962 174.027 142.605 170.307 142.605C163.122 142.605 162.989 137.211 164.377 132.534L167.38 122.411H163.608L165.668 115.475H169.439L172.35 105.661H172.351V105.666Z" fill="url(#paint4_linear_252_15)"/>
<path d="M185.903 114.23L188.981 103.746L204.798 95.1479H209.884L195.949 141.849H185.278L195.006 109.335L185.903 114.23Z" fill="url(#paint5_linear_252_15)"/>
</g>
<defs>
<linearGradient id="paint0_linear_252_15" x1="38.64" y1="155.123" x2="62.0474" y2="117.687" gradientUnits="userSpaceOnUse">
<stop stop-color="#E6E6E6"/>
<stop offset="0.68" stop-color="#B3B3B3"/>
<stop offset="1" stop-color="#E6E6E6"/>
</linearGradient>
<linearGradient id="paint1_linear_252_15" x1="76.5248" y1="142.623" x2="94.9471" y2="108.078" gradientUnits="userSpaceOnUse">
<stop stop-color="#E6E6E6"/>
<stop offset="0.68" stop-color="#B3B3B3"/>
<stop offset="1" stop-color="#E6E6E6"/>
</linearGradient>
<linearGradient id="paint2_linear_252_15" x1="116.727" y1="133.878" x2="127.816" y2="103.279" gradientUnits="userSpaceOnUse">
<stop stop-color="#E6E6E6"/>
<stop offset="0.68" stop-color="#B3B3B3"/>
<stop offset="1" stop-color="#E6E6E6"/>
</linearGradient>
<linearGradient id="paint3_linear_252_15" x1="141.836" y1="147.164" x2="164.282" y2="88.6243" gradientUnits="userSpaceOnUse">
<stop stop-color="#E6E6E6"/>
<stop offset="0.68" stop-color="#B3B3B3"/>
<stop offset="1" stop-color="#E6E6E6"/>
</linearGradient>
<linearGradient id="paint4_linear_252_15" x1="166.621" y1="145.548" x2="189.145" y2="65.3734" gradientUnits="userSpaceOnUse">
<stop stop-color="#E6E6E6"/>
<stop offset="0.68" stop-color="#B3B3B3"/>
<stop offset="1" stop-color="#E6E6E6"/>
</linearGradient>
<linearGradient id="paint5_linear_252_15" x1="180.76" y1="136.488" x2="228.118" y2="81.0952" gradientUnits="userSpaceOnUse">
<stop stop-color="#E6E6E6"/>
<stop offset="0.85" stop-color="#B3B3B3"/>
<stop offset="1" stop-color="#E6E6E6"/>
</linearGradient>
</defs>
</svg>
