<svg width="250" height="250" viewBox="0 0 250 250" fill="none" xmlns="http://www.w3.org/2000/svg">
<rect width="250" height="250" fill="#151515"/>
<path d="M64.8293 111.068C74.3972 111.094 86.1737 113.683 86.1737 123.214V145.988H69.2954V136.163C69.2853 136.134 65.199 137.611 62.0607 138.576C59.948 139.157 58.3487 140.35 58.2211 142.504C58.0563 144.319 60.1165 145.986 60.0964 145.988H43.5739C43.553 145.986 39.8896 144.665 40.0026 140.716C40.3428 133.189 46.2048 130.42 60.6331 128.752C68.4068 127.793 69.2853 127.043 69.2953 125.09C69.2853 123.488 68.3395 121.673 63.9369 121.606C57.5908 121.608 58.0339 125.904 58.0417 125.893H41.8772C41.8431 125.887 42.0334 111.084 64.8293 111.068Z" fill="#FD4600"/>
<path d="M116.384 111.425C114.772 111.651 113.239 112.265 111.917 113.214C110.595 114.163 109.523 115.419 108.793 116.873V112.05H93.075V145.988H110.222V129.732C110.242 126.861 111.046 125.573 112.097 124.553C113.281 123.336 115.357 122.484 117.635 122.499H122.457V112.05C122.453 112.035 119.98 110.899 116.384 111.425Z" fill="#FD4600"/>
<path d="M150.59 104.012H133.623V112.05H126.567V122.499H133.623V136.342C133.637 139.328 133.573 141.764 135.765 144.108C137.681 146.07 140.193 145.977 143.178 145.988H150.59V122.499H160.772V112.05H150.59V104.012Z" fill="#FD4600"/>
<path d="M185.873 111.336C214.334 111.649 209.731 137.379 209.717 137.414H179.352V145.988H166.938C166.977 145.986 161.844 141.369 161.938 132.234C162.122 110.949 184.978 111.317 185.873 111.336ZM193.283 128.839C193.265 128.81 193.995 121.884 185.873 121.874C178.043 121.834 178.902 128.81 178.906 128.839H193.283Z" fill="#FD4600"/>
</svg>
