<svg width="250" height="250" viewBox="0 0 250 250" fill="none" xmlns="http://www.w3.org/2000/svg">
<rect width="250" height="250" fill="#0090FB"/>
<path d="M95.1986 147.314C94.0657 151.2 94.4206 152.626 95.1337 153.66C95.8468 154.694 97.7541 156.414 104.261 154.599C110.768 152.783 116.592 145.144 118.114 142.233C120.349 137.958 121.355 134.727 122.461 129.759C123.484 125.102 123.047 121.376 123.082 118.789C123.129 115.353 127.292 113.815 126.807 112.528C125.893 110.119 115.111 109.498 114.651 110.945C114.19 112.392 95.202 147.314 95.202 147.314" fill="url(#paint0_linear_263_306)"/>
<path d="M118.82 120.376C120.455 120.618 122.826 121.806 123.123 122.12C123.549 123.269 122.147 133.116 120.734 136.505C120.734 133.512 117.346 130.878 116.097 130.155C115.76 129.97 118.82 120.376 118.82 120.376Z" fill="#EDE0A1"/>
<path d="M121.294 134.747C121.871 132.994 122.268 131.187 122.478 129.353C122.246 128.596 118.827 126.391 118.137 126.262C117.448 126.132 116.431 128.892 116.431 128.892C116.431 128.892 120.574 131.472 121.294 134.747Z" fill="#BA2025"/>
<path d="M80.2229 122.443C76.9475 124.252 72.8837 127.176 71.867 133.676C70.8502 140.176 70.2394 146.672 74.0779 149.951C76.5107 152.029 79.7999 152.783 86.4124 150.924C91.4554 149.511 100.872 144.69 104.674 141.902C108.475 139.115 111.706 137.569 112.767 136.331C113.828 135.092 115.596 132.216 115.155 130.36C114.715 128.503 83.1847 120.806 80.2229 122.443Z" fill="#34A649"/>
<path d="M82.0935 123.611C79.705 125.04 77.163 128.544 76.4705 131.011C75.7777 133.478 73.7749 140.814 76.5181 145.001C78.6064 148.184 80.715 148.849 87.3241 147.075C93.9332 145.301 101.235 140.933 103.306 139.64C105.377 138.347 112.757 133.915 113.447 132.929C114.136 131.943 114.177 130.199 113.583 130.117C112.989 130.035 84.5602 122.123 82.0935 123.611Z" fill="#CDDCA1"/>
<path d="M82.8439 124.013C80.234 125.672 78.2756 128.179 77.2993 131.114C75.7741 135.488 75.334 141.691 77.0367 144.352C78.7393 147.014 82.0319 147.287 85.4268 146.611C92.2031 145.246 99.2625 141.046 104.964 137.661C105.902 137.102 113.269 132.758 113.153 131.584C110.103 131.584 97.311 128.797 95.2295 128.172C93.1483 127.548 86.4811 125.658 82.8439 124.013Z" fill="#98C845"/>
<path d="M95.0517 136.767C95.0517 140.2 91.9605 143.315 88.1459 143.445C84.6929 143.564 81.3048 140.299 81.2707 136.866C81.2399 133.249 83.7035 129.595 88.2449 129.629C92.4519 129.663 95.0517 133.335 95.0517 136.767Z" fill="#DE1F26"/>
<path d="M94.1956 136.569C94.2023 137.769 93.8527 138.943 93.1911 139.943C92.5292 140.944 91.5854 141.725 90.4789 142.188C89.3725 142.65 88.1535 142.774 86.9765 142.543C85.7998 142.312 84.7181 141.737 83.8688 140.89C83.0196 140.043 82.4411 138.963 82.2065 137.786C81.9721 136.61 82.0925 135.391 82.5521 134.283C83.012 133.175 83.7904 132.229 84.7887 131.565C85.787 130.9 86.9604 130.547 88.1597 130.551C89.7576 130.551 91.2904 131.184 92.4218 132.312C93.5532 133.441 94.1911 134.971 94.1956 136.569Z" fill="#BE2126"/>
<path d="M117.773 89.2037C116.408 84.9589 110.676 72.5904 104.193 72.5904C97.8126 72.5904 92.5922 83.2564 91.7632 84.9589C90.1833 88.1833 103.023 114.497 113.139 114.644C123.256 114.79 123.004 106.485 122.939 104.445C122.877 102.538 117.773 89.2037 117.773 89.2037Z" fill="#5AB047"/>
<path d="M116.425 91.6056C115.31 88.5792 110.178 78.4488 104.787 78.5785C99.396 78.7082 96.1681 85.2218 95.0525 87.129C93.9368 89.0365 105.903 113.842 115.374 109.103C119.841 106.868 116.425 91.6056 116.425 91.6056Z" fill="#CDDCA1"/>
<path d="M115.63 91.5339C114.583 88.6953 109.769 79.196 104.712 79.3189C99.6552 79.4418 96.6322 85.5493 95.5813 87.3373C94.5303 89.125 100.102 109.918 107.489 114.616C114.876 119.315 116.763 119.881 118.203 118.994C122.192 116.534 122.424 114.023 121.274 106.864C120.175 99.9447 115.63 91.5339 115.63 91.5339Z" fill="#A1CA47"/>
<path d="M114.319 99.4328C114.319 106.257 109.86 111.801 104.356 111.801C98.8527 111.801 94.3931 106.264 94.3931 99.4328C94.3931 92.602 98.8527 87.0644 104.356 87.0644C109.86 87.0644 114.319 92.602 114.319 99.4328Z" fill="#DE1F26"/>
<path d="M113.565 99.6307C113.641 106.045 109.42 110.263 105.254 110.338C100.074 110.43 94.7821 106.482 94.7821 99.8492C94.7821 93.2161 98.979 87.8421 104.158 87.8421C109.338 87.8421 113.487 93.0012 113.565 99.6307Z" fill="#BE2126"/>
<path d="M76.48 76.3197C71.0992 77.4048 67.3461 82.4341 64.9951 89.2412C62.6443 96.0482 62.2859 100.729 63.1868 105.994C64.0874 111.259 71.8021 117.851 77.1762 121.15C84.3413 125.565 107.748 132.052 114.285 131.574C116.466 131.417 119.809 123.996 118.752 120.14C117.578 115.886 105.721 99.6033 104.537 97.8974C103.353 96.1915 86.7945 74.2452 76.48 76.3197Z" fill="#5BB047"/>
<path d="M76.5037 79.8922C73.6752 80.387 70.4543 83.7103 68.6119 89.3673C66.7692 95.0244 66.5645 100.156 67.8884 105.155C69.2122 110.154 74.7944 115.616 77.8174 117.919C80.8404 120.222 93.1442 127.722 113.862 129.827C115.438 127.394 116.827 124.068 116.756 122.392C116.575 118.233 115.425 117.302 112.282 112.59C107.89 105.949 103.125 99.5631 98.0098 93.4618C91.1687 85.0238 82.5534 78.8413 76.5037 79.8922Z" fill="#C3D797"/>
<path d="M76.7368 80.8374C74.1915 81.2809 71.2776 84.2698 69.6397 89.3673C68.002 94.465 67.4118 99.7399 68.5479 104.251C70.3051 111.239 74.9694 114.04 77.9515 116.947C81.1076 120.018 94.8308 127.026 113.467 128.92C114.887 126.729 116.125 123.051 115.965 121.55C115.552 117.646 112.28 114.145 109.455 109.908C103.183 100.497 98.8399 95.8058 96.3183 92.7658C90.1733 85.3582 82.1789 79.8854 76.7368 80.8374Z" fill="#9AC944"/>
<path d="M85.3999 116.507C92.5644 116.507 98.3722 110.674 98.3722 103.48C98.3722 96.2849 92.5644 90.4525 85.3999 90.4525C78.2353 90.4525 72.4273 96.2849 72.4273 103.48C72.4273 110.674 78.2353 116.507 85.3999 116.507Z" fill="#DE1F26"/>
<path d="M85.399 115.715C92.1283 115.715 97.5835 110.237 97.5835 103.48C97.5835 96.7221 92.1283 91.244 85.399 91.244C78.6698 91.244 73.2148 96.7221 73.2148 103.48C73.2148 110.237 78.6698 115.715 85.399 115.715Z" fill="#BB2026"/>
<path d="M146.293 64.2514C145.14 65.4115 142.752 70.26 142.223 71.5054C141.694 72.7508 139.115 78.9811 138.794 79.9433C138.473 80.9056 135.723 81.2569 136.18 79.6703C136.699 77.8451 142.619 63.7328 143.345 62.5761C144.356 63.084 145.34 63.6432 146.293 64.2514Z" fill="url(#paint1_linear_263_306)"/>
<path d="M146.775 64.521C149.053 64.521 150.901 62.6741 150.901 60.3958C150.901 58.1176 149.053 56.2707 146.775 56.2707C144.497 56.2707 142.65 58.1176 142.65 60.3958C142.65 62.6741 144.497 64.521 146.775 64.521Z" fill="#F6AF3B"/>
<path d="M149.16 60.1911C149.16 60.6885 149.013 61.1746 148.736 61.5882C148.46 62.0017 148.067 62.324 147.608 62.5143C147.148 62.7047 146.643 62.7545 146.155 62.6574C145.667 62.5604 145.219 62.3209 144.867 61.9692C144.516 61.6175 144.276 61.1695 144.179 60.6817C144.082 60.1939 144.132 59.6883 144.322 59.2288C144.513 58.7693 144.835 58.3765 145.248 58.1002C145.662 57.8239 146.148 57.6764 146.646 57.6764C147.312 57.6764 147.952 57.9414 148.424 58.413C148.895 58.8845 149.16 59.5242 149.16 60.1911Z" fill="#BF2126"/>
<path d="M161.375 72.9282C161.375 73.6228 161.169 74.3017 160.783 74.8792C160.397 75.4566 159.849 75.9066 159.207 76.1723C158.565 76.4379 157.859 76.5072 157.178 76.3715C156.497 76.2357 155.871 75.901 155.38 75.4097C154.889 74.9183 154.555 74.2924 154.42 73.6111C154.285 72.9298 154.355 72.2238 154.622 71.5823C154.888 70.9408 155.338 70.3927 155.916 70.0073C156.494 69.6219 157.173 69.4166 157.867 69.4172C158.328 69.4172 158.785 69.5081 159.211 69.6846C159.636 69.8611 160.023 70.1197 160.349 70.4458C160.675 70.7719 160.933 71.1589 161.109 71.5849C161.285 72.0108 161.376 72.4673 161.375 72.9282Z" fill="url(#paint2_radial_263_306)"/>
<path d="M160.126 72.8737C160.127 73.3098 159.998 73.7362 159.757 74.0992C159.515 74.4621 159.171 74.7451 158.768 74.9125C158.365 75.0798 157.922 75.124 157.494 75.0393C157.066 74.9546 156.673 74.745 156.365 74.4369C156.056 74.1288 155.846 73.736 155.761 73.3084C155.675 72.8807 155.719 72.4373 155.885 72.0344C156.052 71.6314 156.335 71.287 156.697 71.0446C157.06 70.8023 157.486 70.6729 157.922 70.6729C158.506 70.6729 159.066 70.9047 159.48 71.3173C159.893 71.7299 160.126 72.2897 160.126 72.8737Z" fill="#BF2126"/>
<path d="M147.775 83.5465C149.031 82.6082 154.807 75.5623 155.104 74.6138C155.399 75.0625 155.791 75.4384 156.252 75.7132C156.713 75.9881 157.231 76.1546 157.766 76.2004C156.06 78.0566 152.839 81.1512 149.546 84.8907" fill="url(#paint3_linear_263_306)"/>
<path d="M156.281 97.1945C157.844 107.837 152.002 118.735 137.474 118.315C126.095 117.974 114.913 109.662 114.913 98.9074C114.913 88.1528 124.491 79.3666 136.157 79.8922C147.822 80.4175 154.902 87.7876 156.281 97.1945Z" fill="url(#paint4_radial_263_306)"/>
<path d="M140.166 109.396C144.342 110.491 146.12 110.706 148.221 110.467C149.467 110.328 150.951 109.188 151.292 109.666C151.497 109.945 150.364 110.321 149.555 110.525C148.331 110.839 147.491 110.686 145.55 111.208C144.318 111.549 144.089 113.276 144.055 114.033C144.055 114.033 144.038 114.524 144.055 115.807C142.114 116.039 138.76 115.316 137.709 114.869C136.658 114.422 135.027 113.845 133.369 111.911C131.711 109.976 131.363 106.254 130.67 104.704C130.107 103.439 128.981 103.056 128.247 102.009C127.872 101.504 127.66 101.094 127.831 100.985C128.142 100.794 128.995 102.142 129.496 102.715C130.213 103.472 130.973 104.186 131.772 104.855C133.123 105.994 136.822 108.519 140.166 109.396Z" fill="#C02126"/>
<path d="M133.352 111.887C135.116 111.887 138.572 112.685 139.725 113.252C140.879 113.818 141.121 114.145 141.169 114.374C141.216 114.603 141.169 115.381 141.322 115.398C141.476 115.415 141.663 114.599 142.059 114.323C142.455 114.047 143.639 114.183 144.038 114.49C144.069 115.104 144.069 115.811 144.069 115.811C142.226 115.903 140.38 115.685 138.61 115.166C136.561 114.641 134.724 113.496 133.352 111.887Z" fill="#E57F8E"/>
<path d="M77.4326 165.162C82.2675 163.917 82.7689 160.894 82.653 159.979C81.8682 153.838 73.1334 151.91 66.5209 151.712C56.8034 151.422 50.3888 152.374 45.0251 155.465C40.9716 157.84 38.3443 162.692 41.2002 166.725C43.4931 169.98 49.1332 171.222 50.0715 166.527C48.287 166.394 46.6868 163.483 46.9631 161.433C47.3623 158.522 50.2694 156.209 54.3024 155.216C52.7158 158.522 53.0468 162.624 52.9137 163.814C52.7806 165.005 53.3129 178.165 51.4602 179.223C53.2447 180.547 56.0801 181.127 57.5404 181.117C60.5703 181.141 63.624 180.479 64.8149 178.629C66.6641 179.82 72.2736 181.151 74.918 181.151C77.5623 181.151 85.0311 180.158 85.5601 174.934C86.0888 169.71 81.5304 166.421 77.4326 165.162ZM69.9567 175.982C69.1148 175.975 68.2936 175.719 67.5966 175.246C66.8998 174.774 66.3583 174.105 66.0409 173.325C65.7232 172.546 65.6435 171.689 65.812 170.864C65.9805 170.039 66.3893 169.282 66.9871 168.689C67.5849 168.096 68.3449 167.693 69.1714 167.531C69.9976 167.369 70.8536 167.456 71.6309 167.78C72.4082 168.103 73.0723 168.65 73.5394 169.351C74.0067 170.051 74.2559 170.875 74.2559 171.717C74.2542 172.279 74.1415 172.836 73.9245 173.355C73.7073 173.874 73.39 174.344 72.9908 174.741C72.5913 175.137 72.1179 175.45 71.5974 175.663C71.0767 175.876 70.5192 175.985 69.9567 175.982ZM69.9567 163.419C69.1148 163.412 68.2936 163.156 67.5966 162.683C66.8998 162.211 66.3583 161.542 66.0409 160.762C65.7232 159.982 65.6435 159.126 65.812 158.301C65.9805 157.476 66.3893 156.719 66.9871 156.126C67.5849 155.533 68.3449 155.13 69.1714 154.968C69.9976 154.806 70.8536 154.893 71.6309 155.217C72.4082 155.54 73.0723 156.087 73.5394 156.788C74.0067 157.488 74.2559 158.312 74.2559 159.154C74.2487 160.288 73.792 161.372 72.9861 162.17C72.1802 162.968 71.0907 163.413 69.9567 163.408V163.419Z" fill="#BF2126"/>
<path d="M113.685 175.49C112.576 175.224 111.873 174.399 111.873 173.443C111.873 172.191 111.955 164.173 111.955 162.593C111.559 162.197 108.747 161.443 107.103 161.457C105.573 161.437 104.063 161.811 102.718 162.542C102.718 162.542 102.63 162.641 102.377 164.122C101.275 162.788 98.4396 162.187 96.2696 162.153C94.0995 162.119 90.2986 162.719 88.0808 165.691C85.8629 168.663 86.7159 172.266 87.9819 174.801C89.9847 178.807 94.922 180.643 97.3239 180.643C99.8591 180.643 102.763 179.643 104.063 177.739C107.236 180.745 109.805 180.776 111.74 180.544C112.493 180.469 113.2 180.147 113.75 179.627C114.299 179.107 114.66 178.419 114.776 177.671C114.872 176.599 114.139 175.6 113.685 175.49ZM93.1203 174.382C92.2811 174.38 91.4609 174.13 90.7637 173.663C90.0665 173.195 89.5236 172.532 89.2034 171.756C88.8834 170.98 88.8005 170.126 88.9652 169.303C89.13 168.48 89.5352 167.725 90.1294 167.132C90.7237 166.539 91.4802 166.136 92.3037 165.973C93.127 165.81 93.9802 165.895 94.7554 166.217C95.5306 166.539 96.1929 167.084 96.6584 167.782C97.1242 168.48 97.3724 169.301 97.3718 170.14C97.3682 171.266 96.9187 172.344 96.1219 173.139C95.3251 173.934 94.2458 174.381 93.1203 174.382Z" fill="#BF2126"/>
<path d="M114.927 152.742C116.095 151.563 117.679 150.889 119.339 150.866C121.116 150.903 123.535 151.77 124.368 152.756C124.368 154.203 124.317 163.825 124.317 163.825C126.241 162.293 128.906 162.163 130.615 162.163C133.543 162.163 137.027 164.722 138.327 166.981C139.627 169.24 140.268 171.505 139.773 174.102C139.279 176.698 136.651 178.879 134.775 179.629C132.615 180.513 128.084 180.936 125.402 180.513C120.625 179.759 117.94 178.312 116.213 175.449C115.245 173.808 114.749 171.93 114.78 170.024C114.773 168.642 114.927 152.742 114.927 152.742ZM132.516 165.879C131.681 165.885 130.867 166.138 130.176 166.606C129.485 167.074 128.947 167.737 128.632 168.51C128.317 169.283 128.238 170.132 128.404 170.95C128.571 171.768 128.976 172.518 129.568 173.106C130.161 173.694 130.914 174.094 131.733 174.255C132.552 174.415 133.401 174.33 134.171 174.009C134.942 173.688 135.601 173.146 136.064 172.452C136.527 171.757 136.774 170.941 136.774 170.106C136.77 168.981 136.319 167.904 135.52 167.111C134.722 166.318 133.641 165.875 132.516 165.879Z" fill="#BF2126"/>
<path d="M145.84 162.409C147.686 162.381 150.528 163.75 150.931 164.309C150.958 165.193 150.931 174.354 150.955 175.368C150.979 176.381 151.593 177.111 152.49 177.135C154.074 177.179 155.022 174.695 155.111 171.901C155.169 170.164 155.206 165.538 155.206 164.231C156.169 162.839 158.96 162.525 159.615 162.525C160.898 162.552 163.624 163.514 164.664 164.289C164.664 166.38 164.395 181.741 164.439 183.846C164.538 188.518 162.276 193.4 154.244 193.714C153.241 193.755 149.379 193.864 145.752 191.691C142.125 189.517 143.056 186.603 143.175 186.3C143.401 185.887 143.711 185.526 144.086 185.242C144.46 184.957 144.891 184.755 145.349 184.648C146.659 184.345 147.29 184.488 148.42 184.877C149.549 185.266 150.846 186.334 151.221 187.757C151.596 189.179 150.992 190.329 149.911 190.79C150.447 191.131 151.453 191.094 152.122 190.961C153.166 190.79 154.79 189.596 155.06 186.129C155.162 184.798 155.06 181.267 155.043 179.834C154.019 181.165 152.313 182.372 149.222 182.349C147.034 182.349 142.258 181.025 141.411 175.163C141.411 173.484 141.446 165.179 141.446 164.292C141.435 163.825 143.435 162.443 145.84 162.409Z" fill="#BF2126"/>
<path d="M174.532 156.011L185.222 154.663L182.328 162.511L185.549 162.542L184.498 165.306H181.339C181.339 165.306 178.579 172.641 178.183 173.989C177.787 175.337 178.23 176.302 178.708 176.378C179.763 176.575 180.977 175.839 181.868 174.699C182.458 173.945 184.038 171.707 184.331 170.656C185.976 171.246 186.832 171.608 186.832 171.608C186.15 174.337 182.591 177.988 180.486 179.568C178.381 181.148 175.091 182.495 171.802 181.738C168.513 180.98 166.831 177.886 167.892 174.371C168.953 170.857 171.212 165.261 171.212 165.261L168.448 165.193L169.404 162.429H172.133L174.532 156.011Z" fill="#EF9A20"/>
<path d="M191.848 162.293L202.108 162.344C202.108 162.344 198.655 171.867 198.113 173.262C197.57 174.658 197.772 176.036 198.359 176.122C200.382 176.419 201.665 175.037 203.476 173.163C202.487 170.499 204.033 165.926 204.609 164.872C206.039 162.259 207.52 161.801 208.161 161.801C208.803 161.801 210.331 162.886 209.935 165.65C209.54 168.414 208.335 171.451 205.892 174.433C203.378 177.504 200.024 179.612 198.147 180.598C196.27 181.584 193.165 181.98 191.538 181.537C189.91 181.093 187.396 179.367 187.443 176.456C187.491 173.546 191.848 162.293 191.848 162.293Z" fill="#EF9A20"/>
<path d="M130.609 91.2407C129.96 93.3425 129.619 95.2292 130.083 97.6961C130.547 100.163 132.168 102.094 133.836 102.514C136.935 103.302 139.193 102.122 141.684 102.005C141.858 102.005 143.854 102.098 143.854 102.098L145.973 93.4618C143.728 92.4997 133.987 91.169 130.609 91.2407Z" fill="white"/>
<path d="M146.341 93.5131C146.341 93.5131 144.492 101.183 144.421 102.197C147.491 102.64 146.785 104.565 149.648 104.926C152.51 105.288 154.285 102.855 154.902 101.398C155.52 99.9412 155.796 97.3755 155.373 96.3655C153.988 95.748 146.341 93.53 146.341 93.53" fill="white"/>
<path d="M151.037 98.0782C151.017 98.4933 150.876 98.8936 150.632 99.2295C150.387 99.5654 150.049 99.8218 149.659 99.9674C149.27 100.113 148.847 100.141 148.442 100.048C148.037 99.9547 147.668 99.7449 147.381 99.4442C147.094 99.1435 146.902 98.7652 146.828 98.3562C146.754 97.9472 146.802 97.5255 146.966 97.1436C147.129 96.7615 147.402 96.436 147.749 96.2074C148.096 95.9787 148.502 95.8568 148.918 95.8571C149.493 95.8713 150.039 96.1133 150.436 96.5297C150.833 96.9461 151.049 97.503 151.037 98.0782Z" fill="#231F20"/>
<path d="M150.631 98.0987C150.623 98.2413 150.574 98.3787 150.49 98.4937C150.405 98.6088 150.289 98.6965 150.155 98.7459C150.021 98.7955 149.875 98.8048 149.736 98.7724C149.597 98.7402 149.471 98.6679 149.372 98.5645C149.274 98.4609 149.208 98.331 149.183 98.1905C149.157 98.05 149.174 97.905 149.23 97.7738C149.286 97.6425 149.38 97.5306 149.499 97.4519C149.618 97.3733 149.758 97.3311 149.9 97.3309C150.099 97.3364 150.287 97.4202 150.424 97.564C150.561 97.7079 150.635 97.9001 150.631 98.0987Z" fill="white"/>
<path d="M139.643 94.8949C139.617 95.4222 139.437 95.9304 139.125 96.3563C138.813 96.7823 138.383 97.1074 137.888 97.2915C137.394 97.4755 136.856 97.5102 136.341 97.3916C135.827 97.2729 135.358 97.0059 134.994 96.6238C134.63 96.2415 134.386 95.7608 134.292 95.2412C134.198 94.7216 134.259 94.1861 134.466 93.7006C134.674 93.2151 135.019 92.8012 135.46 92.51C135.9 92.219 136.416 92.0635 136.945 92.0629C137.678 92.0807 138.374 92.389 138.88 92.9201C139.386 93.4511 139.661 94.1615 139.643 94.8949Z" fill="#231F20"/>
<path d="M139.135 94.9494C139.135 95.1385 139.079 95.3231 138.974 95.4803C138.869 95.6373 138.719 95.7598 138.545 95.8321C138.37 95.9043 138.178 95.9234 137.993 95.8865C137.808 95.8497 137.637 95.7585 137.504 95.625C137.37 95.4915 137.279 95.3211 137.242 95.1359C137.205 94.9505 137.224 94.7585 137.297 94.5839C137.369 94.4093 137.491 94.2601 137.648 94.1552C137.806 94.0501 137.99 93.9941 138.179 93.9941C138.433 93.9941 138.676 94.0948 138.855 94.2738C139.034 94.4531 139.135 94.6962 139.135 94.9494Z" fill="white"/>
<path d="M145.482 93.2503C139.822 91.7353 130.582 91.2917 130.582 91.2917C131.038 89.7191 131.692 88.2102 132.526 86.8016C134.369 83.908 137.041 82.649 138.709 82.7548C142.309 82.9868 145.84 86.4536 147.188 89.4014C148.614 88.4734 149.324 88.3541 149.883 88.4461C153.074 88.9716 154.927 92.7896 155.387 96.3483C155.377 96.3483 151.16 94.7619 145.482 93.2503Z" fill="#F4AF59"/>
<path d="M145.482 93.2502C139.822 91.7352 130.582 91.2917 130.582 91.2917C131.055 89.7316 131.775 88.257 132.714 86.9243C134.591 84.3961 136.962 83.3759 138.631 83.4817C142.217 83.7137 145.625 87.1735 146.956 90.1215C148.382 89.1933 149.119 89.1933 149.686 89.2719C151.641 89.5516 154.906 92.7895 155.367 96.3483C155.377 96.3483 151.16 94.7619 145.482 93.2502Z" fill="#F8DFB3"/>
<path d="M147.806 103.753C147.492 104.851 145.816 105.343 144.052 104.844C142.288 104.346 141.132 103.05 141.442 101.948C141.753 100.845 143.431 100.358 145.195 100.856C146.959 101.354 148.116 102.65 147.806 103.753Z" fill="url(#paint5_radial_263_306)" stroke="#231F20" stroke-width="0.29"/>
<path opacity="0.62" d="M146.215 102.289C146.556 102.326 147.208 102.661 147.293 103.002C147.379 103.343 146.652 104.367 145.683 104.278C146.062 103.848 146.202 102.585 146.215 102.289Z" fill="white"/>
<defs>
<linearGradient id="paint0_linear_263_306" x1="119.69" y1="143.451" x2="101.562" y2="121.847" gradientUnits="userSpaceOnUse">
<stop stop-color="#F5881F"/>
<stop offset="0.32" stop-color="#FFC44B"/>
<stop offset="1" stop-color="#EB7B23"/>
</linearGradient>
<linearGradient id="paint1_linear_263_306" x1="141.213" y1="80.7623" x2="141.213" y2="62.5761" gradientUnits="userSpaceOnUse">
<stop stop-color="#F5881F"/>
<stop offset="0.18" stop-color="#F89E33"/>
<stop offset="0.43" stop-color="#FCB547"/>
<stop offset="0.66" stop-color="#FEC254"/>
<stop offset="0.86" stop-color="#FFC758"/>
<stop offset="1" stop-color="#EB7B23"/>
</linearGradient>
<radialGradient id="paint2_radial_263_306" cx="0" cy="0" r="1" gradientUnits="userSpaceOnUse" gradientTransform="translate(158.257 73.0004) scale(3.51861 3.51863)">
<stop stop-color="#FFF100"/>
<stop offset="0.05" stop-color="#FEE20E"/>
<stop offset="0.16" stop-color="#FBC22B"/>
<stop offset="0.27" stop-color="#F9AB40"/>
<stop offset="0.37" stop-color="#F79E4D"/>
<stop offset="0.47" stop-color="#F79951"/>
<stop offset="1" stop-color="#EB7B23"/>
</radialGradient>
<linearGradient id="paint3_linear_263_306" x1="153.999" y1="83.2666" x2="151.348" y2="75.982" gradientUnits="userSpaceOnUse">
<stop stop-color="#F5881F"/>
<stop offset="0.35" stop-color="#FFC758"/>
<stop offset="1" stop-color="#EB7B23"/>
</linearGradient>
<radialGradient id="paint4_radial_263_306" cx="0" cy="0" r="1" gradientUnits="userSpaceOnUse" gradientTransform="translate(136.045 99.2416) scale(20.0906)">
<stop stop-color="#DC7C1B"/>
<stop offset="0.09" stop-color="#E69636"/>
<stop offset="0.2" stop-color="#F1B153"/>
<stop offset="0.32" stop-color="#F9C568"/>
<stop offset="0.43" stop-color="#FDD175"/>
<stop offset="0.54" stop-color="#FFD579"/>
<stop offset="1" stop-color="#ECB026"/>
</radialGradient>
<radialGradient id="paint5_radial_263_306" cx="0" cy="0" r="1" gradientUnits="userSpaceOnUse" gradientTransform="translate(144.349 104.822) scale(5.5728)">
<stop stop-color="#B93D7F"/>
<stop offset="0.28" stop-color="#CB2B79"/>
<stop offset="0.72" stop-color="#E31472"/>
<stop offset="1" stop-color="#D77AAB"/>
</radialGradient>
</defs>
</svg>
