<svg width="250" height="250" viewBox="0 0 250 250" fill="none" xmlns="http://www.w3.org/2000/svg">
<rect width="250" height="250" fill="#1D2B2B"/>
<mask id="mask0_305_216" style="mask-type:luminance" maskUnits="userSpaceOnUse" x="69" y="152" width="112" height="45">
<path d="M180.39 152.39H69.61V196.1H180.39V152.39Z" fill="white"/>
</mask>
<g mask="url(#mask0_305_216)">
<path d="M73.14 152.43H90.58C95.78 152.43 99.21 154.84 99.21 158.76C99.21 161.27 97.73 163.71 94.93 165.02C96.88 165.98 98.25 168.02 98.25 170.51C98.25 174.83 94.64 177.83 88.7 177.83H69.56L73.13 152.43H73.14ZM78.19 171.32H88.41C89.93 171.32 90.71 170.44 90.71 169.48C90.71 168.52 89.93 167.92 88.62 167.92H78.65L78.19 171.32ZM89.19 162.12C90.67 162.12 91.49 161.31 91.49 160.32C91.49 159.33 90.71 158.87 89.37 158.87H79.93L79.47 162.12H89.2H89.19Z" fill="white"/>
<path d="M122.03 152.43L130.45 177.83H121.89L120.65 173.8H107.95L105.44 177.83H96.63L112.69 152.43H122.03ZM111.92 167.5H118.68L116.45 160.29L111.92 167.5Z" fill="white"/>
<path d="M135.19 152.43H143.22L140.6 171.11H155.67L154.71 177.83H131.61L135.18 152.43H135.19Z" fill="white"/>
<path d="M159.94 152.43H167.97L165.35 171.11H180.42L179.46 177.83H156.36L159.93 152.43H159.94Z" fill="white"/>
<path d="M78.22 181.26C82.11 181.26 84.9 183.18 85.52 185.64L81.41 187.45C80.99 185.83 79.79 184.94 78.02 184.94C75.62 184.94 74 186.56 74 188.49C74 190.42 75.62 191.58 77.55 191.58C79.34 191.58 80.66 190.51 81.17 189.13L84.96 190.99C83.73 193.61 80.79 195.25 77.4 195.25C72.78 195.25 69.61 192.44 69.61 188.69C69.61 184.94 73.08 181.26 78.23 181.26H78.22Z" fill="white"/>
<path d="M97.27 181.49L101.76 195.03H97.19L96.53 192.88H89.76L88.42 195.03H83.72L92.28 181.49H97.26H97.27ZM91.88 189.52H95.48L94.29 185.67L91.88 189.52Z" fill="white"/>
<path d="M104.28 189.37C105.58 190.65 108.13 191.73 110.5 191.71C111.97 191.69 112.61 191.43 112.61 190.92C112.61 190.24 111.21 190.15 108.71 189.75C106.22 189.35 103.49 188.52 103.49 185.86C103.49 183.35 105.81 181.26 110.45 181.26C113.66 181.26 116.62 182.36 118.09 183.62L115.47 186.54C113.92 185.35 111.96 184.75 109.72 184.75C108.45 184.75 107.91 185 107.91 185.45C107.91 185.94 108.84 186.05 111.4 186.45C114.1 186.87 117.34 187.55 117.34 190.45C117.34 193.09 114.83 195.26 110.15 195.26C106.62 195.26 103.27 194.07 101.65 192.43L104.29 189.38L104.28 189.37Z" fill="white"/>
<path d="M128.35 185.07L126.95 195.03H122.67L124.07 185.07H118.56L119.07 181.49H134.36L133.85 185.07H128.34H128.35Z" fill="white"/>
<path d="M148.84 181.49L148.33 185.07H139.33L139.14 186.47H147.06L146.57 189.96H138.65L138.44 191.45H147.44L146.93 195.03H133.73L135.63 181.49H148.83H148.84Z" fill="white"/>
<path d="M152.91 195.03H148.63L150.53 181.49H158.81C162.45 181.49 164.47 183.23 164.47 185.85C164.47 187.83 163.3 189.66 160.92 190.47L163.5 195.04H158.75L156.55 190.89H153.5L152.91 195.04V195.03ZM158.41 187.56C159.62 187.56 160.22 186.94 160.22 186.2C160.22 185.54 159.73 185.03 158.6 185.03H154.3L153.96 187.56H158.41Z" fill="white"/>
<path d="M178.6 195.03H164.15L164.58 191.88L173.33 185.07H165.62L166.13 181.49H180.39L179.96 184.62L171.19 191.45H179.11L178.6 195.03Z" fill="white"/>
</g>
<path d="M125.06 141.42C149.23 141.42 168.82 121.83 168.82 97.66C168.82 73.49 149.23 53.9 125.06 53.9C100.89 53.9 81.3 73.49 81.3 97.66C81.3 121.83 100.89 141.42 125.06 141.42Z" fill="#71FD35"/>
<mask id="mask1_305_216" style="mask-type:luminance" maskUnits="userSpaceOnUse" x="81" y="53" width="88" height="89">
<path d="M125.06 141.42C149.23 141.42 168.82 121.83 168.82 97.66C168.82 73.49 149.23 53.9 125.06 53.9C100.89 53.9 81.3 73.49 81.3 97.66C81.3 121.83 100.89 141.42 125.06 141.42Z" fill="white"/>
</mask>
<g mask="url(#mask1_305_216)">
<path d="M104.47 58.08L122.21 51.3L102.87 89.11L125.62 97.0001L120.66 106.65L85.78 94.5601L104.46 58.08H104.47Z" fill="white"/>
</g>
<mask id="mask2_305_216" style="mask-type:luminance" maskUnits="userSpaceOnUse" x="81" y="53" width="88" height="89">
<path d="M125.06 141.42C149.23 141.42 168.82 121.83 168.82 97.66C168.82 73.49 149.23 53.9 125.06 53.9C100.89 53.9 81.3 73.49 81.3 97.66C81.3 121.83 100.89 141.42 125.06 141.42Z" fill="white"/>
</mask>
<g mask="url(#mask2_305_216)">
<path d="M128.84 87.95L140.68 82.99L148.35 112.14L170.56 102.84L173.3 113.33L139.25 127.59L128.84 87.95Z" fill="white"/>
</g>
</svg>
