<svg width="250" height="250" viewBox="0 0 250 250" fill="none" xmlns="http://www.w3.org/2000/svg">
<rect width="250" height="250" fill="#032C00"/>
<path d="M100.326 83.8775V116.782H67.4337V83.8775H100.326ZM91.2183 104.257C91.2183 103.134 90.9308 102.181 90.3546 101.399C89.766 100.603 88.9295 100.028 87.8473 99.6713C88.6284 99.2887 89.2244 98.7739 89.6365 98.1283C90.0326 97.4852 90.2312 96.7236 90.2312 95.846C90.2312 94.3104 89.6698 93.1316 88.5457 92.3095C87.4229 91.4862 85.8385 91.0751 83.7977 91.0751H76.8484V109.583H84.2283C85.6818 109.583 86.9281 109.371 87.9707 108.946C89.0121 108.507 89.8142 107.891 90.3756 107.095C90.937 106.3 91.2183 105.354 91.2183 104.257ZM83.4473 98.6838H80.5908V94.0784H83.4473C85.4338 94.0784 86.4283 94.8116 86.4283 96.278C86.4283 97.0322 86.1754 97.6222 85.6683 98.0469C85.1611 98.4715 84.4208 98.6838 83.4473 98.6838ZM87.3735 104.114C87.3735 104.909 87.065 105.519 86.4481 105.944C85.8459 106.369 84.9822 106.581 83.8594 106.581H80.5895V101.583H83.9211C86.2223 101.583 87.3735 102.428 87.3735 104.114ZM141.439 83.8775V116.782H108.548V83.8775H141.439ZM132.333 104.257C132.333 103.134 132.044 102.181 131.469 101.399C130.879 100.603 130.044 100.028 128.961 99.6713C129.742 99.2887 130.339 98.7739 130.75 98.1283C131.147 97.4852 131.346 96.7236 131.346 95.846C131.346 94.3104 130.784 93.1316 129.66 92.3095C128.536 91.4862 126.953 91.0751 124.911 91.0751H117.963V109.583H125.343C126.795 109.583 128.043 109.371 129.084 108.946C130.126 108.507 130.928 107.891 131.49 107.095C132.052 106.3 132.332 105.354 132.332 104.257H132.333ZM124.562 98.6838H121.704V94.0784H124.563C126.55 94.0784 127.544 94.8116 127.544 96.278C127.544 97.0322 127.29 97.6222 126.783 98.0469C126.277 98.4715 125.537 98.6838 124.562 98.6838ZM128.488 104.114C128.488 104.909 128.18 105.519 127.563 105.944C126.961 106.369 126.097 106.581 124.973 106.581H121.704V101.583H125.036C127.337 101.583 128.488 102.428 128.488 104.114ZM149.662 83.8775H182.554V116.782H149.661V83.8775H149.662ZM173.282 104.874C171.692 105.867 169.853 106.388 167.979 106.375C166.732 106.375 165.669 106.143 164.792 105.677C163.918 105.214 163.213 104.487 162.778 103.599C162.312 102.694 162.079 101.598 162.079 100.309C162.079 99.0344 162.319 97.9444 162.798 97.0384C163.262 96.1631 163.978 95.4472 164.854 94.9832C165.758 94.5166 166.848 94.2833 168.123 94.2833C169.041 94.2833 169.917 94.4067 170.754 94.6536C171.589 94.9005 172.364 95.2572 173.077 95.7225V92.1243C172.272 91.7042 171.415 91.3929 170.528 91.1986C169.571 90.975 168.591 90.8648 167.609 90.8702C166.128 90.8702 164.792 91.0887 163.6 91.5281C162.408 91.9799 161.386 92.6181 160.537 93.4402C159.676 94.2797 159.01 95.2976 158.584 96.4224C158.131 97.5877 157.905 98.8825 157.905 100.309C157.905 101.791 158.125 103.113 158.563 104.278C158.989 105.457 159.612 106.45 160.434 107.26C161.257 108.082 162.257 108.707 163.436 109.132C164.628 109.57 165.964 109.789 167.444 109.789C168.554 109.789 169.616 109.666 170.631 109.419C171.63 109.172 172.515 108.837 173.284 108.412V104.874H173.282Z" fill="white"/>
<path d="M40 129.119H65.4713V135.747H47.955V143.765H63.4963V150.395H47.9563V159.491H66.4563V166.121H40V129.119Z" fill="white"/>
<path d="M93.2237 129.119C95.7725 135.265 98.27 141.423 100.716 147.589C103.141 153.776 105.496 159.955 107.779 166.121H99.02C98.1352 163.446 97.241 160.773 96.3375 158.104H81.32C80.4104 160.771 79.5163 163.444 78.6375 166.121H70.0963C72.3972 159.758 74.782 153.426 77.25 147.126C79.6412 141.093 82.1081 135.09 84.65 129.119H93.2237ZM83.5713 151.475H93.9937C93.1499 149.066 92.297 146.661 91.435 144.259C90.569 141.902 89.6952 139.548 88.8138 137.196C87.0201 141.939 85.2725 146.699 83.5713 151.475ZM111.416 166.123V129.118H124.923C129.795 129.118 133.526 130.135 136.116 132.17C138.728 134.205 140.033 137.124 140.033 140.928C140.033 143.374 139.457 145.46 138.306 147.188C137.155 148.914 135.51 150.24 133.373 151.165C134.916 153.614 136.447 156.071 137.966 158.535C139.515 161.047 141.036 163.575 142.53 166.12H133.373C130.9 161.583 128.33 157.101 125.663 152.676H119.28V166.12H111.417L111.416 166.123ZM119.279 146.418H124.46C126.906 146.418 128.768 145.975 130.041 145.093C131.316 144.208 131.954 142.82 131.954 140.929C131.954 138.996 131.326 137.588 130.073 136.704C128.819 135.82 126.969 135.379 124.523 135.379H119.28V146.416L119.279 146.418Z" fill="white"/>
<path d="M142.931 129.119H174.199V136.056H162.543V166.122H154.588V136.056H142.931V129.119ZM177.961 129.119H185.918V143.302H202.014V129.119H210V166.121H202.014V150.241H185.918V166.121H177.961V129.119Z" fill="white"/>
</svg>
