<svg width="250" height="250" viewBox="0 0 250 250" fill="none" xmlns="http://www.w3.org/2000/svg">
<rect width="250" height="250" fill="#241F20"/>
<path d="M55.155 75.6897V114.846H94.3118V75.6897H55.155ZM104.092 75.6897V114.846H143.248V75.6897H104.092ZM152.99 75.6897V114.846H192.146V75.6897H152.99ZM174.277 84.0235C175.488 84.0235 176.624 84.1374 177.722 84.4037C178.82 84.6701 179.803 85.013 180.75 85.5077V89.7694C179.917 89.1986 178.971 88.7803 177.987 88.4759C176.965 88.1715 175.904 88.0189 174.882 88.0569C173.368 88.0569 172.082 88.323 171.022 88.8938C169.962 89.4265 169.129 90.3025 168.599 91.33C168.031 92.3954 167.767 93.6883 167.767 95.2104C167.767 96.7325 168.031 98.0652 168.599 99.1307C169.129 100.196 169.962 101.034 170.984 101.605C172.044 102.175 173.293 102.441 174.769 102.441C177.04 102.441 179.123 101.832 181.053 100.653V104.877H181.015C180.106 105.371 179.047 105.79 177.874 106.056C176.662 106.36 175.412 106.475 174.087 106.475C172.346 106.475 170.757 106.208 169.356 105.713C167.956 105.181 166.783 104.458 165.799 103.507C164.814 102.555 164.094 101.376 163.565 99.9676C163.035 98.5596 162.807 96.9996 162.807 95.2492C162.807 93.5368 163.072 92.0153 163.602 90.6073C164.132 89.2373 164.927 88.0566 165.912 87.0672C166.934 86.0778 168.145 85.3174 169.546 84.8227C170.947 84.29 172.536 84.0235 174.277 84.0235ZM115.274 84.3126H123.524C125.94 84.3126 127.828 84.8062 129.149 85.7548C130.471 86.7415 131.15 88.1071 131.15 89.9286C131.15 90.9911 130.924 91.8643 130.433 92.6612C129.942 93.4201 129.263 94.0271 128.319 94.4825C129.602 94.8999 130.584 95.5835 131.264 96.5322C131.943 97.443 132.283 98.5808 132.283 99.9089C132.245 101.237 131.906 102.376 131.264 103.324C130.584 104.273 129.64 104.994 128.432 105.487C127.186 105.981 125.714 106.247 124.015 106.247H115.274V84.3126ZM119.711 87.8123V93.344H123.071C124.242 93.344 125.11 93.079 125.714 92.5857C126.318 92.0924 126.62 91.3711 126.62 90.4983C126.62 88.5669 125.45 87.8123 123.071 87.8123H119.711ZM119.711 96.7127V102.717H123.562C124.883 102.717 125.903 102.452 126.62 101.959C127.337 101.465 127.726 100.744 127.744 99.7958C127.784 97.6663 126.254 96.7127 123.637 96.7127H119.711ZM66.4016 84.3126H74.6513C77.0676 84.3126 78.9553 84.8062 80.2767 85.7548C81.5981 86.7415 82.2772 88.1071 82.2772 89.9286C82.2772 90.9911 82.0516 91.8643 81.5608 92.6612C81.07 93.4201 80.39 94.0271 79.4462 94.4825C80.7298 94.8999 81.7118 95.5835 82.3914 96.5322C83.0709 97.443 83.4104 98.5808 83.4104 99.9089C83.3726 101.237 83.0332 102.376 82.3914 103.324C81.7118 104.273 80.7674 104.994 79.5593 105.487C78.3134 105.981 76.8415 106.247 75.1425 106.247H66.4016V84.3126ZM70.8389 87.8123V93.344H74.1989C75.3693 93.344 76.2373 93.079 76.8414 92.5857C77.4454 92.0924 77.7473 91.3711 77.7473 90.4983C77.7473 88.5669 76.5774 87.8123 74.1989 87.8123H70.8389ZM70.8389 96.7127V102.717H74.689C76.0104 102.717 77.03 102.452 77.7473 101.959C78.4647 101.465 78.8539 100.744 78.8717 99.7958C78.9118 97.6663 77.3814 96.7127 74.7645 96.7127H70.8389Z" fill="white"/>
<path d="M151.199 174.31C148.778 174.31 146.377 174.044 143.996 173.511C141.657 172.979 139.4 172.139 137.224 170.992V162.51C141.616 165.173 146.274 166.505 151.199 166.505C153.99 166.505 156.104 166.034 157.54 165.091C159.018 164.149 159.756 162.838 159.756 161.158C159.756 159.888 159.387 158.905 158.648 158.208C157.951 157.471 157.007 156.897 155.816 156.487C154.626 156.037 153.292 155.627 151.815 155.258C149.393 154.684 147.259 154.029 145.412 153.291C143.565 152.554 142.006 151.693 140.734 150.71C139.461 149.686 138.497 148.477 137.84 147.084C137.183 145.65 136.855 143.95 136.855 141.983C136.855 139.197 137.553 136.8 138.948 134.792C140.385 132.785 142.396 131.248 144.981 130.183C147.567 129.077 150.645 128.523 154.216 128.523C156.555 128.523 158.854 128.79 161.111 129.322C163.368 129.855 165.4 130.572 167.206 131.473V139.832C165.4 138.726 163.348 137.865 161.049 137.251C158.792 136.636 156.514 136.329 154.216 136.329C151.712 136.329 149.763 136.759 148.367 137.619C147.013 138.48 146.336 139.709 146.336 141.307C146.336 142.454 146.664 143.376 147.321 144.073C147.977 144.728 148.901 145.281 150.091 145.732C151.322 146.142 152.759 146.551 154.4 146.961C156.494 147.494 158.443 148.088 160.249 148.743C162.055 149.358 163.635 150.157 164.989 151.14C166.385 152.124 167.452 153.373 168.191 154.889C168.97 156.405 169.36 158.27 169.36 160.482C169.36 163.391 168.642 165.89 167.206 167.98C165.769 170.029 163.696 171.606 160.988 172.712C158.279 173.778 155.016 174.31 151.199 174.31Z" fill="white"/>
<path d="M172.816 129.445H210V137.681H196.148V173.388H186.668V137.681H172.816V129.445Z" fill="white"/>
<path d="M40 129.445H69.3655V137.312H49.4807V148.129H67.0261V155.996H49.4807V173.388H40V129.445Z" fill="white"/>
<path d="M76.9937 129.445H86.4743V173.388H76.9937V129.445Z" fill="white"/>
<path d="M105.768 157.409V173.388H96.4105V129.445H112.478C118.265 129.445 122.698 130.654 125.776 133.071C128.895 135.489 130.455 138.951 130.455 143.458C130.455 146.367 129.757 148.846 128.362 150.894C127.007 152.943 125.058 154.521 122.513 155.627C124.36 158.536 126.186 161.465 127.992 164.415C129.798 167.325 131.604 170.316 133.41 173.388H122.513C119.558 167.98 116.501 162.654 113.34 157.409C113.012 157.409 112.704 157.409 112.417 157.409H105.768ZM105.768 149.973H111.924C114.838 149.973 117.055 149.46 118.573 148.436C120.092 147.371 120.851 145.711 120.851 143.458C120.851 141.204 120.092 139.545 118.573 138.48C117.096 137.414 114.9 136.882 111.986 136.882H105.768V149.973Z" fill="white"/>
</svg>
