<svg width="250" height="250" viewBox="0 0 250 250" fill="none" xmlns="http://www.w3.org/2000/svg">
<rect width="250" height="250" fill="#EB0000"/>
<path d="M40 70.5826V118.579H87.9962V70.5826H40ZM73.4667 104.43C72.596 105.627 71.3444 106.552 69.984 107.097C68.2426 107.75 66.3924 108.076 64.5423 108.022H53.7132V81.0851H63.8348C66.8278 81.0851 69.1133 81.6837 70.7458 82.8809C72.3784 84.0781 73.1946 85.8195 73.1946 88.0506C73.249 89.2478 72.9225 90.3905 72.3239 91.37C71.6709 92.3495 70.8003 93.1114 69.7119 93.6011C71.1812 94.0365 72.4328 94.9072 73.3579 96.1043C74.2286 97.3015 74.6639 98.7708 74.6095 100.294C74.7183 101.764 74.283 103.233 73.4667 104.43ZM66.6101 91.2612C67.372 90.6082 67.8073 89.6831 67.7529 88.6492C67.7529 86.5269 66.2836 85.4385 63.3995 85.4385H59.2638V92.1319H63.3995C64.7599 92.1863 65.8483 91.8598 66.6101 91.2612ZM64.0525 96.4309H59.2093V103.723H63.9981C65.6306 103.723 66.8822 103.396 67.7529 102.798C68.6236 102.199 69.1133 101.22 69.0589 100.131C69.0589 97.628 67.372 96.3764 64.0525 96.4309ZM99.968 70.5826V118.579H147.964V70.5826H99.968ZM133.435 104.43C132.564 105.627 131.312 106.552 129.952 107.097C128.211 107.75 126.36 108.076 124.456 108.022H113.681V81.0851H123.803C126.796 81.0851 129.081 81.6837 130.768 82.8809C132.401 84.0781 133.217 85.8195 133.217 88.0506C133.271 89.2478 132.945 90.3905 132.346 91.37C131.693 92.3495 130.823 93.1114 129.734 93.6011C131.204 94.0365 132.455 94.9072 133.38 96.1043C134.251 97.3015 134.686 98.7708 134.632 100.294C134.686 101.764 134.251 103.233 133.435 104.43ZM126.578 91.2612C127.34 90.6082 127.775 89.6831 127.721 88.6492C127.721 86.5269 126.252 85.4385 123.367 85.4385H119.232V92.1319H123.367C124.728 92.1863 125.816 91.8598 126.578 91.2612ZM124.02 96.4309H119.177V103.723H123.966C125.599 103.723 126.85 103.396 127.721 102.798C128.592 102.199 129.081 101.22 129.027 100.131C129.027 97.628 127.394 96.3764 124.02 96.4309ZM159.936 118.579H207.932V70.5826H159.936V118.579ZM194.382 106.335C193.185 106.988 191.825 107.478 190.519 107.804C188.995 108.185 187.417 108.348 185.893 108.348C183.934 108.403 181.921 108.076 180.07 107.423C178.438 106.825 176.914 105.899 175.663 104.702C174.465 103.451 173.486 101.981 172.942 100.349C172.289 98.4987 171.962 96.5397 171.962 94.5807C171.908 92.6216 172.289 90.717 172.942 88.9212C173.595 87.2887 174.52 85.8195 175.771 84.5679C177.077 83.3163 178.601 82.3912 180.234 81.7926C182.084 81.1396 184.097 80.8131 186.056 80.8131C187.471 80.8131 188.886 80.9763 190.301 81.2484C191.607 81.5205 192.859 82.0102 194.001 82.6088V87.8873C192.967 87.1799 191.825 86.6901 190.627 86.3092C189.376 85.9283 188.07 85.765 186.764 85.765C185.131 85.7106 183.499 86.0915 182.029 86.799C180.723 87.452 179.689 88.5403 179.036 89.7919C178.275 91.2612 177.948 92.8937 178.003 94.5807C177.948 96.2132 178.275 97.9001 179.036 99.3694C179.689 100.675 180.723 101.709 181.975 102.362C183.444 103.07 185.022 103.451 186.655 103.396C189.376 103.396 192.042 102.634 194.382 101.22V106.335Z" fill="white"/>
<path d="M93.7644 171.037H114.715V178.547H84.7311V136.536H113.627V144.046H93.7644V153.188H111.396V160.698H93.7644V171.037Z" fill="white"/>
<path d="M165.867 136.536H175.554C173.921 143.611 172.18 150.685 170.33 157.759C168.48 164.725 166.575 171.636 164.561 178.547H154.984C152.318 169.133 149.814 159.609 147.366 150.141C145.026 159.664 142.522 169.133 139.856 178.547H130.278C128.265 171.636 126.36 164.725 124.51 157.759C122.66 150.739 120.919 143.665 119.286 136.536H129.136C130.115 141.978 131.149 147.42 132.238 152.862C133.326 158.303 134.469 163.636 135.72 168.915C138.332 158.739 140.835 148.563 143.175 138.332H151.991C154.331 148.345 156.78 158.303 159.392 168.262C160.589 163.038 161.732 157.759 162.82 152.535C163.908 147.202 164.888 141.869 165.867 136.536Z" fill="white"/>
<path d="M210 166.194C210 168.969 209.293 171.364 207.932 173.323C206.572 175.282 204.558 176.805 202.001 177.839C199.389 178.873 196.287 179.417 192.641 179.417C190.355 179.417 188.015 179.145 185.784 178.656C183.499 178.166 181.322 177.35 179.309 176.261V168.153C183.335 170.656 187.907 171.962 192.641 171.962C195.307 171.962 197.321 171.527 198.736 170.602C200.042 169.84 200.858 168.371 200.803 166.847C200.803 165.65 200.477 164.67 199.77 164.017C199.008 163.255 198.083 162.711 197.049 162.385C195.797 161.949 194.545 161.569 193.239 161.242C191.172 160.752 189.104 160.154 187.145 159.337C185.567 158.739 184.043 157.868 182.682 156.834C181.485 155.909 180.56 154.712 179.907 153.351C179.254 151.828 178.928 150.141 178.982 148.508C178.982 145.842 179.635 143.556 180.996 141.652C182.465 139.638 184.424 138.115 186.709 137.244C189.158 136.21 192.097 135.666 195.525 135.666C197.756 135.666 199.933 135.938 202.109 136.428C204.123 136.863 206.082 137.57 207.932 138.496V146.495C206.136 145.407 204.123 144.59 202.109 144.046C199.987 143.448 197.756 143.175 195.579 143.175C193.185 143.175 191.335 143.611 190.029 144.427C188.777 145.134 188.015 146.495 188.07 147.964C188.015 148.944 188.342 149.869 188.995 150.576C189.757 151.284 190.682 151.828 191.661 152.154C192.804 152.59 194.165 152.971 195.743 153.351C197.756 153.841 199.606 154.44 201.293 155.038C202.926 155.583 204.449 156.399 205.864 157.378C207.17 158.303 208.204 159.555 208.912 160.97C209.619 162.33 210 164.072 210 166.194Z" fill="white"/>
<path d="M76.4053 136.536V178.547H67.2631C64.2157 173.649 61.114 168.752 58.0122 163.854C54.9648 159.065 51.863 154.277 48.7612 149.542V178.547H40V136.536H49.1421C52.2983 141.271 55.4001 146.005 58.5019 150.794C61.6037 155.583 64.6511 160.426 67.6985 165.269V136.536H76.4053Z" fill="white"/>
</svg>
