<svg width="250" height="250" viewBox="0 0 250 250" fill="none" xmlns="http://www.w3.org/2000/svg">
<rect width="250" height="250" fill="#143764"/>
<path d="M67.6915 116.668L64.5887 114.877L56.9485 119.29V110.466L53.8458 108.674L50.743 110.466V119.29L43.1028 114.877L40 116.668V120.251L47.6437 124.662L40 129.076V132.656L43.1028 134.447L50.743 130.033V138.861L53.8458 140.649L56.9485 138.861V130.033L64.5887 134.447L67.6915 132.656V129.076L60.0479 124.662L67.6915 120.251V116.668Z" fill="#FFA014"/>
<path d="M72.5104 108.674H80.1232V119.96H80.2124C81.781 117.811 83.9742 116.737 86.8401 116.737C93.4232 116.737 96.6495 122.469 96.6495 128.516C96.6495 135.055 93.5605 141.326 86.2601 141.326C83.5726 141.326 81.3348 140.162 79.8555 137.965H79.7662V140.653H72.5104V108.674ZM79.8555 128.784C79.8555 132.858 81.019 135.501 84.4684 135.501C87.9178 135.501 89.0368 131.962 89.0368 128.784C89.0368 125.829 87.8732 122.558 84.513 122.558C82.4537 122.558 79.8555 123.993 79.8555 128.784ZM106.37 114.496H98.7569V108.674H106.37V114.496ZM98.7569 117.406H106.37V140.649H98.7569V117.406ZM109.503 108.674H117.116V119.96H117.205C118.774 117.811 120.967 116.737 123.833 116.737C130.416 116.737 133.642 122.469 133.642 128.516C133.642 135.055 130.553 141.326 123.253 141.326C120.566 141.326 118.328 140.162 116.848 137.965H116.759V140.653H109.503V108.674ZM116.848 128.784C116.848 132.858 118.012 135.501 121.461 135.501C124.911 135.501 126.03 131.962 126.03 128.784C126.03 125.829 124.866 122.558 121.506 122.558C119.447 122.558 116.848 123.993 116.848 128.784ZM142.422 130.888C142.556 134.066 144.392 136.174 147.619 136.174C149.455 136.174 151.247 135.323 151.964 133.62H159.086C157.696 138.995 152.726 141.322 147.533 141.322C139.965 141.322 134.813 136.754 134.813 128.963C134.813 121.841 140.5 116.737 147.351 116.737C155.681 116.737 159.848 123.008 159.487 130.888H142.426H142.422ZM151.871 126.632C151.737 124.034 149.901 121.885 147.347 121.885C144.66 121.885 142.868 123.811 142.422 126.632H151.871ZM161.32 108.674H168.933V140.649H161.32V108.674Z" fill="white"/>
<path d="M178.856 140.656H185.061V126.454H190.158L195.969 140.653L195.972 140.649H201.663V140.636L201.666 140.639L210 120.248L203.297 120.251L198.811 131.214L194.325 120.251L190.158 120.248H173.759V126.454H178.856V140.656Z" fill="#FFA014"/>
</svg>
