<svg width="250" height="250" viewBox="0 0 250 250" fill="none" xmlns="http://www.w3.org/2000/svg">
<rect width="250" height="250" fill="black"/>
<path d="M40 109.338H52.4631C54.8371 109.338 56.6175 109.931 57.9364 110.921C59.3871 112.107 60.1784 113.822 60.1784 115.932C60.1784 118.372 59.1893 119.889 57.211 120.812V120.944C59.8487 121.801 61.3654 124.175 61.3654 127.011C61.3654 129.714 60.3103 131.824 58.5958 133.143C57.1451 134.198 55.2987 134.66 52.7929 134.66H40V109.338ZM51.2102 119.229C52.5291 119.229 53.5182 118.504 53.5182 116.987C53.5182 115.536 52.5291 114.811 51.1443 114.811H46.858V119.163H51.2102V119.229ZM51.8037 129.055C53.3204 129.055 54.4414 128.132 54.4414 126.483C54.4414 124.703 53.2545 123.911 51.8037 123.911H46.924V129.121H51.8037V129.055Z" fill="white"/>
<path d="M62.4865 109.338H69.0148V134.726H62.4865V109.338Z" fill="white"/>
<path d="M70.3336 125.692C70.3336 119.955 74.0263 116.13 79.7633 116.13C85.5004 116.13 89.1272 120.02 89.1272 125.692C89.1272 131.429 85.5004 135.253 79.7633 135.253C74.0263 135.253 70.3336 131.429 70.3336 125.692ZM82.5989 125.692C82.5989 122.526 81.6097 120.548 79.6315 120.548C77.6532 120.548 76.73 122.526 76.73 125.692C76.73 128.857 77.6532 130.901 79.6315 130.901C81.6097 130.835 82.5989 128.857 82.5989 125.692Z" fill="white"/>
<path d="M89.8526 125.692C89.8526 119.955 93.5454 116.13 99.2824 116.13C105.019 116.13 108.58 119.955 108.58 125.692C108.58 131.429 104.953 135.253 99.2164 135.253C93.5454 135.253 89.8526 131.429 89.8526 125.692ZM102.118 125.692C102.118 122.526 101.129 120.548 99.1505 120.548C97.1722 120.548 96.249 122.526 96.249 125.692C96.249 128.857 97.1722 130.901 99.1505 130.901C101.129 130.835 102.118 128.857 102.118 125.692Z" fill="white"/>
<path d="M109.899 116.592H115.966V119.295H116.098C117.285 117.185 118.933 116.064 121.571 116.064C123.879 116.064 125.594 117.185 126.451 119.163H126.583C128.033 116.789 129.946 116.064 132.188 116.064C136.408 116.064 138.189 119.163 138.189 123.318V134.66H131.858V124.439C131.858 122.592 131.265 121.405 129.682 121.405C128.099 121.405 127.308 122.856 127.308 124.834V134.66H120.978V124.439C120.978 122.592 120.384 121.405 118.801 121.405C117.219 121.405 116.427 122.856 116.427 124.834V134.66H109.899V116.592Z" fill="white"/>
<path d="M146.168 132.286H146.102V134.66H140.035V109.338H146.365V118.438H146.497C147.684 116.855 149.333 115.998 151.641 115.998C156.191 115.998 158.829 120.087 158.829 125.56C158.829 131.692 155.993 135.253 151.245 135.253C149.267 135.253 147.223 134.33 146.168 132.286ZM152.3 125.494C152.3 122.592 151.245 120.68 149.333 120.68C147.355 120.68 146.168 122.592 146.168 125.494C146.168 128.395 147.42 130.308 149.333 130.308C151.245 130.308 152.3 128.461 152.3 125.494Z" fill="white"/>
<path d="M159.554 125.626C159.554 119.955 163.313 116.064 168.72 116.064C171.424 116.064 173.468 116.921 175.05 118.438C177.161 120.482 178.084 123.647 178.018 127.34H165.884C166.148 129.582 167.203 130.769 169.116 130.769C170.237 130.769 171.226 130.242 171.621 129.055H177.754C176.699 133.209 173.468 135.253 168.918 135.253C163.313 135.187 159.554 131.363 159.554 125.626ZM165.884 123.713H171.687C171.556 121.537 170.369 120.416 168.852 120.416C167.071 120.35 166.082 121.603 165.884 123.713Z" fill="white"/>
<path d="M185.206 119.691H185.338C186.656 117.185 188.371 116.196 190.547 116.196C191.075 116.196 191.404 116.262 191.602 116.394V121.933H191.47C187.711 121.273 185.535 123.054 185.535 127.142V134.726H179.139V116.591H185.206V119.691Z" fill="white"/>
<path d="M192.261 134.726H198.394C198.658 135.517 199.449 136.242 200.966 136.242C203.01 136.242 203.735 134.99 203.735 133.077V131.758H203.604C202.614 132.945 201.23 133.803 199.251 133.803C195.361 133.803 191.932 130.901 191.932 125.23C191.932 120.021 194.701 115.998 198.922 115.998C201.362 115.998 202.812 116.987 203.801 118.504H203.933V116.526H210V132.22C210 135.121 209.011 137.363 207.494 138.682C205.912 140.067 203.67 140.661 201.098 140.661C196.218 140.727 192.855 138.748 192.261 134.726ZM203.999 124.966C203.999 122.724 202.944 120.878 201.098 120.878C199.317 120.878 198.196 122.46 198.196 124.966C198.196 127.406 199.317 129.121 201.098 129.121C202.878 129.121 203.999 127.34 203.999 124.966Z" fill="white"/>
</svg>
