<svg width="250" height="250" viewBox="0 0 250 250" fill="none" xmlns="http://www.w3.org/2000/svg">
<rect width="250" height="250" fill="#0069FF"/>
<path d="M210 192.627V193.249H184.588L135.632 123.859V123.237H149.634C166.852 123.237 176.913 112.45 176.913 98.6546C176.913 84.8596 166.852 75.006 149.634 75.006H137.291L121.94 57.3733V56.751H150.567C180.439 56.751 198.694 72.1018 198.694 97.6174C198.694 117.843 186.974 131.119 168.2 134.853L210 192.627ZM100.885 119.503C115.821 115.872 123.6 104.982 123.6 90.9792C123.6 70.546 107.315 56.9584 77.2361 56.9584H40V193.249H80.8664C113.642 193.249 131.794 176.757 131.794 153.005C131.69 135.061 121.318 122.822 100.885 119.503ZM80.0366 174.994H60.9518V75.1098H76.3026C93.5205 75.1098 101.714 83.2001 101.714 94.8169C101.714 107.056 92.587 115.976 74.4356 116.91V126.971C97.8767 127.904 109.805 135.061 109.805 150.93C109.805 166.8 98.8103 174.994 79.9329 174.994H80.0366Z" fill="white"/>
</svg>
