<?xml version="1.0" encoding="UTF-8"?>
<svg xmlns="http://www.w3.org/2000/svg" version="1.1" viewBox="0 0 1024 1024">
  <defs>
    <style>
      .cls-1 {
        fill: #1c1c1c;
      }

      .cls-2 {
        fill: #fff;
      }

      .cls-3 {
        opacity: .5;
      }

      .cls-4 {
        fill: #18b400;
      }

      .cls-5 {
        fill: #008f1a;
      }
    </style>
  </defs>
  <!-- Generator: Adobe Illustrator 28.7.1, SVG Export Plug-In . SVG Version: 1.2.0 Build 142)  -->
  <g>
    <g id="Vrstva_1">
      <rect class="cls-1" width="1024" height="1024"/>
      <g>
        <polygon points="921 502.7 921 652.8 794.2 652.8 778.8 640.2 778.8 516.4 794.2 502.7 921 502.7"/>
        <g>
          <rect id="rect1082" x="103" y="352.5" width="610.6" height="150.2"/>
          <path id="path1084" class="cls-2" d="M199.8,467.5c-.1,1-.6,1.8-.6,1.8,0,0-.5.5-1.4.7-12.3,5-26.1,3.3-26.1,3.3-22.3-2.4-36.4-15.8-41-33.1-6.7-25.9,6.6-44.4,9.8-48.3,7.9-9.2,20.1-15.8,32-17.3,15.3-2.2,26.6,1.4,31.3,2.9,0,0,5.2,1.7,9,4.2,1.9,1.3,2.2,1.8,2.2,1.8,0,0,.1.2-.4,2.3l-3.6,18.6c-.1.8-.6,1.2-.6,1.2,0,0-.3,0-2-1-11.6-8.1-25.1-7.1-25.1-7.1-10.3.6-22.2,6-25.9,19.4-3.2,11.9.2,21.9,7.3,27.9,4.9,4.1,12.5,6.3,20.5,5.9,8.8-.6,15.7-4.1,15.2-3.8,0,0,.4,0,.8-.2,1.8-.9,2.2-.8,2.2-.8,0,0,.4.4.1,1.6l-3.6,20.3h0Z"/>
          <path id="path1086" class="cls-2" d="M265.6,404.4s-.1,0-.3.2l-12.8,28.7c-.3.4-.2.6-.2.6,0,0,.2.1.8.1h18.9c.1.1.2,0,.2,0,0,0,.1-.1,0-.5l-6.6-29c0-.2,0-.2,0-.2M304.8,470.7h-22.9c-.5,0-.9-.1-.9-.1,0,0-.1-.1-.2-1l-3.6-14.6c0-.4-.3-.5-.3-.5h-32.6c-.7,0-1,.5-1,.5,0,0-.5.4-.9,1.3l-6.4,13.5c-.3.5-.4.7-.4.7,0,0-.4.2-.8.2h-26.7c-.7,0-.9-.2-.9-.2,0,0-.1-.4.1-.9l46.2-91.3c.3-.5.6-.6.6-.6h30.4c.5,0,.9.4.9.4,0,0,.1.1.3.5l19.8,91.6c0,.4-.3.5-.3.5,0,0-.1.1-.4.1"/>
          <path id="path1088" class="cls-2" d="M407.7,471h-24.3s-.1-.1-.3-.2l-32.7-57.1c-.3-.3-.4-.3-.4-.3,0,0-.3,0-.3.4l-8.1,56.1c-.1.7-.3.8-.3.8,0,0-.3.1-.7.1h-23.4c-.4,0-.6-.2-.6-.2,0,0-.5-.5-.4-1l12.9-90.7c.1-.5.4-.6.4-.6,0,0,.4-.4.8-.4h26.1c.4,0,.6.3.6.3,0,0,.3.1.4.5l29.5,50.8c.5,1.1.9.9.9.9,0,0,.4,0,.7-1.1l7.5-50.6c0-.4.3-.5.3-.5,0,0,.1-.3.5-.3l24.6.3c.5,0,.6.1.6.1,0,0,.1.1.1.4l-13.2,91.5c-.1.5-.4.9-.4.9,0,0-.1.1-.8.1"/>
          <path id="path1090" class="cls-2" d="M479.2,404.1s0,0-.2.5l-12.9,28.6c-.3.9-.2,1-.2,1,0,0,.4.3.7.3h19c0,0,.2,0,.2,0,0,0,.1-.1,0-.5l-6.5-29.4c0-.4-.3-.4-.3-.4M517.9,471.1h-23.6c-.5.3-.9-.3-.9-.3,0,0,0,0-.3-.9l-3.1-14.3c-.2-.8-.5-1.2-.5-1.2,0,0-.6-.4-1.4-.4h-30.6c-.6,0-1,.4-1,.4,0,0-.5.5-.8,1.3l-6.9,14.5c-.1.4-.4.5-.4.5,0,0-.5.1-.8.1h-26.5c-.6.1-.9-.2-.9-.2,0,0-.1-.2.3-.8l46.7-91.7c.3-.1.5-.5.5-.5,0,0,.3-.1,1-.1h28.9c.7,0,1,.4,1,.4,0,0,.1.1.2.5l19.4,92.1c0,.2-.1.4-.1.4,0,0,0,.1-.4.1"/>
          <path id="path1092" class="cls-2" d="M585.5,469.7c-.2.8-.3,1-.3,1,0,0-.1.2-.8.2h-53c-1.6,0-1.9-.4-1.9-.4,0,0-.3-.5,0-1.7l13.1-89.8c0-1.1.4-1.5.4-1.5h25.5c.7,0,.9.1.9.1,0,0,.1.4,0,.9l-9.9,70.2c-.1.8.3.9.3.9,0,0,.3.1,1.3.1h26.2c.5,0,.8.2.8.2,0,0,.1.1.1.8l-2.6,18.9h0Z"/>
          <path id="path1094" class="cls-2" d="M687.5,434.2s0,.3-.5.3h-32.9c-.5,0-.8.2-.8.2,0,0-.3.1-.3.8v34.6c0,.5-.3.6-.3.6,0,0-.2.2-.6.2h-26.1c-.4,0-.6-.2-.6-.2,0,0-.1-.1-.1-.8v-34.5c0-.4-.4-.7-.4-.7,0,0-.2-.2-.5-.2h-33.7c-.6,0-.8,0-.8,0,0,0-.3-.3-.3-1v-25.3c0-.3.3-.6.3-.6,0,0,.1,0,.4,0h34.5c.3,0,.3-.1.3-.1,0,0,.3-.1.3-.4v-30.3c0-.3.1-.6.1-.6,0,0,.2-.1,1-.1h25.6c.5,0,.7.1.7.1,0,0,.3.3.3.8v30.3h33.4c.9,0,1.1.1,1.1.1,0,0,.4.1.4.9v25.6c0,.3-.4.6-.4.6"/>
        </g>
        <g>
          <rect id="rect1068" class="cls-4" x="316.6" y="502.7" width="477.6" height="150.2"/>
          <g id="g1080" class="cls-3">
            <g id="g1078">
              <polygon id="rect1076" class="cls-5" points="288 521.9 809.9 477.7 823.4 627.3 301.5 671.5 288 521.9"/>
            </g>
          </g>
          <g>
            <path id="path1096" class="cls-2" d="M687.8,615.1h-25.2l-20.4-33.2-4.1,33.2h-21.7l10.5-83.9h27.8c20.3,0,30.2,8.4,30.2,25.5s-2.3,15-7.5,19.8c-2.7,2.6-5,3.8-10.6,6l21,32.6ZM643.7,568.3h3.9c9.1,0,15.3-4.2,15.3-10.7s-4.4-8.5-12.4-8.5h-4.1l-2.7,19.1h0Z"/>
            <polygon id="polygon1098" class="cls-2" points="754.3 549.6 735.8 549.6 735.8 615.1 713.6 615.1 713.6 549.6 695.6 549.6 695.6 531.1 754.3 531.1 754.3 549.6"/>
            <path id="path1100" class="cls-2" d="M414.2,553c-4.7-3.9-9.4-5.7-14.3-5.7s-9.5,3.1-9.5,7.3.7,3,2,4.1c1.5,1.3,3.5,2.4,5.6,3,1.2.5,3.8,1.1,7.6,2.2,7.8,2.4,11.7,4.5,15.3,8.4,3.8,4,5.4,8.5,5.4,15s-1.4,11.6-3.2,15.2c-4.7,9-16.1,14.8-29.8,14.8s-12.3-1.2-19.2-4c-4.5-1.8-6.2-2.8-10.3-5.6l9.4-17.4c6.8,5.8,13,8.5,19.4,8.5s10.6-3.3,10.6-8.3-.7-3.4-1.8-4.5c-2.3-2.2-4.3-3.1-11.4-5.1-7-2-9.7-3-12.9-4.7-6.7-3.4-9.9-9.6-9.9-18.7,0-16.9,11.6-28.3,28.8-28.3s18.4,2.4,26.9,6.8l-8.8,17h0Z"/>
            <path id="path1102" class="cls-2" d="M463.1,615.1h-21.7v-83.9h34.5c9.8,0,15.3,1.9,20.8,7.1,5.5,5.1,8.1,12.1,8.1,20.8,0,18.3-9.9,28.2-28.1,28.2h-13.6v27.9h0ZM470.2,569.6c8.2,0,11.9-3.2,11.9-10.4s-3.9-10.5-11.8-10.5h-7.2v20.9h7.1,0Z"/>
            <path id="path1104" class="cls-2" d="M560.1,528.2c-27.2,0-47.5,19.6-47.5,45.7s20.9,44.3,48,44.3,48-19.4,48-45.1-20.6-45-48.5-45M560.5,596.8c-14.1,0-25.3-11.1-25.3-24.9s11.5-24.3,25.3-24.3,25.3,11,25.3,24.5-11.3,24.6-25.3,24.6"/>
          </g>
        </g>
        <polygon id="_7" class="cls-2" points="829.6 549.6 865.1 549.6 826.3 615.1 850.6 615.1 899.4 531.1 829.6 531.1 829.6 549.6"/>
      </g>
    </g>
  </g>
</svg>