<?xml version="1.0" encoding="UTF-8"?>
<svg xmlns="http://www.w3.org/2000/svg" version="1.1" viewBox="0 0 1024 1024">
  <defs>
    <style>
      .cls-1 {
        fill: #1c1c1c;
      }

      .cls-2 {
        fill: #fff;
      }

      .cls-3 {
        opacity: .5;
      }

      .cls-4 {
        fill: #18b400;
      }

      .cls-5 {
        fill: #008f1a;
      }
    </style>
  </defs>
  <!-- Generator: Adobe Illustrator 28.7.1, SVG Export Plug-In . SVG Version: 1.2.0 Build 142)  -->
  <g>
    <g id="Vrstva_1">
      <rect class="cls-1" width="1024" height="1024"/>
      <g>
        <g>
          <rect id="rect1082" x="103" y="330.9" width="693.4" height="170.5"/>
          <path id="path1084" class="cls-2" d="M212.9,461.5c-.1,1.2-.7,2-.7,2,0,0-.6.6-1.6.8-14,5.6-29.6,3.8-29.6,3.8-25.3-2.7-41.4-18-46.5-37.6-7.6-29.4,7.5-50.4,11.1-54.9,8.9-10.5,22.8-17.9,36.4-19.7,17.4-2.5,30.2,1.6,35.5,3.3,0,0,5.9,1.9,10.3,4.8,2.2,1.4,2.5,2,2.5,2,0,0,.1.3-.4,2.6l-4.1,21.1c-.1.9-.7,1.3-.7,1.3,0,0-.3.1-2.3-1.2-13.2-9.2-28.5-8-28.5-8-11.7.7-25.3,6.8-29.4,22-3.6,13.5.2,24.9,8.3,31.6,5.6,4.7,14.2,7.2,23.2,6.7,10-.7,17.8-4.6,17.3-4.3,0,0,.4-.1.9-.3,2-1,2.5-.9,2.5-.9,0,0,.4.4.1,1.8l-4.1,23.1h0Z"/>
          <path id="path1086" class="cls-2" d="M287.7,389.8s-.2,0-.3.3l-14.5,32.6c-.3.5-.2.7-.2.7,0,0,.2.1.9.1l21.5.2c.2,0,.3-.2.3-.2,0,0,.2-.1,0-.6l-7.4-33c0-.3-.1-.3-.1-.3M332.1,465.1h-26c-.6.1-1-.1-1-.1,0,0-.2-.1-.3-1.2l-4.1-16.5c0-.4-.3-.6-.3-.6h-37.1c-.8,0-1.2.6-1.2.6,0,0-.6.4-1,1.4l-7.3,15.4c-.3.5-.4.7-.4.7,0,0-.4.3-.9.3h-30.3c-.8.1-1-.3-1-.3,0,0-.1-.5.1-1l52.4-103.7c.3-.6.7-.7.7-.7h34.5c.5,0,1,.4,1,.4,0,0,.2.1.3.6l22.5,104c0,.5-.3.6-.3.6,0,0-.1.1-.4.1"/>
          <path id="path1088" class="cls-2" d="M449,465.4h-27.6s-.2-.2-.3-.3l-37.1-64.8c-.3-.3-.4-.3-.4-.3,0,0-.3,0-.3.4l-9.2,63.7c-.2.7-.3.9-.3.9,0,0-.3.1-.7.1h-26.6c-.4,0-.7-.3-.7-.3,0,0-.6-.6-.5-1.2l14.6-103c.1-.6.4-.7.4-.7,0,0,.4-.4.9-.4h29.7c.4,0,.7.3.7.3,0,0,.3.1.4.6l33.5,57.7c.6,1.2,1,1,1,1,0,0,.5,0,.7-1.3l8.5-57.5c0-.5.3-.6.3-.6,0,0,.1-.3.6-.3l27.9.3c.6,0,.7.1.7.1,0,0,.1.1.1.5l-15,103.9c-.1.6-.4,1-.4,1,0,0-.2.2-.9.2"/>
          <path id="path1090" class="cls-2" d="M530.2,389.4s-.1,0-.3.5l-14.6,32.5c-.3,1-.2,1.1-.2,1.1,0,0,.5.3.8.3h21.6c0-.1.3-.1.3-.1,0,0,.1-.2,0-.6l-7.3-33.4c-.1-.4-.3-.4-.3-.4M574.2,465.6h-26.8c-.6.3-1-.3-1-.3,0,0-.1-.1-.3-1l-3.5-16.2c-.3-.9-.6-1.3-.6-1.3,0,0-.7-.4-1.6-.4h-34.8c-.7,0-1.2.4-1.2.4,0,0-.6.6-.9,1.4l-7.9,16.5c-.2.5-.4.6-.4.6,0,0-.6.2-.9.2h-30.1c-.7.1-1-.3-1-.3,0,0-.1-.3.3-.9l53-104.2c.3-.1.6-.6.6-.6,0,0,.3-.1,1.2-.1h32.9c.7,0,1.2.4,1.2.4,0,0,.1.1.3.6l22.1,104.6c0,.2-.1.4-.1.4,0,0,0,.1-.4.1"/>
          <path id="path1092" class="cls-2" d="M650.9,464c-.2.9-.3,1.1-.3,1.1,0,0-.1.3-.9.3h-60.2c-1.8,0-2.2-.4-2.2-.4,0,0-.3-.6-.1-1.9l14.9-102c.1-1.3.4-1.7.4-1.7h28.9c.7,0,1,.1,1,.1,0,0,.1.4,0,1l-11.3,79.8c-.1.9.3,1,.3,1,0,0,.3.2,1.4.2h29.8c.6,0,.9.3.9.3,0,0,.2.1.2.9l-2.9,21.4h0Z"/>
          <path id="path1094" class="cls-2" d="M766.8,423.6s-.1.3-.6.3h-37.4c-.6,0-.9.3-.9.3,0,0-.4.1-.4.9v39.2c0,.6-.3.7-.3.7,0,0-.2.2-.7.2h-29.6c-.4,0-.7-.2-.7-.2,0,0-.1-.1-.1-.9v-39.2c0-.4-.4-.7-.4-.7,0,0-.2-.3-.6-.3h-38.3c-.7,0-.9-.1-.9-.1,0,0-.3-.3-.3-1.2v-28.7c0-.3.3-.7.3-.7,0,0,.1-.1.4-.1h39.1c.3,0,.3-.1.3-.1,0,0,.3-.2.3-.4v-34.4c0-.4.1-.7.1-.7,0,0,.3-.1,1.2-.1h29.1c.6,0,.7.1.7.1,0,0,.3.3.3.9v34.5h38c1,0,1.3.2,1.3.2,0,0,.5.1.5,1v29c0,.3-.5.7-.5.7"/>
        </g>
        <g>
          <rect id="rect1068" class="cls-4" x="345.6" y="501.4" width="542.3" height="170.5"/>
          <g id="g1080" class="cls-3">
            <g id="g1078">
              <polygon id="rect1076" class="cls-5" points="313 523.3 905.7 473 921 642.9 328.4 693.1 313 523.3"/>
            </g>
          </g>
          <g>
            <path id="path1096" class="cls-2" d="M767.1,629h-28.6l-23.2-37.7-4.7,37.7h-24.6l11.9-95.3h31.6c23,0,34.3,9.5,34.3,29s-2.6,17-8.6,22.5c-3.1,2.9-5.7,4.3-12,6.8l23.9,37ZM717,575.9h4.4c10.3,0,17.4-4.8,17.4-12.1s-5-9.6-14.1-9.6h-4.6l-3.1,21.7h0Z"/>
            <polygon id="polygon1098" class="cls-2" points="842.6 554.7 821.6 554.7 821.6 629 796.4 629 796.4 554.7 775.9 554.7 775.9 533.7 842.6 533.7 842.6 554.7"/>
            <path id="path1100" class="cls-2" d="M456.4,558.5c-5.4-4.5-10.6-6.5-16.3-6.5s-10.8,3.6-10.8,8.3.8,3.5,2.3,4.7c1.7,1.5,4,2.7,6.4,3.4,1.4.5,4.3,1.3,8.6,2.5,8.8,2.7,13.3,5.1,17.4,9.5,4.3,4.6,6.1,9.7,6.1,17s-1.6,13.2-3.6,17.3c-5.4,10.3-18.3,16.8-33.8,16.8s-14-1.4-21.8-4.6c-5.1-2-7.1-3.2-11.6-6.4l10.6-19.8c7.7,6.5,14.7,9.7,22.1,9.7s12.1-3.7,12.1-9.4-.8-3.8-2-5.1c-2.6-2.5-4.9-3.5-12.9-5.8-8-2.3-11-3.4-14.6-5.4-7.6-3.8-11.3-10.9-11.3-21.2,0-19.2,13.2-32.2,32.7-32.2s20.9,2.7,30.5,7.7l-10,19.3h0Z"/>
            <path id="path1102" class="cls-2" d="M511.9,629h-24.7v-95.3h39.2c11.1,0,17.4,2.1,23.6,8,6.2,5.8,9.3,13.7,9.3,23.6,0,20.8-11.2,32.1-31.9,32.1h-15.4v31.6h0ZM520,577.4c9.3,0,13.5-3.7,13.5-11.8s-4.4-11.9-13.4-11.9h-8.2v23.8h8.1,0Z"/>
            <path id="path1104" class="cls-2" d="M622,530.4c-30.9,0-53.9,22.2-53.9,51.9s23.8,50.3,54.4,50.3,54.5-22,54.5-51.2-23.4-51.1-55-51.1M622.5,608.3c-16,0-28.8-12.6-28.8-28.3s13.1-27.6,28.8-27.6,28.8,12.4,28.8,27.8-12.8,28-28.8,28"/>
          </g>
        </g>
      </g>
    </g>
  </g>
</svg>