<svg width="250" height="250" viewBox="0 0 250 250" fill="none" xmlns="http://www.w3.org/2000/svg">
<rect width="250" height="250" fill="#F81D28"/>
<path d="M187.333 43.2201C183.455 41.7565 178.675 42.2933 176 45.4868L121.6 111.22C119.192 114.147 118.862 117.961 120.467 121.42C122.072 124.88 125.654 127.087 129.533 127.087H173.733V138.42C173.733 143.875 178.449 148.62 183.933 148.62C189.417 148.62 194.133 143.875 194.133 138.42V127.087H199.8C205.284 127.087 210 122.343 210 116.887C210 111.432 205.284 107.82 199.8 107.82H194.133V52.2868C194.267 48.1619 191.346 44.6839 187.333 43.2201ZM173.733 107.82H149.933L173.733 79.4868V107.82Z" fill="white"/>
<path d="M43.4 130.487C40.2289 133.135 39.68 136.846 41.1333 140.687C42.5867 144.527 46.1042 147.487 50.2 147.487H108C113.417 147.487 118.2 142.717 118.2 137.287C118.2 131.857 113.417 127.087 108 127.087L76.2667 128.22C86.0442 119.744 96.3669 110.394 100.067 106.687C112.222 94.1051 113.667 82.7671 113.667 74.9534C113.667 70.0531 111.888 62.3088 106.867 55.6867C102.639 50.1244 94.5412 43.7497 80.8 43.2201C53.4495 42.1603 44.9293 62.8254 44.5333 63.6201C44.005 64.8117 43.4 65.696 43.4 67.0201C43.4 72.45 48.1827 77.2201 53.6 77.2201C57.6958 77.2201 61.081 75.1291 62.6667 71.5534C63.7237 69.6992 68.6442 62.0892 80.8 62.4867C94.1449 63.0163 94.4 74.821 94.4 74.9534C94.4 79.3235 94.1295 85.2733 86.4667 93.0867C80.7849 98.9138 53.3096 122.011 43.4 130.487Z" fill="white"/>
<path d="M196.4 158.82H52.4667C45.7119 158.82 40 164.414 40 171.287V195.087C40 201.898 45.6508 207.553 52.4667 207.553H196.4C203.154 207.553 208.867 201.959 208.867 195.087V171.287C208.867 164.476 203.216 158.82 196.4 158.82Z" fill="white"/>
<path d="M163.533 196.22L162.4 191.687H153.333L152.2 196.22H145.4L152.2 174.687C153.116 171.554 155.299 170.154 157.867 170.154C160.433 170.154 162.617 171.554 163.533 174.687L170.333 196.22H163.533Z" fill="#F81D28"/>
<path d="M132.933 196.22L129.533 191.687C128.689 189.975 128.305 189.42 126.133 189.42H125V196.22H118.2V171.287H128.4C134.19 171.287 138.6 173.721 138.6 179.22C138.6 182.521 136.962 185.103 134.067 186.02C135.273 186.815 136.381 188.293 137.467 190.554L139.733 196.22H132.933V196.22Z" fill="#F81D28"/>
<path d="M98.9333 196.22C106.131 196.22 111.4 190.952 111.4 183.754C111.4 176.555 106.131 170.154 98.9333 170.154C91.7352 170.154 85.3333 176.555 85.3333 183.754C85.3333 190.952 91.7352 196.22 98.9333 196.22Z" fill="#F81D28"/>
<path d="M128.4 176.954H125V182.62H128.4C130.351 182.62 131.8 181.026 131.8 179.22C131.8 177.352 130.233 176.954 128.4 176.954Z" fill="white"/>
<path d="M98.9333 190.554C102.376 190.554 104.6 187.509 104.6 183.754C104.6 179.998 102.376 176.954 98.9333 176.954C95.4908 176.954 92.1333 179.998 92.1333 183.754C92.1333 187.509 95.4908 190.554 98.9333 190.554Z" fill="white"/>
<path d="M159 176.954C158.869 176.954 157.932 176.709 157.867 176.954L155.6 186.02H161.267L159 176.954C158.936 176.709 159.13 176.954 159 176.954Z" fill="white"/>
<path d="M78.5333 196.22H71.7333V187.154H61.5333V196.22H54.7333V171.287H61.5333V180.354H71.7333V171.287H78.5333V196.22Z" fill="#F81D28"/>
<path d="M186.2 196.22C181.411 196.22 177.742 194.234 176 190.554L181.667 188.287C182.351 189.821 183.836 189.42 186.2 189.42C188.066 189.42 189.6 189.452 189.6 188.287C189.6 186.815 188.501 186.327 186.2 186.02C182.407 185.468 176 184.035 176 178.087C176 173.487 180.602 170.154 186.2 170.154C190.615 170.154 194.658 172.14 196.4 175.82L190.733 178.087C190.049 176.86 188.563 176.954 186.2 176.954C184.521 176.954 182.8 177.044 182.8 178.087C182.8 179.497 184.908 179.985 187.333 180.354C191.065 180.905 196.4 182.277 196.4 188.287C196.4 192.887 191.797 196.22 186.2 196.22Z" fill="#F81D28"/>
</svg>
