<?xml version="1.0" encoding="utf-8"?>
<!-- Generator: Adobe Illustrator 28.0.0, SVG Export Plug-In . SVG Version: 6.00 Build 0)  -->
<svg version="1.1" id="Vrstva_1" xmlns="http://www.w3.org/2000/svg" xmlns:xlink="http://www.w3.org/1999/xlink" x="0px" y="0px"
	 viewBox="0 0 1024 1024" style="enable-background:new 0 0 1024 1024;" xml:space="preserve">
<style type="text/css">
	.st0{fill:#1C1C1C;}
	.st1{fill:#9C191A;}
	.st2{fill:#E6232D;}
	.st3{fill:#D2212F;}
	.st4{fill:#151922;}
	.st5{fill:#FFFFFF;}
</style>
<rect y="0" class="st0" width="1024" height="1024"/>
<g>
	<g transform="matrix(1.0028 0 0 1.0119 1.7137e-6 -42.634)">
		<g transform="matrix(23.124 0 0 -23.124 366.47 168.83)">
			<path class="st1" d="M7.6-15.8H-8.3v-7.5h1.8L-7-17L7.6-15.8z"/>
		</g>
		<g transform="matrix(23.124 0 0 -23.124 569.61 295.52)">
			<path class="st1" d="M13.5-17.7v1l-12-1H13.5z"/>
		</g>
		<g transform="matrix(23.124 0 0 -23.124 135.92 316.18)">
			<path class="st2" d="M3.6-18.2l15.6,1.3H3.5L3.6-18.2z"/>
		</g>
		<g transform="matrix(23.124 0 0 -23.124 588.97 149.36)">
			<path class="st2" d="M13.9-15.3l-14.7-1.2h13.4v-6.6l2,0.2L13.9-15.3z"/>
		</g>
		<g transform="matrix(23.124 0 0 -23.124 366.47 168.83)">
			<path class="st3" d="M8.9-15.6l-15.9-1.3l0.6-6.4H9.2l13,1v6.6L8.9-15.6z"/>
		</g>
		<path class="st4" d="M804.5,360H93.8v173.4h710.7V360z"/>
		<g transform="matrix(23.124 0 0 -23.124 484.67 110.96)">
			<path class="st5" d="M-12-16.5C-12-16.6-12.1-16.6-12-16.5c0-0.1-0.1-0.1-0.1-0.1c-0.6-0.2-1.3-0.2-1.3-0.2
				c-1.1,0.1-1.8,0.8-2.1,1.7c-0.3,1.3,0.3,2.2,0.5,2.4c0.4,0.5,1,0.8,1.6,0.9c0.8,0.1,1.3-0.1,1.6-0.1c0,0,0.3-0.1,0.5-0.2
				c0.1-0.1,0.1-0.1,0.1-0.1s0,0,0-0.1l-0.2-0.9c0,0,0-0.1,0-0.1s0,0-0.1,0.1c-0.6,0.4-1.3,0.4-1.3,0.4c-0.5,0-1.1-0.3-1.3-1
				c-0.2-0.6,0-1.1,0.4-1.4c0.2-0.2,0.6-0.3,1-0.3c0.4,0,0.8,0.2,0.8,0.2l0,0c0.1,0,0.1,0,0.1,0s0,0,0-0.1L-12-16.5z"/>
			<path class="st5" d="M-8.7-13.4L-8.7-13.4l-0.7-1.4l0,0c0,0,0,0,0,0l1,0l0,0v0L-8.7-13.4L-8.7-13.4z M-6.7-16.7l-1.2,0
				c0,0,0,0,0,0s0,0,0,0.1l-0.2,0.7l0,0h-1.6c0,0-0.1,0-0.1,0s0,0,0-0.1l-0.3-0.7c0,0,0,0,0,0l0,0h-1.3c0,0,0,0,0,0s0,0,0,0l2.3,4.6
				c0,0,0,0,0,0h1.5c0,0,0,0,0,0l0,0L-6.7-16.7L-6.7-16.7L-6.7-16.7z"/>
			<path class="st5" d="M2-13.3C2-13.3,2-13.3,2-13.3l-0.7-1.5c0,0,0-0.1,0-0.1l0,0l1,0h0v0L2-13.3L2-13.3z M4-16.7H2.8c0,0,0,0,0,0
				s0,0,0,0l-0.2,0.7c0,0,0,0.1,0,0.1s0,0-0.1,0H0.9c0,0-0.1,0-0.1,0s0,0,0-0.1l-0.3-0.7l0,0l0,0h-1.3c0,0,0,0,0,0s0,0,0,0l2.4,4.6
				l0,0c0,0,0,0,0.1,0H3C3-12,3-12,3-12l0,0L4-16.7L4-16.7L4-16.7z"/>
			<path class="st5" d="M-1.6-16.7h-1.2l0,0l-1.6,2.8l0,0l0,0l-0.4-2.8c0,0,0,0,0,0l0,0h-1.2l0,0c0,0,0,0,0,0l0.6,4.5c0,0,0,0,0,0
				l0,0h1.3l0,0l0,0l1.5-2.5c0-0.1,0,0,0,0s0,0,0,0.1l0.4,2.5l0,0l0,0l1.2,0c0,0,0,0,0,0l0,0L-1.6-16.7C-1.5-16.7-1.5-16.7-1.6-16.7
				C-1.5-16.7-1.5-16.7-1.6-16.7"/>
			<path class="st5" d="M7.4-16.6C7.4-16.7,7.4-16.7,7.4-16.6C7.4-16.7,7.4-16.7,7.4-16.6l-2.7-0.1c-0.1,0-0.1,0-0.1,0s0,0,0,0.1
				l0.7,4.5c0,0.1,0,0.1,0,0.1h1.3c0,0,0,0,0,0s0,0,0,0l-0.5-3.5c0,0,0,0,0,0s0,0,0.1,0h1.3c0,0,0,0,0,0s0,0,0,0L7.4-16.6z"/>
			<path class="st5" d="M12.5-14.8L12.5-14.8l-1.7,0c0,0,0,0,0,0s0,0,0,0v-1.7c0,0,0,0,0,0l0,0H9.4l0,0c0,0,0,0,0,0v1.7l0,0l0,0H7.6
				c0,0,0,0,0,0s0,0,0,0.1v1.3l0,0l0,0h1.7l0,0l0,0v1.5l0,0c0,0,0,0,0.1,0h1.3c0,0,0,0,0,0s0,0,0,0v-1.5h1.7c0,0,0.1,0,0.1,0
				s0,0,0,0L12.5-14.8L12.5-14.8z"/>
		</g>
	</g>
	<path class="st5" d="M453.8,550.5l3-24.8h76.8l-3.1,24.8h-23.8l-10.9,88h-28.7l11.1-88H453.8z M445.3,631.8c0,2.3-0.9,3.7-3.5,4.7
		c-7.4,2.8-16,4.1-22.9,4.1c-10.3,0-20.2-2.5-29.8-7.7c-19.2-10.5-29.8-28.2-29.8-50c0-12,3.3-22.8,9.7-32.6
		c6.6-9.8,15.4-17.1,26.6-21.7c7.2-3.1,14.8-4.6,23.1-4.6c5.5,0,11.6,0.8,18,2.4c3.4,0.9,5.5,1.9,6.8,2.6c1.3,0.6,1.8,1.6,1.8,2.9
		v28.8c0,0.8-0.3,1-0.7,1c-0.3,0-0.6-0.3-1.4-0.9c-2.9-2.6-10.5-7.9-22.4-7.9c-13,0-24,6.8-28.9,18.2c-1.6,3.7-2.4,7.7-2.4,12
		c0,8.5,3.1,15.3,9.5,20.6c5.8,4.9,13,7.4,21.6,7.4c9.7,0,17.2-2.7,22.8-8.1c0.5-0.5,1.1-1,1.4-1c0.6,0,0.7,0.5,0.7,1.4L445.3,631.8
		z M716,525.7v112h30.1v-69.5l52.9,69.5h30.1v-112H799v69.5l-52.9-69.5H716z M559.5,638.1H531l13.8-112.4h28.5L559.5,638.1z
		 M645.1,549.2c-19.2,0-33.7,14.5-33.7,33.7c0,18.6,13.5,32.1,31.8,32.1c18.9,0,33-14.1,33-33.3
		C676.1,562.8,662.9,549.2,645.1,549.2 M643.4,641.6c-35.8,0-61.4-24-61.4-58c0-35,27-61.2,63.6-61.2c35.6,0,59.8,23.1,59.8,57.2
		C705.4,615.8,679.6,641.6,643.4,641.6 M309.2,557.8c0,0-0.2,0-0.3,0.6l-14.6,34c-0.3,1.1-0.2,1.2-0.2,1.2l0.8,0.3l21.7-0.1h0.3
		v-0.6l-7.3-35L309.2,557.8z M353.3,637.7h-26.8c-0.6,0.3-1-0.3-1-0.3s-0.2-0.1-0.3-1l-3.5-17c-0.3-0.9-0.6-1.4-0.6-1.4
		s-0.7-0.4-1.6-0.4h-34.9c-0.7,0-1.1,0.4-1.1,0.4s-0.6,0.6-0.9,1.5l-7.9,17.3l-0.4,0.6l-0.9,0.2h-30.2c-0.7,0.2-1-0.3-1-0.3
		s-0.2-0.3,0.3-0.9l53.2-109.2l0.6-0.6c0,0,0.3-0.1,1.2-0.1h33c0.7,0,1.2,0.5,1.2,0.5l0.3,0.6l22.1,109.7l-0.2,0.5L353.3,637.7z"/>
</g>
</svg>
