<svg width="250" height="250" viewBox="0 0 250 250" fill="none" xmlns="http://www.w3.org/2000/svg">
<rect width="250" height="250" fill="black"/>
<path d="M124.999 74.1293H210L209.999 159.107H124.999V74.1293Z" fill="white"/>
<path d="M40 74.1293H124.999V159.107H40V74.1293Z" fill="black"/>
<path d="M117.857 97.8445L96.7458 109.921C93.6525 104.956 89.2485 103.056 85.1451 103.022C77.6724 102.959 71.228 108.958 71.232 116.611C71.2284 124.483 77.6932 130.193 84.7651 130.313C88.9924 130.385 94.1358 128.03 96.749 123.361L117.859 135.47C110.185 148.697 97.029 154.67 84.736 154.648C65.2438 154.616 46.9064 139.033 46.9091 116.644C46.9084 94.373 65.3199 78.5185 84.8094 78.6438C97.449 78.7261 110.335 84.6725 117.857 97.844L117.857 97.8445Z" fill="white"/>
<path d="M131.104 80.2191H155.378L179.678 110.596V80.2191H203.932L203.933 153.049H179.678L155.378 122.722V153.049H131.098L131.104 80.2191Z" fill="black"/>
<path d="M49.7212 165.27C51.0563 165.645 52.179 166.58 52.9045 167.75L50.1096 169.348C49.6224 168.67 48.82 168.182 47.9588 168.311C47.1081 168.394 46.3626 169.041 46.139 169.864C45.7942 171.324 46.8392 172.537 48.1172 172.599C48.832 172.621 49.5945 172.305 50.1096 171.544L52.9045 173.157C51.982 174.683 50.3483 175.717 48.5671 175.868C45.2643 175.969 42.4167 173.44 42.8721 169.588C43.4857 166.249 46.5928 164.402 49.7212 165.27Z" fill="white"/>
<path d="M93.3391 165.07C92.2968 164.997 91.2249 165.221 90.2615 165.78C87.6924 167.27 86.8039 170.61 88.2936 173.18C89.7833 175.749 93.1244 176.638 95.6937 175.148C98.1516 173.723 99.0467 170.61 97.8178 168.093C97.7788 167.973 97.727 167.858 97.6631 167.75C97.6627 167.749 97.6625 167.749 97.662 167.748C97.6618 167.748 97.6616 167.747 97.6614 167.747C97.5978 167.635 97.5218 167.53 97.4348 167.434C96.4774 166.03 94.9531 165.184 93.3391 165.07ZM93.1151 168.504C93.7383 168.544 94.3241 168.888 94.6691 169.483C94.6692 169.483 94.6693 169.483 94.6693 169.483C94.6694 169.483 94.6695 169.483 94.6696 169.483C95.221 170.435 94.91 171.603 93.9583 172.155C93.0065 172.707 91.8381 172.396 91.2862 171.444C90.7343 170.493 91.0452 169.324 91.9969 168.772V168.772C92.3539 168.565 92.7412 168.48 93.1151 168.504Z" fill="white"/>
<path d="M180.171 165.07C179.129 164.997 178.057 165.221 177.094 165.78C174.524 167.27 173.636 170.61 175.126 173.18C176.615 175.749 179.957 176.638 182.526 175.148C184.984 173.723 185.879 170.609 184.65 168.092C184.611 167.973 184.559 167.858 184.495 167.75C184.495 167.749 184.495 167.749 184.494 167.748V167.747C184.43 167.635 184.354 167.53 184.267 167.434C183.31 166.029 181.785 165.184 180.171 165.07L180.171 165.07ZM179.947 168.504C180.57 168.544 181.156 168.888 181.501 169.483V169.483V169.483C182.053 170.435 181.742 171.603 180.79 172.155C179.838 172.707 178.67 172.396 178.118 171.444C177.566 170.493 177.877 169.324 178.829 168.772V168.772C179.186 168.565 179.573 168.48 179.947 168.504L179.947 168.504Z" fill="white"/>
<path d="M61.5524 165.274H56.369L53.1229 175.651H56.7712L57.3044 173.911H60.628L61.1513 175.651H64.7985L61.5524 165.274ZM58.9615 168.137L59.8885 171.357H58.0323L58.9615 168.137Z" fill="white"/>
<path d="M65.8447 165.274V175.651H69.2818V172.617H70.4019L71.9422 175.651H75.7655L73.7621 172.247C75.305 171.258 75.8333 170.032 75.7751 168.8C75.7764 166.94 74.1008 165.326 72.2687 165.274H65.8447ZM71.5686 168.3C72.0114 168.306 72.3345 168.737 72.354 169.105C72.3653 169.632 71.9642 170.028 71.5653 170.037L69.2818 170.04V168.3H71.5686Z" fill="white"/>
<path d="M76.7242 168.303V165.273H87.1224V168.303H83.8688V175.651H79.9799V168.303H76.7242Z" fill="white"/>
<path d="M111.167 165.274H114.597L118.11 169.589V165.274H121.543V175.651H118.11L114.597 171.327V175.651H111.167V165.274Z" fill="white"/>
<path d="M128.563 165.274H131.993L135.506 169.589V165.274H138.938V175.651H135.506L131.993 171.327V175.651H128.563V165.274Z" fill="white"/>
<path d="M140.431 165.274H149.493L149.493 168.301H143.863V169.364H148.603V171.788H143.863V172.88H149.493L149.492 175.651H140.43L140.431 165.274Z" fill="white"/>
<path d="M150.639 168.303V165.273H161.037V168.303H157.784V175.651H153.895V168.303H150.639Z" fill="white"/>
<path d="M161.906 165.274H165.394C165.394 165.274 166.266 169.805 166.27 169.824L167.989 165.645L169.74 169.814L170.616 165.274H174.072L172.096 175.651H169.219L167.989 172.85L166.743 175.651H163.915C163.915 175.651 161.943 165.508 161.906 165.274Z" fill="white"/>
<path d="M186.225 165.274V175.651H189.662L189.668 172.617H190.782L192.322 175.651H196.146L194.142 172.247C195.685 171.258 196.214 170.032 196.156 168.8C196.157 166.94 194.481 165.326 192.649 165.274H186.225ZM191.949 168.3C192.391 168.306 192.714 168.737 192.734 169.105C192.745 169.632 192.344 170.028 191.945 170.037L189.662 170.04V168.3H191.949Z" fill="white"/>
<path d="M197.266 175.651V165.273H200.737V168.635L203.325 165.273H207.75L203.734 170.221L207.75 175.651H203.325L200.737 171.789V175.651H197.266Z" fill="white"/>
<path d="M105.069 165.07C104.027 164.997 102.955 165.221 101.992 165.78C99.4228 167.27 98.5343 170.61 100.024 173.18C101.514 175.749 104.855 176.638 107.424 175.148C109.882 173.723 110.777 170.61 109.548 168.093C109.509 167.973 109.457 167.858 109.393 167.75C109.393 167.749 109.393 167.749 109.392 167.748C109.392 167.748 109.392 167.747 109.392 167.747C109.328 167.635 109.252 167.53 109.165 167.434C108.207 166.029 106.683 165.184 105.069 165.07ZM104.845 168.504C105.469 168.544 106.054 168.888 106.399 169.483C106.399 169.483 106.399 169.483 106.399 169.483C106.399 169.483 106.4 169.483 106.4 169.483C106.951 170.435 106.64 171.603 105.689 172.155C104.737 172.707 103.568 172.396 103.017 171.444C102.465 170.493 102.775 169.324 103.727 168.772V168.772C104.084 168.565 104.472 168.48 104.845 168.504Z" fill="white"/>
</svg>
