<svg width="250" height="250" viewBox="0 0 250 250" fill="none" xmlns="http://www.w3.org/2000/svg">
<rect width="250" height="250" fill="#FBDB00"/>
<path d="M143.776 141.442C143.78 142.715 142.758 143.755 141.485 143.77C132.658 143.871 123.671 143.78 114.886 143.821C112.786 143.799 110.686 143.77 108.586 143.755C107.31 143.747 106.282 142.707 106.285 141.431C106.301 130.466 106.29 119.471 106.267 108.505C106.265 107.22 107.306 106.178 108.591 106.179C119.504 106.187 130.514 106.226 141.425 106.187C142.701 106.182 143.742 107.208 143.754 108.485C143.769 109.973 143.778 111.548 143.768 112.787C143.658 121.17 143.754 133.238 143.776 141.442" fill="#2ECCF2"/>
<path d="M122.613 123.73C122.786 126.059 122.544 128.694 120.404 130.126C118.314 131.524 115.216 131.562 112.866 130.832C110.288 130.032 109.066 127.647 108.805 125.153C108.524 122.48 109.805 119.778 112.216 118.427C114.296 117.26 117.51 117.339 119.575 118.534C121.46 119.626 122.459 121.643 122.613 123.73Z" fill="white"/>
<path d="M133.838 117.657C136.198 117.594 138.849 117.956 140.198 120.132C141.516 122.259 141.413 125.317 140.57 127.602C139.644 130.107 137.18 131.201 134.649 131.342C131.935 131.495 129.266 130.106 128.01 127.666C126.925 125.559 127.15 122.394 128.452 120.412C129.64 118.604 131.723 117.713 133.838 117.657" fill="white"/>
<path d="M116.554 120.352C117.961 120.645 119.253 121.618 119.653 123.004C119.991 124.18 119.964 125.895 119.33 126.974C118.593 128.232 116.925 128.687 115.519 128.63C113.88 128.563 112.59 127.5 112.084 125.995C111.645 124.69 111.742 122.9 112.51 121.717C113.325 120.464 114.727 120.148 116.124 120.293C116.265 120.304 116.408 120.322 116.554 120.352Z" fill="black"/>
<path d="M137.989 122.002C139.042 123.608 138.894 126.311 137.542 127.707C136.082 129.217 133.314 128.867 131.757 127.727C130.118 126.524 129.869 123.94 130.764 122.177C131.362 121.002 132.535 120.408 133.778 120.303C134.025 120.283 134.27 120.286 134.516 120.303C135.829 120.389 137.235 120.853 137.989 122.003" fill="black"/>
<path d="M125.138 133.02H125.127C125.078 133.02 125.027 133.02 124.978 133.019C124.931 133.016 124.882 133.014 124.835 133.011C124.833 133.011 124.829 133.011 124.827 133.01C124.751 133.007 124.676 133.001 124.602 132.992C124.556 132.987 124.513 132.981 124.468 132.976C124.45 132.972 124.43 132.969 124.41 132.968C123.255 132.797 122.656 132.266 122.657 132.266C122.507 132.15 122.379 132.027 122.28 131.896C122.04 131.578 121.984 131.133 122.149 130.871C122.293 130.642 122.568 130.522 122.862 130.582C122.862 130.582 122.886 130.586 122.926 130.6C122.929 130.601 122.933 130.601 122.936 130.603C122.97 130.614 123.013 130.632 123.066 130.659C123.08 130.667 123.093 130.673 123.106 130.68C123.167 130.714 123.239 130.761 123.318 130.819C123.318 130.819 123.327 130.826 123.343 130.84C123.354 130.848 123.364 130.855 123.375 130.863C123.375 130.863 123.39 130.876 123.412 130.894C123.53 130.985 123.742 131.139 123.974 131.259C124.284 131.41 124.675 131.536 125.111 131.529H125.152C125.588 131.536 125.979 131.41 126.288 131.259C126.521 131.139 126.733 130.985 126.851 130.894C126.873 130.876 126.888 130.863 126.888 130.865C126.899 130.855 126.909 130.849 126.92 130.84C126.936 130.826 126.945 130.819 126.942 130.823C127.023 130.761 127.094 130.714 127.156 130.68C127.17 130.673 127.183 130.667 127.196 130.659C127.25 130.632 127.293 130.614 127.327 130.603C127.331 130.602 127.333 130.602 127.337 130.6C127.376 130.586 127.401 130.582 127.401 130.586C127.695 130.522 127.97 130.642 128.114 130.87C128.279 131.133 128.223 131.578 127.983 131.895C127.884 132.027 127.756 132.15 127.607 132.266C127.607 132.266 127.008 132.797 125.852 132.967C125.833 132.97 125.813 132.972 125.794 132.976C125.75 132.98 125.707 132.987 125.661 132.992C125.587 133 125.512 133.007 125.436 133.01C125.434 133.011 125.43 133.011 125.428 133.011C125.377 133.015 125.327 133.016 125.277 133.019C125.231 133.019 125.184 133.02 125.138 133.02Z" fill="#ED1C99"/>
<path d="M84.0869 125.556C84.9982 126.447 86.6846 129.135 85.8092 130.488C85.0328 131.689 83.4897 131.642 82.4845 130.87C82.2743 130.708 82.0642 130.547 81.8639 130.371C80.96 129.573 80.2886 128.541 79.5184 127.61C79.5161 127.799 79.5148 127.988 79.511 128.176C79.4949 129.137 79.3589 130.498 78.5627 131.119C77.7763 131.729 76.7266 131.608 75.9736 131.007C75.0154 130.244 74.8621 128.663 74.8263 127.496C74.778 125.956 74.6457 124.531 74.7137 122.994C74.715 122.969 74.7163 122.945 74.7176 122.92C74.7695 121.665 74.6793 120.116 75.2505 118.963C75.6363 118.186 76.4362 117.828 77.251 117.677C78.8015 117.392 80.6153 117.44 82.1645 117.699C83.7484 117.963 85.2915 118.689 85.9492 120.245C86.7294 122.093 85.8082 124.697 84.0872 125.556M79.2648 123.98C79.2648 123.98 79.3327 123.981 79.3365 123.981C79.9238 123.982 80.385 123.982 80.9525 123.822C81.5695 123.651 82.0307 123.036 82.0159 122.432C81.9998 122.067 81.8934 121.712 81.6412 121.439C81.1961 120.958 80.4778 120.969 79.8707 120.974C79.8126 120.975 79.3872 120.99 79.245 121.021C79.261 121.442 79.292 122.54 79.2648 123.98" fill="white"/>
<path d="M208.981 120.679C211.003 123.9 209.93 128.694 206.527 130.571C205.205 131.3 203.771 131.533 202.357 131.51C200.065 131.477 197.426 130.177 196.285 127.964C194.635 124.766 195.841 120.259 198.792 118.578C202.172 116.651 206.649 117.252 208.981 120.679ZM200.84 125.544C201.386 126.709 203.193 127.038 204.168 126.233C205.139 125.432 205.115 123.689 204.152 122.94C202.234 121.519 199.966 123.365 200.84 125.544Z" fill="white"/>
<path d="M188.313 117.553C190.018 117.617 192.072 117.853 191.828 120.209C191.676 121.677 189.826 122.038 188.288 122.042C188.28 122.655 188.267 123.616 188.259 124.228C188.233 125.96 188.512 128.358 187.849 130.007C187.449 131.004 186.624 131.631 185.34 131.498C184.008 131.359 183.511 130.494 183.271 129.471C183.069 128.606 183.086 127.731 183.05 126.856C182.992 125.429 183.04 123.48 183.056 122.052C181.67 122.014 179.824 121.814 179.51 120.487C179.061 118.584 180.477 117.646 182.209 117.565C184.396 117.461 186.126 117.47 188.313 117.553" fill="black"/>
<path d="M155.509 128.465C155.031 127.872 154.305 126.857 154.305 126.857C154.374 128.094 154.374 129.585 153.626 130.653C153.25 131.191 152.673 131.506 152.002 131.546C151.016 131.605 150.365 131.348 149.772 130.592C149.157 129.807 149.023 128.714 148.956 127.745C148.876 126.598 148.953 125.445 148.95 124.297C148.944 122.515 148.855 120.376 149.28 119.11C149.602 118.154 150.312 117.537 151.361 117.485C152.746 117.416 153.784 118.269 154.652 119.14C155.211 119.701 156.052 120.612 156.999 121.819C156.997 120.424 157.119 118.699 158.214 117.915C158.831 117.473 159.715 117.338 160.492 117.547C161.277 117.756 161.901 118.54 162.107 119.293C162.333 120.119 162.298 120.999 162.295 121.846C162.29 122.713 162.298 123.546 162.308 124.452C162.322 125.636 162.338 126.997 162.256 128.181C162.156 129.631 161.611 131.237 159.828 131.265C159.213 131.276 158.579 131.099 158.044 130.811C157.523 130.531 157.014 130.139 156.612 129.713C156.231 129.31 155.858 128.896 155.509 128.465Z" fill="black"/>
<path d="M102.117 119.004C102.484 119.672 102.506 120.536 102.065 121.233C101.716 121.786 101.104 121.983 100.482 122.095C99.9614 122.189 99.5893 122.216 98.9773 122.216C98.9698 122.216 98.8746 127.554 98.8549 127.965C98.8066 128.934 98.7955 129.954 98.1896 130.768C97.8805 131.183 97.4255 131.494 96.8988 131.516C94.9984 131.591 94.3345 130.237 94.1676 128.716C93.9586 126.805 94.0823 124.119 94.0588 122.197C93.8004 122.185 93.3095 122.161 93.0548 122.117C92.0509 121.949 90.9245 121.635 90.6228 120.576C90.247 119.255 90.8762 118.128 92.0459 117.723C92.4366 117.587 92.9831 117.525 93.3466 117.512C94.9453 117.452 96.3869 117.512 97.9881 117.519C99.0638 117.523 100.245 117.534 101.204 118.078C101.596 118.301 101.909 118.627 102.117 119.004Z" fill="black"/>
<path d="M48.5105 126.275C48.7775 126.159 49.0508 126.086 49.3549 126.045C50.3997 125.902 51.7845 126.2 52.1405 127.591C52.2889 128.168 52.1888 128.8 51.9477 129.34C51.4247 130.515 50.2427 131.079 49.0557 131.354C47.6264 131.686 46.1106 131.634 44.7072 131.205C42.9824 130.679 41.4901 129.401 40.6815 127.791C39.4574 125.355 39.9384 122.029 41.6755 119.961C43.132 118.227 45.3526 117.421 47.5744 117.436C47.959 117.438 48.3435 117.47 48.7231 117.531C49.5206 117.657 50.3416 118.007 51.0006 118.488C51.6126 118.933 52.1096 119.643 52.1504 120.462C52.1999 121.487 51.8673 122.035 51.1527 122.524C50.5221 122.954 49.4279 123.024 48.5921 122.708C48.1382 122.536 47.7735 122.286 47.2715 122.258C46.897 122.238 46.5223 122.325 46.2008 122.52C45.5208 122.935 45.1907 123.74 45.1759 124.513C45.1647 125.05 45.4219 125.832 45.9004 126.254C46.4098 126.7 47.0391 126.802 47.6821 126.614C47.9726 126.53 48.2397 126.394 48.5105 126.275" fill="white"/>
<path d="M66.707 120.357C67.607 122.148 68.4564 123.965 69.2539 125.805L70.0465 127.633C70.3544 128.298 70.478 128.865 70.4322 129.464C70.4112 129.746 70.3692 130.036 70.269 130.303C70.1652 130.581 69.997 130.807 69.7757 131.004C69.7596 131.017 69.7435 131.032 69.7275 131.046C69.2737 131.434 68.7062 131.683 68.1041 131.691H68.0694C67.8642 131.691 67.6552 131.665 67.4463 131.611C66.5103 131.371 66.0095 130.607 65.6658 129.635C65.6139 129.514 65.5669 129.389 65.5261 129.262C64.987 129.263 64.0449 129.265 63.5132 129.271H63.3042C62.7652 129.265 61.823 129.262 61.2852 129.262C60.9378 130.406 60.4222 131.341 59.37 131.611C58.7246 131.776 58.0075 131.654 57.4362 131.317C56.713 130.89 56.4867 130.227 56.4372 129.404C56.4137 129.003 56.4669 128.603 56.593 128.223C57.0418 126.87 57.6365 125.539 58.2028 124.233C58.7073 123.072 59.2476 121.928 59.8534 120.818C60.0117 120.528 60.165 120.236 60.3109 119.94C60.8994 118.747 61.7204 117.367 63.2486 117.317C63.2671 117.316 63.4006 117.31 63.5676 117.317C65.285 117.385 66.1407 119.174 66.707 120.357ZM63.4084 125.58C63.9969 125.573 64.0687 125.58 64.9007 125.562C64.5756 124.74 63.8572 122.997 63.4109 122.155H63.4057C63.0508 122.799 62.2732 124.561 61.9146 125.562C62.748 125.58 62.8197 125.573 63.4082 125.58" fill="black"/>
<path d="M173.214 118.45C173.979 119.468 174.116 121.056 174.142 122.106C174.142 123.297 174.174 124.424 174.138 125.681C174.086 127.498 174.379 129.96 172.528 131.106C170.781 132.189 168.855 130.89 168.49 129.24C168.223 128.033 168.297 126.762 168.301 125.538C168.307 124.271 168.266 122.988 168.354 121.722C168.428 120.647 168.498 119.34 169.235 118.46C169.744 117.852 170.402 117.519 171.22 117.487C172.064 117.455 172.788 117.884 173.213 118.45" fill="white"/>
</svg>
