<svg width="250" height="250" viewBox="0 0 250 250" fill="none" xmlns="http://www.w3.org/2000/svg">
<rect width="250" height="250" fill="black"/>
<path fill-rule="evenodd" clip-rule="evenodd" d="M210 122.895V127.104C209.689 130.11 208.823 132.881 207.4 135.416C205.305 139.144 202.349 142.025 198.531 144.059C195.425 145.692 192.023 146.494 188.325 146.464C187.714 146.444 187.398 146.434 187.378 146.434C139.149 146.434 90.9198 146.434 42.6905 146.434C41.2275 146.434 40.3307 145.702 40 144.239V143.488C40.2706 142.355 40.8768 141.654 41.8187 141.383C42.0893 141.293 42.921 141.248 44.3139 141.248C74.5361 141.248 104.768 141.248 135.011 141.248C136.634 141.248 137.586 141.238 137.866 141.218C140.953 141.048 143.714 140.01 146.149 138.107C147.982 136.674 149.395 134.9 150.387 132.786C150.638 132.265 150.973 131.378 151.394 130.125C152.527 126.898 154.235 122.008 156.52 115.455C157.091 113.882 157.833 112.429 158.744 111.096C159.266 110.324 159.862 109.593 160.533 108.901C163.419 105.935 166.931 104.187 171.07 103.656C171.761 103.575 172.703 103.535 173.896 103.535C179.317 103.565 184.733 103.606 190.144 103.656C190.805 103.656 191.372 103.696 191.843 103.776C194.678 104.217 197.314 105.174 199.749 106.647C202.585 108.38 204.899 110.64 206.693 113.426C208.517 116.242 209.619 119.398 210 122.895ZM190.4 127.961H187.499V112.464H179.427L169.627 127.961V133.252H181.576V139.279H187.544V133.252H190.4V127.961ZM181.576 127.961H175.038L181.607 117.364L181.576 127.961Z" fill="white"/>
<path d="M133.553 120.656C135.186 117.098 136.859 113.546 138.573 109.999C138.894 109.357 139.164 108.916 139.385 108.676C139.745 108.265 140.186 107.969 140.707 107.789C141.098 107.639 141.775 107.564 142.737 107.564C143.508 107.564 144.28 107.564 145.051 107.564C145.061 107.564 145.076 107.564 145.096 107.564C145.096 107.584 145.101 107.594 145.111 107.594C145.111 107.614 145.111 107.624 145.111 107.624C145.111 107.634 145.111 107.649 145.111 107.669C141.574 115.154 138.052 122.615 134.545 130.05C134.334 130.471 134.149 130.736 133.989 130.847C133.698 131.087 133.332 131.082 132.891 130.832C132.781 130.751 132.661 130.576 132.531 130.305C132.39 129.965 132.32 129.794 132.32 129.794C130.466 125.906 128.617 122.008 126.774 118.1C126.202 116.908 125.752 116.081 125.421 115.62C124.258 114.027 122.715 113.02 120.791 112.599C120.18 112.469 119.238 112.404 117.966 112.404C111.482 112.404 105.004 112.404 98.5305 112.404C97.4583 112.404 96.6817 112.053 96.2007 111.351C95.7398 110.69 95.6345 109.964 95.8851 109.172C96.0955 108.501 96.5514 108.015 97.2529 107.714C97.5234 107.584 97.8892 107.519 98.3501 107.519C105.615 107.519 112.885 107.534 120.16 107.564C121.894 107.564 122.846 107.574 123.016 107.594C124.088 107.704 125.065 108.025 125.947 108.556C126.949 109.177 127.821 109.984 128.562 110.976C128.923 111.457 129.389 112.283 129.96 113.456C131.143 115.831 132.29 118.231 133.402 120.656C133.452 120.746 133.503 120.746 133.553 120.656ZM133.523 132.771C133.573 132.771 133.638 132.771 133.718 132.771C134.409 132.73 134.991 132.49 135.462 132.049C135.712 131.819 136.018 131.318 136.378 130.546C139.685 123.572 143.017 116.612 146.374 109.668C146.635 109.137 146.89 108.746 147.141 108.496C147.541 108.135 147.992 107.874 148.493 107.714C148.824 107.614 149.33 107.564 150.012 107.564C150.883 107.564 151.785 107.564 152.717 107.564C152.737 107.564 152.747 107.564 152.747 107.564C152.757 107.584 152.762 107.594 152.762 107.594C152.782 107.614 152.792 107.629 152.792 107.639C152.792 107.639 152.792 107.649 152.792 107.669C149.295 115.034 145.798 122.399 142.301 129.764C142.16 130.065 141.84 130.766 141.339 131.869C140.818 132.951 140.472 133.637 140.302 133.928C139.69 134.91 138.959 135.677 138.107 136.228C135.742 137.771 133.252 138.086 130.637 137.175C128.622 136.473 127.154 135.105 126.233 133.071C124.289 128.933 122.36 124.784 120.446 120.626C120.285 120.285 120.16 120.039 120.07 119.889C119.849 119.548 119.559 119.308 119.198 119.168C118.988 119.097 118.632 119.062 118.131 119.062C117.8 119.062 117.459 119.062 117.109 119.062C116.698 119.062 116.367 119.112 116.117 119.213C115.556 119.463 115.21 119.879 115.08 120.46C115.07 120.6 115.065 121.112 115.065 121.993C115.065 126.352 115.065 130.721 115.065 135.1C115.065 136.012 114.724 136.699 114.042 137.16C113.521 137.52 112.955 137.676 112.344 137.626C111.663 137.575 111.096 137.27 110.645 136.709C110.445 136.438 110.305 136.122 110.225 135.762C110.174 135.561 110.149 135.221 110.149 134.74C110.149 128.767 110.149 122.795 110.149 116.823C110.169 115.63 110.65 114.819 111.592 114.388C111.903 114.267 112.329 114.197 112.87 114.177C115.606 114.117 117.555 114.117 118.717 114.177C121.553 114.358 123.582 115.735 124.805 118.311C126.608 122.109 128.407 125.896 130.201 129.674C130.732 130.806 131.083 131.473 131.253 131.673C131.774 132.295 132.485 132.665 133.387 132.786C133.417 132.786 133.462 132.781 133.523 132.771ZM96.2608 115.154C96.6116 114.683 97.0525 114.383 97.5836 114.252C97.7639 114.202 98.275 114.177 99.1167 114.177C101.281 114.177 103.441 114.177 105.595 114.177C106.096 114.177 106.497 114.242 106.798 114.373C107.8 114.784 108.301 115.625 108.301 116.898C108.301 122.78 108.301 128.667 108.301 134.559C108.301 135.251 108.23 135.772 108.09 136.122C107.81 136.854 107.309 137.315 106.587 137.505C105.856 137.716 105.194 137.646 104.603 137.295C104.142 137.024 103.811 136.639 103.611 136.137C103.481 135.827 103.416 135.346 103.416 134.695C103.416 130.085 103.416 125.476 103.416 120.866C103.416 120.104 103.125 119.578 102.544 119.288C102.263 119.137 101.792 119.062 101.131 119.062C100.249 119.062 99.3672 119.072 98.4854 119.092C97.1627 119.122 96.2909 118.566 95.87 117.424C95.5794 116.632 95.7097 115.876 96.2608 115.154Z" fill="white"/>
<path fill-rule="evenodd" clip-rule="evenodd" d="M74.2555 132.605C71.5199 129.719 70.1621 126.317 70.1822 122.399C70.1822 121.437 70.2824 120.5 70.4828 119.588C71.094 116.823 72.4017 114.448 74.4059 112.464C77.2217 109.638 80.6036 108.03 84.5517 107.639C85.153 107.589 86.1049 107.564 87.4076 107.564C89.2214 107.564 91.0351 107.564 92.8488 107.564C93.6004 107.564 94.2217 107.879 94.7127 108.511C95.0734 108.982 95.2438 109.488 95.2237 110.029C95.2237 110.56 95.0584 111.041 94.7277 111.472C94.4471 111.863 94.0713 112.138 93.6004 112.298C93.3298 112.389 92.8889 112.434 92.2777 112.434C90.7044 112.434 89.1312 112.434 87.5579 112.434C86.2352 112.434 85.2883 112.474 84.7171 112.554C82.252 112.895 80.1377 113.932 78.374 115.665C76.7507 117.269 75.7987 119.208 75.5182 121.482C75.4079 122.424 75.438 123.366 75.6083 124.308C76.1394 127.054 77.6125 129.233 80.0274 130.847C81.8211 132.059 83.7952 132.69 85.9496 132.741C89.4869 132.821 91.6263 132.836 92.3678 132.786C93.1394 132.756 93.7707 132.931 94.2617 133.312C94.7628 133.682 95.0784 134.194 95.2087 134.845C95.3289 135.546 95.1385 136.208 94.6375 136.829C94.367 137.14 94.0263 137.365 93.6154 137.505C93.3649 137.586 92.9791 137.626 92.458 137.626C90.7144 137.626 88.9708 137.626 87.2273 137.626C85.9446 137.626 84.9977 137.596 84.3864 137.535C80.6688 137.125 77.4171 135.621 74.6313 133.026C74.5612 132.966 74.491 132.896 74.4209 132.816C74.3407 132.716 74.2856 132.645 74.2555 132.605ZM80.7339 116.116C82.3472 114.844 84.2511 114.197 86.4456 114.177C88.5099 114.177 90.5691 114.177 92.6234 114.177C93.0242 114.177 93.395 114.247 93.7357 114.388C94.0864 114.538 94.377 114.754 94.6074 115.034C94.9582 115.425 95.1586 115.871 95.2087 116.372C95.2488 116.853 95.1586 117.319 94.9381 117.77C94.5173 118.652 93.7457 119.092 92.6234 119.092C90.7996 119.092 88.9658 119.092 87.122 119.092C86.1701 119.092 85.4887 119.163 85.0778 119.303C84.5067 119.513 84.0106 119.839 83.5898 120.28C83.1889 120.701 82.9134 121.197 82.7631 121.768C82.5126 122.69 82.6629 123.587 83.214 124.459C83.6649 125.15 84.2762 125.626 85.0478 125.886C85.4586 126.037 86.135 126.112 87.0769 126.112C88.9408 126.112 90.7996 126.112 92.6534 126.112C93.5653 126.112 94.2718 126.458 94.7728 127.149C95.0233 127.48 95.1736 127.85 95.2237 128.261C95.2538 128.632 95.1987 129.013 95.0584 129.404C94.8279 130.065 94.397 130.531 93.7657 130.802C93.405 130.942 92.8037 131.012 91.962 131.012C90.0581 131.012 88.1492 131.012 86.2352 131.012C84.0407 131.012 82.0867 130.26 80.3731 128.757C78.5795 127.174 77.6275 125.235 77.5173 122.94C77.4371 121.207 77.868 119.634 78.8099 118.221C79.331 117.429 79.9723 116.728 80.7339 116.116Z" fill="#E50000"/>
<path d="M68.6941 133.282C69.2552 133.743 69.5659 134.304 69.626 134.965C69.6961 135.576 69.5408 136.143 69.16 136.664C68.8093 137.145 68.3283 137.45 67.7171 137.581C67.5467 137.611 66.9956 137.626 66.0637 137.626C64.6207 137.626 63.1727 137.626 61.7197 137.626C60.417 137.626 59.4651 137.596 58.8638 137.535C56.5691 137.295 54.3997 136.604 52.3554 135.461C50.6018 134.469 49.0987 133.191 47.8462 131.628C45.9022 129.233 44.83 126.528 44.6295 123.512C44.5494 122.55 44.5794 121.603 44.7197 120.671C45.0404 118.396 45.8521 116.322 47.1547 114.448C48.3973 112.664 49.9856 111.181 51.9196 109.999C54.0439 108.726 56.3286 107.95 58.7737 107.669C59.3849 107.599 60.3269 107.564 61.5995 107.564C63.0324 107.564 64.4654 107.564 65.8983 107.564C67.0206 107.564 67.682 107.589 67.8824 107.639C68.6239 107.829 69.16 108.32 69.4907 109.112C69.6911 109.583 69.7062 110.099 69.5358 110.66C69.3053 111.422 68.8644 111.943 68.2131 112.223C67.8824 112.364 67.3313 112.434 66.5597 112.434C65.0466 112.434 63.5385 112.434 62.0354 112.434C60.6926 112.434 59.7457 112.474 59.1945 112.554C56.9098 112.855 54.9107 113.766 53.1972 115.29C51.6039 116.713 50.5718 118.451 50.1008 120.505C49.9004 121.437 49.8302 122.374 49.8904 123.316C50.0607 125.511 50.8824 127.425 52.3554 129.058C54.0489 130.962 56.1633 132.144 58.6985 132.605C59.3298 132.716 60.2768 132.776 61.5394 132.786C63.4433 132.806 65.3472 132.806 67.2511 132.786C67.7822 132.786 68.2632 132.951 68.6941 133.282ZM69.2352 127.194C69.8665 128.086 69.8515 129.028 69.1901 130.02C68.7492 130.651 68.0928 130.967 67.2211 130.967C65.0366 130.997 62.842 131.012 60.6375 131.012C58.8538 131.012 57.2004 130.496 55.6773 129.464C53.6631 128.111 52.4607 126.277 52.0699 123.962C51.8193 122.56 51.9346 121.187 52.4156 119.844C52.7362 118.992 53.2122 118.186 53.8435 117.424C55.2264 115.731 57.01 114.698 59.1945 114.328C59.7657 114.227 60.7127 114.177 62.0354 114.177C63.6988 114.177 65.3672 114.177 67.0407 114.177C67.4114 114.177 67.7722 114.242 68.1229 114.373C68.4636 114.513 68.7542 114.718 68.9947 114.989C69.3554 115.36 69.5659 115.801 69.626 116.312C69.6961 116.793 69.621 117.254 69.4005 117.695C69.15 118.266 68.7392 118.667 68.168 118.897C67.8373 119.027 67.2962 119.092 66.5447 119.092C64.8712 119.092 63.2028 119.092 61.5394 119.092C60.5874 119.092 59.911 119.163 59.5102 119.303C59.0192 119.473 58.5833 119.734 58.2025 120.084C57.8417 120.415 57.5612 120.816 57.3608 121.287C56.9599 122.229 56.975 123.141 57.4058 124.023C57.7465 124.714 58.2476 125.25 58.9089 125.631C59.3699 125.881 59.8659 126.042 60.397 126.112C60.4471 126.112 60.9682 126.112 61.9602 126.112C63.6738 126.112 65.3873 126.112 67.1008 126.112C67.5618 126.112 67.9726 126.202 68.3333 126.382C68.664 126.563 68.9646 126.833 69.2352 127.194Z" fill="white"/>
</svg>
