<svg width="250" height="250" viewBox="0 0 250 250" fill="none" xmlns="http://www.w3.org/2000/svg">
<rect width="250" height="250" fill="#BFAE62"/>
<path d="M64.276 143.023C66.6066 142.564 69.289 143.191 70.8002 145.127C72.1399 146.737 72.3491 148.916 72.2648 150.93C72.1631 153.372 72.6368 155.999 71.4424 158.254C69.3849 162.348 62.6078 162.508 60.3178 158.562C59.2135 156.801 59.2804 154.659 59.3123 152.662C59.3675 150.579 59.0537 148.379 59.9633 146.423C60.7102 144.656 62.3841 143.348 64.276 143.023ZM64.7816 145.185C63.5611 145.441 62.5381 146.347 62.0528 147.487C61.3931 148.937 61.6488 150.567 61.6023 152.107C61.6198 153.991 61.3495 156.109 62.5933 157.699C64.0754 159.788 67.6209 159.745 69.0391 157.606C70.2044 156.013 69.9051 153.953 69.9371 152.104C69.8847 150.454 70.1841 148.669 69.3384 147.161C68.5218 145.525 66.5224 144.743 64.7816 145.185Z" fill="white"/>
<path d="M75.2785 145.819C77.3854 142.052 83.5085 141.884 85.9787 145.345C86.2897 145.775 86.5193 146.258 86.7721 146.725C86.0514 147.06 85.3307 147.388 84.61 147.716C83.741 145.223 80.37 144.328 78.3182 145.915C76.7722 147.063 76.4961 149.129 76.6007 150.922C76.7257 153.081 76.1822 155.476 77.4319 157.405C78.6234 159.384 81.6254 159.768 83.3545 158.292C83.9503 157.821 84.3048 157.138 84.6303 156.47C85.3481 156.818 86.0688 157.17 86.7866 157.522C85.2696 162.003 78.4694 162.75 75.6969 159.114C74.4008 157.461 74.241 155.272 74.3107 153.253C74.3979 150.768 73.9387 148.062 75.2785 145.819Z" fill="white"/>
<path d="M44.436 143.017C46.6359 143.034 48.8329 142.982 51.0299 143.04C53.0438 143.107 55.1362 143.985 56.2318 145.74C57.4437 147.617 57.2606 149.954 57.2984 152.09C57.249 154.101 57.3827 156.251 56.4236 158.094C55.4733 159.995 53.3722 161.023 51.3205 161.171C49.0305 161.337 46.7289 161.218 44.433 161.25C44.4389 155.173 44.433 149.094 44.436 143.017ZM46.7608 145.141V159.108C49.1257 159.108 51.7245 159.288 53.5437 158.091C55.3542 156.423 54.9357 153.735 54.9909 151.523C55.0316 149.559 54.9706 147.135 53.1746 145.897C51.7775 145.045 49.0049 145.141 46.7608 145.141Z" fill="white"/>
<path d="M88.7541 143.017C89.5155 143.017 90.2769 143.017 91.0412 143.017C91.047 146.717 91.0412 150.416 91.0441 154.116C91.0238 155.406 91.2998 156.76 92.1426 157.777C93.6596 159.692 97.0336 159.675 98.4866 157.69C99.2451 156.67 99.4021 155.356 99.3962 154.118C99.3992 150.419 99.3933 146.717 99.3992 143.017C100.166 143.017 100.936 143.017 101.704 143.02C101.704 146.917 101.71 150.814 101.701 154.714C101.707 156.623 101.073 158.64 99.588 159.916C97.6293 161.593 94.6884 161.796 92.3547 160.849C90.0647 159.902 88.8035 157.397 88.7744 155.005C88.7279 151.009 88.7657 147.013 88.7541 143.017Z" fill="white"/>
<path d="M104.685 143.017C105.455 143.017 106.226 143.017 106.996 143.014C108.917 147.275 110.884 151.512 112.668 155.83C114.476 151.532 116.403 147.289 118.28 143.02C119.039 143.017 119.797 143.014 120.556 143.017C120.559 149.097 120.559 155.173 120.556 161.253C119.783 161.253 119.007 161.253 118.234 161.253C118.228 156.905 118.239 152.558 118.228 148.21C116.842 151.721 115.208 155.121 113.63 158.547C112.95 158.547 112.27 158.544 111.593 158.541C110.036 155.106 108.458 151.68 106.999 148.202C106.975 152.552 106.999 156.902 106.99 161.253C106.22 161.253 105.453 161.253 104.685 161.253C104.682 155.173 104.682 149.097 104.685 143.017Z" fill="white"/>
<path d="M124.209 143.017C128.048 143.017 131.887 143.017 135.723 143.017C135.723 143.726 135.723 144.432 135.723 145.141C132.66 145.144 129.597 145.139 126.534 145.141C126.534 147.103 126.534 149.065 126.536 151.026C129.143 151.029 131.753 151.026 134.363 151.026C134.363 151.703 134.363 152.383 134.36 153.061C131.75 153.064 129.143 153.058 126.534 153.064C126.534 155.077 126.534 157.091 126.536 159.108C129.597 159.111 132.66 159.108 135.723 159.111C135.723 159.823 135.723 160.538 135.723 161.253C131.887 161.253 128.048 161.253 124.209 161.253C124.209 155.173 124.209 149.097 124.209 143.017Z" fill="white"/>
<path d="M138.393 143.093C139.172 143.081 139.948 143.084 140.727 143.116C143.738 147.894 146.891 152.584 149.779 157.44C149.788 152.657 149.779 147.873 149.782 143.09C150.544 143.09 151.308 143.09 152.072 143.09C152.069 149.169 152.072 155.246 152.069 161.326C151.323 161.323 150.576 161.326 149.829 161.337C146.754 156.594 143.616 151.889 140.724 147.03C140.709 151.794 140.724 156.56 140.718 161.326C139.942 161.326 139.169 161.326 138.393 161.326C138.393 155.246 138.393 149.169 138.393 143.093Z" fill="white"/>
<path d="M153.432 145.051C153.432 144.371 153.432 143.694 153.435 143.017C157.655 143.017 161.875 143.014 166.094 143.017C166.091 143.694 166.091 144.374 166.091 145.051C164.365 145.051 162.642 145.051 160.916 145.051C160.913 150.451 160.919 155.851 160.916 161.253C160.14 161.253 159.364 161.253 158.591 161.253C158.588 155.853 158.594 150.454 158.591 145.054C156.87 145.051 155.153 145.054 153.432 145.051Z" fill="white"/>
<path d="M164.65 161.253C166.864 155.173 169.091 149.097 171.311 143.017C171.976 143.017 172.645 143.017 173.313 143.017C175.539 149.094 177.759 155.173 179.98 161.253C179.16 161.253 178.344 161.253 177.524 161.25C177.039 159.852 176.551 158.454 176.062 157.056C173.551 157.056 171.043 157.054 168.535 157.059C168.05 158.457 167.562 159.855 167.071 161.25C166.263 161.253 165.455 161.253 164.65 161.253ZM169.195 155.057C171.264 155.06 173.336 155.057 175.406 155.057C174.374 152.046 173.348 149.033 172.302 146.025C171.27 149.039 170.238 152.049 169.195 155.057Z" fill="white"/>
<path d="M182.095 143.017C184.618 143.02 187.14 143.008 189.666 143.023C191.119 143.034 192.598 143.607 193.572 144.711C195.152 146.464 195.176 149.373 193.679 151.186C192.97 152.084 191.935 152.636 190.878 153.023C192.101 155.766 193.33 158.507 194.551 161.253C193.688 161.253 192.828 161.253 191.97 161.253C190.808 158.585 189.657 155.911 188.495 153.244C187.135 153.244 185.777 153.244 184.42 153.244C184.417 155.914 184.423 158.582 184.42 161.253C183.644 161.253 182.868 161.253 182.095 161.253C182.095 155.173 182.092 149.097 182.095 143.017ZM184.423 145.054C184.417 147.103 184.42 149.155 184.42 151.209C186.257 151.157 188.108 151.323 189.936 151.111C191.502 150.875 192.636 149.329 192.456 147.766C192.482 146.382 191.314 145.232 189.968 145.121C188.126 144.967 186.269 145.092 184.423 145.054Z" fill="white"/>
<path d="M195.484 143.017C196.298 143.017 197.114 143.017 197.931 143.014C199.361 145.827 200.779 148.646 202.075 151.523C203.386 148.655 204.795 145.833 206.216 143.017C207.015 143.017 207.814 143.017 208.616 143.02C206.826 146.685 204.958 150.314 203.2 153.993C203.107 156.408 203.194 158.832 203.162 161.253C202.424 161.253 201.685 161.253 200.947 161.25C200.95 159.07 200.944 156.888 200.953 154.708C200.959 154.319 200.936 153.918 200.732 153.578C198.971 150.064 197.233 146.539 195.484 143.017Z" fill="white"/>
<mask id="mask0_370_4104" style="mask-type:luminance" maskUnits="userSpaceOnUse" x="40" y="88" width="170" height="48">
<path d="M40 135.526H210V88.5741H40V135.526Z" fill="white"/>
</mask>
<g mask="url(#mask0_370_4104)">
<path d="M198.967 90.2648V117.268L176.412 90.7717C176.134 90.4504 175.734 90.2648 175.306 90.2648H167.509V133.839H177.369V106.387L200.074 133.332C200.345 133.654 200.745 133.839 201.159 133.839H208.849V90.2648H198.967Z" fill="white"/>
<path d="M71.6413 124.356C69.7278 124.97 67.6858 125.284 65.5724 125.284C62.8379 125.284 60.3532 124.72 58.1827 123.606C56.055 122.513 54.3771 120.943 53.2062 118.944C52.0281 116.93 51.4355 114.617 51.4355 112.068C51.4355 109.576 52.0353 107.277 53.2205 105.249C54.4057 103.229 56.0836 101.637 58.2184 100.523C60.3889 99.3946 62.8593 98.8235 65.5724 98.8235C67.7644 98.8235 69.8992 99.1376 71.9198 99.7516C73.2264 100.159 74.5687 100.708 76.0537 101.437C76.1466 101.487 76.118 101.472 76.218 101.522L80.252 93.6685L79.6522 93.3686C77.0248 92.0549 74.5401 91.1124 72.2553 90.5626C69.9706 90.0129 67.6001 89.7344 65.2226 89.7344C60.703 89.7344 56.5691 90.6769 52.9492 92.5475C49.2936 94.4253 46.3805 97.1456 44.2957 100.623C42.2108 104.1 41.1541 108.07 41.1541 112.425C41.1541 116.495 42.1823 120.3 44.2028 123.727C46.2377 127.154 49.0651 129.825 52.6136 131.645C56.1264 133.459 60.1604 134.373 64.6085 134.373C67.643 134.373 70.3419 134.059 72.6337 133.445C74.9114 132.838 77.4389 131.802 80.1449 130.367L80.6232 130.11L77.6031 121.721C75.2684 122.942 73.2549 123.842 71.6413 124.356Z" fill="white"/>
<path d="M122.283 111.713L115.672 111.72L113.344 111.713V113.32V123.672C111.816 124.408 110.403 124.8 109.503 124.979C108.446 125.179 107.311 125.279 106.133 125.279C101.906 125.279 98.4719 124.079 95.923 121.702C93.3598 119.317 92.1175 116.247 92.1175 112.306C92.1175 109.728 92.7101 107.365 93.881 105.28C95.0448 103.217 96.7012 101.61 98.8146 100.511C100.964 99.3897 103.47 98.8256 106.254 98.8256C110.031 98.8256 113.908 99.6824 117.821 101.353L121.841 93.4993L121.262 93.2351C116.214 90.9147 111.045 89.7295 105.905 89.7295C101.421 89.7295 97.2939 90.6862 93.6311 92.5783C89.9398 94.4775 87.0196 97.1835 84.949 100.625C82.8856 104.059 81.8361 107.95 81.8361 112.184C81.8361 116.361 82.8713 120.202 84.9205 123.601C86.9696 127 89.8613 129.677 93.5097 131.555C97.1368 133.425 101.228 134.375 105.669 134.375C108.789 134.375 111.831 133.954 114.715 133.133C117.628 132.304 120.163 131.126 122.255 129.641L122.712 129.313V112.149C122.712 111.906 122.519 111.713 122.283 111.713Z" fill="white"/>
<path d="M160.09 90.2648H124.955V98.7041H139.142V133.839H149.323V98.7041H163.217V93.0493V90.7003V90.2648H162.782H160.09Z" fill="white"/>
</g>
</svg>
