<svg width="250" height="250" viewBox="0 0 250 250" fill="none" xmlns="http://www.w3.org/2000/svg">
<rect width="250" height="250" fill="#BFAE62"/>
<path d="M76.9282 134.798L79.995 143.273C79.995 143.273 72.9866 147.625 63.9736 147.625C48.2146 147.625 40 136.72 40 125.191C40 113.626 48.433 102.387 64.394 102.387C73.168 102.387 79.6896 106.358 79.6896 106.358L75.5158 114.362C75.5158 114.362 70.7163 111.588 64.9412 111.588C55.9965 111.588 50.4346 117.365 50.4346 125.089C50.4346 132.28 55.5549 138.384 64.7024 138.384C71.2433 138.384 76.9282 134.798 76.9282 134.798Z" fill="white"/>
<path d="M81.2407 125.139C81.2407 112.527 90.8429 102.375 105.688 102.375C114.646 102.375 121.803 106.25 121.803 106.25L117.674 114.158C117.674 114.158 112.388 111.601 106.196 111.601C96.5917 111.601 91.6964 117.696 91.6964 125.328C91.6964 132.738 96.741 138.393 105.948 138.393C110.035 138.393 113.202 136.803 113.202 136.803V124.683H122.252C122.517 124.683 122.737 124.879 122.737 125.168V142.459C122.737 142.459 116.756 147.598 105.292 147.598C91.422 147.598 81.2407 138.272 81.2407 125.139Z" fill="white"/>
<path d="M139.381 146.983V111.432H124.999V102.948H163.783V111.432H149.643V146.983H139.381Z" fill="white"/>
<path d="M168.146 146.983V102.948H175.848C176.853 102.948 177.083 103.474 177.519 103.998L199.981 130.317V102.948H210V146.983H202.251C201.337 146.983 201.074 146.517 200.466 145.852L178.068 119.188V146.983H168.146Z" fill="white"/>
</svg>
