<svg width="250" height="250" viewBox="0 0 250 250" fill="none" xmlns="http://www.w3.org/2000/svg">
<rect width="250" height="250" fill="#010101"/>
<path d="M162.628 118.527L163.772 123.356L160.092 123.807L162.628 118.527ZM210 96L204.56 134.769L40 155L45.4398 116.231L210 96ZM186.924 117.646L194.408 106.726L186.605 107.683L183.12 113.081L180.223 108.467L172.94 109.362L178.844 118.347L172.101 128.192L167.056 110.119L160.383 110.937L149.656 131.383L152.407 111.888L145.013 112.797L139.663 120.65L136.379 113.858L129.733 114.677L126.795 135.504L133.385 134.7L134.833 124.369L138.416 131.21L138.534 131.196L144.216 123.217L142.768 133.541L148.921 132.785L149.469 132.722L156.26 131.883L157.688 128.962L164.735 128.095L165.407 130.759L170.799 130.1L172.579 129.878L178.594 129.142L182.69 122.843L185.85 128.247L193.126 127.352L186.924 117.646ZM115.964 124.057L116.255 121.948L126.823 120.65L127.64 114.934L110.455 117.043L107.523 137.877L124.688 135.768L125.485 130.051L114.931 131.349L115.264 129.087L125.104 127.88L125.804 122.85L115.964 124.057ZM85.2719 140.611L91.9521 139.792L93.4282 129.434L99.4293 138.869L105.417 138.134L108.355 117.306L101.681 118.125L100.268 128.067L94.5092 119.006L88.2101 119.783L85.2719 140.611ZM86.1381 120.033L79.4093 120.859L76.4711 141.693L83.1999 140.867L86.1381 120.033ZM57.5599 140.43C57.3659 142.29 59.2716 143.816 61.787 143.511H61.8009L74.3506 141.964L75.2169 136.143L66.6864 137.19C65.5568 137.329 64.5381 136.975 64.7391 135.518L65.4875 130.239C65.7093 128.56 67.1299 128.109 68.6128 127.928L76.5196 126.964L77.3512 121.122L63.4502 122.836C61.5099 123.072 60.0061 124.307 59.5557 126.131L57.5599 140.43Z" fill="white"/>
</svg>
