<svg width="250" height="250" viewBox="0 0 250 250" fill="none" xmlns="http://www.w3.org/2000/svg">
<rect width="250" height="250" fill="#010101"/>
<path d="M111.638 134.424L112.299 129.668L103.497 130.746L103.777 128.863L111.981 127.854L112.567 123.671L104.363 124.674L104.606 122.916L113.415 121.832L114.094 117.075L99.7689 118.833L97.3191 136.182L111.638 134.424Z" fill="white"/>
<path d="M84.3399 137.776L85.568 129.149L90.5799 137.01L95.5731 136.399L98.0167 119.05L92.45 119.73L91.2781 128.008L86.4781 120.465L81.2231 121.114L78.7732 138.462L84.3399 137.776Z" fill="white"/>
<path d="M143.269 120.07L144.229 124.09L141.155 124.464L143.269 120.07ZM118.888 133.534L120.098 124.932L123.084 130.636L123.183 130.623L127.915 123.972L126.712 132.574L131.842 131.945L132.297 131.889L137.964 131.19L139.148 128.759L145.026 128.036L145.594 130.255L150.082 129.701L151.566 129.52L156.584 128.903L160 123.666L162.63 128.167L168.702 127.419L163.528 119.334L169.768 110.239L163.266 111.037L160.355 115.531L157.937 111.691L151.865 112.433L156.789 119.914L151.173 128.117L146.965 113.063L141.398 113.748L132.459 130.773L134.747 114.54L128.582 115.294L124.125 121.834L121.388 116.18L115.84 116.859L113.396 134.207L118.888 133.534Z" fill="white"/>
<path d="M59.19 140.873C59.1962 140.873 59.1962 140.873 59.1962 140.873L69.6689 139.589L70.392 134.739L63.2731 135.612C62.3318 135.73 61.484 135.431 61.6523 134.215L62.2756 129.821C62.4627 128.418 63.6408 128.05 64.8813 127.895L71.4704 127.09L72.1686 122.228L60.5738 123.656C58.9593 123.849 57.7063 124.884 57.3261 126.398L55.6679 138.305C55.5058 139.857 57.0892 141.129 59.19 140.873Z" fill="white"/>
<path d="M77.0458 138.672L79.4956 121.324L73.879 122.009L71.4292 139.358L77.0458 138.672Z" fill="white"/>
<path d="M197.981 120.741L197.346 125.142L182.385 126.974L182.995 122.798L191.822 115.367C193.331 114.058 193.774 113.185 193.661 112.294C193.549 111.353 192.826 110.835 191.642 110.985C190.295 111.147 188.924 112.244 187.646 113.852L184.205 111.022C185.907 108.622 188.226 106.802 191.573 106.397C195.669 105.892 198.474 107.818 198.867 110.973C199.147 113.291 198.249 115.342 194.709 118.16L190.463 121.663L197.981 120.741ZM172.323 133.352L41.1781 149.846L45.4981 119.145L176.637 102.65L172.323 133.352ZM177.479 101.516V101.528L44.6005 118.241L40 151.012L172.922 134.293V134.299L205.431 130.291L210 98L177.479 101.516Z" fill="white"/>
</svg>
