<svg width="250" height="250" viewBox="0 0 250 250" fill="none" xmlns="http://www.w3.org/2000/svg">
<rect width="250" height="250" fill="url(#paint0_linear_266_148)"/>
<path d="M81.3967 144.307L75.1102 137.949C74.1534 138.821 73.287 139.547 72.362 140.225C70.0267 141.937 68.0697 142.571 66.6309 142.879C65.595 143.101 64.4967 143.209 63.319 143.209C60.5725 143.209 58.247 142.379 56.4472 141.202C55.2622 140.425 54.2153 139.455 53.3496 138.333C50.8107 135.038 50.3235 131.383 50.3235 129.128V129.001C50.3235 127.055 50.6914 124.244 52.2729 121.5C53.2752 119.761 54.8509 117.869 57.3038 116.537C58.8454 115.7 60.8733 115.035 63.319 115.035C64.2033 115.035 65.0857 115.115 65.9557 115.273C66.6833 115.406 67.5682 115.622 68.6012 116.03C69.8385 116.519 70.9794 117.168 72.0143 117.88C73.0493 118.592 73.978 119.368 74.7918 120.103L81.0733 112.857C80.8559 112.633 79.5268 111.288 77.7368 110.035C76.1394 108.893 74.5185 108.084 72.9931 107.506C71.4162 106.909 69.8538 106.536 68.4081 106.304C66.3735 105.977 64.6446 105.933 63.3836 105.933C62.333 105.933 61.3461 105.987 60.3618 106.099C56.7046 106.516 53.5401 107.708 51.0012 109.224C48.5115 110.707 46.3371 112.664 44.6013 114.985C42.5262 117.755 41.1175 120.975 40.4479 124.425C40.1514 125.954 40 127.47 40 129.128V129.257C40 131.698 40.3596 134.903 41.7266 138.271C42.9587 141.305 44.6855 143.729 46.534 145.602C47.8978 146.984 49.8151 148.569 52.3416 149.84C53.8938 150.62 55.788 151.374 58.2123 151.854C59.7885 152.166 61.3914 152.323 62.9982 152.323C64.9558 152.323 67.0564 152.141 68.8079 151.778C70.5593 151.415 72.2506 150.867 73.7244 150.163C76.0714 149.041 78.5379 147.375 81.3967 144.307Z" fill="white"/>
<path d="M84.1136 106.695V151.547H93.861V123.353L122.055 151.547H128.965V144.668L93.916 109.619L93.8103 109.501L91.0065 106.695H84.1136Z" fill="white"/>
<path d="M128.952 106.695V144.664L135.834 151.547L150.288 151.55C152.809 151.55 155.094 151.298 157.165 150.785C159.237 150.273 161.021 149.491 162.495 148.467C163.266 147.93 164.176 147.151 164.981 146.074C165.622 145.218 166.121 144.264 166.46 143.249C166.871 142.026 167.078 140.666 167.078 139.224V139.153C167.078 138.304 167.022 137.079 166.684 135.772C166.468 134.935 166.138 134.08 165.642 133.243C165.269 132.614 164.823 132.033 164.311 131.511C163.45 130.63 162.33 129.801 160.878 129.058C160.168 128.697 159.439 128.375 158.694 128.095C159.485 127.678 160.281 127.092 160.703 126.757C163.11 124.845 163.813 122.73 164.061 121.97C164.382 120.988 164.581 119.802 164.581 118.428V118.299C164.581 117.12 164.424 116.014 164.12 114.986C163.839 114.04 163.417 113.142 162.868 112.322C162.247 111.389 161.478 110.564 160.607 109.871C159.056 108.634 157.183 107.772 154.966 107.253C153.03 106.801 151.158 106.695 149.688 106.695H128.952ZM138.568 115.358H148.301C148.867 115.358 149.934 115.379 151.044 115.659C152.489 116.024 153.826 116.772 154.436 118.211C154.646 118.705 154.768 119.282 154.768 119.965V120.094C154.768 121.801 154.041 122.845 153.136 123.508C151.503 124.703 149.004 124.831 147.662 124.831H138.568V115.358ZM138.568 133.042H150.025C151.186 133.042 152.248 133.137 153.246 133.376C154.44 133.662 155.451 134.15 156.163 134.907C157.03 135.827 157.27 136.948 157.27 137.905V138.035C157.27 138.779 157.129 139.45 156.861 140.032C156.274 141.306 155.127 142.017 153.9 142.409C152.88 142.735 151.634 142.896 150.23 142.897H138.568V133.042Z" fill="white"/>
<path d="M210 144.307L203.714 137.949C202.757 138.821 201.89 139.547 200.965 140.225C198.63 141.937 196.673 142.571 195.234 142.879C194.198 143.101 193.1 143.209 191.922 143.209C189.176 143.209 186.85 142.379 185.051 141.202C183.866 140.425 182.819 139.455 181.953 138.333C179.414 135.038 178.927 131.383 178.927 129.128V129.001C178.927 127.055 179.295 124.244 180.876 121.5C181.879 119.761 183.454 117.869 185.907 116.537C187.449 115.7 189.477 115.035 191.922 115.035C192.807 115.035 193.689 115.115 194.559 115.273C195.287 115.406 196.172 115.622 197.204 116.03C198.442 116.519 199.583 117.168 200.617 117.88C201.652 118.592 202.581 119.368 203.395 120.103L209.677 112.857C209.459 112.633 208.13 111.288 206.34 110.035C204.743 108.893 203.122 108.084 201.596 107.506C200.02 106.909 198.457 106.536 197.011 106.304C194.977 105.977 193.248 105.933 191.987 105.933C190.936 105.933 189.949 105.987 188.965 106.099C185.308 106.516 182.143 107.708 179.605 109.224C177.115 110.707 174.94 112.664 173.204 114.985C171.13 117.755 169.721 120.975 169.052 124.425C168.755 125.954 168.603 127.47 168.603 129.128V129.257C168.603 131.698 168.963 134.903 170.33 138.271C171.562 141.305 173.289 143.729 175.137 145.602C176.501 146.984 178.418 148.569 180.945 149.84C182.497 150.62 184.391 151.374 186.816 151.854C188.392 152.166 189.995 152.323 191.602 152.323C193.559 152.323 195.66 152.141 197.411 151.778C199.163 151.415 200.854 150.867 202.328 150.163C204.675 149.041 207.141 147.375 210 144.307Z" fill="white"/>
<path d="M122.822 129.858V98H90.9689L122.822 129.858Z" fill="#0076FF"/>
<defs>
<linearGradient id="paint0_linear_266_148" x1="125" y1="0" x2="125" y2="260" gradientUnits="userSpaceOnUse">
<stop stop-color="#004ADE"/>
<stop offset="1" stop-color="#002579"/>
</linearGradient>
</defs>
</svg>
