<svg width="250" height="250" viewBox="0 0 250 250" fill="none" xmlns="http://www.w3.org/2000/svg">
<rect width="250" height="250" fill="#CC0000"/>
<path d="M91.8631 85.8267V95.5008H79.1651C71.06 95.5008 63.6791 98.7996 58.3301 104.139C52.9811 109.479 49.6641 116.86 49.6641 125.001C49.6641 133.147 52.9799 140.528 58.3285 145.866C63.677 151.205 71.0583 154.501 79.1651 154.501H103.618C106.859 154.501 109.579 151.667 109.579 148.547V100.378C109.579 99.2155 110.282 98.4175 111.146 98.1824C112.292 97.8707 113.472 98.5718 114.268 99.944L144.278 151.672C145.929 154.519 148.625 155.588 151.038 154.932C153.262 154.328 154.986 152.283 154.986 149.621V100.378C154.986 99.2155 155.673 98.4175 156.536 98.1824C157.694 97.8673 158.854 98.6044 159.631 99.944L189.641 151.672C191.259 154.461 193.933 155.603 196.401 154.932C198.641 154.323 200.349 152.263 200.349 149.621V85.8267H210V149.897C209.998 164.517 191.105 171.535 181.107 154.553C180.386 153.325 164.661 126.234 164.637 126.193V149.897C164.637 164.517 145.743 171.535 135.745 154.553C135.021 153.324 119.294 126.228 119.274 126.193V148.536C119.284 158.68 113.248 164.18 103.864 164.173H79.174C57.5393 164.173 40 146.635 40 125.001C40 103.365 57.5393 85.8267 79.174 85.8267H91.8631Z" fill="white"/>
<path d="M110.868 85.5335C116.002 85.61 121.532 88.5481 125.594 95.4473C126.317 96.6754 142.039 123.761 142.066 123.808V100.103C142.066 85.4834 160.958 78.4647 170.957 95.4473C171.68 96.6762 187.418 123.788 187.429 123.808V85.8267H197.123V149.621C197.123 150.864 196.338 151.606 195.555 151.819C194.559 152.09 193.343 151.624 192.431 150.053L162.425 98.3308C160.785 95.5047 158.108 94.4114 155.689 95.0695C153.381 95.6977 151.76 97.8043 151.76 100.378V149.621C151.76 150.857 150.983 151.604 150.192 151.819C149.164 152.099 147.957 151.586 147.068 150.053L117.062 98.3308C115.405 95.4748 112.694 94.4175 110.299 95.0695C107.99 95.6977 106.352 97.8043 106.352 100.378V148.547C106.352 149.865 105.093 151.275 103.618 151.275H79.1651C71.9326 151.275 65.3701 148.335 60.6095 143.585C55.8489 138.834 52.8901 132.271 52.8901 125.001C52.8901 117.736 55.8494 111.173 60.6107 106.421C65.3719 101.668 71.9352 98.727 79.1651 98.7269H91.8631V108.4H79.2688C70.1016 108.4 62.6676 115.832 62.6676 125C62.6676 134.168 70.1015 141.601 79.2688 141.601H94.0985C95.6447 141.599 96.7074 140.368 96.7026 138.955V100.103C96.7033 91.4226 103.364 85.4218 110.868 85.5335Z" fill="white"/>
</svg>
