<svg width="250" height="250" viewBox="0 0 250 250" fill="none" xmlns="http://www.w3.org/2000/svg">
<rect width="250" height="250" fill="#102B34"/>
<path d="M48.8008 107.378H40V142.642H48.8008V107.378Z" fill="white"/>
<path d="M93.511 142.662L82.6716 107.378H91.7146L98.3151 132.267H98.4564L105.259 107.378H113.616L102.493 142.662H93.511Z" fill="white"/>
<path d="M114.928 142.642V107.378H139.352V114.544H123.708V121.286H137.838V128.391H123.708V135.416H139.453V142.642H114.928Z" fill="white"/>
<path d="M158.366 103.987V68.7034H182.79V75.8893H167.167V82.611H181.276V89.7364H167.167V96.7608H182.891V103.987H158.366Z" fill="white"/>
<path d="M140.179 136.869L145.73 131.863C147.547 134.427 150.938 136.324 154.612 136.324C157.256 136.324 160.102 135.476 160.102 133.014C160.102 130.834 158.326 130.046 156.166 129.461L150.131 127.886C145.367 126.595 141.834 123.829 141.834 118.137C141.834 111.557 147.426 106.813 155.197 106.813C161.394 106.813 165.068 108.347 168.156 112.162L162.605 117.007C160.889 114.786 157.942 113.737 155.197 113.737C152.634 113.737 150.433 114.625 150.433 117.047C150.433 119.086 152.553 119.772 155.197 120.458L160.708 121.952C165.714 123.244 169.105 126.251 169.105 131.742C169.105 139.412 162.222 143.268 155.015 143.268C148.879 143.247 143.51 141.552 140.179 136.869Z" fill="white"/>
<path d="M179.419 114.443H168.762V107.378H198.878V114.443H188.22V142.642H179.419V114.443Z" fill="white"/>
<path d="M210 107.378H201.199V142.642H210V107.378Z" fill="white"/>
<path d="M72.579 107.378V126.453L60.0843 107.398H51.5863V142.662H60.3871V122.84L73.2249 142.662H81.3797V107.398V107.378H72.579Z" fill="white"/>
<path d="M209.98 85.2553H196.738V72.0743H194.538V85.2553H181.276V87.4353H194.538V100.616H196.738V87.4353H209.98V85.2553Z" fill="#E51B2E"/>
<path d="M108.832 153.058H98.1738V145.993H128.29V153.058H117.632V181.256H108.832V153.058Z" fill="white"/>
<path d="M40 169.165V158.386C40 149.727 46.9841 145.427 54.7352 145.427C61.5175 145.427 69.0667 148.637 69.0667 156.852V158.144H60.811V157.458C60.811 153.804 57.6621 152.452 54.9573 152.452C51.9093 152.452 48.7604 154.087 48.7604 158.084V168.963C48.7604 172.577 51.3643 174.797 54.9573 174.797C58.2071 174.797 60.6495 173.323 60.6495 169.609V168.721H53.5847V162.181H69.0667V170.296C69.0667 178.41 61.6991 181.882 54.9169 181.882C47.1658 181.882 40 177.966 40 169.165Z" fill="white"/>
<path d="M141.491 146.013H132.691V181.277H141.491V146.013Z" fill="white"/>
<path d="M145.549 168.963V158.77C145.549 149.808 152.815 145.407 160.324 145.407C168.136 145.407 175.362 149.606 175.362 158.709V168.499C175.362 177.704 167.853 181.862 160.526 181.862C152.654 181.882 145.549 178.067 145.549 168.963ZM166.561 168.822V158.386C166.561 154.672 163.655 152.654 160.365 152.654C157.216 152.654 154.329 154.329 154.329 158.447V168.782C154.329 172.536 156.933 174.615 160.526 174.615C163.614 174.615 166.561 172.819 166.561 168.822Z" fill="white"/>
<path d="M201.199 146.013V165.088L187.917 146.033H179.419V181.297H188.22V161.455L201.825 181.297H209.98V146.033V146.013H201.199Z" fill="white"/>
<path d="M81.2182 145.972H90.6044L102.877 181.297H93.8946L91.7751 174.716H79.2603L77.1005 181.297H68.8043L81.2182 145.972ZM89.6153 167.772L85.5782 155.015H85.437L81.3797 167.772H89.6153Z" fill="white"/>
<path d="M40 91.8559V81.077C40 72.4175 46.9841 68.118 54.7352 68.118C61.5175 68.118 68.9254 71.5899 68.9254 79.7447V81.3797H60.6697V80.5925C60.6697 76.8784 57.5813 75.3444 54.8765 75.3444C51.7882 75.3444 48.7806 76.9794 48.7806 80.976V91.654C48.7806 95.2672 51.3845 97.3463 54.9774 97.3463C57.6823 97.3463 60.6697 95.7718 60.6697 92.0981V91.2503H68.9254V92.9862C68.9254 101.101 61.6991 104.552 54.9371 104.552C47.2263 104.573 40 100.677 40 91.8559Z" fill="white"/>
<path d="M72.579 68.7034H87.8996C95.8526 68.7034 100.414 73.3056 100.414 79.8254C100.414 84.1249 98.3555 88.3436 93.834 90.2208L101.848 103.967H92.2798L85.3562 91.4925H81.3797V103.967H72.579V68.7034ZM86.7692 84.9928C89.9585 84.9928 91.8761 83.156 91.8761 80.2897C91.8761 77.2821 89.9181 75.6471 86.7692 75.6471H81.3797V84.9928H86.7692Z" fill="white"/>
<path d="M113.656 68.7034H104.855V103.967H113.656V68.7034Z" fill="white"/>
<path d="M118.076 68.7034H128.977L136.102 86.9104H136.203L143.167 68.7034H153.925V103.987H145.831V81.521H145.73L139.049 99.2436H133.014L126.272 81.5815H126.191V103.987H118.076V68.7034Z" fill="white"/>
</svg>
