<svg width="250" height="250" viewBox="0 0 250 250" fill="none" xmlns="http://www.w3.org/2000/svg">
<rect width="250" height="250" fill="url(#paint0_radial_270_352)"/>
<path d="M174.838 93.5582C169.852 90.9396 164.45 89.2055 158.871 88.433L147.39 86.2988C143.656 85.7788 140.038 84.6306 136.688 82.9028C135.723 82.4368 134.876 81.7591 134.21 80.9202C133.544 80.0814 133.075 79.103 132.84 78.058L132.591 76.3288C132.457 75.1614 132.666 73.9803 133.191 72.9292C133.717 71.8782 134.536 71.0027 135.551 70.4092C137.84 68.7423 141.423 67.9167 146.284 67.8855C150.227 67.842 154.162 68.2444 158.014 69.085C163.58 70.3089 168.949 72.3012 173.966 75.0047C174.153 75.7213 174.278 76.5625 174.309 76.6871C174.574 78.2449 176.053 89.025 177.05 95.007C176.352 94.4671 175.612 93.9827 174.838 93.5582ZM169.215 117.642C166.504 119.994 162.236 121.677 156.394 122.658C152.241 123.362 147.993 123.283 143.869 122.424C138.252 120.973 132.928 118.559 128.135 115.29L119.895 121.614C126.602 126.372 134.035 130.013 141.906 132.394C134.631 132.831 128.338 133.173 121.234 133.485C123.517 132.274 125.663 130.822 127.637 129.154C124.308 127.356 121.098 125.348 118.025 123.141C113.427 126.625 108.008 128.862 102.291 129.637C96.0601 130.696 91.1218 129.84 87.6791 126.973C84.2363 124.107 82.2735 119.293 81.775 112.641L80.2172 89.9597C79.7654 83.2299 81.0116 77.9957 83.9871 74.3816C86.9625 70.7675 91.2464 68.8825 97.135 68.8825C100.26 68.8352 103.372 69.309 106.342 70.2845C110.256 71.7741 114.039 73.5875 117.651 75.7057C117.632 72.0465 118.95 68.5062 121.359 65.7513C118.464 63.6558 115.292 61.9728 111.934 60.7508C124.724 58.897 135.66 57.0899 151.362 55.1894C154.91 54.7913 158.502 55.2786 161.816 56.608C165.13 57.9373 168.063 60.0672 170.352 62.8071C167.642 61.7782 164.862 60.9452 162.033 60.3146C156.884 59.069 151.596 58.4879 146.299 58.5854C141.19 58.5925 136.12 59.4832 131.313 61.2181C127.666 62.4579 124.503 64.8188 122.278 67.9634C120.395 70.7564 119.602 74.1432 120.05 77.4816L120.362 79.943C121.483 88.7757 128.821 94.5396 142.452 97.0789L155.272 99.2286C159.043 99.5721 162.729 100.546 166.177 102.111C168.218 103.263 171.692 106.021 172.175 108.342L172.626 110.601C173.125 113.015 172.019 115.274 169.339 117.689M186.475 109.354C184.917 98.0759 182.799 87.9968 181.599 76.7806C179.699 60.3457 166.037 48.335 150.739 50.1888C127.746 52.9617 115.003 55.5477 91.9475 58.305C76.8835 60.1276 64.421 72.5745 64.2964 86.2832V114.168C64.2964 128.079 78.3166 140.277 94.2842 139.56C105.672 139.062 153.668 136.632 162.454 135.884C178.826 134.513 188.718 126.381 186.319 109.386" fill="#FAC02B"/>
<path d="M64 157.624H90.5558V166.777H75.1283V173.675H88.7438V183.111H75.1283V200H64V157.624ZM94.9062 157.624H106.035V200H94.9062V157.624ZM111.009 157.624H122.146V188.82H137.394V200H111.009V157.624ZM164.12 173.333L181.36 157.624H186.386V200H175.197V178.248L164.12 188.367L152.992 178.307V200H141.804V157.624H146.83L164.12 173.333Z" fill="#A5A4A4"/>
<defs>
<radialGradient id="paint0_radial_270_352" cx="0" cy="0" r="1" gradientUnits="userSpaceOnUse" gradientTransform="translate(125 125) rotate(90) scale(148.5)">
<stop stop-color="#520000"/>
<stop offset="1" stop-color="#250000"/>
</radialGradient>
</defs>
</svg>
