<svg width="250" height="250" viewBox="0 0 250 250" fill="none" xmlns="http://www.w3.org/2000/svg">
<g clip-path="url(#clip0_270_441)">
<rect width="250" height="125" fill="url(#paint0_radial_270_441)"/>
<rect y="125" width="250" height="125" fill="url(#paint1_radial_270_441)"/>
<path d="M92.1607 61.5535C89.8079 60.3179 87.2586 59.4996 84.6262 59.1351L79.2087 58.1281C77.447 57.8827 75.7396 57.3409 74.1588 56.5256C73.7036 56.3057 73.304 55.9859 72.9896 55.5901C72.6753 55.1943 72.4543 54.7326 72.3431 54.2395L72.2255 53.4236C72.1624 52.8727 72.2609 52.3154 72.5088 51.8195C72.7568 51.3235 73.1436 50.9104 73.6222 50.6303C74.7027 49.8438 76.3934 49.4542 78.6868 49.4395C80.5473 49.419 82.4041 49.6088 84.2219 50.0055C86.8484 50.583 89.3817 51.5231 91.749 52.7988C91.8372 53.1369 91.8961 53.5339 91.9108 53.5927C92.0357 54.3277 92.734 59.4144 93.2045 62.2371C92.8749 61.9824 92.5259 61.7538 92.1607 61.5535ZM89.5071 72.9177C88.228 74.0277 86.2139 74.8215 83.4574 75.2846C81.4978 75.6169 79.4933 75.5795 77.5475 75.1744C74.8968 74.4895 72.3849 73.3505 70.1232 71.8077L66.2347 74.7921C69.3996 77.0373 72.9072 78.7551 76.6213 79.8788C73.1885 80.0846 70.2188 80.2464 66.8669 80.3934C67.9439 79.8218 68.9567 79.1368 69.888 78.3499C68.3175 77.5014 66.8026 76.5537 65.3526 75.5125C63.183 77.1563 60.6257 78.2121 57.9284 78.5777C54.9881 79.0776 52.6579 78.6733 51.0334 77.3208C49.4089 75.9682 48.4827 73.6969 48.2475 70.5581L47.5124 59.8555C47.2993 56.68 47.8873 54.2101 49.2913 52.5048C50.6953 50.7994 52.7167 49.91 55.4953 49.91C56.9701 49.8876 58.4383 50.1112 59.8396 50.5715C61.6865 51.2744 63.4715 52.13 65.1762 53.1296C65.167 51.4029 65.7892 49.7324 66.9257 48.4325C65.5598 47.4436 64.0631 46.6495 62.4785 46.0729C68.5134 45.1981 73.6736 44.3455 81.0831 43.4487C82.7574 43.2608 84.4522 43.4908 86.0159 44.1181C87.5795 44.7453 88.9634 45.7503 90.0437 47.0432C88.7651 46.5577 87.4533 46.1647 86.1184 45.8671C83.6886 45.2793 81.1936 45.0051 78.6942 45.0511C76.283 45.0545 73.8907 45.4748 71.6228 46.2934C69.9017 46.8784 68.4095 47.9924 67.3594 49.4763C66.4709 50.7942 66.0969 52.3923 66.3082 53.9676L66.4552 55.129C66.9845 59.2968 70.4467 62.0166 76.8785 63.2148L82.9282 64.2291C84.7074 64.3912 86.4467 64.8509 88.0737 65.589C89.0366 66.133 90.6758 67.4341 90.9037 68.5293L91.1169 69.5952C91.3521 70.7345 90.8302 71.8004 89.5659 72.9397M97.6517 69.0071C96.9166 63.6852 95.9169 58.9293 95.3509 53.6368C94.4541 45.8818 88.0075 40.2144 80.7891 41.0891C69.9395 42.3975 63.9266 43.6177 53.0475 44.9188C45.9394 45.7789 40.0588 51.6521 40 58.1207V71.2785C40 77.8427 46.6156 83.5983 54.1501 83.2602C59.5235 83.0249 82.1711 81.8782 86.3169 81.5254C94.0425 80.8785 98.7102 77.0414 97.5782 69.0218" fill="#FAC02B"/>
<path d="M104.745 42.5593H127.584V50.4319H114.316V56.3639H126.025V64.4791H114.316V79.0041H104.745V42.5593ZM131.325 42.5593H140.896V79.0041H131.325V42.5593ZM145.174 42.5593H154.752V69.3894H167.866V79.0041H145.174V42.5593ZM190.851 56.0699L205.678 42.5593H210V79.0041H200.378V60.2965L190.851 68.9998L181.281 60.348V79.0041H171.659V42.5593H175.981L190.851 56.0699Z" fill="#A5A4A4"/>
<path d="M74.544 187.591C73.252 186.877 71.62 186.333 69.546 185.993L65.976 185.313C64.48 185.041 63.358 184.667 62.644 184.259C61.93 183.817 61.522 183.307 61.454 182.763L61.386 182.219C61.284 181.505 61.59 180.893 62.304 180.383C63.018 179.873 64.14 179.601 65.67 179.601C66.962 179.601 67.744 179.669 69.342 179.975C70.498 180.179 72.47 180.825 74.34 181.811C74.408 182.049 74.442 182.287 74.442 182.321C74.544 182.831 74.986 186.163 75.292 188.033C75.02 187.897 74.782 187.727 74.544 187.591ZM72.776 195.105C71.926 195.853 70.6 196.363 68.764 196.669C67.608 196.873 66.35 196.907 64.82 196.601C63.29 196.295 60.74 195.037 59.924 194.357L57.34 196.329C59.38 197.757 61.76 198.981 64.208 199.695C61.93 199.831 59.958 199.933 57.748 200.035C58.394 199.729 59.074 199.219 59.754 198.675C58.666 198.165 56.762 196.805 56.762 196.805C54.722 198.301 53.056 198.607 51.832 198.811C49.86 199.151 48.33 198.879 47.276 197.961C46.188 197.077 45.576 195.547 45.44 193.473L44.93 186.401C44.794 184.293 45.168 182.661 46.12 181.505C47.038 180.383 48.398 179.805 50.234 179.805C51.288 179.805 52.24 179.941 53.124 180.247C53.974 180.553 55.776 181.403 56.66 181.947C56.694 181.199 56.796 180.009 57.816 178.853C56.728 178.105 56.014 177.731 54.858 177.289C58.87 176.745 62.27 176.201 67.2 175.589C69.478 175.317 71.654 176.269 73.15 178.003C72.198 177.629 71.212 177.357 70.566 177.221C69.07 176.881 67.54 176.643 65.636 176.677C63.766 176.711 62.236 177.017 60.944 177.493C59.652 178.003 58.7 178.683 58.122 179.601C57.51 180.519 57.306 181.505 57.408 182.559L57.51 183.341C57.85 186.095 60.162 187.897 64.412 188.679L68.424 189.359C70.022 189.597 71.144 189.903 71.79 190.277C72.436 190.651 73.524 191.501 73.66 192.215L73.796 192.929C73.966 193.677 73.626 194.391 72.776 195.105ZM78.114 192.521C77.604 188.985 76.958 185.857 76.584 182.355C76.074 177.221 71.79 173.481 67.03 174.059C59.856 174.943 55.878 175.725 48.67 176.609C43.944 177.153 40.034 181.029 40 185.313C40 188.237 40 191.127 40 194.051C40 198.403 44.386 202.211 49.35 201.973C52.92 201.803 67.914 201.055 70.668 200.817C75.802 200.409 78.896 197.859 78.114 192.521Z" fill="#DAFF00"/>
<path d="M96.882 177.153V185.789H88.484V177.153H82.67V199.525H88.484V190.345H96.882V199.525H102.696V177.153H96.882Z" fill="#A5A5A5"/>
<path d="M109.802 187.965C109.802 191.807 112.658 194.629 116.126 194.629C119.594 194.629 122.45 191.807 122.45 187.965C122.45 184.871 119.594 182.049 116.126 182.049C112.658 182.049 109.802 184.871 109.802 187.965ZM128.502 187.931C128.502 195.173 123.3 200.273 116.126 200.273C108.952 200.273 103.75 195.173 103.75 187.931C103.75 181.165 109.7 176.439 116.126 176.439C122.552 176.439 128.502 181.165 128.502 187.931Z" fill="#A5A5A5"/>
<path d="M135.404 187.183H135.982C137.886 187.183 140.028 186.843 140.028 184.395C140.028 181.981 137.886 181.607 135.982 181.607H135.404V187.183ZM148.188 199.525H140.946L135.472 190.923H135.404V199.525H129.59V177.153H138.26C142.68 177.153 146.012 179.261 146.012 184.021C146.012 187.115 144.278 189.767 141.116 190.345L148.188 199.525Z" fill="#A5A5A5"/>
<path d="M153.968 187.183H154.546C156.45 187.183 158.592 186.843 158.592 184.395C158.592 181.981 156.45 181.607 154.546 181.607H153.968V187.183ZM166.752 199.525H159.51L154.036 190.923H153.968V199.525H148.154V177.153H156.858C161.278 177.153 164.61 179.261 164.61 184.021C164.61 187.115 162.876 189.767 159.714 190.345L166.752 199.525Z" fill="#A5A5A5"/>
<path d="M171.648 187.965C171.648 191.807 174.504 194.629 177.972 194.629C181.44 194.629 184.296 191.807 184.296 187.965C184.296 184.871 181.44 182.049 177.972 182.049C174.47 182.049 171.648 184.871 171.648 187.965ZM190.314 187.931C190.314 195.173 185.112 200.273 177.938 200.273C170.764 200.273 165.562 195.173 165.562 187.931C165.562 181.165 171.512 176.439 177.938 176.439C184.398 176.439 190.314 181.165 190.314 187.931Z" fill="#A5A5A5"/>
<path d="M197.216 187.183H197.76C199.664 187.183 201.806 186.843 201.806 184.395C201.806 181.981 199.664 181.607 197.76 181.607H197.216V187.183ZM210 199.525H202.758L197.284 190.923H197.216V199.525H191.402V177.153H200.106C204.526 177.153 207.858 179.261 207.858 184.021C207.858 187.115 206.124 189.767 202.962 190.345L210 199.525Z" fill="#A5A5A5"/>
</g>
<defs>
<radialGradient id="paint0_radial_270_441" cx="0" cy="0" r="1" gradientUnits="userSpaceOnUse" gradientTransform="translate(125 62.5) rotate(90) scale(87.5 175)">
<stop stop-color="#520000"/>
<stop offset="1" stop-color="#250000"/>
</radialGradient>
<radialGradient id="paint1_radial_270_441" cx="0" cy="0" r="1" gradientUnits="userSpaceOnUse" gradientTransform="translate(125 187.5) rotate(90) scale(87.5 175)">
<stop stop-color="#1F313A"/>
<stop offset="1" stop-color="#070F16"/>
</radialGradient>
<clipPath id="clip0_270_441">
<rect width="250" height="250" fill="white"/>
</clipPath>
</defs>
</svg>
