<svg width="250" height="250" viewBox="0 0 250 250" fill="none" xmlns="http://www.w3.org/2000/svg">
<rect width="250" height="250" fill="url(#paint0_radial_270_373)"/>
<path d="M179.717 97.9175C174.226 95.0347 168.274 93.1319 162.128 92.2945L149.511 89.9459C145.398 89.3673 141.412 88.1041 137.716 86.2087C136.641 85.7072 135.696 84.9658 134.953 84.0414C134.21 83.1171 133.689 82.0345 133.43 80.8771L133.139 78.9742C132.996 77.688 133.229 76.3877 133.81 75.2314C134.391 74.075 135.296 73.1122 136.413 72.4598C138.933 70.6254 142.876 69.7168 148.208 69.6826C152.553 69.6338 156.889 70.0766 161.134 71.0026C167.258 72.3522 173.166 74.5445 178.689 77.517C178.877 78.3056 179.014 79.1456 179.049 79.3514C179.357 81.1686 180.986 92.946 182.066 99.529C181.324 98.9342 180.539 98.3955 179.717 97.9175ZM173.494 124.438C170.511 127.027 165.831 128.878 159.402 129.958C154.815 130.74 150.123 130.653 145.568 129.701C139.402 128.087 133.558 125.432 128.287 121.85L119.236 128.707C126.614 133.951 134.795 137.964 143.459 140.587C135.436 141.067 128.51 141.444 120.693 141.787C123.206 140.487 125.573 138.924 127.756 137.124C124.093 135.145 120.56 132.935 117.179 130.507C112.107 134.319 106.137 136.758 99.8467 137.587C92.9894 138.753 87.555 137.81 83.7663 134.656C79.9777 131.501 77.8176 126.204 77.269 118.884L75.5547 93.9231C75.0404 86.5173 76.429 80.7571 79.7034 76.7799C82.9777 72.8026 87.7607 70.7969 94.2066 70.7797C97.6461 70.7276 101.07 71.2491 104.338 72.3226C108.644 73.9652 112.807 75.9606 116.784 78.2885C116.747 74.2587 118.2 70.3573 120.864 67.3339C117.66 64.9737 114.14 63.0751 110.407 61.6938C124.499 59.7052 136.516 57.7166 153.814 55.6251C157.726 55.1971 161.683 55.7467 165.33 57.2248C168.978 58.7029 172.201 61.0631 174.711 64.0939C171.728 62.9662 168.669 62.0497 165.557 61.3509C159.89 59.9824 154.072 59.3372 148.242 59.4309C142.607 59.4464 137.017 60.4323 131.716 62.3452C127.7 63.7054 124.219 66.3043 121.773 69.7683C119.693 72.8386 118.82 76.5685 119.321 80.2428L119.647 82.9343C120.882 92.6717 128.973 99.0147 143.956 101.792L158.082 104.141C162.197 104.537 166.218 105.615 169.98 107.329C172.243 108.598 176.066 111.632 176.58 114.186L177.077 116.672C177.626 119.329 176.409 121.901 173.46 124.472M192.318 115.301C190.586 102.838 188.289 91.7631 186.969 79.4199C185.032 61.3852 169.997 48.1678 153.179 50.2078C127.859 53.2593 113.836 56.1051 88.4636 59.1395C71.8689 61.1452 58.0857 74.8427 58 89.9116V120.615C58 135.924 73.4289 149.347 91.0008 148.559C103.515 148.01 156.351 145.336 166.02 144.513C184.072 143.004 194.958 134.056 192.318 115.267" fill="#ECA022"/>
<path d="M58.0673 169.462H64.6247V181.184H71.0513V169.462H77.6086V199.379H71.0513V187.206H64.6247V199.379H58.0673V169.462ZM81.2894 169.462H87.8467V199.372H81.2894V169.462Z" fill="#A5A4A4"/>
<path d="M109.317 177.307V179.02H103.178V177.458C103.178 175.614 102.367 174.267 100.21 174.267C98.1764 174.267 97.2938 175.392 97.2938 176.961C97.2746 177.431 97.3656 177.9 97.5598 178.329C97.7539 178.758 98.0456 179.136 98.4117 179.432C99.7169 180.432 101.134 181.277 102.635 181.949C104.623 182.929 106.419 184.257 107.937 185.872C109.016 187.179 109.552 189.01 109.552 191.35C109.552 196.581 106.185 199.974 99.9416 199.974C96.5746 199.974 94.1949 199.163 92.75 197.594C91.2844 195.938 90.5119 193.782 90.5926 191.573V189.448H96.7904V190.978C96.7904 193.174 97.7318 194.567 100.059 194.567C102.171 194.567 103.158 193.488 103.158 191.743C103.178 191.267 103.096 190.792 102.918 190.35C102.74 189.908 102.47 189.509 102.125 189.18C100.766 188.139 99.289 187.262 97.7253 186.565C93.0116 184.192 90.8541 181.884 90.8541 177.307C90.8302 176.204 91.0286 175.107 91.4374 174.081C91.8462 173.056 92.4572 172.123 93.2338 171.338C94.8094 169.684 97.1434 168.88 100.197 168.88C106.623 168.88 109.349 172.424 109.349 177.275" fill="#A5A4A4"/>
<path d="M110.082 169.462H128.766V175.529H122.752V199.379H116.149V175.529H110.082V169.462Z" fill="#A5A4A4"/>
<path d="M136.357 178.805V190.03C136.357 192.861 137.619 194.208 139.73 194.208C141.842 194.208 143.058 192.861 143.058 190.03V178.805C143.058 175.974 141.75 174.627 139.737 174.627C137.723 174.627 136.363 175.974 136.363 178.805M149.746 178.981V189.853C149.746 196.228 145.66 200 139.737 200C133.814 200 129.721 196.228 129.721 189.853V178.981C129.714 172.607 133.801 168.808 139.73 168.808C145.66 168.808 149.74 172.581 149.74 178.955M159.311 174.692V183.388H161.56C163.756 183.388 164.698 182.263 164.698 180.243V177.909C164.698 175.882 163.756 174.719 161.56 174.719L159.311 174.692ZM159.311 188.572V199.372H152.773V169.462H163.103C168.267 169.462 171.321 172.515 171.321 177.308V180.72C171.321 183.911 169.928 186.336 167.548 187.591L171.994 199.359H165.195L161.2 188.585L159.311 188.572Z" fill="#A5A4A4"/>
<path d="M171.262 169.462H178.225L182.219 181.459L186.259 169.462H192.778L185.233 187.971V199.379H178.63V187.971L171.262 169.462Z" fill="#A5A4A4"/>
<defs>
<radialGradient id="paint0_radial_270_373" cx="0" cy="0" r="1" gradientUnits="userSpaceOnUse" gradientTransform="translate(125 125) rotate(90) scale(148.5)">
<stop stop-color="#00254A"/>
<stop offset="1" stop-color="#00122E"/>
</radialGradient>
</defs>
</svg>
