<svg width="250" height="250" viewBox="0 0 250 250" fill="none" xmlns="http://www.w3.org/2000/svg">
<rect width="250" height="250" fill="url(#paint0_radial_270_357)"/>
<path d="M184.94 100.697C179.931 97.9288 173.603 95.8195 165.561 94.5012L151.719 91.8646C145.918 90.8099 141.568 89.3598 138.799 87.7778C136.031 86.064 134.449 84.0865 134.185 81.9772L133.922 79.868C133.526 77.0995 134.713 74.7265 137.481 72.7491C140.25 70.7716 144.6 69.717 150.532 69.717C155.542 69.717 158.574 69.9806 164.77 71.1671C169.252 71.9581 176.899 74.4629 184.149 78.286C184.413 79.2088 184.545 80.1316 184.545 80.2634C184.94 82.2409 186.654 95.1603 187.841 102.411C186.786 101.884 185.863 101.225 184.94 100.697ZM178.085 129.832C174.789 132.732 169.648 134.71 162.529 135.896C158.047 136.687 153.169 136.819 147.237 135.632C141.304 134.446 131.417 129.568 128.253 126.932L118.234 134.578C126.144 140.115 135.372 144.861 144.864 147.629C136.031 148.156 128.385 148.552 119.816 148.947C122.321 147.761 124.957 145.783 127.594 143.674C123.375 141.697 115.993 136.423 115.993 136.423C108.083 142.224 101.623 143.41 96.8772 144.201C89.231 145.52 83.2986 144.465 79.2118 140.906C74.9932 137.478 72.6203 131.546 72.093 123.504L70.1155 96.0832C69.5882 87.9096 71.0383 81.5818 74.7296 77.0995C78.289 72.7491 83.5623 70.508 90.6811 70.508C94.7679 70.508 98.4592 71.0353 101.887 72.2218C105.183 73.4082 112.17 76.704 115.597 78.8133C115.729 75.913 116.125 71.2989 120.079 66.8167C115.861 63.9164 113.092 62.4663 108.61 60.7525C124.166 58.6432 137.349 56.5339 156.465 54.1609C165.297 53.1063 173.735 56.7975 179.535 63.5209C175.844 62.0708 172.021 61.0161 169.516 60.4888C163.715 59.1705 157.783 58.2477 150.401 58.3795C143.15 58.5113 137.217 59.6978 132.208 61.5434C127.198 63.5209 123.507 66.1575 121.266 69.717C118.893 73.2764 118.102 77.0995 118.497 81.1863L118.893 84.2184C120.211 94.8967 129.176 101.884 145.655 104.916L161.211 107.552C167.407 108.475 171.757 109.662 174.262 111.112C176.767 112.562 180.985 115.858 181.513 118.626L182.04 121.395C182.699 124.295 181.381 127.063 178.085 129.832ZM198.783 119.813C196.805 106.102 194.3 93.9739 192.85 80.3953C190.873 60.4888 174.262 45.9874 155.806 48.2285C127.989 51.6561 112.565 54.6882 84.6169 58.1158C66.2924 60.2251 51.1318 75.2539 51 91.8646C51 103.202 51 114.408 51 125.745C51 142.619 68.0062 157.385 87.2535 156.462C101.096 155.803 159.233 152.902 169.912 151.98C189.818 150.398 201.815 140.51 198.783 119.813Z" fill="#DAFF00"/>
<path d="M67.5469 175.334V185.389H57.7692V175.334H51V201.382H57.7692V190.693H67.5469V201.382H74.3161V175.334H67.5469Z" fill="#A5A5A5"/>
<path d="M82.5895 187.922C82.5895 192.396 85.9147 195.681 89.9525 195.681C93.9902 195.681 97.3154 192.396 97.3154 187.922C97.3154 184.32 93.9902 181.034 89.9525 181.034C85.9147 181.034 82.5895 184.32 82.5895 187.922ZM104.362 187.883C104.362 196.315 98.3051 202.252 89.9525 202.252C81.5999 202.252 75.5432 196.315 75.5432 187.883C75.5432 180.005 82.4708 174.503 89.9525 174.503C97.4342 174.503 104.362 180.005 104.362 187.883Z" fill="#A5A5A5"/>
<path d="M112.398 187.012H113.071C115.287 187.012 117.781 186.616 117.781 183.766C117.781 180.955 115.287 180.52 113.071 180.52H112.398V187.012ZM127.282 201.382H118.85L112.477 191.366H112.398V201.382H105.628V175.334H115.723C120.869 175.334 124.748 177.788 124.748 183.33C124.748 186.933 122.73 190.02 119.048 190.693L127.282 201.382Z" fill="#A5A5A5"/>
<path d="M134.011 187.012H134.684C136.901 187.012 139.395 186.616 139.395 183.766C139.395 180.955 136.901 180.52 134.684 180.52H134.011V187.012ZM148.896 201.382H140.464L134.091 191.366H134.011V201.382H127.242V175.334H137.376C142.522 175.334 146.402 177.788 146.402 183.33C146.402 186.933 144.383 190.02 140.701 190.693L148.896 201.382Z" fill="#A5A5A5"/>
<path d="M154.596 187.922C154.596 192.396 157.921 195.681 161.959 195.681C165.997 195.681 169.322 192.396 169.322 187.922C169.322 184.32 165.997 181.034 161.959 181.034C157.882 181.034 154.596 184.32 154.596 187.922ZM176.329 187.883C176.329 196.315 170.272 202.252 161.92 202.252C153.567 202.252 147.51 196.315 147.51 187.883C147.51 180.005 154.438 174.503 161.92 174.503C169.441 174.503 176.329 180.005 176.329 187.883Z" fill="#A5A5A5"/>
<path d="M184.365 187.012H184.998C187.215 187.012 189.709 186.616 189.709 183.766C189.709 180.955 187.215 180.52 184.998 180.52H184.365V187.012ZM199.249 201.382H190.817L184.444 191.366H184.365V201.382H177.595V175.334H187.729C192.876 175.334 196.755 177.788 196.755 183.33C196.755 186.933 194.736 190.02 191.055 190.693L199.249 201.382Z" fill="#A5A5A5"/>
<defs>
<radialGradient id="paint0_radial_270_357" cx="0" cy="0" r="1" gradientUnits="userSpaceOnUse" gradientTransform="translate(125 125) rotate(90) scale(148.5)">
<stop stop-color="#1F313A"/>
<stop offset="1" stop-color="#070F16"/>
</radialGradient>
</defs>
</svg>
