<svg width="250" height="250" viewBox="0 0 250 250" fill="none" xmlns="http://www.w3.org/2000/svg">
<rect width="250" height="250" fill="url(#paint0_radial_270_385)"/>
<path d="M186.58 104.093C181.557 101.172 174.899 99.0694 166.722 97.7845L152.47 95.0977C146.513 93.9296 142.074 92.5278 139.153 90.8924C136.233 89.1401 134.714 87.1543 134.364 84.8179L134.13 82.7153C133.78 79.9117 134.948 77.4586 137.751 75.3559C140.555 73.2532 144.994 72.2019 151.068 72.2019C156.091 72.2019 159.245 72.4355 165.67 73.7205C170.226 74.5382 178.17 77.1081 185.529 81.0799C185.763 82.0144 185.879 82.9489 185.996 83.1825C186.347 85.2852 188.216 98.4854 189.384 105.962C188.566 105.261 187.632 104.677 186.58 104.093ZM179.571 134.114C176.184 137.034 170.927 139.137 163.684 140.305C159.129 141.006 154.106 141.24 148.031 140.072C141.957 138.904 131.794 133.88 128.523 131.194L118.243 139.02C126.42 144.744 135.882 149.651 145.578 152.454C136.583 153.038 128.757 153.389 119.879 153.856C122.449 152.571 125.135 150.585 127.822 148.482C123.5 146.38 115.907 141.006 115.907 141.006C107.73 146.964 101.188 148.249 96.3987 149.066C88.5721 150.351 82.4977 149.3 78.1755 145.679C73.8533 142.058 71.4002 136.1 70.8161 127.923L68.8303 99.7703C68.2462 91.3596 69.8816 84.9348 73.5029 80.379C77.1242 75.8232 82.6145 73.6037 89.8571 73.6037C94.0624 73.6037 97.9173 74.1877 101.305 75.3559C104.693 76.524 111.818 79.9117 115.323 82.1312C115.44 79.2108 115.79 74.3046 119.879 69.7487C115.556 66.7115 112.753 65.3098 108.197 63.5575C124.084 61.2212 137.635 59.0017 157.143 56.6654C166.254 55.6141 174.899 59.3522 180.74 66.2443C177.001 64.8425 173.03 63.7912 170.343 63.0903C164.385 61.8053 158.311 60.754 150.835 60.9876C143.359 61.1044 137.284 62.2726 132.261 64.2584C127.121 66.2443 123.383 69.0479 121.047 72.6691C118.71 76.2904 117.776 80.2621 118.243 84.4675L118.594 87.5047C119.995 98.4854 129.107 105.611 146.045 108.765L161.932 111.452C168.357 112.386 172.796 113.555 175.366 115.073C177.936 116.475 182.258 119.979 182.842 122.9L183.426 125.703C184.361 128.273 182.959 131.194 179.571 134.114ZM200.832 123.718C198.846 109.7 196.276 97.2004 194.757 83.2993C192.655 62.8566 175.716 47.9042 156.676 50.2406C128.056 53.745 112.286 56.899 83.549 60.2867C64.8585 62.623 49.3221 78.0426 49.2053 95.0977C49.2053 106.662 49.2053 118.227 49.2053 129.792C49.2053 147.081 66.6108 162.267 86.4694 161.332C100.604 160.748 160.297 157.711 171.161 156.776C191.603 155.024 203.869 144.978 200.832 123.718Z" fill="#F7E10D"/>
<path d="M82.8242 199.261L76.5438 174.386L66.8152 200L57.0456 174.344L50.724 199.261H49L56.7172 168.803L66.8152 195.197L76.8721 168.762L84.5893 199.261H82.8242Z" fill="#A5A4A4"/>
<path d="M94.1947 184.442V199.261H92.4707V184.442L84.0557 169.665H86.026L93.3327 182.472L100.68 169.665H102.651L94.1947 184.442Z" fill="#A5A4A4"/>
<path d="M116.977 199.015C115.91 199.384 114.637 199.59 113.159 199.59C108.644 199.59 105.729 197.455 104.416 193.186L106.099 192.611C107.084 196.141 109.424 197.907 113.159 197.907C115.294 197.907 116.977 197.373 118.167 196.347C119.399 195.279 120.014 193.679 120.014 191.626C120.014 189.656 119.276 188.055 117.798 186.741C117.428 186.372 116.813 186.002 116.033 185.551C115.212 185.099 114.227 184.607 112.954 184.073C110.614 183.006 109.013 182.103 108.151 181.323C106.715 180.091 105.976 178.449 105.976 176.397C105.976 174.345 106.715 172.703 108.192 171.471C109.629 170.199 111.394 169.583 113.488 169.583C116.977 169.583 119.44 170.896 120.876 173.483L119.276 174.18C118.742 173.277 118.044 172.579 117.305 172.169C116.32 171.553 115.089 171.266 113.529 171.266C111.887 171.266 110.532 171.717 109.465 172.62C108.316 173.606 107.741 174.878 107.741 176.438C107.741 177.834 108.357 179.065 109.547 180.132C110.245 180.666 111.64 181.446 113.693 182.39C115.006 182.965 116.115 183.539 117.059 184.114C118.003 184.689 118.742 185.264 119.358 185.838C120.959 187.398 121.78 189.368 121.78 191.708C121.738 195.362 120.179 197.824 116.977 199.015Z" fill="#A5A4A4"/>
<path d="M133.314 171.348V199.261H131.631V171.348H125.063V169.665H139.882V171.348H133.314Z" fill="#A5A4A4"/>
<path d="M144.192 199.261V169.665H158.395V171.348H145.875V182.144H158.395V183.95H145.875V197.578H158.395V199.261H144.192Z" fill="#A5A4A4"/>
<path d="M176.457 174.509C176.128 173.811 175.677 173.236 175.102 172.785C174.527 172.333 173.829 171.964 173.09 171.758C172.311 171.512 171.49 171.389 170.587 171.389H165.455V182.801H171.038C172.803 182.801 174.24 182.308 175.348 181.323C176.457 180.338 176.99 178.901 176.99 177.013C176.949 176.027 176.785 175.207 176.457 174.509ZM178.057 199.261L168.657 184.484H165.455V199.261H163.813V169.665H170.669C171.777 169.665 172.844 169.829 173.829 170.158C174.815 170.486 175.677 170.937 176.415 171.553C177.113 172.169 177.688 172.949 178.14 173.852C178.55 174.755 178.796 175.822 178.796 177.013C178.796 178.326 178.591 179.435 178.181 180.379C177.77 181.323 177.195 182.103 176.498 182.718C175.759 183.334 174.897 183.786 173.911 184.073C172.926 184.36 171.818 184.525 170.628 184.525L180.11 199.302H178.057V199.261Z" fill="#A5A4A4"/>
<path d="M192.63 184.442V199.261H190.947V184.442L182.532 169.665H184.461L191.768 182.472L199.116 169.665H201.086L192.63 184.442Z" fill="#A5A4A4"/>
<defs>
<radialGradient id="paint0_radial_270_385" cx="0" cy="0" r="1" gradientUnits="userSpaceOnUse" gradientTransform="translate(125 125) rotate(90) scale(148.5)">
<stop stop-color="#3C003E"/>
<stop offset="1" stop-color="#180022"/>
</radialGradient>
</defs>
</svg>
