<svg width="250" height="250" viewBox="0 0 250 250" fill="none" xmlns="http://www.w3.org/2000/svg">
<rect width="250" height="250" fill="white"/>
<path d="M59.6999 156.538V156.613C59.6999 159.172 58.0263 160.461 55.4678 160.461C52.9093 160.461 51.2783 159.161 51.2783 156.613V153.415C51.2783 150.856 52.952 149.567 55.5104 149.567C58.0689 149.567 59.6999 150.867 59.6999 153.415V153.49H57.3334V153.415C57.3334 152.232 56.6085 151.624 55.4678 151.624C54.3272 151.624 53.5596 152.232 53.5596 153.415V156.613C53.5596 157.796 54.2845 158.404 55.4252 158.404C56.5658 158.404 57.3334 157.796 57.3334 156.613V156.538H59.6999ZM52.8027 146.934H54.8282L55.5104 148L56.1927 146.934H58.1329L56.6831 149.14H54.2419L52.7921 146.934H52.8027Z" fill="#C2131E"/>
<path d="M61.1807 149.716H68.5789V151.773H63.5472V153.98H67.822V156.037H63.5472V158.255H68.5789V160.312H61.1807V149.716Z" fill="#C2131E"/>
<path d="M74.4111 156.229L72.6628 155.92C70.8292 155.611 69.7632 154.545 69.7632 152.914C69.7632 150.665 71.3302 149.556 73.8461 149.556C76.3619 149.556 77.929 150.665 77.929 152.797V153.063H75.605V152.797C75.605 151.997 74.9547 151.613 73.8887 151.613C72.8227 151.613 72.247 151.923 72.247 152.754C72.247 153.33 72.6628 153.703 73.3131 153.788L75.0613 154.097C76.9695 154.438 77.9609 155.472 77.9609 157.103C77.9609 159.395 76.3939 160.461 73.8781 160.461C71.3622 160.461 69.7952 159.353 69.7952 157.263V156.997H72.1191V157.263C72.1191 158.063 72.7694 158.447 73.8354 158.447C74.9014 158.447 75.4771 158.138 75.4771 157.306C75.5197 156.698 75.0613 156.357 74.4111 156.24" fill="#C2131E"/>
<path d="M82.5344 156.197L81.7668 157.114V160.312H79.4429V149.716H81.7668V153.831L85.1248 149.716H87.9818L84.0588 154.406L88.2163 160.312H85.3487L82.5344 156.197Z" fill="#C2131E"/>
<path d="M96.6384 156.613C96.6384 159.172 94.9648 160.461 92.4063 160.461C89.8478 160.461 88.2168 159.161 88.2168 156.613V153.415C88.2168 150.857 89.8905 149.567 92.4489 149.567C95.0074 149.567 96.6384 150.867 96.6384 153.415V156.613ZM94.3145 153.415C94.3145 152.232 93.5896 151.624 92.4489 151.624C91.3083 151.624 90.5407 152.232 90.5407 153.415V156.613C90.5407 157.796 91.2656 158.404 92.4063 158.404C93.5469 158.404 94.3145 157.796 94.3145 156.613V153.415Z" fill="#C2131E"/>
<path d="M101.36 155.43H97.8525V157.338H101.36V155.43Z" fill="#C2131E"/>
<path d="M107.085 156.229L105.337 155.92C103.504 155.611 102.438 154.545 102.438 152.914C102.438 150.665 104.005 149.556 106.52 149.556C109.036 149.556 110.603 150.665 110.603 152.797V153.063H108.279V152.797C108.279 151.997 107.629 151.613 106.563 151.613C105.497 151.613 104.921 151.923 104.921 152.754C104.921 153.33 105.38 153.703 105.987 153.788L107.736 154.097C109.644 154.438 110.635 155.472 110.635 157.103C110.635 159.395 109.068 160.461 106.552 160.461C104.037 160.461 102.469 159.353 102.469 157.263V156.997H104.793V157.263C104.793 158.063 105.444 158.447 106.51 158.447C107.576 158.447 108.151 158.138 108.151 157.306C108.151 156.698 107.693 156.357 107.085 156.24" fill="#C2131E"/>
<path d="M112.073 149.716H114.397V158.255H119.471V160.312H112.073V149.716Z" fill="#C2131E"/>
<path d="M128.961 156.613C128.961 159.172 127.287 160.461 124.729 160.461C122.17 160.461 120.539 159.161 120.539 156.613V153.415C120.539 150.857 122.213 149.567 124.771 149.567C127.33 149.567 128.961 150.867 128.961 153.415V156.613ZM126.594 153.415C126.594 152.232 125.869 151.624 124.729 151.624C123.588 151.624 122.82 152.232 122.82 153.415V156.613C122.82 157.796 123.545 158.404 124.686 158.404C125.827 158.404 126.594 157.796 126.594 156.613V153.415Z" fill="#C2131E"/>
<path d="M129.686 149.716H132.244L134.643 157.381L137.041 149.716H139.365L135.9 160.312H133.15L129.686 149.716Z" fill="#C2131E"/>
<path d="M140.248 149.716H147.636V151.773H142.604V153.98H146.879V156.037H142.604V158.255H147.636V160.312H140.248V149.716Z" fill="#C2131E"/>
<path d="M151.484 154.023V160.312H149.128V149.716H151.335L155.226 156.005V149.716H157.593V160.312H155.375L151.484 154.023Z" fill="#C2131E"/>
<path d="M163.724 156.229L162.008 155.92C160.174 155.611 159.108 154.545 159.108 152.914C159.108 150.665 160.675 149.556 163.191 149.556C165.707 149.556 167.274 150.665 167.274 152.797V153.063H164.95V152.797C164.95 151.997 164.299 151.613 163.233 151.613C162.167 151.613 161.592 151.923 161.592 152.754C161.592 153.33 162.008 153.703 162.658 153.788L164.406 154.097C166.314 154.438 167.306 155.472 167.306 157.103C167.306 159.395 165.739 160.461 163.223 160.461C160.707 160.461 159.14 159.353 159.14 157.263V156.997H161.464V157.263C161.464 158.063 162.114 158.447 163.18 158.447C164.246 158.447 164.822 158.138 164.822 157.306C164.779 156.698 164.363 156.357 163.713 156.24" fill="#C2131E"/>
<path d="M171.845 156.197L171.078 157.114V160.312H168.754V149.716H171.078V153.831L174.436 149.716H177.293L173.37 154.406L177.527 160.312H174.66L171.845 156.197Z" fill="#C2131E"/>
<path d="M187.165 160.312H184.607L183.924 158.063H180.343L179.66 160.312H177.336L180.801 149.716H183.658L187.165 160.312ZM180.876 149.108L182.134 146.902H184.575L182.741 149.108H180.876ZM180.95 156.048H183.274L182.091 152.232L180.95 156.048Z" fill="#C2131E"/>
<path d="M210 94.3677L205.086 92.9179L203.636 91.4681L201.888 89.7198L192.432 89.1122L189.799 90.9457L186.942 92.9285L180.962 90.7965L177.987 91.1376L175.887 93.8453L175.28 94.6448L172.881 97.7363H166.517L162.967 94.1118L160.302 91.4041L159.236 90.2955L157.669 91.4361L155.377 93.0778L153.245 94.6022L146.731 90.1782L145.516 91.4361L142.616 94.3677L140.559 96.4678L140.25 100.657L140.175 101.691L138.725 102.875L133.31 107.299L132.511 107.949L130.677 109.431L129.078 110.731L128.353 111.339L121.456 116.978L121.307 117.095L121.083 117.628L120.742 118.428L118.951 122.394L120.134 123.843L124.132 119.846L125.389 118.588L125.88 118.097L127.212 116.765L129.536 114.441L133.726 110.251L139.898 104.037L143.331 100.604L146.07 97.8643L147.52 96.4145L147.904 99.1541L147.712 99.346L143.715 103.344L141.508 105.55L135.293 111.765L128.737 118.321L125.688 121.37L125.379 121.679L121.488 125.57L121.445 125.613H121.488L121.904 126.146L122.511 126.871L123.769 128.438L127.276 128.555L127.959 128.598L135.506 135.037L152.008 131.679L153.074 128.896L153.533 127.713L153.948 126.647L163.02 124.131L164.886 120.89L165.344 120.091L165.653 119.558L172.209 119.782L175.759 117.532L177.508 116.424L177.582 116.275L180.898 109.644L181.772 107.896L182.038 107.32L185.396 107.896L189.362 103.93L190.769 102.523L197.059 96.2332L198.54 97.8323L192.475 103.898L190.95 105.422L188.051 108.322L191.632 108.93L193.765 108.205L195.822 107.48L198.913 106.414L199.031 106.531L199.681 105.881L204.904 100.657L203.796 102.491L204.979 103.674L201.205 107.448L200.747 107.906L201.472 108.514L201.696 108.706L203.22 110.006L206.802 108.823L206.727 108.439L206.12 104.857L205.928 103.791L209.169 101.499L209.968 94.4103L210 94.3677ZM161.133 110.571L160.334 111.371L155.036 116.669L152.477 119.227L151.902 118.545L151.059 117.554L151.592 117.021L155.483 113.13L157.232 111.381L159.63 108.983L165.728 102.885L166.41 103.344H168.35L161.112 110.582L161.133 110.571ZM133.768 122.5L139.983 116.285L146.049 110.22L147.35 108.919L154.13 102.139L156.155 100.114L159.055 97.214L158.788 99.3887L159.012 100.38L158.745 100.647L155.739 103.653L150.516 108.876L148.799 110.593L141.742 117.65L135.336 124.014L133.768 122.489V122.5ZM183.627 100.391L178.787 105.231L177.337 106.68L171.922 112.096L171.239 112.778L170.557 112.096L169.758 111.296H169.64L175.813 105.124L177.22 103.717L181.91 99.0262L183.36 97.5764L184.309 98.5252L185.034 98.9836L183.627 100.391Z" fill="#3FA9CE"/>
<path d="M125.687 109.004L125.805 108.887L124.856 108.93L125.698 108.247L132.446 102.832L132.755 102.608L135.004 100.817L135.079 99.7511L135.122 99.3354L133.213 99.41L132.222 99.4527L135.314 96.3612L135.356 95.8708L129.482 95.6789L128.15 94.3464L125.826 96.6703L123.651 98.845L122.543 99.9537L121.967 100.529L121.391 101.105L117.426 105.071L113.609 108.802H113.193L110.368 108.919L112.735 106.552L115.901 103.386L118.225 101.062L118.801 100.487L119.334 99.9537L122.116 97.1714L125.357 93.9306L126.615 92.6727L127.649 91.6387L125.623 91.7133L124.483 90.53L125.698 88.5046L126.423 87.3213L124.707 87.5131L121.423 87.9289L117.116 84.7628L115.635 83.6541L116.125 85.4451L116.349 86.3192L117.34 89.8691L115.592 90.1782L113.268 90.594L110.635 91.0843L108.801 91.4255L107.277 90.3914L105.486 92.1824L100.913 96.7556L100.263 97.4059L98.4716 99.1968L96.105 101.563L91.0734 106.595L90.3058 107.363L87.4489 110.22L86.3402 111.328L83.6325 114.036L81.7989 112.778L87.822 106.755L88.4723 106.105L95.103 99.474L96.9685 97.6084L100.167 94.4103L102.682 91.8945L104.324 90.2528L105.39 89.1868L104.058 88.27L101.808 86.7456L100.891 84.4217L98.5676 86.7456L96.201 89.1122L96.0091 89.3041L89.5703 95.7429L82.9396 102.374L78.1318 107.181L76.3409 109.047L69.2092 116.179L68.7508 116.637L66.1177 116.179L66.9918 115.304L74.0489 108.247L74.8911 107.405L81.106 101.19L87.7367 94.5596L92.7684 89.5279L94.3674 87.9289L97.0751 85.2212L97.4909 84.8054L100.007 82.2896L99.8894 81.9805L95.6573 80.8398L82.5771 77.3326L82.9183 71.6933L78.7608 76.0001L73.0042 73.2923L73.4946 76.5331H73.42L73.7291 78.2814L69.0812 80.9464L64.4333 83.6115L58.8687 86.8096L52.6537 90.3594L49.9141 91.9265L44.0829 95.2418L40 92.9499L40.3411 96.116L45.7885 100.497L44.488 105.838L44.5306 105.913V105.987L45.3301 107.629L46.9292 111.179L47.9632 113.471L48.3044 113.62L50.5963 114.654L54.7538 116.52L54.5619 115.411L58.5276 111.445L58.9433 111.03L63.6338 106.339L66.8746 103.098L71.5224 98.376L79.4857 90.4127L79.9014 89.997L87.0651 82.8333L88.856 81.0424L92.0968 80.8931L88.8987 84.0912L83.1421 89.8477L82.1081 90.8818L74.1449 98.8877L68.431 104.602L66.1816 106.851L61.5338 111.499L59.3271 113.705L55.9371 117.095L57.8773 117.97L75.4134 130.773L83.7284 126.508C83.7284 126.508 83.8031 126.05 83.9523 125.4C84.1442 124.408 84.4427 123.001 84.6346 122.116C84.7518 121.658 84.8265 121.317 84.8584 121.274C84.9011 121.232 86.7986 120.858 89.2825 120.432C89.8155 120.357 90.3485 120.24 90.9241 120.123C94.506 119.473 98.6635 118.748 100.412 118.449C100.902 118.375 101.211 118.3 101.211 118.3L102.96 118.95L109.1 121.274L109.676 121.85L106.435 125.091L105.902 126.199L105.369 127.308L104.527 129.099L105.017 129.589L107.384 127.223L108.492 126.114L111.2 123.406L112.117 122.49L113.225 122.905L114.483 120.539L114.942 119.665L117.383 117.223L117.426 117.181L118.801 115.806L124.632 109.974L125.666 108.983L125.687 109.004ZM66.2989 94.3997L61.9495 98.7811L57.5681 103.13L56.193 104.506L53.2187 107.512L47.9206 112.81L47.0784 111.136L46.8865 110.753L52.1847 105.454L57.0991 100.54L61.4485 96.1906L65.7979 91.8412L70.1473 87.4918L72.2793 85.3598H73.5799L74.5286 86.2019L71.6717 89.0269L66.2989 94.3997ZM93.4826 113.46L97.9066 109.036L98.2904 108.652L103.365 103.578L103.407 103.536L105.998 100.945L106.382 100.561L107.032 99.9111L108.897 98.0455L112.628 94.3144L113.62 93.323L114.92 92.0224L115.912 91.031L116.221 91.9798L116.413 92.5874L117.522 92.5448L114.238 95.8282L111.797 98.2694L110.049 100.018L109.665 100.401L109.249 100.817L108.183 101.883L104.601 105.465L103.077 106.989L100.71 109.356L100.326 109.74L99.9854 110.081L99.0686 110.998L94.2288 115.838L93.5039 113.439L93.4826 113.46Z" fill="#C2131E"/>
<path d="M73.6552 85.2958H72.3546L70.1799 87.4279L65.8412 91.7773L61.4918 96.1586L57.1104 100.508L52.1854 105.422L46.8872 110.721L47.0791 111.104L47.9213 112.778L53.2194 107.512L56.2256 104.506L57.5688 103.13L61.9502 98.7917L66.2889 94.3997L71.6723 89.0269L74.6039 86.1273L73.6552 85.2958Z" fill="#3FA9CE"/>
<path d="M88.8992 81.0637L87.1082 82.8546L79.9445 90.0183L79.5181 90.4447L71.5549 98.3653L66.8644 103.099L63.6237 106.339L58.9331 111.019L58.5174 111.446L54.5518 115.368L54.7436 116.509L55.0101 118.034L56.0016 117.042L59.3915 113.652L61.6089 111.446L66.2567 106.798L68.4634 104.58L74.188 98.8664L82.1512 90.8925L83.1853 89.8691L88.9418 84.0699L92.1399 80.9145L88.8992 81.0637Z" fill="#3FA9CE"/>
<path d="M103.226 79.0382L101.819 80.4561L100.102 82.1724L97.5865 84.7202L97.1707 85.1039L94.463 87.8117L92.864 89.4107L87.7897 94.485L81.159 101.116L74.9441 107.363L74.1126 108.205L67.0128 115.251L66.1387 116.136L68.7718 116.594L69.2301 116.168L76.3512 109.047L78.1848 107.213L82.9926 102.374L89.6552 95.7429L96.1047 89.2934L96.2966 89.0696L98.6525 86.7456L100.944 84.4217L104.718 80.6799L103.226 79.0382Z" fill="#3FA9CE"/>
<path d="M110.592 86.0527L109.867 84.7628L105.443 89.1868L104.377 90.2529L102.735 91.8839L100.22 94.3997L97.0215 97.6084L95.1453 99.474L88.4827 106.105L87.8324 106.755L81.8413 112.778L83.6749 114.036L86.3826 111.328L87.4913 110.22L90.3482 107.363L91.0731 106.606L96.1367 101.574L98.5033 99.2075L100.294 97.4166L100.945 96.7663L105.475 92.193L107.266 90.4447L110.475 87.204L111.008 86.703L110.592 86.0527Z" fill="#3FA9CE"/>
<path d="M116.349 92.6088L116.157 92.0012L115.891 91.0524L114.899 92.0438L113.599 93.3337L112.607 94.3251L108.908 98.0242L107.043 99.8898L106.392 100.54L106.009 100.924L103.418 103.514L103.344 103.589L98.3119 108.621L97.9282 109.004L93.4722 113.46L94.1971 115.827L99.0368 110.987L99.9536 110.07L100.295 109.729L100.679 109.345L103.045 107.021L104.527 105.497L108.151 101.915L109.217 100.807L109.633 100.391L110.049 100.007L111.765 98.2587L114.206 95.8175L117.49 92.5768L116.349 92.6088Z" fill="#3FA9CE"/>
<path d="M130.143 91.7772L130.101 91.5427L130.069 91.3508L129.728 89.5279L128.278 91.0097L127.628 91.6173L126.594 92.6514L125.336 93.9519L122.063 97.182L119.313 99.9643L118.748 100.508L118.172 101.073L115.891 103.397L112.724 106.563L110.358 108.93L113.183 108.812L113.599 108.77L117.447 104.921L121.413 100.956L121.946 100.423L122.553 99.8151L123.619 98.7064L125.794 96.5424L128.118 94.2184L130.485 91.8838L130.143 91.7772Z" fill="#3FA9CE"/>
<path d="M136.508 95.0926L135.293 96.2759L132.201 99.3993L133.193 99.3567L135.101 99.2501H135.442L136.849 97.8323L136.508 95.0926Z" fill="#3FA9CE"/>
<path d="M147.53 96.3825L146.112 97.8003L143.372 100.583L139.897 104.015L133.725 110.22L129.535 114.42L127.212 116.744L125.868 118.034L125.378 118.567L124.12 119.824L120.122 123.79L118.246 125.698L117.564 126.391L120.421 126.615L121.487 125.549V125.506L125.378 121.626L125.687 121.317L128.736 118.3L135.292 111.744L141.507 105.54L143.714 103.322L147.679 99.3248L147.903 99.1329L147.53 96.3825Z" fill="#C2131E"/>
<path d="M159.034 97.2246L156.145 100.124L154.12 102.139L147.34 108.93L146.039 110.219L139.984 116.285L133.769 122.5L135.325 124.025L141.69 117.66L148.747 110.603L150.463 108.887L155.719 103.631L158.735 100.615L158.959 100.391L158.767 99.3993L159.034 97.2246Z" fill="#C2131E"/>
<path d="M166.398 103.322L165.748 102.864L159.607 108.962L157.209 111.371L155.492 113.119L151.601 117.01L151.068 117.543L151.911 118.535L152.476 119.217L155.034 116.626L160.332 111.371L161.132 110.571L168.338 103.322H166.398Z" fill="#C2131E"/>
<path d="M184.351 98.4826L183.391 97.5338L181.91 98.9836L177.219 103.706L175.812 105.113L169.629 111.286H169.746L170.514 112.096L171.196 112.821L171.878 112.128L177.336 106.68L178.786 105.231L183.626 100.391L185.076 98.941L184.351 98.4826Z" fill="#C2131E"/>
<path d="M197.005 96.2333L190.747 102.523L189.34 103.898L185.374 107.864L184.01 109.271L182.667 110.571L184.692 111.669L185.907 110.454L188.007 108.354L190.907 105.454L192.431 103.898L198.486 97.8323L197.005 96.2333Z" fill="#C2131E"/>
<path d="M203.753 102.565L204.862 100.732L199.638 105.913L199.02 106.563L196.931 108.62L200.097 108.589L200.704 107.97L201.195 107.48L204.937 103.738L203.753 102.565Z" fill="#C2131E"/>
<path d="M57.0351 170.109C57.0351 169.501 56.9924 168.808 56.9604 168.275H58.0265L58.1011 169.384H58.1437C58.4102 168.702 59.0179 168.169 59.7428 168.169H60.0093V169.309H59.7428C58.9752 169.309 58.4102 169.96 58.293 170.791C58.2503 170.983 58.2503 171.207 58.2503 171.442V175.364H57.0351V170.109Z" fill="#2CAECC"/>
<path d="M61.5235 171.943C61.5235 174.117 62.4402 174.576 63.3144 174.576C63.8474 174.576 64.2632 174.458 64.5723 174.309L64.7642 175.151C64.3484 175.375 63.6982 175.492 63.1225 175.492C61.3316 175.492 60.3828 174.085 60.3828 171.911C60.3828 169.587 61.4169 168.179 62.9413 168.179C64.4657 168.179 65.0733 169.704 65.0733 171.346V171.996H61.5235V171.953V171.943ZM63.89 171.1C63.9327 169.693 63.357 169.043 62.7814 169.043C62.0138 169.043 61.5981 170.152 61.5661 171.1H63.89Z" fill="#2CAECC"/>
<path d="M70.9784 168.243C70.9784 168.734 70.9038 169.384 70.9038 170.45V174.448C70.9038 176.313 70.6373 177.038 70.1363 177.539C69.6779 178.03 68.953 178.307 68.1108 178.307C67.4605 178.307 66.8529 178.157 66.4691 177.966L66.7356 177.091C67.0448 177.241 67.5352 177.401 68.1428 177.401C69.0916 177.401 69.7099 176.825 69.7099 175.226V174.501H69.6672C69.4007 175.077 68.8677 175.375 68.2174 175.375C66.8849 175.375 66.0107 173.968 66.0107 171.868C66.0107 169.235 67.2687 168.169 68.3773 168.169C69.1768 168.169 69.5606 168.659 69.7845 169.086H69.8271L69.9017 168.286H70.9678V168.243H70.9784ZM69.7205 170.717C69.7205 170.525 69.7205 170.333 69.6459 170.226C69.4967 169.736 69.2301 169.118 68.5372 169.118C67.6631 169.118 67.2047 170.226 67.2047 171.783C67.2047 173.616 67.8123 174.416 68.5372 174.416C68.8784 174.416 69.3794 174.266 69.6033 173.382C69.6779 173.158 69.6779 172.923 69.6779 172.731V170.706H69.7205V170.717Z" fill="#2CAECC"/>
<path d="M73.8788 166.41C73.8788 166.868 73.6123 167.135 73.1539 167.135C72.7702 167.135 72.4717 166.826 72.4717 166.41C72.4717 165.994 72.7808 165.685 73.1539 165.685C73.6123 165.685 73.8788 165.994 73.8788 166.41ZM72.5783 175.364V168.233H73.7936V175.364H72.5783Z" fill="#2CAECC"/>
<path d="M80.0937 171.825C80.0937 174.565 78.7186 175.482 77.5779 175.482C76.2027 175.482 75.1367 174.341 75.1367 171.825C75.1367 169.309 76.352 168.126 77.6525 168.126C78.9851 168.126 80.0937 169.341 80.0937 171.825ZM76.32 171.825C76.32 173.008 76.5439 174.608 77.6206 174.608C78.6973 174.608 78.8358 172.934 78.8358 171.825C78.8358 170.717 78.644 169.043 77.5779 169.043C76.5439 169.043 76.32 170.717 76.32 171.825Z" fill="#2CAECC"/>
<path d="M81.4262 170.109C81.4262 169.267 81.3835 168.851 81.3516 168.275H82.3856L82.4602 169.118H82.5029C82.844 168.542 83.4516 168.169 84.2192 168.169C85.2532 168.169 86.0527 168.894 86.0527 170.61V175.375H84.8375V170.802C84.8375 169.96 84.6456 169.128 83.8034 169.128C83.3131 169.128 82.812 169.512 82.6628 170.269C82.6201 170.461 82.6201 170.653 82.6201 170.919V175.375H81.4049V170.12H81.4475L81.4262 170.109Z" fill="#2CAECC"/>
<path d="M90.7322 175.364L90.6576 174.597H90.615C90.2739 175.13 89.7408 175.471 89.1332 175.471C88.0992 175.471 87.3423 174.672 87.3423 173.446C87.3423 171.655 88.8667 170.855 90.5404 170.855V170.631C90.5404 169.683 90.2739 169.032 89.3251 169.032C88.8667 169.032 88.4509 169.181 88.0672 169.416L87.8007 168.616C88.1098 168.393 88.8347 168.158 89.549 168.158C91.0734 168.158 91.7237 169.107 91.7237 170.717V173.808C91.7237 174.341 91.7237 174.949 91.7983 175.407H90.7322V175.364ZM90.583 171.708C89.9754 171.708 88.5256 171.825 88.5256 173.35C88.5256 174.266 89.0159 174.608 89.4424 174.608C89.9754 174.608 90.4338 174.224 90.551 173.542C90.5937 173.424 90.5937 173.275 90.5937 173.158V171.708H90.583ZM91.5744 165.344L89.9327 167.327H89.1332L90.3485 165.344H91.5638H91.5744Z" fill="#2CAECC"/>
<path d="M93.4297 165.195H94.645V175.375H93.4297V165.195Z" fill="#2CAECC"/>
<path d="M96.4028 170.109C96.4028 169.267 96.3601 168.851 96.3281 168.275H97.3622L97.4368 169.118H97.4794C97.8206 168.542 98.4282 168.169 99.1957 168.169C100.23 168.169 101.029 168.894 101.029 170.61V175.375H99.814V170.802C99.814 169.96 99.6222 169.128 98.78 169.128C98.2896 169.128 97.7886 169.512 97.6393 170.269C97.5967 170.461 97.5967 170.653 97.5967 170.919V175.375H96.3814V170.12H96.4241L96.4028 170.109Z" fill="#2CAECC"/>
<path d="M105.71 175.364L105.636 174.597H105.593C105.252 175.13 104.719 175.471 104.111 175.471C103.077 175.471 102.32 174.672 102.32 173.446C102.32 171.655 103.845 170.855 105.518 170.855V170.631C105.518 169.683 105.252 169.032 104.303 169.032C103.845 169.032 103.429 169.181 103.045 169.416L102.779 168.616C103.088 168.393 103.813 168.158 104.527 168.158C106.051 168.158 106.702 169.107 106.702 170.717V173.808C106.702 174.341 106.702 174.949 106.776 175.407H105.71V175.364ZM105.561 171.708C104.953 171.708 103.504 171.825 103.504 173.35C103.504 174.266 103.994 174.608 104.42 174.608C104.953 174.608 105.412 174.224 105.529 173.542C105.572 173.424 105.572 173.275 105.572 173.158V171.708H105.561Z" fill="#2CAECC"/>
<path d="M112.341 166.378V168.243H113.791V169.117H112.341V173.35C112.341 174.266 112.682 174.533 113.14 174.533C113.332 174.533 113.481 174.533 113.631 174.49L113.673 175.364C113.449 175.439 113.183 175.482 112.799 175.482C112.341 175.482 111.925 175.364 111.616 175.066C111.307 174.757 111.158 174.266 111.158 173.275V169.16H110.241V168.286H111.158V166.719L112.341 166.378Z" fill="#2CAECC"/>
<path d="M115.581 171.943C115.581 174.117 116.498 174.576 117.372 174.576C117.905 174.576 118.321 174.458 118.63 174.309L118.822 175.151C118.406 175.375 117.756 175.492 117.18 175.492C115.389 175.492 114.44 174.085 114.44 171.911C114.44 169.587 115.474 168.179 116.999 168.179C118.523 168.179 119.131 169.704 119.131 171.346V171.996H115.581V171.953V171.943ZM117.948 171.1C117.99 169.693 117.415 169.043 116.839 169.043C116.071 169.043 115.656 170.152 115.624 171.1H117.948Z" fill="#2CAECC"/>
<path d="M120.389 165.195H121.604V175.375H120.389V165.195Z" fill="#2CAECC"/>
<path d="M124.194 171.943C124.194 174.117 125.111 174.576 125.985 174.576C126.518 174.576 126.934 174.458 127.243 174.309L127.435 175.151C127.019 175.375 126.369 175.492 125.793 175.492C123.96 175.492 123.054 174.085 123.054 171.911C123.054 169.587 124.088 168.179 125.612 168.179C127.137 168.179 127.787 169.704 127.787 171.346V171.996H124.205V171.953L124.194 171.943ZM126.593 171.1C126.636 169.693 126.06 169.043 125.484 169.043C124.717 169.043 124.301 170.152 124.269 171.1H126.593Z" fill="#2CAECC"/>
<path d="M129.642 168.243L130.59 172.241C130.708 172.731 130.814 173.35 130.932 173.989H130.974C131.049 173.414 131.166 172.806 131.283 172.241L132.232 168.243H133.415L131.433 175.375H130.367L128.384 168.243H129.642Z" fill="#2CAECC"/>
<path d="M136.89 165.344L135.249 167.327H134.449L135.664 165.344H136.88H136.89ZM134.449 175.364V168.233H135.664V175.364H134.449Z" fill="#2CAECC"/>
<path d="M136.742 174.682L139.141 170.301C139.333 169.917 139.556 169.576 139.748 169.235V169.192H137.041V168.243H141.038V169.011L138.672 173.36C138.48 173.744 138.256 174.085 138.064 174.426V174.469H141.038V175.418H136.731V174.693L136.742 174.682Z" fill="#2CAECC"/>
<path d="M143.522 166.41C143.522 166.868 143.256 167.135 142.797 167.135C142.414 167.135 142.115 166.826 142.115 166.41C142.115 165.994 142.424 165.685 142.797 165.685C143.213 165.685 143.522 165.994 143.522 166.41ZM142.222 175.364V168.233H143.437V175.364H142.222Z" fill="#2CAECC"/>
<path d="M148.062 175.364L147.988 174.597H147.945C147.604 175.13 147.071 175.471 146.463 175.471C145.429 175.471 144.672 174.672 144.672 173.446C144.672 171.655 146.197 170.855 147.87 170.855V170.631C147.87 169.683 147.604 169.032 146.655 169.032C146.197 169.032 145.781 169.181 145.397 169.416L145.131 168.616C145.44 168.393 146.165 168.158 146.879 168.158C148.403 168.158 149.054 169.107 149.054 170.717V173.808C149.054 174.341 149.054 174.949 149.128 175.407H148.062V175.364ZM147.913 171.708C147.305 171.708 145.856 171.825 145.856 173.35C145.856 174.266 146.346 174.608 146.772 174.608C147.305 174.608 147.764 174.224 147.881 173.542C147.924 173.424 147.924 173.275 147.924 173.158V171.708H147.913Z" fill="#2CAECC"/>
</svg>
