<svg width="250" height="250" viewBox="0 0 250 250" fill="none" xmlns="http://www.w3.org/2000/svg">
<rect width="250" height="250" fill="#2D1996"/>
<path d="M108.964 68.7774C108.675 69.1797 108.788 69.6952 109.442 70.6004L123.648 89.3957C124.101 89.9992 124.516 90.4518 124.566 90.9547C124.516 91.445 124.101 91.9101 123.648 92.5136L109.442 111.309C108.939 112.013 108.675 112.717 108.964 113.119C109.341 113.66 110.309 113.17 110.951 112.818L145.637 92.5262L147.083 91.6336C147.862 91.1055 147.862 90.7535 147.083 90.2632L145.637 89.3706L110.951 69.0666C110.272 68.6643 109.341 68.2243 108.964 68.7649V68.7774Z" fill="white"/>
<path d="M90.2316 93.9595L77.3703 101.578C76.44 102.119 75.9748 103.2 76.2263 104.281L76.5657 105.639C78.8413 113.572 83.6438 121.329 89.2133 126.949C97.9006 135.686 109.894 141.847 125.031 141.834C138.395 141.822 151.382 136.453 160.824 126.949C166.394 121.329 170.605 114.452 173.069 106.947C173.208 106.519 173.358 106.092 173.472 105.652L173.811 104.294C174.075 103.238 173.597 102.131 172.667 101.591L159.806 93.9721C159.102 93.5698 158.285 93.5195 157.555 93.8841C157.216 94.035 156.726 94.5001 156.625 95.1287C156.537 95.7071 156.361 96.8134 156.223 97.5049C155.82 99.4787 155.393 101.126 154.098 104.118C149.459 114.917 137.993 123.102 125.019 123.102C109.63 123.102 96.656 112.114 93.7015 97.5049C93.5129 96.5745 93.4249 96.0716 93.2615 95.1287C93.1358 94.3744 92.8341 94.035 92.5072 93.8841C91.778 93.5321 90.9482 93.5698 90.2568 93.9721L90.2316 93.9595Z" fill="white"/>
<path d="M90.2316 87.8747L77.3703 80.256C76.44 79.7154 75.9748 78.6341 76.2263 77.5529L76.5657 76.1952C78.8413 68.2621 83.6438 60.5051 89.2133 54.8854C97.9006 46.1478 109.894 39.9874 125.031 40C138.395 40.0126 151.382 45.3809 160.824 54.8854C166.394 60.5051 170.605 67.3821 173.069 74.8877C173.208 75.3151 173.358 75.7426 173.472 76.1826L173.811 77.5404C174.075 78.5964 173.597 79.7028 172.667 80.2434L159.806 87.8621C159.102 88.2644 158.285 88.3147 157.555 87.9501C157.216 87.7992 156.726 87.3341 156.625 86.7054C156.537 86.1271 156.361 85.0208 156.223 84.3293C155.82 82.3555 155.393 80.7085 154.098 77.7164C149.459 66.9169 137.993 58.7325 125.019 58.7325C109.63 58.7325 96.656 69.7205 93.7015 84.3293C93.5129 85.2597 93.4249 85.7625 93.2615 86.7054C93.1358 87.4598 92.8341 87.7992 92.5072 87.9501C91.778 88.3021 90.9482 88.2644 90.2568 87.8621L90.2316 87.8747Z" fill="white"/>
<path d="M105.206 158.555C105.407 158.505 105.608 158.48 105.847 158.454C106.048 158.429 106.274 158.417 106.513 158.417C107.557 158.417 108.399 158.681 109.003 159.196C109.606 159.724 109.92 160.504 109.933 161.522C109.933 162.188 109.757 162.792 109.417 163.307C109.091 163.823 108.625 164.225 108.047 164.514C107.481 164.803 106.828 164.954 106.086 164.967C105.91 164.967 105.759 164.967 105.633 164.967C105.508 164.967 105.369 164.942 105.218 164.929V158.568L105.206 158.555ZM99.3975 177.501H105.243V168.588H105.797C106.161 168.588 106.488 168.638 106.752 168.726C107.029 168.826 107.268 168.927 107.469 169.053C108.035 169.38 108.487 169.92 108.839 170.637C109.179 171.366 109.468 172.171 109.707 173.088C109.933 174.006 110.172 174.924 110.398 175.842C110.461 176.131 110.562 176.433 110.675 176.709C110.788 176.986 110.901 177.262 111.052 177.514H117.363C117.137 177.162 116.923 176.772 116.722 176.37C116.521 175.942 116.345 175.49 116.206 174.999C116.018 174.308 115.804 173.579 115.578 172.762C115.326 171.957 115.05 171.165 114.71 170.385C114.358 169.619 113.943 168.965 113.466 168.399C113.164 168.072 112.787 167.783 112.334 167.506C111.882 167.242 111.341 167.004 110.725 166.815V166.727C111.68 166.526 112.56 166.199 113.353 165.734C114.145 165.281 114.786 164.665 115.276 163.898C115.754 163.144 116.005 162.226 116.018 161.145C116.018 160.013 115.779 159.058 115.326 158.266C114.874 157.474 114.22 156.795 113.365 156.217C112.85 155.865 112.208 155.563 111.404 155.324C110.612 155.085 109.732 154.897 108.764 154.783C107.808 154.67 106.802 154.607 105.759 154.607C104.489 154.607 103.307 154.633 102.201 154.708C101.095 154.783 100.164 154.884 99.3975 155.022V177.489V177.501Z" fill="white"/>
<path d="M123.735 158.555C123.936 158.505 124.137 158.48 124.376 158.454C124.577 158.429 124.803 158.417 125.042 158.417C126.086 158.417 126.928 158.681 127.532 159.196C128.135 159.724 128.449 160.504 128.462 161.522C128.462 162.188 128.286 162.792 127.946 163.307C127.62 163.823 127.154 164.225 126.576 164.514C126.01 164.803 125.357 164.954 124.615 164.967C124.439 164.967 124.288 164.967 124.162 164.967C124.037 164.967 123.898 164.942 123.747 164.929V158.568L123.735 158.555ZM117.927 177.501H123.773V168.588H124.326C124.69 168.588 125.017 168.638 125.281 168.726C125.558 168.826 125.797 168.927 125.998 169.053C126.564 169.38 127.016 169.92 127.368 170.637C127.708 171.366 127.997 172.171 128.236 173.088C128.462 174.006 128.701 174.924 128.927 175.842C128.99 176.131 129.091 176.433 129.204 176.709C129.317 176.986 129.43 177.262 129.581 177.514H135.892C135.666 177.162 135.452 176.772 135.251 176.37C135.05 175.942 134.874 175.49 134.735 174.999C134.547 174.308 134.333 173.579 134.107 172.762C133.855 171.957 133.579 171.165 133.239 170.385C132.887 169.619 132.472 168.965 131.995 168.399C131.693 168.072 131.316 167.783 130.863 167.506C130.411 167.242 129.87 167.004 129.254 166.815V166.727C130.209 166.526 131.09 166.199 131.882 165.734C132.674 165.281 133.315 164.665 133.805 163.898C134.283 163.144 134.534 162.226 134.547 161.145C134.547 160.013 134.308 159.058 133.855 158.266C133.403 157.474 132.749 156.795 131.894 156.217C131.379 155.865 130.737 155.563 129.933 155.324C129.141 155.085 128.261 154.897 127.293 154.783C126.337 154.67 125.331 154.607 124.288 154.607C123.018 154.607 121.836 154.633 120.73 154.708C119.624 154.783 118.693 154.884 117.927 155.022V177.489V177.501Z" fill="white"/>
<path d="M77.3075 172.749C73.7999 172.862 72.593 169.166 72.593 166.45C72.593 166.337 72.593 166.224 72.593 166.111C72.6307 164.112 73.0581 162.553 73.9256 161.51C74.6674 160.378 75.8114 159.599 77.4458 159.649C78.1876 159.674 78.7659 159.775 79.1682 159.875C79.6459 160.001 79.9099 160.114 79.9099 160.114V155.399C79.9099 155.399 78.4642 154.758 76.1635 154.758C76.0629 154.758 75.9623 154.758 75.8617 154.758C75.6857 154.758 75.5223 154.783 75.3588 154.796C75.3463 154.796 75.3211 154.796 75.3086 154.796C71.4992 155.186 67.891 158.065 66.9104 163.596C66.7344 164.565 66.6338 165.595 66.6338 166.727C66.6338 173.315 70.1037 177.426 75.7234 177.602C78.0996 177.677 80.8026 176.646 80.8026 176.646L79.7716 172.246C79.7716 172.246 78.9293 172.661 77.3075 172.724V172.749Z" fill="white"/>
<path d="M167.626 154.897V160.089H172.453V177.501H178.538L178.551 160.089H183.366V154.897H167.626Z" fill="white"/>
<path d="M117.677 209.987H123.259L123.498 201.904C123.523 201.174 123.523 200.332 123.548 199.427C123.573 198.497 123.586 197.453 123.624 196.259C123.649 195.064 123.661 193.681 123.674 192.097H123.775C123.913 192.688 124.051 193.392 124.215 194.209C124.378 195.014 124.529 195.844 124.705 196.724C124.881 197.591 125.044 198.471 125.208 199.301C125.371 200.131 125.522 200.885 125.66 201.539L127.496 209.56H132.5L134.297 201.627C134.561 200.433 134.825 199.226 135.064 198.019C135.316 196.812 135.542 195.693 135.731 194.662C135.932 193.631 136.095 192.776 136.221 192.097H136.309C136.347 193.707 136.372 195.115 136.41 196.309C136.447 197.503 136.46 198.547 136.485 199.452C136.51 200.357 136.535 201.162 136.548 201.866L136.824 209.987H142.582L141.061 186.855H133.367L131.758 194.222C131.62 194.851 131.481 195.517 131.356 196.183C131.217 196.85 131.079 197.579 130.928 198.358C130.777 199.138 130.601 200.018 130.4 200.986H130.249C130.036 199.993 129.834 199.113 129.658 198.346C129.482 197.579 129.319 196.862 129.168 196.208C129.005 195.542 128.854 194.888 128.703 194.235L126.993 186.867H119.299L117.639 210L117.677 209.987Z" fill="white"/>
<path d="M115.815 209.987V186.855H109.73V209.987H115.815Z" fill="white"/>
<path d="M92.3428 186.842V192.085H97.2082V209.988H103.356V192.085H108.221V186.842H92.3428Z" fill="white"/>
<path d="M157.076 200.596V196.045H149.608V191.456H157.742V186.905H144.328V209.925H157.73V205.21H149.608V200.596H157.076Z" fill="white"/>
<path d="M89.5028 177.577C92.1681 177.577 97.5867 176.345 97.5867 168.06V154.972H91.8538V168.814C91.8538 171.957 90.8858 172.359 89.6285 172.359C88.0947 172.359 87.2147 171.743 87.1267 168.814V154.972H81.3938V168.085C81.3938 174.383 84.7506 177.577 89.5154 177.577H89.5028Z" fill="white"/>
<path d="M161.087 154.897L161.301 165.935L156.373 154.897H151.117V177.501H156.461L156.247 166.589L161.15 177.501H166.43V154.897H161.087Z" fill="white"/>
<path d="M149.067 168.487V163.936H141.637V159.435H149.734V154.897H136.37V177.501H149.734V172.799H141.637V168.487H149.067Z" fill="white"/>
</svg>
