<svg width="250" height="250" viewBox="0 0 250 250" fill="none" xmlns="http://www.w3.org/2000/svg">
<rect width="250" height="250" fill="url(#paint0_linear_357_2112)"/>
<path d="M63.3803 101.154C57.1153 101.341 51.1694 103.961 46.8043 108.459C42.4393 112.957 39.9985 118.978 40 125.246C40.1274 131.551 42.7216 137.555 47.2258 141.969C51.73 146.384 57.7852 148.856 64.0917 148.856C70.3982 148.856 76.4534 146.384 80.9576 141.969C85.4618 137.555 88.056 131.551 88.1834 125.246C88.1841 122.022 87.5377 118.83 86.2825 115.86C85.0273 112.89 83.1888 110.202 80.8759 107.956C78.5631 105.709 75.8228 103.95 72.8176 102.781C69.8123 101.613 66.6032 101.06 63.3803 101.154ZM73.696 110.953V134.85L57.6241 140.736V122.691L49.7984 125.44V119.555L73.696 110.953Z" fill="white"/>
<path d="M191.829 115.2L188.013 116.202V120.762H185.49V123.672H188.045V131.175C188.045 134.617 189.082 135.799 192.346 135.799C193.385 135.799 194.468 135.649 195.418 135.411V132.339C194.884 132.487 194.198 132.598 193.575 132.598C192.269 132.598 191.829 132.039 191.829 130.14V123.672H195.418V120.762H191.829L191.829 115.2Z" fill="white"/>
<path d="M106.196 115.318C103.732 115.318 101.301 115.421 99.728 115.48V135.465C101.42 135.524 103.213 135.594 105.29 135.594C111.819 135.594 116.35 132.002 116.35 125.117C116.35 118.083 112.398 115.318 106.196 115.318ZM104.643 118.584C105.04 118.57 105.492 118.584 105.937 118.584C110.507 118.584 112.178 121.137 112.178 125.44C112.178 130.188 109.447 132.296 105.678 132.296C104.907 132.296 104.11 132.255 103.576 132.166V118.649C103.888 118.619 104.247 118.599 104.643 118.584Z" fill="white"/>
<path d="M151.601 115.459V135.508H162.498V132.21H155.481V126.777H162.143V123.64H155.481V118.693H162.498V115.459L151.601 115.459Z" fill="white"/>
<path d="M124.24 120.395C122.341 120.395 120.42 120.799 118.937 121.333L119.292 124.502C120.539 123.79 122.29 123.338 123.626 123.338C125.762 123.338 126.504 124.156 126.504 125.699V126.507C121.488 126.507 117.999 128.376 117.999 131.908C117.999 134.282 119.532 135.788 122.203 135.788C124.399 135.788 126.212 134.637 126.924 132.975L126.956 133.007C126.838 133.779 126.827 134.637 126.827 135.497H130.417C130.357 134.28 130.319 132.868 130.319 131.681V125.537C130.319 122.332 128.988 120.395 124.24 120.395ZM126.504 128.965V129.321C126.504 131.101 125.236 132.878 123.367 132.878C122.269 132.878 121.621 132.243 121.621 131.293C121.621 130.106 122.497 128.965 126.504 128.965Z" fill="white"/>
<path d="M139.312 120.406C135.157 120.406 133.039 122.546 133.039 125.128C133.039 130.143 138.989 128.66 138.989 131.272C138.989 132.251 138.05 132.856 136.596 132.856C135.468 132.856 134.347 132.641 133.427 132.404L133.33 135.54C134.279 135.689 135.366 135.799 136.434 135.799C140.47 135.799 142.999 133.824 142.999 130.916C142.999 126.138 136.951 127.208 136.951 124.804C136.951 123.884 137.667 123.284 139.15 123.284C140.07 123.284 141.036 123.435 141.867 123.672L141.996 120.697C141.106 120.549 140.173 120.406 139.312 120.406Z" fill="white"/>
<path d="M173.687 120.406C171.135 120.199 169.711 121.835 168.999 123.705H168.934C169.112 122.666 169.193 121.504 169.193 120.762H165.603V135.508H169.387V129.461C169.387 125.365 170.763 123.594 173.493 124.157L173.687 120.406Z" fill="white"/>
<path d="M180.996 120.406C176.841 120.406 174.722 122.546 174.722 125.128C174.722 130.143 180.705 128.66 180.705 131.272C180.705 132.251 179.733 132.856 178.279 132.856C177.151 132.856 176.03 132.641 175.11 132.404L175.013 135.54C175.963 135.689 177.049 135.799 178.118 135.799C182.154 135.799 184.715 133.824 184.715 130.916C184.715 126.138 178.635 127.208 178.635 124.804C178.635 123.884 179.35 123.284 180.834 123.284C181.754 123.284 182.752 123.435 183.583 123.672L183.68 120.697C182.789 120.549 181.856 120.406 180.996 120.406Z" fill="white"/>
<path d="M203.791 120.395C199.369 120.395 196.871 123.743 196.871 128.253C196.871 133.447 199.49 135.788 204.179 135.788C206.019 135.788 207.877 135.441 209.45 134.818L209.095 131.908C207.818 132.501 206.248 132.813 204.794 132.813C202.063 132.813 200.689 131.466 200.719 128.706H209.871C209.96 128.083 210 127.497 210 126.992C210 123.342 208.094 120.395 203.791 120.395ZM203.662 123.209C205.264 123.209 206.276 124.312 206.216 126.152H200.784C200.991 124.37 202.089 123.209 203.662 123.209Z" fill="white"/>
<defs>
<linearGradient id="paint0_linear_357_2112" x1="37.6794" y1="214.54" x2="205.957" y2="34.0906" gradientUnits="userSpaceOnUse">
<stop stop-color="#009FD9"/>
<stop offset="0.317252" stop-color="#007ABB"/>
<stop offset="1" stop-color="#014B94"/>
</linearGradient>
</defs>
</svg>
