<svg width="250" height="250" viewBox="0 0 250 250" fill="none" xmlns="http://www.w3.org/2000/svg">
<rect width="250" height="250" fill="url(#paint0_linear_256_52)"/>
<path d="M124.586 40L51 82.4857L51.021 167.514L124.599 210V209.992L124.604 210L198.182 167.556V82.4433L124.586 40Z" fill="#5B1F69"/>
<path d="M51 143.866H73.018C89.9366 143.866 98.6128 133.874 98.6128 117.539C98.6128 100.984 88.7644 92.4516 72.7762 92.4516H51V143.866ZM65.7366 130.748V105.39H73.0728C79.5077 105.39 83.5055 110.006 83.5055 117.518C83.5055 125.758 79.61 130.748 73.3197 130.748H65.7366Z" fill="white"/>
<path d="M102.702 143.949H142.001V131.02H117.676V92.4516H102.702V143.949Z" fill="white"/>
<path d="M145.795 143.949H162.617L171.978 128.111L181.34 143.949H198.161L181.684 117.85L198.161 92.4923H181.705L171.978 107.747L162.407 92.4923H145.689L162.324 117.892L145.795 143.949Z" fill="white"/>
<path d="M91.1391 164.255H96.8076C101.229 164.255 103.497 161.667 103.497 157.434C103.497 153.145 100.946 150.934 96.7887 150.934H91.139L91.1391 164.255ZM94.8992 160.873V154.298H96.7887C98.4704 154.298 99.5096 155.488 99.5096 157.434C99.5096 159.569 98.5082 160.873 96.8643 160.873H94.8992Z" fill="white"/>
<path d="M113.643 164.255H117.762L111.319 150.896H109.24L102.816 164.255H106.916L107.747 162.347H112.811L113.643 164.255ZM110.279 155.771L111.697 159.437H108.862L110.279 155.771Z" fill="white"/>
<path d="M127.594 150.936V157.398L120.603 150.936H118.789V164.257H122.523V157.734L129.559 164.257H131.373V150.936H127.594Z" fill="white"/>
<path d="M140.174 164.58C142.956 164.58 144.773 163.596 146.079 162.025L143.107 159.603C142.559 160.53 141.631 161.117 140.344 161.117C138.244 161.117 137.07 159.773 137.07 157.597C137.07 155.439 138.244 154.133 140.344 154.133C141.612 154.133 142.54 154.72 143.107 155.647L146.079 153.225C144.773 151.654 142.767 150.651 140.174 150.651C135.708 150.651 133.077 153.282 133.077 157.597C133.077 161.912 135.708 164.58 140.174 164.58Z" fill="white"/>
<path d="M147.006 164.255H157.701V161.1H150.767V159.286H156.133V156.225H150.767V154.09H157.304V150.934H147.007L147.006 164.255Z" fill="white"/>
<path d="M131.06 174.373C131.537 173.922 132.018 173.643 132.491 173.495C130.194 172.076 127.531 171.341 124.691 171.341C122.535 171.341 120.4 171.771 118.413 172.614C119.965 172.935 121.352 174.134 121.352 176.074V183.395L131.06 174.373ZM114.865 200.223C115.398 201.555 116.704 202.165 118.012 202.165C119.676 202.106 121.376 200.866 121.376 198.78V193.906C121.376 192.68 122.369 192.252 123.259 193.096L131.045 200.498C131.596 201.019 132.15 201.311 132.7 201.441C132.933 201.495 133.171 201.519 133.409 201.519C135.198 201.446 136.89 199.753 136.89 197.981C136.89 197.159 136.525 196.343 135.762 195.619L129.106 189.319C128.187 188.449 128.61 187.391 129.874 187.394L140.725 187.418C140.77 183.411 139.332 179.814 136.97 177.03C136.806 177.813 136.449 178.552 135.745 179.219L127.406 187.111C127.333 187.182 126.742 187.713 126.638 187.713L115.744 187.688C115.153 187.688 114.631 186.867 114.631 186.275V176.075C114.631 175.606 114.697 175.19 114.82 174.826C111.03 177.705 108.627 182.241 108.59 187.337L113.494 187.41C114.087 187.41 114.606 187.934 114.606 188.527V198.778C114.607 199.329 114.702 199.811 114.865 200.221L114.865 200.223ZM130.147 206.118C128.351 206.649 126.489 206.917 124.618 206.916C122.211 206.916 119.825 206.473 117.58 205.601C110.538 202.865 105.482 196.137 105.186 188.193L105.165 187.456C105.165 176.71 113.87 167.995 124.609 167.995C135.332 167.995 144.028 176.681 144.053 187.405C144.053 196.228 138.187 203.733 130.138 206.118L130.147 206.118Z" fill="white"/>
<defs>
<linearGradient id="paint0_linear_256_52" x1="125" y1="0" x2="125" y2="250" gradientUnits="userSpaceOnUse">
<stop stop-color="#610855"/>
<stop offset="1" stop-color="#B25994"/>
</linearGradient>
</defs>
</svg>
