<svg width="250" height="250" viewBox="0 0 250 250" fill="none" xmlns="http://www.w3.org/2000/svg">
<rect width="250" height="250" fill="url(#paint0_linear_256_3)"/>
<path d="M194.971 89.916H55.1358V164.009H194.971V89.916Z" fill="white"/>
<path d="M87.7992 61.2347L51.0244 82.4695L51.0122 125.006L51 167.537L87.8053 188.777C108.045 200.46 124.635 210.012 124.672 210C124.708 209.994 140.73 200.753 160.268 189.467C179.812 178.181 198.27 167.537 198.27 167.537L198.258 125L198.245 82.4695L161.471 61.2347C141.243 49.5584 124.672 40 124.635 40C124.604 40 108.027 49.5584 87.7992 61.2347ZM70.8919 96.9047C72.9733 97.1794 74.6518 97.747 76.0007 98.6259C78.1675 100.042 79.5164 102.123 80.1024 104.974C80.4869 106.854 80.4686 109.491 80.0475 111.48C79.3455 114.837 77.5022 117.303 74.7189 118.616C73.5592 119.159 72.3446 119.494 70.8126 119.684C70.2022 119.757 69.0852 119.775 64.5624 119.775H59.0508V108.264V96.7521L64.6234 96.7826C69.1646 96.807 70.3182 96.8254 70.8919 96.9047ZM100.727 99.5232L100.739 102.258H95.0931H89.4471V104.089V105.92H94.086H98.7248L98.7126 108.557L98.6942 111.2L94.0737 111.218L89.4471 111.23V112.787V114.343H95.4288H101.41V117.059V119.775H92.1633H82.9162V108.313C82.9162 102.007 82.9345 96.8254 82.9589 96.807C82.9772 96.7826 86.9813 96.7704 91.852 96.7765L100.708 96.7948L100.727 99.5232ZM111.066 105.383L111.085 114.007L116.505 114.026L121.919 114.038V116.906V119.775H113.129H104.34V108.313C104.34 102.007 104.358 96.8254 104.383 96.807C104.401 96.7826 105.915 96.7643 107.74 96.7643H111.054L111.066 105.383ZM130.281 103.228C130.281 107.22 130.305 109.936 130.342 110.321C130.513 111.999 131.056 113.171 131.935 113.733C132.496 114.093 132.973 114.233 133.797 114.27C134.975 114.319 135.713 114.135 136.378 113.635C137.056 113.128 137.526 112.225 137.764 110.986C137.868 110.449 137.88 109.893 137.898 103.582L137.917 96.7643L141.225 96.7765L144.533 96.7948V104.272C144.533 112.158 144.533 112.243 144.252 113.519C143.526 116.827 141.365 119.012 137.971 119.867C137.141 120.074 136.775 120.135 135.774 120.233C133.821 120.428 131.764 120.282 130.128 119.83C126.924 118.951 124.794 116.852 124.018 113.8C123.658 112.408 123.671 112.634 123.646 104.461C123.634 100.323 123.634 96.8925 123.652 96.8498C123.677 96.7765 124.244 96.7643 126.985 96.7643H130.281V103.228ZM155.843 100.164C156.911 102.02 157.796 103.539 157.815 103.539C157.839 103.539 158.742 102.013 159.829 100.152L161.806 96.7643H165.45C167.507 96.7643 169.1 96.7887 169.1 96.8193C169.1 96.8498 167.556 99.3828 165.67 102.447C163.784 105.517 162.24 108.081 162.24 108.148C162.24 108.215 163.815 110.766 165.743 113.824C167.666 116.876 169.296 119.47 169.363 119.574L169.479 119.775H165.725H161.971L159.908 116.272C158.364 113.653 157.821 112.78 157.772 112.835C157.735 112.878 156.82 114.416 155.733 116.266C154.653 118.109 153.731 119.659 153.695 119.702C153.64 119.757 152.828 119.775 149.892 119.763L146.163 119.745L149.764 114.068C151.741 110.943 153.389 108.331 153.426 108.258C153.481 108.142 153.078 107.458 150.002 102.508C148.085 99.4194 146.517 96.862 146.517 96.8315C146.517 96.7826 147.615 96.7704 150.215 96.7765L153.914 96.7948L155.843 100.164ZM189.535 99.5232L189.548 102.258H183.902H178.256V104.089V105.92H182.895H187.533V108.575V111.23H182.895H178.256V112.787V114.343H184.237H190.219V117.059V119.775H180.972H171.725V108.313C171.725 102.007 171.743 96.8254 171.768 96.807C171.786 96.7826 175.79 96.7704 180.661 96.7765L189.517 96.7948L189.535 99.5232ZM136.995 123.834C140.242 124.072 142.903 124.695 145.192 125.751L145.729 126.001L145.522 126.379C145.406 126.593 144.655 128.027 143.862 129.572C143.062 131.116 142.403 132.392 142.391 132.404C142.378 132.416 141.872 132.257 141.255 132.056C138.393 131.104 136.098 130.689 134.187 130.786C132.979 130.841 132.277 131.067 131.88 131.519C131.361 132.111 131.495 133.106 132.161 133.588C132.93 134.149 133.913 134.467 136.873 135.095C139.687 135.694 141.017 136.097 142.336 136.743C144.435 137.775 145.784 139.313 146.364 141.346C146.663 142.389 146.773 143.653 146.694 145.051C146.48 148.792 144.863 151.258 141.756 152.595C139.925 153.382 137.923 153.712 134.95 153.712C131.63 153.712 128.834 153.303 126.13 152.418C124.629 151.929 122.541 151.032 122.578 150.892C122.608 150.77 125.526 144.471 125.575 144.416C125.599 144.391 125.959 144.532 126.381 144.733C129.231 146.088 132.582 146.882 135.072 146.796C136.171 146.76 136.653 146.662 137.19 146.375C137.849 146.027 138.148 145.46 138.069 144.715C137.99 144.001 137.66 143.58 136.873 143.183C136.165 142.829 135.628 142.67 133.803 142.292C129.347 141.364 126.936 140.375 125.288 138.794C123.823 137.39 123.182 135.913 123.042 133.6C122.999 132.868 123.091 131.622 123.237 130.884C123.768 128.296 125.258 126.343 127.614 125.153C129.933 123.975 133.027 123.541 136.995 123.834ZM179.995 123.895C183.944 124.426 187.112 125.977 189.597 128.595L190.225 129.26L190.085 129.395C189.67 129.791 183.847 134.479 183.804 134.449C183.774 134.43 183.639 134.253 183.499 134.052C182.98 133.283 181.973 132.41 181.094 131.964C179.007 130.908 175.735 131.067 173.794 132.318C172.366 133.24 171.456 134.65 171.041 136.591C170.889 137.317 170.828 139.161 170.925 140.033C171.328 143.476 173.269 145.624 176.455 146.149C177.145 146.265 178.708 146.247 179.373 146.119C181.07 145.789 182.4 144.953 183.426 143.567C183.67 143.238 183.853 143.049 183.896 143.073C184.03 143.152 190.152 148.163 190.189 148.218C190.25 148.322 188.339 150.178 187.643 150.703C184.872 152.76 181.674 153.712 177.523 153.712C175.82 153.712 174.472 153.571 173.025 153.248C167.55 152.027 163.827 148.279 162.667 142.847C162.344 141.327 162.295 140.821 162.295 138.697C162.295 136.615 162.344 136.066 162.637 134.668C163.442 130.866 165.401 127.954 168.459 126.032C170.4 124.811 172.927 124.036 175.753 123.804C176.693 123.724 179.135 123.779 179.995 123.895ZM68.7251 131.427C71.777 135.321 74.2917 138.495 74.31 138.477C74.3283 138.459 76.8125 135.279 79.8399 131.415L85.3333 124.384L87.4207 124.365L89.5082 124.353V138.727V153.101H85.4492H81.3903L81.3781 147.297L81.3598 141.486L78.5032 145.099L75.6467 148.707H74.2856H72.9245L67.2602 141.553L67.2297 147.309L67.1992 153.071L63.128 153.089L59.0508 153.101V138.727V124.353H61.1138H63.1708L68.7251 131.427ZM101.978 132.941C102.002 142.353 101.984 141.84 102.363 143.091C102.741 144.336 103.437 145.252 104.358 145.71C105.146 146.107 105.488 146.174 106.69 146.174C107.593 146.174 107.789 146.155 108.216 146.033C109.742 145.594 110.731 144.471 111.152 142.676C111.439 141.498 111.433 141.565 111.463 132.727L111.488 124.353H115.608H119.728L119.703 133.948L119.685 143.549L119.551 144.391C119.123 147.004 118.171 148.933 116.529 150.513C114.326 152.644 111.03 153.712 106.69 153.712C104.853 153.712 103.388 153.541 101.911 153.15C96.9303 151.844 94.1043 148.359 93.7197 143.061C93.6831 142.548 93.6587 138.66 93.6587 133.277V124.353H97.8092H101.954L101.978 132.941ZM158.663 138.727V153.101L154.5 153.089L150.331 153.071L150.313 138.709L150.301 124.353H154.482H158.663V138.727Z" fill="#C5030E"/>
<path d="M65.5817 108.294V113.977H67.126C69.5735 113.977 70.2877 113.867 71.1422 113.366C72.308 112.683 73.0465 111.444 73.37 109.637C73.5165 108.795 73.5104 107.232 73.3456 106.463C72.9489 104.553 71.8807 103.301 70.2205 102.801C69.7933 102.673 69.6285 102.66 67.6753 102.636L65.5817 102.618V108.294Z" fill="#C5030E"/>
<defs>
<linearGradient id="paint0_linear_256_3" x1="125" y1="0" x2="125" y2="250" gradientUnits="userSpaceOnUse">
<stop stop-color="#BE002F"/>
<stop offset="1" stop-color="#0B0006"/>
</linearGradient>
</defs>
</svg>
