<svg width="250" height="250" viewBox="0 0 250 250" fill="none" xmlns="http://www.w3.org/2000/svg">
<rect width="250" height="250" fill="url(#paint0_linear_256_37)"/>
<path d="M124.621 40L51.0141 82.5122V167.508L124.602 210V209.992L124.607 210L198.174 167.529V82.5122L124.621 40Z" fill="#D3A84C"/>
<path d="M51 143.866H73.032C89.9614 143.866 98.6432 133.871 98.6432 117.564C98.6432 101.039 88.8309 92.5425 72.8325 92.5425H51V143.866ZM65.7248 130.793V105.352H72.8961C79.482 105.352 83.5262 109.993 83.5262 117.564C83.5262 125.791 79.6269 130.719 73.1856 130.793H65.7248Z" fill="white"/>
<path d="M102.69 92.4924V143.967H141.981V131H117.684V92.4924H102.69Z" fill="white"/>
<path d="M145.715 92.5619L162.292 117.911L145.778 143.986H162.613L171.972 128.185L181.288 143.986H198.144L181.692 117.89L198.123 92.5619H181.653L171.972 107.7L162.414 92.5619H145.715Z" fill="white"/>
<path d="M106.104 154.447V167.604H109.881V164.329H111.305L113.464 167.604H118.052L115.119 163.608C116.638 162.84 117.475 161.459 117.475 159.379C117.475 157.793 116.961 156.558 115.973 155.722C114.984 154.885 113.523 154.447 111.632 154.447H106.104ZM109.881 157.592H111.427C112.215 157.592 112.735 157.763 113.059 158.093C113.382 158.424 113.512 158.916 113.512 159.565C113.512 159.989 113.383 160.402 113.059 160.71C112.735 161.018 112.215 161.222 111.427 161.222H109.881V157.592Z" fill="white"/>
<path d="M125.056 154.389L118.71 167.604H122.79L123.609 165.722H128.573L129.392 167.604H133.491L127.126 154.389H125.056ZM126.091 159.267L127.46 162.814H124.722L126.091 159.267Z" fill="white"/>
<path d="M134.367 154.449V167.606H138.145V164.591H139.616C141.508 164.591 142.982 164.205 143.985 163.366C144.988 162.527 145.516 161.236 145.516 159.436C145.516 157.813 145.002 156.565 144.013 155.723C143.025 154.882 141.564 154.449 139.672 154.449H134.367ZM138.145 157.594H139.467C140.255 157.594 140.775 157.765 141.099 158.095C141.422 158.425 141.552 158.918 141.552 159.567C141.552 160.122 141.422 160.6 141.098 160.94C140.775 161.28 140.255 161.484 139.467 161.484H138.145V157.594Z" fill="white"/>
<defs>
<linearGradient id="paint0_linear_256_37" x1="125" y1="0" x2="125" y2="250" gradientUnits="userSpaceOnUse">
<stop stop-color="#B06C17"/>
<stop offset="1" stop-color="#C2A033"/>
</linearGradient>
</defs>
</svg>
