<svg width="250" height="250" viewBox="0 0 250 250" fill="none" xmlns="http://www.w3.org/2000/svg">
<rect width="250" height="250" fill="#00B5FF"/>
<path d="M88.668 76.332C61.7894 76.332 40 98.1214 40 125C40 151.879 61.7894 173.668 88.668 173.668C103.112 173.668 116.087 167.375 125 157.382C133.913 167.375 146.888 173.668 161.332 173.668C188.211 173.668 210 151.879 210 125C210 98.1214 188.211 76.332 161.332 76.332C146.888 76.332 133.913 82.6248 125 92.618C116.087 82.6248 103.112 76.332 88.668 76.332ZM88.668 86.9781C109.667 86.9781 126.69 104.001 126.69 125C126.69 145.999 109.667 163.022 88.668 163.022C67.6691 163.022 50.6461 145.999 50.6461 125C50.6461 104.001 67.6691 86.9781 88.668 86.9781ZM68.0094 106.522V144.122H93.0088C104.407 144.122 113.419 137.084 113.419 125.322C113.419 113.561 103.985 106.522 93.0088 106.522H68.0094ZM135.842 109.142H147.069L152.122 126.6L158.433 109.142H166.972L173.282 126.679L178.336 109.142H189.563L179.033 142.432H169.391L162.663 126.188L155.845 142.432H146.371L135.842 109.142ZM79.923 117.39H91.2503C97.2761 117.39 100.745 120.301 100.745 125.407C100.745 130.475 97.485 133.169 91.4193 133.169H79.923V117.39Z" fill="white"/>
</svg>
