<svg width="250" height="250" viewBox="0 0 250 250" fill="none" xmlns="http://www.w3.org/2000/svg">
<rect width="250" height="250" fill="#529EE9"/>
<path fill-rule="evenodd" clip-rule="evenodd" d="M210 171.151L171.151 210H40V79.6016L79.6016 40H210V171.151ZM157.112 57.2246C149.568 57.2247 144.69 60.2217 141.624 63.21C137.683 67.2953 135.406 71.9526 135.406 79.1494V130.346C135.406 137.126 137.47 141.677 141.312 145.804C145.712 150.022 150.653 151.662 157.447 151.662C164.642 151.662 169.181 148.248 172.167 145.422C175.7 141.829 178.011 137.104 178.011 130.346V124.774H164.827V130.49C164.827 134.951 162.062 138.422 156.854 138.422C154.5 138.422 152.426 137.871 150.814 136.111C149.273 134.429 148.565 131.279 148.565 129.743V80.2041C148.565 76.8698 150.028 73.3968 151.193 72.3643C152.631 71.0822 154.24 70.5088 156.913 70.5088C161.946 70.5089 164.827 74.7243 164.827 79.752V85.1895H178.011V78.0957C178.011 73.2782 176.539 67.8518 172.425 63.3984C168.559 59.301 162.84 57.2246 157.112 57.2246ZM106.889 57.2217C99.5818 57.2218 94.9577 59.581 91.1738 63.0576C86.1019 67.8656 84.0518 75.4126 84.0518 82.8398C84.0518 91.3526 86.0651 97.1187 89.3477 100.606C91.534 102.854 93.9888 104.47 96.8428 105.813L105.5 109.415C109.66 111.05 112.282 112.344 113.33 113.425C115.466 115.65 115.737 118.647 115.737 124.315C115.737 132.882 114.597 134.713 113.18 136.067C111.487 137.654 109.486 138.418 106.085 138.418C95.8978 138.418 96.4658 128.758 96.4658 127.299V124.774H83.3662V130.044C83.3662 135.526 85.4923 140.949 89.5391 144.951C93.586 148.953 98.7025 151.658 106.259 151.658C113.679 151.658 118.381 149.539 122.063 146.156C127.234 141.087 129.014 133.496 129.014 124.174C129.014 113.316 127.335 107.995 123.569 104.146C121.406 101.958 118.795 100.466 115.155 98.9736L104.358 94.7393C102.44 93.739 100.013 92.7783 98.7617 90.8516C97.5109 88.9248 97.3066 86.6787 97.3066 82.7207C97.3067 74.1535 100.475 70.5059 106.271 70.5059C114.007 70.506 115.288 77.0273 115.288 81.2578V85.1729H128.464V77.834C128.464 72.7231 126.969 68.3899 122.943 63.7842C119.465 60.3827 114.425 57.2217 106.889 57.2217ZM185.606 151.042H198.707V58.2197H185.606V151.042Z" fill="white"/>
</svg>
