<svg width="250" height="250" viewBox="0 0 250 250" fill="none" xmlns="http://www.w3.org/2000/svg">
<rect width="250" height="250" fill="url(#paint0_linear_337_374)"/>
<path d="M145.013 145.402H148.837L153.054 152.595H153.071V145.402H155.58V156.272H152.433L147.548 148.041H147.522V156.272H145.013V145.402Z" fill="white"/>
<path d="M132.435 145.402H136.259L140.476 152.595H140.493V145.402H143.002V156.272H139.855L134.97 148.041H134.944V156.272H132.435V145.402Z" fill="white"/>
<path d="M123.467 145.402L119.22 156.273H121.991L122.713 154.087H127.126L127.849 156.273H131.013L126.767 145.402H123.466H123.467ZM124.899 147.748H124.96L126.56 152.37H123.281L124.899 147.748Z" fill="white"/>
<path d="M110.599 156.272V151.705H115.324V156.272H117.962V145.402H115.324V149.585H110.599V145.402H107.96V156.273H110.599V156.272Z" fill="white"/>
<path d="M95.0658 151.897C95.0658 154.755 97.1135 156.449 100.601 156.449C104.089 156.449 105.922 154.903 106.096 152.155H103.429C103.373 153.409 102.297 154.139 100.522 154.139C98.651 154.139 97.704 153.328 97.704 151.743V149.944C97.704 148.392 98.7119 147.529 100.554 147.529C102.259 147.529 103.335 148.268 103.391 149.498H106.058C105.881 146.696 104.042 145.254 100.718 145.254C97.1167 145.254 95.0658 146.947 95.0658 149.863V151.897V151.897Z" fill="white"/>
<path d="M157.563 156.273H166.281V154.131H160.201V151.633H165.055V149.968H160.201V147.544H166.281V145.402H157.564V156.274L157.563 156.273Z" fill="white"/>
<path d="M168.009 145.402V156.273H176.956V154.131H170.647V145.402H168.009H168.009Z" fill="white"/>
<path d="M66.3615 121.827C66.3615 121.827 64.029 121.99 62.4232 122.166C60.3786 122.388 56.5359 123.046 54.3203 123.83C53.6572 124.064 52.3079 124.624 52.1871 125.305C52.0647 126.008 52.5035 126.556 52.994 127.125C53.2772 127.458 54.8777 128.982 55.3266 129.354C57.2087 130.913 61.0247 133.317 63.8345 134.481C64.799 134.88 66.3963 135.444 66.3963 135.444C66.3963 135.444 66.2755 130.935 66.299 126.493C66.3108 124.148 66.361 121.828 66.361 121.828M109.16 123.624C109.292 124.832 108.976 127.125 108.924 127.422C108.823 128.128 108.294 129.729 108.207 129.923C107.779 130.9 107.358 131.705 106.911 132.502C106.146 133.864 104.328 136.034 103.248 136.958C99.2292 140.4 93.01 142.364 87.6737 143.011C84.0533 143.443 79.8926 143.38 76.0563 142.672C74.7385 142.438 72.7709 141.99 72.7709 141.99C72.7709 141.99 72.7795 142.767 72.7121 143.319C72.6854 143.566 72.4946 144.222 72.3888 144.44C72.1077 145.013 71.6535 145.302 70.9855 145.431C70.1834 145.577 69.3295 145.627 68.5862 145.313C67.3672 144.805 66.9285 143.674 66.7174 142.367C66.5464 141.32 66.3658 139.509 66.3658 139.509C66.3658 139.509 65.4547 139.08 64.6932 138.705C62.3574 137.564 60.1371 136.184 58.1962 134.759C57.6602 134.361 55.3464 132.437 54.8371 131.965C53.4071 130.616 52.1214 129.276 51.1413 127.557C50.3814 126.214 50.1618 125.025 50.7411 123.601C51.5416 121.622 54.4048 120.122 56.3686 119.275C57.8088 118.644 62.2864 117.189 64.1449 116.923C65.024 116.797 66.3851 116.561 66.4706 116.504C66.5058 116.476 66.5309 116.455 66.5545 116.43C66.5961 116.365 66.6683 114.403 66.6549 113.686C66.64 112.982 67.1807 108.344 67.3582 107.362C67.4469 106.833 67.8557 104.791 68.2671 104.253C68.5386 103.891 69.0174 103.916 69.4059 104.159C71.5392 105.476 72.1874 110.034 72.3429 112.361C72.4401 113.771 72.4887 115.897 72.4887 115.897C72.4887 115.897 74.9351 115.834 76.4421 115.872C77.9036 115.905 79.5164 116.134 81.0351 116.377C82.9808 116.684 86.7669 117.503 88.9434 118.594C90.7314 119.495 92.4062 121.017 92.9486 122.618C93.4541 124.089 93.3788 125.109 92.6103 126.43C91.7478 127.932 90.1153 129.051 88.4576 129.141C87.9655 129.166 86.1117 128.922 85.5356 128.487C85.3144 128.309 85.3262 127.995 85.4854 127.781C85.5474 127.704 86.4163 127.251 86.9288 126.982C87.1831 126.843 87.3974 126.694 87.5968 126.513C88.0221 126.141 88.4037 125.731 88.362 125.256C88.3032 124.636 87.6384 124.249 87.0057 124.001C84.0383 122.836 78.1142 121.862 75.2478 121.692C74.1277 121.631 72.5352 121.572 72.5352 121.572L72.8719 137.254C72.8719 137.254 74.1897 137.502 75.2296 137.673C75.8238 137.763 78.3509 137.983 79.0205 137.995C84.1324 138.138 89.8342 137.685 94.5223 135.487C96.5802 134.522 98.4687 133.33 99.8993 131.714C101.785 129.567 102.773 126.634 102.511 123.572C102.225 120.225 99.8474 116.254 97.9568 113.836C92.947 107.444 84.3621 102.195 76.8049 99.1156C69.0976 95.9719 61.4752 94.1603 53.2906 93.8611C51.1825 93.7766 46.5793 93.8862 44.2569 94.5237C43.9256 94.6183 43.5889 94.7294 43.2806 94.7978C43.0364 94.8561 42.6511 95.0121 42.5453 95.1003C42.4918 95.1468 42.4298 95.2147 42.4298 95.2147C42.4298 95.2147 42.5757 95.2911 42.7131 95.3493C42.9573 95.4589 43.9956 95.5203 44.5316 95.6181C45.0104 95.7079 45.5095 95.9537 45.7088 96.3059C45.8948 96.6361 45.9199 96.9006 45.6938 97.1726C45.1696 97.8101 43.1855 97.7006 42.3134 97.5643C41.4044 97.4184 40.2774 97.1491 40.0679 96.362C39.8269 95.4386 40.2688 94.5371 40.746 93.6981C41.7052 92.0223 43.0802 91.1555 45.0948 90.6126C47.9521 89.8324 51.5624 89.2841 54.2616 89.1847C60.3717 88.9539 66.1537 90.0151 72.0725 91.7984C75.4631 92.8148 79.8974 94.5152 83.1438 96.0697C85.4747 97.1839 89.1433 99.2332 91.2065 100.572C91.8563 100.997 95.6654 103.767 96.2548 104.264C97.4908 105.26 99.103 106.694 100.272 107.843C102.531 110.069 105.342 113.472 106.708 116.175C107.035 116.822 107.291 117.457 107.713 118.209C107.859 118.461 108.483 120.004 108.587 120.448C108.689 120.886 108.843 121.532 108.863 121.559C108.892 121.789 109.18 123.113 109.16 123.624Z" fill="white"/>
<path d="M109.157 105.879C109.157 105.879 109.83 104.88 110.391 104.132C111.412 102.748 113.264 100.841 114.658 99.6543C115.084 99.2973 115.588 98.8901 115.588 98.8901C115.588 98.8901 114.802 98.9687 114.355 99.0622C113.298 99.2642 111.744 100.289 110.972 100.946C109.691 102.027 108.287 103.797 108.923 105.361C109.015 105.584 109.157 105.88 109.157 105.88M116.266 107.763C118.289 107.628 120.178 107.051 121.937 106.084C123.667 105.125 126.211 103.257 125.945 101.061C125.864 100.345 125.396 99.813 124.8 99.5592C124.035 99.2337 123.632 99.284 122.647 99.5725C121.933 99.7847 121.608 99.9044 120.935 100.29C118.952 101.43 116.143 103.874 114.618 105.821C114.268 106.286 113.911 106.795 113.631 107.151C113.453 107.366 113.315 107.564 113.335 107.616C113.393 107.838 115.476 107.815 116.265 107.763M111.123 111.511C110.913 111.728 110.697 112.257 110.467 112.639C110.344 112.842 110.116 113.103 109.967 113.209C109.442 113.59 108.998 113.606 108.487 113.173C107.775 112.547 107.366 111.576 107.336 110.635C107.324 110.228 107.394 109.775 107.315 109.432C107.184 108.848 106.595 108.247 106.278 107.688C105.903 107.031 105.603 105.889 105.564 105.15C105.437 102.843 106.663 100.72 108.256 99.0435C109.86 97.3484 111.959 95.9452 114.24 94.9892C116.397 94.0834 119.56 93.4726 121.928 94.2832C122.698 94.5483 123.773 95.1976 124.314 95.8784C124.428 96.02 124.524 96.1701 124.638 96.2487C124.746 96.3155 125.02 96.3406 125.241 96.3807C125.995 96.5143 127.083 97.078 127.529 97.4569C128.419 98.2179 128.909 98.9468 129.136 100.006C129.587 102.137 128.35 104.474 126.941 105.896C124.526 108.344 122.143 110.068 119.053 111.267C117.698 111.793 115.584 112.282 114.047 112.143C113.569 112.105 113.075 111.981 112.609 111.948C112.375 111.932 111.507 111.706 111.412 111.646C111.297 111.556 111.15 111.481 111.123 111.511" fill="white"/>
<path d="M114.072 115.691C114.167 115.707 114.308 115.75 114.435 115.795C115.507 116.201 115.946 117.197 116.211 118.283C116.824 120.814 117.084 126.403 117.186 128.59C117.259 130.238 117.301 131.852 117.368 133.476C117.427 134.853 117.538 136.681 117.253 137.97C117.147 138.431 116.838 138.97 116.392 139.243C115.882 139.571 114.724 139.598 114.087 139.465C112.519 139.14 112.006 138.134 111.782 136.583C111.251 132.882 111.505 125.621 111.821 122.556C111.926 121.547 112.306 118.302 112.836 116.943C113.018 116.482 113.403 115.56 114.072 115.689" fill="white"/>
<path d="M134.409 123.922C134.526 123.935 134.551 123.942 134.662 123.957C136.538 124.211 138.39 124.545 139.799 125.174C141.11 125.744 141.878 126.47 142.575 127.762C143.645 129.721 143.713 132.46 142.751 134.541C142.03 136.088 140.45 137.383 139.008 138.069C137.512 138.79 136.037 139.127 134.345 139.322C131.388 139.644 128.192 139.04 125.529 137.76C123.954 136.997 122.029 135.688 121.06 133.996C120.349 132.761 120.367 131.147 121.24 129.969C122.62 128.099 125.584 127.686 127.816 127.762C129.519 127.823 132.581 128.347 134.196 128.915C134.646 129.08 136.297 129.711 136.587 130.006C136.785 130.211 136.92 130.505 136.828 130.777C136.457 131.897 133.716 132.488 132.923 132.607C130.802 132.928 129.702 132.129 127.292 131.192C126.692 130.957 125.894 130.695 125.284 130.64C124.189 130.541 122.867 130.842 122.656 132.028C122.555 132.634 123.276 133.204 123.827 133.445C125.124 133.996 126.172 134.194 127.446 134.214C131.209 134.272 135.435 133.663 138.511 131.499C138.932 131.199 139.343 130.766 139.35 130.216C139.355 129.424 138.477 128.986 137.871 128.667C137.716 128.584 137.562 128.497 137.399 128.432C135.329 127.575 131.498 127.157 129.522 126.997C127.455 126.819 124.199 126.555 123.418 126.439C122.614 126.327 121.738 126.165 121.043 125.856C120.34 125.541 119.656 124.843 119.454 124.066C119.092 122.667 119.548 120.95 120.335 119.834C122.392 116.902 127.206 115.798 130.802 115.351C134.282 114.918 139.912 114.928 143.33 116.729C143.862 117.009 144.13 117.27 144.02 117.823C143.796 118.878 142.998 119.554 142.035 119.854C141.024 120.168 138.927 120.291 138.007 120.349C133.887 120.58 128.904 120.459 124.978 121.524C124.671 121.606 124.139 121.749 123.967 121.941C123.351 122.598 125.106 122.79 125.482 122.866C125.594 122.892 125.616 122.897 125.733 122.911L134.41 123.922" fill="white"/>
<path d="M146.49 139.392C144.827 138.786 144.451 136.124 144.373 134.778C144.114 130.391 145.281 124.291 146.764 120.18C147.188 119.005 147.798 117.097 149.121 117.201C150.024 117.281 150.674 117.975 151.184 118.693C152.482 120.514 154.196 122.989 155.331 124.708C156.602 126.634 157.819 128.577 159.017 130.33C159.163 130.545 159.301 130.75 159.466 130.881C159.683 131.054 159.881 131.066 159.967 130.906C160.007 130.842 159.926 128.626 159.871 128.182C159.777 127.476 159.735 126.9 159.656 126.289C159.434 124.515 158.865 122.025 158.421 120.337C157.927 118.448 157.326 116.485 156.878 114.658C156.737 114.062 156.602 113.464 156.607 112.895C156.611 112.082 157.136 111.635 157.999 111.939C159.687 112.534 161.929 116.171 162.577 117.432C162.797 117.862 163.681 120.032 163.882 120.638C164.576 122.722 165.002 124.709 165.197 126.98C165.385 129.185 165.229 132.405 164.289 134.581C163.941 135.389 163.231 136.464 162.641 137.01C161.714 137.857 159.874 138.527 158.6 137.806C157.213 137.02 154.927 133.095 154.539 132.424C153.212 130.125 150.932 125.631 150.575 125.13C150.498 125.018 150.4 124.913 150.223 124.859C150.089 124.823 150.035 125.091 149.998 125.278C149.776 126.585 149.615 132.704 149.611 132.875C149.576 133.903 149.523 136.428 149.226 137.673C149.029 138.483 148.832 139.154 148.076 139.489C147.546 139.731 147.137 139.631 146.49 139.394" fill="white"/>
<path d="M168.49 139.885C168.313 139.75 168.018 139.46 167.807 139.223C167.77 139.188 167.175 138.299 167.051 138.027C166.95 137.794 166.873 137.621 166.793 137.422C166.25 136.03 166.265 134.656 166.567 133.163C166.847 131.766 167.113 131.708 167.835 129.786C167.877 129.68 167.908 129.593 167.924 129.481C167.948 129.211 167.516 127.448 167.498 126.882C167.461 126.013 168.146 125.398 169.282 125.279C169.388 125.27 169.464 125.276 169.538 125.247C169.995 125.137 170.281 124.278 170.531 123.591C170.878 122.623 171.416 121.139 171.416 121.139C171.416 121.139 169.978 120.813 169.212 120.525C168.347 120.206 167.703 119.787 167.31 119.006C166.846 118.096 167.155 117.59 168.116 117.296C168.47 117.185 171.264 116.649 172.146 116.527C173.242 116.371 174.277 116.232 175.324 116.102C176.236 115.989 180.409 115.512 181.741 115.553C183.769 115.608 185.084 116.432 186.267 118.131C186.901 119.035 187.338 120.113 186.375 120.696C184.902 121.584 180.119 121.644 179.239 121.658C177.845 121.675 175.915 121.644 175.915 121.644L174.939 124.868C174.939 124.868 178.365 124.831 180.29 124.826C180.761 124.826 181.231 124.851 181.489 124.903C182.474 125.124 182.811 125.87 182.855 126.943C182.906 128.207 182.668 128.79 181.655 128.955C181.125 129.038 175.243 129.074 174.444 129.162C173.943 129.22 173.417 129.299 173.417 129.299C173.417 129.299 172.996 130.391 172.628 131.507C172.252 132.658 171.93 133.841 171.93 133.841C171.93 133.841 172.23 133.849 172.476 133.849C172.892 133.849 173.312 133.794 173.641 133.734C175.437 133.414 178.106 133.022 180.296 132.678C181.476 132.494 182.071 132.41 182.688 133.184C183.226 133.868 183.503 134.435 183.543 135.266C183.572 136.043 182.973 136.557 182.243 137.113C179.926 138.861 175.968 140.764 173.019 141.086C171.657 141.24 171.328 141.091 170.133 140.784C169.902 140.723 169.079 140.339 169.088 140.296C169.088 140.296 168.641 140.005 168.489 139.885" fill="white"/>
<path d="M205.317 122.15C203.803 123.41 201.844 125.978 200.911 127.306C199.662 129.075 198.488 131.099 197.365 132.665C197.121 133.019 196.394 134.282 196.42 134.323C196.471 134.407 197.202 134.382 197.948 134.256C199.548 133.988 201.72 132.884 202.879 131.961C204.647 130.552 205.879 128.623 206.453 126.371C206.719 125.345 206.842 123.197 206.113 122.24C205.966 122.054 205.604 121.912 205.318 122.15M193.282 140.587C193.282 140.587 192.797 141.98 192.448 143.076C191.838 144.972 190.506 150.063 190.191 151.646C189.726 153.997 188.403 160.148 188.33 160.285C188.237 160.459 188.178 160.519 187.951 160.656C187.408 160.973 187.188 160.871 186.526 160.521C185.665 160.078 184.91 159.616 184.264 158.777C182.973 157.107 183.281 153.971 183.534 152.121C184.423 145.688 185.318 142.855 187.793 136.443C187.831 136.333 187.831 136.308 187.784 136.213C187.014 134.582 186.597 132.616 186.597 131.032C186.605 126.004 189.518 121.033 192.782 117.039C193.029 116.735 194.632 114.831 195.361 114.87C196.09 114.905 196.21 115.748 196.101 116.453C195.735 118.775 194.089 121.135 192.959 123.094C191.69 125.283 191.416 126.189 190.801 128.191C190.7 128.507 190.452 129.965 190.461 130.158C190.49 130.7 190.606 131.381 190.606 131.381C190.606 131.381 192.664 128.515 194.025 126.751C194.768 125.785 195.298 125.144 195.915 124.447C196.544 123.749 198.962 121.26 199.66 120.607C201.117 119.224 201.765 118.648 203.345 117.838C204.602 117.192 205.724 117.03 206.945 117.837C208.877 119.096 209.719 121.755 209.936 123.92C210.194 126.511 209.662 129.417 208.516 131.628C207.149 134.268 205.284 136.17 202.752 137.832C200.161 139.536 197.131 140.692 194.148 140.618C193.749 140.612 193.282 140.588 193.282 140.588" fill="white"/>
<defs>
<linearGradient id="paint0_linear_337_374" x1="0" y1="125" x2="250" y2="125" gradientUnits="userSpaceOnUse">
<stop stop-color="#A45AC8"/>
<stop offset="1" stop-color="#5C33A8"/>
</linearGradient>
</defs>
</svg>
