<svg width="250" height="250" viewBox="0 0 250 250" fill="none" xmlns="http://www.w3.org/2000/svg">
<rect width="250" height="250" fill="#571497"/>
<path d="M205.464 135.961C207.969 135.961 210 133.93 210 131.424C210 128.919 207.969 126.888 205.464 126.888C202.958 126.888 200.927 128.919 200.927 131.424C200.927 133.93 202.958 135.961 205.464 135.961Z" fill="white"/>
<path d="M202.442 111.555C204.009 110.927 205.736 110.864 207.404 110.899V122.264C206.455 121.821 205.422 121.535 204.368 121.535C203.004 121.479 201.562 121.877 200.557 122.844C199.737 123.618 199.266 124.718 199.155 125.824C199.081 126.525 199.116 127.237 199.109 127.935L199.099 135.954H187.217C187.2 127.778 187.207 119.605 187.217 111.44H198.823V114.28C198.823 114.399 198.806 114.539 198.889 114.64C199.73 113.303 200.938 112.138 202.442 111.548V111.555Z" fill="#E21F25"/>
<path d="M173.029 104.803V124.55C173.029 127.066 169.298 128.43 166.147 125.531C165.833 129.149 163.939 132.447 160.704 134.991C166.42 139.182 171.057 139.677 174.658 139.311C176.77 139.091 178.856 138.379 180.601 137.151C182.032 136.153 183.222 134.827 184.024 133.284C184.938 131.54 185.371 129.564 185.382 127.6V104.803H173.029Z" fill="#E21F25"/>
<path d="M63.5397 101.271C58.981 99.9946 51.7073 98.3019 43.7367 100.411C42.2558 100.798 41.2541 101.443 40.5427 102.663C40.1942 103.28 39.8748 103.94 40.0491 104.614C40.2088 105.188 41.0363 105.388 41.6896 105.489C42.3284 105.589 43.7803 105.661 44.1723 105.202C44.3755 104.958 44.3755 104.284 43.3157 104.069C42.9237 103.983 41.8493 103.954 41.7767 103.767C41.7767 103.767 41.8203 103.638 42.401 103.466C42.6624 103.38 44.5643 102.62 49.7473 102.778C55.9176 102.978 61.3039 104.399 67.0096 106.622C72.5847 108.788 78.8566 112.704 82.5297 117.381C83.9235 119.145 85.6512 122.043 85.8689 124.496C86.4206 130.435 80.5552 135.442 68.6212 135.04C66.5886 134.968 64.106 134.495 64.106 134.495L63.8591 123.047C63.8591 123.047 68.897 123.004 74.4866 124.826C74.9657 124.984 75.4448 125.285 75.4883 125.744C75.5174 126.089 75.2415 126.39 74.9221 126.662C74.3414 127.164 73.5429 127.38 73.3687 127.595C73.238 127.753 73.238 127.982 73.4122 128.111C73.8332 128.427 74.864 128.642 75.5609 128.585C76.9692 128.456 77.8984 127.667 78.6098 126.605C79.3647 125.486 79.7858 122.631 75.7787 120.824C70.5957 118.471 63.8301 118.916 63.8301 118.916C63.8301 118.916 63.8011 117.367 63.7285 116.334C63.6123 114.641 63.1332 111.299 61.5652 110.338C61.2749 110.165 60.9264 110.137 60.7232 110.409C60.4183 110.797 60.1134 112.288 60.0553 112.676C59.4601 116.147 59.5036 119.246 59.4601 119.303C59.4456 119.318 59.431 119.346 59.402 119.361C59.3439 119.404 55.5982 119.834 51.9831 121.383C50.5458 122 48.4842 123.105 47.8599 124.539C47.0469 126.39 48.4697 128.413 50.8652 130.65C52.8978 132.544 55.8886 134.538 58.0954 135.571C58.6616 135.829 59.3294 136.159 59.3294 136.159C59.3294 136.159 59.4746 137.479 59.5907 138.253C60.0118 141.008 62.1315 140.606 62.7267 140.491C63.6849 140.305 63.8591 139.674 63.9898 138.942C64.0624 138.54 64.0334 137.966 64.0334 137.966C64.0334 137.966 65.4707 138.296 66.4434 138.469C69.26 138.985 72.3233 139.071 74.9657 138.712C85.5641 137.278 88.25 132.357 89.092 131.038C90.5584 128.742 93.6798 122.373 84.2864 112.905C82.1668 110.696 75.9674 104.743 63.5397 101.271ZM49.5295 127.078C49.1375 126.691 48.8472 126.261 48.9343 125.744C49.0214 125.242 50.0086 124.812 50.5023 124.668C55.2933 123.277 59.3439 123.205 59.3439 123.205C59.3439 123.205 59.3004 124.898 59.3004 126.605C59.2859 129.847 59.373 133.146 59.373 133.146C59.373 133.146 53.9721 131.597 49.5295 127.078Z" fill="white"/>
<path d="M98.1224 115.158C100.358 114.297 102.1 113.049 103.857 111.27C104.888 110.237 105.774 108.559 105.454 107.009C105.295 106.249 104.932 105.718 104.293 105.159C103.973 104.886 103.233 104.499 102.638 104.384C102.463 104.356 102.275 104.341 102.202 104.284C102.115 104.226 102.042 104.126 101.97 104.011C101.578 103.524 100.794 103.05 100.242 102.864C98.5144 102.275 96.2205 102.72 94.6526 103.366C92.9975 104.054 91.473 105.073 90.3116 106.307C87.2627 109.534 88.5984 112.088 88.8743 112.561C89.1065 112.963 89.5276 113.393 89.6292 113.823C89.6873 114.067 89.6292 114.397 89.6437 114.698C89.6582 115.373 89.9631 116.076 90.4858 116.52C90.8487 116.836 91.3859 116.936 91.9231 116.133C92.0973 115.86 92.4022 115.315 92.4022 115.315C92.4022 115.315 93.0265 115.674 94.5219 115.774C95.5962 115.86 97.1352 115.53 98.1224 115.158ZM90.9359 111.256C90.9359 111.256 90.8342 111.04 90.7616 110.883C90.2971 109.749 91.3133 108.473 92.2425 107.684C94.0573 106.163 95.5962 106.192 95.5962 106.192C95.5962 106.192 95.2333 106.479 94.9284 106.751C92.2861 109.046 90.9359 111.256 90.9359 111.256ZM94.8994 111.213C96.0028 109.807 98.0498 108.057 99.4872 107.21C100.605 106.55 101.578 106.364 102.304 106.679C102.739 106.866 103.073 107.253 103.131 107.755C103.32 109.348 101.462 110.667 100.228 111.385C97.411 113.006 94.0573 112.647 93.9847 112.489C93.9557 112.475 94.638 111.543 94.8994 111.213Z" fill="white"/>
<path d="M162.119 119.848C158.519 117.381 152.726 125.185 150.171 129.058C149.793 127.093 151.143 124.582 151.143 124.582C151.143 124.582 153.307 120.881 153.612 120.135C153.902 119.375 154.076 117.826 153.713 117.668C153.379 117.51 152.799 118.012 152.799 118.012C147.935 122.316 147.253 127.093 147.253 127.093C146.788 129.661 147.325 131.468 148.124 132.745C145.423 138.425 144.102 143.389 144.45 146.315C144.784 148.553 146.396 150.16 147.383 150.504C148.37 150.906 148.559 149.73 148.559 149.73C149.358 143.661 150.766 139.616 152.45 135.614C157.517 136.761 161.335 131.898 162.686 129.56C163.484 128.169 163.905 126.304 163.905 124.539C163.891 122.56 163.324 120.695 162.119 119.848ZM158.824 129.517C158.243 130.062 156.312 131.138 154.323 131.353C156.225 127.71 158.591 125.027 159.898 123.607C161.422 121.914 161.626 123.449 161.626 123.449C161.974 126.433 159.767 128.685 158.824 129.517Z" fill="white"/>
<path d="M145.467 132.4C145.714 131.497 144.872 130.493 144.117 130.306C143.405 130.163 137.961 131.167 137.322 131.339C136.625 131.525 136.93 130.88 136.93 130.88L137.772 128.068C137.772 128.068 142.97 127.867 143.725 127.753C144.421 127.624 144.465 127.136 144.465 127.136C144.465 127.136 144.552 126.332 144.523 125.586C144.45 124.783 143.797 124.855 143.797 124.855C141.794 124.654 139.035 124.884 139.035 124.884L139.732 122.732C139.732 122.732 145.249 122.474 147.354 121.986C148.429 121.728 147.804 120.695 147.804 120.695C146.498 118.113 144.988 118.256 144.988 118.256C140.647 118.113 134.331 119.246 133.649 119.59C133.01 119.877 133.068 120.35 133.91 121.398C134.81 122.502 136.335 122.402 136.335 122.402L134.999 125.113C133.91 125.185 133.533 125.529 133.533 125.529C132.908 126.189 133.765 128.14 133.765 128.14C133.765 128.14 131.878 132.314 133.242 134.524C134.709 136.833 136.451 136.733 136.451 136.733C139.747 136.948 145.176 133.519 145.467 132.4Z" fill="white"/>
<path d="M126.491 115.817C126.491 115.817 125.722 115.459 125.533 116.219C125.344 116.965 125.635 117.768 125.635 117.768C127.551 124.181 127.987 127.968 127.987 127.968C127.987 127.968 128.074 129.087 127.856 129.144C127.696 129.259 127.537 129.101 127.537 129.101C127.319 129.115 125.214 125.63 125.214 125.63L124.807 124.955C122.499 121.283 121.09 120.021 121.09 120.021C120.757 119.719 119.929 118.887 118.869 120.035C117.824 121.197 116.996 124.898 116.677 128.384C116.401 131.87 116.604 133.849 117.127 134.681C117.693 135.528 118.782 135.815 119.682 135.097C120.64 134.38 120.452 129.79 120.611 127.437C120.757 125.07 120.989 125.5 120.989 125.5C121.192 125.443 122.295 127.609 122.295 127.609C122.295 127.609 125.17 133.405 126.97 134.265C128.8 135.126 130.266 133.749 130.818 132.458C131.384 131.152 132.342 126.849 130.919 122.086C129.453 117.281 126.491 115.817 126.491 115.817Z" fill="white"/>
<path d="M96.6416 128.097C96.569 126.505 96.3802 122.459 95.9302 120.623C95.7414 119.834 95.4075 119.117 94.6235 118.816C94.5364 118.787 94.4348 118.758 94.3622 118.744C93.8686 118.643 93.5927 119.318 93.462 119.648C93.0701 120.637 92.7942 122.976 92.7216 123.722C92.4893 125.945 92.3006 131.21 92.6926 133.878C92.8523 134.997 93.2298 135.729 94.3767 135.972C94.8413 136.073 95.6979 136.044 96.0608 135.815C96.3802 135.614 96.6125 135.226 96.6851 134.882C96.9029 133.95 96.8158 132.63 96.7722 131.626C96.7287 130.45 96.6996 129.273 96.6416 128.097Z" fill="white"/>
<path d="M115.211 119.232C112.728 117.926 108.648 117.926 106.108 118.242C103.494 118.557 99.9953 119.361 98.5144 121.484C97.9482 122.287 97.6143 123.535 97.8756 124.539C98.0208 125.099 98.4273 125.529 99.0226 125.83C100.082 126.375 103.61 126.49 105.178 126.662C106.659 126.82 109.389 127.078 110.899 127.695C110.899 127.695 112.321 128.183 112.307 128.986C112.307 129.388 112.002 129.704 111.697 129.919C109.461 131.482 106.398 131.927 103.668 131.884C102.739 131.87 101.984 131.726 101.041 131.325C100.634 131.152 100.126 130.837 100.199 130.292C100.315 129.431 101.316 129.216 102.1 129.288C102.551 129.331 103.117 129.517 103.552 129.675C105.309 130.363 106.108 130.937 107.646 130.693C108.227 130.607 110.216 130.177 110.478 129.374C110.55 129.173 110.448 128.958 110.303 128.814C110.1 128.599 108.895 128.14 108.576 128.025C107.4 127.609 105.178 127.236 103.944 127.193C102.318 127.136 100.097 127.466 99.1677 128.785C98.3402 129.976 98.1515 132.386 102.289 134.423C104.206 135.37 106.543 135.786 108.692 135.556C109.926 135.413 113.454 134.868 114.789 132.099C115.515 130.607 115.443 128.613 114.659 127.193C114.151 126.261 113.526 125.013 108.91 124.439C108.169 124.353 102.739 123.722 102.246 123.65C101.97 123.607 100.692 123.463 101.142 122.976C101.273 122.832 101.65 122.732 101.883 122.674C104.728 121.9 108.358 122 111.349 121.828C112.016 121.785 113.541 121.699 114.267 121.469C114.964 121.254 115.544 120.767 115.704 120.006C115.791 119.619 115.603 119.432 115.211 119.232Z" fill="white"/>
</svg>
