<svg width="250" height="250" viewBox="0 0 250 250" fill="none" xmlns="http://www.w3.org/2000/svg">
<rect width="250" height="250" fill="#50B748"/>
<path d="M170.4 113.505C174.362 113.505 177.557 116.699 177.557 120.66C177.557 124.621 174.362 127.817 170.4 127.817C166.439 127.816 163.245 124.62 163.245 120.66C163.245 116.699 166.439 113.505 170.4 113.505Z" fill="white"/>
<path d="M149.178 122C151.669 122 152.691 123.599 152.691 125.004C152.691 126.473 151.35 127.879 149.178 127.879H145.407V122H149.178Z" fill="white"/>
<path d="M149.178 113.441C150.519 113.441 151.861 114.464 151.861 115.933C151.861 117.209 150.582 118.488 149.178 118.488H145.407V113.441H149.178Z" fill="white"/>
<path fill-rule="evenodd" clip-rule="evenodd" d="M210 162.386L135.459 153.888V87.6144H201.732L210 162.386ZM170.273 109.159C163.949 109.159 158.773 114.271 158.773 120.66C158.774 126.985 163.95 132.16 170.273 132.16H170.4C176.726 132.096 181.837 126.985 181.837 120.66C181.837 114.336 176.726 109.223 170.4 109.159H170.273ZM141.319 118.488H138.315L138.307 122H141.319V131.776H149.241C155.885 131.776 157.227 126.666 157.228 125.133C157.228 122.577 155.758 120.532 153.713 119.957C155.63 118.744 156.014 116.891 156.014 115.868C156.013 113.888 154.607 109.543 149.178 109.543H141.317L141.319 118.488ZM187.419 120.499L180.327 131.681H185.183L189.592 123.886L194.064 131.681H198.921L191.893 120.499L198.729 109.64H193.873L189.592 117.306L185.375 109.64H180.52L187.419 120.499Z" fill="white"/>
<path d="M86.6548 121.041C86.6548 127.53 81.396 132.792 74.9056 132.792C68.4178 132.792 63.1563 127.53 63.1563 121.041C63.1563 114.551 68.4178 109.292 74.9056 109.292C81.396 109.292 86.6548 114.551 86.6548 121.041Z" stroke="white" stroke-width="1.10371" stroke-miterlimit="10"/>
<path d="M86.5184 120.211C86.5444 120.34 86.6183 120.334 86.5959 119.983C86.5678 119.643 86.5876 119.646 86.4884 118.99C86.4333 118.657 86.4185 118.63 86.2661 117.991C86.1847 117.663 86.1781 117.687 85.9782 117.071C85.8678 116.757 85.8678 116.757 85.6165 116.161C85.4829 115.858 85.4717 115.872 85.1773 115.31C85.0174 115.016 84.9988 115.005 84.6596 114.469C84.4746 114.19 84.4772 114.218 84.097 113.712C83.8886 113.445 83.8969 113.463 83.4755 112.988C83.2417 112.736 83.2166 112.719 82.7632 112.288C82.4978 112.044 82.4625 112.037 81.9728 111.641C81.6747 111.411 81.5335 111.336 81.0149 110.987C80.7969 110.847 80.6607 110.785 80.4381 110.654C80.3933 110.63 80.2214 110.545 80.1793 110.521C79.8831 110.368 79.9745 110.448 79.8288 110.405C79.8288 110.405 79.9541 110.474 80.1803 110.628C80.1803 110.628 80.1803 110.628 80.183 110.631C79.896 110.532 79.653 110.33 79.3371 110.29C79.3371 110.29 79.3371 110.29 79.3381 110.29C79.3381 110.29 79.3381 110.29 79.2979 110.312C78.854 110.181 78.854 110.181 78.8177 110.177C78.8484 110.192 78.8877 110.207 78.9194 110.222C78.4989 110.086 78.3785 110.093 78.2849 110.104C78.7139 110.328 79.2233 110.305 79.656 110.519C79.6243 110.517 79.5794 110.512 79.5475 110.51C79.5521 110.512 80.4579 111.035 80.6541 111.22C80.6195 111.224 80.5756 111.231 80.5427 111.235C80.8886 111.577 81.5857 111.519 81.6559 112.168C80.9241 111.585 80.9241 111.585 80.5997 111.362C80.5651 111.368 80.5186 111.375 80.482 111.379C80.9773 111.794 80.9773 111.794 81.0643 111.944C81.0083 111.91 80.9213 111.887 80.854 111.884C80.9391 111.983 81.0278 112.08 81.1092 112.183C81.0736 112.218 81.0736 112.218 80.9595 112.604C80.8194 112.559 80.8194 112.559 80.6558 112.387C80.6232 112.387 80.5793 112.383 80.5476 112.383C80.6885 112.538 80.8427 112.68 80.9819 112.837C80.9773 112.871 80.97 112.919 80.9644 112.953C80.4681 112.809 80.0764 112.461 79.5848 112.304C79.5597 112.327 79.5241 112.355 79.5 112.374C79.4924 112.571 79.4924 112.571 79.383 112.654C79.3886 112.689 79.399 112.734 79.4083 112.768C79.3737 112.755 79.3335 112.734 79.3018 112.719C79.3018 112.719 79.3018 112.719 79.2794 112.809C79.3018 112.873 79.3335 112.962 79.3605 113.028C79.1868 113.297 79.4542 113.624 79.2372 113.888C79.256 113.973 79.2774 114.086 79.2923 114.171C79.2055 114.265 79.0783 114.312 78.9998 114.413C79.313 115.224 79.313 115.224 79.3813 115.298C79.4644 115.271 79.5794 115.203 79.6297 115.132C79.6691 115.132 79.7203 115.13 79.7588 115.13C79.9139 115.319 79.9194 115.622 80.2175 115.704C80.4289 115.396 80.1213 115.041 80.3026 114.731C79.984 114.028 79.984 114.028 80.1549 113.88C80.7119 114.426 80.7119 114.426 81.0073 114.534C80.9476 114.652 80.8345 114.731 80.7577 114.835C80.8147 115.009 80.7801 115.041 80.6924 115.119C80.7128 115.863 80.7128 115.863 80.5895 115.955C80.5895 115.955 80.5895 115.955 80.5027 115.919C80.3007 115.904 80.1252 116.037 79.9221 116.013C79.8195 115.824 79.8383 115.594 79.6952 115.42C79.6579 115.426 79.6121 115.433 79.5765 115.439C79.3981 116.785 79.3981 116.785 78.3007 117.4C78.3056 117.435 78.311 117.484 78.3149 117.517C78.6335 117.749 78.4494 118.166 78.4465 118.171C78.27 118.435 77.94 118.192 77.7372 118.377C77.6234 118.48 77.3738 119.659 77.4101 119.74C77.4654 119.856 77.4654 119.856 78.341 119.684C78.3429 119.684 78.3449 119.682 78.3465 119.682C78.3465 119.682 78.3495 119.682 78.4036 119.676C78.4036 119.676 78.4082 119.676 78.4362 119.674C79.2214 119.467 78.7943 118.301 79.6952 118.189C79.7934 118.491 79.6988 118.813 79.8241 119.116C79.8644 119.125 79.9168 119.134 79.956 119.145C80.0635 119.028 80.0635 119.028 80.0718 118.396C80.1091 118.388 80.1569 118.377 80.1941 118.364C80.481 118.601 80.5988 118.852 80.5427 119.112C80.5147 119.123 80.4718 119.134 80.4401 119.145C80.4138 119.211 80.3794 119.302 80.3868 119.372C80.4381 119.779 80.4381 119.779 81.097 118.874C81.1287 118.888 81.1728 118.908 81.2045 118.919C81.2866 119.25 81.2866 119.25 81.4221 119.387C81.7044 119.351 81.7502 119.041 82.0054 117.336C82.0354 117.323 82.0737 117.31 82.1063 117.3C82.4997 117.57 82.4997 117.57 82.5829 117.516C82.5707 117.404 82.5297 117.297 82.541 117.183C82.5726 117.188 82.6155 117.19 82.6475 117.196C82.7025 117.454 83.1325 117.471 83.0623 117.807C83.0494 117.869 83.0494 117.869 82.4708 118.046C82.3754 118.074 81.8587 118.717 81.8989 118.895C81.9092 118.932 81.9092 118.932 82.7464 119.252C83.0708 120.084 81.5006 119.744 81.2018 120.402C81.0765 120.447 80.4111 120.218 80.4072 120.215C80.2093 120.046 80.354 119.818 80.2941 119.624C80.154 119.179 78.0541 120.015 77.6999 120.255C77.6999 120.255 76.3842 121.512 76.1748 122.446C75.9654 123.381 75.7402 124.354 75.8411 124.57C76.2328 125.407 76.8392 126.312 77.511 125.861C77.5327 125.85 79.5119 124.841 79.5494 126.048C79.5643 126.594 80.0157 127.005 80.0362 127.547C80.0569 128.08 79.6999 128.517 79.6457 129.031C79.6438 129.042 79.6121 130.381 79.6737 130.472C79.7896 130.639 79.8093 130.838 79.9606 130.825C79.9606 130.825 80.3653 130.704 80.4147 130.691C81.3578 130.375 81.7904 129.18 81.7997 129.171C82.0578 128.756 82.3952 128.4 82.6726 127.997C82.8856 127.689 82.8856 127.689 82.9802 126.645C83.0884 125.45 84.3166 124.757 84.4417 123.571C84.4129 123.557 84.3744 123.536 84.3446 123.517C84.2316 123.573 84.1287 123.643 84.01 123.687C83.5457 123.858 83.0623 120.831 83.083 120.79C83.7875 121.385 83.5717 122.321 83.9707 123.031C84.3717 123.069 85.4893 121.456 85.1473 120.816C85.1156 120.809 85.0744 120.8 85.0427 120.792C84.8521 120.418 84.8193 120.59 85.5502 120.428C86.1986 121.158 85.8539 121.947 86.1659 122.753C86.4492 121.805 86.0848 120.785 86.5033 119.848C86.5725 120.172 86.524 120.237 86.5184 120.211Z" fill="white"/>
<path d="M79.653 111.452C79.653 111.452 79.653 111.452 79.656 111.448C79.6579 111.441 79.6616 111.426 79.5607 111.37C79.4895 111.328 79.2952 111.241 79.2411 111.25V111.252C79.2345 111.276 79.2316 111.299 79.2699 111.401C79.3167 111.527 79.3437 111.579 79.4476 111.697C79.4644 111.717 79.4895 111.744 79.5092 111.762C79.5531 111.803 79.5531 111.803 79.8046 112.02C79.8578 112.069 79.896 112.129 79.9475 112.177C79.9887 112.213 80.3718 112.495 80.4906 112.512C80.541 112.517 80.5298 112.467 80.511 112.447C80.4605 112.387 80.4243 112.358 80.2587 112.241C80.1624 112.168 79.8212 111.901 79.741 111.8C79.7176 111.766 79.7876 111.76 79.783 111.723C79.77 111.63 79.6764 111.576 79.654 111.487C79.6474 111.463 79.6504 111.46 79.653 111.452Z" fill="white"/>
<path d="M73.4448 127.164C73.1253 127.138 73.0897 127.033 73.0692 126.87C72.1822 126.643 72.1654 126.637 72.1832 126.274C72.1925 126.076 72.1964 125.994 71.9375 125.779C71.7459 125.62 71.4881 125.558 71.2975 125.398C71.258 125.366 71.2039 125.319 71.1646 125.289C71.1225 125.252 71.0917 125.186 71.0601 125.142C71.0086 125.134 70.9413 125.123 70.8899 125.113C70.7534 124.237 69.6553 124.526 69.2395 123.983C68.5059 124.046 68.5059 124.046 68.3152 124.156C68.2872 124.132 68.248 124.104 68.2199 124.078C68.1563 124.121 68.0778 124.177 68.0198 124.224C67.7629 124.164 67.7422 123.88 67.7422 123.878C67.7844 123.078 67.4974 122.811 67.0207 122.639C67.0853 122.343 67.1994 122.057 67.2571 121.76C67.2469 121.754 67.2469 121.754 66.5396 122.106C66.5078 122.089 66.463 122.072 66.434 122.05C66.0769 121.79 66.005 120.627 66.3199 120.19C66.6751 119.699 67.2254 120.321 67.6844 120.315C67.8648 120.62 67.5826 121.009 67.8945 121.291C67.9825 121.256 68.2516 121.413 68.3291 121.362C68.462 119.925 69.589 118.56 69.602 118.551C69.6366 118.562 69.6797 118.581 69.7133 118.592C69.8199 118.226 69.9207 118.179 70.1618 118.067C70.1965 118.076 70.2423 118.093 70.2749 118.106C70.2749 118.173 70.2805 118.265 70.2881 118.334C70.5955 118.254 70.8385 118.061 71.1253 117.951C71.1534 117.979 71.1897 118.02 71.218 118.052C71.4159 118.026 71.5795 117.811 71.8103 117.962C71.987 117.667 71.6253 117.437 71.6787 117.158C71.6178 117.16 71.5356 117.168 71.4739 117.172C71.1253 117.727 71.1253 117.727 70.5796 117.891C70.5852 117.721 70.43 117.59 70.445 117.418C70.8019 117.334 72.231 116.798 71.5534 116.385C71.559 116.353 71.5675 116.308 71.5739 116.275C71.0281 115.999 71.4825 115.42 71.133 115.083C70.9694 115.227 70.8945 115.428 70.7329 115.568C70.73 115.564 70.73 115.564 70.7778 114.695C70.7402 114.676 70.6937 114.65 70.6581 114.628C70.6459 114.547 70.63 114.442 70.6189 114.364C70.4461 114.37 70.4461 114.37 70.2086 114.401C69.8133 114.979 69.7012 115.687 69.2385 116.237C69.2329 116.181 69.2329 116.181 69.319 115.605C69.105 115.36 69.1264 114.964 68.7291 114.839L68.8152 114.51C70.8919 113.057 70.8919 113.057 71.0479 112.863C71.1225 112.891 71.217 112.953 71.2645 113.015C71.2039 113.192 71.2039 113.192 70.8619 113.476C70.8636 113.515 70.8675 113.57 70.8685 113.611C70.9318 113.629 71.0281 113.624 71.0871 113.598C71.0871 113.609 71.0852 113.619 71.0861 113.626C70.4207 114.149 70.4207 114.149 70.5029 114.33L70.8039 114.169C70.8524 114.652 70.9879 114.742 71.1619 114.801C71.373 114.644 71.4264 114.512 71.4729 114.353C71.432 114.299 71.3823 114.218 71.3496 114.16C71.376 114.123 71.4096 114.078 71.4347 114.045C71.5095 114.055 71.6019 114.108 71.6506 114.16C71.7338 114.061 71.8478 113.932 71.9319 113.835C71.8936 113.781 71.8103 113.727 71.742 113.712C71.7206 113.635 71.6889 113.532 71.6628 113.46C71.7245 113.377 71.7974 113.261 71.8488 113.175C71.6787 112.759 71.6787 112.759 71.8544 112.329C71.7862 112.327 71.6945 112.286 71.6441 112.243C71.8432 112.129 71.8432 112.129 71.9234 111.994L73.4824 111.321C73.4824 111.321 72.6963 111.861 72.4925 111.998C72.5113 112.001 72.5357 112.009 72.5532 112.017C72.5525 112.027 72.5505 112.043 72.5225 112.074C72.5149 112.084 72.5077 112.087 72.5011 112.093V112.095C72.4955 112.099 72.4899 112.104 72.4852 112.114C72.4579 112.134 72.4299 112.157 72.4038 112.179C72.4038 112.179 72.4038 112.179 72.4618 112.164C72.4694 112.162 72.4748 112.162 72.4833 112.16C72.5373 112.141 72.5815 112.134 72.6207 112.132C72.6953 112.123 72.7468 112.127 72.786 112.157C72.8159 112.174 72.845 112.198 72.8674 112.248C72.9337 112.39 72.9291 112.545 72.972 112.693C72.9094 112.759 72.8506 112.822 72.8094 112.885C72.785 112.928 72.7767 112.972 72.7618 113.033C72.7626 113.041 72.7626 113.048 72.7645 113.055C72.7946 113.086 72.8328 113.129 72.8608 113.158C72.8252 113.187 72.7972 113.205 72.7767 113.226C72.7553 113.243 72.7329 113.261 72.7141 113.286C72.688 113.325 72.6656 113.368 72.628 113.452C72.628 113.456 72.628 113.461 72.6271 113.467C72.6663 113.493 72.7178 113.515 72.7701 113.538C72.7784 113.53 72.7843 113.53 72.8196 113.532C72.8308 113.536 72.8411 113.549 72.8496 113.559C72.8272 113.588 72.7946 113.624 72.7645 113.652C72.6515 113.779 72.5366 113.947 72.4796 114.19C72.4981 114.244 72.5188 114.299 72.5245 114.353C72.5469 114.594 72.5196 114.833 72.543 115.07C72.5469 115.102 72.5515 115.141 72.5581 115.17C72.574 115.239 72.5898 115.295 72.6085 115.338C72.6198 115.366 72.6356 115.394 72.6534 115.424C72.688 115.474 72.7309 115.515 72.7916 115.568C72.8852 115.622 73.0151 115.639 73.1916 115.542C73.4636 115.39 73.4794 115.134 73.5207 114.891C73.488 114.938 73.4431 114.99 73.3703 115.069C73.457 114.843 73.544 114.655 73.6477 114.528C73.6562 114.516 73.6691 114.502 73.6776 114.489C73.6861 114.483 73.6925 114.473 73.6991 114.465H73.7C73.701 114.465 73.714 114.454 73.7337 114.437C73.7515 114.424 73.771 114.407 73.7907 114.394C73.8719 114.334 74.0001 114.248 74.1412 114.202C74.2055 114.153 74.2721 114.147 74.3467 114.155C74.3682 114.16 74.373 114.16 74.4123 114.167H74.413C74.6487 114.211 74.7121 114.22 74.843 114.012L74.6718 113.844L74.6757 113.843L74.8242 113.723C74.8291 113.736 74.8347 113.753 74.8393 113.764C74.8485 113.777 74.8617 113.796 74.872 113.809C74.9037 113.788 74.9458 113.764 74.9785 113.743C74.9683 113.635 74.9683 113.635 74.7682 113.424C74.7823 113.411 74.7935 113.398 74.8074 113.385C74.8027 113.388 74.7981 113.388 74.7935 113.39C74.8113 113.371 74.8291 113.356 74.8485 113.344C75.243 112.943 75.2383 112.923 75.1411 112.62C75.1579 112.594 75.1823 112.555 75.201 112.527C75.213 112.476 75.23 112.411 75.243 112.36C75.214 112.34 75.173 112.315 75.1447 112.295C75.2532 112.009 75.2532 112.009 75.2683 111.889C75.3373 111.87 75.4328 111.846 75.5054 111.839C75.5467 111.783 75.5776 111.693 75.5879 111.626C75.5242 111.656 75.4553 111.669 75.3841 111.68C75.4289 111.674 75.4672 111.672 75.5047 111.674C75.5047 111.674 75.5064 111.674 75.5094 111.674C75.5064 111.674 75.5054 111.676 75.5054 111.676C75.4599 111.691 75.4206 111.688 75.3775 111.682C75.2861 111.695 75.1945 111.708 75.115 111.756C75.115 111.742 75.115 111.723 75.115 111.71C75.144 111.659 75.1961 111.601 75.2403 111.56C75.2074 111.545 75.1691 111.531 75.1318 111.512C75.116 111.517 75.0981 111.521 75.0804 111.525C75.056 111.532 75.0457 111.532 75.0402 111.532C75.0094 111.525 75.0102 111.493 75.0158 111.473C75.0167 111.463 75.0187 111.461 75.0616 111.433C75.0645 111.433 75.0655 111.432 75.0672 111.43C75.0636 111.435 75.0626 111.439 75.0616 111.442C75.1859 111.39 75.3392 111.42 75.4523 111.332C75.4421 111.32 75.4299 111.299 75.4206 111.278C75.3887 111.282 75.3475 111.285 75.3148 111.287C75.3148 111.291 75.3148 111.291 75.3148 111.291C75.3148 111.291 75.3139 111.293 75.3121 111.295C75.3076 111.299 75.301 111.304 75.2963 111.31C75.2973 111.302 75.3 111.295 75.301 111.287C75.2803 111.261 75.2532 111.228 75.2327 111.198C75.2271 111.202 75.2225 111.202 75.2159 111.202C75.1813 111.205 75.1411 111.213 75.1084 111.218H75.1074C75.0514 111.222 75.0233 111.213 75.0438 111.164C75.0477 111.161 75.0504 111.161 75.055 111.159C75.0599 111.173 75.0663 111.183 75.0896 111.184C75.0916 111.184 75.0945 111.184 75.0962 111.184C75.087 111.162 75.0775 111.136 75.0682 111.114C75.0682 111.114 75.0682 111.114 75.0663 111.114C74.9468 111.126 74.9112 111.134 74.5495 111.32C74.5785 111.256 74.6168 111.171 74.6448 111.114C74.5739 111.136 74.4766 111.168 74.4037 111.192C74.413 111.155 74.4252 111.108 74.4327 111.071C74.3506 111.108 74.23 111.146 74.1383 111.155C74.172 111.091 74.2 111.004 74.2066 110.93C74.1383 110.951 74.043 110.975 73.9728 110.989C73.9504 110.96 73.9216 110.923 73.9001 110.895C73.0319 110.94 72.388 111.202 72.0019 111.357C72.0038 111.33 72.0068 111.299 72.0085 111.275C71.9356 111.306 71.8488 111.373 71.802 111.437C71.8403 111.424 71.8888 111.411 71.9263 111.396C71.8834 111.439 71.8834 111.439 70.6479 112.013L70.5974 112.074C70.4702 112.132 70.3561 112.213 70.2179 112.25C70.6086 111.878 70.6086 111.878 70.6261 111.854C70.5404 111.869 70.4309 111.915 70.3581 111.959C70.3283 111.942 70.2888 111.921 70.2581 111.899C70.3739 111.748 70.3759 111.734 70.4075 111.579C70.2805 111.566 69.718 111.703 69.6675 111.99C69.747 111.979 69.8506 111.957 69.9273 111.932C69.7253 112.078 69.6741 112.34 69.4301 112.454C69.4104 112.196 69.4104 112.196 69.4601 112.1C69.3862 112.095 69.288 112.082 69.2161 112.065C69.2685 112.009 69.317 111.923 69.3421 111.854L68.9926 112.019C69.0133 111.992 69.0423 111.957 69.0618 111.928C69.0272 111.932 68.9814 111.936 68.946 111.942C68.9477 111.938 69.3506 111.399 69.475 111.179C69.3124 111.216 69.1946 111.242 68.7478 111.441C68.432 111.659 68.0815 111.829 67.7863 112.074C67.5974 112.177 67.4311 112.312 67.2489 112.426C67.1525 112.51 67.0217 112.618 66.9339 112.71C66.99 112.672 67.0655 112.618 67.1218 112.581C67.0256 112.667 66.9227 112.749 66.8291 112.839C66.8291 112.839 66.8291 112.839 66.8835 112.815C66.8835 112.815 66.4106 113.207 66.2068 113.377C66.1983 113.392 66.1881 113.415 66.1798 113.431C66.4106 113.261 66.6751 113.142 66.9078 112.977C66.9086 113.009 66.9115 113.055 66.9134 113.086C66.96 113.076 67.0207 113.061 67.0675 113.054C66.7479 113.917 66.7479 113.917 65.9938 115.459C65.9694 115.437 65.9358 115.407 65.9114 115.383C65.877 115.439 65.8322 115.515 65.7993 115.569C65.8264 115.633 65.8592 115.728 65.8405 115.788C65.6983 116.275 65.276 116.622 65.1219 117.097C64.9415 117.643 65.0368 118.222 64.8601 118.768C64.7275 119.171 64.7526 119.222 64.8443 119.401C64.8423 119.407 64.5752 120.102 65.0069 120.689C65.0554 120.342 64.9732 119.981 65.0975 119.643C65.4481 121.56 65.4481 121.56 65.9255 122.328C66.7572 122.362 66.5564 123.298 67.1674 123.523C67.1684 123.85 67.1694 124.028 67.9338 124.483C67.9684 124.463 68.0142 124.431 68.0488 124.409C68.089 124.418 68.1414 124.427 68.1824 124.437C68.2872 124.601 68.4478 124.848 68.2704 125.481C68.248 125.48 68.218 125.471 68.1975 125.465C67.9786 125.809 67.9601 125.971 68.0973 126.248C68.06 126.259 68.0133 126.274 67.9759 126.285C68.4544 127.47 68.4544 127.47 69.6227 128.775C69.6804 129.971 69.7272 130.04 69.8815 130.259C69.8776 130.272 69.8337 132.173 71.6665 132.283L71.6694 132.205C71.6694 132.205 71.5514 132.264 71.5571 132.173C71.2916 132.044 71.1739 131.851 70.9479 131.689C70.9552 131.448 70.9552 131.448 70.8955 131.295C70.9338 131.282 70.9852 131.264 71.0235 131.255C71.0376 131.222 71.0571 131.181 71.0703 131.152C71.4132 131.141 71.4132 131.141 71.4693 131.108C71.371 130.85 71.371 130.85 71.3637 130.76C71.8449 131.046 72.2768 130.377 72.2936 130.287C72.388 129.816 73.0488 130.145 73.2684 129.807C73.5926 129.313 73.702 128.717 74.1122 128.263C74.1673 128.201 74.2402 128.117 74.3038 128.065C74.3794 127.982 74.4813 127.87 74.5561 127.788C74.5524 127.782 74.1449 127.22 73.4448 127.164ZM75.1457 111.396C75.1467 111.396 75.1467 111.396 75.1467 111.396C75.1447 111.396 75.1447 111.396 75.144 111.396C75.1447 111.396 75.1447 111.396 75.1457 111.396Z" fill="white"/>
<path d="M76.5589 114.585C76.5336 114.57 76.4943 114.558 76.4653 114.551C76.3513 114.519 76.2279 114.54 76.1139 114.5C76.0336 114.469 75.971 114.407 75.884 114.39C75.8701 114.39 75.8609 114.39 75.8438 114.392C75.7326 114.704 75.544 115.227 75.8569 115.259H75.8589H75.8609C75.8869 115.261 75.941 115.259 76.0073 115.217C76.0159 115.211 76.028 115.203 76.0373 115.198C76.0458 115.19 76.0578 115.182 76.0663 115.175C76.1523 115.115 76.215 115.031 76.3047 114.975C76.4195 114.901 76.6159 114.932 76.6542 114.756C76.6701 114.678 76.6391 114.622 76.5589 114.585Z" fill="white"/>
<path d="M77.8625 116.392C77.8345 116.409 77.7186 116.508 77.726 116.579C77.7299 116.622 77.7494 116.695 77.8111 116.804C77.843 116.856 77.8615 116.891 77.8559 116.925C77.8381 117.054 77.597 117.065 77.6578 117.222C77.8345 117.224 77.8981 117.011 78.0775 117.017C78.155 117.021 78.2232 117.076 78.3056 117.054C78.3205 117.05 78.328 117.046 78.3449 117.039C78.4524 116.983 78.4401 116.862 78.4372 116.82C78.4158 116.572 78.2344 116.394 78.1493 116.174C78.0943 116.041 78.1355 115.893 78.083 115.759C78.0719 115.73 77.843 115.319 77.842 115.316C77.8223 115.316 77.8186 115.316 77.7972 115.317C77.5756 115.372 77.4998 115.564 77.4998 115.585C77.4803 115.856 77.7652 115.962 77.8486 116.179C77.8951 116.304 77.8895 116.377 77.8625 116.392Z" fill="white"/>
<path d="M77.2326 116.79C77.2812 116.802 77.3279 116.817 77.3774 116.826C77.3876 116.829 77.4008 116.829 77.4101 116.829C77.4176 116.833 77.4513 116.837 77.4833 116.82C77.4905 116.815 77.6112 116.751 77.5522 116.471C77.5149 116.282 77.383 116.018 77.3082 116.015C77.2897 116.02 77.2812 116.026 77.2504 116.063C77.2102 116.11 77.2073 116.114 77.169 116.147C77.1466 116.168 77.1139 116.172 77.0981 116.196C77.0767 116.23 77.0783 116.242 77.0905 116.353C77.1047 116.48 77.0532 116.555 76.9411 116.579C76.9392 116.579 76.9392 116.579 76.9363 116.579C76.9309 116.579 76.9289 116.579 76.9243 116.579C76.9438 116.67 76.956 116.727 76.9943 116.757C77.0664 116.813 77.1542 116.777 77.2326 116.79Z" fill="white"/>
<path d="M49.4637 109.568C55.7303 109.568 60.8066 114.048 60.8066 120.629C60.8066 127.179 55.7622 131.504 49.5262 131.504H40V109.568H49.4637ZM49.5262 127.429C53.1609 127.429 56.2942 124.893 56.2942 120.629C56.2942 116.368 53.1609 113.643 49.4637 113.643H44.3555V127.429H49.5262Z" fill="white"/>
<path d="M106.209 116.087C105.049 114.457 102.855 113.423 100.694 113.423C96.5883 113.423 93.862 116.368 93.862 120.537C93.862 124.829 96.7759 127.587 100.694 127.587C103.201 127.587 105.519 126.27 106.616 124.359L111.003 125.518C109.185 129.404 105.299 131.942 100.694 131.942C94.394 131.942 89.3177 127.148 89.3177 120.537C89.3177 113.923 94.394 109.129 100.694 109.129C105.017 109.129 108.716 111.418 110.658 114.926L106.209 116.087Z" fill="white"/>
<path d="M132.388 109.568V121.979C132.388 128.432 128.691 131.942 122.924 131.942C117.127 131.942 113.46 128.432 113.46 121.979V109.568H117.816V121.915C117.816 125.99 119.571 127.868 122.924 127.868C126.246 127.868 128.001 125.99 128.001 121.915V109.568H132.388Z" fill="white"/>
</svg>
