<svg width="284" height="284" viewBox="0 0 284 284" fill="none" xmlns="http://www.w3.org/2000/svg">
<g clip-path="url(#clip0_55_53)">
<path d="M283.5 0H0V283.5H283.5V0Z" fill="#D0006F"/>
<path d="M47.9966 128.048H34.2256C36.429 128.048 36.7044 129.701 36.7044 132.592V155.452H42.9013V132.592C42.9013 129.701 42.9013 128.737 45.3801 128.737C50.2 128.737 54.8821 132.73 54.8821 141.819C54.8821 150.632 51.9902 154.488 47.7212 155.177C47.1704 155.315 46.4818 155.452 45.931 155.452H47.8589C56.397 155.452 61.63 149.669 61.63 141.819C61.63 133.694 56.5347 128.048 47.9966 128.048ZM124.426 149.255C122.636 145.399 121.534 142.37 116.99 141.544C120.845 141.13 124.839 139.34 124.839 134.796C124.839 130.389 121.947 128.048 115.612 128.048H101.291C103.494 128.048 103.769 129.701 103.769 132.592V155.452H109.966V132.455C109.966 129.563 110.517 128.599 112.858 128.599C116.714 128.599 118.642 131.353 118.642 135.071C118.642 139.34 115.199 141.957 113.409 142.232C114.924 142.37 115.75 143.747 116.163 144.573C117.265 147.19 117.816 151.183 120.019 153.662C121.534 155.452 124.15 155.452 125.803 155.452H130.347C127.593 155.315 125.528 151.872 124.426 149.255ZM166.29 141.681C170.283 141.819 173.588 143.609 173.588 145.95V137.412C173.588 139.753 170.421 141.544 166.29 141.681ZM167.942 154.764C165.739 154.764 165.601 153.8 165.464 150.908V132.455C165.464 129.563 165.739 128.599 167.942 128.599C172.349 128.599 177.307 131.491 178.408 133.97L176.48 127.91H156.788C158.991 127.91 159.267 129.563 159.267 132.455V155.315H178.408L180.336 148.705C179.235 151.321 172.487 154.764 167.942 154.764ZM192.868 154.626C190.665 154.626 190.527 153.8 190.389 150.908V131.904C190.389 129.425 190.802 128.048 192.868 128.048H181.713C183.917 128.048 184.192 129.701 184.192 132.592V155.59H203.334L205.262 148.98C204.16 151.321 197.275 154.626 192.868 154.626ZM71.9582 138.927C71.9582 136.999 71.8205 128.599 75.9518 127.635C70.0303 128.048 65.2104 131.904 65.2104 138.789C65.2104 147.19 72.0959 153.938 81.598 156.003C77.0535 154.902 71.9582 149.669 71.9582 138.927ZM88.3458 127.635C92.4771 128.737 92.3394 136.999 92.3394 138.927C92.3394 149.669 87.1064 154.764 82.8374 156.003C92.3394 154.075 99.2249 147.19 99.2249 138.789C99.2249 131.904 94.2673 128.048 88.3458 127.635ZM145.909 155.039C138.61 155.039 135.718 149.118 135.718 141.406C135.718 134.107 138.197 128.048 145.358 128.048C150.453 128.048 153.62 131.628 154.309 136.861V129.563C152.243 128.461 148.387 127.497 145.22 127.497C135.443 127.497 129.108 132.179 129.108 141.957C129.108 150.908 135.58 155.728 145.358 155.728C149.351 155.728 153.07 154.488 154.722 153.524V147.741C153.758 151.734 150.591 155.039 145.909 155.039Z" fill="white"/>
<path d="M205.4 140.562L211.513 134.604L206.135 129.135H208.633L211.483 132.072C212.071 132.689 212.512 133.157 212.747 133.476C213.1 133.05 213.511 132.625 213.981 132.178L217.155 129.135H219.418L213.893 134.519L219.859 140.562H217.273L213.305 136.476C213.07 136.242 212.865 135.987 212.629 135.71C212.277 136.136 212.012 136.412 211.865 136.561L207.898 140.562H205.4Z" fill="white"/>
<path d="M220.094 140.562L226.206 134.604L220.828 129.135H223.326L226.177 132.072C226.764 132.689 227.205 133.157 227.44 133.476C227.793 133.05 228.204 132.625 228.675 132.178L231.848 129.135H234.111L228.616 134.519L234.581 140.562H231.995L228.028 136.476C227.793 136.242 227.587 135.987 227.352 135.71C227 136.136 226.735 136.412 226.588 136.561L222.621 140.54L220.094 140.562Z" fill="white"/>
<path d="M234.815 140.562L240.928 134.604L235.521 129.135H238.019L240.869 132.072C241.457 132.689 241.898 133.157 242.133 133.476C242.485 133.05 242.897 132.625 243.367 132.178L246.541 129.135H248.803L243.308 134.519L249.274 140.562H246.688L242.72 136.476C242.485 136.242 242.28 135.987 242.045 135.71C241.692 136.136 241.427 136.412 241.28 136.561L237.313 140.54L234.815 140.562Z" fill="white"/>
</g>
<defs>
<clipPath id="clip0_55_53">
<rect width="283.5" height="283.5" fill="white"/>
</clipPath>
</defs>
</svg>
