<svg width="250" height="250" viewBox="0 0 250 250" fill="none" xmlns="http://www.w3.org/2000/svg">
<rect width="250" height="250" fill="#3190CE"/>
<path d="M65.7683 115.748C62.908 115.758 60.2779 115.972 57.8803 116.315C53.0849 117.011 49.2181 118.275 46.2603 119.753C43.3015 121.23 41.2433 122.826 40 124.775L44.9261 127.913C45.2142 127.463 46.5581 126.135 48.8765 124.978C51.1948 123.811 54.4792 122.708 58.7177 122.098C67.1925 120.866 79.4978 121.594 95.7011 127.548C129.577 140.003 147.59 131.875 153.212 124.625L148.586 121.048C145.693 124.786 130.155 133.995 97.7154 122.066C84.9978 117.397 74.3459 115.715 65.7683 115.748Z" fill="white"/>
<path d="M96.5685 84.7563C74.3748 84.7563 56.3211 102.811 56.3264 125.01C56.3264 147.199 74.378 165.244 96.5685 165.244C118.758 165.244 136.805 147.199 136.805 125.01C136.816 102.811 118.762 84.7563 96.5685 84.7563ZM96.5685 90.5927C115.605 90.5927 130.969 105.97 130.969 125V125.01C130.969 144.04 115.602 159.408 96.5685 159.408C77.5349 159.408 62.168 144.04 62.168 125.01V125C62.1637 105.97 77.5317 90.5927 96.5685 90.5927Z" fill="white"/>
<path d="M158.063 111.143V124.261H162.721C166.641 124.261 169.95 122.44 169.907 117.664C169.864 113.531 167.583 111.143 162.346 111.143H158.063ZM171.395 111.143V118.136C171.395 119.603 171.481 120.716 171.674 121.466C171.791 121.969 172.059 122.462 172.455 122.922C172.852 123.383 173.387 123.758 174.072 124.047C174.758 124.336 175.764 124.486 177.082 124.486C178.185 124.486 179.063 124.347 179.748 124.09C180.423 123.822 180.969 123.458 181.376 123.008C181.783 122.569 182.061 122.012 182.211 121.37C182.361 120.716 182.436 119.603 182.436 118.028V111.143H179.641V118.393C179.641 119.431 179.598 120.17 179.512 120.62C179.437 121.07 179.191 121.455 178.795 121.766C178.388 122.066 177.788 122.216 176.996 122.216C176.214 122.216 175.593 122.055 175.143 121.734C174.694 121.402 174.415 120.973 174.297 120.438C174.233 120.106 174.19 119.378 174.19 118.243V111.143H171.395ZM184.331 111.143V124.261H186.623V114.666L193.509 124.261H195.94V111.143H193.573V119.378L187.683 111.143H184.331ZM201.786 111.143L196.571 124.261H199.431L200.534 121.273H205.888L207.066 124.261H210L204.635 111.143H201.786ZM161.222 113.584H162.7C165.666 113.584 166.737 115.683 166.748 117.729C166.758 120.609 165.12 121.862 162.668 121.862H161.222V113.584ZM203.179 114.195L205.02 119.067H201.369L203.179 114.195Z" fill="white"/>
<path d="M160.944 137.914H162.764L164.338 131.564L165.912 137.914H167.979L170.496 128.534H168.504L166.94 135.355L165.259 128.512H163.449L161.768 135.355L160.205 128.534H158.17L160.687 137.914" fill="white"/>
<path d="M175.325 138.011C178.195 138.011 180.283 135.837 180.283 133.192V133.171C180.283 130.515 178.217 128.384 175.347 128.384C172.477 128.384 170.389 130.547 170.389 133.192V133.224C170.389 135.869 172.445 138.011 175.325 138.011ZM175.347 136.115C173.698 136.115 172.53 134.788 172.53 133.192V133.171C172.53 131.575 173.676 130.269 175.325 130.269C176.974 130.269 178.142 131.596 178.142 133.192V133.224C178.142 134.82 176.996 136.115 175.347 136.115Z" fill="white"/>
<path d="M180.776 137.85H182.821V134.863H184.438L186.43 137.85H188.818L186.548 134.52C187.737 134.081 188.54 133.138 188.54 131.639V131.607C188.54 130.729 188.261 130.001 187.747 129.487C187.137 128.866 186.216 128.534 185.038 128.534H180.776V137.85ZM182.821 133.063V130.386H184.856C185.863 130.386 186.473 130.836 186.473 131.714V131.746C186.473 132.528 185.895 133.063 184.899 133.063H182.821Z" fill="white"/>
<path d="M189.065 137.85H195.757V135.987H191.121V128.534H189.065V137.85Z" fill="white"/>
<path d="M196.421 128.534V137.85H199.73C202.504 137.85 204.86 136.554 204.817 133.171C204.796 130.236 203.168 128.534 199.452 128.534H196.421ZM198.659 130.279H199.709C201.819 130.279 202.579 131.768 202.579 133.213C202.59 135.259 201.422 136.148 199.688 136.148H198.659V130.279Z" fill="white"/>
<path d="M65.3806 105.028C55.9966 105.232 48.1075 107.341 42.3195 110.639L45.2077 115.715C54.6173 110.361 73.1348 108.134 95.3938 116.369L97.4199 110.886C85.6479 106.527 74.7656 104.825 65.3806 105.028Z" fill="white"/>
<path d="M97.7026 132.956L95.6754 138.439C119.221 147.156 139.193 145.271 150.77 138.685L147.89 133.61C138.476 138.964 119.961 141.202 97.7026 132.956Z" fill="white"/>
</svg>
