<svg width="250" height="250" viewBox="0 0 250 250" fill="none" xmlns="http://www.w3.org/2000/svg">
<rect width="250" height="250" fill="#002691"/>
<path d="M65.7667 115.748C62.9075 115.759 60.2797 115.962 57.8821 116.305C53.0868 117.001 49.2189 118.264 46.2612 119.753C43.3025 121.231 41.2433 122.815 40 124.775L44.927 127.913C45.2161 127.463 46.56 126.135 48.8784 124.968C51.1968 123.811 54.48 122.698 58.7173 122.087C67.1931 120.867 79.4971 121.595 95.6979 127.549C129.579 140.003 147.58 131.875 153.202 124.614L148.587 121.038C145.696 124.775 130.147 133.984 97.7143 122.066C84.9969 117.386 74.3442 115.705 65.7667 115.748Z" fill="white"/>
<path d="M96.5663 84.7576C74.3784 84.7576 56.3282 102.812 56.3271 125C56.3229 147.188 74.3741 165.242 96.5663 165.242C118.753 165.242 136.808 147.188 136.808 125C136.808 102.812 118.753 84.7576 96.5663 84.7576ZM96.5663 90.6044C115.594 90.6044 130.961 105.971 130.961 125C130.972 144.04 115.605 159.406 96.5663 159.406C77.532 159.406 62.1643 144.04 62.1675 125C62.1675 105.971 77.5342 90.6044 96.5663 90.6044Z" fill="white"/>
<path d="M158.064 118.147V131.264H162.722C166.631 131.264 169.95 129.444 169.897 124.679C169.854 120.545 167.573 118.147 162.337 118.147H158.064ZM171.396 118.147V125.139C171.396 126.606 171.482 127.72 171.664 128.47C171.792 128.973 172.049 129.465 172.445 129.926C172.842 130.386 173.388 130.761 174.062 131.05C174.748 131.339 175.754 131.489 177.082 131.489C178.174 131.489 179.063 131.35 179.738 131.093C180.423 130.825 180.959 130.461 181.366 130.012C181.772 129.573 182.051 129.016 182.212 128.373C182.361 127.72 182.436 126.606 182.436 125.032V118.147H179.642V125.396C179.642 126.435 179.599 127.185 179.513 127.624C179.427 128.073 179.192 128.459 178.785 128.769C178.389 129.069 177.789 129.219 176.997 129.219C176.215 129.219 175.594 129.059 175.144 128.737C174.694 128.405 174.416 127.977 174.287 127.442C174.223 127.11 174.191 126.381 174.191 125.246V118.147H171.396ZM184.321 118.147V131.264H186.623V121.67L193.498 131.264H195.929V118.147H193.562V126.381L187.684 118.147H184.321ZM201.776 118.147L196.561 131.264H199.431L200.534 128.277H205.888L207.055 131.264H210L204.635 118.147H201.776ZM161.223 120.588H162.69C165.667 120.588 166.738 122.687 166.749 124.732C166.759 127.613 165.11 128.866 162.658 128.866H161.223V120.588ZM203.179 121.199L205.021 126.071H201.369L203.179 121.199Z" fill="white"/>
</svg>
