<svg width="250" height="250" viewBox="0 0 250 250" fill="none" xmlns="http://www.w3.org/2000/svg">
<rect width="250" height="250" fill="#072640"/>
<path d="M178.854 105.883H43.1331C41.414 105.883 40 107.269 40 109.016V147.472C40 149.191 41.3863 150.606 43.1331 150.606H178.826C180.545 150.606 181.959 149.219 181.959 147.472V109.016C181.987 107.269 180.573 105.883 178.854 105.883ZM181.1 147.472C181.1 148.72 180.102 149.718 178.854 149.718H43.1331C41.8854 149.718 40.8872 148.72 40.8872 147.472V109.016C40.8872 107.768 41.8854 106.77 43.1331 106.77H178.854C180.102 106.77 181.1 107.768 181.1 109.016V147.472Z" fill="#EF222C"/>
<path d="M80.8674 107.935H43.8803C42.9099 107.935 42.0781 108.739 42.0781 109.737V146.78C42.0781 147.75 42.8822 148.582 43.8803 148.582H80.8674C81.8378 148.582 82.6696 147.778 82.6696 146.78V109.737C82.6419 108.767 81.8378 107.935 80.8674 107.935Z" fill="#EF222C"/>
<path d="M56.6345 122.214V124.626C56.6345 124.848 56.7177 125.014 56.884 125.181C57.0781 125.375 57.3277 125.513 57.5772 125.652C58.3258 125.985 59.1021 126.317 59.8785 126.678C60.6271 127.011 61.348 127.454 61.9302 128.064L62.0411 128.092C63.067 128.092 64.0929 128.092 65.1188 128.092H65.2297C65.3683 128.064 65.4238 128.009 65.4238 127.87C65.4238 127.704 65.4238 127.51 65.4238 127.343C65.4238 127.094 65.4792 126.872 65.6733 126.706C65.8397 126.539 66.0615 126.512 66.2833 126.512H77.2907V130.31H57.5495H57.4108C56.9672 130.393 56.6345 130.837 56.6068 131.28V133.693C56.6068 133.914 56.6899 134.081 56.8563 134.247C57.0504 134.441 57.2999 134.58 57.5495 134.719C58.2981 135.051 59.0744 135.384 59.8508 135.744C60.5994 136.077 61.3203 136.521 61.9025 137.131L62.0134 137.158C63.0393 137.158 64.0652 137.158 65.0911 137.158H65.2297C65.3683 137.131 65.396 137.075 65.4238 136.937C65.4238 136.77 65.4238 136.576 65.4238 136.41C65.4238 136.16 65.4792 135.939 65.6733 135.772C65.8397 135.606 66.0615 135.578 66.2833 135.578H77.2907V141.373C77.2907 142.537 76.3757 143.619 75.1835 143.619H49.8138C48.6493 143.619 47.6511 142.537 47.6511 141.373V115.504C47.6511 114.34 48.6493 113.342 49.8138 113.342H75.2112C76.3757 113.342 77.3184 114.312 77.3184 115.504V121.244H57.5495H57.4108C56.9672 121.327 56.6345 121.77 56.6345 122.214Z" fill="white"/>
<path opacity="0.99" d="M93.7056 126.733H87.0236V112.371H93.7056V115.033H90.0457V118.083H93.3452V120.717H90.0457V124.072H93.7056V126.733Z" fill="white"/>
<path opacity="0.99" d="M105.323 126.733H98.946V112.371H101.968V124.072H105.323V126.733Z" fill="white"/>
<path opacity="0.99" d="M116.996 126.733H110.314V112.371H116.996V115.033H113.364V118.083H116.636V120.717H113.364V124.072H116.996V126.733Z" fill="white"/>
<path opacity="0.99" d="M128.863 126.733H124.205L124.177 126.567L121.737 112.371H124.815L126.506 122.353L128.253 112.371H131.303L128.863 126.733Z" fill="white"/>
<path opacity="0.99" d="M143.003 126.733H136.349V112.371H143.003V115.033H139.371V118.083H142.671V120.717H139.371V124.072H143.003V126.733Z" fill="white"/>
<path opacity="0.99" d="M156.201 126.733H153.096L151.238 120.55V126.733H148.244V112.371H151.238L153.318 118.97V112.371H156.201V126.733Z" fill="white"/>
<path d="M91.155 145.144H90.7946C87.8833 145.144 87.0793 144.423 87.0793 141.761V139.931H90.1014V141.927C90.1014 142.537 90.2678 142.565 90.7669 142.565H91.1273C91.6264 142.565 91.7928 142.537 91.7928 141.927V140.264C91.7928 139.654 91.6264 139.598 91.0441 139.349C90.9332 139.321 90.85 139.266 90.7114 139.21L89.2696 138.711C88.0774 138.24 87.0238 137.824 87.0238 135.772V134.053C87.0238 131.364 87.7724 130.671 90.7391 130.671H91.0164C93.9831 130.671 94.7318 131.364 94.7318 134.053V135.855H91.7096V133.887C91.7096 133.277 91.5432 133.277 91.0441 133.277H90.7669C90.2401 133.277 90.1014 133.305 90.1014 133.887V134.996C90.1014 135.828 90.2678 135.883 91.3214 136.271L91.3491 136.299L92.7077 136.77C93.9 137.214 94.8427 137.547 94.8427 139.654V141.789C94.8427 144.423 94.0386 145.144 91.155 145.144Z" fill="white"/>
<path d="M101.858 145.088H98.8356V130.754H102.939C105.739 130.754 106.544 131.447 106.544 133.998V137.352C106.544 139.903 105.795 140.596 102.939 140.596H101.885L101.858 145.088ZM101.858 137.99H102.884C103.327 137.99 103.466 137.962 103.466 137.491V133.887C103.466 133.415 103.3 133.36 102.884 133.36H101.858V137.99Z" fill="white"/>
<path d="M114.418 145.144H113.919C111.007 145.144 110.203 144.423 110.203 141.761V134.053C110.203 131.391 111.007 130.67 113.919 130.67H114.418C117.329 130.67 118.133 131.391 118.133 134.053V141.761C118.105 144.423 117.301 145.144 114.418 145.144ZM113.946 133.249C113.42 133.249 113.253 133.304 113.253 133.914V141.9C113.253 142.51 113.42 142.565 113.946 142.565H114.39C114.917 142.565 115.083 142.51 115.083 141.9V133.914C115.083 133.304 114.889 133.249 114.39 133.249H113.946Z" fill="white"/>
<path d="M130.832 145.088H127.81V140.43C127.81 139.654 127.394 139.654 127.255 139.654H126.146V145.088H123.124V130.781H127.283C130.111 130.781 130.859 131.447 130.859 134.025V135.966C130.859 137.297 130.582 137.99 129.889 138.295C130.582 138.656 130.859 139.404 130.859 140.763L130.832 145.088ZM126.118 137.103H127.255C127.643 137.103 127.782 137.103 127.782 136.576V133.831C127.782 133.36 127.643 133.36 127.227 133.36H126.118V137.103Z" fill="white"/>
<path d="M141.617 145.088H138.567V133.388H136.128V130.754H144.085V133.388H141.617V145.088Z" fill="white"/>
<path d="M152.736 145.144H152.375C149.464 145.144 148.66 144.423 148.66 141.761V139.931H151.682V141.927C151.682 142.537 151.848 142.565 152.348 142.565H152.708C153.207 142.565 153.373 142.537 153.373 141.927V140.264C153.373 139.654 153.207 139.598 152.625 139.349C152.514 139.321 152.431 139.266 152.292 139.21L150.85 138.711C149.658 138.24 148.604 137.824 148.604 135.772V134.053C148.604 131.364 149.353 130.67 152.32 130.67H152.597C155.564 130.67 156.312 131.364 156.312 134.053V135.855H153.29V133.887C153.29 133.277 153.124 133.277 152.625 133.277H152.348C151.821 133.277 151.682 133.304 151.682 133.887V134.996C151.682 135.828 151.848 135.883 152.902 136.271L152.93 136.299L154.288 136.77C155.481 137.214 156.423 137.547 156.423 139.654V141.789C156.423 144.423 155.647 145.144 152.736 145.144Z" fill="white"/>
<path d="M164.52 119.025L169.483 116.807H173.143V136.243H176.359V139.709H165.768V136.243H168.984V120.994L165.379 121.826L164.52 119.025Z" fill="white"/>
<path d="M202.894 106.549C203.37 106.621 203.789 106.522 204.153 106.253C204.776 103.893 205.369 101.525 205.93 99.1484C207.179 98.9538 208.437 98.9538 209.704 99.1484C208.912 102.178 208.072 105.187 207.187 108.177C208.034 111.265 208.971 114.324 210 117.354C208.671 117.502 207.338 117.551 206.003 117.502C205.411 115.084 204.819 112.666 204.227 110.249H202.894V117.502H199.49V99H202.894V106.549ZM199.638 117.206H199.639V99.1484H199.638V117.206Z" fill="white"/>
<path d="M195.938 110.989H198.306V113.654H195.938V117.354H192.682C192.731 116.094 192.68 114.861 192.534 113.654H186.317C186.265 112.558 186.339 111.472 186.539 110.397C187.951 106.589 189.357 102.79 190.757 99H195.938V110.989ZM192.386 102.108C191.486 105.055 190.647 108.015 189.87 110.989H192.535C192.584 108.003 192.534 105.043 192.386 102.108Z" fill="white"/>
</svg>
