<svg width="250" height="250" viewBox="0 0 250 250" fill="none" xmlns="http://www.w3.org/2000/svg">
<rect width="250" height="250" fill="#072640"/>
<path d="M206.281 98H43.7519C41.6934 98 40 99.6602 40 101.752V147.805C40 149.863 41.6602 151.556 43.7519 151.556H206.248C208.306 151.556 210 149.896 210 147.805V101.752C210.033 99.6602 208.339 98 206.281 98ZM208.97 147.805C208.97 149.299 207.775 150.494 206.281 150.494H43.7519C42.2578 150.494 41.0625 149.299 41.0625 147.805V101.752C41.0625 100.258 42.2578 99.0625 43.7519 99.0625H206.281C207.775 99.0625 208.97 100.258 208.97 101.752V147.805Z" fill="#EF222C"/>
<path d="M88.9413 100.457H44.6484C43.4863 100.457 42.4902 101.42 42.4902 102.615V146.974C42.4902 148.137 43.4531 149.133 44.6484 149.133H88.9413C90.1034 149.133 91.0995 148.17 91.0995 146.974V102.615C91.0663 101.453 90.1034 100.457 88.9413 100.457Z" fill="#EF222C"/>
<path d="M59.9217 117.557V120.445C59.9217 120.711 60.0213 120.91 60.2205 121.109C60.4529 121.342 60.7518 121.508 61.0506 121.674C61.9471 122.072 62.8768 122.471 63.8064 122.902C64.7029 123.301 65.5662 123.832 66.2635 124.562L66.3963 124.596C67.6248 124.596 68.8533 124.596 70.0818 124.596H70.2146C70.3806 124.562 70.4471 124.496 70.4471 124.33C70.4471 124.131 70.4471 123.898 70.4471 123.699C70.4471 123.4 70.5135 123.135 70.7459 122.935C70.9451 122.736 71.2107 122.703 71.4763 122.703H84.6579V127.252H61.0174H60.8514C60.3201 127.352 59.9217 127.883 59.8885 128.414V131.303C59.8885 131.568 59.9881 131.768 60.1873 131.967C60.4197 132.199 60.7186 132.365 61.0174 132.531C61.9139 132.93 62.8436 133.328 63.7732 133.76C64.6697 134.158 65.533 134.689 66.2303 135.42L66.3631 135.453C67.5916 135.453 68.8201 135.453 70.0486 135.453H70.2146C70.3806 135.42 70.4138 135.353 70.4471 135.187C70.4471 134.988 70.4471 134.756 70.4471 134.557C70.4471 134.258 70.5135 133.992 70.7459 133.793C70.9451 133.594 71.2107 133.56 71.4763 133.56H84.6579V140.5C84.6579 141.894 83.5622 143.189 82.1345 143.189H51.7537C50.3592 143.189 49.1639 141.894 49.1639 140.5V109.521C49.1639 108.127 50.3592 106.932 51.7537 106.932H82.1677C83.5622 106.932 84.6912 108.094 84.6912 109.521V116.395H61.0174H60.8514C60.3201 116.494 59.9217 117.025 59.9217 117.557Z" fill="white"/>
<path opacity="0.99" d="M104.314 122.969H96.3116V105.77H104.314V108.957H99.9308V112.609H103.882V115.764H99.9308V119.781H104.314V122.969Z" fill="white"/>
<path opacity="0.99" d="M118.226 122.969H110.589V105.77H114.208V119.781H118.226V122.969Z" fill="white"/>
<path opacity="0.99" d="M132.204 122.969H124.202V105.77H132.204V108.957H127.855V112.609H131.772V115.764H127.855V119.781H132.204V122.969Z" fill="white"/>
<path opacity="0.99" d="M146.415 122.969H140.837L140.803 122.769L137.882 105.77H141.567L143.592 117.723L145.684 105.77H149.337L146.415 122.969Z" fill="white"/>
<path opacity="0.99" d="M163.349 122.969H155.38V105.77H163.349V108.957H158.999V112.609H162.95V115.764H158.999V119.781H163.349V122.969Z" fill="white"/>
<path opacity="0.99" d="M179.153 122.969H175.435L173.21 115.564V122.969H169.624V105.77H173.21L175.7 113.672V105.77H179.153V122.969Z" fill="white"/>
<path d="M101.259 145.016H100.827C97.3409 145.016 96.3781 144.152 96.3781 140.965V138.773H99.9972V141.164C99.9972 141.894 100.196 141.928 100.794 141.928H101.226C101.823 141.928 102.023 141.894 102.023 141.164V139.172C102.023 138.441 101.823 138.375 101.126 138.076C100.993 138.043 100.894 137.977 100.728 137.91L99.0011 137.312C97.5734 136.748 96.3116 136.25 96.3116 133.793V131.734C96.3116 128.514 97.2081 127.684 100.761 127.684H101.093C104.646 127.684 105.542 128.514 105.542 131.734V133.893H101.923V131.535C101.923 130.805 101.724 130.805 101.126 130.805H100.794C100.163 130.805 99.9972 130.838 99.9972 131.535V132.863C99.9972 133.859 100.196 133.926 101.458 134.391L101.491 134.424L103.118 134.988C104.546 135.52 105.675 135.918 105.675 138.441V140.998C105.675 144.152 104.712 145.016 101.259 145.016Z" fill="white"/>
<path d="M114.075 144.949H110.456V127.783H115.37C118.724 127.783 119.686 128.613 119.686 131.668V135.686C119.686 138.74 118.79 139.57 115.37 139.57H114.108L114.075 144.949ZM114.075 136.449H115.304C115.835 136.449 116.001 136.416 116.001 135.852V131.535C116.001 130.971 115.802 130.904 115.304 130.904H114.075V136.449Z" fill="white"/>
<path d="M129.116 145.016H128.518C125.032 145.016 124.069 144.152 124.069 140.965V131.734C124.069 128.547 125.032 127.684 128.518 127.684H129.116C132.602 127.684 133.565 128.547 133.565 131.734V140.965C133.532 144.152 132.569 145.016 129.116 145.016ZM128.552 130.771C127.921 130.771 127.722 130.838 127.722 131.568V141.131C127.722 141.861 127.921 141.928 128.552 141.928H129.083C129.714 141.928 129.913 141.861 129.913 141.131V131.568C129.913 130.838 129.681 130.771 129.083 130.771H128.552Z" fill="white"/>
<path d="M148.772 144.949H145.153V139.371C145.153 138.441 144.655 138.441 144.489 138.441H143.161V144.949H139.542V127.816H144.522C147.909 127.816 148.805 128.613 148.805 131.701V134.025C148.805 135.619 148.473 136.449 147.643 136.814C148.473 137.246 148.805 138.143 148.805 139.769L148.772 144.949ZM143.128 135.387H144.489C144.954 135.387 145.12 135.387 145.12 134.756V131.469C145.12 130.904 144.954 130.904 144.456 130.904H143.128V135.387Z" fill="white"/>
<path d="M161.688 144.949H158.036V130.937H155.114V127.783H164.643V130.937H161.688V144.949Z" fill="white"/>
<path d="M175.003 145.016H174.571C171.085 145.016 170.122 144.152 170.122 140.965V138.773H173.741V141.164C173.741 141.894 173.94 141.928 174.538 141.928H174.97C175.567 141.928 175.766 141.894 175.766 141.164V139.172C175.766 138.441 175.567 138.375 174.87 138.076C174.737 138.043 174.637 137.977 174.471 137.91L172.745 137.312C171.317 136.748 170.055 136.25 170.055 133.793V131.734C170.055 128.514 170.952 127.684 174.505 127.684H174.837C178.389 127.684 179.286 128.514 179.286 131.734V133.893H175.667V131.535C175.667 130.805 175.468 130.805 174.87 130.805H174.538C173.907 130.805 173.741 130.838 173.741 131.535V132.863C173.741 133.859 173.94 133.926 175.202 134.391L175.235 134.424L176.862 134.988C178.29 135.52 179.419 135.918 179.419 138.441V140.998C179.419 144.152 178.489 145.016 175.003 145.016Z" fill="white"/>
<path d="M189.447 138.607V131.701C189.447 129.51 190.277 127.684 191.904 126.223L195.689 122.703C197.316 121.408 198.113 119.814 198.113 117.988V116.859C198.113 116.162 197.98 115.697 197.714 115.498C197.449 115.299 196.984 115.199 196.353 115.199H195.888C195.257 115.199 194.826 115.299 194.527 115.498C194.261 115.697 194.128 116.162 194.128 116.859V120.113H189.48V117.291C189.48 114.801 189.978 113.141 190.941 112.311C191.937 111.447 193.63 111.049 196.087 111.049H196.984C199.275 111.049 200.835 111.514 201.632 112.443C202.429 113.373 202.828 115 202.828 117.291V118.619C202.828 120.08 202.595 121.242 202.13 122.072C201.665 122.936 200.935 123.832 199.906 124.795L196.685 127.85C196.021 128.447 195.556 128.879 195.324 129.111C195.091 129.344 194.859 129.676 194.693 130.107C194.494 130.539 194.394 131.037 194.394 131.602V134.457H202.96V138.607H189.447Z" fill="white"/>
</svg>
