<svg width="250" height="250" viewBox="0 0 250 250" fill="none" xmlns="http://www.w3.org/2000/svg">
<rect width="250" height="250" fill="#072640"/>
<path d="M206.281 98H43.7519C41.6934 98 40 99.6602 40 101.752V147.805C40 149.863 41.6602 151.556 43.7519 151.556H206.248C208.306 151.556 210 149.896 210 147.805V101.752C210.033 99.6602 208.339 98 206.281 98ZM208.97 147.805C208.97 149.299 207.775 150.494 206.281 150.494H43.7519C42.2578 150.494 41.0625 149.299 41.0625 147.805V101.752C41.0625 100.258 42.2578 99.0625 43.7519 99.0625H206.281C207.775 99.0625 208.97 100.258 208.97 101.752V147.805Z" fill="#EF222C"/>
<path d="M88.9413 100.457H44.6484C43.4863 100.457 42.4902 101.42 42.4902 102.615V146.974C42.4902 148.137 43.4531 149.133 44.6484 149.133H88.9413C90.1034 149.133 91.0995 148.17 91.0995 146.974V102.615C91.0663 101.453 90.1034 100.457 88.9413 100.457Z" fill="#EF222C"/>
<path d="M59.9218 117.557V120.445C59.9218 120.711 60.0215 120.91 60.2207 121.109C60.4531 121.342 60.7519 121.508 61.0507 121.674C61.9472 122.072 62.8769 122.471 63.8066 122.902C64.7031 123.301 65.5664 123.832 66.2636 124.562L66.3964 124.596C67.6249 124.596 68.8535 124.596 70.082 124.596H70.2148C70.3808 124.562 70.4472 124.496 70.4472 124.33C70.4472 124.131 70.4472 123.898 70.4472 123.699C70.4472 123.4 70.5136 123.135 70.746 122.936C70.9452 122.736 71.2109 122.703 71.4765 122.703H84.6581V127.252H61.0175H60.8515C60.3203 127.352 59.9218 127.883 59.8886 128.414V131.303C59.8886 131.568 59.9882 131.768 60.1875 131.967C60.4199 132.199 60.7187 132.365 61.0175 132.531C61.914 132.93 62.8437 133.328 63.7734 133.76C64.6699 134.158 65.5332 134.689 66.2304 135.42L66.3632 135.453C67.5917 135.453 68.8203 135.453 70.0488 135.453H70.2148C70.3808 135.42 70.414 135.353 70.4472 135.187C70.4472 134.988 70.4472 134.756 70.4472 134.557C70.4472 134.258 70.5136 133.992 70.746 133.793C70.9452 133.594 71.2109 133.56 71.4765 133.56H84.6581V140.5C84.6581 141.894 83.5624 143.189 82.1347 143.189H51.7539C50.3594 143.189 49.1641 141.894 49.1641 140.5V109.521C49.1641 108.127 50.3594 106.932 51.7539 106.932H82.1679C83.5624 106.932 84.6913 108.094 84.6913 109.521V116.395H61.0175H60.8515C60.3203 116.494 59.9218 117.025 59.9218 117.557Z" fill="white"/>
<path opacity="0.99" d="M104.314 122.969H96.3125V105.77H104.314V108.957H99.9316V112.609H103.883V115.764H99.9316V119.781H104.314V122.969Z" fill="white"/>
<path opacity="0.99" d="M118.227 122.969H110.59V105.77H114.209V119.781H118.227V122.969Z" fill="white"/>
<path opacity="0.99" d="M132.205 122.969H124.203V105.77H132.205V108.957H127.855V112.609H131.773V115.764H127.855V119.781H132.205V122.969Z" fill="white"/>
<path opacity="0.99" d="M146.416 122.969H140.838L140.805 122.769L137.883 105.77H141.568L143.594 117.723L145.686 105.77H149.338L146.416 122.969Z" fill="white"/>
<path opacity="0.99" d="M163.35 122.969H155.381V105.77H163.35V108.957H159V112.609H162.951V115.764H159V119.781H163.35V122.969Z" fill="white"/>
<path opacity="0.99" d="M179.154 122.969H175.436L173.211 115.564V122.969H169.625V105.77H173.211L175.701 113.672V105.77H179.154V122.969Z" fill="white"/>
<path d="M101.26 145.016H100.828C97.3418 145.016 96.3789 144.152 96.3789 140.965V138.773H99.998V141.164C99.998 141.894 100.197 141.928 100.795 141.928H101.227C101.824 141.928 102.023 141.894 102.023 141.164V139.172C102.023 138.441 101.824 138.375 101.127 138.076C100.994 138.043 100.895 137.977 100.728 137.91L99.0019 137.312C97.5742 136.748 96.3125 136.25 96.3125 133.793V131.734C96.3125 128.514 97.209 127.684 100.762 127.684H101.094C104.646 127.684 105.543 128.514 105.543 131.734V133.893H101.924V131.535C101.924 130.805 101.725 130.805 101.127 130.805H100.795C100.164 130.805 99.998 130.838 99.998 131.535V132.863C99.998 133.859 100.197 133.926 101.459 134.391L101.492 134.424L103.119 134.988C104.547 135.52 105.676 135.918 105.676 138.441V140.998C105.676 144.152 104.713 145.016 101.26 145.016Z" fill="white"/>
<path d="M114.076 144.949H110.457V127.783H115.371C118.725 127.783 119.687 128.613 119.687 131.668V135.686C119.687 138.74 118.791 139.57 115.371 139.57H114.109L114.076 144.949ZM114.076 136.449H115.305C115.836 136.449 116.002 136.416 116.002 135.852V131.535C116.002 130.971 115.803 130.904 115.305 130.904H114.076V136.449Z" fill="white"/>
<path d="M129.117 145.016H128.52C125.033 145.016 124.07 144.152 124.07 140.965V131.734C124.07 128.547 125.033 127.684 128.52 127.684H129.117C132.603 127.684 133.566 128.547 133.566 131.734V140.965C133.533 144.152 132.57 145.016 129.117 145.016ZM128.553 130.771C127.922 130.771 127.723 130.838 127.723 131.568V141.131C127.723 141.861 127.922 141.928 128.553 141.928H129.084C129.715 141.928 129.914 141.861 129.914 141.131V131.568C129.914 130.838 129.682 130.771 129.084 130.771H128.553Z" fill="white"/>
<path d="M148.773 144.949H145.154V139.371C145.154 138.441 144.656 138.441 144.49 138.441H143.162V144.949H139.543V127.816H144.523C147.91 127.816 148.807 128.613 148.807 131.701V134.025C148.807 135.619 148.475 136.449 147.645 136.814C148.475 137.246 148.807 138.143 148.807 139.769L148.773 144.949ZM143.129 135.387H144.49C144.955 135.387 145.121 135.387 145.121 134.756V131.469C145.121 130.904 144.955 130.904 144.457 130.904H143.129V135.387Z" fill="white"/>
<path d="M161.689 144.949H158.037V130.937H155.115V127.783H164.644V130.937H161.689V144.949Z" fill="white"/>
<path d="M175.004 145.016H174.572C171.086 145.016 170.123 144.152 170.123 140.965V138.773H173.742V141.164C173.742 141.894 173.941 141.928 174.539 141.928H174.971C175.568 141.928 175.768 141.894 175.768 141.164V139.172C175.768 138.441 175.568 138.375 174.871 138.076C174.738 138.043 174.639 137.977 174.473 137.91L172.746 137.312C171.318 136.748 170.057 136.25 170.057 133.793V131.734C170.057 128.514 170.953 127.684 174.506 127.684H174.838C178.391 127.684 179.287 128.514 179.287 131.734V133.893H175.668V131.535C175.668 130.805 175.469 130.805 174.871 130.805H174.539C173.908 130.805 173.742 130.838 173.742 131.535V132.863C173.742 133.859 173.941 133.926 175.203 134.391L175.236 134.424L176.863 134.988C178.291 135.52 179.42 135.918 179.42 138.441V140.998C179.42 144.152 178.49 145.016 175.004 145.016Z" fill="white"/>
<path d="M189.115 113.738L195.059 111.082H199.441V134.357H203.293V138.508H190.609V134.357H194.461V116.096L190.145 117.092L189.115 113.738Z" fill="white"/>
</svg>
