<svg width="250" height="250" viewBox="0 0 250 250" fill="none" xmlns="http://www.w3.org/2000/svg">
<rect width="250" height="250" fill="white"/>
<path d="M220.624 93H29.4141C26.9922 93 25 94.9531 25 97.414V151.594C25 154.015 26.9531 156.008 29.4141 156.008H220.585C223.007 156.008 224.999 154.055 224.999 151.594V97.414C225.038 94.9531 223.046 93 220.624 93ZM223.788 151.594C223.788 153.351 222.382 154.758 220.624 154.758H29.4141C27.6562 154.758 26.25 153.351 26.25 151.594V97.414C26.25 95.6562 27.6562 94.25 29.4141 94.25H220.624C222.382 94.25 223.788 95.6562 223.788 97.414V151.594Z" fill="#EF222C"/>
<path d="M82.578 95.8906H30.4687C29.1016 95.8906 27.9297 97.0234 27.9297 98.4297V150.617C27.9297 151.984 29.0625 153.156 30.4687 153.156H82.578C83.9451 153.156 85.117 152.023 85.117 150.617V98.4297C85.078 97.0625 83.9451 95.8906 82.578 95.8906Z" fill="#EF222C"/>
<path d="M48.4375 116.008V119.406C48.4375 119.719 48.5547 119.953 48.789 120.187C49.0625 120.461 49.414 120.656 49.7656 120.852C50.8203 121.32 51.914 121.789 53.0078 122.297C54.0624 122.766 55.0781 123.391 55.8984 124.25L56.0546 124.289C57.4999 124.289 58.9452 124.289 60.3906 124.289H60.5468C60.7421 124.25 60.8202 124.172 60.8202 123.977C60.8202 123.742 60.8202 123.469 60.8202 123.234C60.8202 122.883 60.8984 122.57 61.1718 122.336C61.4062 122.102 61.7187 122.062 62.0312 122.062H77.5389V127.414H49.7265H49.5312C48.9062 127.531 48.4375 128.156 48.3984 128.781V132.18C48.3984 132.492 48.5156 132.726 48.75 132.961C49.0234 133.234 49.375 133.43 49.7265 133.625C50.7812 134.094 51.875 134.562 52.9687 135.07C54.0234 135.539 55.039 136.164 55.8593 137.023L56.0156 137.062C57.4609 137.062 58.9062 137.062 60.3515 137.062H60.5468C60.7421 137.023 60.7812 136.945 60.8202 136.75C60.8202 136.516 60.8202 136.242 60.8202 136.008C60.8202 135.656 60.8984 135.344 61.1718 135.109C61.4062 134.875 61.7187 134.836 62.0312 134.836H77.5389V143C77.5389 144.641 76.2499 146.164 74.5702 146.164H38.8281C37.1875 146.164 35.7812 144.641 35.7812 143V106.555C35.7812 104.914 37.1875 103.508 38.8281 103.508H74.6093C76.2499 103.508 77.578 104.875 77.578 106.555V114.641H49.7265H49.5312C48.9062 114.758 48.4375 115.383 48.4375 116.008Z" fill="white"/>
<path opacity="0.99" d="M100.664 122.375H91.25V102.141H100.664V105.891H95.5078V110.187H100.156V113.898H95.5078V118.625H100.664V122.375Z" fill="#EF222C"/>
<path opacity="0.99" d="M117.031 122.375H108.047V102.141H112.305V118.625H117.031V122.375Z" fill="#EF222C"/>
<path opacity="0.99" d="M133.477 122.375H124.062V102.141H133.477V105.891H128.359V110.187H132.969V113.898H128.359V118.625H133.477V122.375Z" fill="#EF222C"/>
<path opacity="0.99" d="M150.195 122.375H143.633L143.594 122.141L140.156 102.141H144.492L146.875 116.203L149.336 102.141H153.633L150.195 122.375Z" fill="#EF222C"/>
<path opacity="0.99" d="M170.117 122.375H160.742V102.141H170.117V105.891H165V110.187H169.648V113.898H165V118.625H170.117V122.375Z" fill="#EF222C"/>
<path opacity="0.99" d="M188.711 122.375H184.336L181.719 113.664V122.375H177.5V102.141H181.719L184.648 111.437V102.141H188.711V122.375Z" fill="#EF222C"/>
<path d="M97.0703 148.312H96.5625C92.4609 148.312 91.3281 147.297 91.3281 143.547V140.969H95.5859V143.781C95.5859 144.64 95.8203 144.68 96.5234 144.68H97.0312C97.7344 144.68 97.9687 144.64 97.9687 143.781V141.437C97.9687 140.578 97.7344 140.5 96.914 140.148C96.7578 140.109 96.6406 140.031 96.4453 139.953L94.414 139.25C92.7344 138.586 91.25 138 91.25 135.109V132.687C91.25 128.898 92.3047 127.922 96.4844 127.922H96.875C101.055 127.922 102.109 128.898 102.109 132.687V135.226H97.8515V132.453C97.8515 131.594 97.6172 131.594 96.914 131.594H96.5234C95.7812 131.594 95.5859 131.633 95.5859 132.453V134.015C95.5859 135.187 95.8203 135.265 97.3047 135.812L97.3437 135.851L99.2578 136.515C100.937 137.14 102.266 137.609 102.266 140.578V143.586C102.266 147.297 101.133 148.312 97.0703 148.312Z" fill="#EF222C"/>
<path d="M112.148 148.234H107.891V128.039H113.672C117.617 128.039 118.75 129.016 118.75 132.609V137.336C118.75 140.93 117.695 141.906 113.672 141.906H112.187L112.148 148.234ZM112.148 138.234H113.594C114.219 138.234 114.414 138.195 114.414 137.531V132.453C114.414 131.789 114.18 131.711 113.594 131.711H112.148V138.234Z" fill="#EF222C"/>
<path d="M129.844 148.312H129.141C125.039 148.312 123.906 147.297 123.906 143.547V132.687C123.906 128.937 125.039 127.922 129.141 127.922H129.844C133.945 127.922 135.078 128.937 135.078 132.687V143.547C135.039 147.297 133.906 148.312 129.844 148.312ZM129.18 131.555C128.437 131.555 128.203 131.633 128.203 132.492V143.742C128.203 144.601 128.437 144.68 129.18 144.68H129.805C130.547 144.68 130.781 144.601 130.781 143.742V132.492C130.781 131.633 130.508 131.555 129.805 131.555H129.18Z" fill="#EF222C"/>
<path d="M152.969 148.234H148.711V141.672C148.711 140.578 148.125 140.578 147.93 140.578H146.367V148.234H142.109V128.078H147.969C151.953 128.078 153.008 129.015 153.008 132.648V135.383C153.008 137.258 152.617 138.234 151.641 138.664C152.617 139.172 153.008 140.226 153.008 142.14L152.969 148.234ZM146.328 136.984H147.93C148.477 136.984 148.672 136.984 148.672 136.242V132.375C148.672 131.711 148.477 131.711 147.891 131.711H146.328V136.984Z" fill="#EF222C"/>
<path d="M168.164 148.234H163.867V131.75H160.43V128.039H171.641V131.75H168.164V148.234Z" fill="#EF222C"/>
<path d="M183.828 148.312H183.32C179.219 148.312 178.086 147.297 178.086 143.547V140.969H182.344V143.781C182.344 144.64 182.578 144.68 183.281 144.68H183.789C184.492 144.68 184.727 144.64 184.727 143.781V141.437C184.727 140.578 184.492 140.5 183.672 140.148C183.516 140.109 183.398 140.031 183.203 139.953L181.172 139.25C179.492 138.586 178.008 138 178.008 135.109V132.687C178.008 128.898 179.062 127.922 183.242 127.922H183.633C187.812 127.922 188.867 128.898 188.867 132.687V135.226H184.609V132.453C184.609 131.594 184.375 131.594 183.672 131.594H183.281C182.539 131.594 182.344 131.633 182.344 132.453V134.015C182.344 135.187 182.578 135.265 184.062 135.812L184.102 135.851L186.016 136.515C187.695 137.14 189.023 137.609 189.023 140.578V143.586C189.023 147.297 187.93 148.312 183.828 148.312Z" fill="#EF222C"/>
<path d="M222.148 98.4297V150.617C222.148 151.984 221.016 153.156 219.609 153.156H197.969C196.602 153.156 195.43 152.023 195.43 150.617V98.4297C195.43 97.0625 196.562 95.8906 197.969 95.8906H219.609C220.976 95.8906 222.148 97.0625 222.148 98.4297Z" fill="#10253D"/>
<path d="M204.297 126.711V121.828H209.57C210.078 121.828 210.469 121.711 210.742 121.437C211.016 121.164 211.133 120.695 211.133 119.992V115.109C211.133 114.25 210.977 113.703 210.664 113.469C210.352 113.234 209.844 113.117 209.102 113.117H208.164C207.422 113.117 206.914 113.234 206.602 113.469C206.289 113.703 206.133 114.25 206.133 115.109V117.844H200.508V115.578C200.508 112.57 201.016 110.578 202.07 109.641C203.125 108.703 205.234 108.195 208.477 108.195H209.531C212.383 108.195 214.336 108.664 215.391 109.641C216.445 110.617 216.992 112.57 216.992 115.578V118.586C216.992 120.539 216.758 121.867 216.25 122.648C215.742 123.43 214.844 123.898 213.555 124.055C214.883 124.211 215.781 124.641 216.289 125.383C216.797 126.125 217.031 127.492 217.031 129.445V133.469C217.031 135.148 216.875 136.516 216.562 137.531C216.25 138.547 215.742 139.289 215 139.758C214.258 140.226 213.516 140.539 212.773 140.656C212.031 140.773 210.937 140.851 209.57 140.851H208.516C205.273 140.851 203.164 140.383 202.109 139.406C201.055 138.469 200.547 136.476 200.547 133.469V131.086H206.172V133.937C206.172 134.797 206.328 135.344 206.641 135.578C206.953 135.812 207.461 135.93 208.203 135.93H209.141C209.844 135.93 210.352 135.812 210.703 135.578C211.016 135.344 211.172 134.797 211.172 133.937V128.547C211.172 127.844 211.055 127.375 210.781 127.102C210.508 126.828 210.117 126.711 209.609 126.711H204.297Z" fill="white"/>
</svg>
