<svg width="250" height="250" viewBox="0 0 250 250" fill="none" xmlns="http://www.w3.org/2000/svg">
<rect width="250" height="250" fill="white"/>
<path d="M188.357 103.098H28.686C26.6636 103.098 25 104.728 25 106.784V152.026C25 154.049 26.631 155.712 28.686 155.712H188.324C190.347 155.712 192.01 154.081 192.01 152.026V106.784C192.043 104.728 190.379 103.098 188.357 103.098ZM190.999 152.026C190.999 153.494 189.825 154.669 188.357 154.669H28.686C27.2181 154.669 26.0438 153.494 26.0438 152.026V106.784C26.0438 105.316 27.2181 104.141 28.686 104.141H188.357C189.825 104.141 190.999 105.316 190.999 106.784V152.026Z" fill="#EF222C"/>
<path d="M73.0816 105.512H29.5675C28.4258 105.512 27.4473 106.458 27.4473 107.632V151.211C27.4473 152.353 28.3932 153.332 29.5675 153.332H73.0816C74.2232 153.332 75.2018 152.386 75.2018 151.211V107.632C75.1692 106.49 74.2232 105.512 73.0816 105.512Z" fill="#EF222C"/>
<path d="M44.5706 122.311V125.148C44.5706 125.409 44.6684 125.605 44.8642 125.801C45.0925 126.029 45.3861 126.192 45.6796 126.355C46.5604 126.747 47.4737 127.138 48.387 127.562C49.2677 127.954 50.1158 128.476 50.8009 129.193L50.9313 129.226C52.1382 129.226 53.3452 129.226 54.5521 129.226H54.6825C54.8456 129.193 54.9109 129.128 54.9109 128.965C54.9109 128.769 54.9109 128.541 54.9109 128.345C54.9109 128.052 54.9761 127.791 55.2044 127.595C55.4002 127.399 55.6611 127.367 55.9221 127.367H68.8719V131.835H45.647H45.4839C44.962 131.933 44.5706 132.455 44.538 132.977V135.815C44.538 136.076 44.6358 136.272 44.8315 136.467C45.0599 136.696 45.3534 136.859 45.647 137.022C46.5277 137.413 47.4411 137.805 48.3544 138.229C49.2351 138.62 50.0832 139.142 50.7682 139.86L50.8987 139.892C52.1056 139.892 53.3125 139.892 54.5194 139.892H54.6825C54.8456 139.86 54.8783 139.794 54.9109 139.631C54.9109 139.436 54.9109 139.207 54.9109 139.012C54.9109 138.718 54.9761 138.457 55.2044 138.261C55.4002 138.066 55.6611 138.033 55.9221 138.033H68.8719V144.85C68.8719 146.22 67.7955 147.493 66.3928 147.493H36.5463C35.1762 147.493 34.002 146.22 34.002 144.85V114.417C34.002 113.047 35.1762 111.872 36.5463 111.872H66.4255C67.7955 111.872 68.9045 113.014 68.9045 114.417V121.169H45.647H45.4839C44.962 121.267 44.5706 121.789 44.5706 122.311Z" fill="white"/>
<path opacity="0.99" d="M88.1835 127.627H80.3223V110.731H88.1835V113.862H83.8778V117.45H87.7594V120.549H83.8778V124.496H88.1835V127.627Z" fill="#EF222C"/>
<path opacity="0.99" d="M101.85 127.627H94.3477V110.731H97.9031V124.496H101.85V127.627Z" fill="#EF222C"/>
<path opacity="0.99" d="M115.584 127.627H107.723V110.731H115.584V113.862H111.311V117.45H115.16V120.549H111.311V124.496H115.584V127.627Z" fill="#EF222C"/>
<path opacity="0.99" d="M129.545 127.627H124.065L124.033 127.432L121.162 110.731H124.783L126.773 122.474L128.828 110.731H132.416L129.545 127.627Z" fill="#EF222C"/>
<path opacity="0.99" d="M146.18 127.627H138.352V110.731H146.18V113.862H141.907V117.45H145.789V120.549H141.907V124.496H146.18V127.627Z" fill="#EF222C"/>
<path opacity="0.99" d="M161.707 127.627H158.054L155.869 120.353V127.627H152.346V110.731H155.869L158.315 118.494V110.731H161.707V127.627Z" fill="#EF222C"/>
<path d="M85.1825 149.287H84.7585C81.3335 149.287 80.3875 148.439 80.3875 145.307V143.154H83.943V145.503C83.943 146.22 84.1387 146.253 84.7259 146.253H85.1499C85.7371 146.253 85.9328 146.22 85.9328 145.503V143.546C85.9328 142.828 85.7371 142.763 85.0521 142.469C84.9216 142.437 84.8237 142.371 84.6606 142.306L82.9644 141.719C81.5618 141.164 80.3223 140.675 80.3223 138.261V136.239C80.3223 133.075 81.203 132.259 84.6932 132.259H85.0194C88.5097 132.259 89.3904 133.075 89.3904 136.239V138.359H85.8349V136.043C85.8349 135.326 85.6392 135.326 85.0521 135.326H84.7259C84.1061 135.326 83.943 135.358 83.943 136.043V137.348C83.943 138.327 84.1387 138.392 85.3782 138.848L85.4109 138.881L87.0092 139.436C88.4118 139.958 89.5209 140.349 89.5209 142.828V145.34C89.5209 148.439 88.5749 149.287 85.1825 149.287Z" fill="#EF222C"/>
<path d="M97.7742 149.221H94.2188V132.357H99.0464C102.341 132.357 103.287 133.173 103.287 136.174V140.121C103.287 143.122 102.406 143.937 99.0464 143.937H97.8069L97.7742 149.221ZM97.7742 140.871H98.9812C99.5031 140.871 99.6662 140.838 99.6662 140.284V136.043C99.6662 135.489 99.4704 135.423 98.9812 135.423H97.7742V140.871Z" fill="#EF222C"/>
<path d="M112.55 149.287H111.963C108.538 149.287 107.592 148.438 107.592 145.307V136.239C107.592 133.107 108.538 132.259 111.963 132.259H112.55C115.975 132.259 116.921 133.107 116.921 136.239V145.307C116.888 148.438 115.942 149.287 112.55 149.287ZM111.995 135.293C111.376 135.293 111.18 135.358 111.18 136.076V145.47C111.18 146.188 111.376 146.253 111.995 146.253H112.517C113.137 146.253 113.333 146.188 113.333 145.47V136.076C113.333 135.358 113.104 135.293 112.517 135.293H111.995Z" fill="#EF222C"/>
<path d="M131.861 149.221H128.306V143.741C128.306 142.828 127.816 142.828 127.653 142.828H126.348V149.221H122.793V132.39H127.686C131.013 132.39 131.894 133.173 131.894 136.206V138.49C131.894 140.055 131.568 140.871 130.752 141.23C131.568 141.654 131.894 142.534 131.894 144.133L131.861 149.221ZM126.316 139.827H127.653C128.11 139.827 128.273 139.827 128.273 139.207V135.978C128.273 135.423 128.11 135.423 127.621 135.423H126.316V139.827Z" fill="#EF222C"/>
<path d="M144.55 149.221H140.962V135.456H138.092V132.357H147.454V135.456H144.55V149.221Z" fill="#EF222C"/>
<path d="M157.63 149.287H157.206C153.781 149.287 152.835 148.438 152.835 145.307V143.154H156.39V145.503C156.39 146.22 156.586 146.253 157.173 146.253H157.597C158.184 146.253 158.38 146.22 158.38 145.503V143.546C158.38 142.828 158.184 142.763 157.499 142.469C157.369 142.436 157.271 142.371 157.108 142.306L155.412 141.719C154.009 141.164 152.77 140.675 152.77 138.261V136.239C152.77 133.075 153.65 132.259 157.141 132.259H157.467C160.957 132.259 161.838 133.075 161.838 136.239V138.359H158.282V136.043C158.282 135.325 158.086 135.325 157.499 135.325H157.173C156.553 135.325 156.39 135.358 156.39 136.043V137.348C156.39 138.326 156.586 138.392 157.826 138.848L157.858 138.881L159.456 139.436C160.859 139.957 161.968 140.349 161.968 142.828V145.34C161.968 148.438 161.055 149.287 157.63 149.287Z" fill="#EF222C"/>
<path d="M189.63 107.632V151.211C189.63 152.353 188.684 153.331 187.51 153.331H169.439C168.297 153.331 167.318 152.385 167.318 151.211V107.632C167.318 106.49 168.264 105.511 169.439 105.511H187.51C188.651 105.511 189.63 106.49 189.63 107.632Z" fill="#10253D"/>
<path d="M171.494 118.559L177.333 115.95H181.639V138.816H185.423V142.893H172.962V138.816H176.746V120.875L172.505 121.854L171.494 118.559Z" fill="white"/>
<path d="M216.64 103.857C216.64 103.865 216.64 103.873 216.641 103.881C217.199 103.966 217.692 103.85 218.12 103.533C218.853 100.756 219.55 97.9695 220.21 95.1738C221.68 94.9449 223.16 94.9449 224.65 95.1738C223.719 98.7378 222.732 102.279 221.69 105.797C222.686 109.43 223.789 113.029 224.999 116.594C223.435 116.768 221.868 116.825 220.297 116.768C219.6 113.923 218.905 111.078 218.208 108.234H216.641C216.64 108.239 216.64 108.245 216.64 108.25V116.768H212.635V95H216.64V103.857ZM212.809 116.419H212.81V95.1738H212.809V116.419Z" fill="#EF222C"/>
<path d="M208.455 109.105H211.241V112.24H208.455V116.594H204.624C204.681 115.111 204.622 113.659 204.449 112.24H197.136C197.075 110.951 197.162 109.674 197.397 108.409C199.059 103.929 200.713 99.4589 202.36 95H208.455V109.105ZM204.276 98.6572C203.218 102.123 202.23 105.606 201.315 109.105H204.45C204.508 105.592 204.45 102.11 204.276 98.6572Z" fill="#EF222C"/>
</svg>
