<svg width="250" height="250" viewBox="0 0 250 250" fill="none" xmlns="http://www.w3.org/2000/svg">
<rect width="250" height="250" fill="#70406D"/>
<path fill-rule="evenodd" clip-rule="evenodd" d="M204 105.115V172.022C204 191.992 187.685 208.307 167.715 208.307H82.2975C63.3754 208.307 47.4843 193.551 46.1123 174.679C46.0873 174.243 46.0499 173.793 46.0374 173.357L46 172.521V172.459L46.0125 172.047V171.76C46 171.548 46 171.336 46.0125 171.124V145.679L46 78.2725C46 58.3151 62.3276 42 82.285 42H167.703C183.656 42 197.813 52.5525 202.428 67.8074C203.227 70.4268 203.738 73.146 203.9 75.8776V76.0273C203.925 76.2518 203.95 76.4764 203.95 76.7133V76.9004L203.963 77.0377C203.975 77.2622 203.975 77.4867 203.975 77.7237V78.0605L203.913 103.169V103.232C203.925 103.444 203.938 103.668 203.938 103.893V104.08L203.95 104.217C203.963 104.442 203.963 104.666 203.963 104.903V105.128H203.975L204 105.115Z" fill="white"/>
<path fill-rule="evenodd" clip-rule="evenodd" d="M100.508 135.737H167.801C184.441 135.949 197.887 121.867 198.012 105.427V104.953C197.999 104.766 197.999 104.591 197.999 104.404V104.267L197.987 104.117C197.987 103.93 197.974 103.756 197.962 103.581V103.319L198.024 78.0604V77.7736C198.012 77.5865 198.012 77.4118 198.012 77.2247V77.075L197.999 76.9378C197.999 76.7507 197.987 76.5761 197.974 76.389V76.2393C197.825 73.9692 197.401 71.699 196.752 69.5162C192.91 56.7934 181.073 47.9498 167.751 47.9498H82.3339C65.682 47.9498 52.0361 61.5956 52.0361 78.2475V152.09C58.5472 142.236 69.7234 135.712 82.3339 135.712H100.545L100.508 135.737Z" fill="#E63641"/>
<path fill-rule="evenodd" clip-rule="evenodd" d="M100.508 202.308H167.714C184.379 202.308 198.012 188.674 198.012 172.01V125.247C191.501 135.226 180.325 141.899 167.727 141.724H82.2968C65.7571 141.724 52.1612 155.196 51.999 171.723V171.997C51.999 172.222 52.0115 172.446 52.0115 172.696V173.107L52.024 173.132C52.024 173.494 52.0489 173.856 52.0863 174.23C53.2214 189.984 66.4931 202.308 82.2968 202.308H100.508Z" fill="#0A4D90"/>
<path fill-rule="evenodd" clip-rule="evenodd" d="M115.015 71.986C114.467 71.9984 113.98 72.0608 113.544 72.1481C112.97 72.2729 112.458 72.4724 112.009 72.7344C111.573 73.0088 111.161 73.3705 110.787 73.8071C110.513 74.1314 110.276 74.4682 110.076 74.8299C109.876 75.1791 109.727 75.5783 109.589 76.0273C109.477 76.4639 109.39 76.9753 109.328 77.5491C109.265 78.1104 109.24 78.759 109.24 79.4949C109.24 80.8046 109.328 81.9148 109.515 82.8503C109.714 83.7858 110.001 84.5591 110.413 85.1953C110.712 85.6318 111.036 86.006 111.398 86.243C111.747 86.5174 112.109 86.692 112.496 86.8168C112.895 86.9415 113.282 87.0288 113.693 87.0538C114.105 87.0787 114.504 87.1037 114.903 87.1037H119.73C119.68 87.3032 119.618 87.5153 119.493 87.6899C119.381 87.8895 119.231 88.0516 119.082 88.1639C118.882 88.3011 118.67 88.4134 118.433 88.4633C118.196 88.5132 117.947 88.5381 117.697 88.5506C117.46 88.5631 117.236 88.5631 117.024 88.5631H110.3V92.2053H118.757C119.93 92.2177 120.965 92.0681 121.888 91.7562C122.799 91.4569 123.547 90.933 124.121 90.222C124.445 89.8104 124.695 89.3738 124.857 88.8749C125.044 88.3884 125.156 87.8645 125.219 87.2658C125.293 86.6921 125.331 86.0684 125.318 85.3948V74.9297C125.331 74.7052 125.293 74.4557 125.268 74.1938C125.219 73.9193 125.131 73.6574 125.019 73.383C124.882 73.1086 124.695 72.8591 124.445 72.6471C124.208 72.435 123.921 72.2853 123.622 72.198C123.335 72.0858 123.023 72.0359 122.711 71.9984C122.387 71.9735 122.088 71.9485 121.776 71.961H115.577C115.377 71.961 115.19 71.961 115.003 71.961L115.015 71.986ZM117.398 76.0398C117.535 76.0398 117.66 76.0398 117.797 76.0398H118.433C118.57 76.0273 118.72 76.0398 118.87 76.0772C119.019 76.1022 119.157 76.1645 119.319 76.2768C119.506 76.4015 119.606 76.5263 119.668 76.7009C119.73 76.8506 119.743 77.0377 119.743 77.2497V83.0623H118.159C117.884 83.0623 117.597 83.0623 117.298 83.0498C116.999 83.0374 116.687 82.975 116.4 82.8503C116.101 82.7629 115.839 82.5634 115.589 82.289C115.377 82.0769 115.227 81.7401 115.115 81.3285C115.003 80.9044 114.953 80.3556 114.953 79.6945C114.966 79.0833 114.99 78.5968 115.065 78.2226C115.128 77.8484 115.202 77.5491 115.29 77.337C115.377 77.125 115.464 76.9753 115.564 76.8631C115.764 76.6011 115.988 76.4265 116.225 76.3017C116.462 76.1895 116.724 76.1146 116.999 76.0772C117.136 76.0648 117.273 76.0523 117.398 76.0398Z" fill="white"/>
<path d="M133.738 67.1338H128.162V87.0912H133.738V67.1338Z" fill="white"/>
<path d="M142.158 67.1338H136.582V70.4642H142.158V67.1338Z" fill="white"/>
<path d="M142.144 71.986H136.568V87.0912H142.144V71.986Z" fill="white"/>
<path fill-rule="evenodd" clip-rule="evenodd" d="M145.675 87.0911H156.477C156.738 87.0911 157.013 87.0787 157.275 87.0413C157.562 87.0163 157.836 86.929 158.123 86.8292C158.41 86.7419 158.684 86.5673 158.959 86.3802C159.296 86.0933 159.545 85.769 159.732 85.4197C159.919 85.058 160.031 84.6963 160.106 84.2971C160.169 83.898 160.219 83.5238 160.194 83.1496C160.206 82.9375 160.194 82.6631 160.144 82.3513C160.131 82.0145 160.056 81.6902 159.944 81.316C159.819 80.9543 159.657 80.605 159.433 80.2558C159.196 79.9065 158.896 79.6071 158.547 79.3701C158.21 79.1332 157.836 78.9211 157.4 78.734C156.963 78.5469 156.477 78.3723 155.94 78.1852L152.123 76.9129C151.974 76.8505 151.849 76.8006 151.774 76.7757C151.699 76.7507 151.624 76.7133 151.562 76.7008C151.512 76.6759 151.437 76.6385 151.362 76.6135C151.275 76.5886 151.15 76.5387 150.988 76.4888C150.901 76.4639 150.839 76.4264 150.764 76.3641C150.714 76.3391 150.676 76.2393 150.676 76.1395C150.676 76.0522 150.701 75.9774 150.764 75.94C150.814 75.915 150.876 75.8901 150.926 75.8776C151.051 75.8527 151.15 75.8527 151.275 75.8527H159.794V71.9859H149.716C149.18 71.9734 148.718 72.0109 148.282 72.0982C147.857 72.1605 147.458 72.3102 147.134 72.5098C146.785 72.7218 146.485 73.0212 146.211 73.4204C145.949 73.8195 145.774 74.2561 145.65 74.7051C145.562 75.1791 145.5 75.6406 145.5 76.1146C145.5 76.3765 145.525 76.651 145.562 76.9503C145.587 77.2497 145.65 77.5615 145.749 77.8484C145.824 78.1478 145.949 78.4097 146.086 78.6716C146.286 78.971 146.523 79.2454 146.847 79.5074C147.146 79.7443 147.508 79.9564 147.907 80.1435C148.307 80.3431 148.743 80.5052 149.192 80.6549L152.435 81.7151C152.834 81.8399 153.146 81.9397 153.371 82.0145C153.595 82.0893 153.77 82.1392 153.87 82.1767C153.994 82.2265 154.082 82.264 154.144 82.3014C154.206 82.3388 154.269 82.3638 154.306 82.4261C154.369 82.476 154.393 82.5509 154.393 82.6506C154.393 82.713 154.381 82.7754 154.344 82.8128C154.331 82.8627 154.281 82.9001 154.231 82.9251C154.181 82.95 154.144 82.9874 154.069 83.0124C154.007 83.0248 153.944 83.0373 153.907 83.0373H145.675V87.0911Z" fill="white"/>
<path fill-rule="evenodd" clip-rule="evenodd" d="M162.688 87.0911H168.289V75.915H170.048C170.31 75.915 170.584 75.9275 170.834 75.9774C171.108 76.0273 171.37 76.1146 171.619 76.2393C171.881 76.3765 172.131 76.5636 172.368 76.8006C172.63 77.0875 172.817 77.3744 172.929 77.6862C173.066 78.0105 173.141 78.3099 173.166 78.5968C173.191 78.8962 173.216 79.1581 173.216 79.3951V87.1036H178.792V77.2497C178.792 76.7507 178.717 76.2518 178.567 75.7529C178.417 75.2415 178.193 74.7675 177.881 74.3184C177.557 73.8694 177.183 73.4702 176.709 73.121C176.172 72.7468 175.636 72.4724 175.062 72.3227C174.501 72.1605 173.927 72.0608 173.353 72.0483C172.779 72.0233 172.181 71.9984 171.619 72.0233H168.289V67.1712H162.688V87.1286V87.0911Z" fill="white"/>
<path fill-rule="evenodd" clip-rule="evenodd" d="M89.0208 87.0911V82.239H79.2666C79.0545 82.2515 78.8425 82.239 78.618 82.2265C78.3935 82.2016 78.1939 82.1143 78.0442 81.9895C77.9694 81.9396 77.907 81.8523 77.8446 81.7276C77.7823 81.6028 77.7573 81.4532 77.7573 81.2536V79.0832H88.6466V74.7425H77.7573V73.2207C77.7573 73.1334 77.7573 73.0336 77.7698 72.9214C77.7698 72.7967 77.7947 72.6969 77.8446 72.5721C77.8945 72.4474 77.9694 72.3476 78.0692 72.2478C78.1939 72.1605 78.3311 72.0857 78.5057 72.0358C78.6928 71.9859 78.8674 71.9734 79.067 71.9734H88.921V67.1213H74.5766C74.3396 67.1213 74.0902 67.1337 73.8033 67.1836C73.5289 67.2086 73.242 67.2959 72.9551 67.4082C72.6807 67.5329 72.4062 67.6951 72.1693 67.9196C71.9323 68.1441 71.7327 68.3936 71.608 68.6306C71.4832 68.8925 71.4084 69.142 71.371 69.4039C71.3211 69.6783 71.3086 69.9403 71.3086 70.1897V83.873C71.3086 84.1973 71.3211 84.4967 71.3335 84.7835C71.3585 85.058 71.4583 85.3449 71.5705 85.6068C71.7077 85.8812 71.9198 86.1431 72.2067 86.3926C72.4686 86.5922 72.743 86.7419 72.9925 86.8417C73.2669 86.929 73.5413 86.9913 73.8157 87.0288C74.0901 87.0537 74.3646 87.0786 74.639 87.0786H89.0083L89.0208 87.0911Z" fill="white"/>
<path fill-rule="evenodd" clip-rule="evenodd" d="M106.783 87.0912V78.8588C106.783 78.0854 106.733 77.3744 106.634 76.6759C106.521 75.9899 106.334 75.3537 106.06 74.78C105.785 74.2062 105.399 73.7073 104.875 73.2582C104.613 73.0462 104.301 72.8341 103.902 72.6346C103.528 72.435 103.054 72.2853 102.517 72.1606C101.969 72.0358 101.345 71.9735 100.634 71.9735H94.946C94.734 71.961 94.472 71.9735 94.1976 71.9984C93.9107 72.0234 93.6238 72.0857 93.312 72.198C93.0251 72.2853 92.7382 72.435 92.4763 72.647C92.2019 72.8715 92.0023 73.121 91.8651 73.3705C91.7279 73.6449 91.6406 73.9068 91.5907 74.1937C91.5408 74.4681 91.5283 74.755 91.5283 75.0419V87.0662H97.054V76.0273H98.0644C98.1517 76.0148 98.2639 76.0148 98.3637 76.0148H98.4261C98.5383 76.0148 98.6381 76.0148 98.7629 76.0273H99.1371C100.285 76.0273 101.233 76.9628 101.233 78.1228V87.0662H106.758L106.783 87.0912Z" fill="white"/>
<path fill-rule="evenodd" clip-rule="evenodd" d="M133.388 115.53V110.566H127.85C127.313 110.566 126.802 110.566 126.315 110.541C125.829 110.529 125.355 110.466 124.956 110.379C124.532 110.292 124.158 110.117 123.833 109.905C123.496 109.693 123.222 109.393 123.01 109.007C122.948 108.882 122.873 108.72 122.81 108.495C122.736 108.258 122.661 107.922 122.598 107.46C122.548 107.024 122.524 106.425 122.524 105.701C122.524 105.439 122.524 105.165 122.536 104.866C122.548 104.566 122.586 104.23 122.623 103.905C122.673 103.568 122.748 103.257 122.835 102.945C122.91 102.62 123.035 102.334 123.172 102.097C123.397 101.697 123.659 101.386 123.958 101.174C124.257 100.962 124.607 100.799 124.993 100.7C125.367 100.612 125.792 100.562 126.253 100.55C126.702 100.525 127.214 100.525 127.737 100.525H133.064V95.5605H124.632C124.07 95.5605 123.459 95.5855 122.848 95.6354C122.224 95.6978 121.601 95.8225 120.977 95.9846C120.353 96.1468 119.767 96.4212 119.193 96.7705C118.632 97.1072 118.12 97.5688 117.646 98.155C117.172 98.7662 116.823 99.4398 116.574 100.201C116.312 100.962 116.15 101.81 116.062 102.733C115.95 103.656 115.913 104.691 115.925 105.801C115.925 106.762 115.95 107.61 116.05 108.333C116.125 109.082 116.237 109.743 116.387 110.317C116.536 110.878 116.736 111.389 116.96 111.838C117.185 112.287 117.447 112.699 117.746 113.061C118.283 113.722 118.881 114.246 119.53 114.607C120.191 114.957 120.939 115.194 121.775 115.331C122.598 115.456 123.521 115.518 124.544 115.518H133.388V115.53Z" fill="white"/>
<path d="M141.795 95.573H136.22V115.53H141.795V95.573Z" fill="white"/>
<path fill-rule="evenodd" clip-rule="evenodd" d="M144.628 100.425V108.658C144.628 109.418 144.678 110.142 144.778 110.828C144.877 111.526 145.077 112.163 145.351 112.736C145.626 113.31 146.012 113.809 146.536 114.233C146.798 114.458 147.11 114.67 147.509 114.857C147.883 115.056 148.357 115.219 148.894 115.343C149.443 115.468 150.066 115.53 150.777 115.53H156.465C156.677 115.53 156.939 115.518 157.214 115.505C157.5 115.481 157.787 115.418 158.099 115.306C158.386 115.194 158.673 115.044 158.935 114.857C159.209 114.632 159.409 114.383 159.546 114.108C159.683 113.847 159.771 113.597 159.82 113.31C159.87 113.036 159.883 112.749 159.883 112.462V100.438H154.357V111.477H153.347C153.259 111.489 153.147 111.489 153.047 111.489H152.985C152.873 111.489 152.773 111.489 152.648 111.477H152.274C151.127 111.477 150.179 110.541 150.179 109.381V100.438H144.653L144.628 100.425Z" fill="white"/>
<path fill-rule="evenodd" clip-rule="evenodd" d="M162.725 95.573V112.799C162.725 113.148 162.775 113.485 162.862 113.784C162.975 114.084 163.124 114.37 163.374 114.645C163.636 114.907 163.898 115.094 164.185 115.219C164.459 115.356 164.733 115.431 165.02 115.468C165.295 115.493 165.569 115.518 165.806 115.518H172.442C172.816 115.518 173.253 115.505 173.714 115.443C174.188 115.393 174.675 115.268 175.149 115.106C175.648 114.944 176.122 114.682 176.571 114.345C177.02 114.009 177.419 113.572 177.768 113.011C177.968 112.662 178.142 112.25 178.292 111.788C178.442 111.314 178.554 110.753 178.641 110.129C178.716 109.493 178.766 108.757 178.766 107.922C178.766 107.41 178.741 106.861 178.704 106.275C178.679 105.701 178.579 105.103 178.429 104.516C178.279 103.943 178.042 103.381 177.731 102.845C177.369 102.271 176.957 101.81 176.521 101.473C176.072 101.136 175.585 100.899 175.111 100.749C174.612 100.6 174.138 100.488 173.664 100.45C173.19 100.425 172.754 100.388 172.355 100.4H168.301V95.5481H162.7L162.725 95.573ZM168.326 104.354H170.858C171.007 104.354 171.207 104.354 171.432 104.417C171.656 104.467 171.893 104.591 172.118 104.753C172.342 104.916 172.542 105.178 172.704 105.527C172.754 105.614 172.791 105.751 172.854 105.926C172.916 106.126 172.966 106.375 173.016 106.699C173.066 107.024 173.091 107.41 173.091 107.884C173.091 108.383 173.066 108.807 173.016 109.144C172.991 109.481 172.916 109.755 172.854 109.967C172.791 110.179 172.729 110.342 172.666 110.454C172.579 110.666 172.442 110.84 172.267 111.003C172.118 111.152 171.906 111.277 171.656 111.364C171.394 111.439 171.095 111.489 170.721 111.489H169.585C169.448 111.489 169.286 111.489 169.099 111.452C168.912 111.427 168.737 111.352 168.575 111.227C168.488 111.14 168.425 111.015 168.376 110.878C168.351 110.728 168.313 110.591 168.301 110.454V104.354H168.326Z" fill="white"/>
<path d="M154.07 158.401H120.441V165.623H130.819V187.439H140.187V165.623H146.997L154.119 183.074C154.381 183.71 154.681 184.321 155.043 184.882C155.404 185.444 155.878 185.943 156.427 186.367C156.988 186.803 157.674 187.14 158.473 187.377C159.296 187.639 160.256 187.751 161.416 187.751C162.576 187.751 163.537 187.626 164.36 187.377C165.183 187.14 165.844 186.803 166.406 186.367C166.967 185.943 167.416 185.444 167.79 184.882C168.164 184.321 168.476 183.71 168.726 183.074L178.792 158.401H168.751L161.953 178.097C161.865 178.334 161.766 178.508 161.666 178.596C161.554 178.683 161.479 178.733 161.404 178.72C161.342 178.733 161.254 178.696 161.142 178.596C161.03 178.508 160.942 178.334 160.868 178.097L154.057 158.401H154.07Z" fill="white"/>
</svg>
