<svg width="500" height="500" viewBox="0 0 500 500" fill="none" xmlns="http://www.w3.org/2000/svg">
<g clip-path="url(#clip0_9_764)">
<rect width="500" height="500" fill="white"/>
<rect width="500" height="500" fill="#D60E47"/>
<g clip-path="url(#clip1_9_764)">
<path d="M335.7 178.369C338.272 176.238 340.57 174.739 341.753 174.678C348.815 174.325 345.271 185.056 354.985 184.573C360.627 184.289 362.902 179.965 363 174.828V144.993C362.902 142.999 362.25 141.56 361.26 140.519C360.152 139.583 358.653 139.018 356.616 139L324.626 139.053C319.322 139.018 315.059 141.578 315.013 147.112C314.938 156.627 325.745 152.699 325.68 159.619C325.673 160.74 324.328 162.956 322.362 165.471C302.757 149.46 277.528 139.812 250.006 139.812C187.597 139.812 137 189.328 137 250.412C137 311.492 187.597 361 250.006 361C312.415 361 363 311.492 363 250.412C363 222.878 352.702 197.722 335.7 178.368" fill="white"/>
<path d="M220.419 228.629V236.625H188.926V193.561H220.042V201.556H197.665V210.728H215.323V218.23H197.665V228.629H220.419Z" fill="#D60E47"/>
<path d="M238.649 214.293H246.439C251.283 214.293 253.546 211.222 253.546 207.956C253.546 204.576 251.218 201.556 246.439 201.556H238.649V214.293ZM254.556 236.625L245.817 221.92H238.649V236.625H229.907V193.561H245.312C256.126 193.561 262.601 199.278 262.601 207.956C262.601 213.862 259.644 218.167 254.303 220.32L264.36 236.625H254.556Z" fill="#D60E47"/>
<path d="M290.007 229.061C298.116 229.061 303.781 223.339 303.781 215.097C303.781 206.791 298.116 201.125 290.007 201.125C281.965 201.125 276.3 206.791 276.3 215.097C276.3 223.339 281.965 229.061 290.007 229.061ZM290.007 192.694C302.644 192.694 312.889 202.113 312.889 215.097C312.889 228.073 302.644 237.488 290.007 237.488C277.374 237.488 267.193 228.073 267.193 215.097C267.193 202.113 277.374 192.694 290.007 192.694Z" fill="#D60E47"/>
<path d="M208.034 278.643C207.974 278.643 205.582 282.643 204.825 283.752L197.789 293.532H187.356L202.75 271.44L188.23 250.46H198.727L205.518 260.373C206.151 261.35 207.974 264.557 208.034 264.557H208.098C208.162 264.557 209.921 261.35 210.55 260.373L217.342 250.46H227.903L213.323 271.44L228.717 293.532H218.28L211.236 283.752C210.49 282.643 208.162 278.643 208.098 278.643H208.034Z" fill="#D60E47"/>
<path d="M250.906 278.643C250.846 278.643 248.454 282.643 247.704 283.752L240.661 293.532H230.227L245.621 271.44L231.101 250.46H241.599L248.39 260.373C249.023 261.35 250.846 264.557 250.906 264.557H250.97C251.034 264.557 252.793 261.35 253.426 260.373L260.213 250.46H270.775L256.194 271.44L271.588 293.532H261.151L254.119 283.752C253.362 282.643 251.034 278.643 250.97 278.643H250.906Z" fill="#D60E47"/>
<path d="M293.781 278.643C293.717 278.643 291.325 282.643 290.58 283.752L283.536 293.532H273.099L288.497 271.44L273.976 250.46H284.474L291.265 260.373C291.894 261.35 293.717 264.557 293.781 264.557H293.841C293.905 264.557 295.664 261.35 296.297 260.373L303.088 250.46H313.65L299.066 271.44L314.46 293.532H304.026L296.99 283.752C296.233 282.643 293.905 278.643 293.841 278.643H293.781Z" fill="#D60E47"/>
<path d="M248.1 332.107H240.039V322.865H233.165V332.107H225.105V306.129H233.165V315.334H240.039V306.129H248.1V332.107Z" fill="#D60E47"/>
<path d="M259.347 324.586H263.027C265.614 324.586 268.409 322.909 268.409 319.223C268.409 315.558 265.697 313.653 263.027 313.653H259.347V324.586ZM263.027 332.107H251.283V306.132H263.027C270.827 306.132 276.718 311.754 276.718 319.223C276.718 326.688 270.952 332.107 263.027 332.107Z" fill="#D60E47"/>
</g>
</g>
<defs>
<clipPath id="clip0_9_764">
<rect width="500" height="500" fill="white"/>
</clipPath>
<clipPath id="clip1_9_764">
<rect width="226" height="222" fill="white" transform="translate(137 139)"/>
</clipPath>
</defs>
</svg>
