<svg width="500" height="500" viewBox="0 0 500 500" fill="none" xmlns="http://www.w3.org/2000/svg">
<g clip-path="url(#clip0_9_763)">
<rect width="500" height="500" fill="white"/>
<rect width="500" height="500" fill="#D60E47"/>
<g clip-path="url(#clip1_9_763)">
<path d="M334.183 177.545C336.71 175.408 338.967 173.9 340.129 173.838C347.066 173.483 343.584 184.266 353.127 183.777C358.669 183.492 360.904 179.148 361 173.989V144.02C360.904 142.016 360.264 140.571 359.291 139.525C358.203 138.585 356.73 138.017 354.729 138L323.305 138.053C318.096 138.017 313.907 140.589 313.863 146.148C313.789 155.706 324.404 151.761 324.341 158.712C324.334 159.838 323.013 162.064 321.081 164.591C301.823 148.507 277.041 138.816 250.006 138.816C188.701 138.816 139 188.558 139 249.913C139 311.268 188.701 361 250.006 361C311.31 361 361 311.268 361 249.913C361 222.259 350.884 196.99 334.183 177.545" fill="white"/>
<path d="M201.625 259.137V267.173H170.689V223.91H201.251V231.946H179.266V241.155H196.619V248.695H179.266V259.137H201.625Z" fill="#D60E47"/>
<path d="M219.533 244.736H227.184C231.942 244.736 234.166 241.651 234.166 238.371C234.166 234.975 231.88 231.942 227.184 231.942H219.533V244.736ZM235.158 267.169L226.574 252.398H219.533V267.169H210.945V223.91H226.078C236.701 223.91 243.061 229.654 243.061 238.371C243.061 244.303 240.156 248.628 234.91 250.794L244.789 267.169H235.158Z" fill="#D60E47"/>
<path d="M269.981 259.57C277.947 259.57 283.508 253.827 283.508 245.543C283.508 237.201 277.947 231.509 269.981 231.509C262.078 231.509 256.517 237.201 256.517 245.543C256.517 253.827 262.078 259.57 269.981 259.57ZM269.981 223.04C282.395 223.04 292.458 232.501 292.458 245.543C292.458 258.578 282.395 268.039 269.981 268.039C257.572 268.039 247.567 258.578 247.567 245.543C247.567 232.501 257.572 223.04 269.981 223.04Z" fill="#D60E47"/>
<path d="M313.393 252.216C313.33 252.216 310.98 256.234 310.248 257.349L303.329 267.173H293.076L308.202 244.981L293.939 223.907H304.25L310.921 233.864C311.539 234.845 313.33 238.063 313.393 238.063H313.452C313.515 238.063 315.243 234.845 315.864 233.864L322.535 223.907H332.91L318.584 244.981L333.705 267.173H323.457L316.545 257.349C315.801 256.234 313.515 252.216 313.452 252.216H313.393Z" fill="#D60E47"/>
<path d="M247.245 305.754H239.328V296.471H232.575V305.754H224.654V279.659H232.575V288.909H239.328V279.659H247.245V305.754Z" fill="#D60E47"/>
<path d="M258.293 298.204H261.908C264.45 298.204 267.195 296.519 267.195 292.812C267.195 289.131 264.531 287.217 261.908 287.217H258.293V298.204ZM261.908 305.758H250.372V279.663H261.908C269.571 279.663 275.358 285.31 275.358 292.812C275.358 300.314 269.697 305.758 261.908 305.758Z" fill="#D60E47"/>
</g>
</g>
<defs>
<clipPath id="clip0_9_763">
<rect width="500" height="500" fill="white"/>
</clipPath>
<clipPath id="clip1_9_763">
<rect width="222" height="223" fill="white" transform="translate(139 138)"/>
</clipPath>
</defs>
</svg>
