<svg width="250" height="250" viewBox="0 0 250 250" fill="none" xmlns="http://www.w3.org/2000/svg">
<rect width="250" height="250" fill="url(#paint0_linear_312_50)"/>
<path d="M131.696 106.405L131.696 106.406C135.169 106.456 138.046 108.684 139.35 111.449C140.853 108.74 143.735 106.867 147.011 106.914H158.26C161.401 106.914 164.793 108.063 167.509 110.524C170.464 113.202 172.214 117.183 172.214 121.636V137.977C172.214 142.269 170.449 146.173 167.483 148.836C164.843 151.205 161.544 152.388 158.318 152.533C158.071 152.552 157.823 152.568 157.577 152.566H147.587C147.39 152.567 147.194 152.555 146.998 152.542C144.178 152.445 141.324 151.569 138.856 149.859C135.674 153.174 130.285 153.433 126.84 150.329L121.102 145.321C120.414 149.384 116.835 152.568 112.59 152.568C109.361 152.568 106.541 150.708 105.057 148.04C104.098 149.125 102.941 150.075 101.662 150.814C101.576 150.863 101.489 150.909 101.401 150.953C99.1467 152.072 96.7866 152.566 94.7027 152.566H78.3083C74.2476 152.623 70.7474 149.761 69.7976 145.966H69.2139C68.2637 149.761 64.7643 152.623 60.7037 152.566H49.4541C46.3133 152.566 42.9219 151.417 40.2052 148.955C37.2505 146.277 35.5 142.295 35.5 137.843V121.501C35.5001 117.21 37.2656 113.306 40.2319 110.643C42.8713 108.274 46.1708 107.091 49.3966 106.945C49.6437 106.926 49.8915 106.91 50.1375 106.913H60.1273C60.3243 106.912 60.5209 106.924 60.7171 106.937C64.0778 107.052 67.5259 108.198 70.2569 110.649C70.7841 111.122 71.2164 111.671 71.6584 112.212C71.8276 111.959 71.9762 111.598 72.1435 111.382C73.4529 109.686 76.5065 106.941 80.7615 106.92H80.7369C80.7524 106.919 80.753 106.92 80.7667 106.919C80.7811 106.919 80.7923 106.913 80.8067 106.913C80.834 106.913 80.8773 106.914 80.9095 106.914C80.9114 106.914 80.9191 106.914 80.9208 106.914C80.954 106.913 80.9872 106.913 81.0204 106.913H96.8918C100.353 106.864 103.39 108.947 104.806 111.908C106.185 109.025 109.091 106.965 112.459 106.914C116.391 106.855 119.761 109.546 120.843 113.151L125.64 108.757C127.275 107.218 129.45 106.372 131.696 106.405ZM131.627 111.108C130.602 111.093 129.611 111.478 128.864 112.181L116.535 123.472V115.617C116.567 113.393 114.754 111.582 112.53 111.616C110.352 111.649 108.613 113.439 108.643 115.617V143.86C108.612 146.062 110.387 147.863 112.589 147.863C114.791 147.863 116.567 146.062 116.535 143.86V135.092L129.987 146.833C131.624 148.308 134.152 148.156 135.602 146.496C137.05 144.836 136.859 142.31 135.176 140.887L121.879 129.281L134.195 118.001C136.882 115.607 135.226 111.16 131.627 111.108ZM50.0861 111.616C49.9461 111.614 49.8062 111.62 49.6668 111.633C47.4105 111.723 45.1715 112.53 43.3752 114.142C41.4675 115.855 40.2052 118.551 40.2052 121.5V137.842C40.2052 141.01 41.5029 143.781 43.3649 145.468C45.2268 147.155 47.3827 147.861 49.4562 147.861H60.7726C62.9736 147.893 64.7748 146.117 64.7749 143.916C64.7749 141.714 62.9736 139.939 60.7726 139.97H49.4562C49.4258 139.97 48.9288 139.86 48.664 139.62C48.3992 139.381 48.0968 139.114 48.0968 137.842V133.679H59.2344C61.605 133.605 63.4772 133.619 65.041 133.247C66.5621 132.884 67.7972 132.147 68.5614 131.311C69.8234 129.82 70.0943 128.688 70.11 126.974C70.1285 125.571 70.1757 124.976 70.1757 123.907C70.182 123.81 70.1848 123.713 70.1839 123.615V121.229C70.1839 118.484 69.0259 115.861 67.1177 114.148C65.2986 112.516 62.9329 111.703 60.5075 111.63C60.3893 111.62 60.2706 111.615 60.1519 111.616H50.0861ZM80.9526 111.618C80.9045 111.616 80.8564 111.616 80.8083 111.616C78.2813 111.616 76.8151 113.029 75.8683 114.255C74.9857 115.399 74.3433 116.567 74.2592 118.314C74.2475 118.442 74.242 118.57 74.2427 118.697V124.902C74.2413 125.082 74.2523 125.263 74.2756 125.442C74.3296 127.105 74.6708 128.597 75.4398 129.849C76.2821 131.221 77.5315 131.991 77.9717 132.259C78.3636 132.515 78.7979 132.699 79.2541 132.803C80.8395 133.491 82.5134 133.679 84.2038 133.679H93.389C95.7207 133.679 95.5097 135.384 95.5097 136.873C95.5097 138.954 95.0967 139.97 93.5531 139.97H78.2425C76.0415 139.939 74.2402 141.714 74.2402 143.916C74.2402 146.117 76.0415 147.893 78.2425 147.861H94.7037C96.2073 147.861 97.6115 147.583 99.3113 146.739C102.991 144.615 103.368 142.136 103.396 137.437C103.414 134.442 103.412 131.509 102.23 129.461C101.392 128.111 99.9316 127.034 98.4143 126.496C96.976 125.985 95.4524 125.812 93.6741 125.795C93.5789 125.789 93.4837 125.787 93.3884 125.788H84.2033C82.5192 125.788 82.1393 125.406 82.1338 124.51V120.202C82.1338 119.792 82.5557 119.507 82.85 119.507H96.9602C99.1614 119.538 100.962 117.763 100.962 115.561C100.962 113.36 99.1614 111.585 96.9602 111.616H81.0215C80.9986 111.616 80.9755 111.617 80.9526 111.618ZM146.945 111.616C144.744 111.584 142.943 113.36 142.943 115.561C142.943 117.763 144.745 119.538 146.945 119.507H158.262C158.293 119.507 158.79 119.617 159.054 119.857C159.319 120.096 159.621 120.364 159.621 121.635V125.798H148.484C146.113 125.872 144.241 125.858 142.677 126.23C141.156 126.593 139.922 127.33 139.158 128.166C137.895 129.657 137.624 130.79 137.608 132.504C137.59 133.907 137.542 134.5 137.542 135.57C137.536 135.667 137.533 135.764 137.534 135.862V138.248C137.534 140.993 138.692 143.616 140.601 145.329C142.419 146.961 144.785 147.774 147.21 147.847C147.328 147.857 147.447 147.862 147.566 147.861H157.632C157.772 147.863 157.912 147.857 158.051 147.844C160.308 147.754 162.547 146.947 164.343 145.335C166.25 143.622 167.513 140.926 167.513 137.976V121.635C167.513 118.467 166.215 115.696 164.353 114.009C162.491 112.322 160.335 111.616 158.262 111.616H146.945ZM159.623 137.976C159.623 138.9 159.394 139.173 159.072 139.462C158.75 139.751 158.188 139.97 157.633 139.97H147.567C146.684 139.97 146.149 139.703 145.873 139.455C145.674 139.277 145.534 139.111 145.469 138.758V133.691C145.483 133.691 145.494 133.689 145.509 133.689H159.623V137.976ZM142.46 130.581C142.384 130.648 142.167 130.88 141.894 131.227L141.877 131.214C141.905 131.177 141.928 131.148 141.953 131.116C142.003 131.054 142.055 130.993 142.11 130.933C142.216 130.813 142.333 130.696 142.46 130.581ZM190.441 97.4328C191.607 97.436 192.769 97.7847 193.745 98.4224L193.749 98.4244C193.755 98.4278 193.76 98.4313 193.765 98.4347C193.814 98.4668 193.861 98.5008 193.909 98.5344C195.072 99.3285 195.941 100.541 196.326 101.894L199.167 108.916L202.926 100.983C203.908 98.8299 206.247 97.3708 208.613 97.4354H208.614C210.636 97.4912 212.596 98.6339 213.641 100.365C214.687 102.097 214.785 104.363 213.893 106.178L204.44 126.128C203.777 127.932 202.214 129.385 200.36 129.898L200.356 129.899C200.264 129.925 200.172 129.948 200.078 129.969C200.031 129.98 199.982 129.991 199.934 130.001C199.932 130.001 199.93 130.002 199.929 130.002C196.964 130.612 193.717 128.609 192.871 125.719L188.647 115.276V124.014L188.646 123.969C188.691 127.174 185.785 130.124 182.579 130.124C179.373 130.124 176.466 127.175 176.511 123.969L176.51 124.014V109.609H174.712L174.757 109.608C171.551 109.653 168.602 106.746 168.602 103.54C168.602 100.334 171.551 97.4271 174.757 97.4724L174.712 97.4714H189.958C190.109 97.459 190.258 97.4335 190.408 97.4323C190.419 97.4323 190.43 97.4328 190.441 97.4328ZM190.43 100.607C190.279 100.609 190.127 100.622 189.978 100.646H174.709C174.325 100.641 173.944 100.712 173.589 100.855C173.232 100.997 172.908 101.21 172.635 101.479C172.362 101.748 172.145 102.069 171.997 102.423C171.849 102.776 171.772 103.156 171.772 103.54C171.772 103.924 171.849 104.304 171.997 104.658C172.145 105.011 172.362 105.332 172.635 105.601C172.908 105.871 173.232 106.083 173.589 106.226C173.944 106.368 174.325 106.439 174.709 106.434H179.682V124.014C179.677 124.398 179.747 124.779 179.89 125.135C180.033 125.491 180.245 125.815 180.515 126.088C180.784 126.361 181.104 126.578 181.459 126.726C181.812 126.874 182.192 126.951 182.576 126.951C182.96 126.951 183.339 126.874 183.693 126.726C184.046 126.578 184.368 126.361 184.637 126.088C184.906 125.815 185.119 125.491 185.261 125.135C185.404 124.778 185.475 124.398 185.47 124.014V106.434H188.493L195.884 124.706C196.053 125.442 196.504 126.083 197.14 126.492C197.776 126.901 198.546 127.044 199.287 126.892C199.316 126.886 199.345 126.88 199.374 126.873C199.419 126.862 199.464 126.851 199.509 126.839C199.975 126.71 200.401 126.466 200.749 126.131C201.096 125.795 201.354 125.378 201.499 124.917L211.041 104.778C211.255 104.343 211.356 103.861 211.335 103.377C211.314 102.892 211.171 102.421 210.921 102.006C210.67 101.591 210.319 101.246 209.9 101.002C209.482 100.758 209.008 100.623 208.524 100.609C207.955 100.594 207.396 100.746 206.913 101.047C206.431 101.347 206.048 101.784 205.812 102.301L198.934 116.815L193.306 102.899C193.143 102.188 192.718 101.565 192.116 101.154C192.082 101.129 192.047 101.105 192.012 101.082C192.011 101.081 192.009 101.081 192.007 101.08C191.539 100.773 190.991 100.609 190.431 100.607H190.43ZM60.1499 119.507C61.0333 119.507 61.5678 119.774 61.8443 120.022C62.1208 120.27 62.2903 120.481 62.2903 121.229V123.626C62.2937 124.944 62.1419 125.322 62.1017 125.4C62.0214 125.426 61.2638 125.788 59.2323 125.788H48.0947V121.501C48.0947 120.577 48.3235 120.304 48.6454 120.015C48.9674 119.726 49.5285 119.507 50.084 119.507H60.1499ZM69.5669 118.034C69.5659 118.053 69.5595 118.069 69.5587 118.088L69.573 117.885C69.5685 117.934 69.5705 117.984 69.5669 118.034Z" fill="white"/>
<defs>
<linearGradient id="paint0_linear_312_50" x1="163.663" y1="-48.5872" x2="163.663" y2="250" gradientUnits="userSpaceOnUse">
<stop stop-color="#0065B2"/>
<stop offset="1" stop-color="#17428A"/>
</linearGradient>
</defs>
</svg>
