<svg width="250" height="250" viewBox="0 0 250 250" fill="none" xmlns="http://www.w3.org/2000/svg">
<rect width="250" height="250" fill="#039982"/>
<path d="M88.9812 119.121C88.1312 118.412 87.2458 117.917 86.3604 117.669C85.4749 117.421 84.625 117.315 83.775 117.315C83.2791 117.315 82.7833 117.385 82.2875 117.527C81.7916 117.669 81.3312 117.917 80.9416 118.235C80.5166 118.554 80.1979 118.979 79.95 119.475C79.702 119.971 79.5604 120.608 79.5604 121.387V128.719C79.5604 129.462 79.702 130.1 79.95 130.631C80.1979 131.127 80.552 131.552 80.9416 131.871C81.3666 132.19 81.827 132.402 82.3229 132.579C82.8187 132.721 83.3145 132.792 83.8104 132.792C84.6249 132.792 85.4395 132.685 86.2895 132.437C87.1395 132.19 88.0604 131.729 88.9812 130.985L91.8145 135.66C90.752 136.546 89.5125 137.183 88.0958 137.608C86.6791 138.069 85.1916 138.281 83.7041 138.281C82.5 138.281 81.2958 138.104 80.0916 137.785C78.8874 137.467 77.7895 136.971 76.8333 136.298C75.877 135.625 75.0979 134.775 74.4958 133.712C73.8937 132.685 73.575 131.446 73.575 129.994V120.219C73.575 118.802 73.8583 117.562 74.4604 116.5C75.027 115.473 75.8062 114.587 76.7625 113.915C77.7187 113.242 78.7812 112.71 79.9854 112.392C81.1895 112.037 82.3937 111.896 83.5979 111.896C85.1208 111.896 86.6083 112.108 88.0958 112.533C89.5479 112.958 90.8229 113.631 91.8499 114.517L88.9812 119.121Z" fill="white"/>
<path d="M110.125 137.963V117.492H101.873V137.963H95.8875V112.108H116.146V137.963H110.125Z" fill="white"/>
<path d="M132.65 112.108C134.102 112.108 135.342 112.356 136.369 112.817C137.396 113.277 138.246 113.879 138.883 114.694C139.521 115.473 140.017 116.358 140.335 117.315C140.654 118.271 140.796 119.298 140.796 120.36C140.796 121.388 140.619 122.415 140.265 123.406C139.91 124.363 139.344 125.283 138.635 126.027C137.927 126.771 137.042 127.444 136.015 127.904C134.987 128.365 133.819 128.613 132.473 128.613H127.302V138.033H121.317V112.179L132.65 112.108ZM127.302 123.265H131.694C132.827 123.265 133.642 122.981 134.102 122.415C134.598 121.848 134.81 121.14 134.81 120.36C134.81 119.546 134.562 118.873 134.102 118.306C133.642 117.74 132.827 117.456 131.658 117.456H127.267L127.302 123.265Z" fill="white"/>
<path d="M144.975 112.108H163.038V117.421H150.961V122.308H161.302V127.55H150.961V132.65H163.038V137.963H144.975V112.108Z" fill="white"/>
<path d="M182.694 119.121C181.844 118.412 180.958 117.917 180.073 117.669C179.187 117.421 178.337 117.315 177.487 117.315C176.992 117.315 176.496 117.385 176 117.527C175.504 117.669 175.044 117.917 174.654 118.235C174.229 118.554 173.91 118.979 173.662 119.475C173.414 119.971 173.273 120.608 173.273 121.387V128.719C173.273 129.462 173.414 130.1 173.662 130.631C173.91 131.127 174.264 131.552 174.654 131.871C175.079 132.19 175.539 132.402 176.035 132.579C176.531 132.721 177.027 132.792 177.523 132.792C178.337 132.792 179.152 132.685 180.002 132.437C180.852 132.19 181.773 131.729 182.694 130.985L185.527 135.66C184.464 136.546 183.225 137.183 181.808 137.608C180.392 138.069 178.904 138.281 177.417 138.281C176.212 138.281 175.008 138.104 173.804 137.785C172.6 137.467 171.502 136.971 170.546 136.298C169.589 135.625 168.81 134.775 168.208 133.712C167.606 132.685 167.287 131.446 167.287 129.994V120.219C167.287 118.802 167.571 117.562 168.173 116.5C168.739 115.473 169.519 114.587 170.475 113.915C171.431 113.242 172.494 112.71 173.698 112.392C174.902 112.073 176.106 111.896 177.31 111.896C178.833 111.896 180.321 112.108 181.808 112.533C183.26 112.958 184.535 113.631 185.562 114.517L182.694 119.121Z" fill="white"/>
<path d="M209.929 129.781C209.929 131.198 209.646 132.437 209.115 133.5C208.583 134.562 207.84 135.448 206.919 136.121C205.998 136.829 204.935 137.36 203.696 137.679C202.456 138.033 201.181 138.21 199.835 138.21C198.49 138.21 197.215 138.069 195.975 137.715C194.771 137.36 193.673 136.829 192.752 136.156C191.831 135.483 191.088 134.598 190.521 133.535C189.99 132.473 189.706 131.233 189.706 129.817V120.077C189.706 118.66 190.025 117.421 190.627 116.394C191.229 115.367 192.008 114.517 192.965 113.844C193.921 113.171 195.019 112.675 196.223 112.356C197.427 112.037 198.631 111.86 199.871 111.86C201.11 111.86 202.315 112.037 203.519 112.392C204.723 112.746 205.821 113.277 206.777 113.95C207.733 114.623 208.513 115.508 209.115 116.571C209.717 117.633 210 118.873 210 120.29L209.929 129.781ZM203.979 121.387C203.979 120.644 203.873 120.006 203.59 119.475C203.342 118.979 203.023 118.554 202.633 118.235C202.244 117.917 201.783 117.704 201.288 117.527C200.792 117.385 200.296 117.315 199.835 117.315C199.34 117.315 198.844 117.385 198.348 117.527C197.852 117.669 197.392 117.917 197.002 118.235C196.577 118.554 196.258 118.979 196.046 119.475C195.798 119.971 195.656 120.608 195.656 121.387V128.719C195.656 129.462 195.763 130.1 196.046 130.631C196.294 131.127 196.613 131.552 197.002 131.871C197.427 132.19 197.852 132.402 198.348 132.579C198.844 132.721 199.34 132.792 199.835 132.792C200.331 132.792 200.792 132.721 201.288 132.579C201.783 132.437 202.244 132.19 202.633 131.871C203.023 131.552 203.342 131.162 203.59 130.631C203.838 130.135 203.979 129.498 203.979 128.719V121.387Z" fill="white"/>
<path d="M68.4038 106.938V143.062H42.5854V106.938H68.4038ZM47.7563 137.963H63.2329V132.756H52.9272V127.586H63.269V122.45H47.7563V137.963ZM47.7563 112.108V117.279H63.2329V112.108H47.7563Z" fill="white"/>
<path d="M42.5854 117.279H40V122.45H42.5854V117.279Z" fill="#FF7A66"/>
<path d="M47.7563 117.279H42.5854V122.45H47.7563V117.279Z" fill="#E51F00"/>
<path d="M52.9269 117.279H47.7561V122.45H52.9269V117.279Z" fill="#BF1A00"/>
</svg>
