<svg width="250" height="250" viewBox="0 0 250 250" fill="none" xmlns="http://www.w3.org/2000/svg">
<g clip-path="url(#clip0_357_1966)">
<rect width="250" height="250" fill="url(#paint0_radial_357_1966)"/>
<path d="M65.2571 176.337V153.606C65.2639 151.845 65.0774 150.209 64.5094 148.745C63.985 147.384 63.2271 146.185 62.2577 145.182C61.3275 144.218 60.2312 143.468 58.9986 142.953C57.7361 142.425 56.3856 142.158 54.9849 142.158C53.5603 142.158 52.197 142.427 50.9339 142.958C49.6945 143.478 48.5913 144.233 47.6544 145.199C46.6817 146.2 45.918 147.401 45.3804 148.767C44.8018 150.241 44.4304 151.875 44.4282 153.622L44.4272 176.337H34.3901L34.3896 153.168C34.3991 150.176 35.0092 147.345 36.0581 144.754C37.0843 142.224 38.565 139.988 40.4592 138.106C42.3333 136.25 44.5391 134.805 47.0168 133.81C49.5042 132.815 52.1794 132.307 54.9697 132.303C57.7649 132.303 60.4413 132.807 62.9274 133.801C65.4169 134.797 67.622 136.244 69.4817 138.102C71.3733 139.985 72.8462 142.224 73.8588 144.756C74.8956 147.368 75.3157 150.204 75.3012 153.189V176.337H65.2571Z" fill="white"/>
<path d="M98.3596 177.487C86.2696 177.487 76.4392 167.353 76.4392 154.897C76.4392 142.438 86.2696 132.303 98.3596 132.303C110.445 132.303 120.277 142.438 120.277 154.897C120.277 156.049 120.192 157.206 120.022 158.345L119.97 158.686H85.7396L85.8859 159.15C87.6609 164.697 92.6756 168.426 98.3594 168.426C101.447 168.426 104.356 167.335 106.751 165.273C106.751 165.273 107.392 164.721 107.472 164.645H118.141L117.841 165.246C114.054 172.794 106.587 177.487 98.3596 177.487ZM98.3596 141.361C92.6756 141.361 87.6621 145.089 85.8862 150.641L85.7398 151.104H110.972L110.826 150.641C109.052 145.089 104.043 141.361 98.3596 141.361Z" fill="white"/>
<path d="M118.923 133.451V133.194H129.79C131.117 143.598 134.528 160.094 137.476 167.552C140.596 160.094 144.236 143.598 145.568 133.194H154.581C155.97 143.598 159.554 159.403 162.731 167.552C165.679 159.403 169.03 143.598 170.419 133.194H181.226V133.451C178.741 149.695 174.001 166.396 169.955 176.337H156.432C154.179 170.904 151.462 162.581 150.075 155.125C148.745 162.581 145.799 171.367 143.776 176.337H130.251C125.508 165.472 120.356 147.248 118.923 133.451Z" fill="white"/>
<path d="M180.694 174.443V166.203H181.147C183.592 166.944 188.878 167.967 192.686 167.967H194.905C198.425 167.967 201.098 166.887 201.098 163.306C201.098 160.637 198.767 159.559 196.209 158.875L189.559 157.114C184.672 155.865 180.694 152.454 180.694 145.123C180.694 136.489 187.799 132.908 196.435 132.908H198.654C201.323 132.908 206.667 133.591 209.109 134.5V142.682H208.655C206.438 142.056 201.097 141.375 198.652 141.375H196.663C193.538 141.375 190.866 141.998 190.866 145.123C190.866 147.569 192.685 148.533 194.903 149.102L201.553 150.92C207.972 152.624 211.325 156.432 211.325 163.306C211.325 172.853 204.45 176.432 194.902 176.432H192.685C189.33 176.432 183.763 175.524 180.694 174.443Z" fill="white"/>
<path d="M235.016 167.335C235.016 172.364 230.934 176.44 225.901 176.44C220.867 176.44 216.787 172.363 216.787 167.335C216.787 162.305 220.868 158.23 225.901 158.23C230.934 158.23 235.016 162.307 235.016 167.335Z" fill="white"/>
<path d="M71.7433 109.327C68.4876 113.97 63.2571 116.744 57.7113 116.744C49.6421 116.744 42.5326 110.848 40.8074 102.725L40.7444 102.43H70.654H79.0181H80.1871C80.4234 100.833 80.3564 99.0915 80.3564 99.0915L80.355 99.0947C80.355 99.0449 80.3586 98.9925 80.3586 98.9409C80.3584 86.1048 70.1983 75.66 57.7113 75.66C45.2273 75.66 35.0684 86.1048 35.0684 98.9411C35.0684 111.783 45.2273 122.227 57.7115 122.227C66.2171 122.227 73.9315 117.39 77.8479 109.603L78.4075 108.469H72.3069C72.0942 108.816 71.8904 109.118 71.7433 109.327ZM40.5472 96.674C41.6598 87.8171 49.0378 81.1416 57.7113 81.1416C66.3874 81.1416 73.7672 87.8171 74.8746 96.674L74.9099 96.9449H40.5143L40.5472 96.674Z" fill="white"/>
<path d="M108.629 122.238C106.12 122.238 103.719 121.79 101.494 120.905C99.285 120.024 97.3323 118.748 95.6868 117.113C94.0074 115.45 92.7003 113.47 91.8016 111.231C90.87 108.893 90.4945 106.344 90.5065 103.653L90.5061 76.5622H95.7389L95.7378 103.212C95.7303 105.297 95.9849 107.247 96.6708 109.009C97.3217 110.687 98.2651 112.171 99.4762 113.42C100.654 114.634 102.042 115.579 103.602 116.229C105.184 116.887 106.872 117.222 108.618 117.222C110.403 117.22 112.098 116.884 113.678 116.224C115.245 115.568 116.638 114.621 117.819 113.405C119.031 112.162 119.981 110.68 120.645 108.999C121.346 107.227 121.772 105.277 121.776 103.207V76.5622H126.998L126.998 103.657C126.989 106.356 126.439 108.901 125.495 111.223C124.583 113.463 123.269 115.441 121.587 117.104C119.927 118.741 117.97 120.017 115.768 120.896C113.543 121.784 111.141 122.235 108.63 122.238H108.629V122.238Z" fill="white"/>
<path d="M138.232 121.027V95.3833C138.234 93.476 138.461 91.6097 138.907 89.8349C139.52 87.3747 140.537 85.1804 141.929 83.3133C143.66 80.9894 145.976 79.1639 148.811 77.8893C152.094 76.4177 156.117 75.6728 160.766 75.6728H161.645V81.2465L160.788 81.2459C157.398 81.2459 154.489 81.6907 152.127 82.5665C150.048 83.3353 148.338 84.4522 147.045 85.8853C145.919 87.1363 145.081 88.6547 144.556 90.3955C144.106 91.8873 143.874 93.5667 143.869 95.3877V121.026H138.232L138.232 121.027Z" fill="white"/>
<path d="M187.952 75.7494C175.37 75.7494 165.171 86.1735 165.171 99.0323C165.171 111.892 175.37 122.316 187.952 122.316C200.533 122.316 210.732 111.891 210.732 99.0323C210.732 86.1743 200.533 75.7494 187.952 75.7494ZM187.952 115.966C179.174 115.966 172.033 108.37 172.033 99.0319C172.033 89.6952 179.174 82.0985 187.952 82.0985C196.729 82.0985 203.871 89.6952 203.871 99.0319C203.871 108.37 196.729 115.966 187.952 115.966Z" fill="white"/>
</g>
<defs>
<radialGradient id="paint0_radial_357_1966" cx="0" cy="0" r="1" gradientUnits="userSpaceOnUse" gradientTransform="translate(125 125) rotate(90) scale(140.769)">
<stop stop-color="#1175C0"/>
<stop offset="1" stop-color="#072C47"/>
</radialGradient>
<clipPath id="clip0_357_1966">
<rect width="250" height="250" fill="white"/>
</clipPath>
</defs>
</svg>
