<svg width="250" height="250" viewBox="0 0 250 250" fill="none" xmlns="http://www.w3.org/2000/svg">
<rect width="250" height="250" fill="#141B4D"/>
<path d="M47.0391 133.261L41.3506 129.55L32.5615 133.261L37.7373 127.182L32 123.422H40.9355L47.0391 116.269V123.422H55.7549L47.0391 127.108V133.261Z" fill="white"/>
<path d="M57.8545 119.784C58.1475 119.784 58.416 119.516 58.416 119.223V116.806C58.416 116.513 58.1475 116.244 57.8545 116.244H48.5283V119.784H57.8545Z" fill="white"/>
<path d="M57.8545 133.31C58.1475 133.31 58.416 133.041 58.416 132.748V130.331C58.416 130.038 58.1475 129.77 57.8545 129.77H48.5283V133.31H57.8545Z" fill="white"/>
<path d="M182.903 116.269H171.258C170.965 116.269 170.696 116.537 170.696 116.83V119.247C170.696 119.54 170.965 119.809 171.258 119.809H175.311V132.821C175.311 133.114 175.579 133.383 175.872 133.383H178.289C178.582 133.383 178.851 133.114 178.851 132.821V119.784H182.903C183.196 119.784 183.465 119.516 183.465 119.223V116.854C183.416 116.562 183.196 116.293 182.903 116.293V116.269Z" fill="white"/>
<path d="M136.468 120.077C136.199 119.32 135.784 118.637 135.223 118.075C134.686 117.514 134.026 117.05 133.27 116.732C132.513 116.391 131.609 116.244 130.682 116.244H124.358C124.065 116.244 123.797 116.513 123.797 116.806V132.748C123.797 133.041 124.065 133.31 124.358 133.31H126.775C127.068 133.31 127.337 133.041 127.337 132.748V128.646H130.73C131.658 128.646 132.537 128.5 133.318 128.158C134.075 127.816 134.759 127.377 135.271 126.84C135.809 126.278 136.199 125.644 136.517 124.887C136.785 124.179 136.932 123.227 136.932 122.445C136.883 121.615 136.785 120.834 136.492 120.077H136.468ZM133.196 123.568C133.074 123.91 132.903 124.203 132.659 124.423C132.439 124.643 132.171 124.789 131.878 124.96C131.585 125.106 131.048 125.18 129.998 125.18H127.288V119.76H130.828C131.194 119.76 131.536 119.833 131.854 119.955C132.146 120.102 132.415 120.297 132.635 120.517C132.854 120.736 133.001 121.054 133.123 121.347C133.245 121.688 133.318 122.055 133.318 122.445C133.392 122.86 133.318 123.227 133.196 123.568Z" fill="white"/>
<path d="M112.688 121.176C112.688 121.518 112.762 121.737 112.908 121.933C113.055 122.152 113.274 122.348 113.543 122.47C113.836 122.616 114.178 122.738 114.593 122.836C115.032 122.958 115.447 123.031 115.911 123.104C116.692 123.227 117.522 123.397 118.279 123.593C119.061 123.788 119.793 124.081 120.379 124.447C121.014 124.862 121.502 125.375 121.844 126.034C122.21 126.718 122.381 127.548 122.332 128.549C122.283 129.525 122.039 130.355 121.575 131.039C121.136 131.674 120.55 132.211 119.891 132.626C119.207 132.992 118.572 133.31 117.742 133.456C116.961 133.603 116.058 133.651 115.252 133.603C113.299 133.529 110.442 132.406 109.002 130.453C108.88 130.307 108.733 130.038 109.051 129.696C109.344 129.403 110.809 127.89 110.809 127.89C111.102 127.597 111.419 127.816 111.517 127.963C112.347 129.208 114.031 130.111 115.35 130.185C116.033 130.233 116.131 130.185 116.546 130.136C116.912 130.087 117.303 129.989 117.596 129.843C117.889 129.696 118.157 129.55 118.353 129.281C118.548 129.061 118.646 128.72 118.646 128.353C118.694 127.987 118.572 127.67 118.377 127.45C118.182 127.182 117.938 127.011 117.62 126.84C117.278 126.645 116.863 126.547 116.448 126.474C116.009 126.4 115.521 126.327 115.057 126.254C114.3 126.132 113.543 125.985 112.835 125.814C112.078 125.595 111.443 125.277 110.882 124.911C110.271 124.545 109.832 124.008 109.441 123.397C109.1 122.763 108.904 122.055 108.953 121.176C109.002 120.272 109.222 119.491 109.637 118.808C110.052 118.173 110.54 117.611 111.175 117.196C111.785 116.781 112.493 116.488 113.274 116.342C114.813 116 116.326 116.049 117.864 116.537C119.476 117.074 120.794 118.295 121.404 119.198C121.526 119.345 121.624 119.613 121.404 119.882C121.185 120.15 119.72 121.566 119.72 121.566C119.427 121.859 119.085 121.786 118.938 121.518C118.035 120.199 116.912 119.638 115.594 119.564C114.275 119.418 112.688 119.711 112.615 121.225L112.688 121.176Z" fill="white"/>
<path d="M105.389 118.344C104.607 117.587 103.655 117.025 102.654 116.61C101.604 116.244 100.506 116 99.334 116C98.1621 116 97.0879 116.195 96.0625 116.61C95.0127 116.977 94.0605 117.587 93.2793 118.344C92.498 119.101 91.8389 120.028 91.3506 121.127C90.9111 122.226 90.6426 123.446 90.6426 124.813C90.6426 126.181 90.8623 127.45 91.3262 128.524C91.79 129.599 92.4248 130.526 93.2061 131.259C93.9873 131.991 94.9395 132.577 95.9404 132.992C96.9902 133.358 98.0889 133.603 99.2607 133.603C100.433 133.603 101.702 133.383 102.752 132.968C103.802 132.553 104.754 131.942 105.535 131.161C106.292 130.38 106.878 129.477 107.342 128.378C107.757 127.328 107.977 126.132 107.977 124.838C107.977 123.544 107.757 122.201 107.269 121.151C106.829 119.979 106.17 119.076 105.389 118.344ZM103.997 127.182C103.729 127.816 103.362 128.378 102.898 128.842C102.435 129.306 101.873 129.623 101.287 129.867C100.677 130.087 100.018 130.209 99.2852 130.209C98.5527 130.209 97.8936 130.087 97.2832 129.867C96.6729 129.647 96.1602 129.306 95.6963 128.842C95.2324 128.378 94.8662 127.816 94.5977 127.182C94.3291 126.498 94.1826 125.717 94.1826 124.862C94.1826 124.008 94.3291 123.178 94.5977 122.543C94.8662 121.859 95.2324 121.347 95.6963 120.883C96.1602 120.419 96.6728 120.102 97.3076 119.857C97.918 119.638 98.5771 119.516 99.3096 119.516C100.042 119.516 100.652 119.638 101.312 119.857C101.922 120.077 102.435 120.419 102.923 120.883C103.362 121.322 103.753 121.908 104.021 122.543C104.29 123.227 104.437 123.983 104.437 124.862C104.363 125.717 104.241 126.522 103.997 127.182Z" fill="white"/>
<path d="M152.825 118.344C152.044 117.587 151.092 117.025 150.091 116.61C149.041 116.244 147.942 116 146.771 116C145.599 116 144.524 116.195 143.499 116.61C142.449 116.977 141.497 117.587 140.716 118.344C139.935 119.101 139.275 120.028 138.787 121.127C138.348 122.226 138.079 123.446 138.079 124.813C138.079 126.181 138.299 127.45 138.763 128.524C139.202 129.623 139.861 130.526 140.643 131.259C141.424 132.016 142.376 132.577 143.377 132.992C144.427 133.358 145.525 133.603 146.697 133.603C147.869 133.603 149.139 133.383 150.188 132.968C151.238 132.553 152.19 131.942 152.972 131.161C153.729 130.38 154.314 129.477 154.778 128.378C155.193 127.328 155.413 126.132 155.413 124.838C155.413 123.544 155.193 122.201 154.705 121.151C154.266 119.979 153.606 119.076 152.825 118.344ZM151.434 127.182C151.165 127.816 150.799 128.378 150.335 128.842C149.896 129.281 149.31 129.623 148.724 129.867C148.113 130.087 147.454 130.209 146.722 130.209C145.989 130.209 145.33 130.087 144.72 129.867C144.109 129.647 143.597 129.306 143.133 128.842C142.669 128.378 142.303 127.816 142.034 127.182C141.766 126.498 141.619 125.717 141.619 124.862C141.619 124.008 141.766 123.178 142.034 122.543C142.303 121.859 142.669 121.347 143.133 120.883C143.572 120.443 144.109 120.102 144.744 119.857C145.354 119.638 146.014 119.516 146.746 119.516C147.479 119.516 148.089 119.638 148.748 119.857C149.358 120.077 149.871 120.419 150.359 120.883C150.799 121.322 151.189 121.908 151.458 122.543C151.727 123.227 151.873 123.983 151.873 124.862C151.824 125.717 151.727 126.522 151.434 127.182Z" fill="white"/>
<path d="M73.1621 116.269H70.7451C70.4521 116.269 70.1836 116.537 70.1836 116.83V127.401C70.1836 127.841 70.1103 128.231 69.9639 128.573C69.8174 128.915 69.6221 129.184 69.3535 129.403C69.085 129.623 68.792 129.818 68.4258 129.94C68.0596 130.063 67.4004 130.136 66.9854 130.136C66.5703 130.136 65.8867 130.063 65.4717 129.94C65.1055 129.818 64.7637 129.647 64.4951 129.403C64.2266 129.184 64.0557 128.915 63.8848 128.573C63.7139 128.231 63.665 127.865 63.665 127.401V116.806C63.665 116.513 63.3965 116.244 63.1035 116.244H60.6865C60.3936 116.244 60.125 116.513 60.125 116.806V127.45C60.125 128.427 60.3203 129.281 60.6621 130.038C61.0283 130.795 61.5166 131.43 62.1758 131.967C62.8105 132.504 63.5186 132.895 64.3486 133.163C65.1299 133.432 66.0332 133.529 66.9365 133.529C67.8398 133.529 68.6943 133.383 69.5 133.163C70.3301 132.895 71.0381 132.479 71.6484 131.967C72.2588 131.454 72.7471 130.795 73.1133 130.038C73.4795 129.281 73.6504 128.427 73.6504 127.45V116.806C73.7236 116.513 73.4551 116.269 73.1621 116.269Z" fill="white"/>
<path d="M90.0078 132.406L86.126 127.597C86.126 127.597 89.251 126.474 89.251 122.494C89.251 118.515 89.1045 120.883 88.8359 120.126C88.5674 119.369 88.1523 118.686 87.5908 118.124C87.0537 117.563 86.3945 117.099 85.6377 116.781C84.8809 116.439 83.9775 116.293 83.0498 116.293H76.7266C76.4336 116.293 76.165 116.562 76.165 116.854V132.797C76.165 133.09 76.4336 133.358 76.7266 133.358H79.0947C79.3877 133.358 79.6562 133.09 79.6562 132.797V119.784H83.1963C83.5625 119.784 83.9043 119.857 84.2217 119.979C84.5146 120.126 84.7832 120.321 85.0029 120.541C85.2227 120.761 85.3691 121.078 85.4912 121.371C85.6133 121.713 85.6865 122.079 85.6865 122.47C85.6865 122.86 85.6133 123.227 85.4912 123.568C85.3691 123.91 85.1982 124.203 84.9541 124.423C84.7344 124.643 84.4658 124.789 84.1728 124.96C83.8799 125.131 83.3428 125.18 82.293 125.18H80.8281C80.5596 125.18 80.291 125.448 80.5352 125.814L86.126 133.114C86.248 133.261 86.3945 133.334 86.5654 133.334H89.6172C90.1055 133.334 90.3984 132.919 89.9834 132.431L90.0078 132.406Z" fill="white"/>
<path d="M170.916 132.406L167.034 127.597C167.034 127.597 170.159 126.474 170.159 122.494C170.159 118.515 170.013 120.883 169.744 120.126C169.476 119.369 169.061 118.686 168.499 118.124C167.962 117.563 167.303 117.099 166.546 116.781C165.789 116.439 164.886 116.293 163.958 116.293H157.635C157.342 116.293 157.073 116.562 157.073 116.854V132.797C157.073 133.09 157.342 133.358 157.635 133.358H160.003C160.296 133.358 160.564 133.09 160.564 132.797V119.784H164.105C164.471 119.784 164.813 119.857 165.13 119.979C165.423 120.126 165.691 120.321 165.911 120.541C166.131 120.761 166.277 121.078 166.399 121.371C166.521 121.713 166.595 122.079 166.595 122.47C166.595 122.86 166.521 123.227 166.399 123.568C166.277 123.91 166.106 124.203 165.862 124.423C165.643 124.643 165.374 124.789 165.081 124.96C164.788 125.106 164.251 125.18 163.201 125.18H161.736C161.443 125.18 161.199 125.448 161.443 125.814L166.961 133.114C167.083 133.261 167.23 133.334 167.4 133.334H170.452C171.014 133.334 171.307 132.919 170.892 132.431L170.916 132.406Z" fill="white"/>
<path d="M216.595 133.578H190.398C190.105 133.578 189.837 133.31 189.837 133.017V116.586C189.837 116.293 190.105 116.024 190.398 116.024H216.595C216.888 116.024 217.156 116.293 217.156 116.586V133.017C217.156 133.358 216.888 133.578 216.595 133.578Z" fill="#D50032"/>
<path d="M201.922 126.205H200.335V119.174C200.335 118.954 200.14 118.734 199.896 118.734H197.796C197.576 118.734 197.234 118.881 197.112 119.076L192.522 125.351C192.376 125.546 192.254 125.912 192.254 126.132V127.792C192.254 128.012 192.449 128.231 192.693 128.231H198.04V130.404C198.04 130.624 198.235 130.844 198.479 130.844H199.944C200.164 130.844 200.384 130.648 200.384 130.404V128.231H201.971C202.19 128.231 202.41 128.036 202.41 127.792V126.596C202.288 126.4 202.117 126.229 201.873 126.229L201.922 126.205ZM198.016 126.205H194.378L198.016 121.176V126.205Z" fill="white"/>
<path d="M206.927 130.404C206.927 130.624 206.731 130.844 206.487 130.844H204.974C204.754 130.844 204.534 130.648 204.534 130.404V119.125C204.534 118.905 204.729 118.686 204.974 118.686H206.487C206.707 118.686 206.927 118.881 206.927 119.125V124.203L211.517 119.052C211.663 118.856 212.005 118.71 212.225 118.71H214.446C214.666 118.71 214.739 118.856 214.593 119.052L210.076 124.008L214.666 130.502C214.813 130.697 214.715 130.844 214.471 130.844H212.371C212.151 130.844 211.81 130.697 211.687 130.502L208.416 125.839L206.902 127.499V130.404H206.927Z" fill="white"/>
</svg>
