<svg width="250" height="250" viewBox="0 0 250 250" fill="none" xmlns="http://www.w3.org/2000/svg">
<rect width="250" height="250" fill="#141B4D"/>
<path d="M54.637 132.828L49.112 129.207L40.561 132.828L45.593 126.912L40 123.24H48.721L54.637 116.304V123.24H63.086L54.637 126.844V132.828Z" fill="white"/>
<path d="M65.126 119.704C65.415 119.704 65.67 119.466 65.67 119.16V116.831C65.67 116.542 65.432 116.287 65.126 116.287H56.065V119.687L65.126 119.704Z" fill="white"/>
<path d="M65.126 132.862C65.415 132.862 65.67 132.624 65.67 132.318V129.989C65.67 129.7 65.432 129.445 65.126 129.445H56.065V132.845L65.126 132.862Z" fill="white"/>
<path d="M186.693 116.304H175.371C175.082 116.304 174.827 116.542 174.827 116.848V119.177C174.827 119.466 175.065 119.721 175.371 119.721H179.332V132.369C179.332 132.658 179.57 132.913 179.876 132.913H182.205C182.494 132.913 182.749 132.675 182.749 132.369V119.721H186.71C186.999 119.721 187.254 119.483 187.254 119.177V116.848C187.22 116.559 186.982 116.304 186.693 116.304Z" fill="white"/>
<path d="M141.575 120.01C141.303 119.279 140.912 118.633 140.385 118.089C139.858 117.545 139.229 117.103 138.481 116.78C137.733 116.457 136.883 116.287 135.965 116.287H129.811C129.522 116.287 129.267 116.525 129.267 116.831V132.335C129.267 132.624 129.505 132.879 129.811 132.879H132.14C132.429 132.879 132.684 132.641 132.684 132.335V128.357H135.982C136.9 128.357 137.75 128.204 138.481 127.881C139.212 127.558 139.858 127.133 140.368 126.589C140.895 126.045 141.286 125.416 141.558 124.702C141.83 123.988 141.966 123.087 141.966 122.305C141.983 121.506 141.847 120.741 141.575 120.01ZM138.379 123.393C138.26 123.716 138.09 124.005 137.869 124.243C137.648 124.481 137.41 124.617 137.121 124.753C136.832 124.889 136.322 124.957 135.302 124.957H132.684V119.704H136.118C136.492 119.704 136.815 119.772 137.121 119.908C137.427 120.044 137.682 120.231 137.903 120.452C138.124 120.673 138.277 120.945 138.396 121.268C138.515 121.591 138.583 121.965 138.583 122.339C138.566 122.696 138.498 123.053 138.379 123.393Z" fill="white"/>
<path d="M118.438 121.047C118.421 121.387 118.506 121.591 118.642 121.778C118.795 121.982 118.999 122.169 119.254 122.305C119.543 122.458 119.883 122.577 120.274 122.662C120.699 122.747 121.124 122.832 121.566 122.917C122.348 123.036 123.13 123.189 123.878 123.376C124.66 123.563 125.34 123.852 125.935 124.226C126.547 124.617 127.023 125.144 127.363 125.773C127.72 126.419 127.873 127.235 127.822 128.204C127.788 129.156 127.533 129.955 127.108 130.601C126.683 131.23 126.122 131.757 125.476 132.131C124.83 132.505 124.184 132.794 123.402 132.93C122.62 133.066 121.753 133.117 121.005 133.083C119.118 132.998 116.347 131.91 114.936 130.006C114.834 129.853 114.681 129.598 114.987 129.292C115.293 128.986 116.721 127.524 116.721 127.524C117.01 127.218 117.299 127.439 117.418 127.609C118.234 128.799 119.866 129.7 121.141 129.751C121.804 129.785 121.889 129.751 122.314 129.7C122.688 129.649 123.028 129.547 123.351 129.411C123.64 129.275 123.878 129.105 124.082 128.85C124.252 128.629 124.354 128.306 124.388 127.932C124.405 127.575 124.32 127.286 124.15 127.048C123.963 126.793 123.725 126.606 123.419 126.453C123.079 126.283 122.705 126.164 122.28 126.096C121.821 126.011 121.379 125.943 120.937 125.875C120.206 125.79 119.492 125.637 118.795 125.433C118.081 125.229 117.435 124.94 116.874 124.566C116.296 124.192 115.837 123.682 115.497 123.104C115.157 122.492 114.987 121.812 115.038 120.928C115.072 120.044 115.293 119.279 115.684 118.633C116.075 118.004 116.585 117.477 117.197 117.069C117.792 116.678 118.489 116.389 119.254 116.219C120.733 115.879 122.229 115.93 123.708 116.406C125.289 116.916 126.581 118.123 127.159 118.99C127.261 119.143 127.38 119.398 127.142 119.653C126.904 119.908 125.51 121.285 125.51 121.285C125.204 121.574 124.898 121.506 124.728 121.251C123.861 119.993 122.756 119.415 121.481 119.33C120.053 119.296 118.506 119.602 118.438 121.047Z" fill="white"/>
<path d="M111.332 118.293C110.567 117.562 109.666 117.001 108.646 116.627C107.643 116.253 106.555 116.049 105.433 116.049C104.328 116.049 103.257 116.236 102.237 116.61C101.217 116.984 100.299 117.545 99.534 118.276C98.752 119.007 98.14 119.908 97.681 120.979C97.222 122.033 97.001 123.24 97.001 124.583C97.001 125.926 97.222 127.15 97.681 128.187C98.123 129.241 98.752 130.142 99.517 130.873C100.282 131.604 101.183 132.165 102.203 132.539C103.206 132.913 104.294 133.1 105.416 133.1C106.64 133.1 107.796 132.896 108.833 132.488C109.87 132.08 110.771 131.485 111.519 130.72C112.267 129.972 112.845 129.054 113.27 128.017C113.678 126.98 113.899 125.807 113.899 124.566C113.899 123.24 113.661 122.033 113.219 120.962C112.709 119.942 112.097 119.024 111.332 118.293ZM109.972 126.895C109.717 127.541 109.36 128.068 108.901 128.51C108.459 128.935 107.932 129.275 107.337 129.479C106.742 129.7 106.079 129.819 105.399 129.819C104.702 129.819 104.039 129.7 103.444 129.479C102.849 129.258 102.339 128.935 101.914 128.51C101.472 128.085 101.132 127.541 100.86 126.895C100.605 126.249 100.469 125.484 100.469 124.617C100.469 123.75 100.605 122.985 100.86 122.339C101.115 121.693 101.472 121.149 101.914 120.724C102.356 120.299 102.883 119.959 103.478 119.738C104.073 119.517 104.736 119.398 105.433 119.398C106.113 119.398 106.759 119.517 107.354 119.738C107.949 119.959 108.476 120.299 108.901 120.724C109.343 121.166 109.7 121.71 109.972 122.356C110.244 123.002 110.363 123.767 110.363 124.6C110.38 125.484 110.244 126.249 109.972 126.895Z" fill="white"/>
<path d="M157.487 118.293C156.722 117.562 155.821 117.001 154.801 116.627C153.798 116.253 152.71 116.049 151.588 116.049C150.483 116.049 149.412 116.236 148.392 116.61C147.372 116.984 146.454 117.545 145.689 118.276C144.907 119.007 144.295 119.908 143.836 120.979C143.377 122.033 143.156 123.24 143.156 124.583C143.156 125.926 143.377 127.15 143.836 128.187C144.278 129.241 144.907 130.142 145.672 130.873C146.437 131.604 147.338 132.165 148.358 132.539C149.361 132.913 150.449 133.1 151.571 133.1C152.795 133.1 153.951 132.896 154.988 132.488C156.025 132.08 156.926 131.485 157.674 130.72C158.422 129.972 159 129.054 159.425 128.017C159.833 126.98 160.054 125.807 160.054 124.566C160.054 123.24 159.816 122.033 159.374 120.962C158.864 119.942 158.252 119.024 157.487 118.293ZM156.127 126.895C155.872 127.541 155.515 128.068 155.056 128.51C154.614 128.935 154.087 129.275 153.492 129.479C152.897 129.7 152.234 129.819 151.554 129.819C150.857 129.819 150.194 129.7 149.599 129.479C149.004 129.258 148.494 128.935 148.069 128.51C147.627 128.085 147.287 127.541 147.015 126.895C146.76 126.249 146.624 125.484 146.624 124.617C146.624 123.75 146.76 122.985 147.015 122.339C147.27 121.693 147.627 121.149 148.069 120.724C148.511 120.299 149.038 119.959 149.633 119.738C150.228 119.517 150.891 119.398 151.588 119.398C152.268 119.398 152.914 119.517 153.509 119.738C154.104 119.959 154.631 120.299 155.056 120.724C155.498 121.166 155.855 121.71 156.127 122.356C156.399 123.002 156.518 123.767 156.518 124.6C156.518 125.484 156.399 126.249 156.127 126.895Z" fill="white"/>
<path d="M80.035 116.287H77.706C77.417 116.287 77.162 116.525 77.162 116.831V127.099C77.162 127.541 77.094 127.915 76.941 128.238C76.805 128.561 76.601 128.833 76.346 129.037C76.091 129.258 75.785 129.428 75.428 129.547C75.071 129.666 74.459 129.734 74.017 129.734C73.592 129.734 72.946 129.666 72.572 129.547C72.215 129.428 71.892 129.258 71.637 129.037C71.382 128.833 71.178 128.561 71.042 128.238C70.906 127.915 70.821 127.541 70.821 127.099V116.831C70.821 116.542 70.583 116.287 70.277 116.287H67.948C67.659 116.287 67.404 116.525 67.404 116.831V127.167C67.404 128.119 67.574 128.969 67.931 129.7C68.288 130.431 68.764 131.06 69.376 131.57C69.988 132.08 70.685 132.471 71.484 132.726C72.266 132.981 73.116 133.1 74 133.1C74.884 133.1 75.717 132.964 76.499 132.726C77.298 132.471 77.995 132.08 78.59 131.57C79.185 131.06 79.661 130.431 80.001 129.7C80.358 128.969 80.528 128.119 80.528 127.167V116.831C80.562 116.542 80.324 116.287 80.035 116.287Z" fill="white"/>
<path d="M96.389 131.961L92.615 127.269C92.615 127.269 95.658 126.164 95.658 122.288C95.658 121.489 95.522 120.724 95.267 119.993C94.995 119.262 94.604 118.616 94.077 118.072C93.55 117.528 92.921 117.086 92.173 116.763C91.425 116.44 90.575 116.27 89.657 116.27H83.503C83.214 116.27 82.959 116.508 82.959 116.814V132.318C82.959 132.624 83.197 132.862 83.503 132.862H85.815C86.104 132.862 86.359 132.624 86.359 132.318V119.687H89.81C90.184 119.687 90.507 119.755 90.813 119.891C91.119 120.027 91.374 120.214 91.595 120.435C91.799 120.656 91.969 120.928 92.088 121.251C92.207 121.591 92.275 121.948 92.275 122.322C92.275 122.696 92.207 123.053 92.088 123.376C91.969 123.699 91.799 123.988 91.578 124.226C91.357 124.464 91.119 124.6 90.83 124.736C90.541 124.872 90.031 124.94 89.011 124.94H87.566C87.277 124.94 87.056 125.195 87.277 125.552L92.666 132.641C92.768 132.777 92.938 132.862 93.108 132.862H96.083C96.491 132.862 96.797 132.471 96.389 131.961Z" fill="white"/>
<path d="M175.031 131.961L171.257 127.269C171.257 127.269 174.317 126.164 174.317 122.288C174.317 121.489 174.181 120.724 173.926 119.993C173.654 119.262 173.263 118.616 172.736 118.072C172.209 117.528 171.58 117.086 170.832 116.763C170.084 116.44 169.234 116.27 168.316 116.27H162.162C161.873 116.27 161.618 116.508 161.618 116.814V132.318C161.618 132.624 161.856 132.862 162.162 132.862H164.474C164.763 132.862 165.018 132.624 165.018 132.318V119.687H168.469C168.843 119.687 169.166 119.755 169.472 119.891C169.778 120.027 170.033 120.214 170.254 120.435C170.458 120.656 170.628 120.928 170.747 121.251C170.866 121.591 170.934 121.948 170.934 122.322C170.934 122.696 170.866 123.053 170.747 123.376C170.628 123.699 170.458 123.988 170.237 124.226C170.016 124.464 169.778 124.6 169.489 124.736C169.2 124.872 168.69 124.94 167.67 124.94H166.225C165.936 124.94 165.715 125.195 165.936 125.552L171.325 132.641C171.427 132.777 171.597 132.862 171.767 132.862H174.742C175.15 132.862 175.439 132.471 175.031 131.961Z" fill="white"/>
<path d="M209.439 133.134H194.003C193.697 133.134 193.442 132.879 193.442 132.573V116.593C193.442 116.287 193.697 116.032 194.003 116.032H209.439C209.745 116.032 210 116.287 210 116.593V132.573C210 132.879 209.745 133.134 209.439 133.134Z" fill="#D50032"/>
<path d="M205.886 119.143C205.886 119.415 205.818 119.653 205.665 119.874L203.438 123.002C204.152 123.274 204.713 123.699 205.121 124.277C205.529 124.855 205.733 125.586 205.733 126.436C205.733 127.66 205.342 128.663 204.543 129.394C203.761 130.142 202.775 130.516 201.619 130.516C200.871 130.516 200.191 130.363 199.579 130.074C198.967 129.785 198.474 129.36 198.1 128.799C197.726 128.238 197.556 127.592 197.556 126.861C197.573 126.844 197.573 126.827 197.573 126.81C197.573 126.793 197.59 126.776 197.59 126.759C197.607 126.742 197.607 126.725 197.624 126.708C197.641 126.691 197.658 126.657 197.675 126.64C197.692 126.623 197.709 126.606 197.726 126.589C197.743 126.572 197.76 126.555 197.777 126.538C197.794 126.521 197.828 126.504 197.845 126.504C197.862 126.487 197.896 126.487 197.913 126.487H199.528C199.545 126.487 199.579 126.487 199.596 126.504C199.63 126.521 199.647 126.521 199.664 126.538C199.681 126.555 199.698 126.572 199.715 126.589C199.732 126.606 199.749 126.623 199.766 126.64C199.783 126.657 199.8 126.691 199.817 126.708C199.834 126.725 199.851 126.742 199.851 126.759C199.868 126.776 199.868 126.793 199.868 126.81C199.868 126.827 199.885 126.844 199.885 126.861C199.885 127.201 200.055 127.507 200.378 127.762C200.701 128.017 201.109 128.136 201.585 128.136C202.061 128.136 202.452 127.966 202.792 127.626C203.115 127.286 203.285 126.895 203.285 126.419C203.285 126.079 203.183 125.756 202.962 125.467C202.758 125.178 202.452 124.957 202.078 124.821C201.772 124.702 201.449 124.651 201.092 124.651C200.633 124.651 200.276 124.702 200.021 124.804C199.936 124.838 199.851 124.821 199.8 124.77C199.732 124.719 199.698 124.651 199.698 124.583V124.158C199.698 124.005 199.783 123.818 199.936 123.614L200.565 122.798L201.636 121.404C201.704 121.319 201.721 121.234 201.687 121.183C201.653 121.115 201.585 121.081 201.483 121.081H198.321C198.219 121.081 198.117 121.047 198.032 120.962C197.947 120.894 197.913 120.792 197.913 120.69V119.109C197.913 119.007 197.947 118.905 198.032 118.82C198.117 118.735 198.202 118.701 198.321 118.701H205.427C205.546 118.701 205.648 118.735 205.716 118.82C205.784 118.905 205.835 118.99 205.835 119.109V119.143H205.886Z" fill="white"/>
</svg>
