<svg width="250" height="250" viewBox="0 0 250 250" fill="none" xmlns="http://www.w3.org/2000/svg">
<rect width="250" height="250" fill="#141B4D"/>
<path d="M54.6344 132.787L49.107 129.148L40.5553 132.779L45.5872 126.867L40 123.202H48.714L54.6344 116.265V123.202H63.0836L54.6344 126.799V132.787Z" fill="white"/>
<path d="M65.1254 119.648C65.4244 119.648 65.6636 119.409 65.6636 119.11V116.786C65.6636 116.487 65.4244 116.248 65.1254 116.248H56.0697V119.648H65.1254Z" fill="white"/>
<path d="M65.1254 132.821C65.4244 132.821 65.6636 132.582 65.6636 132.283V129.959C65.6636 129.66 65.4244 129.421 65.1254 129.421H56.0697V132.821H65.1254Z" fill="white"/>
<path d="M186.686 116.248H175.366C175.067 116.248 174.828 116.487 174.828 116.786V119.11C174.828 119.409 175.067 119.648 175.366 119.648H179.322V132.3C179.322 132.599 179.561 132.839 179.86 132.839H182.184C182.483 132.839 182.722 132.599 182.722 132.3V119.648H186.677C186.976 119.648 187.215 119.409 187.215 119.11V116.786C187.224 116.487 186.985 116.248 186.686 116.248Z" fill="white"/>
<path d="M141.587 119.964C141.322 119.229 140.92 118.589 140.399 118.042C139.878 117.495 139.237 117.059 138.494 116.735C137.751 116.41 136.905 116.248 135.974 116.248H129.814C129.515 116.248 129.276 116.487 129.276 116.786V132.283C129.276 132.582 129.515 132.821 129.814 132.821H132.138C132.437 132.821 132.676 132.582 132.676 132.283V128.311H135.965C136.888 128.311 137.734 128.148 138.468 127.832C139.203 127.516 139.844 127.08 140.365 126.534C140.886 125.987 141.288 125.355 141.561 124.637C141.834 123.928 141.971 123.031 141.971 122.245C141.979 121.451 141.843 120.682 141.587 119.964ZM138.374 123.339C138.255 123.663 138.075 123.945 137.862 124.184C137.648 124.415 137.4 124.56 137.11 124.697C136.819 124.825 136.307 124.902 135.299 124.902H132.685V119.648H136.11C136.478 119.648 136.811 119.716 137.11 119.844C137.409 119.981 137.674 120.161 137.887 120.383C138.101 120.605 138.263 120.887 138.383 121.203C138.502 121.536 138.562 121.895 138.562 122.271C138.562 122.655 138.494 123.005 138.374 123.339Z" fill="white"/>
<path d="M118.435 121.006C118.418 121.348 118.511 121.562 118.64 121.741C118.785 121.946 118.99 122.125 119.255 122.262C119.545 122.416 119.887 122.535 120.28 122.621C120.707 122.715 121.143 122.8 121.57 122.877C122.356 122.997 123.133 123.159 123.877 123.339C124.654 123.535 125.337 123.817 125.927 124.193C126.533 124.586 127.012 125.107 127.362 125.748C127.712 126.388 127.866 127.209 127.824 128.183C127.781 129.131 127.542 129.934 127.106 130.583C126.679 131.215 126.123 131.736 125.466 132.121C124.816 132.497 124.176 132.779 123.39 132.924C122.612 133.069 121.741 133.112 120.989 133.078C119.101 132.992 116.324 131.916 114.923 130.002C114.812 129.848 114.676 129.592 114.975 129.285C115.274 128.977 116.709 127.525 116.709 127.525C116.999 127.217 117.281 127.439 117.401 127.61C118.221 128.806 119.844 129.695 121.126 129.754C121.801 129.78 121.877 129.754 122.296 129.703C122.681 129.652 123.014 129.558 123.33 129.413C123.62 129.285 123.859 129.105 124.056 128.857C124.235 128.627 124.338 128.311 124.364 127.935C124.389 127.576 124.287 127.285 124.124 127.055C123.945 126.799 123.697 126.611 123.398 126.457C123.065 126.286 122.681 126.175 122.253 126.089C121.801 126.004 121.348 125.927 120.904 125.867C120.177 125.773 119.451 125.628 118.759 125.432C118.042 125.227 117.392 124.936 116.846 124.569C116.273 124.184 115.812 123.689 115.479 123.099C115.128 122.493 114.975 121.801 115.009 120.929C115.052 120.049 115.265 119.281 115.658 118.64C116.043 117.999 116.555 117.478 117.17 117.076C117.768 116.683 118.469 116.402 119.229 116.222C120.716 115.88 122.202 115.94 123.68 116.41C125.269 116.914 126.542 118.136 127.132 118.999C127.243 119.161 127.345 119.409 127.114 119.665C126.884 119.921 125.483 121.297 125.483 121.297C125.184 121.587 124.868 121.519 124.697 121.263C123.834 119.998 122.723 119.434 121.442 119.349C120.049 119.246 118.503 119.554 118.435 121.006Z" fill="white"/>
<path d="M111.335 118.247C110.566 117.512 109.669 116.957 108.653 116.572C107.645 116.196 106.568 116 105.44 116C104.33 116 103.253 116.188 102.245 116.572C101.22 116.948 100.315 117.512 99.5372 118.247C98.7597 118.982 98.1361 119.887 97.6833 120.946C97.2305 122.006 96.9998 123.219 96.9998 124.543C96.9998 125.884 97.2305 127.106 97.6748 128.148C98.119 129.199 98.7341 130.105 99.503 130.831C100.272 131.557 101.169 132.121 102.186 132.505C103.194 132.881 104.27 133.078 105.398 133.078C106.628 133.078 107.773 132.873 108.806 132.463C109.849 132.053 110.746 131.463 111.498 130.703C112.241 129.951 112.822 129.037 113.24 127.995C113.659 126.952 113.864 125.79 113.864 124.543C113.864 123.21 113.633 122.006 113.181 120.946C112.719 119.887 112.096 118.982 111.335 118.247ZM109.977 126.841C109.712 127.482 109.353 128.02 108.909 128.447C108.465 128.875 107.935 129.208 107.346 129.421C106.748 129.643 106.098 129.754 105.415 129.754C104.714 129.754 104.056 129.643 103.458 129.421C102.869 129.208 102.356 128.875 101.921 128.456C101.485 128.029 101.135 127.482 100.87 126.841C100.605 126.192 100.468 125.432 100.468 124.569C100.468 123.706 100.605 122.937 100.87 122.296C101.135 121.656 101.485 121.109 101.929 120.682C102.373 120.254 102.895 119.921 103.484 119.699C104.082 119.469 104.74 119.357 105.432 119.357C106.115 119.357 106.756 119.477 107.354 119.699C107.944 119.921 108.465 120.254 108.909 120.69C109.353 121.126 109.712 121.673 109.968 122.313C110.233 122.963 110.37 123.714 110.37 124.569C110.37 125.432 110.242 126.192 109.977 126.841Z" fill="white"/>
<path d="M157.485 118.247C156.716 117.512 155.819 116.957 154.803 116.572C153.795 116.196 152.718 116 151.591 116C150.48 116 149.403 116.188 148.395 116.572C147.37 116.948 146.465 117.512 145.687 118.247C144.91 118.982 144.286 119.887 143.833 120.946C143.381 122.006 143.15 123.219 143.15 124.543C143.15 125.884 143.381 127.106 143.825 128.148C144.269 129.199 144.884 130.105 145.653 130.831C146.422 131.557 147.319 132.121 148.336 132.505C149.344 132.881 150.42 133.078 151.548 133.078C152.778 133.078 153.923 132.873 154.957 132.463C155.999 132.053 156.896 131.463 157.648 130.703C158.391 129.951 158.972 129.037 159.39 127.995C159.809 126.952 160.014 125.79 160.014 124.543C160.014 123.21 159.783 122.006 159.331 120.946C158.869 119.887 158.246 118.982 157.485 118.247ZM156.127 126.841C155.862 127.482 155.503 128.02 155.059 128.447C154.615 128.875 154.085 129.208 153.496 129.421C152.898 129.643 152.248 129.754 151.565 129.754C150.864 129.754 150.207 129.643 149.609 129.421C149.019 129.208 148.506 128.875 148.071 128.456C147.635 128.029 147.285 127.482 147.02 126.841C146.755 126.192 146.618 125.432 146.618 124.569C146.618 123.706 146.755 122.937 147.02 122.296C147.285 121.656 147.635 121.109 148.079 120.682C148.524 120.254 149.045 119.921 149.634 119.699C150.232 119.469 150.89 119.357 151.582 119.357C152.265 119.357 152.906 119.477 153.504 119.699C154.094 119.921 154.615 120.254 155.059 120.69C155.503 121.126 155.862 121.673 156.118 122.313C156.383 122.963 156.52 123.714 156.52 124.569C156.528 125.432 156.392 126.192 156.127 126.841Z" fill="white"/>
<path d="M80.0332 116.248H77.7009C77.4019 116.248 77.1627 116.487 77.1627 116.786V127.046C77.1627 127.482 77.0858 127.866 76.9491 128.183C76.8039 128.499 76.6074 128.772 76.3596 128.986C76.1033 129.208 75.7958 129.379 75.4455 129.49C75.0867 129.609 74.4716 129.669 74.0444 129.669C73.6173 129.669 72.968 129.609 72.6006 129.481C72.2418 129.361 71.9257 129.191 71.6609 128.968C71.4046 128.755 71.2081 128.49 71.0629 128.174C70.9176 127.858 70.8493 127.473 70.8493 127.038V116.786C70.8493 116.487 70.6101 116.248 70.3111 116.248H67.9873C67.6883 116.248 67.4491 116.487 67.4491 116.786V127.123C67.4491 128.071 67.6285 128.926 67.9788 129.66C68.3291 130.395 68.816 131.019 69.4226 131.531C70.0291 132.035 70.7382 132.428 71.5327 132.685C72.3187 132.941 73.1645 133.061 74.053 133.061C74.9329 133.061 75.7701 132.933 76.5561 132.685C77.3506 132.428 78.0512 132.035 78.6492 131.531C79.2386 131.019 79.7171 130.387 80.0673 129.66C80.4176 128.926 80.597 128.071 80.597 127.123V116.786C80.5714 116.487 80.3236 116.248 80.0332 116.248Z" fill="white"/>
<path d="M96.3847 131.916L92.6087 127.226C92.6087 127.226 95.6586 126.115 95.6586 122.245C95.6586 121.451 95.5219 120.673 95.2571 119.955C94.9922 119.229 94.5907 118.58 94.0696 118.033C93.5484 117.486 92.9077 117.051 92.1644 116.726C91.4212 116.402 90.5754 116.239 89.6442 116.239H83.4931C83.1941 116.239 82.9549 116.478 82.9549 116.777V132.275C82.9549 132.574 83.1941 132.813 83.4931 132.813H85.8083C86.1073 132.813 86.3466 132.574 86.3466 132.275V119.639H89.8065C90.1739 119.639 90.5071 119.708 90.8061 119.836C91.1051 119.964 91.3699 120.152 91.5835 120.374C91.7971 120.596 91.9594 120.878 92.079 121.194C92.1986 121.527 92.2584 121.886 92.2584 122.262C92.2584 122.638 92.1986 122.997 92.0705 123.321C91.9509 123.646 91.78 123.928 91.5579 124.167C91.3443 124.398 91.0965 124.543 90.8061 124.68C90.5156 124.808 90.003 124.885 88.9949 124.885H87.5511C87.2692 124.885 87.0471 125.141 87.2692 125.491L92.6514 132.574C92.7539 132.719 92.9162 132.796 93.0871 132.796H96.0601C96.4958 132.821 96.7863 132.42 96.3847 131.916Z" fill="white"/>
<path d="M175.033 131.916L171.257 127.226C171.257 127.226 174.307 126.115 174.307 122.245C174.307 121.451 174.17 120.673 173.905 119.955C173.64 119.229 173.239 118.58 172.718 118.033C172.197 117.486 171.556 117.051 170.813 116.726C170.069 116.402 169.224 116.239 168.292 116.239H162.141C161.842 116.239 161.603 116.478 161.603 116.777V132.275C161.603 132.574 161.842 132.813 162.141 132.813H164.457C164.756 132.813 164.995 132.574 164.995 132.275V119.639H168.438C168.805 119.639 169.138 119.708 169.437 119.836C169.736 119.964 170.001 120.152 170.215 120.374C170.428 120.596 170.59 120.878 170.71 121.194C170.83 121.527 170.889 121.886 170.889 122.262C170.889 122.638 170.83 122.997 170.702 123.321C170.582 123.646 170.411 123.928 170.189 124.167C169.975 124.398 169.728 124.543 169.437 124.68C169.147 124.808 168.634 124.885 167.626 124.885H166.182C165.9 124.885 165.678 125.141 165.9 125.491L171.282 132.574C171.385 132.719 171.547 132.796 171.718 132.796H174.691C175.144 132.821 175.434 132.42 175.033 131.916Z" fill="white"/>
<path d="M209.445 133.086H193.999C193.691 133.086 193.443 132.839 193.443 132.531V116.555C193.443 116.248 193.691 116 193.999 116H209.445C209.752 116 210 116.248 210 116.555V132.531C210 132.839 209.752 133.086 209.445 133.086Z" fill="#D50032"/>
<path d="M203.61 119.024C203.61 118.811 203.439 118.64 203.225 118.64H199.355C199.142 118.64 198.971 118.811 198.971 119.024V120.69C198.971 120.921 199.116 121.083 199.338 121.083H200.996V130.071C200.996 130.284 201.149 130.455 201.363 130.455H203.242C203.456 130.455 203.61 130.284 203.61 130.071V119.024Z" fill="white"/>
</svg>
