<svg width="250" height="250" viewBox="0 0 250 250" fill="none" xmlns="http://www.w3.org/2000/svg">
<rect width="250" height="250" fill="#141B4D"/>
<path d="M56.8958 134.374L50.5116 130.175L40.6392 134.358L46.4553 127.54L40 123.302H50.0617L56.8958 115.292V123.302H66.6498L56.8958 127.461V134.374Z" fill="white"/>
<path d="M69.0173 119.206C69.3566 119.206 69.6407 118.93 69.6407 118.591V115.908C69.6407 115.568 69.3645 115.284 69.0173 115.284H58.5531V119.206H69.0173Z" fill="white"/>
<path d="M69.0173 134.413C69.3566 134.413 69.6407 134.137 69.6407 133.798V131.115C69.6407 130.775 69.3645 130.491 69.0173 130.491H58.5531V134.413H69.0173Z" fill="white"/>
<path d="M209.377 115.276H196.308C195.969 115.276 195.685 115.552 195.685 115.9V118.583C195.685 118.922 195.961 119.206 196.308 119.206H200.877V133.813C200.877 134.153 201.154 134.437 201.501 134.437H204.184C204.523 134.437 204.807 134.161 204.807 133.813V119.206H209.377C209.716 119.206 210 118.93 210 118.583V115.9C210 115.552 209.724 115.276 209.377 115.276Z" fill="white"/>
<path d="M157.292 119.569C156.984 118.725 156.519 117.975 155.919 117.344C155.319 116.712 154.578 116.207 153.725 115.837C152.865 115.466 151.886 115.276 150.821 115.276H143.711C143.371 115.276 143.087 115.552 143.087 115.9V133.798C143.087 134.137 143.364 134.421 143.711 134.421H146.394C146.733 134.421 147.017 134.145 147.017 133.798V129.213H150.821C151.886 129.213 152.865 129.031 153.709 128.66C154.562 128.297 155.296 127.792 155.895 127.161C156.495 126.53 156.961 125.796 157.276 124.975C157.592 124.154 157.75 123.12 157.75 122.213C157.75 121.29 157.6 120.398 157.292 119.569ZM153.591 123.468C153.449 123.839 153.252 124.17 152.999 124.438C152.755 124.707 152.47 124.88 152.131 125.03C151.8 125.18 151.2 125.267 150.04 125.267H147.025V119.206H150.987C151.413 119.206 151.8 119.285 152.139 119.435C152.486 119.585 152.786 119.798 153.039 120.059C153.283 120.319 153.473 120.635 153.607 121.005C153.741 121.392 153.812 121.803 153.812 122.237C153.804 122.671 153.733 123.081 153.591 123.468Z" fill="white"/>
<path d="M130.571 120.769C130.556 121.163 130.658 121.408 130.808 121.621C130.974 121.866 131.219 122.063 131.518 122.221C131.858 122.394 132.252 122.536 132.702 122.631C133.191 122.742 133.696 122.836 134.194 122.923C135.101 123.065 135.993 123.247 136.853 123.46C137.753 123.681 138.542 124.012 139.221 124.454C139.923 124.904 140.475 125.512 140.878 126.245C141.28 126.987 141.462 127.934 141.414 129.055C141.367 130.144 141.091 131.075 140.586 131.825C140.089 132.559 139.457 133.151 138.692 133.6C137.942 134.034 137.208 134.358 136.293 134.532C135.393 134.697 134.391 134.753 133.515 134.713C131.337 134.618 128.125 133.372 126.515 131.162C126.389 130.988 126.231 130.681 126.578 130.333C126.925 129.978 128.583 128.297 128.583 128.297C128.914 127.942 129.238 128.195 129.38 128.4C130.319 129.781 132.197 130.807 133.673 130.87C134.446 130.902 134.541 130.87 135.022 130.807C135.464 130.752 135.851 130.633 136.214 130.467C136.545 130.318 136.829 130.112 137.05 129.828C137.256 129.568 137.374 129.197 137.405 128.763C137.437 128.353 137.319 128.021 137.129 127.753C136.924 127.461 136.632 127.24 136.293 127.058C135.906 126.853 135.464 126.727 134.975 126.64C134.446 126.545 133.925 126.459 133.42 126.38C132.584 126.269 131.747 126.103 130.942 125.875C130.114 125.638 129.364 125.298 128.733 124.88C128.07 124.438 127.541 123.87 127.146 123.184C126.744 122.481 126.562 121.684 126.61 120.682C126.657 119.672 126.91 118.78 127.36 118.038C127.809 117.304 128.393 116.697 129.104 116.239C129.798 115.789 130.595 115.458 131.479 115.26C133.199 114.874 134.912 114.937 136.616 115.474C138.455 116.057 139.923 117.462 140.602 118.464C140.728 118.646 140.854 118.938 140.586 119.238C140.317 119.538 138.7 121.124 138.7 121.124C138.352 121.455 137.989 121.376 137.792 121.092C136.798 119.632 135.519 118.977 134.036 118.875C132.434 118.741 130.642 119.104 130.571 120.769Z" fill="white"/>
<path d="M122.364 117.588C121.48 116.744 120.439 116.097 119.263 115.655C118.103 115.221 116.848 115 115.554 115C114.275 115 113.036 115.221 111.861 115.655C110.677 116.097 109.627 116.744 108.736 117.588C107.844 118.433 107.126 119.482 106.597 120.698C106.068 121.921 105.808 123.318 105.808 124.857C105.808 126.411 106.068 127.816 106.589 129.023C107.102 130.239 107.82 131.28 108.704 132.125C109.588 132.969 110.629 133.616 111.805 134.058C112.965 134.492 114.22 134.713 115.514 134.713C116.935 134.713 118.261 134.476 119.452 134.003C120.652 133.529 121.693 132.843 122.554 131.967C123.406 131.099 124.085 130.049 124.566 128.842C125.047 127.642 125.284 126.301 125.284 124.857C125.284 123.318 125.016 121.921 124.495 120.698C123.966 119.482 123.248 118.433 122.364 117.588ZM120.794 127.508C120.494 128.25 120.076 128.873 119.563 129.363C119.042 129.86 118.434 130.239 117.756 130.491C117.061 130.744 116.311 130.878 115.522 130.878C114.717 130.878 113.96 130.752 113.265 130.491C112.587 130.239 111.987 129.868 111.49 129.371C110.985 128.873 110.582 128.25 110.274 127.508C109.967 126.758 109.817 125.875 109.817 124.88C109.817 123.886 109.974 123.002 110.274 122.252C110.574 121.511 110.985 120.887 111.498 120.39C112.003 119.893 112.61 119.514 113.297 119.254C113.991 118.993 114.749 118.859 115.546 118.859C116.327 118.859 117.077 118.993 117.771 119.254C118.45 119.514 119.058 119.901 119.563 120.398C120.076 120.903 120.486 121.534 120.786 122.276C121.094 123.026 121.244 123.902 121.244 124.872C121.259 125.875 121.102 126.758 120.794 127.508Z" fill="white"/>
<path d="M175.656 117.588C174.772 116.744 173.73 116.097 172.555 115.655C171.395 115.221 170.14 115 168.846 115C167.567 115 166.328 115.221 165.152 115.655C163.969 116.097 162.919 116.744 162.027 117.588C161.136 118.433 160.417 119.482 159.889 120.698C159.36 121.921 159.099 123.318 159.099 124.857C159.099 126.411 159.36 127.816 159.881 129.023C160.394 130.239 161.112 131.28 161.996 132.125C162.88 132.969 163.921 133.616 165.097 134.058C166.257 134.492 167.512 134.713 168.806 134.713C170.227 134.713 171.552 134.476 172.744 134.003C173.944 133.529 174.985 132.843 175.845 131.967C176.698 131.099 177.376 130.049 177.858 128.842C178.339 127.642 178.576 126.301 178.576 124.857C178.576 123.318 178.308 121.921 177.787 120.698C177.25 119.482 176.54 118.433 175.656 117.588ZM174.086 127.508C173.786 128.25 173.367 128.873 172.854 129.363C172.334 129.86 171.726 130.239 171.047 130.491C170.353 130.744 169.603 130.878 168.814 130.878C168.009 130.878 167.251 130.752 166.557 130.491C165.878 130.239 165.279 129.868 164.781 129.371C164.276 128.873 163.874 128.25 163.566 127.508C163.258 126.758 163.108 125.875 163.108 124.88C163.108 123.886 163.266 123.002 163.566 122.252C163.866 121.511 164.276 120.887 164.789 120.39C165.294 119.893 165.902 119.514 166.589 119.254C167.283 118.993 168.041 118.859 168.838 118.859C169.619 118.859 170.369 118.993 171.063 119.254C171.742 119.514 172.349 119.901 172.854 120.398C173.367 120.903 173.778 121.534 174.078 122.276C174.385 123.026 174.535 123.902 174.535 124.872C174.543 125.875 174.393 126.758 174.086 127.508Z" fill="white"/>
<path d="M86.2208 115.276H83.5219C83.1826 115.276 82.8985 115.552 82.8985 115.9V127.745C82.8985 128.25 82.8117 128.692 82.6459 129.063C82.4802 129.426 82.2514 129.741 81.9673 129.986C81.6753 130.239 81.3123 130.436 80.9098 130.57C80.4915 130.712 79.7813 130.783 79.292 130.783C78.7949 130.783 78.0452 130.712 77.619 130.57C77.2008 130.436 76.8378 130.239 76.53 129.978C76.238 129.734 76.0012 129.426 75.8434 129.063C75.6777 128.692 75.5909 128.25 75.5909 127.745V115.9C75.5909 115.56 75.3147 115.276 74.9675 115.276H72.2843C71.945 115.276 71.6609 115.552 71.6609 115.9V127.84C71.6609 128.937 71.8661 129.923 72.2685 130.767C72.671 131.612 73.2313 132.338 73.9415 132.93C74.636 133.514 75.4567 133.963 76.3721 134.255C77.2718 134.547 78.2582 134.697 79.2841 134.697C80.2943 134.697 81.2728 134.547 82.1724 134.255C83.0879 133.956 83.9007 133.506 84.5873 132.922C85.2738 132.33 85.8262 131.604 86.2287 130.767C86.6312 129.923 86.8364 128.937 86.8364 127.84V115.9C86.8443 115.552 86.568 115.276 86.2208 115.276Z" fill="white"/>
<path d="M105.105 133.372L100.741 127.958C100.741 127.958 104.261 126.68 104.261 122.205C104.261 121.282 104.103 120.398 103.803 119.561C103.495 118.717 103.03 117.967 102.43 117.336C101.83 116.705 101.089 116.2 100.236 115.829C99.3761 115.466 98.3975 115.276 97.3322 115.276H90.2298C89.8904 115.276 89.6063 115.552 89.6063 115.9V133.798C89.6063 134.145 89.8825 134.421 90.2298 134.421H92.905C93.2443 134.421 93.5284 134.145 93.5284 133.798V119.206H97.5058C97.9319 119.206 98.3186 119.285 98.6579 119.435C99.0052 119.585 99.3051 119.798 99.5576 120.059C99.8022 120.319 99.9916 120.635 100.126 121.005C100.26 121.384 100.331 121.803 100.331 122.237C100.331 122.671 100.26 123.081 100.118 123.46C99.9758 123.831 99.7785 124.162 99.526 124.43C99.2814 124.699 98.9973 124.872 98.6579 125.022C98.3265 125.172 97.7267 125.267 96.5667 125.267H94.9016C94.5701 125.267 94.3176 125.567 94.5701 125.969L100.789 134.153C100.907 134.319 101.096 134.413 101.294 134.413H104.727C105.24 134.413 105.571 133.948 105.105 133.372Z" fill="white"/>
<path d="M195.922 133.372L191.557 127.958C191.557 127.958 195.077 126.68 195.077 122.205C195.077 121.282 194.919 120.398 194.619 119.561C194.312 118.717 193.846 117.967 193.246 117.336C192.647 116.705 191.905 116.2 191.052 115.829C190.192 115.458 189.214 115.268 188.148 115.268H181.046C180.707 115.268 180.422 115.545 180.422 115.892V133.79C180.422 134.137 180.699 134.413 181.046 134.413H183.721C184.06 134.413 184.345 134.137 184.345 133.79V119.206H188.322C188.748 119.206 189.135 119.285 189.474 119.435C189.821 119.585 190.121 119.798 190.374 120.058C190.618 120.319 190.808 120.635 190.942 121.005C191.076 121.384 191.147 121.803 191.147 122.237C191.147 122.671 191.076 123.081 190.934 123.46C190.792 123.831 190.595 124.162 190.342 124.43C190.098 124.699 189.813 124.872 189.474 125.022C189.143 125.172 188.543 125.267 187.383 125.267H185.718C185.386 125.267 185.134 125.567 185.386 125.969L191.605 134.153C191.723 134.319 191.913 134.413 192.11 134.413H195.543C196.048 134.413 196.387 133.948 195.922 133.372Z" fill="white"/>
</svg>
