<svg width="250" height="250" viewBox="0 0 250 250" fill="none" xmlns="http://www.w3.org/2000/svg">
<rect width="250" height="250" fill="#141B4D"/>
<path d="M54.641 132.794L49.1074 129.157L40.5539 132.783L45.5909 126.871L40 123.202H48.719L54.641 116.262V123.202H63.0926L54.641 126.803V132.794Z" fill="white"/>
<path d="M65.1376 119.648C65.4337 119.648 65.6746 119.407 65.6746 119.111L65.6756 116.788C65.6756 116.492 65.4347 116.251 65.1387 116.251H56.077V119.649L65.1376 119.648Z" fill="white"/>
<path d="M65.1376 132.825C65.4337 132.825 65.6746 132.584 65.6746 132.288L65.6756 129.964C65.6756 129.668 65.4347 129.427 65.1387 129.427H56.077V132.826L65.1376 132.825Z" fill="white"/>
<path d="M186.752 116.244H175.431C175.134 116.244 174.892 116.486 174.892 116.782V119.11C174.892 119.407 175.134 119.649 175.431 119.649H179.389V132.304C179.389 132.6 179.631 132.842 179.928 132.842H182.255C182.552 132.842 182.794 132.6 182.794 132.304V119.649H186.752C187.049 119.649 187.29 119.407 187.29 119.11V116.782C187.29 116.486 187.049 116.244 186.752 116.244Z" fill="white"/>
<path d="M141.625 119.965C141.357 119.234 140.956 118.587 140.435 118.039C139.914 117.495 139.274 117.055 138.532 116.733C137.787 116.409 136.941 116.245 136.014 116.245H129.855C129.559 116.245 129.317 116.487 129.317 116.784V132.287C129.317 132.586 129.559 132.826 129.855 132.826H132.182C132.479 132.826 132.721 132.586 132.721 132.287L132.72 128.316H136.014C136.939 128.316 137.782 128.156 138.518 127.84C139.255 127.524 139.891 127.088 140.412 126.544C140.932 125.999 141.335 125.363 141.61 124.649C141.884 123.941 142.023 123.041 142.023 122.255C142.023 121.457 141.889 120.687 141.625 119.965ZM138.415 123.34C138.292 123.665 138.12 123.949 137.903 124.184C137.689 124.417 137.442 124.564 137.149 124.695C136.859 124.826 136.342 124.904 135.334 124.904H132.72V119.65H136.15C136.516 119.65 136.854 119.717 137.152 119.848C137.453 119.981 137.715 120.163 137.929 120.389C138.143 120.614 138.308 120.89 138.423 121.21C138.542 121.541 138.602 121.9 138.602 122.279C138.602 122.654 138.54 123.011 138.415 123.34Z" fill="white"/>
<path d="M118.47 121.005C118.455 121.348 118.544 121.557 118.675 121.742C118.821 121.951 119.029 122.126 119.291 122.263C119.583 122.414 119.928 122.534 120.315 122.619C120.74 122.712 121.174 122.798 121.608 122.874C122.393 122.998 123.169 123.154 123.912 123.339C124.689 123.531 125.378 123.82 125.962 124.197C126.568 124.59 127.05 125.112 127.396 125.75C127.745 126.393 127.9 127.212 127.857 128.185C127.816 129.129 127.574 129.936 127.138 130.583C126.71 131.217 126.159 131.734 125.497 132.121C124.849 132.5 124.21 132.78 123.418 132.928C122.641 133.072 121.772 133.116 121.012 133.083C119.128 133 116.345 131.918 114.948 130.008C114.838 129.855 114.701 129.594 115.001 129.288C115.3 128.984 116.735 127.524 116.735 127.524C117.025 127.218 117.306 127.435 117.426 127.61C118.243 128.804 119.869 129.696 121.148 129.751C121.82 129.781 121.9 129.754 122.32 129.699C122.702 129.649 123.039 129.55 123.355 129.406C123.645 129.273 123.889 129.098 124.08 128.853C124.257 128.626 124.36 128.306 124.385 127.934C124.41 127.576 124.31 127.288 124.145 127.057C123.965 126.804 123.717 126.611 123.419 126.456C123.084 126.282 122.698 126.171 122.274 126.091C121.819 126.005 121.365 125.93 120.925 125.866C120.198 125.774 119.476 125.625 118.779 125.427C118.058 125.221 117.414 124.93 116.863 124.563C116.291 124.181 115.83 123.687 115.491 123.093C115.147 122.483 114.987 121.794 115.026 120.922C115.064 120.044 115.282 119.273 115.674 118.629C116.061 117.991 116.569 117.466 117.186 117.067C117.788 116.676 118.482 116.39 119.247 116.216C120.734 115.878 122.222 115.934 123.698 116.401C125.287 116.905 126.564 118.126 127.153 118.99C127.261 119.148 127.368 119.399 127.138 119.659C126.908 119.918 125.504 121.291 125.504 121.291C125.201 121.58 124.892 121.514 124.72 121.26C123.858 119.994 122.749 119.426 121.463 119.342C120.084 119.25 118.534 119.56 118.47 121.005Z" fill="white"/>
<path d="M111.362 118.25C110.595 117.519 109.692 116.957 108.677 116.576C107.669 116.199 106.587 116.007 105.465 116.007C104.357 116.007 103.28 116.199 102.266 116.576C101.243 116.956 100.332 117.518 99.5587 118.249C98.7841 118.98 98.1613 119.888 97.7061 120.947C97.2498 122.005 97.0195 123.215 97.0195 124.547C97.0195 125.892 97.2466 127.107 97.6933 128.157C98.1411 129.208 98.7565 130.112 99.5227 130.843C100.289 131.573 101.193 132.137 102.209 132.517C103.217 132.895 104.298 133.086 105.42 133.086C106.65 133.086 107.797 132.879 108.831 132.469C109.869 132.057 110.774 131.465 111.518 130.709C112.259 129.956 112.846 129.045 113.263 128.001C113.678 126.96 113.889 125.798 113.889 124.547C113.889 123.216 113.657 122.005 113.202 120.946C112.746 119.888 112.127 118.98 111.362 118.25ZM110.004 126.844C109.743 127.484 109.384 128.025 108.936 128.453C108.487 128.883 107.959 129.21 107.368 129.428C106.768 129.65 106.117 129.762 105.436 129.762C104.739 129.762 104.08 129.65 103.481 129.428C102.892 129.211 102.374 128.886 101.942 128.459C101.506 128.03 101.152 127.486 100.89 126.844C100.627 126.198 100.494 125.432 100.494 124.569C100.494 123.705 100.627 122.94 100.89 122.293C101.151 121.652 101.509 121.11 101.95 120.681C102.391 120.253 102.915 119.922 103.508 119.696C104.108 119.467 104.764 119.353 105.459 119.353C106.139 119.353 106.787 119.467 107.386 119.697C107.977 119.921 108.501 120.255 108.941 120.69C109.384 121.127 109.742 121.675 110.004 122.316C110.268 122.964 110.402 123.721 110.402 124.569C110.402 125.432 110.268 126.197 110.004 126.844Z" fill="white"/>
<path d="M157.534 118.25C156.767 117.519 155.864 116.957 154.848 116.576C153.84 116.199 152.759 116.007 151.637 116.007C150.529 116.007 149.452 116.199 148.437 116.576C147.414 116.956 146.504 117.518 145.731 118.249C144.956 118.98 144.333 119.888 143.878 120.947C143.422 122.005 143.191 123.215 143.191 124.547C143.191 125.892 143.418 127.107 143.865 128.157C144.313 129.208 144.928 130.112 145.694 130.843C146.461 131.573 147.365 132.137 148.381 132.517C149.389 132.895 150.469 133.086 151.592 133.086C152.822 133.086 153.969 132.879 155.002 132.469C156.041 132.057 156.946 131.465 157.69 130.709C158.431 129.956 159.018 129.045 159.435 128.001C159.849 126.96 160.061 125.798 160.061 124.547C160.061 123.216 159.829 122.005 159.374 120.946C158.918 119.888 158.299 118.98 157.534 118.25ZM156.176 126.844C155.915 127.484 155.556 128.025 155.107 128.453C154.659 128.883 154.131 129.21 153.54 129.428C152.94 129.65 152.289 129.762 151.608 129.762C150.911 129.762 150.252 129.65 149.652 129.428C149.063 129.211 148.546 128.886 148.114 128.459C147.678 128.03 147.324 127.486 147.062 126.844C146.799 126.198 146.665 125.432 146.665 124.569C146.665 123.705 146.799 122.94 147.062 122.293C147.323 121.652 147.681 121.11 148.122 120.681C148.563 120.253 149.087 119.922 149.68 119.696C150.279 119.467 150.936 119.353 151.631 119.353C152.31 119.353 152.959 119.467 153.558 119.697C154.149 119.921 154.672 120.255 155.113 120.69C155.556 121.127 155.914 121.675 156.176 122.316C156.44 122.964 156.574 123.721 156.574 124.569C156.574 125.432 156.44 126.197 156.176 126.844Z" fill="white"/>
<path d="M80.0475 116.245H77.712C77.416 116.245 77.174 116.487 77.174 116.783V127.047C77.174 127.484 77.1008 127.868 76.9565 128.186C76.8122 128.504 76.6138 128.773 76.3655 128.985C76.1097 129.205 75.801 129.376 75.4487 129.493C75.0858 129.615 74.4725 129.675 74.0449 129.675C73.6162 129.675 72.9678 129.614 72.5965 129.492C72.2357 129.374 71.9195 129.203 71.6563 128.981C71.4027 128.769 71.2022 128.503 71.059 128.186C70.9146 127.867 70.8414 127.484 70.8414 127.047V116.783C70.8414 116.487 70.5995 116.245 70.3024 116.245H67.9765C67.6794 116.245 67.4374 116.487 67.4374 116.783V127.128C67.4374 128.077 67.6157 128.93 67.9659 129.664C68.315 130.395 68.802 131.025 69.4132 131.538C70.018 132.047 70.7268 132.435 71.5205 132.691C72.3025 132.943 73.1525 133.072 74.0449 133.072C74.9234 133.072 75.7649 132.943 76.5469 132.691C77.3427 132.434 78.0462 132.045 78.6383 131.534C79.2315 131.022 79.709 130.392 80.057 129.664C80.4082 128.929 80.5854 128.076 80.5854 127.128V116.783C80.5854 116.487 80.3446 116.245 80.0475 116.245Z" fill="white"/>
<path d="M96.4098 131.926L92.6291 127.237C92.6291 127.237 95.6818 126.126 95.6818 122.254C95.6818 121.457 95.5481 120.687 95.2839 119.965C95.0155 119.234 94.6144 118.587 94.0923 118.039C93.5724 117.495 92.9325 117.056 92.1898 116.733C91.4459 116.409 90.5981 116.245 89.6718 116.245H83.5196C83.2235 116.245 82.9816 116.487 82.9816 116.783V132.288C82.9816 132.586 83.2235 132.827 83.5196 132.827H85.8402C86.1373 132.827 86.3792 132.586 86.3792 132.288L86.3782 119.65H89.8235C90.1907 119.65 90.527 119.717 90.8252 119.848C91.1266 119.981 91.3886 120.163 91.6041 120.39C91.8163 120.614 91.9829 120.89 92.0964 121.209C92.2152 121.541 92.2757 121.9 92.2757 122.279C92.2757 122.654 92.2131 123.011 92.089 123.34C91.9669 123.665 91.794 123.948 91.5765 124.184C91.3621 124.417 91.1159 124.564 90.822 124.695C90.5334 124.826 90.0156 124.904 89.0076 124.904H87.5666C87.2811 124.904 87.0626 125.161 87.2811 125.514L92.6694 132.602C92.7702 132.743 92.9336 132.827 93.1076 132.827H96.0829C96.5212 132.827 96.814 132.424 96.4098 131.926Z" fill="white"/>
<path d="M175.092 131.926L171.311 127.237C171.311 127.237 174.364 126.126 174.364 122.254C174.364 121.457 174.23 120.687 173.966 119.965C173.697 119.234 173.296 118.587 172.774 118.039C172.254 117.495 171.614 117.056 170.872 116.733C170.128 116.409 169.28 116.245 168.354 116.245H162.201C161.905 116.245 161.663 116.487 161.663 116.783V132.288C161.663 132.586 161.905 132.827 162.201 132.827H164.522C164.819 132.827 165.061 132.586 165.061 132.288L165.06 119.65H168.505C168.872 119.65 169.209 119.717 169.507 119.848C169.808 119.981 170.07 120.163 170.286 120.39C170.498 120.614 170.665 120.89 170.778 121.209C170.897 121.541 170.957 121.9 170.957 122.279C170.957 122.654 170.895 123.011 170.771 123.34C170.649 123.665 170.476 123.948 170.258 124.184C170.044 124.417 169.798 124.564 169.504 124.695C169.215 124.826 168.697 124.904 167.689 124.904H166.248C165.963 124.904 165.744 125.161 165.963 125.514L171.351 132.602C171.452 132.743 171.615 132.827 171.789 132.827H174.765C175.203 132.827 175.496 132.424 175.092 131.926Z" fill="white"/>
<path d="M209.444 133.093H193.994C193.688 133.093 193.438 132.845 193.438 132.537V116.555C193.438 116.249 193.688 116 193.994 116H209.444C209.751 116 210 116.249 210 116.555V132.537C210 132.845 209.751 133.093 209.444 133.093Z" fill="#D50032"/>
<path d="M197.983 129.747V130.086C197.983 130.295 198.135 130.465 198.344 130.465H205.519H205.525C205.734 130.465 205.886 130.295 205.886 130.086V128.426C205.886 128.234 205.729 128.048 205.51 128.048H202.149L204.241 125.246C205.489 123.637 205.762 121.839 205.081 120.464C204.51 119.311 203.309 118.649 201.783 118.649C199.405 118.667 198.066 119.965 198.013 122.302L198.002 122.857C198.002 123.083 198.165 123.225 198.391 123.225H200.006C200.215 123.225 200.372 123.06 200.384 122.847L200.409 122.338C200.444 121.714 200.699 120.968 201.723 120.968C202.553 120.968 202.969 121.496 202.99 122.035C203.014 122.63 202.867 123.077 202.347 123.756L198.168 129.263C198.046 129.411 197.983 129.533 197.983 129.747Z" fill="white"/>
</svg>
