<svg width="250" height="250" viewBox="0 0 250 250" fill="none" xmlns="http://www.w3.org/2000/svg">
<rect width="250" height="250" fill="#C71A78"/>
<path d="M171.598 113.853C175.44 113.853 178.538 116.95 178.538 120.791C178.538 124.632 175.44 127.731 171.598 127.731C167.756 127.731 164.659 124.632 164.659 120.791C164.659 116.95 167.756 113.853 171.598 113.853Z" fill="white"/>
<path d="M151.017 122.091C153.433 122.091 154.424 123.642 154.424 125.004C154.424 126.429 153.124 127.792 151.017 127.792H147.36V122.091H151.017Z" fill="white"/>
<path d="M151.017 113.79C152.318 113.79 153.619 114.782 153.619 116.207C153.619 117.445 152.379 118.685 151.017 118.685H147.36V113.79H151.017Z" fill="white"/>
<path fill-rule="evenodd" clip-rule="evenodd" d="M210 161.255L137.713 153.014V88.7449H201.982L210 161.255ZM171.474 109.639C165.342 109.639 160.323 114.595 160.323 120.791C160.323 126.925 165.342 131.943 171.474 131.943H171.598C177.733 131.881 182.689 126.925 182.689 120.791C182.689 114.658 177.733 109.7 171.598 109.639C171.598 109.639 171.537 109.639 171.474 109.639ZM143.396 118.685H140.483L140.474 122.091H143.396V131.572H151.078C157.522 131.572 158.824 126.615 158.824 125.129C158.824 122.65 157.398 120.667 155.415 120.11C157.274 118.933 157.646 117.137 157.646 116.145C157.646 114.224 156.283 110.01 151.017 110.01H143.394L143.396 118.685ZM188.102 120.635L181.224 131.478H185.933L190.209 123.919L194.546 131.478H199.256L192.44 120.635L199.069 110.104H194.361L190.209 117.538L186.12 110.104H181.411L188.102 120.635Z" fill="white"/>
<path d="M110.927 132.106V131.222C111.037 131.148 111.146 131.066 111.252 130.978C111.819 130.497 112.308 129.788 112.728 128.85C113.067 128.093 113.36 127.321 113.615 126.539C113.865 125.754 114.075 124.986 114.24 124.234C114.411 123.484 114.532 122.771 114.62 122.108C114.702 121.443 114.741 120.849 114.741 120.322C114.741 119.196 114.56 118.346 114.207 117.78C113.849 117.207 113.321 116.924 112.627 116.924C112.043 116.924 111.477 117.17 110.927 117.653V116.567C111.531 116.32 112.128 116.197 112.728 116.197C113.568 116.203 114.301 116.439 114.928 116.908C115.556 117.376 116.045 118.029 116.392 118.872C116.739 119.716 116.915 120.71 116.92 121.848C116.92 123.217 116.706 124.546 116.282 125.833C115.853 127.123 115.22 128.349 114.378 129.509C113.712 130.416 112.941 131.116 112.077 131.607C111.702 131.818 111.319 131.984 110.927 132.106ZM134.61 127.012L134.081 126.702C133.377 128.279 132.721 129.464 132.127 130.261C131.532 131.053 130.971 131.451 130.449 131.451C130.233 131.451 130.063 131.375 129.942 131.225C129.822 131.076 129.755 130.862 129.755 130.585C129.755 130.48 129.773 130.302 129.816 130.053C129.859 129.804 129.938 129.492 130.053 129.128L132.23 122.021C132.381 121.536 132.49 121.08 132.556 120.646C132.628 120.218 132.662 119.82 132.662 119.454C132.662 118.78 132.551 118.202 132.336 117.717C132.122 117.231 131.824 116.857 131.433 116.596C131.043 116.331 130.586 116.197 130.053 116.197C129.05 116.197 128.016 116.77 126.937 117.902C125.859 119.039 124.797 120.738 123.746 122.991C124.142 121.26 124.34 119.907 124.34 118.938C124.334 118.035 124.175 117.354 123.861 116.891C123.548 116.429 123.09 116.197 122.49 116.197C121.506 116.197 120.626 116.684 119.844 117.658C119.062 118.629 118.341 120.098 117.67 122.056L118.264 122.265C118.92 120.618 119.519 119.381 120.069 118.55C120.62 117.723 121.16 117.308 121.697 117.308C121.929 117.308 122.094 117.387 122.204 117.549C122.309 117.711 122.359 117.965 122.359 118.311C122.365 118.629 122.325 119.127 122.248 119.803C122.17 120.479 122.039 121.31 121.842 122.299C121.644 123.287 121.362 124.408 121.004 125.662L119.222 131.867H121.567L122.458 128.92C122.662 128.227 122.876 127.499 123.102 126.742C123.333 125.985 123.596 125.206 123.904 124.402C124.214 123.598 124.588 122.783 125.027 121.947C125.463 121.115 125.996 120.271 126.619 119.421C127.163 118.675 127.684 118.116 128.181 117.735C128.677 117.358 129.144 117.168 129.591 117.168C129.938 117.168 130.208 117.29 130.392 117.52C130.586 117.757 130.679 118.104 130.679 118.553C130.679 118.866 130.634 119.246 130.547 119.7C130.46 120.15 130.316 120.669 130.119 121.26L128.335 126.772C128.148 127.354 127.994 127.904 127.867 128.41C127.746 128.915 127.68 129.41 127.675 129.892C127.68 130.695 127.862 131.301 128.219 131.717C128.578 132.137 129.09 132.345 129.755 132.351C130.603 132.351 131.378 132.029 132.093 131.386C132.804 130.752 133.437 129.787 133.983 128.505L134.61 127.012ZM110.927 116.567V117.653C110.856 117.716 110.784 117.785 110.713 117.856C110.102 118.479 109.53 119.404 108.995 120.635C108.682 121.373 108.407 122.125 108.171 122.877C107.939 123.628 107.741 124.363 107.581 125.067C107.427 125.777 107.311 126.436 107.229 127.048C107.152 127.655 107.113 128.187 107.113 128.642C107.119 129.619 107.328 130.37 107.741 130.897C108.153 131.422 108.726 131.688 109.458 131.693C109.971 131.693 110.461 131.534 110.927 131.222V132.106C110.41 132.267 109.876 132.349 109.326 132.351C108.395 132.345 107.609 132.144 106.953 131.739C106.299 131.334 105.803 130.746 105.457 129.983C105.11 129.221 104.94 128.303 104.934 127.222C104.934 125.899 105.138 124.592 105.545 123.309C105.952 122.033 106.552 120.814 107.344 119.665C107.867 118.912 108.424 118.278 109.018 117.763C109.613 117.249 110.227 116.861 110.856 116.596L110.927 116.567ZM70.1821 130.478V129.134L70.2104 129.071C70.3043 128.873 70.4298 128.718 70.5849 128.607C70.7392 128.492 70.9094 128.435 71.0854 128.435C71.3712 128.442 71.5914 128.551 71.756 128.77C71.9216 128.983 72.0041 129.278 72.0098 129.648C72.0042 129.804 71.9881 129.976 71.9608 130.163C71.9325 130.353 71.916 130.55 71.9107 130.757C71.916 131.013 72.0976 131.225 72.4503 131.409C72.8022 131.59 73.2918 131.688 73.9248 131.693C74.5737 131.688 75.1365 131.578 75.5982 131.358C76.0599 131.133 76.4123 130.827 76.6594 130.42C76.9018 130.024 77.0282 129.56 77.0282 129.024C77.0235 128.522 76.9462 128.054 76.7867 127.62C76.6269 127.192 76.4123 126.772 76.1368 126.361C75.8679 125.944 75.5595 125.518 75.2128 125.072C74.7775 124.499 74.387 123.963 74.0351 123.466C73.6833 122.964 73.4021 122.46 73.1875 121.952C72.9781 121.45 72.8739 120.905 72.8683 120.322C72.8796 119.549 73.072 118.855 73.4465 118.236C73.8257 117.619 74.3436 117.122 74.9982 116.758C75.6473 116.393 76.3958 116.203 77.2263 116.197C77.8536 116.203 78.3932 116.307 78.8451 116.503C79.2912 116.7 79.6318 116.954 79.8685 117.267C80.111 117.573 80.2317 117.902 80.2317 118.243C80.2317 118.572 80.1496 118.832 79.9898 119.01C79.8355 119.189 79.6044 119.283 79.3073 119.283C79.0535 119.277 78.8507 119.196 78.6904 119.039C78.5366 118.878 78.4545 118.658 78.4489 118.381C78.4545 118.26 78.4654 118.145 78.4819 118.04C78.5026 117.93 78.5149 117.825 78.5149 117.723C78.5149 117.486 78.3932 117.29 78.1461 117.122C77.9032 116.948 77.5414 116.861 77.0622 116.857C76.5726 116.861 76.149 116.958 75.7845 117.157C75.4166 117.354 75.1307 117.624 74.927 117.965C74.7233 118.307 74.6237 118.699 74.619 119.142C74.6237 119.52 74.7115 119.888 74.8879 120.253C75.0652 120.618 75.3057 121.004 75.6038 121.402C75.9005 121.807 76.2312 122.258 76.6009 122.749C77.0669 123.357 77.4692 123.933 77.8036 124.482C78.1461 125.03 78.4092 125.575 78.597 126.112C78.779 126.65 78.8776 127.205 78.8776 127.775C78.8724 128.659 78.6573 129.446 78.2395 130.132C77.8272 130.82 77.2381 131.358 76.4783 131.751C75.7189 132.144 74.8218 132.345 73.7927 132.351C73.0107 132.345 72.34 132.23 71.7843 132.011C71.2287 131.786 70.8043 131.48 70.508 131.086C70.3647 130.898 70.2562 130.695 70.1821 130.478ZM70.1821 126.863C70.2227 126.72 70.2638 126.573 70.3024 126.424L70.1821 126.376V126.863ZM95.8411 126.772L95.3115 126.459C94.6351 128.02 94.0126 129.191 93.4471 129.971C92.8787 130.752 92.357 131.139 91.8778 131.139C91.6797 131.139 91.5198 131.069 91.3996 130.936C91.2836 130.799 91.2179 130.602 91.2179 130.342C91.2179 130.169 91.2345 129.966 91.2788 129.741C91.3165 129.509 91.3826 129.25 91.4807 128.955L93.2975 123.235C93.5729 122.328 93.7715 121.548 93.8861 120.883C94.0022 120.224 94.0635 119.7 94.0573 119.318C94.0522 118.323 93.8267 117.559 93.3805 117.035C92.9343 116.503 92.3118 116.237 91.5147 116.231C90.6459 116.231 89.7257 116.7 88.763 117.624C87.7957 118.553 86.7542 119.94 85.6378 121.78L89.4677 106.905L84.3823 107.563L84.1842 108.396C84.3323 108.379 84.4761 108.362 84.6087 108.35C84.7398 108.332 84.8615 108.326 84.9756 108.326C85.4718 108.321 85.835 108.374 86.0774 108.495C86.3151 108.615 86.4307 108.836 86.4307 109.158C86.4307 109.297 86.4132 109.436 86.3915 109.569C86.3642 109.701 86.3302 109.836 86.2967 109.956L80.6845 131.867H82.9626C83.5135 129.423 84.1295 127.284 84.8115 125.452C85.4935 123.628 86.1991 122.101 86.9358 120.883C87.6678 119.671 88.3885 118.756 89.0927 118.151C89.7973 117.538 90.4534 117.238 91.0534 117.238C91.3661 117.238 91.6142 117.347 91.784 117.567C91.9552 117.786 92.0429 118.104 92.0429 118.52C92.0429 118.762 92.0099 119.097 91.933 119.526C91.8561 119.952 91.7297 120.46 91.5477 121.05L89.7318 126.84C89.562 127.36 89.4238 127.857 89.3135 128.337C89.1974 128.816 89.1422 129.283 89.137 129.752C89.137 130.55 89.3031 131.151 89.6379 131.542C89.9685 131.941 90.4747 132.144 91.1505 132.144C92.0986 132.144 92.9513 131.699 93.705 130.809C94.4592 129.92 95.1738 128.573 95.8411 126.772ZM104.217 109.263C104.212 108.98 104.151 108.731 104.025 108.518C103.904 108.298 103.739 108.125 103.53 107.997C103.321 107.871 103.09 107.809 102.831 107.809C102.566 107.809 102.324 107.871 102.11 107.997C101.895 108.125 101.73 108.298 101.603 108.518C101.477 108.731 101.418 108.98 101.411 109.263C101.421 109.685 101.553 110.031 101.807 110.303C102.066 110.569 102.396 110.707 102.798 110.719C103.057 110.713 103.287 110.651 103.502 110.522C103.716 110.402 103.888 110.228 104.02 110.008C104.146 109.79 104.212 109.54 104.217 109.263ZM103.986 127.083L103.524 126.772C103.034 127.775 102.577 128.62 102.165 129.297C101.753 129.976 101.355 130.486 100.987 130.832C100.618 131.174 100.25 131.347 99.8912 131.347C99.7044 131.341 99.5564 131.27 99.4403 131.133C99.3253 130.995 99.2701 130.815 99.2649 130.585C99.2649 130.289 99.3696 129.804 99.5714 129.128C99.7762 128.452 100.073 127.586 100.453 126.527L101.411 123.858C101.812 122.749 102.126 121.772 102.352 120.93C102.577 120.08 102.692 119.345 102.699 118.728C102.692 117.953 102.506 117.347 102.148 116.908C101.784 116.463 101.284 116.237 100.652 116.231C99.9087 116.231 99.1767 116.647 98.4499 117.486C97.7292 118.318 97.0179 119.577 96.3255 121.26L96.8877 121.501C97.5264 120.062 98.1249 118.988 98.6975 118.272C99.2649 117.556 99.7488 117.203 100.156 117.203C100.326 117.203 100.465 117.276 100.58 117.423C100.689 117.567 100.744 117.775 100.751 118.035C100.751 118.381 100.657 118.866 100.469 119.491C100.288 120.115 100.029 120.877 99.6932 121.78L98.4716 125.107C98.1027 126.073 97.8169 126.956 97.6094 127.753C97.3938 128.544 97.2887 129.272 97.2835 129.925C97.2887 130.676 97.4693 131.254 97.8225 131.664C98.1745 132.069 98.665 132.278 99.2974 132.283C100.167 132.283 100.987 131.85 101.753 130.982C102.522 130.116 103.266 128.816 103.986 127.083ZM60.3741 109.436C60.3684 109.026 60.2307 108.657 59.9552 108.332C59.6803 108.004 59.3006 107.743 58.811 107.547C58.52 107.432 58.2035 107.352 57.8592 107.302V108.109C58.0111 108.184 58.129 108.28 58.2111 108.396C58.3106 108.535 58.387 108.696 58.4365 108.881C58.4865 109.068 58.5346 109.263 58.5907 109.471C58.6785 109.731 58.8054 109.933 58.9705 110.084C59.1412 110.228 59.3332 110.298 59.5487 110.303C59.7845 110.291 59.9826 110.205 60.1373 110.038C60.2911 109.87 60.3684 109.668 60.3741 109.436ZM70.1821 126.376V126.863C69.6869 128.604 69.0827 129.938 68.3762 130.855C67.6117 131.85 66.7589 132.351 65.8123 132.351C65.151 132.351 64.6501 132.174 64.3096 131.82C63.9686 131.467 63.7974 130.947 63.7974 130.27C63.7974 130.012 63.8309 129.654 63.9082 129.204C63.9794 128.747 64.0954 128.192 64.2596 127.532C63.6219 129.146 62.8616 130.353 61.9819 131.151C61.1014 131.952 60.0769 132.351 58.9101 132.351C58.5332 132.349 58.1832 132.301 57.8592 132.207V130.583C58.0196 130.898 58.2333 131.146 58.4931 131.323C58.779 131.52 59.1035 131.624 59.4722 131.624C60.1878 131.624 60.8589 131.312 61.481 130.695C62.1027 130.069 62.7352 129.146 63.3691 127.914C64.0511 126.616 64.6011 125.383 65.0246 124.234C65.4482 123.08 65.7575 122.049 65.949 121.15C66.1486 120.248 66.2415 119.52 66.2415 118.971C66.2353 118.34 66.0764 117.844 65.7679 117.48C65.4599 117.115 65.0416 116.93 64.5237 116.924C63.7974 116.924 63.0658 117.29 62.322 118.011C61.5844 118.739 60.8429 119.82 60.1 121.26C59.2299 122.947 58.5856 124.454 58.1724 125.783C58.0497 126.177 57.9465 126.555 57.8592 126.914V120.863C57.9333 120.751 58.0083 120.641 58.0856 120.531C58.7615 119.584 59.4676 118.792 60.1996 118.151C60.9363 117.514 61.6513 117.035 62.356 116.717C63.055 116.393 63.7044 116.231 64.2936 116.231C64.9421 116.237 65.493 116.435 65.9387 116.826C66.3896 117.225 66.6981 117.786 66.8688 118.52L67.3645 116.684C67.3961 116.578 67.4465 116.508 67.5177 116.463C67.5838 116.422 67.6772 116.404 67.7932 116.404C68.2224 116.404 68.5526 116.457 68.7733 116.555C68.9988 116.659 69.1143 116.804 69.1143 116.993C69.1143 117.081 69.103 117.191 69.0865 117.313C69.0695 117.44 69.0488 117.559 69.0148 117.688L66.2415 127.775C66.0924 128.337 65.9825 128.856 65.917 129.33C65.8443 129.804 65.8123 130.198 65.8123 130.515C65.8179 130.781 65.8896 130.987 66.0325 131.146C66.1698 131.301 66.3514 131.375 66.5716 131.382C67.0235 131.382 67.5177 130.947 68.0635 130.087C68.6073 129.221 69.1742 127.932 69.7746 126.217L70.1821 126.376ZM70.1821 129.134C70.1067 129.315 70.0666 129.523 70.0614 129.752C70.0647 130.009 70.1053 130.252 70.1821 130.478V129.134ZM57.8592 107.302C57.63 107.272 57.3913 107.256 57.138 107.252C56.0981 107.252 55.1727 107.525 54.3586 108.072C53.5497 108.621 52.8229 109.447 52.1909 110.552C51.5579 111.656 50.9806 113.043 50.4674 114.705L49.6751 117.238H46.7366L46.6046 118.069H49.5109L45.8117 134.917C45.5358 136.199 45.2778 137.281 45.0415 138.147C44.8048 139.013 44.5349 139.673 44.227 140.111C43.919 140.557 43.5218 140.776 43.0379 140.776C42.7248 140.77 42.4936 140.7 42.3446 140.568C42.2012 140.436 42.0918 140.262 42.0262 140.048C41.9531 139.834 41.888 139.604 41.8168 139.355C41.7338 139.106 41.6022 138.909 41.4315 138.76C41.2551 138.603 41.04 138.529 40.7919 138.523C40.5287 138.523 40.3306 138.609 40.1981 138.772C40.0665 138.934 40 139.164 40 139.458C40 140.061 40.2202 140.533 40.6551 140.892C41.089 141.244 41.7338 141.422 42.5757 141.435C43.4511 141.435 44.2001 141.238 44.8208 140.845C45.4367 140.452 45.9763 139.846 46.4291 139.037C46.8791 138.223 47.2913 137.187 47.6719 135.935C48.0459 134.681 48.4261 133.2 48.8176 131.485L51.8876 118.069H55.2222L55.2887 117.238H52.0852L52.8455 113.978C53.3077 111.967 53.886 110.459 54.5727 109.452C55.2557 108.448 56.049 107.947 56.94 107.947C57.2913 107.947 57.5673 107.986 57.7658 108.067C57.7979 108.08 57.8299 108.095 57.8592 108.109V107.302ZM57.8592 120.863V126.914C57.6554 127.764 57.5526 128.512 57.5569 129.163C57.5621 129.671 57.6461 130.11 57.8101 130.48C57.8253 130.515 57.8432 130.55 57.8592 130.583V132.207C57.5564 132.119 57.2763 131.991 57.0173 131.82C56.4839 131.467 56.0764 130.959 55.7858 130.295C55.4934 129.637 55.3495 128.845 55.3444 127.914C55.3444 127.227 55.4491 126.481 55.6519 125.666C55.8566 124.858 56.1594 124.02 56.565 123.148C56.922 122.387 57.3527 121.626 57.8592 120.863Z" fill="white"/>
<path d="M60.3741 109.436C60.3684 109.026 60.2307 108.657 59.9552 108.332C59.6803 108.004 59.3006 107.743 58.811 107.547C58.3261 107.357 57.771 107.259 57.138 107.252C56.0981 107.252 55.1727 107.525 54.3586 108.072C53.5497 108.621 52.8229 109.447 52.1909 110.552C51.5579 111.656 50.9806 113.043 50.4674 114.705L49.6751 117.238H46.7366L46.6046 118.069H49.5109L45.8117 134.917C45.5358 136.199 45.2778 137.281 45.0415 138.147C44.8048 139.013 44.5349 139.673 44.227 140.111C43.919 140.557 43.5218 140.776 43.0379 140.776C42.7248 140.77 42.4936 140.7 42.3446 140.568C42.2012 140.436 42.0918 140.262 42.0262 140.048C41.9531 139.834 41.888 139.604 41.8168 139.355C41.7338 139.106 41.6022 138.909 41.4315 138.76C41.2551 138.603 41.04 138.529 40.7919 138.523C40.5287 138.523 40.3306 138.609 40.1981 138.772C40.0665 138.934 40 139.164 40 139.458C40 140.061 40.2202 140.533 40.6551 140.892C41.089 141.244 41.7338 141.422 42.5757 141.435C43.4511 141.435 44.2001 141.238 44.8208 140.845C45.4367 140.452 45.9763 139.846 46.4291 139.037C46.8791 138.223 47.2913 137.187 47.6719 135.935C48.0459 134.681 48.4261 133.2 48.8176 131.485L51.8876 118.069H55.2222L55.2887 117.238H52.0852L52.8455 113.978C53.3077 111.967 53.886 110.459 54.5727 109.452C55.2557 108.448 56.049 107.947 56.94 107.947C57.2913 107.947 57.5673 107.986 57.7658 108.067C57.963 108.148 58.112 108.259 58.2111 108.396C58.3106 108.535 58.387 108.696 58.4365 108.881C58.4865 109.068 58.5346 109.263 58.5907 109.471C58.6785 109.731 58.8054 109.933 58.9705 110.084C59.1412 110.228 59.3332 110.298 59.5487 110.303C59.7845 110.291 59.9826 110.205 60.1373 110.038C60.2911 109.87 60.3684 109.668 60.3741 109.436ZM70.3024 126.424L69.7746 126.217C69.1742 127.932 68.6073 129.221 68.0635 130.087C67.5177 130.947 67.0235 131.382 66.5716 131.382C66.3514 131.375 66.1698 131.301 66.0325 131.146C65.8896 130.987 65.8179 130.781 65.8123 130.515C65.8123 130.198 65.8443 129.804 65.917 129.33C65.9825 128.856 66.0924 128.337 66.2415 127.775L69.0148 117.688C69.0488 117.559 69.0695 117.44 69.0865 117.313C69.103 117.191 69.1143 117.081 69.1143 116.993C69.1143 116.804 68.9988 116.659 68.7733 116.555C68.5526 116.457 68.2224 116.404 67.7932 116.404C67.6772 116.404 67.5838 116.422 67.5177 116.463C67.4465 116.508 67.3961 116.578 67.3645 116.684L66.8688 118.52C66.698 117.786 66.3896 117.225 65.9387 116.826C65.493 116.435 64.9421 116.237 64.2936 116.231C63.7044 116.231 63.055 116.393 62.356 116.717C61.6513 117.035 60.9363 117.514 60.1996 118.151C59.4676 118.792 58.7615 119.584 58.0856 120.531C57.48 121.402 56.9725 122.276 56.565 123.148C56.1594 124.02 55.8566 124.858 55.6519 125.666C55.4491 126.481 55.3444 127.227 55.3444 127.914C55.3495 128.845 55.4934 129.637 55.7858 130.295C56.0764 130.959 56.4839 131.467 57.0173 131.82C57.5522 132.174 58.179 132.345 58.9101 132.351C60.0769 132.351 61.1014 131.952 61.9819 131.151C62.8616 130.353 63.6219 129.146 64.2596 127.532C64.0954 128.192 63.9794 128.747 63.9082 129.204C63.8309 129.654 63.7974 130.012 63.7974 130.27C63.7974 130.947 63.9686 131.467 64.3096 131.82C64.6501 132.174 65.151 132.351 65.8123 132.351C66.7589 132.351 67.6117 131.85 68.3762 130.855C69.1412 129.862 69.7855 128.382 70.3024 126.424ZM66.2415 118.971C66.2415 119.52 66.1486 120.248 65.949 121.15C65.7575 122.049 65.4482 123.08 65.0246 124.234C64.6011 125.383 64.0511 126.616 63.3691 127.914C62.7352 129.146 62.1027 130.069 61.481 130.695C60.8589 131.312 60.1878 131.624 59.4722 131.624C59.1035 131.624 58.779 131.52 58.4931 131.323C58.2063 131.126 57.9752 130.843 57.8101 130.48C57.6461 130.11 57.5621 129.671 57.5569 129.163C57.5522 128.238 57.7611 127.11 58.1724 125.783C58.5856 124.454 59.2299 122.947 60.1 121.26C60.8429 119.82 61.5844 118.739 62.322 118.011C63.0658 117.29 63.7974 116.924 64.5237 116.924C65.0416 116.93 65.4599 117.115 65.7679 117.48C66.0764 117.844 66.2353 118.34 66.2415 118.971ZM80.2317 118.243C80.2317 117.902 80.111 117.573 79.8685 117.267C79.6318 116.954 79.2912 116.7 78.8451 116.503C78.3932 116.307 77.8536 116.203 77.2263 116.197C76.3958 116.203 75.6473 116.393 74.9982 116.758C74.3436 117.122 73.8257 117.619 73.4465 118.236C73.072 118.855 72.8796 119.549 72.8683 120.322C72.8739 120.905 72.9781 121.45 73.1875 121.952C73.4021 122.46 73.6833 122.964 74.0351 123.466C74.387 123.963 74.7775 124.499 75.2128 125.072C75.5595 125.518 75.8679 125.944 76.1368 126.361C76.4123 126.772 76.6269 127.192 76.7867 127.62C76.9462 128.054 77.0235 128.522 77.0282 129.024C77.0282 129.56 76.9018 130.024 76.6594 130.42C76.4123 130.827 76.0599 131.133 75.5982 131.358C75.1365 131.578 74.5737 131.688 73.9248 131.693C73.2918 131.688 72.8022 131.59 72.4503 131.409C72.0976 131.225 71.916 131.013 71.9107 130.757C71.916 130.55 71.9325 130.353 71.9608 130.163C71.9881 129.976 72.0041 129.804 72.0098 129.648C72.0042 129.278 71.9216 128.983 71.756 128.77C71.5914 128.551 71.3712 128.442 71.0854 128.435C70.9094 128.435 70.7392 128.492 70.5849 128.607C70.4298 128.718 70.3043 128.873 70.2104 129.071C70.1176 129.267 70.0675 129.499 70.0614 129.752C70.0675 130.254 70.2162 130.699 70.508 131.086C70.8043 131.48 71.2287 131.786 71.7843 132.011C72.34 132.23 73.0107 132.345 73.7927 132.351C74.8218 132.345 75.7189 132.144 76.4783 131.751C77.2381 131.358 77.8272 130.82 78.2395 130.132C78.6573 129.446 78.8724 128.659 78.8776 127.775C78.8776 127.205 78.779 126.65 78.597 126.112C78.4092 125.575 78.1461 125.03 77.8036 124.482C77.4692 123.933 77.0669 123.357 76.6009 122.749C76.2312 122.258 75.9005 121.807 75.6038 121.402C75.3057 121.004 75.0652 120.618 74.8879 120.253C74.7115 119.888 74.6237 119.52 74.619 119.142C74.6237 118.699 74.7233 118.307 74.927 117.965C75.1307 117.624 75.4166 117.354 75.7845 117.157C76.149 116.958 76.5726 116.861 77.0622 116.857C77.5414 116.861 77.9032 116.948 78.1461 117.122C78.3932 117.29 78.5149 117.486 78.5149 117.723C78.5149 117.825 78.5026 117.93 78.4819 118.04C78.4654 118.145 78.4545 118.26 78.4489 118.381C78.4545 118.658 78.5366 118.878 78.6904 119.039C78.8507 119.196 79.0535 119.277 79.3073 119.283C79.6044 119.283 79.8355 119.189 79.9898 119.01C80.1496 118.832 80.2317 118.572 80.2317 118.243ZM95.8411 126.772L95.3115 126.459C94.6351 128.02 94.0126 129.191 93.4471 129.971C92.8787 130.752 92.357 131.139 91.8778 131.139C91.6797 131.139 91.5198 131.069 91.3996 130.936C91.2836 130.799 91.2179 130.602 91.2179 130.342C91.2179 130.169 91.2345 129.966 91.2788 129.741C91.3165 129.509 91.3826 129.25 91.4807 128.955L93.2975 123.235C93.5729 122.328 93.7715 121.548 93.8861 120.883C94.0022 120.224 94.0635 119.7 94.0573 119.318C94.0522 118.323 93.8267 117.559 93.3805 117.035C92.9343 116.503 92.3118 116.237 91.5147 116.231C90.6459 116.231 89.7257 116.7 88.763 117.624C87.7957 118.553 86.7542 119.94 85.6378 121.78L89.4677 106.905L84.3823 107.563L84.1842 108.396C84.3323 108.379 84.4761 108.362 84.6087 108.35C84.7398 108.332 84.8615 108.326 84.9756 108.326C85.4718 108.321 85.835 108.374 86.0774 108.495C86.3151 108.615 86.4307 108.836 86.4307 109.158C86.4307 109.297 86.4132 109.436 86.3915 109.569C86.3642 109.701 86.3302 109.836 86.2967 109.956L80.6845 131.867H82.9626C83.5135 129.423 84.1295 127.284 84.8115 125.452C85.4935 123.628 86.1991 122.101 86.9358 120.883C87.6678 119.671 88.3885 118.756 89.0927 118.151C89.7973 117.538 90.4534 117.238 91.0534 117.238C91.3661 117.238 91.6142 117.347 91.784 117.567C91.9552 117.786 92.0429 118.104 92.0429 118.52C92.0429 118.762 92.0099 119.097 91.933 119.526C91.8561 119.952 91.7297 120.46 91.5477 121.05L89.7318 126.84C89.562 127.36 89.4238 127.857 89.3135 128.337C89.1974 128.816 89.1422 129.283 89.137 129.752C89.137 130.55 89.3031 131.151 89.6379 131.542C89.9685 131.941 90.4747 132.144 91.1505 132.144C92.0986 132.144 92.9513 131.699 93.705 130.809C94.4592 129.92 95.1738 128.573 95.8411 126.772ZM104.217 109.263C104.212 108.98 104.151 108.731 104.025 108.518C103.904 108.298 103.739 108.125 103.53 107.997C103.321 107.871 103.09 107.809 102.831 107.809C102.566 107.809 102.324 107.871 102.11 107.997C101.895 108.125 101.73 108.298 101.603 108.518C101.477 108.731 101.418 108.98 101.411 109.263C101.421 109.685 101.553 110.031 101.807 110.303C102.066 110.569 102.396 110.707 102.798 110.719C103.057 110.713 103.287 110.651 103.502 110.522C103.716 110.402 103.888 110.228 104.02 110.008C104.146 109.79 104.212 109.54 104.217 109.263ZM103.986 127.083L103.524 126.772C103.034 127.775 102.577 128.62 102.165 129.297C101.753 129.976 101.355 130.486 100.987 130.832C100.618 131.174 100.25 131.347 99.8912 131.347C99.7044 131.341 99.5564 131.27 99.4403 131.133C99.3253 130.995 99.2701 130.815 99.2649 130.585C99.2649 130.289 99.3696 129.804 99.5714 129.128C99.7762 128.452 100.073 127.586 100.453 126.527L101.411 123.858C101.812 122.749 102.126 121.772 102.352 120.93C102.577 120.08 102.692 119.345 102.699 118.728C102.692 117.953 102.506 117.347 102.148 116.908C101.784 116.463 101.284 116.237 100.652 116.231C99.9087 116.231 99.1767 116.647 98.4499 117.486C97.7292 118.318 97.0179 119.577 96.3255 121.26L96.8877 121.501C97.5264 120.062 98.1249 118.988 98.6975 118.272C99.2649 117.556 99.7488 117.203 100.156 117.203C100.326 117.203 100.465 117.276 100.58 117.423C100.689 117.567 100.744 117.775 100.751 118.035C100.751 118.381 100.657 118.866 100.469 119.491C100.288 120.115 100.029 120.877 99.6932 121.78L98.4716 125.107C98.1027 126.073 97.8169 126.956 97.6094 127.753C97.3938 128.544 97.2887 129.272 97.2835 129.925C97.2887 130.676 97.4693 131.254 97.8225 131.664C98.1745 132.069 98.665 132.278 99.2974 132.283C100.167 132.283 100.987 131.85 101.753 130.982C102.522 130.116 103.266 128.816 103.986 127.083ZM116.92 121.848C116.915 120.71 116.739 119.716 116.392 118.872C116.045 118.029 115.556 117.376 114.928 116.908C114.301 116.439 113.568 116.203 112.728 116.197C112.105 116.197 111.483 116.331 110.856 116.596C110.227 116.861 109.613 117.249 109.018 117.763C108.424 118.278 107.867 118.912 107.344 119.665C106.552 120.814 105.952 122.033 105.545 123.309C105.138 124.592 104.934 125.899 104.934 127.222C104.94 128.303 105.11 129.221 105.457 129.983C105.803 130.746 106.299 131.334 106.953 131.739C107.609 132.144 108.395 132.345 109.326 132.351C110.294 132.345 111.208 132.098 112.077 131.607C112.941 131.116 113.712 130.416 114.378 129.509C115.22 128.349 115.853 127.123 116.282 125.833C116.706 124.546 116.92 123.217 116.92 121.848ZM114.741 120.322C114.741 120.849 114.702 121.443 114.62 122.108C114.532 122.771 114.411 123.484 114.24 124.234C114.075 124.986 113.865 125.754 113.615 126.539C113.36 127.321 113.067 128.093 112.728 128.85C112.308 129.788 111.819 130.497 111.252 130.978C110.69 131.451 110.09 131.693 109.458 131.693C108.726 131.688 108.153 131.422 107.741 130.897C107.328 130.37 107.119 129.619 107.113 128.642C107.113 128.187 107.152 127.655 107.229 127.048C107.311 126.436 107.427 125.777 107.581 125.067C107.741 124.363 107.939 123.628 108.171 122.877C108.407 122.125 108.682 121.373 108.995 120.635C109.53 119.404 110.102 118.479 110.713 117.856C111.33 117.238 111.967 116.924 112.627 116.924C113.321 116.924 113.849 117.207 114.207 117.78C114.56 118.346 114.741 119.196 114.741 120.322ZM134.61 127.012L134.081 126.702C133.377 128.279 132.721 129.464 132.127 130.261C131.532 131.053 130.971 131.451 130.449 131.451C130.233 131.451 130.063 131.375 129.942 131.225C129.822 131.076 129.755 130.862 129.755 130.585C129.755 130.48 129.773 130.302 129.816 130.053C129.859 129.804 129.938 129.492 130.053 129.128L132.23 122.021C132.381 121.536 132.49 121.08 132.556 120.646C132.628 120.218 132.662 119.82 132.662 119.454C132.662 118.78 132.551 118.202 132.336 117.717C132.122 117.231 131.824 116.857 131.433 116.596C131.043 116.331 130.586 116.197 130.053 116.197C129.05 116.197 128.016 116.77 126.937 117.902C125.859 119.039 124.797 120.738 123.746 122.991C124.142 121.26 124.34 119.907 124.34 118.938C124.334 118.035 124.175 117.354 123.861 116.891C123.548 116.429 123.09 116.197 122.49 116.197C121.506 116.197 120.626 116.684 119.844 117.658C119.062 118.629 118.341 120.098 117.67 122.056L118.264 122.265C118.92 120.618 119.519 119.381 120.069 118.55C120.62 117.723 121.16 117.308 121.697 117.308C121.929 117.308 122.094 117.387 122.204 117.549C122.309 117.711 122.359 117.965 122.359 118.311C122.365 118.629 122.325 119.127 122.248 119.803C122.17 120.479 122.039 121.31 121.842 122.299C121.644 123.287 121.362 124.408 121.004 125.662L119.222 131.867H121.567L122.458 128.92C122.662 128.227 122.876 127.499 123.102 126.742C123.333 125.985 123.596 125.206 123.904 124.402C124.214 123.598 124.588 122.783 125.027 121.947C125.463 121.115 125.996 120.271 126.619 119.421C127.163 118.675 127.684 118.116 128.181 117.735C128.677 117.358 129.144 117.168 129.591 117.168C129.938 117.168 130.208 117.29 130.392 117.52C130.586 117.757 130.679 118.104 130.679 118.553C130.679 118.866 130.634 119.246 130.547 119.7C130.46 120.15 130.316 120.669 130.119 121.26L128.335 126.772C128.148 127.354 127.994 127.904 127.867 128.41C127.746 128.915 127.68 129.41 127.675 129.892C127.68 130.695 127.862 131.301 128.219 131.717C128.578 132.137 129.09 132.345 129.755 132.351C130.603 132.351 131.378 132.029 132.093 131.386C132.804 130.752 133.437 129.787 133.983 128.505L134.61 127.012Z" fill="white"/>
</svg>
