<svg width="250" height="250" viewBox="0 0 250 250" fill="none" xmlns="http://www.w3.org/2000/svg">
<rect width="250" height="250" fill="#F48120"/>
<path d="M162.766 111.479C167.279 111.479 170.918 115.117 170.918 119.629C170.918 124.139 167.279 127.78 162.766 127.78C158.254 127.78 154.616 124.139 154.616 119.629C154.616 115.117 158.254 111.479 162.766 111.479Z" fill="white"/>
<path d="M138.606 121.373C141.444 121.373 142.609 123.194 142.609 124.795C142.609 126.468 141.081 128.069 138.606 128.069H134.311V121.373H138.606Z" fill="white"/>
<path d="M138.606 111.623C140.134 111.623 141.663 112.789 141.663 114.462C141.663 115.916 140.206 117.373 138.606 117.373H134.311V111.623H138.606Z" fill="white"/>
<path fill-rule="evenodd" clip-rule="evenodd" d="M210 168.397L123.474 158.533V81.6031H200.403L210 168.397ZM162.621 106.529C155.418 106.529 149.523 112.351 149.523 119.629C149.523 126.833 155.418 132.727 162.621 132.727H162.766C169.972 132.654 175.793 126.833 175.793 119.629C175.793 112.425 169.972 106.602 162.766 106.529H162.621ZM129.655 117.373H126.234L126.224 121.373H129.655V132.509H138.678C146.247 132.509 147.776 126.687 147.776 124.941C147.776 122.029 146.102 119.701 143.772 119.046C145.956 117.664 146.392 115.554 146.392 114.389C146.392 112.133 144.791 107.184 138.606 107.184H129.653L129.655 117.373ZM182.416 119.773L174.337 132.509H179.869L184.89 123.63L189.984 132.509H195.516L187.511 119.773L195.297 107.403H189.767L184.89 116.135L180.088 107.403H174.557L182.416 119.773Z" fill="white"/>
<path d="M44.054 111.196V118.61H54.4625V122.262H44.054V132.963H40V107.398H57.2015V111.196H44.054Z" fill="white"/>
<path d="M73.0148 127.156H61.0724L58.6986 132.963H54.3526L65.1627 107.398H68.9245L79.7348 132.963H75.3888L73.0148 127.156ZM71.5541 123.613L68.2671 115.615C67.7194 114.227 67.0985 112.291 67.062 112.291H67.0255C66.9888 112.291 66.3681 114.227 65.8201 115.615L62.5334 123.613H71.5541Z" fill="white"/>
<path d="M95.0364 114.848C94.4522 111.999 92.0416 110.392 89.3027 110.392C86.454 110.392 84.5183 111.78 84.5183 113.825C84.5183 116.272 87.7321 117.076 91.0191 118.098C94.6713 119.267 99.2361 121.057 99.2361 125.841C99.2361 130.26 95.4016 133.474 89.7043 133.474C84.2628 133.474 80.6836 130.333 79.5881 125.877L83.4593 124.818C83.9341 127.484 86.1618 129.858 89.8504 129.858C93.1009 129.858 95 128.178 95 125.987C95 122.81 91.0556 122.152 87.4401 120.947C84.4454 119.924 80.3913 118.5 80.3913 114.045C80.3913 110.064 84.2261 106.886 89.4852 106.886C94.2329 106.886 97.958 109.699 98.9076 113.789L95.0364 114.848Z" fill="white"/>
<path d="M120.345 107.398V111.196H112.055V132.963H108.037V111.196H99.7834V107.398H120.345Z" fill="white"/>
<path d="M61.1857 153.66L59.7203 155.126L57.1047 152.536C55.5126 154.515 53.6172 155.505 51.4186 155.505C49.7928 155.505 48.4197 155 47.2995 153.989C46.1452 152.945 45.5684 151.626 45.5684 150.034C45.5684 148.004 46.6971 146.18 48.9546 144.563C47.4972 143.03 46.7687 141.75 46.7687 140.722C46.7687 139.517 47.1898 138.536 48.0323 137.778C48.8494 137.036 49.8728 136.666 51.1028 136.666C52.3325 136.666 53.3644 137.032 54.1985 137.765C55.0745 138.532 55.5126 139.517 55.5126 140.722C55.5126 142.154 54.4512 143.582 52.3283 145.005L56.8266 149.466C57.3487 148.413 57.61 146.93 57.61 145.018H59.5432C59.5347 147.318 59.1092 149.234 58.2672 150.767L61.1857 153.66ZM55.6137 151.134L50.433 145.991C48.6388 147.162 47.7417 148.488 47.7417 149.971C47.7417 151.057 48.1291 151.929 48.9042 152.586C49.6453 153.21 50.572 153.521 51.684 153.521C53.175 153.521 54.4847 152.725 55.6137 151.134ZM53.3266 140.722C53.3266 140.065 53.1137 139.549 52.6884 139.174C52.263 138.799 51.7175 138.611 51.0523 138.611C49.6453 138.611 48.942 139.315 48.942 140.722C48.942 141.252 49.1652 141.8 49.6118 142.364C49.8222 142.634 50.2518 143.068 50.9007 143.666C51.6755 143.203 52.2274 142.803 52.5559 142.465C53.0695 141.943 53.3266 141.362 53.3266 140.722Z" fill="white"/>
<path d="M66.8761 139.817V145.07H74.2509V147.658H66.8761V155.24H64.0039V137.126H76.1917V139.817H66.8761Z" fill="white"/>
<path d="M93.5294 137.126V147.554C93.5294 152.781 90.6571 155.602 85.896 155.602C81.1345 155.602 78.2882 152.781 78.2882 147.554V137.126H81.1604V147.529C81.1604 151.177 82.7647 152.937 85.896 152.937C89.0529 152.937 90.683 151.177 90.683 147.529V137.126H93.5294Z" fill="white"/>
<path d="M111.98 137.126V155.24H109.289L102.69 146.338C101.086 144.139 99.5336 141.887 99.5075 141.887H99.4818C99.4561 141.887 99.5336 144.32 99.5336 147.554V155.24H96.6613V137.126H99.3524L106.003 146.054C107.297 147.813 109.108 150.349 109.134 150.349H109.16C109.185 150.349 109.108 147.684 109.108 144.838V137.126H111.98Z" fill="white"/>
</svg>
