<svg width="250" height="250" viewBox="0 0 250 250" fill="none" xmlns="http://www.w3.org/2000/svg">
<rect width="250" height="250" fill="#FF6B1B"/>
<path d="M210 97.9062V152.094H73.8062L40 126.742V97.9062H210Z" fill="white"/>
<path d="M47.528 103.59H59.5709V108.211H52.9793V111.719H58.959V116.34H52.9793V124.581H47.528V103.59ZM63.3551 124.581H68.8064V103.59H63.3551V124.581ZM78.6613 103.59H73.21V124.581H85.1973V119.96H78.6613V103.59ZM107.419 103.59C106.564 105.31 102.993 112.173 102.11 114.086C101.74 114.887 101.473 115.563 101.292 116.008C101.237 115.552 101.153 114.896 101.028 114.086C100.738 112.216 98.8458 103.841 98.789 103.59H93.5079L86.8942 124.581C88.7311 124.58 90.5679 124.579 92.4047 124.577C92.9804 122.365 95.035 115.936 95.4653 114.086C95.6049 113.485 96.1027 111.389 96.1939 110.957C96.2607 111.679 96.4082 112.764 96.5881 114.086C96.8661 116.127 98.4107 122.504 98.84 124.571C99.7848 124.575 100.73 124.578 101.674 124.581C102.773 122.456 105.851 116.291 106.995 114.086C107.552 113.013 107.887 112.063 108.122 111.487C108.112 111.741 108.015 112.796 108.014 114.086C108.013 117.248 108.197 122.104 108.254 124.57L113.582 124.581L112.923 103.59H107.419ZM133.885 118.735C133.885 123.133 130.13 124.581 126.292 124.581H117.893V103.59H125.68C129.407 103.59 131.91 105.038 131.91 109.047C131.91 110.94 131.299 112.471 129.602 113.334V113.39C132.606 113.779 133.885 115.812 133.885 118.735ZM123.344 111.83H123.956C125.402 111.83 126.904 111.58 126.904 109.798C126.904 107.877 125.207 107.766 123.734 107.766H123.344V111.83ZM128.378 118.178C128.378 115.645 125.68 115.895 123.9 115.895H123.344V120.405H124.039C125.653 120.405 128.378 120.489 128.378 118.178ZM159.337 113.696C159.337 120.489 154.469 125.277 147.739 125.277C141.008 125.277 136.141 120.489 136.141 113.696C136.141 107.348 141.704 102.894 147.739 102.894C153.774 102.894 159.337 107.348 159.337 113.696ZM153.663 113.724C153.663 110.828 150.993 108.184 147.739 108.184C144.485 108.184 141.815 110.828 141.815 113.724C141.815 117.343 144.485 119.988 147.739 119.988C150.993 119.988 153.663 117.343 153.663 113.724ZM180.141 103.59H173.438L170.24 109.019L167.041 103.59H160.338L167.041 113.362L158.837 124.581H165.428L170.24 117.733L174.634 124.581H181.198L173.438 113.362L180.141 103.59ZM195.86 110.234V103.205H189.672V110.234H181.933V116.428H189.672V124.581H195.86V116.428H203.599V110.234H195.86Z" fill="#FF6B1B"/>
<path d="M169.785 134.026C171.642 134.026 173.142 134.53 174.283 135.538C175.424 136.546 175.995 137.879 175.995 139.537C175.995 141.295 175.41 142.728 174.24 143.836C173.071 144.943 171.557 145.497 169.7 145.497C167.772 145.497 166.212 144.972 165.021 143.921C163.83 142.871 163.234 141.495 163.234 139.794C163.234 138.107 163.844 136.724 165.064 135.645C166.283 134.566 167.857 134.026 169.785 134.026ZM169.827 137.178C169.09 137.178 168.477 137.454 167.988 138.004C167.499 138.554 167.254 139.244 167.254 140.073C167.254 140.773 167.449 141.327 167.839 141.734C168.229 142.142 168.757 142.345 169.423 142.345C170.16 142.345 170.767 142.067 171.242 141.509C171.717 140.952 171.954 140.251 171.954 139.408C171.954 138.736 171.763 138.196 171.38 137.789C170.997 137.382 170.479 137.178 169.827 137.178ZM182.864 134.348L182.523 135.742C183.262 135.098 183.916 134.652 184.485 134.402C185.053 134.152 185.7 134.026 186.425 134.026C187.718 134.026 188.606 134.294 189.09 134.83C189.573 135.366 189.815 136.199 189.815 137.328C189.815 137.843 189.779 138.422 189.708 139.065L188.962 145.176H184.975L185.572 140.394C185.628 139.851 185.657 139.408 185.657 139.065C185.657 137.922 185.167 137.35 184.186 137.35C183.561 137.35 183.095 137.571 182.79 138.014C182.484 138.458 182.267 139.215 182.139 140.287L181.542 145.176H177.555L178.877 134.348H182.864ZM203.536 140.566H195.671C195.671 141.295 195.817 141.831 196.109 142.174C196.401 142.517 196.86 142.689 197.486 142.689C198.321 142.689 198.821 142.317 198.988 141.574H203.244C202.715 142.932 201.993 143.925 201.074 144.554C200.157 145.183 198.946 145.497 197.444 145.497C195.72 145.497 194.336 145.022 193.293 144.071C192.25 143.121 191.728 141.824 191.728 140.18C191.728 138.379 192.34 136.903 193.564 135.752C194.788 134.602 196.332 134.026 198.196 134.026C199.836 134.026 201.148 134.516 202.128 135.495C203.109 136.474 203.599 137.793 203.599 139.451C203.599 139.551 203.588 139.73 203.567 139.987C203.547 140.244 203.536 140.437 203.536 140.566ZM195.922 138.314H199.614C199.531 137.2 198.953 136.642 197.883 136.642C196.825 136.642 196.172 137.2 195.922 138.314Z" fill="#FF6B1B"/>
</svg>
