<svg width="250" height="250" viewBox="0 0 250 250" fill="none" xmlns="http://www.w3.org/2000/svg">
<rect width="250" height="250" fill="#D1506F"/>
<path d="M42.9891 119.387V124.253H50.7164V126.765H42.9891V132.902H40V116.907H51.7022V119.387H42.9891Z" fill="white"/>
<path d="M53.4511 116.907H56.4403V132.934H53.4511V116.907Z" fill="white"/>
<path d="M59.5883 116.907H62.5775V130.422H70.9725V132.934H59.5883V116.907Z" fill="white"/>
<path d="M86.904 132.934L86.8722 122.313L81.5935 131.121H80.258L74.9793 122.472V132.966H72.1491V116.907H74.5977L80.9576 127.528L87.222 116.907H89.6706L89.7024 132.934H86.904Z" fill="white"/>
<path d="M93.2007 126.097V116.907H94.8861V126.033C94.8861 129.849 96.6668 131.567 99.7832 131.567C102.931 131.567 104.712 129.818 104.712 126.033V116.907H106.366V126.097C106.366 130.708 103.885 133.093 99.7832 133.093C95.681 133.093 93.2007 130.676 93.2007 126.097Z" fill="white"/>
<path d="M120.039 128.641H111.104L109.196 132.934H107.415L114.729 116.907H116.414L123.728 132.934H121.947L120.039 128.641ZM119.435 127.274L115.587 118.656L111.74 127.274H119.435Z" fill="white"/>
<path d="M125.699 116.907H131.773C136.829 116.907 140.232 120.31 140.232 124.92C140.232 129.531 136.829 132.934 131.773 132.934H125.699V116.907ZM131.71 132.489C136.607 132.489 139.755 129.277 139.755 124.92C139.755 120.532 136.607 117.352 131.71 117.352H126.145V132.489H131.71Z" fill="white"/>
<path d="M154.86 132.934L150.789 127.274C150.217 127.401 149.581 127.433 148.913 127.433H143.952V132.934H143.507V116.907H148.945C152.888 116.907 155.241 118.847 155.241 122.186C155.241 124.761 153.81 126.542 151.298 127.178L155.432 132.934H154.86ZM148.945 127.019C152.697 127.019 154.732 125.27 154.732 122.186C154.732 119.133 152.697 117.352 148.945 117.352H143.921V127.019H148.945Z" fill="white"/>
<path d="M169.583 128.1H159.789L157.531 132.934H157.022L164.463 116.907H164.908L172.349 132.934H171.809L169.583 128.1ZM169.392 127.655L164.686 117.511L159.979 127.655H169.392Z" fill="white"/>
<path d="M191.397 116.907V132.934H190.952V117.893L183.638 130.676H183.352L176.038 117.956V132.966H175.593V116.907H175.974L183.479 130.04L191.016 116.907H191.397Z" fill="white"/>
<path d="M207.233 128.1H197.439L195.181 132.934H194.641L202.114 116.907H202.559L210 132.934H209.459L207.233 128.1ZM207.011 127.655L202.336 117.511L197.63 127.655H207.011Z" fill="white"/>
</svg>
