<svg width="250" height="250" viewBox="0 0 250 250" fill="none" xmlns="http://www.w3.org/2000/svg">
<rect width="250" height="250" fill="#280045"/>
<mask id="mask0_313_229" style="mask-type:luminance" maskUnits="userSpaceOnUse" x="40" y="97" width="170" height="56">
<path d="M210 97.5806H40V152.419H210V97.5806Z" fill="white"/>
</mask>
<g mask="url(#mask0_313_229)">
<path fill-rule="evenodd" clip-rule="evenodd" d="M210.013 107.728H199.866V97.5806H190.459V107.728H180.312V117.05H190.459V127.197H199.866V117.05H210.013V107.728Z" fill="#00ACC6"/>
<path fill-rule="evenodd" clip-rule="evenodd" d="M59.019 97.5806C52.9865 97.5806 46.6754 102.606 46.6754 110.288V115.678H40.0001V127.197H46.6754V152.419H58.194V127.197H69.7125V115.678H58.1082V109.003H69.6268V97.5806H59.019Z" fill="white"/>
<path d="M87.8099 115.678H76.2914V152.419H87.8099V115.678Z" fill="white"/>
<path d="M87.8099 97.5806H76.2914V109.099H87.8099V97.5806Z" fill="white"/>
<path d="M108.565 97.5806H97.0461V152.419H108.565V97.5806Z" fill="white"/>
<path fill-rule="evenodd" clip-rule="evenodd" d="M117.887 152.419H129.405V131.032C129.502 124.539 138.545 124.539 138.727 131.032V152.419H150.246V131.032C150.342 124.539 159.385 124.539 159.568 131.032V152.419H171.086V129.382C171.086 122.075 166.704 115.667 157.746 115.667C153.085 115.667 149.613 117.403 146.956 119.782C144.76 117.221 141.384 115.582 136.906 115.667C133.98 115.667 131.516 116.31 129.416 117.5V115.667H117.897V152.409" fill="white"/>
</g>
</svg>
