<svg width="250" height="250" viewBox="0 0 250 250" fill="none" xmlns="http://www.w3.org/2000/svg">
<rect width="250" height="250" fill="#DEAF01"/>
<path d="M210 97.9062V152.094H73.8062L40 126.742V97.9062H210Z" fill="white"/>
<path d="M123.434 137.236C123.887 137.236 124.277 137.308 124.603 137.45C124.928 137.592 125.283 137.839 125.665 138.193L126.069 134.854C125.077 134.358 123.993 134.109 122.818 134.109C121.118 134.109 119.708 134.676 118.589 135.811C117.469 136.945 116.91 138.363 116.91 140.065C116.91 141.668 117.384 142.973 118.334 143.979C119.283 144.987 120.516 145.49 122.031 145.49C122.754 145.49 123.697 145.299 124.858 144.915L125.261 141.534C124.511 142.086 123.788 142.362 123.094 142.362C122.442 142.362 121.918 142.15 121.521 141.725C121.124 141.3 120.926 140.74 120.926 140.044C120.926 139.25 121.167 138.584 121.649 138.045C122.131 137.506 122.726 137.236 123.434 137.236ZM137.939 135.609C136.803 134.609 135.31 134.109 133.461 134.109C131.542 134.109 129.975 134.645 128.761 135.715C127.547 136.787 126.94 138.159 126.94 139.832C126.94 141.519 127.534 142.883 128.719 143.927C129.905 144.969 131.457 145.49 133.378 145.49C135.225 145.49 136.733 144.94 137.898 143.842C139.062 142.743 139.644 141.32 139.644 139.577C139.644 137.932 139.076 136.609 137.939 135.609ZM134.912 141.534C134.439 142.086 133.835 142.362 133.102 142.362C132.438 142.362 131.912 142.161 131.524 141.756C131.136 141.352 130.942 140.802 130.942 140.108C130.942 139.286 131.186 138.602 131.673 138.056C132.159 137.509 132.769 137.236 133.504 137.236C134.153 137.236 134.669 137.438 135.049 137.842C135.431 138.247 135.622 138.783 135.622 139.449C135.622 140.286 135.385 140.98 134.912 141.534ZM159.446 134.897C158.961 134.372 158.087 134.109 156.824 134.109C156.052 134.109 155.361 134.251 154.75 134.534C154.14 134.818 153.511 135.294 152.867 135.96C152.515 135.279 152.107 134.8 151.645 134.524C151.181 134.248 150.557 134.109 149.771 134.109C149.013 134.109 148.357 134.24 147.802 134.503C147.248 134.766 146.682 135.215 146.107 135.854L146.423 134.428H142.485L141.18 145.17H145.117L145.728 140.044C145.925 138.286 146.584 137.406 147.707 137.406C148.101 137.406 148.412 137.52 148.645 137.747C148.876 137.974 148.991 138.272 148.991 138.641C148.991 138.796 148.964 139.108 148.907 139.577L148.233 145.17H152.149L152.761 140.044C152.872 139.095 153.083 138.417 153.393 138.012C153.7 137.608 154.158 137.406 154.76 137.406C155.196 137.406 155.53 137.527 155.761 137.768C155.992 138.009 156.108 138.357 156.108 138.811C156.108 139.038 156.073 139.413 156.003 139.938L155.372 145.17H159.267L159.983 139.513C160.109 138.448 160.172 137.69 160.172 137.236C160.172 136.202 159.93 135.421 159.446 134.897ZM172.408 135.566C171.441 134.596 170.15 134.109 168.533 134.109C166.698 134.109 165.177 134.681 163.97 135.821C162.765 136.963 162.161 138.427 162.161 140.214C162.161 141.846 162.676 143.133 163.703 144.075C164.731 145.018 166.094 145.49 167.794 145.49C169.273 145.49 170.466 145.178 171.37 144.554C172.273 143.93 172.986 142.945 173.508 141.597H169.315C169.151 142.334 168.657 142.703 167.834 142.703C167.218 142.703 166.766 142.533 166.478 142.192C166.191 141.852 166.046 141.32 166.046 140.598H173.794C173.794 140.47 173.805 140.278 173.826 140.023C173.847 139.768 173.857 139.59 173.857 139.492C173.857 137.847 173.374 136.538 172.408 135.566ZM166.294 138.363C166.54 137.257 167.184 136.705 168.225 136.705C169.28 136.705 169.849 137.257 169.931 138.363H166.294ZM185.059 129.256L184.24 135.811C183.695 135.187 183.158 134.748 182.633 134.493C182.107 134.237 181.48 134.109 180.751 134.109C179.211 134.109 177.921 134.73 176.884 135.97C175.848 137.212 175.329 138.754 175.329 140.598C175.329 142.058 175.729 143.239 176.528 144.139C177.326 145.04 178.37 145.49 179.659 145.49C180.374 145.49 181.015 145.366 181.582 145.118C182.15 144.87 182.748 144.461 183.379 143.894L183.106 145.17H186.993L188.989 129.256H185.059ZM183.232 141.534C182.77 142.086 182.181 142.362 181.467 142.362C180.192 142.362 179.554 141.612 179.554 140.108C179.554 139.271 179.761 138.584 180.174 138.045C180.587 137.506 181.143 137.236 181.844 137.236C182.488 137.236 182.997 137.438 183.368 137.842C183.739 138.247 183.926 138.783 183.926 139.449C183.926 140.286 183.695 140.98 183.232 141.534ZM193.55 150.707L203.652 134.428H199.126L197.043 137.811C196.873 138.095 196.633 138.52 196.321 139.087C196.051 139.554 195.824 139.995 195.641 140.405C195.428 139.299 195.138 138.278 194.77 137.342L193.601 134.428H189.223L193.006 144.319L189.105 150.707H193.55Z" fill="#DEAF01"/>
<path d="M47.528 103.59H59.5709V108.211H52.9792V111.719H58.959V116.34H52.9792V124.581H47.528V103.59ZM63.3551 124.581H68.8064V103.59H63.3551V124.581ZM78.6612 103.59H73.2099V124.581H85.1973V119.96H78.6612V103.59ZM107.419 103.59C106.564 105.31 102.993 112.173 102.11 114.086C101.74 114.887 101.473 115.563 101.292 116.008C101.237 115.552 101.153 114.896 101.028 114.086C100.738 112.216 98.8458 103.841 98.7889 103.59H93.5079L86.8942 124.581C88.731 124.58 90.5679 124.579 92.4047 124.577C92.9804 122.365 95.035 115.936 95.4653 114.086C95.6049 113.485 96.1027 111.389 96.1939 110.957C96.2607 111.679 96.4082 112.764 96.5881 114.086C96.8661 116.127 98.4106 122.504 98.84 124.571C99.7848 124.575 100.73 124.578 101.674 124.581C102.773 122.456 105.851 116.291 106.995 114.086C107.552 113.013 107.887 112.063 108.122 111.487C108.112 111.741 108.015 112.796 108.014 114.086C108.013 117.248 108.197 122.104 108.253 124.57L113.582 124.581L112.923 103.59H107.419ZM133.885 118.735C133.885 123.133 130.13 124.581 126.292 124.581H117.893V103.59H125.68C129.407 103.59 131.91 105.038 131.91 109.047C131.91 110.94 131.299 112.471 129.602 113.334V113.39C132.606 113.779 133.885 115.812 133.885 118.735ZM123.344 111.83H123.956C125.402 111.83 126.904 111.58 126.904 109.798C126.904 107.877 125.207 107.766 123.734 107.766H123.344V111.83ZM128.378 118.178C128.378 115.645 125.68 115.895 123.9 115.895H123.344V120.405H124.039C125.653 120.405 128.378 120.489 128.378 118.178ZM159.337 113.696C159.337 120.489 154.469 125.277 147.739 125.277C141.008 125.277 136.141 120.489 136.141 113.696C136.141 107.348 141.704 102.894 147.739 102.894C153.774 102.894 159.337 107.348 159.337 113.696ZM153.663 113.724C153.663 110.828 150.993 108.184 147.739 108.184C144.485 108.184 141.815 110.828 141.815 113.724C141.815 117.343 144.485 119.988 147.739 119.988C150.993 119.988 153.663 117.343 153.663 113.724ZM180.141 103.59H173.438L170.24 109.019L167.041 103.59H160.338L167.041 113.362L158.837 124.581H165.428L170.24 117.733L174.634 124.581H181.198L173.438 113.362L180.141 103.59ZM195.86 110.234V103.205H189.672V110.234H181.933V116.428H189.672V124.581H195.86V116.428H203.599V110.234H195.86Z" fill="#DEAF01"/>
</svg>
