<svg width="250" height="250" viewBox="0 0 250 250" fill="none" xmlns="http://www.w3.org/2000/svg">
<rect width="250" height="250" fill="url(#paint0_linear_343_12)"/>
<path d="M210 97.9062V152.094H73.8062L40 126.742V97.9062H210Z" fill="#004C8D"/>
<path d="M175.988 135.119C175.374 134.484 174.503 134.166 173.372 134.166C172.272 134.166 171.121 134.59 169.922 135.437L170.726 129.287H166.792L164.776 145.188H168.736L169.349 140.101C169.462 139.126 169.674 138.441 169.984 138.045C170.296 137.65 170.769 137.451 171.404 137.451C172.363 137.451 172.843 138.017 172.843 139.147C172.843 139.372 172.788 139.959 172.675 140.907L172.145 145.188H176.104L176.761 139.719C176.86 138.928 176.91 138.299 176.91 137.832C176.91 136.66 176.602 135.755 175.988 135.119ZM184.135 129.816C183.895 129.575 183.629 129.399 183.337 129.287C183.08 129.187 182.801 129.138 182.503 129.138C182.202 129.138 181.919 129.187 181.655 129.287C181.351 129.402 181.073 129.581 180.82 129.826C180.347 130.286 180.111 130.834 180.111 131.47C180.111 132.119 180.339 132.677 180.799 133.143C181.258 133.61 181.819 133.843 182.482 133.843C183.131 133.843 183.683 133.613 184.135 133.155C184.586 132.695 184.812 132.134 184.812 131.47C184.812 130.819 184.586 130.268 184.135 129.816ZM180.086 134.484L178.772 145.188H182.733L184.045 134.484H180.086ZM191.415 134.484L191.838 131.05H187.898L187.475 134.484H185.803L185.422 137.514H187.116L186.163 145.188H190.101L191.033 137.514H193.151L193.532 134.484H191.415ZM200.604 138.532L199.121 138.129H199.101C198.819 138.002 198.677 137.839 198.677 137.642C198.677 137.218 199.129 137.006 200.033 137.006C200.823 137.006 201.691 137.317 202.636 137.938L203.589 135.225C202.179 134.491 200.844 134.124 199.588 134.124C198.233 134.124 197.135 134.463 196.294 135.14C195.455 135.82 195.036 136.709 195.036 137.811C195.036 138.659 195.261 139.335 195.713 139.835C196.164 140.338 196.885 140.701 197.872 140.928C198.635 141.111 199.114 141.225 199.312 141.267C199.609 141.365 199.757 141.543 199.757 141.797C199.757 142.022 199.633 142.203 199.387 142.337C199.139 142.471 198.811 142.539 198.401 142.539C197.809 142.539 197.29 142.453 196.846 142.285C196.4 142.115 195.777 141.776 194.971 141.267L193.531 143.875C194.435 144.467 195.261 144.888 196.009 145.134C196.756 145.382 197.569 145.506 198.444 145.506C199.968 145.506 201.179 145.146 202.076 144.425C202.972 143.704 203.421 142.737 203.421 141.52C203.421 140.758 203.194 140.137 202.742 139.656C202.29 139.175 201.578 138.801 200.604 138.532Z" fill="white"/>
<path d="M47.528 103.59H59.5709V108.211H52.9792V111.719H58.959V116.341H52.9792V124.581H47.528V103.59ZM63.3551 124.581H68.8064V103.59H63.3551V124.581ZM78.6612 103.59H73.2099V124.581H85.1973V119.96H78.6612V103.59ZM107.419 103.59C106.564 105.31 102.993 112.173 102.11 114.086C101.74 114.887 101.473 115.563 101.292 116.008C101.237 115.552 101.153 114.896 101.028 114.086C100.738 112.216 98.8458 103.841 98.7889 103.59H93.5079L86.8942 124.581C88.731 124.58 90.5679 124.579 92.4047 124.577C92.9804 122.365 95.035 115.936 95.4653 114.086C95.6049 113.485 96.1027 111.389 96.1939 110.957C96.2607 111.679 96.4082 112.764 96.5881 114.086C96.8661 116.127 98.4106 122.504 98.84 124.571C99.7848 124.575 100.73 124.578 101.674 124.581C102.773 122.456 105.851 116.291 106.995 114.086C107.552 113.013 107.887 112.063 108.122 111.487C108.112 111.741 108.015 112.796 108.014 114.086C108.013 117.248 108.197 122.104 108.253 124.57L113.582 124.581L112.923 103.59H107.419ZM133.885 118.735C133.885 123.134 130.13 124.581 126.292 124.581H117.893V103.59H125.68C129.407 103.59 131.91 105.038 131.91 109.047C131.91 110.94 131.299 112.471 129.602 113.334V113.39C132.606 113.779 133.885 115.812 133.885 118.735ZM123.344 111.83H123.956C125.402 111.83 126.904 111.58 126.904 109.798C126.904 107.877 125.207 107.766 123.734 107.766H123.344V111.83ZM128.378 118.178C128.378 115.645 125.68 115.895 123.9 115.895H123.344V120.405H124.039C125.653 120.405 128.378 120.489 128.378 118.178ZM159.337 113.696C159.337 120.489 154.469 125.277 147.739 125.277C141.008 125.277 136.141 120.489 136.141 113.696C136.141 107.348 141.704 102.894 147.739 102.894C153.774 102.894 159.337 107.348 159.337 113.696ZM153.663 113.724C153.663 110.828 150.993 108.184 147.739 108.184C144.485 108.184 141.815 110.828 141.815 113.724C141.815 117.343 144.485 119.988 147.739 119.988C150.993 119.988 153.663 117.343 153.663 113.724ZM180.141 103.59H173.438L170.24 109.019L167.041 103.59H160.338L167.041 113.362L158.837 124.581H165.428L170.24 117.733L174.634 124.581H181.198L173.438 113.362L180.141 103.59ZM195.86 110.234V103.205H189.672V110.234H181.933V116.428H189.672V124.581H195.86V116.428H203.599V110.234H195.86Z" fill="white"/>
<defs>
<linearGradient id="paint0_linear_343_12" x1="25.5667" y1="79.7706" x2="192.913" y2="177.389" gradientUnits="userSpaceOnUse">
<stop stop-color="#3B9AC0"/>
<stop offset="1" stop-color="#302891"/>
</linearGradient>
</defs>
</svg>
