<svg width="250" height="250" viewBox="0 0 250 250" fill="none" xmlns="http://www.w3.org/2000/svg">
<rect width="250" height="250" fill="white"/>
<path d="M40 115.649H61.3995V121.667H48.6931V126.559H59.546V132.215H48.6931V143.66H40V115.649Z" fill="#047CC0"/>
<path d="M66.4053 115.649H75.08V143.66H66.4053V115.649Z" fill="#047CC0"/>
<path d="M81.29 115.649H89.9453V136.762H103.453V143.659H81.29V115.649Z" fill="#047CC0"/>
<path d="M107.295 115.649H118.678L123.068 132.692L127.426 115.649H138.802V143.66H131.713V122.299L126.252 143.66H119.836L114.384 122.299V143.66H107.296L107.295 115.649Z" fill="#047CC0"/>
<path d="M143.584 151.378V123.367H150.864V126.367C151.87 125.105 152.793 124.252 153.634 123.807C154.768 123.208 156.022 122.908 157.398 122.908C160.11 122.908 162.209 123.946 163.693 126.023C165.176 128.099 165.919 130.666 165.919 133.722C165.919 137.098 165.109 139.675 163.492 141.451C161.874 143.228 159.829 144.116 157.359 144.116C156.161 144.116 155.069 143.913 154.082 143.505C153.095 143.097 152.212 142.492 151.435 141.689V151.377H143.582L143.584 151.378ZM151.38 133.57C151.38 135.174 151.718 136.366 152.393 137.143C153.068 137.92 153.922 138.308 154.953 138.308C155.858 138.308 156.615 137.936 157.227 137.19C157.838 136.445 158.143 135.181 158.143 133.398C158.143 131.755 157.825 130.548 157.188 129.777C156.55 129.007 155.774 128.622 154.857 128.622C153.864 128.622 153.035 129.01 152.373 129.787C151.71 130.564 151.38 131.824 151.38 133.57Z" fill="#D82727"/>
<path d="M169.723 123.368H177.002V126.692C177.702 125.253 178.426 124.263 179.17 123.721C179.915 123.179 180.835 122.91 181.932 122.91C183.077 122.91 184.333 123.266 185.695 123.98L183.287 129.521C182.37 129.139 181.644 128.947 181.109 128.947C180.09 128.947 179.3 129.367 178.74 130.208C177.937 131.393 177.535 133.609 177.535 136.857V143.659H169.721V123.367L169.723 123.368Z" fill="#D82727"/>
<path d="M186.689 133.571C186.689 130.475 187.734 127.925 189.823 125.919C191.911 123.913 194.733 122.91 198.288 122.91C202.351 122.91 205.421 124.088 207.497 126.445C209.166 128.342 210 130.68 210 133.456C210 136.577 208.964 139.135 206.895 141.128C204.826 143.122 201.962 144.118 198.307 144.118C195.046 144.118 192.409 143.29 190.397 141.633C187.925 139.583 186.689 136.896 186.689 133.571ZM194.486 133.551C194.486 135.361 194.851 136.698 195.584 137.564C196.316 138.429 197.237 138.863 198.345 138.863C199.466 138.863 200.386 138.437 201.107 137.583C201.826 136.73 202.186 135.361 202.186 133.475C202.186 131.717 201.824 130.408 201.098 129.548C200.372 128.688 199.474 128.258 198.404 128.258C197.27 128.258 196.334 128.695 195.595 129.567C194.856 130.441 194.486 131.768 194.486 133.551Z" fill="#D82727"/>
<path d="M43.1326 108.238V100.249H40.2793V98.6231H47.9207V100.249H45.0738V108.238H43.1326Z" fill="#231F20"/>
<path d="M64.3672 108.238V98.622H71.4968V100.248H66.3084V102.38H71.1364V104H66.3084V106.617H71.6807V108.237L64.3672 108.238Z" fill="#231F20"/>
<path d="M88.5723 108.238V98.701H90.5134V106.618H95.3415V108.238H88.5723Z" fill="#231F20"/>
<path d="M111.92 108.238V98.622H119.049V100.248H113.861V102.38H118.689V104H113.861V106.617H119.233V108.237L111.92 108.238Z" fill="#231F20"/>
<path d="M138.526 108.238L135.09 98.622H137.196L139.629 105.739L141.984 98.622H144.043L140.599 108.238H138.526Z" fill="#231F20"/>
<path d="M160.168 108.238V98.622H162.109V108.238H160.168Z" fill="#231F20"/>
<path d="M178.319 108.238V106.486L183.37 100.248H178.89V98.622H185.928V100.13L180.661 106.617H186.132V108.237L178.319 108.238Z" fill="#231F20"/>
<path d="M202.552 108.238V98.622H209.681V100.248H204.493V102.38H209.321V104H204.493V106.617H209.865V108.237L202.552 108.238Z" fill="#231F20"/>
</svg>
