<svg width="250" height="250" viewBox="0 0 250 250" fill="none" xmlns="http://www.w3.org/2000/svg">
<rect width="250" height="250" fill="#51177F"/>
<path d="M210 97.9062V152.094H73.8062L40 126.742V97.9062H210Z" fill="white"/>
<path d="M125.203 140.608H117.414C117.414 141.333 117.559 141.867 117.848 142.209C118.137 142.55 118.592 142.721 119.211 142.721C120.038 142.721 120.534 142.351 120.699 141.611H124.913C124.39 142.963 123.674 143.952 122.765 144.578C121.856 145.204 120.658 145.517 119.17 145.517C117.462 145.517 116.092 145.044 115.059 144.098C114.026 143.152 113.51 141.86 113.51 140.223C113.51 138.43 114.115 136.961 115.328 135.815C116.539 134.67 118.068 134.097 119.914 134.097C121.539 134.097 122.837 134.584 123.808 135.559C124.779 136.534 125.265 137.847 125.265 139.498C125.265 139.597 125.254 139.775 125.234 140.031C125.213 140.287 125.203 140.48 125.203 140.608ZM117.662 138.366H121.319C121.236 137.256 120.664 136.701 119.604 136.701C118.557 136.701 117.91 137.256 117.662 138.366ZM132.001 134.417L131.685 135.847C132.261 135.207 132.826 134.755 133.382 134.492C133.937 134.229 134.594 134.097 135.353 134.097C136.14 134.097 136.765 134.236 137.229 134.513C137.693 134.791 138.1 135.271 138.451 135.954C139.098 135.285 139.727 134.809 140.338 134.524C140.949 134.239 141.641 134.097 142.414 134.097C143.679 134.097 144.554 134.36 145.039 134.887C145.524 135.413 145.766 136.196 145.766 137.235C145.766 137.69 145.703 138.452 145.576 139.519L144.86 145.197H140.96L141.592 139.946C141.662 139.42 141.698 139.042 141.698 138.815C141.698 138.359 141.582 138.011 141.35 137.769C141.118 137.527 140.784 137.406 140.349 137.406C139.744 137.406 139.287 137.608 138.978 138.014C138.669 138.42 138.458 139.099 138.346 140.053L137.735 145.197H133.814L134.488 139.583C134.544 139.113 134.573 138.801 134.573 138.644C134.573 138.274 134.457 137.975 134.225 137.747C133.993 137.52 133.68 137.406 133.287 137.406C132.162 137.406 131.502 138.288 131.305 140.053L130.694 145.197H126.752L128.059 134.417H132.001ZM154.179 134.097C156.023 134.097 157.512 134.599 158.646 135.602C159.78 136.605 160.347 137.932 160.347 139.583C160.347 141.333 159.766 142.76 158.604 143.863C157.442 144.966 155.939 145.517 154.094 145.517C152.179 145.517 150.63 144.994 149.447 143.948C148.264 142.902 147.672 141.533 147.672 139.839C147.672 138.16 148.278 136.783 149.489 135.709C150.7 134.634 152.263 134.097 154.179 134.097ZM154.221 137.235C153.488 137.235 152.88 137.509 152.394 138.057C151.908 138.605 151.665 139.292 151.665 140.117C151.665 140.814 151.858 141.365 152.246 141.771C152.633 142.177 153.157 142.379 153.819 142.379C154.552 142.379 155.154 142.102 155.626 141.547C156.097 140.992 156.333 140.295 156.333 139.455C156.333 138.786 156.143 138.249 155.763 137.843C155.383 137.438 154.868 137.235 154.221 137.235ZM167.355 137.47L166.422 145.197H162.475L163.43 137.47H161.732L162.114 134.417H163.79L164.215 130.959H168.162L167.737 134.417H169.859L169.477 137.47H167.355ZM175.67 134.417L174.348 145.197H170.36L171.682 134.417H175.67ZM174.094 129.133C174.734 129.133 175.281 129.36 175.736 129.816C176.191 130.271 176.418 130.826 176.418 131.481C176.418 132.15 176.191 132.716 175.736 133.178C175.281 133.64 174.726 133.872 174.073 133.872C173.404 133.872 172.839 133.637 172.377 133.167C171.915 132.697 171.684 132.135 171.684 131.481C171.684 130.84 171.922 130.289 172.399 129.826C172.875 129.364 173.44 129.133 174.094 129.133ZM183.706 134.097C185.551 134.097 187.04 134.599 188.174 135.602C189.307 136.605 189.874 137.932 189.874 139.583C189.874 141.333 189.293 142.76 188.131 143.863C186.97 144.966 185.466 145.517 183.622 145.517C181.707 145.517 180.158 144.994 178.975 143.948C177.792 142.902 177.201 141.533 177.201 139.839C177.201 138.16 177.806 136.783 179.017 135.709C180.228 134.634 181.791 134.097 183.706 134.097ZM183.748 137.235C183.016 137.235 182.407 137.509 181.922 138.057C181.436 138.605 181.193 139.292 181.193 140.117C181.193 140.814 181.386 141.365 181.774 141.771C182.161 142.177 182.685 142.379 183.347 142.379C184.079 142.379 184.681 142.102 185.153 141.547C185.625 140.992 185.861 140.295 185.861 139.455C185.861 138.786 185.671 138.249 185.29 137.843C184.91 137.438 184.396 137.235 183.748 137.235ZM196.693 134.417L196.355 135.805C197.087 135.164 197.736 134.72 198.3 134.47C198.863 134.222 199.505 134.097 200.224 134.097C201.506 134.097 202.388 134.364 202.867 134.897C203.346 135.431 203.586 136.26 203.586 137.384C203.586 137.897 203.55 138.473 203.48 139.113L202.74 145.197H198.786L199.378 140.437C199.434 139.896 199.463 139.455 199.463 139.113C199.463 137.975 198.977 137.406 198.004 137.406C197.383 137.406 196.922 137.626 196.619 138.067C196.316 138.509 196.101 139.263 195.974 140.33L195.382 145.197H191.428L192.739 134.417H196.693Z" fill="#51177F"/>
<path d="M47.528 103.59H59.5709V108.211H52.9792V111.719H58.959V116.34H52.9792V124.581H47.528V103.59ZM63.3551 124.581H68.8064V103.59H63.3551V124.581ZM78.6612 103.59H73.2099V124.581H85.1973V119.96H78.6612V103.59ZM107.419 103.59C106.564 105.31 102.993 112.173 102.11 114.086C101.74 114.887 101.473 115.563 101.292 116.008C101.237 115.552 101.153 114.896 101.028 114.086C100.738 112.216 98.8458 103.841 98.7889 103.59H93.5079L86.8942 124.581C88.731 124.58 90.5679 124.579 92.4047 124.577C92.9804 122.365 95.035 115.936 95.4653 114.086C95.6049 113.485 96.1027 111.389 96.1939 110.957C96.2607 111.679 96.4082 112.764 96.5881 114.086C96.8661 116.127 98.4106 122.504 98.84 124.571C99.7848 124.575 100.73 124.578 101.674 124.581C102.773 122.456 105.851 116.291 106.995 114.086C107.552 113.013 107.887 112.063 108.122 111.487C108.112 111.741 108.015 112.796 108.014 114.086C108.013 117.248 108.197 122.104 108.253 124.57L113.582 124.581L112.923 103.59H107.419ZM133.885 118.735C133.885 123.133 130.13 124.581 126.292 124.581H117.893V103.59H125.68C129.407 103.59 131.91 105.038 131.91 109.047C131.91 110.94 131.299 112.471 129.602 113.334V113.39C132.606 113.779 133.885 115.812 133.885 118.735ZM123.344 111.83H123.956C125.402 111.83 126.904 111.58 126.904 109.798C126.904 107.877 125.207 107.766 123.734 107.766H123.344V111.83ZM128.378 118.178C128.378 115.645 125.68 115.895 123.9 115.895H123.344V120.405H124.039C125.653 120.405 128.378 120.489 128.378 118.178ZM159.337 113.696C159.337 120.489 154.469 125.277 147.739 125.277C141.008 125.277 136.141 120.489 136.141 113.696C136.141 107.348 141.704 102.894 147.739 102.894C153.774 102.894 159.337 107.348 159.337 113.696ZM153.663 113.724C153.663 110.828 150.993 108.184 147.739 108.184C144.485 108.184 141.815 110.828 141.815 113.724C141.815 117.343 144.485 119.988 147.739 119.988C150.993 119.988 153.663 117.343 153.663 113.724ZM180.141 103.59H173.438L170.24 109.019L167.041 103.59H160.338L167.041 113.362L158.837 124.581H165.428L170.24 117.733L174.634 124.581H181.198L173.438 113.362L180.141 103.59ZM195.86 110.234V103.205H189.672V110.234H181.933V116.428H189.672V124.581H195.86V116.428H203.599V110.234H195.86Z" fill="#51177F"/>
</svg>
