<svg width="250" height="250" viewBox="0 0 250 250" fill="none" xmlns="http://www.w3.org/2000/svg">
<rect width="250" height="250" fill="url(#paint0_linear_343_7)"/>
<path d="M210 97.9062V152.094H73.8062L40 126.742V97.9062H210Z" fill="#C50044"/>
<path d="M80.6196 129.213L78.5915 145.217H82.6074L84.6146 129.213H80.6196ZM96.2044 135.554C95.0636 134.543 93.5649 134.039 91.7068 134.039C89.7787 134.039 88.2054 134.579 86.9871 135.661C85.7673 136.744 85.1574 138.13 85.1574 139.82C85.1574 141.526 85.7524 142.906 86.9439 143.958C88.1354 145.012 89.6937 145.539 91.6218 145.539C93.4799 145.539 94.9935 144.984 96.1626 143.873C97.3318 142.762 97.9163 141.325 97.9163 139.562C97.9163 137.901 97.3467 136.564 96.2044 135.554ZM93.1638 141.54C92.6896 142.1 92.0826 142.379 91.346 142.379C90.6794 142.379 90.1515 142.174 89.7623 141.765C89.3716 141.358 89.1762 140.802 89.1762 140.099C89.1762 139.269 89.4208 138.577 89.9099 138.026C90.399 137.474 91.0119 137.197 91.7501 137.197C92.4018 137.197 92.9192 137.402 93.3025 137.811C93.6857 138.218 93.8766 138.76 93.8766 139.434C93.8766 140.28 93.6395 140.982 93.1638 141.54ZM108.376 134.361L106.293 137.542C105.806 138.287 105.283 139.226 104.725 140.358C104.411 139.126 104.145 138.23 103.93 137.671L102.706 134.361H98.5411L102.793 145.217H105.498L112.799 134.361H108.376ZM122.675 135.511C121.698 134.528 120.394 134.039 118.759 134.039C116.903 134.039 115.365 134.615 114.147 135.769C112.929 136.923 112.319 138.402 112.319 140.207C112.319 141.855 112.839 143.157 113.877 144.109C114.916 145.063 116.294 145.539 118.011 145.539C119.506 145.539 120.711 145.223 121.625 144.593C122.539 143.963 123.26 142.967 123.786 141.604H119.548C119.383 142.35 118.884 142.722 118.052 142.722C117.429 142.722 116.973 142.55 116.682 142.207C116.391 141.862 116.245 141.325 116.245 140.595H124.077C124.077 140.465 124.087 140.273 124.108 140.014C124.129 139.756 124.14 139.577 124.14 139.477C124.14 137.814 123.652 136.493 122.675 135.511ZM116.494 138.338C116.745 137.22 117.395 136.66 118.448 136.66C119.514 136.66 120.089 137.22 120.171 138.338H116.494ZM139.839 141.425C140.791 140.534 141.574 139.813 142.185 139.26L139.903 136.971C139.647 137.196 139.417 137.405 139.211 137.596C139.004 137.787 138.752 138.02 138.454 138.296C138.156 138.572 137.863 138.844 137.58 139.113L135.555 136.991C136.663 136.411 137.438 135.835 137.878 135.263C138.318 134.69 138.539 133.972 138.539 133.109C138.539 131.879 138.06 130.85 137.1 130.023C136.141 129.195 134.951 128.781 133.53 128.781C132.095 128.781 130.901 129.199 129.949 130.034C128.996 130.868 128.521 131.915 128.521 133.173C128.521 133.752 128.616 134.251 128.809 134.669C129.001 135.085 129.402 135.669 130.014 136.418C128.819 136.984 128.087 137.38 127.817 137.606C126.722 138.498 126.177 139.658 126.177 141.085C126.177 142.43 126.655 143.528 127.616 144.384C128.574 145.239 129.814 145.667 131.335 145.667C133.054 145.667 134.887 145.031 136.834 143.758L138.22 145.223H143.421L139.839 141.425ZM132.422 141.955C131.854 141.955 131.388 141.813 131.026 141.531C130.664 141.247 130.482 140.88 130.482 140.428C130.482 139.805 130.993 139.175 132.016 138.539L134.532 141.234C133.85 141.715 133.147 141.955 132.422 141.955ZM133.743 135.061L133.53 134.827C133.245 134.501 133.09 134.325 133.062 134.297C132.663 133.76 132.465 133.321 132.465 132.982C132.465 132.571 132.589 132.24 132.838 131.985C133.085 131.731 133.409 131.603 133.807 131.603C134.219 131.603 134.56 131.744 134.83 132.026C135.1 132.31 135.236 132.656 135.236 133.067C135.236 133.788 134.738 134.452 133.743 135.061ZM150.764 137.197C151.222 137.197 151.615 137.271 151.945 137.412C152.275 137.556 152.632 137.806 153.019 138.165L153.427 134.791C152.425 134.29 151.329 134.039 150.142 134.039C148.424 134.039 146.999 134.612 145.868 135.758C144.738 136.905 144.171 138.338 144.171 140.058C144.171 141.676 144.651 142.995 145.61 144.012C146.569 145.03 147.816 145.539 149.347 145.539C150.078 145.539 151.029 145.345 152.203 144.958L152.612 141.54C151.853 142.1 151.122 142.379 150.421 142.379C149.762 142.379 149.232 142.164 148.831 141.734C148.43 141.304 148.23 140.738 148.23 140.035C148.23 139.234 148.473 138.559 148.961 138.015C149.447 137.471 150.048 137.197 150.764 137.197ZM162.812 134.361C162.066 134.361 161.437 134.469 160.921 134.684C160.406 134.899 159.841 135.285 159.225 135.843L159.547 134.361H155.531L154.2 145.217H158.216L158.775 140.595C158.917 139.477 159.179 138.699 159.558 138.262C159.937 137.824 160.542 137.606 161.373 137.606C161.974 137.606 162.574 137.771 163.175 138.101L163.627 134.382C163.398 134.367 163.126 134.361 162.812 134.361ZM165.195 134.361L163.863 145.217H167.879L169.21 134.361H165.195ZM169.273 129.725C168.814 129.265 168.264 129.036 167.619 129.036C166.96 129.036 166.392 129.269 165.912 129.735C165.432 130.201 165.193 130.756 165.193 131.401C165.193 132.059 165.426 132.627 165.891 133.098C166.356 133.571 166.924 133.809 167.597 133.809C168.256 133.809 168.814 133.576 169.273 133.11C169.731 132.644 169.959 132.074 169.959 131.401C169.959 130.741 169.731 130.183 169.273 129.725ZM189.115 134.833C188.628 134.303 187.746 134.039 186.474 134.039C185.696 134.039 185 134.182 184.385 134.469C183.769 134.755 183.137 135.234 182.485 135.908C182.132 135.221 181.722 134.737 181.255 134.457C180.79 134.178 180.159 134.039 179.367 134.039C178.604 134.039 177.943 134.17 177.384 134.436C176.826 134.702 176.257 135.155 175.676 135.8L175.996 134.361H172.029L170.714 145.217H174.68L175.295 140.035C175.493 138.259 176.158 137.371 177.288 137.371C177.685 137.371 178 137.486 178.232 137.714C178.466 137.944 178.583 138.244 178.583 138.617C178.583 138.775 178.554 139.09 178.498 139.562L177.819 145.217H181.765L182.379 140.035C182.493 139.075 182.705 138.392 183.016 137.983C183.328 137.574 183.787 137.371 184.396 137.371C184.834 137.371 185.17 137.491 185.404 137.735C185.636 137.98 185.753 138.33 185.753 138.789C185.753 139.019 185.717 139.398 185.647 139.928L185.01 145.217H188.935L189.657 139.498C189.783 138.423 189.848 137.657 189.848 137.197C189.848 136.152 189.603 135.364 189.115 134.833ZM202.107 135.511C201.132 134.528 199.827 134.039 198.194 134.039C196.339 134.039 194.803 134.615 193.586 135.769C192.368 136.923 191.759 138.402 191.759 140.207C191.759 141.855 192.278 143.157 193.316 144.109C194.354 145.063 195.73 145.539 197.447 145.539C198.941 145.539 200.144 145.223 201.059 144.593C201.971 143.963 202.691 142.967 203.218 141.604H198.983C198.816 142.35 198.318 142.722 197.489 142.722C196.865 142.722 196.409 142.55 196.118 142.207C195.827 141.862 195.681 141.325 195.681 140.595H203.507C203.507 140.465 203.518 140.273 203.539 140.014C203.559 139.756 203.57 139.577 203.57 139.477C203.57 137.814 203.082 136.493 202.107 135.511ZM195.932 138.338C196.181 137.22 196.831 136.66 197.882 136.66C198.949 136.66 199.523 137.22 199.605 138.338H195.932Z" fill="white"/>
<path d="M47.528 103.59H59.5709V108.211H52.9793V111.719H58.959V116.341H52.9793V124.581H47.528V103.59ZM63.3551 124.581H68.8064V103.59H63.3551V124.581ZM78.6613 103.59H73.21V124.581H85.1973V119.96H78.6613V103.59ZM107.419 103.59C106.564 105.31 102.993 112.173 102.11 114.086C101.74 114.887 101.473 115.563 101.292 116.008C101.237 115.552 101.153 114.896 101.028 114.086C100.738 112.216 98.8458 103.841 98.789 103.59H93.5079L86.8942 124.581C88.7311 124.58 90.5679 124.579 92.4047 124.577C92.9804 122.365 95.035 115.936 95.4653 114.086C95.6049 113.485 96.1027 111.389 96.1939 110.957C96.2607 111.679 96.4082 112.764 96.5881 114.086C96.8661 116.127 98.4107 122.504 98.84 124.571C99.7848 124.575 100.73 124.578 101.674 124.581C102.773 122.456 105.851 116.291 106.995 114.086C107.552 113.013 107.887 112.063 108.122 111.487C108.112 111.741 108.015 112.796 108.014 114.086C108.013 117.248 108.197 122.104 108.254 124.57L113.582 124.581L112.923 103.59H107.419ZM133.885 118.735C133.885 123.134 130.13 124.581 126.292 124.581H117.893V103.59H125.68C129.407 103.59 131.91 105.038 131.91 109.047C131.91 110.94 131.299 112.471 129.602 113.334V113.39C132.606 113.779 133.885 115.812 133.885 118.735ZM123.344 111.83H123.956C125.402 111.83 126.904 111.58 126.904 109.798C126.904 107.877 125.207 107.766 123.734 107.766H123.344V111.83ZM128.378 118.178C128.378 115.645 125.68 115.895 123.9 115.895H123.344V120.405H124.039C125.653 120.405 128.378 120.489 128.378 118.178ZM159.337 113.696C159.337 120.489 154.469 125.277 147.739 125.277C141.008 125.277 136.141 120.489 136.141 113.696C136.141 107.348 141.704 102.894 147.739 102.894C153.774 102.894 159.337 107.348 159.337 113.696ZM153.663 113.724C153.663 110.828 150.993 108.184 147.739 108.184C144.485 108.184 141.815 110.828 141.815 113.724C141.815 117.343 144.485 119.988 147.739 119.988C150.993 119.988 153.663 117.343 153.663 113.724ZM180.141 103.59H173.438L170.24 109.019L167.041 103.59H160.338L167.041 113.362L158.837 124.581H165.428L170.24 117.733L174.634 124.581H181.198L173.438 113.362L180.141 103.59ZM195.86 110.234V103.205H189.672V110.234H181.933V116.428H189.672V124.581H195.86V116.428H203.599V110.234H195.86Z" fill="white"/>
<defs>
<linearGradient id="paint0_linear_343_7" x1="25.5667" y1="79.7706" x2="192.913" y2="177.389" gradientUnits="userSpaceOnUse">
<stop stop-color="#B72342"/>
<stop offset="1" stop-color="#9F0033"/>
</linearGradient>
</defs>
</svg>
