<svg width="250" height="250" viewBox="0 0 250 250" fill="none" xmlns="http://www.w3.org/2000/svg">
<rect width="250" height="250" fill="url(#paint0_linear_343_27)"/>
<path d="M210 97.9062V152.094H73.8062L40 126.742V97.9062H210Z" fill="#00583E"/>
<path d="M130.103 133.216L130.504 129.795C129.758 129.51 129.078 129.317 128.378 129.295H128.088C125.438 129.389 123.905 130.59 123.44 133.571L123.306 134.487L121.676 134.49L121.296 137.521H122.947L122.016 145.194H125.934L126.886 137.521H129.575L129.957 134.49H127.267L127.313 134.218C127.733 131.835 129.694 132.842 130.103 133.216ZM140.331 135.624C139.362 134.655 138.066 134.172 136.444 134.172C134.601 134.172 133.075 134.74 131.866 135.878C130.655 137.015 130.051 138.475 130.051 140.255C130.051 141.88 130.565 143.163 131.597 144.103C132.628 145.042 133.997 145.512 135.701 145.512C137.186 145.512 138.382 145.202 139.29 144.579C140.197 143.958 140.913 142.976 141.435 141.632H137.228C137.063 142.368 136.567 142.736 135.743 142.736C135.124 142.736 134.671 142.565 134.381 142.227C134.092 141.888 133.949 141.358 133.949 140.637H141.724C141.724 140.51 141.735 140.319 141.754 140.065C141.775 139.81 141.785 139.634 141.785 139.535C141.785 137.895 141.301 136.591 140.331 135.624ZM134.196 138.411C134.444 137.309 135.09 136.757 136.135 136.757C137.194 136.757 137.763 137.309 137.847 138.411H134.196ZM149.819 138.538L148.336 138.135H148.315C148.034 138.008 147.892 137.845 147.892 137.648C147.892 137.224 148.344 137.012 149.247 137.012C150.038 137.012 150.906 137.323 151.851 137.944L152.804 135.231C151.393 134.497 150.059 134.13 148.803 134.13C147.447 134.13 146.35 134.469 145.51 135.146C144.669 135.826 144.25 136.715 144.25 137.817C144.25 138.665 144.475 139.341 144.927 139.841C145.379 140.344 146.099 140.707 147.087 140.934C147.85 141.117 148.329 141.231 148.527 141.273C148.824 141.371 148.971 141.549 148.971 141.803C148.971 142.028 148.848 142.209 148.602 142.343C148.354 142.477 148.026 142.545 147.616 142.545C147.024 142.545 146.505 142.459 146.061 142.291C145.616 142.121 144.991 141.782 144.186 141.273L142.746 143.881C143.649 144.473 144.475 144.894 145.224 145.14C145.971 145.388 146.784 145.512 147.659 145.512C149.183 145.512 150.394 145.152 151.29 144.431C152.187 143.71 152.635 142.743 152.635 141.526C152.635 140.764 152.409 140.143 151.957 139.662C151.505 139.181 150.792 138.807 149.819 138.538ZM159.962 134.49L160.385 131.056H156.447L156.024 134.49H154.35L153.969 137.521H155.663L154.71 145.194H158.65L159.58 137.521H161.698L162.079 134.49H159.962ZM167.953 129.825C167.713 129.584 167.446 129.407 167.154 129.295C166.898 129.195 166.62 129.145 166.323 129.145C166.021 129.145 165.737 129.196 165.473 129.295C165.171 129.41 164.892 129.589 164.64 129.835C164.167 130.293 163.93 130.841 163.93 131.477C163.93 132.128 164.16 132.686 164.619 133.152C165.077 133.618 165.639 133.852 166.303 133.852C166.951 133.852 167.501 133.622 167.953 133.162C168.405 132.704 168.632 132.141 168.632 131.477C168.632 130.828 168.405 130.277 167.953 129.825ZM163.921 134.49L162.609 145.194H166.568L167.882 134.49H163.921ZM178.68 134.49L176.626 137.626C176.146 138.362 175.632 139.287 175.08 140.404C174.77 139.189 174.509 138.305 174.297 137.754L173.091 134.49H168.982L173.174 145.194H175.843L183.043 134.49H178.68ZM192.211 134.49V135.72C191.604 135.125 191.057 134.719 190.571 134.5C190.083 134.281 189.466 134.172 188.717 134.172C187.095 134.172 185.75 134.766 184.683 135.952C183.617 137.139 183.085 138.623 183.085 140.404C183.085 141.958 183.49 143.198 184.303 144.124C185.114 145.049 186.191 145.512 187.532 145.512C188.28 145.512 188.926 145.402 189.469 145.184C190.013 144.964 190.581 144.579 191.173 144.028L190.899 145.194H194.837L196.149 134.49H192.211ZM191.046 141.57C190.581 142.121 189.988 142.397 189.267 142.397C187.984 142.397 187.341 141.647 187.341 140.149C187.341 139.316 187.55 138.63 187.966 138.093C188.382 137.556 188.944 137.287 189.649 137.287C190.298 137.287 190.811 137.488 191.185 137.892C191.558 138.295 191.746 138.828 191.746 139.492C191.746 140.326 191.513 141.019 191.046 141.57ZM199.669 129.295L197.654 145.194H201.613L203.609 129.295H199.669Z" fill="white"/>
<path d="M47.528 103.59H59.5709V108.211H52.9792V111.719H58.959V116.341H52.9792V124.581H47.528V103.59ZM63.3551 124.581H68.8064V103.59H63.3551V124.581ZM78.6612 103.59H73.2099V124.581H85.1973V119.96H78.6612V103.59ZM107.419 103.59C106.564 105.31 102.993 112.173 102.11 114.086C101.74 114.887 101.473 115.563 101.292 116.008C101.237 115.552 101.153 114.896 101.028 114.086C100.738 112.216 98.8458 103.841 98.7889 103.59H93.5079L86.8942 124.581C88.731 124.58 90.5679 124.579 92.4047 124.577C92.9804 122.365 95.035 115.936 95.4653 114.086C95.6049 113.485 96.1027 111.389 96.1939 110.957C96.2607 111.679 96.4082 112.764 96.5881 114.086C96.8661 116.127 98.4106 122.504 98.84 124.571C99.7848 124.575 100.73 124.578 101.674 124.581C102.773 122.456 105.851 116.291 106.995 114.086C107.552 113.013 107.887 112.063 108.122 111.487C108.112 111.741 108.015 112.796 108.014 114.086C108.013 117.248 108.197 122.104 108.253 124.57L113.582 124.581L112.923 103.59H107.419ZM133.885 118.735C133.885 123.134 130.13 124.581 126.292 124.581H117.893V103.59H125.68C129.407 103.59 131.91 105.038 131.91 109.047C131.91 110.94 131.299 112.471 129.602 113.334V113.39C132.606 113.779 133.885 115.812 133.885 118.735ZM123.344 111.83H123.956C125.402 111.83 126.904 111.58 126.904 109.798C126.904 107.877 125.207 107.766 123.734 107.766H123.344V111.83ZM128.378 118.178C128.378 115.645 125.68 115.895 123.9 115.895H123.344V120.405H124.039C125.653 120.405 128.378 120.489 128.378 118.178ZM159.337 113.696C159.337 120.489 154.469 125.277 147.739 125.277C141.008 125.277 136.141 120.489 136.141 113.696C136.141 107.348 141.704 102.894 147.739 102.894C153.774 102.894 159.337 107.348 159.337 113.696ZM153.663 113.724C153.663 110.828 150.993 108.184 147.739 108.184C144.485 108.184 141.815 110.828 141.815 113.724C141.815 117.343 144.485 119.988 147.739 119.988C150.993 119.988 153.663 117.343 153.663 113.724ZM180.141 103.59H173.438L170.24 109.019L167.041 103.59H160.338L167.041 113.362L158.837 124.581H165.428L170.24 117.733L174.634 124.581H181.198L173.438 113.362L180.141 103.59ZM195.86 110.234V103.205H189.672V110.234H181.933V116.428H189.672V124.581H195.86V116.428H203.599V110.234H195.86Z" fill="white"/>
<defs>
<linearGradient id="paint0_linear_343_27" x1="25.5667" y1="79.7706" x2="192.913" y2="177.389" gradientUnits="userSpaceOnUse">
<stop stop-color="#379475"/>
<stop offset="1" stop-color="#13453D"/>
</linearGradient>
</defs>
</svg>
