<svg width="250" height="250" viewBox="0 0 250 250" fill="none" xmlns="http://www.w3.org/2000/svg">
<rect width="250" height="250" fill="url(#paint0_linear_343_32)"/>
<path d="M210 97.9062V152.094H73.8062L40 126.742V97.9062H210Z" fill="#3D3D3D"/>
<path d="M47.528 103.59H59.5709V108.211H52.9792V111.719H58.959V116.341H52.9792V124.581H47.528V103.59ZM63.3551 124.581H68.8064V103.59H63.3551V124.581ZM78.6612 103.59H73.2099V124.581H85.1973V119.96H78.6612V103.59ZM107.419 103.59C106.564 105.31 102.993 112.173 102.11 114.086C101.74 114.887 101.473 115.563 101.292 116.008C101.237 115.552 101.153 114.896 101.028 114.086C100.738 112.216 98.8458 103.841 98.7889 103.59H93.5079L86.8942 124.581C88.731 124.58 90.5679 124.579 92.4047 124.577C92.9804 122.365 95.035 115.936 95.4653 114.086C95.6049 113.485 96.1027 111.389 96.1939 110.957C96.2607 111.679 96.4082 112.764 96.5881 114.086C96.8661 116.127 98.4106 122.504 98.84 124.571C99.7848 124.575 100.73 124.578 101.674 124.581C102.773 122.456 105.851 116.291 106.995 114.086C107.552 113.013 107.887 112.063 108.122 111.487C108.112 111.741 108.015 112.796 108.014 114.086C108.013 117.248 108.197 122.104 108.253 124.57L113.582 124.581L112.923 103.59H107.419ZM133.885 118.735C133.885 123.134 130.13 124.581 126.292 124.581H117.893V103.59H125.68C129.407 103.59 131.91 105.038 131.91 109.047C131.91 110.94 131.299 112.471 129.602 113.334V113.39C132.606 113.779 133.885 115.812 133.885 118.735ZM123.344 111.83H123.956C125.402 111.83 126.904 111.58 126.904 109.798C126.904 107.877 125.207 107.766 123.734 107.766H123.344V111.83ZM128.378 118.178C128.378 115.645 125.68 115.895 123.9 115.895H123.344V120.405H124.039C125.653 120.405 128.378 120.489 128.378 118.178ZM159.337 113.696C159.337 120.489 154.469 125.277 147.739 125.277C141.008 125.277 136.141 120.489 136.141 113.696C136.141 107.348 141.704 102.894 147.739 102.894C153.774 102.894 159.337 107.348 159.337 113.696ZM153.663 113.724C153.663 110.828 150.993 108.184 147.739 108.184C144.485 108.184 141.815 110.828 141.815 113.724C141.815 117.343 144.485 119.988 147.739 119.988C150.993 119.988 153.663 117.343 153.663 113.724ZM180.141 103.59H173.438L170.24 109.019L167.041 103.59H160.338L167.041 113.362L158.837 124.581H165.428L170.24 117.733L174.634 124.581H181.198L173.438 113.362L180.141 103.59ZM195.86 110.234V103.205H189.672V110.234H181.933V116.428H189.672V124.581H195.86V116.428H203.599V110.234H195.86Z" fill="white"/>
<path d="M149.756 134.343L148.425 145.199H144.431L144.71 144.016C144.109 144.575 143.532 144.966 142.981 145.188C142.43 145.41 141.775 145.521 141.016 145.521C139.656 145.521 138.565 145.052 137.742 144.113C136.918 143.175 136.507 141.917 136.507 140.341C136.507 138.535 137.047 137.03 138.128 135.827C139.209 134.623 140.572 134.021 142.219 134.021C142.978 134.021 143.604 134.132 144.098 134.354C144.592 134.576 145.146 134.988 145.762 135.59V134.343H149.756ZM143.164 137.181C142.448 137.181 141.879 137.453 141.457 137.998C141.034 138.542 140.823 139.237 140.823 140.083C140.823 141.602 141.474 142.361 142.777 142.361C143.507 142.361 144.109 142.082 144.581 141.523C145.053 140.964 145.29 140.262 145.29 139.416C145.29 138.743 145.1 138.202 144.721 137.793C144.341 137.385 143.822 137.181 143.164 137.181ZM160.514 134.773L160.106 138.148C159.72 137.79 159.362 137.539 159.033 137.396C158.703 137.253 158.31 137.181 157.852 137.181C157.136 137.181 156.534 137.453 156.048 137.998C155.561 138.542 155.318 139.216 155.318 140.018C155.318 140.721 155.518 141.287 155.919 141.716C156.32 142.146 156.849 142.361 157.508 142.361C158.209 142.361 158.939 142.082 159.698 141.523L159.29 144.941C158.116 145.328 157.165 145.521 156.434 145.521C154.902 145.521 153.657 145.013 152.698 143.995C151.739 142.978 151.259 141.659 151.259 140.04C151.259 138.32 151.825 136.887 152.956 135.741C154.086 134.594 155.511 134.021 157.229 134.021C158.417 134.021 159.512 134.272 160.514 134.773ZM166.913 137.417L165.969 145.199H161.974L162.941 137.417H161.223L161.609 134.343H163.306L163.735 130.861H167.729L167.3 134.343H169.447L169.061 137.417H166.913ZM175.309 134.343L173.978 145.199H169.962L171.294 134.343H175.309ZM173.735 128.929C174.379 128.929 174.93 129.158 175.388 129.617C175.846 130.075 176.075 130.634 176.075 131.293C176.075 131.967 175.846 132.537 175.388 133.002C174.93 133.468 174.371 133.701 173.713 133.701C173.04 133.701 172.471 133.464 172.006 132.992C171.541 132.519 171.308 131.953 171.308 131.293C171.308 130.648 171.548 130.093 172.028 129.627C172.507 129.162 173.076 128.929 173.735 128.929ZM183.491 134.021C185.366 134.021 186.88 134.526 188.032 135.536C189.185 136.547 189.761 137.883 189.761 139.545C189.761 141.308 189.17 142.745 187.989 143.855C186.808 144.966 185.28 145.521 183.405 145.521C181.458 145.521 179.883 144.995 178.681 143.941C177.478 142.888 176.877 141.509 176.877 139.803C176.877 138.112 177.492 136.726 178.723 135.644C179.955 134.562 181.544 134.021 183.491 134.021ZM183.534 137.181C182.789 137.181 182.17 137.457 181.676 138.008C181.182 138.56 180.935 139.252 180.935 140.083C180.935 140.785 181.132 141.34 181.526 141.749C181.919 142.157 182.453 142.361 183.126 142.361C183.87 142.361 184.482 142.082 184.962 141.523C185.441 140.964 185.681 140.262 185.681 139.416C185.681 138.743 185.488 138.202 185.101 137.793C184.715 137.385 184.192 137.181 183.534 137.181ZM196.589 134.343L196.246 135.741C196.99 135.096 197.649 134.648 198.222 134.397C198.794 134.147 199.446 134.021 200.176 134.021C201.478 134.021 202.373 134.29 202.86 134.827C203.346 135.364 203.59 136.199 203.59 137.331C203.59 137.847 203.554 138.428 203.482 139.072L202.731 145.199H198.715L199.317 140.405C199.374 139.861 199.403 139.416 199.403 139.072C199.403 137.926 198.909 137.353 197.921 137.353C197.291 137.353 196.822 137.575 196.514 138.019C196.206 138.464 195.988 139.223 195.859 140.298L195.258 145.199H191.242L192.574 134.343H196.589Z" fill="white"/>
<defs>
<linearGradient id="paint0_linear_343_32" x1="25.5667" y1="79.7706" x2="192.913" y2="177.389" gradientUnits="userSpaceOnUse">
<stop stop-color="#8D0011"/>
<stop offset="1" stop-color="#080808"/>
</linearGradient>
</defs>
</svg>
