<svg width="250" height="250" viewBox="0 0 250 250" fill="none" xmlns="http://www.w3.org/2000/svg">
<rect width="250" height="250" fill="#2E6A8B"/>
<path fill-rule="evenodd" clip-rule="evenodd" d="M118.706 171.065V177.141H117.786V171.065L115.618 171.079V170.648H120.917V171.065L118.706 171.065ZM130.362 176.119V176.427C130.365 176.549 130.428 176.662 130.531 176.728C130.646 176.776 130.771 176.796 130.895 176.786H133.514V177.141H129.429V170.649H133.514V171.004H130.359V173.57H132.992V173.92H130.359V176.121L130.362 176.119ZM162.533 209.824H155.71V199.02L157.242 199.005V207.903C157.219 208.212 157.262 208.522 157.368 208.812C157.464 208.994 157.7 209.103 158.077 209.14H162.754L162.532 209.826L162.533 209.824ZM152.518 209.824H145.712V199.003H152.518V199.594H147.26V203.875H151.649V204.456H147.26V208.024C147.26 208.396 147.263 208.601 147.27 208.639C147.274 208.843 147.378 209.031 147.548 209.142C147.74 209.222 147.948 209.255 148.155 209.238H152.52V209.829L152.518 209.824ZM133.958 199.003H134.764L141.378 207.117V199.003H142.08V210H141.792L134.661 201.288V209.824H133.958L133.958 199.003ZM122.157 199.003H122.963L129.577 207.117V199.003H130.279V210H129.991L122.858 201.288V209.824H122.157L122.157 199.003ZM115.693 205.61L113.86 201.238L111.971 205.61H115.693ZM114.155 198.754H114.434L119.405 209.822H117.39L117.048 208.896C117.01 208.789 116.851 208.411 116.57 207.763L115.916 206.205H111.727L110.165 209.829H109.358L114.154 198.76L114.155 198.754ZM105.034 199.006H106.545L106.554 209.372V209.826H105.03V204.616H100.003V209.826H98.4711L98.4635 199.221V199.006H100.003V204.024H105.029V199.006L105.034 199.006ZM95.8579 201.184L95.6061 201.342C95.1473 200.628 94.5438 200.017 93.8346 199.549C93.2604 199.234 92.6137 199.074 91.9586 199.085C90.4683 199.027 89.1191 199.961 88.6485 201.377C88.2864 202.326 88.1153 203.338 88.1449 204.354C87.9584 205.995 88.6827 207.606 90.0335 208.556C90.6835 208.944 91.4293 209.143 92.1865 209.13C92.9356 209.149 93.6721 208.934 94.2941 208.517C94.887 208.06 95.4019 207.51 95.8189 206.889L96.0707 207.047C94.3455 210.391 89.7319 210.813 87.4285 207.838C86.6871 206.826 86.2999 205.597 86.3268 204.343C86.3175 203.331 86.5529 202.332 87.013 201.43C87.4724 200.526 88.1817 199.773 89.0565 199.26C89.8964 198.768 90.8532 198.512 91.8264 198.518C92.5716 198.5 93.307 198.691 93.9492 199.07C94.7511 199.602 95.4044 200.329 95.8478 201.184L95.8579 201.184ZM201.92 192.885C201.069 193.27 200.148 193.477 199.214 193.492C197.579 193.569 196.015 192.82 195.049 191.498C194.308 190.486 193.921 189.257 193.949 188.003V187.852V187.702V187.652V187.603V187.552V187.503V187.453V187.404V187.353V187.304V187.255V187.206V187.157L193.954 187.109L193.959 187.061L193.964 187.012L193.973 186.964L193.978 186.915L193.988 186.867L193.997 186.819L194.007 186.772L194.016 186.724L194.025 186.676L194.035 186.628L194.044 186.58L194.054 186.533L194.068 186.484L194.078 186.437L194.087 186.389L194.097 186.342L194.106 186.294L194.12 186.246L194.13 186.199L194.144 186.151L194.158 186.104L194.173 186.061L194.187 186.013L194.201 185.966L194.215 185.923L194.23 185.88L194.244 185.837L194.263 185.794L194.277 185.752L194.296 185.709L194.311 185.666L194.33 185.623L194.349 185.58L194.368 185.533L194.387 185.49L194.406 185.447L194.425 185.404L194.444 185.362L194.463 185.319L194.482 185.276L194.501 185.233L194.525 185.19L194.544 185.148L194.568 185.105L194.591 185.062L194.615 185.019C195.07 184.147 195.757 183.419 196.602 182.915C197.447 182.412 198.414 182.15 199.397 182.16C200.142 182.142 200.877 182.332 201.52 182.71C202.322 183.243 202.975 183.971 203.419 184.825L203.167 184.984C202.708 184.271 202.105 183.662 201.395 183.197C200.821 182.883 200.175 182.724 199.521 182.735C198.833 182.727 198.158 182.915 197.574 183.278C196.329 184.066 195.707 185.64 195.707 188V188.183V188.226V188.316V188.359V188.407V188.454V188.497V188.54V188.583V188.626V188.668V188.711V188.754V188.797V188.84V188.882V188.925V188.968V189.011V189.054L195.712 189.092V189.13L195.717 189.168L195.722 189.206V189.244V189.282L195.727 189.32L195.732 189.358L195.741 189.396L195.751 189.434L195.76 189.472L195.77 189.511L195.779 189.549L195.789 189.587L195.798 189.625L195.808 189.663L195.817 189.701L195.827 189.739L195.836 189.777L195.846 189.815L195.855 189.853L195.865 189.891L195.874 189.929L195.884 189.968L195.893 190.006L195.902 190.044L195.912 190.077L195.921 190.115L195.931 190.148L195.94 190.182L195.955 190.22L195.964 190.253L195.978 190.286L195.993 190.32L196.007 190.353L196.021 190.386L196.036 190.42L196.05 190.453L196.064 190.486L196.078 190.52C196.369 191.212 196.872 191.794 197.515 192.183C198.163 192.564 198.904 192.758 199.655 192.742C200.478 192.644 201.267 192.357 201.961 191.903V189.414C201.961 189.196 201.948 189.076 201.923 189.055C201.894 189.033 201.868 189.009 201.842 188.983C201.674 188.644 201.24 188.473 200.54 188.472V187.53H203.683L203.692 191.833C202.894 192.279 202.301 192.615 201.913 192.84L201.92 192.885ZM183.418 182.666H184.224L190.837 190.78V182.666H191.54V193.66H191.253L184.121 184.948V193.483H183.418V182.663L183.418 182.666ZM179.548 193.486H178.015V182.666H179.548V193.486ZM171.847 183.361V193.486H170.324V183.361L166.71 183.384V182.666H175.542V183.361L171.847 183.361ZM156.192 182.666H156.996L163.612 190.78V182.666H164.314V193.66H164.028L156.896 184.948V193.483H156.194V182.663L156.192 182.666ZM152.553 189.033C152.58 189.801 152.499 190.569 152.313 191.315C152.082 192.046 151.606 192.674 150.966 193.094C150.191 193.562 149.293 193.787 148.388 193.74C146.282 193.74 144.953 192.985 144.399 191.474C144.185 190.603 144.1 189.705 144.147 188.81V182.658L145.679 182.668V189.299C145.604 190.235 145.789 191.173 146.213 192.011C146.732 192.738 147.597 193.137 148.487 193.057C149.1 193.063 149.707 192.926 150.258 192.658C150.826 192.415 151.281 191.968 151.535 191.405C151.781 190.616 151.884 189.789 151.839 188.963V182.684H152.556V189.036L152.553 189.033ZM139.068 182.666H140.578L140.588 193.031V193.486H139.076V188.275H134.05V193.486H132.516L132.507 182.881V182.666H134.046V187.684H139.073V182.666L139.068 182.666ZM119.173 186.724C120.488 186.096 121.144 185.295 121.144 184.321V184.252V184.151V184.137V184.123V184.104V184.09V184.075V184.061V184.047V184.032V184.018V184.004V183.99V183.975V183.961V183.947V183.933V183.918V183.904V183.89V183.875V183.861V183.847V183.833L121.139 183.818V183.804V183.79L121.134 183.776V183.761L121.129 183.747L121.124 183.733L121.119 183.718L121.114 183.704L121.104 183.69L121.099 183.676L121.09 183.661L121.084 183.647L121.075 183.633L121.066 183.619L121.056 183.604L121.047 183.59L121.037 183.576L121.027 183.561L121.018 183.547L121.008 183.533L120.999 183.519L120.989 183.504L120.98 183.495L120.97 183.481L120.961 183.471L120.951 183.457L120.942 183.443L120.932 183.433L120.923 183.419L120.913 183.409L120.904 183.4C120.676 183.148 120.349 183.01 120.01 183.022C119.633 183.015 119.271 183.168 119.012 183.441C118.746 183.709 118.599 184.072 118.605 184.449C118.692 185.248 118.919 186.026 119.276 186.746L119.173 186.724ZM120.41 191.711C119.52 190.532 118.733 189.28 118.055 187.969C116.971 188.422 116.23 189.442 116.133 190.613V190.67V190.753V190.781V190.836V190.865V190.894V190.922V190.951V190.979V191.003V191.031V191.055V191.084V191.112V191.136V191.164V191.188L116.138 191.212L116.143 191.236L116.148 191.26L116.153 191.283L116.158 191.307L116.163 191.331L116.172 191.355L116.182 191.379L116.191 191.402L116.201 191.426L116.21 191.45L116.22 191.474L116.229 191.498L116.239 191.521L116.248 191.545L116.258 191.569L116.267 191.593L116.277 191.617L116.286 191.64L116.296 191.664L116.305 191.688L116.315 191.712L116.324 191.736L116.338 191.759L116.348 191.783L116.362 191.807L116.376 191.831L116.391 191.855L116.405 191.874L116.419 191.897L116.434 191.921L116.448 191.94L116.462 191.964L116.476 191.983L116.491 192.007L116.505 192.031L116.524 192.05L116.538 192.073L116.552 192.093L116.572 192.112L116.591 192.131L116.605 192.15L116.624 192.169C116.997 192.58 117.533 192.808 118.088 192.791C118.931 192.696 119.72 192.325 120.33 191.737L120.41 191.711ZM123.083 186.532H123.41C123.58 187.222 123.588 187.941 123.434 188.635C123.252 189.598 122.775 190.482 122.069 191.162C122.588 191.92 123.414 192.41 124.328 192.503C125.048 192.539 125.682 192.031 125.803 191.32L126.099 191.536C125.955 192.791 124.889 193.737 123.625 193.73C122.517 193.618 121.505 193.055 120.824 192.174C119.897 193.106 118.657 193.661 117.344 193.73C116.641 193.751 115.952 193.54 115.381 193.131C114.8 192.727 114.462 192.059 114.481 191.352C114.481 189.925 115.582 188.619 117.785 187.435C117.408 186.695 117.187 185.885 117.137 185.056C117.095 184.236 117.475 183.45 118.145 182.974C118.663 182.602 119.286 182.406 119.924 182.415C120.47 182.398 121.004 182.582 121.423 182.934C121.847 183.285 122.086 183.812 122.07 184.363C122.054 185.057 121.731 185.708 121.189 186.142C120.652 186.576 120.066 186.945 119.443 187.243C120.079 188.386 120.785 189.489 121.557 190.546C122.214 189.89 122.703 189.085 122.983 188.199C123.172 187.665 123.208 187.089 123.088 186.536L123.083 186.532ZM106.605 192.893C105.755 193.277 104.834 193.484 103.901 193.5C102.266 193.576 100.702 192.827 99.7358 191.506C98.9946 190.493 98.6079 189.265 98.6354 188.01C98.6243 186.976 98.8723 185.956 99.3568 185.043C99.8119 184.171 100.5 183.443 101.344 182.939C102.189 182.436 103.156 182.175 104.14 182.183C104.885 182.166 105.62 182.356 106.263 182.734C107.064 183.267 107.718 183.995 108.161 184.849L107.91 185.007C107.45 184.295 106.847 183.686 106.138 183.221C105.564 182.907 104.918 182.748 104.263 182.759C103.576 182.75 102.9 182.938 102.316 183.301C101.071 184.089 100.449 185.664 100.449 188.024V188.207V188.25V188.34V188.383V188.426V188.473V188.516V188.559V188.602V188.644V188.687V188.73V188.773V188.816V188.858V188.901V188.944V188.987V189.03V189.072L100.455 189.111V189.149L100.461 189.187L100.467 189.23L100.473 189.268L100.48 189.306L100.486 189.344L100.494 189.382L100.501 189.42L100.507 189.458L100.515 189.496L100.523 189.534L100.532 189.572L100.539 189.61L100.548 189.648L100.557 189.687L100.566 189.725L100.576 189.763L100.585 189.801L100.595 189.839L100.605 189.877L100.614 189.915L100.626 189.953L100.636 189.991L100.646 190.029L100.657 190.067L100.669 190.101L100.68 190.139L100.692 190.172L100.703 190.205L100.715 190.243L100.728 190.277L100.74 190.31L100.752 190.343L100.767 190.377L100.779 190.41L100.793 190.443L100.807 190.477L100.819 190.51L100.835 190.543C101.124 191.236 101.627 191.819 102.271 192.206C102.918 192.588 103.659 192.781 104.411 192.765C105.234 192.668 106.023 192.381 106.716 191.927V189.438C106.716 189.219 106.704 189.1 106.678 189.079C106.65 189.055 106.624 189.031 106.598 189.007C106.43 188.667 105.997 188.497 105.298 188.496V187.556H108.379L108.389 191.858C107.592 192.304 106.999 192.64 106.61 192.865L106.605 192.893ZM88.1071 182.666H88.9129L95.528 190.78V182.666H96.2293V193.66H95.9422L88.8097 184.948V193.483H88.1071V182.663V182.666ZM84.2368 193.486H82.7058V182.666H84.2368V193.486ZM77.3422 182.666H78.8531L78.8607 193.031V193.486H77.336V188.275H72.3186V193.486H70.7863L70.7787 182.881V182.666H72.3185V187.684H77.3447V182.666L77.3422 182.666ZM67.3516 185.687H66.8719C66.8212 184.823 66.4056 184.021 65.7287 183.482C65.2281 183.169 64.645 183.015 64.0554 183.038C63.582 183.049 63.1252 183.215 62.7548 183.51C62.3704 183.794 62.1449 184.244 62.1479 184.722C62.1505 185.054 62.2719 185.374 62.4904 185.624C63.1861 186.276 63.9808 186.815 64.8448 187.22C65.701 187.677 66.2491 187.988 66.4891 188.154C67.0228 188.486 67.4644 188.947 67.7734 189.494C68.3614 190.678 68.0473 192.112 67.018 192.941C66.3501 193.479 65.513 193.762 64.656 193.739C64.3705 193.741 64.0852 193.723 63.8023 193.684C63.4212 193.634 63.0508 193.522 62.7057 193.353C62.2302 193.092 61.8299 192.712 61.5436 192.251C61.126 191.572 60.9256 190.781 60.9694 189.985H61.4479C61.4295 190.5 61.5125 191.013 61.6921 191.496L61.6997 191.515L61.7088 191.529L61.7164 191.548L61.7254 191.567L61.7345 191.586L61.7421 191.601C62.0055 192.087 62.4121 192.479 62.9067 192.726C63.3943 192.981 63.9378 193.111 64.4881 193.104C65.0153 193.118 65.533 192.962 65.9637 192.657C66.401 192.36 66.6565 191.861 66.6411 191.333C66.6127 190.696 66.2771 190.113 65.7409 189.769C65.1597 189.356 64.5501 188.984 63.9165 188.657C63.272 188.324 62.6544 187.942 62.0694 187.513C61.3322 186.999 60.8871 186.161 60.8733 185.263C60.8562 184.459 61.2129 183.692 61.839 183.188C62.4544 182.67 63.2373 182.395 64.0411 182.413C64.7714 182.398 65.4902 182.596 66.1085 182.985C66.4762 183.268 66.7692 183.636 66.9622 184.058C67.1819 184.572 67.3097 185.12 67.3398 185.678L67.3516 185.687ZM57.9086 193.494H56.3789V182.673H57.9099V193.494H57.9086ZM46.3077 193.494L46.3153 182.673H53.1142V183.264H47.8564V187.545H52.2454V188.126H47.8564V193.497L46.3077 193.494ZM126.273 170.659H127.183V176.878V177.151H126.268V174.025H123.246V177.151H122.327V170.788V170.662H123.25V173.673H126.272V170.662L126.273 170.659Z" fill="white"/>
<path fill-rule="evenodd" clip-rule="evenodd" d="M115.145 139.84C113.84 139.966 112.871 141.104 112.952 142.412C113.171 143.658 114.281 144.548 115.545 144.491C116.969 144.544 118.132 143.366 118.059 141.943C117.83 140.56 116.528 139.622 115.144 139.841L115.145 139.84ZM89.6449 59.7433C87.5048 60.213 87.9875 63.3915 90.1705 63.2047C91.1253 63.0824 91.826 62.2473 91.7807 61.2858C91.6579 60.2449 90.6708 59.5318 89.644 59.7424L89.6449 59.7433ZM176.517 112.327C170.833 108.833 164.846 105.86 158.627 103.442C149.089 99.764 138.942 97.3966 128.682 97.3966C112.562 97.5217 96.7152 102.561 82.8351 110.616C79.6005 112.479 76.4778 114.53 73.4831 116.758V112.074C78.8789 108.031 84.3408 104.056 89.7469 100.025C88.2446 98.2143 87.0976 96.1367 86.366 93.9008C85.203 90.4925 84.4885 86.9472 84.2405 83.3544C84.0355 77.7099 85.7375 72.1692 88.1135 67.1189C84.652 65.0165 81.2017 62.8918 77.7385 60.8014C77.9786 59.6815 78.2984 58.572 78.596 57.4659C84.6471 56.5535 90.8195 56.8602 96.7504 58.3679C97.2074 58.4811 97.5161 57.9907 97.8814 57.7849C99.2113 56.8997 100.362 55.7716 101.274 54.4598C98.135 54.0022 95.1156 52.9349 92.3861 51.3181C88.3072 49.0236 87.3141 43.5887 90.3179 40C89.736 42.5255 90.5307 45.1707 92.4083 46.9572C94.3358 48.6874 96.6768 49.8914 99.2052 50.453C99.3433 50.4659 99.5251 50.579 99.6279 50.4302C99.1015 48.9642 98.9101 47.3987 99.0681 45.849C99.2593 43.8606 100.484 42.1199 102.29 41.2677C101.034 44.3639 101.09 48.5216 103.878 50.7852C107.591 53.6476 112.668 53.977 116.72 51.6186C119.584 49.895 122.217 47.8145 124.557 45.4271C124.134 49.5373 121.354 53.0235 117.44 54.3496C117.486 54.5664 117.726 54.6351 117.897 54.7269C121.079 56.1721 124.712 56.2628 127.962 54.978C133.126 52.7392 136.77 48.158 139.901 43.6599C139.832 48.1271 137.01 52.1939 133.571 54.8065C138.781 55.1264 143.888 53.0059 147.92 49.8034C150.944 47.5031 153.253 44.3931 154.581 40.8338C154.815 43.8903 153.912 46.9255 152.045 49.3567C149.812 52.1395 146.906 54.3062 143.602 55.6511C140.121 57.1267 136.454 58.1183 132.703 58.5981C125.071 59.7072 117.291 59.225 109.854 57.1816C108.369 56.9071 106.804 56.2333 105.296 56.7598C103.943 57.344 102.717 58.1859 101.686 59.2386C104.578 59.6895 107.421 60.4161 110.174 61.4088C107.706 63.3204 104.631 64.2776 101.514 64.1046C100.621 66.32 100.093 68.6654 99.9495 71.0497C99.8865 74.5536 102.044 77.7148 105.33 78.933C106.935 79.4378 108.597 79.7408 110.277 79.835C115.602 80.1539 120.948 79.7543 126.272 79.6062C133.972 79.4348 141.581 80.8401 149.179 81.9024C149.693 81.9368 150.332 82.2109 150.698 81.7086C152.801 79.8223 154.834 77.25 157.907 77.2071C158.626 80.2939 156.696 83.3806 154.011 84.816C156.262 88.5741 158.01 92.8012 158.101 97.223C164.229 101.175 170.367 105.119 176.517 109.056V112.323L176.517 112.327ZM142.176 114.079C143.173 115.71 143.259 117.739 142.404 119.449C141.373 121.358 139.851 122.957 137.994 124.079C135.671 125.793 132.892 126.779 130.009 126.913C130.077 125.712 130.363 124.559 130.42 123.359C134.053 123.256 138.131 122.639 140.702 119.806C142.024 118.214 142.565 116.114 142.176 114.082L142.176 114.079ZM103.651 105.168C113.259 101.854 123.554 99.8669 133.709 101.169C139.531 101.934 145.095 104.038 149.967 107.315C152.572 109.155 155.063 111.417 156.364 114.399C159.153 112.947 161.872 111.337 164.659 109.875C165.637 111.096 166.063 112.668 165.836 114.216C165.48 115.625 164.487 116.787 163.15 117.358C161.568 118.03 159.933 118.572 158.263 118.98C157.76 119.025 157.852 119.654 157.68 120.009C156.137 124.83 154.367 129.822 150.803 133.57C148.713 135.909 146.501 138.136 144.177 140.242C144.21 140.264 144.291 140.322 144.337 140.356C148.244 141.076 152.151 141.83 155.991 142.904C154.836 146.342 151.169 148.41 147.65 148.433C144.624 148.442 141.676 147.495 138.762 146.845C133.456 150.38 127.286 152.403 120.916 152.695C114.291 153.162 107.969 150.089 102.825 146.171C105.405 139.116 110.653 133.357 117.437 130.132C122.153 127.948 127.469 128.52 132.471 127.709C135.403 127.11 138.145 125.804 140.457 123.905C142.072 122.637 143.251 120.895 143.827 118.924C144.253 116.919 143.813 114.828 142.616 113.165C138.668 108.899 133.234 106.31 127.434 105.933C121.592 105.384 115.744 106.909 110.914 110.241C106.716 113.491 103.163 117.498 100.437 122.054C95.4103 118.248 89.2299 115.633 82.8318 115.815C89.2211 111.275 96.2369 107.688 103.659 105.167L103.651 105.168Z" fill="white"/>
</svg>
