<svg width="250" height="250" viewBox="0 0 250 250" fill="none" xmlns="http://www.w3.org/2000/svg">
<rect width="250" height="250" fill="#96CEB6"/>
<path d="M125 210C171.944 210 210 171.944 210 125C210 78.0558 171.944 40 125 40C78.0558 40 40 78.0558 40 125C40 171.944 78.0558 210 125 210Z" fill="#FEEDAD"/>
<path d="M151.218 76.0674H103.04C96.3183 76.0674 90.8599 81.5258 90.8599 88.2479C90.8599 88.5989 90.8774 88.9499 90.9125 89.3009C90.8774 89.6695 90.8599 90.0556 90.8599 90.4242V159.54C90.8599 167.474 97.2836 173.915 105.234 173.915H107.551C115.484 173.915 121.925 167.491 121.925 159.54V138.69H144.25C150.218 138.69 155.062 133.846 155.062 127.878V126.264C155.062 120.296 150.218 115.452 144.25 115.452H121.925V100.446H151.236C157.958 100.446 163.416 94.9875 163.416 88.2654C163.416 81.5433 157.958 76.0849 151.236 76.0849L151.218 76.0674Z" fill="#FF7169"/>
</svg>
