<svg width="250" height="250" viewBox="0 0 250 250" fill="none" xmlns="http://www.w3.org/2000/svg">
<rect width="250" height="250" fill="#E20D41"/>
<path d="M105.392 157.471C105.797 157.471 106.139 157.566 106.417 157.756C106.695 157.933 106.905 158.18 107.044 158.496C107.196 158.863 107.271 159.218 107.271 159.56H103.512C103.512 159.218 103.581 158.876 103.721 158.534C103.873 158.193 104.088 157.933 104.366 157.756C104.645 157.566 104.987 157.471 105.392 157.471Z" fill="white"/>
<path d="M145.01 157.642C145.491 157.642 145.877 157.787 146.149 158.06C146.422 158.332 146.579 158.636 146.643 158.99C146.706 159.332 146.738 159.825 146.738 160.471C146.738 161.078 146.7 161.579 146.624 161.972C146.548 162.351 146.377 162.674 146.111 162.939C145.858 163.193 145.491 163.319 145.01 163.319C144.542 163.319 144.181 163.199 143.928 162.959C143.687 162.706 143.522 162.427 143.434 162.123C143.345 161.819 143.301 161.268 143.301 160.471C143.301 159.876 143.339 159.388 143.415 159.009C143.491 158.617 143.655 158.294 143.908 158.041C144.174 157.775 144.541 157.642 145.01 157.642Z" fill="white"/>
<path d="M176.183 110.162C180.249 110.162 181.985 112.334 181.948 116.256C181.907 120.636 180.648 126.173 179.391 129.891C178.134 133.606 175.262 136.795 170.994 136.804C166.151 136.814 165.203 132.126 165.862 127.874C166.314 124.958 166.613 122.455 167.959 117.753C169.038 113.982 171.915 110.162 176.183 110.162Z" fill="white"/>
<path d="M100.939 110.162C105.006 110.162 106.454 112.333 106.417 116.256C106.376 120.636 105.117 126.173 103.859 129.891C102.603 133.606 100.077 136.675 95.752 136.56C90.737 136.426 90.0766 132.142 90.6201 127.874C90.9807 125.043 91.2499 122.567 92.7168 117.753C93.8602 114.001 96.6716 110.162 100.939 110.162Z" fill="white"/>
<path d="M138.719 110.162C142.785 110.162 144.232 112.334 144.195 116.256C144.154 120.636 142.896 126.173 141.639 129.891C140.382 133.606 137.856 136.675 133.53 136.56C128.515 136.426 127.855 132.142 128.398 127.874C128.759 125.043 129.028 122.567 130.495 117.753C131.639 114.001 134.451 110.162 138.719 110.162Z" fill="white"/>
<path fill-rule="evenodd" clip-rule="evenodd" d="M125 40C171.944 40 210 78.0558 210 125C210 171.944 171.944 210 125 210C78.0558 210 40 171.944 40 125C40 78.0558 78.0558 40 125 40ZM86.8281 79.7588C80.8818 79.8064 73.4586 82.7188 69 89.5791C66.0843 94.0655 65.4416 97.9891 65.4355 98.0264L63.7207 106.791H59.3574L56.6143 116.128H62.2188L55.4912 152.632C55.4912 152.632 54.5241 160.154 48.9219 162.909C50.3704 165.82 51.9905 168.645 53.7627 171.371C56.9046 170.113 64.7121 165.967 66.9014 153.734L73.6318 116.128H79.2217L82.126 106.791H75.3418L76.3857 100.514C76.3857 100.514 76.9647 92.2563 83.0107 90.1543C84.8682 89.5085 87.8313 89.2137 90.2178 90.3779L93.4521 80.6387C93.4521 80.6387 90.6914 79.728 86.8281 79.7588ZM105.392 155.42C104.088 155.42 103.044 155.87 102.259 156.769C101.474 157.655 101.082 158.889 101.082 160.471C101.082 162.331 101.506 163.642 102.354 164.401C103.202 165.161 104.304 165.541 105.658 165.541C106.519 165.541 107.221 165.42 107.766 165.18C108.322 164.927 108.873 164.528 109.417 163.984L107.917 162.521C107.575 162.863 107.24 163.104 106.911 163.243C106.595 163.382 106.183 163.452 105.677 163.452C104.993 163.452 104.462 163.25 104.082 162.845C103.702 162.44 103.512 161.908 103.512 161.25H109.702V160.148C109.702 158.756 109.316 157.623 108.544 156.75C107.784 155.864 106.733 155.42 105.392 155.42ZM145.01 155.42C144.314 155.42 143.712 155.534 143.206 155.762C142.712 155.977 142.269 156.294 141.877 156.712C141.485 157.13 141.212 157.617 141.061 158.174C140.909 158.731 140.833 159.496 140.833 160.471C140.833 161.42 140.909 162.193 141.061 162.788C141.225 163.37 141.497 163.864 141.877 164.269C142.269 164.673 142.718 164.99 143.225 165.218C143.731 165.433 144.326 165.541 145.01 165.541C145.706 165.541 146.307 165.433 146.813 165.218C147.32 164.99 147.744 164.693 148.086 164.326C148.529 163.858 148.827 163.345 148.979 162.788C149.13 162.231 149.206 161.458 149.206 160.471C149.206 159.534 149.124 158.775 148.959 158.192C148.807 157.598 148.535 157.097 148.143 156.692C147.763 156.287 147.314 155.977 146.795 155.762C146.289 155.534 145.693 155.42 145.01 155.42ZM93.1133 155.42C92.1134 155.42 91.2901 155.762 90.6445 156.445V155.534H88.2334V165.427H90.7012V159.445C90.7013 158.813 90.8596 158.358 91.1758 158.079C91.4922 157.788 91.8851 157.642 92.3535 157.642C92.8091 157.642 93.1953 157.788 93.5117 158.079C93.8279 158.37 93.9862 158.825 93.9863 159.445V165.427H96.4551V159.104C96.4551 158.522 96.3785 158.003 96.2266 157.547C96.0747 157.079 95.834 156.687 95.5049 156.37C95.1884 156.041 94.8279 155.8 94.4229 155.648C94.0306 155.497 93.5941 155.42 93.1133 155.42ZM114.586 152.895V155.819H113.541V157.699H114.586V162.598C114.586 163.382 114.826 164.053 115.307 164.61C115.788 165.155 116.504 165.427 117.453 165.427H118.801V163.338H117.908C117.339 163.338 117.054 163.041 117.054 162.446V157.699H118.801V155.819H117.054V152.895H114.586ZM122.826 155.534L125.864 165.427H127.896L129.966 159.218L132.035 165.427H134.067L137.086 155.534H134.484L132.89 161.648L130.858 155.534H129.055L127.042 161.648L125.446 155.534H122.826ZM158.454 155.42C157.948 155.42 157.467 155.528 157.012 155.743C156.556 155.946 156.207 156.192 155.967 156.483V155.534H153.556V165.427H156.024V159.465C156.024 158.87 156.183 158.42 156.499 158.116C156.815 157.8 157.189 157.642 157.619 157.642C157.91 157.642 158.151 157.693 158.341 157.794C158.531 157.883 158.726 158.028 158.929 158.23L160.79 156.351C160.448 156.009 160.094 155.768 159.727 155.629C159.372 155.49 158.948 155.42 158.454 155.42ZM164.719 151.907V165.427H167.188V162.483L168.231 161.307L170.662 165.427H173.719L169.922 159.521L173.453 155.534H170.472L167.188 159.579V151.907H164.719ZM198.184 81.7666C194.242 82.7925 188.514 85.5457 186.003 95.2676C185.495 97.2331 184.68 99.6488 183.882 103.926C183.713 104.828 183.531 105.818 183.453 106.658C181.433 104.108 178.334 102.431 174.801 102.431C169.19 102.431 167.056 103.777 164.83 105.383C159.856 108.971 158.61 115.606 157.422 120.263C156.924 122.213 155.933 126.154 155.684 129.242C154.929 138.581 157.76 144.015 168.203 144.015C173.037 144.015 177.36 140.958 179.655 136.864C180.085 138.81 182.345 144.007 190.874 144.108L193.628 135.491C193.628 135.491 189.191 135.163 190.398 128.322L195.072 101.851C195.077 101.818 196.496 92.4947 203.058 91.3535C201.635 88.0579 200.011 84.8561 198.184 81.7666ZM102.196 102.876C99.3185 102.939 96.5999 103.453 94.1104 104.607C84.7598 108.944 83.3267 116.34 82.1387 120.996C81.6411 122.946 81.0965 125.994 80.8076 129.568C80.0526 138.907 86.6264 144.495 95.0039 144.079L96.4756 144.006C105.59 143.553 113.099 136.68 115.032 126.704C115.985 121.785 116.467 118.27 116.617 116.09C117.096 109.145 112.331 103.055 103.104 102.875C102.806 102.869 102.503 102.869 102.196 102.876ZM139.975 102.876C137.097 102.939 134.378 103.453 131.889 104.607C122.538 108.944 121.105 116.34 119.917 120.996C119.419 122.946 118.875 125.994 118.586 129.568C117.831 138.907 124.405 144.495 132.782 144.079L134.254 144.006C143.368 143.553 150.878 136.68 152.811 126.704C153.764 121.785 154.245 118.27 154.396 116.09C154.874 109.145 150.109 103.054 140.882 102.875C140.584 102.869 140.282 102.87 139.975 102.876Z" fill="white"/>
</svg>
