<svg width="250" height="250" viewBox="0 0 250 250" fill="none" xmlns="http://www.w3.org/2000/svg">
<rect width="250" height="250" fill="#00B3F0"/>
<path d="M56.3846 209.048H193.609V210H56.3846V209.048Z" fill="white"/>
<path d="M149.385 177.221H174.055C180.226 175.283 186.734 173.059 193.612 170.512V162.186C181.545 168.034 167.279 172.998 152.18 176.592C151.245 176.819 150.316 177.01 149.385 177.221Z" fill="white"/>
<path d="M69.7671 168.258C69.2333 165.681 69.7671 162.869 71.3855 159.891L71.3277 159.687C71.2665 159.622 71.1577 159.649 71.1237 159.694C68.2473 163.498 66.7955 167.123 66.7955 170.512C66.7955 171.305 66.8737 172.097 67.0369 172.879C67.3701 174.426 68.0433 175.874 69.0123 177.224H78.1549C73.5037 174.963 70.5525 171.964 69.7671 168.262" fill="white"/>
<path d="M100.37 145.553C107.704 150.483 125.894 150.626 145.655 145.944C165.419 141.252 181.821 132.874 186.462 125.105C187.57 123.263 187.971 121.505 187.618 119.903C186.866 116.306 182.593 113.783 175.313 112.6C175.232 112.59 175.15 112.648 175.13 112.723C175.109 112.828 175.16 112.896 175.245 112.937C179.682 114.059 182.304 115.959 182.834 118.384C184.374 125.673 167.248 135.928 144.693 141.3C126.822 145.543 109.89 145.495 103.512 141.204C102.094 140.249 101.231 139.103 100.965 137.818C100.452 135.387 102.057 132.504 105.634 129.451C105.685 129.406 105.708 129.301 105.644 129.23C105.606 129.155 105.515 129.155 105.44 129.192C99.3164 133.541 96.4876 137.743 97.2356 141.347C97.5756 142.979 98.6228 144.37 100.367 145.556" fill="white"/>
<path d="M88.1202 156.984C85.8932 155.505 84.5468 153.71 84.1252 151.68C83.5914 149.174 84.4652 146.389 86.7126 143.425C86.7568 143.367 86.7432 143.231 86.6854 143.183C86.6344 143.139 86.5358 143.139 86.4712 143.183C81.922 147.719 79.933 152.108 80.732 155.896C81.2386 158.289 82.7958 160.363 85.3628 162.097C95.8892 169.166 121.556 169.506 149.249 162.937C166.606 158.823 182.29 152.611 193.615 145.454V138.658C183.086 146.23 166.555 153.074 148.103 157.473C121.896 163.675 97.7864 163.485 88.1236 156.98" fill="white"/>
<path d="M120.539 125.609C122.521 122.297 130.284 118.479 139.416 116.303C148.531 114.134 157.089 114.083 160.238 116.197C160.87 116.626 161.264 117.143 161.38 117.714C162.108 121.219 153.441 126.241 142.085 128.941C132.949 131.113 124.381 131.157 121.257 129.056C120.611 128.611 120.22 128.094 120.097 127.509C119.975 126.952 120.121 126.285 120.532 125.605M142.751 132.194C153.771 129.563 162.873 124.932 165.453 120.628C166.069 119.625 166.276 118.639 166.096 117.751C165.1 113.073 153.026 111.947 139.175 115.239C125.303 118.526 114.861 125.01 115.84 129.685C116.833 134.35 128.896 135.469 142.751 132.194Z" fill="white"/>
<path d="M135.686 66.9212H135.635L130.617 57.1666H125.17V75.4314H130.205V65.4422H130.243L135.543 75.4314H140.711V57.1666H135.686V66.9212ZM151.846 71.3072C149.381 71.3072 148.565 68.7606 148.565 66.2922C148.565 63.8238 149.378 61.2704 151.846 61.2704C154.036 61.2704 154.532 63.3002 154.634 63.9666H159.796C159.343 59.38 156.739 56.7416 151.996 56.7348C146.689 56.7348 143.248 60.5394 143.248 66.2922C143.248 71.6982 146.41 75.8564 151.996 75.8564C157.035 75.8564 159.87 71.943 159.87 68.2642H154.648C154.328 69.9778 153.642 71.3038 151.85 71.3038M104.359 63.324C104.359 59.3494 102.094 57.1632 97.9837 57.1632H89.1811V75.428H94.4103V69.2162H96.2157C96.4571 69.699 99.2519 75.428 99.2519 75.428H104.886C104.886 75.428 101.703 69.121 101.22 68.2404C103.145 67.4006 104.365 65.551 104.365 63.324M97.6607 65.0206H94.4137V61.3588H97.6607C98.7861 61.3588 99.3437 61.9742 99.3437 63.1948C99.3437 64.4154 98.7861 65.0206 97.6607 65.0206ZM176.459 61.3996V57.136H162.233V75.428H176.459V71.1712H167.894V68.4036H174.99V64.157H167.894V61.3996H176.459ZM73.5275 75.4314H79.1919V69.2502H85.3731V64.9764H79.1919V61.4064H86.9575V57.1428H73.5275V75.4348V75.4314ZM111.859 57.1666L105.685 75.4314H111.223L111.859 73.0106H117.466L118.142 75.4314H123.762L117.595 57.1666H111.856H111.859ZM112.93 69.2094L114.678 62.6644L116.497 69.2094H112.93Z" fill="white"/>
<path d="M122.467 98.7078V80.307H113.566L99.3368 97.868V105.263H85.8014V105.219C91.6664 101.421 99.4456 98.7588 99.4456 90.303C99.4456 83.2888 94.3048 79.933 86.733 79.933C78.3622 79.933 73.0412 85.1316 73.5342 94.2028H81.9526C81.8472 90.1704 83.0678 87.4164 86.6548 87.4164C88.7322 87.4164 90.4084 88.4602 90.4084 91.442C90.4084 93.873 87.8006 95.182 86.206 96.2258C82.211 98.8064 77.7536 101.322 75.1356 105.168C73.609 107.395 72.7216 110.162 72.9052 113.335H99.8944V106.762H113.161V113.335H122.47V106.762H126.683V98.7078H122.47H122.467ZM113.158 98.7078H105.559L113.158 89.4632V98.7078Z" fill="white"/>
<path d="M61.6341 182.96C60.5597 183.177 59.6009 183.908 59.1045 184.888C58.6761 185.775 58.7033 186.781 58.6659 187.744H56.6191V190.909H58.6863V201.021H63.7693V190.909H66.3227V187.744H63.6163C63.6163 187.302 63.6401 186.71 64.0685 186.435C64.8063 186.003 65.6835 186.241 66.4689 186.363V182.837C64.8607 182.739 63.2287 182.633 61.6375 182.956L61.6341 182.96Z" fill="white"/>
<path d="M147.817 182.742H142.721V186.285H147.817V182.742Z" fill="white"/>
<path d="M74.6051 187.73C73.6905 188.152 73.1261 189.025 72.6263 189.855L72.6365 187.73H67.7711V201.004H72.8371C72.8541 199.096 72.8167 197.189 72.8541 195.281C72.9085 194.156 73.1295 192.833 74.1631 192.181C75.2919 191.497 76.7029 191.711 77.9133 192.045V187.523C76.8185 187.332 75.6387 187.227 74.6085 187.73H74.6051Z" fill="white"/>
<path d="M92.1083 191.909C92.0777 191.008 92.0607 190.035 91.5371 189.26C90.8741 188.254 89.6739 187.781 88.5383 187.557C86.7567 187.268 84.9309 187.291 83.1493 187.557C81.9627 187.747 80.7659 188.209 79.9499 189.124C79.3005 189.807 78.9945 190.763 79.0115 191.694H83.6389C83.7987 191.314 83.8973 190.855 84.2917 190.637C85.0499 190.219 86.0427 190.219 86.7907 190.657C87.4333 191.038 87.4299 192.228 86.6751 192.487C85.5497 192.942 84.3053 192.915 83.1255 193.146C81.7995 193.384 80.3749 193.687 79.3855 194.669C78.2261 195.795 78.1037 197.672 78.7327 199.1C79.3311 200.419 80.7387 201.187 82.1429 201.303C83.9585 201.483 86.0495 201.242 87.3347 199.797C87.3789 200.174 87.4197 200.596 87.5251 200.966H92.7033C92.3531 200.286 92.1525 199.576 92.1491 198.811C92.1015 196.509 92.1627 194.207 92.1185 191.905L92.1083 191.909ZM87.0457 197.223C86.5697 198.409 84.7677 198.79 83.8667 197.876C83.3533 197.379 83.4723 196.366 84.1591 196.084C85.1417 195.625 86.2399 195.496 87.2429 195.084C87.2089 195.795 87.3109 196.546 87.0423 197.223H87.0457Z" fill="white"/>
<path d="M106.936 188.254C104.709 186.747 101.295 187.196 99.7073 189.437L99.7311 187.761H94.8249V201.014H99.8637C99.8637 198.025 99.8263 195.89 99.9453 193.347C99.9963 192.276 100.952 191.337 102.053 191.484C102.941 191.45 103.512 192.31 103.515 193.122C103.593 195.761 103.549 201.017 103.549 201.017H108.639C108.642 197.927 108.646 194.863 108.639 191.776C108.639 190.43 108.068 189.032 106.932 188.26L106.936 188.254Z" fill="white"/>
<path d="M119.329 197.182C118.788 197.672 117.986 197.661 117.323 197.491C116.388 197.189 116.014 196.145 115.966 195.251C115.912 194.173 115.834 193.01 116.354 192.024C116.901 190.994 118.397 190.77 119.312 191.422C119.754 191.725 119.863 192.286 120.036 192.759H124.823C124.66 191.599 124.31 190.43 123.524 189.539C122.375 188.135 120.543 187.499 118.778 187.373C116.612 187.186 114.307 187.842 112.77 189.433C110.281 191.915 110.156 196.376 112.559 198.964C113.678 200.201 115.259 200.932 116.891 201.187L115.592 203.316C115.8 203.506 116.01 203.7 116.221 203.894C116.782 203.768 117.415 203.499 117.945 203.863C118.53 204.155 118.496 205.141 117.853 205.349C116.854 205.77 115.803 205.277 114.837 204.999L114.283 206.192C116.119 206.872 118.278 207.355 120.104 206.403C121.243 205.842 121.6 204.138 120.692 203.224C119.866 202.381 118.581 202.381 117.493 202.537L118.295 201.303C120.148 201.214 122.049 200.592 123.341 199.212C124.266 198.26 124.735 196.978 124.969 195.696H120.141C119.961 196.233 119.791 196.822 119.325 197.189L119.329 197.182Z" fill="white"/>
<path d="M139.926 191.909C139.895 191.008 139.878 190.035 139.355 189.26C138.692 188.254 137.492 187.781 136.356 187.557C134.574 187.268 132.749 187.291 130.967 187.557C129.78 187.747 128.584 188.209 127.768 189.124C127.118 189.807 126.812 190.763 126.829 191.694H131.457C131.616 191.314 131.715 190.855 132.109 190.637C132.864 190.219 133.86 190.219 134.608 190.657C135.251 191.038 135.248 192.228 134.493 192.487C133.367 192.942 132.123 192.915 130.943 193.146C129.617 193.384 128.193 193.687 127.203 194.669C126.044 195.795 125.921 197.672 126.55 199.1C127.149 200.419 128.556 201.187 129.961 201.303C131.776 201.483 133.867 201.242 135.152 199.797C135.197 200.174 135.237 200.596 135.343 200.966H140.521C140.171 200.286 139.97 199.576 139.967 198.811C139.916 196.509 139.98 194.207 139.936 191.905L139.926 191.909ZM134.863 197.223C134.387 198.409 132.585 198.79 131.684 197.876C131.171 197.379 131.29 196.366 131.977 196.084C132.959 195.625 134.058 195.496 135.061 195.084C135.027 195.795 135.129 196.546 134.86 197.223H134.863Z" fill="white"/>
<path d="M162.026 193.843C160.309 192.589 158.102 192.51 156.106 192.024C155.624 191.898 154.981 191.586 155.154 190.977C155.284 190.222 156.242 190.181 156.848 190.202C157.636 190.222 158.204 190.875 158.442 191.575H163.022C162.906 190.923 162.825 190.236 162.447 189.671C161.774 188.614 160.605 187.988 159.415 187.706C157.562 187.288 155.61 187.268 153.764 187.727C152.604 188.036 151.442 188.624 150.782 189.661C149.854 191.144 150.129 193.364 151.608 194.391C153.38 195.659 155.641 195.659 157.66 196.247C158.252 196.352 158.714 197.043 158.35 197.593C157.823 198.284 156.82 198.277 156.045 198.148C155.304 198.018 154.923 197.294 154.709 196.648H149.922C149.973 197.634 150.265 198.63 150.959 199.358C152.309 200.891 154.457 201.357 156.419 201.381C158.34 201.374 160.452 201.153 161.968 199.858C163.729 198.409 163.892 195.268 162.026 193.84V193.843Z" fill="white"/>
<path d="M147.817 187.73H142.721V201.007H147.817V187.73Z" fill="white"/>
</svg>
