<svg width="250" height="250" viewBox="0 0 250 250" fill="none" xmlns="http://www.w3.org/2000/svg">
<rect width="250" height="250" fill="#323232"/>
<path d="M144.53 112.084C142.911 112.084 141.602 113.324 141.602 114.943C141.602 116.562 142.911 117.801 144.53 117.801C146.148 117.801 147.458 116.562 147.458 114.943C147.458 113.324 146.148 112.084 144.53 112.084ZM51.2963 112.773C49.0232 112.773 47.2671 113.6 46.0961 114.737C44.925 115.873 44.3054 117.492 44.3054 120.178V120.867H40V124.656H44.3054V137.571H48.7827V124.656H53.9486V120.867H48.7827V120.35C48.7827 118.8 49.0236 118.18 49.4025 117.698C49.9535 117.044 50.815 116.733 51.9172 116.733C52.3305 116.733 52.8811 116.803 53.2599 116.906L53.9485 113.083C53.0186 112.842 52.1918 112.773 51.2963 112.773ZM179.592 112.773C177.319 112.773 175.561 113.6 174.39 114.737C173.219 115.873 172.6 117.492 172.6 120.178V120.867H168.294V124.656H172.6V137.571H177.077V124.656H182.244V120.867H177.077V120.35C177.077 118.8 177.318 118.18 177.697 117.698C178.248 117.044 179.109 116.733 180.211 116.733C180.625 116.733 181.175 116.803 181.554 116.906L182.244 113.083C181.314 112.842 180.487 112.773 179.592 112.773ZM65.1772 120.522C63.1451 120.522 61.3195 121.315 60.3207 122.555V120.867H56.0154V137.571H60.4927V127.066C61.0438 126.067 62.5933 124.656 64.5564 124.656C65.2109 124.656 65.8653 124.724 66.1753 124.828L66.692 120.661C66.2096 120.592 65.8315 120.522 65.1772 120.522ZM75.0619 120.522C70.5156 120.522 66.8647 124.311 66.8647 129.236C66.8647 131.509 67.6915 133.576 69.0002 135.092C70.4813 136.814 72.8228 137.916 75.3026 137.916C76.9902 137.916 78.5741 137.399 79.9518 136.228V137.571H84.2571V120.867H79.9518V122.21C78.643 121.142 76.9563 120.522 75.0619 120.522ZM97.0692 120.522C95.2093 120.522 93.6256 121.177 92.3513 122.21V120.867H88.0459V137.571H92.5232V126.722C93.1432 125.861 94.6937 124.656 96.588 124.656C97.6213 124.656 98.5162 124.999 99.1017 125.585C99.7216 126.205 100.101 127.066 100.101 128.719V137.571H104.578V129.064C104.578 126.206 103.958 124.517 102.856 123.209C101.478 121.556 99.3767 120.522 97.0692 120.522ZM115.634 120.522C110.536 120.522 106.645 124.38 106.645 129.236C106.645 134.058 110.433 137.916 115.599 137.916C118.733 137.916 121.213 136.779 123.177 134.161L119.732 131.578C119.008 132.68 117.562 133.782 115.737 133.782C113.016 133.782 111.122 131.854 111.122 129.236C111.122 126.687 113.051 124.656 115.634 124.656C117.252 124.656 118.596 125.482 119.491 126.653L122.66 123.863C121.11 121.865 118.527 120.522 115.634 120.522ZM131.994 120.522C127.034 120.522 123.865 124.587 123.865 129.236C123.865 134.471 127.619 137.916 132.613 137.916C135.196 137.916 137.848 136.847 139.467 134.919L136.919 132.371C136.127 133.232 134.611 134.299 132.716 134.299C130.34 134.299 128.446 132.68 128.205 130.338H139.777C139.846 129.959 139.88 129.512 139.88 129.064C139.88 124.415 136.609 120.522 131.994 120.522ZM159.581 120.522C157.721 120.522 156.137 121.177 154.862 122.21V120.867H150.557V137.571H155.034V126.722C155.654 125.861 157.205 124.656 159.099 124.656C160.132 124.656 161.027 124.999 161.613 125.585C162.233 126.205 162.612 127.066 162.612 128.719V137.571H167.089V129.064C167.089 126.206 166.469 124.517 165.367 123.209C163.989 121.556 161.889 120.522 159.581 120.522ZM191.473 120.522C186.41 120.522 182.588 124.414 182.588 129.236C182.588 134.058 186.41 137.916 191.473 137.916C196.536 137.916 200.36 134.058 200.36 129.236C200.36 124.414 196.536 120.522 191.473 120.522ZM142.291 120.867V137.571H146.768V120.867H142.291ZM131.994 124.139C133.819 124.139 135.162 125.585 135.3 127.066H128.411C128.618 125.551 130.134 124.139 131.994 124.139ZM75.6474 124.656C77.3695 124.656 78.85 125.482 79.7799 126.722V131.716C78.9189 132.956 77.4382 133.782 75.7506 133.782C73.2364 133.782 71.342 131.854 71.342 129.236C71.342 126.825 73.0298 124.656 75.6474 124.656ZM191.473 124.656C194.091 124.656 195.882 126.722 195.882 129.236C195.882 131.75 194.091 133.782 191.473 133.782C188.856 133.782 187.065 131.75 187.065 129.236C187.065 126.722 188.856 124.656 191.473 124.656Z" fill="white"/>
<path d="M203.938 123.553C203.938 125.241 205.281 126.584 206.969 126.584C208.657 126.584 210 125.241 210 123.553C210 121.866 208.657 120.522 206.969 120.522C205.281 120.522 203.938 121.866 203.938 123.553ZM203.938 134.885C203.938 136.572 205.281 137.915 206.969 137.915C208.657 137.915 210 136.572 210 134.885C210 133.197 208.657 131.854 206.969 131.854C205.281 131.854 203.938 133.197 203.938 134.885Z" fill="#FFC300"/>
</svg>
