<svg width="250" height="250" viewBox="0 0 250 250" fill="none" xmlns="http://www.w3.org/2000/svg">
<rect width="250" height="250" fill="#00B3F0"/>
<path d="M119.138 177.796H125.196V182.031H119.138V177.796Z" fill="white"/>
<path d="M115.544 177.796H109.482V199.662H115.544V177.796Z" fill="white"/>
<path d="M162.708 188.552C162.723 187.14 162.199 185.689 161.129 184.74C159.671 183.398 157.532 183.112 155.644 183.466C154.292 183.666 153.143 184.506 152.25 185.504L152.257 177.793H146.169V199.659H152.25C152.28 196.667 152.212 193.672 152.28 190.681C152.287 189.381 153.323 188.093 154.71 188.225C155.825 188.108 156.59 189.163 156.578 190.187C156.733 193.341 156.593 196.501 156.65 199.659H162.697C162.712 195.955 162.708 192.252 162.697 188.552H162.708Z" fill="white"/>
<path d="M65.3772 185.7C63.5727 183.794 60.7961 183.274 58.2719 183.342C56.2338 183.398 54.1956 184.178 52.7301 185.617C49.9196 188.326 49.4374 193.02 51.4379 196.328C52.6321 198.314 54.8135 199.527 57.0588 199.919C59.6018 200.333 62.3633 200.035 64.5635 198.615C65.8595 197.786 66.8088 196.509 67.3702 195.092H61.7304C60.7283 196.238 58.9275 196.528 57.5825 195.846C56.5578 195.277 56.1735 194.079 56.004 192.99H67.6866C67.6452 190.428 67.2308 187.626 65.3772 185.704V185.7ZM56.0228 189.848C56.2752 189.008 56.5954 188.093 57.4205 187.652C58.5695 187.03 60.2197 187.026 61.1314 188.066C61.6136 188.533 61.753 189.227 61.9263 189.848H56.0228Z" fill="white"/>
<path d="M84.5269 184.25C81.8671 182.607 77.8624 183.146 76.0691 185.832L76.0767 183.783H70.2108V199.628H76.2914C76.3215 196.626 76.25 193.657 76.3253 190.658C76.3328 189.347 77.4178 188.07 78.8042 188.228C79.9043 188.138 80.6427 189.2 80.6201 190.214C80.6955 193.337 80.6503 196.502 80.6427 199.632H86.7535C86.7648 195.929 86.7648 192.259 86.7535 188.556C86.7761 186.872 85.9849 185.162 84.5307 184.257L84.5269 184.25Z" fill="white"/>
<path d="M100.188 185.734C99.7848 184.924 99.1934 184.171 98.3306 183.828C95.8328 182.754 92.6494 183.447 90.8712 185.527C89.5488 187.072 89.0252 189.159 89.0666 191.159C89.1193 193.171 89.643 195.292 91.0746 196.78C92.6079 198.389 95.004 198.931 97.1401 198.525C98.4022 198.268 99.4458 197.425 100.188 196.404C100.15 197.903 100.354 199.591 99.3667 200.853C98.8355 201.621 97.6638 201.896 96.8915 201.335C96.3075 200.981 96.0815 200.269 95.5691 199.854H89.6732C89.8389 201.154 90.389 202.424 91.4024 203.287C93.0337 204.748 95.3129 205.084 97.4227 205.185C99.7283 205.249 102.237 204.974 104.087 203.464C105.677 202.134 106.257 199.979 106.269 197.975V183.775H100.177L100.188 185.731V185.734ZM100.342 191.14C100.297 192.075 100.252 193.088 99.702 193.883C98.9108 195.017 97.0648 195.051 96.1305 194.087C95.3016 193.182 95.1359 191.875 95.166 190.7C95.1547 189.588 95.7048 188.375 96.7973 187.961C97.5696 187.656 98.4964 187.739 99.1934 188.191C100.105 188.857 100.384 190.071 100.342 191.144V191.14Z" fill="white"/>
<path d="M142.112 190.986C140.62 189.927 138.762 189.6 137.003 189.261C136.087 189.061 135.078 189.031 134.283 188.484C133.846 188.198 133.929 187.524 134.2 187.155C134.543 186.759 135.176 186.669 135.715 186.68C136.717 186.699 137.707 187.294 137.926 188.364H143.37C143.332 187.192 142.91 186.013 142.01 185.229C140.322 183.617 137.847 183.406 135.632 183.334C133.473 183.402 131.111 183.722 129.461 185.244C127.562 186.902 127.682 190.368 129.826 191.773C131.951 193.243 134.633 193.235 137.026 193.958C137.73 194.094 138.193 194.866 137.839 195.529C137.244 196.343 136.087 196.362 135.183 196.242C134.26 196.128 133.676 195.27 133.507 194.422H127.735C127.769 195.808 128.334 197.176 129.389 198.103C131.201 199.723 133.752 200.133 136.103 200.08C138.242 200.02 140.548 199.666 142.221 198.216C144.297 196.426 144.429 192.636 142.115 190.99L142.112 190.986Z" fill="white"/>
<path d="M125.196 183.779H119.138V199.659H125.196V183.779Z" fill="white"/>
<path d="M49.6521 209.021H200.344V210H49.6521V209.021Z" fill="white"/>
<path d="M151.779 172.209H178.87C185.648 170.081 192.794 167.643 200.344 164.848V155.712C187.094 162.128 171.426 167.579 154.845 171.52C153.817 171.768 152.8 171.979 151.775 172.209" fill="white"/>
<path d="M64.3487 162.373C63.761 159.543 64.3487 156.458 66.1269 153.188L66.0629 152.965C65.9951 152.894 65.8783 152.924 65.8406 152.973C62.6835 157.147 61.0899 161.126 61.0899 164.844C61.0899 165.71 61.1766 166.584 61.3536 167.44C61.7191 169.139 62.4575 170.729 63.5236 172.209H73.5638C68.4589 169.73 65.2152 166.438 64.3525 162.373" fill="white"/>
<path d="M97.9539 137.459C106.005 142.869 125.98 143.027 147.684 137.888C169.387 132.738 187.396 123.546 192.497 115.02C193.714 113.001 194.154 111.068 193.766 109.313C192.941 105.364 188.247 102.595 180.253 101.299C180.166 101.288 180.076 101.352 180.053 101.431C180.03 101.548 180.087 101.623 180.181 101.665C185.052 102.897 187.931 104.984 188.515 107.64C190.206 115.638 171.399 126.891 146.632 132.787C127.008 137.444 108.416 137.391 101.409 132.682C99.8527 131.634 98.9033 130.376 98.6094 128.963C98.0481 126.296 99.8074 123.131 103.737 119.778C103.793 119.729 103.82 119.613 103.748 119.537C103.707 119.458 103.605 119.458 103.526 119.496C96.8011 124.269 93.6967 128.877 94.518 132.832C94.891 134.622 96.04 136.148 97.9576 137.451" fill="white"/>
<path d="M84.5043 150C82.0592 148.377 80.5824 146.406 80.1153 144.18C79.5313 141.433 80.4882 138.374 82.9559 135.123C83.0049 135.059 82.9898 134.912 82.9257 134.859C82.8692 134.81 82.7637 134.81 82.6884 134.859C77.6928 139.836 75.5077 144.651 76.3855 148.81C76.9431 151.436 78.6497 153.715 81.4715 155.618C93.0299 163.375 121.218 163.748 151.624 156.537C170.683 152.023 187.908 145.205 200.344 137.353V129.898C188.782 138.208 170.627 145.717 150.366 150.547C121.587 157.351 95.1133 157.143 84.5005 150.004" fill="white"/>
<path d="M120.102 115.57C122.276 111.935 130.802 107.749 140.834 105.361C150.844 102.98 160.24 102.927 163.699 105.244C164.396 105.715 164.825 106.284 164.953 106.909C165.752 110.755 156.235 116.267 143.765 119.228C133.733 121.613 124.326 121.662 120.894 119.353C120.182 118.867 119.752 118.298 119.62 117.657C119.485 117.043 119.647 116.316 120.099 115.57M144.5 122.8C156.601 119.914 166.596 114.832 169.429 110.107C170.103 109.007 170.333 107.926 170.133 106.954C169.041 101.819 155.783 100.587 140.571 104.196C125.339 107.802 113.871 114.922 114.945 120.05C116.034 125.17 129.284 126.394 144.496 122.804" fill="white"/>
<path d="M136.735 51.1741H136.679L131.167 40.4709H125.185V60.5135H130.715V49.5541H130.757L136.577 60.5135H142.251V40.4672H136.732V51.1703L136.735 51.1741ZM154.484 55.9888C151.775 55.9888 150.882 53.1972 150.882 50.4884C150.882 47.7797 151.775 44.9767 154.484 44.9767C156.891 44.9767 157.434 47.207 157.547 47.9341H163.213C162.715 42.9009 159.856 40.0075 154.649 40C148.821 40 145.043 44.1743 145.043 50.4884C145.043 56.4221 148.516 60.9844 154.649 60.9844C160.184 60.9844 163.296 56.6896 163.296 52.6547H157.558C157.208 54.5346 156.454 55.9888 154.484 55.9888ZM102.332 47.2334C102.332 42.8708 99.8451 40.4709 95.328 40.4709H85.6609V60.5135H91.4024V53.6983H93.384C93.6478 54.2295 96.7182 60.5135 96.7182 60.5135H102.904C102.904 60.5135 99.4119 53.5928 98.8769 52.6245C100.99 51.7053 102.332 49.6747 102.332 47.2296M94.9701 49.0907H91.4024V45.0709H94.9701C96.2058 45.0709 96.8199 45.7453 96.8199 47.0865C96.8199 48.4277 96.2058 49.0907 94.9701 49.0907ZM181.503 45.1161V40.437H165.88V60.5059H181.503V55.8344H172.1V52.7978H179.895V48.1413H172.1V45.1161H181.503ZM68.4778 60.5097H74.6978V53.7246H81.4866V49.0342H74.6978V45.1161H83.2271V40.437H68.4778V60.5059V60.5097ZM110.571 40.4672L103.79 60.5097H109.874L110.571 57.8537H116.731L117.473 60.5097H123.644L116.874 40.4672H110.571ZM111.746 53.6794L113.664 46.495L115.664 53.6794H111.746Z" fill="white"/>
<path d="M122.22 86.0527V65.8632H112.443L96.8161 85.1334V93.2484H81.9538V93.1994C88.396 89.0289 96.9367 86.1129 96.9367 76.8338C96.9367 69.137 91.2931 65.4563 82.9747 65.4563C73.7823 65.4563 67.9391 71.1601 68.4816 81.1136H77.723C77.6062 76.6907 78.9474 73.6655 82.8881 73.6655C85.1711 73.6655 87.0096 74.8107 87.0096 78.0808C87.0096 80.7482 84.1464 82.1835 82.3946 83.3288C78.0055 86.1619 73.1155 88.9196 70.2372 93.1391C68.5607 95.5842 67.5849 98.6207 67.7884 102.098H97.4302V94.8872H111.999V102.098H122.22V94.8872H126.846V86.0489H122.22V86.0527ZM111.999 86.0527H103.654L111.999 75.9071V86.0527Z" fill="white"/>
</svg>
