<svg width="250" height="250" viewBox="0 0 250 250" fill="none" xmlns="http://www.w3.org/2000/svg">
<rect width="250" height="250" fill="#00B3F0"/>
<path d="M150.715 205.759H183.787C192.059 203.157 200.787 200.179 210 196.767V185.602C193.824 193.444 174.698 200.103 154.461 204.918C153.203 205.218 151.962 205.477 150.715 205.759Z" fill="white"/>
<path d="M43.9846 193.742C43.2642 190.285 43.9846 186.518 46.1561 182.523L46.0733 182.251C45.9906 182.164 45.8493 182.195 45.801 182.261C41.9475 187.359 40 192.219 40 196.762C40 197.823 40.1069 198.888 40.324 199.933C40.7652 202.008 41.6683 203.948 42.9712 205.758H55.2246C48.9928 202.728 45.0358 198.706 43.9846 193.742Z" fill="white"/>
<path d="M85.0107 163.306C94.841 169.913 119.224 170.106 145.716 163.83C172.212 157.539 194.196 146.31 200.421 135.9C201.906 133.429 202.44 131.068 201.972 128.924C200.965 124.098 195.233 120.72 185.475 119.131C185.372 119.125 185.258 119.2 185.23 119.297C185.203 119.438 185.275 119.531 185.389 119.583C191.335 121.086 194.847 123.636 195.561 126.883C197.625 136.652 174.666 150.401 144.43 157.601C120.478 163.289 97.7777 163.227 89.2262 157.474C87.3235 156.192 86.1654 154.661 85.8104 152.934C85.1244 149.677 87.2718 145.806 92.0663 141.715C92.1353 141.653 92.1697 141.515 92.0836 141.422C92.0353 141.319 91.9078 141.319 91.8113 141.374C83.601 147.202 79.8094 152.834 80.8125 157.667C81.264 159.852 82.6703 161.717 85.0107 163.306Z" fill="white"/>
<path d="M68.5873 178.627C65.6058 176.641 63.7962 174.239 63.2309 171.516C62.5174 168.159 63.6859 164.426 66.7019 160.452C66.7639 160.376 66.7432 160.193 66.664 160.131C66.5916 160.069 66.4606 160.069 66.3779 160.131C60.2736 166.211 57.6092 172.092 58.6811 177.169C59.3602 180.381 61.4455 183.163 64.8854 185.486C79.0001 194.965 113.406 195.416 150.529 186.61C173.795 181.095 194.82 172.767 210 163.175V154.065C195.885 164.219 173.722 173.391 148.991 179.288C113.858 187.602 81.5404 187.347 68.5873 178.627Z" fill="white"/>
<path d="M112.046 136.567C114.7 132.131 125.106 127.012 137.352 124.1C149.575 121.187 161.042 121.122 165.265 123.955C166.113 124.527 166.64 125.22 166.799 125.985C167.774 130.687 156.155 137.418 140.934 141.037C128.687 143.95 117.202 144.012 113.014 141.192C112.146 140.596 111.622 139.903 111.463 139.117C111.291 138.373 111.491 137.477 112.046 136.567ZM141.833 145.401C156.603 141.871 168.805 135.667 172.265 129.894C173.089 128.553 173.368 127.233 173.127 126.044C171.793 119.767 155.607 118.264 137.039 122.669C118.443 127.081 104.446 135.771 105.755 142.037C107.086 148.293 123.262 149.789 141.833 145.401Z" fill="white"/>
<path d="M132.353 57.8969H132.288L125.556 44.8231H118.252V69.3024H125.005V55.9184H125.056L132.16 69.3024H139.092V44.8231H132.353V57.8969ZM154.016 63.7771C150.714 63.7771 149.622 60.3648 149.622 57.0558C149.622 53.7676 150.714 50.3242 154.016 50.3242C156.957 50.3242 157.615 53.0472 157.756 53.9365H164.674C164.06 47.7908 160.576 44.2544 154.216 44.2406C147.099 44.2406 142.487 49.3419 142.487 57.0558C142.487 64.3045 146.73 69.8815 154.216 69.8815C160.972 69.8815 164.771 64.6354 164.771 59.703H157.77C157.339 61.9986 156.419 63.7771 154.016 63.7771ZM90.3536 53.0817C90.3536 47.7494 87.317 44.8231 81.809 44.8231H70.007V69.3024H77.0144V60.9749H79.4341C79.7547 61.6229 83.5013 69.3024 83.5013 69.3024H91.0533C91.0533 69.3024 86.7896 60.8508 86.1382 59.6685C88.7164 58.5414 90.3536 56.0632 90.3536 53.0817ZM81.3678 55.3566H77.0144V50.4483H81.3678C82.8775 50.4483 83.6254 51.2721 83.6254 52.9059C83.6254 54.5224 82.8775 55.3566 81.3678 55.3566ZM187.003 50.5034V44.7886H167.928V69.3024H187.003V63.6014H175.521V59.8891H185.034V54.1984H175.521V50.5034H187.003ZM49.0262 69.3024H56.6196V61.0197H64.9126V55.2876H56.6196V50.5034H67.0359V44.7886H49.0262V69.3024ZM100.411 44.8231L92.1356 69.3024H99.5601L100.411 66.0555H107.929L108.839 69.3024H116.374L108.105 44.8231H100.411ZM101.849 60.9645L104.193 52.1889L106.63 60.9645H101.849Z" fill="white"/>
<path d="M114.631 100.51V75.8407H102.694L83.6196 99.3825V109.299H65.4755V109.237C73.3446 104.143 83.7678 100.579 83.7678 89.2419C83.7678 79.839 76.881 75.3409 66.7232 75.3409C55.5038 75.3409 48.3655 82.3138 49.0273 94.4742H60.3122C60.1708 89.0661 61.8046 85.3746 66.6164 85.3746C69.4049 85.3746 71.6487 86.7775 71.6487 90.7723C71.6487 94.0296 68.1502 95.784 66.0166 97.1834C60.6603 100.641 54.6869 104.012 51.1781 109.165C49.1307 112.153 47.9415 115.862 48.1862 120.115H84.3675V111.305H102.153V120.115H114.631V111.305H120.277V100.51H114.631ZM102.153 100.51H91.9678L102.153 88.1183V100.51Z" fill="white"/>
</svg>
