<svg width="250" height="250" viewBox="0 0 250 250" fill="none" xmlns="http://www.w3.org/2000/svg">
<rect width="250" height="250" fill="#182851"/>
<path d="M40 112.486H55.2247V118.576H47.1055V122.382H54.4633V128.218H47.1055V137.86H40V112.486Z" fill="white"/>
<path d="M59.4544 112.486H69.9669C78.4492 112.486 78.7388 118.938 78.7388 120.099C78.7388 124.884 75.8027 126.878 73.4103 127.712L80.5149 137.861H71.9237L66.559 129.488V137.861H59.4535V112.486H59.4544ZM68.2997 123.905C70.8373 123.905 71.6351 122.455 71.6351 120.969C71.6351 119.555 70.8373 118.069 68.2997 118.069H66.5598V123.905H68.2997Z" fill="white"/>
<path d="M83.4819 112.486H98.7067V118.576H90.5865V122.129H97.9443V127.711H90.5865V131.77H98.7067V137.86H83.4819V112.486Z" fill="white"/>
<path d="M103.738 112.486H118.963V118.576H110.843V122.129H118.201V127.711H110.843V131.77H118.963V137.86H103.738V112.486Z" fill="white"/>
<path d="M183.175 112.486H190.28L194.738 127.965L199.196 112.486H206.302L210 137.861H203.185L201.3 123.143L197.022 137.861H192.455L188.178 123.143L186.293 137.861H179.478L183.175 112.486Z" fill="white"/>
<path d="M127.735 137.871V137.861H142.38V137.871H148.47V131.77H145.425V112.486H126.72V123.578C126.72 124.376 126.757 125.173 126.684 125.971C126.395 129.922 123.965 131.662 121.645 131.771V137.872H127.735V137.871ZM133.245 124.594V118.576H138.319V131.77H130.562C132.992 130.284 133.245 127.638 133.245 124.594Z" fill="white"/>
<path d="M150.043 125.045C150.043 117.347 156.284 111.107 163.981 111.107C171.679 111.107 177.92 117.347 177.92 125.045" fill="#416AB2"/>
<path d="M150.043 124.955C150.043 132.653 156.284 138.893 163.981 138.893C171.679 138.893 177.92 132.653 177.92 124.955" fill="#FED00D"/>
</svg>
