<svg width="250" height="250" viewBox="0 0 250 250" fill="none" xmlns="http://www.w3.org/2000/svg">
<rect width="250" height="250" fill="#12110C"/>
<path d="M46.5945 103.47V98.2963H59.4491V92.2744H40.1077V119.298H46.5945V109.492H56.5907V103.47H46.5945Z" fill="white"/>
<path d="M86.3176 107.253C86.3176 115.399 81.6087 119.838 74.5435 119.838C67.4412 119.838 62.7695 115.399 62.7695 107.253V92.2748H69.3325V107.06C69.3325 111.692 71.1086 113.699 74.6198 113.699C78.0956 113.699 79.9089 111.692 79.9089 107.06V92.2748H86.3176V107.253Z" fill="white"/>
<path d="M96.9347 103.161H96.8194C96.8194 103.2 96.8956 106.52 96.8956 110.033V119.296H90.4107V92.2743H96.9737L108.476 108.103H108.593C108.593 108.064 108.554 104.59 108.554 101.655V92.2743H115.039V119.296H108.439L96.9347 103.161Z" fill="white"/>
<path d="M50.4908 144.021C52.6184 144.021 53.7566 142.811 53.7566 141.089C53.7566 139.253 52.5087 138.154 50.4908 138.154H46.1632V144.021H50.4908ZM49.905 133.605C51.5918 133.605 52.6928 132.577 52.6928 131.074C52.6928 129.642 51.629 128.543 49.8678 128.543H46.1632V133.605H49.905ZM55.5903 135.439C58.0842 136.171 60.2489 138.226 60.2489 141.637C60.2489 145.6 57.424 149.121 51.0413 149.121H40V123.443H51.0785C55.7 123.443 58.8913 126.562 58.8913 130.12C58.8913 132.98 56.9832 134.779 55.5903 135.292V135.439Z" fill="white"/>
<path d="M75.6917 143.802C79.9468 143.802 83.0284 140.868 83.0284 136.283C83.0284 131.66 79.9468 128.725 75.6917 128.725C71.4366 128.725 68.355 131.66 68.355 136.283C68.355 140.868 71.4366 143.802 75.6917 143.802ZM75.6917 122.93C83.5417 122.93 89.2269 128.431 89.2269 136.283C89.2269 144.131 83.5417 149.634 75.6917 149.634C67.8417 149.634 62.1565 144.131 62.1565 136.283C62.1565 128.431 67.8417 122.93 75.6917 122.93Z" fill="white"/>
<path d="M104.524 144.646C103.094 142.518 102.103 141.014 102.065 141.014H102.03C101.993 141.014 100.966 142.518 99.4617 144.683L96.4545 149.12H89.0081L98.5448 135.916L89.447 123.445H96.9306L99.8652 127.698C101.223 129.606 102.396 131.293 102.434 131.293H102.469C102.543 131.293 103.644 129.569 104.853 127.698L107.606 123.445H114.978L105.991 135.916L115.309 149.12H107.568L104.524 144.646Z" fill="white"/>
<mask id="mask0_363_2931" style="mask-type:luminance" maskUnits="userSpaceOnUse" x="122" y="81" width="87" height="88">
<path d="M122.443 158.458L208.806 168.301L199.228 81.6744H122.443V158.458Z" fill="white"/>
</mask>
<g mask="url(#mask0_363_2931)">
<path d="M208.806 81.6744H122.443V168.301H208.806V81.6744Z" fill="url(#paint0_linear_363_2931)"/>
</g>
<mask id="mask1_363_2931" style="mask-type:luminance" maskUnits="userSpaceOnUse" x="121" y="80" width="89" height="90">
<path d="M123.512 157.504V82.7401H198.272L207.599 167.091L123.512 157.504ZM121.378 80.6069V159.41L208.957 169.393H210L200.184 80.6069H121.378Z" fill="white"/>
</mask>
<g mask="url(#mask1_363_2931)">
<path d="M210 80.6069H121.378V169.393H210V80.6069Z" fill="url(#paint1_linear_363_2931)"/>
</g>
<mask id="mask2_363_2931" style="mask-type:luminance" maskUnits="userSpaceOnUse" x="130" y="103" width="70" height="44">
<path d="M130.401 138.724L199.572 146.728L195.503 103.504H130.401V138.724Z" fill="white"/>
</mask>
<g mask="url(#mask2_363_2931)">
<path d="M199.572 103.504H130.401V146.728H199.572V103.504Z" fill="url(#paint2_linear_363_2931)"/>
</g>
<path d="M194.227 104.675L198.296 145.792L131.594 137.788V104.675H194.227Z" fill="#12110C"/>
<mask id="mask3_363_2931" style="mask-type:luminance" maskUnits="userSpaceOnUse" x="136" y="111" width="17" height="21">
<path d="M148.874 111.501V124.192C148.874 127.445 147.325 129.072 144.226 129.072C142.631 129.072 141.45 128.68 140.678 127.891C139.908 127.103 139.523 125.879 139.523 124.218V111.501H136.224V124.452C136.224 126.762 136.916 128.579 138.299 129.898C139.683 131.218 141.623 131.878 144.117 131.878C145.792 131.878 147.234 131.579 148.441 130.976C149.646 130.376 150.566 129.52 151.204 128.406C151.84 127.294 152.16 125.992 152.16 124.508V111.501H148.874V111.501Z" fill="white"/>
</mask>
<g mask="url(#mask3_363_2931)">
<path d="M152.16 111.501H136.224V131.878H152.16V111.501Z" fill="url(#paint3_linear_363_2931)"/>
</g>
<mask id="mask4_363_2931" style="mask-type:luminance" maskUnits="userSpaceOnUse" x="155" y="111" width="17" height="21">
<path d="M167.745 119.723H158.478V111.501H155.191V131.603H158.478V122.541H167.745V131.603H171.044V111.501H167.745V119.723Z" fill="white"/>
</mask>
<g mask="url(#mask4_363_2931)">
<path d="M171.044 111.501H155.191V131.603H171.044V111.501Z" fill="url(#paint4_linear_363_2931)"/>
</g>
<mask id="mask5_363_2931" style="mask-type:luminance" maskUnits="userSpaceOnUse" x="174" y="111" width="17" height="21">
<path d="M177.512 114.252H180.358C184.858 114.252 187.11 116.656 187.11 121.469C187.11 126.383 184.689 128.84 179.85 128.84H177.512V114.252ZM174.226 111.501V131.603H179.85C183.315 131.603 185.967 130.725 187.81 128.97C189.653 127.214 190.573 124.677 190.573 121.36C190.573 118.233 189.684 115.81 187.906 114.086C186.128 112.362 183.64 111.501 180.439 111.501H174.226Z" fill="white"/>
</mask>
<g mask="url(#mask5_363_2931)">
<path d="M190.573 111.501H174.226V131.603H190.573V111.501Z" fill="url(#paint5_linear_363_2931)"/>
</g>
<defs>
<linearGradient id="paint0_linear_363_2931" x1="165.625" y1="81.6744" x2="165.625" y2="168.301" gradientUnits="userSpaceOnUse">
<stop stop-color="#FCCB2B"/>
<stop offset="0.240108" stop-color="#FFF2B4"/>
<stop offset="0.339584" stop-color="#FFCD2A"/>
<stop offset="0.373023" stop-color="#FBC827"/>
<stop offset="0.421733" stop-color="#F2B71F"/>
<stop offset="0.479517" stop-color="#E29B15"/>
<stop offset="0.516129" stop-color="#D7870E"/>
<stop offset="0.559175" stop-color="#DD9627"/>
<stop offset="0.648875" stop-color="#ECBC61"/>
<stop offset="0.762275" stop-color="#FFF2B4"/>
<stop offset="0.912972" stop-color="#F6B815"/>
<stop offset="0.963136" stop-color="#F7CB35"/>
<stop offset="1" stop-color="#F8DA4C"/>
</linearGradient>
<linearGradient id="paint1_linear_363_2931" x1="165.689" y1="89.8042" x2="165.689" y2="166.594" gradientUnits="userSpaceOnUse">
<stop stop-color="#FCCB2B"/>
<stop offset="0.103448" stop-color="#FCCB2B"/>
<stop offset="0.215796" stop-color="#E09714"/>
<stop offset="0.250119" stop-color="#D7870E"/>
<stop offset="0.302641" stop-color="#DD9627"/>
<stop offset="0.412088" stop-color="#ECBC61"/>
<stop offset="0.550453" stop-color="#FFF2B4"/>
<stop offset="0.96716" stop-color="#F6B815"/>
<stop offset="1" stop-color="#F6B815"/>
</linearGradient>
<linearGradient id="paint2_linear_363_2931" x1="148.996" y1="125.116" x2="199.574" y2="125.116" gradientUnits="userSpaceOnUse">
<stop stop-color="#9E5E18"/>
<stop offset="0.268817" stop-color="#9E5E18"/>
<stop offset="0.354046" stop-color="#A1631E"/>
<stop offset="0.482691" stop-color="#AB712B"/>
<stop offset="0.638769" stop-color="#BD8A48"/>
<stop offset="0.81637" stop-color="#D7B177"/>
<stop offset="1" stop-color="#F8E3B5"/>
</linearGradient>
<linearGradient id="paint3_linear_363_2931" x1="144.192" y1="111.501" x2="144.192" y2="131.276" gradientUnits="userSpaceOnUse">
<stop stop-color="#FCCB2B"/>
<stop offset="0.16129" stop-color="#FFF2B4"/>
<stop offset="0.290323" stop-color="#FFCD2A"/>
<stop offset="0.345222" stop-color="#FBC827"/>
<stop offset="0.425192" stop-color="#F2B71F"/>
<stop offset="0.52006" stop-color="#E29B15"/>
<stop offset="0.580168" stop-color="#D7870E"/>
<stop offset="0.668041" stop-color="#E39B10"/>
<stop offset="0.775041" stop-color="#F6B815"/>
<stop offset="0.887673" stop-color="#F7CB35"/>
<stop offset="0.970443" stop-color="#F8DA4C"/>
<stop offset="1" stop-color="#F8DA4C"/>
</linearGradient>
<linearGradient id="paint4_linear_363_2931" x1="163.118" y1="111.501" x2="163.118" y2="131.009" gradientUnits="userSpaceOnUse">
<stop stop-color="#FCCB2B"/>
<stop offset="0.16129" stop-color="#FFF2B4"/>
<stop offset="0.290323" stop-color="#FFCD2A"/>
<stop offset="0.345222" stop-color="#FBC827"/>
<stop offset="0.425192" stop-color="#F2B71F"/>
<stop offset="0.52006" stop-color="#E29B15"/>
<stop offset="0.580168" stop-color="#D7870E"/>
<stop offset="0.668041" stop-color="#E39B10"/>
<stop offset="0.775041" stop-color="#F6B815"/>
<stop offset="0.887673" stop-color="#F7CB35"/>
<stop offset="0.970443" stop-color="#F8DA4C"/>
<stop offset="1" stop-color="#F8DA4C"/>
</linearGradient>
<linearGradient id="paint5_linear_363_2931" x1="182.399" y1="111.501" x2="182.399" y2="131.009" gradientUnits="userSpaceOnUse">
<stop stop-color="#FCCB2B"/>
<stop offset="0.16129" stop-color="#FFF2B4"/>
<stop offset="0.290323" stop-color="#FFCD2A"/>
<stop offset="0.345222" stop-color="#FBC827"/>
<stop offset="0.425192" stop-color="#F2B71F"/>
<stop offset="0.52006" stop-color="#E29B15"/>
<stop offset="0.580168" stop-color="#D7870E"/>
<stop offset="0.668041" stop-color="#E39B10"/>
<stop offset="0.775041" stop-color="#F6B815"/>
<stop offset="0.887673" stop-color="#F7CB35"/>
<stop offset="0.970443" stop-color="#F8DA4C"/>
<stop offset="1" stop-color="#F8DA4C"/>
</linearGradient>
</defs>
</svg>
