<svg width="250" height="250" viewBox="0 0 250 250" fill="none" xmlns="http://www.w3.org/2000/svg">
<rect width="250" height="250" fill="#003A70"/>
<mask id="mask0_252_3" style="mask-type:luminance" maskUnits="userSpaceOnUse" x="40" y="98" width="170" height="54">
<path d="M210 98H40V151.942H210V98Z" fill="white"/>
</mask>
<g mask="url(#mask0_252_3)">
<path d="M66.4839 151.942C51.8809 151.942 40 139.843 40 124.971C40 110.099 51.8809 98 66.4839 98C81.0869 98 92.9677 110.099 92.9677 124.971C92.9677 139.843 81.0869 151.942 66.4839 151.942Z" fill="white"/>
<path d="M66.4839 150.083C80.1023 150.083 91.1424 138.84 91.1424 124.971C91.1424 111.102 80.1023 99.859 66.4839 99.859C52.8654 99.859 41.8254 111.102 41.8254 124.971C41.8254 138.84 52.8654 150.083 66.4839 150.083Z" fill="#003A70"/>
<path d="M68.747 108.968C58.8445 109.853 49.9238 116.224 49.9238 125.259C49.9238 140.806 73.1054 142.068 76.2036 140.914L79.0724 126.157H71.9303C71.9303 126.157 71.9536 126.272 74.3698 139.105C71.6774 138.663 59.2823 133.995 59.2823 123.389C59.2823 115.363 67.1171 109.87 75.9805 109.143C77.0855 109.082 77.4638 108.95 76.5245 108.849C76.3758 108.833 76.1951 108.818 75.9805 108.803C72.2788 108.552 69.9285 108.862 68.747 108.968Z" fill="white"/>
<path d="M193.463 105.408H205.742C206.79 105.408 207.166 104.936 207.607 103.99L210 98.4436H190.393C187.858 98.4436 186.068 100.062 186.068 102.848V133.822L184.071 129.148C183.82 128.587 183.344 128.139 182.449 128.139H169.606V101.004C169.606 99.266 168.543 98.4458 167.094 98.4458H162.211V104.272C163.361 106.524 164.043 109.242 164.234 111.85C162.103 104.52 155.753 98 146.507 98C138.164 98 129.72 103.772 128.205 114.081H118.464C117.367 114.081 117.152 114.339 116.585 115.644L114.449 120.494H125.55C124.15 125.536 119.63 128.696 115.017 128.696C108.446 128.696 103.924 122.926 103.924 116.845C103.924 109.323 109.575 104.958 115.064 104.958C118.315 104.958 121.111 106.403 122.671 107.626C123.678 108.435 124.726 108.182 125.23 107.364L127.775 102.915C127.775 102.915 123.173 98.0195 115.276 98.0195C105.648 98.0195 96.5016 105.135 96.5016 116.845C96.5016 126.443 104.011 135.547 114.896 135.547C124.227 135.547 131.532 128.23 132.933 120.509C132.933 124.352 132.414 125.852 131.664 128.07C135.472 132.913 140.542 135.573 146.458 135.573C153.747 135.573 159.304 131.45 162.211 126.458V130.7C162.211 133.459 164.16 135.103 166.306 135.103H190.954C192.333 135.103 193.465 134.344 193.465 132.545V120.61H203.511C204.802 120.61 205.211 120.193 205.815 118.931L207.917 114.073H193.463V105.406V105.408ZM146.401 128.698C140.234 128.698 135.423 122.922 135.423 116.797C135.423 110.673 139.918 104.951 146.437 104.951C152.317 104.951 157.447 110.138 157.447 116.767C157.447 123.396 152.194 128.698 146.403 128.698H146.401Z" fill="white"/>
<path d="M102.938 146.071C102.938 149.11 105.125 151.942 108.703 151.942C111.234 151.942 112.654 150.54 112.654 150.54L111.84 149.133C111.617 148.768 111.228 148.804 110.835 149.122C110.835 149.122 109.997 149.796 108.748 149.796C107.018 149.796 105.305 148.369 105.305 146.05C105.305 143.985 106.812 142.377 108.748 142.377C109.946 142.377 110.869 143.05 110.869 143.05C111.442 143.457 111.725 143.225 111.842 143.05L112.677 141.648C112.677 141.648 111.311 140.228 108.754 140.228C105.214 140.228 102.94 143.039 102.94 146.071" fill="white"/>
<path d="M120.939 147.114V151.791H120.021C119.201 151.791 118.644 151.2 118.644 150.321V140.367H120.153C120.621 140.367 120.939 140.633 120.939 141.102V144.978H125.138V140.369H126.566C126.987 140.369 127.435 140.525 127.435 141.159V151.795H126.452C125.661 151.795 125.14 151.276 125.14 150.458V147.116H120.941L120.939 147.114Z" fill="white"/>
<path d="M137.144 140.369L133.36 150.661C133.017 151.516 133.164 151.793 133.708 151.793H135.336L136.177 149.387H140.183L140.699 150.927C140.905 151.421 141.156 151.791 141.713 151.791H143.472L139.754 141.602C139.492 140.791 139.14 140.367 138.377 140.367H137.146L137.144 140.369ZM138.177 143.68L139.526 147.517H136.819L138.177 143.68Z" fill="white"/>
<path d="M151.507 151.791H149.999C149.563 151.791 149.212 151.525 149.212 150.988V140.364H150.742C151.548 140.364 151.803 140.975 152.185 141.546L155.772 147.781V140.364H157.336C157.859 140.364 158.069 140.693 158.069 141.245V151.791H156.561C155.717 151.791 155.373 151.295 155.009 150.683L151.51 144.487V151.793L151.507 151.791Z" fill="white"/>
<path d="M167.87 151.791H166.361C165.926 151.791 165.575 151.525 165.575 150.988V140.364H167.105C167.91 140.364 168.165 140.975 168.548 141.546L172.135 147.781V140.364H173.699C174.222 140.364 174.432 140.693 174.432 141.245V151.791H172.923C172.08 151.791 171.735 151.295 171.372 150.683L167.872 144.487V151.793L167.87 151.791Z" fill="white"/>
<path d="M187.975 151.791H183.251C182.524 151.791 181.937 151.328 181.937 150.321V140.367H189.471L188.638 142.21C188.521 142.405 188.442 142.572 188.026 142.572H184.298V145.11H188.89L188.104 146.714C187.964 147.01 187.87 147.114 187.556 147.114H184.298V149.653H189.415L188.629 151.39C188.51 151.622 188.406 151.791 187.972 151.791H187.975Z" fill="white"/>
<path d="M203.563 151.791H197.62C196.604 151.791 196.243 151.137 196.243 150.321V140.367H197.751C198.238 140.367 198.538 140.538 198.538 141.141V149.655H202.08C202.535 149.655 202.611 149.709 202.845 150.157L203.563 151.793V151.791Z" fill="white"/>
</g>
</svg>
