<svg width="250" height="250" viewBox="0 0 250 250" fill="none" xmlns="http://www.w3.org/2000/svg">
<rect width="250" height="250" fill="#010101"/>
<path d="M174.815 107.618C184.501 107.618 192.382 115.499 192.382 125.185C192.382 134.871 184.501 142.752 174.815 142.752C165.129 142.752 157.248 134.871 157.248 125.185C157.248 115.499 165.104 107.618 174.815 107.618ZM174.815 90C155.393 90 139.631 105.762 139.631 125.185C139.631 144.607 155.393 160.369 174.815 160.369C194.238 160.369 210 144.607 210 125.185C210 105.762 194.238 90 174.815 90Z" fill="white"/>
<path d="M174.942 111.635C167.443 111.635 161.367 117.71 161.367 125.21C161.367 132.71 167.443 138.786 174.942 138.786C182.442 138.786 188.518 132.71 188.518 125.21C188.518 117.71 182.417 111.635 174.942 111.635Z" fill="white"/>
<path d="M71.1171 91.0423V116.77H58.6855V91.0423H40V159.556H58.6855V133.523H71.1171V159.556H89.5484V91.0423H71.1171Z" fill="white"/>
<path d="M141.512 132.862C139.809 129.43 137.012 126.761 133.529 125.21C137.266 123.786 140.037 121.244 141.588 117.66C142.529 115.473 143.037 112.931 143.037 110.033C143.037 108.914 142.936 107.847 142.758 106.779C141.181 97.8301 133.097 91.0169 122.42 91.0169H93.4634V159.53H123.818C139.58 159.53 143.368 144.074 143.368 141.175C143.393 138.099 142.732 135.303 141.512 132.862ZM111.259 106.779H120.157C123.411 106.779 125.013 109.219 125.013 112.219C125.013 115.219 122.826 117.66 120.157 117.66H111.259V106.779ZM120.538 143.896H111.259V132.862H120.488C123.716 132.862 125.343 135.328 125.343 138.354C125.369 141.938 123.157 143.896 120.538 143.896Z" fill="white"/>
</svg>
