<svg width="250" height="250" viewBox="0 0 250 250" fill="none" xmlns="http://www.w3.org/2000/svg">
<rect width="250" height="250" fill="#010101"/>
<path d="M195.027 141.319C195.027 141.319 205.54 124.629 206.818 122.197C208.106 119.756 208.83 117.201 208.83 114.523C208.83 105.351 201.322 98.0686 191.469 98.0686C182.157 98.0686 175.154 104.536 174.333 112.999L174.274 113.809H185.861L186.059 112.999C186.832 110.015 189.129 109.752 189.129 109.752C189.129 109.752 190.181 109.639 192.107 109.677C193.835 109.725 195.059 110.267 196.057 111.673C196.669 112.527 196.996 113.503 196.996 114.561C196.996 116.042 196.825 117.271 195.22 119.9C193.793 122.257 174.118 152.015 174.118 152.015H210V141.319H195.027Z" fill="#82C759"/>
<path d="M144.732 135.642C150.609 135.642 155.363 130.877 155.363 125.016C155.363 119.15 150.609 114.395 144.732 114.395C138.871 114.395 134.117 119.15 134.117 125.016C134.117 130.877 138.871 135.642 144.732 135.642ZM131.224 125.016C131.224 117.556 137.278 111.503 144.732 111.503C152.202 111.503 158.251 117.556 158.251 125.016C158.251 132.481 152.202 138.53 144.732 138.53C137.278 138.53 131.224 132.481 131.224 125.016ZM112.413 125.016C114.083 124.807 116.868 122.891 117.85 121.673C117.507 123.186 117.48 127.565 117.882 129.073C116.76 127.351 114.104 125.231 112.413 125.016ZM102.689 110.708C104.819 110.708 106.489 112.807 106.489 115.195C106.489 117.583 104.819 119.682 102.689 119.682H95.3954V110.708H102.689ZM102.667 130.641C104.793 130.641 106.467 132.739 106.467 135.122C106.467 137.521 104.793 139.608 102.667 139.608H95.374V130.641H102.667ZM144.727 152.242C159.603 152.236 171.705 139.882 171.705 125.005C171.7 109.818 159.603 98.0107 144.727 98C129.877 97.9892 122.283 108.932 120.41 113.343C120.426 106.716 113.889 98.8962 106.258 98.8854H81.6459V151.979L104.594 151.984C113.846 151.984 120.426 143.966 120.437 137.091C122.551 141.422 129.877 152.247 144.727 152.242ZM78.646 151.995H64.2201V131.392H54.8552V151.995H40.0537L40 98.8908H54.8552V118.646H64.2201V98.8908H78.646V151.995Z" fill="white"/>
</svg>
