<svg width="250" height="250" viewBox="0 0 250 250" fill="none" xmlns="http://www.w3.org/2000/svg">
<rect width="250" height="250" fill="#010101"/>
<path d="M144.949 135.709C150.823 135.709 155.589 130.948 155.589 125.074C155.589 119.189 150.823 114.423 144.949 114.423C139.064 114.423 134.298 119.189 134.298 125.074C134.298 130.948 139.064 135.709 144.949 135.709ZM131.404 125.074C131.404 117.591 137.467 111.529 144.949 111.529C152.421 111.529 158.483 117.591 158.483 125.074C158.483 132.546 152.421 138.608 144.949 138.608C137.467 138.608 131.404 132.546 131.404 125.074ZM112.55 125.074C114.234 124.859 117.02 122.938 118.005 121.723C117.66 123.234 117.633 127.618 118.042 129.135C116.918 127.408 114.255 125.284 112.55 125.074ZM102.819 110.738C104.944 110.738 106.622 112.836 106.622 115.23C106.622 117.618 104.944 119.722 102.819 119.722H95.5033V110.738H102.819ZM102.797 130.706C104.917 130.706 106.601 132.809 106.601 135.203C106.601 137.597 104.917 139.695 102.797 139.695H95.4763V130.706H102.797ZM144.944 152.347C159.839 152.341 171.964 139.964 171.964 125.063C171.958 109.845 159.839 98.0163 144.944 98.0054C130.049 97.9947 122.448 108.952 120.565 113.379C120.587 106.736 114.04 98.8985 106.391 98.8876H81.7324V152.078L104.718 152.089C113.992 152.089 120.581 144.057 120.597 137.172C122.711 141.502 130.049 152.352 144.944 152.347ZM78.72 152.099H64.2659V131.454H54.8844V152.099H40.0538L40 98.893H54.8844V118.683H64.2659V98.893H78.72V152.099Z" fill="white"/>
<path d="M204.702 124.084C206.751 121.373 208.591 118.076 208.591 114.514C208.591 105.31 201.21 98 191.318 98C181.979 98 175.422 104.488 174.605 112.987H186.213C186.815 110.399 188.822 109.877 188.822 109.877C188.822 109.877 189.871 109.652 191.802 109.652C194.282 109.652 196.939 110.76 196.939 115.063C196.939 119.366 193.233 119.974 193.233 119.974C193.233 119.974 192.195 120.168 190.807 120.168C190.753 120.168 189.548 120.163 189.548 120.163V130.157C189.548 130.157 191.587 130.152 191.668 130.152C193.62 130.152 194.362 130.383 194.362 130.383C194.362 130.383 198.037 131.152 198.037 135.51C198.037 139.872 194.282 140.491 194.282 140.491C194.282 140.491 193.072 140.679 191.668 140.679C190.258 140.679 189.048 140.491 189.048 140.491C189.048 140.491 186.466 140.06 185.584 137.425L174.368 142.207C177.262 148.167 183.792 152.314 191.388 152.314C201.668 152.314 210 144.708 210 135.332C210 131.018 207.601 127.086 204.702 124.084Z" fill="#F2CF73"/>
</svg>
