<svg width="250" height="250" viewBox="0 0 250 250" fill="none" xmlns="http://www.w3.org/2000/svg">
<rect width="250" height="250" fill="#0FACC5"/>
<path d="M193.563 122.818L184.899 147.885L176.235 122.818H131.01V135.329H142.858V167.439H157.766V135.329H164.638L177.651 167.45H191.896L210 122.818H193.563Z" fill="white"/>
<path d="M85.7504 145.237V145.111C85.7504 131.779 96.2748 121.848 110.338 121.848C117.316 121.707 124.108 124.109 129.446 128.606L121.102 138.673C118.347 136.341 114.825 135.113 111.217 135.226C105.418 135.226 101.628 139.256 101.628 145.317V145.454C101.579 146.81 101.809 148.162 102.306 149.426C102.802 150.689 103.554 151.836 104.514 152.796C105.473 153.756 106.621 154.507 107.884 155.004C109.147 155.5 110.499 155.731 111.856 155.681C113.637 155.748 115.401 155.313 116.947 154.426V151.447H109.288V141.059H130.873V161.697C125.121 166.135 118.036 168.496 110.772 168.397C96.914 168.375 85.7504 159.072 85.7504 145.237Z" fill="white"/>
<path d="M40 122.83H54.9077V138.559H68.925V122.83H83.8441V167.45H68.925V151.412H54.9077V167.45H40V122.83Z" fill="white"/>
<path d="M157.641 119.782L98.8203 81.5996L40 119.782H157.641Z" fill="white"/>
</svg>
