<svg width="250" height="250" viewBox="0 0 250 250" fill="none" xmlns="http://www.w3.org/2000/svg">
<rect width="250" height="250" fill="#403830"/>
<path d="M64.9355 164.983V162.762L65.891 162.755C65.9138 162.755 65.9625 162.759 66.0268 162.759C67.9563 162.759 69.8272 161.981 71.4477 160.989C73.5402 159.703 74.6616 157.453 75.0206 155.076C75.1036 154.526 75.1608 153.964 75.1422 153.406C75.1422 153.406 75.1422 151.548 75.1379 151.548V51.1979C75.0921 49.9764 74.6802 45.9029 71.3576 43.9791C68.8574 42.3858 66.6476 42.2613 66.0311 42.2613C65.9668 42.2613 65.921 42.2613 65.8952 42.2656L64.864 42.247V40.0372H113.387V42.2513L112.726 42.267C112.699 42.267 112.659 42.2627 112.593 42.2627C111.978 42.2627 109.771 42.3886 107.253 43.9891C103.933 45.9129 103.551 50.0007 103.509 51.2079L103.491 52.9143L103.487 53.392V54.4504L103.532 84.4054H146.469L146.515 54.4533C146.515 54.4533 146.515 52.9171 146.51 52.9171V51.2251C146.469 49.9993 146.073 45.9143 142.728 43.9805C140.228 42.3872 138.023 42.2627 137.403 42.2627C137.339 42.2627 137.293 42.2627 137.272 42.267L136.611 42.2513L136.615 40H185.147L185.143 42.247L184.1 42.2656C184.077 42.2656 184.031 42.2613 183.964 42.2613C183.349 42.2613 181.142 42.3872 178.623 43.9877C175.315 45.9029 174.906 49.9764 174.862 51.1793V151.546H174.855V153.419C174.847 153.62 174.714 158.767 178.639 161.04C181.139 162.633 183.345 162.758 183.961 162.758C184.029 162.758 184.074 162.758 184.097 162.754L185.143 162.765V164.986H136.604L136.622 162.719H137.276C137.295 162.719 137.333 162.724 137.389 162.724C138.004 162.724 140.195 162.648 142.737 161.031C145.815 159.252 146.381 155.619 146.484 154.14V154.106L146.499 111.478H103.355L103.268 153.461L103.309 154.644C103.408 156.123 104.155 159.51 107.253 161.3C109.753 162.894 111.845 162.754 112.462 162.754C112.529 162.754 112.575 162.754 112.598 162.749L113.184 162.756V164.978H64.9355V164.982V164.983ZM87.8648 153.568H90.0875V98.9817H159.801V153.594H162.026V49.5101H159.801V96.852H90.0875V49.5144H87.8648V153.568Z" fill="url(#paint0_linear_363_2700)" fill-opacity="0.3"/>
<path d="M64.9355 164.983V162.762L65.891 162.755C65.9138 162.755 65.9625 162.759 66.0268 162.759C67.9563 162.759 69.8272 161.981 71.4477 160.989C73.5402 159.703 74.6616 157.453 75.0206 155.076C75.1036 154.526 75.1608 153.964 75.1422 153.406C75.1422 153.406 75.1422 151.548 75.1379 151.548V51.1979C75.0921 49.9764 74.6802 45.9029 71.3576 43.9791C68.8574 42.3858 66.6476 42.2613 66.0311 42.2613C65.9668 42.2613 65.921 42.2613 65.8952 42.2656L64.864 42.247V40.0372H113.387V42.2513L112.726 42.267C112.699 42.267 112.659 42.2627 112.593 42.2627C111.978 42.2627 109.771 42.3886 107.253 43.9891C103.933 45.9129 103.551 50.0007 103.509 51.2079L103.491 52.9143L103.487 53.392V54.4504L103.532 84.4054H146.469L146.515 54.4533C146.515 54.4533 146.515 52.9171 146.51 52.9171V51.2251C146.469 49.9993 146.073 45.9143 142.728 43.9805C140.228 42.3872 138.023 42.2627 137.403 42.2627C137.339 42.2627 137.293 42.2627 137.272 42.267L136.611 42.2513L136.615 40H185.147L185.143 42.247L184.1 42.2656C184.077 42.2656 184.031 42.2613 183.964 42.2613C183.349 42.2613 181.142 42.3872 178.623 43.9877C175.315 45.9029 174.906 49.9764 174.862 51.1793V151.546H174.855V153.419C174.847 153.62 174.714 158.767 178.639 161.04C181.139 162.633 183.345 162.758 183.961 162.758C184.029 162.758 184.074 162.758 184.097 162.754L185.143 162.765V164.986H136.604L136.622 162.719H137.276C137.295 162.719 137.333 162.724 137.389 162.724C138.004 162.724 140.195 162.648 142.737 161.031C145.815 159.252 146.381 155.619 146.484 154.14V154.106L146.499 111.478H103.355L103.268 153.461L103.309 154.644C103.408 156.123 104.155 159.51 107.253 161.3C109.753 162.894 111.845 162.754 112.462 162.754C112.529 162.754 112.575 162.754 112.598 162.749L113.184 162.756V164.978H64.9355V164.982V164.983ZM87.8648 153.568H90.0875V98.9817H159.801V153.594H162.026V49.5101H159.801V96.852H90.0875V49.5144H87.8648V153.568Z" fill="url(#paint1_linear_363_2700)" fill-opacity="0.6"/>
<path d="M198.605 173.354H51.3948V176.017H198.605V173.354Z" fill="#EE2D2B"/>
<path d="M65.4985 164.424V163.32L66.454 163.313C66.4768 163.313 66.5255 163.317 66.5898 163.317C67.2049 163.317 69.4147 163.191 71.9306 161.591C75.8396 159.329 75.7037 154.183 75.7009 153.963V152.105H75.6966V50.6401C75.6508 49.4186 75.2389 45.345 71.9163 43.4213C69.4161 41.8279 67.2063 41.7035 66.5898 41.7035C66.5255 41.7035 66.4797 41.7035 66.454 41.7078L65.4227 41.6892V40.5964H112.833V41.692L112.172 41.7078C112.147 41.7078 112.105 41.7035 112.041 41.7035C111.426 41.7035 109.219 41.8293 106.7 43.4299C103.38 45.3536 102.994 49.4386 102.953 50.6486L102.938 52.355L102.934 52.8327V53.8911L102.98 84.9632H147.029L147.075 53.894V52.3579H147.07V50.6658C147.029 49.44 146.633 45.3551 143.289 43.4213C140.788 41.8279 138.583 41.7035 137.964 41.7035C137.899 41.7035 137.853 41.7035 137.831 41.7078L137.17 41.692L137.165 40.5649H184.583L184.587 41.6877L183.545 41.7063C183.522 41.7063 183.477 41.702 183.409 41.702C182.794 41.702 180.587 41.8279 178.068 43.4284C174.76 45.3436 174.352 49.4171 174.306 50.62V152.103H174.299V153.977C174.292 154.177 174.159 159.325 178.084 161.598C180.584 163.191 182.791 163.316 183.406 163.316C183.473 163.316 183.519 163.316 183.542 163.311L184.587 163.323V164.427H137.161V163.327H137.815C137.833 163.327 137.872 163.331 137.928 163.331C138.543 163.331 140.753 163.205 143.291 161.591C146.369 159.811 146.936 156.178 147.039 154.698V154.664L147.053 110.918H102.804L102.818 154.678V154.692C102.917 156.171 103.483 159.806 106.58 161.595C109.08 163.188 111.286 163.313 111.902 163.313C111.971 163.313 112.015 163.313 112.038 163.308L112.696 163.316V164.42H65.4971L65.4985 164.424ZM87.315 154.126H90.6505V99.5395H159.251V154.152H162.589V48.9509H159.251V96.2913H90.6505V48.9537H87.315V154.126Z" fill="url(#paint2_linear_363_2700)"/>
<path d="M65.4985 164.424V163.32L66.454 163.313C66.4768 163.313 66.5255 163.317 66.5898 163.317C67.2049 163.317 69.4147 163.191 71.9306 161.591C75.8396 159.329 75.7037 154.183 75.7009 153.963V152.103H75.6966V50.6401C75.6508 49.4186 75.2389 45.3451 71.9163 43.4213C69.4161 41.828 67.2063 41.7035 66.5898 41.7035C66.5255 41.7035 66.4797 41.7035 66.454 41.7078L65.4227 41.6892V40.5965H112.833V41.6921L112.172 41.7078C112.147 41.7078 112.105 41.7035 112.041 41.7035C111.426 41.7035 109.219 41.8294 106.7 43.4299C103.38 45.3537 102.998 49.4415 102.957 50.6487L102.938 52.3551L102.934 52.8328V53.8912L102.98 84.9633H147.029L147.075 53.8941V52.3579H147.07V50.6659C147.029 49.4401 146.633 45.3551 143.289 43.4213C140.788 41.828 138.583 41.7035 137.964 41.7035C137.899 41.7035 137.853 41.7035 137.831 41.7078L137.17 41.6921L137.174 40.5579H184.592L184.587 41.6878L183.545 41.7064C183.522 41.7064 183.477 41.7021 183.409 41.7021C182.794 41.7021 180.587 41.828 178.068 43.4285C174.76 45.3437 174.352 49.4172 174.306 50.6201V152.103H174.299V153.977C174.292 154.179 174.159 159.325 178.084 161.598C180.584 163.191 182.791 163.316 183.406 163.316C183.473 163.316 183.519 163.316 183.542 163.311L184.587 163.323V164.427H137.161L137.18 163.279H137.833C137.852 163.279 137.891 163.283 137.946 163.283C138.561 163.283 140.753 163.207 143.294 161.591C146.372 159.811 146.939 156.178 147.042 154.698V154.664L147.057 110.918H102.805L102.82 154.678V154.694C102.918 156.173 103.485 159.807 106.581 161.596C109.081 163.19 111.287 163.314 111.903 163.314C111.972 163.314 112.016 163.314 112.039 163.31L112.697 163.317V164.421H65.4985V164.424ZM87.315 154.126H90.6505V99.5396H159.251V154.152H162.589V48.9524H159.251V96.2942H90.6505V48.9566H87.315V154.126Z" fill="url(#paint3_linear_363_2700)"/>
<path d="M65.4984 164.424V163.32L66.4539 163.313C66.4767 163.313 66.5254 163.317 66.5897 163.317C68.5192 163.317 70.3901 162.539 72.0106 161.545C74.1031 160.259 75.2245 158.009 75.5835 155.632C75.6665 155.083 75.7237 154.521 75.7051 153.963C75.7051 153.963 75.7051 152.103 75.7008 152.103V50.6401C75.655 49.4186 75.2431 45.3451 71.9205 43.4213C69.4203 41.828 67.2105 41.7035 66.594 41.7035C66.5297 41.7035 66.4839 41.7035 66.4581 41.7078L65.4269 41.6892V40.5965H112.837V41.6921L112.176 41.7078C112.151 41.7078 112.109 41.7035 112.045 41.7035C111.43 41.7035 109.223 41.8294 106.704 43.4299C103.384 45.3537 103.002 49.4415 102.961 50.6487L102.942 52.3551L102.938 52.8328V53.8912L102.984 84.9633H147.033L147.079 53.8941C147.079 53.8941 147.079 52.3579 147.075 52.3579V50.6659C147.033 49.4401 146.637 45.3551 143.293 43.4213C140.793 41.828 138.586 41.7035 137.968 41.7035C137.903 41.7035 137.858 41.7035 137.835 41.7078L137.174 41.6921L137.178 40.5579H184.596L184.591 41.6878L183.549 41.7064C183.526 41.7064 183.482 41.7021 183.413 41.7021C182.798 41.7021 180.591 41.828 178.072 43.4285C174.764 45.3437 174.356 49.4172 174.31 50.6201V152.103H174.303V153.977C174.296 154.179 174.163 159.325 178.088 161.598C180.588 163.191 182.795 163.316 183.41 163.316C183.479 163.316 183.523 163.316 183.546 163.311L184.591 163.323V164.427H137.165L137.184 163.279H137.838C137.856 163.279 137.895 163.283 137.951 163.283C138.566 163.283 140.757 163.207 143.299 161.591C146.377 159.811 146.943 156.178 147.046 154.698V154.664L147.06 110.918H102.804L102.716 154.019L102.758 155.202C102.857 156.68 103.605 160.067 106.701 161.858C109.201 163.452 111.294 163.311 111.91 163.311C111.978 163.311 112.023 163.311 112.046 163.307L112.631 163.314V164.418H65.497V164.423L65.4984 164.424ZM87.3149 154.126H90.6504V99.5396H159.251V154.152H162.591V48.9524H159.251V96.2942H90.6504V48.9566H87.3149V154.126Z" fill="url(#paint4_linear_363_2700)"/>
<path d="M65.4984 164.424V163.32L66.4539 163.313C66.4767 163.313 66.5254 163.317 66.5897 163.317C68.5192 163.317 70.3901 162.539 72.0106 161.545C74.1031 160.259 75.2245 158.009 75.5835 155.632C75.6665 155.083 75.7237 154.521 75.7051 153.963C75.7051 153.963 75.7051 152.103 75.7008 152.103V50.6401C75.655 49.4186 75.2431 45.3451 71.9205 43.4213C69.4203 41.828 67.2105 41.7035 66.594 41.7035C66.5297 41.7035 66.4839 41.7035 66.4581 41.7078L65.4269 41.6892V40.5965H112.837V41.6921L112.176 41.7078C112.151 41.7078 112.109 41.7035 112.045 41.7035C111.43 41.7035 109.223 41.8294 106.704 43.4299C103.384 45.3537 103.002 49.4415 102.961 50.6487L102.942 52.3551L102.938 52.8328V53.8912L102.984 84.9633H147.033L147.077 53.8941C147.077 53.8941 147.077 52.3579 147.073 52.3579V50.6659C147.032 49.4401 146.635 45.3551 143.293 43.4213C140.793 41.828 138.586 41.7035 137.966 41.7035C137.902 41.7035 137.856 41.7035 137.835 41.7078L137.174 41.6921L137.178 40.5579H184.596L184.591 41.6878L183.549 41.7064C183.526 41.7064 183.482 41.7021 183.413 41.7021C182.798 41.7021 180.591 41.828 178.072 43.4285C174.764 45.3437 174.355 49.4172 174.31 50.6201V152.103H174.303V153.977C174.296 154.179 174.163 159.325 178.088 161.598C180.588 163.191 182.794 163.316 183.41 163.316C183.479 163.316 183.523 163.316 183.546 163.311L184.591 163.323V164.427H137.165L137.184 163.279H137.838C137.856 163.279 137.895 163.283 137.951 163.283C138.566 163.283 140.757 163.207 143.299 161.591C146.377 159.811 146.943 156.178 147.046 154.698V154.664L147.06 110.918H102.804L102.716 154.019L102.758 155.202C102.857 156.68 103.605 160.067 106.701 161.858C109.201 163.452 111.294 163.311 111.91 163.311C111.978 163.311 112.023 163.311 112.046 163.307L112.631 163.314V164.418H65.497V164.423L65.4984 164.424ZM87.3149 154.126H90.6504V99.5396H159.251V154.152H162.589V48.9524H159.251V96.2942H90.6504V48.9566H87.3149V154.126Z" fill="url(#paint5_linear_363_2700)"/>
<path d="M77.1616 184.9V197.254V209.606H79.8306H82.501V197.254V184.9H79.8306H77.1616Z" fill="white"/>
<path d="M101.235 196.54C100.267 195.928 99.7136 195.682 96.996 194.651C93.4718 193.313 92.831 192.829 92.831 191.504C92.831 188.558 97.6282 188.126 99.2445 191.102C99.419 191.423 99.7451 192.085 99.7451 192.085L101.956 190.951L104.092 189.745L103.727 189.11C99.8924 182.419 89.0335 183.188 87.5574 190.254C87.044 192.714 87.6476 194.827 89.3367 196.473C90.6812 197.785 91.5294 198.215 95.673 199.688C98.4263 200.668 99.2473 201.505 98.9756 203.06C98.6724 204.797 95.7946 205.686 93.6992 204.689C92.831 204.275 91.8341 203.071 91.3091 202.339L90.8371 201.681L86.3259 203.963C86.3259 203.963 86.4733 204.363 86.6778 204.757C88.2383 207.764 91.0345 209.602 94.5702 209.944C100.127 210.48 104.477 207.126 104.484 202.3C104.487 199.776 103.454 197.945 101.234 196.543L101.235 196.54Z" fill="white"/>
<path d="M66.9483 184.9V194.536L61.8707 194.506L56.7931 194.476L56.7631 189.688L56.733 184.899H51.3966V197.177C51.3966 203.929 51.4094 209.592 51.4094 209.592L54.1427 209.605H56.7345V199.518H66.9483V209.605H72.2876V184.899H66.9483V184.9Z" fill="white"/>
<path d="M106.758 184.9V187.338V189.773H110.066H113.375V199.69V209.623L116.042 209.636L118.737 209.649L118.741 199.718L118.771 189.831L122.108 189.801L125.445 189.771V187.336V184.9H116.101H106.758Z" fill="white"/>
<path d="M168.957 199.917L169.552 199.661C174.457 197.544 175.884 190.936 172.125 187.285C169.971 185.194 168.452 184.819 161.174 184.819H156.665L156.691 197.679L156.668 209.596L159.277 209.592H161.889V200.541H162.672L163.456 200.544L166.567 205.075L169.678 209.606H172.748L175.774 209.6C175.774 209.6 174.274 207.321 172.387 204.693L168.957 199.917ZM166.443 196.008C165.823 196.196 165.364 196.234 163.791 196.234H161.889V189.661H163.898C165.361 189.661 166.071 189.708 166.504 189.834C169.602 190.732 169.559 195.069 166.443 196.008Z" fill="white"/>
<path d="M198.554 184.9L198.605 184.819H196.812C196.866 184.845 196.912 184.875 196.965 184.9H195.78C195.732 184.873 195.683 184.848 195.636 184.819H192.555L192.146 185.498C192.146 185.53 192.143 185.564 192.142 185.597L189.817 189.374C188.304 191.835 186.98 193.899 186.98 193.899C186.98 193.899 185.642 191.915 184.112 189.427L181.33 184.905H178.282L175.234 184.902L175.692 185.61C175.943 185.999 177.954 189.121 180.161 192.548L184.173 198.779V204.118C184.173 207.055 184.166 209.595 184.166 209.595L186.921 209.608H189.513V198.946L192.956 193.595C194.849 190.653 196.885 187.492 197.48 186.572L197.893 185.935C197.893 185.935 197.903 185.935 197.907 185.935L197.936 185.889C197.936 185.889 197.93 185.886 197.926 185.883L198.119 185.586L198.123 185.588L198.355 185.219L198.561 184.902H198.555L198.554 184.9Z" fill="white"/>
<path d="M128.842 190.308C123.523 198.277 128.807 209 138.511 209.935C144.097 210.473 149.352 207.581 151.74 202.651C153.349 199.331 153.346 195.171 151.734 191.843C147.348 182.792 134.438 181.928 128.842 190.308ZM142.216 204.569C140.353 205.181 138.314 205.039 136.53 204.177C129.173 200.618 131.727 189.568 139.896 189.613C148.566 189.662 150.459 201.86 142.216 204.569Z" fill="white"/>
<defs>
<linearGradient id="paint0_linear_363_2700" x1="75.5713" y1="133.747" x2="174.154" y2="71.4556" gradientUnits="userSpaceOnUse">
<stop stop-color="#DD972C"/>
<stop offset="0.265" stop-color="#F8CB45"/>
<stop offset="0.655" stop-color="#F2AC2F"/>
<stop offset="1" stop-color="#FDDB50"/>
</linearGradient>
<linearGradient id="paint1_linear_363_2700" x1="79.6291" y1="86.9442" x2="178.914" y2="120.934" gradientUnits="userSpaceOnUse">
<stop stop-color="#DD972C"/>
<stop offset="0.265" stop-color="#B55727"/>
<stop offset="0.485" stop-color="#F2AC2F"/>
<stop offset="0.826" stop-color="#E5B544"/>
<stop offset="1" stop-color="#FDDB50"/>
</linearGradient>
<linearGradient id="paint2_linear_363_2700" x1="65.4227" y1="102.496" x2="184.587" y2="102.496" gradientUnits="userSpaceOnUse">
<stop offset="0.207" stop-color="#EE9322"/>
<stop offset="0.401" stop-color="#F2AC2F"/>
<stop offset="0.666" stop-color="#F8CB45"/>
<stop offset="0.875" stop-color="#FCDE54"/>
<stop offset="1" stop-color="#FEE55A"/>
</linearGradient>
<linearGradient id="paint3_linear_363_2700" x1="156.143" y1="153.803" x2="124.703" y2="101.925" gradientUnits="userSpaceOnUse">
<stop offset="0.433" stop-color="#B55727"/>
<stop offset="0.46" stop-color="#BD6829" stop-opacity="0.961"/>
<stop offset="0.514" stop-color="#CB8331" stop-opacity="0.883"/>
<stop offset="0.572" stop-color="#D89D3A" stop-opacity="0.8"/>
<stop offset="0.634" stop-color="#E4B442" stop-opacity="0.711"/>
<stop offset="0.701" stop-color="#EEC749" stop-opacity="0.616"/>
<stop offset="0.774" stop-color="#F6D54E" stop-opacity="0.511"/>
<stop offset="0.86" stop-color="#FCDE52" stop-opacity="0.387"/>
<stop offset="0.991" stop-color="#FEE153" stop-opacity="0.2"/>
</linearGradient>
<linearGradient id="paint4_linear_363_2700" x1="125.011" y1="146.82" x2="125.011" y2="102.004" gradientUnits="userSpaceOnUse">
<stop stop-color="#B55727" stop-opacity="0.7"/>
<stop offset="0.144" stop-color="#BF6C2A" stop-opacity="0.642"/>
<stop offset="0.553" stop-color="#DCA43C" stop-opacity="0.477"/>
<stop offset="0.846" stop-color="#F2CE4C" stop-opacity="0.359"/>
<stop offset="0.991" stop-color="#FEE153" stop-opacity="0.3"/>
</linearGradient>
<linearGradient id="paint5_linear_363_2700" x1="108.159" y1="170.427" x2="137.613" y2="51.71" gradientUnits="userSpaceOnUse">
<stop stop-color="#B55727" stop-opacity="0.7"/>
<stop offset="0.418" stop-color="#BF6C2A" stop-opacity="0.642"/>
<stop offset="0.846" stop-color="#F2CE4C" stop-opacity="0.359"/>
<stop offset="0.991" stop-color="#FEE153" stop-opacity="0.3"/>
</linearGradient>
</defs>
</svg>
