<svg width="250" height="250" viewBox="0 0 250 250" fill="none" xmlns="http://www.w3.org/2000/svg">
<rect width="250" height="250" fill="#403830"/>
<path d="M68.7666 162.834V160.74L69.6674 160.733C69.689 160.733 69.7349 160.737 69.7955 160.737C71.6147 160.737 73.3785 160.004 74.9063 159.068C76.8792 157.856 77.9364 155.735 78.2749 153.493C78.3531 152.975 78.407 152.446 78.3895 151.92C78.3895 151.92 78.3895 150.168 78.3855 150.168V55.5574C78.3423 54.4058 77.9539 50.5652 74.8214 48.7515C72.4642 47.2493 70.3808 47.132 69.7996 47.132C69.7389 47.132 69.6958 47.132 69.6715 47.136L68.6992 47.1185V45.0351H114.447V47.1225L113.824 47.1374C113.798 47.1374 113.761 47.1333 113.699 47.1333C113.119 47.1333 111.038 47.252 108.663 48.761C105.533 50.5747 105.173 54.4287 105.134 55.5668L105.117 57.1756L105.113 57.626V58.6239L105.156 86.8654H145.636L145.68 58.6266C145.68 58.6266 145.68 57.1783 145.675 57.1783V55.583C145.636 54.4273 145.263 50.576 142.11 48.7529C139.753 47.2506 137.673 47.1333 137.09 47.1333C137.029 47.1333 136.986 47.1333 136.966 47.1374L136.343 47.1225L136.347 45H182.102L182.098 47.1185L181.115 47.136C181.094 47.136 181.051 47.132 180.987 47.132C180.407 47.132 178.327 47.2506 175.952 48.7596C172.833 50.5652 172.447 54.4058 172.405 55.5398V150.165H172.399V151.932C172.392 152.121 172.266 156.974 175.967 159.117C178.324 160.619 180.403 160.736 180.985 160.736C181.048 160.736 181.091 160.736 181.113 160.732L182.098 160.743V162.837H136.336L136.353 160.7H136.97C136.987 160.7 137.024 160.704 137.076 160.704C137.656 160.704 139.722 160.632 142.118 159.108C145.02 157.431 145.554 154.006 145.651 152.611V152.579L145.665 112.39H104.989L104.906 151.971L104.945 153.086C105.039 154.48 105.742 157.674 108.663 159.362C111.02 160.864 112.993 160.732 113.574 160.732C113.638 160.732 113.681 160.732 113.703 160.728L114.255 160.735V162.829H68.7666V162.833V162.834ZM90.3844 152.072H92.48V100.608H158.206V152.096H160.304V53.9662H158.206V98.6001H92.48V53.9702H90.3844V152.072Z" fill="url(#paint0_linear_61_40)" fill-opacity="0.3"/>
<path d="M68.7666 162.834V160.74L69.6674 160.733C69.689 160.733 69.7349 160.737 69.7955 160.737C71.6147 160.737 73.3785 160.004 74.9063 159.068C76.8792 157.856 77.9364 155.735 78.2749 153.493C78.3531 152.975 78.407 152.446 78.3895 151.92C78.3895 151.92 78.3895 150.168 78.3855 150.168V55.5574C78.3423 54.4058 77.9539 50.5652 74.8214 48.7515C72.4642 47.2493 70.3808 47.132 69.7996 47.132C69.7389 47.132 69.6958 47.132 69.6715 47.136L68.6992 47.1185V45.0351H114.447V47.1225L113.824 47.1374C113.798 47.1374 113.761 47.1333 113.699 47.1333C113.119 47.1333 111.038 47.252 108.663 48.761C105.533 50.5747 105.173 54.4287 105.134 55.5668L105.117 57.1756L105.113 57.626V58.6239L105.156 86.8654H145.636L145.68 58.6266C145.68 58.6266 145.68 57.1783 145.675 57.1783V55.583C145.636 54.4273 145.263 50.576 142.11 48.7529C139.753 47.2506 137.673 47.1333 137.09 47.1333C137.029 47.1333 136.986 47.1333 136.966 47.1374L136.343 47.1225L136.347 45H182.102L182.098 47.1185L181.115 47.136C181.094 47.136 181.051 47.132 180.987 47.132C180.407 47.132 178.327 47.2506 175.952 48.7596C172.833 50.5652 172.447 54.4058 172.405 55.5398V150.165H172.399V151.932C172.392 152.121 172.266 156.974 175.967 159.117C178.324 160.619 180.403 160.736 180.985 160.736C181.048 160.736 181.091 160.736 181.113 160.732L182.098 160.743V162.837H136.336L136.353 160.7H136.97C136.987 160.7 137.024 160.704 137.076 160.704C137.656 160.704 139.722 160.632 142.118 159.108C145.02 157.431 145.554 154.006 145.651 152.611V152.579L145.665 112.39H104.989L104.906 151.971L104.945 153.086C105.039 154.48 105.742 157.674 108.663 159.362C111.02 160.864 112.993 160.732 113.574 160.732C113.638 160.732 113.681 160.732 113.703 160.728L114.255 160.735V162.829H68.7666V162.833V162.834ZM90.3844 152.072H92.48V100.608H158.206V152.096H160.304V53.9662H158.206V98.6001H92.48V53.9702H90.3844V152.072Z" fill="url(#paint1_linear_61_40)" fill-opacity="0.6"/>
<path d="M194.79 170.726H56V173.237H194.79V170.726Z" fill="#EE2D2B"/>
<path d="M69.2971 162.307V161.266L70.1979 161.259C70.2194 161.259 70.2653 161.263 70.326 161.263C70.9058 161.263 72.9892 161.145 75.3612 159.636C79.0467 157.504 78.9186 152.652 78.9159 152.444V150.692H78.9118V55.0315C78.8687 53.8799 78.4803 50.0393 75.3478 48.2256C72.9906 46.7234 70.9072 46.6061 70.326 46.6061C70.2653 46.6061 70.2221 46.6061 70.1979 46.6101L69.2256 46.5926V45.5623H113.924V46.5953L113.301 46.6101C113.277 46.6101 113.238 46.6061 113.177 46.6061C112.597 46.6061 110.517 46.7247 108.142 48.2337C105.012 50.0474 104.648 53.8987 104.609 55.0396L104.595 56.6483L104.591 57.0987V58.0966L104.634 87.3914H146.164L146.207 58.0993V56.651H146.203V55.0557C146.164 53.9001 145.791 50.0488 142.638 48.2256C140.281 46.7234 138.201 46.6061 137.617 46.6061C137.557 46.6061 137.513 46.6061 137.492 46.6101L136.869 46.5953L136.865 45.5327H181.57L181.574 46.5912L180.591 46.6088C180.57 46.6088 180.528 46.6047 180.463 46.6047C179.883 46.6047 177.803 46.7234 175.428 48.2323C172.309 50.038 171.924 53.8785 171.881 55.0126V150.691H171.875V152.458C171.868 152.646 171.742 157.5 175.443 159.642C177.8 161.145 179.881 161.262 180.46 161.262C180.524 161.262 180.567 161.262 180.588 161.258L181.574 161.269V162.31H136.861V161.273H137.477C137.495 161.273 137.531 161.277 137.584 161.277C138.163 161.277 140.247 161.158 142.64 159.636C145.542 157.958 146.076 154.533 146.174 153.137V153.105L146.187 111.861H104.469L104.482 153.118V153.132C104.575 154.526 105.109 157.953 108.029 159.64C110.386 161.142 112.465 161.259 113.046 161.259C113.111 161.259 113.153 161.259 113.174 161.255L113.795 161.262V162.303H69.2957L69.2971 162.307ZM89.8657 152.598H93.0104V101.134H157.687V152.622H160.834V53.4389H157.687V98.0714H93.0104V53.4416H89.8657V152.598Z" fill="url(#paint2_linear_61_40)"/>
<path d="M69.2971 162.307V161.266L70.1979 161.259C70.2194 161.259 70.2653 161.263 70.326 161.263C70.9058 161.263 72.9892 161.145 75.3612 159.636C79.0467 157.504 78.9186 152.652 78.9159 152.444V150.691H78.9118V55.0315C78.8687 53.8799 78.4803 50.0394 75.3478 48.2256C72.9906 46.7234 70.9072 46.6061 70.326 46.6061C70.2653 46.6061 70.2221 46.6061 70.1979 46.6101L69.2256 46.5926V45.5623H113.924V46.5953L113.301 46.6101C113.277 46.6101 113.238 46.6061 113.177 46.6061C112.597 46.6061 110.517 46.7248 108.142 48.2337C105.012 50.0474 104.652 53.9015 104.613 55.0396L104.595 56.6483L104.591 57.0987V58.0966L104.634 87.3914H146.164L146.207 58.0993V56.651H146.203V55.0558C146.164 53.9001 145.791 50.0488 142.638 48.2256C140.281 46.7234 138.201 46.6061 137.617 46.6061C137.557 46.6061 137.513 46.6061 137.492 46.6101L136.869 46.5953L136.873 45.5259H181.578L181.574 46.5912L180.591 46.6088C180.57 46.6088 180.528 46.6047 180.463 46.6047C179.883 46.6047 177.803 46.7234 175.428 48.2324C172.309 50.038 171.924 53.8785 171.881 55.0126V150.691H171.875V152.458C171.868 152.648 171.742 157.5 175.443 159.642C177.8 161.145 179.881 161.262 180.46 161.262C180.524 161.262 180.567 161.262 180.588 161.258L181.574 161.269V162.31H136.861L136.878 161.227H137.495C137.512 161.227 137.549 161.231 137.601 161.231C138.181 161.231 140.247 161.16 142.643 159.636C145.545 157.958 146.079 154.533 146.176 153.137V153.105L146.191 111.861H104.47L104.483 153.118V153.133C104.576 154.528 105.11 157.954 108.03 159.641C110.387 161.143 112.466 161.261 113.048 161.261C113.112 161.261 113.154 161.261 113.176 161.257L113.796 161.263V162.304H69.2971V162.307ZM89.8657 152.598H93.0104V101.134H157.687V152.622H160.834V53.4403H157.687V98.0742H93.0104V53.4443H89.8657V152.598Z" fill="url(#paint3_linear_61_40)"/>
<path d="M69.2969 162.307V161.266L70.1977 161.259C70.2193 161.259 70.2651 161.263 70.3258 161.263C72.1449 161.263 73.9088 160.53 75.4366 159.593C77.4095 158.38 78.4667 156.259 78.8052 154.018C78.8834 153.5 78.9373 152.97 78.9198 152.444C78.9198 152.444 78.9198 150.691 78.9157 150.691V55.0315C78.8726 53.8799 78.4842 50.0394 75.3517 48.2256C72.9945 46.7234 70.9111 46.6061 70.3299 46.6061C70.2692 46.6061 70.226 46.6061 70.2018 46.6101L69.2295 46.5926V45.5623H113.928V46.5953L113.305 46.6101C113.281 46.6101 113.242 46.6061 113.181 46.6061C112.601 46.6061 110.52 46.7248 108.146 48.2337C105.016 50.0474 104.656 53.9015 104.617 55.0396L104.599 56.6483L104.595 57.0987V58.0966L104.638 87.3914H146.168L146.211 58.0993C146.211 58.0993 146.211 56.651 146.207 56.651V55.0558C146.168 53.9001 145.794 50.0488 142.642 48.2256C140.284 46.7234 138.204 46.6061 137.621 46.6061C137.561 46.6061 137.517 46.6061 137.496 46.6101L136.873 46.5953L136.877 45.5259H181.582L181.578 46.5912L180.595 46.6088C180.574 46.6088 180.532 46.6047 180.467 46.6047C179.887 46.6047 177.806 46.7234 175.432 48.2324C172.313 50.038 171.928 53.8785 171.885 55.0126V150.691H171.878V152.458C171.872 152.648 171.746 157.5 175.447 159.642C177.804 161.145 179.884 161.262 180.464 161.262C180.529 161.262 180.571 161.262 180.592 161.258L181.578 161.269V162.31H136.865L136.882 161.227H137.498C137.516 161.227 137.552 161.231 137.605 161.231C138.185 161.231 140.251 161.16 142.647 159.636C145.549 157.958 146.083 154.533 146.18 153.137V153.105L146.194 111.861H104.468L104.386 152.497L104.425 153.612C104.518 155.006 105.224 158.2 108.143 159.888C110.5 161.39 112.473 161.258 113.054 161.258C113.118 161.258 113.161 161.258 113.182 161.254L113.734 161.261V162.302H69.2956V162.306L69.2969 162.307ZM89.8655 152.598H93.0102V101.134H157.687V152.622H160.836V53.4403H157.687V98.0742H93.0102V53.4443H89.8655V152.598Z" fill="url(#paint4_linear_61_40)"/>
<path d="M69.2969 162.307V161.266L70.1977 161.259C70.2193 161.259 70.2651 161.263 70.3258 161.263C72.1449 161.263 73.9088 160.53 75.4366 159.593C77.4095 158.38 78.4667 156.259 78.8052 154.018C78.8834 153.5 78.9373 152.97 78.9198 152.444C78.9198 152.444 78.9198 150.691 78.9157 150.691V55.0315C78.8726 53.8799 78.4842 50.0394 75.3517 48.2256C72.9945 46.7234 70.9111 46.6061 70.3299 46.6061C70.2692 46.6061 70.226 46.6061 70.2018 46.6101L69.2295 46.5926V45.5623H113.928V46.5953L113.305 46.6101C113.281 46.6101 113.242 46.6061 113.181 46.6061C112.601 46.6061 110.52 46.7248 108.146 48.2337C105.016 50.0474 104.656 53.9015 104.617 55.0396L104.599 56.6483L104.595 57.0987V58.0966L104.638 87.3914H146.168L146.21 58.0993C146.21 58.0993 146.21 56.651 146.206 56.651V55.0558C146.167 53.9001 145.793 50.0488 142.642 48.2256C140.284 46.7234 138.204 46.6061 137.62 46.6061C137.559 46.6061 137.516 46.6061 137.496 46.6101L136.873 46.5953L136.877 45.5259H181.582L181.578 46.5912L180.595 46.6088C180.574 46.6088 180.532 46.6047 180.467 46.6047C179.887 46.6047 177.806 46.7234 175.432 48.2324C172.313 50.038 171.927 53.8785 171.885 55.0126V150.691H171.878V152.458C171.872 152.648 171.746 157.5 175.447 159.642C177.804 161.145 179.883 161.262 180.464 161.262C180.529 161.262 180.571 161.262 180.592 161.258L181.578 161.269V162.31H136.865L136.882 161.227H137.498C137.516 161.227 137.552 161.231 137.605 161.231C138.185 161.231 140.251 161.16 142.647 159.636C145.549 157.958 146.083 154.533 146.18 153.137V153.105L146.194 111.861H104.468L104.386 152.497L104.425 153.612C104.518 155.006 105.224 158.2 108.143 159.888C110.5 161.39 112.473 161.258 113.054 161.258C113.118 161.258 113.161 161.258 113.182 161.254L113.734 161.261V162.302H69.2956V162.306L69.2969 162.307ZM89.8655 152.598H93.0102V101.134H157.687V152.622H160.834V53.4403H157.687V98.0742H93.0102V53.4443H89.8655V152.598Z" fill="url(#paint5_linear_61_40)"/>
<path d="M80.293 181.612V193.259V204.905H82.8093H85.3269V193.259V181.612H82.8093H80.293Z" fill="white"/>
<path d="M102.99 192.586C102.077 192.009 101.556 191.777 98.9934 190.805C95.6707 189.544 95.0666 189.087 95.0666 187.838C95.0666 185.06 99.5894 184.653 101.113 187.459C101.278 187.761 101.585 188.386 101.585 188.386L103.67 187.316L105.683 186.179L105.339 185.581C101.724 179.272 91.4863 179.998 90.0946 186.659C89.6105 188.979 90.1796 190.971 91.7722 192.523C93.0398 193.759 93.8394 194.165 97.746 195.554C100.342 196.478 101.116 197.267 100.86 198.733C100.574 200.371 97.8606 201.208 95.8851 200.269C95.0666 199.879 94.1267 198.743 93.6318 198.053L93.1868 197.433L88.9336 199.585C88.9336 199.585 89.0725 199.961 89.2653 200.333C90.7365 203.168 93.3728 204.901 96.7063 205.223C101.945 205.729 106.046 202.566 106.053 198.017C106.055 195.636 105.082 193.91 102.989 192.589L102.99 192.586Z" fill="white"/>
<path d="M70.6642 181.612V190.697L65.877 190.669L61.0898 190.64L61.0615 186.125L61.0332 181.611H56.002V193.186C56.002 199.552 56.0141 204.891 56.0141 204.891L58.5911 204.903H61.0345V195.394H70.6642V204.903H75.6981V181.611H70.6642V181.612Z" fill="white"/>
<path d="M108.197 181.612V183.91V186.206H111.316H114.435V195.556V204.921L116.95 204.933L119.491 204.945L119.495 195.582L119.523 186.26L122.669 186.232L125.815 186.204V183.909V181.612H117.006H108.197Z" fill="white"/>
<path d="M166.838 195.77L167.399 195.529C172.023 193.533 173.369 187.303 169.825 183.86C167.794 181.889 166.362 181.535 159.499 181.535H155.249L155.273 193.66L155.252 204.895L157.711 204.891H160.174V196.358H160.913L161.652 196.361L164.585 200.633L167.518 204.905H170.412L173.265 204.899C173.265 204.899 171.85 202.75 170.072 200.273L166.838 195.77ZM164.467 192.085C163.883 192.261 163.451 192.298 161.967 192.298H160.174V186.1H162.068C163.448 186.1 164.117 186.144 164.525 186.263C167.446 187.11 167.406 191.199 164.467 192.085Z" fill="white"/>
<path d="M194.742 181.612L194.79 181.535H193.099C193.151 181.56 193.194 181.588 193.244 181.612H192.127C192.081 181.587 192.035 181.562 191.991 181.535H189.086L188.7 182.176C188.7 182.205 188.698 182.238 188.696 182.269L186.505 185.83C185.078 188.15 183.83 190.096 183.83 190.096C183.83 190.096 182.569 188.225 181.126 185.88L178.503 181.616H175.63L172.756 181.613L173.187 182.281C173.425 182.648 175.321 185.592 177.401 188.823L181.184 194.697V199.731C181.184 202.499 181.177 204.894 181.177 204.894L183.774 204.906H186.218V194.854L189.464 189.81C191.249 187.036 193.168 184.056 193.729 183.189L194.119 182.587C194.119 182.587 194.128 182.587 194.132 182.587L194.159 182.544C194.159 182.544 194.154 182.541 194.15 182.539L194.332 182.258L194.336 182.261L194.554 181.913L194.748 181.613H194.743L194.742 181.612Z" fill="white"/>
<path d="M129.018 186.711C124.003 194.223 128.984 204.333 138.134 205.215C143.4 205.722 148.354 202.995 150.606 198.347C152.123 195.217 152.121 191.296 150.601 188.158C146.465 179.624 134.294 178.81 129.018 186.711ZM141.627 200.155C139.871 200.732 137.948 200.599 136.266 199.786C129.33 196.431 131.738 186.012 139.439 186.055C147.614 186.101 149.398 197.601 141.627 200.155Z" fill="white"/>
<defs>
<linearGradient id="paint0_linear_61_40" x1="78.7941" y1="133.385" x2="171.738" y2="74.6562" gradientUnits="userSpaceOnUse">
<stop stop-color="#DD972C"/>
<stop offset="0.265" stop-color="#F8CB45"/>
<stop offset="0.655" stop-color="#F2AC2F"/>
<stop offset="1" stop-color="#FDDB50"/>
</linearGradient>
<linearGradient id="paint1_linear_61_40" x1="82.6198" y1="89.259" x2="176.226" y2="121.305" gradientUnits="userSpaceOnUse">
<stop stop-color="#DD972C"/>
<stop offset="0.265" stop-color="#B55727"/>
<stop offset="0.485" stop-color="#F2AC2F"/>
<stop offset="0.826" stop-color="#E5B544"/>
<stop offset="1" stop-color="#FDDB50"/>
</linearGradient>
<linearGradient id="paint2_linear_61_40" x1="69.2256" y1="103.921" x2="181.574" y2="103.921" gradientUnits="userSpaceOnUse">
<stop offset="0.207" stop-color="#EE9322"/>
<stop offset="0.401" stop-color="#F2AC2F"/>
<stop offset="0.666" stop-color="#F8CB45"/>
<stop offset="0.875" stop-color="#FCDE54"/>
<stop offset="1" stop-color="#FEE55A"/>
</linearGradient>
<linearGradient id="paint3_linear_61_40" x1="154.757" y1="152.293" x2="125.115" y2="103.383" gradientUnits="userSpaceOnUse">
<stop offset="0.433" stop-color="#B55727"/>
<stop offset="0.46" stop-color="#BD6829" stop-opacity="0.961"/>
<stop offset="0.514" stop-color="#CB8331" stop-opacity="0.883"/>
<stop offset="0.572" stop-color="#D89D3A" stop-opacity="0.8"/>
<stop offset="0.634" stop-color="#E4B442" stop-opacity="0.711"/>
<stop offset="0.701" stop-color="#EEC749" stop-opacity="0.616"/>
<stop offset="0.774" stop-color="#F6D54E" stop-opacity="0.511"/>
<stop offset="0.86" stop-color="#FCDE52" stop-opacity="0.387"/>
<stop offset="0.991" stop-color="#FEE153" stop-opacity="0.2"/>
</linearGradient>
<linearGradient id="paint4_linear_61_40" x1="125.405" y1="145.71" x2="125.405" y2="103.457" gradientUnits="userSpaceOnUse">
<stop stop-color="#B55727" stop-opacity="0.7"/>
<stop offset="0.144" stop-color="#BF6C2A" stop-opacity="0.642"/>
<stop offset="0.553" stop-color="#DCA43C" stop-opacity="0.477"/>
<stop offset="0.846" stop-color="#F2CE4C" stop-opacity="0.359"/>
<stop offset="0.991" stop-color="#FEE153" stop-opacity="0.3"/>
</linearGradient>
<linearGradient id="paint5_linear_61_40" x1="109.517" y1="167.967" x2="137.287" y2="56.0402" gradientUnits="userSpaceOnUse">
<stop stop-color="#B55727" stop-opacity="0.7"/>
<stop offset="0.418" stop-color="#BF6C2A" stop-opacity="0.642"/>
<stop offset="0.846" stop-color="#F2CE4C" stop-opacity="0.359"/>
<stop offset="0.991" stop-color="#FEE153" stop-opacity="0.3"/>
</linearGradient>
</defs>
</svg>
