<svg width="250" height="250" viewBox="0 0 250 250" fill="none" xmlns="http://www.w3.org/2000/svg">
<rect width="250" height="250" fill="#403830"/>
<path d="M136.838 145.263H135.119V104.361H82.7554V145.263H81.0723V67.3258H82.7916V102.749H135.12V67.3258H136.84L136.838 145.263ZM141.209 153.716H154.175V152.176H153.315C151.907 152.155 150.537 151.718 149.375 150.922C147.628 149.685 146.62 147.654 146.689 145.514V144.116V68.042C146.677 66.0044 147.685 64.0946 149.375 62.9565C150.536 62.1607 151.907 61.7243 153.315 61.7025H154.175V60.1629H117.821V61.7025H118.681C120.089 61.7243 121.459 62.1607 122.621 62.9565C124.322 64.1018 125.331 66.0273 125.307 68.0782V69.6901V93.4371H92.6419V69.6901V68.0782C92.6528 66.0189 93.686 64.0994 95.3993 62.9565C96.5604 62.1607 97.9312 61.7243 99.3394 61.7025H100.199V60.1629H63.7383V61.7025H64.5979C66.0182 61.717 67.4023 62.1535 68.573 62.9565C70.2489 64.1079 71.252 66.0092 71.2593 68.042V144.116V145.514C71.328 147.653 70.3201 149.684 68.573 150.922C67.4011 151.725 66.017 152.162 64.5979 152.176H63.7383V153.716H100.092V152.176H99.2321C97.8239 152.155 96.4543 151.718 95.292 150.922C93.68 149.846 92.6805 148.06 92.6057 146.123V113.601H125.306V146.123C125.272 148.092 124.267 149.915 122.62 150.994C121.459 151.789 120.088 152.226 118.68 152.247H117.82V153.787L141.209 153.716Z" fill="url(#paint0_linear_61_313)"/>
<path d="M187.053 128.68C184.654 137.455 182.898 147.018 181.143 153.752H117.818V150.708C126.271 142.434 135.512 133.336 143.356 123.917C154.351 110.664 160.906 98.2357 160.906 85.8076C160.906 74.6322 155.318 66.1804 143.821 66.1804C133.614 66.1804 127.059 73.0214 122.331 79.8986L119 77.3558C122.033 72.257 125.548 67.4596 129.494 63.0288C135.327 56.6556 143.563 53.0193 152.202 53C167.854 53 180.855 63.0999 180.855 80.3278C180.855 93.4009 174.014 103.143 158.541 117.828L138.376 137.277H166.278C176.02 137.277 177.775 136.955 183.828 127.391L187.053 128.68Z" fill="url(#paint1_linear_61_313)"/>
<path d="M136.838 145.263H135.119V115.965H125.304V146.123C125.271 148.092 124.265 149.915 122.618 150.994C121.457 151.789 120.086 152.226 118.678 152.247H117.818V153.787H154.172V152.247H153.312C151.904 152.226 150.534 151.789 149.372 150.994C147.625 149.757 146.617 147.725 146.686 145.585V144.188V115.964H136.837V145.262L136.838 145.263Z" fill="url(#paint2_linear_61_313)"/>
<path d="M183.686 127.39C177.634 136.953 175.878 137.275 166.137 137.275H131.215C126.739 141.932 122.19 146.408 117.82 150.67V153.715H181.145C182.9 147.017 184.727 137.454 187.055 128.643L183.689 127.389L183.686 127.39Z" fill="url(#paint3_linear_61_313)"/>
<path d="M194.79 164.031H56V161.882H194.79V164.031Z" fill="#CD3937"/>
<path d="M56.7881 172.198H61.9098V181.367H71.3297V172.198H76.4514V195.836H71.3297V186.202H61.9098V195.836H56.7881V172.198Z" fill="white"/>
<path d="M86.0136 172.198V195.836H81.0703V172.198H86.0136Z" fill="white"/>
<path d="M93.821 188.136C94.4817 190.101 96.2974 191.445 98.37 191.502C100.018 191.502 101.414 190.678 101.414 189.138C101.414 187.597 100.626 187.24 98.9427 186.631L96.1129 185.521C92.4248 184.089 90.5958 179.938 92.0269 176.25C93.0336 173.657 95.4498 171.881 98.2265 171.695C101.649 171.708 104.747 173.727 106.142 176.853L101.916 179.288C101.378 177.726 99.9783 176.62 98.3338 176.459C96.7941 176.459 95.7187 177.318 95.7187 178.536C95.7187 179.754 96.5422 180.326 98.0107 180.864L101.091 182.046C104.852 183.478 106.678 185.628 106.678 188.816C106.578 193.048 103.066 196.397 98.8341 196.297C98.6545 196.292 98.4761 196.282 98.2964 196.265C94.4262 196.395 90.896 194.07 89.4854 190.464L93.8197 188.136H93.821Z" fill="white"/>
<path d="M108.65 172.198H126.2V176.925H120.004V195.836H114.883V176.925H108.65V172.198Z" fill="white"/>
<path d="M139.704 196.267C132.939 196.208 127.504 190.675 127.563 183.911C127.622 177.146 133.155 171.711 139.919 171.77C146.642 171.829 152.06 177.295 152.061 184.018C152.061 190.783 146.578 196.268 139.813 196.268C139.776 196.268 139.74 196.268 139.704 196.268V196.267ZM139.704 176.711C135.748 176.711 132.541 179.918 132.541 183.874C132.541 187.829 135.748 191.036 139.704 191.036C143.66 191.036 146.867 187.829 146.867 183.874C146.867 179.918 143.66 176.711 139.704 176.711Z" fill="white"/>
<path d="M160.441 195.836H155.427V172.198H163.449C167.603 171.624 171.436 174.527 172.01 178.681C172.059 179.036 172.083 179.396 172.081 179.755C172.08 182.896 170.032 185.669 167.03 186.596L173.549 195.836H167.604L161.802 187.205H160.441V195.836ZM160.441 183.014H163.449C165.173 183.251 166.764 182.046 167.001 180.322C167.022 180.17 167.033 180.015 167.03 179.862C167.03 178.142 165.634 176.747 163.914 176.747C163.758 176.747 163.602 176.759 163.449 176.782H160.583L160.441 183.014Z" fill="white"/>
<path d="M186.373 195.836H181.358V185.52L172.941 172.16H178.743L183.865 180.864L189.094 172.197H194.788L186.371 185.52V195.836H186.373Z" fill="white"/>
<defs>
<linearGradient id="paint0_linear_61_313" x1="88.6758" y1="49.7835" x2="125.035" y2="140.261" gradientUnits="userSpaceOnUse">
<stop stop-color="#D8993E"/>
<stop offset="0.52" stop-color="#EFC243"/>
<stop offset="1" stop-color="#AD6A1A"/>
</linearGradient>
<linearGradient id="paint1_linear_61_313" x1="153.965" y1="132.591" x2="150.705" y2="111.277" gradientUnits="userSpaceOnUse">
<stop stop-color="#641B1D"/>
<stop offset="1" stop-color="#E61D19"/>
</linearGradient>
<linearGradient id="paint2_linear_61_313" x1="125.906" y1="122.097" x2="131.794" y2="129.612" gradientUnits="userSpaceOnUse">
<stop stop-color="#D8993E" stop-opacity="0"/>
<stop offset="1" stop-color="#B66815"/>
</linearGradient>
<linearGradient id="paint3_linear_61_313" x1="120.048" y1="136.418" x2="183.377" y2="139.499" gradientUnits="userSpaceOnUse">
<stop stop-color="#781B1C"/>
<stop offset="1" stop-color="#5C1309"/>
</linearGradient>
</defs>
</svg>
