<svg width="250" height="250" viewBox="0 0 250 250" fill="none" xmlns="http://www.w3.org/2000/svg">
<rect width="250" height="250" fill="#403830"/>
<path d="M138.575 149.454H136.536V100.931H74.415V149.454H72.4182V56.9951H74.4579V99.0182H136.537V56.9951H138.577L138.575 149.454ZM143.76 159.482H159.142V157.656H158.122C156.451 157.63 154.827 157.112 153.448 156.168C151.375 154.701 150.179 152.291 150.261 149.752V148.094V57.8448C150.247 55.4275 151.442 53.1619 153.448 51.8116C154.825 50.8676 156.451 50.3498 158.122 50.3241H159.142V48.4976H116.015V50.3241H117.034C118.705 50.3498 120.33 50.8676 121.709 51.8116C123.727 53.1704 124.924 55.4547 124.896 57.8877V59.8V87.9718H86.1437V59.8V57.8877C86.1565 55.4447 87.3823 53.1676 89.4148 51.8116C90.7922 50.8676 92.4185 50.3498 94.0891 50.3241H95.109V48.4976H51.8544V50.3241H52.8742C54.5592 50.3413 56.2012 50.859 57.59 51.8116C59.5782 53.1776 60.7682 55.4332 60.7768 57.8448V148.094V149.752C60.8583 152.289 59.6626 154.699 57.59 156.168C56.1997 157.121 54.5577 157.639 52.8742 157.656H51.8544V159.482H94.9817V157.656H93.9618C92.2912 157.63 90.6664 157.112 89.2875 156.168C87.3752 154.891 86.1894 152.773 86.1008 150.474V111.893H124.894V150.474C124.854 152.81 123.661 154.973 121.707 156.253C120.33 157.197 118.704 157.715 117.033 157.74H116.013V159.567L143.76 159.482Z" fill="url(#paint0_linear_363_2717)"/>
<path d="M198.146 129.782C195.3 140.192 193.217 151.537 191.135 159.525H116.011V155.914C126.039 146.099 137.001 135.306 146.307 124.13C159.351 108.408 167.127 93.6645 167.127 78.9207C167.127 65.6629 160.499 55.6363 146.859 55.6363C134.75 55.6363 126.973 63.752 121.365 71.9106L117.413 68.8941C121.011 62.8452 125.181 57.1539 129.862 51.8975C136.782 44.3368 146.553 40.0229 156.801 40C175.37 40 190.793 51.9819 190.793 72.4198C190.793 87.9289 182.677 99.4859 164.322 116.907L140.4 139.98H173.5C185.057 139.98 187.14 139.598 194.32 128.253L198.146 129.782Z" fill="url(#paint1_linear_363_2717)"/>
<path d="M138.574 149.455H136.535V114.698H124.892V150.474C124.852 152.81 123.659 154.973 121.705 156.253C120.328 157.197 118.701 157.715 117.031 157.74H116.011V159.567H159.138V157.74H158.118C156.448 157.715 154.823 157.197 153.444 156.253C151.372 154.785 150.176 152.375 150.257 149.836V148.179V114.696H138.573V149.453L138.574 149.455Z" fill="url(#paint2_linear_363_2717)"/>
<path d="M194.153 128.251C186.972 139.597 184.89 139.979 173.333 139.979H131.905C126.594 145.502 121.197 150.813 116.014 155.87V159.481H191.138C193.22 151.536 195.387 140.19 198.149 129.737L194.156 128.25L194.153 128.251Z" fill="url(#paint3_linear_363_2717)"/>
<path d="M207.325 171.719H42.6746V169.17H207.325V171.719Z" fill="#CD3937"/>
<path d="M43.609 181.408H49.6851V192.286H60.8602V181.408H66.9363V209.451H60.8602V198.021H49.6851V209.451H43.609V181.408Z" fill="white"/>
<path d="M78.2811 181.408V209.451H72.4168V181.408H78.2811Z" fill="white"/>
<path d="M87.5432 200.316C88.327 202.647 90.4811 204.242 92.9398 204.309C94.8951 204.309 96.5514 203.332 96.5514 201.504C96.5514 199.676 95.6159 199.253 93.6192 198.53L90.2622 197.213C85.8869 195.515 83.717 190.591 85.4148 186.215C86.6092 183.139 89.4756 181.032 92.7696 180.812C96.8303 180.827 100.505 183.222 102.16 186.931L97.1464 189.82C96.5085 187.966 94.8479 186.654 92.8969 186.463C91.0704 186.463 89.7945 187.483 89.7945 188.927C89.7945 190.372 90.7714 191.051 92.5136 191.689L96.1681 193.091C100.629 194.79 102.796 197.34 102.796 201.122C102.677 206.143 98.5109 210.116 93.4905 209.997C93.2774 209.992 93.0657 209.98 92.8526 209.96C88.2612 210.113 84.0732 207.356 82.3997 203.078L87.5417 200.316H87.5432Z" fill="white"/>
<path d="M105.135 181.408H125.955V187.016H118.605V209.451H112.529V187.016H105.135V181.408Z" fill="white"/>
<path d="M141.975 209.962C133.949 209.892 127.501 203.328 127.572 195.304C127.642 187.278 134.205 180.83 142.23 180.9C150.205 180.97 156.633 187.455 156.634 195.431C156.634 203.456 150.129 209.963 142.104 209.963C142.061 209.963 142.018 209.963 141.975 209.963V209.962ZM141.975 186.762C137.282 186.762 133.477 190.566 133.477 195.259C133.477 199.952 137.282 203.757 141.975 203.757C146.668 203.757 150.473 199.952 150.473 195.259C150.473 190.566 146.668 186.762 141.975 186.762Z" fill="white"/>
<path d="M166.577 209.451H160.628V181.408H170.145C175.073 180.727 179.62 184.171 180.301 189.099C180.359 189.521 180.388 189.947 180.385 190.373C180.383 194.099 177.955 197.389 174.393 198.489L182.127 209.451H175.074L168.191 199.211H166.577V209.451ZM166.577 194.24H170.145C172.191 194.521 174.077 193.091 174.359 191.046C174.383 190.865 174.396 190.682 174.393 190.501C174.393 188.46 172.737 186.805 170.696 186.805C170.511 186.805 170.327 186.819 170.145 186.846H166.745L166.577 194.24Z" fill="white"/>
<path d="M197.339 209.451H191.39V197.213L181.405 181.364H188.288L194.364 191.689L200.567 181.407H207.323L197.338 197.213V209.451H197.339Z" fill="white"/>
<defs>
<linearGradient id="paint0_linear_363_2717" x1="81.4386" y1="36.1842" x2="124.572" y2="143.521" gradientUnits="userSpaceOnUse">
<stop stop-color="#D8993E"/>
<stop offset="0.52" stop-color="#EFC243"/>
<stop offset="1" stop-color="#AD6A1A"/>
</linearGradient>
<linearGradient id="paint1_linear_363_2717" x1="158.892" y1="134.421" x2="155.026" y2="109.135" gradientUnits="userSpaceOnUse">
<stop stop-color="#641B1D"/>
<stop offset="1" stop-color="#E61D19"/>
</linearGradient>
<linearGradient id="paint2_linear_363_2717" x1="125.605" y1="121.972" x2="132.591" y2="130.887" gradientUnits="userSpaceOnUse">
<stop stop-color="#D8993E" stop-opacity="0"/>
<stop offset="1" stop-color="#B66815"/>
</linearGradient>
<linearGradient id="paint3_linear_363_2717" x1="118.656" y1="138.962" x2="193.785" y2="142.616" gradientUnits="userSpaceOnUse">
<stop stop-color="#781B1C"/>
<stop offset="1" stop-color="#5C1309"/>
</linearGradient>
</defs>
</svg>
