<svg width="250" height="250" viewBox="0 0 250 250" fill="none" xmlns="http://www.w3.org/2000/svg">
<rect width="250" height="250" fill="#E31013"/>
<mask id="mask0_363_3013" style="mask-type:luminance" maskUnits="userSpaceOnUse" x="40" y="40" width="170" height="170">
<path d="M210 40H40V210H210V40Z" fill="white"/>
</mask>
<g mask="url(#mask0_363_3013)">
<path fill-rule="evenodd" clip-rule="evenodd" d="M183.57 92.1289C168.928 92.1289 157.008 80.1758 157.008 65.5664C157.008 59.2578 159.199 53.5137 162.885 48.9316C151.463 43.2207 138.613 40 125 40C78.1836 40 40 78.1504 40 125C40 171.85 78.1836 210 125 210C171.816 210 210 171.816 210 125C210 110.955 206.58 97.707 200.504 86.0195C195.889 89.8047 189.979 92.1289 183.57 92.1289Z" fill="white"/>
</g>
<mask id="mask1_363_3013" style="mask-type:luminance" maskUnits="userSpaceOnUse" x="40" y="40" width="170" height="170">
<path d="M210 40H40V210H210V40Z" fill="white"/>
</mask>
<g mask="url(#mask1_363_3013)">
<path fill-rule="evenodd" clip-rule="evenodd" d="M139.676 112.383V142.033C143.76 142.797 147.113 142.996 149.936 142.996C158.635 142.996 160.395 138.148 160.395 131.873V127.025C160.395 119.787 156.975 116.633 151.33 116.467C149.736 116.467 148.242 116.732 147.113 117.031V106.971H136.488V112.383H139.676ZM147.146 122.643C147.711 122.377 148.84 122.078 149.637 122.078C151.729 122.078 152.924 122.742 152.924 126.793V133.135C152.924 136.422 152.027 137.186 149.936 137.186C149.139 137.186 147.777 137.186 147.146 136.986V122.643Z" fill="#E31013"/>
</g>
<mask id="mask2_363_3013" style="mask-type:luminance" maskUnits="userSpaceOnUse" x="40" y="40" width="170" height="170">
<path d="M210 40H40V210H210V40Z" fill="white"/>
</mask>
<g mask="url(#mask2_363_3013)">
<path fill-rule="evenodd" clip-rule="evenodd" d="M114.84 112.383V142.033C118.924 142.797 122.277 142.996 125.1 142.996C133.799 142.996 135.559 138.148 135.559 131.873V127.025C135.559 119.787 132.139 116.633 126.494 116.467C124.9 116.467 123.406 116.732 122.277 117.031V106.971H111.652V112.383H114.84ZM122.277 122.643C122.842 122.377 123.971 122.078 124.768 122.078C126.859 122.078 128.055 122.742 128.055 126.793V133.135C128.055 136.422 127.158 137.186 125.066 137.186C124.27 137.186 122.908 137.186 122.277 136.986V122.643Z" fill="#E31013"/>
</g>
<mask id="mask3_363_3013" style="mask-type:luminance" maskUnits="userSpaceOnUse" x="40" y="40" width="170" height="170">
<path d="M210 40H40V210H210V40Z" fill="white"/>
</mask>
<g mask="url(#mask3_363_3013)">
<path fill-rule="evenodd" clip-rule="evenodd" d="M110.656 126.992C110.656 123.738 110.357 116.5 99.8652 116.5C89.4063 116.5 89.1074 123.805 89.1074 126.992V132.504C89.1074 135.758 89.4063 142.996 99.8652 142.996C110.357 142.996 110.656 135.725 110.656 132.504V126.992ZM103.219 133.135C103.219 134.529 103.119 136.986 99.8652 136.986C96.6777 136.986 96.5781 134.529 96.5781 133.135V126.693C96.5781 125.332 96.6777 122.477 99.8652 122.477C103.119 122.477 103.219 125.299 103.219 126.693V133.135Z" fill="#E31013"/>
</g>
<mask id="mask4_363_3013" style="mask-type:luminance" maskUnits="userSpaceOnUse" x="40" y="40" width="170" height="170">
<path d="M210 40H40V210H210V40Z" fill="white"/>
</mask>
<g mask="url(#mask4_363_3013)">
<path fill-rule="evenodd" clip-rule="evenodd" d="M174.008 142.996C175.203 142.996 176.896 142.83 178.457 142.033C178.457 143.793 178.025 145.686 176.564 146.35C174.406 147.312 170.156 147.246 166.172 147.246V153.123C171.119 153.123 175.037 153.123 178.357 152.227C185.828 149.902 185.861 144.158 185.861 139.211V116.932H178.391V136.688C177.594 136.986 176.531 137.186 175.602 137.186C172.945 137.186 172.912 134.396 172.912 130.678V116.932H162.287V122.344H165.408V133.268C165.408 139.51 167.201 142.996 174.008 142.996Z" fill="#E31013"/>
</g>
<mask id="mask5_363_3013" style="mask-type:luminance" maskUnits="userSpaceOnUse" x="40" y="40" width="170" height="170">
<path d="M210 40H40V210H210V40Z" fill="white"/>
</mask>
<g mask="url(#mask5_363_3013)">
<path fill-rule="evenodd" clip-rule="evenodd" d="M77.4863 142.564H84.9238V126.262C84.9238 120.02 83.1309 116.5 76.3242 116.5C74.8965 116.5 72.9707 116.699 71.5762 117.064V107.004H64.1387V142.564H71.6094V122.676C72.1738 122.477 73.3027 122.277 73.9668 122.277C76.3574 122.277 77.5195 122.875 77.5195 127.391V142.564H77.4863Z" fill="#E31013"/>
</g>
<mask id="mask6_363_3013" style="mask-type:luminance" maskUnits="userSpaceOnUse" x="40" y="40" width="170" height="170">
<path d="M210 40H40V210H210V40Z" fill="white"/>
</mask>
<g mask="url(#mask6_363_3013)">
<path fill-rule="evenodd" clip-rule="evenodd" d="M188.119 79.6113H193.83L200.969 58.3945H194.627L191.041 71.5762L187.322 58.3945H181.08L188.119 79.6113Z" fill="white"/>
</g>
<mask id="mask7_363_3013" style="mask-type:luminance" maskUnits="userSpaceOnUse" x="40" y="40" width="170" height="170">
<path d="M210 40H40V210H210V40Z" fill="white"/>
</mask>
<g mask="url(#mask7_363_3013)">
<path fill-rule="evenodd" clip-rule="evenodd" d="M180.848 74.7637C179.121 74.9629 178.822 74.9629 178.191 74.9629C177.195 74.9629 176.199 74.3984 176.199 72.6055V62.9102H180.781L179.287 58.3945H176.199V53.1152H170.189L170.156 58.3613H167.5V62.9102H169.99V73.3359C170.123 77.8848 172.912 80.0098 176.73 80.0098C177.693 80.0098 179.221 79.8105 180.848 79.5117V74.7637Z" fill="white"/>
</g>
</svg>
