<svg width="250" height="250" viewBox="0 0 250 250" fill="none" xmlns="http://www.w3.org/2000/svg">
<rect width="250" height="250" fill="#FF4A00"/>
<path d="M52.4356 117.365H40V145.731H52.4356V117.365Z" fill="white"/>
<path d="M99.7854 125.151H109.305V145.731H121.74V125.151H131.26V117.365H99.7854V125.151Z" fill="white"/>
<path d="M77.3624 124.326C81.3242 124.326 82.975 125.839 83.5802 128.48H95.4106C94.5852 122.152 90.6509 116.402 77.2799 116.402C61.7629 116.402 58.9291 124.161 58.9291 131.534C58.9291 138.908 61.7629 146.666 77.2799 146.666C90.3758 146.666 94.3926 141.136 95.3556 135.001H83.5527C82.9474 137.587 81.2692 139.045 77.3899 139.045C72.025 139.045 70.897 136.294 70.897 131.672C70.897 127.05 72.025 124.326 77.3624 124.326Z" fill="white"/>
<path d="M172.417 117.365L163.09 145.731H144.602L135.303 117.365H147.601L153.846 137.724L160.119 117.365H172.417Z" fill="white"/>
<path d="M210 103.334H181.359V131.699H210V103.334Z" fill="white"/>
<path d="M184.414 128.068V123.941L192.888 118.659C195.281 117.173 196.877 116.017 197.675 115.219C198.308 114.587 198.638 113.981 198.638 113.486C198.638 112.991 198.418 112.633 197.922 112.303C197.372 111.946 196.602 111.78 195.611 111.78C194.538 111.78 193.74 111.973 193.19 112.386C192.557 112.853 192.145 113.486 191.925 114.339L191.649 115.412H184.331L184.524 113.981C184.799 111.835 186.009 110.047 188.045 108.672C190.109 107.296 192.667 106.581 195.611 106.581C198.638 106.581 201.141 107.213 203.122 108.451C205.158 109.745 206.176 111.368 206.176 113.266C206.176 114.917 205.516 116.43 204.223 117.723C203.067 118.906 201.059 120.337 198.17 122.125L197.069 122.813H206.836V128.123H184.414V128.068Z" fill="#FF4A00"/>
</svg>
