<svg width="250" height="250" viewBox="0 0 250 250" fill="none" xmlns="http://www.w3.org/2000/svg">
<rect width="250" height="250" fill="#FF4A00"/>
<path d="M166.472 95.8141L196.343 73.1596H162.635L156.972 40L141.351 73.1596H101.34L130.663 95.9055L110.749 138.109L148.202 109.699L171.953 128.152L166.472 95.8141Z" fill="white"/>
<path d="M65.5323 182.504H53.657V209.178H65.5323V182.504Z" fill="white"/>
<path d="M110.841 189.812H119.976V209.178H131.851V189.812H140.986V182.504H110.841V189.812Z" fill="white"/>
<path d="M89.3734 188.99C93.1187 188.99 94.7629 190.451 95.311 192.918H106.638C105.816 186.98 102.071 181.499 89.282 181.499C74.3922 181.499 71.743 188.807 71.743 195.75C71.743 202.692 74.4835 210 89.282 210C101.797 210 105.633 204.793 106.547 199.038H95.311C94.6716 201.505 93.1187 202.875 89.3734 202.875C84.2578 202.875 83.1616 200.317 83.1616 195.932C83.1616 191.639 84.2578 188.99 89.3734 188.99Z" fill="white"/>
<path d="M168.573 182.504L162.635 201.687L156.606 182.504H144.822L153.774 209.178H160.26H164.919H171.405L180.357 182.504H168.573Z" fill="white"/>
</svg>
