<svg width="250" height="250" viewBox="0 0 250 250" fill="none" xmlns="http://www.w3.org/2000/svg">
<rect width="250" height="250" fill="#4691AA"/>
<path d="M60.0722 202.859C66.4995 202.762 72.5236 199.71 76.4016 194.584C80.275 199.712 86.296 202.765 92.7218 202.859C99.1491 202.766 105.175 199.713 109.051 194.584C115.667 203.602 128.341 205.55 137.359 198.935C139.022 197.715 140.489 196.247 141.71 194.584C148.32 203.6 160.987 205.55 170.004 198.94C171.67 197.719 173.139 196.249 174.359 194.584C178.236 199.712 184.261 202.765 190.689 202.859C199.844 202.859 206.607 197.789 209.726 188.577C210.542 186.444 209.475 184.056 207.342 183.241C205.21 182.425 202.822 183.492 202.006 185.624C201.967 185.728 201.932 185.831 201.9 185.938C199.929 191.764 196.256 194.604 190.689 194.604C185.293 194.604 180.329 190.662 178.349 184.808C177.781 183.128 176.201 181.999 174.426 182.005H174.312C172.535 181.994 170.95 183.123 170.381 184.808C168.392 190.663 163.436 194.604 158.032 194.604C152.627 194.604 147.681 190.662 145.691 184.808C145.128 183.123 143.545 181.993 141.769 182.005H141.655C139.877 181.994 138.293 183.123 137.724 184.808C135.744 190.663 130.779 194.604 125.384 194.604C119.988 194.604 115.023 190.711 113.034 184.808C112.473 183.126 110.894 181.997 109.121 182.005H109.007C107.229 181.994 105.645 183.123 105.076 184.808C103.086 190.711 98.1218 194.604 92.7264 194.604C87.3309 194.604 82.3662 190.711 80.3861 184.808C79.8154 183.13 78.2371 182.002 76.464 182.005H76.3498C74.5721 181.994 72.9878 183.123 72.4185 184.808C70.4384 190.663 65.4737 194.604 60.0783 194.604C54.5018 194.604 50.8368 191.733 48.8567 185.938C48.1277 183.779 45.7869 182.621 43.6287 183.35C41.4705 184.079 40.3123 186.42 41.0413 188.578C44.1599 197.791 50.9129 202.86 60.0783 202.86L60.0722 202.859Z" fill="white"/>
<path d="M141.652 147.453C139.874 147.442 138.29 148.571 137.721 150.256C135.74 156.12 130.776 160.061 125.38 160.061C119.985 160.061 115.02 156.119 113.031 150.256C112.462 148.581 110.888 147.453 109.118 147.453H109.004C107.228 147.445 105.643 148.573 105.073 150.256C103.083 156.12 98.1186 160.1 92.7231 160.1C87.3277 160.1 82.363 156.158 80.3829 150.296C79.8091 148.619 78.2339 147.492 76.4608 147.492H76.3466C74.5704 147.485 72.9861 148.612 72.4153 150.296C70.4352 156.122 65.4705 160.1 60.0751 160.1C54.4985 160.1 50.8336 157.23 48.8535 151.424C48.1214 149.265 45.7791 148.109 43.6209 148.841C41.4627 149.573 40.306 151.915 41.0381 154.073C44.1567 163.286 50.9097 168.356 60.0751 168.356C66.5009 168.254 72.5234 165.202 76.4044 160.081C80.2809 165.205 86.3004 168.257 92.7247 168.356C99.152 168.258 105.176 165.207 109.054 160.081C115.67 169.098 128.344 171.046 137.361 164.432C139.025 163.211 140.492 161.744 141.713 160.081C141.713 160.081 146.247 152.341 145.693 150.294C145.159 148.588 143.557 147.444 141.771 147.491H141.656" fill="white"/>
<path d="M71.9038 132.615C63.4827 132.607 55.404 129.283 49.4135 123.364C43.3819 117.401 39.9909 109.271 40 100.789C40 89.768 50.5702 73.3154 61.3991 57.4152C63.399 54.5448 64.8723 52.3546 66.134 50.3167C68.1628 47.1236 72.3954 46.1799 75.5886 48.2088C75.6007 48.2164 75.6114 48.224 75.6235 48.2316C76.3982 48.7582 77.0679 49.4263 77.5945 50.2026L79.0297 52.3546C80.0723 53.9421 81.191 55.636 82.407 57.4152C90.9301 69.9564 103.855 88.8777 103.855 100.711C103.782 118.319 89.5116 132.568 71.9038 132.615ZM71.9038 56.3818C70.8415 58.0271 69.6087 59.8443 68.0776 62.0451C61.1327 72.2804 48.1228 91.3752 48.1228 100.789C48.1244 107.09 50.6463 113.127 55.1255 117.558C59.591 121.982 65.618 124.469 71.9038 124.484C85.0035 124.411 95.6072 113.812 95.6848 100.713C95.6848 91.3768 83.1635 72.9714 75.692 62.0177C74.4577 60.2005 73.3193 58.4882 72.2478 56.8719L71.9038 56.3818Z" fill="white"/>
</svg>
