<svg width="250" height="250" viewBox="0 0 250 250" fill="none" xmlns="http://www.w3.org/2000/svg">
<rect width="250" height="250" fill="white"/>
<path d="M58.022 113.931H41.7078C40.7646 113.931 40 114.696 40 115.639V131.953C40 132.896 40.7646 133.661 41.7078 133.661H58.022C58.9652 133.661 59.7298 132.896 59.7298 131.953V115.639C59.7298 114.696 58.9652 113.931 58.022 113.931Z" fill="#F47A35"/>
<path d="M44.38 119.645C44.8105 119.645 45.1594 119.296 45.1594 118.866C45.1594 118.435 44.8105 118.086 44.38 118.086C43.9495 118.086 43.6006 118.435 43.6006 118.866C43.6006 119.296 43.9495 119.645 44.38 119.645Z" fill="white"/>
<path d="M47.2726 119.645C47.703 119.645 48.052 119.296 48.052 118.866C48.052 118.435 47.703 118.086 47.2726 118.086C46.8421 118.086 46.4932 118.435 46.4932 118.866C46.4932 119.296 46.8421 119.645 47.2726 119.645Z" fill="white"/>
<path d="M50.1661 119.645C50.5966 119.645 50.9456 119.296 50.9456 118.866C50.9456 118.435 50.5966 118.086 50.1661 118.086C49.7357 118.086 49.3867 118.435 49.3867 118.866C49.3867 119.296 49.7357 119.645 50.1661 119.645Z" fill="white"/>
<path d="M44.38 129.642C44.8105 129.642 45.1594 129.293 45.1594 128.862C45.1594 128.432 44.8105 128.083 44.38 128.083C43.9495 128.083 43.6006 128.432 43.6006 128.862C43.6006 129.293 43.9495 129.642 44.38 129.642Z" fill="white"/>
<path d="M47.2726 129.642C47.703 129.642 48.052 129.293 48.052 128.862C48.052 128.432 47.703 128.083 47.2726 128.083C46.8421 128.083 46.4932 128.432 46.4932 128.862C46.4932 129.293 46.8421 129.642 47.2726 129.642Z" fill="white"/>
<path d="M50.1661 129.642C50.5966 129.642 50.9456 129.293 50.9456 128.862C50.9456 128.432 50.5966 128.083 50.1661 128.083C49.7357 128.083 49.3867 128.432 49.3867 128.862C49.3867 129.293 49.7357 129.642 50.1661 129.642Z" fill="white"/>
<path d="M47.2726 122.144C47.703 122.144 48.052 121.795 48.052 121.365C48.052 120.935 47.703 120.586 47.2726 120.586C46.8421 120.586 46.4932 120.935 46.4932 121.365C46.4932 121.795 46.8421 122.144 47.2726 122.144Z" fill="white"/>
<path d="M50.1661 122.144C50.5966 122.144 50.9456 121.795 50.9456 121.365C50.9456 120.935 50.5966 120.586 50.1661 120.586C49.7357 120.586 49.3867 120.935 49.3867 121.365C49.3867 121.795 49.7357 122.144 50.1661 122.144Z" fill="white"/>
<path d="M53.0607 122.144C53.4911 122.144 53.8401 121.795 53.8401 121.365C53.8401 120.935 53.4911 120.586 53.0607 120.586C52.6302 120.586 52.2812 120.935 52.2812 121.365C52.2812 121.795 52.6302 122.144 53.0607 122.144Z" fill="white"/>
<path d="M47.2726 127.143C47.703 127.143 48.052 126.794 48.052 126.363C48.052 125.933 47.703 125.584 47.2726 125.584C46.8421 125.584 46.4932 125.933 46.4932 126.363C46.4932 126.794 46.8421 127.143 47.2726 127.143Z" fill="white"/>
<path d="M50.1661 127.143C50.5966 127.143 50.9456 126.794 50.9456 126.363C50.9456 125.933 50.5966 125.584 50.1661 125.584C49.7357 125.584 49.3867 125.933 49.3867 126.363C49.3867 126.794 49.7357 127.143 50.1661 127.143Z" fill="white"/>
<path d="M53.0607 127.143C53.4911 127.143 53.8401 126.794 53.8401 126.363C53.8401 125.933 53.4911 125.584 53.0607 125.584C52.6302 125.584 52.2812 125.933 52.2812 126.363C52.2812 126.794 52.6302 127.143 53.0607 127.143Z" fill="white"/>
<path d="M50.1661 124.644C50.5966 124.644 50.9456 124.295 50.9456 123.864C50.9456 123.434 50.5966 123.085 50.1661 123.085C49.7357 123.085 49.3867 123.434 49.3867 123.864C49.3867 124.295 49.7357 124.644 50.1661 124.644Z" fill="white"/>
<path d="M53.0607 124.644C53.4911 124.644 53.8401 124.295 53.8401 123.864C53.8401 123.434 53.4911 123.085 53.0607 123.085C52.6302 123.085 52.2812 123.434 52.2812 123.864C52.2812 124.295 52.6302 124.644 53.0607 124.644Z" fill="white"/>
<path d="M55.9386 124.644C56.3691 124.644 56.718 124.295 56.718 123.864C56.718 123.434 56.3691 123.085 55.9386 123.085C55.5081 123.085 55.1592 123.434 55.1592 123.864C55.1592 124.295 55.5081 124.644 55.9386 124.644Z" fill="white"/>
<path d="M68.0459 114.609H64.6025V111.684H68.0459V114.609ZM68.0459 132.008H64.6025V117.779H68.0459V132.008Z" fill="#0D6696"/>
<path d="M77.0043 122.502V125.763H70.21L70.2407 122.502H77.0043Z" fill="#0D6696"/>
<path d="M87.363 132.008H82.0609L77.7646 117.779H81.3907L83.2494 124.33C83.6763 125.884 83.7369 126.097 84.3158 128.321L84.6514 129.631H84.7119L85.0475 128.321C85.5658 126.097 85.7177 125.579 86.0226 124.36L87.7899 117.778H91.4467L87.364 132.007L87.363 132.008Z" fill="#0D6696"/>
<path d="M102.598 132.892C101.563 137.157 100.344 138.316 96.9011 138.316C96.4444 138.316 96.1694 138.316 95.7126 138.254V135.756L96.3521 135.787C97.2665 135.787 97.906 135.513 98.2108 134.994C98.6675 134.324 99.0329 133.227 99.2166 132.009H97.48L92.8184 117.78H96.4752L98.2425 123.813L99.156 126.83C99.4301 127.866 99.7051 128.78 99.9791 129.846H100.07C100.222 129.054 100.405 128.232 100.589 127.44C100.649 127.105 100.924 125.916 101.381 123.813L102.783 117.78H106.348L102.6 132.893L102.598 132.892Z" fill="#0D6696"/>
<path d="M117.164 121.679C117.012 120.125 116.768 119.972 114.361 119.972C111.892 119.972 111.465 120.216 111.465 121.679C111.465 122.562 111.71 123.019 112.258 123.203C112.592 123.294 112.745 123.325 115.121 123.416C118.229 123.569 118.991 123.721 119.753 124.3C120.606 124.939 121.033 126.067 121.033 127.621C121.033 129.175 120.575 130.333 119.723 131.065C118.717 131.888 117.286 132.193 114.33 132.193C110.399 132.193 108.785 131.552 108.235 129.724C108.022 129.085 107.991 128.811 107.991 127.53H111.526V127.957C111.526 129.45 112.043 129.785 114.512 129.785C117.011 129.785 117.619 129.419 117.619 127.895C117.619 126.524 117.192 126.159 115.578 126.128C109.332 126.066 108.082 125.366 108.082 121.832C108.082 118.48 109.422 117.597 114.48 117.597C119.234 117.597 120.514 118.45 120.514 121.68H117.162L117.164 121.679Z" fill="#0D6696"/>
<path d="M135.691 118.784C136.757 119.79 137.154 121.313 137.154 124.543C137.154 130.881 135.996 132.191 130.451 132.191C127.1 132.191 125.484 131.672 124.631 130.271C123.93 129.143 123.718 127.834 123.718 124.36C123.718 121.252 124.144 119.728 125.241 118.753C126.247 117.869 127.526 117.595 130.543 117.595C133.437 117.595 134.748 117.9 135.692 118.783L135.691 118.784ZM127.221 124.757C127.221 128.931 127.617 129.51 130.39 129.51C133.254 129.51 133.65 128.9 133.65 124.604C133.65 120.857 133.224 120.278 130.42 120.278C127.648 120.278 127.221 120.857 127.221 124.757Z" fill="#0D6696"/>
<path d="M152.966 126.585V127.072C152.966 128.657 152.753 129.692 152.265 130.424C151.413 131.765 150.071 132.192 146.841 132.192C144.069 132.192 142.636 131.857 141.601 130.972C140.412 129.937 139.985 128.382 139.985 124.878C139.985 121.922 140.259 120.49 141.082 119.393C141.996 118.144 143.672 117.596 146.445 117.596C151.381 117.596 152.752 118.723 152.752 122.806H149.4C149.4 120.764 148.883 120.308 146.628 120.308C143.856 120.308 143.489 120.826 143.489 124.969C143.489 127.285 143.703 128.443 144.251 128.991C144.616 129.357 145.378 129.51 146.718 129.51C149.187 129.51 149.552 129.114 149.552 126.585H152.964H152.966ZM142.028 113.208L142.881 111.715L146.903 113.665L151.108 111.715L151.9 113.208L146.903 116.438L142.028 113.208Z" fill="#0D6696"/>
<path d="M159.396 114.609H155.953V111.684H159.396V114.609ZM159.396 132.008H155.953V117.779H159.396V132.008Z" fill="#0D6696"/>
<path d="M166.71 117.779L166.588 120.185H166.649C167.319 118.387 168.691 117.596 171.067 117.596C173.352 117.596 174.876 118.235 175.577 119.455C175.942 120.125 176.065 120.765 176.065 122.319V132.009H172.621V123.447C172.621 120.887 172.195 120.369 170.092 120.369C167.777 120.369 166.741 121.344 166.741 123.568V132.008H163.236V117.779H166.71Z" fill="#0D6696"/>
<path d="M179.935 121.892C179.935 120.43 180.088 119.729 180.545 119.089C181.306 117.992 182.8 117.596 185.968 117.596C190.965 117.596 192.428 118.754 192.428 122.715V132.009H188.985L189.137 130.059H189.046C188.285 131.704 187.249 132.192 184.536 132.192C180.728 132.192 179.356 131.034 179.356 127.773C179.356 124.543 180.788 123.325 184.597 123.325C187.37 123.325 188.345 123.69 188.924 124.97H188.985V122.655C188.985 120.4 188.406 119.852 186.09 119.852C183.927 119.852 183.47 120.187 183.408 121.893L179.935 121.892ZM182.86 127.59C182.86 129.358 183.408 129.754 185.846 129.754C188.284 129.754 189.015 129.266 189.015 127.682C189.015 126.066 188.314 125.61 185.846 125.61C183.47 125.61 182.86 126.006 182.86 127.59Z" fill="#0D6696"/>
<path d="M202.221 121.182V121.461C202.221 122.368 202.099 122.962 201.82 123.381C201.331 124.148 200.564 124.392 198.714 124.392C197.126 124.392 196.306 124.201 195.713 123.694C195.032 123.101 194.789 122.211 194.789 120.204C194.789 118.511 194.946 117.692 195.417 117.064C195.94 116.349 196.9 116.034 198.488 116.034C201.314 116.034 202.1 116.68 202.1 119.018H200.18C200.18 117.849 199.884 117.587 198.593 117.587C197.005 117.587 196.796 117.884 196.796 120.257C196.796 121.583 196.918 122.246 197.232 122.56C197.441 122.77 197.877 122.857 198.645 122.857C200.058 122.857 200.268 122.63 200.268 121.182H202.222H202.221Z" fill="#0D6696"/>
<path d="M210 116.14V117.798L205.638 122.805H210V124.288H203.317V122.578L207.643 117.606H203.666V116.14H210Z" fill="#0D6696"/>
</svg>
