<svg width="250" height="250" viewBox="0 0 250 250" fill="none" xmlns="http://www.w3.org/2000/svg">
<rect width="250" height="250" fill="white"/>
<path d="M168.736 157.816H135.684C112.893 157.816 94.4189 139.342 94.4189 116.553C94.4189 93.7638 112.893 75.2884 135.684 75.2884H168.736C191.525 75.2884 210 93.7627 210 116.553C210 139.343 191.525 157.816 168.736 157.816Z" fill="#827E7F"/>
<path d="M137.179 137.811C125.438 137.811 115.92 128.293 115.92 116.552C115.92 104.811 125.438 95.2927 137.179 95.2927H144.401V75.2873H135.682C112.893 75.2873 94.4189 93.7616 94.4189 116.551C94.4189 139.341 112.893 157.815 135.682 157.815H144.401V137.81L137.179 137.811Z" fill="#A4121C"/>
<path d="M161.65 91.3398C161.65 91.3398 162.405 86.4289 164.672 82.653H183.053V150.891H174.24L174.146 91.3398H161.65Z" fill="white"/>
<path d="M132.504 82.653L129.01 87.138L125.516 82.653H116.168L123.627 91.623H129.01H134.392L141.852 82.653H132.504Z" fill="white"/>
<path d="M58.1912 75.9016H78.8235V131.849C78.8235 131.849 79.8146 157.344 52.2424 157.344H40.0332V138.458L48.559 138.364C48.559 138.364 58.2848 139.213 58.2848 129.677C58.2848 120.141 58.1912 75.9016 58.1912 75.9016Z" fill="#A4121C"/>
<path d="M45.7855 164.68V174.513H43.7131V164.68H40V162.839H49.6665V164.68H45.7855Z" fill="#46454F"/>
<path d="M53.0263 164.68V167.413H56.8833V169.174H53.0263V172.672H58.3174V174.513H50.9551V162.839H58.4053V164.68H53.0263Z" fill="#46454F"/>
<path d="M60.1729 174.513V162.839H62.2452V172.672H67.5203V174.513H60.1729Z" fill="#46454F"/>
<path d="M71.2003 164.68V167.413H75.0573V169.174H71.2003V172.672H76.4914V174.513H69.1279V162.839H76.5793V164.68H71.2003Z" fill="#46454F"/>
<path d="M82.6993 174.673H81.5586L77.1924 162.839H79.4714L82.1729 170.728L85.0251 162.839H87.2562L82.6993 174.673Z" fill="#46454F"/>
<path d="M90.5382 162.839H88.4658V174.513H90.5382V162.839Z" fill="#46454F"/>
<path d="M92.3447 174.513V173.844L97.2145 164.68H92.4247V162.839H100.035V163.508L95.1501 172.672H100.209V174.513H92.3447Z" fill="#46454F"/>
<path d="M104.05 164.68V167.413H107.907V169.174H104.05V172.672H109.341V174.513H101.979V162.839H109.429V164.68H104.05Z" fill="#46454F"/>
<path d="M115.216 171.811H117.064C117.239 172.491 117.809 172.831 118.77 172.831C119.45 172.831 119.929 172.611 120.209 172.17C120.488 171.728 120.627 171.059 120.627 170.162V162.839H122.699V170.099C122.699 171.65 122.369 172.8 121.712 173.549C121.053 174.298 119.995 174.673 118.54 174.673C117.572 174.673 116.792 174.42 116.197 173.916C115.602 173.411 115.275 172.71 115.217 171.813" fill="#46454F"/>
<path d="M127.244 162.839H125.172V174.513H127.244V162.839Z" fill="#46454F"/>
<path d="M129.281 174.514V173.844L134.15 164.68H129.36V162.839H136.97V163.509L132.086 172.673H137.146V174.514H129.281ZM136.541 159.374L133.609 161.883H132.756L129.926 159.374H132.055L133.162 160.561L134.414 159.374H136.541Z" fill="#46454F"/>
<path d="M146.8 174.673L141.134 167.285V174.521H139.142V162.839H140.138L145.652 169.884V162.839H147.645V174.673H146.8Z" fill="#46454F"/>
<path d="M153.553 159.549L151.752 161.883H150.238L151.584 159.549H153.553ZM150.238 162.839H152.311V174.513H150.238V162.839Z" fill="#46454F"/>
<path d="M167.984 163.46L167.131 165.173C166.668 164.711 165.925 164.48 164.9 164.48C163.928 164.48 163.13 164.888 162.509 165.703C161.887 166.518 161.576 167.55 161.576 168.798C161.576 170.046 161.865 171.037 162.441 171.77C163.017 172.503 163.786 172.87 164.748 172.87C165.847 172.87 166.708 172.477 167.33 171.69L168.294 173.363C167.45 174.261 166.211 174.709 164.581 174.709C162.951 174.709 161.683 174.173 160.78 173.099C159.877 172.026 159.426 170.563 159.426 168.708C159.426 166.982 159.926 165.538 160.927 164.377C161.929 163.216 163.211 162.636 164.772 162.636C166.111 162.636 167.181 162.91 167.984 163.456M167.96 159.368L165.026 161.878H164.173L161.344 159.368H163.472L164.58 160.556L165.831 159.368H167.96Z" fill="#46454F"/>
<path d="M172.203 164.68V167.413H176.061V169.174H172.203V172.672H177.495V174.513H170.132V162.839H177.582V164.68H172.203Z" fill="#46454F"/>
<path d="M187.579 163.46L186.726 165.173C186.264 164.711 185.521 164.48 184.495 164.48C183.524 164.48 182.725 164.888 182.104 165.703C181.483 166.519 181.171 167.55 181.171 168.798C181.171 170.046 181.46 171.037 182.037 171.771C182.612 172.504 183.382 172.871 184.343 172.871C185.443 172.871 186.304 172.478 186.926 171.692L187.89 173.365C187.046 174.263 185.807 174.712 184.177 174.712C182.546 174.712 181.279 174.175 180.376 173.102C179.472 172.028 179.021 170.566 179.021 168.71C179.021 166.984 179.522 165.54 180.523 164.379C181.524 163.218 182.807 162.638 184.367 162.638C185.707 162.638 186.777 162.912 187.579 163.459" fill="#46454F"/>
<path d="M196.443 174.513V169.254H191.797V174.513H189.726V162.839H191.797V167.413H196.443V162.839H198.491V174.513H196.443Z" fill="#46454F"/>
<path d="M205.899 169.724V174.513H203.826V169.724L199.891 162.839H202.09L204.855 167.82L207.627 162.839H209.82L205.899 169.724Z" fill="#46454F"/>
</svg>
