<svg width="250" height="250" viewBox="0 0 250 250" fill="none" xmlns="http://www.w3.org/2000/svg">
<rect width="250" height="250" fill="#EFF7E7"/>
<path d="M65.1176 104.72C64.3859 104.713 63.5975 104.726 62.7484 104.758C49.643 105.258 41.7244 107.613 40.2606 111.446C39.2106 114.195 41.4735 118.508 44.5465 119.614C46.1204 120.18 49.9408 120.283 52.9591 119.84C54.3407 119.637 55.4977 119.502 55.5303 119.538C55.7748 119.813 57.288 124.295 57.6621 125.853C58.9098 131.048 57.7306 134.772 54.2939 136.49C53.113 137.08 52.6782 137.177 51.2202 137.177C49.0729 137.177 47.8835 136.616 46.8755 135.125C45.7043 133.394 45.6493 131.602 46.7279 130.32C47.4843 129.421 47.9631 129.43 47.647 130.336C46.873 132.556 49.1436 134.975 51.7158 134.67C56.3414 134.122 56.993 127.53 52.6194 125.527C51.5394 125.033 51.1861 124.98 49.5957 125.074C47.2166 125.214 45.5794 125.86 44.0431 127.264C41.0146 130.032 40.3206 134.419 42.2766 138.431C43.519 140.979 45.7431 142.661 48.9494 143.478C50.7542 143.937 55.3858 143.766 57.7411 143.153C62.3569 141.951 65.4216 139.564 67.2429 135.749C68.3986 133.329 68.7014 131.896 68.8371 128.21C68.9775 124.396 68.6428 121.819 67.6051 118.731L66.9817 116.877L67.9979 116.496C70.8157 115.44 72.8376 113.922 73.5734 112.311C74.0654 111.234 74.1029 109.438 73.6558 108.368C72.5923 105.822 70.2396 104.77 65.1176 104.72ZM90.9546 117.522C90.7292 117.527 90.5007 117.539 90.269 117.557C88.2368 117.72 86.9779 118.35 86.2702 119.558C85.3497 121.129 85.0635 123.091 84.7963 129.662C84.339 140.912 84.804 142.919 88.0203 143.586C90.2097 144.041 92.5965 143.232 93.3466 141.781C93.739 141.023 94.0695 137.826 94.0896 134.596C94.1123 130.948 95.5803 131.247 98.0794 135.407C98.6264 136.318 99.447 137.437 99.9029 137.894C100.618 138.611 100.869 138.725 101.737 138.725C102.643 138.725 102.845 138.621 103.781 137.675C104.353 137.097 105.109 136.078 105.461 135.409C106.295 133.826 106.662 133.42 107.26 133.42C108.108 133.42 108.322 133.935 108.159 135.578C107.475 142.451 107.91 144.613 110.077 145.099C111.341 145.382 111.27 145.382 112.86 145.124C115.328 144.723 116.909 143.55 117.221 141.889C117.559 140.088 116.403 130.102 115.429 126.408C114.417 122.569 113.312 121.164 110.76 120.473C107.757 119.66 104.897 120.466 103.299 122.577C102.357 123.821 101.915 124.136 101.116 124.136C100.505 124.136 99.9922 123.622 98.913 121.926C97.0045 118.927 94.3346 117.45 90.9546 117.522ZM78.6286 118.28C75.8802 118.282 74.8541 118.79 73.9394 120.6C73.314 121.839 70.059 132.855 69.4562 135.773C69.0008 137.977 69.0357 139.945 69.5507 141.079C70.1912 142.489 72.0641 143.434 74.9095 143.781C77.8197 144.135 80.2932 143.539 80.9058 142.335C82.1065 139.976 83.1503 132.15 83.1559 125.463C83.1604 119.981 83.0303 119.422 81.5845 118.704C80.9203 118.374 80.2577 118.279 78.6286 118.28Z" fill="#77356E"/>
<path d="M142.591 104.794C138.589 104.789 132.941 105.216 128.792 105.925C122.267 107.041 118.091 109.316 117.637 112C117.139 114.95 119.299 118.608 122.129 119.607C123.705 120.163 127.372 120.274 130.191 119.852C131.502 119.655 132.674 119.495 132.796 119.495C133.222 119.495 134.765 123.692 135.334 126.398C135.753 128.387 135.746 131.304 135.321 132.551C134.745 134.24 133.495 135.65 131.813 136.508C130.503 137.176 130.104 137.274 128.727 137.268C126.369 137.257 124.653 136.199 123.841 134.256C123.17 132.65 123.549 130.448 124.591 129.89C125.277 129.523 125.537 129.599 125.274 130.09C124.65 131.256 125.417 133.287 126.805 134.146C127.381 134.502 127.916 134.625 128.832 134.613C131.847 134.572 133.662 131.808 132.79 128.586C132.427 127.242 130.805 125.647 129.401 125.254C128.037 124.872 125.78 125.055 124.098 125.685C122.452 126.3 120.474 128.108 119.687 129.715C116.872 135.466 120.226 142.076 126.672 143.478C129.285 144.046 133.768 143.706 136.6 142.723C141.448 141.042 144.49 137.731 145.856 132.646C146.244 131.202 146.333 130.23 146.346 127.341C146.362 123.55 146.073 121.623 145.031 118.558C144.735 117.689 144.569 116.915 144.661 116.839C144.753 116.763 145.496 116.424 146.314 116.086C148.413 115.217 150.002 114.039 150.788 112.767C151.344 111.866 151.458 111.451 151.455 110.337C151.448 107.665 149.752 105.777 146.732 105.082C145.889 104.888 144.41 104.796 142.591 104.794ZM183.602 117.705C180.271 117.711 178.99 118.633 178.201 121.595C177.479 124.307 177.222 138.838 177.859 140.964C178.421 142.839 179.664 143.663 181.961 143.684C183.167 143.694 183.746 143.581 184.585 143.168C186.282 142.332 186.55 141.516 186.701 136.713C186.831 132.589 186.961 132.094 187.915 132.094C188.56 132.094 189.248 132.871 190.965 135.538C192.58 138.048 193.348 138.725 194.581 138.725C195.303 138.725 195.573 138.564 196.537 137.56C197.151 136.919 198.004 135.751 198.431 134.963C199.109 133.715 199.299 133.522 199.909 133.462C201.032 133.353 201.18 133.885 200.849 136.851C200.531 139.71 200.655 142.449 201.158 143.653C201.388 144.204 201.752 144.597 202.232 144.815C203.421 145.353 206.255 145.137 207.779 144.391C209.572 143.514 210.042 142.665 209.997 140.382C209.943 137.668 209.085 130.73 208.452 127.894C207.444 123.374 206.492 121.685 204.433 120.768C203.031 120.144 200.587 120.014 198.97 120.477C197.816 120.807 197.465 121.054 196.107 122.496C193.883 124.857 193.34 124.789 191.53 121.926C190.703 120.619 189.144 119.071 188.12 118.542C186.985 117.955 185.617 117.702 183.602 117.705ZM170.094 119.065C169.292 119.062 168.547 119.139 168.036 119.31C167.249 119.573 167.113 119.727 166.803 120.711C166.488 121.711 166.387 121.822 165.732 121.886C165.242 121.934 164.498 121.705 163.425 121.175C159.997 119.481 155.643 119.786 152.379 121.948C150.4 123.259 149.172 125.429 148.452 128.889C147.481 133.558 148.436 137.814 151.041 140.418C152.589 141.966 154.103 142.558 156.781 142.663C159.249 142.76 161.138 142.366 163.952 141.169L165.444 140.533L165.58 141.386C165.75 142.447 166.473 143.277 167.483 143.571C168.426 143.845 172.141 143.717 173.297 143.37C173.76 143.231 174.456 142.833 174.844 142.485L175.551 141.852L175.515 131.548C175.475 119.937 175.571 120.581 173.742 119.696C172.921 119.299 171.43 119.07 170.094 119.065ZM161.574 126.131C162.371 126.133 163.191 126.334 163.974 126.743C166.124 127.866 167.013 130.115 166.291 132.599C165.857 134.094 165.04 135.114 163.845 135.656C162.361 136.331 160.288 136.103 158.754 135.099C157.715 134.418 157.01 133.055 156.914 131.537C156.807 129.862 157.131 128.783 158.056 127.73C158.981 126.676 160.246 126.128 161.574 126.131Z" fill="#83C240"/>
<path d="M83.2566 117.34C82.7191 116.884 81.8621 116.097 81.3523 115.591C80.4648 114.711 80.3895 114.681 79.5823 114.884C79.1185 115 78.0499 115.247 77.2075 115.434C74.2124 116.095 73.8755 115.014 76.1732 112.115L77.0292 111.035L76.1778 109.911C75.3402 108.804 74.904 107.672 75.2016 107.377C75.2849 107.295 76.3826 107.227 77.6408 107.227C79.9047 107.227 79.9359 107.22 80.6599 106.531C81.5935 105.642 83.0219 104.685 83.4149 104.685C83.8918 104.685 84.4844 105.856 84.7927 107.407C85.0709 108.806 85.0875 108.83 85.996 109.101C87.8837 109.665 89.2381 110.251 89.2379 110.503C89.2374 110.868 88.4039 111.773 87.3596 112.543C85.821 113.678 85.7645 113.77 85.6075 115.406C85.4269 117.287 85.1085 118.168 84.6095 118.168C84.4029 118.168 83.7942 117.795 83.2566 117.34Z" fill="#F9E80C"/>
</svg>
