<svg width="250" height="250" viewBox="0 0 250 250" fill="none" xmlns="http://www.w3.org/2000/svg">
<rect width="250" height="250" fill="url(#paint0_linear_270_55)"/>
<rect width="250" height="250" fill="url(#paint1_linear_270_55)"/>
<path d="M141.229 53.6623C118.189 53.6623 99.51 72.3778 99.51 95.4643C99.51 110.559 111.723 122.796 126.788 122.796C130.035 122.796 133.149 122.227 136.037 121.184C135.896 121.186 135.755 121.189 135.613 121.189C123.871 121.189 114.352 111.651 114.352 99.8861C114.352 85.2353 126.206 73.3578 140.828 73.3578C153.085 73.3578 163.39 81.7057 166.405 93.0345C166.427 93.1196 166.449 93.2044 166.471 93.2897C166.625 93.8947 166.752 94.5108 166.865 95.1314C167.136 96.6785 167.304 98.2613 167.304 99.8861C167.304 123.195 148.446 142.09 125.184 142.09C99.4289 142.09 78.3983 121.824 77.1086 96.3394C77.0718 95.5156 77.0459 94.6899 77.0459 93.8571C77.0459 66.8735 96.5582 44.4575 122.216 40C88.3561 40.3014 61 67.8965 61 101.895C61 102.964 61.0269 104.026 61.0807 105.08C62.7379 139.118 90.8024 166.206 125.184 166.206C160.631 166.206 189.367 137.413 189.367 101.895C189.367 75.2574 167.816 53.6623 141.229 53.6623Z" fill="white"/>
<path d="M86.4889 179.219L86.316 179.997C86.2728 180.386 86.0996 180.516 85.7106 180.516H76.2852L71.3129 208.79C71.2264 209.222 71.0535 209.352 70.6645 209.352H69.7565C69.3241 209.352 69.2376 209.222 69.3241 208.79L74.2963 180.516H64.9139C64.4817 180.516 64.3952 180.386 64.4384 179.997L64.6113 179.219C64.6546 178.787 64.8275 178.657 65.2167 178.657H86.0132C86.4024 178.657 86.5321 178.787 86.4889 179.219ZM112.469 179.176L95.6931 208.833C95.477 209.222 95.2609 209.352 94.8718 209.352H94.0503C93.6179 209.352 93.4449 209.222 93.4017 208.876L87.0892 179.176C87.0028 178.873 87.1324 178.657 87.5217 178.657H88.343C88.9484 178.657 89.1213 178.744 89.2077 179.132L94.3529 203.991C94.569 205.072 94.6987 206.325 94.8284 206.887H94.9151C95.2609 206.325 95.7364 205.115 96.3418 203.991L110.35 179.132C110.567 178.744 110.696 178.657 111.301 178.657H112.209C112.599 178.657 112.685 178.873 112.469 179.176ZM131.622 180.429V198.673C131.622 205.763 127.558 210 119.732 210C113.765 210 110.177 207.32 108.491 202.694C108.015 201.44 108.361 200.835 109.615 200.359L114.111 198.76C115.408 198.284 116.014 198.5 116.532 199.797C117.267 201.527 118.175 202.434 119.905 202.434C122.023 202.434 123.061 201.224 123.061 198.717V180.429C123.061 179.089 123.494 178.614 124.877 178.614H129.849C131.189 178.614 131.622 179.089 131.622 180.429ZM147.562 178.009C156.08 178.009 160.836 182.634 160.836 190.113V197.895C160.836 205.374 156.08 210 147.562 210C139.002 210 134.246 205.374 134.246 197.895V190.113C134.246 182.634 139.002 178.009 147.562 178.009ZM147.562 185.574C144.536 185.574 142.806 187.001 142.806 189.724V198.284C142.806 201.008 144.536 202.434 147.562 202.434C150.546 202.434 152.275 201.008 152.275 198.284V189.724C152.275 187.001 150.546 185.574 147.562 185.574ZM185.614 180.429V198.673C185.614 205.763 181.55 210 173.724 210C167.757 210 164.169 207.32 162.483 202.694C162.007 201.44 162.353 200.835 163.607 200.359L168.103 198.76C169.4 198.284 170.006 198.5 170.525 199.797C171.26 201.527 172.168 202.434 173.897 202.434C176.016 202.434 177.053 201.224 177.053 198.717V180.429C177.053 179.089 177.485 178.614 178.869 178.614H183.841C185.182 178.614 185.614 179.089 185.614 180.429Z" fill="white"/>
<defs>
<linearGradient id="paint0_linear_270_55" x1="0" y1="125" x2="244.976" y2="125" gradientUnits="userSpaceOnUse">
<stop offset="0.0220131" stop-color="#E94450"/>
<stop offset="0.5509" stop-color="#DB3763"/>
<stop offset="1" stop-color="#D12B6F"/>
</linearGradient>
<linearGradient id="paint1_linear_270_55" x1="0" y1="125" x2="250" y2="125" gradientUnits="userSpaceOnUse">
<stop stop-color="#F02D4F"/>
<stop offset="1" stop-color="#D43C4F"/>
</linearGradient>
</defs>
</svg>
