<svg width="250" height="250" viewBox="0 0 250 250" fill="none" xmlns="http://www.w3.org/2000/svg">
<rect width="250" height="250" fill="#1A184A"/>
<path d="M82.8057 98.2903C70.499 98.2987 60.5334 108.281 60.5417 120.579V120.588C60.525 128.63 67.0294 135.16 75.0639 135.177C76.761 135.177 78.4415 134.892 80.0383 134.316H79.821C73.5506 134.307 68.4758 129.224 68.4758 122.954C68.4758 122.945 68.4758 122.945 68.4758 122.937C68.4507 115.137 74.7545 108.799 82.5548 108.774C88.9841 108.758 94.6106 113.08 96.2493 119.292C96.2493 119.334 96.2744 119.384 96.2827 119.426C96.3664 119.743 96.4332 120.078 96.4918 120.412C96.6422 121.248 96.7175 122.093 96.7259 122.937C96.7342 135.361 86.6766 145.443 74.2529 145.46C60.5668 145.452 49.2885 134.725 48.5946 121.064C48.5695 120.621 48.5612 120.186 48.5612 119.743C48.5528 105.581 58.7108 93.458 72.6644 91C54.5556 91.1839 39.9833 105.923 40 124.024C40 124.592 40.0168 125.161 40.0418 125.721C40.928 144.607 56.9634 159.205 75.8497 158.319C94.1592 157.457 108.539 142.35 108.489 124.024C108.506 109.828 97.0101 98.3071 82.8224 98.2903C82.814 98.2903 82.814 98.2903 82.8057 98.2903Z" fill="white"/>
<path d="M203.048 100.457L210 100.389L200.539 152.408L193.384 152.476L203.048 100.457Z" fill="white"/>
<path d="M191.722 152.409L111.896 152.476L121.154 100.458L201.251 100.389L191.722 152.409ZM142.178 105.882C133.871 105.781 126.071 112.868 125.698 120.905H134.956C136.821 114.462 140.009 113.886 142.213 114.598C144.552 115.344 146.146 119.889 138.346 127.043C130.253 134.459 122.498 138.392 122.476 138.403L121.12 146.373H149.062L150.52 137.928L137.227 137.894C149.978 128.603 154.488 120.6 154.488 116.259C154.454 110.223 150.995 105.95 142.178 105.882ZM155.2 131.96L153.878 139.386L171.511 139.455L170.121 146.304H179.718L180.972 139.455H185.346L186.907 131.553H182.532L186.907 106.663H177.615V106.628L155.2 131.96ZM173.716 131.519H165.34L176.021 118.193L173.716 131.519Z" fill="white"/>
</svg>
