<svg width="250" height="250" viewBox="0 0 250 250" fill="none" xmlns="http://www.w3.org/2000/svg">
<rect width="250" height="250" fill="#E91052"/>
<path d="M107.181 113.907C108.553 114.184 109.135 115.144 108.898 116.55L108.689 117.753C108.486 119.125 107.695 119.814 106.323 119.781C104.741 119.747 103.301 119.747 101.07 119.747C98.6306 119.747 97.9076 120.396 97.1905 125.993C96.5692 130.663 96.6031 131.691 99.1445 131.691C101.415 131.691 103.024 131.657 104.504 131.59C105.944 131.522 106.769 132.205 106.836 133.685L106.904 134.854C106.978 136.226 106.39 137.119 105.086 137.395C103.233 137.802 101.381 137.977 98.8057 137.977C90.9048 137.977 88.1262 134.78 89.4307 125.445C90.7692 115.901 93.5477 113.461 101.448 113.461C103.916 113.461 105.6 113.597 107.181 113.907Z" fill="#BDBCBC"/>
<path d="M117.754 116.242L115.043 135.506C114.834 136.878 114.043 137.567 112.671 137.567H109.716C108.208 137.567 107.452 136.669 107.661 135.161L110.372 115.931C110.541 114.559 111.366 113.876 112.738 113.876H115.658C117.205 113.876 117.957 114.734 117.754 116.242Z" fill="#BDBCBC"/>
<path d="M116.277 135.164L118.886 116.725C119.129 114.838 120.259 113.878 122.151 113.878H123.043C124.76 113.878 125.889 114.562 126.68 116.075L130.695 123.903C131.249 124.964 131.695 126.201 132.107 127.816C132.141 127.918 132.209 127.986 132.277 127.986C132.378 127.986 132.412 127.918 132.412 127.783C132.277 126.342 132.31 125.241 132.486 123.97L133.649 115.94C133.824 114.562 134.649 113.878 136.021 113.878H138.353C139.901 113.878 140.658 114.737 140.415 116.245L137.839 134.685C137.562 136.605 136.467 137.571 134.541 137.571H133.615C131.864 137.571 130.768 136.848 129.978 135.301L125.889 127.129C125.375 126.067 125.031 124.762 124.726 123.356C124.726 123.249 124.652 123.215 124.584 123.215C124.483 123.215 124.449 123.283 124.449 123.39C124.483 124.796 124.449 126.135 124.24 127.615L123.076 135.51C122.868 136.882 122.077 137.571 120.704 137.571H118.338C116.825 137.571 116.073 136.679 116.277 135.165" fill="#BDBCBC"/>
<path d="M148.241 120.814L148.037 122.221C147.964 122.701 148.207 122.977 148.687 122.977H154.114C155.622 122.977 156.379 123.836 156.204 125.344L156.136 125.829C155.967 127.202 155.176 127.919 153.77 127.919H147.896C147.484 127.919 147.213 128.128 147.179 128.54L146.868 130.669C146.727 131.562 147.139 132.008 148.139 132.008H154.114C155.588 132.008 156.379 132.798 156.345 134.273L156.311 135.199C156.277 136.577 155.554 137.401 154.182 137.503C151.296 137.74 147.862 137.706 144.976 137.706C140.825 137.706 138.798 134.995 139.312 131.251L141.029 118.996C141.509 115.8 143.745 113.744 147.45 113.744C150.607 113.744 154.007 113.744 156.791 113.981C158.265 114.083 158.954 115.014 158.711 116.488L158.576 117.381C158.333 118.753 157.542 119.442 156.17 119.442H149.991C148.822 119.442 148.376 119.786 148.241 120.814Z" fill="#BDBCBC"/>
<path d="M157.063 135.132L160.287 117.139C160.666 114.942 161.97 113.88 164.167 113.88H168.426C170.73 113.88 172 115.078 172.102 117.382L172.447 125.723C172.514 126.791 172.48 127.852 172.413 128.988C172.373 129.157 172.447 129.259 172.548 129.259C172.684 129.259 172.752 129.191 172.786 129.022C173.028 127.819 173.271 126.859 173.576 125.791L176.219 116.902C176.807 114.841 178.111 113.881 180.274 113.881H184.979C187.379 113.881 188.616 115.253 188.378 117.653L186.594 135.443C186.419 136.849 185.628 137.572 184.222 137.572H182.025C180.511 137.572 179.76 136.713 179.896 135.234L181.477 119.68C181.511 119.511 181.443 119.443 181.268 119.443H181.234C181.099 119.443 181.031 119.511 180.957 119.612L177.32 130.805C176.665 132.833 175.361 133.759 173.271 133.759H171.278C168.979 133.759 167.708 132.556 167.601 130.257L167.019 119.68C166.986 119.51 166.918 119.442 166.743 119.442H166.675C166.505 119.442 166.438 119.51 166.404 119.646L163.653 135.544C163.45 136.883 162.626 137.572 161.253 137.572H159.09C157.543 137.572 156.786 136.679 157.063 135.132Z" fill="#BDBCBC"/>
<path d="M202.688 135.443L202.518 133.212C202.484 132.8 202.208 132.557 201.795 132.557H196.577C196.165 132.557 195.922 132.732 195.786 133.11L194.792 135.787C194.346 137.024 193.522 137.572 192.251 137.572H189.23C187.547 137.572 186.858 136.544 187.513 134.963L195.137 116.659C195.922 114.773 197.26 113.88 199.322 113.88H203.614C205.845 113.88 207.149 115.016 207.46 117.212L209.967 135.2C210.171 136.714 209.419 137.572 207.906 137.572H204.986C203.58 137.572 202.789 136.849 202.688 135.443ZM198.876 127.136H201.315C201.795 127.136 201.999 126.893 201.965 126.413L201.626 122.019C201.519 121.262 201.552 120.505 201.586 119.788C201.586 119.511 201.451 119.376 201.18 119.376H201.005C200.767 119.376 200.592 119.511 200.559 119.754C200.423 120.404 200.214 121.161 199.943 121.951L198.328 126.345C198.119 126.825 198.362 127.136 198.876 127.136Z" fill="#BDBCBC"/>
<path d="M77.9009 113.147C77.9009 113.147 75.1505 113.006 74.343 113H56.033C55.0504 113.034 53.6329 113.119 52.3226 113.147C51.2383 113.17 50.25 113.198 49.3464 113.299L48.8495 113.384L48.5784 113.407C43.4843 114.243 41.4117 117.281 40.3104 125.131C39.0002 134.466 41.7844 137.662 49.6797 137.662C51.0294 137.662 52.1816 137.911 53.2376 137.809H71.5465C72.6025 137.911 73.7886 137.662 75.2569 137.662C83.1522 137.662 85.9363 135.223 87.2743 125.678C88.5789 116.337 85.7947 113.147 77.8994 113.147" fill="#F7F7F7"/>
<path d="M55.2477 118.758V127.687C55.2477 131.16 53.2598 133.233 49.4251 133.233C46.5053 133.233 44.7489 131.923 43.9244 129.658C43.6928 129.042 43.8622 128.749 44.4778 128.517L46.6747 127.732C47.3129 127.501 47.6066 127.608 47.8607 128.24C48.2222 129.088 48.6683 129.534 49.5098 129.534C50.5489 129.534 51.0572 128.941 51.0572 127.71V118.758C51.0572 118.103 51.2662 117.872 51.9439 117.872H54.378C55.0387 117.872 55.2477 118.103 55.2477 118.758Z" fill="#E91052"/>
<path d="M63.2253 117.58C67.3932 117.58 69.7256 119.845 69.7256 123.505V127.317C69.7256 130.976 67.3932 133.241 63.2253 133.241C59.0348 133.241 56.708 130.976 56.708 127.317V123.505C56.708 119.845 59.0348 117.58 63.2253 117.58ZM63.2253 121.285C61.7457 121.285 60.8985 121.98 60.8985 123.318V127.509C60.8985 128.842 61.7456 129.536 63.2253 129.536C64.688 129.536 65.5351 128.842 65.5351 127.509V123.318C65.5351 121.98 64.6879 121.285 63.2253 121.285Z" fill="#E91052"/>
<path d="M81.679 118.758V127.687C81.679 131.16 79.6911 133.233 75.8564 133.233C72.9366 133.233 71.1803 131.923 70.3557 129.658C70.1241 129.042 70.2936 128.749 70.9091 128.517L73.1061 127.732C73.7442 127.501 74.0379 127.608 74.2921 128.24C74.6535 129.088 75.094 129.534 75.9411 129.534C76.9803 129.534 77.4885 128.941 77.4885 127.71V118.758C77.4885 118.103 77.6975 117.872 78.3752 117.872H80.8093C81.4644 117.872 81.679 118.103 81.679 118.758Z" fill="#E91052"/>
</svg>
