<svg width="250" height="250" viewBox="0 0 250 250" fill="none" xmlns="http://www.w3.org/2000/svg">
<rect width="250" height="250" fill="#E91052"/>
<path d="M97.5411 114.77C98.7165 115.007 99.2148 115.829 99.0116 117.033L98.8326 118.064C98.6585 119.239 97.9813 119.829 96.8058 119.8C95.4514 119.771 94.2179 119.771 92.3072 119.771C90.2175 119.771 89.5984 120.328 88.9841 125.121C88.452 129.122 88.481 130.002 90.6577 130.002C92.6023 130.002 93.9809 129.973 95.2482 129.915C96.4817 129.857 97.188 130.442 97.246 131.71L97.3041 132.711C97.367 133.886 96.8639 134.651 95.7465 134.888C94.1599 135.236 92.5733 135.386 90.3675 135.386C83.6002 135.386 81.2203 132.648 82.3377 124.652C83.4841 116.477 85.864 114.388 92.6317 114.388C94.7456 114.388 96.1867 114.504 97.5411 114.77Z" fill="#BDBCBC"/>
<path d="M106.597 116.771L104.275 133.271C104.096 134.446 103.419 135.036 102.243 135.036H99.7134C98.4219 135.036 97.7736 134.267 97.9526 132.975L100.275 116.504C100.42 115.329 101.126 114.743 102.301 114.743H104.802C106.128 114.743 106.771 115.479 106.597 116.771Z" fill="#BDBCBC"/>
<path d="M105.332 132.976L107.567 117.183C107.775 115.567 108.742 114.745 110.363 114.745H111.127C112.597 114.745 113.565 115.33 114.242 116.626L117.681 123.331C118.155 124.24 118.537 125.299 118.891 126.683C118.92 126.77 118.978 126.828 119.036 126.828C119.123 126.828 119.152 126.77 119.152 126.654C119.036 125.42 119.065 124.477 119.215 123.389L120.211 116.51C120.361 115.33 121.067 114.745 122.243 114.745H124.241C125.566 114.745 126.214 115.48 126.006 116.771L123.8 132.565C123.563 134.21 122.625 135.037 120.976 135.037H120.183C118.684 135.037 117.745 134.418 117.068 133.092L113.566 126.093C113.126 125.183 112.83 124.066 112.569 122.862C112.569 122.77 112.506 122.741 112.448 122.741C112.361 122.741 112.332 122.799 112.332 122.891C112.361 124.095 112.332 125.242 112.153 126.509L111.157 133.271C110.978 134.447 110.301 135.037 109.125 135.037H107.097C105.801 135.037 105.158 134.273 105.332 132.976Z" fill="#BDBCBC"/>
<path d="M132.709 120.683L132.535 121.888C132.472 122.299 132.68 122.536 133.091 122.536H137.74C139.031 122.536 139.68 123.271 139.53 124.563L139.472 124.979C139.327 126.154 138.649 126.768 137.445 126.768H132.414C132.061 126.768 131.828 126.947 131.799 127.301L131.533 129.124C131.412 129.888 131.766 130.271 132.622 130.271H137.739C139.002 130.271 139.679 130.948 139.65 132.21L139.621 133.004C139.592 134.184 138.973 134.89 137.798 134.977C135.326 135.18 132.385 135.151 129.913 135.151C126.358 135.151 124.621 132.829 125.061 129.622L126.532 119.125C126.943 116.387 128.858 114.627 132.032 114.627C134.736 114.627 137.648 114.627 140.032 114.83C141.295 114.917 141.885 115.715 141.677 116.978L141.561 117.742C141.353 118.917 140.676 119.508 139.5 119.508H134.209C133.207 119.508 132.825 119.803 132.709 120.683Z" fill="#BDBCBC"/>
<path d="M140.265 132.947L143.027 117.535C143.351 115.654 144.469 114.744 146.35 114.744H149.998C151.971 114.744 153.06 115.77 153.147 117.743L153.442 124.888C153.5 125.802 153.471 126.712 153.413 127.684C153.379 127.829 153.442 127.916 153.529 127.916C153.645 127.916 153.703 127.858 153.732 127.713C153.94 126.683 154.148 125.86 154.409 124.946L156.673 117.332C157.176 115.567 158.294 114.744 160.146 114.744H164.176C166.232 114.744 167.291 115.92 167.088 117.976L165.542 133.22C165.392 134.425 164.715 135.044 163.511 135.044H161.629C160.333 135.044 159.689 134.309 159.805 133.041L161.16 119.72C161.189 119.575 161.131 119.517 160.981 119.517H160.952C160.836 119.517 160.778 119.575 160.715 119.662L157.6 129.25C157.039 130.986 155.921 131.779 154.131 131.779H152.424C150.455 131.779 149.367 130.749 149.275 128.78L148.777 119.72C148.748 119.575 148.689 119.517 148.54 119.517H148.481C148.336 119.517 148.278 119.575 148.249 119.691L145.894 133.308C145.719 134.454 145.013 135.044 143.838 135.044H141.975C140.649 135.044 140.001 134.28 140.238 132.955" fill="#BDBCBC"/>
<path d="M179.345 133.214L179.2 131.303C179.171 130.95 178.934 130.742 178.581 130.742H174.111C173.758 130.742 173.55 130.892 173.434 131.216L172.583 133.509C172.201 134.568 171.495 135.038 170.406 135.038H167.818C166.377 135.038 165.786 134.157 166.348 132.803L172.878 117.125C173.55 115.509 174.697 114.745 176.462 114.745H180.139C182.049 114.745 183.167 115.717 183.433 117.599L185.58 133.005C185.755 134.302 185.111 135.037 183.815 135.037H181.314C180.11 135.037 179.432 134.419 179.345 133.214ZM176.08 126.098H178.17C178.581 126.098 178.755 125.89 178.726 125.479L178.436 121.715C178.344 121.067 178.373 120.419 178.402 119.805C178.402 119.568 178.286 119.451 178.054 119.451H177.904C177.701 119.451 177.551 119.568 177.522 119.776C177.406 120.332 177.227 120.98 176.994 121.657L175.611 125.421C175.432 125.832 175.64 126.098 176.08 126.098Z" fill="#BDBCBC"/>
<path d="M72.463 114.126C72.463 114.126 70.1073 114.005 69.4155 114H53.7327C52.8911 114.029 51.6769 114.102 50.5547 114.126C49.6259 114.145 48.7794 114.169 48.0054 114.256L47.5798 114.329L47.3476 114.348C42.9844 115.064 41.2091 117.667 40.2659 124.391C39.1436 132.387 41.5284 135.125 48.2908 135.125C49.4469 135.125 50.4337 135.337 51.3383 135.25H67.02C67.9246 135.337 68.9405 135.125 70.1981 135.125C76.9605 135.125 79.3452 133.035 80.4921 124.86C81.6095 116.86 79.2254 114.126 72.463 114.126Z" fill="#F7F7F7"/>
<path d="M53.0594 118.93V126.578C53.0594 129.553 51.3567 131.328 48.0723 131.328C45.5715 131.328 44.0671 130.206 43.3608 128.266C43.1625 127.739 43.3076 127.487 43.8349 127.289L45.7165 126.616C46.2631 126.418 46.5147 126.51 46.7324 127.052C47.042 127.777 47.4241 128.159 48.1448 128.159C49.0349 128.159 49.4702 127.652 49.4702 126.597V118.93C49.4702 118.369 49.6492 118.171 50.2297 118.171H52.3144C52.8804 118.171 53.0594 118.369 53.0594 118.93Z" fill="#E91052"/>
<path d="M59.8925 117.91C63.4623 117.91 65.4601 119.849 65.4601 122.984V126.249C65.4601 129.384 63.4623 131.323 59.8925 131.323C56.3032 131.323 54.3103 129.384 54.3103 126.249V122.984C54.3103 119.849 56.3032 117.91 59.8925 117.91ZM59.8925 121.083C58.6251 121.083 57.8995 121.678 57.8995 122.824V126.414C57.8995 127.555 58.6251 128.15 59.8925 128.15C61.1454 128.15 61.8709 127.555 61.8709 126.414V122.824C61.8709 121.678 61.1454 121.083 59.8925 121.083Z" fill="#E91052"/>
<path d="M75.6981 118.93V126.578C75.6981 129.553 73.9954 131.328 70.7109 131.328C68.2101 131.328 66.7058 130.206 65.9995 128.266C65.8012 127.739 65.9463 127.487 66.4735 127.289L68.3552 126.616C68.9018 126.418 69.1534 126.51 69.371 127.052C69.6806 127.777 70.0579 128.159 70.7835 128.159C71.6736 128.159 72.1089 127.652 72.1089 126.597V118.93C72.1089 118.369 72.2879 118.171 72.8683 118.171H74.9532C75.5143 118.171 75.6981 118.369 75.6981 118.93Z" fill="#E91052"/>
<path d="M193.487 127.496L193.861 125.126H197.679L198.302 121.209H200.798L200.174 125.126H204.066L203.692 127.496H199.8L199.176 131.389H196.681L197.304 127.496H193.487Z" fill="#F7F7F7"/>
<path d="M210 118.177L209.169 132.198L206.658 132.082L207.328 120.777C206.857 121.042 206.352 121.265 205.813 121.445C205.282 121.618 204.676 121.766 203.996 121.888L204.108 119.994C204.534 119.893 204.946 119.784 205.343 119.668C205.741 119.552 206.132 119.42 206.517 119.271C206.909 119.123 207.302 118.956 207.697 118.77C208.099 118.584 208.513 118.37 208.94 118.127L210 118.177Z" fill="#F7F7F7"/>
</svg>
