<svg width="250" height="250" viewBox="0 0 250 250" fill="none" xmlns="http://www.w3.org/2000/svg">
<rect width="250" height="250" fill="#E91052"/>
<path d="M57.528 100H57.4423C53.0431 101.392 49.1154 103.975 46.095 107.463C43.0745 110.951 41.0794 115.208 40.3309 119.761C39.5823 124.314 40.1097 128.985 41.8544 133.257C43.5991 137.529 46.4929 141.233 50.215 143.96C53.937 146.687 58.3417 148.33 62.9405 148.706C67.5393 149.082 72.1524 148.177 76.268 146.091C80.3837 144.005 83.841 140.82 86.2566 136.888C88.6721 132.957 89.9514 128.433 89.9526 123.819C89.9479 122.376 89.7783 120.938 89.4469 119.534V119.431C89.4469 119.259 89.3612 119.097 89.3183 118.925C89.3183 119.062 89.3955 119.199 89.4298 119.345C89.4298 119.199 89.3526 119.045 89.3098 118.908C89.3098 118.805 89.2498 118.702 89.2241 118.599C89.1812 118.437 89.1298 118.274 89.0784 118.111C89.0784 117.991 89.0012 117.871 88.9669 117.759C88.9155 117.597 88.8555 117.434 88.7955 117.271L88.6327 116.859C88.5641 116.688 88.4955 116.517 88.4184 116.345L88.187 115.839L88.0327 115.548L87.8013 115.085L87.6384 114.777C87.5613 114.631 87.4755 114.485 87.3898 114.348C87.3378 114.248 87.2806 114.151 87.2184 114.057L86.9356 113.62L86.7556 113.345L86.4556 112.917L86.2842 112.685C86.1385 112.488 85.9927 112.3 85.8385 112.111L85.7785 112.034L85.6242 111.854L85.2299 111.4C85.1442 111.297 85.0499 111.202 84.9642 111.108C84.8972 111.03 84.8257 110.955 84.7499 110.885L84.6814 110.808C84.5785 110.697 84.4671 110.594 84.3557 110.483L84.2271 110.354L84.1328 110.268L83.7128 109.891C83.85 110.003 83.9785 110.131 84.1157 110.251L83.6957 109.874L83.6271 109.814L83.1043 109.377C79.7667 106.616 75.5733 105.101 71.2418 105.091C69.1049 105.084 66.9877 105.5 65.0117 106.313C63.0356 107.126 61.2395 108.322 59.7265 109.831C58.2135 111.34 57.0133 113.133 56.1948 115.107C55.3763 117.081 54.9555 119.197 54.9566 121.334C54.9566 122.729 55.2316 124.111 55.7658 125.4C56.3001 126.689 57.0831 127.86 58.0701 128.846C59.0571 129.832 60.2288 130.614 61.5183 131.147C62.8077 131.68 64.1896 131.954 65.5849 131.953C66.5087 131.954 67.4283 131.83 68.3191 131.585L68.5419 131.293L68.2762 130.985C66.1716 130.802 64.2118 129.838 62.7836 128.281C61.3555 126.724 60.5629 124.689 60.5622 122.576C60.5633 121.243 60.8271 119.922 61.3386 118.69C61.8501 117.458 62.5991 116.339 63.5431 115.397C64.487 114.455 65.6073 113.707 66.8401 113.198C68.0728 112.689 69.3937 112.427 70.7275 112.428C73.5441 112.428 76.2452 113.547 78.2368 115.539C80.2283 117.53 81.3472 120.231 81.3472 123.048V123.545C82.0051 122.356 82.5338 121.101 82.9243 119.799C82.5339 121.103 82.0052 122.362 81.3472 123.553C81.3306 124.078 81.2877 124.602 81.2186 125.122C81.2228 125.185 81.2228 125.248 81.2186 125.311C81.2096 125.367 81.2096 125.425 81.2186 125.482V125.628V125.671C81.2234 125.713 81.2234 125.756 81.2186 125.799C81.2186 125.799 81.2186 125.851 81.2186 125.876C81.2144 125.91 81.2144 125.945 81.2186 125.979V126.073C81.2186 126.073 81.2186 126.125 81.2186 126.151C81.2259 126.19 81.2259 126.231 81.2186 126.271C81.2186 126.271 81.2186 126.313 81.2186 126.348V126.459C81.2186 126.459 81.2186 126.502 81.2186 126.528V126.656C81.2223 126.676 81.2223 126.696 81.2186 126.716C81.2235 126.759 81.2235 126.802 81.2186 126.845C81.2186 126.845 81.2186 126.845 81.2186 126.896C81.2235 126.945 81.2235 126.994 81.2186 127.042C81.2133 127.056 81.2133 127.071 81.2186 127.085C81.2186 127.085 81.2186 127.179 81.2186 127.231C81.2216 127.288 81.2216 127.345 81.2186 127.402C81.1976 127.458 81.1804 127.515 81.1672 127.573C80.197 130.93 78.1806 133.889 75.4118 136.019C72.643 138.15 69.2662 139.341 65.7734 139.419H65.8677C65.5677 139.419 65.2677 139.419 64.9592 139.419C59.9914 139.419 55.227 137.446 51.7135 133.934C48.2 130.422 46.2249 125.658 46.2227 120.691C46.2189 116.625 47.2745 112.629 49.2855 109.095C51.2964 105.562 54.1934 102.613 57.6908 100.54L57.8194 100.283L57.528 100ZM88.7612 117.314C88.8212 117.459 88.8726 117.614 88.9241 117.759C88.8726 117.579 88.8212 117.425 88.7612 117.279V117.314ZM89.0355 118.102C89.0869 118.265 89.1384 118.419 89.1812 118.582C89.1384 118.385 89.0869 118.231 89.0355 118.068V118.102ZM83.61 116.328C83.61 116.731 83.5157 117.125 83.4557 117.519C83.5157 117.091 83.5757 116.697 83.61 116.294V116.328ZM89.2412 120.476C89.2412 120.614 89.1641 120.759 89.1212 120.896C89.1384 120.759 89.1726 120.614 89.2412 120.476ZM88.9755 121.436C88.9755 121.599 88.8812 121.762 88.8298 121.925C88.8555 121.762 88.9069 121.599 88.9498 121.436H88.9755ZM88.6755 122.396C88.6241 122.559 88.5641 122.722 88.5041 122.876C88.5384 122.722 88.5984 122.559 88.6498 122.396H88.6755ZM88.3412 123.339C88.2812 123.493 88.2127 123.656 88.1527 123.819C88.187 123.656 88.2555 123.493 88.3155 123.339H88.3412ZM86.1385 127.685C86.027 127.856 85.9242 128.036 85.8042 128.208C85.9327 128.045 86.0356 127.865 86.147 127.693L86.1385 127.685ZM85.6328 128.456C85.5128 128.645 85.3842 128.833 85.2471 129.013C85.3928 128.842 85.5213 128.653 85.6413 128.465L85.6328 128.456ZM85.1699 129.116C84.6985 129.768 84.1928 130.393 83.6614 130.993C84.2014 130.402 84.7071 129.776 85.1785 129.125L85.1699 129.116Z" fill="url(#paint0_linear_270_270)"/>
<path d="M83.7043 114.477C83.7063 117.659 82.8949 120.79 81.3472 123.571C81.3306 124.095 81.2877 124.619 81.2186 125.139C81.2225 125.202 81.2225 125.265 81.2186 125.328C81.2104 125.382 81.2104 125.437 81.2186 125.491V125.628C81.2186 125.628 81.2186 125.671 81.2186 125.679C81.224 125.719 81.224 125.759 81.2186 125.799C81.2186 125.799 81.2186 125.859 81.2186 125.885C81.2144 125.919 81.2144 125.954 81.2186 125.988V126.082C81.2186 126.082 81.2186 126.133 81.2186 126.159C81.2265 126.196 81.2265 126.234 81.2186 126.271C81.2186 126.271 81.2186 126.322 81.2186 126.356V126.468C81.2197 126.488 81.2197 126.508 81.2186 126.528C81.2186 126.579 81.2186 126.622 81.2186 126.656C81.2235 126.679 81.2235 126.702 81.2186 126.725C81.2235 126.768 81.2235 126.811 81.2186 126.853C81.2186 126.853 81.2186 126.853 81.2186 126.905C81.2235 126.95 81.2235 126.996 81.2186 127.042C81.2186 127.093 81.2186 127.145 81.2186 127.196C81.2225 127.25 81.2225 127.305 81.2186 127.359C81.1976 127.415 81.1804 127.472 81.1672 127.53C80.2047 130.895 78.1916 133.863 75.4221 136.002C72.6526 138.141 69.2717 139.338 65.7734 139.419C66.5533 139.402 67.3316 139.342 68.1048 139.239H68.2591H68.3876H68.4648H68.6533C73.7102 138.466 78.4087 136.163 82.1159 132.638C85.8231 129.113 88.3608 124.537 89.3869 119.525C88.4309 115.469 86.1472 111.849 82.8986 109.24C83.3995 110.937 83.6536 112.698 83.6528 114.468" fill="url(#paint1_linear_270_270)"/>
<path d="M203.837 118.214V128.962C203.837 131.902 202.26 133.247 199.98 133.247C197.992 133.247 196.38 132.047 196.38 129.476V118.214H190.166V130.376C190.166 135.964 193.723 138.947 197.88 138.947C200.606 138.947 202.68 137.953 203.803 136.376V139.402C203.803 141.733 201.9 142.83 199.569 142.83C197.855 142.83 196.38 142.239 195.712 141.004L190.132 143.73C191.803 147.03 195.403 149.044 199.56 149.044C205.329 149.044 210 145.187 210 139.419V118.214H203.837ZM169.784 118.214H175.998V139.444H169.81L169.784 118.214ZM180.07 110.088H186.284V139.444H180.095L180.07 110.088ZM165.884 126.296V139.444H159.67V126.828C159.67 124.762 158.676 123.399 156.687 123.399C154.699 123.399 153.456 124.848 153.456 127.299V139.41H147.242V126.828C147.242 124.762 146.248 123.399 144.259 123.399C142.271 123.399 141.028 124.848 141.028 127.299V139.41H134.822V118.214H141.028V120.202C141.988 118.796 143.805 117.717 146.582 117.717C147.646 117.665 148.704 117.889 149.655 118.369C150.606 118.848 151.417 119.565 152.008 120.451C153.173 118.797 155.067 117.717 158.007 117.717C162.764 117.717 165.876 121.145 165.876 126.288M124.486 128.859C124.486 125.748 122.411 123.631 119.557 123.631C116.703 123.631 114.629 125.748 114.629 128.859C114.629 131.97 116.703 134.087 119.557 134.087C122.411 134.087 124.486 131.962 124.486 128.859ZM130.7 118.239V139.47H124.486V137.439C123.714 138.3 122.759 138.978 121.691 139.423C120.624 139.868 119.47 140.069 118.314 140.01C112.889 140.01 108.415 135.073 108.415 128.868C108.415 122.662 112.889 117.725 118.314 117.725C119.466 117.661 120.618 117.855 121.686 118.292C122.753 118.73 123.71 119.4 124.486 120.254V118.214L130.7 118.239ZM103.598 118.239H107.446V124.196H103.598V139.47H97.3837V124.171H94.6067V118.214H97.3837C97.3837 112.411 100.572 108.177 107.446 108.588V114.588C105.132 114.382 103.598 115.848 103.598 118.248" fill="white"/>
<defs>
<linearGradient id="paint0_linear_270_270" x1="44.1282" y1="113.335" x2="87.3134" y2="138.268" gradientUnits="userSpaceOnUse">
<stop stop-color="white"/>
<stop offset="1" stop-color="#EEEEEE"/>
</linearGradient>
<linearGradient id="paint1_linear_270_270" x1="79.303" y1="128.137" x2="82.4133" y2="130.826" gradientUnits="userSpaceOnUse">
<stop stop-color="#EEEEEE"/>
<stop offset="1" stop-color="#AAAAAA"/>
</linearGradient>
</defs>
</svg>
