<svg width="250" height="250" viewBox="0 0 250 250" fill="none" xmlns="http://www.w3.org/2000/svg">
<rect width="250" height="250" fill="#FBCB00"/>
<path d="M85.6432 120.457C85.4461 118.744 85.1977 117.03 84.9749 115.419L84.3151 110.484C83.9981 108.179 83.6811 105.9 83.3898 103.629L84.4008 103.269C85.3041 102.94 86.0483 102.28 86.4827 101.422C86.9171 100.565 87.009 99.5738 86.74 98.6509L82.9442 85.7128C82.6805 84.8215 82.0982 84.0583 81.3082 83.5685C80.5182 83.0787 79.5757 82.8965 78.6601 83.0567C76.1838 83.4851 73.6733 83.9135 71.1714 84.2905L63.6399 85.4729C58.6103 86.2612 53.555 87.0409 48.4912 87.9149C47.5434 88.0772 46.6932 88.5947 46.1137 89.3621C45.5343 90.1294 45.2691 91.0888 45.3723 92.0448L46.6661 103.886C46.7712 104.811 47.2124 105.665 47.9059 106.286C48.5994 106.907 49.4968 107.251 50.4276 107.253H50.5047L52.1584 107.091L53.0838 107.014L53.615 106.954L54.0691 106.894C55.0003 106.737 55.9441 106.668 56.8881 106.688C57.7554 106.7 58.6183 106.815 59.4586 107.031C60.2475 107.254 60.9985 107.595 61.6863 108.042C63.1363 109.059 64.2635 110.472 64.9337 112.112C65.7408 113.975 66.283 115.942 66.5445 117.955C66.6302 118.478 66.6816 119.009 66.7416 119.54L66.8958 121.168C66.9415 121.705 66.9672 122.211 66.9729 122.685C66.9812 123.081 66.9525 123.477 66.8873 123.867C66.8159 124.226 66.7008 124.574 66.5445 124.904C66.4173 125.176 66.2465 125.425 66.039 125.641C65.9725 125.712 65.8977 125.776 65.8162 125.829L65.7391 125.881H65.6791C65.3995 125.952 65.1092 125.973 64.8223 125.941C64.4403 125.92 64.0628 125.848 63.6999 125.727C63.3917 125.63 63.102 125.483 62.843 125.29C62.8022 125.26 62.7648 125.225 62.7316 125.187L62.5688 125.016C62.4146 124.853 62.269 124.681 62.1233 124.51C61.817 124.134 61.531 123.742 61.2665 123.336C60.7122 122.424 60.206 121.483 59.7499 120.517C59.2586 119.5 58.7617 118.412 58.259 117.253C57.8109 116.572 57.1433 116.064 56.3672 115.815C55.591 115.566 54.7529 115.589 53.992 115.882L53.8549 115.933L52.0127 116.61L51.0959 116.961L50.2391 117.321C49.0652 117.827 47.8828 118.332 46.649 118.949C46.0321 119.266 45.4066 119.583 44.7468 119.986C44.0165 120.425 43.3256 120.927 42.6819 121.485C41.8179 122.235 41.1203 123.157 40.6341 124.193C40.5141 124.501 40.3856 124.81 40.2913 125.127C40.2024 125.439 40.1337 125.757 40.0857 126.078C40.0371 126.384 40.0085 126.693 40 127.003C40 127.303 40 127.603 40 127.86C40.0899 128.809 40.303 129.742 40.6341 130.636C40.8922 131.35 41.1926 132.049 41.5337 132.727C42.1592 134.012 42.8275 135.135 43.4787 136.24L44.4726 137.868C44.8582 138.459 45.2438 139.059 45.6551 139.633C46.4983 140.799 47.4323 141.896 48.4483 142.915C50.517 145.025 52.9721 146.718 55.6799 147.901L56.7253 148.33L57.7963 148.681L58.3361 148.852L58.8845 148.99L59.9898 149.247C61.4805 149.529 62.9973 149.65 64.5138 149.606C65.2708 149.587 66.026 149.524 66.7759 149.418C67.1529 149.418 67.5127 149.289 67.8812 149.221C68.2496 149.152 68.6266 149.075 68.9865 148.99C70.4342 148.625 71.841 148.114 73.1849 147.464C75.8591 146.177 78.2571 144.381 80.2452 142.178C81.6059 140.692 82.7589 139.029 83.6725 137.234C84.1282 136.333 84.5148 135.4 84.8292 134.441C84.9835 133.952 85.1463 133.464 85.2576 132.975L85.4376 132.247C85.4976 132.007 85.5318 131.759 85.5832 131.519C85.9176 129.639 86.0696 127.73 86.0374 125.821C86.0374 123.97 85.866 122.188 85.6775 120.457" fill="#2C0143"/>
<path d="M77.4434 139.642C79.0276 137.895 80.2584 135.858 81.0678 133.644C83.2612 127.646 81.8046 120.491 81.0078 114.331C80.4423 109.918 79.7654 105.523 79.2941 101.101L81.6333 100.245L83.1241 99.7048C81.8475 95.3521 80.6565 91.2822 79.3284 86.7667H79.2256C69.8005 88.3947 58.576 89.9798 49.1509 91.6078C49.4251 94.0926 49.6307 95.9776 49.845 97.8626C50.0592 99.7477 50.2477 101.538 50.4447 103.398C52.0299 103.398 52.8267 103.398 53.615 103.329C64.471 102.472 68.6095 109.198 69.3464 120.217C69.5039 121.588 69.4866 122.973 69.2949 124.339C68.9008 126.104 67.8897 127.603 66.5617 128.083C65.6078 128.338 64.6087 128.375 63.6386 128.191C62.6684 128.007 61.7522 127.607 60.958 127.02C58.756 125.101 57.2908 122.342 55.1659 119.455C54.4118 119.729 53.5207 120.02 52.6553 120.38C42.0478 124.784 41.6451 126.044 47.7286 135.88C52.4926 143.592 60.2554 147.224 67.984 145.305C71.6221 144.38 74.9028 142.393 77.4091 139.599" fill="#7EC4B6"/>
<path d="M185.626 127.243C185.518 127.18 185.429 127.088 185.369 126.978C185.326 126.908 185.292 126.833 185.267 126.755C185.207 126.601 185.087 126.369 184.932 125.967C184.864 125.77 184.787 125.53 184.718 125.264C184.718 125.195 184.718 125.161 184.718 125.118V124.981C184.706 124.893 184.706 124.804 184.718 124.716C184.672 124.323 184.699 123.925 184.795 123.542C184.902 123.095 185.087 122.671 185.344 122.291C185.924 121.44 186.796 120.83 187.794 120.577C188.354 120.435 188.935 120.397 189.508 120.466C189.971 120.524 190.409 120.708 190.776 120.997C191.167 121.362 191.461 121.819 191.633 122.325C191.742 122.625 191.822 122.935 191.873 123.25C191.909 123.535 191.909 123.823 191.873 124.107C191.789 124.677 191.58 125.221 191.26 125.7C190.94 126.179 190.517 126.58 190.022 126.875C189.555 127.172 189.043 127.392 188.505 127.526C188.035 127.64 187.549 127.681 187.066 127.646C186.595 127.648 186.131 127.527 185.721 127.295M208.427 116.927C207.862 115.509 207.141 114.158 206.276 112.9C205.4 111.642 204.379 110.492 203.234 109.473C200.95 107.443 198.247 105.939 195.317 105.069C192.514 104.25 189.6 103.874 186.68 103.955C185.969 103.955 185.275 104.006 184.53 104.092C183.796 104.153 183.067 104.256 182.345 104.4C181.615 104.526 180.894 104.698 180.186 104.914L179.115 105.231C178.763 105.334 178.421 105.497 178.069 105.626C175.239 106.719 172.692 108.435 170.615 110.647C168.551 112.867 167.063 115.558 166.279 118.487C166.185 118.846 166.074 119.206 165.997 119.566L165.808 120.663C165.66 121.347 165.554 122.039 165.491 122.736V123.285C165.491 123.465 165.491 123.645 165.491 123.825L165.534 124.913V125.453L165.585 125.967C165.585 126.318 165.654 126.661 165.714 127.003C166.064 129.798 166.887 132.513 168.147 135.032C169.395 137.582 171.144 139.855 173.288 141.715C175.415 143.558 177.876 144.974 180.537 145.888C183.153 146.773 185.89 147.249 188.651 147.302C188.994 147.302 189.328 147.302 189.671 147.302C190.013 147.302 190.348 147.302 190.699 147.302C191.393 147.233 192.096 147.207 192.79 147.105L193.835 146.933C194.184 146.882 194.53 146.813 194.872 146.728L195.908 146.445L196.422 146.308C196.594 146.256 196.757 146.179 196.928 146.119C199.693 145.154 202.196 143.558 204.237 141.458C206.275 139.336 207.809 136.782 208.727 133.987C209.625 131.251 210.054 128.383 209.995 125.504C209.976 122.55 209.413 119.625 208.332 116.876" fill="#2C0143"/>
<path d="M187.22 130.791C191.102 130.508 194.392 126.781 193.818 122.993C193.295 119.566 191.144 117.707 187.554 117.93C186.602 117.987 185.671 118.239 184.818 118.668C183.966 119.097 183.21 119.696 182.597 120.427C181.983 121.159 181.525 122.007 181.251 122.921C180.976 123.835 180.891 124.796 181 125.744C181.505 129.171 183.519 131.099 187.22 130.791ZM206.79 125.65C207.261 136.788 200.63 144.697 190.365 145.211C177.804 145.836 168.79 137.757 168.199 125.35C167.727 115.453 174.908 108.033 185.412 107.571C197.811 107.022 206.302 114.194 206.79 125.65Z" fill="#66C4FC"/>
<path d="M177.941 133.704L177.744 133.49L167.899 122.873L175.242 119.103L175.55 118.975C176.012 118.737 176.361 118.326 176.522 117.832C176.682 117.337 176.641 116.8 176.407 116.336L176.304 116.139L170.521 104.597C170.491 104.535 170.457 104.474 170.418 104.417C170.237 104.123 170 103.867 169.72 103.665C169.441 103.463 169.124 103.317 168.788 103.238C168.452 103.158 168.104 103.146 167.763 103.201C167.422 103.256 167.095 103.379 166.802 103.561L166.579 103.698L153.881 111.495C153.778 108.125 153.638 104.76 153.461 101.401C153.161 95.832 152.75 90.3311 152.339 84.9417C151.792 84.6058 151.201 84.3491 150.582 84.1791C150.248 84.0874 149.907 84.0243 149.563 83.9906C149.391 83.9906 149.228 83.9906 149.066 83.9906H148.637H147.635L145.587 84.0677C144.893 84.0677 144.19 84.1363 143.445 84.2048C142.631 84.2675 141.821 84.3791 141.02 84.539L140.677 84.6075L140.317 84.7018C140.077 84.7617 139.812 84.8474 139.546 84.9417C138.921 85.1637 138.328 85.4662 137.781 85.8414C137.143 86.2884 136.586 86.842 136.136 87.4779C135.76 88.0256 135.455 88.6187 135.228 89.243C134.933 90.1122 134.721 91.0073 134.594 91.9163C134.482 92.6703 134.405 93.3643 134.328 94.0326L132.615 109.935L130.901 125.838L130.044 133.781L129.624 137.757V138.014V138.373C129.624 138.613 129.624 138.845 129.624 139.059C129.624 139.504 129.624 139.916 129.624 140.284C129.624 141.03 129.701 141.655 129.71 142.203C129.725 143.098 130.057 143.957 130.647 144.629C131.237 145.301 132.047 145.741 132.932 145.871L149.88 148.398C150.067 148.426 150.256 148.44 150.445 148.441C150.942 148.44 151.434 148.341 151.892 148.149C152.351 147.958 152.767 147.678 153.118 147.325C153.468 146.973 153.745 146.555 153.933 146.095C154.122 145.635 154.217 145.142 154.215 144.645V137.722L159.45 147.019L159.725 147.439C159.802 147.55 159.879 147.661 159.973 147.773C160.582 148.495 161.453 148.946 162.395 149.026C163.336 149.107 164.271 148.81 164.994 148.201L177.487 137.688C177.604 137.607 177.715 137.518 177.821 137.422C178.331 136.948 178.633 136.29 178.661 135.593C178.688 134.896 178.438 134.217 177.966 133.704" fill="#2C0143"/>
<path d="M149.751 87.6749L150.282 118.144C156.391 113.988 162.081 110.107 168.156 105.96C170.358 109.824 172.363 113.328 174.539 117.158L161.747 121.802L175.824 135.512L162.732 145.177C158.859 138.322 155.098 131.613 151.336 124.938L150.385 125.187C150.385 131.519 150.385 137.859 150.437 144.671L133.488 142.101C133.402 140.849 133.388 139.593 133.446 138.339C134.954 123.773 136.427 109.156 138.072 94.581C138.818 87.9834 138.981 88.0005 149.751 87.6749Z" fill="#FBDE21"/>
<path d="M116.318 149.855C116.315 149.829 116.315 149.803 116.318 149.778C116.32 149.806 116.32 149.835 116.318 149.864C116.266 149.924 116.318 149.924 116.318 149.864M138.073 146.188C137.644 143.206 137.264 140.21 136.933 137.2C136.599 134.192 136.282 131.202 136.016 128.152L135.236 119.069L134.525 109.944C134.509 109.762 134.481 109.582 134.44 109.404C134.25 108.591 133.787 107.869 133.129 107.356C133.711 106.806 134.22 106.184 134.645 105.506C135.457 104.221 135.907 102.741 135.948 101.221C135.948 100.853 135.948 100.485 135.948 100.116C135.916 99.7323 135.856 99.3515 135.768 98.9765C135.505 97.8508 135.01 96.7926 134.313 95.8702C133.617 94.9478 132.734 94.1817 131.723 93.6214C130.607 92.9881 129.374 92.586 128.099 92.4389C126.962 92.2847 125.809 92.2847 124.672 92.4389C122.384 92.7199 120.21 93.5942 118.365 94.9751C117.402 95.7042 116.587 96.6118 115.966 97.6484C115.346 98.7243 114.972 99.9239 114.87 101.161C114.87 101.47 114.87 101.77 114.87 102.078C114.87 102.387 114.87 102.669 114.93 102.935C114.993 103.572 115.134 104.2 115.349 104.803C115.815 106.12 116.651 107.274 117.757 108.127C118.705 108.853 119.78 109.397 120.927 109.73C120.582 109.875 120.245 110.038 119.916 110.218C119.677 110.347 119.445 110.49 119.222 110.647C118.981 110.806 118.755 110.987 118.545 111.186C118.094 111.582 117.699 112.037 117.372 112.54C116.792 113.453 116.424 114.483 116.292 115.556C116.183 116.409 116.16 117.27 116.223 118.127C116.275 118.932 116.343 119.506 116.403 120.166C116.463 120.826 116.515 121.451 116.566 122.094C116.669 123.388 116.772 124.664 116.84 125.975C116.995 128.563 117.1 131.159 117.157 133.764C117.217 136.334 117.234 138.965 117.234 141.569V143.523V144.011V144.448L117.183 145.374C117.116 146.566 116.959 147.752 116.712 148.921C116.712 149.084 116.635 149.247 116.592 149.384C116.275 149.493 115.965 149.625 115.666 149.778C115.259 149.968 114.867 150.188 114.493 150.438L113.91 150.832L113.37 151.294C113.199 151.466 113.002 151.611 112.848 151.791L112.376 152.34C112.221 152.518 112.077 152.707 111.948 152.905L111.562 153.496C111.127 154.243 110.763 155.029 110.474 155.844C110.183 156.598 109.986 157.284 109.78 157.935C109.525 158.954 109.096 159.923 108.512 160.797C108.256 161.166 108.076 161.583 107.981 162.022C107.892 162.448 107.888 162.887 107.969 163.315C108.05 163.742 108.215 164.149 108.453 164.513C108.692 164.877 109 165.19 109.36 165.434C109.72 165.679 110.125 165.85 110.551 165.938L110.791 165.989L113.062 166.46C113.841 166.615 114.63 166.777 115.572 166.923C117.276 167.148 118.998 167.208 120.713 167.103C122.433 167.002 124.137 166.715 125.794 166.246C127.468 165.775 129.07 165.08 130.558 164.181C132.07 163.265 133.422 162.107 134.56 160.754C135.669 159.394 136.538 157.856 137.13 156.204C137.722 154.587 138.096 152.899 138.244 151.183C138.378 149.514 138.317 147.835 138.064 146.179" fill="#2C0143"/>
<path d="M129.907 96.346C128.269 95.3785 126.371 94.9415 124.475 95.0951C119.933 95.2664 116.806 98.1283 117.037 101.95C117.243 105.471 119.788 107.296 124.269 107.176H124.577C129.024 106.979 132.332 104.015 132.195 100.322C132.176 99.5206 131.957 98.7368 131.558 98.0422C131.158 97.3476 130.59 96.7644 129.907 96.346Z" fill="#AE55AD"/>
<path d="M135.81 146.599C133.797 135.82 132.212 122.068 130.729 110.424C129.71 110.698 128.759 110.981 127.842 111.281C127.157 111.486 126.488 111.666 125.837 111.846C125.023 112.06 124.226 112.249 123.412 112.386C119.694 113.046 118.794 115.016 119.025 118.718C119.556 127.158 119.625 135.632 119.582 144.071C119.582 145.785 119.308 151.26 118.151 151.654C112.376 153.634 113.61 158.603 111.854 162.425C113.567 162.982 115.152 163.479 116.223 163.701C118.637 164.218 121.121 164.311 123.566 163.976C126.385 163.62 129.06 162.526 131.321 160.805C134.979 157.918 137.027 153.188 135.81 146.642" fill="#AE55AD"/>
<path d="M122.975 130.551C123.219 128.733 123.254 126.893 123.078 125.067C122.746 121.48 121.599 118.016 119.725 114.939C117.851 111.863 115.3 109.255 112.265 107.313C109.38 105.461 106.131 104.251 102.737 103.766C96.4534 102.921 90.0895 104.58 85.0178 108.384C80.9798 111.414 78.0696 115.705 76.7494 120.577C75.7897 124.236 75.824 127.192 75.0357 130.859C74.226 134.236 72.9484 137.484 71.24 140.507C71.5056 140.507 72.7908 140.867 73.0564 140.918C73.5877 141.03 74.9843 141.398 75.507 141.535C76.8865 141.886 77.272 141.998 78.6601 142.332C80.0043 142.656 81.3702 142.882 82.7472 143.009C84.0764 143.149 85.4191 143.091 86.7314 142.838C88.1928 142.558 89.5516 141.889 90.6642 140.901C92.9011 144.055 96.1624 146.335 99.8923 147.353C100.432 147.499 100.972 147.619 101.529 147.713C103.951 148.111 106.429 148.012 108.813 147.423C111.196 146.834 113.434 145.767 115.392 144.286C118.23 142.1 120.383 139.148 121.596 135.777C122.249 134.09 122.706 132.334 122.958 130.542" fill="#F75270"/>
<path d="M81.9074 118.221C81.7875 118.489 81.6761 118.755 81.5733 119.018C81.6761 118.749 81.7875 118.484 81.9074 118.221Z" fill="#2C0143"/>
<path d="M82.3102 117.338C82.313 117.358 82.313 117.378 82.3102 117.398Z" fill="#2C0143"/>
<path d="M102.403 130.576C102.382 130.44 102.382 130.301 102.403 130.165C102.41 129.964 102.456 129.766 102.54 129.582L102.309 129.497C101.978 129.368 101.619 129.328 101.269 129.382C100.918 129.437 100.588 129.582 100.312 129.805C100.043 130.033 99.8387 130.329 99.7209 130.662C99.6058 130.992 99.5592 131.342 99.5838 131.69C99.6527 132.399 99.9898 133.055 100.526 133.524C100.777 133.76 101.067 133.952 101.383 134.089C101.7 134.226 102.035 134.318 102.377 134.363C103.052 134.438 103.736 134.37 104.383 134.165C105.031 133.96 105.629 133.622 106.139 133.172C107.144 132.303 107.896 131.178 108.315 129.917C108.762 128.662 108.891 127.317 108.692 126.001C108.449 124.685 107.89 123.447 107.064 122.394C106.247 121.351 105.234 120.478 104.082 119.823C102.93 119.175 101.665 118.75 100.355 118.572C98.7124 118.349 97.0408 118.496 95.4621 119.002C93.8835 119.507 92.4375 120.359 91.2297 121.494C90.7572 121.953 90.3218 122.449 89.9274 122.976C89.1501 124.026 88.5242 125.18 88.068 126.404C87.2064 128.75 86.8988 131.264 87.1694 133.749C87.4399 136.234 88.2811 138.623 89.6275 140.73C88.8214 141.159 87.9546 141.462 87.057 141.629C86.4271 141.749 85.7874 141.809 85.1463 141.809C84.4979 141.797 83.8511 141.743 83.2098 141.647C81.9205 141.45 80.6464 141.164 79.3969 140.79L77.5034 140.25L76.5523 139.984L76.0725 139.856L75.8582 139.804C76.5694 138.091 77.3149 136.377 77.8975 134.663C78.4805 132.814 78.9076 130.92 79.1742 129C79.4896 126.611 79.9648 124.247 80.5965 121.922L80.6651 121.7L80.7507 121.408C80.7507 121.408 80.7507 121.408 80.7507 121.451C80.8193 121.245 80.8793 121.04 80.9478 120.843L80.7679 121.408C80.8279 121.211 80.8878 121.006 80.9564 120.808L81.0935 120.389C81.1449 120.217 81.2048 120.054 81.2648 119.892L81.0935 120.371C81.222 120.012 81.3505 119.643 81.4962 119.283C81.4362 119.429 81.3848 119.575 81.3248 119.712C81.5476 119.121 81.7789 118.555 82.0188 117.998C81.9939 118.062 81.9652 118.125 81.9332 118.187C81.9846 118.075 82.036 117.955 82.096 117.844C82.1067 117.811 82.121 117.779 82.1388 117.75C82.9121 115.996 83.9117 114.351 85.112 112.857C86.3571 111.382 87.7986 110.085 89.3961 109.001C92.6805 106.932 96.4902 105.849 100.372 105.883C102.304 105.856 104.23 106.098 106.096 106.602C107.961 107.112 109.75 107.867 111.417 108.847C114.785 110.782 117.525 113.647 119.308 117.098C121.074 120.537 121.918 124.375 121.759 128.237C121.678 130.167 121.341 132.077 120.756 133.918C120.186 135.761 119.371 137.519 118.331 139.145C117.413 140.406 116.302 141.516 115.041 142.435C113.833 143.421 112.491 144.231 111.057 144.842C109.622 145.451 108.09 145.794 106.533 145.854C105.755 145.894 104.976 145.874 104.202 145.794C103.817 145.794 103.431 145.691 103.045 145.639C102.66 145.588 102.283 145.494 101.906 145.391C98.8773 144.629 96.1739 142.914 94.1944 140.498L93.8431 140.044L93.5089 139.564C93.3975 139.402 93.2947 139.239 93.2004 139.067C93.1062 138.896 93.0034 138.733 92.9177 138.562C92.5634 137.874 92.2765 137.154 92.0609 136.411C91.6322 134.914 91.4527 133.357 91.5296 131.802C91.5822 130.248 91.9191 128.718 92.5235 127.286C93.139 125.864 94.0814 124.608 95.274 123.619C95.8772 123.138 96.5325 122.727 97.2275 122.394C97.9254 122.068 98.6627 121.834 99.421 121.7C100.934 121.417 102.497 121.603 103.902 122.231C104.594 122.563 105.22 123.016 105.753 123.567C106.295 124.091 106.709 124.733 106.961 125.444C107.42 126.908 107.368 128.485 106.815 129.917C106.557 130.629 106.161 131.284 105.65 131.844C105.155 132.394 104.487 132.757 103.757 132.873C103.406 132.928 103.046 132.891 102.714 132.764C102.382 132.638 102.089 132.427 101.863 132.153C101.77 132.021 101.707 131.872 101.676 131.714C101.645 131.556 101.647 131.393 101.683 131.236C101.714 131.086 101.785 130.947 101.889 130.833C102.054 130.692 102.251 130.592 102.463 130.542M123.566 123.602C123.105 120.729 122.142 117.959 120.722 115.419C118.584 111.613 115.456 108.456 111.67 106.282C107.884 104.109 103.58 102.999 99.2154 103.072C93.3951 103.2 87.8076 105.382 83.4412 109.233C81.2896 111.155 79.5118 113.459 78.1974 116.027C77.5497 117.314 77.0275 118.659 76.638 120.046C76.2554 121.424 75.9691 122.827 75.7811 124.244C75.5841 125.658 75.4384 127.063 75.2242 128.46C75.0285 129.851 74.7423 131.228 74.3674 132.581C73.5661 135.282 72.4805 137.89 71.1286 140.361L70.9658 140.67L71.3428 140.713C71.4311 140.703 71.5201 140.703 71.6084 140.713L71.9168 140.781L72.5338 140.935C72.7394 140.987 72.945 141.047 73.1678 141.09L73.7847 141.235L76.2695 141.878C77.9273 142.341 79.6092 142.713 81.3077 142.992C83.0236 143.292 84.7767 143.315 86.5 143.06C87.8634 142.846 89.1576 142.314 90.2787 141.509C91.9537 143.76 94.1422 145.579 96.662 146.813C97.3254 147.143 98.0094 147.429 98.7098 147.67C100.816 148.377 103.036 148.685 105.256 148.578C108.207 148.456 111.09 147.652 113.679 146.231C113.996 146.042 114.321 145.862 114.621 145.656L115.084 145.348C115.238 145.245 115.384 145.134 115.529 145.022C115.821 144.808 116.112 144.585 116.386 144.354C116.66 144.123 116.952 143.883 117.243 143.634C118.321 142.631 119.275 141.504 120.088 140.276C120.897 139.057 121.575 137.756 122.11 136.394C123.755 132.322 124.262 127.879 123.575 123.542" fill="#2C0143"/>
</svg>
