<svg width="250" height="250" viewBox="0 0 250 250" fill="none" xmlns="http://www.w3.org/2000/svg">
<rect width="250" height="250" fill="url(#paint0_linear_270_102)"/>
<path d="M171.848 95.0833L171.793 169.883L144.19 95.0833H171.848Z" fill="white"/>
<path d="M92.7635 111.228H102.514V121.869L112.167 111.228H122.965L111.207 124.178L123.526 140.604H112.074L104.718 130.884L102.514 133.33V140.604H92.7635V111.228ZM150.865 140.604H140.28L135.306 133.234H132.603V140.604H122.701V111.228H136.841C145.964 111.228 150.236 116.074 150.236 122.052V122.577C150.236 126.576 148.245 129.768 144.717 131.602H144.721L150.865 140.604ZM140.244 122.317C140.244 120.417 139.077 118.877 136.508 118.877H132.603V125.756H136.344C139.143 125.756 140.244 124.216 140.244 122.317ZM160.964 140.428V111.228H150.159L160.964 140.428ZM180.523 126.303L171.814 111.228H162.822V140.604H171.814V127.66L180.523 140.54L189.008 127.14V140.604H198.055V111.228H189.008L180.523 126.303ZM200.086 111.228V140.604H210V111.228H200.086Z" fill="black"/>
<path d="M69.338 106.803C59.0546 106.803 52.6847 116.648 54.3705 124.429C55.3323 128.868 60.3321 133.367 66.7448 131.737C67.0044 131.671 66.9424 131.191 66.6748 131.18C64.0017 131.073 60.016 128.717 59.4797 124.429C58.7094 118.268 63.7593 113.631 69.2076 113.718C74.8689 113.808 79.2299 118.531 78.9624 124.429C78.5972 132.479 71.8023 139.197 63.5702 139.189C54.8026 139.18 47.412 132.606 46.1088 124.429C44.8608 116.599 48.5883 107.299 56.628 102.571C56.9891 102.358 56.7941 101.895 56.3948 102.022C46.6272 105.123 39.9528 114.212 40.0003 124.542C40.0602 137.583 50.6606 147.976 63.5312 147.976C77.9664 147.976 87.0704 136.1 87.0644 124.429C87.06 115.776 80.1298 106.804 69.338 106.803Z" fill="white"/>
<defs>
<linearGradient id="paint0_linear_270_102" x1="125" y1="250" x2="125" y2="0" gradientUnits="userSpaceOnUse">
<stop offset="0.4" stop-color="#FFBC00"/>
<stop offset="0.8" stop-color="#EB8F00"/>
</linearGradient>
</defs>
</svg>
