<svg width="250" height="250" viewBox="0 0 250 250" fill="none" xmlns="http://www.w3.org/2000/svg">
<rect width="250" height="250" fill="#41DF17"/>
<path d="M63.122 149.992C57.416 149.28 52.2634 146.804 48.0545 142.752C36.7506 131.87 37.4366 114.104 49.5343 104.424C53.2391 101.46 58.2668 99.4707 63.0117 99.0915C65.1434 98.9211 64.993 99.0319 61.6337 100.106C54.7303 102.313 49.2641 108.193 47.3552 115.465C46.5755 118.435 46.5695 122.934 47.3415 125.708C48.9049 131.327 52.4785 135.7 57.4881 138.126C60.1531 139.417 62.0555 139.91 65.0427 140.085C68.2426 140.273 70.61 139.77 73.6995 138.245C78.9769 135.639 82.4144 130.466 82.8756 124.436C83.2394 119.679 80.9791 115.668 76.8227 113.695C75.2755 112.96 74.959 112.904 72.3358 112.904C69.6718 112.904 69.419 112.951 67.8307 113.733C64.7586 115.245 62.6623 117.962 61.9722 121.325C60.9634 126.242 64.3412 131.078 69.1846 131.652C70.1064 131.761 70.3719 131.878 70.1658 132.084C69.9918 132.258 68.7318 132.367 66.8868 132.367C63.0831 132.367 61.6489 131.855 59.3035 129.661C56.5482 127.084 55.3871 124.138 55.637 120.36C55.9229 116.036 57.9951 111.769 61.2324 108.84C68.6992 102.083 81.0299 103.496 87.7531 111.88C91.8901 117.039 93.0961 123.822 91.1447 130.954C89.2271 137.962 83.8215 144.457 77.3638 147.512C72.9746 149.588 67.5103 150.54 63.122 149.992ZM99.4224 144.339L95.5171 144.261V125.574V106.886H109.602H123.687V119.151V131.416L122.214 131.67C121.404 131.81 117.271 132.478 113.03 133.154L105.318 134.383L105.155 136.679C105.066 137.942 104.992 140.226 104.992 141.753V144.531L104.16 144.474C103.702 144.443 101.57 144.382 99.4224 144.339ZM109.474 124.169C111.164 123.949 112.921 123.703 113.379 123.622L114.211 123.475V119.918V116.361H109.602H104.992V118.627C104.992 119.874 105.067 121.773 105.158 122.848C105.311 124.664 105.361 124.795 105.862 124.686C106.158 124.621 107.784 124.389 109.474 124.169ZM125.991 125.324V106.63H130.729H135.467V120.587V134.544H143.662H151.856V139.281V144.019H138.924H125.991V125.324ZM153.905 125.324V106.63H158.643H163.38V120.587V134.544H167.99H172.599V120.587V106.63H177.337H182.075V125.324V144.019H167.99H153.905V125.324ZM184.123 139.281V134.544H192.318H200.513V132.756C200.513 131.111 200.467 130.958 199.937 130.838C199.025 130.633 184.636 128.141 184.363 128.141C184.209 128.141 184.143 124.146 184.185 117.45L184.251 106.758L197.12 106.692L209.988 106.625V111.362V116.098L201.857 116.166L193.727 116.233L193.653 118.169L193.579 120.104L201.463 121.469C205.8 122.22 209.492 122.888 209.668 122.954C209.917 123.048 209.988 125.404 209.988 133.547V144.019H197.056H184.123V139.281Z" fill="white"/>
<path d="M62.3278 149.792C54.0059 148.499 47.0213 143.575 43.1475 136.27C39.2643 128.948 39.0346 120.575 42.5173 113.307C46.1483 105.729 52.8767 100.754 61.4279 99.324C64.5468 98.8025 65.547 98.9343 63.1357 99.5491C59.2758 100.533 55.7861 102.6 52.8514 105.641C49.9623 108.634 48.3125 111.599 47.2302 115.743C46.5931 118.182 46.5841 123.287 47.213 125.566C49.085 132.349 53.9262 137.337 60.6892 139.449C62.3149 139.957 63.1407 140.048 66.067 140.04C69.1453 140.031 69.7301 139.956 71.4025 139.354C74.1016 138.382 75.9136 137.228 77.9665 135.175C80.0284 133.113 81.1836 131.294 82.1338 128.611C82.7017 127.008 82.8023 126.283 82.82 123.66C82.8399 120.711 82.8075 120.516 82.0191 118.852C79.4141 113.353 72.9537 111.084 67.6213 113.797C64.7125 115.277 62.8811 117.561 62.077 120.711C61.2067 124.121 62.1073 127.323 64.5558 129.524C65.9078 130.74 68.1041 131.727 69.457 131.727C70.1048 131.727 70.2028 131.791 69.9469 132.047C69.7288 132.265 68.7094 132.367 66.7462 132.367C63.9325 132.367 63.8202 132.344 61.9168 131.404C58.8435 129.886 56.802 127.396 55.9504 124.126C54.6264 119.043 57.1994 112.136 61.8048 108.409C67.2362 104.014 74.3481 103.374 81.148 106.666C83.4366 107.774 84.1206 108.265 86.039 110.173C88.5473 112.669 90.0004 114.931 91.0816 118.026C91.7602 119.968 91.7966 120.301 91.7821 124.428C91.7681 128.412 91.7074 128.977 91.0676 131.086C87.9863 141.243 80.0022 148.235 69.7167 149.785C66.7757 150.229 65.149 150.23 62.3278 149.792ZM95.6878 144.104C95.5939 144.01 95.5171 135.598 95.5171 125.41V106.886H109.604H123.692L123.625 119.114L123.559 131.342L121.766 131.668C120.78 131.847 116.632 132.538 112.547 133.204L105.12 134.415L105.051 139.345L104.981 144.275H100.42C97.9112 144.275 95.7817 144.198 95.6878 144.104ZM109.012 124.305C110.956 124.025 112.921 123.732 113.379 123.653L114.211 123.509V119.935V116.361H109.602H104.992V120.587C104.992 123.07 105.092 124.812 105.234 124.812C105.367 124.812 107.067 124.584 109.012 124.305ZM126.054 125.388L126.12 106.758H130.729H135.339L135.405 120.647L135.471 134.536L143.6 134.604L151.728 134.672L151.798 139.345L151.868 144.019H138.928H125.988L126.054 125.388ZM153.967 125.388L154.033 106.758H158.643H163.252L163.318 120.651L163.385 134.544H167.99H172.595L172.661 120.651L172.727 106.758H177.337H181.947L182.012 125.388L182.078 144.019H167.99H153.902L153.967 125.388ZM184.182 139.345L184.251 134.672L192.393 134.604L200.535 134.536L200.46 132.7L200.385 130.863L192.318 129.438L184.251 128.013V117.386V106.758H197.056H209.86L209.93 111.432L210 116.105H201.799H193.599V118.154C193.599 119.281 193.688 120.203 193.798 120.203C194.014 120.203 208.127 122.673 209.284 122.914L209.988 123.06V133.54V144.019H197.05H184.112L184.182 139.345Z" fill="white"/>
<path d="M63.0391 149.89C57.0727 149.115 51.973 146.611 47.7365 142.374C43.3027 137.941 41.0317 133.171 40.1969 126.539C39.481 120.851 41.3956 113.946 45.0089 109.186C49.4345 103.355 55.6702 99.9062 63.2501 99.0972C64.8424 98.9273 64.5019 99.1482 62.0977 99.8452C55.9082 101.64 50.3669 106.86 48.0219 113.107C46.5764 116.957 46.2618 121.964 47.23 125.708C47.9244 128.394 49.8189 131.808 51.7808 133.909C55.6322 138.033 60.4715 140.171 65.962 140.176C70.7305 140.179 74.5899 138.579 77.9854 135.19C81.4435 131.739 83.1168 127.555 82.9184 122.857C82.8307 120.779 82.7129 120.302 81.8658 118.588C79.0336 112.857 71.9547 110.858 66.6447 114.29C62.4501 117.001 60.5787 122.49 62.4256 126.665C63.5593 129.228 66.3115 131.342 68.9178 131.65C70.7432 131.866 70.1142 132.255 67.6684 132.423C64.0496 132.671 60.9183 131.481 58.6453 128.994C55.1908 125.214 54.6821 119.989 57.2283 114.441C60.1407 108.094 66.5015 104.272 73.4936 104.668C76.6046 104.845 78.4319 105.33 81.327 106.75C85.0405 108.571 88.0137 111.578 89.9844 115.505C93.2559 122.023 92.3697 131.148 87.7835 138.167C83.5537 144.64 77.308 148.619 69.5747 149.767C66.6913 150.195 65.5585 150.217 63.0391 149.89ZM95.8372 144.105C95.5852 144.004 95.5171 140.027 95.5171 125.429V106.882L109.538 106.948L123.559 107.014V119.178V131.342L120.358 131.885C118.597 132.183 114.42 132.864 111.074 133.397L104.992 134.367V139.321V144.275L100.575 144.255C98.1452 144.244 96.0132 144.176 95.8372 144.105ZM109.21 124.293C111.327 124.007 113.318 123.717 113.635 123.648C114.199 123.525 114.211 123.447 114.211 119.942V116.361H109.602H104.992V120.587C104.992 122.911 105.075 124.812 105.177 124.812C105.278 124.812 107.093 124.579 109.21 124.293ZM125.991 125.452V106.886H130.729H135.467V120.711V134.536L143.598 134.604L151.728 134.672L151.798 139.345L151.868 144.019H138.93H125.991V125.452ZM154.076 143.848C153.982 143.754 153.905 135.399 153.905 125.282V106.886H158.643H163.38V120.715V134.544H167.99H172.599V120.715V106.886H177.337H182.075V125.452V144.019H168.161C160.508 144.019 154.17 143.942 154.076 143.848ZM184.237 143.689C184.167 143.508 184.142 141.405 184.181 139.016L184.251 134.672L192.393 134.604L200.535 134.536L200.46 132.686L200.385 130.835L192.318 129.424L184.251 128.013L184.185 117.45L184.118 106.886H197.053H209.988V111.496V116.105H201.793H193.599V118.154C193.599 119.281 193.658 120.203 193.73 120.203C193.892 120.203 208.31 122.719 209.284 122.917L209.988 123.06V133.54V144.019H197.176C186.967 144.019 184.338 143.952 184.237 143.689Z" fill="white"/>
<path d="M63.2501 149.879C59.3007 149.427 54.983 147.848 51.6688 145.645C45.3397 141.438 41.3445 134.894 40.3062 127.034C39.3436 119.749 41.8272 112.321 47.0559 106.848C50.9964 102.724 55.347 100.438 61.1454 99.4472C64.1515 98.9333 65.2288 98.9379 63.2119 99.456C57.0675 101.034 51.7568 105.354 48.8197 111.161C48.4498 111.892 47.84 113.506 47.4645 114.746C46.8734 116.699 46.7786 117.482 46.7571 120.587C46.7359 123.674 46.8157 124.439 47.3324 126.093C48.4227 129.583 49.8032 131.869 52.3586 134.416C54.9943 137.043 56.6597 138.112 59.854 139.228C62.7137 140.227 67.2312 140.493 69.9167 139.821C76.0196 138.294 80.9331 133.458 82.4638 127.473C84.3588 120.064 80.7669 113.881 73.8821 112.702C69.4513 111.943 64.9018 114.369 62.806 118.608C61.8942 120.452 61.8416 120.693 61.8416 123.006C61.8416 125.114 61.9342 125.647 62.5107 126.861C62.8787 127.636 63.6278 128.717 64.1753 129.263C65.3781 130.464 67.9149 131.726 69.1273 131.726C70.771 131.727 69.5549 132.266 67.5736 132.416C63.0257 132.759 58.9168 130.468 56.9704 126.505C55.7491 124.018 55.4542 122.229 55.8167 119.504C56.3805 115.268 57.9006 112.269 60.9765 109.324C71.1648 99.571 88.5036 105.779 91.5899 120.285C92.1237 122.794 91.9325 127.522 91.179 130.446C88.5263 140.74 79.8606 148.37 69.2141 149.787C66.1698 150.192 66.0125 150.195 63.2501 149.879ZM96.4757 144.088L95.5137 143.988L95.5794 125.501L95.6451 107.014L109.538 106.948L123.431 106.882V119.123V131.365L114.916 132.73C110.233 133.48 106.084 134.152 105.697 134.223L104.992 134.351V139.313V144.275L101.215 144.232C99.1375 144.208 97.0048 144.143 96.4757 144.088ZM109.986 124.219L114.083 123.65L114.154 120.005L114.226 116.361H109.609H104.992V120.587C104.992 124.445 105.031 124.811 105.44 124.801C105.687 124.794 107.732 124.533 109.986 124.219ZM126.248 125.455V106.886H130.857H135.467V120.843V134.8L143.598 134.8L151.728 134.8L151.677 139.345L151.625 143.891L138.936 143.957L126.248 144.024V125.455ZM154.161 125.455V106.886H158.771H163.38V120.843V134.8H167.99H172.599V120.843V106.886H177.339H182.078L182.012 125.388L181.947 143.891L168.054 143.957L154.161 144.023V125.455ZM184.379 139.409V134.8H192.446H200.513V132.805V130.811L192.446 129.414L184.379 128.016V117.451V106.886H197.184H209.988V111.496V116.105H201.793H193.599V118.134C193.599 120.14 193.606 120.164 194.303 120.309C195.314 120.52 209.626 123.02 209.823 123.02C209.914 123.02 209.988 127.744 209.988 133.519V144.019H197.184H184.379V139.409Z" fill="white"/>
<path d="M61.2888 149.545C51.4441 147.676 43.4878 140.225 40.935 130.484C39.8794 126.455 40.0209 120.745 41.2786 116.617C44.0544 107.508 52.6848 100.304 61.9696 99.3476L63.6342 99.1761L61.5562 99.9166C55.8104 101.964 51.477 105.797 48.899 111.112C47.0681 114.886 46.7467 116.315 46.739 120.715C46.733 124.124 46.7928 124.612 47.4694 126.677C49.6132 133.217 54.9134 138.145 61.5694 139.787C63.9213 140.367 67.9777 140.377 70.1644 139.808C76.3818 138.19 81.5228 132.815 82.7206 126.68C82.8913 125.806 82.9835 124.008 82.9257 122.685C82.8353 120.62 82.7044 120.043 82.0025 118.617C80.9656 116.511 78.9241 114.553 76.6328 113.468C75.0445 112.716 74.6913 112.648 72.3412 112.648C69.9973 112.648 69.6354 112.717 68.0697 113.458C63.8435 115.461 61.5008 119.293 61.7692 123.766C62.014 127.845 65.0272 131.243 68.774 131.665C70.3317 131.841 69.9685 132.164 67.9735 132.378C63.3017 132.878 58.7511 130.355 56.7837 126.173C56.0559 124.626 55.9518 124.122 55.8681 121.739C55.6951 116.811 57.1163 113.255 60.6801 109.698C64.698 105.689 69.4745 104.066 75.0078 104.831C83.3736 105.988 89.822 112.015 91.5275 120.272C93.0398 127.594 90.2119 136.427 84.5134 142.183C81.2156 145.513 76.9253 147.998 72.4692 149.159C69.7242 149.874 64.0524 150.07 61.2888 149.545ZM97.5018 144.085L95.7732 143.995V125.441V106.886H109.602H123.431L123.43 119.114L123.429 131.342L114.787 132.714C110.034 133.468 105.886 134.143 105.569 134.214C104.995 134.342 104.992 134.368 104.992 139.309L104.992 144.275L102.111 144.225C100.527 144.197 98.4525 144.134 97.5018 144.085ZM109.922 124.257L114.211 123.692V119.899V116.105H109.602H104.992V120.459C104.992 123.768 105.069 124.813 105.312 124.817C105.488 124.82 107.563 124.568 109.922 124.257ZM126.248 125.452V106.886H130.857H135.467V120.843V134.8H143.533H151.6V139.409V144.019H138.924H126.248V125.452ZM154.161 125.452V106.886H158.771H163.38V120.843V134.8H167.99H172.599V120.843V106.886H177.209H181.819V125.452V144.019H167.99H154.161V125.452ZM184.379 139.409V134.8H192.446H200.513V132.797V130.794L192.51 129.388L184.507 127.983L184.441 117.434L184.374 106.886H197.181H209.988V111.496V116.105H201.793H193.599V118.137C193.599 119.852 193.668 120.188 194.047 120.296C194.293 120.366 197.981 121.028 202.242 121.767L209.988 123.11V133.564V144.019H197.184H184.379V139.409Z" fill="white"/>
<path d="M62.0977 149.645C56.8381 148.833 51.6047 146.161 47.7774 142.334C37.8182 132.374 37.6888 116.291 47.4891 106.49C51.4017 102.578 56.6882 99.9969 62.0977 99.3586L63.3781 99.2075L61.7135 99.803C54.0573 102.542 48.5963 108.672 46.9675 116.355C46.4357 118.863 46.5035 123.05 47.1151 125.475C48.8723 132.446 54.0631 137.719 61.1287 139.712C64.0843 140.546 68.2651 140.49 71.0607 139.578C76.0775 137.942 80.2009 134.115 81.9625 129.459C82.7789 127.301 83.2825 124.162 83.0949 122.4C82.4642 116.476 77.5329 112.212 71.743 112.582C68.9419 112.762 67.147 113.526 65.1565 115.388C60.9735 119.301 60.423 125.134 63.8637 129.084C64.8403 130.205 67.5243 131.727 68.5257 131.727C69.7791 131.727 69.3149 132.198 67.8997 132.362C64.1223 132.801 60.2335 131.059 57.8219 127.85C53.8055 122.504 56.0909 112.73 62.448 108.063C65.5832 105.762 68.7178 104.761 72.7253 104.781C79.3298 104.814 85.1591 107.996 88.7308 113.517C91.0464 117.097 92.1347 121.408 91.8188 125.751C90.9975 137.042 83.2617 146.304 72.2581 149.171C69.9838 149.764 64.5176 150.019 62.0977 149.645ZM98.5261 144.084L95.7732 144.001V125.572V107.142H109.602H123.431V119.173V131.205L122.854 131.34C122.538 131.414 118.648 132.052 114.211 132.757C109.775 133.462 105.885 134.097 105.569 134.168C105.008 134.294 104.992 134.386 104.991 137.557C104.989 139.351 104.915 141.596 104.825 142.546L104.662 144.275L102.971 144.22C102.04 144.191 100.04 144.129 98.5261 144.084ZM110.05 124.276L114.211 123.715V119.91V116.105H109.617C107.09 116.105 104.972 116.192 104.909 116.297C104.847 116.403 104.856 118.422 104.93 120.785C105.049 124.574 105.113 125.066 105.477 124.959C105.703 124.892 107.761 124.585 110.05 124.276ZM126.248 125.452V106.886H130.857H135.467V120.843V134.8H143.533H151.6V139.409V144.019H138.924H126.248V125.452ZM154.161 125.452V106.886H158.771H163.38V120.849V134.811L168.054 134.741L172.727 134.672V120.779V106.886L177.273 106.886L181.819 106.886V125.452V144.019H167.99H154.161V125.452ZM184.379 139.415V134.807L192.51 134.739L200.641 134.672L200.718 132.904C200.76 131.932 200.702 131.047 200.59 130.936C200.477 130.826 197.043 130.15 192.958 129.435C188.874 128.719 185.273 128.076 184.956 128.005L184.379 127.875V117.381V106.886H197.19H210L209.93 111.432L209.86 115.977L201.719 116.045L193.578 116.112L193.652 118.205L193.727 120.297L201.793 121.722L209.86 123.148V133.519V143.891L197.12 143.957L184.379 144.024V139.415Z" fill="white"/>
<path d="M62.7055 149.661C52.3938 148.351 43.6236 140.606 41.0968 130.577C38.2655 119.34 42.9833 108.052 52.8644 102.421C55.0849 101.155 58.8811 99.8236 60.9453 99.5861L62.3537 99.424L60.305 100.283C53.6553 103.07 48.7764 108.783 47.0775 115.772C46.3462 118.78 46.3464 122.86 47.078 125.625C49.2701 133.912 56.3378 139.758 64.8795 140.351C71.667 140.822 78.3032 137.003 81.2749 130.916C82.4412 128.528 83.2249 125.578 83.2249 123.578C83.2249 119.279 80.7259 115.285 76.9034 113.475C75.2653 112.699 74.9848 112.648 72.3358 112.648C69.6585 112.648 69.4249 112.692 67.7914 113.496C64.5413 115.096 62.3601 117.996 61.6931 121.605C61.1887 124.333 62.0191 127.095 63.985 129.228C65.0366 130.369 67.4035 131.727 68.3406 131.727C68.6228 131.727 68.9332 131.855 69.0302 132.012C69.1573 132.218 68.4271 132.269 66.4204 132.194C63.9301 132.101 63.4554 132.004 61.9507 131.277C59.8232 130.248 57.8699 128.222 56.7714 125.903C55.9874 124.248 55.9521 124.038 55.9639 121.099C55.9745 118.446 56.0683 117.769 56.65 116.148C58.1701 111.91 61.1476 108.458 64.8422 106.649C67.6811 105.259 69.4903 104.837 72.6101 104.837C75.8428 104.837 78.4652 105.462 81.4323 106.937C84.4333 108.43 88.0157 111.968 89.5491 114.953C92.1229 119.963 92.5172 125.321 90.7589 131.389C88.1936 140.241 80.8012 147.201 71.8106 149.229C69.5823 149.732 64.9839 149.95 62.7055 149.661ZM99.0383 144.083L95.7732 144.003V125.573V107.142H109.602H123.431V119.161C123.431 130.391 123.401 131.188 122.982 131.301C122.736 131.368 118.674 132.03 113.955 132.773C109.237 133.516 105.302 134.189 105.211 134.269C105.047 134.413 104.763 139.552 104.745 142.674L104.736 144.275L103.52 144.219C102.851 144.189 100.834 144.128 99.0383 144.083ZM110.242 124.289C112.355 123.992 114.173 123.662 114.283 123.556C114.393 123.45 114.45 121.759 114.411 119.798L114.34 116.233L109.504 116.163L104.669 116.094L104.826 119.621C104.913 121.56 104.985 123.589 104.988 124.128C104.992 125.061 105.027 125.102 105.697 124.969C106.084 124.892 108.129 124.586 110.242 124.289ZM126.248 125.324V106.886H130.729H135.211V120.843V134.8H143.405H151.6V139.281V143.763H138.924H126.248V125.324ZM154.161 125.324V106.886L158.707 106.886L163.252 106.886V120.779V134.672L168.054 134.741L172.855 134.811V120.848V106.886H177.337H181.819V125.324V143.763H167.99H154.161V125.324ZM184.379 139.281V134.8H192.574H200.769V132.751C200.769 131.624 200.716 130.702 200.651 130.702C200.484 130.702 185.934 128.169 185.084 127.991L184.379 127.845V117.365V106.886H197.056H209.732V111.496V116.105H201.527H193.322L193.396 118.211L193.471 120.316L201.601 121.731L209.732 123.145V133.454V143.763H197.056H184.379V139.281Z" fill="white"/>
</svg>
