<svg width="250" height="250" viewBox="0 0 250 250" fill="none" xmlns="http://www.w3.org/2000/svg">
<rect width="250" height="250" fill="#FCB73D"/>
<path d="M176.177 103.445V106.259C176.177 106.837 176.136 107.168 175.089 107.594L171.02 109.07C170.687 109.192 170.336 109.251 169.987 109.247C169.638 109.251 169.287 109.192 168.954 109.07L164.885 107.594C163.838 107.168 163.797 106.837 163.797 106.259V103.445C163.797 102.247 164.534 102.637 165.383 102.871L168.609 103.8C169.06 103.929 169.524 103.994 169.987 103.992C170.45 103.994 170.914 103.929 171.365 103.8L174.591 102.871C175.44 102.637 176.177 102.247 176.177 103.445ZM124.428 110.257C124.973 110.223 125.823 110.155 126.878 110.121H127.184C130.314 110.121 133.036 112.163 133.887 115.192C135.792 122.033 138.31 131.018 138.31 131.018L138.378 131.29L138.48 131.324C138.48 131.324 138.787 131.427 139.501 131.427C140.113 131.427 140.454 131.324 140.454 131.324L140.556 131.29L140.624 131.018C140.658 130.95 143.074 121.863 144.877 115.26C145.762 112.095 148.62 109.985 151.92 110.121C153.009 110.189 153.859 110.223 154.404 110.257C154.438 110.257 154.472 110.291 154.506 110.325V110.461L146.204 139.833C146.204 139.867 146.17 139.901 146.136 139.901H146.034C144.911 140.071 142.563 140.412 139.399 140.412C136.337 140.412 133.717 140.037 132.73 139.901H132.56C132.526 139.867 132.492 139.867 132.492 139.833L124.224 110.495C124.224 110.461 124.224 110.393 124.258 110.359C124.292 110.291 124.326 110.257 124.428 110.257ZM182.712 126.866C179.14 127.342 172.743 127.308 170.872 127.308C170.77 127.308 170.702 127.24 170.702 127.138V122.986C170.702 122.884 170.77 122.816 170.872 122.816H173.764C173.934 122.816 174.104 122.748 174.24 122.612C174.376 122.475 174.444 122.305 174.444 122.135C174.41 120.944 174.376 119.957 174.308 119.242C174.24 118.425 174.002 117.779 173.696 117.336C173.356 116.86 172.879 116.553 172.301 116.451C171.79 116.315 171.11 116.281 170.293 116.281C169.409 116.281 168.728 116.349 168.218 116.451C167.605 116.553 167.129 116.86 166.823 117.37C166.517 117.813 166.312 118.425 166.244 119.242C166.142 119.957 166.108 121.012 166.108 122.339V127.376C166.108 128.636 166.142 129.623 166.278 130.371C166.414 131.188 166.755 131.835 167.367 132.243C167.912 132.652 168.762 132.924 169.817 132.992C170.804 133.094 172.199 133.128 173.968 133.128C175.057 133.128 176.452 133.094 178.153 132.992C179.412 132.924 180.433 132.822 181.521 132.754L181.998 132.72C182.066 132.72 182.1 132.72 182.134 132.754C182.168 132.788 182.168 132.822 182.168 132.856V133.128C182.168 136.804 179.31 139.901 175.635 140.139C175.295 140.139 174.989 140.173 174.648 140.173H174.546C173.458 140.207 172.437 140.242 171.416 140.242C167.98 140.242 165.768 140.003 163.556 139.391C161.549 138.846 160.052 137.995 159.099 136.804C158.147 135.613 157.534 134.047 157.296 132.175C157.058 130.235 156.956 127.853 156.956 125.096C156.956 122.373 157.058 119.991 157.296 118.017C157.534 116.111 158.112 114.579 159.031 113.354C159.916 112.163 161.345 111.278 163.182 110.699C164.917 110.155 166.755 109.815 170.327 109.815C173.968 109.815 175.737 110.121 177.438 110.631C179.208 111.176 180.501 112.027 181.317 113.184C182.134 114.341 182.644 115.907 182.78 117.813C182.95 119.719 183.018 123.224 183.018 126.56C183.018 126.73 182.882 126.9 182.712 126.866ZM209.932 116.451H202.14V139.595C202.14 139.697 202.038 139.765 201.97 139.765H194.281C194.179 139.765 194.111 139.663 194.111 139.595V116.417H186.319C186.217 116.417 186.149 116.315 186.149 116.247V110.427C186.149 110.325 186.217 110.223 186.319 110.223H186.421C188.088 110.053 192.511 109.644 198.432 109.644C203.978 109.644 208.197 110.053 209.762 110.223H209.83C209.932 110.223 210 110.325 210 110.427V116.281C210 116.383 209.932 116.451 209.932 116.451ZM99.284 139.391C99.284 137.893 99.8624 136.464 100.951 135.443C101.972 134.49 103.299 133.945 104.694 133.945H104.966C106.497 134.047 107.552 134.047 108.164 134.047C109.457 134.047 110.478 134.013 111.159 133.945C111.839 133.877 112.349 133.707 112.69 133.435C112.996 133.196 113.166 132.89 113.234 132.516C113.302 132.175 113.336 131.767 113.336 131.256C113.336 130.746 113.302 130.337 113.234 130.031C113.132 129.725 112.996 129.487 112.724 129.282C112.486 129.112 112.145 128.976 111.669 128.874C111.227 128.738 110.614 128.636 109.9 128.568L105.034 127.921C103.843 127.819 102.857 127.479 102.108 127.002C101.359 126.56 100.747 125.913 100.339 125.13C99.9304 124.347 99.6242 123.428 99.4881 122.373C99.318 121.318 99.2499 120.127 99.2499 118.868C99.2499 116.86 99.5562 115.26 100.135 114.069C100.713 112.878 101.53 111.959 102.55 111.346C103.571 110.699 104.796 110.291 106.191 110.087C107.62 109.883 109.151 109.78 110.784 109.78C112.69 109.78 113.983 109.849 115.65 110.019C117.249 110.155 118.78 110.359 120.175 110.631C120.277 110.665 120.345 110.733 120.345 110.836C120.345 112.299 119.767 113.66 118.712 114.681C117.657 115.703 116.262 116.213 114.799 116.145C113.881 116.111 112.894 116.077 111.941 116.077C110.954 116.077 110.648 116.111 110.104 116.145H110.002C109.389 116.213 108.913 116.315 108.607 116.519C108.232 116.724 107.994 116.996 107.892 117.336C107.79 117.642 107.756 118.051 107.756 118.527C107.756 119.004 107.79 119.378 107.824 119.685C107.858 119.991 107.96 120.229 108.164 120.433C108.369 120.638 108.641 120.774 109.015 120.842C109.355 120.91 109.798 120.978 110.41 121.08L115.446 121.795C116.568 121.931 117.589 122.203 118.508 122.543C119.393 122.85 120.175 123.599 120.788 124.654C121.094 125.198 121.366 125.981 121.57 126.9C121.774 127.853 121.876 129.044 121.876 130.508C121.876 132.788 121.604 134.592 121.026 135.885C120.447 137.178 119.699 138.199 118.746 138.846C117.793 139.527 116.671 139.935 115.344 140.139C114.017 140.344 112.554 140.446 110.988 140.446C109.049 140.446 106.701 140.378 104.558 140.207C102.686 140.037 100.985 139.867 99.5221 139.663C99.4201 139.629 99.352 139.561 99.284 139.391Z" fill="white"/>
<path d="M69.5651 107.037C61.0745 107.037 54.1912 113.936 54.1912 122.447C54.1912 128.012 58.6918 132.523 64.2434 132.523C65.4399 132.523 66.5875 132.313 67.6518 131.929C67.5998 131.93 67.5477 131.931 67.4955 131.931C63.1685 131.931 59.6608 128.415 59.6608 124.077C59.6608 118.676 64.0289 114.297 69.4173 114.297C73.934 114.297 77.7313 117.375 78.8426 121.551C78.8506 121.583 78.8589 121.614 78.8668 121.645C78.9236 121.868 78.9705 122.096 79.0119 122.324C79.1119 122.895 79.1738 123.478 79.1738 124.077C79.1738 132.67 72.2246 139.636 63.6521 139.636C54.1613 139.636 46.4114 132.165 45.9361 122.77C45.9226 122.466 45.913 122.162 45.913 121.855C45.913 111.907 53.1035 103.643 62.5587 102C50.0809 102.111 40 112.284 40 124.818C40 125.212 40.0099 125.603 40.0297 125.992C40.6404 138.54 50.9824 148.526 63.6521 148.526C76.7148 148.526 87.3043 137.912 87.3043 124.818C87.3043 114.998 79.3623 107.037 69.5651 107.037Z" fill="white"/>
</svg>
