<svg width="250" height="250" viewBox="0 0 250 250" fill="none" xmlns="http://www.w3.org/2000/svg">
<rect width="250" height="250" fill="url(#paint0_radial_270_195)"/>
<path d="M175.351 120.017H169.081V115.142H187.859V120.017L181.709 120.136L181.62 136.065H175.351V120.017ZM149.534 115.142H165.681C166.806 115.142 167.898 116.264 167.898 117.359V126.522C167.898 127.616 166.772 128.769 165.681 128.738H164.202L168.935 136.069H161.897L156.572 128.266V124.72H161.54V119.813H155.773V136.038H149.504V115.145H149.534V115.142ZM130.076 136.065C128.981 136.065 127.859 134.913 127.859 133.791V117.359C127.859 116.264 128.985 115.142 130.076 115.142H144.567C145.662 115.142 146.784 116.264 146.784 117.359V133.791C146.784 134.913 145.658 136.065 144.567 136.065C139.719 136.154 130.076 136.065 130.076 136.065ZM140.514 119.841H134.068V131.19H140.514V119.841ZM106.892 115.142H123.069C124.164 115.142 125.286 116.237 125.286 117.359V127.79C125.286 128.885 124.16 130.007 123.069 130.007H113.161V136.065H106.892V115.142ZM119.016 119.841H113.192V125.308H119.016V119.841ZM85.9544 133.849V128.823H92.224V131.455H97.9904V129.534C97.9904 129.534 86.8418 124.893 86.5154 124.658C86.189 124.393 85.9544 123.921 85.9544 123.36V117.359C85.9544 116.237 87.0492 115.142 88.1712 115.142H89.9766L93.5534 118.273H97.1302L100.561 115.142H102.128C103.254 115.142 104.345 116.237 104.345 117.359V121.969H98.0754V119.81H92.2206V121.524C92.2206 121.524 103.519 126.165 103.753 126.607C104.049 126.845 104.257 127.137 104.314 127.463V133.849C104.314 134.943 103.189 136.065 102.098 136.065H88.1678C87.073 136.065 85.951 134.943 85.951 133.849H85.9544ZM86.8112 111.242H92.3124L95.3588 113.785L98.3168 111.242H103.461L97.1914 117.301H93.465L86.8112 111.242Z" fill="white"/>
<path d="M75.1016 123.74C75.1016 131.424 68.8626 137.66 61.1718 137.66C52.4168 137.629 45.2904 130.506 45.2904 121.731C45.2904 112.956 51.7402 105.479 60.2266 104C49.0474 104.088 40 113.19 40 124.393C40 135.596 49.4928 145.582 61.2024 145.582C72.912 145.582 82.4048 136.096 82.4048 124.393C82.4048 115.614 75.2784 108.495 66.4962 108.495C58.8972 108.495 52.716 114.673 52.716 122.268C52.716 127.232 56.7382 131.282 61.7362 131.282C62.8004 131.282 63.8374 131.105 64.7826 130.751H64.6364C60.7638 130.751 57.5984 127.62 57.5984 123.717C57.5984 118.899 61.5016 114.968 66.3534 114.968C71.2018 114.999 75.1084 118.899 75.1084 123.747" fill="white"/>
<path d="M209.932 122.88C209.884 123.108 209.806 123.319 209.697 123.509C209.585 123.7 209.432 123.89 209.238 124.07C209.045 124.254 208.81 124.454 208.531 124.672L200.681 131.027H209.946V136.065H190.668V132.373L203.788 121.955V119.96H197.243V122.37H191.028V117.756C191.028 116.913 191.263 116.264 191.735 115.815C192.208 115.366 192.857 115.142 193.69 115.142H207.338C208.171 115.142 208.82 115.366 209.293 115.812C209.765 116.26 210 116.903 210 117.743V122.071C210 122.38 209.976 122.652 209.932 122.88Z" fill="white"/>
<defs>
<radialGradient id="paint0_radial_270_195" cx="0" cy="0" r="1" gradientUnits="userSpaceOnUse" gradientTransform="translate(125 -45) rotate(90) scale(295)">
<stop stop-color="#225279"/>
<stop offset="1" stop-color="#0D0533"/>
</radialGradient>
</defs>
</svg>
