<?xml version="1.0" encoding="utf-8"?>
<!-- Generator: Adobe Illustrator 28.0.0, SVG Export Plug-In . SVG Version: 6.00 Build 0)  -->
<svg version="1.1" id="Vrstva_1" xmlns="http://www.w3.org/2000/svg" xmlns:xlink="http://www.w3.org/1999/xlink" x="0px" y="0px"
	 viewBox="0 0 283.5 283.5" style="enable-background:new 0 0 283.5 283.5;" xml:space="preserve">
<style type="text/css">
	.st0{fill:#FF795A;}
	.st1{clip-path:url(#SVGID_00000120537311707681441760000011602435602016661928_);}
	.st2{fill:#FCB73D;}
	.st3{fill:#FFFFFF;}
</style>
<rect y="0" class="st0" width="283.5" height="283.5"/>
<g id="_x33_rRZjb.tif">
</g>
<g>
	<defs>
		<rect id="SVGID_1_" y="0" width="283.5" height="283.5"/>
	</defs>
	<clipPath id="SVGID_00000117653301596687464530000012972356658665913226_">
		<use xlink:href="#SVGID_1_"  style="overflow:visible;"/>
	</clipPath>
	<g style="clip-path:url(#SVGID_00000117653301596687464530000012972356658665913226_);">
		<g>
			<g>
				<path class="st2" d="M-53-29.1c-66.7,0-120.3,53.9-120.3,120.6c0,43.6,35.3,78.9,78.9,78.9c9.6,0,18.3-1.6,26.6-4.8
					c-0.3,0-0.8,0-1.3,0c-34,0-61.3-27.4-61.3-61.3c0-42.2,34.3-76.5,76.5-76.5c35.3,0,65.1,24.2,73.8,56.8c0,0.3,0,0.5,0.3,0.8
					c0.5,1.9,0.8,3.5,1.1,5.3c0.8,4.5,1.3,9,1.3,13.8l0,0c0,67.2-54.4,121.9-121.6,121.9c-74.4,0-134.9-58.4-138.6-132
					c0-2.4,0-4.8,0-7.2C-238.1,8.6-181.8-56.2-108-69c-97.7,0.8-176.6,80.5-176.6,178.7c0,2.9,0,6.1,0.3,9.3
					c4.8,98.3,85.8,176.6,185.1,176.6C3,295.7,86.1,212.5,86.1,110C85.8,33,23.7-29.1-53-29.1z"/>
			</g>
		</g>
	</g>
	<g style="clip-path:url(#SVGID_00000117653301596687464530000012972356658665913226_);">
		<g>
			<g>
				<path class="st2" d="M446.3,278.9c-59-31-131.6-8.2-162.6,50.8c-20.2,38.6-5.4,86.3,33.2,106.5c8.5,4.4,17,7.1,25.7,8.1
					c-0.2-0.1-0.7-0.4-1.2-0.6c-30.1-15.8-41.6-52.7-25.8-82.8c19.6-37.4,65.9-51.8,103.3-32.2c31.3,16.4,46.4,51.6,38.9,84.6
					c-0.1,0.2-0.2,0.5-0.1,0.8c-0.4,1.9-0.9,3.4-1.5,5.2c-1.4,4.4-3,8.6-5.2,12.8l0,0c-31.2,59.5-104.9,82.6-164.4,51.4
					c-65.8-34.6-92.3-114.4-61.4-181.3c1.1-2.1,2.2-4.2,3.3-6.3c36.3-69.7,116.3-100.9,187.6-77.9c-86.9-44.7-193.8-10.8-239.4,76.2
					c-1.4,2.6-2.8,5.4-4.1,8.4c-41.4,89.2-6.1,196.2,81.8,242.4c90.5,47.5,202.8,12.6,250.4-78.2
					C540.4,398.5,514.3,314.6,446.3,278.9z"/>
			</g>
		</g>
	</g>
</g>
<g>
	
		<image style="overflow:visible;opacity:0.23;" width="455" height="297" xlink:href="B048AB18F46F0BD1.png"  transform="matrix(1 0 0 1 -87 -4.5)">
	</image>
	<g>
		
			<image style="overflow:visible;opacity:0.75;" width="351" height="193" xlink:href="B048AB18F46F0BD3.png"  transform="matrix(1 0 0 1 -34 45.5)">
		</image>
		<g>
			<g>
				<g>
					<g>
						<g>
							<path class="st2" d="M70.9,118.4c-10.9,0-19.7,8.8-19.7,19.8c0,7.1,5.8,12.9,12.9,12.9c1.6,0,3-0.3,4.4-0.8c0,0-0.1,0-0.2,0
								c-5.6,0-10.1-4.5-10.1-10.1c0-6.9,5.6-12.5,12.5-12.5c5.8,0,10.7,4,12.1,9.3c0,0,0,0.1,0,0.1c0.1,0.3,0.1,0.6,0.2,0.9
								c0.1,0.7,0.2,1.5,0.2,2.3l0,0c0,11-8.9,20-19.9,20c-12.2,0-22.1-9.6-22.7-21.6c0-0.4,0-0.8,0-1.2c0-12.9,9.2-23.5,21.3-25.6
								C45.9,112,33,125.1,33,141.2c0,0.5,0,1,0,1.5c0.8,16.1,14.1,28.9,30.3,28.9c16.8,0,30.4-13.6,30.4-30.4
								C93.7,128.6,83.5,118.4,70.9,118.4z"/>
						</g>
					</g>
				</g>
				<g>
					<g>
						<path class="st3" d="M140.9,122.8c0,0,0,0.1,0,0.2l10.6,37.5c0,0,0,0,0.1,0.1h0.2c1.3,0.2,4.6,0.7,8.5,0.7c4,0,7-0.4,8.5-0.7
							h0.1c0,0,0.1,0,0.1-0.1l10.6-37.5c0,0,0-0.1,0-0.2c0,0-0.1-0.1-0.1-0.1c-0.7,0-1.8-0.1-3.2-0.2c-4.2-0.2-7.9,2.5-9,6.6
							c-2.3,8.4-5.4,20.1-5.4,20.1l-0.1,0.3l-0.1,0c0,0-0.4,0.1-1.2,0.1c-0.9,0-1.3-0.1-1.3-0.1l-0.1,0l-0.1-0.3
							c0,0-3.2-11.5-5.7-20.2c-1.1-3.9-4.6-6.5-8.6-6.5c-0.1,0-0.3,0-0.4,0c-1.3,0-2.4,0.1-3.1,0.2
							C141,122.7,140.9,122.7,140.9,122.8z"/>
						<path class="st3" d="M216,143.5c0-4.3-0.1-8.7-0.3-11.2c-0.2-2.4-0.8-4.4-1.9-5.9c-1-1.5-2.7-2.6-5-3.3c-2.2-0.7-4.4-1-9.1-1
							c-4.6,0-6.9,0.4-9.1,1.1c-2.3,0.7-4.2,1.9-5.3,3.4c-1.2,1.6-1.9,3.5-2.2,6c-0.3,2.5-0.4,5.6-0.4,9c0,3.5,0.1,6.6,0.4,9
							c0.3,2.4,1.1,4.4,2.3,5.9c1.2,1.5,3.1,2.6,5.7,3.3c2.8,0.8,5.7,1.1,10.1,1.1c1.3,0,2.6,0,4-0.1h0.1c0.4,0,0.8,0,1.3,0
							c4.7-0.3,8.4-4.3,8.4-9v-0.3c0,0,0-0.1,0-0.1c0,0-0.1,0-0.2,0l-0.6,0c-1.4,0.1-2.7,0.2-4.3,0.3c-2.2,0.1-4,0.2-5.4,0.2
							c-2.3,0-4,0-5.3-0.2c-1.3-0.1-2.4-0.4-3.1-1c-0.8-0.5-1.2-1.3-1.4-2.4c-0.2-1-0.2-2.2-0.2-3.8v-6.4c0-1.7,0-3,0.2-4
							c0.1-1,0.3-1.8,0.7-2.4c0.4-0.7,1-1,1.8-1.2c0.7-0.1,1.5-0.2,2.7-0.2c1,0,1.9,0,2.6,0.2c0.7,0.1,1.3,0.5,1.8,1.1
							c0.4,0.6,0.7,1.4,0.8,2.4c0.1,0.9,0.1,2.2,0.2,3.7c0,0.2-0.1,0.4-0.3,0.6s-0.4,0.3-0.6,0.3h-3.7c-0.1,0-0.2,0.1-0.2,0.2v5.3
							c0,0.1,0.1,0.2,0.2,0.2c2.4,0,10.6,0,15.1-0.6C215.8,143.9,216,143.7,216,143.5z"/>
						<path class="st3" d="M250.5,130.4v-7.5c0-0.1-0.1-0.3-0.2-0.3h-0.1c-2-0.2-7.4-0.7-14.5-0.7c-7.6,0-13.2,0.5-15.4,0.7h-0.1
							c-0.1,0-0.2,0.1-0.2,0.3v7.4c0,0.1,0.1,0.2,0.2,0.2h10v29.6c0,0.1,0.1,0.2,0.2,0.2h9.8c0.1,0,0.2-0.1,0.2-0.2v-29.6h10
							C250.4,130.6,250.5,130.5,250.5,130.4z"/>
						<path class="st3" d="M109.2,160.3c1.9,0.3,4,0.5,6.4,0.7c2.7,0.2,5.7,0.3,8.2,0.3c2,0,3.9-0.1,5.6-0.4
							c1.7-0.3,3.1-0.8,4.4-1.7c1.2-0.8,2.2-2.1,2.9-3.8c0.7-1.7,1.1-4,1.1-6.9c0-1.9-0.1-3.4-0.4-4.6c-0.3-1.2-0.6-2.2-1-2.9
							c-0.8-1.3-1.8-2.3-2.9-2.7c-1.2-0.4-2.5-0.8-3.9-1l-6.4-0.9c-0.8-0.1-1.3-0.2-1.8-0.3c-0.5-0.1-0.8-0.3-1.1-0.5
							s-0.4-0.6-0.4-1c0-0.4-0.1-0.9-0.1-1.5c0-0.6,0-1.1,0.2-1.5c0.1-0.4,0.4-0.8,0.9-1c0.4-0.3,1-0.4,1.8-0.5h0.1
							c0.7,0,1.1-0.1,2.3-0.1c1.2,0,2.5,0,3.7,0.1c1.9,0.1,3.7-0.6,5-1.9c1.3-1.3,2.1-3,2.1-4.9c0-0.1-0.1-0.2-0.2-0.3
							c-1.8-0.3-3.7-0.6-5.8-0.8c-2.1-0.2-3.8-0.3-6.2-0.3c-2.1,0-4,0.1-5.9,0.4c-1.8,0.3-3.4,0.8-4.7,1.6c-1.3,0.8-2.3,2-3.1,3.5
							c-0.7,1.5-1.1,3.6-1.1,6.1c0,1.6,0.1,3.1,0.3,4.5c0.2,1.3,0.6,2.5,1.1,3.5s1.3,1.8,2.3,2.4c1,0.6,2.2,1,3.7,1.2l6.2,0.8
							c0.9,0.1,1.7,0.2,2.3,0.4c0.6,0.1,1,0.3,1.3,0.5c0.3,0.3,0.5,0.6,0.7,1c0.1,0.4,0.1,0.9,0.1,1.6c0,0.7,0,1.2-0.1,1.6
							c-0.1,0.5-0.3,0.9-0.7,1.2c-0.4,0.3-1.1,0.6-2,0.7c-0.9,0.1-2.2,0.1-3.8,0.1c-0.8,0-2.1,0-4.1-0.1c-0.1,0-0.2,0-0.3,0
							c-1.8,0-3.5,0.7-4.8,1.9c-1.4,1.3-2.1,3.1-2.1,5C109,160.1,109.1,160.2,109.2,160.3z"/>
					</g>
				</g>
			</g>
		</g>
	</g>
</g>
</svg>
