<svg width="250" height="250" viewBox="0 0 250 250" fill="none" xmlns="http://www.w3.org/2000/svg">
<rect width="250" height="250" fill="url(#paint0_radial_248_15)"/>
<path d="M195.618 119.428H188.41V113.818H210V119.428L202.928 119.564L202.826 137.89H195.618V119.428ZM165.936 113.818H184.5C185.792 113.818 187.05 115.11 187.05 116.368V126.908C187.05 128.166 185.758 129.492 184.5 129.458H182.8L188.24 137.89H180.148L174.028 128.914V124.834H179.74V119.19H173.11V137.856H165.902V113.818H165.936ZM143.564 137.89C142.306 137.89 141.014 136.564 141.014 135.272V116.368C141.014 115.11 142.306 113.818 143.564 113.818H160.224C161.482 113.818 162.774 115.11 162.774 116.368V135.272C162.774 136.564 161.482 137.89 160.224 137.89C154.648 137.992 143.564 137.89 143.564 137.89ZM155.566 119.224H148.154V132.28H155.566V119.224ZM116.908 113.818H135.506C136.764 113.818 138.056 115.076 138.056 116.368V128.37C138.056 129.628 136.764 130.92 135.506 130.92H124.116V137.89H116.908V113.818ZM130.848 119.224H124.15V125.514H130.848V119.224ZM92.836 135.34V129.56H100.044V132.586H106.674V130.376C106.674 130.376 93.856 125.038 93.482 124.766C93.108 124.46 92.836 123.916 92.836 123.27V116.368C92.836 115.076 94.094 113.818 95.386 113.818H97.46L101.574 117.422H105.688L109.632 113.818H111.434C112.726 113.818 113.984 115.076 113.984 116.368V121.672H106.776V119.19H100.044V121.162C100.044 121.162 113.032 126.5 113.304 127.01C113.644 127.282 113.882 127.622 113.95 127.996V135.34C113.95 136.598 112.658 137.89 111.4 137.89H95.386C94.128 137.89 92.836 136.598 92.836 135.34ZM93.822 109.33H100.146L103.648 112.254L107.048 109.33H112.964L105.756 116.3H101.472L93.822 109.33Z" fill="white"/>
<path d="M80.358 123.712C80.358 132.552 73.184 139.726 64.344 139.726C54.28 139.692 46.086 131.498 46.086 121.4C46.086 111.2 53.498 102.7 63.256 101C50.404 101.102 40 111.574 40 124.46C40 137.924 50.914 148.838 64.378 148.838C77.842 148.838 88.756 137.924 88.756 124.46C88.756 114.362 80.562 106.168 70.464 106.168C61.726 106.168 54.62 113.274 54.62 122.012C54.62 127.724 59.244 132.382 64.99 132.382C66.214 132.382 67.404 132.178 68.492 131.77C68.424 131.77 68.39 131.77 68.322 131.77C63.868 131.77 60.23 128.166 60.23 123.678C60.23 118.136 64.718 113.614 70.294 113.614C75.87 113.648 80.358 118.136 80.358 123.712Z" fill="white"/>
<defs>
<radialGradient id="paint0_radial_248_15" cx="0" cy="0" r="1" gradientUnits="userSpaceOnUse" gradientTransform="translate(125 -45) rotate(90) scale(295)">
<stop stop-color="#225279"/>
<stop offset="1" stop-color="#0D0533"/>
</radialGradient>
</defs>
</svg>
