<svg width="250" height="250" viewBox="0 0 250 250" fill="none" xmlns="http://www.w3.org/2000/svg">
<rect width="250" height="250" fill="#231F20"/>
<path d="M126.972 116.062L116.092 137.788C114.562 140.882 110.108 140.882 108.578 137.788L97.6981 116.062C96.2701 113.24 98.3441 109.908 101.54 109.908C103.138 109.908 104.6 110.792 105.314 112.22L112.352 126.296L119.39 112.22C120.104 110.792 121.566 109.908 123.164 109.908C126.326 109.908 128.4 113.24 126.972 116.062Z" fill="url(#paint0_linear_270_67)"/>
<path d="M148.664 116.062L137.784 137.788C136.254 140.882 131.8 140.882 130.27 137.788L119.39 116.062C117.962 113.24 120.036 109.908 123.232 109.908C124.83 109.908 126.292 110.792 127.006 112.22L134.044 126.296L141.048 112.22C141.762 110.792 143.224 109.908 144.822 109.908C148.018 109.908 150.058 113.24 148.664 116.062Z" fill="#FF5032"/>
<path d="M166.684 114.158C166.684 114.77 166.548 115.416 166.242 116.062L155.362 137.788C153.832 140.882 149.378 140.882 147.848 137.788C147.236 136.564 147.236 135.102 147.848 133.844L151.622 126.33L152.982 123.61L158.626 112.22C159.34 110.792 160.802 109.908 162.4 109.908C164.882 109.908 166.684 111.948 166.684 114.158Z" fill="url(#paint1_linear_270_67)"/>
<path d="M177.02 133.844C177.632 135.068 177.632 136.53 177.02 137.788C175.49 140.882 171.036 140.882 169.506 137.788L158.626 116.062C157.198 113.24 159.272 109.908 162.468 109.908C163.25 109.908 164.032 110.146 164.678 110.52C165.324 110.928 165.868 111.506 166.242 112.22L173.28 126.296L177.02 133.844Z" fill="#FF5032"/>
<path d="M210 114.192V124.97C210 129.152 208.3 132.926 205.58 135.646C202.86 138.366 199.052 140.066 194.904 140.066C186.574 140.066 179.808 133.3 179.808 124.97V114.192C179.808 113.002 180.284 111.948 181.066 111.166C181.848 110.384 182.902 109.908 184.092 109.908C186.438 109.908 188.376 111.812 188.376 114.192V125.072C188.376 128.71 191.3 131.634 194.938 131.634C198.542 131.634 201.5 128.71 201.5 125.072V114.192C201.5 113.002 201.976 111.948 202.758 111.166C203.54 110.384 204.594 109.908 205.784 109.908C208.096 109.942 210 111.846 210 114.192Z" fill="#FF5032"/>
<path d="M80.3581 123.712C80.3921 132.586 73.2521 139.794 64.4121 139.828C54.3141 139.862 46.0861 131.668 46.0521 121.536C46.0521 111.302 53.4301 102.734 63.1541 101C50.3021 101.17 39.9661 111.71 40.0001 124.63C40.0341 138.128 51.0161 149.076 64.4801 149.008C77.9441 148.974 88.8241 137.958 88.7561 124.46C88.7221 114.328 80.4941 106.134 70.3961 106.168C61.6581 106.202 54.5861 113.342 54.6201 122.148C54.6541 127.894 59.3121 132.518 65.0241 132.518C66.2481 132.518 67.4381 132.28 68.5261 131.906C68.4581 131.906 68.4241 131.906 68.3561 131.906C63.9021 131.906 60.2641 128.302 60.2641 123.814C60.2301 118.238 64.7181 113.716 70.2941 113.682C75.8361 113.648 80.3581 118.136 80.3581 123.712Z" fill="#FF5032"/>
<defs>
<linearGradient id="paint0_linear_270_67" x1="103.515" y1="126.969" x2="127.064" y2="113.373" gradientUnits="userSpaceOnUse">
<stop stop-color="#FF5032"/>
<stop offset="0.2725" stop-color="#FF5234" stop-opacity="0.8053"/>
<stop offset="0.3707" stop-color="#FF573B" stop-opacity="0.7352"/>
<stop offset="0.4407" stop-color="#FF6146" stop-opacity="0.6852"/>
<stop offset="0.4974" stop-color="#FF7057" stop-opacity="0.6447"/>
<stop offset="0.5458" stop-color="#FF836D" stop-opacity="0.6101"/>
<stop offset="0.5887" stop-color="#FF9A89" stop-opacity="0.5795"/>
<stop offset="0.6276" stop-color="#FFB6A9" stop-opacity="0.5517"/>
<stop offset="0.6633" stop-color="#FFD6CF" stop-opacity="0.5262"/>
<stop offset="0.695" stop-color="#FFF9F8" stop-opacity="0.5036"/>
<stop offset="0.7" stop-color="white" stop-opacity="0.5"/>
</linearGradient>
<linearGradient id="paint1_linear_270_67" x1="145.475" y1="131.659" x2="169.023" y2="118.064" gradientUnits="userSpaceOnUse">
<stop stop-color="#FF5032"/>
<stop offset="0.2725" stop-color="#FF5234" stop-opacity="0.8053"/>
<stop offset="0.3707" stop-color="#FF573B" stop-opacity="0.7352"/>
<stop offset="0.4407" stop-color="#FF6146" stop-opacity="0.6852"/>
<stop offset="0.4974" stop-color="#FF7057" stop-opacity="0.6447"/>
<stop offset="0.5458" stop-color="#FF836D" stop-opacity="0.6101"/>
<stop offset="0.5887" stop-color="#FF9A89" stop-opacity="0.5795"/>
<stop offset="0.6276" stop-color="#FFB6A9" stop-opacity="0.5517"/>
<stop offset="0.6633" stop-color="#FFD6CF" stop-opacity="0.5262"/>
<stop offset="0.695" stop-color="#FFF9F8" stop-opacity="0.5036"/>
<stop offset="0.7" stop-color="white" stop-opacity="0.5"/>
</linearGradient>
</defs>
</svg>
