<svg width="250" height="250" viewBox="0 0 250 250" fill="none" xmlns="http://www.w3.org/2000/svg">
<rect width="250" height="250" fill="#CD0D0D"/>
<path d="M146.277 41.3175L146.717 41.4492C183.123 51.0669 210 84.2237 210 123.661C210 163.097 171.925 208.683 124.978 208.683C78.0315 208.683 114.658 208.199 109.695 207.321H110.749C109.783 207.233 108.949 207.145 108.114 207.014C106.358 206.662 104.645 206.267 102.932 205.784C99.7262 204.51 100.297 202.929 101.922 202.754C136.001 198.889 139.163 169.509 139.163 155.544V72.015L110.749 71.4441V150.01C110.837 171.968 113.735 186.812 91.5577 188.92C74.9135 190.501 66.0863 184.485 62.4851 181.235C48.5198 166.084 40 145.882 40 123.661C40 84.575 66.3498 51.6817 102.273 41.7127C103.591 52.7796 112.111 60.8163 124.144 60.8163C136.177 60.8163 145.136 53.2627 146.321 41.3175H146.277Z" fill="white"/>
</svg>
