<svg width="250" height="250" viewBox="0 0 250 250" fill="none" xmlns="http://www.w3.org/2000/svg">
<rect width="250" height="250" fill="#181621"/>
<path d="M58.1201 126.143L73.1133 108.71C73.3643 108.419 73.4222 108.007 73.2617 107.657C73.1011 107.308 72.7515 107.083 72.3667 107.083H61.7127C61.4216 107.083 61.1456 107.212 60.9585 107.435L50.5667 119.814V108.068C50.5667 107.524 50.1259 107.083 49.5818 107.083H40.9849C40.441 107.083 40 107.524 40 108.068V144.988C40 145.532 40.441 145.973 40.9849 145.973H49.5818C50.1259 145.973 50.5667 145.532 50.5667 144.988V132.925L61.8191 145.64C62.006 145.852 62.2744 145.973 62.5566 145.973H73.7905C74.1797 145.973 74.5322 145.744 74.6903 145.388C74.8485 145.033 74.7826 144.617 74.5219 144.328L58.1201 126.143Z" fill="white"/>
<path d="M91.1447 136.031C90.1692 137.051 88.9355 137.547 87.373 137.547C85.8158 137.547 84.594 137.046 83.6381 136.015C82.6617 134.964 82.1873 133.63 82.1873 131.938C82.1873 130.247 82.662 128.913 83.6383 127.862C84.5945 126.831 85.8162 126.331 87.373 126.331C88.9355 126.331 90.1692 126.826 91.1447 127.846C92.132 128.878 92.6119 130.217 92.6119 131.938C92.6119 133.66 92.132 134.999 91.1447 136.031ZM101.772 117.926H94.599C94.1197 117.926 93.7101 118.271 93.6285 118.744L93.4099 120.011C92.5793 119.356 91.6571 118.816 90.6524 118.397C89.0604 117.735 87.3006 117.399 85.4218 117.399C82.8245 117.399 80.4786 118.024 78.4493 119.256C76.4191 120.49 74.8147 122.237 73.6806 124.448C72.5586 126.636 71.9897 129.156 71.9897 131.938C71.9897 134.721 72.5586 137.241 73.6806 139.429C74.8155 141.642 76.42 143.389 78.4493 144.621C80.4771 145.853 82.8229 146.478 85.4218 146.478C88.5458 146.478 91.2237 145.588 93.4075 143.829L93.6281 145.13C93.7083 145.604 94.1186 145.951 94.599 145.951H101.772C102.316 145.951 102.757 145.51 102.757 144.966V118.911C102.757 118.367 102.316 117.926 101.772 117.926Z" fill="white"/>
<path d="M130.238 120.855C128.136 118.541 125.291 117.368 121.782 117.368C119.929 117.368 118.207 117.716 116.662 118.402C115.714 118.824 114.841 119.358 114.052 119.999L113.84 118.766C113.758 118.293 113.349 117.948 112.869 117.948H105.696C105.152 117.948 104.711 118.389 104.711 118.933V144.988C104.711 145.532 105.152 145.973 105.696 145.973H113.977C114.521 145.973 114.961 145.532 114.961 144.988V131.275C114.961 129.755 115.361 128.574 116.184 127.663C116.981 126.781 118.018 126.353 119.356 126.353C120.549 126.353 121.447 126.71 122.101 127.446C122.776 128.205 123.118 129.316 123.118 130.747V144.988C123.118 145.532 123.559 145.973 124.103 145.973H132.384C132.928 145.973 133.369 145.532 133.369 144.988V130.273C133.369 126.311 132.315 123.142 130.238 120.855Z" fill="white"/>
<path d="M154.055 136.031C153.08 137.051 151.847 137.546 150.284 137.546C148.727 137.546 147.505 137.046 146.549 136.015C145.573 134.964 145.098 133.63 145.098 131.938C145.098 130.247 145.573 128.913 146.549 127.862C147.506 126.831 148.727 126.331 150.284 126.331C151.847 126.331 153.08 126.826 154.055 127.846C155.043 128.878 155.523 130.217 155.523 131.938C155.523 133.66 155.043 134.998 154.055 136.031ZM164.683 117.926H157.51C157.03 117.926 156.621 118.271 156.539 118.744L156.321 120.011C155.49 119.356 154.568 118.816 153.564 118.397C151.971 117.735 150.211 117.399 148.333 117.399C145.735 117.399 143.39 118.024 141.36 119.256C139.33 120.49 137.726 122.237 136.592 124.448C135.47 126.636 134.901 129.156 134.901 131.938C134.901 134.721 135.47 137.241 136.592 139.429C137.727 141.642 139.331 143.389 141.36 144.621C143.388 145.853 145.734 146.478 148.333 146.478C151.457 146.478 154.134 145.588 156.318 143.829L156.539 145.13C156.619 145.604 157.029 145.951 157.51 145.951H164.683C165.227 145.951 165.667 145.51 165.667 144.966V118.911C165.667 118.367 165.227 117.926 164.683 117.926Z" fill="white"/>
<path d="M176.76 107.083H168.479C167.935 107.083 167.495 107.524 167.495 108.068V144.988C167.495 145.532 167.935 145.973 168.479 145.973H176.76C177.304 145.973 177.745 145.532 177.745 144.988V108.068C177.745 107.524 177.304 107.083 176.76 107.083Z" fill="white"/>
<path d="M209.277 103.522H198.912C198.387 103.522 197.868 103.638 197.392 103.862L185.605 110.548C184.851 110.903 184.412 111.703 184.519 112.529L182.963 120.826C183.02 121.272 183.467 121.558 183.896 121.424L189.715 121.261L185.155 145.097C185.052 145.574 185.441 146.013 185.926 145.97L201.268 145.819C201.584 145.791 201.844 145.561 201.91 145.251L209.983 104.397C210.081 103.947 209.738 103.522 209.277 103.522Z" fill="white"/>
</svg>
