<svg width="250" height="250" viewBox="0 0 250 250" fill="none" xmlns="http://www.w3.org/2000/svg">
<rect width="250" height="250" fill="white"/>
<path d="M54.186 125.952L70.0612 107.494C70.327 107.185 70.3883 106.749 70.2183 106.379C70.0483 106.008 69.6781 105.771 69.2706 105.771H57.99C57.6818 105.771 57.3894 105.907 57.1913 106.143L46.1883 119.251V106.814C46.1883 106.238 45.7216 105.771 45.1455 105.771H36.0428C35.4669 105.771 35 106.238 35 106.814V145.905C35 146.481 35.4669 146.948 36.0428 146.948H45.1455C45.7216 146.948 46.1883 146.481 46.1883 145.905V133.132L58.1026 146.596C58.3005 146.82 58.5847 146.948 58.8835 146.948H70.7782C71.1903 146.948 71.5635 146.705 71.731 146.329C71.8984 145.952 71.8286 145.512 71.5527 145.207L54.186 125.952Z" fill="black"/>
<path d="M89.1528 136.421C88.12 137.501 86.8137 138.026 85.1593 138.026C83.5105 138.026 82.2168 137.496 81.2047 136.404C80.1709 135.291 79.6685 133.879 79.6685 132.088C79.6685 130.297 80.1711 128.885 81.2049 127.771C82.2173 126.681 83.5109 126.15 85.1593 126.15C86.8137 126.15 88.12 126.675 89.1528 127.755C90.1982 128.848 90.7063 130.265 90.7063 132.088C90.7063 133.911 90.1982 135.328 89.1528 136.421ZM100.405 117.251H92.8103C92.3029 117.251 91.8691 117.617 91.7827 118.117L91.5512 119.459C90.6718 118.766 89.6953 118.194 88.6316 117.75C86.9459 117.049 85.0826 116.693 83.0933 116.693C80.3432 116.693 77.8593 117.355 75.7106 118.66C73.561 119.966 71.8622 121.815 70.6614 124.157C69.4735 126.474 68.8711 129.142 68.8711 132.088C68.8711 135.034 69.4735 137.702 70.6614 140.019C71.8631 142.362 73.5619 144.212 75.7106 145.516C77.8577 146.821 80.3415 147.483 83.0933 147.483C86.4011 147.483 89.2365 146.541 91.5487 144.678L91.7823 146.056C91.8673 146.557 92.3017 146.924 92.8103 146.924H100.405C100.981 146.924 101.448 146.458 101.448 145.882V118.294C101.448 117.718 100.981 117.251 100.405 117.251Z" fill="black"/>
<path d="M130.546 120.353C128.32 117.903 125.308 116.661 121.593 116.661C119.63 116.661 117.807 117.029 116.171 117.756C115.167 118.202 114.243 118.768 113.408 119.446L113.183 118.14C113.097 117.64 112.663 117.275 112.155 117.275H104.56C103.984 117.275 103.518 117.742 103.518 118.318V145.905C103.518 146.481 103.984 146.948 104.56 146.948H113.328C113.904 146.948 114.37 146.481 114.37 145.905V131.385C114.37 129.777 114.794 128.525 115.665 127.561C116.509 126.627 117.607 126.174 119.024 126.174C120.287 126.174 121.238 126.552 121.931 127.331C122.645 128.135 123.007 129.311 123.007 130.827V145.905C123.007 146.481 123.474 146.948 124.05 146.948H132.818C133.394 146.948 133.861 146.481 133.861 145.905V130.324C133.861 126.129 132.745 122.775 130.546 120.353Z" fill="black"/>
<path d="M155.764 136.421C154.731 137.501 153.425 138.026 151.771 138.026C150.122 138.026 148.828 137.496 147.816 136.404C146.782 135.291 146.28 133.88 146.28 132.088C146.28 130.297 146.782 128.885 147.816 127.771C148.829 126.68 150.122 126.15 151.771 126.15C153.425 126.15 154.731 126.675 155.764 127.755C156.809 128.848 157.318 130.265 157.318 132.088C157.318 133.911 156.809 135.328 155.764 136.421ZM167.016 117.252H159.421C158.914 117.252 158.48 117.617 158.394 118.117L158.162 119.459C157.283 118.765 156.306 118.194 155.243 117.75C153.557 117.049 151.693 116.693 149.704 116.693C146.954 116.693 144.471 117.355 142.322 118.66C140.172 119.966 138.473 121.815 137.273 124.157C136.085 126.473 135.482 129.141 135.482 132.088C135.482 135.035 136.085 137.703 137.273 140.019C138.474 142.362 140.173 144.212 142.322 145.516C144.469 146.821 146.953 147.483 149.704 147.483C153.012 147.483 155.847 146.541 158.16 144.678L158.393 146.056C158.478 146.557 158.913 146.924 159.421 146.924H167.016C167.592 146.924 168.059 146.458 168.059 145.882V118.294C168.059 117.718 167.592 117.252 167.016 117.252Z" fill="black"/>
<path d="M179.804 105.771H171.037C170.461 105.771 169.994 106.238 169.994 106.814V145.905C169.994 146.481 170.461 146.948 171.037 146.948H179.804C180.38 146.948 180.847 146.481 180.847 145.905V106.814C180.847 106.238 180.38 105.771 179.804 105.771Z" fill="black"/>
<path d="M214.235 102H203.261C202.704 102 202.155 102.123 201.651 102.36L189.171 109.439C188.372 109.815 187.908 110.662 188.02 111.537L186.373 120.322C186.434 120.794 186.906 121.097 187.361 120.955L193.522 120.782L188.694 146.021C188.585 146.525 188.996 146.991 189.51 146.944L205.755 146.785C206.089 146.755 206.365 146.511 206.435 146.184L214.983 102.927C215.086 102.45 214.723 102 214.235 102Z" fill="black"/>
</svg>
