<svg width="250" height="250" viewBox="0 0 250 250" fill="none" xmlns="http://www.w3.org/2000/svg">
<rect width="250" height="250" fill="#056DB0"/>
<path d="M78.2272 126.068C78.2272 126.068 81.3042 126.176 81.3042 128.819C81.3042 131.462 78.9877 131.643 77.0691 131.643H72.1096V126.068H78.2272Z" fill="white"/>
<path d="M77.5396 118.285C77.556 118.284 80.508 118.147 80.5081 120.602C80.5081 122.701 78.6616 122.846 78.0462 122.882H72.1096V118.285H77.5396Z" fill="white"/>
<path fill-rule="evenodd" clip-rule="evenodd" d="M109.685 139.028H40V110.972H109.685V139.028ZM68.1276 134.865H80.0372C83.0056 134.865 85.7207 132.693 85.7207 129.326C85.6847 125.542 82.8862 124.341 82.8611 124.33C82.8768 124.325 85.1046 123.558 84.8882 120.131C84.5992 115.182 79.0111 115.1 78.9876 115.099H68.1276V134.865ZM49.014 134.756H53.177V124.765L60.3806 134.756H66.2812L58.245 124.656L65.9916 115.316H60.5256L53.177 124.584V115.316H49.014V134.756ZM92.4178 115.316C92.395 115.317 86.9517 115.473 86.9517 120.927C86.9517 125.489 91.3678 126.104 93.0693 126.104H96.7982C96.8235 126.103 100.128 126.007 100.128 128.928C100.128 128.928 100.165 131.606 97.3412 131.607H87.6032V134.756H99.6942C99.7244 134.753 104.871 134.161 104.871 128.783C104.871 123.715 99.7305 122.918 98.5357 122.918H94.0832C91.5608 122.918 91.5131 120.731 91.5128 120.71C91.5128 120.71 91.4766 118.43 94.4088 118.43H103.495V115.316H92.4178Z" fill="white"/>
<path d="M135.93 115.751C135.93 115.751 133.252 125.452 132.745 127.118L129.559 115.751H125.758C125.758 115.751 123.079 125.416 122.573 127.081L119.496 115.751H115.55L120.799 134.14H124.672L127.785 122.882L130.899 134.14H134.808L140.021 115.751H135.93Z" fill="white"/>
<path d="M155.623 118.031C151.786 114.556 145.922 114.556 142.121 118.031C140.419 119.914 139.514 122.412 139.623 124.982C139.514 127.552 140.383 130.086 142.121 132.005C145.922 135.516 151.822 135.516 155.623 132.005C157.361 130.086 158.266 127.552 158.157 124.982C158.266 122.412 157.361 119.914 155.623 118.031ZM152.583 129.507C150.736 131.57 147.587 131.751 145.523 129.905C145.379 129.797 145.234 129.652 145.125 129.507C144.148 128.204 143.677 126.611 143.75 124.982C143.677 123.389 144.148 121.832 145.089 120.565C145.994 119.443 147.406 118.828 148.818 118.9C150.266 118.828 151.641 119.443 152.546 120.565C153.488 121.832 153.994 123.389 153.922 124.982C153.994 126.611 153.524 128.204 152.583 129.507Z" fill="white"/>
<path d="M171.479 126.575C172.529 126.176 173.506 125.525 174.266 124.692C175.063 123.787 175.497 122.629 175.497 121.434C175.533 119.805 174.773 118.249 173.47 117.271C172.022 116.221 170.248 115.678 168.474 115.751H160.185V134.177H164.167V127.154H166.954L172.239 134.213H177.126C177.126 134.213 171.877 127.118 171.479 126.575ZM171.298 121.434C171.334 122.086 170.972 122.701 170.393 123.027V123.063C169.778 123.425 169.09 123.606 168.366 123.642H164.094V119.298H168.583C169.271 119.298 169.922 119.479 170.502 119.841C171.045 120.167 171.37 120.783 171.298 121.434Z" fill="white"/>
<path d="M182.701 115.787H178.755V134.177H192.584V130.702H182.701V115.787Z" fill="white"/>
<path d="M207.498 118.393C206.014 116.62 203.77 115.642 201.453 115.751H194.502V134.213H201.453C203.77 134.322 206.014 133.38 207.498 131.607C209.163 129.833 210.068 127.444 209.996 124.982C210.068 122.556 209.163 120.167 207.498 118.393ZM205.145 129.073L205.073 129.036C204.204 130.122 202.792 130.702 200.91 130.702H198.376V119.298H200.91C202.792 119.298 204.204 119.841 205.073 120.927C206.014 122.086 206.485 123.498 206.448 124.982C206.521 126.466 206.05 127.914 205.145 129.073Z" fill="white"/>
</svg>
