<svg width="250" height="250" viewBox="0 0 250 250" fill="none" xmlns="http://www.w3.org/2000/svg">
<rect width="250" height="250" fill="white"/>
<path d="M58.6769 120.632H53.5124L44.6191 130.004V120.632H40V140.716H44.6191V135.645L47.3101 132.836L53.742 140.716H59.1652L50.3621 129.58L58.6769 120.632Z" fill="#4FAF39"/>
<path d="M65.3039 120.632H60.6558V140.716H65.3039V120.632Z" fill="#4FAF39"/>
<path d="M85.2621 120.632H67.7603V124.419H74.1871V140.716H78.8352V124.419H85.2621V120.632Z" fill="#4FAF39"/>
<path d="M91.6126 126.026C92.1861 125.453 92.8649 125.013 93.65 124.707C94.434 124.401 95.2943 124.248 96.2317 124.248C97.2263 124.248 98.1437 124.444 98.9859 124.835C99.8271 125.227 100.592 125.816 101.281 126.6L104.265 123.845C103.308 122.679 102.127 121.794 100.721 121.192C99.3158 120.589 97.7427 120.288 96.0021 120.288C94.433 120.288 92.9892 120.542 91.6698 121.048C90.3503 121.556 89.1973 122.277 88.2127 123.215C87.2272 124.152 86.4621 125.252 85.9177 126.514C85.3733 127.777 85.1006 129.163 85.1006 130.674C85.1006 132.185 85.3733 133.572 85.9177 134.834C86.4621 136.097 87.2231 137.196 88.1987 138.134C89.1742 139.071 90.3263 139.793 91.6557 140.301C92.9852 140.807 94.424 141.061 95.974 141.061C97.7337 141.061 99.3168 140.755 100.722 140.143C102.128 139.532 103.309 138.641 104.266 137.475L101.282 134.721C100.593 135.524 99.8281 136.123 98.9869 136.515C98.1447 136.907 97.2273 137.102 96.2327 137.102C95.2953 137.102 94.435 136.95 93.651 136.643C92.8669 136.337 92.1881 135.897 91.6136 135.324C91.0401 134.75 90.595 134.071 90.2791 133.286C89.9633 132.502 89.8059 131.632 89.8059 130.675C89.8059 129.719 89.9633 128.849 90.2791 128.065C90.595 127.28 91.0391 126.601 91.6136 126.027L91.6126 126.026Z" fill="#4FAF39"/>
<path d="M120.323 128.551H111.199V120.632H106.551V140.716H111.199V132.481H120.323V140.716H124.97V120.632H120.323V128.551Z" fill="#4FAF39"/>
<path d="M133.702 128.722H129.428V140.716H147.693V136.986H134.047V132.338H147.693V128.722H134.047H133.702Z" fill="#4FAF39"/>
<path d="M166.205 120.632V132.816L156.221 120.632H152.376V140.716H156.967V128.526L166.979 140.716H170.795V120.632H166.205Z" fill="#4FAF39"/>
<path d="M146.4 118.466L138.304 119.967L137.964 118.134L135.784 118.538L136.124 120.371L127.975 121.881L128.633 125.436L147.059 122.022L146.4 118.466Z" fill="#4FAF39"/>
<path d="M205.381 120.632L199.181 134.977L193.073 120.632H192.011H188.053H174.51V124.419H180.937V140.716H185.584V124.419H189.686L196.717 140.716H201.307L210 120.632H205.381Z" fill="#8CCA2C"/>
<path d="M143.405 127.097C143.405 127.097 148.419 125.769 149.487 118.134C150.555 110.498 157.691 108.939 157.691 108.939C157.691 108.939 153.196 112.463 152.128 118.134C151.06 123.804 149.057 126.118 143.405 127.097Z" fill="#8CCA2C"/>
</svg>
