<svg width="250" height="250" viewBox="0 0 250 250" fill="none" xmlns="http://www.w3.org/2000/svg">
<rect width="250" height="250" fill="white"/>
<path d="M64.0016 111.862H42.2742C41.0182 111.862 40 112.88 40 114.136V135.864C40 137.12 41.0182 138.138 42.2742 138.138H64.0016C65.2576 138.138 66.2758 137.12 66.2758 135.864V114.136C66.2758 112.88 65.2576 111.862 64.0016 111.862Z" fill="#F47A35"/>
<path d="M45.8317 119.472C46.4049 119.472 46.8695 119.007 46.8695 118.434C46.8695 117.861 46.4049 117.396 45.8317 117.396C45.2586 117.396 44.7939 117.861 44.7939 118.434C44.7939 119.007 45.2586 119.472 45.8317 119.472Z" fill="white"/>
<path d="M49.6872 119.472C50.2604 119.472 50.725 119.007 50.725 118.434C50.725 117.861 50.2604 117.396 49.6872 117.396C49.114 117.396 48.6494 117.861 48.6494 118.434C48.6494 119.007 49.114 119.472 49.6872 119.472Z" fill="white"/>
<path d="M53.5407 119.472C54.1139 119.472 54.5785 119.007 54.5785 118.434C54.5785 117.861 54.1139 117.396 53.5407 117.396C52.9676 117.396 52.5029 117.861 52.5029 118.434C52.5029 119.007 52.9676 119.472 53.5407 119.472Z" fill="white"/>
<path d="M45.8317 132.785C46.4049 132.785 46.8695 132.32 46.8695 131.747C46.8695 131.174 46.4049 130.709 45.8317 130.709C45.2586 130.709 44.7939 131.174 44.7939 131.747C44.7939 132.32 45.2586 132.785 45.8317 132.785Z" fill="white"/>
<path d="M49.6872 132.785C50.2604 132.785 50.725 132.32 50.725 131.747C50.725 131.174 50.2604 130.709 49.6872 130.709C49.114 130.709 48.6494 131.174 48.6494 131.747C48.6494 132.32 49.114 132.785 49.6872 132.785Z" fill="white"/>
<path d="M53.5407 132.785C54.1139 132.785 54.5785 132.32 54.5785 131.747C54.5785 131.174 54.1139 130.709 53.5407 130.709C52.9676 130.709 52.5029 131.174 52.5029 131.747C52.5029 132.32 52.9676 132.785 53.5407 132.785Z" fill="white"/>
<path d="M49.6872 122.799C50.2604 122.799 50.725 122.335 50.725 121.762C50.725 121.188 50.2604 120.724 49.6872 120.724C49.114 120.724 48.6494 121.188 48.6494 121.762C48.6494 122.335 49.114 122.799 49.6872 122.799Z" fill="white"/>
<path d="M53.5407 122.799C54.1139 122.799 54.5785 122.335 54.5785 121.762C54.5785 121.188 54.1139 120.724 53.5407 120.724C52.9676 120.724 52.5029 121.188 52.5029 121.762C52.5029 122.335 52.9676 122.799 53.5407 122.799Z" fill="white"/>
<path d="M57.3942 122.799C57.9674 122.799 58.432 122.335 58.432 121.762C58.432 121.188 57.9674 120.724 57.3942 120.724C56.8211 120.724 56.3564 121.188 56.3564 121.762C56.3564 122.335 56.8211 122.799 57.3942 122.799Z" fill="white"/>
<path d="M49.6872 129.456C50.2604 129.456 50.725 128.991 50.725 128.418C50.725 127.845 50.2604 127.38 49.6872 127.38C49.114 127.38 48.6494 127.845 48.6494 128.418C48.6494 128.991 49.114 129.456 49.6872 129.456Z" fill="white"/>
<path d="M53.5407 129.456C54.1139 129.456 54.5785 128.991 54.5785 128.418C54.5785 127.845 54.1139 127.38 53.5407 127.38C52.9676 127.38 52.5029 127.845 52.5029 128.418C52.5029 128.991 52.9676 129.456 53.5407 129.456Z" fill="white"/>
<path d="M57.3942 129.456C57.9674 129.456 58.432 128.991 58.432 128.418C58.432 127.845 57.9674 127.38 57.3942 127.38C56.8211 127.38 56.3564 127.845 56.3564 128.418C56.3564 128.991 56.8211 129.456 57.3942 129.456Z" fill="white"/>
<path d="M53.5407 126.128C54.1139 126.128 54.5785 125.664 54.5785 125.09C54.5785 124.517 54.1139 124.053 53.5407 124.053C52.9676 124.053 52.5029 124.517 52.5029 125.09C52.5029 125.664 52.9676 126.128 53.5407 126.128Z" fill="white"/>
<path d="M57.3942 126.128C57.9674 126.128 58.432 125.664 58.432 125.09C58.432 124.517 57.9674 124.053 57.3942 124.053C56.8211 124.053 56.3564 124.517 56.3564 125.09C56.3564 125.664 56.8211 126.128 57.3942 126.128Z" fill="white"/>
<path d="M61.2282 126.128C61.8014 126.128 62.266 125.664 62.266 125.09C62.266 124.517 61.8014 124.053 61.2282 124.053C60.6551 124.053 60.1904 124.517 60.1904 125.09C60.1904 125.664 60.6551 126.128 61.2282 126.128Z" fill="white"/>
<path d="M71.9102 134.385V115.493H77.0981V122.678L82.8455 115.493H88.6996L81.8344 123.955L89.178 134.385H83.2181L78.5352 127.441L77.0981 128.931V134.385H71.9102Z" fill="#0F6EA0"/>
<path d="M90.2686 134.385V115.493H95.4565V129.861H104.025V134.384L90.2686 134.385Z" fill="#0F6EA0"/>
<path d="M110.73 115.494H115.466L122.011 134.386H116.743L115.599 130.688H110.57L109.452 134.386H104.157L110.73 115.494ZM114.774 127.228L113.098 121.375L111.342 127.228H114.774Z" fill="#0F6EA0"/>
<path d="M123.581 134.385V115.493H130.845C132.405 115.493 133.78 115.741 134.968 116.239C136.156 116.736 137.15 117.41 137.948 118.261C138.747 119.112 139.35 120.11 139.758 121.255C140.166 122.399 140.37 123.619 140.37 124.914C140.37 126.35 140.143 127.65 139.691 128.812C139.239 129.973 138.595 130.967 137.761 131.792C136.928 132.617 135.926 133.255 134.755 133.707C133.583 134.16 132.281 134.386 130.844 134.386H123.58L123.581 134.385ZM135.102 124.914C135.102 124.186 135.004 123.521 134.809 122.918C134.613 122.315 134.334 121.8 133.971 121.375C133.607 120.949 133.159 120.617 132.628 120.377C132.095 120.138 131.501 120.018 130.845 120.018H128.769V129.863H130.845C131.519 129.863 132.122 129.74 132.654 129.491C133.187 129.242 133.634 128.897 133.997 128.453C134.361 128.009 134.636 127.486 134.823 126.882C135.01 126.279 135.102 125.623 135.102 124.914Z" fill="#0F6EA0"/>
<path d="M147.819 125.099V134.385H142.63V115.493H146.674L154.257 125.098V115.493H159.445V134.385H155.322L147.819 125.099Z" fill="#0F6EA0"/>
<path d="M169.954 119.213C165.73 119.213 162.308 122.636 162.308 126.859C162.308 131.081 165.731 134.505 169.954 134.505C174.176 134.505 177.6 131.081 177.6 126.859C177.6 122.636 174.176 119.213 169.954 119.213ZM169.954 130.345C168.028 130.345 166.468 128.784 166.468 126.859C166.468 124.933 168.028 123.373 169.954 123.373C171.879 123.373 173.44 124.933 173.44 126.859C173.44 128.784 171.879 130.345 169.954 130.345Z" fill="#0F6EA0"/>
<path d="M177.956 115.493H161.951V118.117H177.956V115.493Z" fill="#0F6EA0"/>
<path d="M184.272 129.963H179.887V134.349H184.272V129.963Z" fill="#0F6EA0"/>
<path d="M201.107 117.786H198.548V124.559H196.102V117.786H193.53V115.654H201.106V117.786H201.107Z" fill="#0F6EA0"/>
<path d="M203.967 115.654L205.711 121.486L207.43 115.654H210L206.727 124.56H204.695L201.384 115.654H203.967Z" fill="#0F6EA0"/>
<path d="M191.382 134.375H187.58V122.213H182.867V119.347C185.519 119.427 187.928 118.49 188.357 115.624H191.382V134.375Z" fill="#0F6EA0"/>
</svg>
