<svg width="250" height="250" viewBox="0 0 250 250" fill="none" xmlns="http://www.w3.org/2000/svg">
<rect width="250" height="250" fill="white"/>
<path d="M75.2188 113.569C64.8977 109.47 52.9995 114.783 49.4425 125.286C44.0767 141.129 59.6701 155.947 75.2188 149.723C91.2765 143.296 91.2651 119.941 75.2188 113.569Z" fill="#F2B909"/>
<path d="M75.2192 149.723C75.3064 150.162 76.2694 151.219 76.0315 151.561C75.482 151.866 73.5809 152.211 73.4032 152.735C73.0043 153.908 73.637 157.001 73.3648 158.448C73.237 159.128 72.4651 159.514 71.8335 159.588C70.6939 159.722 64.3578 159.753 63.4976 159.49C63.3179 159.435 62.9793 159.231 62.8764 159.085C62.3372 158.324 62.8536 153.645 62.278 152.494C61.02 152.449 57.9636 150.408 57.0473 150.539C56.3025 150.645 53.8435 153.835 52.9282 154.45C52.2177 154.928 51.8229 154.827 51.1705 154.353C50.4339 153.818 45.7757 149.192 45.3134 148.503C45.1918 148.322 45.0505 148.247 45.01 147.966C44.7856 146.404 48.4601 144.359 49.018 143.146C49.5135 142.07 47.4908 139.011 47.1376 137.793C46.1403 137.162 42.1926 137.967 40.8431 137.563C40.5824 137.485 40.3424 137.177 40.2406 136.934C39.9362 136.21 39.9695 129.621 40.0754 128.452C40.3403 125.522 44.8064 127.634 46.6556 126.814C47.3049 126.526 47.4617 125.091 47.7391 124.406C48.0144 123.727 49.0148 121.881 49.0928 121.425C49.1582 121.036 49.1229 120.968 48.9317 120.645C48.3001 119.579 45.0443 117.363 44.8396 116.291C44.715 115.641 45.2438 115.156 45.6281 114.694C47.2197 112.776 49.5187 111.059 51.184 109.156C51.6245 108.967 52.1751 108.967 52.6155 109.156C53.804 109.665 55.8485 113.387 57.3954 113.123C58.0779 112.507 61.956 111.345 62.1752 110.9C62.6208 109.625 61.6682 104.803 62.891 104.22L72.2355 104.122C72.8588 104.207 73.0697 104.919 73.1466 105.472C73.2983 106.56 72.9201 110.329 73.264 110.901C73.4978 111.29 75.5111 111.719 76.0409 111.927L75.2192 113.567C64.898 109.469 52.9999 114.782 49.4429 125.285C44.0771 141.127 59.6705 155.947 75.2192 149.723Z" fill="#F2F1D1"/>
<path d="M177.947 122.196V126.305H165.62V122.196C165.62 122.097 166.958 122.632 167.218 121.432C167.455 120.336 167.39 115.743 167.24 114.517C167.022 112.742 165.985 112.293 164.282 112.322C162.984 112.344 161.748 112.638 161.524 114.096C161.359 115.176 161.326 120.458 161.517 121.472C161.723 122.576 163.155 122.098 163.155 122.197V126.306H150.828V122.197C150.828 121.945 152.913 122.99 153.1 121.079C153.351 118.515 152.918 115.5 153.054 112.884C152.767 112.033 150.828 112.456 150.828 112.336V108.433H161.511C161.563 108.736 161.292 109.369 161.813 109.251C164.561 108.229 167.519 107.782 170.457 108.015C178.361 108.64 174.918 116.236 175.73 121.642C175.975 122.477 177.273 122.146 177.949 122.196H177.947Z" fill="#4A2021"/>
<path d="M110.557 102.681V107.406C110.028 107.439 107.475 107.175 107.475 107.919V120.759H113.125C113.385 120.759 114.527 120.375 114.759 120.132C115.41 119.451 115.203 118.179 115.796 117.472H120.419L120.213 125.791C120.221 125.959 120.021 126.304 119.905 126.304H95.0439C95.0221 126.304 94.7354 126.017 94.7354 125.995V121.579C96.2801 121.497 97.6535 121.947 97.827 120.048C98.1688 116.296 97.5943 111.976 97.7678 108.163C97.7636 106.852 94.7364 107.784 94.7364 107.096V102.68L110.557 102.681Z" fill="#4A2021"/>
<path d="M111.173 131.646V136.371C110.465 136.443 108.091 136.008 108.091 137.089V149.723H114.152C115.859 149.723 115.813 147.71 116.412 146.642H121.035L120.83 155.27H95.5582V150.545C95.5582 150.33 98.2384 151.305 98.4462 149.221C98.8244 145.445 98.1813 140.978 98.3839 137.129C98.1512 135.953 96.49 136.478 95.5571 136.37V131.645H111.172L111.173 131.646Z" fill="#F2B909"/>
<path d="M83.3885 90.4081C94.2062 88.9277 95.4996 104.826 85.9846 105.945C74.8095 107.259 73.8392 91.715 83.3885 90.4081Z" fill="#F2B909"/>
<path d="M205.017 112.288C206.098 112.731 205.992 113.98 206.096 113.98H210V109.358C208.135 108.218 205.096 108.088 203.078 108.805C202.559 108.99 201.089 110.002 200.858 110.005C200.639 110.007 198.647 108.936 198.075 108.75C193.662 107.318 186.026 107.746 182.371 110.904C178.601 114.161 180.29 119.157 184.522 120.863C179.707 122.525 179.165 127.443 184.116 129.486C188.056 131.113 191.577 130.095 195.525 130.2C198.161 130.269 198.356 131.115 197.056 133.29H203.734C204.33 133.29 206.033 130.066 206.099 129.284C206.439 125.29 202.445 124.842 199.417 124.665C196.095 124.47 192.345 125.295 189.168 124.641C187.917 124.383 186.932 123.543 187.815 122.302C189.674 121.697 191.811 122.486 193.871 122.4C198.076 122.224 204.604 120.224 204.248 114.909C204.2 114.193 203.401 112.572 203.426 112.445C203.524 111.95 204.622 112.126 205.018 112.288H205.017ZM194.769 118.369C193.734 119.722 189.847 119.608 189.347 117.683C189.136 116.872 189.144 113.957 189.298 113.104C189.427 112.391 190.107 111.517 190.833 111.353C191.372 111.231 193.083 111.231 193.624 111.353C195.833 111.85 195.859 116.947 194.769 118.369Z" fill="#4A2021"/>
<path d="M162.128 138.014V128.153H151.444V132.262C151.444 132.514 153.529 131.469 153.716 133.38C154.241 138.737 153.317 144.977 153.684 150.429C153.901 151.686 151.444 151.231 151.444 151.367V155.27H160.69C160.77 155.27 160.961 153.954 161.43 153.844C167.156 157.937 176.778 155.109 177.536 147.563C178.472 138.242 169.726 135.054 162.129 138.013L162.128 138.014ZM167.167 150.756C166.173 151.624 163.367 151.071 162.128 150.751V143.047C162.128 142.673 163.174 141.773 163.599 141.643C164.886 141.25 166.965 141.302 167.629 142.683C168.332 144.144 168.448 149.634 167.167 150.756Z" fill="#F2B909"/>
<path d="M146.148 150.396C145.574 147.733 146.757 143.124 145.853 140.625C144.538 136.987 136.449 136.773 133.253 136.977C129.387 137.226 125.345 138.552 124.324 142.738H132.542C132.621 142.738 132.691 141.944 133.567 141.604C135.773 140.747 138.307 141.573 137.679 144.382C133.817 144.21 123.843 144.177 123.109 149.432C122.129 156.462 132.193 156.455 136.648 154.751C137.049 154.597 138.692 153.64 138.814 153.65C138.9 153.657 139.506 154.6 140 154.9C142.118 156.188 145.63 155.65 147.953 155.269V151.16C147.127 151.162 146.367 151.405 146.149 150.395L146.148 150.396ZM137.864 149.397C137.429 152.477 131.219 151.466 133.155 148.794C133.647 148.116 134.981 147.817 135.783 147.726C137.521 147.531 138.147 147.398 137.864 149.397Z" fill="#4A2021"/>
<path d="M145.898 121.63C145.791 121.395 145.704 120.568 145.682 120.251C145.512 117.837 146.137 113.592 145.594 111.508C144.597 107.693 135.463 107.601 132.43 107.808C128.745 108.06 124.852 109.636 123.912 113.568H132.13C132.224 113.568 132.315 112.682 133.453 112.324C135.705 111.614 137.769 112.385 137.386 115.019C137.095 115.418 132.7 115.147 131.813 115.203C128.252 115.429 122.819 116.608 122.666 121.064C122.458 127.16 132.092 127.132 136.089 125.642C136.631 125.44 138.279 124.396 138.581 124.439C138.655 124.45 139.143 125.287 139.539 125.572C141.553 127.019 145.228 126.413 147.537 126.099V121.991C147.537 121.904 146.145 122.174 145.898 121.63ZM137.429 120.819C136.945 122.483 131.735 122.726 132.634 119.926C133.122 118.403 136.201 118.424 137.473 118.498C137.385 119.203 137.62 120.162 137.429 120.819Z" fill="#F2B909"/>
<path d="M75.1003 135.154C74.8115 134.942 73.1514 131.917 73.1992 131.592C73.2283 131.401 74.8821 128.29 75.0463 128.186C75.466 127.921 78.2159 128.663 77.8678 127.268C77.6154 126.254 75.6488 127.003 75.011 126.615C74.8354 126.508 73.0101 123.213 73.0672 123.017C73.1981 122.569 74.9975 120.535 73.8609 120.158C72.712 119.777 72.4335 122.311 71.5838 122.567C71.2534 122.667 67.8283 122.662 67.6589 122.563C67.1249 122.252 66.7271 119.471 65.3828 120.374C64.9901 121.475 66.4393 122.427 66.3822 123.309C66.3635 123.597 64.5912 126.875 64.3907 126.924H60.3661C59.7781 126.41 59.1922 124.02 58.1689 124.55C57.0064 125.153 59.2867 127.048 59.0852 127.743C59.0239 127.955 57.3087 131.033 57.1415 131.135C56.4465 131.558 53.788 130.605 54.2877 132.129C54.6191 133.142 56.46 132.142 57.0978 132.512C57.264 132.609 58.9553 135.55 59.0457 135.819C59.4051 136.888 57.5726 137.964 57.9871 139.219C59.4072 140.114 59.7345 137.098 60.5645 136.815C60.8793 136.707 64.0447 136.716 64.3948 136.82C65.1064 137.034 66.3738 140.612 67.2112 140.989C68.2303 141.449 70.8607 140.809 72.0024 141.087C72.2902 141.158 73.2864 144.388 74.2131 143.006C74.6474 142.358 73.1431 140.879 73.2096 140.203C73.2719 139.559 74.9393 137.698 75.0494 136.815C75.6862 136.719 78.0725 137.013 78.0953 136.076C78.1307 134.641 75.9688 135.788 75.1034 135.155L75.1003 135.154ZM67.9643 123.878C68.2895 123.779 71.7209 123.785 71.8902 123.883C72.0668 123.986 73.9129 127.229 73.915 127.433C73.917 127.628 72.2164 130.67 72.0325 130.822C71.7157 131.085 67.9592 131.161 67.6589 130.986C67.4917 130.89 65.7817 127.819 65.7682 127.625C65.7381 127.178 67.4958 124.021 67.9643 123.878ZM64.5371 135.242C64.0291 135.481 60.8689 135.71 60.4274 135.445C60.2601 135.344 58.466 132.344 58.4058 132.105C58.2998 131.687 60.095 128.414 60.4243 128.255C60.7432 128.101 64.2774 128.072 64.4925 128.197C64.8228 128.388 66.0092 131.176 66.511 131.643C66.5847 131.912 64.8166 135.112 64.5371 135.242ZM71.9328 139.556C71.5412 139.745 68.2002 139.739 67.821 139.556C67.6381 139.467 65.7796 136.317 65.7796 136.062C65.7796 135.377 67.5228 133.392 67.6496 132.501C67.8251 132.391 71.5058 132.403 71.7946 132.501C71.9868 132.566 73.6999 135.273 73.8339 135.614C74.0521 136.171 72.3255 139.366 71.9328 139.556Z" fill="white"/>
</svg>
