<svg width="250" height="250" viewBox="0 0 250 250" fill="none" xmlns="http://www.w3.org/2000/svg">
<rect width="250" height="250" fill="#DE0742"/>
<path d="M134.717 87.1099C135.238 87.1501 135.759 87.1897 136.296 87.231C142.603 87.6754 148.879 87.7648 155.201 87.7467C155.713 87.7461 156.227 87.7456 156.756 87.745C162.729 87.7382 168.68 87.6692 174.643 87.3165C178.621 87.0924 182.599 87.0092 186.582 86.9786C187.69 86.9684 188.797 86.9503 189.904 86.9322C190.578 86.9293 191.251 86.9271 191.944 86.9243C192.547 86.9192 193.151 86.9135 193.772 86.9084C195.283 87.1099 195.283 87.1099 196.323 87.8667C197.378 89.3763 197.273 90.419 196.981 92.2043C194.638 94.6128 192.521 95.0639 189.28 95.2133C188.774 95.2371 188.269 95.2614 187.747 95.2858C187.21 95.3079 186.674 95.3299 186.12 95.3526C185.293 95.3882 185.293 95.3882 184.449 95.4245C180.961 95.5643 177.476 95.6582 173.986 95.6713C173.399 95.6752 173.399 95.6752 172.8 95.6792C170.95 95.6735 169.327 95.523 167.547 95.0345C167.485 95.7782 167.424 96.522 167.36 97.2884C166.934 101.531 166.17 105.717 165.44 109.915C165.288 110.795 165.137 111.675 164.986 112.556C164.59 114.854 164.192 117.153 163.794 119.451C163.386 121.804 162.981 124.157 162.576 126.509C161.782 131.113 160.986 135.715 160.189 140.318C160.791 140.312 161.394 140.306 162.016 140.299C202.366 139.939 202.366 139.939 210 144.28C210 144.653 210 145.027 210 145.412C193.189 145.412 176.377 145.412 159.056 145.412C158.683 148.587 158.309 151.763 157.924 155.035C157.738 155.408 157.551 155.782 157.358 156.167C156.611 156.167 155.864 156.167 155.094 156.167C155.079 155.011 155.068 153.856 155.059 152.7C155.052 152.056 155.046 151.413 155.039 150.75C155.091 148.912 155.34 147.219 155.66 145.412C155.183 145.449 154.706 145.487 154.214 145.526C146.613 146.066 139.009 146.151 131.391 146.261C126.753 146.329 122.114 146.408 117.476 146.507C115.409 146.545 113.343 146.567 111.277 146.588C109.937 146.614 108.599 146.64 107.259 146.668C106.638 146.67 106.016 146.672 105.376 146.674C101.984 146.662 101.984 146.662 99.3309 148.542C99.0535 149.003 98.7761 149.465 98.4903 149.94C96.6507 150.117 96.6507 150.117 95.0941 149.94C94.9073 148.82 94.7205 147.699 94.528 146.544C93.9676 146.824 93.9676 146.824 93.3959 147.11C91.9978 147.239 90.611 147.337 89.2101 147.413C88.5795 147.45 88.5795 147.45 87.9354 147.486C87.0404 147.538 86.1455 147.588 85.2506 147.636C83.9063 147.71 82.5625 147.788 81.2182 147.867C76.2138 148.153 71.2406 148.317 66.2261 148.242C66.1796 148.838 66.1327 149.433 66.0845 150.047C65.5508 154.319 64.421 159.545 61.6977 162.959C60.1768 163.136 60.1768 163.136 58.8675 162.959C59.1749 158.422 59.51 153.895 59.9996 149.374C59.3492 149.456 58.6994 149.538 58.0298 149.622C43.5466 151.38 43.5466 151.38 40.1883 149.374C39.8469 145.278 39.8469 145.278 41.2496 143.502C43.6717 142.242 45.9902 141.824 48.6788 141.45C49.3553 141.355 49.3553 141.355 50.0453 141.257C53.9249 140.796 57.796 140.829 61.6977 140.884C61.781 140.174 61.8642 139.463 61.9496 138.732C67.237 95.245 67.237 95.245 74.1506 89.3741C74.5242 89.3741 74.8978 89.3741 75.2827 89.3741C75.2204 89.7307 75.1587 90.0873 75.0948 90.4546C73.1397 101.839 71.5519 113.27 70.0117 124.716C69.9597 125.1 69.9081 125.485 69.8549 125.881C69.2074 130.693 68.5638 135.505 67.9242 140.318C68.5083 140.257 68.5083 140.257 69.1038 140.196C72.5289 139.86 75.9002 139.673 79.3401 139.696C79.7963 139.697 80.2519 139.698 80.7218 139.699C82.1521 139.702 83.5814 139.709 85.0118 139.716C85.9921 139.719 86.9725 139.722 87.9535 139.724C90.3337 139.73 92.7139 139.74 95.0941 139.752C95.2808 136.95 95.4676 134.148 95.6601 131.261C94.9248 131.728 94.189 132.195 93.4316 132.676C90.7373 134.172 88.5167 134.659 85.4714 134.091C83.6097 133.114 83.3125 132.709 82.6412 130.695C82.5874 129.705 82.5676 128.714 82.5704 127.723C82.5682 126.948 82.5682 126.948 82.5659 126.158C82.6508 124.247 82.9112 122.395 83.2072 120.506C82.8591 120.99 82.511 121.474 82.1527 121.972C81.6908 122.604 81.2284 123.236 80.7665 123.867C80.5372 124.186 80.3085 124.505 80.0731 124.834C78.3053 127.235 78.3053 127.235 76.4148 127.865C76.7227 125.445 77.527 124.062 78.9976 122.134C79.4046 121.594 79.8116 121.055 80.231 120.499C80.6527 119.941 81.0744 119.383 81.5091 118.808C82.6525 117.189 83.7936 115.57 84.9297 113.946C86.1223 112.478 87.3172 111.399 88.8676 110.318C90.4599 110.176 90.4599 110.176 91.6978 110.318C92.3154 112.973 92.1999 115.055 91.7335 117.747C91.0791 121.525 91.0191 125.172 91.1318 128.997C94.1239 128.6 94.1239 128.6 96.7922 127.299C97.3531 126.025 97.3531 126.025 97.6169 124.491C97.7426 123.914 97.8677 123.337 97.9967 122.742C98.1246 122.121 98.2526 121.5 98.3844 120.86C104.107 95.2897 104.107 95.2897 113.172 89.2037C115.481 87.9318 117.321 87.3573 120 87.676C120.56 87.9561 120.56 87.9561 121.132 88.242C121.874 97.1441 115.674 104.919 110.943 112.016C111.515 111.981 112.087 111.945 112.677 111.909C115.121 112.026 116.651 112.728 118.868 113.714C120.484 114.037 121.277 113.98 122.673 113.097C123.351 112.6 124.019 112.088 124.672 111.558C126.868 110.06 129.301 110.136 131.887 110.318C133.196 110.972 134.249 111.548 135.283 112.582C135.418 113.632 135.418 113.632 135.46 114.952C135.492 115.595 135.492 115.595 135.524 116.25C134.946 119.668 132.162 122.081 129.764 124.398C129.477 124.68 129.191 124.961 128.895 125.251C128.197 125.936 127.495 126.618 126.792 127.299C126.979 127.859 127.166 128.419 127.358 128.997C129.234 129.935 131 129.913 133.019 129.563C135.578 128.461 138.221 127.23 140.172 125.205C140.943 124.468 140.943 124.468 142.641 124.468C142.568 125.442 142.568 125.442 142.075 126.733C140.967 127.682 139.922 128.479 138.715 129.28C138.381 129.503 138.047 129.726 137.704 129.956C132.806 133.154 128.232 135.041 122.264 134.091C120.135 133.275 118.833 132.173 117.687 130.204C116.242 126.797 116.304 123.514 117.17 119.94C116.597 119.893 116.026 119.847 115.436 119.799C113.743 119.569 112.574 119.098 111.12 118.207C109.281 116.919 109.281 116.919 106.981 117.11C106.925 117.524 106.87 117.939 106.813 118.366C106.172 123.006 105.442 127.629 104.682 132.252C104.583 132.858 104.484 133.465 104.382 134.09C104.288 134.659 104.193 135.229 104.095 135.816C104.011 136.329 103.926 136.842 103.839 137.37C103.585 138.619 103.585 138.619 103.019 139.752C120.764 139.752 138.509 139.752 156.792 139.752C157.353 135.829 157.913 131.906 158.49 127.865C158.935 125.222 159.389 122.588 159.874 119.953C159.997 119.283 160.118 118.613 160.244 117.923C160.497 116.535 160.751 115.148 161.006 113.76C161.397 111.63 161.785 109.499 162.172 107.368C162.42 106.009 162.668 104.65 162.917 103.291C163.032 102.656 163.148 102.021 163.267 101.367C163.375 100.782 163.483 100.197 163.594 99.5945C163.688 99.0811 163.782 98.5677 163.879 98.0384C164.151 96.7326 164.151 96.7326 164.717 95.0345C164.404 95.0401 164.091 95.0463 163.769 95.0526C143.887 95.3775 143.887 95.3775 136.981 90.5061C134.717 87.942 134.717 87.942 134.717 87.1099ZM115.759 91.1786C111.621 96.6024 109.503 103.612 108.679 110.318C110.326 108.777 111.499 107.29 112.61 105.331C112.904 104.815 113.198 104.299 113.502 103.767C113.801 103.232 114.101 102.697 114.41 102.145C114.715 101.612 115.019 101.079 115.332 100.53C118.141 95.8179 118.141 95.8179 118.868 90.5061C116.719 90.2712 116.719 90.2712 115.759 91.1786ZM127.465 113.749C124.79 117.34 124.956 120.72 125.094 125.035C127.118 124.175 128.434 122.979 129.976 121.426C130.415 120.99 130.855 120.553 131.308 120.104C132.352 118.922 133.044 118.017 133.585 116.544C133.41 114.741 133.41 114.741 133.019 113.148C130.065 112.373 130.065 112.373 127.465 113.749Z" fill="white"/>
<path d="M183.396 106.921C183.77 107.108 184.143 107.295 184.528 107.487C184.784 110.55 184.253 112.248 182.815 114.939C182.085 116.316 181.698 117.233 181.698 118.808C182.335 120.388 183.11 121.862 183.962 123.336C187.32 120.442 189.054 116.622 191.11 112.757C191.396 112.235 191.682 111.713 191.977 111.176C192.232 110.698 192.487 110.221 192.749 109.73C193.585 108.619 193.585 108.619 194.817 108.177C195.158 108.136 195.498 108.095 195.849 108.053C195.522 110.053 195.008 111.618 194.044 113.397C193.791 113.865 193.538 114.332 193.278 114.814C193.006 115.303 192.734 115.792 192.453 116.297C192.174 116.799 191.894 117.302 191.607 117.821C185.681 128.312 185.681 128.312 180.566 131.261C178.347 131.305 177.512 131.018 175.896 129.492C173.841 126.116 173.567 122.692 173.561 118.844C173.547 118.414 173.533 117.983 173.519 117.54C173.502 114.306 174.259 111.897 176.038 109.185C178.289 107.07 180.368 106.792 183.396 106.921ZM181.132 108.619C179.862 109.645 179.862 109.645 179.89 111.1C179.903 111.613 179.916 112.125 179.929 112.652C179.939 113.168 179.95 113.683 179.96 114.214C179.973 114.609 179.986 115.004 180 115.412C181.645 113.281 181.645 113.281 182.83 110.884C182.661 109.64 182.661 109.64 182.264 108.619C181.89 108.619 181.517 108.619 181.132 108.619Z" fill="white"/>
<path d="M93.3958 98.9967C94.4572 99.6335 94.4572 99.6335 95.094 100.695C95.4172 102.82 95.2541 103.814 94.1741 105.683C92.5179 107.209 91.6864 107.579 89.4336 107.487C87.7711 106.32 87.7711 106.32 86.6034 104.657C86.5117 102.404 86.8819 101.573 88.4079 99.9166C90.277 98.8366 91.2709 98.6735 93.3958 98.9967Z" fill="white"/>
<path d="M152.264 119.94C152.83 120.506 152.83 120.506 153.007 122.382C152.83 124.468 152.83 124.468 151.91 125.848C150.198 126.975 149.182 126.995 147.17 126.733C146.037 125.601 146.037 125.601 145.79 123.69C146.037 121.638 146.037 121.638 147.24 120.223C149.228 119.186 150.146 119.314 152.264 119.94Z" fill="white"/>
</svg>
