<svg width="250" height="250" viewBox="0 0 250 250" fill="none" xmlns="http://www.w3.org/2000/svg">
<rect width="250" height="250" fill="#172D4B"/>
<path d="M40 94.5336H48.2976V116.663L55.6626 116.66C58.9979 116.658 60.7429 118.652 60.7429 121.11V123.575H40V94.5336Z" fill="white"/>
<path d="M74.8272 94.5337C64.3951 94.5337 59.3615 101.035 59.3615 109.054C59.3615 118.784 66.2857 123.575 74.8272 123.575C83.3688 123.575 90.2931 117.884 90.2931 109.054C90.2931 101.035 84.8992 94.5337 74.8272 94.5337ZM74.8272 100.976C79.8731 100.976 80.9625 105.873 80.9625 109.054C80.9625 112.557 79.3614 116.851 74.8272 116.851C70.0384 116.851 68.6922 112.914 68.6922 109.054C68.6922 105.985 69.734 100.976 74.8272 100.976Z" fill="white"/>
<path d="M100.411 123.575L88.6632 94.5337H98.7776L104.804 112.355L111.046 94.5337H120.371L108.599 123.575H100.411Z" fill="white"/>
<path d="M133.986 94.5337C123.827 94.5337 118.925 101.035 118.925 109.054C118.925 118.784 124.88 123.575 133.986 123.575C141.967 123.575 144.732 120.525 147.677 115.425L143.326 113.697C142.348 113.309 141.191 113.787 140.486 114.565C139.319 115.852 137.493 116.919 135.068 116.919C131.499 116.919 128.687 113.693 128.145 110.242L141.521 110.29H148.009C148.522 103.206 145.237 94.5337 133.986 94.5337ZM133.986 99.7662C138.616 99.7662 138.916 103.165 138.625 103.772C137.423 106.284 134.158 104.958 130.874 106.884C129.934 107.436 128.859 108.327 128.043 109.055V109.054C128.043 103.312 129.026 99.7662 133.986 99.7662Z" fill="white"/>
<path d="M133.986 94.5337C123.827 94.5337 118.925 101.035 118.925 109.054C118.925 118.784 124.88 123.575 133.986 123.575C141.967 123.575 144.732 120.525 147.677 115.425L143.326 113.697C142.348 113.309 141.191 113.787 140.486 114.565C139.319 115.852 137.493 116.919 135.068 116.919C131.499 116.919 128.687 113.693 128.145 110.242L141.521 110.29H148.009C148.522 103.206 145.237 94.5337 133.986 94.5337ZM133.986 99.7662C138.616 99.7662 138.916 103.165 138.625 103.772C137.423 106.284 134.158 104.958 130.874 106.884C129.934 107.436 128.859 108.327 128.043 109.055V109.054C128.043 103.312 129.026 99.7662 133.986 99.7662Z" fill="white"/>
<path d="M40 126.341H47.0649L59.5324 141.807V126.341H67.8297V155.381H61.96L48.4703 139.436V155.381H40V126.341Z" fill="white"/>
<path d="M85.8086 126.34C81.6281 126.34 77.7842 126.82 72.5125 128.805L73.9604 132.222C74.4168 133.3 75.7102 133.955 76.8578 133.727C79.2382 133.254 83.0317 132.633 84.7072 133.082C88.0533 133.978 88.054 137.455 88.054 137.455C88.054 137.455 79.8961 136.443 76.5541 138.344C73.3813 140.149 70.248 141.824 70.248 147.297C70.248 151.691 74.8146 155.55 79.6474 155.55C85.161 155.55 88.054 151.38 88.054 151.38V155.38H97.3875V136.041C97.3875 130.683 93.9355 126.34 85.8086 126.34ZM88.054 141.32V148.544C88.054 148.544 85.9951 149.422 84.1713 149.445C82.4912 149.466 79.7272 149.023 79.6052 146.749C79.398 142.887 82.5075 142.851 84.5651 142.546C86.8242 142.212 88.054 141.32 88.054 141.32Z" fill="white"/>
<path d="M99.289 126.34V133.254H107.24V155.38H116.402V133.254H129.292C131.012 133.254 132.477 134.864 132.477 134.864V130.041C132.477 127.917 131.62 126.34 126.616 126.34H99.289Z" fill="white"/>
<path d="M123.489 135.848V143.787C123.489 153.46 130.389 155.38 137.776 155.38C148.77 155.38 151.664 150.19 151.664 143.787V126.34H142.502V143.986C142.502 147.266 140.44 148.994 137.494 148.995C135.311 148.995 132.65 147.306 132.65 144.016C132.65 140.891 132.477 138.592 132.477 138.592C132.429 137.077 131.249 135.848 129.733 135.848H123.489Z" fill="white"/>
<path d="M154.602 126.34V155.38H163.418L163.474 143.331C163.474 143.331 165.339 142.642 166.288 144.202L173.096 155.38H183.232L175.016 142.025C175.016 142.025 180.644 138.664 179.055 132.733C177.339 126.33 170.3 126.34 170.3 126.34H154.602ZM163.418 132.733H168.138C168.138 132.733 170.445 133.143 170.56 134.782C170.739 137.35 169.635 137.242 166.331 139.167C165.084 139.893 163.762 142.588 163.762 142.588H163.418V132.733Z" fill="white"/>
<path d="M195.926 126.339C185.767 126.339 180.866 132.84 180.866 140.859C180.866 150.589 186.821 155.38 195.926 155.38C203.907 155.38 206.672 152.33 209.617 147.23L205.266 145.503C204.288 145.114 203.131 145.593 202.426 146.37C201.259 147.657 199.433 148.724 197.008 148.724C193.439 148.724 190.627 145.499 190.085 142.048L203.462 142.095H209.949C210.462 135.011 207.177 126.339 195.926 126.339ZM195.926 131.571C200.557 131.571 200.856 134.97 200.566 135.577C199.364 138.089 196.098 136.763 192.814 138.689C191.874 139.241 190.799 140.132 189.984 140.86V140.859C189.984 135.117 190.966 131.571 195.926 131.571Z" fill="white"/>
<path d="M181.105 123.844L168.563 111.194C168.563 111.194 172.327 111.821 175.404 108.744C178.589 105.559 183.497 100.606 187.281 96.7814C190.302 93.7271 195.212 93.7113 198.25 96.7494C199.547 98.2101 200.211 100.125 200.099 102.075C199.987 104.025 199.107 105.851 197.652 107.153L181.105 123.844Z" fill="#FF6C5A"/>
<path d="M179.382 101.842L173.973 96.6168C170.946 93.6928 166.134 93.7335 163.157 96.7083C160.462 99.6708 160.669 104.255 163.621 106.962C166.574 109.86 170.393 110.756 174.228 106.893L179.382 101.842Z" fill="#FF6C5A"/>
</svg>
