<svg width="250" height="250" viewBox="0 0 250 250" fill="none" xmlns="http://www.w3.org/2000/svg">
<rect width="250" height="250" fill="#172D4B"/>
<mask id="mask0_363_2537" style="mask-type:luminance" maskUnits="userSpaceOnUse" x="40" y="83" width="170" height="85">
<path d="M210 83.5644H40V167.248H210V83.5644Z" fill="white"/>
</mask>
<g mask="url(#mask0_363_2537)">
<path d="M46.9438 115.364L59.3906 130.752V115.364H67.7761V144.401H61.9535L48.3884 128.36V144.401H40V115.364H46.9438ZM174.748 130.882C175.494 130.472 177.278 129.406 178.398 126.984C178.854 125.958 179.103 124.81 179.103 123.66C179.103 121.24 177.86 116.89 172.469 115.782C171.101 115.495 169.815 115.364 167.992 115.364H154.352V144.424H163.391V132.401C163.391 132.401 165.193 131.477 166.526 133.566C167.118 134.492 173.05 144.425 173.05 144.425H183.124L174.749 130.883L174.748 130.882ZM163.39 121.814H166.207C167.121 121.814 168.594 121.814 169.341 122.347C169.881 122.675 170.378 123.374 170.378 124.317C170.378 125.383 169.756 126.369 168.678 126.779C168.139 126.984 167.041 127.517 166.279 128.034C164.873 128.987 163.391 131.703 163.391 131.703L163.39 121.814ZM108.427 112.671L120.409 83.6237H110.914L104.696 101.516L98.6017 83.6237H88.4453L100.259 112.671H108.427ZM139.836 104.173C140.549 103.465 141.609 102.141 143.56 102.941C145.202 103.615 146.01 103.989 147.509 104.566C143.689 112.402 136.536 112.67 134.649 112.67C120.002 112.67 118.73 102.445 118.73 98.1236C118.731 89.315 124.531 83.6227 133.509 83.6227C138.379 83.6227 142.128 85.1235 144.648 88.0791C147.44 91.3418 147.883 95.3238 147.883 98.1847C147.883 98.7109 147.823 99.3373 147.823 99.3373C147.823 99.3373 147.259 99.3325 146.952 99.3325H128.163V99.4761C128.163 99.9936 128.925 103.564 131.395 105.059C133.751 106.484 137.372 106.629 139.836 104.173ZM127.989 98.2565C130.368 96.2211 130.827 95.2129 136.388 94.4218C138.924 94.0612 138.996 91.6938 137.737 90.305C136.765 89.2318 135.365 88.743 133.849 88.743C132.701 88.743 128.833 89.0911 127.997 94.5519C127.809 96.2086 127.952 97.4061 127.989 98.2565ZM201.797 135.927C202.51 135.218 203.569 133.895 205.519 134.694C207.161 135.368 207.969 135.742 209.467 136.319C205.647 144.153 198.498 144.421 196.612 144.421C181.971 144.421 180.699 134.2 180.699 129.88C180.699 121.075 186.497 115.366 195.471 115.366C200.34 115.366 204.086 116.885 206.606 119.839C209.397 123.1 209.839 127.081 209.839 129.941C209.839 130.466 209.779 131.094 209.779 131.094C209.779 131.094 209.216 131.089 208.909 131.089H190.127V131.233C190.127 131.75 190.887 135.319 193.358 136.814C195.712 138.238 199.334 138.382 201.796 135.929L201.797 135.927ZM189.953 130.012C192.332 127.978 192.79 126.969 198.349 126.179C200.884 125.819 200.958 123.452 199.697 122.064C198.725 120.992 197.327 120.502 195.81 120.502C194.662 120.502 190.796 120.85 189.961 126.308C189.773 127.965 189.917 129.162 189.953 130.012ZM97.4317 144.217C97.4317 144.332 97.3376 144.425 97.2234 144.425H88.3377C88.2303 144.425 88.141 144.342 88.1304 144.236C88.0402 143.256 88.019 142.288 87.9874 141.008L87.9682 140.242C87.3789 140.842 86.1607 142.054 85.2776 142.767C83.9347 143.851 82.0649 144.4 79.7199 144.4C79.4981 144.4 79.2736 144.395 79.048 144.386C71.7317 144.086 70.148 137.611 70.148 136.024C70.148 131.129 73.401 128.676 76.1299 127.479C78.2331 126.619 80.7633 126.201 83.8714 126.201C85.5618 126.201 87.0785 126.392 87.9384 126.511C87.7522 124.107 86.9968 121.746 81.8116 121.878C80.4207 121.913 79.2851 122.174 78.1476 122.443C74.4751 123.31 74.3043 122.299 72.444 117.819C77.9786 115.965 81.6291 115.362 84.9638 115.362C87.7293 115.362 91.2433 115.509 93.8053 117.618C97.187 120.406 97.1879 123.685 97.1879 125.378V137.167C97.1879 140.148 97.2637 142.571 97.4134 144.131C97.425 144.157 97.4317 144.185 97.4317 144.214V144.217ZM79.4953 135.173C79.4953 137.224 81.0907 138.4 83.8705 138.4C85.6924 138.4 87.2953 137.772 87.9557 137.497V130.346C86.443 131.219 84.5914 131.464 83.4538 131.614C83.0411 131.669 82.7167 131.712 82.5382 131.765C79.7919 132.5 79.4953 134.394 79.4953 135.173ZM142.373 115.363L142.393 131.758C142.393 133.519 142.393 134.791 141.439 136.102C140.237 137.783 138.455 137.864 137.584 137.864C136.839 137.864 134.724 137.864 133.438 135.979C132.525 134.626 132.525 133.069 132.525 130.692C132.525 130.692 132.45 130.457 132.45 127.969C132.45 125.481 130.452 124.763 128.527 124.763H123.261L123.28 132.864C123.28 134.954 123.489 139.012 127.262 141.758C129.46 143.356 132.816 144.422 137.377 144.422C143.847 144.422 148.281 142.7 150.312 138.807C151.597 136.388 151.597 133.151 151.597 131.879L151.578 115.362H142.374L142.373 115.363ZM126.298 115.363H99.1623L99.1191 122.316H107.079L107.1 143.197V144.4H116.386V144.131L116.365 122.316H126.283C128.295 122.316 131.404 121.989 132.403 124.017V120.698C132.403 117.084 131.93 115.363 126.298 115.363ZM90.1116 97.8682C90.1116 104.948 85.3554 112.57 74.9205 112.57C65.3774 112.57 59.2101 106.846 59.2101 97.9867C59.2101 89.1275 65.458 83.5644 74.7612 83.5644C82.1552 83.5644 90.1116 88.0409 90.1116 97.8682ZM80.7375 98.1073C80.7375 94.2477 79.1671 90.1232 74.7612 90.1232C71.0071 90.1232 68.5834 93.2109 68.5834 97.9867C68.5834 102.763 70.9198 105.852 74.6816 105.852C78.8637 105.852 80.7375 101.962 80.7375 98.1073ZM60.6903 110.119C60.6903 107.538 58.567 105.675 55.3092 105.675H50.3936H48.1292V83.6256H40V112.667L60.7133 112.677C60.7133 112.677 60.6903 111.888 60.6903 110.119Z" fill="white"/>
<path d="M197.783 96.0403L189.739 104.04C188.414 105.356 180.965 112.799 180.965 112.799C180.965 112.799 170.733 102.658 168.266 100.2C170.77 100.685 172.736 99.741 174.519 98.3483C175.465 97.609 176.356 96.7854 177.207 95.9369C180.837 92.3175 183.73 89.4135 187.411 85.7242C190.271 82.8585 194.922 82.8518 197.789 85.7099C200.651 88.5632 200.65 93.1899 197.783 96.0403Z" fill="#FF6C5A"/>
<path d="M173.612 85.5348C172.313 84.3229 170.496 83.5701 168.485 83.5701C166.082 83.5701 163.957 84.6443 162.659 86.2924C162.305 86.742 162.013 87.2346 161.793 87.7597C160.623 90.4207 161.13 93.6375 163.317 95.8155L163.898 96.3962C166.848 99.2522 170.333 99.2187 173.438 96.4353C176.544 93.6528 179.135 90.9573 179.135 90.9573L173.612 85.5348Z" fill="#FF6C5A"/>
<path d="M129.881 159.104V167.248H135.367L129.881 159.104Z" fill="#FF6C5A"/>
<path d="M121.881 164.182V167.248H125.091V150.414H119.389L114.802 160.267H117.21V157.426H121.881V160.267H123.295V164.182H121.881Z" fill="#FF6C5A"/>
<path d="M140.884 150.414L134.913 158.449L141.112 167.248H210V150.414H140.884Z" fill="#FF6C5A"/>
<path d="M117.21 164.182H109.209V161.627L114.311 150.414H40.1008V167.248H117.21V164.182Z" fill="#FF6C5A"/>
<path d="M129.881 150.414V157.917L135.115 150.414H129.881Z" fill="#FF6C5A"/>
</g>
</svg>
