<svg width="250" height="250" viewBox="0 0 250 250" fill="none" xmlns="http://www.w3.org/2000/svg">
<rect width="250" height="250" fill="#172D4B"/>
<path d="M35 93.0883H43.7858V116.52L51.5839 116.516C55.1155 116.514 56.9631 118.626 56.9631 121.228V123.838H35V93.0883Z" fill="white"/>
<path d="M71.8755 93.0883C60.8297 93.0883 55.5 99.9718 55.5 108.463C55.5 118.765 62.8315 123.838 71.8755 123.838C80.9195 123.838 88.2512 117.812 88.2512 108.463C88.2512 99.9718 82.54 93.0883 71.8755 93.0883ZM71.8755 99.9093C77.2182 99.9093 78.3716 105.095 78.3716 108.463C78.3716 112.172 76.6764 116.719 71.8755 116.719C66.805 116.719 65.3796 112.55 65.3796 108.463C65.3796 105.214 66.4827 99.9093 71.8755 99.9093Z" fill="white"/>
<path d="M98.9641 123.838L86.5254 93.0883H97.2348L103.616 111.957L110.225 93.0883H120.099L107.634 123.838H98.9641Z" fill="white"/>
<path d="M134.515 93.0883C123.758 93.0883 118.568 99.9718 118.568 108.463C118.568 118.765 124.874 123.838 134.515 123.838C142.966 123.838 145.893 120.608 149.011 115.208L144.405 113.379C143.369 112.968 142.144 113.475 141.397 114.298C140.161 115.661 138.228 116.79 135.66 116.79C131.882 116.79 128.904 113.375 128.331 109.721L142.494 109.771H149.363C149.906 102.271 146.427 93.0883 134.515 93.0883ZM134.515 98.6286C139.418 98.6286 139.735 102.227 139.427 102.871C138.155 105.53 134.697 104.126 131.22 106.165C130.224 106.749 129.087 107.693 128.223 108.464V108.463C128.223 102.383 129.263 98.6286 134.515 98.6286Z" fill="white"/>
<path d="M134.515 93.0883C123.758 93.0883 118.568 99.9718 118.568 108.463C118.568 118.765 124.874 123.838 134.515 123.838C142.966 123.838 145.893 120.608 149.011 115.208L144.405 113.379C143.369 112.968 142.144 113.475 141.397 114.298C140.161 115.661 138.228 116.79 135.66 116.79C131.882 116.79 128.904 113.375 128.331 109.721L142.494 109.771H149.363C149.906 102.271 146.427 93.0883 134.515 93.0883ZM134.515 98.6286C139.418 98.6286 139.735 102.227 139.427 102.871C138.155 105.53 134.697 104.126 131.22 106.165C130.224 106.749 129.087 107.693 128.223 108.464V108.463C128.223 102.383 129.263 98.6286 134.515 98.6286Z" fill="white"/>
<path d="M35 126.766H42.4805L55.6814 143.142V126.766H64.4668V157.514H58.2518L43.9686 140.631V157.514H35V126.766Z" fill="white"/>
<path d="M83.5034 126.766C79.077 126.766 75.0069 127.274 69.4251 129.375L70.9581 132.994C71.4414 134.135 72.8109 134.828 74.026 134.587C76.5464 134.086 80.5631 133.429 82.3372 133.904C85.8801 134.853 85.8809 138.535 85.8809 138.535C85.8809 138.535 77.2431 137.463 73.7044 139.476C70.345 141.387 67.0273 143.161 67.0273 148.955C67.0273 153.608 71.8626 157.694 76.9797 157.694C82.8177 157.694 85.8809 153.279 85.8809 153.279V157.514H95.7634V137.037C95.7634 131.364 92.1084 126.766 83.5034 126.766ZM85.8809 142.627V150.276C85.8809 150.276 83.7008 151.205 81.7697 151.23C79.9908 151.252 77.0642 150.783 76.935 148.375C76.7156 144.286 80.0081 144.247 82.1867 143.925C84.5787 143.572 85.8809 142.627 85.8809 142.627Z" fill="white"/>
<path d="M97.7764 126.766V134.087H106.195V157.514H115.896V134.087H129.544C131.366 134.087 132.917 135.791 132.917 135.791V130.684C132.917 128.436 132.009 126.766 126.711 126.766H97.7764Z" fill="white"/>
<path d="M123.4 136.833V145.239C123.4 155.481 130.706 157.514 138.527 157.514C150.168 157.514 153.233 152.018 153.233 145.239V126.766H143.532V145.45C143.532 148.923 141.349 150.752 138.229 150.753C135.918 150.754 133.101 148.965 133.101 145.482C133.101 142.173 132.917 139.739 132.917 139.739C132.866 138.134 131.616 136.833 130.012 136.833H123.4Z" fill="white"/>
<path d="M156.344 126.766V157.514H165.678L165.738 144.757C165.738 144.757 167.712 144.027 168.718 145.678L175.926 157.514H186.658L177.959 143.374C177.959 143.374 183.918 139.815 182.235 133.535C180.418 126.755 172.966 126.766 172.966 126.766H156.344ZM165.678 133.535H170.676C170.676 133.535 173.119 133.968 173.24 135.704C173.43 138.423 172.262 138.309 168.762 140.347C167.443 141.116 166.043 143.97 166.043 143.97H165.678V133.535Z" fill="white"/>
<path d="M200.099 126.764C189.342 126.764 184.152 133.648 184.152 142.139C184.152 152.441 190.458 157.514 200.099 157.514C208.55 157.514 211.477 154.284 214.595 148.884L209.989 147.055C208.953 146.644 207.728 147.151 206.981 147.974C205.745 149.337 203.812 150.466 201.244 150.466C197.466 150.466 194.488 147.051 193.915 143.397L208.078 143.447H214.947C215.49 135.947 212.011 126.764 200.099 126.764ZM200.099 132.305C205.002 132.305 205.319 135.904 205.011 136.547C203.739 139.206 200.281 137.802 196.804 139.841C195.808 140.425 194.671 141.369 193.807 142.14V142.139C193.807 136.059 194.847 132.305 200.099 132.305Z" fill="white"/>
<path d="M184.406 124.123L171.126 110.728C171.126 110.728 175.112 111.393 178.37 108.135C181.742 104.763 186.939 99.5178 190.945 95.4683C194.144 92.2343 199.343 92.2176 202.56 95.4344C203.932 96.9811 204.636 99.0085 204.518 101.073C204.399 103.138 203.467 105.071 201.927 106.45L184.406 124.123Z" fill="#FF6C5A"/>
<path d="M182.581 100.827L176.854 95.294C173.649 92.198 168.554 92.2411 165.402 95.3909C162.548 98.5277 162.768 103.382 165.893 106.248C169.02 109.316 173.063 110.265 177.124 106.175L182.581 100.827Z" fill="#FF6C5A"/>
</svg>
