<svg width="250" height="250" viewBox="0 0 250 250" fill="none" xmlns="http://www.w3.org/2000/svg">
<rect width="250" height="250" fill="#1A34DF"/>
<path d="M93.0107 50.9772V199.023" stroke="white" stroke-width="5.42725"/>
<path d="M146.079 124.91C146.116 131.898 144.771 138.826 142.122 145.293C139.473 151.76 135.572 157.64 130.643 162.595C125.714 167.55 119.855 171.482 113.402 174.165C106.948 176.848 100.029 178.229 93.0397 178.229C86.0509 178.229 79.131 176.848 72.6777 174.165C66.2244 171.482 60.365 167.55 55.4362 162.595C50.5074 157.64 46.6064 151.76 43.9575 145.293C41.3086 138.826 39.9639 131.898 40.0007 124.91C39.9639 117.921 41.3086 110.994 43.9575 104.527C46.6064 98.0592 50.5074 92.1791 55.4362 87.2242C60.365 82.2694 66.2244 78.3374 72.6777 75.6544C79.131 72.9714 86.0509 71.5902 93.0397 71.5902C100.029 71.5902 106.948 72.9714 113.402 75.6544C119.855 78.3374 125.714 82.2694 130.643 87.2242C135.572 92.1791 139.473 98.0592 142.122 104.527C144.771 110.994 146.116 117.921 146.079 124.91Z" stroke="white" stroke-width="5.4274"/>
<path d="M180.467 115.618V134.249H183.898V120.575L188.44 134.249H191.834L196.373 120.575V134.249H199.804V115.618H194.505L190.16 128.849L185.766 115.618H180.467ZM203.539 115.618V119.547H206.477V134.249H210V115.618H203.539Z" fill="white"/>
</svg>
