<?xml version="1.0" encoding="UTF-8"?>
<svg xmlns="http://www.w3.org/2000/svg" version="1.1" viewBox="0 0 283.5 283.5">
  <defs>
    <style>
      .cls-1 {
        fill: #fff;
      }

      .cls-2 {
        fill: #1a34df;
      }
    </style>
  </defs>
  <!-- Generator: Adobe Illustrator 28.7.1, SVG Export Plug-In . SVG Version: 1.2.0 Build 142)  -->
  <g>
    <g id="Vrstva_1">
      <g id="Vrstva_1-2">
        <rect class="cls-2" width="283.5" height="283.5"/>
      </g>
      <g>
        <g>
          <path id="path31" class="cls-1" d="M111.7,215.2h-.1v38h7v-27.5l9.1,26.4.4,1.1h6.2l.4-1.1,9.3-27.1v28.2h7v-38h-10.7l-1.4,4-7.8,22.7-7.8-22.7-1.4-4h-10.3Z"/>
          <polygon class="cls-1" points="171.8 215.2 171.8 253.2 164.8 253.2 164.8 222.6 158.8 222.6 158.8 215.2 171.8 215.2"/>
        </g>
        <path class="cls-1" d="M189.3,70.5c-12.6-12.6-29.7-19.7-47.6-19.7-37.1,0-67.3,30.2-67.3,67.3s7.1,35,19.7,47.6c12.6,12.6,29.7,19.7,47.6,19.7s35-7.1,47.6-19.7,19.7-29.7,19.7-47.6-7.1-35-19.7-47.6ZM181.3,157.6c-10.5,10.5-24.7,16.4-39.5,16.4s-29-5.9-39.5-16.4c-10.5-10.5-16.4-24.7-16.4-39.5,0-30.9,25-55.9,55.9-55.9s29,5.9,39.5,16.4c10.5,10.5,16.4,24.7,16.4,39.5s-5.9,29-16.4,39.5Z"/>
        <path class="cls-1" d="M136,65v106.4h11.4v-106.4h-11.4ZM147.4,186.7h-11.4v19.3h11.4v-19.3ZM136,30.3v19.3h11.4v-19.3h-11.4Z"/>
      </g>
    </g>
  </g>
</svg>