<svg width="250" height="250" viewBox="0 0 250 250" fill="none" xmlns="http://www.w3.org/2000/svg">
<rect width="250" height="250" fill="#D816A7"/>
<path d="M204.029 115.987C200.188 115.987 198.172 118.116 198.172 122.11H201.595C201.481 121.425 201.557 120.55 201.937 119.942C202.356 119.257 203.002 118.953 204.029 118.915C205.056 118.953 205.626 119.257 206.045 119.942C206.539 120.817 206.691 122.148 205.893 123.213C204.752 125.152 202.812 126.179 201.405 127.282C199.732 128.575 198.096 129.754 198.02 130.743V133.747H198.591H198.819H210V130.743H202.28C202.736 130.21 203.23 129.716 204.105 129.069C205.436 128.043 207.604 126.711 208.707 125.266C209.468 124.277 209.772 123.098 209.886 121.919C210.038 120.398 209.544 119.105 209.049 118.306C207.908 116.595 205.512 115.987 204.029 115.987Z" fill="white"/>
<path d="M97.3324 55.0604V194.94H104.939V55.0604H97.3324Z" fill="white"/>
<path d="M82.1199 55.0604V194.94H89.7262V55.0604H82.1199Z" fill="white"/>
<path d="M176.532 116.253H176.456V133.747H179.689V121.083L183.872 133.215L184.063 133.747H186.953L187.143 133.215L191.441 120.778V133.747H194.673V118.078V116.215H194.521H189.767L189.121 118.078L185.546 128.499L181.971 118.078L181.324 116.215L176.532 116.253Z" fill="white"/>
<path d="M93.5481 71.4519C64.0358 71.4519 40 95.4877 40 125C40 154.512 64.0358 178.548 93.5481 178.548C123.06 178.548 147.096 154.512 147.096 125C147.096 95.4877 123.06 71.4519 93.5481 71.4519ZM93.5481 79.0582C118.953 79.0582 139.49 99.5951 139.49 125C139.49 150.405 118.953 170.942 93.5481 170.942C68.1432 170.942 47.6063 150.443 47.6063 125C47.6063 99.557 68.1432 79.0582 93.5481 79.0582Z" fill="white"/>
</svg>
