<svg width="250" height="250" viewBox="0 0 250 250" fill="none" xmlns="http://www.w3.org/2000/svg">
<rect width="250" height="250" fill="#55C0EB"/>
<path d="M204.151 115.911C200.524 115.911 198.437 117.753 198.437 121.43H201.683C201.678 120.792 201.763 120.085 202.032 119.628C202.455 118.943 203.121 118.666 204.151 118.645C206.02 118.82 206.098 120.048 206.098 121.43C205.67 123.027 204.34 123.2 202.724 123.2V124.648V126.095C206.248 126.095 206.487 127.757 206.487 128.461C206.486 129.844 206.033 131.177 203.847 131.382C202.816 131.361 202.151 130.949 201.728 130.263C201.459 129.807 201.374 129.099 201.379 128.461H198.132C198.132 132.139 200.219 134.116 203.847 134.116C207.212 134.116 210 132.299 210 128.461C210 126.141 208.366 124.854 207.377 124.589C209.651 122.882 210.158 120.398 208.939 118.289C207.853 116.516 205.651 115.934 204.151 115.911Z" fill="white"/>
<path d="M76.5198 54.6107V195.389H83.5999V54.6107H76.5198Z" fill="white"/>
<path d="M90.3452 54.6107V195.389H97.4254V54.6107H90.3452Z" fill="white"/>
<path d="M104.171 54.6107V195.389H111.251V54.6107H104.171Z" fill="white"/>
<path d="M177.376 116.193V116.202H177.316V133.807H180.569V121.071L184.773 133.279L184.955 133.807H187.845L188.026 133.279L192.341 120.749V133.807H195.594V118.055V116.193H195.423H190.657L190.015 118.055L186.4 128.556L182.784 118.055L182.143 116.193L177.376 116.193Z" fill="white"/>
<path d="M93.8853 71.1147C64.1708 71.1147 40 95.2855 40 125C40 154.715 64.1708 178.885 93.8853 178.885C123.6 178.885 147.771 154.715 147.771 125C147.771 95.2855 123.6 71.1147 93.8853 71.1147ZM93.8853 78.769C119.463 78.769 140.116 99.4222 140.116 125C140.116 150.578 119.463 171.231 93.8853 171.231C68.3074 171.231 47.6542 150.578 47.6542 125C47.6542 99.4222 68.3074 78.769 93.8853 78.769Z" fill="white"/>
</svg>
