<svg width="250" height="250" viewBox="0 0 250 250" fill="none" xmlns="http://www.w3.org/2000/svg">
<rect width="250" height="250" fill="#930000"/>
<path d="M189.783 144.012H115.132L135.35 105.988H210L189.783 144.012Z" fill="white"/>
<path d="M115.132 144.012H46.7363V132.248L60.6993 105.988H135.35L115.132 144.012Z" fill="#E3E3E3"/>
<path d="M57.366 105.988L43.4037 132.248V144.012H40V132.248L53.9621 105.988H57.366Z" fill="white"/>
<path d="M132.027 129.41H138.542C139.737 129.41 140.407 128.949 140.407 128.027C140.407 127.106 139.841 126.707 138.479 126.498L135.714 126.078C133.472 125.743 132.216 124.758 132.216 122.79C132.216 120.821 133.536 119.773 136.112 119.773H141.642L141.894 121.659H136.048C134.854 121.659 134.352 122.056 134.352 122.811C134.352 123.608 134.897 124.005 136.112 124.194L139.024 124.613C141.433 124.969 142.628 125.911 142.628 127.986C142.628 130.059 141.182 131.296 138.564 131.296H132.279L132.027 129.41Z" fill="#850000"/>
<path d="M156.768 125.618C156.768 129.514 154.988 131.505 150.547 131.505C149.31 131.505 148.263 131.317 147.216 130.982V135.067H144.995V119.774H146.859L147.131 121.66C148.304 120.193 149.771 119.564 151.74 119.564C155.008 119.564 156.768 121.66 156.768 125.618ZM154.485 125.556C154.485 123.021 153.542 121.554 151.091 121.554C149.289 121.554 148.074 122.518 147.215 123.942V129.054C148.368 129.41 149.603 129.557 150.651 129.557C153.27 129.557 154.485 128.217 154.485 125.556Z" fill="#850000"/>
<path d="M158.738 125.534C158.738 121.575 160.875 119.564 165.002 119.564C169.128 119.564 171.245 121.575 171.245 125.534C171.245 129.494 169.107 131.504 165.002 131.504C160.896 131.504 158.738 129.493 158.738 125.534ZM168.961 125.534C168.961 122.811 167.662 121.533 165.002 121.533C162.341 121.533 161.022 122.811 161.022 125.534C161.022 128.258 162.32 129.536 165.002 129.536C167.683 129.536 168.961 128.258 168.961 125.534Z" fill="#850000"/>
<path d="M181.991 121.638H179.917C178.011 121.638 176.879 122.518 176.041 124.026V131.296H173.82V119.774H175.684L175.978 121.702C177.046 120.256 178.387 119.67 180.231 119.67H181.677L181.991 121.638Z" fill="#850000"/>
<path d="M191.816 129.514L191.523 131.42H189.113C185.719 131.42 184.316 130.164 184.316 126.895V121.699H182.536L182.85 119.772H184.4L184.966 116.629H186.536V119.772H191.187V121.699H186.536V127.02C186.536 128.926 187.458 129.513 189.323 129.513L191.816 129.514Z" fill="#850000"/>
<path d="M100.828 116.655V133.283H97.8825V121.62L92.8466 127.724H90.7084L85.6725 121.62V133.283H82.7502V116.655H85.1498L91.8003 124.802L98.4275 116.655H100.828Z" fill="#850000"/>
<path d="M119.16 129.362H116.904V133.282H113.793V129.362H103.223V126.892L108.644 116.654H112.231L106.929 126.654H113.794V123.811H116.905V126.654H119.566L119.162 129.361L119.16 129.362Z" fill="#850000"/>
<path d="M72.8141 114.997L74.3096 112.428L72.3695 111.308L70.6494 114.261C69.8705 114.085 69.0612 113.988 68.2295 113.988C62.1873 113.988 57.2714 118.904 57.2714 124.945C57.2714 129.315 59.8425 133.094 63.5515 134.852L62.0196 137.525L63.96 138.645L65.7004 135.606C66.5125 135.799 67.3588 135.903 68.2285 135.903C74.2707 135.903 79.1866 130.987 79.1866 124.944C79.1866 120.539 76.5727 116.736 72.8141 114.997ZM59.5598 124.945C59.5598 121.506 61.5731 118.529 64.4815 117.129L60.3223 124.29L62.2624 125.41L67.5432 116.306C67.7703 116.288 67.9985 116.276 68.2295 116.276C68.6361 116.276 69.0358 116.307 69.4278 116.361L61.3577 130.224C60.2315 128.76 59.5598 126.93 59.5598 124.945ZM63.0015 131.857L71.6586 116.983C72.23 117.23 72.7682 117.537 73.2684 117.896L64.6942 132.86C64.0906 132.589 63.5232 132.253 63.0015 131.857ZM71.8215 132.835L76.209 125.291C76.209 125.291 76.209 125.282 76.209 125.277L74.2746 124.16L68.795 133.597C68.6078 133.608 68.4197 133.617 68.2295 133.617C67.7772 133.617 67.3335 133.582 66.8996 133.515L74.9454 119.469C76.1661 120.962 76.9003 122.87 76.9003 124.945C76.9003 128.446 74.8149 131.467 71.8215 132.835Z" fill="#850000"/>
</svg>
