<svg width="250" height="250" viewBox="0 0 250 250" fill="none" xmlns="http://www.w3.org/2000/svg">
<rect width="250" height="250" fill="#F6B707"/>
<path d="M178.522 116.861V116.869H178.467H178.061V133.298H178.467V133.289H181.485V121.416V121.411L181.487 121.416H181.498L185.746 133.289H186.896H188.046L192.293 121.416H192.304L192.306 121.411V121.416V133.289H195.325V133.298H195.731V116.869H195.325H195.269V116.861H190.846L190.251 118.599L186.896 128.016L183.541 118.599L182.946 116.861L178.522 116.861Z" fill="white"/>
<path d="M198.981 116.861V119.716V121.36V126.152H201.835C202.257 125.73 203.244 125.023 204.266 125C207.745 125 207.824 131.093 204.266 131.093C203.054 131.093 201.492 130.015 201.492 128.724H198.514C198.514 130.152 199.01 133.44 204.2 133.666C206.608 133.711 210 132.054 210 128.046C210 123.587 207.014 122.374 204.2 122.427C203.266 122.468 202.339 122.633 201.835 123.137V119.716H209.374V116.861H205.896H198.981Z" fill="white"/>
<path d="M100.032 73.9058C71.8561 73.9058 48.9377 96.8241 48.9377 125C48.9377 138.549 54.3218 151.548 63.9028 161.129C73.4838 170.71 86.4822 176.094 100.032 176.094C113.581 176.094 126.58 170.71 136.161 161.129C145.742 151.548 151.126 138.549 151.126 125C151.126 111.45 145.742 98.4518 136.161 88.8708C126.58 79.2898 113.581 73.9058 100.032 73.9058ZM100.032 81.1311C111.668 81.1311 122.824 85.7521 131.052 93.9801C139.28 102.208 143.9 113.364 143.9 125C143.9 136.636 139.28 147.792 131.052 156.02C122.824 164.248 111.668 168.869 100.032 168.869C88.3957 168.869 77.24 164.248 69.0121 156.02C60.7841 147.792 56.1631 136.636 56.1631 125C56.1631 100.729 75.761 81.1311 100.032 81.1311Z" fill="white"/>
<path d="M123.505 93.7826V100.421H159.058V93.7826H123.505Z" fill="white"/>
<path d="M56.3249 121.357C56.2872 121.816 56.2434 122.275 56.2199 122.739C56.1821 123.487 56.1631 124.241 56.1631 125C56.1631 125.727 56.1811 126.453 56.2169 127.175C56.2305 127.45 56.2593 127.721 56.278 127.995H143.786C143.804 127.721 143.833 127.45 143.847 127.175C143.882 126.453 143.9 125.727 143.9 125C143.9 124.273 143.882 123.547 143.847 122.824C143.822 122.333 143.778 121.845 143.737 121.357H56.3249Z" fill="white"/>
<path d="M57.4694 135.619C57.4755 135.643 57.4799 135.669 57.4861 135.693C57.6604 136.387 57.8513 137.076 58.059 137.759C58.2667 138.442 58.4911 139.12 58.7317 139.792C58.9723 140.463 59.2292 141.129 59.5022 141.788C59.5676 141.946 59.6428 142.1 59.7101 142.257H99.9605V135.619H57.4694Z" fill="white"/>
<path d="M40 150.02V156.658H77.5742V150.02H40Z" fill="white"/>
<path d="M142.409 113.697C142.279 113.21 142.151 112.722 142.005 112.241C141.797 111.558 141.573 110.88 141.332 110.208C141.092 109.537 140.835 108.871 140.562 108.212C140.401 107.824 140.223 107.443 140.051 107.059H99.8887V113.697H142.409Z" fill="white"/>
</svg>
