<svg width="250" height="250" viewBox="0 0 250 250" fill="none" xmlns="http://www.w3.org/2000/svg">
<rect width="250" height="250" fill="#F47440"/>
<path d="M209.998 124.448C210.297 170.862 172.88 209.208 126.433 209.972C77.9612 210.768 38.453 170.795 40.0466 122.19C41.5406 76.839 78.8244 40.4184 124.242 40.02C151.002 39.7876 174.972 51.9721 190.742 71.1617C191.074 71.5601 191.24 72.0582 191.24 72.523C191.24 73.1206 190.975 73.7514 190.477 74.183C189.58 74.9466 188.219 74.8138 187.489 73.9174C170.623 53.3665 143.83 41.2816 114.415 45C78.8244 49.5484 50.3718 77.4034 45.2258 112.894C36.9922 169.567 87.722 217.143 145.125 203.265C171.353 196.924 197.814 169.866 203.657 143.472C206.512 130.623 206.28 118.074 203.591 106.52C203.325 105.424 203.956 104.329 205.018 103.997C206.213 103.598 207.475 104.329 207.774 105.557C209.168 111.633 209.965 117.974 209.998 124.448Z" fill="white"/>
<path fill-rule="evenodd" clip-rule="evenodd" d="M194.959 85.637C194.959 86.135 195.091 86.5002 195.357 86.799C197.648 90.2186 198.843 92.3766 200.403 96.3274C201.034 97.589 203.325 97.6886 204.022 96.3606C204.122 96.1946 205.085 93.5054 205.45 92.6754C205.45 92.6754 206.678 89.8866 206.711 89.8202C206.745 89.7538 207.641 87.9278 207.641 87.9278C207.774 87.6622 207.973 87.3302 208.039 87.0314C208.073 86.8986 208.106 86.7658 208.106 86.6662V86.4006C208.073 85.8694 207.774 85.3714 207.342 85.0394C207.276 84.973 207.143 84.9066 207.077 84.8734C206.811 84.7406 206.579 84.7074 206.247 84.7074C206.047 84.7074 205.848 84.7406 205.715 84.807C205.417 84.9066 205.151 85.0726 204.919 85.305C204.819 85.4378 204.753 85.5706 204.653 85.7034C204.587 85.8362 202.13 91.0486 202.13 91.0486C202.13 90.949 200.071 87.3634 199.275 86.0354C199.075 85.7366 198.245 84.475 197.947 84.2426C197.449 83.811 196.685 83.7114 196.054 83.977C195.423 84.309 194.959 84.9398 194.959 85.637Z" fill="white"/>
<path fill-rule="evenodd" clip-rule="evenodd" d="M185.928 85.6702C185.928 86.1018 186.061 86.5002 186.327 86.799C186.426 86.9318 186.426 86.9318 186.559 87.0314C186.758 87.1642 187.123 87.3302 187.389 87.297C187.389 87.297 188.186 87.2638 188.285 87.2638C188.285 87.9278 188.285 88.5586 188.285 89.2226C188.285 89.3554 188.285 92.2438 188.285 92.4098C188.252 93.1402 188.385 94.0698 188.385 94.0698C188.418 94.4018 188.451 94.601 188.551 94.933C189.281 96.593 191.805 98.7511 193.099 96.6926C193.963 95.3314 192.469 94.269 192.269 93.605C191.937 92.4762 192.137 87.297 192.137 87.0978C192.535 87.0978 192.801 87.0978 193.199 86.9318C193.498 86.799 193.83 86.4338 193.963 86.1018C194.228 85.5042 194.129 84.8402 193.697 84.3422C193.631 84.2426 193.664 84.2758 193.564 84.2094C193.531 84.2094 193.531 84.1762 193.498 84.1762C193.232 83.9438 192.834 83.811 192.469 83.8442H192.137V83.0142C192.137 81.4206 192.07 79.5946 190.211 79.6278C188.319 79.661 188.319 81.7858 188.319 83.2466V83.7114C188.285 84.1098 188.451 84.0102 187.688 84.0434C187.057 84.0434 186.559 84.1762 186.161 84.7406C186.061 85.0062 185.928 85.305 185.928 85.6702Z" fill="white"/>
<path d="M91.208 116.58C85.2984 116.878 80.6836 127.303 80.6836 127.303C79.754 119.435 76.8988 117.509 74.1763 117.775C74.0767 117.775 74.0103 117.775 73.9107 117.808C69.3291 118.372 66.9055 122.224 63.0211 129.03C63.0211 129.03 62.6227 127.436 62.1247 124.647C61.8259 122.821 60.0331 122.688 58.8379 123.286C57.0783 123.983 57.3107 125.212 57.9083 129.627C58.0411 130.557 58.1739 131.752 58.3731 133.246C59.0039 138.06 62.6891 137.33 64.0171 135.304C65.3783 133.246 67.3039 126.672 70.1923 123.186C76.4008 115.75 74.5748 132.814 75.2056 139.82C75.5376 143.472 76.932 144.268 78.2268 143.837C79.6544 143.306 80.3516 141.38 80.8164 138.923C81.3808 135.105 82.4764 131.984 85.0328 126.042C85.7964 124.514 86.5932 123.054 87.556 121.958C93.7644 114.521 91.9384 131.586 92.5692 138.591C93.2 145.596 97.7817 142.144 97.9809 139.488C99.5745 119.667 95.1257 115.982 91.208 116.58Z" fill="white"/>
<path d="M117.768 117.011C113.319 117.41 110.199 122.323 107.377 127.569C107.377 127.569 106.978 126.075 106.547 123.452C106.281 121.892 104.853 121.626 103.758 122.024C101.732 122.688 101.965 123.253 102.463 127.336C102.596 128.332 102.762 129.66 102.994 131.52C103.558 136.035 107.045 135.338 108.306 133.445C109.601 131.52 111.394 125.344 114.116 122.058C119.959 115.086 118.233 131.088 118.831 137.662C119.428 144.269 123.744 140.982 123.943 138.492C125.404 120.232 121.387 116.58 117.768 117.011Z" fill="white"/>
<path d="M116.307 109.807C114.979 110.172 112.058 111.666 110.564 112.861C109.9 113.359 109.9 114.289 109.9 114.388C109.9 114.488 109.734 114.488 109.734 114.388C109.7 113.724 109.501 113.392 109.368 113.226C107.874 111.832 104.621 109.74 102.662 109.209C100.438 108.612 99.508 108.512 102.197 110.637C104.521 112.496 107.044 114.654 108.273 115.584C108.572 115.816 108.937 116.214 109.634 116.214C110.331 116.214 110.73 115.882 111.095 115.65C112.39 114.82 115.145 112.928 116.739 111.234C118.598 109.276 118.001 109.342 116.307 109.807Z" fill="#EAE319"/>
<path d="M185.198 115.451C179.653 115.716 175.337 125.577 175.337 125.577C174.474 118.14 171.785 116.314 169.228 116.579C169.162 116.579 169.096 116.613 168.996 116.613C164.68 117.177 162.422 120.763 158.77 127.237C158.77 127.237 158.372 125.71 157.94 123.087C157.642 121.36 155.982 121.228 154.853 121.792C153.193 122.456 153.425 123.618 153.99 127.801C154.089 128.698 154.255 129.793 154.421 131.221C154.986 135.769 158.438 135.072 159.733 133.146C160.995 131.221 162.821 125.012 165.543 121.692C171.386 114.654 169.66 130.789 170.258 137.396C170.556 140.849 171.884 141.612 173.113 141.181C174.441 140.683 175.105 138.857 175.536 136.566C176.068 132.947 177.097 130.026 179.454 124.415C180.151 122.987 180.948 121.593 181.844 120.53C187.655 113.492 185.928 129.627 186.526 136.234C187.123 142.841 191.406 139.587 191.639 137.064C193.066 118.339 188.883 114.853 185.198 115.451Z" fill="white"/>
<path d="M143.133 130.922C141.938 133.213 140.211 135.636 138.684 137.462C134.767 142.144 134.235 136.5 134.169 130.291C134.235 121.327 138.983 116.048 142.801 123.485C142.834 123.552 142.867 123.618 142.901 123.718C142.901 123.718 142.901 123.751 142.934 123.751C144.328 126.672 143.83 129.428 143.133 130.922ZM150.537 133.711C150.338 131.619 149.972 129.063 149.508 127.237C148.91 124.581 147.98 121.726 146.42 119.568C140.012 111.4 127.728 116.347 128.558 129.494C128.957 147.987 137.688 142.11 139.813 139.853C144.826 134.441 145.457 132.051 145.457 132.051C145.457 132.051 145.723 136.101 146.685 137.097C147.416 138.027 148.91 137.828 149.773 137.197C150.371 136.765 150.67 136.367 150.636 135.006C150.636 134.972 150.603 134.142 150.537 133.711Z" fill="white"/>
</svg>
