<svg width="250" height="250" viewBox="0 0 250 250" fill="none" xmlns="http://www.w3.org/2000/svg">
<rect width="250" height="250" fill="#F2568F"/>
<path d="M204.666 105.73C203.515 105.961 202.758 107.112 203.021 108.296C204.271 113.921 204.962 119.775 204.962 125.795C204.962 169.476 169.899 205 126.382 205.724C81.2528 206.48 44.1828 169.345 45.0709 124.216C45.3669 109.71 49.5114 96.1256 56.5504 84.5145C56.9122 83.8895 56.9451 83.133 56.6491 82.4752C48.6891 65.8644 51.4849 44.0565 52.998 44.2539C61.7146 45.4051 68.5891 53.6612 72.6678 61.9501C73.2599 63.1672 74.8058 63.4961 75.8913 62.6738C89.4431 52.1152 106.481 45.7998 125 45.7998C142.433 45.7998 158.551 51.3916 171.675 60.8647C172.727 61.6212 174.175 61.2923 174.767 60.1739C178.944 52.5099 185.424 45.3394 193.515 44.2539C194.831 44.0894 196.64 59.7463 192.529 73.7257C192.134 75.0743 193.154 76.4558 194.568 76.4558C195.522 76.4558 196.344 75.8308 196.607 74.9099C198.482 68.5945 199.107 62.312 199.272 57.6412C199.337 55.569 199.601 45.1091 197.199 41.8856C196.18 40.5041 194.601 39.8134 192.956 40.0436C182.891 41.3922 176.017 49.8128 172.201 56.0953C158.287 46.5893 142.038 41.5896 125 41.5896C107.106 41.5896 89.6733 47.3129 75.2992 57.8386C71.6153 51.1942 64.4447 41.4909 53.5572 40.0436C51.8797 39.8134 50.2679 40.5699 49.2482 41.9843C46.3537 46.1617 45.1696 67.2788 52.3073 83.2646C44.7419 96.1585 40.7948 110.796 40.7948 125.795C40.7948 172.239 78.5556 210 125 210C171.444 210 209.205 172.239 209.205 125.795C209.205 119.545 208.514 113.361 207.166 107.375C206.936 106.224 205.817 105.5 204.666 105.73Z" fill="white"/>
<path d="M99.2451 117.078C93.4231 117.374 88.884 127.999 88.884 127.999C87.963 120.006 85.1342 118.065 82.4699 118.328C82.4041 118.328 82.3054 118.328 82.2396 118.361C77.7334 118.953 75.3651 122.835 71.5166 129.775C71.5166 129.775 71.1219 128.163 70.6285 125.334C70.2996 123.492 68.5892 123.361 67.3722 123.953C65.6289 124.644 65.8591 125.894 66.4841 130.4C66.6156 131.354 66.7472 132.571 66.9446 134.084C67.5695 138.985 71.1877 138.228 72.5034 136.156C73.8191 134.084 75.7269 127.407 78.5886 123.854C84.7066 116.289 82.8975 133.623 83.4896 140.728C83.8185 144.445 85.2 145.267 86.4828 144.807C87.8972 144.248 88.5879 142.307 89.0155 139.84C89.5747 135.959 90.6273 132.801 93.1271 126.749C93.8508 125.203 94.6731 123.723 95.627 122.604C101.745 115.072 99.9359 132.373 100.528 139.511C101.153 146.616 105.659 143.096 105.889 140.399C107.501 120.236 103.126 116.453 99.2451 117.078Z" fill="white"/>
<path d="M125.362 117.506C120.987 117.901 117.928 122.9 115.132 128.229C115.132 128.229 114.77 126.716 114.31 124.052C114.047 122.473 112.665 122.21 111.58 122.604C109.573 123.295 109.804 123.854 110.33 127.999C110.462 129.018 110.626 130.367 110.856 132.242C111.448 136.847 114.836 136.156 116.086 134.183C117.336 132.242 119.145 125.959 121.809 122.637C127.533 115.532 125.855 131.814 126.414 138.491C127.007 145.169 131.25 141.846 131.447 139.314C132.894 120.795 128.947 117.045 125.362 117.506Z" fill="white"/>
<path d="M169.274 144.05C173.615 143.656 177.036 137.274 177.661 131.419C177.661 131.419 178.681 134.873 179.47 137.505C179.931 139.083 181.345 139.347 182.398 138.952C184.305 138.261 184.009 137.702 182.957 133.558C182.694 132.538 181.279 125.532 180.786 123.624C179.602 119.019 176.313 119.71 175.293 121.683C174.306 123.624 174.405 135.597 172.168 138.919C167.333 146.024 166.938 129.742 165.491 123.065C164.044 116.388 160.228 119.71 160.36 122.242C161.313 140.761 165.721 144.511 169.274 144.05Z" fill="white"/>
<path d="M150.327 131.65C149.176 133.985 147.433 136.419 145.92 138.294C142.071 143.031 141.578 137.307 141.479 130.992C141.545 121.881 146.216 116.519 149.966 124.084C149.998 124.15 150.031 124.216 150.064 124.315C150.064 124.315 150.064 124.348 150.097 124.348C151.479 127.341 151.018 130.104 150.327 131.65ZM157.597 134.446C157.399 132.34 157.037 129.709 156.577 127.867C155.985 125.17 155.064 122.275 153.551 120.072C147.235 111.783 135.164 116.815 135.986 130.137C136.348 148.918 144.966 142.965 147.038 140.662C151.972 135.202 152.597 132.735 152.597 132.735C152.597 132.735 152.86 136.847 153.814 137.866C154.538 138.787 155.985 138.623 156.873 137.965C157.465 137.538 157.761 137.11 157.695 135.761C157.695 135.728 157.662 134.906 157.597 134.446Z" fill="white"/>
<path d="M125.493 110.598C124.211 110.96 121.316 112.473 119.836 113.69C119.211 114.217 118.75 114.249 118.619 114.085C117.139 112.671 113.948 110.533 112.04 110.006C109.836 109.381 108.915 109.283 111.58 111.454C113.849 113.328 116.349 115.532 117.566 116.486C117.862 116.716 118.224 117.111 118.915 117.111C119.606 117.111 120 116.782 120.329 116.552C121.612 115.697 124.309 113.789 125.888 112.079C127.73 110.072 127.138 110.105 125.493 110.598Z" fill="#EAE319"/>
<path fill-rule="evenodd" clip-rule="evenodd" d="M194.404 87.7381C194.404 88.2315 194.535 88.5933 194.798 88.9222C197.068 92.3431 198.285 94.514 199.831 98.4282C200.456 99.711 202.725 99.7768 203.416 98.4611C203.515 98.2966 204.469 95.6323 204.863 94.7771C204.863 94.7771 206.08 91.9812 206.113 91.9484C206.146 91.8826 207.034 90.0735 207.034 90.0735C207.166 89.8103 207.363 89.4814 207.429 89.1854C207.462 89.0538 207.495 88.9222 207.495 88.7907V88.5275C207.462 88.0012 207.166 87.5078 206.705 87.1789C206.64 87.1131 206.508 87.0473 206.442 87.0145C206.179 86.8829 205.949 86.85 205.62 86.85C205.423 86.85 205.225 86.8829 205.094 86.9487C204.798 87.0473 204.534 87.2118 204.304 87.475C204.206 87.6065 204.14 87.7381 204.041 87.8697C203.975 88.0012 201.508 93.1983 201.508 93.1983C201.508 93.0996 199.469 89.5143 198.647 88.1986C198.449 87.9026 197.594 86.6526 197.331 86.3895C196.805 85.9619 196.081 85.8632 195.456 86.1264C194.831 86.4224 194.404 87.0474 194.404 87.7381Z" fill="white"/>
<path fill-rule="evenodd" clip-rule="evenodd" d="M185.391 87.7709C185.391 88.1985 185.523 88.5933 185.786 88.8893C185.884 89.0209 185.884 89.0209 186.016 89.1195C186.213 89.2511 186.575 89.4156 186.838 89.3827C186.838 89.3827 187.628 89.3498 187.726 89.3498C187.726 90.0076 187.726 90.6655 187.726 91.2905C187.726 91.422 187.726 94.2837 187.726 94.4482C187.693 95.1718 187.825 96.0928 187.825 96.0928C187.858 96.4217 187.891 96.6191 187.989 96.948C188.713 98.5926 191.213 100.731 192.529 98.6913C193.384 97.3427 191.904 96.2901 191.706 95.6323C191.377 94.5139 191.575 89.3498 191.575 89.1524C191.969 89.1524 192.233 89.1524 192.627 88.988C192.923 88.8564 193.285 88.4617 193.417 88.1657C193.68 87.5736 193.581 86.8828 193.154 86.4223C193.088 86.3237 193.121 86.3566 193.022 86.2908C192.989 86.2908 192.989 86.2579 192.956 86.2579C192.693 86.0276 192.298 85.8961 191.937 85.929H191.608V85.1066C191.608 83.5278 191.542 81.6858 189.7 81.7187C187.825 81.7516 187.825 83.8896 187.792 85.3369V85.7974C187.759 86.1921 187.924 86.0934 187.167 86.1263C186.542 86.1263 186.049 86.2579 185.654 86.8171C185.523 87.1131 185.391 87.442 185.391 87.7709Z" fill="white"/>
</svg>
