<svg width="250" height="250" viewBox="0 0 250 250" fill="none" xmlns="http://www.w3.org/2000/svg">
<rect width="250" height="250" fill="#002538"/>
<path d="M66.4297 143.936L92.8589 114.822V106.291H84.2892L66.4297 125.925L48.57 106.291H40V114.822L66.4297 143.936ZM78.1469 138.599L92.8589 122.325V138.599H78.1469ZM54.5828 138.599L40.0003 122.494V138.599H54.5828Z" fill="#FCD500"/>
<path d="M99.3404 106.3H105.01L108.925 115.56L112.818 106.3H118.423V120.072H114.728V110.126L110.399 120.065H107.353L103.057 110.079V120.072H99.3404V106.3ZM144.18 109.467H138.292V106.3H153.867V109.467H147.98V120.072H144.18V109.467ZM188.442 110.824C188.442 113 187.346 114.371 185.324 115.112L188.743 120.072H184.398L181.382 115.508H177.546V120.072H173.743V106.3H182.627C186.063 106.3 188.442 107.821 188.442 110.824ZM184.733 110.986C184.733 109.922 183.808 109.398 182.596 109.398H177.547V112.59H182.658C183.834 112.59 184.733 111.972 184.733 110.986ZM99.3919 124.826H103.569L108.38 134.663L113.191 124.826H117.267L110.407 138.605H106.188L99.3919 124.826ZM120.327 124.826H124.108V138.599H120.327V124.826ZM146.085 124.826H149.867V138.599H146.085V124.826ZM173.827 124.826H177.621L185.353 133.348V124.826H189.049V138.599H185.713L177.501 129.568V138.599H173.827L173.827 124.826ZM137.563 113.19C137.563 117.296 133.969 120.315 129.146 120.315C124.269 120.315 120.729 117.352 120.729 113.19C120.729 109.028 124.269 106.064 129.146 106.064C133.968 106.064 137.563 109.084 137.563 113.19ZM129.146 109.298C126.452 109.298 124.595 110.86 124.595 113.19C124.595 115.465 126.509 117.082 129.146 117.082C131.87 117.082 133.698 115.489 133.698 113.19C133.698 110.834 131.868 109.298 129.146 109.298ZM170.262 131.709C170.262 135.815 166.668 138.835 161.846 138.835C156.968 138.835 153.429 135.872 153.429 131.709C153.429 127.547 156.968 124.584 161.846 124.584C166.667 124.584 170.262 127.603 170.262 131.709ZM161.845 127.817C159.151 127.817 157.294 129.379 157.294 131.709C157.294 133.984 159.208 135.602 161.845 135.602C164.569 135.602 166.397 134.009 166.397 131.709C166.397 129.353 164.567 127.817 161.845 127.817ZM171.435 113.19C171.435 117.296 167.84 120.315 163.018 120.315C158.141 120.315 154.601 117.352 154.601 113.19C154.601 109.028 158.14 106.064 163.018 106.064C167.839 106.064 171.435 109.084 171.435 113.19ZM163.018 109.298C160.323 109.298 158.467 110.86 158.467 113.19C158.467 115.465 160.381 117.082 163.018 117.082C165.741 117.082 167.57 115.489 167.57 113.19C167.569 110.834 165.739 109.298 163.018 109.298ZM210 111.314H204.898V106.301H201.102V111.314H196.001V115.043H201.102V120.054H204.898V115.043H210V111.314ZM135.012 124.606C137.922 124.606 140.836 125.495 142.384 126.842L140.177 129.445C138.955 128.217 136.399 127.647 134.651 127.647C132.78 127.647 131.774 128.101 131.774 128.807C131.774 129.476 132.523 129.685 134.526 129.901C137.156 130.186 138.746 130.429 139.983 130.846C141.971 131.517 142.631 132.7 142.631 134.177C142.631 137.498 139.161 138.818 135.145 138.818C131.532 138.818 128.269 137.611 127.012 136.376L129.224 133.55C130.651 135.006 133.02 135.73 135.364 135.73C137.316 135.73 138.593 135.347 138.593 134.486C138.593 133.63 137.564 133.494 135.469 133.26C133.401 133.029 132.005 132.874 130.85 132.521C128.802 131.893 127.955 130.793 127.955 129.124C127.955 126.726 130.117 124.606 135.012 124.606Z" fill="white"/>
</svg>
