<svg width="250" height="250" viewBox="0 0 250 250" fill="none" xmlns="http://www.w3.org/2000/svg">
<rect width="250" height="250" fill="#002538"/>
<g clip-path="url(#clip0_64_2)">
<path d="M55.4048 148L86.8088 113.406V103.27H76.626L55.4048 126.599L34.1831 103.27H24V113.406L55.4048 148ZM69.3275 141.659L86.8088 122.321V141.659H69.3275ZM41.3277 141.659L24.0004 122.522V141.659H41.3277Z" fill="#FCD500"/>
<path d="M94.5107 103.28H101.248L105.899 114.283L110.525 103.28H117.185V119.645H112.794V107.827L107.651 119.636H104.031L98.9268 107.771V119.644H94.5107V103.28ZM147.791 107.044H140.794V103.28H159.301V107.044H152.306V119.645H147.791V107.044ZM200.385 108.655C200.385 111.241 199.082 112.871 196.679 113.75L200.743 119.645H195.58L191.996 114.221H187.438V119.645H182.918V103.28H193.475C197.557 103.28 200.385 105.087 200.385 108.655ZM195.977 108.848C195.977 107.583 194.878 106.962 193.438 106.962H187.438V110.754H193.511C194.909 110.754 195.977 110.02 195.977 108.848ZM94.5719 125.294H99.5359L105.252 136.982L110.969 125.294H115.812L107.66 141.666H102.647L94.5719 125.294ZM119.447 125.294H123.941V141.659H119.447V125.294ZM150.055 125.294H154.548V141.659H150.055V125.294ZM183.018 125.294H187.526L196.714 135.42V125.294H201.106V141.659H197.142L187.384 130.927V141.659H183.018L183.018 125.294ZM139.929 111.467C139.929 116.345 135.657 119.934 129.927 119.934C124.132 119.934 119.926 116.413 119.926 111.467C119.926 106.521 124.132 103 129.927 103C135.656 103 139.929 106.589 139.929 111.467ZM129.927 106.842C126.725 106.842 124.52 108.698 124.52 111.467C124.52 114.17 126.794 116.092 129.927 116.092C133.164 116.092 135.336 114.199 135.336 111.467C135.336 108.667 133.161 106.842 129.927 106.842ZM178.783 133.472C178.783 138.351 174.512 141.94 168.782 141.94C162.986 141.94 158.781 138.418 158.781 133.472C158.781 128.526 162.986 125.005 168.782 125.005C174.51 125.005 178.783 128.594 178.783 133.472ZM168.781 128.847C165.579 128.847 163.373 130.703 163.373 133.472C163.373 136.175 165.648 138.097 168.781 138.097C172.018 138.097 174.19 136.204 174.19 133.472C174.19 130.673 172.015 128.847 168.781 128.847ZM180.176 111.467C180.176 116.345 175.904 119.934 170.175 119.934C164.379 119.934 160.173 116.413 160.173 111.467C160.173 106.521 164.379 103 170.175 103C175.903 103 180.176 106.589 180.176 111.467ZM170.175 106.842C166.972 106.842 164.767 108.698 164.767 111.467C164.767 114.17 167.041 116.092 170.175 116.092C173.411 116.092 175.583 114.199 175.583 111.467C175.583 108.667 173.408 106.842 170.175 106.842ZM226 109.238H219.938V103.281H215.428V109.238H209.366V113.668H215.428V119.623H219.938V113.668H226V109.238ZM136.897 125.032C140.355 125.032 143.817 126.088 145.656 127.689L143.034 130.782C141.583 129.323 138.545 128.645 136.468 128.645C134.245 128.645 133.05 129.185 133.05 130.023C133.05 130.818 133.939 131.066 136.32 131.324C139.445 131.662 141.334 131.951 142.804 132.447C145.166 133.244 145.95 134.65 145.95 136.405C145.95 140.351 141.827 141.919 137.055 141.919C132.762 141.919 128.885 140.485 127.391 139.017L130.02 135.66C131.716 137.389 134.53 138.25 137.315 138.25C139.635 138.25 141.152 137.795 141.152 136.771C141.152 135.755 139.929 135.593 137.44 135.315C134.982 135.04 133.324 134.856 131.952 134.436C129.519 133.691 128.512 132.383 128.512 130.4C128.512 127.551 131.08 125.032 136.897 125.032Z" fill="white"/>
</g>
<defs>
<clipPath id="clip0_64_2">
<rect width="202" height="45" fill="white" transform="translate(24 103)"/>
</clipPath>
</defs>
</svg>
