<?xml version="1.0" encoding="utf-8"?>
<!-- Generator: Adobe Illustrator 28.0.0, SVG Export Plug-In . SVG Version: 6.00 Build 0)  -->
<svg version="1.1" id="Vrstva_1" xmlns="http://www.w3.org/2000/svg" xmlns:xlink="http://www.w3.org/1999/xlink" x="0px" y="0px"
	 viewBox="0 0 283.5 283.5" style="enable-background:new 0 0 283.5 283.5;" xml:space="preserve">
<style type="text/css">
	.st0{fill:#FFA0FC;}
	.st1{fill:#FFFFFF;}
</style>
<rect class="st0" width="283.5" height="283.5"/>
<g transform="scale(4.2123 4.2105)">
	<path class="st1" d="M18.3,44.8c-3.3,0-5.9,2.7-5.9,5.9c0,3.3,2.7,5.9,5.9,5.9h24.4c3.3,0,5.9-2.7,5.9-5.9c0,0,0,0,0,0
		c0-3.3-2.7-5.9-5.9-5.9L18.3,44.8z M20.6,48h5.2c0.8,0,1.4,0.6,1.4,1.4v2.9c0,0.8-0.6,1.4-1.4,1.4h-5.2c-0.8,0-1.4-0.6-1.4-1.4
		v-2.9C19.1,48.6,19.8,48,20.6,48L20.6,48z M29.2,48h5.2c0.8,0,1.4,0.6,1.4,1.4v2.9c0,0.8-0.6,1.4-1.4,1.4h-5.2
		c-0.8,0-1.4-0.6-1.4-1.4v-2.9C27.8,48.6,28.5,48,29.2,48z M20.6,49.4v2.9h5.1v-2.9H20.6z M29.3,49.4v2.9h5.1v-2.9H29.3z M37.5,49.7
		H42v1.2h-4.6v0.3H41c0.3,0,0.5,0.1,0.7,0.3l0,0c0.3,0.3,0.4,0.6,0.4,1c0,0.5-0.3,0.9-0.7,1.2c-0.2,0.1-0.3,0.1-0.5,0.1h-4.3v-1.2
		H41v-0.3l-3.3,0c-0.3,0-0.5-0.1-0.7-0.2l0,0c-0.3-0.3-0.5-0.6-0.6-1c0-0.3,0.1-0.6,0.3-0.9C36.9,49.9,37.2,49.7,37.5,49.7
		L37.5,49.7z"/>
	<path class="st1" d="M46.9,46.5c-1.1-1.1-2.6-1.7-4.2-1.7H18.3c-3.3,0-5.9,2.7-5.9,5.9c0,3.3,2.7,5.9,5.9,5.9h24.4
		c3.3,0,5.9-2.7,5.9-5.9C48.7,49.2,48.1,47.7,46.9,46.5z M42.7,55.7H18.3c-2.7,0-5-2.2-5-5s2.2-5,5-5c0,0,0,0,0,0h24.4
		c2.7,0,5,2.2,5,5C47.7,53.5,45.5,55.7,42.7,55.7C42.7,55.7,42.7,55.7,42.7,55.7z"/>
	<path class="st1" d="M42.7,45.5c2.9,0,5.2,2.3,5.2,5.2c0,2.9-2.3,5.2-5.2,5.2c0,0,0,0,0,0H18.3c-2.9,0-5.2-2.3-5.2-5.2
		c0-2.9,2.3-5.2,5.2-5.2c0,0,0,0,0,0H42.7 M42.7,44.8H18.3c-3.3,0-5.9,2.7-5.9,5.9c0,3.3,2.7,5.9,5.9,5.9h24.4
		c3.3,0,5.9-2.7,5.9-5.9C48.7,47.5,46,44.8,42.7,44.8z"/>
	<path class="st1" d="M26,28v11.3l1.9-1.4v-8L26,28z"/>
	<path class="st1" d="M30.1,30.6l2.5-0.6l1-0.8v-1.5L30.1,30.6z"/>
	<path class="st1" d="M29.8,12.6L26.3,11l3.2,3.6l1.2-1.2L29.8,12.6z"/>
	<path class="st1" d="M12.4,40.2h1.1l0.4,1.8h0l0.4-1.8h1.1v3.1h-0.7v-2h0l-0.4,2h-0.6l-0.4-2h0v2h-0.7L12.4,40.2z"/>
	<path class="st1" d="M17.9,42.1c0,0.9-0.4,1.3-1.1,1.3c-0.8,0-1.2-0.4-1.2-1.3v-1.9h0.8v1.7c0,0.3,0,0.7,0.4,0.7
		c0.4,0,0.4-0.4,0.4-0.7v-1.7h0.8L17.9,42.1z"/>
	<path class="st1" d="M18.9,42.2c0,0.1,0,0.1,0,0.2c0.1,0.2,0.2,0.2,0.4,0.2c0.2,0,0.3-0.1,0.3-0.2c0,0,0,0,0,0
		c0-0.2-0.1-0.2-0.5-0.4c-0.4-0.1-0.9-0.3-0.9-0.9c0-0.5,0.4-1,0.9-1c0,0,0.1,0,0.1,0c0.5,0,1,0.3,1.1,1h-0.7c0-0.1,0-0.2-0.1-0.2
		c-0.1-0.1-0.1-0.1-0.2-0.1c-0.1,0-0.3,0-0.3,0.2c0,0.2,0.4,0.3,0.7,0.4c0.4,0.1,0.7,0.3,0.7,0.9c0,0.8-0.6,1.1-1.2,1.1
		c-0.6,0-1.1-0.4-1.1-1c0,0,0-0.1,0-0.1L18.9,42.2z"/>
	<path class="st1" d="M20.6,40.2h0.8v3.1h-0.8V40.2z"/>
	<path class="st1" d="M23.4,41.3c0-0.1-0.1-0.5-0.4-0.5c-0.4,0-0.5,0.4-0.5,0.8c0,0.4,0.1,0.8,0.5,0.8c0.3,0,0.4-0.2,0.4-0.5h0.8
		c0,0.6-0.4,1.3-1.2,1.3c-0.8,0-1.3-0.7-1.3-1.6c0-1,0.5-1.6,1.3-1.6c0.7,0,1.1,0.4,1.1,1.2H23.4z"/>
	<path class="st1" d="M26.1,41h-0.7v-0.8h2.2V41h-0.7v2.3h-0.8V41z"/>
	<path class="st1" d="M27.8,40.2h2.1V41h-1.3v0.4h1.2v0.7h-1.2v0.4H30v0.8h-2.1L27.8,40.2z"/>
	<path class="st1" d="M30.2,40.2H31v2.3h1.1v0.8h-1.9L30.2,40.2z"/>
	<path class="st1" d="M32.3,40.2h2.1V41h-1.3v0.4h1.2v0.7h-1.2v0.4h1.3v0.8h-2.1L32.3,40.2z"/>
	<path class="st1" d="M36.2,43.2h-0.9l-0.8-3.1h0.8l0.4,1.9h0l0.4-1.9H37L36.2,43.2z"/>
	<path class="st1" d="M37.3,40.2h0.8v3.1h-0.8V40.2z"/>
	<path class="st1" d="M39.2,42.2c0,0.1,0,0.1,0,0.2c0.1,0.2,0.2,0.2,0.4,0.2c0.2,0,0.3-0.1,0.3-0.2c0,0,0,0,0,0
		c0-0.2-0.1-0.2-0.5-0.4c-0.4-0.1-0.9-0.3-0.9-0.9c0-0.5,0.4-1,0.9-1c0,0,0.1,0,0.1,0c0.5,0,1,0.3,1.1,1h-0.7c0-0.1,0-0.2-0.1-0.2
		c-0.1-0.1-0.1-0.1-0.2-0.1c-0.1,0-0.3,0-0.3,0.2c0,0.2,0.4,0.3,0.7,0.4c0.4,0.1,0.7,0.3,0.7,0.9c0,0.8-0.6,1.1-1.2,1.1
		c-0.6,0-1.1-0.4-1.1-1c0,0,0-0.1,0-0.1L39.2,42.2z"/>
	<path class="st1" d="M40.9,40.2h0.8v3.1h-0.8V40.2z"/>
	<path class="st1" d="M43.2,40.1c0.8,0,1.3,0.7,1.3,1.6c0,0.9-0.5,1.6-1.3,1.6c-0.8,0-1.3-0.7-1.3-1.6S42.5,40.1,43.2,40.1
		 M43.2,42.6c0.2,0,0.5-0.2,0.5-0.8c0-0.7-0.3-0.8-0.5-0.8c-0.2,0-0.5,0.2-0.5,0.8S43,42.6,43.2,42.6"/>
	<path class="st1" d="M44.8,40.2h0.8l0.7,1.6h0v-1.6h0.7v3.1h-0.8l-0.8-1.7h0v1.7h-0.7L44.8,40.2z"/>
	<path class="st1" d="M54.1,14.4c-0.4-0.2-1-0.3-1.5-0.3c-0.4,0.1-0.9,0.2-1.2,0.6c0,0-0.8,0.8-0.8,0.8l-0.2,0.3
		c0,0-0.7,0.9-0.7,0.9s0,0,0,0v-4.8l-2.1-1.3l0,8.7l0,0l-0.5,0.6v-9.3H34l-4.6,4.6l-4.1-4.6H12.4v28.7h13.1V26.7l3.9,4l4.7-4v12.7
		h13l0-12.1c0.1-0.2,0.2-0.3,0.2-0.3c0,0,0.1-0.2,0.1-0.2c0,0,0.1-0.2,0.2-0.4l0,13l2.1-1.5V22.6c0.1-0.1,0.2-0.3,0.2-0.3
		c0,0,0.3-0.5,0.3-0.5c0,0,0.5-0.7,0.5-0.7c0,0,0.2-0.2,0.2-0.2l0.4-0.6c0.1-0.2,0.3-0.3,0.4-0.4l0,0l0.1,0l0.2-0.2
		c0,0,0.4-0.3,0.4-0.3l0.7-0.3l0.6-0.4c0,0,0.6-0.7,0.6-0.7l0.3-1c0,0,0.1-0.9,0.1-0.9C54.9,15.3,54.6,14.8,54.1,14.4 M38.4,22.2
		c0,0.1,0.1,0.9,0.1,1.1c0,0.4,0,0.9,0,1.1c0,0.1,0,0.6,0,0.6c0,0.4,0.1,0.8,0.1,0.9c0,0.2-0.1,1,0,1.1c0,0.1,0,0.3,0.1,0.4
		c0,0.2,0,0.3,0,0.5c0,0.2,0,0.3,0,0.5c0,0.3,0,0.6,0,0.8c0,0.1,0,0.5,0,0.5c-0.1,0.5-0.1,0.9,0,1.4c0,0.1,0,0.4,0,0.5
		c0,0.1,0.1,0.4,0.1,0.5c0,0.3,0.1,0.5,0.1,0.8c0.1,0.1,0.3,0.7,0.3,0.7c0.1,0.3,0.1,0.6,0.1,1c-0.1,0.3-0.2,0.7-0.3,1
		c-0.1,0.1-0.2,0.2-0.3,0.3c-0.1,0.1-0.2,0.2-0.3,0.2c-0.4,0.1-0.8,0.2-1.2,0.1c-0.3,0-0.5-0.1-0.8-0.2c-0.2-0.2-0.3-0.6-0.4-0.8
		c0-0.1,0-0.4,0-0.4c0-0.1-0.1-0.5-0.1-0.6c0-0.2,0-0.3,0-0.5c0-0.2-0.2-0.6-0.2-0.6c0-0.2-0.1-0.5-0.1-0.5
		c-0.1-0.2-0.1-0.5-0.2-0.7c0-0.3,0-0.7,0.1-1c0.1-0.2,0.1-0.3,0.1-0.5c0-0.1-0.1-0.6-0.1-0.8c0-0.1,0.1-0.3,0.1-0.3
		c0-0.1,0-0.5,0-0.6c0-0.3,0-0.5,0-0.8c0-0.1,0-0.3,0-0.4c0-0.2,0-0.5,0-0.7c0-0.2,0-0.4,0-0.5c0-0.3,0-0.6,0-0.8c0,0,0-0.5,0-0.6
		c0-0.1,0-0.6,0-0.7c-0.1-1.3-0.3-1.6-0.4-1.6c-0.1,0-0.3,0-0.4,0c-0.1,0-0.3,0.2-0.5,0.3c-0.2,0.1-0.5,0.3-0.6,0.3
		c-0.2,0.2-0.5,0.4-0.8,0.5c-0.1,0.1-0.2,0.2-0.3,0.2c-0.2,0.2-0.5,0.4-0.8,0.6c-0.2,0.1-0.4,0.2-0.6,0.4c-0.1,0.1-0.3,0.4-0.4,0.6
		c-0.1,0.1-0.2,0.2-0.3,0.4c-0.1,0.2-0.2,0.3-0.3,0.5c-0.3,0.2-0.7,0.2-1.1,0.1c-0.4-0.2-0.7-0.5-0.8-0.8c-0.2-0.5,0-1.1,0.3-1.5
		c0.3-0.2,0.6-0.4,1-0.5c0.2,0,0.4-0.1,0.6-0.2c0.1,0,0.3-0.2,0.4-0.3c0.1-0.1,0.4-0.2,0.4-0.2c0.2-0.1,0.4-0.3,0.6-0.4
		c0.3-0.2,0.6-0.3,0.8-0.4c0.3-0.2,0.5-0.3,0.8-0.5c0.1-0.1,0.4-0.2,0.7-0.4c0.1,0,0.4-0.2,0.5-0.2c0.1,0,0.3-0.2,0.4-0.2
		c0.3-0.2,0.4-0.3,0.4-0.8c0-0.2-0.1-0.3-0.1-0.5c0-0.2,0.1-0.4,0.2-0.5c0.1-0.1,0.1-0.1,0.2-0.2c0.1-0.1,0.2-0.2,0.3-0.2
		c0.1-0.1,0.3-0.2,0.4-0.2c0.4-0.1,0.9,0.2,1,0.3c0.2,0,0.4,0,0.5,0c0,0,0.2-0.1,0.3-0.1c0.1,0,0.4-0.1,0.4-0.1
		c0.1,0,0.5-0.2,0.6-0.3c0.1,0,0.3-0.1,0.4-0.1c0.2-0.1,0.5-0.2,0.7-0.4c0.1-0.2,0.3-0.3,0.4-0.5c0.2-0.1,0.3-0.3,0.5-0.4
		c0.2-0.1,0.4-0.3,0.6-0.3c0.2,0,0.3,0,0.5,0c0.3,0,0.5,0.1,0.6,0.3c0.1,0.1,0.2,0.3,0.3,0.5c0.1,0.6-0.3,1.3-0.7,1.5
		c0,0-0.2,0.1-0.3,0.1c-0.2,0-0.3,0.2-0.4,0.2c-0.1,0.1-0.3,0.1-0.4,0.2c-0.1,0-0.4,0.2-0.5,0.3c-0.1,0.1-0.2,0.2-0.4,0.3
		c-0.2,0.1-0.5,0.2-0.7,0.3c-0.2,0.1-0.4,0.2-0.6,0.2c0,0-0.5,0.2-0.6,0.5c-0.1,0.3,0,0.4-0.1,0.8C38.4,21.7,38.4,22,38.4,22.2
		 M54.5,16.7c-0.1,0.3-0.2,0.6-0.3,0.9c-0.1,0.2-0.3,0.4-0.5,0.6c-0.2,0.1-0.4,0.2-0.6,0.3c-0.1,0-0.6,0.3-0.7,0.3
		c-0.2,0.1-0.4,0.2-0.5,0.4c-0.1,0.1-0.1,0.1-0.2,0.2c-0.3,0.1-0.5,0.3-0.6,0.6c-0.2,0.3-0.4,0.6-0.6,0.8c-0.1,0.2-0.3,0.5-0.4,0.6
		c-0.1,0.1-0.1,0.1-0.2,0.2c-0.1,0.1-0.1,0.2-0.2,0.3c0,0,0,0,0,0.1c-0.1,0.2-0.2,0.3-0.3,0.4c-0.2,0.2-0.3,0.4-0.3,0.6
		c-0.2,0.2-0.3,0.5-0.4,0.7c0,0.1-0.3,0.5-0.3,0.6c-0.1,0.2-0.2,0.3-0.4,0.5c0,0.1-0.1,0.2-0.1,0.3c0,0.1-0.1,0.3-0.2,0.4
		c0,0.1-0.1,0.2-0.1,0.2c0,0,0,0,0,0c0,0.1-0.1,0.1-0.1,0.2c-0.1,0.2-0.2,0.3-0.3,0.4c0,0.1-0.1,0.1-0.1,0.2c-0.1,0.1-0.5,0.9-0.6,1
		c0,0.1-0.1,0.2-0.2,0.3c-0.2,0.2-0.3,0.4-0.3,0.7c0,0.2-0.1,0.3-0.2,0.5c-0.1,0.3-0.2,0.7-0.3,1c0,0.2,0,0.4,0,0.6
		c0,0.2,0,0.4,0,0.6c-0.1,0.3-0.2,0.7-0.4,1c-0.1,0.2-0.3,0.3-0.4,0.5c-0.1,0.1-0.4,0.2-0.8,0.2c-0.6,0-0.9-0.2-1.2-0.7
		c-0.1-0.2-0.2-0.4-0.3-0.5c-0.2-0.3-0.3-0.7-0.4-1.1c0-0.1-0.1-0.3-0.1-0.4c-0.1-0.1-0.2-0.5-0.2-0.6c0-0.1-0.2-0.5-0.2-0.6
		c-0.1-0.3-0.1-0.6-0.2-0.8c-0.1-0.3-0.1-0.5-0.2-0.8c-0.1-0.3-0.2-0.6-0.3-0.9c0,0-0.2-0.6-0.2-0.8c-0.1-0.3-0.4-1.1-0.4-1.1
		c-0.1-0.3-0.3-0.9-0.4-1c-0.1-0.8-0.1-1.5,0-1.8c0.1-0.2,0.3-0.3,0.5-0.4c0.1-0.1,0.3-0.2,0.4-0.2c0.3-0.1,0.5-0.1,0.8,0
		c0.2,0,0.3,0,0.5,0.1c0.4,0.3,0.5,0.7,0.5,1.4c0,0,0.1,0.8,0.1,1.1c0,0.2,0.1,0.4,0.1,0.7c0,0.2,0,0.3,0,0.5c0,0.3,0.1,0.8,0.1,0.8
		c0.1,0.3,0.2,0.6,0.6,0.8c0.1,0,0.2,0,0.3,0c0.3-0.1,0.5-0.6,0.6-1.1c0,0,0-0.1,0.1-0.1c0.1-0.2,0.2-0.4,0.3-0.6
		c0.1-0.2,0.2-0.3,0.3-0.5c0.1-0.1,0.2-0.3,0.3-0.4c0,0,0.5-0.7,0.5-0.7s0.2-0.4,0.2-0.5c0.1-0.1,0.1-0.2,0.1-0.3
		c0-0.2,0.1-0.4,0.3-0.6c0.2-0.2,0.3-0.5,0.4-0.8c0-0.1,0.2-0.3,0.3-0.5c0,0,0,0,0,0v0c0,0,0,0,0,0c0.1-0.1,0.1-0.2,0.2-0.2l0.4-0.4
		c0.1-0.1,0.2-0.2,0.2-0.3c0.1-0.1,0.2-0.3,0.4-0.5c0.1-0.2,0.3-0.4,0.4-0.5c0.1-0.1,0.6-0.8,0.7-0.9c0,0,0.3-0.3,0.4-0.4
		c0,0,0,0,0,0c0.2-0.2,0.3-0.3,0.3-0.3c0.1-0.1,0.2-0.3,0.3-0.4c0.1-0.1,0.2-0.3,0.3-0.4c0-0.1,0.2-0.3,0.2-0.3
		c0.1-0.2,0.7-0.7,0.7-0.7c0.3-0.3,0.6-0.4,1-0.5c0.4-0.1,0.9,0,1.2,0.2c0.4,0.3,0.6,0.7,0.7,1.1C54.6,16.1,54.6,16.4,54.5,16.7"/>
</g>
</svg>
