<svg width="250" height="250" viewBox="0 0 250 250" fill="none" xmlns="http://www.w3.org/2000/svg">
<rect width="250" height="250" fill="#FF5A00"/>
<path d="M47.8922 89.1662C48.2193 89.0261 48.5898 89.002 48.9361 89.002H104.644C105.27 88.9779 106.15 89.1662 106.246 89.929C106.246 90.716 105.688 91.3437 105.178 91.8796C101.094 95.8484 97.0097 99.7883 92.9494 103.757C92.1845 104.525 91.0492 104.708 90.0005 104.708H64.6864C63.5944 104.708 62.4831 104.776 61.4633 104.361C60.8619 104.153 60.4674 103.641 60.0008 103.202C56.1474 99.4213 52.2507 95.6649 48.3781 91.8796C47.8922 91.392 47.4015 90.8609 47.3101 90.1608C47.2187 89.7455 47.4977 89.3255 47.8922 89.1613C47.8922 89.1613 47.8922 89.1662 47.8922 89.1662ZM40.4212 95.8243C40.7675 95.5008 41.2775 95.5684 41.672 95.7567C42.3936 96.0802 42.9035 96.7078 43.4375 97.2631C47.2668 101.251 51.0721 105.244 54.8966 109.232C55.5701 109.952 55.777 110.97 55.801 111.946V138.646C55.777 139.597 55.5942 140.664 54.9207 141.383C50.9518 145.536 46.9637 149.688 42.9949 153.84C42.509 154.328 41.975 154.859 41.2534 154.999C40.8589 155.115 40.4164 154.931 40.2335 154.56C39.9064 153.932 40.0267 153.213 40.0026 152.566V97.3548C40.0267 96.8189 40.0267 96.2202 40.4212 95.8243ZM111.629 96.7272C112.024 96.5195 112.558 96.4278 112.928 96.7272C113.371 97.0989 113.414 97.7266 113.414 98.2818V152.585C113.414 153.188 113.227 154.024 112.51 154.14C111.721 154.207 111.071 153.652 110.537 153.14C106.708 149.403 102.879 145.647 99.0542 141.915C98.1017 141.195 97.5918 140.06 97.5918 138.878C97.5677 129.921 97.5918 120.946 97.5918 111.994C97.6158 111.043 97.7986 110.024 98.4962 109.324C102.326 105.568 106.155 101.831 110.003 98.0984C110.489 97.5866 110.98 97.0313 111.629 96.732V96.7272ZM64.3449 111.39C72.4413 111.323 80.5378 111.366 88.639 111.366C89.5915 111.299 90.496 112.153 90.4479 113.104V137.043C90.496 138.018 89.5916 138.878 88.639 138.805H64.7201C63.7435 138.873 62.8632 138.018 62.9113 137.043C62.8872 129.154 62.9113 121.245 62.9113 113.36C62.7958 112.458 63.4212 111.526 64.3497 111.39C64.3497 111.39 64.3449 111.39 64.3449 111.39ZM62.2763 145.536C62.6948 145.42 63.1326 145.396 63.5511 145.396H90.2554C91.232 145.396 92.2952 145.579 93.0408 146.255C97.053 150.06 101.07 153.864 105.058 157.669C105.78 158.388 106.751 159.108 106.751 160.218C106.636 160.986 105.732 161.121 105.106 161.121H48.7052C48.1231 161.121 47.3823 161.005 47.1514 160.402C46.9637 159.542 47.6372 158.823 48.1953 158.268C52.395 154.28 56.5948 150.287 60.7946 146.299C61.165 145.903 61.723 145.671 62.2811 145.531C62.2811 145.531 62.2763 145.536 62.2763 145.536Z" fill="white"/>
<path d="M160.963 154.565L124.309 154.567C123.51 154.567 122.86 153.921 122.86 153.123V141.873C122.86 141.074 123.51 140.429 124.309 140.429L146.721 140.427L160.963 154.565ZM156.278 140.429L170.425 154.567H183.001L168.851 140.429H156.278ZM208.555 140.429H178.327L192.497 154.567H208.555C209.351 154.567 210 153.921 210 153.123V141.873C210 141.074 209.351 140.429 208.555 140.429Z" fill="white"/>
<path d="M205.461 116.664C204.021 115.983 203.204 115.639 200.927 114.975C200.156 114.743 197.899 114.105 197.389 113.944C195.304 113.283 195.607 112.151 195.678 111.9C195.845 111.315 196.686 110.93 197.568 110.939C198.445 110.948 199.307 111.062 200.686 111.61C201.836 112.066 203.144 112.839 204.819 113.893L208.442 108.17C207.173 106.978 204.795 105.548 203.195 105.128C201.486 104.68 199.815 104.364 198.04 104.364C195.661 104.364 193.975 104.613 192.284 105.415C190.592 106.217 189.18 107.336 188.275 108.723C187.371 110.109 186.739 111.809 186.792 113.814C186.834 115.351 187.163 116.211 187.839 117.138C188.591 118.17 190.016 119.032 191.407 119.667C192.796 120.302 194.725 120.96 197.096 121.64C197.9 121.875 198.488 122.092 199.008 122.293C199.527 122.494 199.816 122.714 200.056 122.909C200.474 123.249 200.553 123.624 200.553 123.924C200.553 124.313 200.285 124.711 199.95 124.876C199.615 125.04 199.137 125.159 198.434 125.138C197.181 125.101 195.756 124.804 194.232 124.192C192.708 123.579 191.248 122.766 189.607 121.677L186.334 127.4C187.913 128.848 189.829 129.956 192.057 130.722C194.284 131.488 196.585 131.801 198.852 131.808C202.234 131.819 204.937 130.95 206.784 129.471C208.739 127.905 209.748 125.764 209.746 123.007C209.745 121.573 209.402 120.184 208.716 119.22C208.029 118.257 206.901 117.345 205.461 116.664ZM149.152 110.842C148.969 109.742 148.608 108.702 148.071 107.734C147.537 106.762 146.715 105.967 145.61 105.348C144.505 104.73 143.016 104.421 141.142 104.421C139.299 104.421 137.617 104.794 136.093 105.549C134.57 106.303 133.329 107.407 132.401 108.8V96.6432H122.861V131.321H132.401V116.758C132.558 115.98 133.071 115.127 133.608 114.58C134.142 114.033 134.747 113.554 135.322 113.238C135.883 112.925 136.178 112.786 136.777 112.759C137.644 112.715 138.446 113.078 139.034 113.659C139.619 114.24 139.884 115.283 139.884 116.578V131.321H149.428V113.955C149.428 112.986 149.336 111.947 149.152 110.842ZM153.44 106.826V131.321H162.983V106.826H153.44ZM153.44 96.6432V104.625H162.983V96.6432H153.44ZM178.551 96.6432V104.924H183.726V112.096H178.551V120.727C178.558 121.705 178.728 122.31 179.122 122.684C179.53 123.068 180.139 123.18 180.775 123.18C181.271 123.183 181.686 123.108 182.291 122.939C182.893 122.769 183.426 122.582 184.032 122.344L185.735 129.873C184.861 130.247 183.923 130.556 182.937 130.876C181.948 131.199 180.941 131.44 179.921 131.61C178.901 131.78 177.908 131.861 176.94 131.861C175.498 131.861 174.281 131.667 173.074 131.185C171.87 130.706 170.81 129.829 170.089 128.715C169.368 127.604 169.008 126.099 169.008 124.206L169.011 112.096H165.744V104.924H169.008V96.6432H178.551Z" fill="white"/>
</svg>
