<svg width="250" height="250" viewBox="0 0 250 250" fill="none" xmlns="http://www.w3.org/2000/svg">
<rect width="250" height="250" fill="#FF009D"/>
<path d="M47.0026 93.1473C47.2928 93.0232 47.6215 93.0018 47.9288 93.0018H97.3575C97.9124 92.9804 98.6935 93.1473 98.7789 93.8234C98.7789 94.5209 98.2837 95.0772 97.8313 95.5522C94.2074 99.0697 90.5835 102.561 86.9809 106.079C86.3022 106.759 85.2948 106.922 84.3643 106.922H61.9037C60.9348 106.922 59.9488 106.982 59.0439 106.614C58.5103 106.43 58.1603 105.976 57.7463 105.587C54.3272 102.236 50.8698 98.9071 47.4337 95.5522C47.0026 95.12 46.5672 94.6493 46.4861 94.0288C46.405 93.6608 46.6526 93.2885 47.0026 93.143C47.0026 93.143 47.0026 93.1473 47.0026 93.1473ZM40.3737 99.0483C40.681 98.7616 41.1335 98.8215 41.4835 98.9884C42.1238 99.2751 42.5762 99.8314 43.05 100.323C46.4477 103.858 49.824 107.397 53.2175 110.932C53.815 111.569 53.9986 112.472 54.0199 113.336V137C53.9986 137.843 53.8364 138.789 53.2388 139.427C49.7173 143.107 46.1788 146.787 42.6573 150.467C42.2262 150.899 41.7524 151.37 41.1121 151.494C40.7621 151.597 40.3694 151.434 40.2072 151.105C39.917 150.548 40.0237 149.911 40.0023 149.337V100.405C40.0237 99.9298 40.0237 99.3992 40.3737 99.0483ZM103.555 99.8485C103.905 99.6645 104.379 99.5832 104.708 99.8485C105.1 100.178 105.139 100.734 105.139 101.226V149.354C105.139 149.889 104.972 150.63 104.336 150.732C103.636 150.792 103.06 150.3 102.586 149.847C99.1886 146.534 95.791 143.205 92.3975 139.897C91.5524 139.26 91.0999 138.254 91.0999 137.206C91.0786 129.268 91.0999 121.313 91.0999 113.379C91.1213 112.536 91.2835 111.633 91.9024 111.013C95.3001 107.684 98.6978 104.372 102.113 101.064C102.544 100.61 102.979 100.118 103.555 99.8527V99.8485ZM61.6007 112.844C68.7845 112.784 75.9683 112.823 83.1564 112.823C84.0015 112.763 84.804 113.52 84.7613 114.363V135.58C84.804 136.444 84.0015 137.206 83.1564 137.142H61.9336C61.0671 137.202 60.286 136.444 60.3287 135.58C60.3073 128.587 60.3287 121.578 60.3287 114.59C60.2262 113.79 60.7811 112.964 61.605 112.844C61.605 112.844 61.6007 112.844 61.6007 112.844ZM59.7653 143.107C60.1366 143.004 60.525 142.983 60.8964 142.983H84.5906C85.457 142.983 86.4004 143.145 87.062 143.744C90.6219 147.116 94.186 150.488 97.7246 153.86C98.3648 154.498 99.2271 155.136 99.2271 156.12C99.1246 156.8 98.3221 156.92 97.7672 156.92H47.724C47.2075 156.92 46.5501 156.817 46.3453 156.282C46.1788 155.521 46.7764 154.883 47.2715 154.391C50.9979 150.856 54.7242 147.317 58.4506 143.783C58.7792 143.432 59.2744 143.227 59.7695 143.102C59.7695 143.102 59.7653 143.107 59.7653 143.107Z" fill="white"/>
<path d="M148.245 130.954C146.196 130.954 144.389 130.637 142.785 129.997C141.181 129.357 139.817 128.542 138.734 127.44C137.649 126.339 136.825 125.073 136.261 123.643C135.696 122.214 135.414 120.71 135.414 119.132C135.414 116.876 135.904 114.804 136.884 112.919C137.865 111.033 139.305 109.519 141.206 108.376C143.106 107.232 145.453 106.661 148.245 106.661C151.037 106.661 153.383 107.227 155.285 108.358C157.185 109.49 158.626 110.979 159.606 112.825C160.586 114.671 161.077 116.681 161.077 118.854C161.077 119.301 161.054 119.755 161.01 120.217C160.965 120.679 160.919 121.034 160.86 121.391L144.39 121.393C144.49 122.296 144.702 122.843 145.051 123.372C145.407 123.914 146.02 124.259 146.617 124.521C147.084 124.726 147.867 124.906 148.521 124.906C149.441 124.906 150.322 124.726 151.123 124.272C151.919 123.82 152.403 123.275 152.781 122.552L159.917 124.571C159.294 125.841 158.426 126.917 157.312 127.884C156.198 128.852 154.884 129.615 153.369 130.175C151.854 130.734 150.146 130.954 148.245 130.954ZM144.236 116.275H151.988C151.899 115.512 151.683 114.867 151.342 114.339C151 113.811 150.554 113.401 150.005 113.107C149.455 112.814 148.825 112.667 148.112 112.667C147.399 112.667 146.768 112.814 146.218 113.107C145.668 113.401 145.223 113.811 144.882 114.339C144.54 114.867 144.325 115.512 144.236 116.275ZM169.744 107.117L173.095 112.854L173.541 113.788L173.988 112.854L177.338 107.117H185.958L178.057 118.811L186.182 130.508H177.561L173.943 124.771L173.541 123.882L173.139 124.771L169.521 130.508H160.901L168.967 118.811L161.124 107.117H169.744ZM187.402 132.791C188.085 133.031 188.716 133.218 189.296 133.352C189.875 133.487 190.403 133.554 190.878 133.554C191.502 133.554 192.022 133.442 192.438 133.218C192.854 132.993 193.181 132.65 193.419 132.189C193.657 131.727 193.805 131.166 193.865 130.504L185.351 107.117H194.043L198.471 123.252L202.111 107.117H210L202.066 133.305C201.62 134.816 200.892 136.142 199.882 137.284C198.871 138.425 197.668 139.316 196.272 139.956C194.875 140.595 193.374 140.915 191.77 140.915C191.027 140.915 190.291 140.848 189.563 140.713C188.835 140.579 188.115 140.361 187.402 140.062V132.791ZM130.548 117.548C129.268 116.946 128.541 116.641 126.517 116.053C125.831 115.848 123.824 115.283 123.371 115.14C121.517 114.555 121.786 113.554 121.85 113.332C121.998 112.813 122.746 112.473 123.53 112.481C124.31 112.489 125.076 112.589 126.302 113.074C127.325 113.479 128.488 114.162 129.977 115.096L133.198 110.03C132.07 108.974 129.956 107.708 128.533 107.337C127.013 106.94 125.528 106.661 123.95 106.661C121.835 106.661 120.335 106.881 118.832 107.591C117.328 108.301 116.072 109.291 115.268 110.519C114.464 111.746 113.902 113.251 113.949 115.026C113.986 116.386 114.279 117.147 114.88 117.968C115.548 118.882 116.816 119.644 118.052 120.207C119.287 120.769 121.002 121.351 123.111 121.953C123.825 122.161 124.348 122.353 124.81 122.531C125.272 122.709 125.529 122.904 125.742 123.076C126.114 123.378 126.184 123.709 126.184 123.975C126.184 124.319 125.946 124.672 125.648 124.817C125.35 124.963 124.925 125.068 124.3 125.05C123.186 125.017 121.919 124.754 120.564 124.212C119.209 123.669 117.911 122.95 116.452 121.985L113.542 127.052C114.945 128.333 116.649 129.314 118.63 129.992C120.61 130.67 122.656 130.947 124.672 130.954C127.679 130.963 130.082 130.194 131.724 128.885C133.463 127.499 134.359 125.604 134.357 123.163C134.357 121.893 134.052 120.664 133.442 119.811C132.831 118.959 131.828 118.151 130.548 117.548Z" fill="white"/>
<path d="M134.748 138.582L147.376 151.111H114.814C114.104 151.111 113.529 150.538 113.529 149.832V139.861C113.529 139.156 114.104 138.582 114.814 138.582H134.748ZM165.889 150.103L154.36 138.582H143.221L143.225 138.585L150.045 145.407L155.754 151.111H166.896L166.889 151.105L165.889 150.103ZM181.747 138.582H162.761L162.765 138.585L175.389 151.111H181.747C182.457 151.111 183.032 150.538 183.032 149.832V139.861C183.032 139.156 182.457 138.582 181.747 138.582Z" fill="white"/>
</svg>
