<svg width="250" height="250" viewBox="0 0 250 250" fill="none" xmlns="http://www.w3.org/2000/svg">
<rect width="250" height="250" fill="black"/>
<path d="M46.7148 94.1398C46.9912 94.0213 47.3071 94.0016 47.6033 94.0016C63.3987 94.0016 79.2139 94.0016 95.0093 94.0016C95.5424 93.9819 96.2927 94.1398 96.3717 94.7914C96.3717 95.4627 95.8978 95.9958 95.4634 96.4499C91.9884 99.8262 88.5134 103.183 85.0582 106.559C84.4066 107.211 83.4392 107.368 82.5507 107.368C75.3835 107.368 68.1966 107.368 61.0097 107.368C60.0817 107.368 59.1339 107.428 58.2652 107.072C57.7518 106.895 57.4162 106.46 57.0213 106.085C53.7438 102.867 50.4267 99.6682 47.1294 96.4499C46.7148 96.0353 46.3002 95.5811 46.2212 94.9888C46.1422 94.6334 46.3791 94.278 46.7148 94.1398Z" fill="white"/>
<path d="M167.649 96.1735C171.36 95.5021 175.428 96.2327 178.429 98.6217C177.501 99.9446 176.553 101.267 175.605 102.61C173.967 101.465 172.051 100.636 170.018 100.616C169.366 100.616 168.616 100.695 168.162 101.208C167.708 101.702 167.826 102.571 168.399 102.946C169.129 103.4 169.978 103.578 170.788 103.795C172.92 104.288 175.112 104.782 176.909 106.065C177.896 106.737 178.607 107.803 178.844 108.987C179.199 110.863 178.844 112.956 177.54 114.397C176.099 116.016 173.927 116.747 171.815 116.885C168.043 117.142 164.075 116.115 161.232 113.568C162.278 112.324 163.325 111.08 164.371 109.836C166.385 111.456 168.991 112.462 171.597 112.226C172.308 112.166 173.177 111.791 173.256 110.982C173.374 110.31 172.802 109.797 172.229 109.58C170.551 108.909 168.715 108.691 167.017 108.099C165.556 107.625 164.075 106.914 163.107 105.67C162.061 104.19 161.942 102.176 162.456 100.478C163.186 98.1676 165.358 96.6078 167.649 96.1735Z" fill="white"/>
<path d="M195.369 97.4371C198.055 95.7983 201.431 95.4627 204.432 96.3314C206.545 96.9435 208.361 98.3453 209.645 100.103C208.262 101.169 206.9 102.235 205.538 103.301C204.748 102.334 203.761 101.504 202.556 101.149C201.115 100.715 199.437 100.892 198.252 101.86C195.508 104.032 195.508 108.81 198.252 110.982C199.496 111.969 201.234 112.107 202.714 111.673C203.919 111.278 204.847 110.37 205.637 109.422C207.058 110.429 208.46 111.436 209.882 112.462C208.914 113.746 207.789 114.95 206.347 115.701C204.175 116.865 201.648 117.201 199.239 116.865C196.436 116.471 193.81 114.852 192.25 112.482C190.67 110.152 190.157 107.191 190.651 104.446C191.144 101.583 192.862 98.9179 195.369 97.4371Z" fill="white"/>
<path d="M115.622 96.2722C117.617 96.2722 119.591 96.2722 121.585 96.2722C123.184 98.8982 124.803 101.504 126.422 104.111C128.041 101.485 129.641 98.8784 131.26 96.2524C133.254 96.2524 135.228 96.2524 137.223 96.2524C137.223 103.025 137.223 109.777 137.223 116.55C135.347 116.55 133.471 116.55 131.595 116.55C131.595 112.66 131.595 108.79 131.595 104.9C129.858 107.566 128.12 110.231 126.383 112.897C124.586 110.291 122.888 107.605 121.131 104.96C121.131 108.83 121.131 112.68 121.131 116.55C119.295 116.55 117.459 116.55 115.622 116.55C115.622 109.797 115.622 103.044 115.622 96.2722Z" fill="white"/>
<path d="M140.54 96.2722C142.435 96.2722 144.35 96.2722 146.246 96.2722C146.246 100.122 146.246 103.953 146.246 107.803C146.246 109.244 146.799 110.863 148.2 111.515C149.602 112.127 151.438 112.028 152.603 110.962C153.452 110.172 153.709 108.948 153.709 107.823C153.709 103.972 153.709 100.122 153.709 96.2722C155.605 96.2722 157.52 96.2722 159.415 96.2722C159.415 99.4708 159.415 102.65 159.415 105.848C159.455 108.257 159.415 110.824 158.191 112.976C156.967 115.227 154.499 116.49 152.031 116.806C149.642 117.102 147.114 116.984 144.923 115.957C143.324 115.207 141.981 113.864 141.329 112.206C140.717 110.764 140.54 109.185 140.54 107.645C140.54 103.854 140.54 100.063 140.54 96.2722Z" fill="white"/>
<path d="M181.785 96.2722C183.661 96.2722 185.537 96.2722 187.413 96.2722C187.413 103.044 187.413 109.797 187.413 116.569C185.537 116.569 183.661 116.569 181.785 116.569C181.785 109.797 181.785 103.044 181.785 96.2722Z" fill="white"/>
<path d="M40.3571 99.8064C40.6533 99.53 41.0877 99.5892 41.4233 99.7472C42.0354 100.024 42.4698 100.557 42.9239 101.031C46.1817 104.427 49.4198 107.823 52.6776 111.219C53.2502 111.831 53.4278 112.699 53.4476 113.529C53.4476 121.11 53.4476 128.673 53.4476 136.254C53.4278 137.064 53.2699 137.972 52.6973 138.584C49.321 142.118 45.925 145.653 42.5487 149.187C42.1341 149.601 41.68 150.056 41.0679 150.174C40.7323 150.273 40.3571 150.115 40.1992 149.799C39.9228 149.266 40.0215 148.654 40.0017 148.101C40.0017 132.444 40.0017 116.767 40.0017 101.11C40.0215 100.655 40.0215 100.142 40.3571 99.8064Z" fill="white"/>
<path d="M100.952 100.576C101.288 100.399 101.742 100.32 102.058 100.576C102.433 100.892 102.473 101.425 102.473 101.899C102.473 117.3 102.473 132.72 102.473 148.121C102.473 148.634 102.315 149.345 101.703 149.444C101.031 149.503 100.478 149.029 100.024 148.595C96.7665 145.416 93.5087 142.217 90.2509 139.038C89.4414 138.426 89.007 137.459 89.007 136.452C88.9873 128.831 89.007 121.189 89.007 113.568C89.0268 112.759 89.1847 111.89 89.7771 111.298C93.0349 108.099 96.2927 104.92 99.5702 101.741C99.9849 101.307 100.399 100.833 100.952 100.576Z" fill="white"/>
<path d="M60.7135 113.055C67.6042 112.996 74.495 113.035 81.3858 113.035C82.1953 112.976 82.9653 113.706 82.9258 114.516C82.9258 121.308 82.9258 128.1 82.9258 134.892C82.9653 135.721 82.1953 136.452 81.3858 136.393C74.5937 136.393 67.8017 136.393 61.0294 136.393C60.2001 136.452 59.4499 135.721 59.4893 134.892C59.4696 128.179 59.4893 121.446 59.4893 114.733C59.3906 113.963 59.9237 113.173 60.7135 113.055Z" fill="white"/>
<path d="M159.869 122.394C163.581 121.841 167.471 122.453 170.768 124.27C173.473 125.711 175.724 127.982 177.126 130.706C178.942 134.122 179.416 138.209 178.488 141.96C177.6 145.475 175.526 148.713 172.585 150.865C167.135 154.913 159.218 155.248 153.433 151.694C151.162 150.312 149.247 148.358 147.963 146.048C145.989 142.612 145.476 138.406 146.364 134.556C147.233 130.923 149.385 127.587 152.445 125.415C154.637 123.815 157.204 122.789 159.869 122.394ZM160.462 130.094C158.527 130.548 156.888 131.891 155.881 133.569C154.775 135.386 154.459 137.617 154.775 139.69C155.111 141.901 156.434 143.955 158.27 145.218C160.146 146.502 162.574 146.719 164.726 146.166C166.661 145.653 168.241 144.251 169.228 142.533C170.215 140.815 170.492 138.762 170.235 136.827C169.939 134.576 168.655 132.483 166.819 131.16C164.983 129.877 162.594 129.601 160.462 130.094Z" fill="white"/>
<path d="M115.682 122.809C121.091 122.809 126.501 122.809 131.911 122.809C134.636 122.868 137.558 123.46 139.612 125.375C142.08 127.606 142.376 131.614 140.737 134.379C139.888 135.78 138.506 136.748 137.025 137.4C139.158 138.13 141.29 139.334 142.356 141.408C143.245 143.303 143.343 145.534 142.79 147.548C142.099 149.898 140.105 151.596 137.874 152.464C134.853 153.689 131.536 153.511 128.357 153.511C124.132 153.511 119.907 153.511 115.682 153.511C115.682 143.264 115.682 133.036 115.682 122.809ZM124.014 129.522C124.014 131.338 123.994 133.174 124.033 134.991C125.87 134.971 127.726 134.991 129.562 134.971C130.47 134.951 131.398 134.833 132.188 134.379C133.649 133.569 133.787 131.18 132.405 130.232C131.576 129.64 130.529 129.522 129.542 129.522C127.686 129.522 125.85 129.522 124.014 129.522ZM124.014 140.993C124.014 142.928 124.014 144.843 124.014 146.778C126.186 146.778 128.357 146.778 130.529 146.778C131.595 146.778 132.721 146.64 133.59 145.988C134.893 145.08 135.011 142.888 133.767 141.881C132.859 141.131 131.635 141.013 130.51 140.993C128.357 140.993 126.186 140.993 124.014 140.993Z" fill="white"/>
<path d="M179.337 122.809C182.595 122.809 185.853 122.809 189.111 122.809C190.907 125.691 192.724 128.574 194.54 131.456C196.376 128.574 198.193 125.691 200.009 122.809C203.188 122.809 206.367 122.809 209.546 122.809C206.189 127.804 202.833 132.819 199.476 137.814C202.991 143.046 206.486 148.279 210 153.511C206.742 153.511 203.484 153.511 200.227 153.511C198.272 150.431 196.297 147.351 194.343 144.251C192.368 147.331 190.414 150.411 188.439 153.511C185.26 153.511 182.082 153.511 178.903 153.511C182.397 148.298 185.912 143.106 189.407 137.893C186.03 132.858 182.694 127.824 179.337 122.809Z" fill="white"/>
<path d="M58.9562 142.118C59.3116 142.02 59.6868 142 60.0422 142C67.624 142 75.186 142 82.7679 142C83.5971 142 84.5053 142.158 85.1372 142.73C88.5529 145.969 91.9687 149.207 95.3647 152.445C95.9768 153.057 96.806 153.669 96.806 154.617C96.7073 155.268 95.9373 155.387 95.4042 155.387C79.3916 155.387 63.3987 155.387 47.4058 155.387C46.9122 155.387 46.2804 155.288 46.083 154.774C45.925 154.044 46.4976 153.432 46.9715 152.958C50.5452 149.562 54.1189 146.166 57.6926 142.77C58.0085 142.434 58.4824 142.237 58.9562 142.118Z" fill="white"/>
</svg>
