<svg width="250" height="250" viewBox="0 0 250 250" fill="none" xmlns="http://www.w3.org/2000/svg">
<rect width="250" height="250" fill="#C373FF"/>
<path d="M45.7515 99.1214C45.9899 99.0191 46.2598 99.0015 46.5123 99.0015H87.1099C87.5657 98.9838 88.2073 99.1214 88.2774 99.6788C88.2774 100.254 87.8707 100.713 87.4991 101.104C84.5226 104.004 81.5461 106.883 78.5872 109.783C78.0298 110.344 77.2024 110.478 76.4381 110.478H57.9904C57.1946 110.478 56.3847 110.528 55.6415 110.224C55.2032 110.072 54.9158 109.699 54.5757 109.377C51.7675 106.615 48.9278 103.87 46.1056 101.104C45.7515 100.748 45.3939 100.36 45.3273 99.8482C45.2607 99.5448 45.464 99.2378 45.7515 99.1179C45.7515 99.1179 45.7515 99.1214 45.7515 99.1214ZM40.3069 103.987C40.5593 103.75 40.931 103.8 41.2184 103.937C41.7443 104.174 42.1159 104.632 42.5051 105.038C45.2957 107.952 48.0689 110.87 50.856 113.784C51.3468 114.31 51.4976 115.054 51.5151 115.767V135.277C51.4976 135.972 51.3644 136.752 50.8735 137.277C47.9812 140.311 45.0749 143.346 42.1826 146.38C41.8285 146.736 41.4393 147.124 40.9134 147.226C40.626 147.311 40.3034 147.177 40.1702 146.905C39.9318 146.447 40.0194 145.921 40.0019 145.448V105.105C40.0194 104.713 40.0194 104.276 40.3069 103.987ZM92.2004 104.646C92.4879 104.495 92.877 104.428 93.147 104.646C93.4695 104.918 93.5011 105.377 93.5011 105.782V145.462C93.5011 145.903 93.3643 146.514 92.842 146.598C92.267 146.648 91.7937 146.242 91.4046 145.868C88.6139 143.137 85.8233 140.393 83.0361 137.665C82.342 137.14 81.9704 136.311 81.9704 135.446C81.9528 128.902 81.9704 122.343 81.9704 115.802C81.9879 115.107 82.1211 114.363 82.6295 113.851C85.4201 111.106 88.2108 108.375 91.0154 105.648C91.3695 105.274 91.7271 104.869 92.2004 104.65V104.646ZM57.7415 115.361C63.6418 115.312 69.5421 115.343 75.446 115.343C76.1401 115.294 76.7992 115.918 76.7642 116.614V134.106C76.7992 134.818 76.1401 135.446 75.446 135.393H58.0149C57.3033 135.443 56.6617 134.818 56.6967 134.106C56.6792 128.341 56.6967 122.562 56.6967 116.8C56.6126 116.141 57.0684 115.46 57.745 115.361C57.745 115.361 57.7415 115.361 57.7415 115.361ZM56.234 140.311C56.539 140.227 56.858 140.209 57.163 140.209H76.6239C77.3356 140.209 78.1104 140.343 78.6538 140.837C81.5777 143.617 84.5051 146.397 87.4114 149.177C87.9373 149.703 88.6455 150.229 88.6455 151.04C88.5613 151.601 87.9022 151.7 87.4465 151.7H46.344C45.9198 151.7 45.3799 151.615 45.2116 151.174C45.0749 150.546 45.5657 150.021 45.9724 149.615C49.033 146.701 52.0936 143.783 55.1542 140.869C55.4241 140.58 55.8308 140.41 56.2375 140.308C56.2375 140.308 56.234 140.311 56.234 140.311Z" fill="white"/>
<path d="M208.632 115.328C207.83 113.809 206.643 112.585 205.082 111.655C203.522 110.722 201.594 110.259 199.299 110.259C197.004 110.259 195.076 110.729 193.516 111.669C191.955 112.609 190.772 113.856 189.966 115.406C189.16 116.956 188.759 118.663 188.759 120.517C188.759 121.818 188.99 123.055 189.453 124.23C189.915 125.405 190.592 126.448 191.486 127.354C192.377 128.26 193.478 128.976 194.797 129.504C196.113 130.032 197.616 130.294 199.299 130.294C200.86 130.294 202.264 130.062 203.508 129.602C204.753 129.143 205.834 128.516 206.748 127.719C207.663 126.925 208.377 126.005 208.89 124.959L202.995 123.242C202.777 123.865 202.332 124.349 201.659 124.697C200.989 125.044 200.275 125.221 199.52 125.221C198.983 125.221 198.463 125.126 197.963 124.935C197.463 124.748 197.048 124.448 196.718 124.032C196.389 123.62 196.198 123.082 196.151 122.421H209.659C209.706 122.128 209.751 121.791 209.788 121.409C209.822 121.031 209.842 120.656 209.842 120.288C209.842 118.503 209.438 116.847 208.632 115.328ZM196.004 118.166C196.079 117.559 196.256 117.045 196.535 116.626C196.817 116.207 197.181 115.88 197.633 115.645C198.085 115.413 198.602 115.294 199.19 115.294C199.775 115.294 200.292 115.413 200.744 115.645C201.196 115.88 201.563 116.207 201.842 116.626C202.124 117.045 202.301 117.559 202.373 118.166H196.004ZM180.575 123.651C180.296 123.876 179.997 124.043 179.678 124.155C179.361 124.267 179.008 124.322 178.617 124.322C177.981 124.322 177.41 124.162 176.896 123.838C176.383 123.518 175.975 123.051 175.669 122.441C175.366 121.835 175.213 121.109 175.213 120.275C175.213 119.416 175.366 118.687 175.669 118.091C175.975 117.491 176.383 117.031 176.896 116.711C177.41 116.387 177.981 116.227 178.617 116.227C179.178 116.227 179.684 116.35 180.137 116.599C180.589 116.847 180.973 117.208 181.289 117.682L188.062 115.594C187.283 114.027 186.097 112.746 184.512 111.751C182.925 110.756 180.973 110.259 178.654 110.259C176.383 110.259 174.462 110.722 172.888 111.652C171.314 112.582 170.117 113.812 169.301 115.338C168.481 116.868 168.073 118.513 168.073 120.275C168.073 121.596 168.305 122.857 168.767 124.056C169.233 125.252 169.916 126.325 170.821 127.265C171.722 128.206 172.827 128.948 174.132 129.483C175.438 130.022 176.944 130.291 178.654 130.291C180.215 130.291 181.602 130.062 182.809 129.602C184.016 129.143 185.067 128.516 185.957 127.719C186.848 126.921 187.552 126.001 188.062 124.956L181.289 122.867C181.095 123.167 180.857 123.426 180.575 123.651ZM166.023 115.055C165.901 114.262 165.646 113.498 165.255 112.763C164.864 112.03 164.279 111.431 163.497 110.964C162.718 110.5 161.668 110.269 160.349 110.269C159.25 110.269 158.237 110.391 157.312 110.633C156.384 110.879 155.565 111.24 154.858 111.717C154.15 112.194 153.566 112.786 153.1 113.495V110.565H146.84V129.933H153.797V119.109C154.018 118.592 154.31 118.132 154.674 117.733C155.041 117.335 155.442 117.021 155.884 116.796C156.323 116.575 156.738 116.462 157.129 116.462C157.69 116.462 158.183 116.674 158.611 117.099C159.036 117.525 159.25 118.21 159.25 119.157V129.933H166.207V117.239C166.207 116.578 166.146 115.853 166.023 115.055ZM143.733 123.504C143.536 123.249 143.44 122.796 143.44 122.138V118.421C143.44 115.727 142.604 113.693 140.931 112.323C139.258 110.95 136.899 110.262 133.849 110.262C132.214 110.262 130.684 110.47 129.256 110.879C127.828 111.291 126.468 111.918 125.172 112.763L127.185 117.168C128.212 116.473 129.194 115.941 130.133 115.58C131.071 115.222 132.078 115.042 133.152 115.042C134.325 115.042 135.172 115.256 135.699 115.682C136.222 116.112 136.484 116.769 136.484 117.651V118.251C135.994 118.002 135.416 117.815 134.747 117.689C134.073 117.566 133.359 117.505 132.605 117.505C130.993 117.505 129.558 117.784 128.304 118.346C127.046 118.909 126.063 119.685 125.356 120.677C124.649 121.668 124.295 122.809 124.295 124.104C124.295 125.279 124.587 126.339 125.172 127.279C125.757 128.219 126.563 128.959 127.59 129.497C128.613 130.035 129.762 130.304 131.03 130.304C132.299 130.304 133.495 130.011 134.617 129.429C135.739 128.843 136.729 127.991 137.582 126.87L137.728 127.579C137.922 128.475 138.344 129.153 138.993 129.613C139.639 130.073 140.584 130.304 141.829 130.304C142.22 130.304 142.665 130.274 143.165 130.212C143.665 130.148 144.195 130.056 144.756 129.93V123.961C144.27 123.91 143.927 123.76 143.733 123.504ZM136.484 123.218C136.484 123.453 136.399 123.681 136.229 123.906C136.056 124.131 135.838 124.336 135.569 124.523C135.253 124.734 134.869 124.904 134.417 125.034C133.965 125.163 133.533 125.228 133.118 125.228C132.676 125.228 132.285 125.153 131.945 125C131.602 124.847 131.336 124.635 131.139 124.366C130.945 124.094 130.847 123.794 130.847 123.463C130.847 122.854 131.132 122.346 131.707 121.947C132.282 121.549 132.982 121.348 133.812 121.348C134.203 121.348 134.648 121.395 135.148 121.487C135.648 121.583 136.093 121.699 136.484 121.842V123.218ZM121.918 123.494C121.721 123.232 121.626 122.765 121.626 122.094V104.579H114.676V113.546C114.139 112.528 113.347 111.724 112.3 111.141C111.249 110.555 110.103 110.262 108.862 110.262C107.227 110.262 105.775 110.698 104.51 111.567C103.242 112.436 102.246 113.621 101.529 115.127C100.808 116.633 100.451 118.34 100.451 120.247C100.451 121.716 100.668 123.068 101.107 124.301C101.546 125.538 102.175 126.604 102.991 127.497C103.807 128.39 104.772 129.081 105.881 129.568C106.989 130.059 108.203 130.304 109.519 130.304C110.787 130.304 111.984 130.032 113.102 129.483C114.224 128.935 115.115 128.066 115.775 126.87L115.921 127.579C116.115 128.502 116.553 129.183 117.237 129.633C117.92 130.079 118.845 130.304 120.018 130.304C120.773 130.304 121.748 130.178 122.942 129.93V123.961C122.456 123.91 122.112 123.753 121.918 123.494ZM114.714 122.445C114.493 122.765 114.255 123.055 114 123.307C113.745 123.566 113.483 123.777 113.214 123.934C112.946 124.094 112.664 124.216 112.371 124.298C112.079 124.387 111.763 124.428 111.423 124.428C110.862 124.428 110.348 124.329 109.886 124.135C109.423 123.94 109.019 123.664 108.679 123.307C108.335 122.956 108.074 122.533 107.893 122.046C107.71 121.552 107.618 121.007 107.618 120.39C107.618 119.804 107.703 119.256 107.873 118.742C108.043 118.231 108.288 117.774 108.604 117.386C108.924 116.99 109.294 116.687 109.723 116.469C110.148 116.248 110.617 116.135 111.13 116.135C111.616 116.135 112.092 116.258 112.555 116.503C113.017 116.745 113.439 117.086 113.816 117.515C114.194 117.941 114.493 118.435 114.714 118.997V122.445Z" fill="white"/>
<path d="M145.78 136.581L156.167 146.914H101.505C100.92 146.914 100.451 146.441 100.451 145.858V137.634C100.451 137.055 100.92 136.581 101.505 136.581H145.78ZM152.801 136.581L163.116 146.914H172.286L161.97 136.581H152.801ZM208.946 136.581H168.702L179.072 146.914H208.946C209.531 146.914 210 146.441 210 145.858V137.634C210 137.055 209.531 136.581 208.946 136.581Z" fill="white"/>
</svg>
