<svg width="250" height="250" viewBox="0 0 250 250" fill="none" xmlns="http://www.w3.org/2000/svg">
<rect width="250" height="250" fill="#FAEB00"/>
<path d="M45.4245 100.114C45.6493 100.018 45.9039 100.001 46.142 100.001H84.4311C84.861 99.9849 85.466 100.114 85.5322 100.635C85.5322 101.173 85.1486 101.602 84.7981 101.968C81.9909 104.681 79.1837 107.375 76.393 110.088C75.8673 110.612 75.087 110.738 74.3662 110.738H56.9674C56.2168 110.738 55.453 110.784 54.7521 110.5C54.3388 110.358 54.0676 110.008 53.7469 109.708C51.0984 107.124 48.4201 104.556 45.7584 101.968C45.4245 101.635 45.0872 101.272 45.0244 100.793C44.9615 100.51 45.1533 100.222 45.4245 100.11V100.114Z" fill="black"/>
<path d="M40.2895 104.665C40.5275 104.444 40.878 104.49 41.1492 104.619C41.6451 104.84 41.9956 105.269 42.3626 105.648C44.9946 108.375 47.61 111.104 50.2387 113.83C50.7016 114.322 50.8438 115.018 50.8603 115.685V133.936C50.8438 134.587 50.7181 135.316 50.2552 135.808C47.5274 138.646 44.7863 141.485 42.0584 144.323C41.7245 144.656 41.3575 145.019 40.8615 145.115C40.5904 145.194 40.2862 145.069 40.1605 144.815C39.9357 144.386 40.0183 143.894 40.0018 143.452V105.711C40.0183 105.345 40.0183 104.936 40.2895 104.665Z" fill="black"/>
<path d="M89.2322 105.282C89.5033 105.14 89.8703 105.077 90.1249 105.282C90.4291 105.536 90.4589 105.965 90.4589 106.345V143.465C90.4589 143.877 90.3299 144.448 89.8373 144.528C89.295 144.574 88.8486 144.194 88.4816 143.844C85.8496 141.29 83.2177 138.722 80.589 136.171C79.9343 135.679 79.5838 134.903 79.5838 134.095C79.5673 127.973 79.5838 121.837 79.5838 115.718C79.6004 115.068 79.726 114.371 80.2054 113.893C82.8374 111.325 85.4694 108.771 88.1146 106.219C88.4485 105.87 88.7858 105.49 89.2322 105.285L89.2322 105.282Z" fill="black"/>
<path d="M56.7327 115.306C62.2975 115.259 67.8623 115.289 73.4304 115.289C74.0851 115.243 74.7068 115.827 74.6737 116.477V132.841C74.7068 133.507 74.0851 134.095 73.4304 134.045H56.9906C56.3194 134.092 55.7143 133.507 55.7473 132.841C55.7308 127.448 55.7473 122.042 55.7473 116.652C55.668 116.035 56.0978 115.398 56.736 115.306L56.7327 115.306Z" fill="black"/>
<path d="M55.3109 138.646C55.5985 138.567 55.8994 138.55 56.1871 138.55H74.5414C75.2126 138.55 75.9434 138.676 76.4559 139.138C79.2135 141.739 81.9744 144.339 84.7155 146.94C85.2115 147.432 85.8794 147.924 85.8794 148.683C85.8 149.208 85.1784 149.3 84.7486 149.3H45.9833C45.5832 149.3 45.074 149.221 44.9153 148.808C44.7863 148.221 45.2492 147.729 45.6328 147.349C48.5194 144.623 51.4059 141.894 54.2925 139.168C54.5471 138.897 54.9306 138.739 55.3142 138.643L55.3109 138.646Z" fill="black"/>
<path d="M103.893 117.872C103.606 118.431 103.482 119.145 103.482 119.949C103.482 120.731 103.595 121.444 103.882 122.014C104.169 122.584 104.563 123.046 105.045 123.347C105.526 123.649 106.116 123.828 106.712 123.828C107.079 123.828 107.388 123.765 107.686 123.661C107.984 123.556 108.291 123.387 108.555 123.177C108.818 122.968 109.022 122.771 109.206 122.491L115.552 124.408C115.071 125.386 114.411 126.168 113.574 126.912C112.737 127.657 111.752 128.244 110.618 128.675C109.483 129.105 108.182 129.321 106.715 129.321C105.11 129.321 103.694 129.069 102.468 128.565C101.241 128.062 100.204 127.37 99.3562 126.488C98.5078 125.608 97.8658 124.606 97.4305 123.485C96.9948 122.364 96.7772 121.184 96.7772 119.949C96.7772 118.301 97.1609 116.762 97.9291 115.331C98.6969 113.901 99.8203 112.751 101.299 111.881C102.778 111.012 104.583 110.577 106.715 110.577C108.892 110.577 110.726 111.043 112.216 111.973C113.706 112.904 114.818 114.019 115.552 115.485L109.206 117.402C108.908 116.96 108.601 116.69 108.177 116.457C107.753 116.225 107.183 116.071 106.656 116.071C106.059 116.071 105.447 116.291 104.966 116.592C104.485 116.894 104.18 117.314 103.893 117.872ZM127.073 123.371C126.757 123.511 126.548 123.612 126.155 123.728C125.862 123.817 125.536 123.87 125.278 123.868C124.726 123.86 124.268 123.695 123.995 123.324C123.668 122.88 123.592 122.36 123.592 121.685V105.272H117.057V124.024C117.057 125.722 117.527 127.031 118.468 127.95C119.408 128.869 120.75 129.329 122.492 129.329C123.363 129.329 124.286 129.224 125.262 129.015C126.236 128.806 127.113 128.514 127.893 128.141L127.073 123.371ZM147.211 128.971C146.683 129.087 146.186 129.174 145.715 129.233C145.245 129.29 144.826 129.32 144.461 129.32C143.291 129.32 142.288 129.046 141.737 128.641C141.138 128.2 140.715 127.439 140.549 126.604L140.47 126.173C139.627 127.216 138.741 127.953 137.688 128.499C136.633 129.046 135.509 129.347 134.32 129.32C133.119 129.292 132.088 129.063 131.125 128.561C130.163 128.058 129.389 127.377 128.838 126.498C128.288 125.618 127.994 124.621 127.994 123.522C127.994 122.311 128.326 121.241 128.99 120.316C129.656 119.389 130.606 118.634 131.785 118.107C132.967 117.581 134.288 117.34 135.802 117.34C136.511 117.34 137.173 117.397 137.805 117.513C138.433 117.63 138.874 117.778 139.453 118.012L139.441 117.488C139.441 116.66 139.18 115.981 138.688 115.581C138.194 115.181 137.42 114.974 136.321 114.974C135.312 114.974 134.31 115.149 133.427 115.486C132.546 115.823 131.673 116.275 130.711 116.926L128.82 112.877C130.035 112.087 131.311 111.536 132.653 111.152C133.992 110.767 135.43 110.576 136.965 110.576C139.83 110.576 142.049 111.219 143.619 112.501C145.188 113.784 145.974 115.687 145.974 118.208V121.682C145.974 122.296 146.047 122.929 146.367 123.179C146.575 123.341 146.843 123.402 147.209 123.504L147.211 128.971ZM139.441 121.361C139.073 121.229 138.556 121.083 138.088 120.996C137.617 120.907 137.287 120.87 136.922 120.874C136.116 120.882 135.486 121.069 134.99 121.414C134.452 121.791 134.134 122.351 134.142 122.921C134.148 123.315 134.245 123.554 134.417 123.814C134.589 124.072 134.883 124.291 135.203 124.439C135.527 124.591 135.903 124.658 136.313 124.642C136.738 124.624 137.175 124.565 137.594 124.427C138.001 124.293 138.352 124.118 138.639 123.905C138.923 123.696 139.03 123.575 139.198 123.372C139.378 123.153 139.441 122.789 139.441 122.568V121.361ZM178.035 118.976C177.05 118.511 176.491 118.276 174.932 117.822C174.404 117.663 172.859 117.227 172.511 117.117C171.083 116.665 171.291 115.892 171.339 115.72C171.454 115.32 172.029 115.057 172.633 115.063C173.233 115.07 173.823 115.147 174.767 115.522C175.554 115.834 176.449 116.362 177.596 117.083L180.075 113.17C179.207 112.355 177.579 111.378 176.484 111.091C175.314 110.785 174.171 110.568 172.956 110.568C171.328 110.568 170.174 110.739 169.016 111.287C167.858 111.835 166.892 112.6 166.273 113.548C165.654 114.496 165.221 115.658 165.258 117.029C165.286 118.079 165.511 118.667 165.974 119.301C166.489 120.006 167.464 120.595 168.416 121.029C169.367 121.463 170.687 121.913 172.31 122.378C172.86 122.539 173.263 122.687 173.618 122.824C173.974 122.962 174.172 123.112 174.335 123.245C174.622 123.478 174.676 123.734 174.676 123.94C174.676 124.205 174.492 124.478 174.263 124.59C174.034 124.702 173.707 124.784 173.226 124.769C172.368 124.744 171.393 124.541 170.35 124.122C169.307 123.704 168.307 123.148 167.184 122.403L164.944 126.316C166.025 127.305 167.336 128.063 168.861 128.586C170.385 129.11 171.96 129.324 173.512 129.329C175.827 129.336 177.677 128.742 178.941 127.731C180.279 126.661 180.969 125.197 180.968 123.312C180.967 122.332 180.732 121.383 180.263 120.724C179.793 120.066 179.021 119.442 178.035 118.976ZM182.787 110.43H189.321V105.271H182.787V110.43ZM182.787 111.938H189.321V128.979H182.787V111.938ZM161.227 118.976C160.241 118.511 159.682 118.276 158.124 117.822C157.596 117.663 156.051 117.227 155.702 117.117C154.275 116.665 154.482 115.892 154.531 115.72C154.645 115.32 155.221 115.057 155.825 115.063C156.425 115.07 157.014 115.147 157.959 115.522C158.746 115.834 159.641 116.362 160.788 117.083L163.267 113.17C162.399 112.355 160.771 111.378 159.676 111.091C158.506 110.785 157.362 110.568 156.148 110.568C154.52 110.568 153.365 110.739 152.208 111.287C151.05 111.835 150.083 112.6 149.464 113.548C148.846 114.496 148.413 115.658 148.45 117.029C148.478 118.079 148.703 118.667 149.166 119.301C149.68 120.006 150.656 120.595 151.608 121.029C152.558 121.463 153.879 121.913 155.502 122.378C156.052 122.539 156.454 122.687 156.81 122.824C157.165 122.962 157.363 123.112 157.527 123.245C157.814 123.478 157.867 123.734 157.867 123.94C157.867 124.205 157.684 124.478 157.455 124.59C157.226 124.702 156.899 124.784 156.417 124.769C155.56 124.744 154.584 124.541 153.542 124.122C152.498 123.704 151.499 123.148 150.376 122.403L148.136 126.316C149.216 127.305 150.528 128.063 152.053 128.586C153.577 129.11 155.152 129.324 156.703 129.329C159.018 129.336 160.868 128.742 162.132 127.731C163.471 126.661 164.161 125.197 164.159 123.312C164.159 122.332 163.924 121.383 163.455 120.724C162.984 120.066 162.212 119.442 161.227 118.976ZM202.985 123.177C202.721 123.387 202.414 123.556 202.116 123.661C201.818 123.765 201.509 123.828 201.142 123.828C200.546 123.828 199.957 123.649 199.475 123.347C198.994 123.046 198.599 122.584 198.312 122.014C198.026 121.444 197.913 120.731 197.913 119.949C197.913 119.145 198.037 118.431 198.324 117.872C198.61 117.314 198.915 116.894 199.396 116.592C199.878 116.291 200.49 116.071 201.086 116.071C201.613 116.071 202.183 116.225 202.608 116.457C203.032 116.69 203.338 116.96 203.636 117.402L209.982 115.485C209.248 114.019 208.136 112.904 206.647 111.973C205.156 111.043 203.323 110.577 201.145 110.577C199.013 110.577 197.208 111.012 195.729 111.881C194.251 112.751 193.127 113.901 192.359 115.331C191.591 116.762 191.207 118.301 191.207 119.949C191.207 121.184 191.425 122.364 191.861 123.485C192.296 124.606 192.938 125.608 193.786 126.488C194.634 127.37 195.672 128.062 196.898 128.565C198.124 129.069 199.54 129.321 201.145 129.321C202.612 129.321 203.913 129.105 205.048 128.675C206.182 128.244 207.168 127.657 208.005 126.912C208.841 126.168 209.501 125.386 209.982 124.408L203.636 122.491C203.453 122.771 203.248 122.968 202.985 123.177Z" fill="black"/>
<path d="M164.385 135.203L174.105 144.866H97.7178C97.1726 144.866 96.73 144.424 96.73 143.88V136.189C96.73 135.645 97.1726 135.203 97.7178 135.203H164.385ZM170.907 135.203L180.627 144.866H189.266L179.546 135.203H170.907ZM209.012 135.203H185.947L195.667 144.866H209.012C209.557 144.866 210 144.424 210 143.88V136.189C210 135.645 209.557 135.203 209.012 135.203Z" fill="black"/>
</svg>
