<svg width="250" height="250" viewBox="0 0 250 250" fill="none" xmlns="http://www.w3.org/2000/svg">
<rect width="250" height="250" fill="#191919"/>
<path d="M40 114.169V78.5687H64.8421V114.169H40ZM61.2473 110.583V82.1547H43.5772V110.583H61.2473Z" fill="#FCD800"/>
<path d="M83.6732 94.9369H82.1362C80.1219 92.0888 78.116 89.2582 76.119 86.0543V94.9369H74.3826V82.5462H75.9193C77.9339 85.3769 79.9396 88.1902 81.9193 91.3769V82.5462H83.6559V94.9369H83.6732Z" fill="white"/>
<path d="M87.7022 90.0398C88.1971 88.416 88.692 86.9051 89.1348 84.995C89.6298 86.9052 90.0727 88.416 90.5328 90.0398H87.7022ZM88.5183 82.555L84.2288 94.9369H86.0698L87.1463 91.5593H90.8801L91.8525 94.9369H94.223L90.3069 82.5462H88.5705L88.5183 82.555Z" fill="white"/>
<path d="M96.2375 94.9369V84.2134H92.9813V82.555H101.595V84.2134H98.339V94.9369H96.2116H96.2375Z" fill="white"/>
<path d="M102.316 94.9369V82.5462H104.426V94.9369H102.316Z" fill="white"/>
<path d="M110.964 93.3566C108.75 93.3566 107.968 90.9167 107.968 88.5462C107.968 86.1757 108.837 84.0831 110.964 84.0831C113.091 84.0831 113.951 86.2627 113.951 88.5462C113.951 90.8299 113.178 93.3566 110.964 93.3566ZM110.964 95.0932C114.203 95.0932 116.217 92.2106 116.217 88.5115C116.217 85.0384 113.986 82.2772 110.964 82.2772C107.942 82.2772 105.711 85.0384 105.711 88.5115C105.711 92.2625 107.725 95.1541 110.964 95.1541V95.0932Z" fill="white"/>
<path d="M126.776 94.9369H125.239C123.225 92.0888 121.219 89.2582 119.222 86.0543V94.9369H117.485V82.5462H119.022C121.036 85.3769 123.042 88.1902 125.022 91.3769V82.5462H126.758V94.9369H126.776Z" fill="white"/>
<path d="M130.831 90.0398C131.326 88.416 131.821 86.9051 132.263 84.995C132.758 86.9053 133.201 88.416 133.662 90.0398H130.796H130.831ZM131.647 82.555L127.366 94.9457H129.207L130.284 91.5679H134.017L134.99 94.9457H137.36L133.41 82.555H131.673H131.647Z" fill="white"/>
<path d="M137.977 82.5462H140.087V93.2697H144.281V94.9369H137.977V82.5462Z" fill="white"/>
<path d="M82.3619 105.305V110.419C81.2447 110.891 80.0492 111.15 78.8368 111.183C75.1898 111.183 72.8886 108.352 72.8886 104.706C72.8886 101.328 75.1898 98.367 78.9061 98.367C79.9814 98.3729 81.0291 98.7061 81.9105 99.322L81.2245 100.789C80.5385 100.379 79.7575 100.155 78.9585 100.138C76.692 100.138 75.1551 101.927 75.1551 104.74C75.1551 107.554 76.8916 109.412 78.75 109.412C79.2623 109.434 79.7723 109.329 80.2346 109.108V105.305H82.3619Z" fill="white"/>
<path d="M89.9598 100.242H86.4171V103.637H89.8902V105.305H86.4171V109.307H90.5937V110.975H84.2899V98.5667H89.9513V100.234L89.9598 100.242Z" fill="white"/>
<path d="M96.5067 109.412C94.2926 109.412 93.5198 106.972 93.5198 104.601C93.5198 102.231 94.3881 100.138 96.5067 100.138C98.6255 100.138 99.5025 102.318 99.5025 104.601C99.5024 106.885 98.721 109.412 96.5067 109.412ZM96.5067 111.148C99.7454 111.148 101.76 108.265 101.76 104.567C101.76 101.093 99.5284 98.3322 96.5067 98.3322C93.4853 98.3322 91.2537 101.093 91.2537 104.567C91.2537 108.3 93.268 111.183 96.5067 111.183V111.148Z" fill="white"/>
<path d="M111.963 105.305V110.419C110.845 110.891 109.65 111.15 108.437 111.183C104.79 111.183 102.489 108.352 102.489 104.706C102.489 101.328 104.79 98.367 108.507 98.367C109.582 98.3729 110.63 98.7061 111.511 99.322L110.825 100.789C110.139 100.379 109.358 100.155 108.559 100.138C106.292 100.138 104.756 101.927 104.756 104.74C104.756 107.554 106.492 109.412 108.35 109.412C108.863 109.434 109.373 109.329 109.835 109.108V105.305H111.963Z" fill="white"/>
<path d="M116.035 100.242H116.973C117.96 100.144 118.84 100.866 118.938 101.854C118.951 101.982 118.95 102.111 118.935 102.239C119.091 103.433 118.25 104.527 117.057 104.683C117.012 104.689 116.966 104.694 116.921 104.697L116.052 104.749V100.234L116.035 100.242ZM121.418 110.966L118.961 105.834C120.297 105.093 121.12 103.68 121.106 102.153C121.106 99.7474 119.638 98.5753 117.268 98.5753H113.96V110.966H116.087V106.294H117.042L119.039 110.966H121.462H121.418Z" fill="white"/>
<path d="M124.918 106.069C125.413 104.445 125.907 102.934 126.35 101.024C126.845 102.934 127.288 104.436 127.748 106.069H124.883H124.918ZM125.734 98.5667L121.453 110.957H123.303L124.379 107.579H128.113L129.085 110.957H131.456L127.505 98.5667H125.769H125.734Z" fill="white"/>
<path d="M135.459 98.5667H132.151V110.957H134.278V106.294H135.233C137.468 106.309 139.292 104.51 139.306 102.275C139.307 102.234 139.306 102.193 139.305 102.153C139.271 99.7473 137.803 98.5667 135.459 98.5667ZM135.155 104.688L134.287 104.74V100.234H135.242C136.23 100.146 137.103 100.876 137.192 101.864C137.203 101.986 137.201 102.109 137.187 102.231C137.347 103.429 136.505 104.529 135.307 104.689C135.248 104.697 135.189 104.702 135.129 104.706L135.155 104.688Z" fill="white"/>
<path d="M149.117 110.966H146.99V105.001H142.579V110.966H140.469V98.5667H142.579V103.325H146.99V98.6012H149.117V110.957V110.966Z" fill="white"/>
<path d="M151.149 110.966V98.5667H153.259V110.957H151.149V110.966Z" fill="white"/>
<path d="M162.81 100.824C162.156 100.41 161.405 100.174 160.631 100.138C158.469 100.138 156.897 101.927 156.897 104.74C156.897 107.553 158.634 109.412 160.683 109.412C161.436 109.41 162.173 109.196 162.811 108.795L163.392 110.332C162.558 110.873 161.591 111.174 160.596 111.2C156.949 111.2 154.649 108.37 154.649 104.723C154.649 101.345 156.932 98.3843 160.631 98.3843C161.653 98.416 162.644 98.7482 163.479 99.3395L162.81 100.824Z" fill="white"/>
<path fill-rule="evenodd" clip-rule="evenodd" d="M42.072 125.094H52.7145L62.886 150.052L74.2301 123.812L85.6009 150.052L95.8331 125.094H105.833L86.2827 171.431L73.9686 143.742L61.7259 171.431L42.072 125.094Z" fill="white"/>
<path fill-rule="evenodd" clip-rule="evenodd" d="M113.869 169.548V125.094H123.569V169.548H113.869Z" fill="white"/>
<path fill-rule="evenodd" clip-rule="evenodd" d="M136.065 169.548V125.094H145.765V161.542H164.571L161.4 169.548H136.065Z" fill="white"/>
<path d="M172.607 125.095V169.549H187.111C200.259 169.549 210 159.745 210 147.325C210 134.049 199.078 125.095 187.676 125.095H172.607ZM182.27 133.142H186.075C194.548 133.142 200.235 139.238 200.235 147.322C200.235 156.614 193.061 161.505 186.596 161.505H182.27V133.142Z" fill="white"/>
</svg>
