<svg width="250" height="250" viewBox="0 0 250 250" fill="none" xmlns="http://www.w3.org/2000/svg">
<rect width="250" height="250" fill="#191919"/>
<path d="M40 149.977V100.023H74.8576V149.977H40ZM69.8136 144.945V105.055H45.0194V144.945H69.8136Z" fill="#FFD520"/>
<path d="M98.0189 122.429H95.8623C93.0359 118.433 90.2212 114.461 87.4191 109.965V122.429H84.9826V105.043H87.1389C89.9657 109.015 92.78 112.962 95.5578 117.434V105.043H97.9946V122.429H98.0189Z" fill="white"/>
<path d="M103.672 115.558C104.367 113.279 105.061 111.159 105.682 108.479C106.377 111.159 106.998 113.279 107.644 115.558H103.672ZM104.817 105.055L98.7985 122.429H101.382L102.892 117.69H108.131L109.496 122.429H112.822L107.327 105.043H104.891L104.817 105.055Z" fill="white"/>
<path d="M115.649 122.429V107.382H111.08V105.055H123.166V107.382H118.597V122.429H115.612H115.649Z" fill="white"/>
<path d="M124.177 122.429V105.043H127.138V122.429H124.177Z" fill="white"/>
<path d="M136.312 120.212C133.206 120.212 132.109 116.788 132.109 113.462C132.109 110.136 133.327 107.199 136.312 107.199C139.298 107.199 140.504 110.258 140.504 113.462C140.504 116.666 139.419 120.212 136.312 120.212ZM136.312 122.648C140.857 122.648 143.683 118.604 143.683 113.413C143.683 108.54 140.552 104.665 136.312 104.665C132.073 104.665 128.941 108.54 128.941 113.413C128.941 118.676 131.768 122.734 136.312 122.734V122.648Z" fill="white"/>
<path d="M158.499 122.429H156.342C153.516 118.433 150.701 114.461 147.899 109.965V122.429H145.463V105.043H147.619C150.446 109.015 153.26 112.962 156.038 117.434V105.043H158.475V122.429H158.499Z" fill="white"/>
<path d="M164.189 115.558C164.883 113.279 165.578 111.159 166.199 108.479C166.894 111.159 167.515 113.279 168.161 115.558H164.14H164.189ZM165.334 105.055L159.327 122.441H161.91L163.421 117.702H168.66L170.025 122.441H173.351L167.807 105.055H165.37H165.334Z" fill="white"/>
<path d="M174.216 105.043H177.177V120.09H183.061V122.429H174.216V105.043Z" fill="white"/>
<path d="M96.179 136.977V144.153C94.6112 144.815 92.9339 145.178 91.2327 145.225C86.1153 145.225 82.8864 141.253 82.8864 136.136C82.8864 131.396 86.1153 127.242 91.3299 127.242C92.8387 127.25 94.3088 127.718 95.5456 128.582L94.583 130.641C93.6203 130.066 92.5245 129.751 91.4033 129.728C88.2232 129.728 86.0665 132.237 86.0665 136.185C86.0665 140.132 88.5031 142.74 91.1108 142.74C91.8297 142.771 92.5452 142.624 93.194 142.313V136.977H96.179Z" fill="white"/>
<path d="M106.84 129.873H101.869V134.637H106.742V136.977H101.869V142.593H107.729V144.933H98.8842V127.522H106.828V129.861L106.84 129.873Z" fill="white"/>
<path d="M116.026 142.74C112.92 142.74 111.835 139.316 111.835 135.99C111.835 132.664 113.054 129.727 116.026 129.727C118.999 129.727 120.23 132.785 120.23 135.99C120.23 139.194 119.133 142.74 116.026 142.74ZM116.026 145.176C120.571 145.176 123.398 141.131 123.398 135.941C123.398 131.068 120.266 127.193 116.026 127.193C111.787 127.193 108.656 131.068 108.656 135.941C108.656 141.18 111.482 145.225 116.026 145.225V145.176Z" fill="white"/>
<path d="M137.714 136.977V144.153C136.146 144.815 134.468 145.178 132.767 145.225C127.65 145.225 124.421 141.253 124.421 136.136C124.421 131.396 127.65 127.242 132.864 127.242C134.373 127.25 135.843 127.718 137.08 128.582L136.118 130.641C135.155 130.066 134.059 129.751 132.937 129.728C129.758 129.728 127.601 132.237 127.601 136.185C127.601 140.132 130.038 142.74 132.645 142.74C133.364 142.771 134.079 142.624 134.728 142.313V136.977H137.714Z" fill="white"/>
<path d="M143.428 129.873H144.744C146.13 129.736 147.364 130.748 147.502 132.135C147.52 132.315 147.518 132.496 147.497 132.676C147.716 134.351 146.536 135.886 144.862 136.105C144.798 136.113 144.735 136.12 144.67 136.124L143.452 136.197V129.861L143.428 129.873ZM150.982 144.921L147.534 137.72C149.408 136.68 150.562 134.698 150.543 132.554C150.543 129.179 148.484 127.534 145.158 127.534H140.516V144.921H143.501V138.365H144.841L147.643 144.921H151.043H150.982Z" fill="white"/>
<path d="M155.892 138.049C156.586 135.771 157.281 133.65 157.902 130.97C158.597 133.65 159.218 135.758 159.863 138.049H155.843H155.892ZM157.037 127.522L151.03 144.908H153.626L155.136 140.168H160.375L161.74 144.908H165.066L159.522 127.522H157.086H157.037Z" fill="white"/>
<path d="M170.683 127.522H166.041V144.908H169.026V138.365H170.366C173.502 138.387 176.061 135.862 176.082 132.726C176.082 132.669 176.082 132.611 176.08 132.554C176.031 129.179 173.972 127.522 170.683 127.522ZM170.256 136.111L169.038 136.184V129.861H170.378C171.765 129.738 172.991 130.762 173.114 132.149C173.13 132.321 173.127 132.493 173.107 132.663C173.332 134.344 172.151 135.889 170.47 136.113C170.387 136.124 170.304 136.132 170.22 136.136L170.256 136.111Z" fill="white"/>
<path d="M189.848 144.921H186.863V136.55H180.673V144.921H177.713V127.522H180.673V134.199H186.863V127.571H189.848V144.908V144.921Z" fill="white"/>
<path d="M192.699 144.921V127.522H195.659V144.908H192.699V144.921Z" fill="white"/>
<path d="M209.062 130.69C208.143 130.109 207.089 129.777 206.003 129.728C202.969 129.728 200.764 132.237 200.764 136.184C200.764 140.132 203.201 142.74 206.077 142.74C207.133 142.737 208.168 142.437 209.062 141.875L209.878 144.031C208.707 144.791 207.35 145.212 205.955 145.249C200.838 145.249 197.609 141.278 197.609 136.16C197.609 131.421 200.813 127.266 206.004 127.266C207.438 127.311 208.828 127.777 210 128.607L209.062 130.69Z" fill="white"/>
</svg>
