<svg width="250" height="250" viewBox="0 0 250 250" fill="none" xmlns="http://www.w3.org/2000/svg">
<rect width="250" height="250" fill="#004157"/>
<path d="M158.668 123.949C156.012 125.642 152.06 125.21 150.035 122.72C148.309 120.562 148.143 117.374 149.305 114.917C150.201 113.025 152.16 111.763 154.219 111.597C156.642 111.232 159.1 112.394 160.627 114.287C162.088 113.058 163.449 111.73 164.877 110.468C160.295 104.824 150.799 104.558 145.553 109.472C141.137 113.523 140.672 120.994 144.291 125.708C145.187 126.871 146.283 127.966 147.644 128.597C149.803 129.195 152.027 129.56 154.252 129.726C156.775 129.792 159.299 129.328 161.756 128.697C163.017 128.166 163.947 127.103 164.877 126.14C163.449 124.845 162.055 123.55 160.627 122.289C160.029 122.853 159.432 123.517 158.668 123.949Z" fill="white"/>
<path d="M62.3125 106.417H55.8047C55.8047 110.601 55.8379 114.851 55.8047 119.035C52.3848 114.818 48.8652 110.601 45.4121 106.417C45.0137 106.417 44.6484 106.417 44.3496 106.417H43.6523C43.5195 106.417 43.4199 106.417 43.3203 106.417H43.0215C42.9551 106.417 42.9219 106.417 42.8887 106.417H42.8555C42.8223 106.417 42.7891 106.417 42.7891 106.417H42.7559H42.7227H42.6562H42.623H42.4902C42.4238 106.417 42.3242 106.417 42.1914 106.417H41.8594C41.6602 106.417 41.4277 106.417 41.1621 106.417L40 106.384V123.65V129.693C42.1914 129.527 44.3828 129.162 46.5078 128.63C46.5078 124.912 46.5078 121.193 46.5078 117.441C48.9648 120.429 51.4219 123.417 53.8789 126.406C56.7012 125.476 59.457 124.48 62.3125 123.617C62.3125 117.939 62.3125 112.128 62.3125 106.417Z" fill="white"/>
<path d="M72.5058 106.417C72.5058 106.417 67.6581 117.341 65.3339 122.82C67.5253 122.189 69.8495 122.355 72.0409 122.953C77.619 124.447 82.998 126.705 88.5761 128.199C85.3886 120.96 78.9804 106.417 78.9804 106.417H72.5058ZM72.6718 120.529L75.6601 113.158L78.6483 120.529H72.6718Z" fill="white"/>
<path d="M103.119 120.828C103.119 123.119 101.26 125.011 98.9356 125.011H98.5371C96.2461 125.011 94.3535 123.152 94.3535 120.828C94.3535 120.828 94.3535 111 94.3535 107.646V106.417V106.384H87.7129C87.7129 106.384 87.7129 120.363 87.7129 120.529C87.8125 123.916 89.4727 127.468 92.5938 129.062C96.6446 130.191 100.928 129.427 104.945 128.398C105.576 128.199 106.107 128.066 106.805 127.667C108.73 125.841 109.66 123.119 109.76 120.529V106.384H103.119V120.828Z" fill="white"/>
<path d="M125.033 106.417H118.392H111.254V111.763H118.392C118.392 111.996 118.392 124.148 118.392 124.148C120.551 123.417 122.742 122.753 125.033 122.421C125.033 122.355 125.033 111.763 125.033 111.763H132.238V106.417H125.033Z" fill="white"/>
<path d="M133.832 124.181L140.472 126.406V106.451H133.832V124.181Z" fill="white"/>
<path d="M174.506 106.451L165.143 127.734C170.588 126.173 175.801 123.916 181.346 122.654C183.703 122.056 186.16 122.554 188.418 123.218L181.014 106.451H174.506ZM174.738 120.529L177.727 113.091L180.715 120.529H174.738Z" fill="white"/>
<path d="M198.844 124.746C198.844 124.48 198.844 106.451 198.844 106.451H192.203C192.203 106.451 192.203 120.496 192.203 124.414C198.08 126.306 203.857 128.63 210 129.527V124.746H198.844Z" fill="white"/>
<path d="M45.6777 139.787C45.5781 139.156 44.8144 138.691 43.9512 138.691C42.3906 138.691 41.793 139.72 41.793 140.816C41.793 141.845 42.3906 142.875 43.9512 142.875C45.0137 142.875 45.6113 142.31 45.7441 141.48H47.4375C47.2715 143.041 45.8769 144.003 43.918 144.003C41.4609 144.003 40 142.576 40 140.783C40 138.957 41.4609 137.496 43.918 137.496C45.6777 137.496 47.1387 138.292 47.3711 139.72H45.6777V139.787Z" fill="white"/>
<path d="M67.8906 137.695H69.6504V140.052H72.8711V137.695H74.6308V143.837H72.8711V141.181H69.6504V143.837H67.8906V137.695Z" fill="white"/>
<path d="M97.7735 137.695H99.5665L102.555 143.837H100.729L100.131 142.476H97.1427L96.5118 143.837H94.752L97.7735 137.695ZM97.6075 141.447H99.6661L98.67 139.189H98.6368L97.6075 141.447Z" fill="white"/>
<path d="M122.576 137.695H124.303L127.623 141.845H127.656V137.695H129.283V143.904H127.523L124.203 139.753H124.17V143.904H122.543V137.695H122.576Z" fill="white"/>
<path d="M150.334 137.628H152.061L155.381 141.779H155.414V137.628H157.041V143.837H155.281L151.961 139.687H151.928V143.837H150.301V137.628H150.334Z" fill="white"/>
<path d="M177.892 137.628H183.869V138.791H179.652V140.119H183.504V141.181H179.652V142.708H183.935V143.871H177.892V137.628Z" fill="white"/>
<path d="M204.355 137.628H206.115V142.675H210V143.837H204.355V137.628Z" fill="white"/>
</svg>
