<svg width="284" height="284" viewBox="0 0 284 284" fill="none" xmlns="http://www.w3.org/2000/svg">
<rect width="283.46" height="283.46" transform="translate(0.0400391 0.0400085)" fill="#004157"/>
<path d="M181.07 140.543C177.97 142.519 173.358 142.016 170.993 139.109C168.978 136.59 168.784 132.869 170.141 130.001C171.187 127.792 173.474 126.319 175.877 126.125C178.706 125.699 181.574 127.055 183.357 129.264C185.062 127.83 186.651 126.28 188.318 124.807C182.969 118.218 171.885 117.908 165.761 123.644C160.606 128.373 160.064 137.093 164.288 142.597C165.335 143.954 166.614 145.233 168.203 145.969C170.722 146.667 173.319 147.093 175.916 147.287C178.861 147.364 181.807 146.822 184.675 146.085C186.148 145.465 187.233 144.225 188.318 143.101C186.651 141.589 185.024 140.078 183.357 138.605C182.659 139.264 181.962 140.039 181.07 140.543Z" fill="white"/>
<path d="M68.595 120.079H60.9985C60.9985 124.962 61.0373 129.923 60.9985 134.807C57.0065 129.884 52.8981 124.962 48.8673 120.079C48.4022 120.079 47.9759 120.079 47.6271 120.079H46.8132C46.6581 120.079 46.5419 120.079 46.4256 120.079H46.0768C45.9992 120.079 45.9605 120.079 45.9217 120.079H45.883C45.8442 120.079 45.8055 120.079 45.8055 120.079H45.7667H45.7279H45.6504H45.6117H45.4566C45.3791 120.079 45.2628 120.079 45.1078 120.079H44.7202C44.4877 120.079 44.2164 120.079 43.9063 120.079L42.5498 120.04V140.194V147.248C45.1078 147.054 47.6658 146.628 50.1463 146.008C50.1463 141.667 50.1463 137.326 50.1463 132.946C53.0144 136.435 55.8825 139.923 58.7506 143.411C62.045 142.326 65.2619 141.163 68.595 140.155C68.595 133.528 68.595 126.745 68.595 120.079Z" fill="white"/>
<path d="M80.4938 120.079C80.4938 120.079 74.8351 132.83 72.1221 139.225C74.6801 138.489 77.3931 138.682 79.9511 139.38C86.4624 141.124 92.7412 143.76 99.2525 145.504C95.5318 137.055 88.0515 120.079 88.0515 120.079H80.4938ZM80.6875 136.551L84.1757 127.947L87.6639 136.551H80.6875Z" fill="white"/>
<path d="M116.229 136.9C116.229 139.574 114.058 141.783 111.345 141.783H110.88C108.206 141.783 105.997 139.613 105.997 136.9C105.997 136.9 105.997 125.427 105.997 121.513V120.079V120.04H98.2451C98.2451 120.04 98.2451 136.357 98.2451 136.551C98.3614 140.504 100.299 144.651 103.943 146.512C108.671 147.829 113.671 146.938 118.36 145.736C119.097 145.504 119.717 145.349 120.531 144.884C122.779 142.752 123.864 139.574 123.98 136.551V120.04H116.229V136.9Z" fill="white"/>
<path d="M141.808 120.079H134.057H125.724V126.319H134.057C134.057 126.59 134.057 140.775 134.057 140.775C136.576 139.923 139.134 139.148 141.808 138.76C141.808 138.682 141.808 126.319 141.808 126.319H150.219V120.079H141.808Z" fill="white"/>
<path d="M152.079 140.814L159.831 143.411V120.117H152.079V140.814Z" fill="white"/>
<path d="M199.558 120.117L188.628 144.961C194.984 143.14 201.069 140.504 207.542 139.031C210.294 138.334 213.162 138.915 215.797 139.69L207.154 120.117H199.558ZM199.829 136.551L203.317 127.869L206.805 136.551H199.829Z" fill="white"/>
<path d="M227.967 141.473C227.967 141.163 227.967 120.117 227.967 120.117H220.216C220.216 120.117 220.216 136.512 220.216 141.085C227.076 143.295 233.82 146.008 240.99 147.054V141.473H227.967Z" fill="white"/>
<path d="M49.1774 159.03C49.0611 158.294 48.1697 157.751 47.162 157.751C45.3404 157.751 44.6427 158.953 44.6427 160.232C44.6427 161.433 45.3404 162.635 47.162 162.635C48.4022 162.635 49.0999 161.976 49.2549 161.007H51.2315C51.0378 162.829 49.4099 163.953 47.1232 163.953C44.2551 163.953 42.5498 162.286 42.5498 160.193C42.5498 158.061 44.2551 156.356 47.1232 156.356C49.1774 156.356 50.8827 157.286 51.154 158.953H49.1774V159.03Z" fill="white"/>
<path d="M75.1064 156.589H77.1606V159.34H80.9201V156.589H82.9743V163.759H80.9201V160.658H77.1606V163.759H75.1064V156.589Z" fill="white"/>
<path d="M109.989 156.589H112.082L115.57 163.759H113.438L112.741 162.17H109.252L108.516 163.759H106.462L109.989 156.589ZM109.795 160.968H112.198L111.035 158.333H110.997L109.795 160.968Z" fill="white"/>
<path d="M138.94 156.589H140.956L144.831 161.433H144.87V156.589H146.769V163.836H144.715L140.839 158.992H140.8V163.836H138.901V156.589H138.94Z" fill="white"/>
<path d="M171.342 156.511H173.358L177.234 161.356H177.272V156.511H179.172V163.759H177.117L173.242 158.914H173.203V163.759H171.304V156.511H171.342Z" fill="white"/>
<path d="M203.511 156.511H210.487V157.868H205.565V159.418H210.061V160.658H205.565V162.441H210.565V163.798H203.511V156.511Z" fill="white"/>
<path d="M234.4 156.511H236.455V162.402H240.989V163.759H234.4V156.511Z" fill="white"/>
</svg>
