<svg width="250" height="250" viewBox="0 0 250 250" fill="none" xmlns="http://www.w3.org/2000/svg">
<rect width="250" height="250" fill="#294EA6"/>
<path d="M45.829 137.526H40V124.141L45.829 133.439V137.526Z" fill="url(#paint0_linear_365_4015)"/>
<path d="M45.829 130.79L40 121.334V112.483H46.8316L56.9473 128.89V112.483H62.6683V137.526H55.9758L45.829 121.118V130.79Z" fill="white"/>
<path d="M64.612 137.526V112.483H81.4513V117.556H70.441V122.414H80.8036V127.163H70.441V132.453H82.099V137.526H64.612Z" fill="white"/>
<path d="M88.9246 137.526L82.5159 112.483H88.277L92.03 127.462L95.2669 112.483H101.959L105.684 127.462L109.084 112.483H114.913L108.518 137.526H102.473L98.7497 121.331L94.888 137.526H88.9246Z" fill="white"/>
<path d="M117.456 130.55L113.516 134.585C113.516 134.585 116.564 138.159 122.911 138.159C128.784 138.159 132.459 134.821 132.459 129.86C132.459 121.437 120.779 123.581 120.779 119.294C120.779 118.02 121.885 116.797 124.218 116.797C126.709 116.797 128.809 118.929 128.809 118.929L132.574 114.934C132.574 114.934 129.71 111.841 124.41 111.841C118.418 111.841 114.747 115.274 114.747 119.659C114.747 128.504 126.331 125.818 126.331 130.475C126.331 132.289 124.814 133.241 122.911 133.241C119.588 133.241 117.456 130.55 117.456 130.55Z" fill="white"/>
<path d="M134.127 137.526V112.483H142.627L148.485 128.756L154.042 112.483H162.625V137.526H156.796V119.823L150.319 137.526H146.083L139.74 119.633V137.526H134.127Z" fill="white"/>
<path d="M173.102 112.483L162.624 137.526H169.101L170.967 132.561H180.682L182.606 137.526H191.827L197.1 128.727L202.626 137.526H210L200.976 124.314L208.925 112.483H201.916L197.282 120.27L192.633 112.483H185.293L193.4 124.314L187.532 133.29L178.938 112.483H173.102ZM175.894 119.237L179.133 127.811H172.656L175.894 119.237Z" fill="white"/>
<defs>
<linearGradient id="paint0_linear_365_4015" x1="40.446" y1="137.522" x2="40.446" y2="124.128" gradientUnits="userSpaceOnUse">
<stop stop-color="#B5000B"/>
<stop offset="0.2" stop-color="#CC0011"/>
<stop offset="0.4" stop-color="#E60017"/>
<stop offset="0.6" stop-color="#FE001C"/>
<stop offset="0.8" stop-color="#FE001C"/>
<stop offset="1" stop-color="#FE001C"/>
</linearGradient>
</defs>
</svg>
