<svg width="250" height="250" viewBox="0 0 250 250" fill="none" xmlns="http://www.w3.org/2000/svg">
<rect width="250" height="250" fill="#3E3A2F"/>
<path d="M210 105.285H200.414V130.468H210V105.285Z" fill="#727171"/>
<path d="M250 129.621H0V144.715H250V129.621Z" fill="#E60019"/>
<path d="M132.068 126.335H128.496L126.71 114.75H126.642L124.856 126.335H121.284L118.365 110.372H121.456L123.207 122.198H123.242L125.13 110.372H128.222L130.076 122.198H130.11L131.896 110.372H134.987L132.068 126.335Z" fill="white"/>
<path d="M138.25 114.992C138.353 113.957 138.628 113.095 139.006 112.371C139.384 111.647 139.933 111.061 140.62 110.647C141.341 110.234 142.269 110.027 143.505 110.027C144.707 110.027 145.669 110.234 146.39 110.647C147.111 111.061 147.661 111.647 148.004 112.371C148.382 113.095 148.622 113.992 148.76 114.992C148.863 116.026 148.932 117.129 148.932 118.336C148.932 119.577 148.863 120.681 148.76 121.681C148.657 122.715 148.416 123.542 148.004 124.301C147.626 125.025 147.077 125.577 146.39 125.99C145.669 126.37 144.707 126.576 143.505 126.576C142.303 126.576 141.341 126.404 140.62 125.99C139.899 125.611 139.349 125.059 139.006 124.301C138.628 123.577 138.388 122.68 138.25 121.681C138.147 120.646 138.079 119.543 138.079 118.336C138.079 117.129 138.147 116.026 138.25 114.992ZM141.376 121.094C141.444 121.853 141.547 122.474 141.685 122.922C141.856 123.404 142.063 123.715 142.337 123.956C142.612 124.197 142.99 124.266 143.471 124.266C143.952 124.266 144.329 124.163 144.604 123.956C144.879 123.749 145.119 123.404 145.257 122.922C145.428 122.474 145.531 121.853 145.566 121.094C145.634 120.336 145.634 119.439 145.634 118.371C145.634 117.302 145.6 116.371 145.566 115.647C145.497 114.888 145.394 114.268 145.257 113.819C145.085 113.337 144.879 112.992 144.604 112.785C144.295 112.578 143.952 112.475 143.471 112.475C142.99 112.475 142.612 112.578 142.337 112.785C142.063 112.992 141.822 113.337 141.685 113.819C141.513 114.302 141.41 114.923 141.376 115.647C141.307 116.405 141.307 117.302 141.307 118.371C141.307 119.405 141.341 120.336 141.376 121.094Z" fill="white"/>
<path d="M159.235 110.372C160.574 110.372 161.605 110.716 162.36 111.406C163.116 112.061 163.494 113.13 163.494 114.509C163.494 115.578 163.288 116.474 162.841 117.129C162.429 117.819 161.742 118.267 160.849 118.44V118.508C161.639 118.646 162.223 118.888 162.601 119.301C162.979 119.715 163.219 120.336 163.288 121.267C163.322 121.577 163.356 121.887 163.356 122.232C163.391 122.577 163.391 122.991 163.425 123.404C163.459 124.266 163.494 124.921 163.562 125.37C163.631 125.818 163.837 126.128 164.146 126.266V126.37H160.677C160.506 126.163 160.403 125.887 160.368 125.577C160.334 125.266 160.3 124.99 160.3 124.68L160.128 121.612C160.094 120.991 159.956 120.474 159.647 120.129C159.372 119.784 158.892 119.577 158.239 119.577H156.522V126.335H153.328V110.372H159.235ZM157.827 117.336C158.617 117.336 159.201 117.164 159.613 116.785C160.025 116.405 160.231 115.785 160.231 114.923C160.231 113.44 159.475 112.682 157.999 112.682H156.487V117.302H157.827V117.336Z" fill="white"/>
<path d="M176.888 123.715V126.335H167.993V110.372H171.187V123.715H176.888Z" fill="white"/>
<path d="M186.127 110.372C187.26 110.372 188.153 110.544 188.84 110.923C189.493 111.302 190.042 111.82 190.455 112.475C190.832 113.13 191.107 113.992 191.244 114.957C191.382 115.923 191.451 116.991 191.451 118.164C191.451 119.577 191.382 120.784 191.176 121.853C191.004 122.887 190.729 123.749 190.283 124.439C189.871 125.094 189.321 125.611 188.6 125.956C187.913 126.266 187.02 126.439 185.955 126.439H180.872V110.372H186.127ZM185.509 123.991C186.058 123.991 186.539 123.922 186.883 123.68C187.226 123.508 187.501 123.163 187.707 122.715C187.879 122.267 188.016 121.681 188.119 120.956C188.188 120.232 188.222 119.336 188.222 118.233C188.222 117.336 188.188 116.509 188.153 115.854C188.085 115.164 187.982 114.578 187.776 114.13C187.604 113.682 187.329 113.337 186.951 113.095C186.608 112.854 186.093 112.751 185.475 112.751H184.101V123.956L185.509 123.991Z" fill="white"/>
<path d="M128.666 131.486V139.714C128.666 142.162 127.455 143.148 124.958 143.148C122.314 143.148 121.689 141.584 121.689 139.782V139.272H123.966V139.646C123.966 140.87 124.186 141.448 125.068 141.448C125.949 141.448 126.169 140.87 126.169 139.646V131.486H128.666Z" fill="#570404"/>
<path d="M139.945 131.486H143.029L146.298 142.91H143.69L143.103 140.496H139.798L139.21 142.91H136.603L139.945 131.486ZM140.275 138.626H142.699L141.487 133.492H141.45L140.275 138.626Z" fill="#570404"/>
<path d="M153.743 131.486H158.246C160.78 131.486 161.761 133.22 161.761 134.92C161.761 137.3 160.148 138.592 157.798 138.592H155.966V142.944H153.707L153.743 131.486ZM156.002 136.926H157.682C158.673 136.926 159.402 136.144 159.402 134.954C159.402 133.832 158.857 132.982 157.609 132.982H155.966L156.002 136.926Z" fill="#570404"/>
<path d="M170.371 131.486H173.456L176.724 142.91H174.117L173.529 140.496H170.224L169.637 142.91H167.029L170.371 131.486ZM170.701 138.626H173.125L171.913 133.492H171.877L170.701 138.626Z" fill="#570404"/>
<path d="M187.054 131.486L190.029 139.34H190.065V131.486H192.342V142.944H189.551L186.467 134.954V142.944H184.19V131.486H187.054Z" fill="#570404"/>
<path d="M110.279 111.244C109.883 110.736 109.309 110.404 108.678 110.317C108.046 110.23 107.406 110.394 106.891 110.776L100.108 115.901L100.838 113.353C100.923 113.048 100.948 112.728 100.91 112.412C100.873 112.097 100.774 111.792 100.62 111.516C100.466 111.239 100.259 110.997 100.012 110.802C99.7646 110.608 99.482 110.465 99.1802 110.383C98.5653 110.196 97.9026 110.264 97.3373 110.573C96.7719 110.882 96.3502 111.407 96.1645 112.032L92.937 123.223C92.851 123.529 92.8259 123.85 92.8633 124.166C92.9007 124.482 92.9999 124.788 93.155 125.065C93.3101 125.341 93.518 125.584 93.7664 125.778C94.0149 125.972 94.2989 126.113 94.6019 126.194C94.8176 126.258 95.0414 126.291 95.2664 126.29C95.7856 126.293 96.2918 126.125 96.71 125.812C97.1282 125.499 97.4362 125.057 97.5884 124.552L98.9684 119.74C98.9909 119.767 99.0153 119.792 99.0415 119.814L99.1218 119.926L104.357 125.525C104.801 125.991 105.404 126.264 106.041 126.288C106.678 126.311 107.299 126.083 107.775 125.652C108.007 125.44 108.194 125.183 108.326 124.896C108.459 124.609 108.533 124.298 108.544 123.981C108.556 123.665 108.505 123.349 108.394 123.053C108.283 122.757 108.115 122.486 107.899 122.258L104.489 118.596L109.812 114.638C110.069 114.453 110.287 114.215 110.451 113.941C110.615 113.667 110.722 113.362 110.766 113.044C110.81 112.726 110.789 112.402 110.705 112.093C110.622 111.783 110.477 111.495 110.279 111.244Z" fill="white"/>
<path d="M89.8203 110.383C89.2095 110.204 88.5543 110.277 87.9958 110.586C87.4372 110.894 87.0201 111.413 86.8342 112.031L85.6879 116.012H80.2413L80.9714 113.353C81.0576 113.047 81.083 112.727 81.046 112.411C81.0091 112.096 80.9105 111.79 80.7562 111.514C80.6019 111.237 80.3948 110.995 80.1472 110.8C79.8996 110.606 79.6163 110.464 79.3141 110.383C78.7032 110.204 78.048 110.277 77.4895 110.586C76.931 110.894 76.5139 111.413 76.3279 112.031L73.1447 123.223C73.0521 123.584 73.0421 123.962 73.1154 124.327C73.1887 124.693 73.3434 125.037 73.5675 125.332C73.7917 125.628 74.0794 125.867 74.4085 126.032C74.7377 126.196 75.0996 126.282 75.4664 126.283C75.9856 126.285 76.4917 126.117 76.9099 125.804C77.3281 125.491 77.636 125.05 77.7882 124.545L78.9344 120.579H84.381L83.6509 123.238C83.5584 123.599 83.5484 123.977 83.6217 124.342C83.695 124.708 83.8496 125.052 84.0738 125.347C84.2979 125.642 84.5856 125.882 84.9148 126.046C85.2439 126.211 85.6058 126.297 85.9727 126.297C86.4921 126.301 86.9988 126.134 87.4172 125.821C87.8356 125.508 88.1433 125.065 88.2944 124.56L91.4777 113.353C91.5639 113.047 91.5892 112.727 91.5523 112.411C91.5153 112.096 91.4168 111.79 91.2625 111.514C91.1081 111.237 90.9011 110.995 90.6535 110.8C90.4058 110.606 90.1226 110.464 89.8203 110.383Z" fill="white"/>
<path d="M69.9763 110.383C69.3654 110.207 68.7111 110.281 68.1531 110.589C67.5951 110.897 67.1777 111.415 66.9901 112.032L65.2379 118.129L60.8572 111.393C60.5987 111.004 60.2378 110.696 59.8155 110.506C59.3933 110.315 58.927 110.25 58.4698 110.316C58.0142 110.38 57.5863 110.576 57.2368 110.88C56.8874 111.184 56.6311 111.584 56.4985 112.032L53.2787 123.223C53.1915 123.529 53.1653 123.849 53.2018 124.166C53.2383 124.482 53.3367 124.787 53.4912 125.064C53.6457 125.341 53.8531 125.584 54.1013 125.778C54.3494 125.972 54.6333 126.113 54.936 126.194C55.1518 126.258 55.3756 126.29 55.6004 126.29C56.1199 126.294 56.6266 126.127 57.045 125.814C57.4634 125.5 57.7711 125.058 57.9222 124.553L59.6744 118.455L64.0551 125.191C64.3115 125.58 64.6713 125.888 65.0927 126.077C65.5141 126.266 65.9797 126.33 66.4352 126.261C66.8909 126.2 67.3194 126.006 67.6692 125.703C68.0191 125.4 68.2751 125 68.4065 124.553L71.619 113.353C71.7044 113.049 71.7296 112.73 71.6932 112.415C71.6567 112.1 71.5593 111.796 71.4065 111.52C71.2538 111.244 71.0487 111.001 70.8032 110.806C70.5578 110.611 70.2767 110.467 69.9763 110.383Z" fill="white"/>
</svg>
