<svg width="250" height="250" viewBox="0 0 250 250" fill="none" xmlns="http://www.w3.org/2000/svg">
<rect width="250" height="250" fill="url(#paint0_linear_210_124)"/>
<path d="M40.0233 88.4903H45.683V91.4483C47.3366 89.2356 49.9685 87.9546 52.7168 88.0012C58.097 88.0245 61.8469 91.9607 61.8469 97.3409V110.919H56.1872V98.2958C56.257 95.5708 54.1376 93.265 51.3893 93.1485H50.9933C48.2217 93.0088 45.8693 95.1515 45.7296 97.9231V110.873H40.0699L40.0233 88.467V88.4903Z" fill="white"/>
<path d="M76.9859 106.145C80.4562 106.145 83.1114 103.35 83.1114 99.6701C83.2977 96.2929 80.6891 93.4049 77.312 93.2185C73.9348 93.0322 71.0467 95.6408 70.8604 99.018V99.6701C70.8604 103.373 73.469 106.145 76.9626 106.145M76.9859 88.0247C83.7635 88.0247 88.9807 93.0555 88.9807 99.6468C88.9807 106.238 83.8334 111.316 76.9859 111.316C70.1384 111.316 64.9911 106.285 64.9911 99.6468C64.9911 93.0089 70.1384 88.0247 76.9859 88.0247Z" fill="white"/>
<path d="M88.7478 88.4905H94.8267L101.022 104.957L107.241 88.4905H112.924L104.027 110.873H97.6449L88.7478 88.4905Z" fill="white"/>
<path d="M124.802 106.145C128.389 106.354 131.44 103.629 131.626 100.043C131.813 96.4559 129.111 93.4047 125.524 93.2184C121.937 93.0088 118.886 95.7338 118.7 99.3206V99.67C118.7 103.373 121.308 106.145 124.802 106.145ZM130.951 108.101C129.111 110.197 126.456 111.362 123.684 111.315C117.535 111.315 112.854 106.285 112.854 99.6467C112.854 93.0088 117.559 88.0246 123.684 88.0246C126.479 88.0013 129.134 89.1891 130.951 91.3086V88.4904H136.587V110.896H130.951V108.101Z" fill="white"/>
<path d="M77.2887 146.811L76.0077 162.718H58.7491V162.183C62.3359 161.88 65.7597 160.715 68.7642 158.736C72.6305 156.011 75.1925 152.098 76.6365 146.741L77.2421 146.788H77.2654L77.2887 146.811ZM55.2555 162.742H40V162.206C44.1458 161.601 45.6364 159.993 45.6364 154.427V128.877C45.6364 123.334 44.1691 121.727 40 121.098V120.562H61.544V121.098C57.1188 121.703 55.2555 123.101 55.2555 128.877V162.718V162.742Z" fill="#F25747"/>
<path d="M197.26 131.346L196.794 130.95C197.889 129.25 198.937 126.524 198.937 125.267C198.937 122.402 197.33 121.307 194.162 121.121V120.585H210V121.121C205.528 121.727 200.754 125.802 197.237 131.369M182.843 143.131L173.48 126.408C171.663 123.194 169.334 121.587 166.237 121.121V120.585H188.316V121.121C185.358 121.261 183.495 122.798 183.495 124.405C183.495 126.012 184.217 126.874 185.312 128.83L192.416 141.687V154.474C192.416 160.226 194.116 161.624 198.052 162.183V162.718H177.276V162.183C181.422 161.577 182.913 159.97 182.913 154.474V143.154H182.866L182.843 143.131Z" fill="#F25747"/>
<path d="M88.9341 156.872C88.9807 155.382 89.1437 153.891 89.4698 152.447L88.9341 152.214C87.7928 155.032 86.8379 157.035 84.7883 159.178C83.2744 160.855 81.2481 161.95 78.9889 162.229V162.765H94.5705V162.229C91.0303 161.95 88.9341 160.133 88.9341 156.896" fill="#F25747"/>
<path d="M143.435 120.609V121.144C145.252 121.331 147.022 121.82 148.652 122.612C154.754 125.43 159.086 131.858 159.086 141.827C159.086 151.795 155.989 157.245 150.934 160.087C148.605 161.274 146.067 162.02 143.435 162.229V162.765C146.882 162.765 150.306 162.276 153.613 161.298C162.953 158.48 169.521 151.329 169.521 141.57C169.521 131.812 158.271 121.237 143.435 120.632" fill="#F25747"/>
<path d="M124.569 121.144C128.715 121.75 130.182 123.357 130.182 128.923V154.474C130.182 159.947 128.738 161.601 124.709 162.183C124.406 162.229 124.103 162.229 123.824 162.183C120.843 161.647 118.467 159.551 116.347 154.474L103.025 120.166H101.022L96.8762 130.67L102.163 144.924H91.5892L90.8672 146.927H102.978L105.308 153.146C106.099 154.846 106.612 156.686 106.775 158.573C106.775 161.135 105.168 162.043 102.14 162.253V162.788H139.778V120.632H124.522V121.168H124.569V121.144Z" fill="#F25747"/>
<defs>
<linearGradient id="paint0_linear_210_124" x1="52.0557" y1="189.375" x2="52.0557" y2="-83.3057" gradientUnits="userSpaceOnUse">
<stop stop-color="#FFC8CD"/>
<stop offset="1" stop-color="#FF6964"/>
</linearGradient>
</defs>
</svg>
