<svg width="250" height="250" viewBox="0 0 250 250" fill="none" xmlns="http://www.w3.org/2000/svg">
<rect width="250" height="250" fill="#181A19"/>
<path d="M41.0282 98.3427H45.0552V100.485C46.2548 98.9425 48.1398 98 50.1105 98.0857C53.6234 98 56.5366 100.742 56.6223 104.169C56.6223 104.34 56.6223 104.512 56.6223 104.769V114.537H52.5952V105.454C52.5952 103.398 50.8816 101.684 48.8252 101.684C46.7689 101.684 45.0552 103.398 45.0552 105.454V114.451H41.0282V98.3427ZM67.5039 98C72.1307 98.0857 75.7293 101.941 75.6437 106.568C75.558 111.195 71.7023 114.794 67.0755 114.708C62.5343 114.622 58.9357 110.852 58.9357 106.397C58.9357 101.77 62.62 98.0857 67.2468 98.0857C67.3325 98 67.4182 98 67.5039 98ZM67.5039 110.938C70.0743 111.109 72.2164 109.139 72.3878 106.568C72.5591 103.998 70.5884 101.856 68.018 101.684C65.4475 101.513 63.3055 103.484 63.1341 106.054C63.1341 106.14 63.1341 106.225 63.1341 106.311C63.0484 108.796 64.9334 110.852 67.3325 110.938C67.4182 110.938 67.5039 110.938 67.5039 110.938ZM75.9864 98.3427H80.3562L84.8116 110.167L89.2671 98.3427H93.3798L86.9537 114.365H82.4125L75.9864 98.3427ZM106.232 112.395C104.947 113.851 102.976 114.708 101.005 114.708C96.6357 114.708 93.2084 111.109 93.2084 106.397C93.2084 101.684 96.55 98.0857 101.005 98.0857C102.976 98.0857 104.947 98.9425 106.232 100.399V98.3427H110.259V114.365H106.232V112.395ZM101.777 111.024C104.347 111.195 106.489 109.224 106.661 106.654C106.832 104.083 104.861 101.941 102.291 101.77C99.7203 101.599 97.5782 103.569 97.4069 106.14C97.4069 106.225 97.4069 106.311 97.4069 106.397C97.3212 108.882 99.2062 110.938 101.605 111.024C101.691 111.024 101.777 111.024 101.777 111.024ZM47.4543 142.04C47.8827 144.183 49.3393 145.296 51.9098 145.296C54.1375 145.296 55.5941 144.44 55.5941 142.897C55.5941 137.671 40.5998 141.184 40.5998 130.216C40.5998 124.904 45.4836 120.963 51.6527 120.963C57.9932 120.963 62.1916 124.39 62.9627 129.445L55.5084 130.988C55.08 128.76 53.7091 127.732 51.3957 127.732C49.425 127.732 48.2255 128.588 48.2255 130.045C48.2255 134.843 63.2198 131.33 63.2198 142.726C63.2198 148.038 58.1646 152.065 51.7384 152.065C45.3123 152.065 40.6855 148.552 40 143.497L47.4543 142.04ZM68.018 121.305H81.2987C88.4959 121.305 93.0371 125.761 93.0371 131.93C93.0371 138.099 88.4959 142.298 81.2987 142.298H75.3009V151.637H67.9323L68.018 121.305ZM81.3844 135.786C83.6121 135.786 85.4114 133.986 85.4114 131.759C85.4114 129.531 83.6121 127.732 81.3844 127.732H75.3866V135.7H81.3844V135.786ZM111.887 120.877C120.884 120.877 127.91 127.646 127.91 136.385C127.91 145.125 120.969 151.98 111.887 151.98C102.805 151.98 95.8646 145.211 95.8646 136.385C95.8646 127.56 102.805 120.963 111.887 120.877ZM111.801 145.296C116.514 145.296 120.198 141.441 120.198 136.471C120.198 131.502 116.6 127.646 111.801 127.646C107.003 127.646 103.405 131.502 103.405 136.471C103.405 141.441 107.089 145.296 111.801 145.296ZM142.476 141.698H139.477V151.637H132.108V121.391H145.474C152.329 121.391 156.699 125.675 156.699 131.587C156.784 135.7 154.3 139.384 150.53 140.841L157.556 151.637H148.816L142.476 141.698ZM145.56 135.015C147.531 135.1 149.244 133.558 149.33 131.587C149.416 129.617 147.873 127.903 145.903 127.817C145.817 127.817 145.646 127.817 145.56 127.817H139.477V134.929H145.56V135.015ZM167.409 127.817H158.584V121.305H183.603V127.817H174.778V151.637H167.409V127.817Z" fill="white"/>
<path d="M188.23 141.612C188.401 144.697 189.429 147.096 191.4 148.724C193.371 150.352 195.941 151.208 199.111 151.208C201.939 151.38 204.766 150.437 206.994 148.724C208.965 147.01 210.078 144.525 209.993 141.955C210.078 139.898 209.393 137.928 208.108 136.3C206.908 134.843 205.195 133.729 203.31 133.215L208.879 127.732V121.391H189.601V127.732H200.054L195.084 132.701V138.013H198.169C201.082 138.013 202.624 139.213 202.624 141.698C202.71 142.469 202.367 143.326 201.767 143.84C200.996 144.44 200.139 144.782 199.111 144.697C198.169 144.697 197.226 144.354 196.541 143.754C195.855 142.983 195.513 141.869 195.598 140.841L188.23 141.612Z" fill="#8EB847"/>
</svg>
