<?xml version="1.0" encoding="UTF-8"?>
<svg id="Vrstva_1" data-name="Vrstva 1" xmlns="http://www.w3.org/2000/svg" xmlns:xlink="http://www.w3.org/1999/xlink" version="1.1" viewBox="0 0 1024 1024">
  <defs>
    <style>
      .cls-1 {
        fill: url(#Nepojmenovaný_přechod_37);
        stroke: #020202;
        stroke-miterlimit: 10;
      }

      .cls-2 {
        fill: #091208;
      }

      .cls-2, .cls-3 {
        stroke-width: 0px;
      }

      .cls-3 {
        fill: #fff;
      }
    </style>
    <linearGradient id="Nepojmenovaný_přechod_37" data-name="Nepojmenovaný přechod 37" x1="512" y1="-844.7" x2="512" y2="-1827.9" gradientTransform="translate(0 1848)" gradientUnits="userSpaceOnUse">
      <stop offset="0" stop-color="#b1852e"/>
      <stop offset=".4" stop-color="#c6a038"/>
      <stop offset=".8" stop-color="#e5c847"/>
    </linearGradient>
  </defs>
  <rect class="cls-1" width="1024" height="1024"/>
  <g id="logo">
    <path class="cls-3" d="M205.9,410.7h15.4v8.1c4.5-6,11.7-9.4,19.2-9.2,13.3-.4,24.3,10,24.8,23.2,0,.7,0,1.4,0,2.1v36.9h-15.4v-34.3c-.5-7.9-7.3-13.8-15.2-13.3-7.1.5-12.8,6.2-13.3,13.3v34.3h-15.4v-61Z"/>
    <path class="cls-3" d="M306.5,458.8c9.7.6,18.1-6.8,18.6-16.5s-6.8-18.1-16.5-18.6-18.1,6.8-18.6,16.5c0,.3,0,.7,0,1-.5,9.3,6.7,17.2,16,17.6.2,0,.4,0,.6,0M306.5,409.5c17.5.5,31.2,15.1,30.7,32.5-.5,17.5-15.1,31.2-32.5,30.7-17.1-.5-30.7-14.5-30.7-31.6,0-17.5,14.1-31.6,31.6-31.6.3,0,.6,0,.9,0"/>
    <polygon class="cls-3" points="338.4 410.7 355 410.7 371.8 455.6 388.7 410.7 404.3 410.7 380 471.7 362.7 471.7 338.4 410.7"/>
    <path class="cls-3" d="M436.6,458.8c9.7.6,18.1-6.8,18.6-16.5s-6.8-18.1-16.5-18.6-18.1,6.8-18.6,16.5c0,.3,0,.7,0,1-.5,9.3,6.7,17.2,16,17.6.2,0,.4,0,.6,0M453.2,464.1c-5,5.7-12.2,8.9-19.8,8.8-16.7,0-29.4-13.7-29.4-31.6s12.7-31.6,29.4-31.6c7.6-.1,14.8,3.1,19.8,8.9v-7.7h15.3v61h-15.4v-7.6Z"/>
    <path class="cls-2" d="M244,565.6h27.5l-13.8-36.5-13.8,36.5ZM243.2,498.1h31.2l45.1,114.7h-29.8l-8.7-22.6h-46.1l-8.5,22.6h-28.2l45-114.7Z"/>
    <path class="cls-2" d="M378.4,496.5c23-.4,44.1,12.6,54.1,33.3l-25.9,9.8c-5.2-10.8-16.2-17.6-28.2-17.6-18,0-31.6,14.6-31.6,33.4s13.8,33.4,31.6,33.4c12,0,22.9-6.8,28.2-17.6l25.9,9.8c-10,20.7-31.1,33.7-54.1,33.3-34.3,0-60.6-25.7-60.6-59s26.4-59,60.6-59"/>
    <polygon class="cls-2" points="468.7 522.7 435.1 522.7 435.1 498.1 530.1 498.1 530.1 522.7 496.5 522.7 496.5 612.8 468.7 612.8 468.7 522.7"/>
    <rect class="cls-2" x="543.2" y="498.1" width="27.8" height="114.7"/>
    <path class="cls-2" d="M646.4,588.9c18,0,31.8-14.6,31.8-33.4s-13.8-33.4-31.8-33.4-31.6,14.6-31.6,33.4,13.8,33.4,31.6,33.4M646.4,496.5c34.2,0,60.6,25.7,60.6,59s-26.4,59-60.6,59-60.6-25.7-60.6-59,26.4-59,60.6-59"/>
    <polygon class="cls-2" points="721 498.1 748 498.1 798 566 798 498.1 825.8 498.1 825.8 612.8 798.8 612.8 748.8 545 748.8 612.8 721 612.8 721 498.1"/>
  </g>
</svg>