<?xml version="1.0" encoding="UTF-8"?>
<svg id="Vrstva_1" data-name="Vrstva 1" xmlns="http://www.w3.org/2000/svg" xmlns:xlink="http://www.w3.org/1999/xlink" version="1.1" viewBox="0 0 1024 1024">
  <defs>
    <style>
      .cls-1 {
        fill: #c13647;
      }

      .cls-1, .cls-2 {
        stroke-width: 0px;
      }

      .cls-3 {
        fill: url(#Nepojmenovaný_přechod_248);
        stroke: #020202;
        stroke-miterlimit: 10;
      }

      .cls-2 {
        fill: #fff;
      }
    </style>
    <linearGradient id="Nepojmenovaný_přechod_248" data-name="Nepojmenovaný přechod 248" x1="512" y1="20.7" x2="512" y2="1003.9" gradientTransform="translate(0 1024) scale(1 -1)" gradientUnits="userSpaceOnUse">
      <stop offset="0" stop-color="#b48587"/>
      <stop offset=".4" stop-color="#c48380"/>
      <stop offset=".8" stop-color="#d7736a"/>
    </linearGradient>
  </defs>
  <rect class="cls-3" width="1024" height="1024"/>
  <g id="_Skupina_" data-name="&amp;lt;Skupina&amp;gt;">
    <path id="n" class="cls-2" d="M198.2,375.8h20.9v10.9c6.1-8.2,15.8-12.9,26-12.7,19.9.1,33.7,14.6,33.7,34.5v50.1h-20.9v-46.6c.3-10.1-7.6-18.6-17.7-19-.5,0-1,0-1.5,0-10.2-.5-18.9,7.4-19.4,17.6,0,.5,0,.9,0,1.4v46.4h-20.9l-.2-82.7Z"/>
    <path id="o" class="cls-2" d="M334.7,441c12.8,0,22.6-10.3,22.6-23.9.7-12.5-8.9-23.1-21.4-23.8-12.5-.7-23.1,8.9-23.8,21.4,0,.8,0,1.6,0,2.4,0,13.7,9.6,23.9,22.5,23.9M334.7,374.1c25,0,44.3,18.6,44.3,42.9s-19,43.1-44.3,43.1-44.3-18.6-44.3-43.1,19-42.9,44.3-42.9"/>
    <polygon id="v" class="cls-2" points="378.1 375.8 400.6 375.8 423.4 436.6 446.4 375.8 467.4 375.8 434.5 458.5 411 458.5 378.1 375.8"/>
    <path id="a" class="cls-2" d="M511.2,441c13.2.8,24.5-9.3,25.2-22.5s-9.3-24.5-22.5-25.2c-13.2-.8-24.5,9.3-25.2,22.5,0,.4,0,.9,0,1.3,0,13.7,9.6,23.9,22.5,23.9M533.9,448.2c-6.8,7.7-16.6,12-26.8,11.9-22.7,0-40-18.6-40-43.1s17.4-42.9,40-42.9c10.3-.1,20.1,4.3,26.8,12.1v-10.4h20.8v82.7h-20.8v-10.3Z"/>
    <path id="l" class="cls-1" d="M335.8,591.2l-4.7,58.7h-63.7v-2c13.2-1.1,25.9-5.4,37-12.7,14.3-10.1,23.7-24.5,29.1-44.3l2.2.2ZM254.5,650h-56.3v-2c15.3-2.2,20.8-8.2,20.8-28.7v-94.3c0-20.5-5.4-26.4-20.8-28.7v-2h79.5v2c-16.3,2.2-23.2,7.4-23.2,28.7v124.9Z"/>
    <path id="y" class="cls-1" d="M778.7,534.1l-1.7-1.5c4-6.3,7.9-16.3,7.9-21,0-10.6-5.9-14.6-17.6-15.3v-2h58.5v2c-16.5,2.2-34.1,17.3-47.1,37.8M725.5,577.6l-34.6-61.7c-6.7-11.9-15.3-17.8-26.7-19.5v-2h81.5v2c-10.9.5-17.8,6.2-17.8,12.1s2.7,9.1,6.7,16.3l26.2,47.5v47.2c0,21.2,6.3,26.4,20.8,28.5v2h-76.7v-2c15.3-2.2,20.8-8.2,20.8-28.5v-41.8Z"/>
    <path class="cls-1" d="M378.8,628.3c.2-5.5.8-11,2-16.3l-2-.9c-4.2,10.4-7.7,17.8-15.3,25.7-5.6,6.2-13.1,10.2-21.4,11.3v2h57.5v-2c-13.1-1-20.8-7.7-20.8-19.7"/>
    <path class="cls-1" d="M580,494.4v2c6.7.7,13.2,2.5,19.3,5.4,22.5,10.4,38.5,34.1,38.5,70.9s-11.4,56.9-30.1,67.4c-8.6,4.4-18,7.1-27.7,7.9v2c12.7,0,25.4-1.8,37.6-5.4,34.5-10.4,58.7-36.8,58.7-72.8s-41.5-75.1-96.3-77.3"/>
    <path class="cls-1" d="M510.4,496.4c15.3,2.2,20.7,8.2,20.7,28.7v94.3c0,20.2-5.3,26.3-20.2,28.5-1.1.2-2.2.2-3.3,0-11-2-19.8-9.7-27.6-28.5l-49.2-126.7h-7.4l-15.3,38.8,19.5,52.6h-39l-2.7,7.4h44.7l8.6,23c2.9,6.3,4.8,13.1,5.4,20,0,9.5-5.9,12.8-17.1,13.6v2h139v-155.6h-56.3v2Z"/>
  </g>
</svg>