<?xml version="1.0" encoding="UTF-8"?>
<svg id="Vrstva_1" data-name="Vrstva 1" xmlns="http://www.w3.org/2000/svg" xmlns:xlink="http://www.w3.org/1999/xlink" version="1.1" viewBox="0 0 1024 1024">
  <defs>
    <style>
      .cls-1 {
        fill: url(#Nepojmenovaný_přechod_12);
        stroke: #020202;
        stroke-miterlimit: 10;
      }

      .cls-2 {
        fill: #fff;
      }

      .cls-2, .cls-3 {
        stroke-width: 0px;
      }

      .cls-3 {
        fill: #5f3ac5;
      }
    </style>
    <linearGradient id="Nepojmenovaný_přechod_12" data-name="Nepojmenovaný přechod 12" x1="512" y1="944.7" x2="512" y2="1927.9" gradientTransform="translate(0 1948) scale(1 -1)" gradientUnits="userSpaceOnUse">
      <stop offset="0" stop-color="#10ada7"/>
      <stop offset=".4" stop-color="#12b78e"/>
      <stop offset=".8" stop-color="#07c06b"/>
    </linearGradient>
  </defs>
  <rect class="cls-1" width="1024" height="1024"/>
  <g id="logo">
    <path class="cls-2" d="M198.2,353.4h24v12.6c7-9.4,18.2-14.8,29.9-14.5,22.9,0,38.6,16.6,38.6,39.3v57.6h-24v-53.4c.4-11.7-8.8-21.4-20.5-21.8-.6,0-1.1,0-1.7,0-11.7-.5-21.6,8.6-22.1,20.3,0,.5,0,.9,0,1.4v53.4h-24.2v-95Z"/>
    <path class="cls-2" d="M355.1,351.6c28.8,0,50.8,21.4,50.8,49.3s-22.1,49.4-50.8,49.4-50.6-21.4-50.6-49.4,21.7-49.3,50.6-49.3M355.1,428.3c14.7,0,26-11.8,26-27.5s-11.3-27.1-26-27.1-25.7,11.6-25.7,27.2,11.1,27.5,25.8,27.5"/>
    <polygon class="cls-2" points="404.9 353.4 430.8 353.4 457 423.3 483.4 353.4 507.5 353.4 469.7 448.5 442.8 448.5 404.9 353.4"/>
    <path class="cls-2" d="M583.9,436.6c-7.8,8.8-19.1,13.8-30.8,13.7-26,0-46-21.4-46-49.4s19.9-49.3,46-49.3c11.8-.2,23.1,4.9,30.8,13.8v-12h24v94.9h-24v-11.7ZM557.9,428.3c14.7,0,26-11.8,26-27.5.5-14.5-10.8-26.6-25.3-27.1-.3,0-.5,0-.8,0-14.8,0-25.8,11.8-25.8,27.3s11.1,27.5,25.8,27.5"/>
    <path class="cls-3" d="M477.4,528.7v-38.6h-116.6v179.3h40.9v-73.7h54.2v-36.1h-54.2v-30.9h75.7Z"/>
    <path class="cls-3" d="M607.7,490v103.5c0,13.8-2.8,23.8-8.2,30.2s-13.3,9.5-23.8,9.5-18.4-3.2-23.8-9.5c-5.4-6.3-8.2-16.4-8.2-30.2v-103.5h-42.4v103.8c-.2,11.4,1.6,22.8,5.4,33.6,3.2,9.1,8.2,17.5,14.9,24.6,6.5,6.8,14.5,12.1,23.3,15.4,19.9,6.8,41.6,6.8,61.5,0,8.8-3.3,16.8-8.6,23.3-15.4,6.6-7.1,11.7-15.4,14.9-24.6,3.8-10.8,5.6-22.1,5.4-33.6v-103.8h-42.2Z"/>
    <polygon class="cls-3" points="825.8 490 825.3 649.6 825.2 669.9 785 669.9 782.8 666.6 780.6 663.1 718.4 561.6 718.4 669.4 676.6 669.4 676.6 490.3 715.6 490.3 718.4 494.8 782.8 600 782.8 490 825.8 490"/>
  </g>
</svg>