<svg width="250" height="250" viewBox="0 0 250 250" fill="none" xmlns="http://www.w3.org/2000/svg">
<rect width="250" height="250" fill="url(#paint0_linear_202_5)"/>
<path d="M59.465 102.109C59.465 99.7465 61.2222 98.0605 63.6324 98.0605C66.0425 98.0605 67.7641 99.7464 67.7641 102.109V112.035H72.2283V101.314C72.2283 97.0988 69.3076 94 65.0452 94C62.6825 94 60.7235 95.0329 59.4769 96.6833V94.3443H55.0127V112.035H59.465V102.109Z" fill="white"/>
<path d="M84.2195 112.367C89.586 112.367 93.6821 108.354 93.6821 103.166C93.6821 97.9774 89.5741 94 84.2195 94C78.8648 94 74.7568 97.9774 74.7568 103.166C74.7568 108.354 78.853 112.367 84.2195 112.367ZM84.2195 98.0842C86.974 98.0842 89.0636 100.257 89.0636 103.166C89.0636 106.075 86.9621 108.283 84.2195 108.283C81.465 108.283 79.411 106.051 79.411 103.166C79.411 100.281 81.465 98.0842 84.2195 98.0842Z" fill="white"/>
<path d="M105.555 112.035L112.607 94.3442H108.096L103.192 107.369L98.3007 94.3442H93.4922L100.533 112.035H105.555Z" fill="white"/>
<path d="M126.83 96.5764C125.417 94.9617 123.47 94 121.084 94C116.228 94 112.523 97.9536 112.523 103.166C112.523 108.378 116.24 112.367 121.084 112.367C123.458 112.367 125.405 111.406 126.83 109.826V112.035H131.294V94.3324H126.83V96.5764ZM121.986 108.283C119.232 108.283 117.178 106.075 117.178 103.166C117.178 100.257 119.232 98.0842 121.986 98.0842C124.741 98.0842 126.83 100.257 126.83 103.166C126.83 106.075 124.729 108.283 121.986 108.283Z" fill="white"/>
<path d="M158.364 144.828L149.234 120.429H137.884V156H145.993V134.724L154.494 156H162.235L170.736 134.724V156H178.845V120.429H167.495L158.364 144.828Z" fill="#D0B38B"/>
<path d="M117.284 132.373C117.284 120.429 104.996 120.429 104.996 120.429H88.5996V156H97.2786V144.139H100.757L108.107 156H118.377L109.84 142.988C109.84 142.988 117.284 141.67 117.284 132.373ZM108.332 132.16C108.332 136.101 105.352 136.279 105.352 136.279H97.2549V128.028H105.352C105.352 128.028 108.332 128.194 108.332 132.148V132.16Z" fill="#D0B38B"/>
<path d="M85.7862 120.417H75.0057L63.4891 134.249V120.417H55V155.988H63.584L63.5841 156V146.074L67.6446 141.479L76.9172 156H87.2347L73.2604 135.08L85.7862 120.417Z" fill="#D0B38B"/>
<path d="M131.295 120.429H122.711V156H131.295V120.429Z" fill="#D0B38B"/>
<path d="M194.126 120.429H185.542V156H194.126V120.429Z" fill="#D0B38B"/>
<defs>
<linearGradient id="paint0_linear_202_5" x1="125" y1="0" x2="125" y2="250" gradientUnits="userSpaceOnUse">
<stop stop-color="#7F3627"/>
<stop offset="1" stop-color="#692613"/>
</linearGradient>
</defs>
</svg>
