<?xml version="1.0" encoding="UTF-8"?>
<svg id="Vrstva_1" data-name="Vrstva 1" xmlns="http://www.w3.org/2000/svg" xmlns:xlink="http://www.w3.org/1999/xlink" version="1.1" viewBox="0 0 1024 1024">
  <defs>
    <style>
      .cls-1 {
        fill: url(#Nepojmenovaný_přechod_13);
        stroke: #020202;
        stroke-miterlimit: 10;
      }

      .cls-2 {
        fill: #c09c2e;
      }

      .cls-2, .cls-3 {
        stroke-width: 0px;
      }

      .cls-3 {
        fill: #fff;
      }
    </style>
    <linearGradient id="Nepojmenovaný_přechod_13" data-name="Nepojmenovaný přechod 13" x1="512" y1="79.3" x2="512" y2="-903.9" gradientTransform="translate(0 924)" gradientUnits="userSpaceOnUse">
      <stop offset="0" stop-color="#691b3a"/>
      <stop offset=".4" stop-color="#490e24"/>
      <stop offset=".8" stop-color="#350714"/>
    </linearGradient>
  </defs>
  <rect class="cls-1" width="1024" height="1024"/>
  <g id="logo">
    <path class="cls-3" d="M211.7,376h20.6v10.8c6.1-8,15.7-12.7,25.7-12.4,19.7,0,33.1,14.3,33.1,33.9v49.5h-20.6v-45.9c0-10.6-8.6-19.1-19.1-19.1s-19.1,8.6-19.1,19.1h0v45.9h-20.6v-81.7Z"/>
    <path class="cls-3" d="M346.6,440.4c13-.7,23-11.8,22.4-24.8-.6-12.1-10.3-21.7-22.4-22.4-12.6,0-22.1,10.2-22.1,23.5s9.5,23.7,22.1,23.7M346.6,374.4c24.8,0,43.7,18.4,43.7,42.4s-19,42.6-43.7,42.6-43.7-18.4-43.7-42.6,19-42.4,43.7-42.4"/>
    <path class="cls-3" d="M389.4,376h22.1l22.5,60.1,22.7-60.1h21.2l-32.6,81.7h-23.2l-32.8-81.7Z"/>
    <path class="cls-3" d="M521.1,440.4c13,.8,24.2-9.1,25.1-22.1s-9.1-24.2-22.1-25.1c-13-.8-24.2,9.1-25.1,22.1,0,.5,0,.9,0,1.4,0,13.5,9.5,23.7,22.1,23.7M543.5,447.6c-6.7,7.6-16.4,11.9-26.5,11.7-22.4,0-39.5-18.4-39.5-42.6s17.1-42.4,39.5-42.4c10.2-.2,19.9,4.2,26.5,11.9v-10.3h20.6v81.8h-20.6v-10.1Z"/>
    <path class="cls-2" d="M279.6,491.3c30.8-.5,59.1,16.9,72.5,44.6l-34.8,13.2c-7.1-14.5-21.8-23.6-37.9-23.5-24.2,0-42.7,19.6-42.7,44.9s18.5,44.8,42.7,44.8,33.2-11.4,37.4-22.9h-50.1v-32.9h92.3c6,55.6-35.1,90.1-79.3,90.1s-81.4-34.5-81.4-79.1,35.4-79.1,81.4-79.1"/>
    <path class="cls-2" d="M457.4,615.3c24.2,0,42.7-19.6,42.7-44.8s-18.4-45-42.7-45-42.7,19.7-42.7,45,18.4,44.8,42.6,44.8M457.4,491.3c46,0,81.4,34.5,81.4,79.1s-35.4,79.1-81.4,79.1-81.3-34.5-81.3-79.1,35.4-79.1,81.3-79.1"/>
    <path class="cls-2" d="M561,493.2h37.4v120.8h68.1v32.9h-105.5v-153.8Z"/>
    <path class="cls-2" d="M743.4,614c26.2,0,43.5-18.5,43.5-44s-17.4-44-43.5-44h-23.3v88h23.3ZM682.7,493.3h64c45.8,0,79.1,33.4,79.1,76.9s-33.2,77-79.1,77h-64v-153.9Z"/>
  </g>
</svg>