<?xml version="1.0" encoding="UTF-8"?>
<svg id="Vrstva_1" data-name="Vrstva 1" xmlns="http://www.w3.org/2000/svg" xmlns:xlink="http://www.w3.org/1999/xlink" version="1.1" viewBox="0 0 1024 1024">
  <defs>
    <style>
      .cls-1 {
        fill: url(#Nepojmenovaný_přechod_12);
        stroke: #020202;
        stroke-miterlimit: 10;
      }

      .cls-2 {
        fill: #fff;
      }

      .cls-2, .cls-3 {
        stroke-width: 0px;
      }

      .cls-3 {
        fill: #747fce;
      }
    </style>
    <linearGradient id="Nepojmenovaný_přechod_12" data-name="Nepojmenovaný přechod 12" x1="512" y1="1868.7" x2="512" y2="2851.9" gradientTransform="translate(0 2872) scale(1 -1)" gradientUnits="userSpaceOnUse">
      <stop offset="0" stop-color="#544578"/>
      <stop offset=".4" stop-color="#6c4b89"/>
      <stop offset=".8" stop-color="#9052a5"/>
    </linearGradient>
  </defs>
  <rect class="cls-1" width="1024" height="1024"/>
  <g id="logo">
    <path class="cls-2" d="M157.9,402h16.7v8.7c4.9-6.5,12.7-10.2,20.8-10,14.4-.6,26.5,10.6,27.1,25v42.4h-16.9v-37.1c-.5-8.5-7.7-15.1-16.2-14.8-7.9.3-14.3,6.7-14.8,14.8v37.1h-16.7v-66.2h-.1Z"/>
    <path class="cls-2" d="M267.1,454.1c10.6.6,19.5-7.4,20.1-17.9.6-10.6-7.4-19.5-17.9-20.1-10.6-.6-19.5,7.4-20.1,17.9v1c-.5,10.1,7.4,18.7,17.7,19.1h.3M267.1,400.7c19,.6,34,16.4,33.4,35.3s-16.4,34-35.3,33.4c-18.6-.5-33.5-15.8-33.5-34.4s15.2-34.3,34.1-34.3h1.3"/>
    <path class="cls-2" d="M302.1,402h18l18.4,48.7,18.4-48.7h16.9l-26.3,66.2h-19l-26.3-66.2h-.1Z"/>
    <path class="cls-2" d="M408.5,454.1c10.6.6,19.5-7.4,20.1-17.9.6-10.6-7.4-19.5-17.9-20.1-10.6-.6-19.5,7.4-20.1,17.9v1c-.5,10.1,7.4,18.7,17.7,19.1h.3M426.6,459.9c-5.5,6.2-13.3,9.7-21.4,9.5-18.1,0-32-14.8-32-34.4s13.8-34.3,32-34.3,16,3.5,21.4,9.7v-8.4h16.5v66.2h-16.6v-8.3h.1Z"/>
    <path class="cls-3" d="M212.9,495.3c25-.5,48,13.6,58.8,36l-28.1,10.7c-5.7-11.7-17.6-19.1-30.6-19.1-19.5,0-34.5,15.9-34.5,36.4s15,36.3,34.5,36.3,24.9-7.3,30.6-19.1l28.1,10.6c-10.8,22.6-33.8,36.6-58.8,36.2-37.1,0-65.8-27.9-65.8-64s28.6-64.1,65.8-64.1"/>
    <path class="cls-3" d="M288.9,496.9h30.2v124.5h-30.2v-124.5h0Z"/>
    <path class="cls-3" d="M342.3,496.9h29.4l54.3,73.6v-73.6h30.2v124.5h-29.4l-54.3-73.6v73.6h-30.2v-124.5h0Z"/>
    <path class="cls-3" d="M479.9,496.9h85.3v26.7h-55.1v22.2h53.4v26.6h-53.3v22.2h55.1v26.7h-85.5v-124.5h0Z"/>
    <path class="cls-3" d="M587.5,496.9h41.3l32.6,86,32.6-85.9h39.5v124.5h-29.4v-76.2l-30.2,76.2h-26.9l-30.1-75.9v75.9h-29.4l.2-124.6h-.1Z"/>
    <path class="cls-3" d="M795,570h29.9l-14.9-39.6-15,39.6ZM794.1,496.8h33.8l49,124.5h-32.3l-9.4-24.5h-49.9l-9.3,24.5h-30.6l48.8-124.5h-.1Z"/>
  </g>
</svg>