<svg width="250" height="250" viewBox="0 0 250 250" fill="none" xmlns="http://www.w3.org/2000/svg">
<rect width="250" height="250" fill="#181A19"/>
<path d="M41.0277 98.3484H44.9673V100.404C46.1662 98.8623 47.9647 98.0059 49.9345 98.0059C53.3602 97.9202 56.1864 100.575 56.3577 104.001C56.3577 104.172 56.3577 104.343 56.3577 104.515V114.021H52.4181V105.2C52.4181 103.144 50.7909 101.517 48.7355 101.517C46.6801 101.517 45.0529 103.144 45.0529 105.2V114.021H41.1133V98.3484H41.0277ZM66.9773 98.0915C71.5164 98.2628 75.0277 101.945 74.8564 106.484C74.6851 111.023 71.0025 114.535 66.4635 114.364C62.0101 114.192 58.4987 110.595 58.5844 106.228C58.5844 101.774 62.1814 98.0915 66.7204 98.0915C66.806 98.0915 66.8917 98.0915 66.9773 98.0915ZM66.9773 110.767C69.461 110.595 71.3451 108.454 71.2594 105.971C71.0882 103.658 69.2897 101.86 66.9773 101.688C64.4937 101.86 62.6096 104.001 62.6952 106.484C62.8665 108.797 64.665 110.595 66.9773 110.767ZM83.8489 109.91L88.2166 98.3484H92.2418L85.9899 114.107H81.5365L75.2846 98.4341H79.5667L83.8489 109.91ZM104.831 112.137C103.547 113.593 101.662 114.449 99.6927 114.364C95.4106 114.364 92.0705 110.852 92.0705 106.142C92.0705 101.432 95.3249 98.0059 99.6927 98.0059C101.662 97.9202 103.547 98.7766 104.831 100.318V98.3484H108.771V114.107H104.831V112.137ZM100.549 110.767C103.033 110.595 104.917 108.454 104.831 105.971C104.66 103.658 102.861 101.86 100.549 101.688C98.0655 101.86 96.1814 104.001 96.267 106.484C96.4383 108.797 98.2368 110.595 100.549 110.767ZM47.2796 141.084C47.7078 143.225 49.0781 144.338 51.6474 144.338C53.8741 144.338 55.2443 143.482 55.2443 142.026C55.2443 136.973 40.5995 140.399 40.5995 129.608C40.5995 124.384 45.3955 120.53 51.4761 120.53C57.6423 120.53 61.8388 123.87 62.5239 128.837L55.2443 130.293C54.8161 128.066 53.5315 127.039 51.2191 127.039C49.2494 127.039 48.0504 127.895 48.0504 129.351C48.136 133.976 62.6952 130.636 62.6952 141.769C62.6952 146.993 57.8136 150.933 51.4761 150.933C45.1385 150.933 40.5995 147.507 40 142.54L47.2796 141.084ZM67.4055 120.872H80.5088C87.5315 120.872 91.9849 125.24 91.9849 131.235C91.9849 137.23 87.5315 141.427 80.5088 141.427H74.5995V150.505H67.4055V120.872ZM80.4232 135.089C82.5642 135.089 84.3627 133.376 84.3627 131.149C84.3627 128.923 82.6499 127.21 80.4232 127.21H74.5139V135.003H80.4232V135.089ZM110.312 120.53C119.133 120.53 125.985 127.124 125.985 135.774C125.985 144.424 119.219 151.018 110.312 151.018C101.406 151.018 94.6398 144.338 94.6398 135.774C94.6398 127.21 101.491 120.53 110.312 120.53ZM110.312 144.338C114.937 144.338 118.534 140.57 118.534 135.688C118.534 130.807 115.023 127.039 110.312 127.039C105.602 127.039 102.091 130.807 102.091 135.603C102.091 140.399 105.688 144.338 110.312 144.338ZM140.287 140.827H137.375V150.59H130.181V120.958H143.285C150.05 120.958 154.247 125.154 154.247 130.893C154.332 134.918 151.935 138.515 148.166 139.971L155.103 150.59H146.625L140.287 140.827ZM143.285 134.233C145.254 134.233 146.796 132.691 146.796 130.721C146.796 128.751 145.254 127.21 143.285 127.21H137.375V134.233H143.285ZM156.045 120.872H180.539V127.296H171.889V150.59H164.695V127.296H156.045V120.872Z" fill="white"/>
<path d="M185.249 145.366H199.466V150.419H206.66V145.366H210V139.028H206.66V120.958H199.466V121.044L199.38 120.958L185.249 139.028V145.366ZM192.957 139.028L199.466 130.721V139.028H192.957Z" fill="#79B585"/>
</svg>
