<svg width="250" height="250" viewBox="0 0 250 250" fill="none" xmlns="http://www.w3.org/2000/svg">
<rect width="250" height="250" fill="#181A19"/>
<path d="M205.018 121.337L199.599 131.039C202.571 130.951 205.018 131.913 207.028 133.836C209.039 135.758 210 138.206 210 141.265C210 144.324 208.864 146.859 206.679 148.956C204.494 151.054 201.697 152.103 198.375 152.103C195.054 152.103 192.257 151.054 190.072 149.044C187.887 147.033 186.751 144.411 186.751 141.352C186.751 139.517 187.537 137.244 189.023 134.535L196.365 121.424L205.018 121.337ZM195.666 144.149C196.365 144.936 197.326 145.285 198.463 145.285C199.599 145.285 200.473 144.936 201.26 144.149C202.046 143.363 202.396 142.401 202.396 141.265C202.396 140.129 202.046 139.167 201.26 138.38C200.56 137.594 199.599 137.244 198.463 137.244C197.326 137.244 196.452 137.594 195.666 138.38C194.967 139.167 194.53 140.129 194.53 141.265C194.53 142.401 194.879 143.363 195.666 144.149Z" fill="#CD287D"/>
<path d="M41.1362 98.3496H45.1568V100.447C46.2931 98.9614 48.0411 98 50.2262 98C54.072 98 56.7815 100.797 56.7815 104.643V114.344H52.7609V105.342C52.7609 103.157 51.1877 101.671 49.0026 101.671C46.8175 101.671 45.2442 103.157 45.2442 105.342V114.344H41.2236L41.1362 98.3496ZM67.7069 98C72.6015 98 76.2725 101.584 76.2725 106.303C76.2725 111.023 72.5141 114.694 67.7069 114.694C62.8997 114.694 59.1414 111.111 59.1414 106.303C59.1414 101.496 62.8123 98 67.7069 98ZM67.7069 111.023C70.2416 111.023 72.0771 109.013 72.0771 106.391C72.0771 103.769 70.1542 101.758 67.7069 101.758C65.2596 101.758 63.3368 103.769 63.3368 106.391C63.3368 109.013 65.1722 111.023 67.7069 111.023ZM84.9255 110.149L89.383 98.3496H93.491L87.1105 114.432H82.4781L76.0977 98.3496H80.4679L84.9255 110.149ZM106.427 112.422C105.116 113.82 103.368 114.694 101.183 114.694C96.8123 114.694 93.4036 111.111 93.4036 106.303C93.4036 101.496 96.8123 98 101.183 98C103.368 98 105.116 98.874 106.427 100.36V98.3496H110.447V114.432H106.427V112.422ZM101.969 111.023C104.504 111.023 106.339 109.013 106.339 106.391C106.339 103.769 104.416 101.758 101.969 101.758C99.4345 101.758 97.599 103.769 97.599 106.391C97.599 109.013 99.5219 111.023 101.969 111.023ZM47.5167 142.051C47.9537 144.236 49.3522 145.373 51.9743 145.373C54.2468 145.373 55.6452 144.499 55.6452 143.013C55.6452 137.856 40.6992 141.352 40.6992 130.339C40.6992 125.008 45.5938 121.075 51.7995 121.075C58.0051 121.075 62.3753 124.483 63.0746 129.553L55.6452 131.039C55.2082 128.766 53.8972 127.717 51.5373 127.717C49.527 127.717 48.3033 128.591 48.3033 130.077C48.3033 134.797 63.2494 131.388 63.2494 142.751C63.2494 148.082 58.2674 152.103 51.7121 152.103C45.1568 152.103 40.6118 148.607 40 143.537L47.5167 142.051ZM68.144 121.337H81.5167C88.6838 121.337 93.2288 125.794 93.2288 131.913C93.2288 138.031 88.6838 142.314 81.5167 142.314H75.4859V151.578H68.144V121.337ZM81.5167 135.846C84.0514 135.846 85.6247 134.185 85.6247 131.913C85.6247 129.64 84.0514 127.892 81.5167 127.892H75.4859V135.846H81.5167ZM112.021 120.9C121.023 120.9 128.015 127.63 128.015 136.458C128.015 145.198 121.023 152.015 112.021 152.015C103.018 152.015 96.0257 145.198 96.0257 136.458C96.0257 127.717 103.018 120.9 112.021 120.9ZM112.021 145.285C116.74 145.285 120.411 141.44 120.411 136.458C120.411 131.476 116.74 127.63 112.021 127.63C107.301 127.63 103.63 131.476 103.63 136.458C103.63 141.44 107.301 145.285 112.021 145.285ZM142.699 141.702H139.728V151.666H132.386V121.424H145.846C152.751 121.424 157.121 125.707 157.121 131.563C157.121 135.758 154.761 139.167 150.915 140.828L157.995 151.666H149.254L142.699 141.702ZM145.758 134.972C147.943 134.972 149.429 133.486 149.429 131.476C149.429 129.465 148.031 127.892 145.758 127.892H139.728V135.059H145.758V134.972ZM158.781 121.337H183.866V127.805H175.039V151.578H167.697V127.805H158.869L158.781 121.337Z" fill="white"/>
</svg>
