<svg width="250" height="250" viewBox="0 0 250 250" fill="none" xmlns="http://www.w3.org/2000/svg">
<rect width="250" height="250" fill="#181A19"/>
<path d="M41.0287 98.3429H45.1437V100.486C46.3439 98.8573 48.3157 98 50.2874 98.0858C53.8023 98 56.7171 100.743 56.8886 104.258C56.8886 104.43 56.8886 104.601 56.8886 104.773V114.546H52.7736V105.458C52.7736 103.401 51.059 101.686 49.0015 101.686C46.944 101.686 45.2295 103.401 45.2295 105.458V114.546H41.1145V98.3429H41.0287Z" fill="white"/>
<path d="M67.7761 111.116C70.348 111.288 72.5769 109.316 72.7484 106.744C72.9198 104.172 70.9481 101.944 68.3762 101.772C65.8044 101.601 63.5754 103.572 63.404 106.144C63.404 106.23 63.404 106.316 63.404 106.401C63.3182 108.888 65.2043 110.945 67.6904 111.116C67.6047 111.116 67.6904 111.116 67.7761 111.116ZM67.7761 98C72.4055 98.0857 76.0918 102.029 75.9203 106.659C75.8346 111.288 71.8911 114.974 67.2617 114.803C62.7181 114.717 59.1175 110.945 59.1175 106.401C59.1175 101.772 62.8039 98 67.4332 98C67.5189 98 67.6047 98 67.7761 98Z" fill="white"/>
<path d="M76.2632 98.3429H80.6354L85.0933 110.259L89.5512 98.3429H93.6661L87.2365 114.546H82.6071L76.2632 98.3429Z" fill="white"/>
<path d="M102.41 111.116C104.982 111.288 107.211 109.316 107.383 106.744C107.554 104.172 105.582 101.944 103.011 101.772C100.439 101.601 98.2098 103.572 98.0383 106.144C98.0383 106.23 98.0383 106.316 98.0383 106.401C97.9526 108.888 99.8386 110.945 102.325 111.116C102.325 111.116 102.325 111.116 102.41 111.116ZM106.783 112.488C105.497 114.031 103.525 114.803 101.553 114.803C97.0953 114.803 93.7519 111.202 93.7519 106.401C93.7519 101.601 97.181 98 101.553 98C103.525 98 105.497 98.8573 106.783 100.4V98.3429H110.898V114.546H106.783V112.488Z" fill="white"/>
<path d="M187.453 145.579L200.141 135.035C201.427 134.092 202.199 132.634 202.199 131.091C202.199 129.462 201.084 128.005 198.512 128.005C196.369 128.005 194.826 129.291 194.826 132.034L187.196 131.177C187.625 124.662 191.911 121.232 198.512 121.232C205.113 121.232 209.829 124.833 209.829 130.92C209.829 134.863 207.514 138.121 204.771 140.35L198.084 145.665H210V152.181H187.368V145.579H187.453Z" fill="#70BAD4"/>
<path d="M47.5441 142.407C48.0585 144.551 49.4302 145.751 52.0877 145.751C54.4024 145.751 55.7741 144.894 55.7741 143.35C55.7741 138.121 40.6858 141.636 40.6858 130.577C40.6858 125.176 45.6581 121.232 51.8306 121.232C58.1745 121.232 62.4609 124.662 63.2325 129.805L55.6884 131.348C55.174 129.12 53.888 128.005 51.5734 128.005C49.6016 128.005 48.3157 128.862 48.3157 130.405C48.3157 135.206 63.4039 131.691 63.4039 143.179C63.4039 148.58 58.3459 152.609 51.8306 152.609C45.3152 152.609 40.6858 149.009 40 143.951L47.5441 142.407Z" fill="white"/>
<path d="M81.7499 136.149C83.9788 136.235 85.8649 134.52 85.9506 132.291C86.0363 130.063 84.3217 128.176 82.0928 128.091C82.0071 128.091 81.8356 128.091 81.7499 128.091H75.6631V136.149H81.7499ZM68.2047 121.575H81.6641C88.8654 121.575 93.4947 126.119 93.4947 132.206C93.4947 138.292 88.9511 142.665 81.6641 142.665H75.5774V152.095H68.119V121.575H68.2047Z" fill="white"/>
<path d="M112.441 145.751C117.242 145.751 120.928 141.893 120.928 136.835C120.928 131.777 117.242 127.919 112.441 127.919C107.64 127.919 103.954 131.777 103.954 136.835C103.954 141.893 107.64 145.751 112.441 145.751ZM112.441 121.147C121.528 121.147 128.558 128.005 128.558 136.835C128.558 145.665 121.528 152.523 112.441 152.523C103.353 152.523 96.3237 145.665 96.3237 136.835C96.3237 128.005 103.353 121.147 112.441 121.147Z" fill="white"/>
<path d="M146.475 135.292C148.447 135.292 150.076 133.663 150.076 131.691C150.076 129.72 148.447 128.091 146.475 128.091H140.388V135.292H146.475ZM143.389 142.065H140.388V152.095H133.016V121.575H146.561C153.505 121.575 157.877 125.948 157.877 131.863C157.963 135.978 155.477 139.664 151.619 141.207L158.734 152.095H149.904L143.389 142.065Z" fill="white"/>
<path d="M168.507 128.091H159.592V121.575H184.881V128.091H175.966V152.095H168.593L168.507 128.091Z" fill="white"/>
</svg>
