<svg width="250" height="250" viewBox="0 0 250 250" fill="none" xmlns="http://www.w3.org/2000/svg">
<rect width="250" height="250" fill="#181A19"/>
<path d="M41.199 97.3426H45.3955V99.5693C46.5945 97.9421 48.5642 97 50.6196 97.0856C54.2166 97 57.2141 99.8262 57.3854 103.423C57.3854 103.594 57.3854 103.766 57.3854 103.937V113.957H53.1889V104.708C52.932 102.567 51.0479 101.025 48.9068 101.282C47.1083 101.453 45.738 102.909 45.4811 104.708V114.043H41.2846V97.3426H41.199Z" fill="white"/>
<path d="M68.5189 110.36C71.1738 110.531 73.4005 108.476 73.5718 105.821C73.7431 103.166 71.6877 100.94 69.0327 100.768C66.3778 100.597 64.1511 102.652 63.9798 105.307C63.9798 105.393 63.9798 105.479 63.9798 105.564C63.8942 108.048 65.7783 110.189 68.3476 110.36C68.4332 110.36 68.4332 110.36 68.5189 110.36ZM68.5189 97C73.2292 97.1713 76.9975 101.111 76.9118 105.821C76.7406 110.531 72.801 114.3 68.0907 114.214C63.3803 114.043 59.6977 110.275 59.6977 105.564C59.6977 100.854 63.5516 97 68.262 97C68.3476 97 68.4332 97 68.5189 97Z" fill="white"/>
<path d="M77.0831 97.3425H81.6222L86.1612 109.504L90.7859 97.3425H94.9824L88.3879 113.871H83.6776L77.0831 97.3425Z" fill="white"/>
<path d="M103.889 110.36C106.544 110.531 108.771 108.476 108.942 105.907C109.113 103.252 107.058 101.025 104.489 100.854C101.834 100.683 99.607 102.738 99.4358 105.307C99.4358 105.393 99.4358 105.479 99.4358 105.564C99.3501 108.048 101.234 110.189 103.804 110.36C103.804 110.36 103.804 110.36 103.889 110.36ZM108.428 111.816C107.058 113.358 105.088 114.214 103.033 114.214C98.4937 114.214 94.9824 110.446 94.9824 105.564C94.9824 100.683 98.4937 97 103.033 97C105.088 97 107.058 97.8564 108.428 99.398V97.3426H112.625V113.957H108.428V111.816Z" fill="white"/>
<path d="M205.033 145.559V120.637L191.416 125.005V131.685L197.411 130.4V145.645H191.416V152.325H210V145.645L205.033 145.559Z" fill="#4A73B5"/>
<path d="M47.7934 142.39C48.3073 144.617 49.6776 145.816 52.4181 145.816C54.7305 145.816 56.1864 144.96 56.1864 143.332C56.1864 138.023 40.7708 141.62 40.7708 130.229C40.7708 124.748 45.8237 120.637 52.1612 120.637C58.67 120.637 63.0378 124.149 63.8086 129.373L56.1008 130.914C55.5869 128.602 54.3023 127.489 51.8186 127.489C49.7632 127.489 48.4786 128.345 48.4786 129.887C48.4786 134.768 63.8942 131.257 63.8942 142.99C63.8942 148.471 58.7557 152.582 52.0756 152.582C45.3955 152.582 40.6851 148.899 40 143.761L47.7934 142.39Z" fill="white"/>
<path d="M82.6499 135.967C84.9622 136.053 86.8463 134.34 86.932 132.028C87.0176 129.715 85.3048 127.831 82.9924 127.746C82.9068 127.746 82.7355 127.746 82.6499 127.746H76.4836V135.967H82.6499ZM68.9471 121.065H82.7355C90.1008 121.065 94.8111 125.69 94.8111 132.028C94.8111 138.365 90.1008 142.733 82.7355 142.733H76.4836V152.325H68.9471V121.065Z" fill="white"/>
<path d="M114.166 145.73C119.048 145.73 122.816 141.791 122.816 136.652C122.816 131.514 119.048 127.574 114.166 127.574C109.285 127.574 105.516 131.514 105.516 136.652C105.516 141.791 109.285 145.73 114.166 145.73ZM114.166 120.637C123.501 120.637 130.695 127.66 130.695 136.652C130.695 145.645 123.501 152.753 114.166 152.753C104.831 152.753 97.7229 145.73 97.7229 136.652C97.7229 127.574 104.831 120.637 114.166 120.637Z" fill="white"/>
<path d="M148.937 135.111C150.992 135.196 152.705 133.655 152.791 131.599C152.877 129.544 151.335 127.831 149.28 127.746C149.194 127.746 149.023 127.746 148.937 127.746H142.685V135.111H148.937ZM145.768 142.048H142.685V152.325H135.149V121.065H148.937C156.045 121.065 160.499 125.519 160.499 131.514C160.584 135.71 158.015 139.564 154.161 141.02L161.441 152.239H152.448L145.768 142.048Z" fill="white"/>
<path d="M171.547 127.746H162.383V121.065H188.247V127.746H179.083V152.239H171.547V127.746Z" fill="white"/>
</svg>
