<svg width="250" height="250" viewBox="0 0 250 250" fill="none" xmlns="http://www.w3.org/2000/svg">
<rect width="250" height="250" fill="url(#paint0_linear_210_180)"/>
<mask id="mask0_210_180" style="mask-type:luminance" maskUnits="userSpaceOnUse" x="79" y="99" width="54" height="53">
<path d="M132.231 99H79.7569V151.404H132.231V99Z" fill="white"/>
</mask>
<g mask="url(#mask0_210_180)">
<path d="M105.888 151.428C99.2039 151.428 92.5195 148.889 87.4421 143.789C77.2639 133.611 77.2639 117.004 87.4421 106.826C100.601 94.6683 115.764 98.3482 124.358 106.896C132.906 115.444 136.609 130.629 124.521 143.696C119.374 148.843 112.619 151.405 105.912 151.405H105.888V151.428ZM91.7043 139.55C99.5533 147.399 112.317 147.399 120.142 139.55C129.482 129.418 126.85 117.982 120.073 111.158C113.248 104.357 101.836 101.702 91.6344 111.158C83.8786 118.914 83.8786 131.701 91.7043 139.55Z" fill="url(#paint1_linear_210_180)"/>
<path d="M100.579 149.239C95.5947 149.239 90.9365 147.306 87.4196 143.766C83.926 140.272 81.9463 135.591 81.9463 130.606C81.9463 125.622 83.8794 120.964 87.4196 117.447C94.6864 110.18 106.472 110.18 113.738 117.447C117.232 120.964 119.188 125.622 119.188 130.606C119.188 135.591 117.255 140.249 113.715 143.766C110.221 147.259 105.54 149.216 100.556 149.216H100.579V149.239ZM100.579 118.076C97.3648 118.076 94.1274 119.287 91.7051 121.732C89.2829 124.178 88.0252 127.252 88.0252 130.606C88.0252 133.96 89.3295 137.128 91.7051 139.48C94.0575 141.832 97.2251 143.16 100.579 143.16C103.933 143.16 107.1 141.856 109.453 139.48C111.805 137.104 113.133 133.96 113.133 130.606C113.133 127.252 111.828 124.085 109.453 121.732C106.984 119.264 103.77 118.076 100.579 118.076Z" fill="url(#paint2_linear_210_180)"/>
<path d="M100.579 149.239C95.5947 149.239 90.9365 147.306 87.4196 143.766C83.926 140.272 81.9463 135.591 81.9463 130.606C81.9463 125.622 83.8794 120.964 87.4196 117.447C94.6864 110.18 106.472 110.18 113.738 117.447C117.232 120.964 119.188 125.622 119.188 130.606C119.188 135.591 117.255 140.249 113.715 143.766C110.221 147.259 105.54 149.216 100.556 149.216H100.579V149.239ZM100.579 118.076C97.3648 118.076 94.1274 119.287 91.7051 121.732C89.2829 124.178 88.0252 127.252 88.0252 130.606C88.0252 133.96 89.3295 137.128 91.7051 139.48C94.0575 141.832 97.2251 143.16 100.579 143.16C103.933 143.16 107.1 141.856 109.453 139.48C111.805 137.104 113.133 133.96 113.133 130.606C113.133 127.252 111.828 124.085 109.453 121.732C106.984 119.264 103.77 118.076 100.579 118.076Z" fill="url(#paint3_linear_210_180)"/>
<path d="M87.4192 143.789C82.4583 138.828 79.7565 132.283 79.7565 125.296C79.7565 118.308 82.4816 111.717 87.4192 106.803L91.6815 111.065C87.885 114.861 85.7656 119.915 85.7656 125.296C85.7656 130.676 87.8618 135.73 91.6815 139.526L87.4192 143.789Z" fill="#F03B3B"/>
</g>
<path d="M40 106.826H49.2698V111.67C51.8318 108.247 55.9077 106.127 60.7987 106.127C69.626 106.127 75.7049 112.555 75.7049 121.289V143.532H66.4351V122.943C66.4351 118.005 62.8483 114.535 57.8874 114.535C52.9264 114.535 49.2698 118.029 49.2698 122.943V143.532H40V106.826ZM146.23 143.532H156.641L171.244 106.826H161.904L151.726 133.82L141.618 106.826H131.65L146.253 143.532H146.23ZM190.669 135.753C184.986 135.753 180.7 131.211 180.7 125.132C180.7 119.054 184.986 114.605 190.669 114.605C196.352 114.605 200.707 119.147 200.707 125.132C200.707 131.118 196.375 135.753 190.669 135.753ZM200.73 143.532H210V106.826H200.73V111.461C197.796 108.107 193.743 106.127 188.829 106.127C178.79 106.127 171.081 114.395 171.081 125.132C171.081 135.87 178.767 144.231 188.829 144.231C198.89 144.231 197.796 142.228 200.73 138.944V143.486V143.532Z" fill="white"/>
<defs>
<linearGradient id="paint0_linear_210_180" x1="125" y1="244.946" x2="125" y2="4.90722" gradientUnits="userSpaceOnUse">
<stop stop-color="#132079"/>
<stop offset="0.4" stop-color="#1339CA"/>
<stop offset="0.5" stop-color="#102FAA"/>
<stop offset="0.8" stop-color="#0B165A"/>
</linearGradient>
<linearGradient id="paint1_linear_210_180" x1="107.03" y1="122.897" x2="95.2911" y2="149.076" gradientUnits="userSpaceOnUse">
<stop stop-color="#F03C3C"/>
<stop offset="1" stop-color="#F03C3C" stop-opacity="0"/>
</linearGradient>
<linearGradient id="paint2_linear_210_180" x1="113.715" y1="122.734" x2="91.1229" y2="136.266" gradientUnits="userSpaceOnUse">
<stop stop-color="#F03B3B"/>
<stop offset="1" stop-color="#F03B3B" stop-opacity="0"/>
</linearGradient>
<linearGradient id="paint3_linear_210_180" x1="99.6939" y1="129.721" x2="100.579" y2="130.606" gradientUnits="userSpaceOnUse">
<stop stop-color="#F03B3B" stop-opacity="0"/>
<stop offset="1" stop-color="#F03B3B"/>
</linearGradient>
</defs>
</svg>
