<?xml version="1.0" encoding="UTF-8"?>
<svg id="Vrstva_1" data-name="Vrstva 1" xmlns="http://www.w3.org/2000/svg" xmlns:xlink="http://www.w3.org/1999/xlink" version="1.1" viewBox="0 0 1024 1024">
  <defs>
    <style>
      .cls-1 {
        fill: #fffcfc;
      }

      .cls-1, .cls-2, .cls-3, .cls-4, .cls-5, .cls-6, .cls-7, .cls-8, .cls-9, .cls-10, .cls-11, .cls-12, .cls-13, .cls-14, .cls-15, .cls-16, .cls-17, .cls-18, .cls-19, .cls-20, .cls-21, .cls-22, .cls-23, .cls-24 {
        stroke-width: 0px;
      }

      .cls-1, .cls-2, .cls-3, .cls-4, .cls-9, .cls-11, .cls-12, .cls-13, .cls-14, .cls-15, .cls-16, .cls-17, .cls-18, .cls-19, .cls-20, .cls-21, .cls-22, .cls-24 {
        fill-rule: evenodd;
      }

      .cls-2 {
        fill: #f6807f;
      }

      .cls-3 {
        fill: #f57574;
      }

      .cls-4 {
        fill: #fffefe;
      }

      .cls-5 {
        fill: url(#Nepojmenovaný_přechod_2);
      }

      .cls-6 {
        fill: url(#Nepojmenovaný_přechod_4);
      }

      .cls-7 {
        fill: url(#Nepojmenovaný_přechod_3);
      }

      .cls-25 {
        clip-path: url(#clippath);
      }

      .cls-8 {
        fill: none;
      }

      .cls-9 {
        fill: #f78786;
      }

      .cls-10 {
        fill: #f03b3b;
      }

      .cls-11 {
        fill: #f47372;
      }

      .cls-12 {
        fill: #f78886;
      }

      .cls-13 {
        fill: #fffdfd;
      }

      .cls-14 {
        fill: #fefffe;
      }

      .cls-15 {
        fill: #fbc6c6;
      }

      .cls-26 {
        fill: url(#Nepojmenovaný_přechod);
        stroke: #020202;
        stroke-miterlimit: 10;
      }

      .cls-16 {
        fill: #fbc7c7;
      }

      .cls-17 {
        fill: #f79c9c;
      }

      .cls-18 {
        fill: #f46c6c;
      }

      .cls-19 {
        fill: #fbc5c5;
      }

      .cls-20 {
        fill: #f57473;
      }

      .cls-21 {
        fill: #fefdfd;
      }

      .cls-22 {
        fill: #fac0c0;
      }

      .cls-23 {
        fill: #fff;
      }

      .cls-24 {
        fill: #fbcece;
      }
    </style>
    <linearGradient id="Nepojmenovaný_přechod" data-name="Nepojmenovaný přechod" x1="512" y1="20.7" x2="512" y2="1003.9" gradientTransform="translate(0 1024) scale(1 -1)" gradientUnits="userSpaceOnUse">
      <stop offset="0" stop-color="#132079"/>
      <stop offset=".4" stop-color="#1339ca"/>
      <stop offset=".5" stop-color="#102faa"/>
      <stop offset=".8" stop-color="#0b165a"/>
    </linearGradient>
    <clipPath id="clippath">
      <rect class="cls-8" x="345" y="371.1" width="193.7" height="193.5"/>
    </clipPath>
    <linearGradient id="Nepojmenovaný_přechod_2" data-name="Nepojmenovaný přechod 2" x1="445.7" y1="-464.7" x2="402.3" y2="-368" gradientTransform="translate(0 924)" gradientUnits="userSpaceOnUse">
      <stop offset="0" stop-color="#f03c3c"/>
      <stop offset="1" stop-color="#f03c3c" stop-opacity="0"/>
    </linearGradient>
    <linearGradient id="Nepojmenovaný_přechod_3" data-name="Nepojmenovaný přechod 3" x1="470.4" y1="-465.3" x2="387" y2="-415.3" gradientTransform="translate(0 924)" gradientUnits="userSpaceOnUse">
      <stop offset="0" stop-color="#f03b3b"/>
      <stop offset="1" stop-color="#f03b3b" stop-opacity="0"/>
    </linearGradient>
    <linearGradient id="Nepojmenovaný_přechod_4" data-name="Nepojmenovaný přechod 4" x1="418.6" y1="-439.5" x2="421.9" y2="-436.2" gradientTransform="translate(0 924)" gradientUnits="userSpaceOnUse">
      <stop offset="0" stop-color="#f03b3b" stop-opacity="0"/>
      <stop offset="1" stop-color="#f03b3b"/>
    </linearGradient>
  </defs>
  <rect class="cls-26" width="1024" height="1024"/>
  <g>
    <g>
      <path class="cls-23" d="M198.2,400h34.2v17.9c9.5-12.6,24.5-20.5,42.6-20.5,32.6,0,55,23.7,55,56v82.1h-34.2v-76c0-18.2-13.2-31-31.6-31s-31.8,12.9-31.8,31v76h-34.2v-135.5h0ZM590.4,535.5h38.4l53.9-135.5h-34.5l-37.6,99.7-37.3-99.7h-36.8l53.9,135.5h0ZM754.5,506.8c-21,0-36.8-16.8-36.8-39.2s15.8-38.9,36.8-38.9,37.1,16.8,37.1,38.9-16,39.2-37.1,39.2ZM791.6,535.5h34.2v-135.5h-34.2v17.1c-10.8-12.4-25.8-19.7-43.9-19.7-37.1,0-65.5,30.5-65.5,70.2s28.4,70.5,65.5,70.5,33.1-7.4,43.9-19.5v16.8h0Z"/>
      <g class="cls-25">
        <g>
          <path class="cls-5" d="M441.5,564.7c-24.7,0-49.4-9.4-68.1-28.2-37.6-37.6-37.6-98.9,0-136.5,48.6-44.9,104.6-31.3,136.3.3,31.6,31.6,45.2,87.6.6,135.9-19,19-43.9,28.5-68.7,28.5h-.1ZM389.1,520.8c29,29,76.1,29,105,0,34.5-37.4,24.8-79.6-.3-104.8-25.2-25.1-67.3-34.9-105,0-28.6,28.6-28.6,75.8.3,104.8Z"/>
          <path class="cls-7" d="M421.9,556.6c-18.4,0-35.6-7.1-48.6-20.2-12.9-12.9-20.2-30.2-20.2-48.6s7.1-35.6,20.2-48.6c26.8-26.8,70.3-26.8,97.2,0,12.9,13,20.1,30.2,20.1,48.6s-7.1,35.6-20.2,48.6c-12.9,12.9-30.2,20.1-48.6,20.1h.1ZM421.9,441.5c-11.9,0-23.8,4.5-32.8,13.5s-13.6,20.4-13.6,32.8,4.8,24.1,13.6,32.8c8.7,8.7,20.4,13.6,32.8,13.6s24.1-4.8,32.8-13.6c8.7-8.8,13.6-20.4,13.6-32.8s-4.8-24.1-13.6-32.8c-9.1-9.1-21-13.5-32.8-13.5h0Z"/>
          <path class="cls-6" d="M421.9,556.6c-18.4,0-35.6-7.1-48.6-20.2-12.9-12.9-20.2-30.2-20.2-48.6s7.1-35.6,20.2-48.6c26.8-26.8,70.3-26.8,97.2,0,12.9,13,20.1,30.2,20.1,48.6s-7.1,35.6-20.2,48.6c-12.9,12.9-30.2,20.1-48.6,20.1h.1ZM421.9,441.5c-11.9,0-23.8,4.5-32.8,13.5s-13.6,20.4-13.6,32.8,4.8,24.1,13.6,32.8c8.7,8.7,20.4,13.6,32.8,13.6s24.1-4.8,32.8-13.6c8.7-8.8,13.6-20.4,13.6-32.8s-4.8-24.1-13.6-32.8c-9.1-9.1-21-13.5-32.8-13.5h0Z"/>
          <path class="cls-10" d="M373.3,536.5c-18.3-18.3-28.3-42.5-28.3-68.3s10.1-50.1,28.3-68.3l15.7,15.7c-14,14-21.8,32.7-21.8,52.5s7.7,38.5,21.8,52.5l-15.7,15.7h0v.2Z"/>
        </g>
      </g>
    </g>
    <g>
      <path class="cls-14" d="M198.2,602.8h9.6v49.5h-9.6v-49.5Z"/>
      <path class="cls-16" d="M198.2,602.8c3.2-.2,6.5-.3,9.8-.2,0,16.6,0,33.2-.2,49.7v-49.5h-9.6Z"/>
      <path class="cls-4" d="M255.7,602.8h9.8v49.5c-3.2,0-6.4,0-9.6-.1-8.3-10.9-16.5-21.9-24.6-32.9-.1,11-.1,22-.1,33h-9.8v-49.7c3.2,0,6.4,0,9.6.1,8.1,11,16.3,22,24.6,32.9.1-10.9.1-21.8.1-32.8Z"/>
      <path class="cls-11" d="M255.7,602.8c3.3-.2,6.6-.3,10-.2,0,16.6,0,33.2-.2,49.7v-49.5h-9.8Z"/>
      <path class="cls-9" d="M319,602.8h-40.3v8.5c5.1,0,10.1,0,15.2.2h-15.4v-8.9c13.6,0,27.1,0,40.6.2Z"/>
      <path class="cls-1" d="M319,602.8v8.7h-15.2v40.8h-10v-40.8c-5-.2-10.1-.3-15.2-.2v-8.5h40.3Z"/>
      <path class="cls-22" d="M363.3,602.8h-32.5v49.5c-.2-16.5-.3-33.1-.2-49.7,11,0,21.9,0,32.8.2Z"/>
      <path class="cls-4" d="M363.3,602.8c.3,2.8.3,5.6,0,8.5h-23c0,4,0,7.9.2,11.8h22.1v8.7h-22.3c0,4,0,7.9.2,11.8h23v8.7h-32.8v-49.5h32.5Z"/>
      <path class="cls-4" d="M462.3,635.5c0,.1,0,.2.2.2.2-11,.3-22,.2-33h9.6v49.5c-3.2,0-6.4,0-9.6-.1-8.1-10.8-16.2-21.6-24.3-32.4,0-.2-.2-.3-.3-.4-.1,11-.1,22-.1,33h-9.8v-49.7c3.2,0,6.4,0,9.6.1,8.2,10.9,16.4,21.9,24.5,32.9Z"/>
      <path class="cls-19" d="M472.3,602.8h-9.6c0,11,0,22-.2,33-.1,0-.2-.1-.2-.2.2-11,.3-22,.2-33,3.3,0,6.6,0,9.8.2Z"/>
      <path class="cls-12" d="M560.4,611.5c5-.2,10.1-.3,15.2-.2v-8.5h-40.3v8.5c5.1,0,10.1,0,15.2.2h-15.4v-8.9h40.8v8.9h-15.4Z"/>
      <path class="cls-1" d="M560.4,611.5v40.8h-10v-40.8c-5-.2-10.1-.3-15.2-.2v-8.5h40.3v8.5c-5.1,0-10.1,0-15.2.2Z"/>
      <path class="cls-21" d="M587.1,602.8h9.8v49.5h-9.8v-49.5Z"/>
      <path class="cls-17" d="M587.1,602.8c3.3-.2,6.6-.3,10-.2,0,16.6,0,33.2-.2,49.7v-49.5h-9.8Z"/>
      <path class="cls-11" d="M682.7,602.8h-9.6v49.5c-.2-16.5-.3-33.1-.2-49.7,3.3,0,6.6,0,9.8.2Z"/>
      <path class="cls-4" d="M682.7,602.8c8.1,10.9,16.3,21.8,24.5,32.5.2-10.7.3-21.5.2-32.5h9.8v49.5c-3.2,0-6.4,0-9.6-.1-8.2-10.9-16.4-21.7-24.5-32.7,0-.1,0-.2-.2-.2-.2,11-.3,22-.2,33h-9.6v-49.5h9.6Z"/>
      <path class="cls-3" d="M717.3,602.8h-9.8c0,11,0,21.9-.2,32.5v-32.8c3.4,0,6.7,0,10,.2Z"/>
      <path class="cls-13" d="M793,602.8h9.6c0,13.6,0,27.2.2,40.8h23v8.7h-33c0-16.5,0-33,.2-49.5Z"/>
      <path class="cls-15" d="M793,602.8c3.2-.2,6.5-.3,9.8-.2v41c-.2-13.6-.3-27.2-.2-40.8h-9.6Z"/>
      <path class="cls-13" d="M657.9,614.8c-5.7-9-14-13.3-24.8-12.9-7.4.7-13.5,3.8-18.4,9.4-6.7,9.2-7.5,19-2.2,29.2,5.2,8.2,12.6,12.3,22.4,12.5,11.4-.1,19.6-5.3,24.4-15.6,2.9-7.7,2.4-15.2-1.3-22.5ZM645.5,640.1c-7.1,5.2-14.2,5.2-21.2-.2-4.9-5.2-6.3-11.3-4.3-18.2,2.2-5.7,6.3-9.2,12.1-10.7,9.8-.7,16,3.7,18.6,13.1.9,6.2-.8,11.5-5.2,15.9Z"/>
      <path class="cls-2" d="M363.3,611.3c-7.5.2-15.1.3-22.7.2v11.6c-.2-3.9-.3-7.8-.2-11.8h23Z"/>
      <path class="cls-13" d="M404.4,633.4c6.3-2.1,10-6.4,11-13,.2-10.8-5.1-16.7-15.9-17.7-7.4-.1-14.7-.1-22.1-.1v49.7h9.8v-18.1c2,0,4,0,6,.1,4,5.9,8,11.9,12,17.8,3.9.2,7.7.1,11.6-.1-4.1-6.2-8.3-12.4-12.5-18.6ZM399.5,625.2c-4.1.1-8.2.1-12.3.1v-13.8c4.2,0,8.5,0,12.7.1,3.4.8,5.3,3,5.6,6.5-.2,3.9-2.2,6.3-6,7.1Z"/>
      <path class="cls-13" d="M514.8,602.8c-3.7-.2-7.3-.3-11-.2-6.6,16.5-13.3,33-20.1,49.5,3.3.3,6.7.3,10,0,1.5-3.5,2.8-7.1,4-10.7,7.4,0,14.9,0,22.3.2,1.5,3.5,2.9,7,4.2,10.5,3.6.3,7.1.3,10.7.1-6.7-16.5-13.4-32.9-20.2-49.4ZM501.5,632.4c2.4-6.2,4.9-12.4,7.5-18.5,2.5,6.1,4.9,12.2,7.2,18.3-4.9.2-9.8.3-14.7.2Z"/>
      <path class="cls-13" d="M760.9,602.7c-3.6-.1-7.3-.1-10.9-.1-6.6,16.5-13.2,33-20.1,49.5,3.3.3,6.7.3,10,0,1.4-3.5,2.8-7.1,4.2-10.6,7.4-.1,14.7-.1,22.1,0,1.5,3.6,2.9,7.2,4.2,10.8,3.6,0,7.1,0,10.7-.1-6.7-16.5-13.5-33-20.3-49.5ZM747.8,632.4c2.5-6.2,5-12.3,7.5-18.5,2.5,6.1,4.9,12.2,7.2,18.3-4.9.2-9.8.3-14.7.2Z"/>
      <path class="cls-24" d="M683.2,619.5c-.1,10.9-.3,21.8-.4,32.8,0-11,0-22,.2-33,.1,0,.2.1.2.2Z"/>
      <path class="cls-18" d="M438.5,619.7c-.1,10.8-.3,21.7-.4,32.5,0-11,0-22,.1-33,.2.1.3.3.3.4Z"/>
      <path class="cls-20" d="M362.7,623.1c.2,2.9.3,5.9.2,8.9h-22.3v11.6c-.2-3.9-.3-7.8-.2-11.8h22.3v-8.7Z"/>
      <path class="cls-18" d="M516.2,632.2c.1,0,.2,0,.2.2-5,.3-10,.3-14.9,0,4.9,0,9.8,0,14.7-.2Z"/>
      <path class="cls-18" d="M762.5,632.2c.1,0,.2,0,.2.2-5,.3-10,.3-14.9,0,4.9,0,9.8,0,14.7-.2Z"/>
    </g>
  </g>
</svg>