<svg width="250" height="250" viewBox="0 0 250 250" fill="none" xmlns="http://www.w3.org/2000/svg">
<rect width="250" height="250" fill="url(#paint0_linear_210_206)"/>
<path d="M41.5143 152.483C41.095 151.551 40.7688 150.55 40.5591 149.431C40.3495 148.313 40.1864 146.752 40.1165 144.725C40.0233 142.698 40 139.856 40 136.152C40 132.448 40.0466 129.582 40.1165 127.578C40.2097 125.552 40.3495 123.991 40.5591 122.872C40.7688 121.754 41.095 120.729 41.5143 119.82C43.5645 115.394 47.3852 113.204 52.9533 113.204C58.5213 113.204 59.3134 114.183 61.5267 116.116C62.9012 117.328 63.8331 118.865 64.3689 120.682C64.9048 122.5 65.1843 125.039 65.2309 128.277H57.5661C57.5661 126.647 57.5195 125.342 57.403 124.387C57.2866 123.432 57.1468 122.733 56.9604 122.243C56.774 121.754 56.4712 121.358 56.0984 121.009C55.679 120.636 55.1898 120.356 54.654 120.147C54.1181 119.96 53.4891 119.867 52.7669 119.867C50.6701 119.867 49.2257 120.752 48.4103 122.523C48.2006 123.035 48.0375 123.641 47.9211 124.387C47.8046 125.132 47.7347 126.483 47.6881 128.487C47.6415 130.491 47.6182 133.03 47.6182 136.152C47.6182 139.274 47.6182 141.813 47.6881 143.817C47.7347 145.82 47.8046 147.171 47.9211 147.917C48.0375 148.662 48.1773 149.268 48.4103 149.781C49.1791 151.551 50.6468 152.437 52.8135 152.437C54.9801 152.437 55.283 152.064 56.145 151.295C56.5177 150.969 56.8206 150.55 57.007 150.107C57.1934 149.641 57.3565 148.919 57.4496 147.964C57.5661 146.985 57.6127 145.68 57.6127 143.98H65.2775C65.2309 147.218 64.9281 149.781 64.3922 151.645C63.8331 153.508 62.9012 155.046 61.5733 156.211C60.5948 157.189 59.3833 157.911 57.9389 158.377C56.4945 158.867 54.8403 159.1 53.0232 159.1C47.3619 159.1 43.5179 156.886 41.5143 152.483Z" fill="#1AF8FD"/>
<path d="M72.0337 113.856H79.4422V158.401H72.0337V113.856Z" fill="#1AF8FD"/>
<path d="M87.7593 113.856H95.1213L105.861 141.743V113.856H113.014V158.401H105.791L94.9116 129.745V158.401H87.7593V113.856Z" fill="#1AF8FD"/>
<path d="M121.331 113.856H138.734V120.473H128.763V131.586H138.547V138.155H128.763V151.784H138.734V158.401H121.331V113.856Z" fill="#1AF8FD"/>
<path d="M145.42 113.856H154.809L161.588 142.815L168.484 113.856H177.757V158.401H170.651V128.44L163.802 158.401H159.328L152.433 128.44V158.401H145.397V113.856H145.42Z" fill="#1AF8FD"/>
<path d="M201.31 150.386H191.339L190.058 158.401H182.579L190.57 113.856H202.079L210 158.401H202.591L201.31 150.386ZM200.285 144.073L196.394 119.774H196.278L192.387 144.073H200.308H200.285Z" fill="#1AF8FD"/>
<path d="M42.1434 90.3029H46.2437V92.4229C47.3853 90.9319 49.1791 90 51.3458 90C55.2597 90 57.9389 92.7957 57.9389 96.6164V106.308H53.8386V97.3386C53.8386 95.1953 52.2544 93.681 50.0644 93.681C47.8745 93.681 46.2437 95.1953 46.2437 97.3386V106.308H42.1434V90.3029Z" fill="white"/>
<path d="M69.2614 90C74.1771 90 77.9279 93.6111 77.9279 98.2938C77.9279 102.977 74.1771 106.611 69.2614 106.611C64.3456 106.611 60.5948 103 60.5948 98.2938C60.5948 93.5878 64.3456 90 69.2614 90ZM69.2614 102.93C71.7775 102.93 73.7111 100.95 73.7111 98.2938C73.7111 95.6379 71.8008 93.7043 69.2614 93.7043C66.722 93.7043 64.8582 95.6845 64.8582 98.2938C64.8582 100.903 66.7453 102.93 69.2614 102.93Z" fill="white"/>
<path d="M78.1143 90.3029H82.5175L86.9906 102.091L91.4869 90.3029H95.6106L89.1572 106.308H84.5677L78.1143 90.3029Z" fill="white"/>
<path d="M108.913 104.328C107.632 105.749 105.838 106.634 103.648 106.634C99.1983 106.634 95.7969 103.023 95.7969 98.3171C95.7969 93.6111 99.1983 90.0233 103.648 90.0233C108.098 90.0233 107.609 90.8853 108.913 92.353V90.3262H113.014V106.331H108.913V104.351V104.328ZM104.487 102.93C107.003 102.93 108.937 100.95 108.937 98.2938C108.937 95.6379 107.026 93.7043 104.487 93.7043C101.947 93.7043 100.084 95.6845 100.084 98.2938C100.084 100.903 101.971 102.93 104.487 102.93Z" fill="white"/>
<defs>
<linearGradient id="paint0_linear_210_206" x1="116.587" y1="0.727539" x2="116.587" y2="246.14" gradientUnits="userSpaceOnUse">
<stop stop-color="#B842FF"/>
<stop offset="1" stop-color="#3C9BFF"/>
</linearGradient>
</defs>
</svg>
