<svg width="250" height="250" viewBox="0 0 250 250" fill="none" xmlns="http://www.w3.org/2000/svg">
<rect width="250" height="250" fill="url(#paint0_linear_210_111)"/>
<path d="M45.4558 96.9087C45.4558 94.0217 47.603 91.9616 50.548 91.9616C53.493 91.9616 55.5966 94.0216 55.5966 96.9087V109.037H61.0515V95.9367C61.0515 90.7865 57.4826 87 52.2744 87C49.3874 87 46.9936 88.2622 45.4703 90.2787V87.4207H40.0155V109.037H45.4558V96.9087Z" fill="white"/>
<path d="M75.7035 109.443C82.2609 109.443 87.2661 104.54 87.2661 98.1998C87.2661 91.86 82.2464 87 75.7035 87C69.1606 87 64.141 91.86 64.141 98.1998C64.141 104.54 69.1461 109.443 75.7035 109.443ZM75.7035 91.9906C79.0693 91.9906 81.6226 94.6455 81.6226 98.1998C81.6226 101.754 79.0548 104.453 75.7035 104.453C72.3378 104.453 69.828 101.725 69.828 98.1998C69.828 94.6745 72.3378 91.9906 75.7035 91.9906Z" fill="white"/>
<path d="M101.774 109.037L110.391 87.4206H104.878L98.8868 103.335L92.9096 87.4206H87.0341L95.6371 109.037H101.774Z" fill="white"/>
<path d="M127.77 90.1481C126.044 88.1751 123.665 87 120.749 87C114.815 87 110.289 91.831 110.289 98.1998C110.289 104.569 114.829 109.443 120.749 109.443C123.65 109.443 126.029 108.268 127.77 106.339V109.037H133.225V87.4062H127.77V90.1481ZM121.851 104.453C118.485 104.453 115.976 101.754 115.976 98.1998C115.976 94.6455 118.485 91.9906 121.851 91.9906C125.217 91.9906 127.77 94.6455 127.77 98.1998C127.77 101.754 125.202 104.453 121.851 104.453Z" fill="white"/>
<path d="M166.302 149.107L155.146 119.294H141.277V162.759H151.186V136.761L161.573 162.759H171.032L181.419 136.761V162.759H191.328V119.294H177.459L166.302 149.107Z" fill="#D0B38B"/>
<path d="M116.106 133.889C116.106 119.294 101.091 119.294 101.091 119.294H81.0558V162.759H91.6608V148.266H95.9115L104.892 162.759H117.441L107.01 146.859C107.01 146.859 116.106 145.248 116.106 133.889ZM105.167 133.628C105.167 138.444 101.526 138.662 101.526 138.662H91.6318V128.579H101.526C101.526 128.579 105.167 128.782 105.167 133.613V133.628Z" fill="#D0B38B"/>
<path d="M77.6181 119.279H64.4452L50.3729 136.181V119.279H40V162.744H50.489L50.489 162.758V150.63L55.4506 145.016L66.781 162.758H79.388L62.3126 137.196L77.6181 119.279Z" fill="#D0B38B"/>
<path d="M133.226 119.294H122.737V162.759H133.226V119.294Z" fill="#D0B38B"/>
<path d="M210 119.294H199.511V162.759H210V119.294Z" fill="#D0B38B"/>
<defs>
<linearGradient id="paint0_linear_210_111" x1="125" y1="0" x2="125" y2="250" gradientUnits="userSpaceOnUse">
<stop stop-color="#7F3627"/>
<stop offset="1" stop-color="#692613"/>
</linearGradient>
</defs>
</svg>
