<?xml version="1.0" encoding="UTF-8"?>
<svg id="Vrstva_1" data-name="Vrstva 1" xmlns="http://www.w3.org/2000/svg" xmlns:xlink="http://www.w3.org/1999/xlink" version="1.1" viewBox="0 0 1024 1024">
  <defs>
    <style>
      .cls-1 {
        fill: url(#Nepojmenovaný_přechod_28);
        stroke: #020202;
        stroke-miterlimit: 10;
      }

      .cls-2 {
        fill: #fff;
      }

      .cls-2, .cls-3 {
        stroke-width: 0px;
      }

      .cls-3 {
        fill: #747fce;
      }
    </style>
    <linearGradient id="Nepojmenovaný_přechod_28" data-name="Nepojmenovaný přechod 28" x1="512" y1="-844.7" x2="512" y2="-1827.9" gradientTransform="translate(0 1848)" gradientUnits="userSpaceOnUse">
      <stop offset="0" stop-color="#70337e"/>
      <stop offset=".4" stop-color="#613777"/>
      <stop offset=".8" stop-color="#52396a"/>
    </linearGradient>
  </defs>
  <rect class="cls-1" width="1024" height="1024"/>
  <g id="logo">
    <path class="cls-2" d="M207.5,417.4h14.4v7.5c4.2-5.6,10.9-8.8,17.9-8.6,12.4-.5,22.8,9.1,23.3,21.5,0,.7,0,1.4,0,2v34.5h-14.5v-31.9c-.4-7.3-6.6-13-13.9-12.7-6.8.3-12.3,5.8-12.7,12.7v31.9h-14.4v-56.9Z"/>
    <path class="cls-2" d="M301.4,462.2c9.1.5,16.8-6.4,17.3-15.4.5-9.1-6.4-16.8-15.4-17.3-9.1-.5-16.8,6.4-17.3,15.4,0,.3,0,.6,0,.9-.4,8.7,6.4,16.1,15.2,16.4.1,0,.2,0,.3,0M301.4,416.3c16.3.5,29.2,14.1,28.7,30.4-.5,16.3-14.1,29.2-30.4,28.7-16-.4-28.8-13.6-28.8-29.6,0-16.2,13.1-29.5,29.3-29.5.4,0,.7,0,1.1,0"/>
    <path class="cls-2" d="M331.5,417.4h15.5l15.8,41.9,15.8-41.9h14.5l-22.6,56.9h-16.3l-22.6-56.9Z"/>
    <path class="cls-2" d="M423,462.2c9.1.5,16.8-6.4,17.3-15.4.5-9.1-6.4-16.8-15.4-17.3-9.1-.5-16.8,6.4-17.3,15.4,0,.3,0,.6,0,.9-.4,8.7,6.4,16.1,15.2,16.4.1,0,.2,0,.3,0M438.6,467.2c-4.7,5.3-11.4,8.3-18.4,8.2-15.6,0-27.5-12.7-27.5-29.6s11.9-29.5,27.5-29.5c7.1,0,13.8,3,18.4,8.3v-7.2h14.2v56.9h-14.3v-7.1Z"/>
    <path class="cls-3" d="M254.8,497.6c21.5-.4,41.3,11.7,50.6,31l-24.2,9.2c-4.9-10.1-15.1-16.4-26.3-16.4-16.8,0-29.7,13.7-29.7,31.3s12.9,31.2,29.7,31.2c11.2,0,21.4-6.3,26.3-16.4l24.2,9.1c-9.3,19.4-29.1,31.5-50.6,31.1-31.9,0-56.6-24-56.6-55s24.6-55.1,56.6-55.1"/>
    <path class="cls-3" d="M320.2,499h26v107.1h-26v-107.1Z"/>
    <path class="cls-3" d="M366.1,499h25.3l46.7,63.3v-63.3h26v107.1h-25.3l-46.7-63.3v63.3h-26v-107.1Z"/>
    <path class="cls-3" d="M484.4,499h73.4v23h-47.4v19.1h45.9v22.9h-45.8v19.1h47.4v23h-73.5v-107.1Z"/>
    <path class="cls-3" d="M577,499h35.5l28,74,28-73.9h34v107.1h-25.3v-65.5l-26,65.5h-23.1l-25.9-65.3v65.3h-25.3l.2-107.2Z"/>
    <path class="cls-3" d="M755.4,561.9h25.7l-12.8-34.1-12.9,34.1ZM754.7,498.9h29.1l42.1,107.1h-27.8l-8.1-21.1h-42.9l-8,21.1h-26.3l42-107.1Z"/>
  </g>
</svg>