<svg width="250" height="250" viewBox="0 0 250 250" fill="none" xmlns="http://www.w3.org/2000/svg">
<rect width="250" height="250" fill="url(#paint0_linear_210_193)"/>
<path d="M42.0962 97.3263H46.2652V99.5156C47.4764 97.8853 49.4328 96.9769 51.4591 97.0235C55.0692 96.9071 58.0504 99.7253 58.1669 103.312V113.886H53.9978V104.593C53.8581 102.45 52.0181 100.867 49.8753 100.983C47.9422 101.123 46.405 102.66 46.2652 104.593V113.886H42.0962V97.3729H42.0729L42.0962 97.3263Z" fill="white"/>
<path d="M69.3466 110.346C71.9784 110.509 74.2376 108.506 74.3774 105.874C74.5171 103.242 72.5374 100.983 69.9055 100.843C67.2737 100.703 65.0145 102.683 64.8747 105.315V105.594C64.735 108.11 66.6914 110.253 69.2068 110.369H69.3698M69.3466 97C74.0979 97.1397 77.8011 101.099 77.6614 105.804C77.5217 110.555 73.5622 114.259 68.8574 114.119C64.2226 113.979 60.5426 110.183 60.5426 105.571C60.5426 100.959 64.3623 97.0233 69.0904 97.0233H69.3233" fill="white"/>
<path d="M77.9874 97.3261H82.4826L87.0476 109.484L91.6126 97.3261H95.8515L89.2602 113.839H84.5787L77.9874 97.3261Z" fill="white"/>
<path d="M104.586 110.346C107.217 110.509 109.477 108.506 109.616 105.874C109.756 103.242 107.776 100.983 105.145 100.843C102.513 100.703 100.253 102.683 100.114 105.315V105.594C99.974 108.11 101.93 110.253 104.446 110.369H104.609M109.081 111.79C107.73 113.327 105.773 114.212 103.724 114.165C99.2054 114.165 95.7583 110.462 95.7583 105.618C95.7583 100.773 99.2054 97.0699 103.724 97.0699C105.773 97.0466 107.73 97.9083 109.081 99.4921V97.3959H113.226V113.909H109.057V111.79H109.081Z" fill="white"/>
<path d="M52.414 139.273H59.8671L56.1406 129.398L52.414 139.273ZM52.2044 120.99H60.659L72.8634 152.06H64.7815L62.4291 145.934H49.9452L47.6394 152.06H40L52.1811 120.99H52.2044Z" fill="#091208"/>
<path d="M88.8176 120.57C95.0363 120.454 100.766 123.994 103.468 129.584L96.4571 132.239C95.0596 129.304 92.0784 127.464 88.8176 127.464C83.9499 127.464 80.2699 131.424 80.2699 136.501C80.2699 141.579 83.9964 145.538 88.8176 145.538C93.6389 145.538 95.013 143.698 96.4571 140.764L103.468 143.419C100.766 149.032 95.0363 152.549 88.8176 152.432C79.5246 152.432 72.3976 145.468 72.3976 136.455C72.3976 127.441 79.5479 120.477 88.8176 120.477" fill="#091208"/>
<path d="M113.273 127.651H104.19V120.99H129.903V127.651H120.819V152.06H113.273V127.651Z" fill="#091208"/>
<path d="M140.989 120.99H133.466V152.06H140.989V120.99Z" fill="#091208"/>
<path d="M161.415 145.585C166.283 145.585 170.033 141.625 170.033 136.548C170.033 131.47 166.306 127.511 161.415 127.511C156.524 127.511 152.868 131.47 152.868 136.548C152.868 141.625 156.594 145.585 161.415 145.585ZM161.415 120.57C170.685 120.57 177.835 127.534 177.835 136.548C177.835 145.561 170.685 152.525 161.415 152.525C152.146 152.525 144.995 145.561 144.995 136.548C144.995 127.534 152.146 120.57 161.415 120.57Z" fill="#091208"/>
<path d="M181.632 120.99H188.945L202.477 139.389V120.99H210V152.06H202.687L189.155 133.706V152.06H181.632V120.99Z" fill="#091208"/>
<defs>
<linearGradient id="paint0_linear_210_193" x1="184.148" y1="27.9712" x2="184.148" y2="273.384" gradientUnits="userSpaceOnUse">
<stop stop-color="#FFDA48"/>
<stop offset="1" stop-color="#FAAC3E"/>
</linearGradient>
</defs>
</svg>
