<svg width="250" height="250" viewBox="0 0 250 250" fill="none" xmlns="http://www.w3.org/2000/svg">
<rect width="250" height="250" fill="#181A19"/>
<path d="M41.0505 98.3501H45.0772V100.451C46.2152 98.9629 47.966 98 50.1545 98C54.0062 98 56.7199 100.801 56.7199 104.653V114.37H52.6931V105.353C52.6931 103.165 51.1174 101.677 48.9289 101.677C46.7405 101.677 45.1648 103.165 45.1648 105.353V114.37H41.138L41.0505 98.3501ZM67.6622 98C72.5644 98 76.241 101.589 76.241 106.316C76.241 111.043 72.4768 114.72 67.6622 114.72C62.8476 114.72 59.0834 111.131 59.0834 106.316C59.0834 101.589 62.76 98 67.6622 98ZM67.6622 111.043C70.2008 111.043 72.0391 109.03 72.0391 106.404C72.0391 103.778 70.1133 101.764 67.6622 101.764C65.1236 101.764 63.2853 103.778 63.2853 106.404C63.2853 109.03 65.1236 111.043 67.6622 111.043ZM84.9073 110.168L89.3718 98.3501H93.4861L87.0958 114.457H82.5438L76.1535 98.3501H80.5304L84.9073 110.168ZM106.442 112.444C105.129 113.844 103.378 114.72 101.189 114.72C96.8126 114.72 93.3986 111.131 93.3986 106.316C93.3986 101.589 96.8126 98 101.189 98C103.378 98 105.129 98.8754 106.442 100.364V98.3501H110.469V114.457H106.442V112.444ZM101.977 111.043C104.516 111.043 106.354 109.03 106.354 106.404C106.354 103.778 104.428 101.764 101.977 101.764C99.5263 101.764 97.6004 103.778 97.6004 106.404C97.6004 109.03 99.5263 111.043 101.977 111.043ZM47.5283 142.119C47.966 144.308 49.3666 145.446 51.9928 145.446C54.2688 145.446 55.6694 144.571 55.6694 143.082C55.6694 137.918 40.7003 141.419 40.7003 130.389C40.7003 125.049 45.6025 121.11 51.8177 121.11C58.033 121.11 62.4099 124.524 63.1102 129.601L55.6694 131.09C55.2317 128.814 53.9186 127.763 51.5551 127.763C49.5417 127.763 48.3162 128.639 48.3162 130.127C48.3162 134.854 63.2853 131.44 63.2853 142.82C63.2853 148.16 58.2956 152.186 51.7302 152.186C45.1648 152.186 40.6128 148.685 40 143.608L47.5283 142.119ZM68.0999 121.373H81.4933C88.6715 121.373 93.2235 125.837 93.2235 131.965C93.2235 138.093 88.6715 142.382 81.4933 142.382H75.4531V151.661H68.0999V121.373ZM81.4933 135.904C84.0319 135.904 85.6076 134.241 85.6076 131.965C85.6076 129.689 84.0319 127.938 81.4933 127.938H75.4531V135.992H81.4933V135.904ZM112.044 120.935C121.061 120.935 128.064 127.676 128.064 136.517C128.064 145.358 121.061 152.099 112.044 152.099C103.028 152.099 96.0247 145.271 96.0247 136.517C96.0247 127.763 103.028 120.935 112.044 120.935ZM112.044 145.358C116.771 145.358 120.448 141.507 120.448 136.517C120.448 131.527 116.771 127.676 112.044 127.676C107.317 127.676 103.641 131.527 103.641 136.517C103.641 141.507 107.317 145.358 112.044 145.358ZM142.77 141.769H139.794V151.749H132.441V121.46H145.922C152.837 121.46 157.214 125.75 157.214 131.615C157.214 135.817 154.851 139.231 150.999 140.894L158.09 151.749H149.336L142.77 141.769ZM145.834 135.029C148.023 135.029 149.511 133.541 149.511 131.527C149.511 129.514 148.11 127.938 145.834 127.938H139.794V135.116H145.834V135.029ZM158.877 121.373H184.001V127.851H175.16V151.661H167.806V127.851H158.965L158.877 121.373Z" fill="white"/>
<path d="M200.458 131.352C203.084 131.352 205.36 132.315 207.199 134.153C209.037 135.992 210 138.443 210 141.419C210 144.395 208.862 147.109 206.673 149.123C204.485 151.136 201.684 152.186 198.357 152.186C195.031 152.186 192.492 151.399 190.479 149.823C188.465 148.247 187.327 145.971 186.977 142.995L194.681 142.119C194.768 143.17 195.206 144.045 195.819 144.571C196.519 145.183 197.307 145.446 198.357 145.446C199.495 145.446 200.371 145.096 201.159 144.308C201.946 143.52 202.297 142.557 202.297 141.419C202.297 140.281 201.946 139.318 201.246 138.53C200.546 137.743 199.67 137.392 198.62 137.392C196.782 137.392 195.556 138.18 194.856 139.668L187.94 138.881L190.129 121.46H207.724V127.938H195.994L195.381 132.578C196.782 131.702 198.532 131.265 200.458 131.352Z" fill="#D33239"/>
</svg>
