<svg width="250" height="250" viewBox="0 0 250 250" fill="none" xmlns="http://www.w3.org/2000/svg">
<rect width="250" height="250" fill="url(#paint0_linear_210_136)"/>
<path d="M40 94.8257H49.2698V99.6702C51.8318 96.2465 55.9077 94.127 60.7987 94.127C69.626 94.127 75.7049 100.555 75.7049 109.289V131.532H66.4351V110.943C66.4351 106.005 62.8483 102.535 57.8874 102.535C52.9264 102.535 49.2698 106.029 49.2698 110.943V131.532H40V94.8257ZM146.23 131.532H156.641L171.244 94.8257H161.904L151.726 121.82L141.618 94.8257H131.65L146.253 131.532H146.23ZM190.669 123.753C184.986 123.753 180.7 119.211 180.7 113.132C180.7 107.053 184.986 102.605 190.669 102.605C196.352 102.605 200.707 107.147 200.707 113.132C200.707 119.118 196.375 123.753 190.669 123.753ZM200.73 131.532H210V94.8257H200.73V99.4606C197.796 96.1067 193.743 94.127 188.829 94.127C178.79 94.127 171.081 102.395 171.081 113.132C171.081 123.869 178.767 132.231 188.829 132.231C198.89 132.231 197.796 130.228 200.73 126.944V131.486V131.532Z" fill="white"/>
<mask id="mask0_210_136" style="mask-type:luminance" maskUnits="userSpaceOnUse" x="79" y="87" width="54" height="53">
<path d="M132.231 87H79.7569V139.404H132.231V87Z" fill="white"/>
</mask>
<g mask="url(#mask0_210_136)">
<path d="M105.889 139.452C99.2042 139.452 92.5197 136.913 87.4423 131.812C77.2642 121.634 77.2642 105.028 87.4423 94.8495C100.602 82.6917 115.764 86.3717 124.358 94.9194C132.906 103.467 136.609 118.653 124.521 131.719C119.374 136.866 112.62 139.428 105.912 139.428H105.889V139.452ZM91.7046 127.55C99.5536 135.399 112.317 135.399 120.143 127.55C129.482 117.418 126.85 105.983 120.073 99.1584C113.249 92.3574 101.836 89.7023 91.6347 99.1584C83.8788 106.914 83.8788 119.701 91.7046 127.55Z" fill="url(#paint1_linear_210_136)"/>
<path d="M100.579 137.262C95.5944 137.262 90.9362 135.329 87.4193 131.789C83.9256 128.295 81.9459 123.614 81.9459 118.629C81.9459 113.645 83.8791 108.987 87.4193 105.47C94.686 98.2033 106.471 98.2033 113.738 105.47C117.232 108.987 119.188 113.645 119.188 118.629C119.188 123.614 117.255 128.272 113.715 131.789C110.221 135.282 105.54 137.239 100.555 137.239H100.579V137.262ZM100.579 106.076C97.3645 106.076 94.127 107.287 91.7048 109.732C89.2593 112.178 88.0248 115.252 88.0248 118.606C88.0248 121.96 89.3291 125.128 91.7048 127.48C94.0572 129.832 97.2247 131.16 100.579 131.16C103.932 131.16 107.1 129.856 109.452 127.48C111.805 125.104 113.132 121.96 113.132 118.606C113.132 115.252 111.828 112.085 109.452 109.732C106.984 107.263 103.769 106.076 100.579 106.076Z" fill="url(#paint2_linear_210_136)"/>
<path d="M100.579 137.262C95.5944 137.262 90.9362 135.329 87.4193 131.789C83.9256 128.295 81.9459 123.614 81.9459 118.629C81.9459 113.645 83.8791 108.987 87.4193 105.47C94.686 98.2033 106.471 98.2033 113.738 105.47C117.232 108.987 119.188 113.645 119.188 118.629C119.188 123.614 117.255 128.272 113.715 131.789C110.221 135.282 105.54 137.239 100.555 137.239H100.579V137.262ZM100.579 106.076C97.3645 106.076 94.127 107.287 91.7048 109.732C89.2593 112.178 88.0248 115.252 88.0248 118.606C88.0248 121.96 89.3291 125.128 91.7048 127.48C94.0572 129.832 97.2247 131.16 100.579 131.16C103.932 131.16 107.1 129.856 109.452 127.48C111.805 125.104 113.132 121.96 113.132 118.606C113.132 115.252 111.828 112.085 109.452 109.732C106.984 107.263 103.769 106.076 100.579 106.076Z" fill="url(#paint3_linear_210_136)"/>
<path d="M87.4193 131.812C82.4583 126.851 79.7566 120.306 79.7566 113.319C79.7566 106.332 82.4816 99.7405 87.4193 94.8261L91.6815 99.0883C87.8851 102.885 85.7656 107.939 85.7656 113.319C85.7656 118.699 87.8618 123.753 91.6815 127.55L87.4193 131.812Z" fill="#F03B3B"/>
</g>
<path fill-rule="evenodd" clip-rule="evenodd" d="M40 149.769H42.6086V163.184H40V149.769Z" fill="#FEFFFE"/>
<path fill-rule="evenodd" clip-rule="evenodd" d="M40 149.769C40.8618 149.722 41.7701 149.699 42.6552 149.722C42.6552 154.217 42.6552 158.712 42.6086 163.184V149.769H40Z" fill="#FBC7C7"/>
<path fill-rule="evenodd" clip-rule="evenodd" d="M55.5583 149.769H58.2134V163.184C57.3517 163.184 56.4899 163.184 55.6049 163.161C53.3457 160.203 51.133 157.222 48.9437 154.241C48.9204 157.222 48.9204 160.203 48.9204 163.184H46.2652V149.722C47.127 149.722 47.9888 149.722 48.8738 149.745C51.0631 152.727 53.2991 155.708 55.535 158.666C55.5583 155.708 55.5583 152.75 55.5583 149.792V149.769Z" fill="#FFFEFE"/>
<path fill-rule="evenodd" clip-rule="evenodd" d="M55.5583 149.769C56.4433 149.722 57.3517 149.699 58.26 149.722C58.26 154.217 58.26 158.712 58.2134 163.184V149.769H55.5583Z" fill="#F47372"/>
<path fill-rule="evenodd" clip-rule="evenodd" d="M72.7237 149.769H61.8002V152.075C63.1744 152.075 64.5253 152.075 65.9227 152.121H61.7537V149.699C65.4336 149.699 69.0903 149.699 72.747 149.745H72.7237V149.769Z" fill="#F78786"/>
<path fill-rule="evenodd" clip-rule="evenodd" d="M72.7237 149.769V152.121H68.6012V163.161H65.8994V152.121C64.5486 152.075 63.1744 152.051 61.7769 152.075V149.769H72.7237Z" fill="#FFFCFC"/>
<path fill-rule="evenodd" clip-rule="evenodd" d="M84.7183 149.769H75.9143V163.184C75.8677 158.712 75.8445 154.217 75.8677 149.722C78.849 149.722 81.8069 149.722 84.7416 149.769H84.7183Z" fill="#FAC0C0"/>
<path fill-rule="evenodd" clip-rule="evenodd" d="M84.7184 149.769C84.7883 150.537 84.7883 151.283 84.7184 152.075H78.4998C78.4998 153.169 78.4998 154.217 78.5464 155.265H84.5321V157.618H78.4998C78.4998 158.712 78.4998 159.761 78.5464 160.809H84.765V163.161H75.8912V149.745H84.7184V149.769Z" fill="#FFFEFE"/>
<path fill-rule="evenodd" clip-rule="evenodd" d="M111.526 158.619C111.526 158.643 111.526 158.666 111.573 158.666C111.619 155.685 111.643 152.703 111.619 149.722H114.228V163.138C113.366 163.138 112.504 163.138 111.619 163.114C109.43 160.18 107.241 157.268 105.028 154.334C105.028 154.287 104.981 154.264 104.958 154.217C104.935 157.199 104.935 160.18 104.935 163.161H102.28V149.699C103.142 149.699 104.003 149.699 104.888 149.722C107.101 152.68 109.337 155.661 111.526 158.643V158.619Z" fill="#FFFEFE"/>
<path fill-rule="evenodd" clip-rule="evenodd" d="M114.228 149.769H111.619C111.619 152.75 111.619 155.731 111.573 158.712C111.55 158.712 111.526 158.689 111.526 158.666C111.573 155.685 111.596 152.703 111.573 149.722C112.458 149.722 113.366 149.722 114.228 149.769Z" fill="#FBC5C5"/>
<path fill-rule="evenodd" clip-rule="evenodd" d="M138.101 152.121C139.452 152.075 140.826 152.051 142.224 152.075V149.769H131.3V152.075C132.674 152.075 134.025 152.075 135.423 152.121H131.254V149.699H142.293V152.121H138.101Z" fill="#F78886"/>
<path fill-rule="evenodd" clip-rule="evenodd" d="M138.101 152.121V163.161H135.399V152.121C134.049 152.075 132.674 152.051 131.277 152.075V149.769H142.2V152.075C140.826 152.075 139.475 152.075 138.078 152.121H138.101Z" fill="#FFFCFC"/>
<path fill-rule="evenodd" clip-rule="evenodd" d="M145.321 149.769H147.976V163.184H145.321V149.769Z" fill="#FEFDFD"/>
<path fill-rule="evenodd" clip-rule="evenodd" d="M145.321 149.769C146.206 149.722 147.115 149.699 148.023 149.722C148.023 154.217 148.023 158.712 147.976 163.184V149.769H145.321Z" fill="#F79C9C"/>
<path fill-rule="evenodd" clip-rule="evenodd" d="M171.221 149.769H168.612V163.184C168.565 158.712 168.542 154.217 168.565 149.722C169.45 149.722 170.359 149.722 171.221 149.769Z" fill="#F47372"/>
<path fill-rule="evenodd" clip-rule="evenodd" d="M171.221 149.769C173.41 152.727 175.646 155.685 177.859 158.573C177.905 155.685 177.928 152.75 177.905 149.769H180.56V163.184C179.699 163.184 178.837 163.184 177.952 163.161C175.739 160.203 173.503 157.292 171.314 154.31C171.314 154.287 171.314 154.264 171.267 154.264C171.221 157.245 171.197 160.226 171.221 163.208H168.612V149.792H171.221V149.769Z" fill="#FFFEFE"/>
<path fill-rule="evenodd" clip-rule="evenodd" d="M180.584 149.769H177.928C177.928 152.75 177.928 155.708 177.882 158.573V149.699C178.814 149.699 179.699 149.699 180.584 149.745V149.769Z" fill="#F57574"/>
<path fill-rule="evenodd" clip-rule="evenodd" d="M201.103 149.769H203.711C203.711 153.449 203.711 157.129 203.758 160.809H209.977V163.161H201.033C201.033 158.689 201.033 154.217 201.08 149.745L201.103 149.769Z" fill="#FFFDFD"/>
<path fill-rule="evenodd" clip-rule="evenodd" d="M201.103 149.769C201.965 149.722 202.873 149.699 203.758 149.722V160.832C203.711 157.152 203.688 153.472 203.711 149.792H201.103V149.769Z" fill="#FBC6C6"/>
<path fill-rule="evenodd" clip-rule="evenodd" d="M164.513 153.006C162.976 150.561 160.716 149.396 157.805 149.513C155.802 149.699 154.148 150.537 152.821 152.051C151.004 154.543 150.794 157.199 152.215 159.97C153.613 162.183 155.639 163.301 158.271 163.347C161.368 163.324 163.581 161.903 164.885 159.132C165.677 157.036 165.538 155.009 164.536 153.029H164.513V153.006ZM161.159 159.877C159.226 161.274 157.316 161.274 155.406 159.83C154.078 158.433 153.706 156.779 154.241 154.893C154.847 153.356 155.942 152.401 157.525 152.005C160.181 151.818 161.858 153.006 162.556 155.545C162.789 157.222 162.347 158.666 161.159 159.854V159.877Z" fill="#FFFDFD"/>
<path fill-rule="evenodd" clip-rule="evenodd" d="M84.7183 152.075C82.692 152.121 80.6191 152.144 78.5695 152.121V155.265C78.5229 154.217 78.4996 153.146 78.5229 152.075H84.7416H84.7183Z" fill="#F6807F"/>
<path fill-rule="evenodd" clip-rule="evenodd" d="M95.8515 158.06C97.5517 157.501 98.5532 156.337 98.8327 154.543C98.8793 151.609 97.4586 150.025 94.5239 149.745C92.5209 149.722 90.5412 149.722 88.5381 149.722V163.184H91.1933V158.293C91.729 158.293 92.288 158.293 92.8237 158.316C93.9183 159.924 94.9897 161.531 96.0844 163.138C97.1325 163.184 98.1806 163.161 99.2287 163.114C98.1107 161.437 96.9694 159.761 95.8515 158.084H95.8748L95.8515 158.06ZM94.5239 155.824C93.4059 155.848 92.3113 155.848 91.1933 155.848V152.121C92.3346 152.121 93.4991 152.121 94.6404 152.144C95.572 152.354 96.0844 152.96 96.1543 153.915C96.1077 154.963 95.5487 155.615 94.5239 155.848V155.824Z" fill="#FFFDFD"/>
<path fill-rule="evenodd" clip-rule="evenodd" d="M125.757 149.769C124.755 149.722 123.777 149.699 122.776 149.722C120.982 154.194 119.166 158.666 117.326 163.138C118.211 163.207 119.142 163.207 120.027 163.138C120.423 162.183 120.796 161.204 121.122 160.249C123.125 160.249 125.151 160.249 127.154 160.296C127.55 161.251 127.946 162.183 128.296 163.138C129.274 163.207 130.229 163.207 131.184 163.161C129.367 158.689 127.55 154.24 125.71 149.792H125.734L125.757 149.769ZM122.147 157.781C122.799 156.104 123.474 154.427 124.173 152.773C124.849 154.427 125.501 156.08 126.13 157.734C124.802 157.781 123.474 157.804 122.147 157.781Z" fill="#FFFDFD"/>
<path fill-rule="evenodd" clip-rule="evenodd" d="M192.415 149.745C191.437 149.722 190.436 149.722 189.457 149.722C187.664 154.194 185.871 158.666 184.007 163.138C184.892 163.208 185.824 163.208 186.709 163.138C187.082 162.183 187.478 161.205 187.85 160.273C189.853 160.25 191.833 160.25 193.836 160.273C194.232 161.251 194.628 162.229 194.977 163.208C195.956 163.208 196.911 163.208 197.865 163.184C196.049 158.712 194.209 154.241 192.369 149.769H192.392L192.415 149.745ZM188.852 157.781C189.527 156.104 190.203 154.45 190.878 152.773C191.554 154.427 192.206 156.081 192.835 157.734C191.507 157.781 190.179 157.804 188.852 157.781Z" fill="#FFFDFD"/>
<path fill-rule="evenodd" clip-rule="evenodd" d="M171.36 154.287C171.337 157.245 171.291 160.203 171.244 163.161C171.244 160.18 171.244 157.199 171.291 154.217C171.314 154.217 171.337 154.241 171.337 154.264L171.36 154.287Z" fill="#FBCECE"/>
<path fill-rule="evenodd" clip-rule="evenodd" d="M105.075 154.334C105.051 157.268 105.005 160.203 104.958 163.138C104.958 160.156 104.958 157.175 104.982 154.194C105.028 154.217 105.051 154.264 105.051 154.31L105.075 154.334Z" fill="#F46C6C"/>
<path fill-rule="evenodd" clip-rule="evenodd" d="M84.5552 155.265C84.6018 156.057 84.6251 156.872 84.6018 157.688H78.5695V160.832C78.5229 159.784 78.4996 158.712 78.5229 157.641H84.5552V155.289V155.265Z" fill="#F57473"/>
<path fill-rule="evenodd" clip-rule="evenodd" d="M126.13 157.734C126.153 157.734 126.176 157.734 126.176 157.781C124.825 157.851 123.474 157.851 122.147 157.781C123.474 157.781 124.802 157.781 126.13 157.734Z" fill="#F46C6C"/>
<path fill-rule="evenodd" clip-rule="evenodd" d="M192.835 157.734C192.858 157.734 192.881 157.734 192.881 157.781C191.53 157.851 190.179 157.851 188.852 157.781C190.179 157.781 191.507 157.781 192.835 157.734Z" fill="#F46C6C"/>
<defs>
<linearGradient id="paint0_linear_210_136" x1="125" y1="244.946" x2="125" y2="4.90722" gradientUnits="userSpaceOnUse">
<stop stop-color="#132079"/>
<stop offset="0.4" stop-color="#1339CA"/>
<stop offset="0.5" stop-color="#102FAA"/>
<stop offset="0.8" stop-color="#0B165A"/>
</linearGradient>
<linearGradient id="paint1_linear_210_136" x1="107.03" y1="110.897" x2="95.2914" y2="137.099" gradientUnits="userSpaceOnUse">
<stop stop-color="#F03C3C"/>
<stop offset="1" stop-color="#F03C3C" stop-opacity="0"/>
</linearGradient>
<linearGradient id="paint2_linear_210_136" x1="113.715" y1="110.734" x2="91.1225" y2="124.266" gradientUnits="userSpaceOnUse">
<stop stop-color="#F03B3B"/>
<stop offset="1" stop-color="#F03B3B" stop-opacity="0"/>
</linearGradient>
<linearGradient id="paint3_linear_210_136" x1="99.6936" y1="117.721" x2="100.579" y2="118.606" gradientUnits="userSpaceOnUse">
<stop stop-color="#F03B3B" stop-opacity="0"/>
<stop offset="1" stop-color="#F03B3B"/>
</linearGradient>
</defs>
</svg>
