<svg width="250" height="250" viewBox="0 0 250 250" fill="none" xmlns="http://www.w3.org/2000/svg">
<rect width="250" height="250" fill="url(#paint0_linear_210_221)"/>
<path d="M40 82.5149H46.499V85.9391C48.3859 83.4 51.4374 81.9325 54.6054 82.0024C60.8016 82.0024 65.0644 86.4981 65.0644 92.6478V108.255H58.5654V93.7892C58.6818 90.6212 56.1894 87.989 53.0214 87.8725H52.5555C49.3875 87.7327 46.7087 90.2019 46.5689 93.3699V108.208H40.0233V82.4683L40 82.5149Z" fill="white"/>
<path d="M82.4884 82.0261C90.2919 82.0261 96.2552 87.8263 96.2552 95.3736C96.2552 102.921 90.2686 108.744 82.4884 108.744C74.7082 108.744 68.7915 102.944 68.7915 95.3736C68.7915 87.803 74.6616 82.0261 82.4884 82.0261ZM82.4884 102.804C86.4717 102.804 89.5232 99.6131 89.5232 95.3503C89.5232 91.0875 86.4717 88.0127 82.4884 88.0127C78.5051 88.0127 75.5235 91.1574 75.5235 95.3736C75.5235 99.5898 78.5284 102.828 82.5117 102.828" fill="white"/>
<path d="M95.9989 82.5153H103.01L110.092 101.453L117.243 82.5153H123.789L113.539 108.278H106.248L95.9989 82.5153Z" fill="white"/>
<path d="M144.474 105.04C142.354 107.416 139.303 108.767 136.135 108.744C129.1 108.744 123.672 102.943 123.672 95.3729C123.672 87.8023 129.053 82.0254 136.135 82.0254C139.326 81.9788 142.401 83.3531 144.474 85.7524V82.4913H150.973V108.208H144.474V105.04ZM137.439 102.804C141.422 102.804 144.474 99.6124 144.474 95.3496C144.614 91.4129 141.539 88.1517 137.625 88.0119H137.416C133.409 88.0119 130.428 91.2032 130.428 95.3962C130.428 99.5891 133.432 102.85 137.416 102.85" fill="white"/>
<path d="M115.636 129.989V119.53H84.0491V168.098H95.137V148.135H109.812V138.351H95.137V129.989H115.636Z" fill="#6133F2"/>
<path d="M150.927 119.506V147.552C150.927 151.279 150.158 154.005 148.714 155.728C147.246 157.452 145.103 158.291 142.261 158.291C139.419 158.291 137.276 157.429 135.809 155.728C134.341 154.028 133.596 151.279 133.596 147.552V119.506H122.112V147.622C122.065 150.72 122.554 153.795 123.579 156.73C124.441 159.199 125.792 161.482 127.609 163.392C129.38 165.232 131.546 166.677 133.922 167.562C139.303 169.402 145.196 169.402 150.577 167.562C152.953 166.677 155.119 165.232 156.89 163.392C158.683 161.459 160.058 159.223 160.92 156.73C161.945 153.795 162.434 150.744 162.387 147.622V119.506H150.927Z" fill="#6133F2"/>
<path d="M210 119.506L209.86 162.74L209.837 168.237H198.959L198.353 167.352L197.771 166.397L180.906 138.91V168.121H169.585V119.599H180.16L180.906 120.811L198.353 149.299V119.506H210Z" fill="#6133F2"/>
<defs>
<linearGradient id="paint0_linear_210_221" x1="52.0557" y1="199.419" x2="52.0557" y2="-45.9937" gradientUnits="userSpaceOnUse">
<stop stop-color="#00F4C5"/>
<stop offset="1" stop-color="#00DE62"/>
</linearGradient>
</defs>
</svg>
