<svg width="250" height="250" viewBox="0 0 250 250" fill="none" xmlns="http://www.w3.org/2000/svg">
<rect width="250" height="250" fill="white"/>
<path d="M124.988 205.18C169.27 205.18 205.167 169.282 205.167 125C205.167 80.7183 169.27 44.8208 124.988 44.8208C80.7059 44.8208 44.8083 80.7183 44.8083 125C44.8083 169.282 80.7059 205.18 124.988 205.18Z" fill="#00734C"/>
<mask id="mask0_365_3984" style="mask-type:luminance" maskUnits="userSpaceOnUse" x="44" y="44" width="162" height="162">
<path d="M124.987 205.18C169.269 205.18 205.166 169.282 205.166 125C205.166 80.7183 169.269 44.8208 124.987 44.8208C80.7049 44.8208 44.8074 80.7183 44.8074 125C44.8074 169.282 80.7049 205.18 124.987 205.18Z" fill="white"/>
</mask>
<g mask="url(#mask0_365_3984)">
<path d="M124.987 27.3801L141.716 62.5328L173.814 40.4436L170.727 79.2609L209.544 76.1732L187.455 108.272L222.608 125L187.455 141.728L209.544 173.827L170.727 170.739L173.814 209.557L141.716 187.468L124.987 222.62L108.259 187.468L76.1605 209.557L79.2482 170.739L40.4309 173.827L62.5202 141.728L27.3674 125L62.5202 108.272L40.4309 76.1732L79.2482 79.2609L76.1605 40.4436L108.259 62.5328L124.987 27.3801Z" fill="#004A31"/>
<path d="M170.727 79.2608L162.108 103.556L187.455 108.272L167.843 125L187.455 141.728L162.108 146.445L170.727 170.739L146.432 162.121L141.716 187.467L124.988 167.855L108.26 187.467L103.543 162.121L79.2483 170.739L87.8669 146.445L62.5203 141.728L82.1325 125L62.5203 108.272L87.8669 103.556L79.2483 79.2608L103.543 87.8793L108.26 62.5327L124.988 82.1449L141.716 62.5327L146.432 87.8793L170.727 79.2608Z" fill="#00734C"/>
<path d="M154.678 154.69L138.9 149.091L135.846 165.582L124.988 152.824L114.13 165.582L111.076 149.091L95.2979 154.69L100.897 138.912L84.406 135.858L97.1641 125L84.406 114.142L100.897 111.088L95.2979 95.3104L111.076 100.909L114.13 84.4185L124.988 97.1766L135.846 84.4185L138.9 100.909L154.678 95.3104L149.079 111.088L165.569 114.142L152.811 125L165.569 135.858L149.079 138.912L154.678 154.69Z" fill="#004A31"/>
<path d="M124.989 152.824L120.205 142.814L111.077 149.091L111.959 138.03L100.898 138.912L107.175 129.784L97.1653 125L107.175 120.216L100.898 111.088L111.959 111.971L111.077 100.909L120.205 107.186L124.989 97.1765L129.773 107.186L138.901 100.909L138.018 111.971L149.08 111.088L142.803 120.216L152.812 125L142.803 129.784L149.08 138.912L138.018 138.03L138.901 149.091L129.773 142.814L124.989 152.824Z" fill="#00734C"/>
<path d="M124.989 143.459C135.183 143.459 143.447 135.195 143.447 125C143.447 114.806 135.183 106.542 124.989 106.542C114.794 106.542 106.53 114.806 106.53 125C106.53 135.195 114.794 143.459 124.989 143.459Z" fill="#00734C"/>
</g>
<path d="M158.478 166.023H138.153V135.078H111.822V166.023H91.4976V83.9773H111.822V114.685H138.153V83.9773H158.478V166.023Z" fill="white"/>
<g opacity="0.3">
<path d="M158.104 84.3845V165.65H138.526V135.078V134.704H138.153H111.822H111.449V135.078V165.65H91.8706V84.3845H111.449V114.685V115.058H111.822H138.153H138.526V114.685V84.3845H158.104ZM158.477 83.9773H138.153V114.651H111.822V83.9773H91.4973V165.989H111.822V135.044H138.153V165.989H158.477V83.9773Z" fill="url(#paint0_linear_365_3984)"/>
</g>
<path d="M209.816 125C209.816 171.859 171.847 209.828 124.988 209.828C78.1292 209.828 40.1602 171.859 40.1602 125C40.1602 78.1411 78.1292 40.1721 124.988 40.1721C171.847 40.1721 209.816 78.1411 209.816 125ZM124.988 44.8207C80.7079 44.8207 44.8087 80.7199 44.8087 125C44.8087 169.28 80.7079 205.18 124.988 205.18C169.268 205.18 205.168 169.28 205.168 125C205.168 80.7199 169.268 44.8207 124.988 44.8207Z" fill="#DCB385"/>
<path opacity="0.25" d="M205.167 125C205.167 169.28 169.268 205.18 124.988 205.18C80.7076 205.18 44.8083 169.28 44.8083 125C44.8083 80.72 80.7076 44.8208 124.988 44.8208C169.268 44.8208 205.167 80.72 205.167 125ZM124.988 52.4892C84.949 52.4892 52.4768 84.9614 52.4768 125C52.4768 165.039 84.949 197.477 124.988 197.477C165.027 197.477 197.465 165.039 197.465 125C197.465 84.9614 165.027 52.4892 124.988 52.4892Z" fill="black"/>
<path d="M64.897 64.908C88.4113 40.8169 126.55 33.2502 157.529 46.4155C213.38 69.4887 227.936 142.441 185.149 185.16C142.43 227.913 69.5116 213.391 46.4045 157.54C33.2392 126.561 40.8398 88.4563 64.897 64.908ZM65.1006 65.1116C22.7544 107.492 37.6502 179.562 93.1617 201.786C123.53 214.137 160.278 206.706 183.215 183.226C206.662 160.255 214.092 123.541 201.742 93.1727C179.551 37.6613 107.481 22.7655 65.1006 65.1116Z" fill="#BB8F5F"/>
<path d="M181.79 181.801C163.263 200.667 135.202 209.251 109.245 204.263C44.9114 191.913 20.5488 113.226 66.6613 66.6725C113.079 20.56 192.037 45.0244 204.218 109.222C209.206 135.213 200.656 163.241 181.79 181.801ZM181.586 181.597C204.252 159.406 211.344 123.507 198.891 94.3603C177.175 41.9027 108.6 28.2284 68.4596 68.4708C28.2172 108.611 41.8576 177.152 94.3491 198.902C123.53 211.355 159.429 204.263 181.586 181.597Z" fill="#F4DD9D"/>
<defs>
<linearGradient id="paint0_linear_365_3984" x1="87.7394" y1="87.7352" x2="162.235" y2="162.231" gradientUnits="userSpaceOnUse">
<stop stop-color="white"/>
<stop offset="0.4" stop-color="white" stop-opacity="0"/>
</linearGradient>
</defs>
</svg>
