<svg width="250" height="250" viewBox="0 0 250 250" fill="none" xmlns="http://www.w3.org/2000/svg">
<rect width="250" height="250" fill="#2B2A6B"/>
<path d="M175.132 105.61C170.034 118.658 169.25 120.762 168.109 123.685C166.255 124.648 164.508 125.825 162.939 127.215L156.7 111.635H149.962V127.429H149.855C147.787 127.429 145.755 127.964 143.937 128.926V111.635H137.127C137.733 109.674 138.054 107.642 138.054 105.61H160.765L164.793 115.664L168.679 105.61H175.132Z" fill="#D43A95"/>
<path d="M78.9415 124.149C75.6258 124.791 72.2745 125.147 68.8875 125.254C68.7449 130.459 64.431 134.524 59.2257 134.381C54.0204 134.238 49.9561 129.925 50.0987 124.719C50.2413 119.514 54.5552 115.45 59.7605 115.592C62.4344 115.664 64.9657 116.876 66.7127 118.944C70.4562 119.264 74.2354 119.158 77.9432 118.694C74.4849 108.497 63.397 103.078 53.2004 106.537C43.0038 109.995 37.5847 121.083 41.043 131.279C44.5012 141.476 55.5892 146.895 65.7858 143.437C73.6649 140.727 78.9772 133.312 78.9772 125.005C78.9772 124.719 78.9772 124.434 78.9772 124.185L78.9415 124.149Z" fill="white"/>
<path d="M83.6123 123.079C87.3202 122.081 90.9211 120.691 94.3793 118.979V144.471H83.6123V123.079Z" fill="white"/>
<path d="M209.929 144.471H124.648L112.99 129.354C112.384 129.604 111.742 129.746 111.1 129.782V144.506H100.333V115.485C105.324 112.348 109.139 107.82 110.244 105.538H111.136V119.478C111.136 119.478 123.364 114.951 123.364 105.538H134.167C134.167 117.125 122.081 124.684 122.081 124.684L127.286 131.707C131.672 137.376 137.162 140.05 150.532 140.05C142.581 139.337 137.911 136.449 137.911 136.449C142.011 135.308 145.469 131.315 149.926 131.315C156.913 131.315 157.591 140.086 185.435 140.05C166.825 137.732 162.475 133.454 162.475 133.454C162.475 133.454 168.394 124.933 179.018 124.933C191.389 124.933 196.381 136.449 210 144.506L209.929 144.471Z" fill="white"/>
<path d="M94.3432 106.144V115.093C90.8493 116.484 87.2484 117.553 83.5762 118.373V106.144H94.3432Z" fill="#D43A95"/>
</svg>
