<?xml version="1.0" encoding="UTF-8"?>
<svg id="Vrstva_1" xmlns="http://www.w3.org/2000/svg" xmlns:xlink="http://www.w3.org/1999/xlink" version="1.1" viewBox="0 0 500 500">
  <!-- Generator: Adobe Illustrator 29.3.1, SVG Export Plug-In . SVG Version: 2.1.0 Build 151)  -->
  <defs>
    <style>
      .st0 {
        fill: url(#Yellow_Gradient2);
      }

      .st1 {
        fill: url(#Yellow_Gradient4);
      }

      .st2 {
        fill: url(#Yellow_Gradient1);
      }

      .st3 {
        fill: url(#Yellow_Gradient3);
      }

      .st4 {
        fill: url(#Yellow_Gradient);
      }

      .st5 {
        fill: #fff;
      }

      .st6 {
        fill: #1a1a1a;
      }
    </style>
    <linearGradient id="Yellow_Gradient" data-name="Yellow Gradient" x1="85.9" y1="295.8" x2="208" y2="295.8" gradientUnits="userSpaceOnUse">
      <stop offset="0" stop-color="#fffcab"/>
      <stop offset=".5" stop-color="#ffe700"/>
      <stop offset="1" stop-color="#e69b00"/>
    </linearGradient>
    <linearGradient id="Yellow_Gradient1" data-name="Yellow Gradient" x1="382" y1="216.8" x2="388.2" y2="216.8" xlink:href="#Yellow_Gradient"/>
    <linearGradient id="Yellow_Gradient2" data-name="Yellow Gradient" x1="365" y1="217" x2="414.1" y2="217" xlink:href="#Yellow_Gradient"/>
    <linearGradient id="Yellow_Gradient3" data-name="Yellow Gradient" x1="365" y1="217" x2="414.1" y2="217" xlink:href="#Yellow_Gradient"/>
    <linearGradient id="Yellow_Gradient4" data-name="Yellow Gradient" x1="365" y1="217" x2="414.1" y2="217" xlink:href="#Yellow_Gradient"/>
  </defs>
  <rect class="st6" width="500" height="500"/>
  <g>
    <g>
      <path class="st5" d="M316.8,217.2c-2.5,0-4.1,2-4.1,4.3h0c0,2.4,1.7,4.4,4.2,4.4s4.1-2,4.1-4.3h0c0-2.4-1.7-4.4-4.1-4.4Z"/>
      <path class="st5" d="M373.7,199.5c-34.4,1.6-68.9,5.1-102.4,10.2-.2,0-.4.2-.4.4v24.9c0,.2.2.4.4.4h87.4c.4,0,.7-.2.8-.5l14.5-34.8c.1-.3-.1-.6-.4-.6ZM290.9,224.6c0,3.3-2.6,5.3-6.5,5.3s-5.6-.9-7.6-2.7l2.5-3c1.6,1.3,3.4,1.9,5.2,1.9s1.9-.4,1.9-1.1h0c0-.7-.5-1.1-2.7-1.6-3.4-.8-6.1-1.8-6.1-5.1h0c0-3,2.4-5.2,6.3-5.2s4.9.7,6.6,2.1l-2.2,3.2c-1.5-1.1-3.1-1.6-4.5-1.6s-1.6.4-1.6,1h0c0,.8.6,1.1,2.8,1.6,3.7.8,6,2,6,5h0ZM306.8,219.2c0,3.8-2.9,5.8-6.9,5.8h-2.2v4.6h-4.5v-16.1h6.9c4.1,0,6.7,2.1,6.7,5.7h0ZM325.5,221.5c0,4.6-3.7,8.4-8.7,8.4s-8.7-3.7-8.7-8.4h0c0-4.7,3.7-8.4,8.7-8.4s8.7,3.7,8.7,8.4h0ZM337.5,229.6l-3.3-4.9h-2v4.9h-4.5v-16.1h7.6c2.5,0,4.2.6,5.3,1.7.9.9,1.4,2.2,1.4,3.8h0c0,2.5-1.3,4.2-3.3,5l3.9,5.6h-5.1ZM357.6,217.4h-4.8v12.2h-4.5v-12.2h-4.8v-3.9h14.1v3.9Z"/>
      <path class="st5" d="M335.2,217.3h-3v3.9h3c1.5,0,2.4-.7,2.4-1.9h0c0-1.3-.9-2-2.4-2Z"/>
      <path class="st5" d="M299.8,217.2h-2.1v4.3h2.1c1.6,0,2.6-.9,2.6-2.1h0c0-1.4-1-2.1-2.6-2.1Z"/>
    </g>
    <path class="st4" d="M207.5,290.1c-41.1.5-81.5,4-121.2,10.1-.3,0-.4.3-.5.5h0c0,.5.3.7.6.7,39.1-2.2,81.5-3.4,121.1-3.7.3,0,.5-.2.5-.5v-6.6c0-.3-.2-.5-.5-.5Z"/>
    <g>
      <path class="st5" d="M233.1,242.3c-4.8,0-9.2,1.9-12.5,5v-3.3c0-.3-.2-.5-.5-.5h-6.6c-.3,0-.5.2-.5.5v52.5c0,.5.6.7.9.4l6.5-6.5c.2-.2.3-.5.3-.7v-13.8c3.3,3.1,7.7,5,12.5,5,10.3,0,18.7-8.6,18.7-19.3s-8.4-19.3-18.7-19.3ZM232.5,273.9c-6.6,0-11.9-5.5-11.9-12.3s5.3-12.3,11.9-12.3,11.9,5.5,11.9,12.3-5.3,12.3-11.9,12.3Z"/>
      <path class="st5" d="M307.6,243.5h-6.6c-.3,0-.5.2-.5.5v3.3c-3.3-3.1-7.7-5-12.5-5-10.3,0-18.7,8.6-18.7,19.3s8.4,19.3,18.7,19.3,9.2-1.9,12.5-5v3.3c0,.3.2.5.5.5h6.6c.3,0,.5-.2.5-.5v-35.2c0-.3-.2-.5-.5-.5ZM288.5,273.9c-6.6,0-11.9-5.5-11.9-12.3s5.3-12.3,11.9-12.3,11.9,5.5,11.9,12.3-5.3,12.3-11.9,12.3Z"/>
      <path class="st5" d="M350.5,243.5h-6.7c-.4,0-.8.3-1,.7l-10.8,26.3-11-26.3c-.2-.4-.6-.7-1-.7h-6.8c-.4,0-.6.4-.5.7l15.3,35.2c0,0,.1.2.2.2l-7.4,17.5c-.1.3.1.7.5.7h6.7c.4,0,.8-.3,1-.7l22.1-52.9c.1-.3-.1-.7-.5-.7Z"/>
      <path class="st5" d="M147.9,242.3c-4.1,0-8,2-11.1,5.2v-3.5c0-.3-.2-.5-.5-.5h-6.6c-.3,0-.5.2-.5.5v35.2c0,.3.2.5.5.5h6.6c.3,0,.5-.2.5-.5v-25.3c1.8-2.8,4.9-4.6,9.2-4.6,7.6,0,10.8,5.5,10.8,12.3v17.6c0,.3.2.5.5.5h6.6c.3,0,.5-.2.5-.5v-18.3c0-12-7.3-18.5-16.7-18.5Z"/>
      <path class="st5" d="M263.5,226.3l-6.5,6.5c-.2.2-.3.5-.3.7v45.6c0,.3.2.5.5.5h6.6c.3,0,.5-.2.5-.5v-52.5c0-.5-.6-.7-.9-.4Z"/>
      <path class="st5" d="M188.3,242.3c-10.2.2-18.6,8.6-18.8,18.8-.3,10.9,8.5,19.7,19.3,19.7s14.5-4.6,17.5-11.3c.2-.4,0-.8-.5-.8h-6.8c-.3,0-.6.1-.8.4-2.2,2.9-5.6,4.7-9.4,4.7-5.6,0-10.2-3.9-11.6-9.2h24.7s5.4,0,5.4,0c.3,0,.5-.2.5-.5.1-.9.2-1.7.2-2.6,0-10.8-8.9-19.5-19.7-19.3ZM188.7,249.2c5.6,0,10.2,3.9,11.6,9.2h-23.1c1.3-5.3,6-9.2,11.6-9.2Z"/>
      <path class="st5" d="M105.1,242.3c-10.6,0-19.3,8.6-19.3,19.3s8.6,19.3,19.3,19.3,19.3-8.6,19.3-19.3-8.6-19.3-19.3-19.3ZM105.1,273.9c-6.6,0-11.9-5.5-11.9-12.3s5.3-12.3,11.9-12.3,11.9,5.5,11.9,12.3-5.3,12.3-11.9,12.3Z"/>
    </g>
    <g>
      <g>
        <polygon class="st2" points="388.2 220.6 388.2 213.1 382 220.6 388.2 220.6"/>
        <path class="st0" d="M413.7,198.6h-8.4c-8.6.1-16.3.3-24.8.7-.3,0-.6.2-.8.5l-14.7,35.1c-.1.3,0,.6.4.6h32.9c.4,0,.7-.2.8-.5l14.9-35.8c.1-.3,0-.6-.4-.6ZM398.3,225.8h-3.3v5h-6.9v-5h-11.8l-1.8-5,13.3-15.9h7.2v15.6h5.2l-1.9,5.3Z"/>
      </g>
      <g>
        <polygon class="st3" points="388.2 220.6 388.2 213.1 382 220.6 388.2 220.6"/>
        <path class="st1" d="M413.7,198.6h-8.4c-8.6.1-16.3.3-24.8.7-.3,0-.6.2-.8.5l-14.7,35.1c-.1.3,0,.6.4.6h32.9c.4,0,.7-.2.8-.5l14.9-35.8c.1-.3,0-.6-.4-.6ZM398.3,225.8h-3.3v5h-6.9v-5h-11.8l-1.8-5,13.3-15.9h7.2v15.6h5.2l-1.9,5.3Z"/>
      </g>
    </g>
  </g>
</svg>