<svg width="500" height="500" viewBox="0 0 500 500" fill="none" xmlns="http://www.w3.org/2000/svg">
<g clip-path="url(#clip0_206_2)">
<path d="M500 0H0V500H500V0Z" fill="#1A1A1A"/>
<path d="M337.899 222.517C337.899 220.092 336.384 218.274 333.959 218.274C331.535 218.274 330.02 220.092 330.02 222.517C330.02 224.941 331.535 226.76 333.959 226.76C336.384 226.76 337.899 224.941 337.899 222.517Z" fill="white"/>
<path d="M389.735 201.606C389.735 201.606 389.735 201 389.432 201C356.095 202.515 322.454 205.849 290.026 211.001C290.026 211.001 289.723 211.001 289.723 211.304V235.55C289.723 235.55 289.723 235.853 290.026 235.853H374.885C375.188 235.853 375.491 235.853 375.794 235.247L389.735 201.303V201.606ZM311.241 230.095V214.335H317.908C321.848 214.335 324.272 216.456 324.272 219.79C324.272 223.427 321.545 225.549 317.605 225.549H315.483V230.095H311.241ZM325.485 222.518C325.485 217.972 329.122 214.335 333.971 214.335C338.82 214.335 342.457 217.972 342.457 222.518C342.457 227.064 338.82 230.701 333.971 230.701C329.122 230.701 325.485 227.064 325.485 222.518ZM359.125 230.095H354.276L351.246 225.245H349.427V230.095H345.184V214.335H352.458C354.882 214.335 356.398 214.941 357.61 216.153C358.519 217.063 359.125 218.275 359.125 219.79C359.125 222.215 357.913 223.73 355.792 224.639L359.428 230.095H359.125ZM360.035 218.275V214.335H373.673V218.275H368.823V230.095H364.581V218.275H360.035ZM301.845 224.336C298.512 223.427 296.087 222.518 296.087 219.487C296.087 216.456 298.512 214.335 302.148 214.335C305.785 214.335 306.998 214.941 308.513 216.456L306.391 219.487C304.876 218.578 303.361 217.972 302.148 217.972C300.936 217.972 300.633 218.275 300.633 218.881C300.633 219.79 301.239 220.093 303.361 220.396C306.998 221.306 309.119 222.215 309.119 225.245C309.119 228.579 306.694 230.398 302.755 230.398C298.815 230.398 297.299 229.488 295.481 227.67L297.906 224.639C299.421 225.852 301.239 226.458 303.058 226.458C304.876 226.458 304.876 226.155 304.876 225.245C304.876 224.639 304.27 224.336 302.148 223.73L301.845 224.336Z" fill="white"/>
<path d="M351.845 218.274H349.117V221.911H352.148C353.663 221.911 354.572 221.305 354.572 220.092C354.572 218.88 353.663 218.274 352.148 218.274H351.845Z" fill="white"/>
<path d="M320.03 220.092C320.03 218.577 319.121 217.971 317.606 217.971H315.484V222.214H317.606C319.121 222.214 320.03 221.304 320.03 220.092Z" fill="white"/>
<path d="M227.894 288.889C188.192 289.496 148.793 292.829 110.303 298.588C110.303 298.588 110 298.588 110 299.194C110 299.497 110 299.8 110.606 299.8C148.49 297.678 189.707 296.466 227.894 296.163C227.894 296.163 228.5 296.163 228.5 295.557V289.193C228.5 289.193 228.5 288.586 227.894 288.586V288.889Z" fill="white"/>
<path d="M252.739 242.52C248.192 242.52 243.95 244.338 240.616 247.369V244.338C240.616 244.338 240.616 243.732 240.01 243.732H233.645C233.645 243.732 233.039 243.732 233.039 244.338V295.253C233.039 295.86 233.645 295.86 233.948 295.556L240.313 289.192C240.313 289.192 240.313 288.889 240.313 288.586V275.251C243.646 278.282 247.889 280.1 252.435 280.1C262.437 280.1 270.62 271.614 270.62 261.31C270.62 251.005 262.437 242.52 252.435 242.52H252.739ZM252.435 273.129C246.071 273.129 240.919 267.674 240.919 261.31C240.919 254.945 246.071 249.49 252.435 249.49C258.8 249.49 263.952 254.945 263.952 261.31C263.952 267.674 258.8 273.129 252.435 273.129Z" fill="white"/>
<path d="M325.176 243.732H318.811C318.811 243.732 318.205 243.732 318.205 244.338V247.369C314.872 244.338 310.629 242.52 306.083 242.52C296.081 242.52 287.898 251.005 287.898 261.31C287.898 271.614 296.081 280.1 306.083 280.1C316.084 280.1 314.872 278.282 318.205 275.251V278.282C318.205 278.282 318.205 278.888 318.811 278.888H325.176C325.176 278.888 325.782 278.888 325.782 278.282V244.035C325.782 244.035 325.782 243.429 325.176 243.429V243.732ZM306.689 273.129C300.324 273.129 295.172 267.674 295.172 261.31C295.172 254.945 300.324 249.49 306.689 249.49C313.053 249.49 318.205 254.945 318.205 261.31C318.205 267.674 313.053 273.129 306.689 273.129Z" fill="white"/>
<path d="M366.691 243.731H360.326C360.023 243.731 359.417 243.731 359.417 244.338L348.81 269.795L338.202 244.338C338.202 244.035 337.596 243.731 337.293 243.731H330.626C330.323 243.731 330.02 244.035 330.02 244.338L344.87 278.584L337.596 295.556C337.596 295.859 337.596 296.162 338.202 296.162H344.567C344.87 296.162 345.476 296.162 345.476 295.556L366.994 244.338C366.994 244.035 366.994 243.731 366.388 243.731H366.691Z" fill="white"/>
<path d="M179.397 278.585H185.762C185.762 278.585 186.368 278.585 186.368 277.978V260.097C186.368 248.581 179.397 242.216 170.305 242.216C161.213 242.216 162.425 244.035 159.698 247.368V244.035C159.698 244.035 159.698 243.429 159.092 243.429H152.727C152.727 243.429 152.121 243.429 152.121 244.035V278.281C152.121 278.281 152.121 278.888 152.727 278.888H159.092C159.092 278.888 159.698 278.888 159.698 278.281V253.733C161.516 251.005 164.547 249.187 168.487 249.187C175.76 249.187 179.094 254.642 179.094 261.007V277.978C179.094 277.978 179.094 278.585 179.7 278.585H179.397Z" fill="white"/>
<path d="M283.356 227.366C283.356 226.76 282.75 226.76 282.446 227.063L276.082 233.428V234.034V278.282C276.082 278.282 276.082 278.888 276.688 278.888H283.053C283.053 278.888 283.659 278.888 283.659 278.282V227.366H283.356Z" fill="white"/>
<path d="M209.411 242.52C199.409 242.52 191.53 250.702 191.227 260.704C191.227 271.311 199.409 279.797 210.017 279.797C220.624 279.797 223.958 275.251 226.989 268.886C226.989 268.583 226.989 268.28 226.382 268.28H219.715C219.412 268.28 219.109 268.28 218.806 268.583C216.684 271.311 213.351 273.129 209.714 273.129C204.259 273.129 199.712 269.19 198.5 264.037H222.443H227.595C227.595 264.037 228.201 264.037 228.201 263.734C228.201 262.825 228.201 261.916 228.201 261.31C228.201 250.702 219.715 242.52 209.108 242.52H209.411ZM198.5 258.279C199.712 253.127 204.259 249.187 209.714 249.187C215.169 249.187 219.715 253.127 220.927 258.279H198.5Z" fill="white"/>
<path d="M129.396 279.797C139.7 279.797 148.186 271.311 148.186 261.007C148.186 250.702 139.7 242.216 129.396 242.216C119.091 242.216 110.605 250.702 110.605 261.007C110.605 271.311 119.091 279.797 129.396 279.797ZM129.396 249.187C135.76 249.187 140.912 254.642 140.912 261.007C140.912 267.371 135.76 272.826 129.396 272.826C123.031 272.826 117.879 267.371 117.879 261.007C117.879 254.642 123.031 249.187 129.396 249.187Z" fill="white"/>
<path d="M153.035 231.913C166.976 231.306 170.613 211.607 156.369 209.789C163.643 213.425 162.43 227.367 153.035 231.913Z" fill="white"/>
<path d="M162.427 210.092C169.7 213.729 169.397 227.67 159.699 232.216C173.64 231.61 176.671 211.911 162.427 210.092Z" fill="white"/>
<path d="M125.153 219.183L121.819 209.182H116.667L110.605 232.518H115.758L119.698 217.365L123.334 227.366L132.123 217.365L128.183 232.518H133.336L139.397 209.182H133.639L125.153 219.183Z" fill="white"/>
<path d="M141.514 209.182L135.453 232.518H143.939C149.091 232.518 153.031 231.003 155.759 228.275C158.183 225.851 159.396 222.517 159.396 219.183C159.396 215.85 158.486 214.031 156.971 212.213C155.153 210.394 152.425 209.182 148.182 209.182H141.514ZM154.243 219.183C154.243 221.305 153.334 223.426 152.122 224.942C150.303 226.76 147.576 227.669 144.545 227.669H141.818L145.454 213.728H147.879C150.303 213.728 152.122 214.334 153.031 215.547C153.94 216.456 154.243 217.668 154.243 219.183Z" fill="white"/>
</g>
<defs>
<clipPath id="clip0_206_2">
<rect width="500" height="500" fill="white"/>
</clipPath>
</defs>
</svg>
