<svg width="250" height="250" viewBox="0 0 250 250" fill="none" xmlns="http://www.w3.org/2000/svg">
<rect width="250" height="250" fill="#22211F"/>
<path d="M40 98.3464H164.51V151.653H40V98.3464Z" fill="#EC1B24"/>
<path d="M81.6064 125.001C81.6064 116.297 74.5524 109.579 65.7492 109.579C56.9434 109.579 49.8894 116.297 49.8894 125.001C49.8894 133.703 56.9434 140.418 65.7492 140.418C74.5524 140.418 81.6064 133.703 81.6064 125.001ZM74.0799 125.001C74.0799 129.682 70.0568 133.418 65.7492 133.418C61.3921 133.418 57.416 129.682 57.416 125.001C57.416 120.317 61.3921 116.581 65.7492 116.581C70.0568 116.581 74.0799 120.317 74.0799 125.001Z" fill="white"/>
<path d="M92.1045 139.851H99.396V131.197H104.839L110.567 139.851H119.655L112.319 129.447C115.773 127.933 118.188 124.67 118.188 120.649C118.188 114.736 113.833 110.148 107.205 110.148H92.1045V139.851ZM106.779 124.197H99.396V117.148H106.779C109.951 117.148 110.899 118.709 110.899 120.649C110.899 122.636 109.951 124.197 106.779 124.197Z" fill="white"/>
<path d="M130.447 139.834H137.732V129.833H151.498V122.839H137.732V117.143H154.621V110.148H130.447V139.834Z" fill="white"/>
<path d="M40 98.3464H164.51V151.653L40 151.653V98.3464Z" fill="#E2001A"/>
<path d="M81.6064 125.001C81.6064 116.297 74.5524 109.579 65.7492 109.579C56.9434 109.579 49.8894 116.297 49.8894 125.001C49.8894 133.703 56.9434 140.418 65.7492 140.418C74.5524 140.418 81.6064 133.703 81.6064 125.001ZM74.0799 125.001C74.0799 129.682 70.0568 133.418 65.7492 133.418C61.3921 133.418 57.416 129.682 57.416 125.001C57.416 120.317 61.3921 116.581 65.7492 116.581C70.0568 116.581 74.0799 120.317 74.0799 125.001Z" fill="white"/>
<path d="M92.1045 139.851H99.396V131.197H104.839L110.567 139.851H119.655L112.319 129.447C115.773 127.933 118.188 124.67 118.188 120.649C118.188 114.736 113.833 110.148 107.205 110.148H92.1045V139.851ZM106.779 124.197H99.396V117.148H106.779C109.951 117.148 110.899 118.709 110.899 120.649C110.899 122.636 109.951 124.197 106.779 124.197Z" fill="white"/>
<path d="M130.447 139.834H137.732V129.833H151.498V122.839H137.732V117.143H154.621V110.148H130.447V139.834Z" fill="white"/>
<path d="M174.441 98.3464H210V151.653H192.274V116.073H174.441V98.3464Z" fill="white"/>
</svg>
