<svg width="250" height="250" viewBox="0 0 250 250" fill="none" xmlns="http://www.w3.org/2000/svg">
<rect width="250" height="250" fill="#22211F"/>
<path d="M159.066 99.533H210V150.467H159.066V99.533Z" fill="white"/>
<path d="M40 99.533H158.968V150.467H40V99.533Z" fill="#EC1B24"/>
<path d="M79.7542 125.001C79.7542 116.684 73.0142 110.266 64.6028 110.266C56.1891 110.266 49.4491 116.684 49.4491 125.001C49.4491 133.316 56.1891 139.732 64.6028 139.732C73.0142 139.732 79.7542 133.316 79.7542 125.001ZM72.5627 125.001C72.5627 129.474 68.7188 133.044 64.6028 133.044C60.4396 133.044 56.6406 129.474 56.6406 125.001C56.6406 120.526 60.4399 116.956 64.6028 116.956C68.7188 116.956 72.5627 120.526 72.5627 125.001Z" fill="white"/>
<path d="M89.7851 139.19H96.7522V130.921H101.953L107.426 139.19H116.109L109.1 129.249C112.4 127.802 114.707 124.684 114.707 120.843C114.707 115.192 110.546 110.809 104.213 110.809H89.7851V139.19ZM103.806 124.233H96.7519V117.498H103.806C106.837 117.498 107.742 118.989 107.742 120.843C107.742 122.741 106.837 124.233 103.806 124.233Z" fill="white"/>
<path d="M126.421 139.174H133.381V129.618H146.535V122.935H133.381V117.493H149.518V110.809H126.421V139.174Z" fill="white"/>
<path d="M195.012 119.183C195.012 114.048 190.804 109.653 184.138 109.653C179.102 109.653 175.201 111.594 172.104 116.639L178.298 119.599C179.646 117.195 181.537 115.991 183.854 115.991C186.171 115.991 187.896 117.519 187.896 119.091C187.896 120.155 187.423 121.174 185.981 122.282L172.766 132.741V139.263H194.917V132.647H183.168L190.071 127.42C193.026 125.2 195.012 122.469 195.012 119.183Z" fill="white"/>
<path d="M158.973 99.533H176.879V150.467H158.973V99.533Z" fill="url(#paint0_linear_357_1826)"/>
<path d="M40 99.533H158.968V150.467H40V99.533Z" fill="#E2001A"/>
<path d="M79.7542 125.001C79.7542 116.684 73.0142 110.266 64.6028 110.266C56.1891 110.266 49.4491 116.684 49.4491 125.001C49.4491 133.316 56.1891 139.732 64.6028 139.732C73.0142 139.732 79.7542 133.316 79.7542 125.001ZM72.5627 125.001C72.5627 129.474 68.7188 133.044 64.6028 133.044C60.4396 133.044 56.6406 129.474 56.6406 125.001C56.6406 120.526 60.4399 116.956 64.6028 116.956C68.7188 116.956 72.5627 120.526 72.5627 125.001Z" fill="white"/>
<path d="M89.7851 139.19H96.7522V130.921H101.953L107.426 139.19H116.109L109.1 129.249C112.4 127.802 114.707 124.684 114.707 120.843C114.707 115.192 110.546 110.809 104.213 110.809H89.7851V139.19ZM103.806 124.233H96.7519V117.498H103.806C106.837 117.498 107.742 118.989 107.742 120.843C107.742 122.741 106.837 124.233 103.806 124.233Z" fill="white"/>
<path d="M126.421 139.174H133.381V129.618H146.535V122.935H133.381V117.493H149.518V110.809H126.421V139.174Z" fill="white"/>
<path d="M195.012 119.183C195.012 114.048 190.804 109.653 184.138 109.653C179.102 109.653 175.201 111.594 172.104 116.639L178.298 119.599C179.646 117.195 181.537 115.991 183.854 115.991C186.171 115.991 187.896 117.519 187.896 119.091C187.896 120.155 187.423 121.174 185.981 122.282L172.766 132.741V139.263H194.917V132.647H183.168L190.071 127.42C193.026 125.2 195.012 122.469 195.012 119.183Z" fill="#E2001A"/>
<defs>
<linearGradient id="paint0_linear_357_1826" x1="175.175" y1="125" x2="131.547" y2="125" gradientUnits="userSpaceOnUse">
<stop stop-color="white"/>
<stop offset="1"/>
</linearGradient>
</defs>
</svg>
