<svg width="284" height="284" viewBox="0 0 284 284" fill="none" xmlns="http://www.w3.org/2000/svg">
<g clip-path="url(#clip0_55_72)">
<path d="M283.5 0H0V283.5H283.5V0Z" fill="black"/>
<mask id="mask0_55_72" style="mask-type:luminance" maskUnits="userSpaceOnUse" x="48" y="117" width="192" height="33">
<path d="M48.2305 117.872H239.251V149.709H48.2305V117.872Z" fill="white"/>
</mask>
<g mask="url(#mask0_55_72)">
<mask id="mask1_55_72" style="mask-type:luminance" maskUnits="userSpaceOnUse" x="48" y="120" width="188" height="28">
<path d="M196.625 128.661C196.625 133.122 200.34 134.304 201.988 134.692L207.118 135.905C211.237 136.9 212.45 137.755 212.45 140.444C212.45 144.113 208.331 144.75 205.89 144.75C202.672 144.75 198.972 143.398 198.972 138.75H195.801C195.801 141.159 196.221 143.289 198.35 145.263C199.47 146.289 201.288 147.719 205.921 147.719C210.211 147.719 215.746 146.04 215.746 139.978C215.746 135.905 213.289 133.9 210.04 133.122L202.89 131.443C201.413 131.086 199.921 130.371 199.921 128.194C199.921 124.308 203.511 123.702 205.657 123.702C208.47 123.702 211.688 124.945 211.859 128.91H215.031C214.891 126.08 214.02 120.733 205.253 120.733C199.19 120.733 196.625 124.666 196.625 128.661ZM149.771 134.226C149.771 139.76 152.632 147.719 161.99 147.719C171.348 147.719 174.209 139.76 174.209 134.226C174.209 128.692 171.348 120.733 161.99 120.733C152.632 120.733 149.771 128.692 149.771 134.226ZM153.254 134.226C153.254 128.194 156.549 123.795 161.99 123.795C167.446 123.795 170.727 128.194 170.727 134.226C170.727 140.258 167.446 144.641 161.99 144.641C156.549 144.641 153.254 140.258 153.254 134.226ZM216.818 121.417V147.035H235.333V143.973H220.207V135.407H233.934V132.329H220.207V124.479H235.084V121.417H216.818ZM191.464 121.417V137.615C191.464 143.18 187.966 144.641 184.873 144.641C181.826 144.641 178.515 143.118 178.515 137.553V121.417H175.126V138.517C175.126 143.289 178.017 147.719 184.764 147.719C191.635 147.719 194.853 143.289 194.853 138.05V121.417H191.464ZM145.512 121.417V132.019H132.407V121.417H129.019V147.035H132.407V135.081H145.512V147.035H148.885V121.417H145.512ZM107.799 121.417V124.479H116.287V147.035H119.676V124.479H128.164V121.417H107.799ZM103.68 121.417V142.123H103.618L91.0726 121.417H87.0619V147.035H90.3419V126.345H90.4041L103.167 147.035H106.975V121.417H103.68ZM67.8946 121.417V147.035H86.1603V143.973H71.2679V135.407H84.9944V132.329H71.2679V124.479H86.1447V121.417H67.8946ZM48.292 121.417V147.035H51.6809V136.231H59.5779C65.0187 136.231 67.0085 132.19 67.0085 128.614C67.0085 124.479 64.2259 121.417 59.5779 121.417H48.292ZM51.6809 124.386H58.5674C61.3656 124.386 63.5264 125.412 63.5264 128.661C63.5264 132.127 61.4588 133.262 58.4275 133.262H51.6809V124.386Z" fill="white"/>
</mask>
<g mask="url(#mask1_55_72)">
<path d="M231.71 94.3991L44.6543 121.261L51.9139 174.053L238.97 147.191L231.71 94.3991Z" fill="url(#paint0_linear_55_72)"/>
</g>
</g>
<mask id="mask2_55_72" style="mask-type:luminance" maskUnits="userSpaceOnUse" x="44" y="145" width="196" height="21">
<path d="M44.25 145.73H239.25V165.628H44.25V145.73Z" fill="white"/>
</mask>
<g mask="url(#mask2_55_72)">
<mask id="mask3_55_72" style="mask-type:luminance" maskUnits="userSpaceOnUse" x="48" y="148" width="188" height="15">
<path d="M48.2137 148.885L48.1826 148.901V162.207H235.301V148.885H48.2137ZM60.1836 153.797L60.168 150.486H61.023V153.797H75.962V154.668H61.023V157.979H60.1836V154.668H57.3543C57.1367 156.533 55.5977 157.979 53.7167 157.979C51.6803 157.979 50.048 156.3 50.048 154.233C50.048 152.165 51.6958 150.486 53.7167 150.486C55.5977 150.486 57.1367 151.932 57.3543 153.797H60.1836ZM209.294 160.031C208.719 159.829 208.237 159.534 207.817 159.114C207.397 158.71 207.086 158.197 206.853 157.591C206.62 156.969 206.511 156.254 206.511 155.414C206.511 154.699 206.62 154.046 206.853 153.455C207.071 152.865 207.382 152.352 207.786 151.917C208.19 151.497 208.656 151.155 209.216 150.922C209.776 150.688 210.397 150.58 211.081 150.58C211.874 150.58 212.558 150.688 213.149 150.922C213.724 151.155 214.222 151.497 214.595 151.917C214.983 152.352 215.263 152.865 215.465 153.471C215.636 154.093 215.729 154.761 215.729 155.507C215.729 156.269 215.636 156.938 215.434 157.528C215.248 158.135 214.937 158.632 214.548 159.052C214.175 159.472 213.678 159.782 213.118 160.016C212.543 160.233 211.905 160.342 211.159 160.342C210.491 160.342 209.869 160.233 209.294 160.031ZM198.91 159.891C198.428 159.674 197.992 159.363 197.635 158.959C197.262 158.554 196.966 158.057 196.749 157.482C196.547 156.907 196.438 156.269 196.438 155.554C196.438 154.823 196.547 154.155 196.764 153.564C196.997 152.974 197.308 152.461 197.666 152.025C198.039 151.59 198.474 151.264 198.941 151.03C199.422 150.782 199.904 150.673 200.417 150.673C200.884 150.673 201.288 150.72 201.583 150.813C201.879 150.906 202.127 151.015 202.314 151.139C202.5 151.264 202.64 151.388 202.734 151.512C202.827 151.637 202.905 151.73 202.951 151.777L203.231 150.828H205.159V154.746H202.842C202.827 154.481 202.78 154.233 202.703 154.015C202.625 153.813 202.516 153.626 202.376 153.487C202.236 153.347 202.081 153.238 201.91 153.16C201.723 153.082 201.552 153.051 201.366 153.051C201.101 153.051 200.853 153.114 200.635 153.253C200.417 153.393 200.231 153.58 200.075 153.797C199.92 154.031 199.796 154.295 199.702 154.606C199.625 154.901 199.578 155.228 199.578 155.554C199.578 155.881 199.609 156.207 199.702 156.502C199.78 156.798 199.889 157.062 200.044 157.264C200.2 157.497 200.371 157.668 200.604 157.793C200.822 157.933 201.07 157.979 201.366 157.979C201.723 157.979 202.019 157.933 202.19 157.793C202.376 157.668 202.516 157.528 202.609 157.342V156.782H201.816V155.368H206.123V156.782H205.61V160.093H203.013L202.609 159.269C202.454 159.518 202.205 159.736 201.816 159.922C201.459 160.124 201.024 160.218 200.511 160.218C199.935 160.218 199.407 160.109 198.91 159.891ZM224.171 150.828H228.135C228.927 150.828 229.627 150.937 230.233 151.17C230.839 151.419 231.352 151.73 231.772 152.134C232.192 152.538 232.518 153.005 232.736 153.564C232.954 154.108 233.078 154.699 233.078 155.336C233.078 156.86 232.643 158.026 231.788 158.865C230.933 159.689 229.689 160.093 228.072 160.093H224.171V158.337H224.979V152.585H224.171V150.828ZM216.258 150.828H220.362V152.585H219.662V158.337H221.341V156.658H223.533V160.093H216.258V158.337H216.973V152.585H216.258V150.828ZM70.4123 159.549H70.972V155.088H75.962V159.549H76.7237V160.202H70.4123V159.549ZM50.8719 154.233C50.8719 155.834 52.1467 157.14 53.7167 157.14C55.2868 157.14 56.5615 155.834 56.5615 154.233C56.5615 152.632 55.2868 151.326 53.7167 151.326C52.1467 151.326 50.8719 152.632 50.8719 154.233ZM227.637 152.585V158.337H228.135C228.492 158.337 228.772 158.259 229.021 158.088C229.269 157.933 229.471 157.73 229.642 157.451C229.782 157.186 229.907 156.875 229.969 156.502C230.047 156.145 230.078 155.756 230.078 155.336C230.078 154.979 230.047 154.637 229.969 154.31C229.907 153.968 229.782 153.689 229.642 153.424C229.471 153.176 229.269 152.958 229.021 152.803C228.772 152.647 228.492 152.585 228.135 152.585H227.637ZM210.506 152.818C210.351 152.958 210.211 153.16 210.087 153.409C209.978 153.642 209.884 153.937 209.822 154.295C209.76 154.637 209.713 155.01 209.713 155.414C209.713 155.849 209.76 156.238 209.822 156.596C209.916 156.938 210.009 157.233 210.133 157.482C210.258 157.73 210.413 157.933 210.584 158.057C210.771 158.197 210.957 158.259 211.159 158.259C211.377 158.259 211.548 158.197 211.703 158.057C211.874 157.933 212.014 157.73 212.123 157.497C212.247 157.264 212.341 156.969 212.403 156.627C212.449 156.3 212.481 155.927 212.481 155.507C212.481 155.103 212.449 154.73 212.403 154.373C212.341 154.031 212.263 153.72 212.139 153.455C212.03 153.207 211.874 152.989 211.688 152.834C211.517 152.694 211.299 152.616 211.05 152.616C210.848 152.616 210.662 152.678 210.506 152.818ZM72.9462 155.741V156.362L74.2676 156.316L73.6769 156.907C73.4592 156.782 73.2105 156.704 72.9307 156.704C72.1223 156.704 71.4694 157.373 71.4694 158.197C71.4694 159.021 72.1223 159.689 72.9307 159.705C73.739 159.705 74.3919 159.021 74.3919 158.197C74.3919 157.917 74.3142 157.653 74.1898 157.42L74.7806 156.813L74.7339 158.243H75.3246V155.741H72.9462ZM72.1845 158.197C72.1845 157.777 72.5265 157.435 72.9307 157.435C73.3504 157.435 73.6769 157.777 73.6769 158.197C73.6769 158.617 73.3504 158.959 72.9307 158.959C72.5265 158.959 72.1845 158.617 72.1845 158.197Z" fill="white"/>
</mask>
<g mask="url(#mask3_55_72)">
<path d="M232.534 125.77L46.6123 149.087L50.965 185.339L236.886 162.021L232.534 125.77Z" fill="url(#paint1_linear_55_72)"/>
</g>
</g>
</g>
<defs>
<linearGradient id="paint0_linear_55_72" x1="138.061" y1="107.847" x2="145.637" y2="160.6" gradientUnits="userSpaceOnUse">
<stop stop-color="#704C21"/>
<stop offset="0.0078125" stop-color="#704C21"/>
<stop offset="0.0117188" stop-color="#704C21"/>
<stop offset="0.015625" stop-color="#724F21"/>
<stop offset="0.0195313" stop-color="#775423"/>
<stop offset="0.0234375" stop-color="#7A5626"/>
<stop offset="0.0273438" stop-color="#7F5B28"/>
<stop offset="0.03125" stop-color="#82602B"/>
<stop offset="0.0351563" stop-color="#84662D"/>
<stop offset="0.0390625" stop-color="#89682D"/>
<stop offset="0.0429688" stop-color="#8C6D30"/>
<stop offset="0.046875" stop-color="#8E7233"/>
<stop offset="0.0507813" stop-color="#937535"/>
<stop offset="0.0546875" stop-color="#967A35"/>
<stop offset="0.0585938" stop-color="#9B7F38"/>
<stop offset="0.0625" stop-color="#9E823A"/>
<stop offset="0.0664063" stop-color="#A0873D"/>
<stop offset="0.0703125" stop-color="#A58C3F"/>
<stop offset="0.0742188" stop-color="#A88E42"/>
<stop offset="0.078125" stop-color="#AA9342"/>
<stop offset="0.0820313" stop-color="#AD9644"/>
<stop offset="0.0859375" stop-color="#AF9947"/>
<stop offset="0.0898438" stop-color="#B59E49"/>
<stop offset="0.09375" stop-color="#B7A349"/>
<stop offset="0.0976563" stop-color="#BCA54C"/>
<stop offset="0.101563" stop-color="#BFAA4F"/>
<stop offset="0.105469" stop-color="#C1AD4F"/>
<stop offset="0.109375" stop-color="#C4B251"/>
<stop offset="0.113281" stop-color="#C9B551"/>
<stop offset="0.117188" stop-color="#CCBA54"/>
<stop offset="0.121094" stop-color="#CEBC54"/>
<stop offset="0.125" stop-color="#D1BF56"/>
<stop offset="0.128906" stop-color="#D3C156"/>
<stop offset="0.132813" stop-color="#D6C659"/>
<stop offset="0.136719" stop-color="#D8C959"/>
<stop offset="0.140625" stop-color="#DBCC59"/>
<stop offset="0.144531" stop-color="#DDCE5B"/>
<stop offset="0.148438" stop-color="#E0D15E"/>
<stop offset="0.152344" stop-color="#E2D35E"/>
<stop offset="0.15625" stop-color="#E2D660"/>
<stop offset="0.160156" stop-color="#E5D860"/>
<stop offset="0.164063" stop-color="#E8DB60"/>
<stop offset="0.167969" stop-color="#E8DB63"/>
<stop offset="0.171875" stop-color="#EADD63"/>
<stop offset="0.175781" stop-color="#EADD63"/>
<stop offset="0.179688" stop-color="#EAE063"/>
<stop offset="0.183594" stop-color="#E8DD63"/>
<stop offset="0.1875" stop-color="#E5D860"/>
<stop offset="0.191406" stop-color="#E5D660"/>
<stop offset="0.195313" stop-color="#E2D35E"/>
<stop offset="0.199219" stop-color="#E0D15E"/>
<stop offset="0.203125" stop-color="#DDCE5B"/>
<stop offset="0.207031" stop-color="#DBCC5B"/>
<stop offset="0.210938" stop-color="#D8C959"/>
<stop offset="0.214844" stop-color="#D6C659"/>
<stop offset="0.21875" stop-color="#D6C456"/>
<stop offset="0.222656" stop-color="#D3C156"/>
<stop offset="0.226563" stop-color="#D1BF54"/>
<stop offset="0.230469" stop-color="#CEBC54"/>
<stop offset="0.234375" stop-color="#CEBC54"/>
<stop offset="0.238281" stop-color="#CCB751"/>
<stop offset="0.242188" stop-color="#C9B551"/>
<stop offset="0.246094" stop-color="#C6B24F"/>
<stop offset="0.25" stop-color="#C4AF4F"/>
<stop offset="0.253906" stop-color="#C1AD4F"/>
<stop offset="0.257813" stop-color="#C1AD4C"/>
<stop offset="0.261719" stop-color="#BFAA4C"/>
<stop offset="0.265625" stop-color="#BCA84C"/>
<stop offset="0.269531" stop-color="#BAA549"/>
<stop offset="0.273438" stop-color="#BAA349"/>
<stop offset="0.277344" stop-color="#B7A047"/>
<stop offset="0.28125" stop-color="#B59E47"/>
<stop offset="0.285156" stop-color="#B29B44"/>
<stop offset="0.289063" stop-color="#B29944"/>
<stop offset="0.292969" stop-color="#AF9644"/>
<stop offset="0.296875" stop-color="#AF9642"/>
<stop offset="0.300781" stop-color="#AD9342"/>
<stop offset="0.304688" stop-color="#AA9142"/>
<stop offset="0.308594" stop-color="#AA8E3F"/>
<stop offset="0.3125" stop-color="#A88E3F"/>
<stop offset="0.316406" stop-color="#A58C3F"/>
<stop offset="0.320313" stop-color="#A5893D"/>
<stop offset="0.324219" stop-color="#A3873D"/>
<stop offset="0.328125" stop-color="#A0873A"/>
<stop offset="0.332031" stop-color="#A0843A"/>
<stop offset="0.335938" stop-color="#9E823A"/>
<stop offset="0.339844" stop-color="#9B7F38"/>
<stop offset="0.34375" stop-color="#9B7F38"/>
<stop offset="0.347656" stop-color="#997C35"/>
<stop offset="0.351563" stop-color="#967A35"/>
<stop offset="0.355469" stop-color="#967733"/>
<stop offset="0.359375" stop-color="#967733"/>
<stop offset="0.363281" stop-color="#937533"/>
<stop offset="0.367188" stop-color="#917533"/>
<stop offset="0.371094" stop-color="#917230"/>
<stop offset="0.375" stop-color="#8E7030"/>
<stop offset="0.378906" stop-color="#8E7030"/>
<stop offset="0.382813" stop-color="#8C6D2D"/>
<stop offset="0.386719" stop-color="#8C6D2D"/>
<stop offset="0.390625" stop-color="#8C6B2D"/>
<stop offset="0.394531" stop-color="#896B2D"/>
<stop offset="0.398438" stop-color="#89682B"/>
<stop offset="0.402344" stop-color="#89662B"/>
<stop offset="0.40625" stop-color="#87662B"/>
<stop offset="0.410156" stop-color="#876328"/>
<stop offset="0.414063" stop-color="#846328"/>
<stop offset="0.417969" stop-color="#846028"/>
<stop offset="0.421875" stop-color="#846028"/>
<stop offset="0.425781" stop-color="#826026"/>
<stop offset="0.429688" stop-color="#825E26"/>
<stop offset="0.433594" stop-color="#825E26"/>
<stop offset="0.4375" stop-color="#7F5B26"/>
<stop offset="0.441406" stop-color="#7F5B26"/>
<stop offset="0.445313" stop-color="#7F5B26"/>
<stop offset="0.449219" stop-color="#7C5923"/>
<stop offset="0.453125" stop-color="#7C5923"/>
<stop offset="0.457031" stop-color="#7C5923"/>
<stop offset="0.460938" stop-color="#7C5623"/>
<stop offset="0.464844" stop-color="#7A5623"/>
<stop offset="0.46875" stop-color="#7A5623"/>
<stop offset="0.476563" stop-color="#7A5621"/>
<stop offset="0.480469" stop-color="#7A5623"/>
<stop offset="0.484375" stop-color="#7C5623"/>
<stop offset="0.488281" stop-color="#7C5923"/>
<stop offset="0.492188" stop-color="#7F5B23"/>
<stop offset="0.496094" stop-color="#7F5B26"/>
<stop offset="0.5" stop-color="#825E26"/>
<stop offset="0.503906" stop-color="#825E26"/>
<stop offset="0.507813" stop-color="#846026"/>
<stop offset="0.511719" stop-color="#846328"/>
<stop offset="0.515625" stop-color="#876328"/>
<stop offset="0.519531" stop-color="#876628"/>
<stop offset="0.523438" stop-color="#89682B"/>
<stop offset="0.527344" stop-color="#8C682B"/>
<stop offset="0.53125" stop-color="#8C6B2B"/>
<stop offset="0.535156" stop-color="#8C6D2B"/>
<stop offset="0.539063" stop-color="#8E6D2D"/>
<stop offset="0.542969" stop-color="#91702D"/>
<stop offset="0.546875" stop-color="#91722D"/>
<stop offset="0.550781" stop-color="#937230"/>
<stop offset="0.554688" stop-color="#937530"/>
<stop offset="0.558594" stop-color="#967730"/>
<stop offset="0.5625" stop-color="#997733"/>
<stop offset="0.566406" stop-color="#997A33"/>
<stop offset="0.570313" stop-color="#9B7C33"/>
<stop offset="0.574219" stop-color="#9B7C33"/>
<stop offset="0.578125" stop-color="#9E7F35"/>
<stop offset="0.582031" stop-color="#A08235"/>
<stop offset="0.585938" stop-color="#A38435"/>
<stop offset="0.589844" stop-color="#A38438"/>
<stop offset="0.59375" stop-color="#A58738"/>
<stop offset="0.597656" stop-color="#A58938"/>
<stop offset="0.601563" stop-color="#A8893A"/>
<stop offset="0.605469" stop-color="#AA8C3A"/>
<stop offset="0.609375" stop-color="#AA8E3A"/>
<stop offset="0.613281" stop-color="#AD913A"/>
<stop offset="0.617188" stop-color="#AF913A"/>
<stop offset="0.621094" stop-color="#AF933D"/>
<stop offset="0.625" stop-color="#B2963D"/>
<stop offset="0.628906" stop-color="#B2963D"/>
<stop offset="0.632813" stop-color="#B5993F"/>
<stop offset="0.636719" stop-color="#B79B3F"/>
<stop offset="0.640625" stop-color="#BA9E3F"/>
<stop offset="0.644531" stop-color="#BAA03F"/>
<stop offset="0.648438" stop-color="#BCA342"/>
<stop offset="0.652344" stop-color="#BFA342"/>
<stop offset="0.65625" stop-color="#BFA542"/>
<stop offset="0.660156" stop-color="#C1A844"/>
<stop offset="0.664063" stop-color="#C4A844"/>
<stop offset="0.667969" stop-color="#C4AA47"/>
<stop offset="0.671875" stop-color="#C6AD47"/>
<stop offset="0.675781" stop-color="#C6AF47"/>
<stop offset="0.679688" stop-color="#C9AF49"/>
<stop offset="0.683594" stop-color="#CCB249"/>
<stop offset="0.6875" stop-color="#CCB549"/>
<stop offset="0.691406" stop-color="#CEB749"/>
<stop offset="0.695313" stop-color="#D1BA4C"/>
<stop offset="0.699219" stop-color="#D3BA4C"/>
<stop offset="0.703125" stop-color="#D3BC4C"/>
<stop offset="0.707031" stop-color="#D6BF4C"/>
<stop offset="0.710938" stop-color="#D8C14C"/>
<stop offset="0.714844" stop-color="#D8C14C"/>
<stop offset="0.71875" stop-color="#DBC44F"/>
<stop offset="0.722656" stop-color="#DDC64F"/>
<stop offset="0.726563" stop-color="#DDC94F"/>
<stop offset="0.730469" stop-color="#E0CC4F"/>
<stop offset="0.734375" stop-color="#E2CE51"/>
<stop offset="0.742188" stop-color="#E2CC51"/>
<stop offset="0.746094" stop-color="#E2CC51"/>
<stop offset="0.75" stop-color="#E0CC51"/>
<stop offset="0.753906" stop-color="#E0C94F"/>
<stop offset="0.757813" stop-color="#E0C94F"/>
<stop offset="0.761719" stop-color="#E0C94F"/>
<stop offset="0.765625" stop-color="#E0C94F"/>
<stop offset="0.769531" stop-color="#DDC64F"/>
<stop offset="0.773438" stop-color="#DDC64F"/>
<stop offset="0.777344" stop-color="#DDC64C"/>
<stop offset="0.78125" stop-color="#DDC64C"/>
<stop offset="0.785156" stop-color="#DDC44C"/>
<stop offset="0.789063" stop-color="#DDC44C"/>
<stop offset="0.792969" stop-color="#DBC14C"/>
<stop offset="0.796875" stop-color="#DBC14C"/>
<stop offset="0.800781" stop-color="#DBC14C"/>
<stop offset="0.804688" stop-color="#DBBF49"/>
<stop offset="0.808594" stop-color="#D8BF49"/>
<stop offset="0.8125" stop-color="#D8BC49"/>
<stop offset="0.816406" stop-color="#D8BC49"/>
<stop offset="0.820313" stop-color="#D8BC49"/>
<stop offset="0.824219" stop-color="#D6BA49"/>
<stop offset="0.828125" stop-color="#D6BA47"/>
<stop offset="0.832031" stop-color="#D6B747"/>
<stop offset="0.835938" stop-color="#D3B747"/>
<stop offset="0.839844" stop-color="#D3B547"/>
<stop offset="0.84375" stop-color="#D1B547"/>
<stop offset="0.847656" stop-color="#D1B244"/>
<stop offset="0.851563" stop-color="#CEB244"/>
<stop offset="0.855469" stop-color="#CEAF44"/>
<stop offset="0.859375" stop-color="#CEAD42"/>
<stop offset="0.863281" stop-color="#CCAD42"/>
<stop offset="0.867188" stop-color="#CCAD42"/>
<stop offset="0.871094" stop-color="#CCAA42"/>
<stop offset="0.875" stop-color="#C9A83F"/>
<stop offset="0.878906" stop-color="#C9A83F"/>
<stop offset="0.882813" stop-color="#C9A53F"/>
<stop offset="0.886719" stop-color="#C6A53F"/>
<stop offset="0.890625" stop-color="#C6A33F"/>
<stop offset="0.894531" stop-color="#C4A33D"/>
<stop offset="0.898438" stop-color="#C4A03D"/>
<stop offset="0.902344" stop-color="#C49E3D"/>
<stop offset="0.90625" stop-color="#C19E3D"/>
<stop offset="0.910156" stop-color="#C19B3A"/>
<stop offset="0.914063" stop-color="#BF9B3A"/>
<stop offset="0.917969" stop-color="#BF993A"/>
<stop offset="0.921875" stop-color="#BC9938"/>
<stop offset="0.925781" stop-color="#BC9638"/>
<stop offset="0.929688" stop-color="#BC9335"/>
<stop offset="0.933594" stop-color="#BA9335"/>
<stop offset="0.9375" stop-color="#BA9135"/>
<stop offset="0.941406" stop-color="#B78E35"/>
<stop offset="0.945313" stop-color="#B78E35"/>
<stop offset="0.949219" stop-color="#B78C33"/>
<stop offset="0.953125" stop-color="#B58C33"/>
<stop offset="0.957031" stop-color="#B58930"/>
<stop offset="0.960938" stop-color="#B28730"/>
<stop offset="0.964844" stop-color="#B28730"/>
<stop offset="0.96875" stop-color="#AF842D"/>
<stop offset="0.972656" stop-color="#AF822D"/>
<stop offset="0.976563" stop-color="#AD822D"/>
<stop offset="0.980469" stop-color="#AD7F2B"/>
<stop offset="0.984375" stop-color="#AA7C2B"/>
<stop offset="0.988281" stop-color="#AA7C28"/>
<stop offset="0.992188" stop-color="#AA7C28"/>
<stop offset="1" stop-color="#AA7C28"/>
</linearGradient>
<linearGradient id="paint1_linear_55_72" x1="139.568" y1="137.425" x2="144.114" y2="173.654" gradientUnits="userSpaceOnUse">
<stop stop-color="#704C21"/>
<stop offset="0.00390625" stop-color="#724F21"/>
<stop offset="0.0078125" stop-color="#775423"/>
<stop offset="0.0117188" stop-color="#7A5926"/>
<stop offset="0.015625" stop-color="#7F5B28"/>
<stop offset="0.0195313" stop-color="#82602B"/>
<stop offset="0.0234375" stop-color="#84662D"/>
<stop offset="0.0273438" stop-color="#89682D"/>
<stop offset="0.03125" stop-color="#8C6D30"/>
<stop offset="0.0351563" stop-color="#8E7233"/>
<stop offset="0.0390625" stop-color="#937535"/>
<stop offset="0.0429688" stop-color="#967A38"/>
<stop offset="0.046875" stop-color="#997C38"/>
<stop offset="0.0507813" stop-color="#9E823A"/>
<stop offset="0.0546875" stop-color="#A0873D"/>
<stop offset="0.0585938" stop-color="#A5893F"/>
<stop offset="0.0625" stop-color="#A88E3F"/>
<stop offset="0.0664063" stop-color="#AA9142"/>
<stop offset="0.0703125" stop-color="#AD9644"/>
<stop offset="0.0742188" stop-color="#AF9947"/>
<stop offset="0.078125" stop-color="#B59E47"/>
<stop offset="0.0820313" stop-color="#B7A049"/>
<stop offset="0.0859375" stop-color="#BAA54C"/>
<stop offset="0.0898438" stop-color="#BCA84C"/>
<stop offset="0.09375" stop-color="#C1AD4F"/>
<stop offset="0.0976563" stop-color="#C4AF4F"/>
<stop offset="0.101563" stop-color="#C6B251"/>
<stop offset="0.105469" stop-color="#C9B754"/>
<stop offset="0.109375" stop-color="#CEBC54"/>
<stop offset="0.113281" stop-color="#CEBF56"/>
<stop offset="0.117188" stop-color="#D1C156"/>
<stop offset="0.121094" stop-color="#D3C456"/>
<stop offset="0.125" stop-color="#D6C659"/>
<stop offset="0.128906" stop-color="#D8C959"/>
<stop offset="0.132813" stop-color="#DBCC5B"/>
<stop offset="0.136719" stop-color="#DDCE5B"/>
<stop offset="0.140625" stop-color="#E0D15E"/>
<stop offset="0.144531" stop-color="#E2D35E"/>
<stop offset="0.148438" stop-color="#E2D660"/>
<stop offset="0.152344" stop-color="#E5D860"/>
<stop offset="0.15625" stop-color="#E8DB60"/>
<stop offset="0.160156" stop-color="#E8DB63"/>
<stop offset="0.164063" stop-color="#EADD63"/>
<stop offset="0.167969" stop-color="#EADD63"/>
<stop offset="0.171875" stop-color="#EAE063"/>
<stop offset="0.175781" stop-color="#E8DB63"/>
<stop offset="0.179688" stop-color="#E5D860"/>
<stop offset="0.183594" stop-color="#E5D660"/>
<stop offset="0.1875" stop-color="#E2D35E"/>
<stop offset="0.191406" stop-color="#E0D15E"/>
<stop offset="0.195313" stop-color="#DDD15B"/>
<stop offset="0.199219" stop-color="#DBCC5B"/>
<stop offset="0.203125" stop-color="#D8C959"/>
<stop offset="0.207031" stop-color="#D8C659"/>
<stop offset="0.210938" stop-color="#D6C456"/>
<stop offset="0.214844" stop-color="#D3C156"/>
<stop offset="0.21875" stop-color="#D1BF56"/>
<stop offset="0.222656" stop-color="#CEBF54"/>
<stop offset="0.226563" stop-color="#CEBC54"/>
<stop offset="0.230469" stop-color="#CCBA54"/>
<stop offset="0.234375" stop-color="#C9B551"/>
<stop offset="0.238281" stop-color="#C6B551"/>
<stop offset="0.242188" stop-color="#C4B24F"/>
<stop offset="0.246094" stop-color="#C4AF4F"/>
<stop offset="0.25" stop-color="#C1AD4C"/>
<stop offset="0.253906" stop-color="#BFAA4C"/>
<stop offset="0.257813" stop-color="#BFA84C"/>
<stop offset="0.261719" stop-color="#BCA549"/>
<stop offset="0.265625" stop-color="#BAA349"/>
<stop offset="0.269531" stop-color="#B7A047"/>
<stop offset="0.273438" stop-color="#B7A047"/>
<stop offset="0.277344" stop-color="#B59E47"/>
<stop offset="0.28125" stop-color="#B29B44"/>
<stop offset="0.285156" stop-color="#B29944"/>
<stop offset="0.289063" stop-color="#AF9642"/>
<stop offset="0.292969" stop-color="#AD9342"/>
<stop offset="0.296875" stop-color="#AA9342"/>
<stop offset="0.300781" stop-color="#AA913F"/>
<stop offset="0.304688" stop-color="#A88E3F"/>
<stop offset="0.308594" stop-color="#A88C3F"/>
<stop offset="0.3125" stop-color="#A58C3D"/>
<stop offset="0.316406" stop-color="#A5893D"/>
<stop offset="0.320313" stop-color="#A3873D"/>
<stop offset="0.324219" stop-color="#A0843A"/>
<stop offset="0.328125" stop-color="#A0843A"/>
<stop offset="0.332031" stop-color="#9E8238"/>
<stop offset="0.335938" stop-color="#9B7F38"/>
<stop offset="0.339844" stop-color="#9B7C38"/>
<stop offset="0.34375" stop-color="#997C35"/>
<stop offset="0.347656" stop-color="#997A35"/>
<stop offset="0.351563" stop-color="#967A35"/>
<stop offset="0.355469" stop-color="#967733"/>
<stop offset="0.359375" stop-color="#937533"/>
<stop offset="0.363281" stop-color="#937533"/>
<stop offset="0.367188" stop-color="#917230"/>
<stop offset="0.371094" stop-color="#917030"/>
<stop offset="0.375" stop-color="#8E7030"/>
<stop offset="0.378906" stop-color="#8E6D2D"/>
<stop offset="0.382813" stop-color="#8C6D2D"/>
<stop offset="0.386719" stop-color="#8C6B2D"/>
<stop offset="0.390625" stop-color="#896B2D"/>
<stop offset="0.394531" stop-color="#89682B"/>
<stop offset="0.398438" stop-color="#89682B"/>
<stop offset="0.402344" stop-color="#87662B"/>
<stop offset="0.40625" stop-color="#87662B"/>
<stop offset="0.410156" stop-color="#846328"/>
<stop offset="0.414063" stop-color="#846328"/>
<stop offset="0.417969" stop-color="#846028"/>
<stop offset="0.421875" stop-color="#826028"/>
<stop offset="0.425781" stop-color="#825E26"/>
<stop offset="0.429688" stop-color="#825E26"/>
<stop offset="0.433594" stop-color="#7F5E26"/>
<stop offset="0.4375" stop-color="#7F5B26"/>
<stop offset="0.441406" stop-color="#7F5B26"/>
<stop offset="0.445313" stop-color="#7F5923"/>
<stop offset="0.449219" stop-color="#7C5923"/>
<stop offset="0.453125" stop-color="#7C5923"/>
<stop offset="0.457031" stop-color="#7C5923"/>
<stop offset="0.460938" stop-color="#7C5623"/>
<stop offset="0.464844" stop-color="#7A5623"/>
<stop offset="0.46875" stop-color="#7A5623"/>
<stop offset="0.476563" stop-color="#7A5621"/>
<stop offset="0.480469" stop-color="#7A5623"/>
<stop offset="0.484375" stop-color="#7C5623"/>
<stop offset="0.488281" stop-color="#7C5923"/>
<stop offset="0.492188" stop-color="#7F5B23"/>
<stop offset="0.496094" stop-color="#7F5B26"/>
<stop offset="0.5" stop-color="#825E26"/>
<stop offset="0.503906" stop-color="#825E26"/>
<stop offset="0.507813" stop-color="#846026"/>
<stop offset="0.511719" stop-color="#846328"/>
<stop offset="0.515625" stop-color="#876328"/>
<stop offset="0.519531" stop-color="#876628"/>
<stop offset="0.523438" stop-color="#89682B"/>
<stop offset="0.527344" stop-color="#89682B"/>
<stop offset="0.53125" stop-color="#8C6B2B"/>
<stop offset="0.535156" stop-color="#8C6B2B"/>
<stop offset="0.539063" stop-color="#8E6D2D"/>
<stop offset="0.542969" stop-color="#8E702D"/>
<stop offset="0.546875" stop-color="#91702D"/>
<stop offset="0.550781" stop-color="#937230"/>
<stop offset="0.554688" stop-color="#937530"/>
<stop offset="0.558594" stop-color="#967530"/>
<stop offset="0.5625" stop-color="#967730"/>
<stop offset="0.566406" stop-color="#997A33"/>
<stop offset="0.570313" stop-color="#997A33"/>
<stop offset="0.574219" stop-color="#9B7C33"/>
<stop offset="0.578125" stop-color="#9E7F33"/>
<stop offset="0.582031" stop-color="#9E7F35"/>
<stop offset="0.585938" stop-color="#A08235"/>
<stop offset="0.589844" stop-color="#A38438"/>
<stop offset="0.59375" stop-color="#A38438"/>
<stop offset="0.597656" stop-color="#A58738"/>
<stop offset="0.601563" stop-color="#A5893A"/>
<stop offset="0.605469" stop-color="#A88C3A"/>
<stop offset="0.609375" stop-color="#AA8C3A"/>
<stop offset="0.613281" stop-color="#AA8E3A"/>
<stop offset="0.617188" stop-color="#AD913A"/>
<stop offset="0.621094" stop-color="#AF913D"/>
<stop offset="0.625" stop-color="#AF933D"/>
<stop offset="0.628906" stop-color="#B2963D"/>
<stop offset="0.632813" stop-color="#B2963D"/>
<stop offset="0.636719" stop-color="#B5993F"/>
<stop offset="0.640625" stop-color="#B79B3F"/>
<stop offset="0.644531" stop-color="#B79E3F"/>
<stop offset="0.648438" stop-color="#BA9E3F"/>
<stop offset="0.652344" stop-color="#BCA042"/>
<stop offset="0.65625" stop-color="#BFA342"/>
<stop offset="0.660156" stop-color="#BFA542"/>
<stop offset="0.664063" stop-color="#C1A844"/>
<stop offset="0.667969" stop-color="#C4A844"/>
<stop offset="0.671875" stop-color="#C4AA47"/>
<stop offset="0.675781" stop-color="#C6AD47"/>
<stop offset="0.679688" stop-color="#C6AD47"/>
<stop offset="0.683594" stop-color="#C9AF47"/>
<stop offset="0.6875" stop-color="#C9B249"/>
<stop offset="0.691406" stop-color="#CCB549"/>
<stop offset="0.695313" stop-color="#CEB549"/>
<stop offset="0.699219" stop-color="#D1B74C"/>
<stop offset="0.703125" stop-color="#D3BA4C"/>
<stop offset="0.707031" stop-color="#D3BC4C"/>
<stop offset="0.710938" stop-color="#D6BF4C"/>
<stop offset="0.714844" stop-color="#D8BF4C"/>
<stop offset="0.71875" stop-color="#D8C14F"/>
<stop offset="0.722656" stop-color="#DBC44F"/>
<stop offset="0.726563" stop-color="#DDC64F"/>
<stop offset="0.730469" stop-color="#DDC64F"/>
<stop offset="0.734375" stop-color="#DDC94F"/>
<stop offset="0.738281" stop-color="#E0CC51"/>
<stop offset="0.742188" stop-color="#E2CE51"/>
<stop offset="0.746094" stop-color="#E2CC51"/>
<stop offset="0.75" stop-color="#E2CC51"/>
<stop offset="0.753906" stop-color="#E0CC51"/>
<stop offset="0.757813" stop-color="#E0CC4F"/>
<stop offset="0.761719" stop-color="#E0C94F"/>
<stop offset="0.765625" stop-color="#E0C94F"/>
<stop offset="0.769531" stop-color="#E0C94F"/>
<stop offset="0.773438" stop-color="#E0C94F"/>
<stop offset="0.78125" stop-color="#DDC64F"/>
<stop offset="0.785156" stop-color="#DDC64C"/>
<stop offset="0.789063" stop-color="#DDC64C"/>
<stop offset="0.792969" stop-color="#DDC44C"/>
<stop offset="0.796875" stop-color="#DDC44C"/>
<stop offset="0.800781" stop-color="#DBC14C"/>
<stop offset="0.804688" stop-color="#DBC14C"/>
<stop offset="0.808594" stop-color="#DBC14C"/>
<stop offset="0.8125" stop-color="#DBBF49"/>
<stop offset="0.816406" stop-color="#D8BF49"/>
<stop offset="0.820313" stop-color="#D8BF49"/>
<stop offset="0.824219" stop-color="#D8BC49"/>
<stop offset="0.828125" stop-color="#D8BC49"/>
<stop offset="0.832031" stop-color="#D6BA49"/>
<stop offset="0.835938" stop-color="#D6BA47"/>
<stop offset="0.839844" stop-color="#D6BA47"/>
<stop offset="0.84375" stop-color="#D3B747"/>
<stop offset="0.847656" stop-color="#D3B747"/>
<stop offset="0.851563" stop-color="#D3B547"/>
<stop offset="0.855469" stop-color="#D1B244"/>
<stop offset="0.859375" stop-color="#D1B244"/>
<stop offset="0.863281" stop-color="#CEAF44"/>
<stop offset="0.867188" stop-color="#CEAF44"/>
<stop offset="0.871094" stop-color="#CEAD42"/>
<stop offset="0.875" stop-color="#CCAD42"/>
<stop offset="0.878906" stop-color="#CCAA42"/>
<stop offset="0.882813" stop-color="#CCAA42"/>
<stop offset="0.886719" stop-color="#C9A83F"/>
<stop offset="0.890625" stop-color="#C9A83F"/>
<stop offset="0.894531" stop-color="#C9A53F"/>
<stop offset="0.898438" stop-color="#C6A33F"/>
<stop offset="0.902344" stop-color="#C6A33F"/>
<stop offset="0.90625" stop-color="#C4A03D"/>
<stop offset="0.910156" stop-color="#C4A03D"/>
<stop offset="0.914063" stop-color="#C19E3D"/>
<stop offset="0.917969" stop-color="#C19E3D"/>
<stop offset="0.921875" stop-color="#C19B3A"/>
<stop offset="0.925781" stop-color="#BF9B3A"/>
<stop offset="0.929688" stop-color="#BC9938"/>
<stop offset="0.933594" stop-color="#BC9638"/>
<stop offset="0.9375" stop-color="#BC9638"/>
<stop offset="0.941406" stop-color="#BC9335"/>
<stop offset="0.945313" stop-color="#BA9335"/>
<stop offset="0.949219" stop-color="#BA9135"/>
<stop offset="0.953125" stop-color="#B78E35"/>
<stop offset="0.957031" stop-color="#B78E33"/>
<stop offset="0.960938" stop-color="#B78C33"/>
<stop offset="0.964844" stop-color="#B58C33"/>
<stop offset="0.96875" stop-color="#B58930"/>
<stop offset="0.972656" stop-color="#B28730"/>
<stop offset="0.976563" stop-color="#B28730"/>
<stop offset="0.980469" stop-color="#AF842D"/>
<stop offset="0.984375" stop-color="#AF842D"/>
<stop offset="0.988281" stop-color="#AF822D"/>
<stop offset="0.992188" stop-color="#AD7F2B"/>
<stop offset="0.996094" stop-color="#AA7C2B"/>
<stop offset="1" stop-color="#AA7C28"/>
</linearGradient>
<clipPath id="clip0_55_72">
<rect width="283.5" height="283.5" fill="white"/>
</clipPath>
</defs>
</svg>
