<svg width="250" height="250" viewBox="0 0 250 250" fill="none" xmlns="http://www.w3.org/2000/svg">
<rect width="250" height="250" fill="white"/>
<path d="M156.881 79.6891C152.852 74.4197 142.765 72.739 126.042 74.5492C114.563 75.7916 104.202 78.2219 103.767 78.3241L100.893 79.0032V92.8365L88.0179 82.1081L42.5524 97.2632C40.5979 97.9151 39.5407 100.029 40.1925 101.983C40.8444 103.939 42.9578 104.995 44.9123 104.343L61.8459 98.6987C63.8809 100.285 86.6256 118.131 96.0254 130.074H96.0231L98.3921 133.41C101.953 138.421 106.83 145.286 108.876 152.142C111.025 159.338 109.608 164.909 104.419 169.674C102.902 171.069 102.801 173.429 104.195 174.946C104.931 175.747 105.936 176.153 106.945 176.153C107.846 176.153 108.75 175.828 109.467 175.17C116.795 168.44 119.003 159.974 116.027 150.006C114.084 143.495 110.245 137.374 106.803 132.393C114.52 127.699 125.507 120.419 135.436 112.63C149.588 101.528 157.08 93.0455 158.339 86.6972C159.004 83.3493 157.912 81.0371 156.88 79.6869L156.881 79.6891ZM151.02 85.247C150.619 87.2673 147.848 93.4089 130.831 106.761C120.964 114.5 110.036 121.719 102.508 126.274C94.6547 115.967 78.0118 102.084 70.303 95.8812L86.4349 90.5039L108.356 108.771V84.9597C112.192 84.1568 119.382 82.7747 126.91 81.9627C146.531 79.847 150.382 83.4742 150.954 84.2238C151.008 84.293 151.169 84.5043 151.021 85.2481L151.02 85.247Z" fill="#E20613"/>
<path d="M117.235 133.979C116.757 133.26 116.605 132.464 116.782 131.593C116.958 130.72 117.411 130.043 118.142 129.556C118.885 129.064 119.693 128.903 120.564 129.079C121.429 129.244 122.108 129.697 122.601 130.44C123.095 131.184 123.254 131.991 123.078 132.862C122.914 133.727 122.46 134.406 121.717 134.899C120.973 135.393 120.166 135.552 119.295 135.375C118.423 135.201 117.737 134.734 117.235 133.979ZM126.886 138.235L138.714 156.036L134.602 158.769L122.774 140.967L126.886 138.235Z" fill="#1D1D1B"/>
<path d="M142.972 127.548L147.102 124.803L158.93 142.604L154.8 145.349L153.561 143.485C152.919 146.195 151.625 148.196 149.675 149.492C147.214 151.127 144.588 151.589 141.798 150.879C138.995 150.124 136.692 148.388 134.886 145.671C133.114 143.004 132.434 140.25 132.848 137.409C133.262 134.57 134.669 132.354 137.07 130.758C139.142 129.382 141.566 129 144.345 129.612L142.972 127.548ZM138.953 117.573L136.308 128.024L133.137 128.129L133.743 118.136L138.953 117.573ZM139.09 142.878C140.224 144.583 141.604 145.669 143.23 146.133C144.889 146.596 146.431 146.352 147.856 145.404C149.379 144.393 150.262 143.051 150.504 141.38C150.722 139.673 150.277 137.984 149.167 136.315C148.057 134.645 146.674 133.58 145.015 133.119C143.373 132.683 141.802 132.962 140.303 133.958C138.889 134.897 138.065 136.218 137.826 137.923C137.608 139.631 138.03 141.281 139.09 142.878Z" fill="#1D1D1B"/>
<path d="M150.047 122.847L154.177 120.102L155.269 121.747C155.76 119.366 156.907 117.577 158.71 116.378C160.782 115.002 162.829 114.581 164.853 115.116C166.588 115.561 168.291 117.038 169.958 119.548L177.208 130.458L173.077 133.203L166.471 123.26C165.305 121.506 164.256 120.457 163.323 120.109C162.394 119.742 161.303 119.976 160.048 120.81C158.683 121.716 158.014 122.811 158.04 124.093C158.071 125.356 158.823 127.096 160.296 129.312L166.003 137.902L161.873 140.647L150.045 122.846L150.047 122.847Z" fill="#1D1D1B"/>
<path d="M163.755 94.9022L176.263 113.727L178.231 104.12L183.75 100.453L180.986 113.065L196.145 117.877L190.808 121.423L179.932 117.822L179.712 118.917L184.266 125.77L180.154 128.503L159.644 97.6335L163.756 94.9011L163.755 94.9022Z" fill="#1D1D1B"/>
<path d="M188.96 109.637C187.252 107.066 186.72 104.268 187.36 101.243C188.002 98.2172 189.645 95.8255 192.289 94.0698C194.945 92.305 197.803 91.7145 200.861 92.2993C203.895 92.9012 206.29 94.5229 208.047 97.1667C209.82 99.8343 210.386 102.683 209.744 105.708C209.082 108.73 207.405 111.135 204.712 112.924C202.043 114.697 199.201 115.269 196.183 114.639C193.182 114.033 190.774 112.366 188.96 109.637ZM193.212 106.917C194.395 108.697 195.805 109.788 197.443 110.193C199.114 110.593 200.747 110.263 202.343 109.202C203.951 108.134 204.892 106.762 205.167 105.087C205.442 103.412 205.005 101.709 203.854 99.9786C202.705 98.249 201.305 97.186 199.654 96.7897C197.983 96.3888 196.349 96.7193 194.753 97.78C193.182 98.8248 192.256 100.194 191.978 101.89C191.7 103.585 192.111 105.262 193.211 106.919L193.212 106.917Z" fill="#1D1D1B"/>
</svg>
