<svg width="250" height="250" viewBox="0 0 250 250" fill="none" xmlns="http://www.w3.org/2000/svg">
<rect width="250" height="250" fill="#B50017"/>
<path d="M54.3686 127.864C54.3669 129.952 54.3618 132.038 54.3584 134.126C54.8672 134.121 55.376 134.121 55.8866 134.123C55.8815 132.727 55.8849 131.329 55.8815 129.933C57.72 131.4 59.6264 132.779 61.4785 134.229C61.9093 134.236 62.3418 134.236 62.7743 134.236C62.7794 132.074 62.7777 129.91 62.7929 127.747C62.279 127.74 61.7668 127.74 61.2529 127.747C61.2563 129.221 61.2444 130.695 61.2444 132.169C59.3974 130.703 57.4927 129.311 55.6271 127.867C55.2081 127.867 54.7875 127.866 54.3686 127.864ZM54.5178 122.404C53.9887 123.961 54.4059 125.71 55.3608 127.016C55.8001 126.789 56.2376 126.56 56.6735 126.329C55.9951 125.434 55.4897 124.182 56.029 123.098C56.3241 122.471 57.0636 122.326 57.6895 122.308C57.7862 123.653 57.4334 125.13 58.1491 126.355C59.0938 127.952 61.8448 127.75 62.5759 126.053C63.1152 124.82 62.8761 123.176 61.7889 122.311C62.1213 122.321 62.4554 122.326 62.7879 122.331C62.7896 121.779 62.7879 121.226 62.7845 120.673C60.8645 120.717 58.9429 120.678 57.0212 120.713C55.951 120.72 54.8638 121.358 54.5178 122.404ZM57.6233 115.082C56.5378 114.15 55.4608 113.205 54.3635 112.287C54.3618 112.925 54.3635 113.564 54.3601 114.204C55.6101 115.3 56.838 116.417 58.0914 117.506C55.7271 117.499 53.3628 117.504 50.9985 117.503C50.9985 118.052 50.9985 118.6 50.9917 119.15C54.9215 119.204 58.8547 119.158 62.7862 119.173C62.7896 118.615 62.7896 118.059 62.7896 117.501C62.0043 117.503 61.2207 117.501 60.4371 117.503C59.9436 117.086 59.4517 116.665 58.9547 116.251C60.2319 115.513 61.5107 114.779 62.7879 114.041C62.7896 113.39 62.7913 112.739 62.7845 112.087C61.0511 113.061 59.3482 114.09 57.6233 115.082ZM58.6969 100.422C64.0548 98.9274 69.8978 99.2531 75.0572 101.334C81.7703 104.011 87.2384 109.667 89.601 116.505C88.3086 114.479 86.3463 112.85 84.0294 112.15C81.7805 111.466 79.2499 111.422 77.0857 112.415C75.6831 113.062 74.4958 114.122 73.6173 115.386C73.6308 114.236 73.6224 113.086 73.6241 111.935C71.0732 111.946 68.524 111.916 65.9748 111.95C65.9883 123.894 65.9697 135.836 65.9595 147.779C68.5155 147.784 71.0715 147.778 73.6274 147.783C73.6224 143.475 73.6325 139.165 73.6207 134.857C74.8639 136.648 76.7635 138.007 78.9226 138.417C81.5243 138.921 84.3381 138.448 86.5752 137.002C87.6268 136.314 88.541 135.418 89.2686 134.396C87.6811 138.442 85.0081 142.048 81.6363 144.789C77.1739 148.436 71.4412 150.507 65.6729 150.502C60.8526 150.556 56.0324 149.18 51.9551 146.609C47.3892 143.761 43.7698 139.428 41.7854 134.424C40.61 131.467 39.9672 128.283 40.0029 125.096C39.9164 119.562 41.7973 114.043 45.1386 109.641C48.4866 105.194 53.3272 101.896 58.6969 100.422Z" fill="white"/>
<path d="M77.9794 118.266C79.4177 117.99 80.9746 118.422 82.05 119.421C83.2576 120.532 83.8783 122.15 84.07 123.753C84.3702 126.338 83.8003 129.367 81.5886 130.998C80.1639 132.028 78.1439 132.15 76.609 131.295C75.3725 130.591 74.5109 129.352 74.0869 128.012C73.4746 126.08 73.4644 123.95 74.092 122.021C74.6534 120.237 76.0696 118.598 77.9794 118.266Z" fill="white"/>
<path d="M184.91 118.497C186.464 118.498 188.015 118.498 189.569 118.497C189.566 120.003 189.569 121.509 189.564 123.015C190.855 123.015 192.145 123.015 193.436 123.017C193.433 124.155 193.431 125.294 193.436 126.436C192.144 126.441 190.851 126.421 189.561 126.446C189.571 128.597 189.552 130.749 189.564 132.9C189.578 133.534 189.698 134.353 190.38 134.604C191.201 134.84 192.03 134.477 192.771 134.15C193.085 135.342 193.365 136.545 193.697 137.733C192.176 138.671 190.314 139.026 188.555 138.715C187.537 138.502 186.567 137.959 185.939 137.118C185.208 136.163 184.925 134.937 184.93 133.753C184.929 131.314 184.901 128.873 184.908 126.434H182.859C182.861 125.303 182.858 124.173 182.859 123.042H184.91C184.91 121.528 184.908 120.013 184.91 118.497Z" fill="white"/>
<path d="M59.0751 122.328C59.5296 122.343 60.03 122.275 60.4302 122.542C61.3173 123.112 61.6395 124.418 61.1511 125.342C60.7474 126.075 59.3939 126.073 59.1802 125.189C58.9801 124.251 59.0937 123.281 59.0751 122.328Z" fill="white"/>
<path d="M194.113 122.333C195.726 122.342 197.337 122.325 198.95 122.343C199.973 126.163 201.05 129.967 202.069 133.788C202.278 133.609 202.288 133.319 202.368 133.076C203.333 129.496 204.36 125.934 205.31 122.35C206.872 122.315 208.436 122.347 210 122.333C208.151 127.761 206.291 133.183 204.455 138.614H199.652C197.822 133.181 195.951 127.762 194.113 122.333Z" fill="white"/>
<path d="M179.547 134.004C180.59 133.541 181.922 134.011 182.417 135.045C182.87 136.034 182.792 137.328 182.044 138.157C181.172 139.117 179.41 139.044 178.668 137.961C177.807 136.728 178.073 134.645 179.547 134.004Z" fill="white"/>
<path d="M94.3991 143.481C94.4093 143.5 94.4297 143.536 94.4398 143.554L94.394 143.541L94.3991 143.481Z" fill="#C60005"/>
<path d="M93.8701 101.996C96.3939 101.992 98.9193 102.002 101.445 101.99C101.458 114.068 101.443 126.146 101.452 138.224C98.9244 138.22 96.3973 138.222 93.8718 138.222C93.8735 126.148 93.8769 114.072 93.8701 101.996Z" fill="white"/>
<path d="M162.841 112.703C165.21 111.368 168.197 111.137 170.734 112.121C172.697 112.881 174.247 114.507 175.083 116.421C175.855 118.127 176.108 120.018 176.102 121.879C176.104 127.326 176.104 132.772 176.104 138.22C173.591 138.224 171.079 138.22 168.565 138.222C168.565 133.451 168.569 128.678 168.565 123.905C168.552 122.42 168.139 120.81 166.947 119.83C165.244 118.439 162.481 118.753 161.05 120.393C159.93 121.67 159.447 123.42 159.5 125.096C159.506 129.47 159.5 133.846 159.503 138.22C156.974 138.224 154.447 138.22 151.918 138.222C151.915 129.452 151.918 120.683 151.917 111.912C154.445 111.909 156.974 111.911 159.503 111.911C159.505 113.334 159.498 114.755 159.505 116.178C160.354 114.803 161.406 113.5 162.841 112.703Z" fill="white"/>
<path d="M135.127 118.558C133.903 119.647 133.333 121.263 133.065 122.839C136.257 122.837 139.449 122.839 142.642 122.839C142.637 121.037 142.001 119.051 140.375 118.084C138.769 117.119 136.518 117.264 135.127 118.558ZM129.703 114.65C131.828 112.688 134.723 111.68 137.597 111.636C140.256 111.568 143.024 112.167 145.178 113.795C147.312 115.366 148.645 117.808 149.301 120.335C149.903 122.618 150.012 124.999 149.903 127.347C144.335 127.353 138.769 127.342 133.2 127.353C133.58 128.865 134.323 130.372 135.631 131.285C137.02 132.272 138.852 132.445 140.477 132.045C142.04 131.673 143.426 130.756 144.508 129.584C145.819 131.036 147.184 132.437 148.47 133.91C146.686 136.039 144.203 137.56 141.487 138.147C138.372 138.817 134.991 138.595 132.111 137.169C129.844 136.051 128.021 134.114 126.964 131.824C125.641 128.975 125.349 125.725 125.761 122.635C126.158 119.645 127.449 116.702 129.703 114.65Z" fill="white"/>
<path d="M104.423 111.916C111.324 111.916 118.227 111.911 125.13 111.918C125.137 113.485 125.132 115.054 125.135 116.621C125.184 117.06 124.803 117.35 124.577 117.674C120.882 122.42 117.177 127.158 113.492 131.911C117.503 131.916 121.514 131.914 125.525 131.911C125.522 134.014 125.52 136.117 125.527 138.22C118.344 138.217 111.163 138.22 103.982 138.219C103.98 136.544 103.989 134.87 103.979 133.196C107.861 128.198 111.784 123.229 115.666 118.229C111.92 118.23 108.173 118.235 104.428 118.227C104.418 116.124 104.428 114.019 104.423 111.916Z" fill="white"/>
</svg>
