<svg width="250" height="250" viewBox="0 0 250 250" fill="none" xmlns="http://www.w3.org/2000/svg">
<rect width="250" height="250" fill="#0F375A"/>
<path d="M61.8373 104.28H60.6708C55.7274 104.574 51.6406 106.744 48.7366 110.79V105.594H40V156.691H49.4626V141.372C52.5134 145.141 56.1598 146.715 60.6627 147.009H61.8292C73.7634 147.009 82.2063 137.057 82.2063 125.653C82.2063 120.024 80.3138 114.681 76.5288 110.79C72.4583 106.165 67.8004 104.28 61.8373 104.28ZM60.6708 137.628H60.524C57.7668 137.628 54.8464 136.331 52.8071 134.593C50.0499 132.276 48.8834 129.111 48.8834 125.653C48.8834 119.012 53.9736 113.808 60.6708 113.661H60.8177C67.5149 113.661 72.4583 119.151 72.4583 125.653C72.4583 132.285 67.5149 137.481 60.6708 137.628Z" fill="white"/>
<path d="M140.874 93.3085H131.118V145.712H140.874V93.3085Z" fill="white"/>
<path d="M106.524 104.28H106.23C94.1489 104.427 84.6863 113.808 84.6863 125.783C84.6863 137.334 94.4426 147.009 106.083 147.009H106.23C118.017 147.009 127.774 137.628 127.774 125.783C127.774 114.102 118.45 104.28 106.524 104.28ZM106.23 137.628H106.083C99.386 137.628 94.4426 132.146 94.4426 125.791C94.4426 122.626 95.4623 119.592 97.7953 117.422C99.8265 115.26 103.024 113.669 106.083 113.669H106.23C112.927 113.816 118.017 119.159 118.017 125.791C118.017 132.431 113.066 137.628 106.23 137.628Z" fill="white"/>
<path d="M177.835 111.222C174.915 107.184 170.559 104.729 165.607 104.28H164.147C158.323 104.28 153.233 106.597 149.154 111.222C145.377 115.407 143.917 120.024 143.917 125.653C143.917 131.281 145.818 136.477 149.007 140.368C152.507 144.415 157.597 147.009 163.854 147.009H165.607C170.265 146.438 175.062 143.974 177.835 140.368V145.712H186.702V105.594H177.835V111.222ZM165.616 137.628C159.065 137.628 153.681 132.578 153.681 126.085C153.681 119.012 158.478 113.816 165.616 113.669H165.762C172.753 113.669 177.55 118.866 177.55 125.661C177.55 132.431 172.745 137.628 165.616 137.628Z" fill="white"/>
<path d="M200.391 109.199V105.594H191.507V145.72H201.263V124.062C201.117 120.734 201.263 117.715 204.037 115.546C205.644 114.249 207.961 113.661 210 113.661V104.28H209.274C205.203 104.28 202.577 105.871 200.391 109.199Z" fill="white"/>
</svg>
