<svg width="250" height="250" viewBox="0 0 250 250" fill="none" xmlns="http://www.w3.org/2000/svg">
<rect width="250" height="250" fill="#0F375A"/>
<path d="M166.007 149.038L168.632 141.267L168.852 141.146C189.437 130.144 199.865 120.826 199.865 113.448C199.891 112.365 199.686 111.289 199.263 110.291C198.84 109.294 198.21 108.397 197.413 107.663C196.612 106.882 195.662 106.27 194.619 105.864C193.577 105.458 192.463 105.266 191.345 105.299C188.607 105.028 185.865 105.773 183.642 107.393C181.418 109.014 179.868 111.395 179.288 114.084L179.152 114.555H175.38L176.829 103.836L177.252 103.729C182.21 102.355 187.318 101.591 192.462 101.454C196.89 101.24 201.288 102.296 205.136 104.498C206.624 105.348 207.859 106.58 208.714 108.066C209.569 109.551 210.013 111.238 210 112.952C209.994 114.809 209.588 116.643 208.811 118.33C208.033 120.016 206.902 121.516 205.493 122.726C199.011 127.837 192.113 132.397 184.872 136.36L176.84 141.072H206.89L203.747 149.041L166.007 149.038Z" fill="white"/>
<path d="M56.394 109.195H55.5183C51.8071 109.416 48.739 111.045 46.5588 114.082V110.181H40V148.542H47.1039V137.041C49.3943 139.871 52.1317 141.053 55.5122 141.273H56.3879C65.3473 141.273 71.6857 133.802 71.6857 125.24C71.6857 121.015 70.2649 117.004 67.4234 114.082C64.3675 110.61 60.8707 109.195 56.394 109.195ZM55.5183 134.23H55.408C53.3381 134.23 51.1457 133.257 49.6147 131.952C47.5448 130.213 46.6691 127.837 46.6691 125.24C46.6691 120.255 50.4905 116.348 55.5183 116.238H55.6285C60.6563 116.238 64.3675 120.359 64.3675 125.24C64.3675 130.219 60.6563 134.12 55.5183 134.23Z" fill="white"/>
<path d="M115.73 100.959H108.405V140.299H115.73V100.959Z" fill="white"/>
<path d="M89.9415 109.195H89.721C80.6514 109.306 73.5475 116.348 73.5475 125.338C73.5475 134.01 80.8718 141.273 89.6108 141.273H89.721C98.5702 141.273 105.895 134.23 105.895 125.338C105.895 116.569 98.8948 109.195 89.9415 109.195ZM89.721 134.23H89.6108C84.583 134.23 80.8718 130.115 80.8718 125.344C80.8718 122.968 81.6373 120.69 83.3888 119.061C84.9137 117.438 87.3143 116.244 89.6108 116.244H89.721C94.7489 116.354 98.5702 120.366 98.5702 125.344C98.5702 130.329 94.853 134.23 89.721 134.23Z" fill="white"/>
<path d="M143.478 114.407C141.285 111.376 138.015 109.532 134.298 109.195H133.201C128.829 109.195 125.008 110.935 121.946 114.407C119.11 117.549 118.014 121.015 118.014 125.24C118.014 129.466 119.441 133.367 121.835 136.288C124.463 139.326 128.284 141.273 132.981 141.273H134.298C137.795 140.844 141.395 138.995 143.478 136.288V140.299H150.134V110.181H143.478V114.407ZM134.304 134.23C129.386 134.23 125.344 130.44 125.344 125.565C125.344 120.255 128.945 116.354 134.304 116.244H134.414C139.662 116.244 143.263 120.145 143.263 125.246C143.263 130.329 139.656 134.23 134.304 134.23Z" fill="white"/>
<path d="M160.411 112.888V110.181H153.741V140.305H161.066V124.046C160.956 121.548 161.066 119.282 163.148 117.653C164.354 116.679 166.094 116.238 167.625 116.238V109.195H167.08C164.024 109.195 162.052 110.39 160.411 112.888Z" fill="white"/>
</svg>
