<svg width="250" height="250" viewBox="0 0 250 250" fill="none" xmlns="http://www.w3.org/2000/svg">
<rect width="250" height="250" fill="#F8E912"/>
<path d="M169.233 62.3589C168.785 61.737 168.338 61.1648 167.89 60.5678C157.093 46.7117 140.153 39.0498 122.615 40.0946C84.8276 41.9106 63.3345 76.414 61.7424 101.912L61.3195 176.094L80.5738 176.89L87.763 176.367V171.69L95.1513 171.342V166.641L102.714 166.317V162.387L104.828 162.76C106.769 163.183 108.734 163.481 110.699 163.68C114.928 164.302 119.356 164.874 124.232 165.496C157.243 169.725 185.353 142.088 188.189 113.281C191.696 85.1954 175.502 70.0706 169.233 62.3589ZM143.586 100.693C142.466 114.176 131.595 126.913 116.122 126.913C103.012 126.913 92.2657 116.913 92.8876 100.469C93.5095 89.5736 102.614 74.822 118.834 74.0757C133.237 73.404 144.804 84.872 143.586 100.693Z" fill="url(#paint0_linear_356_1339)"/>
<path d="M102.763 166.342L102.689 162.412L85.6486 159.601L85.6983 164.427L102.763 166.342Z" fill="url(#paint1_linear_356_1339)"/>
<path d="M77.514 164.924L95.2011 166.665L102.763 166.342L85.6983 164.427L77.514 164.924Z" fill="url(#paint2_linear_356_1339)"/>
<path d="M104.729 162.735L85.6983 159.601L93.7334 158.954C93.7085 158.929 104.729 162.735 104.729 162.735Z" fill="url(#paint3_linear_356_1339)"/>
<path d="M122.615 40.0946C84.753 41.9106 63.235 76.5384 61.7424 102.062C61.7424 135.968 83.7579 164.277 116.644 163.929C154.332 163.581 177.467 131.739 180.004 102.36C182.169 65.1948 155.874 38.5025 122.615 40.0946ZM143.586 100.693C142.466 114.176 131.595 126.913 116.122 126.913C103.012 126.913 92.2656 116.913 92.8875 100.469C93.5095 89.5736 102.614 74.822 118.834 74.0757C133.237 73.404 144.804 84.872 143.586 100.693Z" fill="#EB5D0B"/>
<path d="M121.47 48.6271C89.1064 50.1695 70.7725 79.7723 69.3794 101.589C69.3794 130.595 87.1909 154.551 116.371 154.551C147.143 154.551 168.487 127.585 170.676 101.763C172.517 70.0705 150.004 47.2589 121.47 48.6271ZM143.586 100.693C142.466 114.176 131.595 126.913 116.122 126.913C103.012 126.913 92.2657 116.913 92.8876 100.469C93.5095 89.5736 102.614 74.8219 118.834 74.0756C133.237 73.404 144.804 84.872 143.586 100.693Z" fill="#4EBFD9"/>
<path d="M120.575 56.8613C93.7085 58.13 78.31 82.7575 77.2404 100.868C77.2404 124.973 92.0169 145.222 116.296 144.923C143.063 144.65 159.457 122.037 161.298 101.116C162.84 74.6976 144.158 55.7169 120.575 56.8613ZM143.586 100.693C142.466 114.176 131.595 126.913 116.122 126.913C103.012 126.913 92.2657 116.913 92.8876 100.469C93.5095 89.5736 102.614 74.822 118.834 74.0757C133.237 73.404 144.804 84.872 143.586 100.693Z" fill="#FFEB00"/>
<path d="M119.729 65.5679C98.2111 66.5879 85.9471 86.2651 85.0018 100.793C85.0018 120.097 96.4449 135.868 115.998 135.868C136.446 135.868 150.874 118.977 152.342 100.992C153.586 79.8221 138.635 64.6475 119.729 65.5679ZM143.586 100.693C142.466 114.176 131.595 126.913 116.122 126.913C103.012 126.913 92.2657 116.913 92.8876 100.469C93.5095 89.5736 102.614 74.8219 118.834 74.0757C133.237 73.404 144.804 84.872 143.586 100.693ZM167.044 197.238V187.91C166.944 187.064 167.566 186.268 168.412 186.168C169.258 186.069 170.054 186.691 170.153 187.537C170.178 187.661 170.178 187.785 170.153 187.91V196.119C170.153 196.393 170.253 196.666 170.427 196.89C172.542 199.701 173.785 201.119 175.552 203.234C175.776 203.507 176.099 203.657 176.472 203.657H176.671C180.303 203.209 183.015 200.149 183.015 196.492V187.761C183.015 186.915 183.711 186.218 184.557 186.218C185.403 186.218 186.099 186.915 186.099 187.761V196.517C185.975 202.338 181.174 206.94 175.353 206.841C174.979 206.866 174.631 206.716 174.382 206.443C172.019 203.731 170.825 202.214 169.009 200.099L167.367 197.985C167.143 197.761 167.044 197.487 167.044 197.238ZM72.7377 189.427C68.8819 189.726 65.8221 192.786 65.5485 196.641C65.5485 200.622 68.7824 203.856 72.7626 203.856C76.7428 203.856 79.9767 200.622 79.9767 196.641C79.9767 192.661 76.7428 189.427 72.7377 189.427C72.7626 189.427 72.7626 189.427 72.7377 189.427ZM64.031 209.95C63.1355 209.975 62.3892 209.279 62.3394 208.383C62.3394 208.358 62.3394 208.308 62.3394 208.284V196.666C62.6131 191.094 67.0908 186.616 72.6631 186.343C78.3598 186.343 82.9868 190.97 82.9868 196.666C82.9868 202.363 78.3598 206.99 72.6631 206.99C70.0013 206.99 67.4391 205.97 65.5236 204.104V208.333C65.5485 209.229 64.8271 209.975 63.9315 210H63.9066L64.031 209.95ZM95.2757 189.328C91.2955 189.303 88.0367 192.512 88.0118 196.517C87.9869 200.497 91.196 203.756 95.2011 203.781C99.1813 203.806 102.44 200.597 102.465 196.592C102.465 196.567 102.465 196.567 102.465 196.542C102.465 192.562 99.231 189.328 95.2508 189.328H95.2757ZM95.2757 206.89C89.579 206.89 84.952 202.239 84.9769 196.542C84.9769 190.845 89.6288 186.218 95.3254 186.243C101.022 186.243 105.624 190.87 105.624 196.567C105.624 202.263 100.972 206.89 95.2757 206.89ZM118.087 206.741C112.391 206.741 107.764 202.139 107.764 196.442V184.551C107.764 183.706 108.46 183.009 109.306 183.009C110.152 183.009 110.848 183.706 110.848 184.551V196.442C110.848 200.423 114.082 203.632 118.038 203.632C118.883 203.632 119.58 204.303 119.58 205.149C119.58 206.02 118.908 206.716 118.038 206.741H118.087ZM128.784 189.328C124.804 189.328 121.545 192.537 121.545 196.517C121.545 200.497 124.754 203.756 128.734 203.756C132.715 203.756 135.973 200.547 135.973 196.567V196.542C135.998 192.562 132.764 189.353 128.784 189.328ZM128.784 206.89C123.087 206.89 118.46 202.263 118.46 196.567C118.46 190.87 123.087 186.243 128.784 186.243C134.481 186.243 139.108 190.87 139.108 196.567C139.108 202.263 134.506 206.89 128.784 206.89ZM156.471 188.183H163.561C164.407 188.084 165.203 188.706 165.303 189.552C165.402 190.397 164.78 191.193 163.934 191.293C163.81 191.318 163.686 191.318 163.561 191.293H156.496V196.542C156.521 200.497 159.755 203.681 163.711 203.681C164.556 203.781 165.178 204.552 165.079 205.423C165.004 206.144 164.432 206.716 163.711 206.791C158.014 206.791 153.387 202.189 153.387 196.492V184.626C153.387 183.78 154.083 183.084 154.929 183.084C155.775 183.084 156.471 183.78 156.471 184.626V188.183Z" fill="#E52821"/>
<path d="M61.3195 176.094L61.7424 101.937H69.3794L69.3545 175.646L61.3195 176.094Z" fill="#EB5D0B"/>
<path d="M87.8128 176.367V171.69L69.3546 170.422V175.646L87.8128 176.367Z" fill="url(#paint4_linear_356_1339)"/>
<path d="M61.3195 176.094L80.5738 176.89L87.763 176.367L69.3794 175.646C69.3545 175.646 61.3195 176.094 61.3195 176.094Z" fill="#662618"/>
<path d="M95.2259 171.367V166.665L77.5388 164.924L77.5637 170.024C77.5389 170.024 95.2259 171.367 95.2259 171.367Z" fill="url(#paint5_linear_356_1339)"/>
<path d="M69.3546 170.422L87.8128 171.69L95.2011 171.342L77.5389 170.024C77.5637 170.024 69.3546 170.422 69.3546 170.422Z" fill="url(#paint6_linear_356_1339)"/>
<path d="M69.3546 170.422L69.3794 101.937L77.2404 101.863L77.5389 169.999C77.5389 170.024 69.3546 170.422 69.3546 170.422Z" fill="#4EBFD9"/>
<path d="M77.514 164.924L77.2652 101.887H85.0266L85.6983 164.427L77.514 164.924Z" fill="#FFEB00"/>
<path d="M85.6734 159.601L85.0266 101.887H93.0119L93.7334 158.954C93.7085 158.929 85.6734 159.601 85.6734 159.601Z" fill="#E52821"/>
<path d="M108.784 107.932C109.381 98.0813 117.714 84.6978 132.54 84.1008C135.053 83.9764 137.59 84.2749 140.003 84.9964C135.526 77.7325 127.391 73.5532 118.883 74.1005C102.664 74.8717 93.5344 89.5985 92.9373 100.494C92.2408 116.913 102.987 126.938 116.172 126.938C110.848 122.112 108.112 115.072 108.784 107.932Z" fill="url(#paint7_linear_356_1339)"/>
<defs>
<linearGradient id="paint0_linear_356_1339" x1="125" y1="165.867" x2="125" y2="64.3787" gradientUnits="userSpaceOnUse">
<stop stop-color="#662618"/>
<stop offset="0.07" stop-color="#7F2B17"/>
<stop offset="0.19" stop-color="#A43316"/>
<stop offset="0.31" stop-color="#C13A14"/>
<stop offset="0.43" stop-color="#D53E14"/>
<stop offset="0.55" stop-color="#E24113"/>
<stop offset="0.66" stop-color="#E64213"/>
</linearGradient>
<linearGradient id="paint1_linear_356_1339" x1="94.2197" y1="160.743" x2="93.389" y2="181.51" gradientUnits="userSpaceOnUse">
<stop stop-color="#4D4000"/>
<stop offset="0.08" stop-color="#6A5C00"/>
<stop offset="0.23" stop-color="#978700"/>
<stop offset="0.37" stop-color="#BDAB00"/>
<stop offset="0.52" stop-color="#DAC700"/>
<stop offset="0.66" stop-color="#EEDB00"/>
<stop offset="0.8" stop-color="#FBE700"/>
<stop offset="0.94" stop-color="#FFEB00"/>
</linearGradient>
<linearGradient id="paint2_linear_356_1339" x1="77.1361" y1="165.54" x2="127.289" y2="165.54" gradientUnits="userSpaceOnUse">
<stop stop-color="#4D4000"/>
<stop offset="0.27" stop-color="#4F4200"/>
<stop offset="0.41" stop-color="#574A00"/>
<stop offset="0.53" stop-color="#655700"/>
<stop offset="0.62" stop-color="#786900"/>
<stop offset="0.71" stop-color="#918100"/>
<stop offset="0.79" stop-color="#B09F00"/>
<stop offset="0.87" stop-color="#D3C100"/>
<stop offset="0.94" stop-color="#FFEB00"/>
</linearGradient>
<linearGradient id="paint3_linear_356_1339" x1="94.5932" y1="159.027" x2="97.9931" y2="170.789" gradientUnits="userSpaceOnUse">
<stop stop-color="#7A1D16"/>
<stop offset="0.96" stop-color="#C5191D"/>
</linearGradient>
<linearGradient id="paint4_linear_356_1339" x1="78.5931" y1="171.104" x2="78.5931" y2="181.641" gradientUnits="userSpaceOnUse">
<stop stop-color="#662618"/>
<stop offset="0.89" stop-color="#E64213"/>
</linearGradient>
<linearGradient id="paint5_linear_356_1339" x1="86.3642" y1="165.799" x2="86.1472" y2="176.648" gradientUnits="userSpaceOnUse">
<stop offset="0.03" stop-color="#033138"/>
<stop offset="0.95" stop-color="#4EBFD9"/>
</linearGradient>
<linearGradient id="paint6_linear_356_1339" x1="70.4209" y1="170.861" x2="120.489" y2="170.861" gradientUnits="userSpaceOnUse">
<stop offset="0.03" stop-color="#033138"/>
<stop offset="0.15" stop-color="#06363E"/>
<stop offset="0.3" stop-color="#0E454F"/>
<stop offset="0.47" stop-color="#1B5E6B"/>
<stop offset="0.66" stop-color="#2D8092"/>
<stop offset="0.87" stop-color="#44ACC3"/>
<stop offset="0.95" stop-color="#4EBFD9"/>
</linearGradient>
<linearGradient id="paint7_linear_356_1339" x1="92.9949" y1="100.485" x2="140.001" y2="100.485" gradientUnits="userSpaceOnUse">
<stop offset="0.04" stop-color="#C5191D"/>
<stop offset="1" stop-color="#7A1D16"/>
</linearGradient>
</defs>
</svg>
