<svg width="250" height="250" viewBox="0 0 250 250" fill="none" xmlns="http://www.w3.org/2000/svg">
<rect width="250" height="250" fill="#00283D"/>
<path d="M97.9782 97.6883C107.375 99.0248 118.472 90.3979 127.383 83.6746C135.766 77.3563 146.054 69.661 153.79 69.742C158.853 69.7825 163.267 72.6986 164.644 76.6273C164.523 75.1287 163.794 70.6735 163.267 68.5269C162.295 65.6108 159.622 59.1305 150.671 59.171C141.477 59.2115 131.19 67.1903 122.968 73.2251C112.761 80.718 103.648 88.5348 93.9685 86.7528C88.7843 85.7807 86.5162 83.3911 85.7871 81.2445C85.8681 82.6216 86.5567 86.9148 87.1237 89.2639C88.4198 92.0585 91.0524 96.7162 97.9782 97.6883Z" fill="#00FF80"/>
<path d="M138.075 42.1196C119.687 36.0444 101.178 43.4562 91.1739 58.8874C91.1739 58.8874 93.2395 63.3426 101.745 56.2548C114.989 45.1978 121.874 40.1351 138.075 42.1196Z" fill="#99FF3B"/>
<path d="M117.176 54.3107C113.085 57.3079 107.172 61.8036 103 64.6387C98.0187 67.9194 91.0929 72.6176 87.7312 66.4208C87.2452 67.9599 86.3137 71.119 86.3137 72.5366C86.4757 74.5617 88.4603 78.8549 94.2116 78.9359C101.623 79.0574 108.509 72.6581 118.999 64.8817C130.015 56.7003 137.711 51.3136 146.702 52.3666C153.83 53.2172 157.232 56.5383 159.825 59.9C157.557 55.5663 153.02 50.3011 147.107 46.5344C140.586 42.3627 130.299 44.6713 117.176 54.3107Z" fill="#E3FA14"/>
<path d="M112.316 115.104C130.704 121.22 149.213 113.767 159.217 98.3363C159.217 98.3363 157.151 93.8811 148.646 100.969C135.402 112.026 128.517 117.048 112.316 115.104Z" fill="#0ADB99"/>
<path d="M133.255 102.913C137.346 99.9158 143.259 95.4201 147.431 92.6255C152.372 89.3044 159.339 84.6466 162.7 90.8029C163.186 89.2638 164.118 86.1047 164.118 84.6871C163.956 82.662 161.971 78.3688 156.22 78.2878C148.808 78.1663 141.923 84.5656 131.433 92.342C120.416 100.523 112.721 105.91 103.729 104.857C96.6012 104.007 93.199 100.685 90.6069 97.3237C92.875 101.657 97.4112 106.923 103.324 110.689C109.805 114.861 120.092 112.552 133.255 102.913Z" fill="#0ADB99"/>
<path d="M77.2413 143.901C72.7051 143.901 70.518 146.088 69.9914 150.503L69.5459 150.462L70.1129 144.427H64.1997V172.779H70.3154V166.217L69.8699 161.479L70.2749 161.438C71.004 163.868 73.0696 165.691 76.9983 165.691C82.5065 165.691 86.0302 161.317 86.0302 154.796C85.9897 148.235 82.5065 143.901 77.2413 143.901ZM75.3377 160.547C72.0165 160.547 70.2344 158.522 70.2344 154.796C70.2344 151.029 72.0165 149.045 75.3377 149.045C78.6183 149.045 80.3599 151.029 80.3599 154.796C80.3599 158.522 78.6183 160.547 75.3377 160.547Z" fill="#0ADB99"/>
<path d="M104.297 154.796C104.297 151.11 102.514 149.085 99.1933 149.085C95.8721 149.085 94.09 151.11 94.09 154.796C94.09 158.522 95.8721 160.507 99.1933 160.507C102.514 160.507 104.297 158.522 104.297 154.796ZM109.926 154.796C109.926 161.357 105.633 165.691 99.1528 165.691C92.6725 165.691 88.3793 161.357 88.3793 154.796C88.3793 148.235 92.6725 143.901 99.1528 143.901C105.633 143.901 109.926 148.194 109.926 154.796Z" fill="#0ADB99"/>
<path d="M123.332 159.656L123.859 164.759C122.522 165.407 121.105 165.691 119.404 165.691C115.394 165.691 113.166 163.058 113.166 158.806V136.57H118.999V157.915C118.999 159.413 119.647 160.183 120.943 160.183C121.753 160.183 122.32 160.021 123.332 159.656Z" fill="#0ADB99"/>
<path d="M142.733 145.156L142.206 150.219C139.655 149.126 137.184 148.559 134.835 148.559C132.648 148.559 131.716 149.004 131.716 150.057C131.716 150.786 132.202 151.151 133.66 151.475L138.278 152.528C142.125 153.419 143.705 155.727 143.705 158.968C143.705 163.342 140.424 165.65 134.997 165.65C131.109 165.65 128.719 165.367 126.613 164.678L127.18 159.454C129.529 160.466 131.959 160.912 135.037 160.912C137.427 160.912 138.278 160.507 138.318 159.332C138.318 158.441 137.792 158.036 136.01 157.55L131.392 156.375C127.869 155.484 126.33 153.621 126.33 150.26C126.33 146.25 129.61 143.86 135.078 143.86C137.751 143.901 140.384 144.306 142.733 145.156Z" fill="#0ADB99"/>
<path d="M162.295 147.627L161.85 147.668C160.918 145.44 159.258 143.901 155.329 143.901C149.699 143.901 146.175 148.275 146.175 154.796C146.175 161.357 149.659 165.691 154.924 165.691C159.46 165.691 161.647 163.301 162.174 158.603L162.619 158.644L161.931 165.124H167.925V144.387H161.971L162.295 147.627ZM156.787 160.547C153.506 160.547 151.805 158.522 151.805 154.796C151.805 151.029 153.547 149.045 156.787 149.045C160.108 149.045 161.89 151.029 161.89 154.796C161.85 158.522 160.068 160.547 156.787 160.547Z" fill="#0ADB99"/>
<path d="M186.272 164.759C185.017 165.286 183.64 165.691 181.169 165.691C177.038 165.691 174.405 163.342 174.405 158.806V149.733H171.246V144.427H174.405V140.094L180.238 139.243V144.427H185.138V149.733H180.238V157.267C180.238 159.494 180.845 160.183 182.87 160.183C183.802 160.183 184.652 160.021 185.746 159.575L186.272 164.759Z" fill="#0ADB99"/>
<path d="M76.8362 180.677L77.1603 183.876L76.7147 183.917C75.7832 181.689 74.1226 180.15 70.1939 180.15C64.5237 180.11 61 184.322 61 190.64C61 196.999 64.4832 201.171 69.7484 201.171C74.4466 201.171 76.7552 198.781 77.2818 194.083L77.6058 194.123L77.4033 199.105C77.2413 202.872 75.1757 204.816 71.409 204.816C68.9384 204.816 67.2778 204.249 63.7946 202.629L62.4176 207.651C65.6577 209.311 68.3308 210 71.4495 210C78.8613 210 82.79 206.76 82.79 199.105V180.677H76.8362ZM71.652 195.986C68.3713 195.986 66.6298 194.123 66.6298 190.64C66.6298 187.157 68.3713 185.294 71.652 185.294C74.9732 185.294 76.7147 187.157 76.7147 190.64C76.7147 194.123 74.9326 195.986 71.652 195.986Z" fill="#0ADB99"/>
<path d="M102.109 180.677L102.433 183.876L101.988 183.917C101.056 181.689 99.3958 180.15 95.4671 180.15C89.8373 180.15 86.3137 184.524 86.3137 191.045C86.3137 197.606 89.7968 201.94 95.0621 201.94C99.5983 201.94 101.785 199.55 102.312 194.852L102.757 194.893L102.069 201.373H108.104V180.636L102.109 180.677ZM96.8847 196.796C93.604 196.796 91.8624 194.771 91.8624 191.045C91.8624 187.278 93.604 185.294 96.8847 185.294C100.206 185.294 101.947 187.278 101.947 191.045C101.947 194.771 100.206 196.796 96.8847 196.796Z" fill="#0ADB99"/>
<path d="M145.77 188.291V201.373H139.938V189.02C139.938 186.509 138.764 185.132 136.617 185.132C133.458 185.132 132.121 186.468 132.121 189.466V201.373H126.289V189.02C126.289 186.509 125.114 185.132 122.968 185.132C119.809 185.132 118.472 186.468 118.472 189.466V201.373H112.64V180.636H118.027L117.46 186.671L117.905 186.711C118.391 182.175 120.538 179.948 124.871 179.948C128.719 179.948 131.23 182.135 131.595 186.711H131.919C132.324 181.973 134.551 179.948 138.44 179.948C143.057 179.948 145.77 182.985 145.77 188.291Z" fill="#0ADB99"/>
<path d="M169.14 190.64C169.14 184.362 165.252 180.15 159.42 180.15C153.425 180.15 149.213 184.646 149.213 191.045C149.213 197.647 153.101 201.94 160.27 201.94C162.741 201.94 165.495 201.373 168.047 200.158L167.601 194.933C164.725 196.229 162.498 196.715 160.513 196.715C156.868 196.715 155.248 195.379 154.843 192.584H169.019C169.1 191.977 169.14 191.288 169.14 190.64ZM154.924 188.939C155.41 186.428 156.949 185.091 159.42 185.091C161.688 185.091 163.267 186.306 163.632 188.939H154.924Z" fill="#0ADB99"/>
<path d="M188.5 181.365L187.973 186.428C185.422 185.334 182.951 184.767 180.602 184.767C178.415 184.767 177.483 185.213 177.483 186.266C177.483 186.995 177.969 187.359 179.428 187.683L184.045 188.736C187.892 189.628 189.472 191.936 189.472 195.176C189.472 199.551 186.191 201.859 180.764 201.859C176.876 201.859 174.486 201.576 172.38 200.887L172.947 195.662C175.296 196.675 177.726 197.12 180.805 197.12C183.194 197.12 184.045 196.715 184.085 195.541C184.085 194.65 183.559 194.245 181.777 193.759L177.159 192.584C173.636 191.693 172.137 189.83 172.137 186.468C172.137 182.459 175.418 180.069 180.886 180.069C183.559 180.11 186.191 180.555 188.5 181.365Z" fill="#0ADB99"/>
</svg>
