<svg width="250" height="250" viewBox="0 0 250 250" fill="none" xmlns="http://www.w3.org/2000/svg">
<rect width="250" height="250" fill="#207102"/>
<path d="M87.9381 99.6381H40V116.548H87.9381V99.6381Z" fill="#B3F10B"/>
<path d="M63.1093 110.685H64.9484C65.0945 111.522 65.7265 111.924 66.8311 111.924C67.7801 111.924 68.4178 111.624 68.4178 110.965C68.4178 110.442 68.0743 109.996 66.3965 109.899C64.3657 109.783 63.3902 108.737 63.3902 107.5C63.3902 106.127 64.6808 105.114 66.5844 105.114C68.6968 105.114 69.8488 106.365 69.9969 107.703H68.1995C68.1673 106.997 67.541 106.562 66.554 106.562C65.7873 106.562 65.0926 106.881 65.0926 107.488C65.0926 108.265 65.9353 108.443 67.0152 108.513C68.4178 108.604 70.1753 109.141 70.1753 110.831C70.1753 111.844 69.4731 113.459 66.8596 113.459C64.2461 113.459 63.263 111.776 63.1093 110.685ZM49.2164 105.307L46.973 111.472L44.7297 105.307H42.9285L45.8229 113.264H48.1213L51.0175 105.307C51.0175 105.307 49.2164 105.307 49.2164 105.307ZM51.9172 105.307H53.7069V113.264H51.9172C51.9172 113.264 51.9172 105.307 51.9172 105.307ZM60.3041 112.357C59.805 112.987 58.8427 113.458 57.6546 113.458C56.0072 113.458 55.0696 112.349 55.0431 111.114C55.0222 110.191 55.5991 109.288 56.5671 108.921C57.1099 108.716 57.852 108.549 58.9035 108.432C59.8771 108.323 60.3402 108.046 60.2624 107.564C60.1675 106.974 59.5905 106.577 58.6757 106.577C57.6394 106.577 57.0795 106.991 57.0226 107.701L55.2253 107.695C55.3562 106.746 56.0186 105.632 57.3908 105.275C57.8102 105.165 58.1063 105.114 58.6169 105.114C59.2109 105.114 59.7101 105.207 59.9606 105.285C61.124 105.647 62.0749 106.64 62.0749 108.137V113.272H60.306V112.357C60.306 112.357 60.3041 112.357 60.3041 112.357ZM60.3193 109.931V109.379C60.0536 109.574 59.2641 109.728 58.1595 109.872C57.1327 110.005 56.6715 110.407 56.6715 110.994C56.6715 111.58 57.0757 111.99 57.8634 111.99C58.5447 111.99 59.2242 111.785 59.7025 111.337C60.1048 110.962 60.3174 110.426 60.3174 109.933C60.3174 109.933 60.3193 109.931 60.3193 109.931ZM76.4005 112.357C75.9014 112.987 74.9391 113.458 73.751 113.458C72.1036 113.458 71.166 112.349 71.1394 111.114C71.1186 110.191 71.6955 109.288 72.6635 108.921C73.2063 108.716 73.9484 108.549 74.9998 108.432C75.9735 108.323 76.4366 108.046 76.3588 107.564C76.2639 106.974 75.6869 106.577 74.7721 106.577C73.7358 106.577 73.1759 106.991 73.119 107.701L71.3216 107.695C71.4526 106.746 72.115 105.632 73.4872 105.275C73.9066 105.165 74.2027 105.114 74.7133 105.114C75.3073 105.114 75.8065 105.207 76.057 105.285C77.2204 105.647 78.1713 106.64 78.1713 108.137V113.272H76.4024V112.357L76.4005 112.357ZM76.4157 109.931V109.379C76.15 109.574 75.3605 109.728 74.2559 109.872C73.2291 110.005 72.7679 110.407 72.7679 110.994C72.7679 111.58 73.1721 111.99 73.9598 111.99C74.6411 111.99 75.3206 111.785 75.7989 111.337C76.2012 110.962 76.4138 110.426 76.4138 109.933C76.4138 109.933 76.4157 109.931 76.4157 109.931ZM81.3731 106.203V102.922H79.4828V104.512C79.4828 106.49 81.0865 108.094 83.0642 108.094H84.6546V106.203L81.3731 106.203ZM81.3731 111.374V108.092H79.4828V109.682C79.4828 111.66 81.0865 113.264 83.0642 113.264H84.6546V111.374H81.3731Z" fill="#207102"/>
<path d="M210 116.546H87.938V150.363H210V116.546Z" fill="#B3F10B"/>
<path d="M107.567 123.109H112V143.801H107.27L98.9651 130.115V143.801H94.503V123.109H99.2611L107.567 136.796L107.567 123.109ZM125.815 123.109L133.707 143.801H129.097L127.477 139.309H119.976L118.366 143.801H113.754L121.617 123.109C121.617 123.109 125.815 123.109 125.815 123.109ZM126.124 135.555L123.716 128.873L121.322 135.555H126.124ZM131.35 126.953H137.468V143.801H141.931V126.953H148.049V123.109H131.35L131.35 126.953ZM162.252 136.175C162.252 137.496 161.878 138.491 161.128 139.161C160.378 139.833 159.384 140.167 158.143 140.167C157.334 140.167 156.626 140.019 156.015 139.723C155.404 139.427 154.922 138.982 154.567 138.392C154.212 137.802 154.034 137.062 154.034 136.175V123.109H149.866V136.175C149.866 137.87 150.211 139.309 150.9 140.491C151.591 141.674 152.555 142.56 153.796 143.152C155.038 143.743 156.488 144.039 158.143 144.039C159.798 144.039 161.246 143.743 162.487 143.152C163.728 142.56 164.689 141.674 165.368 140.491C166.05 139.309 166.389 137.87 166.389 136.175V123.109H162.252V136.175ZM185.393 138.096L185.955 143.801H181.493L180.931 138.688C180.872 137.978 180.607 137.407 180.132 136.972C179.66 136.54 179.077 136.323 178.388 136.323H174.395V143.801H169.902V123.109H178.652C180.09 123.109 181.337 123.386 182.391 123.937C183.444 124.489 184.249 125.258 184.799 126.243C185.35 127.228 185.627 128.361 185.627 129.642C185.627 130.923 185.287 131.903 184.608 132.702C184.179 133.203 183.655 133.619 183.033 133.95C183.216 134.074 183.392 134.209 183.56 134.357C184.625 135.293 185.236 136.54 185.393 138.096ZM174.4 132.48H178.39C179.039 132.48 179.587 132.353 180.03 132.096L180.028 132.094C180.472 131.838 180.8 131.495 181.019 131.06C181.235 130.627 181.345 130.155 181.345 129.642C181.345 128.815 181.098 128.135 180.607 127.602C180.113 127.07 179.375 126.805 178.39 126.805H174.4L174.4 132.48ZM193.475 139.96V135.141H201.159V131.297H193.475V126.953H203.11V123.109H189.013V143.803H203.437V139.96L193.475 139.96Z" fill="#207102"/>
<path d="M210 99.6371H87.938V116.547H210V99.6371Z" fill="#207102"/>
<path d="M98.8931 104.453C97.3685 104.453 96.6257 105.197 96.4563 106.685L96.3065 106.672L96.5085 104.636H94.5082V114.203H96.5737V111.984L96.4043 110.391L96.5477 110.378C96.7888 111.201 97.4924 111.814 98.802 111.814C100.659 111.814 101.838 110.339 101.838 108.134C101.838 105.915 100.659 104.453 98.8931 104.453ZM98.2611 110.072C97.1469 110.072 96.5476 109.393 96.5476 108.134C96.5476 106.868 97.1469 106.189 98.2611 106.189C99.3622 106.189 99.9421 106.868 99.9421 108.134C99.9421 109.393 99.3622 110.072 98.2611 110.072ZM108.009 108.131C108.009 106.882 107.412 106.205 106.284 106.205C105.157 106.205 104.56 106.882 104.56 108.131C104.56 109.393 105.157 110.057 106.284 110.057C107.412 110.057 108.009 109.393 108.009 108.131ZM109.906 108.131C109.906 110.35 108.46 111.811 106.284 111.811C104.109 111.811 102.663 110.349 102.663 108.131C102.663 105.912 104.109 104.451 106.284 104.451C108.46 104.451 109.906 105.912 109.906 108.131ZM114.416 109.765L114.589 111.492C114.137 111.705 113.66 111.812 113.089 111.812C111.736 111.812 110.993 110.921 110.993 109.486V101.98H112.957V109.18C112.957 109.686 113.169 109.951 113.607 109.951C113.886 109.951 114.072 109.898 114.416 109.765ZM120.943 104.876L120.77 106.59C119.908 106.218 119.085 106.032 118.29 106.032C117.547 106.032 117.242 106.178 117.242 106.536C117.242 106.789 117.401 106.909 117.891 107.015L119.444 107.374C120.744 107.679 121.274 108.449 121.274 109.553C121.274 111.027 120.173 111.811 118.342 111.811C117.029 111.811 116.234 111.718 115.517 111.479L115.703 109.712C116.499 110.057 117.308 110.203 118.342 110.203C119.152 110.203 119.43 110.071 119.444 109.672C119.444 109.367 119.271 109.233 118.661 109.074L117.109 108.676C115.929 108.37 115.411 107.746 115.411 106.616C115.411 105.261 116.512 104.451 118.356 104.451C119.271 104.451 120.16 104.597 120.943 104.876ZM127.431 104.636L127.535 105.712L127.392 105.726C127.072 104.969 126.512 104.453 125.19 104.453C123.294 104.453 122.095 105.928 122.095 108.134C122.095 110.352 123.274 111.814 125.04 111.814C126.564 111.814 127.314 110.998 127.483 109.419L127.639 109.432L127.405 111.625H129.431V104.636L127.431 104.636ZM125.678 110.072C124.577 110.072 123.997 109.393 123.997 108.134C123.997 106.868 124.577 106.189 125.678 106.189C126.792 106.189 127.392 106.868 127.392 108.134C127.392 109.393 126.792 110.072 125.678 110.072ZM135.614 111.494C135.191 111.677 134.728 111.814 133.888 111.814C132.5 111.814 131.607 111.012 131.607 109.497V106.43H130.545V104.636H131.607V103.174L133.569 102.88V104.636H135.23V106.43H133.569V108.969C133.569 109.726 133.784 109.954 134.461 109.954C134.78 109.954 135.054 109.896 135.425 109.752L135.614 111.494Z" fill="#B3F10B"/>
</svg>
