<svg width="250" height="250" viewBox="0 0 250 250" fill="none" xmlns="http://www.w3.org/2000/svg">
<rect width="250" height="250" fill="#00283D"/>
<path d="M31 143.301H35.7444L35.0839 150.019V152.906L35.9029 160.663V165.909H31V143.297V143.308V143.301ZM35.8388 156.866L34.2347 156.987V148.004L35.6199 148.124C36.0237 144.607 37.7901 142.851 41.4022 142.851C45.5805 142.851 48.3736 146.305 48.3736 151.551C48.3736 156.798 45.5805 160.251 41.1833 160.251C38.0695 160.251 36.4087 158.81 35.8426 156.854M43.8896 151.544C43.8896 148.562 42.5119 146.958 39.9 146.958C37.2882 146.958 35.8426 148.562 35.8426 151.544C35.8426 154.526 37.258 156.13 39.9 156.13C42.5421 156.13 43.8896 154.526 43.8896 151.544ZM67.4683 151.555C67.4683 156.802 64.0411 160.255 58.8928 160.255C53.7445 160.255 50.3174 156.802 50.3174 151.555C50.3174 146.309 53.7445 142.855 58.8928 142.855C64.0411 142.855 67.4683 146.309 67.4683 151.555ZM62.9767 151.555C62.9767 148.604 61.5613 147 58.8928 147C56.2243 147 54.8089 148.604 54.8089 151.555C54.8089 154.507 56.2243 156.111 58.8928 156.111C61.5613 156.111 62.9767 154.545 62.9767 151.555ZM78.1498 155.424L78.5574 159.508C77.4893 160.006 76.357 160.263 75.0095 160.263C71.8013 160.263 70.0462 158.16 70.0462 154.763V137.016H74.6962V154.046C74.6962 155.235 75.1945 155.866 76.2362 155.866C76.8967 155.866 77.3383 155.745 78.1498 155.424ZM93.6173 143.855L93.2097 147.902C91.1715 147.026 89.2201 146.581 87.3329 146.581C85.5778 146.581 84.8494 146.928 84.8494 147.777C84.8494 148.37 85.2268 148.653 86.3893 148.909L90.0694 149.759C93.1455 150.483 94.3986 152.306 94.3986 154.911C94.3986 158.402 91.7943 160.251 87.4537 160.251C84.3398 160.251 82.4639 160.036 80.7655 159.47L81.2108 155.292C83.098 156.111 85.0117 156.451 87.465 156.451C89.3786 156.451 90.0392 156.141 90.0694 155.198C90.0694 154.473 89.6617 154.16 88.2199 153.782L84.5399 152.839C81.7468 152.114 80.5201 150.642 80.5201 147.97C80.5201 144.761 83.1245 142.848 87.4914 142.848C89.6617 142.848 91.7641 143.195 93.6135 143.855M96.3424 151.555C96.3424 146.339 99.1732 142.855 103.665 142.855C106.809 142.855 108.13 144.082 108.881 145.875L110.485 145.754V154.737L109.096 154.616C108.688 158.353 106.926 160.267 103.314 160.267C99.1355 160.267 96.3424 156.813 96.3424 151.567M108.873 151.563C108.873 148.581 107.458 146.977 104.816 146.977C102.174 146.977 100.826 148.581 100.826 151.563C100.826 154.545 102.204 156.149 104.82 156.149C107.435 156.149 108.877 154.545 108.877 151.563M109.628 152.978V149.996L108.968 143.308H113.712V159.829H108.907L109.632 152.978H109.625H109.628ZM127.443 147.535H116.354V143.301H127.44V147.535H127.443ZM127.915 155.386L128.361 159.5C127.353 159.942 126.255 160.255 124.273 160.255C120.97 160.255 118.864 158.368 118.864 154.794V139.839L123.514 139.153V153.541C123.514 155.333 124.013 155.862 125.62 155.862C126.375 155.862 127.036 155.741 127.911 155.39M152.083 143.855L151.675 147.902C149.637 147.026 147.682 146.581 145.795 146.581C144.04 146.581 143.315 146.928 143.315 147.777C143.315 148.37 143.692 148.653 144.851 148.909L148.531 149.759C151.607 150.483 152.864 152.306 152.864 154.911C152.864 158.402 150.26 160.251 145.919 160.251C142.805 160.251 140.929 160.036 139.231 159.47L139.676 155.292C141.563 156.111 143.477 156.451 145.93 156.451C147.844 156.451 148.508 156.141 148.535 155.198C148.535 154.473 148.127 154.16 146.685 153.782L143.005 152.839C140.212 152.114 138.986 150.642 138.986 147.97C138.986 144.761 141.59 142.848 145.957 142.848C148.127 142.848 150.23 143.195 152.079 143.855M155.751 143.301H160.496L159.835 150.019V152.906L160.654 160.663V165.909H155.755V143.297L155.748 143.304L155.751 143.301ZM160.594 156.866L158.99 156.987V148.004L160.379 148.124C160.783 144.607 162.549 142.851 166.165 142.851C170.343 142.851 173.136 146.305 173.136 151.551C173.136 156.798 170.343 160.251 165.946 160.251C162.832 160.251 161.172 158.81 160.605 156.854M168.641 151.544C168.641 148.562 167.252 146.958 164.652 146.958C162.051 146.958 160.594 148.562 160.594 151.544C160.594 154.526 162.009 156.13 164.652 156.13C167.294 156.13 168.641 154.526 168.641 151.544ZM192.231 151.555C192.231 156.802 188.804 160.255 183.656 160.255C178.507 160.255 175.08 156.802 175.08 151.555C175.08 146.309 178.507 142.855 183.656 142.855C188.804 142.855 192.231 146.309 192.231 151.555ZM187.74 151.555C187.74 148.604 186.324 147 183.652 147C180.98 147 179.564 148.604 179.564 151.555C179.564 154.507 180.98 156.111 183.652 156.111C186.324 156.111 187.74 154.545 187.74 151.555ZM194.998 143.289H199.425L198.765 150.921L199.64 152.242V159.81H194.99V143.289H194.998ZM206.31 148.132L204.581 147.973C200.806 147.626 199.648 149.604 199.648 152.812L197.987 152.529L198.055 148.132L199.444 148.253C199.942 144.641 201.425 142.848 204.154 142.848C205.072 142.848 205.883 143.006 206.664 143.319L206.317 148.121V148.132H206.31ZM218.803 147.535H207.717V143.301H218.803V147.535ZM219.275 155.386L219.72 159.5C218.708 159.942 217.618 160.255 215.632 160.255C212.33 160.255 210.227 158.368 210.227 154.794V139.839L214.877 139.153V153.541C214.877 155.333 215.376 155.862 216.98 155.862C217.735 155.862 218.395 155.741 219.271 155.39" fill="#0098FF"/>
<path d="M72.0832 180.66C72.0832 175.481 75.4802 171.858 80.3114 171.858C85.1426 171.858 88.1621 175.255 88.1621 180.339C88.1621 180.875 88.1357 181.422 88.0678 181.924H76.62C76.9673 184.272 78.3638 185.264 81.1946 185.264C82.8855 185.264 84.7237 184.823 86.9128 183.83L87.2601 188.027C85.3804 188.952 83.1573 189.461 80.9946 189.461C75.4009 189.461 72.0605 186.189 72.0605 180.66H72.0794H72.0832ZM76.688 178.972H83.7083C83.4253 176.972 82.2477 175.889 80.3114 175.889C78.3751 175.889 77.0654 176.934 76.688 178.972ZM94.6541 180.724L88.9661 172.299H94.6843L97.5415 177.131L100.399 172.299H105.902L100.308 180.403L106.091 189.016H100.429L97.4094 183.996L94.4201 189.016H88.9585L94.6466 180.724H94.6579H94.6541ZM118.433 184.536L118.878 188.695C117.644 189.231 116.436 189.458 114.745 189.458C111.284 189.458 109.284 187.42 109.284 183.928V176.587H106.744V172.296H109.284V168.797L113.99 168.098V172.296H117.961V176.587H113.99V182.652C113.99 184.464 114.5 185 116.123 185C116.916 185 117.587 184.879 118.444 184.521L118.433 184.528V184.536ZM133.021 177.198L131.277 177.04C127.842 176.719 126.287 178.274 126.287 181.935V189.02H121.581V172.303H126.061L125.616 177.293L126.061 177.319C126.57 173.601 128.099 171.858 130.828 171.858C131.809 171.858 132.451 171.978 133.376 172.367L133.025 177.198H133.021ZM134.323 180.66C134.323 175.319 137.248 171.858 141.728 171.858C144.491 171.858 146.118 172.782 147.005 174.904L147.356 174.877L147.103 172.303H151.904V189.02H147.043L147.579 183.773L147.228 183.747C146.813 187.623 144.937 189.465 141.377 189.465C137.15 189.465 134.319 185.936 134.319 180.663L134.323 180.66ZM147.005 180.66C147.005 177.64 145.571 176.017 142.902 176.017C140.234 176.017 138.864 177.64 138.864 180.66C138.864 183.679 140.26 185.302 142.902 185.302C145.544 185.302 147.005 183.679 147.005 180.66ZM176.313 180.535H179.05V184.536H176.313V189.016H171.859V184.536H160.959V180.025L170.15 168.166H176.321V180.524L176.313 180.535ZM171.859 172.714L165.885 180.535H171.859V172.714Z" fill="#00E1FF"/>
<path d="M103.609 106.025C111.12 107.089 119.952 100.205 127.067 94.8562C133.747 89.8363 141.975 83.6689 148.135 83.7331C152.166 83.7783 155.703 86.0921 156.809 89.2248C156.703 88.0283 156.129 84.4804 155.726 82.7706C154.941 80.4493 152.812 75.2897 145.697 75.3161C138.356 75.3426 130.146 81.7024 123.598 86.5148C115.475 92.4859 108.191 98.7401 100.453 97.3058C96.3014 96.5434 94.5086 94.6184 93.916 92.9086C93.9915 93.9919 94.5388 97.419 94.9804 99.2874C95.9731 101.522 98.0943 105.232 103.605 106.013" fill="#0098FF"/>
<path d="M135.577 61.6943C120.905 56.8367 106.155 62.77 98.1836 75.0708C98.1836 75.0708 99.833 78.6187 106.608 72.9571C117.176 64.1477 122.687 60.1393 135.577 61.6943Z" fill="#00BDFF"/>
<path d="M118.906 71.421C115.66 73.7989 110.934 77.4034 107.594 79.6379C103.638 82.2799 98.1089 86.0053 95.4328 81.091C95.0441 82.3064 94.3081 84.8465 94.293 85.96C94.4251 87.5641 95.9914 90.9799 100.585 91.063C106.499 91.1649 111.984 86.0543 120.351 79.8455C129.153 73.3157 135.279 69.0356 142.451 69.8659C148.131 70.5265 150.86 73.2063 152.932 75.8861C151.128 72.4325 147.497 68.2429 142.798 65.2272C137.589 61.8869 129.399 63.7363 118.906 71.4172" fill="#00E1FF"/>
<path d="M115.064 119.914C129.735 124.772 144.486 118.839 152.468 106.538C152.468 106.538 150.819 102.99 144.033 108.652C133.464 117.465 127.954 121.473 115.064 119.914ZM131.739 110.188C134.985 107.81 139.711 104.205 143.051 101.971C147.007 99.3288 152.533 95.6035 155.216 100.518C155.605 99.3024 156.341 96.7622 156.36 95.6488C156.228 94.0447 154.661 90.6288 150.068 90.5458C144.153 90.4439 138.669 95.5544 130.301 101.763C121.499 108.293 115.374 112.573 108.202 111.743C102.522 111.082 99.7928 108.402 97.7207 105.723C99.5249 109.176 103.156 113.366 107.855 116.382C113.064 119.722 121.254 117.872 131.747 110.192" fill="#0073FF"/>
</svg>
