<svg width="250" height="250" viewBox="0 0 250 250" fill="none" xmlns="http://www.w3.org/2000/svg">
<rect width="250" height="250" fill="#00283D"/>
<path d="M153.375 169.348V185.892H149.069L149.532 181.081L149.192 181.05C148.78 184.666 147.08 186.458 143.588 186.458C139.839 186.458 137.645 184.037 137.645 179.794V169.348H142.301V179.227C142.301 181.236 143.269 182.307 145.031 182.307C147.616 182.307 148.719 181.236 148.719 178.846V169.348H153.375Z" fill="#00BDFF"/>
<path d="M128.92 165.289C128.92 163.744 129.868 162.889 131.629 162.889C133.39 162.889 134.338 163.744 134.338 165.289C134.338 166.855 133.39 167.679 131.629 167.679C129.868 167.679 128.92 166.855 128.92 165.289ZM129.301 185.891H133.957V169.348H129.301V185.891Z" fill="#00BDFF"/>
<path d="M96.2227 177.3C96.2227 172.273 93.1116 168.905 88.4554 168.905C83.6655 168.905 80.3072 172.489 80.3072 177.619H80.2969C80.2969 182.904 83.418 186.334 89.1457 186.334C91.2883 186.334 93.4106 185.85 95.3472 184.923L94.9971 180.761C92.6999 181.771 90.9074 182.183 89.3313 182.183C86.4265 182.183 85.1283 181.101 84.7988 178.876H96.1301C96.1919 178.361 96.2227 177.836 96.2227 177.3ZM84.85 175.951C85.2517 173.942 86.4673 172.902 88.4554 172.902C90.2787 172.902 91.5151 173.87 91.8137 175.951H84.85Z" fill="#00BDFF"/>
<path d="M57.8599 168.905C54.2441 168.905 52.4827 170.666 52.0707 174.189L51.7206 174.158L52.1944 169.348H47.4453V192H52.359V186.747L51.9573 182.966L52.2974 182.935C52.8639 184.892 54.5327 186.334 57.6438 186.334C62.0528 186.334 64.8546 182.842 64.8546 177.62C64.8546 172.366 62.0525 168.905 57.8599 168.905ZM56.356 182.214C53.7087 182.214 52.2974 180.607 52.2974 177.62C52.2974 174.632 53.7087 173.025 56.356 173.025C58.9621 173.025 60.353 174.632 60.353 177.62C60.353 180.607 58.9621 182.214 56.356 182.214Z" fill="#00BDFF"/>
<path d="M79.4213 169.379L79.0712 174.189L77.3406 174.035C73.5703 173.685 72.4062 175.673 72.4062 178.877V185.892H67.75V169.348H72.1794L71.7571 174.282L72.1794 174.323C72.6841 170.697 74.1676 168.905 76.9078 168.905C77.7629 168.894 78.6177 169.059 79.4213 169.379Z" fill="#00BDFF"/>
<path d="M125.624 175.446V185.891H120.958V176.013C120.958 174.004 120.02 172.932 118.32 172.932C115.796 172.932 114.736 174.004 114.736 176.394V185.891H110.08V176.013C110.08 174.004 109.132 172.932 107.432 172.932C104.908 172.932 103.848 174.004 103.848 176.394V185.891H99.1914V169.347H103.497L103.024 174.158L103.374 174.189C103.786 170.573 105.486 168.781 108.947 168.781C111.996 168.781 114.015 170.511 114.313 174.168L114.54 174.189C114.859 170.408 116.652 168.781 119.763 168.781C123.451 168.781 125.624 171.202 125.624 175.446Z" fill="#00BDFF"/>
<path d="M183.525 175.446V185.891H178.869V176.013C178.869 174.004 177.922 172.932 176.222 172.932C173.708 172.932 172.637 174.004 172.637 176.394H172.627V185.891H167.97V176.013C167.97 174.004 167.033 172.932 165.333 172.932C162.809 172.932 161.749 174.004 161.749 176.394V185.891H157.082V169.347H161.398L160.924 174.158L161.274 174.189C161.686 170.573 163.386 168.781 166.847 168.781C169.907 168.781 171.916 170.511 172.214 174.168L172.441 174.189C172.76 170.408 174.553 168.781 177.664 168.781C181.352 168.781 183.525 171.202 183.525 175.446Z" fill="#00BDFF"/>
<path d="M206.345 182.009V185.891H192.728V182.009H197.901V169.604L194.472 171.511L192.299 168.05L197.214 165.249H202.312V182.009H206.345Z" fill="#00BDFF"/>
<path d="M41.4004 139.867C37.7897 139.867 36.0305 141.626 35.6138 145.144L35.2743 145.113L35.7372 140.299H31V162.921H35.9071V157.675L35.5057 153.909L35.8298 153.878C36.4007 155.823 38.0673 157.273 41.1844 157.273C45.5824 157.273 48.3754 153.786 48.3754 148.57C48.3754 143.324 45.5824 139.867 41.4004 139.867ZM39.8884 153.153C37.2496 153.153 35.8301 151.548 35.8301 148.57C35.8301 145.576 37.2499 143.972 39.8884 143.972C42.4961 143.972 43.8851 145.576 43.8851 148.57C43.8848 151.548 42.4961 153.153 39.8884 153.153Z" fill="#0073FF"/>
<path d="M62.9812 148.567C62.9812 145.614 61.5674 144.01 58.8972 144.01C56.2273 144.01 54.8135 145.614 54.8135 148.567C54.8135 151.552 56.2273 153.121 58.8972 153.121C61.5674 153.121 62.9812 151.551 62.9812 148.567ZM67.474 148.567C67.474 153.813 64.0489 157.268 58.8972 157.268C53.7455 157.268 50.3203 153.813 50.3203 148.567C50.3203 143.321 53.7455 139.865 58.8972 139.865C64.0492 139.865 67.474 143.32 67.474 148.567Z" fill="#0073FF"/>
<path d="M78.1569 152.431L78.5661 156.515C77.4962 157.018 76.3666 157.27 75.0144 157.27C71.8103 157.27 70.0508 155.164 70.0508 151.77V134.021H74.7013V151.048C74.7013 152.243 75.2025 152.871 76.24 152.871C76.9008 152.871 77.3404 152.744 78.1569 152.431Z" fill="#0073FF"/>
<path d="M93.6125 140.87L93.2033 144.923C91.1615 144.043 89.2136 143.603 87.3291 143.603C85.5695 143.603 84.8473 143.949 84.8473 144.796C84.8473 145.394 85.2238 145.676 86.386 145.928L90.0627 146.777C93.1418 147.499 94.3982 149.32 94.3982 151.929C94.3982 155.415 91.7896 157.269 87.454 157.269C84.3442 157.269 82.4597 157.05 80.7636 156.483L81.2035 152.305C83.088 153.122 85.0049 153.468 87.454 153.468C89.3712 153.468 90.0319 153.155 90.0627 152.212C90.0627 151.489 89.6535 151.174 88.209 150.798L84.5323 149.857C81.7374 149.132 80.5117 147.657 80.5117 144.985C80.5117 141.781 83.1185 139.866 87.4864 139.866C89.6535 139.865 91.7588 140.211 93.6125 140.87Z" fill="#0073FF"/>
<path d="M108.972 140.299L109.219 142.845L108.88 142.876C108.124 141.086 106.812 139.867 103.664 139.867C99.1737 139.867 96.3496 143.354 96.3496 148.57C96.3496 153.817 99.1426 157.273 103.325 157.273C106.935 157.273 108.695 155.36 109.096 151.61L109.466 151.641L108.911 156.825H113.725V140.299H108.972V140.299ZM104.821 153.153C102.214 153.153 100.84 151.548 100.84 148.57C100.84 145.576 102.214 143.972 104.821 143.972C107.475 143.972 108.88 145.576 108.88 148.57C108.88 151.548 107.475 153.153 104.821 153.153Z" fill="#0073FF"/>
<path d="M128.355 156.517C127.352 156.949 126.256 157.273 124.281 157.273C120.979 157.273 118.881 155.391 118.881 151.795V144.543H116.365V140.299H118.881V136.843L123.525 136.164V140.299H127.445V144.543H123.525V150.546C123.525 152.336 124.019 152.876 125.624 152.876C126.38 152.876 127.044 152.737 127.923 152.397L128.355 156.517Z" fill="#0073FF"/>
<path d="M152.075 140.882L151.666 144.935C149.624 144.055 147.677 143.615 145.793 143.615C144.033 143.615 143.311 143.961 143.311 144.808C143.311 145.405 143.688 145.687 144.85 145.939L148.526 146.788C151.605 147.51 152.861 149.331 152.861 151.939C152.861 155.425 150.253 157.279 145.918 157.279C142.808 157.279 140.924 157.06 139.228 156.494L139.668 152.316C141.552 153.132 143.469 153.478 145.918 153.478C147.835 153.478 148.494 153.165 148.526 152.222C148.526 151.499 148.117 151.184 146.673 150.808L142.996 149.865C140.202 149.143 138.977 147.668 138.977 144.996C138.977 141.792 141.583 139.877 145.951 139.877C148.117 139.877 150.222 140.223 152.075 140.882Z" fill="#0073FF"/>
<path d="M166.157 139.879C162.531 139.879 160.772 141.638 160.371 145.156L160.016 145.125L160.495 140.311H155.758V162.931H160.649V157.684L160.248 153.919L160.587 153.889C161.158 155.833 162.824 157.283 165.926 157.283C170.323 157.283 173.116 153.796 173.116 148.581C173.116 143.335 170.323 139.879 166.157 139.879ZM164.645 153.164C162.007 153.164 160.587 151.559 160.587 148.581C160.587 145.587 162.007 143.998 164.645 143.998C167.253 143.998 168.626 145.587 168.626 148.581C168.626 151.559 167.253 153.164 164.645 153.164Z" fill="#0073FF"/>
<path d="M187.73 148.578C187.73 145.626 186.316 144.024 183.647 144.024C180.977 144.024 179.563 145.626 179.563 148.578C179.563 151.563 180.977 153.132 183.647 153.132C186.317 153.132 187.73 151.563 187.73 148.578ZM192.223 148.578C192.223 153.824 188.798 157.279 183.647 157.279C178.495 157.279 175.07 153.824 175.07 148.578C175.07 143.332 178.495 139.877 183.647 139.877C188.798 139.877 192.223 143.332 192.223 148.578Z" fill="#0073FF"/>
<path d="M206.643 140.341L206.304 145.155L204.561 145.001C200.796 144.646 199.638 146.637 199.638 149.831V156.836H194.994V140.311H199.422L198.99 145.248L199.422 145.279C199.916 141.669 201.397 139.879 204.128 139.879C205.039 139.879 205.857 140.033 206.643 140.341Z" fill="#0073FF"/>
<path d="M219.266 152.407L219.713 156.527C218.71 156.959 217.615 157.283 215.624 157.283C212.322 157.283 210.224 155.401 210.224 151.806V144.554H207.709V140.31H210.224V136.854L214.868 136.175V140.31H218.803V144.554H214.868V150.556C214.868 152.346 215.377 152.886 216.982 152.886C217.738 152.886 218.386 152.762 219.266 152.407Z" fill="#0073FF"/>
<path d="M103.61 103.04C111.119 104.11 119.953 97.2169 127.067 91.8664C133.746 86.8444 141.973 80.6765 148.136 80.7437C152.168 80.7905 155.7 83.1014 156.805 86.2314C156.698 85.0362 156.127 81.4832 155.72 79.7818C154.937 77.4567 152.805 72.2946 145.689 72.3257C138.345 72.358 130.137 78.7153 123.59 83.5251C115.464 89.4955 108.179 95.7507 100.449 94.3222C96.2987 93.5553 94.5027 91.6369 93.9102 89.9295C94.152 92.074 94.5084 94.2038 94.9782 96.31C95.9737 98.5418 98.0918 102.253 103.605 103.039" fill="#0098FF"/>
<path d="M135.583 58.6966C120.911 53.8345 106.167 59.7684 98.1855 72.0782C98.1855 72.0782 99.8336 75.6224 106.616 69.967C117.184 61.1555 122.69 57.1453 135.583 58.6966Z" fill="#00BDFF"/>
<path d="M118.912 68.4295C115.662 70.8118 110.943 74.4169 107.598 76.6503C103.642 79.2941 98.113 83.0236 95.4353 78.1017C95.0443 79.3189 94.3154 81.8529 94.2891 82.9743C94.4219 84.5736 95.9855 87.9966 100.587 88.0776C106.502 88.1794 111.982 83.0719 120.356 76.8582C129.156 70.3285 135.284 66.0425 142.451 66.8785C148.131 67.5421 150.854 70.2186 152.932 72.8985C151.131 69.446 147.497 65.2546 142.801 62.2383C137.595 58.8933 129.404 60.7454 118.912 68.4295Z" fill="#00E1FF"/>
<path d="M115.068 116.925C129.741 121.787 144.485 115.853 152.466 103.544C152.466 103.544 150.818 99.9995 144.035 105.655C133.467 114.466 127.961 118.476 115.068 116.925ZM131.739 107.191C134.988 104.811 139.708 101.206 143.052 98.9701C147.009 96.3263 152.537 92.5974 155.216 97.5186C155.607 96.3015 156.335 93.7678 156.361 92.6461C156.228 91.0467 154.665 87.6238 150.064 87.5428C144.148 87.441 138.668 92.5484 130.295 98.7622C121.492 105.292 115.367 109.578 108.2 108.742C102.519 108.078 99.7964 105.402 97.7188 102.722C99.5194 106.174 103.154 110.366 107.85 113.382C113.055 116.724 121.247 114.872 131.738 107.188" fill="#0073FF"/>
</svg>
