<svg width="250" height="250" viewBox="0 0 250 250" fill="none" xmlns="http://www.w3.org/2000/svg">
<rect width="250" height="250" fill="#00283D"/>
<path d="M92.6485 114.478C103.818 116.069 116.954 105.818 127.542 97.8581C137.475 90.3889 149.713 81.2125 158.881 81.3151C164.88 81.3837 170.13 84.8241 171.775 89.4781C171.618 87.6993 170.767 82.4172 170.159 79.8845C168.997 76.427 165.825 68.7491 155.241 68.7947C144.319 68.8435 132.111 78.2998 122.374 85.452C110.288 94.3347 99.4527 103.637 87.9546 101.513C81.7845 100.371 79.1148 97.518 78.2299 94.9798C78.3469 96.5929 79.1577 101.69 79.8176 104.47C81.2989 107.789 84.4483 113.311 92.6485 114.478Z" fill="#FFC700"/>
<path d="M140.204 48.5237C118.381 41.2916 96.4505 50.117 84.5784 68.4275C84.5784 68.4275 87.0312 73.6982 97.1186 65.2867C112.839 52.1813 121.028 46.2168 140.204 48.5237Z" fill="#FFE003"/>
<path d="M115.41 62.9997C110.576 66.5403 103.555 71.9023 98.5811 75.2256C92.6965 79.1601 84.4737 84.705 80.4905 77.3843C79.9109 79.1944 78.8259 82.9632 78.7861 84.6336C78.983 87.012 81.3099 92.1029 88.1539 92.2199C96.9508 92.3712 105.102 84.7736 117.557 75.5314C130.645 65.8207 139.759 59.4423 150.42 60.6872C158.869 61.6752 162.92 65.6584 166.009 69.644C163.331 64.5075 157.924 58.2746 150.94 53.789C143.199 48.8151 131.013 51.5706 115.41 62.9997Z" fill="#CCFF2E"/>
<path d="M109.69 135.131C131.512 142.363 153.443 133.537 165.315 115.227C165.315 115.227 162.862 109.956 152.774 118.368C137.054 131.473 128.865 137.437 109.69 135.131Z" fill="#FAAD17"/>
<path d="M134.484 120.655C139.318 117.114 146.338 111.752 151.312 108.429C157.197 104.494 165.42 98.9493 169.403 106.27C169.982 104.46 171.067 100.691 171.107 99.0206C170.91 96.6423 168.583 91.5514 161.739 91.4344C152.943 91.2831 144.791 98.8806 132.337 108.123C119.248 117.834 110.134 124.212 99.4733 122.967C91.0247 121.979 86.9732 117.996 83.8839 114.01C86.5621 119.147 91.9697 125.38 98.9538 129.865C106.694 134.839 118.88 132.084 134.484 120.655Z" fill="#FAAD17"/>
<path d="M55.4364 169.239C50.0693 169.239 47.4775 171.854 46.8581 177.083L46.3537 177.038L47.0417 169.904H40V203.46H47.2709V195.685L46.6975 190.089L47.1789 190.043C48.0275 192.933 50.5047 195.066 55.1149 195.066C61.6288 195.066 65.7802 189.905 65.7802 182.152C65.7805 174.377 61.6291 169.239 55.4364 169.239ZM53.1884 188.964C49.2893 188.964 47.1793 186.579 47.1793 182.152C47.1793 177.725 49.2896 175.34 53.1884 175.34C57.0646 175.34 59.129 177.725 59.129 182.152C59.129 186.579 57.0646 188.964 53.1884 188.964Z" fill="#FFC700"/>
<path d="M87.4697 182.155C87.4697 177.772 85.371 175.394 81.408 175.394C77.445 175.394 75.3464 177.772 75.3464 182.155C75.3464 186.583 77.445 188.916 81.408 188.916C85.371 188.916 87.4697 186.583 87.4697 182.155ZM94.1366 182.155C94.1366 189.941 89.0543 195.069 81.408 195.069C73.7617 195.069 68.6794 189.941 68.6794 182.155C68.6794 174.369 73.7617 169.241 81.408 169.241C89.0543 169.241 94.1366 174.369 94.1366 182.155Z" fill="#FFC700"/>
<path d="M109.988 188.076L110.642 194.229C109.057 194.837 107.33 195.068 105 195.068C100.663 195.068 97.9594 191.945 97.9594 186.911V160.569H104.86V185.838C104.86 187.611 105.606 188.542 107.005 188.542C108.124 188.542 108.823 188.45 109.988 188.076Z" fill="#FFC700"/>
<path d="M133.254 187.097C133.254 192.039 129.337 195.069 122.95 195.069C119.452 195.069 116.143 194.323 112.88 192.879L114.279 187.702C117.728 188.961 120.061 189.427 122.856 189.427C125.469 189.427 126.822 188.727 126.822 187.283C126.822 186.163 126.262 185.604 124.258 185.184L119.316 184.113C114.979 183.134 112.88 180.801 112.88 176.838C112.88 172.13 116.843 169.241 123.324 169.241C126.353 169.241 129.246 169.801 132.275 171.151L131.065 176.279C128.732 175.302 125.843 174.789 123.136 174.789C120.62 174.789 119.316 175.443 119.316 176.699C119.316 177.632 119.921 178.146 121.411 178.472L126.682 179.591C130.97 180.476 133.254 183.088 133.254 187.097Z" fill="#FFC700"/>
<path d="M154.475 169.881L154.842 173.666L154.338 173.712C153.214 171.051 151.241 169.239 146.585 169.239C139.934 169.239 135.737 174.423 135.737 182.152C135.737 189.951 139.865 195.066 146.081 195.066C151.448 195.066 154.04 192.222 154.659 186.671L155.187 186.717L154.384 194.424H161.517V169.882H154.475V169.881ZM148.306 188.964C144.452 188.964 142.388 186.579 142.388 182.152C142.388 177.725 144.452 175.34 148.306 175.34C152.228 175.34 154.338 177.725 154.338 182.152C154.338 186.579 152.228 188.964 148.306 188.964Z" fill="#FFC700"/>
<path d="M182.871 193.85C181.38 194.561 179.751 195.066 176.792 195.066C171.907 195.066 168.788 192.267 168.788 186.946V176.189H165.049V169.904H168.788V164.767L175.691 163.735V169.904H181.517V176.189H175.691V185.088C175.691 187.749 176.425 188.552 178.811 188.552C179.934 188.552 180.898 188.253 182.205 187.703L182.871 193.85Z" fill="#FFC700"/>
<path d="M203.284 194.417V166.721L204.358 167.001L197.131 171.198L193.728 165.65L202.259 160.569H210V194.417H203.284Z" fill="#FFC700"/>
</svg>
