<svg width="250" height="250" viewBox="0 0 250 250" fill="none" xmlns="http://www.w3.org/2000/svg">
<rect width="250" height="250" fill="#00283D"/>
<path d="M94.2729 115.032C104.879 116.543 117.356 106.809 127.411 99.2498C136.845 92.1548 148.465 83.4404 157.175 83.5378C162.867 83.6028 167.856 86.8696 169.419 91.2894C169.267 89.6018 168.461 84.5824 167.884 82.1812C166.78 78.8954 163.768 71.6052 153.715 71.6486C143.343 71.692 131.75 80.6725 122.503 87.4664C111.024 95.9015 100.735 104.736 89.8152 102.72C83.9545 101.634 81.4205 98.9268 80.5793 96.5147C80.6906 98.0476 81.4611 102.888 82.088 105.528C83.4932 108.681 86.4859 113.923 94.2729 115.032Z" fill="#FFC700"/>
<path d="M139.435 52.3961C118.709 45.5292 97.883 53.91 86.6099 71.2986C86.6099 71.2986 88.938 76.3045 98.5177 68.3168C113.446 55.8691 121.224 50.2041 139.435 52.3961Z" fill="#FFE003"/>
<path d="M115.889 66.1438C111.298 69.5055 104.632 74.5979 99.9052 77.756C94.3189 81.4918 86.5104 86.7583 82.7257 79.8042C82.1749 81.5218 81.1439 85.1029 81.1085 86.6876C81.2957 88.9478 83.5042 93.7825 90.0024 93.8939C98.3588 94.0377 106.099 86.8233 117.929 78.0462C130.358 68.8215 139.013 62.7656 149.138 63.9485C157.161 64.8846 161.008 68.6668 163.941 72.4516C161.399 67.5759 156.266 61.6558 149.632 57.3962C142.279 52.6731 130.708 55.291 115.889 66.1438Z" fill="#CCFF2E"/>
<path d="M110.456 134.645C131.182 141.512 152.008 133.131 163.281 115.743C163.281 115.743 160.954 110.737 151.374 118.725C136.446 131.173 128.667 136.838 110.456 134.645Z" fill="#FAAD17"/>
<path d="M134.003 120.898C138.594 117.536 145.26 112.443 149.986 109.285C155.572 105.55 163.381 100.283 167.166 107.237C167.716 105.52 168.747 101.939 168.783 100.354C168.596 98.0936 166.387 93.2588 159.889 93.1475C151.532 93.0037 143.792 100.218 131.962 108.995C119.533 118.22 110.879 124.276 100.753 123.093C92.7304 122.157 88.8832 118.375 85.95 114.59C88.4924 119.465 93.6257 125.386 100.259 129.645C107.612 134.368 119.184 131.75 134.003 120.898Z" fill="#FAAD17"/>
<path d="M54.6883 167.057C49.583 167.057 47.0995 169.541 46.5204 174.511L46.0347 174.466L46.7006 167.678H40V199.629H46.9197V192.217L46.3599 186.883L46.8328 186.845C47.6306 189.599 49.9822 191.641 54.3766 191.641C60.5885 191.641 64.5357 186.713 64.5357 179.346C64.5354 171.937 60.5885 167.057 54.6883 167.057ZM52.559 185.825C48.8305 185.825 46.8328 183.564 46.8328 179.346C46.8328 175.135 48.8305 172.87 52.559 172.87C56.2392 172.87 58.1919 175.135 58.1919 179.346C58.1919 183.564 56.2392 185.825 52.559 185.825Z" fill="#FFC700"/>
<path d="M85.1712 179.348C85.1712 175.178 83.1744 172.913 79.4032 172.913C75.6319 172.913 73.6352 175.178 73.6352 179.348C73.6352 183.564 75.6319 185.781 79.4032 185.781C83.1744 185.781 85.1712 183.565 85.1712 179.348ZM91.5173 179.348C91.5173 186.758 86.6796 191.639 79.4029 191.639C72.1261 191.639 67.2885 186.758 67.2885 179.348C67.2885 171.938 72.1261 167.057 79.4029 167.057C86.6796 167.057 91.5173 171.938 91.5173 179.348Z" fill="#FFC700"/>
<path d="M106.605 184.807L107.183 190.575C105.674 191.286 104.076 191.641 102.169 191.641C97.6404 191.641 95.155 188.668 95.155 183.874V158.804H101.724V182.854C101.724 184.542 102.434 185.429 103.897 185.429C104.83 185.428 105.452 185.249 106.605 184.807Z" fill="#FFC700"/>
<path d="M128.437 168.477L127.859 174.202C124.975 172.959 122.224 172.338 119.562 172.338C117.077 172.338 116.057 172.826 116.057 174.022C116.057 174.866 116.589 175.265 118.23 175.621L123.423 176.82C127.772 177.84 129.547 180.412 129.547 184.097C129.547 189.021 125.862 191.639 119.739 191.639C115.347 191.639 112.685 191.33 110.289 190.532L110.91 184.628C113.572 185.782 116.28 186.27 119.739 186.27C122.447 186.27 123.377 185.828 123.424 184.496C123.424 183.475 122.846 183.031 120.805 182.499L115.612 181.169C111.665 180.147 109.934 178.063 109.934 174.291C109.934 169.763 113.616 167.058 119.785 167.058C122.845 167.058 125.819 167.543 128.437 168.477Z" fill="#FFC700"/>
<path d="M150.139 167.678L150.493 171.278L150.004 171.317C148.939 168.785 147.073 167.057 142.637 167.057C136.293 167.057 132.298 171.983 132.298 179.349C132.298 186.758 136.248 191.638 142.151 191.638C147.253 191.638 149.74 188.933 150.313 183.65L150.821 183.699L150.049 191.017H156.837V167.678H150.139ZM144.281 185.828C140.594 185.828 138.644 183.564 138.644 179.349C138.644 175.132 140.594 172.87 144.281 172.87C148.009 172.87 150.003 175.132 150.003 179.349C150.003 183.564 148.009 185.828 144.281 185.828Z" fill="#FFC700"/>
<path d="M177.518 190.577C176.096 191.197 174.542 191.641 171.75 191.641C167.089 191.641 164.113 188.978 164.113 183.921V173.668H160.565V167.678H164.113V162.798L170.682 161.82V167.678H176.228V173.668H170.682V182.142C170.682 184.673 171.393 185.429 173.658 185.429C174.719 185.429 175.652 185.249 176.897 184.76L177.518 190.577Z" fill="#FFC700"/>
<path d="M194.068 185.871L201.258 185.117H210V191.018H187.234V184.718L199.66 176.731C201.967 175.266 203.521 173.624 203.521 170.962C203.521 168.564 202.013 166.836 198.727 166.836C195.222 166.836 193.092 168.787 192.384 172.205L186.303 170.83C187.323 165.281 191.493 161.377 198.86 161.377C205.784 161.377 209.821 165.059 209.821 170.873C209.821 177.927 201.923 183.386 194.025 185.473L194.068 185.871Z" fill="#FFC700"/>
</svg>
