<svg width="250" height="250" viewBox="0 0 250 250" fill="none" xmlns="http://www.w3.org/2000/svg">
<rect width="250" height="250" fill="#00283D"/>
<path d="M74.6362 148.656C69.9019 148.656 67.5953 150.963 67.0492 155.576L66.6041 155.535L67.2112 149.243H61V178.903H67.4137V172.024L66.908 167.067L67.3532 167.027C68.0814 169.576 70.2665 171.478 74.3535 171.478C80.1196 171.478 83.7816 166.906 83.7816 160.067C83.7812 153.188 80.1192 148.656 74.6362 148.656ZM72.6536 166.076C69.1938 166.076 67.3527 163.992 67.3527 160.067C67.3527 156.163 69.1938 154.058 72.6536 154.058C76.073 154.058 77.8936 156.162 77.8936 160.067C77.8936 163.992 76.073 166.076 72.6536 166.076Z" fill="#FF0069"/>
<path d="M102.931 160.071C102.931 156.2 101.077 154.097 97.5765 154.097C94.0757 154.097 92.222 156.2 92.222 160.071C92.222 163.985 94.0757 166.042 97.5765 166.042C101.077 166.042 102.931 163.984 102.931 160.071ZM108.822 160.071C108.822 166.949 104.331 171.48 97.5765 171.48C90.8216 171.48 86.3312 166.949 86.3312 160.071C86.3312 153.193 90.8216 148.662 97.5765 148.662C104.331 148.662 108.822 153.192 108.822 160.071Z" fill="#FF0069"/>
<path d="M122.827 165.137L123.363 170.492C121.963 171.152 120.479 171.481 118.709 171.481C114.505 171.481 112.199 168.721 112.199 164.271V140.999H118.296V163.324C118.296 164.89 118.956 165.714 120.314 165.714C121.18 165.714 121.756 165.548 122.827 165.137Z" fill="#FF0069"/>
<path d="M143.093 149.979L142.557 155.293C139.879 154.14 137.326 153.563 134.855 153.563C132.548 153.563 131.601 154.016 131.601 155.127C131.601 155.91 132.095 156.281 133.618 156.61L138.439 157.724C142.476 158.671 144.123 161.058 144.123 164.479C144.123 169.05 140.703 171.48 135.021 171.48C130.941 171.48 128.47 171.193 126.247 170.45L126.823 164.972C129.294 166.042 131.808 166.496 135.021 166.496C137.532 166.496 138.398 166.085 138.439 164.849C138.439 163.902 137.903 163.489 136.008 162.995L131.188 161.761C127.523 160.811 125.916 158.877 125.916 155.374C125.916 151.173 129.334 148.662 135.061 148.662C137.903 148.662 140.663 149.113 143.093 149.979Z" fill="#FF0069"/>
<path d="M163.233 149.243L163.556 152.581L163.111 152.622C162.12 150.275 160.4 148.656 156.273 148.656C150.385 148.656 146.683 153.229 146.683 160.067C146.683 166.946 150.345 171.478 155.828 171.478C160.562 171.478 162.868 168.97 163.394 164.074L163.88 164.114L163.152 170.912H169.464V149.243L163.233 149.243ZM157.79 166.076C154.371 166.076 152.57 163.992 152.57 160.067C152.57 156.163 154.371 154.058 157.79 154.058C161.27 154.058 163.111 156.162 163.111 160.067C163.111 163.992 161.27 166.076 157.79 166.076Z" fill="#FF0069"/>
<path d="M188.644 170.487C187.329 171.073 185.892 171.478 183.303 171.478C178.973 171.478 176.222 169.01 176.222 164.316V154.807H172.924V149.243H176.222V144.71L182.311 143.8V149.243H187.45V154.807H182.311V162.657C182.311 165.004 182.959 165.712 185.063 165.712C186.054 165.712 186.924 165.55 188.077 165.104L188.644 170.487Z" fill="#FF0069"/>
<path d="M97.8859 201.508L102.21 204.555C100.316 208.099 97.0623 209.993 92.8611 209.993C85.9401 209.993 81.4092 205.503 81.4092 198.584C81.4092 191.746 85.9831 187.175 92.8611 187.175C97.1855 187.175 100.48 188.986 102.21 192.323L97.8859 195.453C96.8156 193.557 95.1681 192.61 92.8611 192.61C89.2343 192.61 87.3 194.713 87.3 198.584C87.3 202.455 89.2343 204.472 92.8611 204.472C95.045 204.472 96.8152 203.445 97.8859 201.508Z" fill="#FF0069"/>
<path d="M120.219 187.745L120.543 191.083L120.098 191.123C119.106 188.777 117.366 187.178 113.259 187.178C107.352 187.178 103.649 191.751 103.649 198.589C103.649 205.468 107.311 210 112.794 210C117.528 210 119.835 207.491 120.381 202.575L120.846 202.615L120.138 209.414H126.43V187.745H120.219V187.745ZM114.777 204.598C111.358 204.598 109.537 202.494 109.537 198.589C109.537 194.664 111.358 192.56 114.777 192.56C118.236 192.56 120.098 194.664 120.098 198.589C120.098 202.494 118.236 204.598 114.777 204.598Z" fill="#FF0069"/>
<path d="M139.541 188.089V189.606H145.044V195.291H139.541V209.413H133.431V195.291H130.558V189.606H133.431V186.511C133.431 181.898 136.485 178.944 141.22 178.944C143.324 178.944 145.387 179.268 146.743 179.794L146.116 185.519C144.882 185.074 143.971 184.831 142.292 184.831C140.188 184.831 139.541 185.479 139.541 188.089Z" fill="#FF0069"/>
<path d="M168.23 198.164C168.23 191.589 164.163 187.178 158.073 187.178C151.802 187.178 147.391 191.872 147.391 198.589C147.391 205.508 151.478 210 158.984 210C161.574 210 164.446 209.413 167.097 208.139L166.632 202.696C163.637 204.011 161.27 204.558 159.227 204.558C155.423 204.558 153.703 203.141 153.278 200.228H168.108C168.189 199.58 168.23 198.872 168.23 198.164ZM153.339 196.404C153.865 193.774 155.464 192.398 158.073 192.398C160.46 192.398 162.079 193.673 162.463 196.404H153.339ZM155.727 186.187L154.857 182.687L164.406 178.903L165.802 184.629L155.727 186.187Z" fill="#FF0069"/>
<path d="M96.303 100.368C106.15 101.771 117.731 92.7345 127.065 85.7177C135.822 79.1318 146.609 71.0419 154.694 71.1328C159.98 71.1933 164.609 74.2257 166.06 78.3283C165.919 76.7618 165.171 72.1024 164.637 69.871C163.609 66.8235 160.814 60.0564 151.483 60.0965C141.854 60.1366 131.092 68.4731 122.509 74.7796C111.853 82.6097 102.303 90.8104 92.1656 88.9391C86.7256 87.9318 84.3707 85.4182 83.5922 83.1792C83.6953 84.6021 84.4108 89.0954 84.9926 91.546C86.2964 94.4724 89.0747 99.338 96.303 100.368Z" fill="#FF1499"/>
<path d="M138.226 42.2243C118.987 35.8498 99.6545 43.6296 89.1897 59.7712C89.1897 59.7712 91.3506 64.4179 100.244 57.0031C114.101 45.4481 121.322 40.1893 138.226 42.2243Z" fill="#FF29CC"/>
<path d="M116.369 54.9858C112.107 58.1065 105.919 62.8338 101.532 65.7652C96.3431 69.2332 89.0948 74.1217 85.5838 67.6667C85.0724 69.261 84.1155 72.5855 84.0828 74.0563C84.2566 76.1542 86.3067 80.6422 92.3387 80.7457C100.096 80.8791 107.281 74.1823 118.262 66.0348C129.8 57.4716 137.834 51.8503 147.233 52.9484C154.681 53.8174 158.252 57.328 160.977 60.8415C158.615 56.3154 153.85 50.8202 147.692 46.8661C140.866 42.4812 130.125 44.9117 116.369 54.9858Z" fill="#FF3DFF"/>
<path d="M111.326 118.575C130.565 124.949 149.897 117.17 160.362 101.028C160.362 101.028 158.201 96.3813 149.308 103.796C135.451 115.351 128.23 120.61 111.326 118.575Z" fill="#FF0069"/>
<path d="M133.184 105.813C137.445 102.693 143.634 97.9658 148.021 95.0341C153.209 91.566 160.458 86.6775 163.969 93.1325C164.48 91.5382 165.437 88.2137 165.47 86.7429C165.296 84.645 163.246 80.157 157.214 80.0535C149.456 79.9201 142.271 86.6169 131.29 94.7645C119.753 103.328 111.718 108.949 102.319 107.851C94.8715 106.982 91.3003 103.471 88.5776 99.9578C90.9374 104.484 95.7028 109.979 101.86 113.933C108.686 118.318 119.427 115.888 133.184 105.813Z" fill="#FF0069"/>
</svg>
