<svg width="250" height="250" viewBox="0 0 250 250" fill="none" xmlns="http://www.w3.org/2000/svg">
<rect width="250" height="250" fill="#1B4D9B"/>
<path d="M174.197 40L140.527 54.6249V93.9641H109.734V54.6249L76.066 40L76.0653 40.0007V138.254H109.734V123.028H140.527V138.254H174.196L174.197 138.252V40H174.197Z" fill="white"/>
<path d="M76 182.573V202.808C76.0011 203.755 76.1887 204.691 76.5521 205.565C76.9154 206.439 77.4474 207.232 78.1176 207.9C78.7879 208.568 79.5831 209.097 80.458 209.457C81.3329 209.818 82.2703 210.002 83.2165 210H167.011C168.921 210.002 170.753 209.246 172.106 207.898C173.458 206.549 174.22 204.718 174.223 202.808V186.053H83.2165C81.8297 186.05 80.4613 185.736 79.2122 185.134C77.9631 184.531 76.8654 183.656 76 182.573Z" fill="white"/>
<path d="M99.1766 196.81C99.1865 197.186 99.1139 197.56 98.9638 197.905C98.8137 198.249 98.5899 198.557 98.308 198.806C97.7154 199.311 96.957 199.579 96.1785 199.559H91.0861V197.678H96.1785C96.8813 197.678 97.2354 197.389 97.2354 196.81V195.598C97.2354 194.976 96.8813 194.669 96.1785 194.669H89.284V203.092H87.3476V192.831H96.1633C96.9473 192.817 97.7086 193.095 98.2989 193.611C98.5815 193.858 98.8065 194.164 98.9582 194.507C99.1098 194.85 99.1844 195.222 99.1766 195.598V196.81Z" fill="#1B4D9B"/>
<path d="M111.632 200.345V195.581C111.63 195.454 111.599 195.329 111.541 195.216C111.484 195.102 111.401 195.003 111.3 194.926C111.099 194.75 110.843 194.649 110.575 194.642H104.832C104.563 194.644 104.304 194.745 104.105 194.926C104.004 195.003 103.921 195.102 103.863 195.216C103.805 195.329 103.773 195.454 103.769 195.581V200.345C103.769 200.959 104.118 201.265 104.832 201.265H110.575C111.278 201.265 111.632 200.959 111.632 200.345ZM113.569 200.324C113.58 200.702 113.506 201.077 113.352 201.422C113.198 201.767 112.968 202.073 112.679 202.317C112.097 202.832 111.342 203.109 110.565 203.092H104.842C104.061 203.109 103.303 202.832 102.717 202.317C102.429 202.072 102.2 201.766 102.048 201.421C101.895 201.076 101.822 200.701 101.835 200.324V195.581C101.832 195.207 101.914 194.837 102.073 194.498C102.232 194.16 102.466 193.861 102.756 193.624C103.324 193.101 104.069 192.81 104.842 192.812H110.565C111.336 192.811 112.08 193.102 112.647 193.624C112.936 193.862 113.168 194.161 113.328 194.499C113.487 194.838 113.569 195.207 113.569 195.581L113.569 200.324Z" fill="#1B4D9B"/>
<path d="M125.246 203.092H119.536C118.758 203.11 118.001 202.833 117.417 202.317C117.135 202.069 116.911 201.761 116.76 201.417C116.609 201.073 116.535 200.7 116.543 200.324V192.812H118.477V200.344C118.477 200.959 118.828 201.264 119.536 201.264H125.246L125.246 203.092Z" fill="#1B4D9B"/>
<path d="M139.287 194.639H130.71C130.441 194.645 130.184 194.746 129.982 194.924C129.884 195.004 129.804 195.104 129.747 195.217C129.691 195.331 129.659 195.455 129.655 195.581V196.096C129.655 196.714 130.007 197.019 130.71 197.019L136.447 197.029C137.218 197.009 137.97 197.276 138.555 197.778C138.845 198.027 139.076 198.336 139.232 198.685C139.387 199.033 139.464 199.412 139.455 199.794V200.333C139.457 200.707 139.376 201.077 139.217 201.417C139.059 201.756 138.827 202.056 138.539 202.295C137.969 202.812 137.226 203.096 136.456 203.092H127.877V201.264H136.461C136.727 201.26 136.983 201.163 137.185 200.99C137.287 200.913 137.369 200.814 137.427 200.7C137.484 200.586 137.514 200.46 137.516 200.333V199.794C137.516 199.172 137.167 198.875 136.461 198.875L130.723 198.849C129.946 198.867 129.19 198.596 128.602 198.088C128.315 197.843 128.087 197.537 127.934 197.192C127.781 196.847 127.707 196.473 127.718 196.096V195.581C127.717 195.207 127.799 194.838 127.958 194.499C128.116 194.16 128.347 193.86 128.634 193.62C129.206 193.101 129.951 192.813 130.723 192.812H139.287L139.287 194.639Z" fill="#1B4D9B"/>
<path d="M154.016 203.124H151.948L151.009 199.533H146.302L146.745 197.649H150.503C150.422 197.335 150.164 196.222 149.987 195.598C149.819 194.978 149.462 194.665 148.941 194.665H146.562C146.026 194.665 145.67 194.978 145.501 195.598L143.574 203.124H141.508L143.435 195.607C143.917 193.763 144.923 192.832 146.445 192.832H149.061C150.586 192.832 151.597 193.763 152.069 195.607L154.016 203.124Z" fill="#1B4D9B"/>
<path d="M164.729 194.639H160.436V203.092H158.499V194.639H154.271V192.812H164.729V194.639Z" fill="#1B4D9B"/>
<path d="M174.217 142.058H76.0046V161.191H174.217V142.058Z" fill="#939598"/>
<path d="M133.7 150.874C133.114 150.575 132.446 150.484 130.711 150.484H128.445C127.724 150.484 127.428 150.197 127.428 149.508V149.36C127.427 149.328 127.429 149.296 127.434 149.264C127.464 148.645 127.772 148.381 128.445 148.381H130.916C131.178 148.359 131.439 148.428 131.657 148.576C131.674 148.588 131.688 148.602 131.7 148.61C131.831 148.761 131.904 148.954 131.904 149.153C132.195 149.134 134.54 148.944 134.853 148.918C134.799 148.649 134.728 148.384 134.641 148.124C134.076 146.437 132.907 145.809 130.55 145.809H128.756C125.851 145.809 124.432 146.776 124.432 148.766V150.123C124.432 151.173 124.854 151.957 125.621 152.331C126.206 152.635 126.87 152.721 128.605 152.721H130.873C131.592 152.721 131.891 153.003 131.891 153.689V153.849C131.891 154.542 131.583 154.843 130.873 154.843H128.406C128.032 154.843 127.78 154.764 127.617 154.594C127.486 154.437 127.414 154.24 127.412 154.035C127.135 154.052 124.768 154.148 124.46 154.161C124.814 156.541 126.003 157.431 128.756 157.431H130.55C133.471 157.431 134.883 156.46 134.883 154.451V153.085C134.883 152.032 134.463 151.247 133.7 150.874Z" fill="white"/>
<path d="M158.76 145.909H147.255V148.653H151.387V157.392H154.613V148.653H158.76V145.909Z" fill="white"/>
<path d="M115.672 154L117.151 150.055L118.641 154H115.672ZM118.288 145.909H115.996L111.029 157.44H114.382L114.863 156.141H119.442L119.927 157.44H123.248L118.288 145.909Z" fill="white"/>
<path d="M140.568 154L142.048 150.041L143.535 154H140.568ZM143.188 145.909H140.894L135.927 157.44H139.275L139.757 156.141H144.336L144.826 157.44H148.149L143.188 145.909Z" fill="white"/>
<path d="M97.5823 153.303L94.8132 145.909H91.4659L96.4197 157.44H98.7181L103.684 145.909H100.358L97.5823 153.303Z" fill="white"/>
<path d="M108.999 145.909H105.774V157.392H108.999V145.909Z" fill="white"/>
<path d="M76.5009 165.085H79.9483V171.289H86.3078V165.085H89.7583V180.757H86.3078V174.469H79.9483V180.757H76.5009V165.085Z" fill="white"/>
<path d="M96.1586 165.085H92.7092V180.757H96.1586V165.085Z" fill="white"/>
<path d="M104.952 180.984C103.755 180.982 102.567 180.775 101.439 180.372C100.28 179.959 99.2142 179.322 98.3029 178.495L100.341 176.056C101.013 176.613 101.753 177.08 102.544 177.447C103.323 177.793 104.167 177.97 105.019 177.965C105.737 177.965 106.29 177.828 106.689 177.568C106.875 177.454 107.028 177.293 107.132 177.101C107.236 176.909 107.287 176.693 107.281 176.475V176.431C107.285 176.228 107.243 176.027 107.157 175.842C107.051 175.64 106.887 175.474 106.687 175.363C106.384 175.176 106.061 175.025 105.724 174.91C105.196 174.726 104.658 174.569 104.114 174.44C103.324 174.227 102.601 174.01 101.962 173.778C101.372 173.575 100.817 173.28 100.32 172.902C99.8735 172.554 99.5163 172.104 99.2777 171.591C99.0116 170.975 98.8844 170.307 98.9054 169.636V169.589C98.8961 168.922 99.0325 168.261 99.3051 167.653C99.57 167.082 99.9535 166.575 100.43 166.164C100.934 165.726 101.522 165.397 102.158 165.195C102.873 164.964 103.62 164.851 104.371 164.858C105.449 164.845 106.521 165.019 107.539 165.372C108.5 165.709 109.397 166.205 110.193 166.841L108.403 169.427C107.756 168.982 107.065 168.603 106.341 168.298C105.704 168.027 105.019 167.885 104.326 167.881C103.653 167.881 103.15 168.017 102.813 168.271C102.657 168.382 102.529 168.529 102.441 168.7C102.353 168.87 102.307 169.059 102.307 169.251V169.301C102.303 169.529 102.355 169.755 102.457 169.959C102.582 170.174 102.765 170.348 102.986 170.462C103.315 170.645 103.664 170.788 104.027 170.887C104.469 171.021 105.024 171.179 105.702 171.361C106.424 171.547 107.133 171.784 107.823 172.068C108.392 172.298 108.922 172.617 109.393 173.012C109.807 173.362 110.138 173.8 110.36 174.295C110.588 174.858 110.698 175.461 110.684 176.068V176.117C110.696 176.83 110.552 177.538 110.262 178.19C109.991 178.783 109.587 179.306 109.082 179.719C108.545 180.143 107.932 180.462 107.277 180.658C106.523 180.885 105.739 180.995 104.952 180.984Z" fill="white"/>
<path d="M116.621 168.26H111.848V165.086H124.839V168.26H120.068V180.758H116.621V168.26Z" fill="white"/>
<path d="M134.086 177.848C134.743 177.856 135.395 177.728 136 177.47C136.562 177.225 137.066 176.866 137.48 176.415C137.893 175.959 138.22 175.432 138.443 174.859C138.677 174.254 138.795 173.611 138.79 172.963V172.924C138.794 172.272 138.676 171.625 138.443 171.017C137.993 169.846 137.1 168.9 135.957 168.383C135.353 168.118 134.7 167.986 134.041 167.995C133.387 167.988 132.74 168.117 132.139 168.374C131.573 168.616 131.064 168.974 130.647 169.427C130.232 169.882 129.905 170.411 129.683 170.986C129.452 171.588 129.335 172.229 129.339 172.874V172.924C129.335 173.573 129.452 174.218 129.683 174.825C129.906 175.408 130.242 175.94 130.672 176.392C131.102 176.841 131.616 177.203 132.184 177.455C132.783 177.72 133.431 177.854 134.086 177.848ZM134.041 181.029C131.817 181.062 129.671 180.213 128.071 178.667C127.331 177.94 126.746 177.071 126.35 176.112C125.935 175.114 125.725 174.043 125.733 172.963V172.924C125.725 171.843 125.938 170.773 126.358 169.777C126.767 168.815 127.357 167.941 128.096 167.201C128.852 166.448 129.752 165.854 130.741 165.453C132.887 164.603 135.276 164.603 137.422 165.453C138.402 165.853 139.296 166.439 140.055 167.179C140.793 167.906 141.38 168.772 141.78 169.728C142.195 170.724 142.404 171.794 142.395 172.874V172.924C142.404 174.003 142.19 175.072 141.768 176.064C140.939 178.03 139.365 179.586 137.39 180.392C136.327 180.825 135.188 181.042 134.041 181.029Z" fill="white"/>
<path d="M152.026 172.72C152.877 172.72 153.529 172.52 153.986 172.11C154.212 171.906 154.39 171.656 154.507 171.376C154.625 171.095 154.679 170.793 154.666 170.489V170.449C154.666 169.701 154.429 169.13 153.953 168.756C153.473 168.381 152.807 168.196 151.958 168.196H148.532V172.72L152.026 172.72ZM145.082 165.085H152.247C154.235 165.085 155.759 165.615 156.818 166.674C157.713 167.568 158.161 168.766 158.161 170.257V170.303C158.161 171.57 157.85 172.605 157.229 173.402C156.605 174.208 155.763 174.817 154.802 175.158L158.632 180.758H154.603L151.241 175.744H148.532V180.758H145.082V165.085Z" fill="white"/>
<path d="M164.744 174.579L158.722 165.085H162.751L166.493 171.376L170.297 165.085H174.218L168.192 174.513V180.757H164.744V174.579Z" fill="white"/>
<path d="M78.2402 121.842H82.3949V127.446H87.723V121.842H91.8751V136.82H87.723V131.128H82.3949V136.82H78.2402V121.842Z" fill="#1B4D9B"/>
<path d="M99.3439 133.14C101.823 133.14 103.474 131.772 103.474 129.354V129.307C103.474 126.915 101.823 125.518 99.3439 125.518H97.6498V133.14H99.3439ZM93.5007 121.843H99.2795C104.63 121.843 107.735 124.92 107.735 129.24V129.288C107.735 133.61 104.588 136.819 99.1926 136.819H93.5007V121.843Z" fill="#1B4D9B"/>
</svg>
