<svg width="250" height="250" viewBox="0 0 250 250" fill="none" xmlns="http://www.w3.org/2000/svg">
<rect width="250" height="250" fill="#00283D"/>
<path d="M98.4633 97.9886C107.873 99.2029 119.105 90.7033 128.212 84.0251C136.711 77.6505 147.032 70.0616 154.924 70.0616C160.085 70.0616 164.638 73.0972 165.852 77.0434C165.852 75.5256 164.942 70.9723 164.335 68.8474C163.424 65.8118 160.692 59.4372 151.585 59.4372C142.175 59.4372 131.854 67.3296 123.658 73.4007C113.337 80.9896 104.231 88.882 94.2135 87.0607C89.0531 86.15 86.6246 83.7216 86.0175 81.5967C86.0175 83.1145 86.9282 87.3642 87.2317 89.4891C88.7495 92.2211 91.1779 96.7744 98.4633 97.9886Z" fill="#0098FF"/>
<path d="M138.838 42.1347C120.322 36.0636 101.501 43.3489 91.4839 58.8302C91.4839 58.8302 93.6088 63.3835 102.108 56.0982C115.465 45.1702 122.446 40.0098 138.838 42.1347Z" fill="#00BDFF"/>
<path d="M117.586 54.2766C113.336 57.3122 107.569 61.8655 103.319 64.5975C98.1585 67.9366 91.1768 72.4899 87.8377 66.4188C87.2305 67.9366 86.3199 71.2757 86.3199 72.4899C86.6234 74.6148 88.4448 78.8645 94.2123 78.8645C101.801 78.8645 108.783 72.4899 119.407 64.5975C130.639 56.4015 138.228 50.9375 147.334 52.1517C154.62 53.0624 157.959 56.4015 160.691 59.7406C158.262 55.4908 153.709 50.0269 147.941 46.3842C141.263 42.438 130.942 44.5629 117.586 54.2766Z" fill="#00E1FF"/>
<path d="M112.729 115.291C131.246 121.362 150.066 114.077 160.084 98.5955C160.084 98.5955 157.959 94.0422 149.459 101.328C136.103 112.255 129.121 117.416 112.729 115.291ZM133.978 103.149C138.228 100.113 143.995 95.56 148.245 92.828C153.405 89.4889 160.387 84.9356 163.726 91.0066C164.333 89.4889 165.244 86.1498 165.244 84.9356C164.941 82.8107 163.119 78.5609 157.352 78.5609C149.763 78.5609 142.781 84.9356 132.157 92.828C120.925 101.024 113.336 106.488 104.23 105.274C96.9443 104.363 93.6052 101.024 90.8732 97.6849C93.3017 101.935 97.855 107.399 103.623 111.041C110.301 114.987 120.622 112.863 133.978 103.149ZM64.1604 145.039H70.2315L69.3209 153.539V157.182L70.2315 166.895V173.573H64.1604V145.039ZM70.2315 162.038L68.1066 162.342V151.11L69.928 151.414C70.5351 146.861 72.66 144.736 77.2133 144.736C82.3737 144.736 86.0164 148.986 86.0164 155.664C86.0164 162.342 82.3737 166.592 76.9097 166.592C73.2671 166.288 71.1422 164.467 70.2315 162.038ZM80.5524 155.36C80.5524 151.718 78.731 149.593 75.3919 149.593C72.0528 149.593 70.2315 151.718 70.2315 155.36C70.2315 159.003 72.0528 161.128 75.3919 161.128C78.731 161.128 80.5524 159.306 80.5524 155.36ZM110.301 155.36C110.301 162.038 106.051 166.288 99.3727 166.288C92.6945 166.288 88.4448 162.038 88.4448 155.36C88.4448 148.682 92.6945 144.432 99.3727 144.432C106.051 144.432 110.301 148.986 110.301 155.36ZM104.837 155.36C104.837 151.718 103.015 149.593 99.6763 149.593C96.3372 149.593 94.5159 151.718 94.5159 155.36C94.5159 159.003 96.3372 161.128 99.6763 161.128C103.015 161.128 104.837 159.306 104.837 155.36ZM123.961 160.217L124.568 165.378C123.354 165.985 121.836 166.288 120.014 166.288C116.068 166.288 113.64 163.556 113.64 159.306V137.147H119.407V158.699C119.407 160.217 120.014 161.128 121.229 161.128C122.443 160.824 123.05 160.824 123.961 160.217ZM143.388 145.646L142.781 150.807C140.353 149.896 137.924 149.289 135.496 149.289C133.371 149.289 132.46 149.593 132.46 150.807C132.46 151.414 133.067 152.021 134.282 152.325L138.835 153.539C142.781 154.45 144.299 156.878 144.299 159.914C144.299 164.163 140.96 166.592 135.496 166.592C131.55 166.592 129.121 166.288 126.996 165.681L127.603 160.521C130.032 161.431 132.46 162.038 135.496 162.038C137.924 162.038 138.835 161.735 138.835 160.521C138.835 159.61 138.228 159.306 136.406 158.699L131.853 157.485C128.21 156.574 126.693 154.753 126.693 151.414C126.693 147.468 130.032 145.039 135.496 145.039C138.531 144.432 141.263 145.039 143.388 145.646ZM147.031 155.36C147.031 148.682 150.673 144.432 156.441 144.432C160.387 144.432 162.209 145.95 163.119 148.378L165.244 148.075V159.306L163.423 159.003C162.816 163.556 160.691 165.985 156.137 165.985C150.673 166.288 147.031 162.038 147.031 155.36ZM162.816 155.36C162.816 151.718 160.994 149.593 157.655 149.593C154.316 149.593 152.495 151.718 152.495 155.36C152.495 159.003 154.316 161.128 157.655 161.128C160.994 161.128 162.816 159.306 162.816 155.36ZM163.726 157.182V153.539L162.816 145.039H168.887V165.681H162.816L163.726 157.182ZM186.493 150.503H172.529V145.039H186.493V150.503ZM187.1 160.217L187.707 165.378C186.493 165.985 184.975 166.288 182.547 166.288C178.297 166.288 175.565 163.86 175.565 159.306V140.486L181.332 139.575V157.789C181.332 159.914 181.94 160.824 184.064 160.824C184.975 160.824 185.886 160.824 187.1 160.217ZM75.6955 182.377L75.0884 187.537C72.66 186.323 70.2315 185.716 67.8031 185.716C65.6782 185.716 64.7675 186.019 64.7675 187.233C64.7675 187.841 65.3746 188.448 66.5889 188.751L71.1422 189.965C74.7848 190.876 76.6062 193.001 76.6062 196.34C76.6062 200.59 73.5706 203.018 67.8031 203.018C63.8569 203.018 61.4284 202.715 59.3036 202.108L59.9107 196.947C62.3391 197.858 64.7675 198.465 67.8031 198.465C70.2315 198.465 71.1422 198.161 71.1422 196.947C71.1422 196.037 70.5351 195.733 68.7137 195.126L64.1604 193.912C60.5178 193.001 59 191.18 59 187.841C59 183.894 62.3391 181.466 67.8031 181.466C70.8386 180.859 73.2671 181.466 75.6955 182.377ZM86.6235 198.465H86.3199L86.927 203.322V210H80.8559V181.466H86.927L86.3199 187.537H86.6235C87.2306 182.984 89.3555 180.859 93.9088 180.859C99.0692 180.859 102.712 185.109 102.712 191.787C102.712 198.465 99.0692 202.715 93.6052 202.715C89.659 203.018 87.2306 201.501 86.6235 198.465ZM96.6408 191.787C96.6408 188.144 94.8194 186.019 91.4803 186.019C88.1412 186.019 86.3199 188.144 86.3199 191.787C86.3199 195.429 88.1412 197.554 91.4803 197.554C94.8194 197.554 96.6408 195.733 96.6408 191.787ZM126.389 191.787C126.389 198.465 122.139 202.715 115.461 202.715C109.086 202.715 104.533 198.465 104.533 191.787C104.533 185.109 108.783 180.859 115.461 180.859C122.139 180.859 126.389 185.412 126.389 191.787ZM120.622 191.787C120.622 188.144 118.8 186.019 115.461 186.019C112.122 186.019 110.301 188.144 110.301 191.787C110.301 195.429 112.122 197.554 115.461 197.554C119.104 197.554 120.622 195.733 120.622 191.787ZM144.299 187.537L142.174 187.233C137.924 186.93 136.103 188.751 136.103 193.305V202.108H130.335V181.162H135.799L135.192 187.233H135.799C136.406 182.68 138.228 180.555 141.87 180.555C143.085 180.555 143.995 180.859 144.906 181.162L144.299 187.537ZM160.691 196.644L161.298 201.804C159.78 202.411 158.262 202.715 156.137 202.715C151.888 202.715 149.459 200.286 149.459 195.733V186.626H146.424V181.162H149.459V176.913L155.227 176.002V181.162H160.084V186.626H155.227V194.215C155.227 196.34 155.834 197.251 157.959 197.251C158.566 197.251 159.477 197.251 160.691 196.644ZM171.012 200.893L172.226 196.037C175.565 197.251 177.69 197.858 180.725 197.858C184.064 197.858 185.582 196.644 185.582 194.215C185.582 192.09 184.064 190.876 180.725 190.876C178.904 190.876 177.386 191.18 175.868 191.483L174.351 187.537L182.85 181.466H171.922V176.609H190.136V181.769L182.85 186.323C188.618 186.626 191.046 189.055 191.046 194.215C191.046 199.679 187.404 202.715 180.422 202.715C177.386 202.715 174.047 202.108 171.012 200.893Z" fill="#0073FF"/>
</svg>
