<svg width="250" height="250" viewBox="0 0 250 250" fill="none" xmlns="http://www.w3.org/2000/svg">
<rect width="250" height="250" fill="#EFF7E7"/>
<g clip-path="url(#clip0_228_922)">
<path d="M78.7286 105.646C77.3885 105.646 76.0337 105.949 75.1275 106.535C73.657 107.484 73.0908 110.145 71.3574 116.317C69.8243 121.773 68.3464 125.834 69.5228 128.702C70.2453 130.463 73.6735 131.534 76.6238 131.534C78.28 131.534 79.7855 131.198 80.5796 130.453C82.4436 128.71 84.5391 108.686 82.4619 106.764C81.6458 106.01 80.1973 105.646 78.7286 105.646Z" fill="#78356B"/>
<path d="M83.3884 92C82.166 92 79.7929 94.6909 79.7929 94.6909C79.7929 94.6909 78.2213 94.3787 76.8573 94.3787C75.9511 94.3787 75.1386 94.5173 74.9401 94.9753C74.7158 95.4942 75.3868 96.5211 75.6533 96.9329C76.0981 97.6144 76.8132 98.5286 76.8132 98.5286C76.8132 98.5286 75.8978 99.6441 75.3886 100.411C74.8463 101.231 73.635 103.109 75.4217 103.273C75.5191 103.282 75.6239 103.286 75.7323 103.286C77.4069 103.286 80.3683 102.317 80.3683 102.317C80.3683 102.317 81.5833 103.604 82.3535 104.331C82.8443 104.795 83.8866 105.872 84.6256 105.872C84.677 105.872 84.7285 105.866 84.7763 105.855C85.3682 105.718 85.5428 104.548 85.6605 103.872C85.8204 102.963 85.9123 101.325 85.9123 101.325C85.9123 101.325 87.177 100.477 87.8957 99.8768C88.3718 99.4816 89.4655 98.6043 89.3865 97.9893C89.3056 97.354 88.0869 97.0493 87.4527 96.8388C86.5869 96.5506 85.1421 96.1092 85.1421 96.1092C85.1421 96.1092 84.7506 92.205 83.5043 92.0092C83.4675 92.0018 83.4289 92 83.3884 92Z" fill="#FAE300"/>
<path d="M91.0059 105.015C90.6493 105.015 90.2798 105.028 89.8956 105.055L89.8919 105.054C88.8883 105.151 87.381 105.482 86.5703 106.544C84.6476 109.202 84.9582 114.114 84.7395 119.112C84.5814 122.732 84.3553 127.345 85.4747 129.572C86.0777 130.771 87.6438 131.338 89.2375 131.338C90.993 131.338 92.7816 130.653 93.3661 129.364C94.0169 127.923 93.9415 126.436 93.9948 124.292C94.0408 122.53 93.9856 121.553 94.14 120.56C94.2264 120.004 94.6952 119.666 95.1786 119.666C95.4415 119.666 95.7098 119.766 95.9249 119.982C97.1106 121.18 97.6914 122.451 98.5646 123.799C99.5976 125.398 100.383 126.329 101.675 126.405C101.706 126.407 101.739 126.407 101.77 126.407C103.493 126.407 105.103 123.76 105.776 122.386C106.239 121.439 106.548 120.979 107.305 120.979H107.371C108.941 121.033 107.928 124.043 107.778 126.507C107.669 128.27 107.789 131.482 109.04 132.322C109.61 132.706 110.489 132.88 111.45 132.88C113.353 132.88 115.583 132.204 116.401 131.163C116.612 130.891 117.627 129.955 117.255 127.297C116.974 125.284 116.531 114.142 113.893 109.992C112.893 108.419 110.675 107.647 108.513 107.647C107.011 107.647 105.537 108.018 104.513 108.755C103.061 109.798 102.741 111.717 101.088 111.717C101.041 111.717 100.991 111.715 100.94 111.711C100.068 111.656 99.3918 110.182 98.8366 109.283C97.1822 106.62 94.879 105.015 91.0059 105.015Z" fill="#78356B"/>
<path d="M170.221 106.489C169.365 106.489 168.534 106.585 167.843 106.754C166.1 107.183 167.074 109.126 165.935 109.438C165.837 109.466 165.732 109.479 165.62 109.479C164.929 109.479 163.968 108.997 162.896 108.37C161.997 107.848 160.494 107.506 158.79 107.506C155.461 107.506 151.369 108.81 149.543 112.6C147.7 116.428 146.571 123.965 151.172 128.292C152.88 129.901 154.979 130.446 157.032 130.446C161.317 130.446 165.416 128.08 165.416 128.08C165.416 128.08 165.253 129.72 166.152 130.62C166.688 131.155 168.201 131.464 169.856 131.464C172.357 131.464 175.188 130.756 175.457 129.053C175.966 125.84 175.365 117.531 175.495 109.704C175.536 107.344 172.767 106.489 170.221 106.489ZM161.843 123.59C159.639 123.59 157.273 122.285 156.85 119.548C156.378 116.484 158.262 114.077 160.841 113.688C161.058 113.654 161.278 113.638 161.499 113.638C163.692 113.638 165.935 115.226 166.354 117.494C166.683 119.296 165.936 121.644 164.758 122.63C164.001 123.265 162.942 123.59 161.843 123.59Z" fill="#7FC23F"/>
<path d="M183.622 105.068C183.241 105.068 182.846 105.085 182.436 105.116L182.432 105.113C181.431 105.218 179.925 105.554 179.12 106.62C177.21 109.29 177.546 114.199 177.355 119.2C177.214 122.82 177.013 127.434 178.144 129.656C178.749 130.841 180.298 131.401 181.881 131.401C183.647 131.401 185.453 130.705 186.035 129.406C186.677 127.962 186.594 126.475 186.638 124.329C186.673 122.569 186.612 121.592 186.763 120.597C186.846 120.037 187.317 119.699 187.802 119.699C188.063 119.699 188.329 119.797 188.544 120.009C189.737 121.201 190.324 122.469 191.202 123.812C192.245 125.406 193.035 126.335 194.327 126.403C194.357 126.405 194.386 126.405 194.416 126.405C196.14 126.405 197.743 123.742 198.408 122.362C198.868 121.409 199.175 120.946 199.939 120.946C199.958 120.946 199.976 120.946 199.996 120.948C201.566 120.992 200.568 124.008 200.43 126.473C200.333 128.237 200.469 131.447 201.724 132.282C202.289 132.657 203.151 132.825 204.094 132.825C206.007 132.825 208.259 132.136 209.079 131.081C209.289 130.81 210.298 129.868 209.914 127.212C209.621 125.201 209.119 114.061 206.461 109.926C205.46 108.369 203.263 107.608 201.116 107.608C199.598 107.608 198.103 107.988 197.074 108.738C195.623 109.791 195.316 111.719 193.653 111.719C193.609 111.719 193.563 111.717 193.515 111.715C192.645 111.662 191.96 110.192 191.399 109.296C189.743 106.657 187.449 105.068 183.622 105.068Z" fill="#7FC23F"/>
<path d="M142.119 92.1163C139.54 92.1163 136.661 92.3767 133.836 92.6538C122.406 93.7748 115.687 96.5672 117.814 102.497C118.847 105.377 120.548 107.737 126.167 107.737C127.978 107.737 130.195 107.491 132.928 106.941C132.928 106.941 135.705 113.121 135.66 117.511C135.623 121.036 133.279 124.508 129.202 124.828C129.003 124.844 128.809 124.852 128.617 124.852C125.292 124.852 123.535 122.504 123.446 120.08C123.353 117.492 125.384 117.08 125.384 117.08C124.09 119.481 125.939 122.287 128.628 122.287C128.676 122.287 128.722 122.287 128.768 122.285C134.902 122.063 134.237 112.775 128.059 112.519C127.895 112.513 127.733 112.509 127.575 112.509C121.399 112.509 118.421 117.507 118.608 121.74C118.902 128.413 124.13 131.452 129.601 131.452C129.779 131.452 129.957 131.449 130.136 131.441C140.077 131.083 144.694 126.095 146.009 119.385C147.611 111.2 144.354 104.352 144.354 104.352C151.74 102.112 152.615 97.9986 150.538 94.7518C149.233 92.7129 146.018 92.1163 142.119 92.1163Z" fill="#7FC23F"/>
<path d="M64.6957 92.1163C62.1167 92.1163 59.2381 92.3767 56.411 92.6538C44.9829 93.7748 38.2642 96.5672 40.391 102.497C41.4241 105.377 43.1244 107.737 48.7438 107.737C50.5544 107.737 52.7713 107.491 55.5047 106.941C55.5047 106.941 58.2822 113.121 58.2363 117.511C58.1995 121.036 55.8558 124.508 51.7787 124.828C51.5802 124.844 51.3853 124.852 51.1941 124.852C47.8688 124.852 46.1115 122.504 46.0233 120.08C45.9295 117.492 47.9607 117.08 47.9607 117.08C46.6667 119.481 48.5159 122.287 51.2052 122.287C51.253 122.287 51.2989 122.287 51.3449 122.285C57.4789 122.063 56.8135 112.775 50.6353 112.519C50.4717 112.513 50.31 112.509 50.1519 112.509C43.9755 112.509 40.9976 117.507 41.1851 121.74C41.4792 128.413 46.7071 131.452 52.1757 131.452C52.3559 131.452 52.5324 131.449 52.7125 131.441C62.6535 131.083 67.271 126.095 68.5854 119.385C70.1883 111.2 66.931 104.352 66.931 104.352C74.315 102.112 75.19 97.9986 73.1147 94.7518C71.8096 92.7129 68.5964 92.1163 64.6957 92.1163Z" fill="#78356B"/>
<path d="M119.623 131.641V150.349C119.623 154.023 122.594 157 126.259 157H203.368C207.029 157 210 154.023 210 150.349V134.851H126.259C123.577 134.851 121.186 133.595 119.623 131.641ZM191.644 142.8V141.104H201.272V142.8H197.316V150.614H195.533V142.8H191.644ZM167.359 150.614V148.918H175.253C175.491 148.918 175.716 148.833 175.92 148.667C176.129 148.497 176.23 148.29 176.23 148.052V147.559C176.23 146.994 175.903 146.707 175.253 146.707L169.975 146.691C169.216 146.691 168.565 146.454 168.021 145.982C167.481 145.507 167.21 144.894 167.21 144.142V143.669C167.21 142.96 167.49 142.358 168.056 141.856C168.613 141.357 169.256 141.104 169.97 141.104H177.857V142.8H169.966C169.725 142.8 169.503 142.886 169.297 143.06C169.095 143.234 168.99 143.44 168.99 143.669V144.142C168.99 144.711 169.315 144.995 169.966 144.995L175.247 145.012C176.003 145.012 176.648 145.241 177.183 145.697C177.734 146.189 178.012 146.809 178.012 147.563V148.052C178.012 148.77 177.727 149.378 177.168 149.871C176.602 150.364 175.966 150.614 175.247 150.614H167.359ZM159.685 150.614C158.922 150.614 158.279 150.375 157.736 149.895C157.196 149.415 156.927 148.802 156.927 148.046V141.104H158.705V148.067C158.705 148.634 159.03 148.918 159.685 148.918H164.937V150.614H159.685ZM146.152 150.614C145.391 150.614 144.74 150.375 144.2 149.895C143.656 149.417 143.389 148.802 143.389 148.048V143.669C143.389 142.96 143.669 142.36 144.231 141.861C144.794 141.357 145.437 141.104 146.152 141.104H151.42C152.141 141.104 152.779 141.357 153.343 141.861C153.904 142.36 154.19 142.96 154.19 143.669V148.048C154.19 148.802 153.92 149.417 153.374 149.895C152.832 150.375 152.183 150.614 151.42 150.614H146.152ZM179.896 150.638L181.673 143.697C182.116 141.983 183.041 141.128 184.44 141.128H186.848C188.26 141.128 189.181 141.983 189.616 143.697L191.408 150.638H189.504L188.635 147.319H184.311L184.717 145.581H188.173C188.102 145.287 187.863 144.259 187.704 143.686C187.548 143.11 187.225 142.822 186.736 142.822H184.554C184.056 142.822 183.73 143.11 183.576 143.69L181.804 150.638H179.896ZM130.068 150.614V141.128H138.17C138.941 141.128 139.595 141.372 140.132 141.845C140.667 142.325 140.941 142.936 140.941 143.686V144.805C140.941 145.566 140.67 146.179 140.139 146.647C139.604 147.11 138.95 147.345 138.183 147.345H133.501V145.607H138.183C138.83 145.607 139.156 145.337 139.156 144.805V143.686C139.156 143.11 138.83 142.822 138.183 142.822H131.847V150.614H130.068ZM151.429 142.8H146.145C145.904 142.8 145.681 142.886 145.477 143.067C145.27 143.237 145.167 143.44 145.167 143.669V148.067C145.167 148.634 145.494 148.918 146.145 148.918H151.429C152.082 148.918 152.407 148.634 152.407 148.067V143.669C152.407 143.44 152.304 143.237 152.097 143.067C151.891 142.886 151.668 142.8 151.429 142.8Z" fill="#F89E19"/>
<path d="M138.17 141.128H130.068V150.614H131.847V142.822H138.183C138.83 142.822 139.156 143.11 139.156 143.686V144.805C139.156 145.339 138.83 145.607 138.183 145.607H133.501V147.345H138.183C138.95 147.345 139.604 147.11 140.139 146.647C140.67 146.179 140.941 145.566 140.941 144.805V143.686C140.941 142.936 140.667 142.325 140.132 141.843C139.595 141.37 138.942 141.128 138.17 141.128Z" fill="white"/>
<path d="M151.42 141.104H146.152C145.437 141.104 144.793 141.357 144.231 141.861C143.668 142.36 143.389 142.96 143.389 143.669V148.048C143.389 148.802 143.656 149.417 144.2 149.895C144.74 150.375 145.393 150.614 146.152 150.614H151.42C152.183 150.614 152.832 150.375 153.374 149.895C153.92 149.417 154.19 148.802 154.19 148.048V143.669C154.19 142.96 153.904 142.36 153.343 141.861C152.777 141.357 152.141 141.104 151.42 141.104ZM146.145 148.918C145.494 148.918 145.167 148.636 145.167 148.067V143.669C145.167 143.44 145.27 143.237 145.477 143.067C145.681 142.886 145.904 142.8 146.145 142.8H151.431C151.668 142.8 151.891 142.886 152.098 143.067C152.304 143.237 152.407 143.44 152.407 143.669V148.067C152.407 148.636 152.082 148.918 151.431 148.918H146.145Z" fill="white"/>
<path d="M158.705 141.104H156.927V148.046C156.927 148.802 157.196 149.415 157.736 149.895C158.279 150.375 158.922 150.614 159.685 150.614H164.937V148.918H159.685C159.032 148.918 158.705 148.636 158.705 148.067V141.104Z" fill="white"/>
<path d="M177.857 141.104H169.969C169.256 141.104 168.613 141.357 168.056 141.856C167.49 142.358 167.21 142.96 167.21 143.669V144.142C167.21 144.894 167.481 145.509 168.021 145.982C168.565 146.454 169.216 146.691 169.975 146.691L175.252 146.707C175.903 146.707 176.23 146.992 176.23 147.559V148.052C176.23 148.29 176.129 148.497 175.922 148.667C175.716 148.835 175.491 148.918 175.252 148.918H167.359V150.614H175.247C175.966 150.614 176.602 150.364 177.166 149.873C177.727 149.378 178.012 148.77 178.012 148.052V147.561C178.012 146.809 177.734 146.189 177.183 145.697C176.648 145.241 176.002 145.012 175.247 145.012L169.966 144.995C169.315 144.995 168.99 144.713 168.99 144.142V143.669C168.99 143.44 169.094 143.234 169.297 143.06C169.503 142.886 169.725 142.8 169.966 142.8H177.857V141.104Z" fill="white"/>
<path d="M186.848 141.128H184.44C183.041 141.128 182.116 141.981 181.673 143.697L179.896 150.638H181.804L183.576 143.69C183.73 143.11 184.057 142.822 184.554 142.822H186.736C187.225 142.822 187.548 143.11 187.704 143.686C187.863 144.259 188.101 145.287 188.175 145.581H184.717L184.311 147.319H188.635L189.504 150.638H191.408L189.616 143.697C189.181 141.981 188.26 141.128 186.848 141.128Z" fill="white"/>
<path d="M201.272 141.104H191.644V142.8H195.533V150.614H197.316V142.8H201.272V141.104Z" fill="white"/>
</g>
<defs>
<clipPath id="clip0_228_922">
<rect width="170" height="65" fill="white" transform="translate(40 92)"/>
</clipPath>
</defs>
</svg>
