<svg width="250" height="250" viewBox="0 0 250 250" fill="none" xmlns="http://www.w3.org/2000/svg">
<rect width="250" height="250" fill="#00283D"/>
<path d="M98.1609 97.9886C107.571 99.2029 118.803 90.7033 127.909 84.0251C136.409 77.6505 146.73 70.0616 154.622 70.0616C159.782 70.0616 164.336 73.0972 165.55 77.0434C165.55 75.5256 164.639 70.9723 164.032 68.8474C163.122 65.8118 160.39 59.4372 151.283 59.4372C141.873 59.4372 131.552 67.3296 123.356 73.4007C113.035 80.9896 103.928 88.882 93.9112 87.0607C88.7507 86.15 86.3223 83.7216 85.7152 81.5967C85.7152 83.1145 86.6258 87.3642 86.9294 89.4891C88.4472 92.2211 91.1792 96.7744 98.1609 97.9886Z" fill="#0098FF"/>
<path d="M138.53 42.1347C120.013 36.0636 101.193 43.3489 91.1756 58.8302C91.1756 58.8302 93.3005 63.3835 101.8 56.0982C115.46 45.1702 122.442 40.0098 138.53 42.1347Z" fill="#00BDFF"/>
<path d="M117.586 54.2766C113.336 57.3122 107.569 61.8655 103.319 64.5975C98.1585 67.9366 91.1768 72.4899 87.8377 66.4188C87.2306 67.9366 86.3199 71.2757 86.3199 72.4899C86.6235 74.6148 88.4448 78.8645 94.2123 78.8645C101.801 78.8645 108.783 72.4899 119.407 64.5975C130.639 56.4015 138.228 50.9375 147.334 52.1517C154.62 53.0624 157.959 56.4015 160.691 59.7406C158.262 55.4908 153.709 50.0269 147.941 46.3842C141.263 42.438 130.942 44.5629 117.586 54.2766Z" fill="#00E1FF"/>
<path d="M112.729 115.291C131.246 121.362 150.066 114.077 160.084 98.5955C160.084 98.5955 157.959 94.0422 149.459 101.328C136.103 112.255 129.121 117.416 112.729 115.291ZM133.674 103.149C137.924 100.113 143.692 95.56 147.941 92.828C153.102 89.4889 160.084 84.9356 163.423 91.0066C164.03 89.4889 164.941 86.1498 164.941 84.9356C164.637 82.8107 162.816 78.5609 157.048 78.5609C149.459 78.5609 142.477 84.9356 131.853 92.828C120.622 101.024 113.033 106.488 103.926 105.274C96.6408 104.363 93.3017 101.024 90.5697 97.6849C92.9981 101.935 97.5514 107.399 103.319 111.041C109.997 114.987 120.622 112.863 133.674 103.149ZM64.1604 145.039H70.2315L69.3209 153.539V157.182L70.2315 166.895V173.573H64.1604V145.039ZM70.2315 162.038L68.1066 162.342V151.11L69.928 151.414C70.5351 146.861 72.66 144.736 77.2133 144.736C82.3737 144.736 86.0163 148.986 86.0163 155.664C86.0163 162.342 82.3737 166.592 76.9097 166.592C72.9635 166.288 70.8386 164.467 70.2315 162.038ZM80.2488 155.36C80.2488 151.718 78.4275 149.593 75.0884 149.593C71.7493 149.593 69.928 151.718 69.928 155.36C69.928 159.003 71.7493 161.128 75.0884 161.128C78.731 161.128 80.2488 159.306 80.2488 155.36ZM110.301 155.36C110.301 162.038 106.051 166.288 99.3727 166.288C92.6945 166.288 88.4448 162.038 88.4448 155.36C88.4448 148.682 92.6945 144.432 99.3727 144.432C106.051 144.432 110.301 148.986 110.301 155.36ZM104.533 155.36C104.533 151.718 102.712 149.593 99.3727 149.593C96.0336 149.593 94.2123 151.718 94.2123 155.36C94.2123 159.003 96.0336 161.128 99.3727 161.128C102.712 161.128 104.533 159.306 104.533 155.36ZM123.657 160.217L124.264 165.378C123.05 165.985 121.532 166.288 119.711 166.288C115.765 166.288 113.336 163.556 113.336 159.306V137.147H119.407V158.699C119.407 160.217 120.014 161.128 121.229 161.128C122.139 160.824 122.746 160.824 123.657 160.217ZM143.388 145.646L142.781 150.807C140.049 149.593 137.621 149.289 135.192 149.289C133.067 149.289 132.157 149.593 132.157 150.807C132.157 151.414 132.764 152.021 133.978 152.325L138.531 153.539C142.477 154.45 143.995 156.878 143.995 159.914C143.995 164.163 140.656 166.592 135.192 166.592C131.246 166.592 128.818 166.288 126.693 165.681L127.3 160.521C129.728 161.431 132.157 162.038 135.192 162.038C137.621 162.038 138.531 161.735 138.531 160.521C138.531 159.61 137.924 159.306 136.103 158.699L131.55 157.485C127.907 156.574 126.389 154.753 126.389 151.414C126.389 147.468 129.728 145.039 135.192 145.039C138.228 144.432 140.96 145.039 143.388 145.646ZM146.727 155.36C146.727 148.682 150.37 144.432 156.137 144.432C160.084 144.432 161.905 145.95 162.816 148.378L164.941 148.075V159.306L163.119 159.003C162.512 163.556 160.387 165.985 155.834 165.985C150.37 166.288 146.727 162.038 146.727 155.36ZM162.816 155.36C162.816 151.718 160.994 149.593 157.655 149.593C154.316 149.593 152.495 151.718 152.495 155.36C152.495 159.003 154.316 161.128 157.655 161.128C160.994 161.128 162.816 159.306 162.816 155.36ZM163.726 157.182V153.539L162.816 145.039H168.887V165.681H162.816L163.726 157.182ZM186.189 150.503H172.226V145.039H186.189V150.503ZM186.796 160.217L187.404 165.378C186.189 165.985 184.672 166.288 182.243 166.288C177.993 166.288 175.261 163.86 175.261 159.306V140.486L181.029 139.575V157.789C181.029 159.914 181.636 160.824 183.761 160.824C184.975 160.824 185.582 160.824 186.796 160.217ZM75.3919 182.377L74.7848 187.537C72.3564 186.323 69.928 185.716 67.4995 185.716C65.3746 185.716 64.464 186.019 64.464 187.233C64.464 187.841 65.0711 188.448 66.2853 188.751L70.8386 189.965C74.4813 190.876 76.3026 193.001 76.3026 196.34C76.3026 200.59 73.2671 203.018 67.4995 203.018C63.5533 203.018 61.1249 202.715 59 202.108L59.6071 196.947C62.3391 197.554 64.7675 198.161 67.8031 198.161C70.2315 198.161 71.1422 197.858 71.1422 196.644C71.1422 195.733 70.5351 195.429 68.7137 194.822L64.1604 193.608C60.5178 192.697 59 190.876 59 187.537C59 183.591 62.3391 181.162 67.8031 181.162C70.5351 180.859 73.2671 181.466 75.3919 182.377ZM86.3199 198.465H86.0163L86.6235 203.322V210H80.5524V181.466H86.6235L86.0163 187.537H86.3199C86.927 182.984 89.0519 180.859 93.6052 180.859C98.7656 180.859 102.408 185.109 102.408 191.787C102.408 198.465 98.7656 202.715 93.3017 202.715C89.3554 203.018 86.927 201.501 86.3199 198.465ZM96.3372 191.787C96.3372 188.144 94.5159 186.019 91.1768 186.019C87.8377 186.019 86.0163 188.144 86.0163 191.787C86.0163 195.429 87.8377 197.554 91.1768 197.554C94.5159 197.554 96.3372 195.733 96.3372 191.787ZM126.086 191.787C126.086 198.465 121.836 202.715 115.158 202.715C108.783 202.715 104.23 198.465 104.23 191.787C104.23 185.109 108.479 180.859 115.158 180.859C121.836 180.859 126.086 185.412 126.086 191.787ZM120.622 191.787C120.622 188.144 118.8 186.019 115.461 186.019C112.122 186.019 110.301 188.144 110.301 191.787C110.301 195.429 112.122 197.554 115.461 197.554C118.8 197.554 120.622 195.733 120.622 191.787ZM144.299 187.537L142.174 187.233C137.924 186.93 136.103 188.751 136.103 193.305V202.108H130.335V181.162H135.799L135.192 187.233H135.799C136.406 182.68 138.228 180.555 141.87 180.555C143.085 180.555 143.995 180.859 144.906 181.162L144.299 187.537ZM160.387 196.644L160.994 201.804C159.477 202.411 157.959 202.715 155.834 202.715C151.584 202.715 149.156 200.286 149.156 195.733V186.626H146.12V181.162H149.156V176.913L154.923 176.002V181.162H159.78V186.626H154.923V194.215C154.923 196.34 155.53 197.251 157.655 197.251C158.566 197.251 159.173 197.251 160.387 196.644ZM177.69 197.858L184.064 197.251H191.957V202.411H171.619V196.947L182.547 189.965C184.975 188.448 185.886 186.93 185.886 184.805C185.886 182.377 184.368 181.162 181.636 181.162C178.6 181.162 176.476 182.68 175.868 186.019L170.405 184.805C171.315 179.341 175.565 176.305 181.636 176.305C187.707 176.305 191.35 179.645 191.35 184.805C191.35 190.269 185.582 195.733 177.386 197.858H177.69Z" fill="#0073FF"/>
</svg>
