<svg width="250" height="250" viewBox="0 0 250 250" fill="none" xmlns="http://www.w3.org/2000/svg">
<rect width="250" height="250" fill="#00283D"/>
<path d="M105.405 105.476C112.169 106.44 120.127 100.23 126.538 95.4101C132.555 90.8856 139.967 85.3267 145.519 85.3926C149.151 85.4334 152.333 87.5167 153.329 90.3354C153.233 89.2586 152.718 86.0576 152.35 84.5254C151.646 82.4304 149.725 77.7801 143.314 77.8084C136.699 77.8373 129.304 83.5644 123.407 87.8971C116.087 93.2762 109.524 98.911 102.56 97.6239C98.8214 96.9332 97.205 95.2053 96.6697 93.6697C96.8874 95.6016 97.2086 97.5204 97.6319 99.4179C98.5283 101.429 100.437 104.772 105.403 105.481" fill="#0098FF"/>
<path d="M134.207 65.5284C120.99 61.1483 107.708 66.4938 100.518 77.5837C100.518 77.5837 102.002 80.7768 108.112 75.6817C117.633 67.7442 122.593 64.1318 134.207 65.5284Z" fill="#00BDFF"/>
<path d="M119.191 74.2968C116.263 76.4407 112.011 79.6884 108.997 81.7024C105.433 84.0842 100.453 87.4434 98.0408 83.0087C97.5514 84.434 97.2055 85.9046 97.0082 87.3985C97.1281 88.8391 98.5366 91.9229 102.682 91.9939C108.011 92.0856 112.947 87.4848 120.491 81.887C128.419 76.0051 133.94 72.1417 140.395 72.8964C145.511 73.4942 147.964 75.9056 149.836 78.3203C147.63 74.4184 144.497 71.1199 140.713 68.7168C136.024 65.7057 128.645 67.3744 119.193 74.297" fill="#00E1FF"/>
<path d="M115.726 117.985C128.944 122.365 142.226 117.019 149.416 105.929C149.416 105.929 147.931 102.736 141.821 107.831C132.301 115.769 127.34 119.382 115.726 117.985ZM130.743 109.217C133.67 107.072 137.923 103.825 140.935 101.811C144.5 99.4289 149.48 96.0698 151.893 100.504C152.382 99.079 152.728 97.6084 152.925 96.1146C152.805 94.674 151.397 91.5902 147.251 91.5186C141.923 91.4276 136.985 96.0283 129.442 101.626C121.514 107.508 115.998 111.371 109.539 110.616C104.421 110.018 101.968 107.608 100.097 105.194C102.304 109.096 105.438 112.394 109.223 114.797C113.912 117.808 121.292 116.139 130.743 109.217Z" fill="#0073FF"/>
<path d="M145.868 144.883L142.558 144.12C141.514 143.893 141.174 143.638 141.174 143.102C141.174 142.336 141.824 142.026 143.41 142.026C145.237 142.054 147.037 142.458 148.702 143.212L149.07 139.56L149.063 139.562C147.288 138.952 145.422 138.646 143.544 138.656C139.611 138.656 137.262 140.385 137.262 143.27C137.262 145.676 138.37 147.007 140.887 147.658L144.199 148.506C145.5 148.846 145.868 149.129 145.868 149.78C145.84 150.628 145.245 150.913 143.519 150.913C141.588 150.968 139.669 150.611 137.887 149.865L137.491 153.628C139.02 154.138 140.719 154.336 143.519 154.336C147.424 154.336 149.774 152.667 149.774 149.525C149.774 147.177 148.643 145.534 145.868 144.883Z" fill="#0073FF"/>
<path d="M198.228 139.079L197.916 143.41L196.362 143.268C193.086 142.968 191.995 144.613 191.921 147.32V153.936H187.732L187.73 139.052H191.723L191.34 143.489L191.721 143.523C192.171 140.268 193.5 138.654 195.964 138.654C196.74 138.648 197.508 138.792 198.228 139.079Z" fill="#0073FF"/>
<path d="M210 153.653C208.841 154.155 207.583 154.387 206.322 154.334C203.35 154.334 201.453 152.635 201.453 149.41V142.872H199.189V139.05H201.453V135.937L205.642 135.316V139.05H209.179V142.872H205.642V148.277C205.642 149.89 206.094 150.371 207.538 150.371C208.248 150.371 208.95 150.226 209.605 149.948L210 153.653Z" fill="#0073FF"/>
<path d="M177.512 138.654C172.871 138.654 169.786 141.769 169.786 146.495C169.786 151.221 172.871 154.334 177.512 154.334C182.153 154.334 185.238 151.221 185.238 146.495C185.238 141.769 182.153 138.654 177.512 138.654ZM177.512 150.598C175.105 150.598 173.834 149.182 173.834 146.495C173.834 143.833 175.105 142.39 177.512 142.39C179.917 142.39 181.192 143.833 181.192 146.495C181.192 149.182 179.917 150.598 177.512 150.598Z" fill="#0073FF"/>
<path d="M161.747 138.654C158.495 138.654 156.909 140.24 156.541 143.41L156.23 143.38L156.653 139.052H152.38V159.43H156.796V154.701L156.439 151.3L156.739 151.276C157.249 153.032 158.748 154.334 161.55 154.334C165.513 154.334 168.03 151.191 168.03 146.495C168.03 141.769 165.513 138.654 161.747 138.654ZM160.389 150.626C158.012 150.626 156.739 149.182 156.739 146.495C156.739 143.805 158.012 142.362 160.389 142.362C162.738 142.362 163.984 143.805 163.984 146.495C163.984 149.182 162.738 150.626 160.389 150.626Z" fill="#0073FF"/>
<path d="M127.701 153.653C126.543 154.155 125.286 154.387 124.023 154.334C121.051 154.334 119.157 152.635 119.157 149.41V142.872H116.893V139.05H119.157V135.937L123.343 135.316V139.05H126.883V142.872H123.343V148.277C123.343 149.89 123.798 150.371 125.242 150.371C125.952 150.371 126.653 150.226 127.306 149.948L127.701 153.653Z" fill="#0073FF"/>
<path d="M110.242 139.052L110.467 141.348L110.155 141.371C109.477 139.76 108.286 138.654 105.456 138.654C101.411 138.654 98.8635 141.796 98.8635 146.495C98.8635 151.221 101.383 154.334 105.146 154.334C108.399 154.334 109.985 152.607 110.353 149.24L110.678 149.269L110.185 153.936H114.513V139.052H110.242ZM106.505 150.626C104.155 150.626 102.912 149.184 102.912 146.495C102.912 143.806 104.155 142.362 106.505 142.362C108.881 142.362 110.155 143.806 110.155 146.495C110.155 149.182 108.881 150.626 106.505 150.626Z" fill="#0073FF"/>
<path d="M97.1076 149.525C97.1076 152.667 94.7583 154.336 90.8528 154.336C88.0506 154.336 86.3541 154.138 84.8233 153.628L85.2188 149.865C87.0004 150.611 88.9202 150.968 90.8528 150.913C92.577 150.913 93.1723 150.628 93.1999 149.78C93.1999 149.129 92.8321 148.846 91.531 148.506L88.2186 147.658C85.7014 147.007 84.5958 145.676 84.5958 143.27C84.5958 140.385 86.943 138.656 90.8762 138.656C92.7534 138.646 94.6201 138.952 96.3954 139.562L96.4017 139.56L96.0339 143.212C94.3714 142.458 92.5685 142.054 90.7422 142.026C89.1583 142.026 88.5056 142.336 88.5056 143.102C88.5056 143.638 88.8458 143.893 89.8897 144.12L93.202 144.883C95.9744 145.534 97.1076 147.177 97.1076 149.525Z" fill="#0073FF"/>
<path d="M82.8462 153.653C81.847 154.121 80.7521 154.353 79.6487 154.334C76.7615 154.334 75.1776 152.437 75.1776 149.382V133.392H79.3659V148.732C79.3659 149.805 79.8188 150.371 80.7521 150.371C81.3495 150.36 81.9363 150.226 82.4784 149.975L82.8462 153.653Z" fill="#0073FF"/>
<path d="M65.1297 138.654C60.4886 138.654 57.4037 141.769 57.4037 146.495C57.4037 151.221 60.4886 154.334 65.1297 154.334C69.7709 154.334 72.8558 151.221 72.8558 146.495C72.8558 141.767 69.7709 138.654 65.1297 138.654ZM65.1297 150.598C62.7252 150.598 61.4517 149.182 61.4517 146.495C61.4517 143.833 62.7252 142.39 65.1297 142.39C67.5364 142.39 68.8099 143.833 68.8099 146.495C68.8099 149.182 67.5364 150.598 65.1297 150.598Z" fill="#0073FF"/>
<path d="M49.3695 138.654C46.1145 138.654 44.5306 140.24 44.1628 143.41L43.8503 143.38L44.2733 139.052H40V159.43H44.4158V154.701L44.0586 151.3L44.3605 151.276C44.8686 153.032 46.3696 154.334 49.1696 154.334C53.1326 154.334 55.6519 151.191 55.6519 146.495C55.6519 141.769 53.1326 138.654 49.3695 138.654ZM48.0109 150.626C45.634 150.626 44.3605 149.182 44.3605 146.495C44.3605 143.806 45.634 142.362 48.0109 142.362C50.3602 142.362 51.6039 143.806 51.6039 146.495C51.6039 149.182 50.3602 150.626 48.0109 150.626Z" fill="#0073FF"/>
<path d="M106.517 159.268C104.91 159.268 104.051 160.042 104.051 161.447C104.051 162.88 104.91 163.627 106.517 163.627C108.123 163.627 108.984 162.88 108.984 161.447C108.984 160.042 108.123 159.268 106.517 159.268ZM104.393 165.147V180.233H108.639V165.147H104.393Z" fill="#00BDFF"/>
<path d="M158.401 179.946C157.223 180.446 155.95 180.68 154.672 180.635C151.547 180.635 149.74 178.798 149.74 175.645V169.018H147.446V165.147H149.74V161.992L153.983 161.358V165.145H157.57V169.016H153.983V174.495C153.983 176.13 154.442 176.617 155.905 176.617C156.626 176.621 157.338 176.476 157.999 176.189L158.401 179.946Z" fill="#00BDFF"/>
<path d="M145.322 170.71V180.233H141.078V171.227C141.078 169.392 140.189 168.417 138.525 168.417C136.146 168.417 135.112 169.392 135.112 171.572V180.233H130.867V159.411H134.94V163.829L134.366 169.535L134.683 169.562C135.055 166.208 136.69 164.63 139.845 164.63C143.315 164.63 145.322 166.839 145.322 170.71Z" fill="#00BDFF"/>
<path d="M122.952 165.147L123.181 167.47L122.865 167.498C122.061 165.576 120.598 164.745 118.104 164.745C114.058 164.745 111.42 167.757 111.42 172.403C111.42 176.991 113.971 180.061 117.79 180.059C121.117 180.059 122.894 178.396 123.268 174.897L123.526 174.926L123.354 178.568C123.241 181.322 121.748 182.727 119.023 182.727C117.358 182.727 116.27 182.41 113.487 181.149L112.453 184.791C114.462 185.918 116.72 186.52 119.023 186.541C124.614 186.541 127.282 183.96 127.282 178.568V165.147H122.952ZM119.165 176.304C116.784 176.304 115.521 174.929 115.521 172.403C115.521 169.877 116.784 168.502 119.165 168.502C121.574 168.502 122.865 169.879 122.865 172.403C122.865 174.926 121.574 176.304 119.165 176.304Z" fill="#00BDFF"/>
<path d="M98.1705 165.176V166.437H102.014V170.396H98.1705V180.233H93.9248V170.396H91.9178V166.437H93.9248V164.288C93.9248 161.075 96.0466 159.009 99.3462 159.009C100.652 158.988 101.953 159.192 103.19 159.613L102.788 163.397C101.931 163.055 101.015 162.889 100.092 162.91C98.6 162.91 98.1705 163.397 98.1705 165.176Z" fill="#00BDFF"/>
</svg>
