<svg width="250" height="250" viewBox="0 0 250 250" fill="none" xmlns="http://www.w3.org/2000/svg">
<rect width="250" height="250" fill="#00283D"/>
<path d="M98.8384 98.8247C108.005 100.133 119.008 91.4937 127.913 84.9488C136.033 78.6652 146.249 71.073 154.107 71.3342C159.085 71.3342 163.538 74.2149 164.846 77.8791C164.846 76.3094 163.799 71.8566 163.538 70.0257C162.49 67.1451 160.132 60.8615 151.227 60.8615C142.321 60.8615 131.843 68.7148 123.724 74.7373C113.508 82.0682 104.866 89.9216 94.9105 88.0907C89.9328 87.0434 87.5771 84.9488 86.791 82.5931C86.791 83.9016 87.3159 88.3519 88.0995 90.4464C89.408 93.0634 92.2911 97.7774 98.8384 98.8247Z" fill="#0098FF"/>
<path d="M138.652 44.105C120.316 38.0826 102.244 45.4135 92.291 60.6002C92.291 60.6002 94.1244 65.0506 102.769 57.9833C115.866 46.9856 122.674 42.2717 138.652 44.105Z" fill="#00BDFF"/>
<path d="M117.961 56.1499C113.77 59.0305 108.27 63.4808 104.078 66.3614C99.1006 69.5033 92.2921 74.2148 88.8866 68.1948C88.3618 69.7645 87.5781 72.9063 87.5781 74.2173C87.8393 76.0506 89.6727 80.5009 95.4364 80.5009C102.77 80.5009 109.581 74.2173 120.058 66.6251C131.058 58.7717 138.655 53.2717 147.561 54.319C154.633 55.3663 158.039 58.5081 160.397 61.6499C158.302 57.4608 153.85 52.2244 147.825 48.2965C141.277 44.3686 131.061 46.4632 117.964 56.1499" fill="#00E1FF"/>
<path d="M113.247 115.842C131.582 121.865 149.655 114.534 159.608 99.3471C159.608 99.3471 157.774 94.8968 149.13 101.964C135.772 112.698 129.222 117.673 113.244 115.84" fill="#0073FF"/>
<path d="M133.937 103.8C138.129 100.919 143.629 96.469 147.821 93.5883C152.798 90.4465 159.607 85.735 163.012 91.755C163.537 90.1853 164.321 87.0434 164.321 85.7325C164.06 83.8992 162.226 79.4489 156.462 79.4489C149.129 79.4489 142.318 85.7325 131.84 93.3247C120.84 101.178 113.243 106.678 104.338 105.631C97.2656 104.584 93.8602 101.442 91.502 98.2999C93.5965 102.489 98.0493 107.725 104.074 111.653C110.621 115.581 121.099 113.223 133.935 103.8" fill="#0073FF"/>
<path d="M78.4076 144.119C73.9549 144.119 71.8603 146.213 71.0742 150.664H70.813L71.3379 144.641H65.3105V172.393H71.3354V166.109L70.8106 161.398H71.0718C71.5967 164.015 73.9524 165.587 77.6191 165.587C83.1192 165.587 86.5246 161.136 86.5246 154.853C87.3107 148.569 83.644 144.119 78.4052 144.119H78.4076ZM76.8379 160.614C73.6937 160.614 71.8603 158.781 71.8603 154.855C71.8603 151.191 73.6937 149.096 76.8379 149.096C79.9822 149.096 81.8155 150.93 81.8155 154.855C81.5543 158.783 79.9822 160.614 76.8379 160.614Z" fill="#0073FF"/>
<path d="M110.888 155.116C110.888 161.4 106.696 165.85 100.149 165.85C93.6017 165.85 89.4102 161.661 89.4102 155.116C89.4102 148.572 93.6017 144.382 100.149 144.382C106.435 144.121 110.888 148.572 110.888 155.116ZM105.124 155.116C105.124 151.452 103.291 149.358 100.147 149.358C97.0023 149.358 95.169 151.191 95.169 155.116C95.169 158.781 97.0023 160.875 100.147 160.875C103.552 160.614 105.124 158.781 105.124 155.116Z" fill="#0073FF"/>
<path d="M124.246 159.828L124.771 164.803C123.462 165.326 121.89 165.85 120.318 165.85C116.126 165.85 114.293 163.233 114.293 159.306V137.574H120.057V158.52C120.057 160.089 120.582 160.614 121.89 160.614C122.676 160.353 122.937 160.092 124.248 159.828" fill="#0073FF"/>
<path d="M143.105 145.427L142.844 150.402C140.225 149.355 137.866 148.833 135.511 148.833C133.416 148.833 132.366 149.094 132.366 150.402C132.366 150.925 132.628 151.45 134.2 151.711L138.652 152.758C142.319 153.805 144.152 155.9 144.152 159.042C144.152 163.492 141.008 165.587 135.508 165.587C131.841 165.587 129.222 165.326 127.389 164.539L127.914 159.564C130.008 160.612 132.628 161.134 135.772 161.134C138.391 161.134 138.916 160.873 138.916 159.564C138.916 158.517 138.391 158.256 136.821 157.731L132.369 156.422C128.963 155.375 127.391 153.542 127.391 150.4C127.391 146.736 130.535 144.116 136.035 144.116C138.394 144.116 141.013 144.639 143.108 145.425" fill="#0073FF"/>
<path d="M162.488 144.905L162.749 148.047H162.488C161.441 145.952 159.869 144.382 156.202 144.382C150.438 144.382 147.035 148.833 147.035 155.116C147.035 161.4 150.441 165.85 155.679 165.85C160.132 165.85 162.227 163.756 163.013 158.781H163.274L162.749 165.064H168.513V144.905H162.488ZM156.988 160.614C153.844 160.614 152.01 158.781 152.01 154.855C152.01 151.191 153.582 149.096 156.988 149.096C160.132 149.096 161.966 150.93 161.966 154.855C162.227 158.783 160.657 160.614 156.988 160.614Z" fill="#0073FF"/>
<path d="M185.803 159.828C184.755 160.089 183.969 160.35 182.922 160.35C181.089 160.35 180.302 159.828 180.302 157.47V150.139H185.016V144.641H180.564V139.666L174.539 140.188V144.639H171.395V150.136H174.539V159.037C174.539 163.487 177.158 165.582 181.086 165.582C183.706 165.582 184.753 165.321 186.064 164.535L185.803 159.823V159.828Z" fill="#0073FF"/>
<path d="M79.9801 181.298L79.4553 186.01C76.8359 184.963 74.4777 184.44 72.1219 184.44C70.0273 184.44 68.9776 184.701 68.9776 186.01C68.9776 186.532 69.2388 187.057 70.811 187.318L75.2637 188.366C78.6692 189.413 80.7638 191.246 80.7638 194.649C80.7638 198.838 77.6195 201.194 72.1195 201.194C68.4528 201.194 65.8333 200.933 64 200.147L64.5249 195.172C66.6194 196.219 69.2388 196.741 72.1219 196.741C74.2164 196.741 75.2662 196.48 75.2662 195.172C75.2662 194.124 74.7413 193.863 73.1716 193.338L68.9801 192.291C65.5746 191.246 64.0024 189.413 64.0024 186.271C64.0024 182.082 67.1467 179.987 72.6468 179.987C75.2662 179.987 77.6244 180.249 79.9801 181.296V181.298Z" fill="#0073FF"/>
<path d="M90.4585 197.008H90.1973L90.7222 201.719V208.003H84.6973V180.251H90.7222L90.1973 186.274H90.4585C90.9834 181.823 93.3391 179.729 97.7919 179.729C102.77 179.729 106.436 184.179 106.436 190.463C106.436 196.746 103.031 201.197 97.5307 201.197C93.6028 201.458 91.2446 199.888 90.4585 197.008ZM100.411 190.724C100.411 187.06 98.8392 184.965 95.4337 184.965C92.2894 184.965 90.4561 186.798 90.4561 190.724C90.4561 194.649 92.2894 196.483 95.4337 196.483C98.578 196.483 100.411 194.127 100.411 190.724Z" fill="#0073FF"/>
<path d="M129.485 190.724C129.485 197.008 125.293 201.458 119.007 201.458C112.721 201.458 108.529 197.269 108.529 190.724C108.529 184.179 112.721 179.99 119.007 179.99C125.293 179.99 129.485 184.179 129.485 190.724ZM124.246 190.724C124.246 187.06 122.412 184.965 119.268 184.965C116.124 184.965 114.291 186.799 114.291 190.724C114.291 194.388 116.124 196.483 119.268 196.483C122.412 196.483 124.246 194.127 124.246 190.724Z" fill="#0073FF"/>
<path d="M147.297 186.271L145.203 186.01C141.011 185.749 139.178 187.58 139.178 192.032V200.672H133.414V180.251H138.653L138.128 186.274H138.653C139.178 181.823 141.272 179.729 144.417 179.729C145.725 179.729 146.25 179.729 147.561 180.251L147.3 186.274L147.297 186.271Z" fill="#0073FF"/>
<path d="M163.013 195.435L163.538 200.411C161.966 200.933 160.658 201.458 158.561 201.458C154.369 201.458 152.013 198.841 152.013 194.913V186.012H148.869V180.515H152.013V176.326L157.777 175.278V180.254H162.491V185.751H157.777V193.082C157.777 195.177 158.302 195.963 160.397 195.963C161.183 195.702 162.23 195.702 163.016 195.438L163.013 195.435Z" fill="#0073FF"/>
<path d="M179.777 200.933V181.035L175.063 183.915L172.443 179.204L180.04 174.492H186.065V200.935H179.779L179.777 200.933Z" fill="#0073FF"/>
</svg>
