<svg width="250" height="250" viewBox="0 0 250 250" fill="none" xmlns="http://www.w3.org/2000/svg">
<rect width="250" height="250" fill="#00283D"/>
<path d="M103.607 103.044C111.116 104.113 119.951 97.2199 127.068 91.8689C133.747 86.8463 141.975 80.6752 148.138 80.7484C152.171 80.7937 155.702 83.1064 156.808 86.2355C156.702 85.0401 156.13 81.4866 155.722 79.7857C154.94 77.46 152.807 72.2976 145.691 72.329C138.347 72.3611 130.138 78.7189 123.592 83.5286C115.466 89.5 108.18 95.7554 100.449 94.3266C96.2989 93.5597 94.5044 91.6416 93.9102 89.9369C94.1518 92.0816 94.5085 94.2116 94.9784 96.3181C95.9734 98.5503 98.0921 102.262 103.606 103.049" fill="#0098FF"/>
<path d="M135.581 58.6967C120.908 53.8343 106.164 59.7684 98.1816 72.0795C98.1816 72.0795 99.8293 75.6242 106.612 69.9681C117.181 61.1565 122.688 57.1463 135.581 58.6967Z" fill="#00BDFF"/>
<path d="M118.911 68.4307C115.66 70.8107 110.94 74.416 107.595 76.6518C103.638 79.2959 98.1091 83.0249 95.4315 78.1019C94.8882 79.6841 94.5042 81.3167 94.2852 82.9751C94.4183 84.5744 95.9819 87.9978 100.584 88.0766C106.5 88.1783 111.979 83.071 120.354 76.8567C129.155 70.3271 135.284 66.0382 142.449 66.8761C148.128 67.5397 150.852 70.2166 152.93 72.8973C150.481 68.5657 147.003 64.9039 142.803 62.2363C137.597 58.8936 129.405 60.7461 118.913 68.4309" fill="#00E1FF"/>
<path d="M115.065 116.929C129.738 121.792 144.483 115.858 152.465 103.547C152.465 103.547 150.817 100.002 144.033 105.657C133.465 114.47 127.958 118.481 115.065 116.929ZM131.736 107.196C134.985 104.815 139.706 101.21 143.051 98.9743C147.008 96.3302 152.536 92.6012 155.214 97.5235C155.758 95.9418 156.142 94.3093 156.36 92.651C156.227 91.0518 154.664 87.6284 150.062 87.5488C144.146 87.4478 138.666 92.5552 130.292 98.7697C121.491 105.299 115.367 109.587 108.197 108.75C102.516 108.086 99.7927 105.41 97.7148 102.73C100.165 107.062 103.644 110.723 107.846 113.39C113.052 116.733 121.244 114.88 131.736 107.196Z" fill="#0073FF"/>
<path d="M148.527 146.79L144.852 145.943C143.693 145.69 143.315 145.407 143.315 144.812C143.315 143.963 144.038 143.618 145.798 143.618C147.826 143.649 149.825 144.097 151.673 144.935L152.081 140.88L152.074 140.883C150.103 140.205 148.031 139.865 145.947 139.877C141.581 139.877 138.973 141.796 138.973 144.999C138.973 147.67 140.202 149.148 142.997 149.87L146.674 150.812C148.118 151.189 148.527 151.503 148.527 152.226C148.496 153.167 147.835 153.484 145.919 153.484C143.776 153.545 141.644 153.148 139.667 152.32L139.228 156.497C140.924 157.064 142.81 157.283 145.919 157.283C150.254 157.283 152.862 155.431 152.862 151.942C152.862 149.337 151.607 147.512 148.527 146.79Z" fill="#0073FF"/>
<path d="M206.652 140.347L206.306 145.155L204.58 144.996C200.943 144.664 199.733 146.49 199.65 149.495V156.84H195L194.998 140.316H199.43L199.006 145.242L199.428 145.28C199.928 141.666 201.404 139.875 204.139 139.875C205 139.868 205.852 140.028 206.652 140.347Z" fill="#0073FF"/>
<path d="M219.72 156.526C218.434 157.083 217.037 157.34 215.637 157.281C212.338 157.281 210.232 155.395 210.232 151.815V144.557H207.719V140.314H210.232V136.859L214.882 136.169V140.314H218.809V144.557H214.882V150.557C214.882 152.348 215.385 152.882 216.987 152.882C217.775 152.882 218.554 152.721 219.281 152.412L219.72 156.526Z" fill="#0073FF"/>
<path d="M183.655 139.875C178.503 139.875 175.078 143.333 175.078 148.579C175.078 153.826 178.503 157.281 183.655 157.281C188.807 157.281 192.232 153.826 192.232 148.579C192.232 143.333 188.807 139.875 183.655 139.875ZM183.655 153.134C180.983 153.134 179.572 151.562 179.572 148.579C179.572 145.624 180.983 144.022 183.655 144.022C186.324 144.022 187.74 145.624 187.74 148.579C187.74 151.562 186.324 153.134 183.655 153.134Z" fill="#0073FF"/>
<path d="M166.155 139.875C162.544 139.875 160.783 141.636 160.375 145.155L160.03 145.121L160.5 140.316H155.756V162.938H160.658V157.689L160.261 153.913L160.594 153.887C161.161 155.837 162.824 157.281 165.935 157.281C170.335 157.281 173.129 153.793 173.129 148.579C173.129 143.333 170.335 139.875 166.155 139.875ZM164.647 153.165C162.008 153.165 160.594 151.562 160.594 148.579C160.594 145.594 162.008 143.991 164.647 143.991C167.255 143.991 168.638 145.594 168.638 148.579C168.638 151.562 167.255 153.165 164.647 153.165Z" fill="#0073FF"/>
<path d="M128.358 156.526C127.072 157.083 125.677 157.34 124.275 157.281C120.976 157.281 118.873 155.395 118.873 151.815V144.557H116.359V140.314H118.873V136.859L123.52 136.169V140.314H127.45V144.557H123.52V150.557C123.52 152.348 124.025 152.882 125.628 152.882C126.416 152.882 127.195 152.721 127.919 152.412L128.358 156.526Z" fill="#0073FF"/>
<path d="M108.977 140.316L109.227 142.865L108.88 142.891C108.128 141.102 106.806 139.875 103.665 139.875C99.1732 139.875 96.3457 143.363 96.3457 148.579C96.3457 153.826 99.1425 157.281 103.32 157.281C106.931 157.281 108.692 155.365 109.1 151.626L109.461 151.659L108.914 156.84H113.719V140.316H108.977ZM104.828 153.165C102.22 153.165 100.839 151.565 100.839 148.579C100.839 145.594 102.22 143.991 104.828 143.991C107.467 143.991 108.88 145.594 108.88 148.579C108.88 151.562 107.467 153.165 104.828 153.165Z" fill="#0073FF"/>
<path d="M94.3953 151.942C94.3953 155.431 91.7874 157.283 87.4518 157.283C84.3411 157.283 82.4577 157.064 80.7584 156.497L81.1974 152.32C83.1752 153.148 85.3064 153.545 87.4518 153.484C89.3659 153.484 90.0267 153.167 90.0574 152.226C90.0574 151.503 89.6491 151.189 88.2047 150.812L84.5276 149.87C81.7331 149.148 80.5059 147.67 80.5059 144.999C80.5059 141.796 83.1115 139.877 87.4777 139.877C89.5618 139.865 91.634 140.205 93.6047 140.883L93.6118 140.88L93.2035 144.935C91.3578 144.097 89.3564 143.649 87.3291 143.618C85.5707 143.618 84.8462 143.963 84.8462 144.812C84.8462 145.407 85.2238 145.69 86.3826 145.943L90.0598 146.79C93.1374 147.512 94.3953 149.337 94.3953 151.942Z" fill="#0073FF"/>
<path d="M78.5638 156.526C77.4546 157.045 76.2391 157.302 75.0142 157.281C71.8091 157.281 70.0508 155.176 70.0508 151.784V134.033H74.7003V151.062C74.7003 152.254 75.203 152.882 76.2391 152.882C76.9023 152.87 77.5537 152.721 78.1555 152.443L78.5638 156.526Z" fill="#0073FF"/>
<path d="M58.8971 139.875C53.7449 139.875 50.3203 143.333 50.3203 148.579C50.3203 153.826 53.7449 157.281 58.8971 157.281C64.0493 157.281 67.4739 153.826 67.4739 148.579C67.4739 143.33 64.0493 139.875 58.8971 139.875ZM58.8971 153.134C56.2278 153.134 54.814 151.562 54.814 148.579C54.814 145.624 56.2278 144.022 58.8971 144.022C61.5688 144.022 62.9825 145.624 62.9825 148.579C62.9825 151.562 61.5688 153.134 58.8971 153.134Z" fill="#0073FF"/>
<path d="M41.4012 139.875C37.7878 139.875 36.0295 141.636 35.6212 145.155L35.2742 145.121L35.7439 140.316H31V162.938H35.902V157.689L35.5055 153.913L35.8407 153.887C36.4047 155.837 38.071 157.281 41.1793 157.281C45.5787 157.281 48.3754 153.793 48.3754 148.579C48.3754 143.333 45.5787 139.875 41.4012 139.875ZM39.8931 153.165C37.2544 153.165 35.8407 151.562 35.8407 148.579C35.8407 145.594 37.2544 143.991 39.8931 143.991C42.501 143.991 43.8817 145.594 43.8817 148.579C43.8817 151.562 42.501 153.165 39.8931 153.165Z" fill="#0073FF"/>
<path d="M104.841 162.759C103.057 162.759 102.104 163.618 102.104 165.178C102.104 166.769 103.057 167.597 104.841 167.597C106.623 167.597 107.579 166.769 107.579 165.178C107.579 163.618 106.623 162.759 104.841 162.759ZM102.484 169.285V186.032H107.197V169.285H102.484Z" fill="#00BDFF"/>
<path d="M162.439 185.714C161.132 186.268 159.718 186.528 158.299 186.478C154.83 186.478 152.824 184.439 152.824 180.939V173.582H150.277V169.285H152.824V165.782L157.535 165.079V169.282H161.516V173.58H157.535V179.662C157.535 181.477 158.045 182.018 159.668 182.018C160.468 182.022 161.259 181.862 161.993 181.543L162.439 185.714Z" fill="#00BDFF"/>
<path d="M147.92 175.461V186.032H143.209V176.035C143.209 173.998 142.222 172.915 140.374 172.915C137.733 172.915 136.586 173.998 136.586 176.417V186.032H131.873V162.917H136.395V167.821L135.758 174.156L136.11 174.187C136.523 170.462 138.338 168.711 141.84 168.711C145.692 168.711 147.92 171.163 147.92 175.461Z" fill="#00BDFF"/>
<path d="M123.087 169.285L123.342 171.864L122.99 171.895C122.098 169.761 120.474 168.839 117.705 168.839C113.214 168.839 110.285 172.183 110.285 177.34C110.285 182.433 113.117 185.841 117.356 185.839C121.05 185.839 123.023 183.993 123.438 180.108L123.724 180.141L123.533 184.184C123.408 187.241 121.751 188.801 118.725 188.801C116.877 188.801 115.669 188.449 112.579 187.05L111.432 191.092C113.663 192.343 116.169 193.011 118.725 193.035C124.932 193.035 127.894 190.17 127.894 184.184V169.285H123.087ZM118.883 181.671C116.24 181.671 114.838 180.144 114.838 177.34C114.838 174.536 116.24 173.009 118.883 173.009C121.557 173.009 122.99 174.538 122.99 177.34C122.99 180.141 121.557 181.671 118.883 181.671Z" fill="#00BDFF"/>
<path d="M95.576 169.318V170.717H99.8431V175.112H95.576V186.032H90.8627V175.112H88.6348V170.717H90.8627V168.331C90.8627 164.765 93.2182 162.471 96.8811 162.471C98.3303 162.447 99.7747 162.674 101.148 163.141L100.702 167.342C99.7511 166.962 98.7339 166.778 97.7095 166.802C96.0527 166.802 95.576 167.342 95.576 169.318Z" fill="#00BDFF"/>
</svg>
