<svg width="250" height="250" viewBox="0 0 250 250" fill="none" xmlns="http://www.w3.org/2000/svg">
<rect width="250" height="250" fill="#00283D"/>
<path d="M94.7357 100.31C104.573 101.71 116.142 92.6815 125.466 85.673C134.214 79.0955 144.993 71.0136 153.068 71.1034C158.349 71.1639 162.975 74.1935 164.423 78.2915C164.283 76.727 163.535 72.0723 162.999 69.8442C161.977 66.7974 159.182 60.0357 149.861 60.0771C140.242 60.1184 129.488 68.4467 120.915 74.7486C110.271 82.5686 100.729 90.7616 90.6014 88.8897C85.167 87.8869 82.8152 85.3731 82.0355 83.1379C82.1395 84.5595 82.8566 89.0496 83.4354 91.4954C84.7385 94.4181 87.5137 99.2811 94.7357 100.31Z" fill="#0087AB"/>
<path d="M136.619 42.2227C117.399 35.8536 98.0848 43.6252 87.6298 59.7518C87.6298 59.7518 89.7878 64.3943 98.6732 56.9861C112.517 45.444 119.728 40.1909 136.619 42.2227Z" fill="#00B0D1"/>
<path d="M114.781 54.9718C110.524 58.0887 104.34 62.8114 99.9592 65.7416C94.7766 69.2048 87.5355 74.087 84.0285 67.6403C83.5173 69.234 82.5609 72.5543 82.527 74.024C82.7016 76.1189 84.7502 80.6015 90.776 80.7059C98.5258 80.8391 105.704 74.1501 116.673 66.0102C128.2 57.4564 136.229 51.8403 145.616 52.937C153.055 53.804 156.623 57.311 159.345 60.8201C156.986 56.2986 152.225 50.8083 146.074 46.8582C139.256 42.4804 128.525 44.9069 114.781 54.9718Z" fill="#00C9F2"/>
<path d="M109.744 118.499C128.964 124.868 148.278 117.094 158.733 100.97C158.733 100.97 156.573 96.3271 147.687 103.735C133.844 115.278 126.631 120.531 109.744 118.499Z" fill="#1F5E8C"/>
<path d="M131.58 105.749C135.837 102.632 142.02 97.91 146.401 94.9794C151.584 91.5163 158.826 86.6315 162.335 93.0808C162.846 91.4871 163.8 88.1668 163.836 86.6971C163.662 84.6022 161.613 80.1196 155.585 80.0151C147.835 79.8819 140.659 86.5734 129.688 94.7109C118.161 103.265 110.135 108.881 100.745 107.784C93.3056 106.917 89.7381 103.41 87.0159 99.8985C89.3747 104.422 94.1359 109.91 100.287 113.862C107.107 118.241 117.836 115.815 131.58 105.749Z" fill="#005E8C"/>
<path d="M73.0306 165.963C69.5725 165.963 67.7194 163.863 67.7194 159.955C67.7194 156.046 69.5721 153.946 73.0306 153.946C76.4453 153.946 78.2545 156.046 78.2545 159.955C78.2545 163.864 76.4453 165.963 73.0306 165.963ZM75.2855 148.304C70.3957 148.304 68.0126 150.604 67.4605 155.201L66.9906 155.16L67.63 148.88H61.2075V178.439H67.843V171.582L67.3055 166.649L67.7582 166.615C68.5234 169.161 70.7782 171.05 74.9873 171.05C80.9425 171.05 84.7281 166.492 84.7281 159.677C84.7281 152.82 80.9429 148.304 75.2855 148.304Z" fill="#00B0D1"/>
<path d="M97.9257 165.922C94.4283 165.922 92.5756 163.864 92.5756 159.955C92.5756 156.088 94.4283 153.988 97.9257 153.988C101.425 153.988 103.275 156.088 103.275 159.955C103.276 163.864 101.425 165.922 97.9257 165.922ZM97.9257 148.556C91.1761 148.556 86.6906 153.082 86.6906 159.956C86.6906 166.829 91.1757 171.355 97.9257 171.355C104.673 171.355 109.16 166.829 109.16 159.956C109.161 153.082 104.673 148.556 97.9257 148.556Z" fill="#00B0D1"/>
<path d="M118.926 171.489C120.677 171.489 122.145 171.159 123.532 170.501L123.002 165.151C121.941 165.563 121.372 165.727 120.515 165.727C119.171 165.727 118.516 164.904 118.516 163.342V141.037H112.484V164.287C112.484 168.733 114.768 171.489 118.926 171.489Z" fill="#00B0D1"/>
<path d="M138.749 157.608L133.934 156.497C132.411 156.17 131.917 155.797 131.917 155.017C131.917 153.905 132.864 153.452 135.167 153.452C137.637 153.452 140.19 154.029 142.864 155.181L143.399 149.873C140.972 149.008 138.214 148.555 135.373 148.555C129.655 148.555 126.24 151.066 126.24 155.263C126.24 158.76 127.844 160.693 131.506 161.642L136.323 162.875C138.214 163.369 138.749 163.781 138.749 164.728C138.708 165.963 137.843 166.375 135.335 166.375C132.123 166.375 129.612 165.922 127.144 164.852L126.57 170.322C128.791 171.066 131.259 171.352 135.335 171.352C141.014 171.352 144.427 168.925 144.427 164.357C144.426 160.943 142.781 158.555 138.749 157.608Z" fill="#00B0D1"/>
<path d="M158.091 165.964C154.673 165.964 152.864 163.864 152.864 159.955C152.864 156.044 154.673 153.946 158.091 153.946C161.547 153.946 163.399 156.044 163.399 159.955C163.399 163.864 161.546 165.964 158.091 165.964ZM169.795 170.597V148.88H163.561L163.891 152.23L163.438 152.266C162.447 149.91 160.711 148.302 156.584 148.302C150.68 148.302 146.965 152.884 146.965 159.74C146.965 166.632 150.639 171.174 156.129 171.174C160.878 171.174 163.188 168.657 163.726 163.744L164.196 163.787L163.479 170.597H169.795V170.597Z" fill="#00B0D1"/>
<path d="M176.431 164.418C176.431 169.109 179.163 171.577 183.442 171.577C186.012 171.577 187.436 171.167 188.741 170.591L188.172 165.2C187.031 165.653 186.174 165.815 185.195 165.815C183.115 165.815 182.464 165.118 182.464 162.773V154.912H187.893V149.482H182.464V144.05L176.431 144.956V149.483H173.416V154.913H176.431V164.418Z" fill="#00B0D1"/>
<path d="M155.414 196.257L150.599 195.145C149.076 194.818 148.582 194.445 148.582 193.666C148.582 192.554 149.529 192.101 151.835 192.101C154.302 192.101 156.855 192.677 159.529 193.83L160.064 188.521C157.638 187.657 154.879 187.204 152.041 187.204C146.32 187.204 142.906 189.715 142.906 193.912C142.906 197.409 144.509 199.342 148.171 200.291L152.988 201.524C154.88 202.018 155.415 202.43 155.415 203.377C155.373 204.612 154.509 205.023 152 205.023C148.789 205.023 146.28 204.571 143.81 203.5L143.236 208.971C145.456 209.714 147.927 210 152 210C157.68 210 161.094 207.574 161.094 203.006C161.093 199.592 159.446 197.204 155.414 196.257Z" fill="#00B0D1"/>
<path d="M72.7386 186.744C68.1809 186.744 65.9431 189.098 65.4148 193.845L64.9646 193.804L65.5773 187.488H60V209.207H66.0325V196.766C66.0325 193.634 67.4951 192.235 70.8638 192.235C73.2202 192.235 74.4798 193.635 74.4798 196.27V209.207H80.5123V195.499C80.5127 189.924 77.6648 186.744 72.7386 186.744Z" fill="#00B0D1"/>
<path d="M90.2472 196.537C90.768 193.909 92.3664 192.541 94.9599 192.541C97.3526 192.541 98.9681 193.813 99.3557 196.537H90.2472ZM105.134 198.097C105.134 191.507 101.056 187.099 94.9599 187.099C88.6998 187.099 84.2895 191.795 84.2895 198.509C84.2895 205.43 88.3703 209.92 95.8658 209.92C99.4889 209.92 102.291 208.726 105.052 206.46L102.828 201.929C100.232 203.781 98.1737 204.481 95.9894 204.481C92.2599 204.481 90.601 203.062 90.1771 200.156H105.011C105.093 199.499 105.134 198.799 105.134 198.097Z" fill="#00B0D1"/>
<path d="M131.075 201.052L126.69 187.487H120.855L116.431 201.023L112.459 187.487H106.172L113.203 209.206H119.16L123.655 195.331L128.22 209.206H134.095L141.003 187.487H135.047L131.075 201.052Z" fill="#00B0D1"/>
<path d="M182.197 203.776L175.53 204.469L175.489 204.103C182.815 202.185 190.141 197.165 190.141 190.672C190.141 185.324 186.397 181.936 179.977 181.936C173.143 181.936 169.275 185.528 168.328 190.63L173.966 191.897C174.624 188.754 176.601 186.957 179.853 186.957C182.897 186.957 184.3 188.551 184.3 190.754C184.3 193.203 182.856 194.714 180.715 196.06L169.192 203.408V209.206H190.306V203.776L182.197 203.776Z" fill="#00B0D1"/>
</svg>
