<svg width="250" height="250" viewBox="0 0 250 250" fill="none" xmlns="http://www.w3.org/2000/svg">
<rect width="250" height="250" fill="#00283D"/>
<path d="M98.2388 98.6242C107.428 99.8098 118.395 91.5103 127.287 84.9892C135.587 78.7646 145.665 71.3543 153.371 71.3543C158.41 71.3543 162.857 74.3184 164.042 78.1718C164.042 76.6897 163.153 72.2435 162.56 70.1686C161.671 67.2045 159.003 60.9799 150.111 60.9799C140.922 60.9799 130.844 68.6866 122.841 74.6148C112.763 82.0251 103.871 89.7318 94.0891 87.9534C89.0501 87.0641 86.6788 84.6928 86.0859 82.6179C86.0859 84.1 86.9752 88.2498 87.2716 90.3246C88.7536 92.9924 91.4214 97.4385 98.2388 98.6242Z" fill="#0098FF"/>
<path d="M137.658 44.0844C119.577 38.1562 101.2 45.2701 91.418 60.3871C91.418 60.3871 93.4929 64.8333 101.792 57.7194C115.131 47.0485 121.948 42.0095 137.658 44.0844Z" fill="#00BDFF"/>
<path d="M117.208 55.9407C113.058 58.9048 107.427 63.351 103.277 66.0187C98.2378 69.2792 91.4203 73.7254 88.1598 67.7971C87.567 69.2792 86.6777 72.5397 86.6777 73.7254C86.9741 75.8003 88.7526 79.95 94.3844 79.95C101.795 79.95 108.612 73.7254 118.987 66.0187C129.954 58.0155 137.364 52.6801 146.257 53.8658C153.37 54.755 156.631 58.0155 159.299 61.2761C156.927 57.1263 152.481 51.7909 146.849 48.2339C140.328 44.3806 130.25 46.4555 117.208 55.9407Z" fill="#00E1FF"/>
<path d="M112.465 115.519C130.546 121.448 148.924 114.334 158.705 99.2168C158.705 99.2168 156.63 94.7706 148.331 101.884C135.289 112.555 128.471 117.594 112.465 115.519ZM132.917 103.663C137.067 100.699 142.699 96.2526 146.849 93.5849C151.888 90.3244 158.705 85.8782 161.966 91.8065C162.559 90.3244 163.448 87.0639 163.448 85.8782C163.151 83.8033 161.373 79.6536 155.741 79.6536C148.331 79.6536 141.513 85.8782 131.139 93.5849C120.172 101.588 112.761 106.923 103.869 105.738C96.7551 104.849 93.4946 101.588 90.8268 98.3275C93.1981 102.477 97.6443 107.813 103.276 111.37C109.797 115.223 120.172 113.148 132.917 103.663ZM65.039 144.568H70.9672L70.078 152.867V156.424L70.9672 165.909V172.431H65.039V144.568ZM70.9672 161.167L68.8924 161.463V150.496L70.6708 150.792C71.2637 146.346 73.3385 144.271 77.7847 144.271C82.8237 144.271 86.3807 148.421 86.3807 154.942C86.3807 161.463 82.8237 165.613 77.4883 165.613C73.635 165.317 71.5601 163.538 70.9672 161.167ZM80.7488 154.646C80.7488 151.089 78.9704 149.014 75.7098 149.014C72.4493 149.014 70.6708 151.089 70.6708 154.646C70.6708 158.203 72.4493 160.278 75.7098 160.278C79.2668 160.278 80.7488 158.499 80.7488 154.646ZM110.094 154.646C110.094 161.167 105.944 165.317 99.4228 165.317C92.9017 165.317 88.752 161.167 88.752 154.646C88.752 148.125 92.9017 143.975 99.4228 143.975C105.944 143.975 110.094 148.421 110.094 154.646ZM104.462 154.646C104.462 151.089 102.683 149.014 99.4228 149.014C96.1623 149.014 94.3838 151.089 94.3838 154.646C94.3838 158.203 96.1623 160.278 99.4228 160.278C102.683 160.278 104.462 158.499 104.462 154.646ZM123.136 159.388L123.729 164.427C122.543 165.02 121.061 165.317 119.282 165.317C115.429 165.317 113.058 162.649 113.058 158.499V136.861H118.986V157.906C118.986 159.388 119.579 160.278 120.764 160.278C121.654 159.981 122.247 159.981 123.136 159.388ZM142.403 145.161L141.81 150.2C139.142 149.014 136.771 148.718 134.399 148.718C132.325 148.718 131.435 149.014 131.435 150.2C131.435 150.792 132.028 151.385 133.214 151.682L137.66 152.867C141.513 153.757 142.995 156.128 142.995 159.092C142.995 163.242 139.735 165.613 134.399 165.613C130.546 165.613 128.175 165.317 126.1 164.724L126.693 159.685C129.064 160.574 131.435 161.167 134.399 161.167C136.771 161.167 137.66 160.87 137.66 159.685C137.66 158.796 137.067 158.499 135.289 157.906L130.842 156.721C127.286 155.831 125.803 154.053 125.803 150.792C125.803 146.939 129.064 144.568 134.399 144.568C137.364 143.975 140.031 144.568 142.403 145.161ZM145.663 154.646C145.663 148.125 149.22 143.975 154.852 143.975C158.705 143.975 160.484 145.457 161.373 147.828L163.448 147.532V158.499L161.669 158.203C161.077 162.649 159.002 165.02 154.555 165.02C149.22 165.317 145.663 161.167 145.663 154.646ZM161.373 154.646C161.373 151.089 159.594 149.014 156.334 149.014C153.073 149.014 151.295 151.089 151.295 154.646C151.295 158.203 153.073 160.278 156.334 160.278C159.594 160.278 161.373 158.499 161.373 154.646ZM162.262 156.424V152.867L161.373 144.568H167.301V164.724H161.373L162.262 156.424ZM184.197 149.903H170.562V144.568H184.197V149.903ZM184.789 159.388L185.382 164.427C184.197 165.02 182.715 165.317 180.343 165.317C176.194 165.317 173.526 162.945 173.526 158.499V140.122L179.158 139.232V157.017C179.158 159.092 179.75 159.981 181.825 159.981C183.011 159.981 183.604 159.981 184.789 159.388ZM76.0062 181.026L75.4134 186.065C73.0421 184.88 70.6708 184.287 68.2995 184.287C66.2247 184.287 65.3354 184.583 65.3354 185.769C65.3354 186.362 65.9282 186.955 67.1139 187.251L71.5601 188.437C75.117 189.326 76.8955 191.401 76.8955 194.661C76.8955 198.811 73.9314 201.182 68.2995 201.182C64.4462 201.182 62.0749 200.886 60 200.293L60.5928 195.254C63.2605 195.847 65.6318 196.44 68.5959 196.44C70.9672 196.44 71.8565 196.143 71.8565 194.958C71.8565 194.069 71.2637 193.772 69.4852 193.179L65.039 191.994C61.4821 191.104 60 189.326 60 186.065C60 182.212 63.2605 179.841 68.5959 179.841C71.2637 179.544 73.9314 180.137 76.0062 181.026ZM86.6771 196.736H86.3807L86.9735 201.479V208H81.0453V180.137H86.9735L86.3807 186.065H86.6771C87.2699 181.619 89.3448 179.544 93.791 179.544C98.83 179.544 102.387 183.694 102.387 190.215C102.387 196.736 98.83 200.886 93.4946 200.886C89.6412 201.182 87.2699 199.7 86.6771 196.736ZM96.4587 190.215C96.4587 186.658 94.6802 184.583 91.4197 184.583C88.1591 184.583 86.3807 186.658 86.3807 190.215C86.3807 193.772 88.1591 195.847 91.4197 195.847C94.6802 195.847 96.4587 194.069 96.4587 190.215ZM125.507 190.215C125.507 196.736 121.357 200.886 114.836 200.886C108.612 200.886 104.165 196.736 104.165 190.215C104.165 183.694 108.315 179.544 114.836 179.544C121.357 179.544 125.507 183.991 125.507 190.215ZM120.172 190.215C120.172 186.658 118.393 184.583 115.133 184.583C111.872 184.583 110.094 186.658 110.094 190.215C110.094 193.772 111.872 195.847 115.133 195.847C118.393 195.847 120.172 194.069 120.172 190.215ZM143.292 186.065L141.217 185.769C137.067 185.473 135.289 187.251 135.289 191.697V200.293H129.657V179.841H134.992L134.399 185.769H134.992C135.585 181.323 137.364 179.248 140.92 179.248C142.106 179.248 142.995 179.544 143.885 179.841L143.292 186.065ZM159.002 194.958L159.594 199.997C158.112 200.59 156.63 200.886 154.555 200.886C150.406 200.886 148.034 198.515 148.034 194.069V185.176H145.07V179.841H148.034V175.691L153.666 174.802V179.841H158.409V185.176H153.666V192.587C153.666 194.661 154.259 195.551 156.334 195.551C157.223 195.551 157.816 195.551 159.002 194.958ZM175.897 196.143L182.122 195.551H189.828V200.59H169.969V195.254L180.64 188.437C183.011 186.955 183.9 185.473 183.9 183.398C183.9 181.026 182.418 179.841 179.75 179.841C176.786 179.841 174.711 181.323 174.119 184.583L168.783 183.398C169.672 178.062 173.822 175.098 179.75 175.098C185.679 175.098 189.236 178.359 189.236 183.398C189.236 188.733 183.604 194.069 175.601 196.143H175.897Z" fill="#0073FF"/>
</svg>
