<svg width="250" height="250" viewBox="0 0 250 250" fill="none" xmlns="http://www.w3.org/2000/svg">
<rect width="250" height="250" fill="#00283D"/>
<path d="M40 142.038H44.2738L43.6788 148.09V150.691L44.4166 157.678V162.404H40V142.034V142.044V142.038ZM44.3588 154.257L42.9138 154.366V146.274L44.1616 146.383C44.5254 143.214 46.1166 141.633 49.3704 141.633C53.1342 141.633 55.6502 144.744 55.6502 149.47C55.6502 154.196 53.1342 157.307 49.1732 157.307C46.3682 157.307 44.8722 156.008 44.3622 154.247M51.611 149.463C51.611 146.777 50.37 145.332 48.0172 145.332C45.6644 145.332 44.3622 146.777 44.3622 149.463C44.3622 152.149 45.6372 153.594 48.0172 153.594C50.3972 153.594 51.611 152.149 51.611 149.463ZM72.8508 149.473C72.8508 154.199 69.7636 157.31 65.126 157.31C60.4884 157.31 57.4012 154.199 57.4012 149.473C57.4012 144.747 60.4884 141.636 65.126 141.636C69.7636 141.636 72.8508 144.747 72.8508 149.473ZM68.8048 149.473C68.8048 146.815 67.5298 145.37 65.126 145.37C62.7222 145.37 61.4472 146.815 61.4472 149.473C61.4472 152.132 62.7222 153.577 65.126 153.577C67.5298 153.577 68.8048 152.166 68.8048 149.473ZM82.4728 152.958L82.84 156.637C81.8778 157.086 80.8578 157.317 79.644 157.317C76.754 157.317 75.173 155.423 75.173 152.363V136.377H79.3618V151.717C79.3618 152.788 79.8106 153.356 80.749 153.356C81.344 153.356 81.7418 153.247 82.4728 152.958ZM96.406 142.537L96.0388 146.182C94.2028 145.393 92.445 144.992 90.745 144.992C89.164 144.992 88.5078 145.305 88.5078 146.07C88.5078 146.604 88.8478 146.859 89.895 147.09L93.21 147.855C95.981 148.508 97.1098 150.15 97.1098 152.496C97.1098 155.641 94.7638 157.307 90.8538 157.307C88.0488 157.307 86.359 157.113 84.829 156.603L85.2302 152.839C86.9302 153.577 88.654 153.883 90.864 153.883C92.5878 153.883 93.1828 153.604 93.21 152.754C93.21 152.102 92.8428 151.819 91.544 151.479L88.229 150.629C85.713 149.977 84.608 148.651 84.608 146.243C84.608 143.353 86.954 141.63 90.8878 141.63C92.8428 141.63 94.7366 141.942 96.4026 142.537M98.8608 149.473C98.8608 144.775 101.411 141.636 105.457 141.636C108.289 141.636 109.479 142.741 110.156 144.356L111.601 144.248V152.34L110.349 152.231C109.982 155.597 108.394 157.321 105.141 157.321C101.377 157.321 98.8608 154.21 98.8608 149.484M110.149 149.48C110.149 146.794 108.874 145.349 106.494 145.349C104.114 145.349 102.9 146.794 102.9 149.48C102.9 152.166 104.141 153.611 106.497 153.611C108.853 153.611 110.152 152.166 110.152 149.48M110.829 150.755V148.069L110.234 142.044H114.508V156.926H110.179L110.832 150.755H110.825H110.829ZM126.877 145.852H116.888V142.038H126.873V145.852H126.877ZM127.302 152.924L127.703 156.63C126.795 157.028 125.806 157.31 124.021 157.31C121.046 157.31 119.149 155.61 119.149 152.391V138.92L123.337 138.301V151.262C123.337 152.877 123.786 153.353 125.235 153.353C125.915 153.353 126.51 153.244 127.298 152.928M149.072 142.537L148.705 146.182C146.869 145.393 145.108 144.992 143.408 144.992C141.827 144.992 141.174 145.305 141.174 146.07C141.174 146.604 141.514 146.859 142.558 147.09L145.873 147.855C148.644 148.508 149.776 150.15 149.776 152.496C149.776 155.641 147.43 157.307 143.52 157.307C140.715 157.307 139.025 157.113 137.495 156.603L137.896 152.839C139.596 153.577 141.32 153.883 143.53 153.883C145.254 153.883 145.852 153.604 145.876 152.754C145.876 152.102 145.509 151.819 144.21 151.479L140.895 150.629C138.379 149.977 137.274 148.651 137.274 146.243C137.274 143.353 139.62 141.63 143.554 141.63C145.509 141.63 147.403 141.942 149.069 142.537M152.377 142.038H156.651L156.056 148.09V150.691L156.793 157.678V162.404H152.38V142.034L152.373 142.041L152.377 142.038ZM156.739 154.257L155.294 154.366V146.274L156.545 146.383C156.909 143.214 158.5 141.633 161.757 141.633C165.521 141.633 168.037 144.744 168.037 149.47C168.037 154.196 165.521 157.307 161.56 157.307C158.755 157.307 157.259 156.008 156.749 154.247M163.988 149.463C163.988 146.777 162.737 145.332 160.394 145.332C158.051 145.332 156.739 146.777 156.739 149.463C156.739 152.149 158.014 153.594 160.394 153.594C162.774 153.594 163.988 152.149 163.988 149.463ZM185.238 149.473C185.238 154.199 182.151 157.31 177.513 157.31C172.875 157.31 169.788 154.199 169.788 149.473C169.788 144.747 172.875 141.636 177.513 141.636C182.151 141.636 185.238 144.747 185.238 149.473ZM181.192 149.473C181.192 146.815 179.917 145.37 177.51 145.37C175.102 145.37 173.827 146.815 173.827 149.473C173.827 152.132 175.102 153.577 177.51 153.577C179.917 153.577 181.192 152.166 181.192 149.473ZM187.73 142.027H191.718L191.123 148.902L191.912 150.092V156.909H187.723V142.027H187.73ZM197.92 146.39L196.363 146.247C192.963 145.934 191.919 147.716 191.919 150.606L190.423 150.351L190.484 146.39L191.735 146.498C192.184 143.245 193.52 141.63 195.978 141.63C196.805 141.63 197.536 141.772 198.239 142.055L197.927 146.379V146.39H197.92ZM209.174 145.852H199.188V142.038H209.174V145.852ZM209.599 152.924L210 156.63C209.089 157.028 208.106 157.31 206.318 157.31C203.343 157.31 201.449 155.61 201.449 152.391V138.92L205.638 138.301V151.262C205.638 152.877 206.087 153.353 207.532 153.353C208.212 153.353 208.807 153.244 209.595 152.928" fill="#0098FF"/>
<path d="M77.2379 175.691C77.2379 171.026 80.2979 167.762 84.6499 167.762C89.0019 167.762 91.7219 170.822 91.7219 175.402C91.7219 175.885 91.6981 176.378 91.6369 176.83H81.3247C81.6375 178.945 82.8955 179.839 85.4455 179.839C86.9687 179.839 88.6245 179.441 90.5965 178.547L90.9093 182.328C89.2161 183.161 87.2135 183.62 85.2653 183.62C80.2265 183.62 77.2175 180.672 77.2175 175.691H77.2345H77.2379ZM81.3859 174.171H87.7099C87.4549 172.369 86.3941 171.393 84.6499 171.393C82.9057 171.393 81.7259 172.335 81.3859 174.171ZM97.5699 175.749L92.4461 168.16H97.5971L100.171 172.512L102.745 168.16H107.702L102.663 175.46L107.872 183.218H102.772L100.052 178.696L97.3591 183.218H92.4393L97.5631 175.749H97.5733H97.5699ZM118.99 179.183L119.391 182.929C118.279 183.412 117.191 183.616 115.668 183.616C112.55 183.616 110.748 181.78 110.748 178.635V172.022H108.46V168.156H110.748V165.005L114.988 164.376V168.156H118.565V172.022H114.988V177.486C114.988 179.118 115.447 179.601 116.909 179.601C117.623 179.601 118.228 179.492 119 179.169L118.99 179.176V179.183ZM132.131 172.573L130.56 172.43C127.466 172.141 126.065 173.542 126.065 176.84V183.222H121.826V168.163H125.861L125.46 172.658L125.861 172.682C126.32 169.333 127.697 167.762 130.156 167.762C131.04 167.762 131.618 167.871 132.451 168.221L132.134 172.573H132.131ZM133.304 175.691C133.304 170.88 135.939 167.762 139.975 167.762C142.464 167.762 143.929 168.595 144.728 170.506L145.044 170.482L144.816 168.163H149.141V183.222H144.762L145.245 178.496L144.929 178.472C144.555 181.964 142.865 183.623 139.659 183.623C135.851 183.623 133.301 180.444 133.301 175.694L133.304 175.691ZM144.728 175.691C144.728 172.971 143.436 171.509 141.032 171.509C138.628 171.509 137.394 172.971 137.394 175.691C137.394 178.411 138.652 179.873 141.032 179.873C143.412 179.873 144.728 178.411 144.728 175.691ZM162.51 179.907L167.151 179.424H172.795V183.232H158.107V179.169L166.121 174.018C167.865 172.906 168.61 171.784 168.61 170.295C168.61 168.605 167.46 167.636 165.516 167.636C163.316 167.636 161.878 168.833 161.419 171.104L157.502 170.22C158.216 166.354 161.164 164.117 165.601 164.117C170.038 164.117 172.673 166.436 172.673 170.244C172.673 174.052 168.467 178.088 162.479 179.659L162.503 179.914V179.907H162.51Z" fill="#00E1FF"/>
<path d="M105.406 108.459C112.172 109.418 120.128 103.216 126.537 98.3986C132.555 93.8766 139.967 88.321 145.516 88.3788C149.147 88.4196 152.333 90.5038 153.329 93.3258C153.234 92.248 152.717 89.052 152.353 87.5118C151.646 85.4208 149.728 80.773 143.319 80.7968C136.706 80.8206 129.311 86.5496 123.412 90.8846C116.096 96.2634 109.534 101.897 102.564 100.605C98.8236 99.9184 97.2086 98.1844 96.6748 96.6442C96.7428 97.62 97.2358 100.707 97.6336 102.39C98.5278 104.403 100.439 107.745 105.403 108.449" fill="#0098FF"/>
<path d="M134.204 68.5263C120.988 64.1505 107.701 69.4953 100.52 80.5759C100.52 80.5759 102.006 83.7719 108.109 78.6719C117.629 70.7363 122.593 67.1255 134.204 68.5263Z" fill="#00BDFF"/>
<path d="M119.185 77.288C116.261 79.43 112.005 82.677 108.996 84.6898C105.432 87.0698 100.451 90.4256 98.0407 85.9988C97.6905 87.0936 97.0275 89.3818 97.0139 90.3848C97.1329 91.8298 98.5439 94.9068 102.682 94.9816C108.01 95.0734 112.95 90.4698 120.488 84.8768C128.416 78.9948 133.935 75.1392 140.395 75.8872C145.512 76.4822 147.97 78.8962 149.836 81.3102C148.211 78.1992 144.94 74.4252 140.707 71.7086C136.015 68.6996 128.637 70.3656 119.185 77.2846" fill="#00E1FF"/>
<path d="M115.724 120.971C128.94 125.347 142.227 120.002 149.418 108.922C149.418 108.922 147.933 105.726 141.819 110.826C132.299 118.765 127.335 122.376 115.724 120.971ZM130.746 112.21C133.67 110.068 137.926 106.821 140.935 104.808C144.499 102.428 149.476 99.0719 151.894 103.499C152.244 102.404 152.907 100.116 152.924 99.1127C152.805 97.6677 151.394 94.5907 147.256 94.5159C141.928 94.4241 136.988 99.0277 129.45 104.621C121.521 110.503 116.003 114.358 109.543 113.61C104.426 113.015 101.968 110.601 100.101 108.187C101.727 111.298 104.997 115.072 109.23 117.789C113.922 120.798 121.3 119.132 130.752 112.213" fill="#0073FF"/>
</svg>
