<svg width="250" height="250" viewBox="0 0 250 250" fill="none" xmlns="http://www.w3.org/2000/svg">
<rect width="250" height="250" fill="#00283D"/>
<path d="M171.688 139.238L176.587 154.343H180.724L183.844 144.701L187.021 154.343H191.115L195.915 139.238H191.779L189.011 148.696L185.962 139.238H181.91L178.832 148.654L176.065 139.238H171.688Z" fill="#00B0D1"/>
<path d="M106.482 138.829C102.374 138.829 99.79 142.02 99.79 146.792C99.79 151.592 102.346 154.74 106.171 154.74C109.475 154.74 111.085 152.989 111.452 149.573L111.79 149.601L111.282 154.345H115.673V139.224H111.338L111.564 141.554L111.254 141.582C110.562 139.944 109.362 138.829 106.482 138.829ZM107.541 142.584C109.955 142.584 111.254 144.053 111.254 146.792C111.254 149.517 109.955 150.984 107.541 150.984C105.155 150.984 103.898 149.516 103.898 146.792C103.898 144.053 105.155 142.584 107.541 142.584Z" fill="#00B0D1"/>
<path d="M49.5157 138.829C46.2122 138.829 44.6026 140.438 44.2213 143.657L43.8969 143.629L44.3346 139.224H40V159.921H44.4755V155.121L44.1086 151.676L44.4191 151.648C44.9415 153.427 46.4663 154.754 49.3041 154.754C53.3417 154.754 55.8971 151.563 55.8971 146.792C55.8969 141.991 53.3416 138.829 49.5157 138.829ZM48.132 142.584C50.518 142.584 51.7742 144.053 51.7742 146.792C51.7742 149.517 50.518 150.984 48.132 150.984C45.7178 150.984 44.4191 149.516 44.4191 146.792C44.4191 144.053 45.7178 142.584 48.132 142.584Z" fill="#00B0D1"/>
<path d="M91.678 138.824C87.6816 138.824 85.2966 140.576 85.2966 143.508C85.2966 145.952 86.4182 147.302 88.9752 147.965L92.3391 148.826C93.6608 149.171 94.0349 149.459 94.0349 150.12C94.0069 150.982 93.4026 151.269 91.6504 151.269C89.4077 151.269 87.6537 150.954 85.9295 150.206L85.5272 154.028C87.0793 154.547 88.8032 154.747 91.6504 154.747C95.6169 154.747 98.0015 153.051 98.0015 149.861C98.0015 147.476 96.8522 145.808 94.0349 145.148L90.671 144.371C89.6078 144.14 89.2632 143.882 89.2632 143.336C89.2632 142.561 89.9243 142.244 91.534 142.244C93.39 142.274 95.22 142.685 96.9105 143.452L97.283 139.743C95.48 139.123 93.5849 138.812 91.678 138.824Z" fill="#00B0D1"/>
<path d="M65.521 138.824C60.8077 138.824 57.674 141.986 57.674 146.785C57.674 151.585 60.8077 154.747 65.521 154.747C70.2344 154.747 73.3681 151.585 73.3681 146.785C73.3681 141.986 70.2344 138.824 65.521 138.824ZM65.521 142.618C67.9642 142.618 69.257 144.084 69.257 146.785C69.257 149.516 67.9642 150.954 65.521 150.954C63.0779 150.954 61.7846 149.517 61.7846 146.785C61.7846 144.084 63.0779 142.618 65.521 142.618Z" fill="#00B0D1"/>
<path d="M163.811 138.814C159.434 138.814 156.356 142.09 156.356 146.777C156.356 151.619 159.208 154.753 164.446 154.753C166.973 154.753 168.921 153.92 170.855 152.339L169.302 149.162C167.496 150.461 166.055 150.956 164.531 150.956C161.933 150.956 160.761 149.967 160.465 147.934H170.827C170.884 147.457 170.913 146.976 170.912 146.494C170.912 141.892 168.06 138.814 163.811 138.814ZM163.811 142.47C165.477 142.47 166.606 143.346 166.874 145.252H160.521C160.874 143.431 162.004 142.47 163.811 142.47Z" fill="#00B0D1"/>
<path d="M203.677 138.811C199.681 138.811 197.296 140.564 197.296 143.495C197.296 145.94 198.417 147.29 200.974 147.952L204.338 148.813C205.659 149.158 206.033 149.446 206.033 150.107C206.004 150.97 205.401 151.256 203.649 151.256C201.406 151.256 199.652 150.941 197.928 150.193L197.526 154.015C199.078 154.534 200.802 154.734 203.649 154.734C207.614 154.734 210 153.038 210 149.848C210 147.464 208.851 145.795 206.033 145.135L202.67 144.358C201.607 144.128 201.262 143.869 201.262 143.323C201.262 142.548 201.923 142.232 203.533 142.232C205.388 142.261 207.218 142.672 208.907 143.439L209.282 139.731C207.479 139.11 205.584 138.799 203.677 138.811Z" fill="#00B0D1"/>
<path d="M148.185 138.695C144.962 138.695 143.38 140.336 143.006 143.644L142.69 143.616L143.122 139.213H139.18V154.347H143.438V145.658C143.438 143.472 144.473 142.493 146.861 142.493C148.529 142.493 149.422 143.472 149.422 145.314V154.347H153.68V144.795C153.68 140.911 151.667 138.695 148.185 138.695Z" fill="#00B0D1"/>
<path d="M124.651 135.426L120.388 136.061V139.224H118.101V143.106H120.388V149.742C120.388 153.017 122.322 154.754 125.343 154.754C127.15 154.754 128.153 154.457 129.071 154.062L128.675 150.292C128.009 150.575 127.294 150.724 126.571 150.73C125.103 150.73 124.651 150.236 124.651 148.599V143.107H128.237V139.224H124.651V135.426Z" fill="#00B0D1"/>
<path d="M75.7245 133.478V149.718C75.7245 152.822 77.3339 154.748 80.2671 154.748C81.388 154.768 82.4987 154.531 83.5147 154.058L83.1406 150.321C82.5902 150.575 81.993 150.712 81.3869 150.723C80.4397 150.723 79.9791 150.149 79.9791 149.056V133.478H75.7245Z" fill="#00B0D1"/>
<path d="M116.98 160.094C115.344 160.094 114.445 160.896 114.445 162.34C114.445 163.815 115.312 164.585 116.98 164.585C118.616 164.585 119.514 163.815 119.514 162.34C119.514 160.896 118.616 160.094 116.98 160.094ZM151.612 160.246V181.413H155.936V177.174L157.455 175.57L161.092 181.413H166.162L160.29 172.462L166.048 166.075H160.62L155.936 171.503V160.246H151.612ZM104.85 160.504V176.744C104.85 179.848 106.46 181.774 109.393 181.774C110.514 181.794 111.625 181.558 112.641 181.084L112.266 177.347C111.716 177.601 111.118 177.738 110.512 177.749C109.565 177.749 109.105 177.175 109.105 176.082V160.504H104.85ZM128.063 162.452L123.799 163.087V166.25H121.512V170.132H123.799V176.768C123.799 180.043 125.733 181.78 128.754 181.78C130.562 181.78 131.564 181.483 132.482 181.088L132.086 177.318C131.42 177.601 130.706 177.75 129.982 177.756C128.514 177.756 128.063 177.262 128.063 175.625V170.133H131.649V166.25H128.063V162.452ZM94.3839 165.85C89.6706 165.85 86.5368 169.012 86.5368 173.812C86.5368 178.611 89.6706 181.773 94.3839 181.773C99.0972 181.773 102.231 178.611 102.231 173.812C102.231 169.012 99.0972 165.85 94.3839 165.85ZM77.8539 165.855C74.5504 165.855 72.9407 167.464 72.5594 170.683L72.235 170.655L72.6727 166.25H68.3381V186.947H72.8136V182.148L72.4467 178.702L72.7573 178.674C73.2797 180.453 74.8045 181.78 77.6422 181.78C81.6799 181.78 84.2353 178.59 84.2353 173.818C84.235 169.018 81.6798 165.855 77.8539 165.855ZM173.178 165.893C169.069 165.893 166.486 169.084 166.486 173.856C166.486 178.656 169.041 181.804 172.867 181.804C176.171 181.804 177.78 180.053 178.147 176.637L178.486 176.665L177.978 181.409H182.369V166.288H178.034L178.26 168.618L177.949 168.646C177.258 167.009 176.058 165.893 173.178 165.893ZM133.249 166.068L139.498 181.586C138.831 183.228 138.038 183.361 137.182 183.361C136.372 183.354 135.569 183.216 134.804 182.951L134.395 186.815C135.576 187.258 136.827 187.488 138.089 187.495C140.373 187.495 142.015 186.406 143.362 182.888L149.787 166.068H145.331L141.719 176.439L137.969 166.068H133.249ZM114.798 166.125V181.715H119.161V166.125H114.798ZM76.4702 169.61C78.8561 169.61 80.1129 171.079 80.1129 173.818C80.1129 176.543 78.8561 178.01 76.4702 178.01C74.0559 178.01 72.7573 176.542 72.7573 173.818C72.7573 171.079 74.0559 169.61 76.4702 169.61ZM94.3839 169.645C96.827 169.645 98.1204 171.11 98.1204 173.812C98.1204 176.543 96.827 177.981 94.3839 177.981C91.9408 177.981 90.6474 176.543 90.6474 173.812C90.6474 171.11 91.9408 169.645 94.3839 169.645ZM174.237 169.648C176.651 169.648 177.949 171.117 177.949 173.856C177.949 176.581 176.651 178.049 174.237 178.049C171.851 178.049 170.594 176.58 170.594 173.856C170.594 171.117 171.851 169.648 174.237 169.648Z" fill="#00C9F2"/>
<path d="M105.041 105.125C111.912 106.104 119.993 99.7981 126.506 94.9016C132.617 90.3059 140.144 84.6608 145.786 84.724C149.473 84.7663 152.705 86.8822 153.717 89.7451C153.619 88.652 153.097 85.4007 152.722 83.8453C152.007 81.717 150.056 76.9946 143.545 77.0229C136.826 77.051 129.317 82.8682 123.327 87.269C115.891 92.733 109.227 98.4552 102.153 97.1495C98.357 96.4466 96.7155 94.6925 96.1708 93.1302C96.3913 95.0924 96.7175 97.0413 97.1479 98.9684C98.0584 101.011 99.9967 104.406 105.041 105.125Z" fill="white"/>
<path opacity="0.49" d="M134.295 64.552C120.869 60.104 107.379 65.5329 100.077 76.7965C100.077 76.7965 101.585 80.0391 107.79 74.865C117.46 66.8018 122.499 63.132 134.295 64.552Z" fill="#00B0D1"/>
<path d="M119.042 73.4573C116.069 75.6349 111.75 78.9336 108.689 80.9792C105.07 83.3993 100.012 86.8106 97.5606 82.3061C97.2038 83.4187 96.536 85.7385 96.5132 86.7649C96.6344 88.2288 98.065 91.3607 102.274 91.4329C107.687 91.526 112.701 86.8528 120.364 81.1674C128.415 75.192 134.021 71.2692 140.58 72.0357C145.777 72.6421 148.269 75.092 150.169 77.5435C148.522 74.3854 145.196 70.5505 140.898 67.7913C136.137 64.7315 128.642 66.4273 119.042 73.4573Z" fill="#00C9F2"/>
<path d="M115.524 117.83C128.949 122.278 142.439 116.849 149.742 105.585C149.742 105.585 148.234 102.343 142.028 107.517C132.359 115.58 127.32 119.25 115.524 117.83Z" fill="#005E8C"/>
<path d="M130.776 108.924C133.75 106.747 138.068 103.448 141.129 101.402C144.748 98.9823 149.806 95.571 152.257 100.075C152.614 98.9629 153.282 96.6431 153.305 95.6167C153.184 94.1528 151.753 91.0209 147.544 90.9488C142.131 90.8556 137.117 95.5288 129.454 101.214C121.404 107.19 115.797 111.112 109.238 110.346C104.041 109.74 101.55 107.29 99.6495 104.838C101.296 107.996 104.623 111.831 108.918 114.59C113.681 117.65 121.177 115.954 130.776 108.924Z" fill="#005E8C"/>
</svg>
