<svg width="250" height="250" viewBox="0 0 250 250" fill="none" xmlns="http://www.w3.org/2000/svg">
<rect width="250" height="250" fill="#A61B16"/>
<path d="M112.728 111.279V100.617H149.982V76.907H112.728V66.9406H159.765L174.337 40H76.0012V138.225H174.337L160.463 111.279H112.728Z" fill="white"/>
<path d="M76.052 182.57V202.808C76.0533 203.754 76.241 204.69 76.6043 205.564C76.9677 206.437 77.4996 207.231 78.1697 207.899C78.8398 208.567 79.6349 209.096 80.5097 209.457C81.3844 209.817 82.3216 210.002 83.2678 210H167.073C168.983 210.002 170.816 209.246 172.169 207.897C173.521 206.548 174.283 204.718 174.286 202.808V186.051H83.2678C81.8812 186.048 80.5129 185.734 79.2641 185.131C78.0152 184.529 76.9175 183.653 76.052 182.57Z" fill="white"/>
<path d="M99.2338 196.809C99.2435 197.185 99.1706 197.558 99.0204 197.903C98.8701 198.248 98.6462 198.556 98.3642 198.805C97.77 199.31 97.0105 199.577 96.2311 199.557H91.1401V197.678H96.2311C96.9365 197.678 97.2905 197.386 97.2905 196.809V195.596C97.2905 194.975 96.9365 194.667 96.2311 194.667H89.3375V203.09H87.399V192.831H96.2179C97.0023 192.816 97.7641 193.094 98.3559 193.609C98.6383 193.856 98.8632 194.162 99.0149 194.505C99.1665 194.849 99.2413 195.221 99.2338 195.596L99.2338 196.809Z" fill="#A61B16"/>
<path d="M111.69 200.344V195.58C111.687 195.453 111.655 195.327 111.598 195.214C111.54 195.1 111.458 195 111.358 194.922C111.156 194.747 110.9 194.648 110.633 194.64H104.887C104.618 194.644 104.36 194.744 104.159 194.922C104.058 195.001 103.976 195.1 103.918 195.214C103.86 195.328 103.828 195.453 103.824 195.58V200.344C103.824 200.957 104.177 201.264 104.887 201.264H110.633C111.335 201.264 111.69 200.957 111.69 200.344ZM113.625 200.321C113.636 200.699 113.562 201.075 113.408 201.42C113.254 201.766 113.024 202.072 112.736 202.316C112.153 202.831 111.398 203.107 110.62 203.09H104.896C104.115 203.107 103.357 202.831 102.77 202.316C102.484 202.071 102.256 201.764 102.103 201.419C101.951 201.073 101.878 200.698 101.889 200.321V195.58C101.887 195.206 101.968 194.835 102.127 194.497C102.286 194.158 102.519 193.859 102.809 193.622C103.379 193.099 104.123 192.809 104.896 192.809H110.62C111.392 192.809 112.135 193.099 112.703 193.622C112.991 193.86 113.224 194.159 113.383 194.497C113.543 194.836 113.625 195.206 113.625 195.58L113.625 200.321Z" fill="#A61B16"/>
<path d="M125.303 203.091H119.593C118.814 203.108 118.057 202.832 117.473 202.316C117.191 202.067 116.967 201.76 116.816 201.416C116.665 201.071 116.591 200.698 116.6 200.323V192.809H118.534V200.343C118.534 200.956 118.884 201.262 119.593 201.262H125.303L125.303 203.091Z" fill="#A61B16"/>
<path d="M139.349 194.637H130.768C130.5 194.643 130.242 194.744 130.041 194.922C129.943 195.002 129.863 195.103 129.807 195.216C129.751 195.329 129.719 195.454 129.715 195.58V196.094C129.715 196.713 130.065 197.017 130.768 197.017L136.506 197.027C137.278 197.007 138.03 197.274 138.615 197.778C138.905 198.026 139.136 198.335 139.291 198.683C139.447 199.032 139.522 199.411 139.512 199.792V200.331C139.515 200.706 139.434 201.076 139.276 201.416C139.118 201.755 138.886 202.055 138.597 202.293C138.028 202.811 137.285 203.095 136.516 203.09H127.934V201.263H136.521C136.787 201.258 137.043 201.161 137.244 200.988C137.346 200.911 137.429 200.812 137.486 200.698C137.543 200.584 137.574 200.459 137.575 200.331V199.792C137.575 199.17 137.225 198.874 136.521 198.874L130.781 198.847C130.004 198.866 129.248 198.594 128.66 198.086C128.373 197.841 128.145 197.535 127.992 197.191C127.839 196.846 127.765 196.471 127.776 196.094V195.58C127.776 195.206 127.857 194.837 128.015 194.498C128.173 194.159 128.404 193.859 128.691 193.619C129.263 193.1 130.008 192.811 130.781 192.81H139.349L139.349 194.637Z" fill="#A61B16"/>
<path d="M154.075 203.123H152.01L151.068 199.532H146.362L146.806 197.647H150.563C150.483 197.334 150.224 196.22 150.047 195.596C149.878 194.975 149.526 194.663 149.002 194.663H146.624C146.088 194.663 145.732 194.975 145.561 195.596L143.636 203.123H141.567L143.494 195.605C143.978 193.76 144.985 192.83 146.504 192.83H149.121C150.648 192.83 151.657 193.76 152.128 195.605L154.075 203.123Z" fill="#A61B16"/>
<path d="M164.791 194.637H160.498V203.09H158.561V194.637H154.334V192.81H164.791V194.637Z" fill="#A61B16"/>
<path d="M174.225 142.05H76V161.183H174.225V142.05Z" fill="#939598"/>
<path d="M133.702 150.867C133.116 150.568 132.448 150.476 130.715 150.476H128.445C127.727 150.476 127.431 150.19 127.431 149.501V149.353C127.43 149.321 127.431 149.289 127.435 149.258C127.467 148.637 127.775 148.373 128.445 148.373H130.917C131.179 148.351 131.441 148.42 131.658 148.569C131.677 148.58 131.69 148.595 131.702 148.603C131.833 148.753 131.906 148.946 131.907 149.146C132.197 149.128 134.543 148.937 134.855 148.91C134.801 148.642 134.73 148.376 134.643 148.116C134.079 146.43 132.907 145.801 130.553 145.801H128.758C125.852 145.801 124.434 146.769 124.434 148.759V150.117C124.434 151.166 124.855 151.95 125.621 152.325C126.208 152.628 126.871 152.715 128.607 152.715H130.874C131.595 152.715 131.893 152.997 131.893 153.682V153.842C131.893 154.536 131.586 154.836 130.874 154.836H128.406C128.035 154.836 127.782 154.757 127.616 154.588C127.487 154.431 127.415 154.233 127.414 154.029C127.135 154.045 124.768 154.142 124.46 154.154C124.816 156.534 126.005 157.424 128.758 157.424H130.553C133.471 157.424 134.886 156.454 134.886 154.445V153.079C134.886 152.025 134.466 151.241 133.702 150.867Z" fill="white"/>
<path d="M158.763 145.901H147.258V148.646H151.392V157.385H154.619V148.646H158.763V145.901Z" fill="white"/>
<path d="M115.674 153.994L117.153 150.048L118.64 153.994H115.674ZM118.288 145.901H115.995L111.029 157.432H114.382L114.863 156.136H119.443L119.929 157.432H123.25L118.288 145.901Z" fill="white"/>
<path d="M140.571 153.994L142.051 150.033L143.537 153.994H140.571ZM143.191 145.901H140.896L135.93 157.432H139.279L139.761 156.136H144.341L144.83 157.432H148.153L143.191 145.901Z" fill="white"/>
<path d="M97.5801 153.295L94.8115 145.901H91.4646L96.4177 157.432H98.7168L103.681 145.901H100.355L97.5801 153.295Z" fill="white"/>
<path d="M109 145.901H105.773V157.386H109V145.901Z" fill="white"/>
<path d="M76.0005 165.01H87.8179V168.081H79.4044V171.267H86.8064V174.337H79.4044V177.634H87.9245V180.705H76.0005V165.01Z" fill="white"/>
<path d="M93.9138 172.725L88.666 165.011H92.704L95.9937 170.102L99.315 165.011H103.239L97.9921 172.682L103.464 180.705H99.4275L95.9063 175.327L92.3669 180.705H88.4408L93.9138 172.725Z" fill="white"/>
<path d="M110.841 172.924C111.704 172.924 112.378 172.699 112.859 172.243C113.091 172.027 113.274 171.764 113.398 171.472C113.521 171.179 113.581 170.865 113.574 170.548V170.503C113.574 169.73 113.329 169.134 112.823 168.731C112.322 168.326 111.641 168.128 110.773 168.128H108.105V172.924L110.841 172.924ZM104.649 165.01H111.064C111.921 164.998 112.775 165.131 113.588 165.403C114.284 165.641 114.924 166.018 115.47 166.511C115.986 166.99 116.392 167.576 116.658 168.228C116.943 168.931 117.084 169.683 117.074 170.44V170.482C117.092 171.309 116.924 172.129 116.581 172.881C116.265 173.551 115.803 174.14 115.228 174.606C114.628 175.082 113.941 175.436 113.206 175.647C112.403 175.887 111.569 176.006 110.731 176.001H108.105V180.703H104.649V165.01Z" fill="white"/>
<path d="M118.241 165.01H121.693V177.564H129.521V180.705H118.241V165.01Z" fill="white"/>
<path d="M137.504 177.796C138.163 177.805 138.816 177.674 139.421 177.413C139.984 177.17 140.488 176.809 140.901 176.356C141.318 175.902 141.645 175.374 141.864 174.798C142.099 174.196 142.216 173.554 142.212 172.907V172.862C142.216 172.209 142.098 171.561 141.864 170.952C141.643 170.371 141.309 169.839 140.882 169.387C140.455 168.935 139.943 168.572 139.375 168.318C138.771 168.052 138.117 167.918 137.457 167.925C136.803 167.919 136.154 168.05 135.553 168.309C134.988 168.55 134.48 168.908 134.062 169.359C133.647 169.816 133.319 170.346 133.094 170.921C132.861 171.526 132.743 172.17 132.748 172.818V172.862C132.744 173.513 132.862 174.16 133.094 174.769C133.32 175.35 133.657 175.883 134.084 176.339C134.514 176.788 135.028 177.149 135.596 177.4C136.196 177.669 136.847 177.804 137.504 177.796ZM137.457 180.98C136.313 180.992 135.177 180.774 134.118 180.34C133.138 179.936 132.243 179.351 131.48 178.614C130.74 177.884 130.154 177.012 129.755 176.052C129.34 175.056 129.13 173.986 129.138 172.907V172.862C129.134 171.797 129.341 170.742 129.748 169.758C130.155 168.774 130.753 167.881 131.507 167.13C132.264 166.38 133.162 165.786 134.148 165.384C135.213 164.947 136.354 164.728 137.504 164.741C138.65 164.727 139.786 164.946 140.844 165.384C141.824 165.785 142.718 166.371 143.478 167.11C144.221 167.834 144.809 168.702 145.204 169.662C145.619 170.662 145.829 171.735 145.823 172.818V172.862C145.827 174.466 145.353 176.035 144.459 177.368C143.566 178.7 142.295 179.735 140.809 180.34C139.745 180.774 138.606 180.992 137.457 180.98Z" fill="white"/>
<path d="M154.453 172.661C155.309 172.661 155.958 172.453 156.417 172.047C156.644 171.844 156.823 171.593 156.941 171.313C157.06 171.033 157.115 170.729 157.102 170.425V170.384C157.102 169.633 156.86 169.07 156.384 168.692C155.906 168.318 155.238 168.128 154.389 168.128H150.957V172.661H154.453ZM147.507 165.01H154.682C156.665 165.01 158.189 165.542 159.255 166.606C160.146 167.504 160.6 168.697 160.6 170.189V170.235C160.6 171.508 160.29 172.543 159.671 173.34C159.041 174.143 158.197 174.753 157.237 175.1L161.071 180.703H157.035L153.669 175.688H150.957V180.703H147.507V165.01Z" fill="white"/>
<path d="M162.324 165.01H174.143V168.081H165.734V171.267H173.133V174.337H165.734V177.634H174.255V180.705H162.324V165.01Z" fill="white"/>
<path d="M78.1616 121.787H82.316V127.391H87.6447V121.787H91.7984V136.767H87.6447V131.074H82.316V136.767H78.1616V121.787Z" fill="#A61B16"/>
<path d="M99.2676 133.086C101.746 133.086 103.397 131.718 103.397 129.299V129.252C103.397 126.86 101.746 125.463 99.2676 125.463H97.5734V133.086H99.2676ZM93.4233 121.786H99.2029C104.554 121.786 107.66 124.866 107.66 129.186V129.235C107.66 133.557 104.512 136.767 99.1161 136.767H93.4233V121.786Z" fill="#A61B16"/>
</svg>
