<svg width="250" height="250" viewBox="0 0 250 250" fill="none" xmlns="http://www.w3.org/2000/svg">
<rect width="250" height="250" fill="#00283D"/>
<path d="M89.8412 113.932C101.9 115.649 116.083 104.582 127.513 95.9879C138.238 87.9238 151.45 78.0167 161.348 78.1274C167.825 78.2015 173.493 81.9159 175.269 86.9406C175.099 85.0201 174.181 79.3174 173.524 76.5829C172.27 72.8501 168.845 64.5607 157.418 64.61C145.627 64.6626 132.446 74.8721 121.934 82.5939C108.886 92.1839 97.1873 102.227 84.7735 99.9334C78.1121 98.7005 75.2298 95.6208 74.2744 92.8804C74.4007 94.622 75.2761 100.125 75.9885 103.127C77.5879 106.709 80.9881 112.671 89.8412 113.932Z" fill="#FFC700"/>
<path d="M141.183 42.7247C117.623 34.9167 93.946 44.4448 81.1284 64.2136C81.1284 64.2136 83.7766 69.9041 94.6673 60.8227C111.64 46.6736 120.481 40.234 141.183 42.7247Z" fill="#FFE003"/>
<path d="M114.415 58.3535C109.196 62.176 101.616 67.965 96.2463 71.5531C89.8931 75.8009 81.0155 81.7874 76.715 73.8837C76.0893 75.8379 74.9179 79.9068 74.8749 81.7103C75.0875 84.278 77.5997 89.7744 84.9888 89.9007C94.4862 90.0641 103.287 81.8614 116.733 71.8831C130.864 61.3992 140.703 54.5128 152.214 55.8569C161.335 56.9235 165.709 61.2239 169.044 65.527C166.153 59.9814 160.315 53.2521 152.774 48.4093C144.418 43.0393 131.261 46.0142 114.415 58.3535Z" fill="#CCFF2E"/>
<path d="M108.24 136.229C131.799 144.037 155.477 134.509 168.294 114.74C168.294 114.74 165.646 109.05 154.755 118.131C137.783 132.28 128.942 138.719 108.24 136.229Z" fill="#FAAD17"/>
<path d="M135.008 120.6C140.227 116.777 147.807 110.988 153.177 107.4C159.53 103.152 168.408 97.166 172.708 105.07C173.334 103.115 174.505 99.0465 174.548 97.2431C174.336 94.6753 171.823 89.179 164.434 89.0527C154.937 88.8893 146.136 97.0919 132.69 107.07C118.559 117.554 108.72 124.441 97.2095 123.096C88.0881 122.03 83.714 117.729 80.3786 113.426C83.2701 118.972 89.1084 125.701 96.6486 130.544C105.005 135.914 118.162 132.94 135.008 120.6Z" fill="#FAAD17"/>
<path d="M49.6657 173.054C43.8711 173.054 41.073 175.877 40.4043 181.523L39.8597 181.473L40.6025 173.772H33V210H40.8499V201.605L40.2309 195.563L40.7506 195.514C41.6668 198.634 44.3413 200.937 49.3186 200.937C56.3512 200.937 60.8332 195.365 60.8332 186.995C60.8336 178.6 56.3516 173.054 49.6657 173.054ZM47.2387 194.349C43.0291 194.349 40.751 191.774 40.751 186.995C40.751 182.216 43.0294 179.64 47.2387 179.64C51.4236 179.64 53.6523 182.216 53.6523 186.995C53.6523 191.774 51.4236 194.349 47.2387 194.349Z" fill="#FFC700"/>
<path d="M84.25 186.998C84.25 182.266 81.9842 179.698 77.7056 179.698C73.427 179.698 71.1612 182.266 71.1612 186.998C71.1612 191.779 73.427 194.297 77.7056 194.297C81.9842 194.297 84.25 191.779 84.25 186.998ZM91.4479 186.998C91.4479 195.404 85.9608 200.94 77.7056 200.94C69.4504 200.94 63.9633 195.404 63.9633 186.998C63.9633 178.592 69.4504 173.055 77.7056 173.055C85.9608 173.055 91.4479 178.592 91.4479 186.998Z" fill="#FFC700"/>
<path d="M108.562 193.391L109.268 200.034C107.557 200.69 105.692 200.94 103.177 200.94C98.4943 200.94 95.575 197.567 95.575 192.133V163.693H103.026V190.974C103.026 192.888 103.83 193.893 105.341 193.893C106.549 193.893 107.304 193.794 108.562 193.391Z" fill="#FFC700"/>
<path d="M133.681 192.334C133.681 197.67 129.452 200.94 122.556 200.94C118.78 200.94 115.207 200.135 111.684 198.576L113.194 192.987C116.918 194.346 119.437 194.849 122.455 194.849C125.275 194.849 126.736 194.094 126.736 192.534C126.736 191.326 126.132 190.722 123.968 190.268L118.632 189.112C113.95 188.055 111.684 185.537 111.684 181.258C111.684 176.175 115.962 173.055 122.96 173.055C126.23 173.055 129.353 173.66 132.624 175.118L131.317 180.654C128.798 179.6 125.679 179.045 122.757 179.045C120.041 179.045 118.632 179.751 118.632 181.107C118.632 182.115 119.286 182.67 120.895 183.021L126.585 184.23C131.215 185.185 133.681 188.006 133.681 192.334Z" fill="#FFC700"/>
<path d="M156.592 173.747L156.988 177.833L156.443 177.882C155.23 175.01 153.1 173.054 148.074 173.054C140.892 173.054 136.361 178.65 136.361 186.995C136.361 195.415 140.818 200.937 147.529 200.937C153.323 200.937 156.122 197.866 156.79 191.874L157.36 191.923L156.493 200.244H164.195V173.747H156.592V173.747ZM149.931 194.349C145.771 194.349 143.542 191.774 143.542 186.995C143.542 182.216 145.771 179.64 149.931 179.64C154.165 179.64 156.443 182.216 156.443 186.995C156.443 191.774 154.165 194.349 149.931 194.349Z" fill="#FFC700"/>
<path d="M187.248 199.624C185.639 200.392 183.88 200.937 180.686 200.937C175.412 200.937 172.044 197.916 172.044 192.171V180.557H168.008V173.772H172.044V168.225L179.497 167.111V173.772H185.787V180.557H179.497V190.165C179.497 193.038 180.29 193.904 182.865 193.904C184.078 193.904 185.118 193.582 186.53 192.988L187.248 199.624Z" fill="#FFC700"/>
<path d="M209.288 200.236V170.335L210.447 170.637L202.645 175.169L198.97 169.179L208.181 163.692H216.538V200.236H209.288Z" fill="#FFC700"/>
</svg>
