<svg width="250" height="250" viewBox="0 0 250 250" fill="none" xmlns="http://www.w3.org/2000/svg">
<rect width="250" height="250" fill="#00283D"/>
<path d="M74.6209 148.544C69.8922 148.544 67.5883 150.848 67.0426 155.456L66.578 155.415L67.2044 149.11H61V178.737H67.4065V171.866L66.8811 166.934L67.3258 166.894C68.0736 169.44 70.2561 171.34 74.3182 171.34C80.0978 171.34 83.7558 166.772 83.7558 159.942C83.7554 153.071 80.0975 148.544 74.6209 148.544ZM72.6404 165.944C69.1846 165.944 67.3254 163.842 67.3254 159.942C67.3254 156.021 69.1846 153.92 72.6404 153.92C76.0557 153.92 77.8544 156.021 77.8544 159.942C77.8544 163.842 76.0557 165.944 72.6404 165.944Z" fill="#00B0D1"/>
<path d="M102.88 159.934C102.88 156.067 101.029 153.969 97.5314 153.969C94.0342 153.969 92.1829 156.067 92.1829 159.934C92.1829 163.843 94.0342 165.901 97.5314 165.901C101.029 165.901 102.88 163.843 102.88 159.934ZM108.764 159.934C108.764 166.804 104.279 171.33 97.5318 171.33C90.785 171.33 86.2993 166.804 86.2993 159.934C86.2993 153.063 90.785 148.537 97.5318 148.537C104.279 148.537 108.764 153.063 108.764 159.934Z" fill="#00B0D1"/>
<path d="M122.753 164.994L123.289 170.343C121.89 171.002 120.408 171.331 118.64 171.331C114.441 171.331 112.137 168.574 112.137 164.132V140.884H118.228V163.183C118.228 164.748 118.887 165.571 120.243 165.571C121.108 165.571 121.684 165.405 122.753 164.994Z" fill="#00B0D1"/>
<path d="M142.997 149.853L142.463 155.162C139.787 154.009 137.236 153.433 134.768 153.433C132.464 153.433 131.517 153.886 131.517 154.995C131.517 155.778 132.011 156.148 133.533 156.477L138.348 157.589C142.38 158.535 144.025 160.922 144.025 164.336C144.025 168.902 140.612 171.33 134.934 171.33C130.858 171.33 128.391 171.043 126.169 170.301L126.745 164.829C129.213 165.901 131.724 166.351 134.934 166.351C137.442 166.351 138.307 165.941 138.348 164.706C138.348 163.76 137.812 163.347 135.92 162.854L131.105 161.622C127.445 160.673 125.84 158.741 125.84 155.242C125.84 151.046 129.253 148.537 134.974 148.537C137.812 148.538 140.569 148.991 142.997 149.853Z" fill="#00B0D1"/>
<path d="M163.117 149.11L163.44 152.444L162.995 152.485C162.005 150.141 160.287 148.544 156.165 148.544C150.284 148.544 146.586 153.111 146.586 159.942C146.586 166.813 150.243 171.32 155.72 171.32C160.449 171.32 162.753 168.814 163.278 163.923L163.763 163.963L163.036 170.754H169.321V149.11H163.117ZM157.68 165.944C154.265 165.944 152.466 163.842 152.466 159.942C152.466 156.021 154.265 153.92 157.68 153.92C161.136 153.92 162.995 156.021 162.995 159.942C162.995 163.842 161.136 165.944 157.68 165.944Z" fill="#00B0D1"/>
<path d="M188.499 170.35C187.185 170.915 185.75 171.34 183.164 171.34C178.839 171.34 176.07 168.854 176.07 164.166V154.667H172.796V149.109H176.07V144.583L182.173 143.673V149.11H187.306V154.667H182.173V162.529C182.173 164.873 182.82 165.58 184.921 165.58C185.911 165.58 186.781 165.398 187.933 164.954L188.499 170.35Z" fill="#00B0D1"/>
<path d="M174.409 188.496L173.873 193.804C171.199 192.652 168.648 192.076 166.18 192.076C163.875 192.076 162.929 192.529 162.929 193.638C162.929 194.42 163.422 194.79 164.944 195.12L169.759 196.232C173.792 197.178 175.437 199.565 175.437 202.979C175.437 207.545 172.021 209.973 166.346 209.973C162.27 209.973 159.802 209.686 157.581 208.944L158.157 203.472C160.625 204.544 163.135 204.994 166.346 204.994C168.854 204.994 169.717 204.584 169.759 203.349C169.759 202.403 169.223 201.99 167.331 201.497L162.516 200.265C158.856 199.316 157.251 197.384 157.251 193.885C157.251 189.689 160.665 187.18 166.386 187.18C169.224 187.18 171.981 187.633 174.409 188.496Z" fill="#00B0D1"/>
<path d="M79.0864 194.058L79.5394 194.098C80.075 189.363 82.3394 187.014 86.9528 187.014C91.9366 187.014 94.8193 190.186 94.8193 195.745V209.418H88.7238V196.488C88.7238 193.851 87.4456 192.45 85.0583 192.45C81.6393 192.45 80.1576 193.851 80.1576 196.981V209.418H74.0624V187.755H79.705L79.0864 194.058Z" fill="#00B0D1"/>
<path d="M110.35 204.564C106.632 204.564 104.955 203.149 104.53 200.239H119.364C119.444 199.572 119.485 198.885 119.485 198.178C119.485 191.59 115.403 187.184 109.32 187.184C103.055 187.184 98.6492 191.873 98.6492 198.582C98.6492 205.514 102.732 210 110.229 210C113.846 210 116.635 208.807 119.404 206.544L117.181 201.997C114.594 203.856 112.533 204.564 110.35 204.564ZM109.32 192.418C111.705 192.418 113.321 193.671 113.705 196.399H104.611C105.117 193.792 106.733 192.418 109.32 192.418Z" fill="#00B0D1"/>
<path d="M155.275 187.79L148.404 209.414H142.544L137.997 195.611L133.53 209.414H127.609L120.597 187.79H126.861L130.822 201.27L135.228 187.79H141.028L145.393 201.33L149.354 187.79H155.275Z" fill="#00B0D1"/>
<path d="M96.26 100.299C106.096 101.7 117.664 92.6741 126.987 85.6651C135.734 79.0866 146.509 71.006 154.584 71.0966C159.862 71.157 164.488 74.1858 165.937 78.2839C165.796 76.7192 165.049 72.0652 164.513 69.8387C163.49 66.7923 160.697 60.0323 151.377 60.0729C141.759 60.1131 131.01 68.44 122.436 74.7395C111.792 82.5608 102.253 90.7518 92.127 88.8828C86.6929 87.8766 84.3431 85.3658 83.5634 83.1295C83.6667 84.5507 84.3811 89.0387 84.9621 91.4865C86.2654 94.4097 89.04 99.2699 96.26 100.299Z" fill="#0087AB"/>
<path d="M138.135 42.2216C118.918 35.8546 99.6077 43.6256 89.1545 59.7488C89.1545 59.7488 91.3131 64.3904 100.196 56.984C114.037 45.442 121.25 40.1889 138.135 42.2216Z" fill="#00B0D1"/>
<path d="M116.302 54.9689C112.046 58.086 105.865 62.808 101.482 65.7361C96.3025 69.2002 89.0625 74.0833 85.553 67.6355C85.0422 69.228 84.0863 72.5486 84.0536 74.018C84.2271 76.1134 86.2749 80.5965 92.3001 80.6998C100.048 80.8331 107.226 74.1438 118.194 66.0054C129.718 57.452 137.743 51.8369 147.132 52.934C154.571 53.802 158.138 57.3089 160.858 60.8181C158.501 56.2974 153.741 50.8081 147.587 46.8584C140.772 42.4785 130.043 44.906 116.302 54.9689Z" fill="#00C9F2"/>
<path d="M111.266 118.485C130.483 124.852 149.794 117.081 160.247 100.958C160.247 100.958 158.088 96.3166 149.205 103.723C135.364 115.265 128.151 120.518 111.266 118.485Z" fill="#005E8C"/>
<path d="M133.099 105.738C137.355 102.621 143.536 97.8986 147.919 94.9705C153.098 91.5064 160.338 86.6233 163.848 93.0711C164.359 91.4786 165.315 88.1579 165.347 86.6886C165.174 84.5932 163.126 80.1101 157.101 80.0068C149.353 79.8734 142.175 86.5628 131.207 94.7012C119.682 103.255 111.658 108.87 102.269 107.773C94.8298 106.905 91.2628 103.398 88.5431 99.8885C90.9003 104.409 95.6625 109.898 101.811 113.848C108.628 118.228 119.358 115.8 133.099 105.738Z" fill="#005E8C"/>
</svg>
