<svg width="250" height="250" viewBox="0 0 250 250" fill="none" xmlns="http://www.w3.org/2000/svg">
<rect width="250" height="250" fill="#012936"/>
<path d="M40 85.4856H48.7926V120.962H40V85.4856ZM93.5084 120.973H102.498L113.618 85.4856H105.268L98.4688 110.513H98.3223L91.7206 85.4856H82.6819L93.5084 120.973ZM114.927 120.962H139.458V113.697H123.719V106.632H137.842V99.4675H123.719V92.7002H139.358V85.4856H114.927V120.962ZM158.381 82.0743H182.91V74.8089H167.174V67.7434H181.297V60.5789H167.174V53.8123H182.813V46.5971H158.381V82.0743ZM140.186 115.14C143.527 119.868 148.881 121.559 155.021 121.559C162.241 121.559 169.118 117.678 169.118 109.965C169.118 104.442 165.73 101.408 160.719 100.114L155.217 98.6218C152.564 97.9245 150.453 97.2278 150.453 95.188C150.453 92.749 152.663 91.8551 155.217 91.8551C157.969 91.8551 160.915 92.8994 162.634 95.1378L168.186 90.2613C165.091 86.431 161.406 84.8879 155.217 84.8879C147.456 84.8879 141.857 89.6656 141.857 96.2831C141.857 102.006 145.393 104.791 150.158 106.085L156.199 107.676C158.361 108.275 160.129 109.07 160.129 111.259C160.129 113.747 157.281 114.594 154.629 114.594C150.943 114.594 147.554 112.702 145.737 110.116L140.186 115.14ZM179.43 120.962H188.222V92.6006H198.886V85.4856H168.768V92.6006H179.43V120.962ZM201.207 120.962H209.999V85.4856H201.207V120.962ZM72.5818 85.4856V104.676L60.0842 85.5074H51.5865V120.985H60.3798V101.033L73.219 120.985H81.3737V85.4856H72.5818ZM108.835 159.8H117.628V131.439H128.291V124.323H98.1719V131.439H108.835V159.8ZM40 147.634C40 156.49 47.1717 160.423 54.9319 160.423C61.7117 160.423 69.0787 156.938 69.0787 148.778V140.618H53.6059V147.186H60.6793V148.082C60.6793 151.815 58.2238 153.307 54.982 153.307C51.3958 153.307 48.7926 151.067 48.7926 147.436V136.488C48.7926 132.459 51.9355 130.817 54.982 130.817C57.6822 130.817 60.827 132.16 60.827 135.842V136.538H69.0787V135.245C69.0787 126.986 61.5131 123.751 54.7366 123.751C46.9751 123.751 40 128.08 40 136.788V147.634ZM132.691 159.826H141.484V124.348H132.691V159.826ZM166.571 147.287C166.571 151.317 163.625 153.109 160.529 153.109C156.944 153.109 154.341 151.018 154.341 147.237V136.838C154.341 132.707 157.238 131.017 160.383 131.017C163.674 131.017 166.571 133.056 166.571 136.788V147.287ZM145.548 147.436C145.548 156.592 152.671 160.423 160.529 160.423C167.848 160.423 175.365 156.243 175.365 146.988V137.138C175.365 127.982 168.143 123.752 160.332 123.752C152.818 123.752 145.548 128.18 145.548 137.186V147.436ZM201.207 124.338V143.528L187.927 124.36H179.43V159.836H188.222V139.885L201.846 159.836H209.999V124.338H201.207ZM81.3737 146.242L85.4507 133.404H85.5978L89.6254 146.242H81.3737ZM68.7976 159.825H77.1001L79.26 153.207H91.7866L93.8983 159.825H102.889L90.6077 124.298H81.2266L68.7976 159.825ZM40 69.8835C40 78.7394 47.2205 82.67 54.9319 82.67C61.7117 82.67 68.9329 79.1874 68.9329 71.0268V69.2871H60.6793V70.1315C60.6793 73.814 57.6822 75.4059 54.982 75.4059C51.3958 75.4059 48.7926 73.316 48.7926 69.6836V58.9363C48.7926 54.9067 51.789 53.2641 54.8824 53.2641C57.5846 53.2641 60.6793 54.8071 60.6793 58.5385V59.3354H68.9329V57.6934C68.9329 49.4839 61.5131 46 54.7366 46C46.9751 46 40 50.329 40 59.0359V69.8835ZM81.3737 62.9678V53.5629H86.7754C89.9196 53.5629 91.8849 55.2056 91.8849 58.2409C91.8849 61.1265 89.9691 62.9678 86.7754 62.9678H81.3737ZM72.5811 82.073H81.3737V69.5345H85.3504L92.2781 82.073H101.856L93.8501 68.2415C98.3678 66.3507 100.431 62.1207 100.431 57.7923C100.431 51.2243 95.8642 46.5971 87.9055 46.5971H72.5811V82.073ZM104.852 82.073H113.645V46.5977H104.852V82.073ZM118.085 82.073H126.188V59.534H126.287L133.017 77.2973H139.059L145.738 59.4838H145.837V82.073H153.941V46.5971H143.185L136.209 64.908H136.111L128.99 46.5971H118.085V82.073ZM40 157.226V192.252C40 199.125 45.5884 204.701 52.4804 204.701H197.525C204.416 204.701 210 199.125 210 192.252V163.234H52.4804C47.4363 163.234 42.9377 160.88 40 157.226Z" fill="#ECECEC"/>
<path d="M80.0953 181.867C80.0953 183.293 79.59 184.443 78.5892 185.318C77.5838 186.188 76.3528 186.626 74.9113 186.626H66.1055V183.367H74.9113C76.1311 183.367 76.746 182.867 76.746 181.867V179.773C76.746 178.7 76.1311 178.158 74.9113 178.158H62.9917V192.744H59.643V174.987H74.8909C76.3389 174.987 77.568 175.438 78.5806 176.329C79.5854 177.224 80.0953 178.371 80.0953 179.773V181.867ZM105.019 179.743C105.019 178.419 104.483 177.291 103.427 176.354C102.364 175.413 101.164 174.942 99.8147 174.942H89.9039C88.5555 174.942 87.3469 175.413 86.2874 176.354C85.2299 177.291 84.7001 178.419 84.7001 179.743V187.941C84.7001 189.352 85.2074 190.504 86.2273 191.397C87.2486 192.3 88.4723 192.744 89.9039 192.744H99.8147C101.245 192.744 102.465 192.3 103.488 191.397C104.508 190.504 105.019 189.352 105.019 187.941V179.743ZM101.67 187.974C101.67 189.042 101.054 189.572 99.8273 189.572H89.8861C88.6604 189.572 88.0475 189.042 88.0475 187.974V179.743C88.0475 179.316 88.2441 178.934 88.6293 178.612C89.0159 178.278 89.4368 178.113 89.8861 178.113H99.8273C100.277 178.113 100.696 178.278 101.085 178.612C101.474 178.934 101.67 179.316 101.67 179.743V187.974ZM125.231 189.572H115.354C114.126 189.572 113.516 189.042 113.516 187.974V174.941H110.17V187.941C110.17 189.354 110.677 190.504 111.691 191.399C112.707 192.299 113.925 192.743 115.354 192.743H125.231V189.572ZM149.541 174.94H134.706C133.357 174.94 132.156 175.413 131.099 176.352C130.039 177.287 129.512 178.418 129.512 179.743V180.628C129.512 182.04 130.019 183.182 131.041 184.073C132.061 184.957 133.283 185.403 134.713 185.403L144.64 185.432C145.866 185.432 146.48 185.961 146.48 187.027V187.952C146.48 188.398 146.285 188.784 145.898 189.098C145.51 189.414 145.091 189.572 144.641 189.572H129.793V192.743H144.633C145.977 192.743 147.179 192.281 148.241 191.357C149.296 190.429 149.831 189.291 149.831 187.949V187.029C149.831 185.62 149.309 184.46 148.267 183.54C147.267 182.686 146.052 182.255 144.626 182.255L134.692 182.225C133.474 182.225 132.859 181.694 132.859 180.628V179.743C132.859 179.317 133.055 178.931 133.438 178.602C133.827 178.278 134.244 178.113 134.692 178.113H149.541V174.94ZM171.661 179.793C170.842 176.587 169.108 174.987 166.453 174.987H161.921C159.291 174.987 157.551 176.587 156.715 179.793L153.375 192.791H156.961L160.298 179.782C160.587 178.7 161.2 178.158 162.135 178.158H166.242C167.159 178.158 167.769 178.7 168.064 179.773C168.36 180.849 168.809 182.774 168.949 183.318H162.444L161.681 186.576H169.811L171.449 192.791H175.029L171.661 179.793ZM193.58 174.94H175.469V178.113H182.794V192.743H186.146V178.113H193.58V174.94Z" fill="#012936"/>
<path d="M210 65.4333L196.747 65.4339V78.6875H194.549L194.549 65.4339L181.296 65.4346V63.2371L194.549 63.2364V49.9835H196.746L196.747 63.2364L210 63.2358V65.4333Z" fill="#EE2C3C"/>
</svg>
