<svg width="250" height="250" viewBox="0 0 250 250" fill="none" xmlns="http://www.w3.org/2000/svg">
<rect width="250" height="250" fill="#00283D"/>
<path d="M97.6772 98.1929C107.065 99.5329 118.332 90.6855 127.452 83.983C135.767 77.548 146.229 69.7731 154.277 70.0406C159.374 70.0406 163.934 72.9906 165.274 76.743C165.274 75.1355 164.202 70.5756 163.934 68.7006C162.862 65.7506 160.447 59.3156 151.327 59.3156C142.207 59.3156 131.477 67.3581 123.162 73.5256C112.7 81.033 103.85 89.0755 93.6547 87.2005C88.5572 86.128 86.1447 83.983 85.3397 81.5705C85.3397 82.9105 85.8772 87.468 86.6797 89.613C88.0197 92.293 90.9722 97.1205 97.6772 98.1929Z" fill="#0098FF"/>
<path d="M138.45 42.1557C119.672 35.9882 101.165 43.4957 90.9725 59.0481C90.9725 59.0481 92.85 63.6056 101.702 56.3681C115.115 45.1057 122.087 40.2782 138.45 42.1557Z" fill="#00BDFF"/>
<path d="M117.26 54.4906C112.967 57.4406 107.335 61.9981 103.042 64.9481C97.9449 68.1656 90.9724 72.9906 87.4849 66.8256C86.9474 68.4331 86.1449 71.6506 86.1449 72.9931C86.4124 74.8706 88.2899 79.428 94.1924 79.428C101.702 79.428 108.677 72.9931 119.407 65.2181C130.672 57.1756 138.452 51.5432 147.572 52.6157C154.815 53.6882 158.302 56.9056 160.717 60.1231C158.572 55.8331 154.012 50.4707 147.842 46.4482C141.137 42.4257 130.675 44.5707 117.262 54.4906" fill="#00E1FF"/>
<path d="M112.432 115.62C131.21 121.788 149.717 114.28 159.91 98.728C159.91 98.728 158.032 94.1705 149.18 101.408C135.5 112.4 128.792 117.495 112.43 115.618" fill="#0073FF"/>
<path d="M133.622 103.288C137.915 100.338 143.547 95.7805 147.84 92.8305C152.937 89.613 159.91 84.788 163.397 90.953C163.935 89.3455 164.737 86.128 164.737 84.7855C164.47 82.908 162.592 78.3505 156.69 78.3505C149.18 78.3505 142.205 84.7855 131.475 92.5605C120.21 100.603 112.43 106.235 103.31 105.163C96.0674 104.09 92.5799 100.873 90.1649 97.6555C92.3099 101.945 96.8699 107.308 103.04 111.33C109.745 115.353 120.475 112.938 133.62 103.288" fill="#0073FF"/>
<path d="M76.7547 144.578C72.1947 144.578 70.0497 146.723 69.2447 151.28H68.9772L69.5147 145.113H63.3423V173.533H69.5122V167.098L68.9747 162.273H69.2422C69.7797 164.953 72.1922 166.563 75.9472 166.563C81.5797 166.563 85.0672 162.005 85.0672 155.57C85.8722 149.135 82.1172 144.578 76.7522 144.578H76.7547ZM75.1472 161.47C71.9272 161.47 70.0497 159.593 70.0497 155.573C70.0497 151.82 71.9272 149.675 75.1472 149.675C78.3672 149.675 80.2447 151.553 80.2447 155.573C79.9772 159.595 78.3672 161.47 75.1472 161.47Z" fill="#0073FF"/>
<path d="M110.017 155.84C110.017 162.275 105.725 166.833 99.0198 166.833C92.3148 166.833 88.0223 162.543 88.0223 155.84C88.0223 149.138 92.3148 144.848 99.0198 144.848C105.457 144.58 110.017 149.138 110.017 155.84ZM104.115 155.84C104.115 152.088 102.237 149.943 99.0173 149.943C95.7973 149.943 93.9198 151.82 93.9198 155.84C93.9198 159.593 95.7973 161.738 99.0173 161.738C102.505 161.47 104.115 159.593 104.115 155.84Z" fill="#0073FF"/>
<path d="M123.697 160.665L124.235 165.76C122.895 166.295 121.285 166.833 119.675 166.833C115.382 166.833 113.505 164.153 113.505 160.13V137.875H119.407V159.325C119.407 160.933 119.945 161.47 121.285 161.47C122.09 161.203 122.357 160.935 123.7 160.665" fill="#0073FF"/>
<path d="M143.01 145.918L142.742 151.013C140.06 149.94 137.645 149.405 135.232 149.405C133.087 149.405 132.012 149.673 132.012 151.013C132.012 151.548 132.28 152.085 133.89 152.353L138.45 153.425C142.205 154.498 144.082 156.643 144.082 159.86C144.082 164.418 140.862 166.563 135.23 166.563C131.475 166.563 128.792 166.295 126.915 165.49L127.452 160.395C129.597 161.468 132.28 162.003 135.5 162.003C138.182 162.003 138.72 161.735 138.72 160.395C138.72 159.323 138.182 159.055 136.575 158.518L132.015 157.178C128.527 156.105 126.917 154.228 126.917 151.01C126.917 147.258 130.137 144.575 135.77 144.575C138.185 144.575 140.867 145.11 143.012 145.915" fill="#0073FF"/>
<path d="M162.86 145.383L163.127 148.6H162.86C161.787 146.455 160.177 144.848 156.422 144.848C150.52 144.848 147.035 149.405 147.035 155.84C147.035 162.275 150.522 166.833 155.887 166.833C160.447 166.833 162.592 164.688 163.397 159.593H163.665L163.127 166.028H169.03V145.383H162.86ZM157.227 161.47C154.007 161.47 152.13 159.593 152.13 155.573C152.13 151.82 153.74 149.675 157.227 149.675C160.447 149.675 162.325 151.553 162.325 155.573C162.592 159.595 160.985 161.47 157.227 161.47Z" fill="#0073FF"/>
<path d="M186.734 160.665C185.662 160.933 184.857 161.2 183.784 161.2C181.907 161.2 181.102 160.665 181.102 158.25V150.743H185.929V145.113H181.369V140.018L175.199 140.553V145.11H171.979V150.74H175.199V159.855C175.199 164.413 177.882 166.558 181.904 166.558C184.587 166.558 185.659 166.29 187.002 165.485L186.734 160.66V160.665Z" fill="#0073FF"/>
<path d="M78.3649 182.653L77.8274 187.478C75.1449 186.405 72.73 185.87 70.3175 185.87C68.1725 185.87 67.0975 186.138 67.0975 187.478C67.0975 188.013 67.365 188.55 68.975 188.818L73.5349 189.89C77.0224 190.963 79.1674 192.84 79.1674 196.325C79.1674 200.615 75.9474 203.027 70.315 203.027C66.56 203.027 63.8775 202.76 62 201.955L62.5375 196.86C64.6825 197.932 67.365 198.467 70.3175 198.467C72.4625 198.467 73.5374 198.2 73.5374 196.86C73.5374 195.787 73 195.52 71.3925 194.982L67.1 193.91C63.6125 192.84 62.0025 190.962 62.0025 187.745C62.0025 183.455 65.2225 181.31 70.855 181.31C73.5374 181.31 75.9524 181.578 78.3649 182.65V182.653Z" fill="#0073FF"/>
<path d="M89.0947 198.74H88.8272L89.3647 203.565V210H83.1947V181.58H89.3647L88.8272 187.748H89.0947C89.6322 183.19 92.0447 181.045 96.6047 181.045C101.702 181.045 105.457 185.603 105.457 192.038C105.457 198.473 101.97 203.03 96.3372 203.03C92.3147 203.297 89.8997 201.69 89.0947 198.74ZM99.2872 192.305C99.2872 188.553 97.6772 186.408 94.1897 186.408C90.9697 186.408 89.0922 188.285 89.0922 192.305C89.0922 196.325 90.9697 198.202 94.1897 198.202C97.4097 198.202 99.2872 195.79 99.2872 192.305Z" fill="#0073FF"/>
<path d="M129.062 192.305C129.062 198.74 124.77 203.298 118.332 203.298C111.895 203.298 107.602 199.008 107.602 192.305C107.602 185.603 111.895 181.313 118.332 181.313C124.77 181.313 129.062 185.603 129.062 192.305ZM123.697 192.305C123.697 188.553 121.82 186.408 118.6 186.408C115.38 186.408 113.502 188.285 113.502 192.305C113.502 196.058 115.38 198.203 118.6 198.203C121.82 198.203 123.697 195.79 123.697 192.305Z" fill="#0073FF"/>
<path d="M147.302 187.745L145.157 187.478C140.865 187.21 138.987 189.085 138.987 193.645V202.492H133.085V181.58H138.45L137.912 187.748H138.45C138.987 183.19 141.132 181.045 144.352 181.045C145.692 181.045 146.23 181.045 147.572 181.58L147.305 187.748L147.302 187.745Z" fill="#0073FF"/>
<path d="M163.397 197.13L163.935 202.225C162.325 202.76 160.985 203.297 158.837 203.297C154.545 203.297 152.132 200.617 152.132 196.595V187.48H148.912V181.85H152.132V177.56L158.035 176.488V181.583H162.862V187.213H158.035V194.72C158.035 196.865 158.572 197.67 160.717 197.67C161.522 197.403 162.595 197.403 163.4 197.133L163.397 197.13Z" fill="#0073FF"/>
<path d="M180.565 202.76V182.383L175.737 185.333L173.055 180.508L180.835 175.683H187.005V202.762H180.567L180.565 202.76Z" fill="#0073FF"/>
</svg>
