<svg width="250" height="250" viewBox="0 0 250 250" fill="none" xmlns="http://www.w3.org/2000/svg">
<rect width="250" height="250" fill="#00283D"/>
<path d="M49.3691 138.65C46.1164 138.65 44.5316 140.234 44.1562 143.404L43.8504 143.376L44.2674 139.039H40V159.418H44.4205V154.691L44.0589 151.299L44.3509 151.272C44.8652 153.023 46.3665 154.33 49.1745 154.33C53.1363 154.33 55.6524 151.188 55.6524 146.49C55.6524 141.763 53.1363 138.65 49.3691 138.65ZM48.007 150.618C45.6298 150.618 44.3512 149.173 44.3512 146.49C44.3512 143.793 45.6301 142.347 48.007 142.347C50.3561 142.347 51.6073 143.793 51.6073 146.49C51.607 149.173 50.3561 150.618 48.007 150.618Z" fill="#0073FF"/>
<path d="M68.8105 146.487C68.8105 143.827 67.5369 142.382 65.1315 142.382C62.7263 142.382 61.4528 143.827 61.4528 146.487C61.4528 149.176 62.7263 150.589 65.1315 150.589C67.5369 150.589 68.8105 149.176 68.8105 146.487ZM72.8578 146.487C72.8578 151.212 69.7723 154.326 65.1315 154.326C60.4906 154.326 57.4052 151.213 57.4052 146.487C57.4052 141.761 60.4906 138.648 65.1315 138.648C69.7726 138.648 72.8578 141.761 72.8578 146.487Z" fill="#0073FF"/>
<path d="M82.4803 149.968L82.8489 153.647C81.8851 154.1 80.8675 154.327 79.6494 154.327C76.763 154.327 75.178 152.43 75.178 149.372V133.383H79.3673V148.722C79.3673 149.798 79.8188 150.364 80.7535 150.364C81.3487 150.364 81.7447 150.25 82.4803 149.968Z" fill="#0073FF"/>
<path d="M96.4033 139.553L96.0347 143.204C94.1954 142.411 92.4406 142.015 90.743 142.015C89.1579 142.015 88.5073 142.327 88.5073 143.09C88.5073 143.628 88.8465 143.883 89.8934 144.109L93.2055 144.874C95.9793 145.525 97.1111 147.165 97.1111 149.515C97.1111 152.656 94.7612 154.326 90.8556 154.326C88.0541 154.326 86.3565 154.129 84.8286 153.618L85.2249 149.855C86.9225 150.59 88.6493 150.902 90.8556 150.902C92.5826 150.902 93.1778 150.62 93.2055 149.77C93.2055 149.119 92.8369 148.836 91.5356 148.496L88.2235 147.649C85.7058 146.996 84.6017 145.667 84.6017 143.26C84.6017 140.374 86.95 138.649 90.8847 138.649C92.8369 138.648 94.7334 138.959 96.4033 139.553Z" fill="#0073FF"/>
<path d="M110.24 139.039L110.462 141.333L110.157 141.36C109.475 139.748 108.294 138.65 105.458 138.65C101.413 138.65 98.869 141.791 98.869 146.49C98.869 151.216 101.385 154.33 105.152 154.33C108.405 154.33 109.99 152.606 110.351 149.228L110.685 149.256L110.184 153.926H114.521V139.039H110.24V139.039ZM106.501 150.618C104.151 150.618 102.914 149.173 102.914 146.49C102.914 143.793 104.151 142.347 106.501 142.347C108.892 142.347 110.156 143.793 110.156 146.49C110.157 149.173 108.892 150.618 106.501 150.618Z" fill="#0073FF"/>
<path d="M127.7 153.649C126.797 154.038 125.81 154.33 124.03 154.33C121.056 154.33 119.165 152.634 119.165 149.395V142.862H116.899V139.039H119.165V135.925L123.349 135.314V139.039H126.88V142.862H123.349V148.269C123.349 149.882 123.794 150.368 125.24 150.368C125.921 150.368 126.519 150.243 127.311 149.938L127.7 153.649Z" fill="#0073FF"/>
<path d="M149.069 139.564L148.701 143.215C146.861 142.422 145.107 142.026 143.41 142.026C141.825 142.026 141.174 142.337 141.174 143.1C141.174 143.638 141.513 143.893 142.56 144.12L145.872 144.884C148.646 145.535 149.777 147.175 149.777 149.525C149.777 152.665 147.428 154.335 143.522 154.335C140.721 154.335 139.023 154.138 137.496 153.627L137.892 149.864C139.589 150.599 141.316 150.911 143.523 150.911C145.249 150.911 145.843 150.629 145.872 149.779C145.872 149.129 145.504 148.845 144.203 148.506L140.891 147.656C138.373 147.005 137.269 145.677 137.269 143.27C137.269 140.384 139.617 138.659 143.552 138.659C145.503 138.659 147.4 138.97 149.069 139.564Z" fill="#0073FF"/>
<path d="M161.755 138.66C158.488 138.66 156.904 140.245 156.543 143.414L156.223 143.386L156.654 139.049H152.387V159.426H156.793V154.7L156.431 151.308L156.737 151.281C157.251 153.032 158.752 154.339 161.546 154.339C165.507 154.339 168.023 151.198 168.023 146.499C168.023 141.773 165.508 138.66 161.755 138.66ZM160.393 150.628C158.016 150.628 156.737 149.182 156.737 146.499C156.737 143.803 158.016 142.371 160.393 142.371C162.742 142.371 163.979 143.803 163.979 146.499C163.979 149.182 162.742 150.628 160.393 150.628Z" fill="#0073FF"/>
<path d="M181.189 146.497C181.189 143.837 179.916 142.394 177.511 142.394C175.106 142.394 173.832 143.837 173.832 146.497C173.832 149.186 175.106 150.599 177.511 150.599C179.916 150.599 181.189 149.186 181.189 146.497ZM185.236 146.497C185.236 151.222 182.151 154.335 177.51 154.335C172.87 154.335 169.785 151.222 169.785 146.497C169.785 141.771 172.87 138.659 177.51 138.659C182.151 138.659 185.236 141.771 185.236 146.497Z" fill="#0073FF"/>
<path d="M198.226 139.077L197.92 143.414L196.35 143.275C192.958 142.955 191.916 144.748 191.916 147.625V153.936H187.732V139.049H191.721L191.332 143.497L191.721 143.525C192.166 140.273 193.5 138.66 195.961 138.66C196.781 138.66 197.517 138.799 198.226 139.077Z" fill="#0073FF"/>
<path d="M209.597 149.946L210 153.658C209.096 154.047 208.11 154.339 206.317 154.339C203.342 154.339 201.452 152.643 201.452 149.404V142.871H199.186V139.049H201.452V135.936L205.636 135.324V139.049H209.18V142.871H205.636V148.278C205.636 149.891 206.094 150.377 207.54 150.377C208.221 150.377 208.804 150.266 209.597 149.946Z" fill="#0073FF"/>
<path d="M150.241 165.207V180.11H146.362L146.78 175.777L146.473 175.749C146.102 179.006 144.571 180.621 141.425 180.621C138.047 180.621 136.071 178.44 136.071 174.617V165.207H140.265V174.107C140.265 175.916 141.137 176.881 142.724 176.881C145.054 176.881 146.047 175.916 146.047 173.763V165.207H150.241Z" fill="#00BDFF"/>
<path d="M128.211 161.551C128.211 160.159 129.065 159.388 130.652 159.388C132.238 159.388 133.092 160.159 133.092 161.551C133.092 162.961 132.238 163.703 130.652 163.703C129.065 163.704 128.211 162.961 128.211 161.551ZM128.555 180.11H132.749V165.207H128.555V180.11Z" fill="#00BDFF"/>
<path d="M98.7573 172.371C98.7573 167.842 95.9547 164.808 91.7602 164.808C87.4453 164.808 84.42 168.037 84.42 172.658H84.4107C84.4107 177.419 87.2224 180.509 92.382 180.509C94.3122 180.509 96.224 180.073 97.9686 179.238L97.6531 175.489C95.5838 176.398 93.969 176.769 92.5492 176.769C89.9325 176.769 88.763 175.795 88.4662 173.791H98.6738C98.7295 173.327 98.7573 172.853 98.7573 172.371ZM88.5123 171.155C88.8742 169.346 89.9692 168.408 91.7602 168.408C93.4027 168.408 94.5164 169.281 94.7855 171.155H88.5123Z" fill="#00BDFF"/>
<path d="M64.1992 164.808C60.942 164.808 59.3552 166.395 58.9841 169.568L58.6687 169.541L59.0956 165.207H54.8174V185.613H59.2438V180.881L58.882 177.475L59.1883 177.447C59.6987 179.21 61.202 180.509 64.0046 180.509C67.9764 180.509 70.5003 177.363 70.5003 172.659C70.5003 167.926 67.9761 164.808 64.1992 164.808ZM62.8444 176.797C60.4597 176.797 59.1883 175.35 59.1883 172.659C59.1883 169.967 60.4597 168.52 62.8444 168.52C65.1921 168.52 66.4451 169.967 66.4451 172.659C66.4451 175.35 65.1921 176.797 62.8444 176.797Z" fill="#00BDFF"/>
<path d="M83.6222 165.235L83.3067 169.568L81.7477 169.429C78.3513 169.114 77.3026 170.905 77.3026 173.791V180.11H73.1082V165.207H77.0984L76.7179 169.652L77.0984 169.689C77.553 166.423 78.8894 164.808 81.3579 164.808C82.1282 164.798 82.8982 164.947 83.6222 165.235Z" fill="#00BDFF"/>
<path d="M125.242 170.7V180.11H121.039V171.211C121.039 169.401 120.194 168.436 118.663 168.436C116.389 168.436 115.434 169.401 115.434 171.554V180.11H111.239V171.211C111.239 169.401 110.386 168.436 108.855 168.436C106.581 168.436 105.625 169.401 105.625 171.554V180.11H101.431V165.207H105.31L104.883 169.54L105.198 169.568C105.57 166.311 107.101 164.696 110.219 164.696C112.966 164.696 114.784 166.255 115.053 169.549L115.258 169.568C115.545 166.162 117.16 164.696 119.962 164.696C123.285 164.697 125.242 166.877 125.242 170.7Z" fill="#00BDFF"/>
<path d="M177.403 170.7V180.11H173.209V171.211C173.209 169.401 172.355 168.436 170.824 168.436C168.56 168.436 167.595 169.401 167.595 171.554H167.585V180.11H163.391V171.211C163.391 169.401 162.546 168.436 161.015 168.436C158.741 168.436 157.786 169.401 157.786 171.554V180.11H153.582V165.207H157.47L157.043 169.54L157.359 169.568C157.73 166.311 159.261 164.696 162.379 164.696C165.135 164.696 166.945 166.255 167.214 169.549L167.418 169.568C167.706 166.162 169.32 164.696 172.123 164.696C175.445 164.697 177.403 166.877 177.403 170.7Z" fill="#00BDFF"/>
<path d="M197.958 176.613V180.11H185.691V176.613H190.352V165.438L187.262 167.156L185.304 164.038L189.732 161.514H194.325V176.613H197.958Z" fill="#00BDFF"/>
<path d="M105.408 105.475C112.173 106.438 120.13 100.229 126.539 95.4089C132.556 90.8849 139.968 85.3286 145.519 85.3892C149.151 85.4313 152.333 87.5131 153.329 90.3327C153.232 89.256 152.718 86.0554 152.351 84.5227C151.646 82.4281 149.725 77.7779 143.315 77.8059C136.699 77.8351 129.305 83.562 123.407 87.8947C116.087 93.2731 109.525 98.908 102.561 97.6211C98.8222 96.9303 97.2043 95.2021 96.6705 93.664C96.8884 95.5959 97.2094 97.5145 97.6326 99.4119C98.5294 101.422 100.438 104.766 105.404 105.474" fill="#0098FF"/>
<path d="M134.211 65.5284C120.994 61.1484 107.712 66.4939 100.522 77.583C100.522 77.583 102.007 80.7757 108.117 75.6811C117.637 67.7434 122.597 64.1309 134.211 65.5284Z" fill="#00BDFF"/>
<path d="M119.194 74.2961C116.266 76.4421 112.015 79.6897 109.002 81.7017C105.438 84.0833 100.457 87.443 98.0451 83.0092C97.6929 84.1057 97.0363 86.3883 97.0126 87.3986C97.1322 88.8393 98.5408 91.9229 102.686 91.9958C108.015 92.0875 112.951 87.4865 120.495 81.8889C128.422 76.0068 133.942 72.1458 140.399 72.8989C145.515 73.4967 147.968 75.9077 149.84 78.322C148.218 75.2118 144.944 71.4361 140.714 68.7189C136.024 65.7055 128.645 67.374 119.194 74.2961Z" fill="#00E1FF"/>
<path d="M115.731 117.983C128.949 122.363 142.23 117.017 149.42 105.928C149.42 105.928 147.935 102.735 141.825 107.83C132.305 115.767 127.345 119.38 115.731 117.983ZM130.748 109.214C133.675 107.07 137.928 103.822 140.94 101.808C144.504 99.4265 149.484 96.0674 151.897 100.501C152.249 99.4041 152.905 97.1218 152.929 96.1113C152.809 94.6705 151.401 91.587 147.256 91.514C141.927 91.4223 136.991 96.0233 129.447 101.621C121.518 107.503 116 111.364 109.543 110.611C104.426 110.013 101.973 107.602 100.102 105.188C101.724 108.298 104.998 112.074 109.228 114.791C113.917 117.802 121.297 116.133 130.748 109.211" fill="#0073FF"/>
</svg>
