<svg width="250" height="250" viewBox="0 0 250 250" fill="none" xmlns="http://www.w3.org/2000/svg">
<rect width="250" height="250" fill="#00283D"/>
<path d="M209.738 167.625H202.48L198.408 174.426L194.297 167.625H186.732L194.634 179.155L186.73 190.766H193.948L198.196 183.735L202.524 190.766H210L201.981 178.919L209.738 167.625Z" fill="#FF4A33"/>
<path d="M172.542 185.223C170.298 185.223 169.593 184.473 169.593 181.964V173.549H175.091V167.625H169.593V161.818L163.082 162.784V167.625H159.562V173.565H163.082V183.724C163.082 188.741 166.032 191.378 170.653 191.378C173.422 191.378 174.961 190.941 176.371 190.324L175.754 184.561C174.739 184.996 173.648 185.22 172.544 185.223H172.542ZM149.824 171.192L149.343 171.232C148.284 168.723 146.437 167.005 142.037 167.005C135.749 167.005 131.789 171.89 131.789 179.191C131.789 186.493 135.705 191.374 141.556 191.374C146.613 191.374 149.076 188.693 149.647 183.459L150.152 183.504L149.387 190.762H156.116V167.627H149.471L149.824 171.192ZM143.668 185.619C140.013 185.619 138.057 183.379 138.057 179.207C138.057 175.035 139.993 172.795 143.668 172.795C147.343 172.795 149.343 175.039 149.343 179.207C149.343 183.375 147.363 185.615 143.668 185.615V185.619ZM122.736 176.686L117.591 175.485C115.964 175.132 115.435 174.736 115.435 173.883C115.435 172.681 116.448 172.208 118.909 172.208C121.755 172.264 124.558 172.905 127.145 174.092L127.718 168.417C124.955 167.465 122.051 166.988 119.129 167.006C113.014 167.006 109.363 169.691 109.363 174.176C109.363 177.914 111.078 179.983 114.994 180.989L120.143 182.307C122.167 182.836 122.736 183.277 122.736 184.287C122.692 185.606 121.771 186.046 119.087 186.046C115.657 186.046 112.975 185.561 110.335 184.419L109.718 190.27C112.094 191.071 114.735 191.369 119.087 191.369C125.159 191.369 128.81 188.775 128.81 183.892C128.796 180.249 127.036 177.7 122.736 176.686ZM103.5 185.223C102.049 185.223 101.348 184.341 101.348 182.67V158.825H94.8237V183.672C94.8237 188.425 97.2881 191.37 101.773 191.37C103.489 191.402 105.19 191.041 106.746 190.317L106.173 184.598C105.335 184.989 104.425 185.201 103.5 185.221V185.223ZM79.3278 167.004C72.1142 167.004 67.3051 171.845 67.3051 179.191C67.3051 186.537 72.1142 191.374 79.3278 191.374C86.5413 191.374 91.3504 186.537 91.3504 179.191C91.3504 171.845 86.5399 167.004 79.3278 167.004ZM79.3278 185.567C75.5897 185.567 73.609 183.371 73.609 179.191C73.609 175.011 75.5888 172.811 79.3278 172.811C83.0667 172.811 85.0683 175.059 85.0683 179.195C85.0683 183.331 83.0658 185.571 79.3278 185.571V185.567ZM54.5597 167.004C49.5022 167.004 47.0391 169.469 46.4646 174.394L45.9795 174.349L46.6408 167.62H40V199.28H46.8611V191.951L46.3039 186.665L46.773 186.629C47.574 189.354 49.8987 191.378 54.2491 191.378C60.4088 191.378 64.324 186.497 64.324 179.195C64.324 171.894 60.4106 167.004 54.5597 167.004ZM52.4477 185.611C48.7541 185.611 46.773 183.371 46.773 179.199C46.773 175.027 48.7524 172.789 52.4477 172.789C56.143 172.789 58.0343 175.031 58.0343 179.197C58.0343 183.363 56.0985 185.613 52.4477 185.613V185.611Z" fill="#FF4A33"/>
<path d="M133.954 121.26C138.519 117.928 145.147 112.882 149.847 109.752C155.402 106.049 163.167 100.83 166.931 107.722C167.478 106.02 168.504 102.471 168.539 100.9C168.353 98.6608 166.156 93.8694 159.695 93.7589C151.385 93.6164 143.688 100.766 131.925 109.464C119.565 118.606 110.959 124.607 100.89 123.435C92.9121 122.507 89.0863 118.759 86.1696 115.008C88.6976 119.84 93.802 125.707 100.399 129.928C107.71 134.609 119.217 132.015 133.954 121.26Z" fill="#9BA5BC"/>
<path d="M110.539 134.884C131.149 141.689 151.858 133.384 163.068 116.151C163.068 116.151 160.754 111.191 151.227 119.106C136.383 131.443 128.647 137.057 110.539 134.884Z" fill="#6E7691"/>
<path d="M115.94 66.9985C111.375 70.3299 104.746 75.3769 100.047 78.5066C94.4916 82.2089 86.7269 87.428 82.9633 80.5366C82.4157 82.2386 81.3903 85.7877 81.3553 87.3579C81.5414 89.5975 83.7375 94.3889 90.1993 94.4994C98.509 94.6419 106.206 87.4923 117.969 78.7945C130.329 69.6527 138.935 63.6514 149.004 64.8235C156.982 65.7511 160.808 69.4992 163.724 73.25C161.196 68.4182 156.092 62.5513 149.493 58.3301C142.183 53.6489 130.676 56.2433 115.94 66.9985Z" fill="#BFC8D8"/>
<path d="M139.355 53.3746C118.745 46.5694 98.0357 54.8747 86.8254 72.1072C86.8254 72.1072 89.1401 77.0679 98.6665 69.1522C113.511 56.8161 121.246 51.2018 139.355 53.3746Z" fill="#9BA5BC"/>
<path d="M94.4456 115.447C86.7022 114.348 83.7264 109.153 82.3288 106.029C81.7057 103.413 80.9393 98.6158 80.8288 97.0967C81.6626 99.4869 84.1852 102.17 90.0129 103.246C100.872 105.244 111.103 96.4893 122.518 88.1297C131.713 81.3972 143.241 72.4971 153.555 72.4542C163.551 72.4112 166.546 79.6358 167.644 82.8922C168.219 85.2717 169.02 90.2459 169.171 91.9182C167.617 87.5382 162.656 84.3008 156.995 84.2365C148.335 84.1396 136.779 92.776 127.399 99.8071C117.4 107.298 104.992 116.945 94.4456 115.447Z" fill="#FF4A33"/>
</svg>
