<svg width="250" height="250" viewBox="0 0 250 250" fill="none" xmlns="http://www.w3.org/2000/svg">
<rect width="250" height="250" fill="#00283D"/>
<path d="M74.6277 148.708C69.8964 148.708 67.5915 151.013 67.0658 155.623L66.6007 155.583L67.2274 149.274H61V178.916H67.4295V172.041L66.9038 167.108L67.3485 167.067C68.0968 169.615 70.2601 171.515 74.3442 171.515C80.1069 171.515 83.7663 166.946 83.7663 160.112C83.7667 153.237 80.1072 148.708 74.6277 148.708ZM72.6464 166.117C69.2091 166.117 67.3489 164.014 67.3489 160.112C67.3489 156.189 69.2091 154.086 72.6464 154.086C76.0837 154.086 77.883 156.189 77.883 160.112C77.883 164.014 76.0837 166.117 72.6464 166.117Z" fill="#8F36E5"/>
<path d="M102.911 160.106C102.911 156.238 101.059 154.139 97.56 154.139C94.0614 154.139 92.209 156.238 92.209 160.106C92.209 164.018 94.0614 166.074 97.56 166.074C101.059 166.074 102.911 164.018 102.911 160.106ZM108.798 160.106C108.798 166.98 104.311 171.508 97.56 171.508C90.8095 171.508 86.3215 166.98 86.3215 160.106C86.3215 153.233 90.8095 148.705 97.56 148.705C104.311 148.705 108.798 153.233 108.798 160.106Z" fill="#8F36E5"/>
<path d="M122.795 165.17L123.331 170.521C121.929 171.181 120.449 171.511 118.68 171.511C114.479 171.511 112.173 168.752 112.173 164.305V141.048H118.267V163.358C118.267 164.924 118.926 165.747 120.283 165.747C121.149 165.747 121.725 165.581 122.795 165.17Z" fill="#8F36E5"/>
<path d="M143.05 150.023L142.514 155.334C139.838 154.181 137.286 153.605 134.817 153.605C132.511 153.605 131.565 154.058 131.565 155.168C131.565 155.951 132.058 156.321 133.581 156.651L138.399 157.763C142.433 158.709 144.079 161.095 144.079 164.513C144.079 169.082 140.661 171.511 134.981 171.511C130.906 171.511 128.437 171.224 126.214 170.481L126.79 165.007C129.26 166.076 131.771 166.53 134.981 166.53C137.493 166.53 138.356 166.119 138.399 164.883C138.399 163.937 137.862 163.524 135.97 163.031L131.152 161.798C127.49 160.849 125.884 158.916 125.884 155.415C125.884 151.216 129.3 148.707 135.023 148.707C137.862 148.707 140.621 149.16 143.05 150.023Z" fill="#8F36E5"/>
<path d="M163.186 149.273L163.51 152.609L163.065 152.65C162.074 150.304 160.336 148.707 156.231 148.707C150.327 148.707 146.627 153.276 146.627 160.111C146.627 166.985 150.287 171.514 155.766 171.514C160.497 171.514 162.802 169.007 163.348 164.094L163.813 164.134L163.106 170.928H169.394V149.273H163.186V149.273ZM157.747 166.115C154.33 166.115 152.511 164.013 152.511 160.11C152.511 156.188 154.33 154.085 157.747 154.085C161.205 154.085 163.065 156.188 163.065 160.11C163.065 164.013 161.205 166.115 157.747 166.115Z" fill="#8F36E5"/>
<path d="M188.584 170.524C187.269 171.09 185.813 171.515 183.225 171.515C178.898 171.515 176.149 169.048 176.149 164.337V154.834H172.853V149.274H176.149V144.745L182.235 143.855V149.273H187.391V154.833H182.235V162.699C182.235 165.044 182.902 165.752 185.005 165.752C185.996 165.752 186.844 165.57 187.997 165.125L188.584 170.524Z" fill="#8F36E5"/>
<path d="M81.6795 188.097V189.613H87.1992V195.295H81.6795V209.428H75.5732V195.295H72.7021V189.613H75.5732V186.54C75.5732 181.93 78.6264 178.958 83.3577 178.958C85.4605 178.958 87.5228 179.281 88.8777 179.827L88.251 185.549C87.0175 185.084 86.1281 184.841 84.4295 184.841C82.3267 184.841 81.6795 185.509 81.6795 188.097Z" fill="#8F36E5"/>
<path d="M97.6875 209.422H91.5938V187.769H97.6875V209.422ZM94.6417 179.329C96.947 179.329 98.1831 180.442 98.1831 182.458C98.1831 184.517 96.947 185.586 94.6417 185.586C92.3361 185.586 91.103 184.517 91.103 182.458C91.103 180.442 92.3365 179.329 94.6417 179.329Z" fill="#8F36E5"/>
<path d="M112.92 203.66L113.456 209.011C112.057 209.67 110.574 210 108.805 210C104.604 210 102.301 207.241 102.301 202.797V179.537H108.392V201.848C108.392 203.413 109.051 204.236 110.408 204.236C111.274 204.236 111.85 204.07 112.92 203.66Z" fill="#8F36E5"/>
<path d="M151.376 195.757V209.426H145.269V196.485C145.269 193.857 144.036 192.462 141.812 192.462C138.516 192.462 137.121 193.857 137.121 196.991V209.426H131.035V196.485C131.035 193.857 129.802 192.462 127.578 192.462C124.282 192.462 122.887 193.857 122.887 196.991V209.426H116.781V187.771H122.422L121.815 194.059L122.26 194.099C122.806 189.368 125.03 187.023 129.559 187.023C133.542 187.023 136.171 189.287 136.576 194.079L136.879 194.099C137.283 189.166 139.628 187.023 143.713 187.023C148.525 187.023 151.376 190.197 151.376 195.757Z" fill="#8F36E5"/>
<path d="M165.642 204.678L172.279 203.981H180.348V209.428H159.334V203.613L170.804 196.241C172.932 194.888 174.367 193.373 174.367 190.916C174.367 188.703 172.975 187.107 169.942 187.107C166.707 187.107 164.741 188.908 164.087 192.063L158.475 190.794C159.417 185.672 163.266 182.069 170.065 182.069C176.456 182.069 180.183 185.467 180.183 190.834C180.183 197.345 172.893 202.384 165.603 204.31L165.642 204.678Z" fill="#8F36E5"/>
<path d="M111.336 118.641C111.37 118.645 111.438 118.652 111.522 118.662C111.605 118.672 111.704 118.684 111.812 118.696C111.92 118.709 112.037 118.721 112.231 118.741C112.426 118.761 112.699 118.789 112.948 118.813C113.198 118.836 113.424 118.856 113.685 118.878C113.947 118.899 114.244 118.923 114.601 118.946C114.959 118.969 115.378 118.992 115.711 119.009C116.044 119.025 116.292 119.035 116.502 119.042C116.713 119.049 116.885 119.053 117.064 119.056C117.244 119.059 117.431 119.061 117.62 119.063C117.81 119.064 118.002 119.065 118.194 119.064C118.385 119.063 118.575 119.06 118.753 119.057C118.931 119.053 119.096 119.048 119.38 119.036C119.663 119.023 120.065 119.004 120.437 118.981C120.808 118.959 121.151 118.933 121.565 118.892C121.98 118.852 122.467 118.797 122.933 118.735C123.4 118.674 123.846 118.605 124.298 118.525C124.75 118.444 125.209 118.351 125.632 118.257C126.056 118.164 126.444 118.069 126.844 117.962C127.243 117.854 127.654 117.734 128.054 117.609C128.454 117.485 128.844 117.356 129.311 117.186C129.778 117.016 130.323 116.803 130.743 116.632C131.163 116.461 131.459 116.331 131.821 116.163C132.184 115.995 132.613 115.788 133.088 115.546C133.563 115.304 134.083 115.026 134.583 114.745C135.083 114.464 135.563 114.179 136.035 113.89C136.506 113.6 136.968 113.306 137.529 112.935C138.09 112.563 138.75 112.115 139.428 111.632C140.107 111.149 140.805 110.631 141.326 110.243C141.847 109.856 142.192 109.597 142.498 109.362C142.804 109.126 143.071 108.914 143.287 108.741C143.503 108.568 143.668 108.434 143.987 108.179C144.305 107.925 144.775 107.55 145.239 107.179C145.703 106.807 146.16 106.439 146.616 106.064C147.073 105.689 147.528 105.308 147.976 104.934C148.424 104.56 148.865 104.195 149.294 103.846C149.723 103.497 150.14 103.165 150.604 102.818C151.068 102.471 151.578 102.11 152.087 101.777C152.596 101.445 153.104 101.141 153.553 100.898C154.003 100.654 154.394 100.471 154.704 100.335C155.014 100.2 155.242 100.112 155.486 100.033C155.73 99.9536 155.988 99.8824 156.258 99.8257C156.527 99.7689 156.808 99.7265 157.056 99.7019C157.304 99.6773 157.521 99.6704 157.703 99.6759C157.885 99.6814 158.032 99.6992 158.195 99.7293C158.358 99.7595 158.536 99.8019 158.713 99.8601C158.89 99.9183 159.067 99.9921 159.22 100.07C159.373 100.148 159.503 100.23 159.609 100.308C159.714 100.386 159.795 100.46 159.884 100.555C159.974 100.65 160.072 100.767 160.144 100.861C160.216 100.956 160.262 101.029 160.284 101.065L160.307 101.102L160.14 101.35C159.973 101.598 159.638 102.094 159.331 102.534C159.024 102.975 158.743 103.359 158.382 103.831C158.02 104.303 157.576 104.863 157.217 105.303C156.858 105.744 156.583 106.066 156.259 106.431C155.936 106.796 155.564 107.205 155.179 107.612C154.793 108.019 154.395 108.424 153.958 108.849C153.521 109.274 153.045 109.719 152.584 110.133C152.123 110.548 151.677 110.932 151.172 111.345C150.667 111.757 150.103 112.198 149.524 112.627C148.944 113.056 148.349 113.473 147.737 113.88C147.124 114.287 146.495 114.684 145.82 115.082C145.145 115.48 144.424 115.88 143.737 116.238C143.051 116.595 142.4 116.911 141.755 117.204C141.11 117.496 140.471 117.764 139.789 118.028C139.107 118.292 138.382 118.552 137.654 118.791C136.927 119.029 136.198 119.247 135.458 119.446C134.719 119.645 133.969 119.826 133.237 119.98C132.505 120.135 131.791 120.264 131.018 120.379C130.245 120.495 129.413 120.597 128.674 120.67C127.935 120.743 127.289 120.785 126.618 120.813C125.946 120.841 125.248 120.855 124.569 120.851C123.891 120.847 123.231 120.825 122.369 120.764C121.506 120.704 120.44 120.606 119.473 120.485C118.505 120.365 117.637 120.223 116.757 120.05C115.878 119.877 114.989 119.673 114.226 119.48C113.462 119.287 112.825 119.105 112.358 118.966C111.892 118.828 111.597 118.733 111.449 118.685C111.302 118.637 111.302 118.637 111.336 118.641L111.336 118.641Z" fill="#610DAE"/>
<path d="M138.185 42.3359C138.151 42.3319 138.083 42.3238 137.999 42.3138C137.915 42.3038 137.818 42.292 137.709 42.2799C137.6 42.2678 137.484 42.2558 137.289 42.2356C137.093 42.2153 136.822 42.1872 136.571 42.1627C136.32 42.1381 136.095 42.1176 135.832 42.0957C135.57 42.0738 135.273 42.0509 134.914 42.0274C134.555 42.0039 134.138 41.9803 133.804 41.9631C133.47 41.946 133.226 41.9356 133.014 41.9291C132.803 41.9226 132.629 41.9201 132.447 41.9167C132.265 41.9134 132.08 41.9094 131.889 41.9082C131.699 41.907 131.508 41.9087 131.315 41.9114C131.122 41.9141 130.931 41.9179 130.752 41.9203C130.572 41.9227 130.407 41.9237 130.124 41.9339C129.841 41.9441 129.444 41.9634 129.07 41.9858C128.697 42.0083 128.352 42.0336 127.936 42.0752C127.521 42.1168 127.037 42.1743 126.57 42.2368C126.103 42.2993 125.655 42.3661 125.2 42.4463C124.745 42.5265 124.285 42.6193 123.861 42.7134C123.436 42.8075 123.051 42.9021 122.652 43.0093C122.254 43.1166 121.844 43.2356 121.445 43.3598C121.045 43.484 120.658 43.6125 120.19 43.7835C119.723 43.9545 119.176 44.1671 118.756 44.341C118.335 44.515 118.043 44.6494 117.678 44.822C117.313 44.9946 116.877 45.2047 116.396 45.4445C115.916 45.6844 115.392 45.9532 114.889 46.232C114.386 46.5107 113.905 46.7987 113.438 47.0862C112.97 47.3736 112.516 47.6599 111.953 48.0354C111.389 48.411 110.716 48.8754 110.027 49.3659C109.337 49.8564 108.632 50.3724 108.11 50.7665C107.588 51.1606 107.249 51.4321 106.942 51.6716C106.636 51.9112 106.361 52.1184 106.137 52.2923C105.912 52.4662 105.738 52.6063 105.414 52.8661C105.09 53.126 104.616 53.5053 104.149 53.8813C103.681 54.2574 103.221 54.6297 102.761 55.0093C102.302 55.3889 101.843 55.7752 101.397 56.1568C100.951 56.5385 100.518 56.915 100.1 57.2772C99.6815 57.6393 99.2781 57.9866 98.8113 58.3428C98.3445 58.699 97.815 59.0636 97.2899 59.392C96.7648 59.7203 96.2456 60.0116 95.7875 60.2487C95.3293 60.4858 94.9346 60.6675 94.6189 60.7989C94.3033 60.9303 94.0698 61.0102 93.8217 61.0793C93.5736 61.1484 93.3127 61.2062 93.0415 61.2558C92.7703 61.3055 92.4889 61.3471 92.2398 61.3707C91.9907 61.3943 91.7739 61.4 91.5915 61.3932C91.4091 61.3865 91.2611 61.3675 91.098 61.3358C90.935 61.3041 90.7569 61.2598 90.5796 61.1994C90.4023 61.139 90.2258 61.0626 90.0727 60.9821C89.9195 60.9016 89.7897 60.8171 89.6846 60.7369C89.5795 60.6567 89.499 60.5809 89.4097 60.4834C89.3205 60.3858 89.2224 60.2667 89.1509 60.1697C89.0794 60.0727 89.0343 59.998 89.0119 59.9609C88.9895 59.9237 88.9895 59.9237 88.9895 59.9237L89.1585 59.6717C89.3274 59.4197 89.6653 58.9158 89.9759 58.4687C90.2866 58.0216 90.5701 57.6313 90.9357 57.1522C91.3012 56.6731 91.749 56.1052 92.1116 55.6581C92.4743 55.211 92.7519 54.8849 93.0784 54.5143C93.405 54.1438 93.7805 53.7289 94.169 53.3162C94.5576 52.9035 94.9591 52.493 95.3998 52.0624C95.8406 51.6319 96.3205 51.1814 96.7852 50.7615C97.2499 50.3415 97.6993 49.9522 98.2079 49.5346C98.7166 49.1171 99.2842 48.6713 99.8676 48.2374C100.451 47.8035 101.05 47.3816 101.666 46.9703C102.283 46.5589 102.916 46.1581 103.595 45.7563C104.274 45.3544 105 44.9513 105.69 44.5907C106.379 44.23 107.034 43.9117 107.683 43.6177C108.331 43.3238 108.973 43.0542 109.659 42.7891C110.344 42.5239 111.072 42.2633 111.803 42.0242C112.533 41.7852 113.266 41.5677 114.008 41.3692C114.751 41.1707 115.503 40.9911 116.238 40.8378C116.973 40.6846 117.689 40.5578 118.465 40.4446C119.241 40.3314 120.075 40.2317 120.816 40.1623C121.557 40.0928 122.205 40.0534 122.879 40.0289C123.552 40.0044 124.252 39.9946 124.932 40.0029C125.612 40.0112 126.273 40.0375 127.138 40.1041C128.002 40.1706 129.07 40.2775 130.039 40.4061C131.008 40.5347 131.878 40.6851 132.759 40.8668C133.639 41.0486 134.529 41.2619 135.293 41.4632C136.058 41.6645 136.696 41.8539 137.162 41.998C137.629 42.1421 137.924 42.241 138.072 42.2905C138.219 42.34 138.219 42.3399 138.185 42.3359L138.185 42.3359Z" fill="#C600FF"/>
<path d="M85.513 67.9656C85.4496 68.1695 85.3228 68.5771 85.1491 69.1854C84.9754 69.7936 84.7548 70.6024 84.5768 71.3397C84.3988 72.0769 84.2634 72.7425 84.187 73.1986C84.1107 73.6547 84.0935 73.9011 84.0814 74.0951C84.0693 74.2891 84.0623 74.4306 84.1412 74.7467C84.22 75.0627 84.3845 75.5532 84.5519 75.9668C84.7193 76.3804 84.8896 76.7171 85.1349 77.1031C85.3802 77.4892 85.7004 77.9245 86.0793 78.326C86.4581 78.7275 86.8954 79.0951 87.3787 79.4138C87.862 79.7326 88.3912 80.0025 88.8968 80.2037C89.4023 80.4049 89.8841 80.5374 90.4066 80.638C90.929 80.7386 91.4921 80.8073 92.1243 80.8237C92.7565 80.8401 93.4579 80.8043 94.0786 80.7467C94.6992 80.6891 95.239 80.6098 96.0081 80.4066C96.7772 80.2034 97.7757 79.8764 98.5675 79.5717C99.3594 79.2669 99.9447 78.9844 100.763 78.5462C101.581 78.108 102.633 77.5141 103.653 76.8774C104.674 76.2408 105.662 75.5615 106.805 74.7401C107.948 73.9186 109.244 72.955 110.239 72.21C111.233 71.4651 111.926 70.9388 113.16 69.9984C114.395 69.058 116.171 67.7035 117.801 66.4845C119.43 65.2654 120.912 64.1818 122.036 63.3614C123.161 62.5409 123.927 61.9837 124.939 61.2832C125.951 60.5827 127.208 59.7391 128.422 58.9651C129.635 58.1911 130.804 57.4868 131.711 56.9682C132.619 56.4497 133.265 56.1169 133.832 55.8382C134.399 55.5596 134.887 55.3351 135.417 55.1068C135.947 54.8785 136.52 54.6463 137.174 54.4044C137.828 54.1625 138.563 53.911 139.236 53.7175C139.91 53.524 140.521 53.3885 141.092 53.286C141.663 53.1834 142.193 53.1138 142.658 53.0577C143.122 53.0016 143.521 52.959 143.937 52.9377C144.353 52.9165 144.786 52.9165 145.2 52.9261C145.614 52.9358 146.009 52.9552 146.444 52.9939C146.88 53.0326 147.356 53.0907 148.004 53.1971C148.652 53.3035 149.473 53.4583 150.316 53.6693C151.16 53.8802 152.027 54.1472 152.605 54.3543C153.184 54.5614 153.474 54.7085 153.753 54.8497C154.031 54.991 154.299 55.1264 154.649 55.3199C154.999 55.5135 155.432 55.765 155.848 56.0398C156.264 56.3146 156.663 56.6126 157.038 56.9164C157.414 57.2202 157.766 57.5298 158.126 57.8665C158.486 58.2032 158.853 58.567 159.188 58.9269C159.523 59.2868 159.825 59.6429 160.061 59.9196C160.297 60.1963 160.467 60.3936 160.599 60.5507C160.731 60.7077 160.825 60.8244 160.872 60.8825C160.919 60.9407 160.919 60.9407 160.919 60.9407C160.861 60.8292 160.803 60.7182 160.726 60.5771C160.649 60.436 160.551 60.2651 160.457 60.0999C160.363 59.9347 160.271 59.7751 160.151 59.5752C160.031 59.3754 159.882 59.1352 159.715 58.8737C159.548 58.6122 159.362 58.3292 159.168 58.0467C158.974 57.7641 158.772 57.482 158.605 57.252C158.437 57.022 158.305 56.8441 158.156 56.6505C158.008 56.4569 157.844 56.2476 157.61 55.9582C157.376 55.6688 157.072 55.2993 156.836 55.0188C156.601 54.7384 156.433 54.5468 156.244 54.3351C156.055 54.1233 155.845 53.8914 155.616 53.6461C155.386 53.4009 155.137 53.1423 154.901 52.9004C154.665 52.6586 154.441 52.4335 154.198 52.2002C153.955 51.9669 153.693 51.7254 153.474 51.5216C153.255 51.3177 153.08 51.1515 152.893 50.9828C152.707 50.8142 152.51 50.6431 152.262 50.4314C152.014 50.2197 151.716 49.9672 151.388 49.7004C151.059 49.4336 150.701 49.1524 150.333 48.8723C149.965 48.5921 149.587 48.313 149.252 48.0715C148.917 47.83 148.624 47.6261 148.307 47.4141C147.99 47.202 147.65 46.9817 147.308 46.7809C146.966 46.5801 146.624 46.3988 146.223 46.214C145.822 46.0293 145.364 45.8412 144.877 45.6749C144.389 45.5086 143.873 45.3643 143.415 45.2579C142.957 45.1515 142.558 45.083 142.172 45.0327C141.785 44.9824 141.411 44.9503 141.098 44.9291C140.785 44.9078 140.532 44.8976 140.361 44.8918C140.189 44.8859 140.099 44.8846 139.851 44.891C139.604 44.8975 139.199 44.9119 138.8 44.9379C138.4 44.9639 138.007 45.0015 137.61 45.0507C137.214 45.1 136.815 45.1609 136.448 45.2238C136.081 45.2867 135.747 45.3517 135.431 45.4201C135.115 45.4885 134.817 45.5604 134.505 45.6397C134.193 45.7191 133.867 45.806 133.476 45.9213C133.085 46.0365 132.629 46.1802 132.209 46.3211C131.79 46.4621 131.406 46.6002 131.044 46.736C130.681 46.8718 130.339 47.0052 130.002 47.1417C129.664 47.2782 129.331 47.4178 129.001 47.5614C128.671 47.7051 128.345 47.8529 128.003 48.0133C127.662 48.1737 127.304 48.3468 126.927 48.5332C126.55 48.7197 126.152 48.9194 125.754 49.1277C125.355 49.336 124.956 49.5529 124.56 49.7739C124.164 49.9949 123.771 50.2199 123.293 50.5021C122.814 50.7843 122.251 51.1237 121.773 51.4175C121.296 51.7113 120.904 51.9597 120.519 52.2087C120.133 52.4577 119.754 52.7074 119.443 52.9133C119.133 53.1192 118.892 53.2814 118.562 53.5102C118.231 53.7391 117.81 54.0346 117.369 54.35C116.928 54.6654 116.466 55.0006 115.991 55.3478C115.517 55.695 115.03 56.0541 114.617 56.3593C114.205 56.6644 113.867 56.9154 113.534 57.1628C113.202 57.4101 112.875 57.6536 112.431 57.9834C111.986 58.3131 111.425 58.7291 110.966 59.0691C110.508 59.4091 110.153 59.6731 109.906 59.8565C109.659 60.0398 109.52 60.1424 109.252 60.3402C108.984 60.5379 108.586 60.8307 108.168 61.1375C107.75 61.4443 107.312 61.7652 106.902 62.0638C106.493 62.3624 106.112 62.6388 105.591 63.013C105.07 63.3872 104.408 63.8593 103.76 64.3135C103.113 64.7677 102.48 65.2042 101.802 65.6633C101.124 66.1223 100.402 66.604 99.7723 67.0127C99.1426 67.4215 98.6055 67.7574 98.0541 68.0871C97.5027 68.4169 96.9369 68.7404 96.4143 69.0216C95.8916 69.3028 95.4121 69.5415 94.9907 69.7355C94.5693 69.9294 94.206 70.0786 93.9228 70.188C93.6396 70.2975 93.4364 70.3673 93.289 70.4169C93.1415 70.4665 93.0499 70.4959 92.8512 70.5496C92.6524 70.6033 92.3466 70.6813 92.0744 70.7391C91.8021 70.7969 91.5634 70.8346 91.3321 70.8609C91.1009 70.8873 90.8772 70.9023 90.7178 70.9099C90.5585 70.9174 90.4634 70.9174 90.332 70.9133C90.2007 70.9092 90.0331 70.901 89.8374 70.8778C89.6418 70.8545 89.4181 70.8162 89.2549 70.7837C89.0918 70.7513 88.9892 70.7246 88.8787 70.6918C88.7682 70.6589 88.6499 70.6199 88.5175 70.567C88.3851 70.514 88.2387 70.4469 88.0673 70.3563C87.8959 70.2657 87.6996 70.1514 87.5094 70.0174C87.3192 69.8833 87.1352 69.7294 86.9764 69.5858C86.8177 69.4421 86.6843 69.3087 86.5577 69.1685C86.4311 69.0282 86.3114 68.8812 86.2211 68.7645C86.1308 68.6479 86.0699 68.5617 85.9943 68.4492C85.9187 68.3366 85.8284 68.1977 85.7603 68.0852C85.6922 67.9727 85.6464 67.8865 85.6195 67.837C85.5926 67.7876 85.5845 67.7748 85.5804 67.7683C85.5763 67.7617 85.5763 67.7617 85.5129 67.9656L85.513 67.9656Z" fill="#D28DE7"/>
<path d="M163.976 93.014C164.04 92.8101 164.167 92.4024 164.34 91.7942C164.514 91.186 164.735 90.3772 164.913 89.6399C165.091 88.9027 165.226 88.2371 165.302 87.781C165.379 87.3249 165.396 87.0784 165.408 86.8844C165.42 86.6905 165.427 86.549 165.348 86.2329C165.269 85.9169 165.105 85.4264 164.938 85.0127C164.77 84.5991 164.6 84.2625 164.355 83.8764C164.109 83.4904 163.789 83.0551 163.41 82.6536C163.031 82.2521 162.594 81.8845 162.111 81.5657C161.627 81.247 161.098 80.9771 160.593 80.7759C160.087 80.5747 159.605 80.4421 159.083 80.3416C158.56 80.241 157.997 80.1723 157.365 80.1559C156.733 80.1395 156.032 80.1753 155.411 80.2328C154.79 80.2904 154.25 80.3698 153.481 80.5729C152.712 80.7761 151.714 81.1031 150.922 81.4079C150.13 81.7127 149.545 81.9952 148.726 82.4334C147.908 82.8716 146.856 83.4655 145.836 84.1021C144.816 84.7387 143.827 85.418 142.684 86.2395C141.542 87.0609 140.245 88.0246 139.251 88.7695C138.256 89.5145 137.563 90.0408 136.329 90.9812C135.094 91.9216 133.318 93.2761 131.689 94.4951C130.06 95.7141 128.577 96.7978 127.453 97.6182C126.329 98.4386 125.563 98.9959 124.551 99.6964C123.538 100.397 122.281 101.24 121.068 102.014C119.855 102.788 118.686 103.493 117.778 104.011C116.871 104.53 116.224 104.863 115.657 105.141C115.09 105.42 114.603 105.644 114.073 105.873C113.542 106.101 112.97 106.333 112.316 106.575C111.662 106.817 110.926 107.069 110.253 107.262C109.579 107.456 108.968 107.591 108.397 107.694C107.826 107.796 107.296 107.866 106.832 107.922C106.367 107.978 105.969 108.021 105.553 108.042C105.137 108.063 104.703 108.063 104.289 108.053C103.875 108.044 103.48 108.024 103.045 107.986C102.61 107.947 102.134 107.889 101.485 107.782C100.837 107.676 100.017 107.521 99.173 107.31C98.3293 107.099 97.4624 106.832 96.8839 106.625C96.3055 106.418 96.0151 106.271 95.7365 106.13C95.4578 105.989 95.1908 105.853 94.8406 105.66C94.4903 105.466 94.0569 105.215 93.6409 104.94C93.2249 104.665 92.8263 104.367 92.4509 104.063C92.0755 103.759 91.7234 103.45 91.3635 103.113C91.0036 102.776 90.6359 102.413 90.3012 102.053C89.9664 101.693 89.6646 101.337 89.4285 101.06C89.1925 100.783 89.0222 100.586 88.8901 100.429C88.758 100.272 88.6641 100.155 88.6173 100.097L88.5706 100.039C88.6284 100.15 88.6859 100.261 88.7633 100.402C88.8408 100.544 88.9379 100.714 89.0323 100.88C89.1267 101.045 89.2184 101.204 89.3385 101.404C89.4586 101.604 89.607 101.844 89.7743 102.106C89.9416 102.367 90.1277 102.65 90.3216 102.933C90.5156 103.215 90.7174 103.498 90.8846 103.728C91.0519 103.958 91.1846 104.135 91.333 104.329C91.4815 104.523 91.6457 104.732 91.8796 105.021C92.1136 105.311 92.4173 105.68 92.653 105.961C92.8887 106.241 93.0563 106.433 93.2451 106.645C93.4339 106.856 93.644 107.088 93.8735 107.333C94.103 107.579 94.352 107.837 94.5884 108.079C94.8247 108.321 95.0484 108.546 95.2913 108.779C95.5342 109.013 95.7962 109.254 96.0151 109.458C96.234 109.662 96.4098 109.828 96.5962 109.997C96.7826 110.165 96.9797 110.336 97.2273 110.548C97.475 110.76 97.7732 111.012 98.1016 111.279C98.43 111.546 98.7885 111.827 99.1565 112.107C99.5246 112.387 99.9022 112.667 100.237 112.908C100.573 113.15 100.865 113.353 101.182 113.566C101.499 113.778 101.84 113.998 102.181 114.199C102.523 114.399 102.866 114.581 103.266 114.766C103.667 114.95 104.125 115.138 104.613 115.305C105.1 115.471 105.617 115.615 106.074 115.722C106.532 115.828 106.931 115.897 107.317 115.947C107.704 115.997 108.078 116.029 108.391 116.05C108.705 116.072 108.957 116.082 109.129 116.088C109.3 116.094 109.39 116.095 109.638 116.089C109.886 116.082 110.291 116.068 110.69 116.042C111.089 116.016 111.482 115.978 111.879 115.929C112.275 115.88 112.675 115.819 113.042 115.756C113.408 115.693 113.742 115.628 114.058 115.559C114.374 115.491 114.672 115.419 114.984 115.34C115.296 115.261 115.622 115.174 116.013 115.058C116.404 114.943 116.86 114.799 117.28 114.658C117.7 114.518 118.083 114.379 118.445 114.244C118.808 114.108 119.15 113.974 119.488 113.838C119.825 113.701 120.159 113.562 120.488 113.418C120.818 113.275 121.144 113.127 121.486 112.966C121.828 112.806 122.185 112.633 122.562 112.446C122.94 112.26 123.337 112.06 123.735 111.852C124.134 111.644 124.534 111.427 124.93 111.206C125.326 110.985 125.718 110.76 126.197 110.477C126.675 110.195 127.239 109.856 127.716 109.562C128.194 109.268 128.585 109.02 128.97 108.771C129.356 108.522 129.736 108.272 130.046 108.066C130.356 107.86 130.597 107.698 130.928 107.469C131.259 107.241 131.679 106.945 132.121 106.63C132.562 106.314 133.024 105.979 133.498 105.632C133.972 105.285 134.46 104.925 134.872 104.62C135.285 104.315 135.623 104.064 135.955 103.817C136.287 103.57 136.614 103.326 137.059 102.996C137.503 102.667 138.065 102.251 138.523 101.911C138.982 101.571 139.337 101.306 139.584 101.123C139.831 100.94 139.969 100.837 140.238 100.639C140.506 100.442 140.903 100.149 141.321 99.8421C141.739 99.5353 142.178 99.2144 142.587 98.9158C142.997 98.6172 143.377 98.3408 143.898 97.9666C144.42 97.5924 145.082 97.1204 145.729 96.6661C146.377 96.2119 147.01 95.7754 147.687 95.3163C148.365 94.8573 149.087 94.3757 149.717 93.9669C150.347 93.5581 150.884 93.2222 151.435 92.8925C151.987 92.5627 152.552 92.2392 153.075 91.958C153.598 91.6768 154.077 91.4381 154.499 91.2441C154.92 91.0502 155.283 90.901 155.567 90.7916C155.85 90.6821 156.053 90.6123 156.2 90.5627C156.348 90.5131 156.439 90.4837 156.638 90.43C156.837 90.3763 157.143 90.2983 157.415 90.2405C157.687 90.1827 157.926 90.1451 158.157 90.1187C158.388 90.0924 158.612 90.0773 158.772 90.0698C158.931 90.0622 159.026 90.0622 159.157 90.0663C159.289 90.0704 159.456 90.0786 159.652 90.1019C159.848 90.1251 160.071 90.1634 160.234 90.1959C160.398 90.2284 160.5 90.255 160.611 90.2879C160.721 90.3207 160.84 90.3597 160.972 90.4127C161.104 90.4657 161.251 90.5327 161.422 90.6233C161.593 90.7139 161.79 90.8282 161.98 90.9622C162.17 91.0963 162.354 91.2502 162.513 91.3939C162.672 91.5375 162.805 91.6709 162.932 91.8111C163.058 91.9514 163.178 92.0985 163.268 92.2151C163.359 92.3317 163.419 92.4179 163.495 92.5305C163.571 92.643 163.661 92.7819 163.729 92.8944C163.797 93.0069 163.843 93.0931 163.87 93.1426C163.897 93.1921 163.905 93.2048 163.909 93.2114C163.913 93.2179 163.913 93.2179 163.976 93.014Z" fill="#610DAE"/>
<path d="M83.6047 83.4522C83.6235 83.6403 83.6611 84.0161 83.7187 84.4884C83.7762 84.9608 83.8536 85.5296 83.9567 86.1822C84.0597 86.8347 84.1884 87.571 84.2871 88.1269C84.3858 88.6828 84.4544 89.0581 84.5178 89.3904C84.5812 89.7228 84.6392 90.012 84.707 90.3371C84.7747 90.6622 84.8521 91.0231 84.9001 91.2438C84.9481 91.4646 84.9668 91.5453 85.0815 91.8051C85.1962 92.0649 85.4068 92.5037 85.5688 92.8252C85.7307 93.1467 85.8439 93.3509 85.9707 93.5686C86.0974 93.7862 86.2377 94.0175 86.4109 94.2796C86.5841 94.5418 86.7902 94.835 86.9885 95.102C87.1869 95.369 87.3775 95.6099 87.5541 95.8189C87.7306 96.0279 87.8932 96.2049 88.1815 96.4855C88.4698 96.766 88.8839 97.1501 89.269 97.4713C89.6541 97.7925 90.0101 98.0508 90.3768 98.2907C90.7435 98.5306 91.1208 98.7522 91.4159 98.9133C91.711 99.0743 91.9238 99.1749 92.1406 99.2712C92.3573 99.3674 92.5779 99.4593 92.8101 99.5493C93.0423 99.6393 93.2861 99.7273 93.5783 99.8207C93.8704 99.914 94.211 100.013 94.6241 100.111C95.0372 100.21 95.5229 100.309 95.9728 100.382C96.4226 100.456 96.8367 100.504 97.2513 100.535C97.6659 100.566 98.0809 100.58 98.4108 100.582C98.7407 100.585 98.9855 100.578 99.2835 100.559C99.5815 100.541 99.9327 100.512 100.336 100.463C100.739 100.415 101.193 100.347 101.668 100.259C102.143 100.17 102.639 100.061 103.193 99.9162C103.747 99.7716 104.361 99.5916 104.962 99.3923C105.564 99.193 106.154 98.9744 106.679 98.7683C107.203 98.5622 107.662 98.3687 108.165 98.1414C108.668 97.914 109.216 97.6528 109.765 97.3775C110.315 97.1023 110.866 96.813 111.383 96.5315C111.899 96.2499 112.381 95.9761 112.849 95.7023C113.317 95.4285 113.77 95.1547 114.261 94.8519C114.751 94.5491 115.279 94.2172 115.77 93.9014C116.262 93.5855 116.717 93.2855 117.211 92.9537C117.704 92.6218 118.235 92.2581 118.757 91.8953C119.278 91.5325 119.79 91.1706 120.213 90.8673C120.636 90.564 120.969 90.3192 121.336 90.0512C121.703 89.7832 122.102 89.492 122.507 89.1926C122.912 88.8931 123.322 88.5855 123.635 88.3518C123.948 88.1182 124.164 87.9586 124.473 87.7273C124.781 87.4961 125.183 87.1933 125.654 86.8382C126.126 86.4831 126.668 86.0758 127.228 85.6554C127.788 85.2351 128.367 84.8016 128.9 84.4025C129.434 84.0035 129.923 83.6387 130.44 83.2551C130.958 82.8715 131.504 82.469 132.016 82.0965C132.528 81.724 133.005 81.3816 133.474 81.0463C133.943 80.711 134.403 80.3831 134.859 80.0638C135.314 79.7445 135.765 79.434 136.267 79.0949C136.769 78.7557 137.321 78.3881 137.823 78.0592C138.325 77.7302 138.777 77.44 139.275 77.1275C139.774 76.815 140.318 76.4802 140.867 76.1532C141.415 75.8262 141.968 75.5069 142.521 75.1992C143.075 74.8916 143.629 74.5955 144.179 74.3154C144.728 74.0353 145.273 73.7712 145.775 73.5385C146.276 73.3059 146.735 73.1046 147.226 72.9058C147.717 72.707 148.24 72.5106 148.758 72.333C149.276 72.1555 149.787 71.9968 150.15 71.8914C150.512 71.7859 150.725 71.7337 151.021 71.6679C151.317 71.6021 151.696 71.5228 152.05 71.4599C152.403 71.397 152.731 71.3506 153.027 71.3162C153.322 71.2819 153.584 71.2597 153.845 71.2471C154.105 71.2345 154.365 71.2316 154.613 71.2345C154.861 71.2374 155.098 71.2461 155.348 71.2602C155.597 71.2742 155.859 71.2936 156.055 71.3144C156.251 71.3352 156.381 71.3575 156.555 71.386C156.728 71.4146 156.946 71.4494 157.143 71.4866C157.34 71.5239 157.516 71.5636 157.702 71.6071C157.887 71.6507 158.083 71.6981 158.268 71.7498C158.452 71.8016 158.626 71.8577 158.839 71.9293C159.051 72.0009 159.302 72.088 159.561 72.1906C159.819 72.2932 160.086 72.4112 160.29 72.5055C160.494 72.5999 160.634 72.6705 160.794 72.7537C160.953 72.8369 161.132 72.9327 161.33 73.0498C161.528 73.1669 161.745 73.3052 161.947 73.4407C162.149 73.5762 162.337 73.7087 162.518 73.8447C162.699 73.9806 162.873 74.1199 163.015 74.238C163.157 74.356 163.268 74.4528 163.404 74.5814C163.541 74.7101 163.705 74.8707 163.855 75.0236C164.005 75.1765 164.141 75.3216 164.281 75.4851C164.421 75.6487 164.564 75.8305 164.676 75.9771C164.787 76.1237 164.868 76.2349 164.964 76.382C165.061 76.5291 165.174 76.7119 165.266 76.8682C165.358 77.0245 165.429 77.1541 165.508 77.3099C165.587 77.4656 165.675 77.6475 165.741 77.7878C165.806 77.9281 165.849 78.0268 165.888 78.1247C165.928 78.2227 165.964 78.3199 165.975 78.2937C165.986 78.2676 165.972 78.1181 165.942 77.8702C165.912 77.6223 165.867 77.276 165.818 76.9209C165.769 76.5658 165.717 76.202 165.66 75.8281C165.603 75.4542 165.541 75.0701 165.479 74.6971C165.418 74.3241 165.357 73.9623 165.278 73.5182C165.199 73.0741 165.103 72.5478 164.983 71.9424C164.863 71.3369 164.719 70.6523 164.592 70.1536C164.465 69.6548 164.354 69.342 164.198 68.949C164.041 68.556 163.84 68.0829 163.644 67.6645C163.447 67.246 163.256 66.8822 163.006 66.4696C162.757 66.057 162.449 65.5955 162.111 65.1485C161.773 64.7015 161.404 64.269 161.019 63.8729C160.633 63.4767 160.231 63.1167 159.75 62.7587C159.27 62.4007 158.712 62.0447 158.252 61.7834C157.792 61.5222 157.432 61.3558 157.112 61.2217C156.792 61.0877 156.513 60.9861 156.163 60.8787C155.812 60.7713 155.389 60.6581 155.037 60.5754C154.684 60.4926 154.401 60.4404 154.037 60.3891C153.672 60.3378 153.225 60.2875 152.802 60.2551C152.378 60.2226 151.979 60.2081 151.662 60.2038C151.345 60.1994 151.111 60.2052 150.769 60.2241C150.428 60.2429 149.979 60.2749 149.47 60.3353C148.96 60.3958 148.39 60.4848 147.899 60.5752C147.407 60.6657 146.994 60.7576 146.546 60.8718C146.097 60.9859 145.613 61.1223 145.154 61.265C144.694 61.4077 144.259 61.5567 143.761 61.741C143.262 61.9254 142.701 62.145 142.151 62.3772C141.601 62.6094 141.062 62.8541 140.581 63.0786C140.1 63.3031 139.676 63.5072 139.192 63.7549C138.708 64.0026 138.165 64.2938 137.665 64.5685C137.165 64.8433 136.71 65.1016 136.189 65.4093C135.669 65.717 135.085 66.074 134.52 66.4252C133.955 66.7764 133.409 67.1218 132.833 67.4976C132.256 67.8735 131.648 68.2799 131.069 68.6746C130.49 69.0693 129.94 69.4525 129.365 69.8588C128.79 70.2652 128.19 70.6947 127.446 71.2331C126.702 71.7715 125.814 72.4188 125.056 72.9741C124.299 73.5295 123.672 73.9929 123.031 74.4655C122.391 74.9382 121.737 75.42 121.101 75.8912C120.465 76.3624 119.848 76.8229 119.161 77.3357C118.474 77.8485 117.718 78.4135 116.99 78.9514C116.262 79.4894 115.562 80.0002 114.757 80.5782C113.951 81.1563 113.04 81.8016 112.126 82.4228C111.211 83.0439 110.294 83.6408 109.375 84.2126C108.456 84.7844 107.535 85.331 106.617 85.8288C105.699 86.3266 104.783 86.7755 103.928 87.1581C103.073 87.5408 102.278 87.8571 101.52 88.1193C100.762 88.3815 100.043 88.5895 99.4138 88.7444C98.7849 88.8992 98.247 89.0007 97.7177 89.0796C97.1885 89.1585 96.668 89.2146 96.193 89.246C95.718 89.2775 95.2885 89.2843 94.9034 89.279C94.5184 89.2736 94.1778 89.2562 93.9248 89.2398C93.6718 89.2234 93.5064 89.2079 93.2795 89.1822C93.0526 89.1566 92.7643 89.1208 92.3976 89.057C92.031 88.9931 91.5859 88.9012 91.1699 88.8045C90.7539 88.7078 90.3669 88.6062 90.0452 88.5104C89.7235 88.4147 89.4671 88.3247 89.1764 88.2144C88.8857 88.1041 88.5606 87.9735 88.2312 87.8236C87.9017 87.6736 87.568 87.5043 87.2588 87.3311C86.9497 87.158 86.6653 86.9809 86.4234 86.8145C86.1815 86.6482 85.9822 86.4924 85.8022 86.3429C85.6223 86.1935 85.4617 86.0503 85.316 85.91C85.1704 85.7697 85.0398 85.6324 84.898 85.4655C84.7563 85.2986 84.6034 85.1022 84.482 84.9387C84.3606 84.7752 84.2706 84.6446 84.1796 84.4966C84.0886 84.3486 83.9967 84.1831 83.9183 84.0293C83.84 83.8755 83.7751 83.7332 83.7258 83.6176C83.6764 83.502 83.6425 83.413 83.6218 83.3586C83.601 83.3043 83.5934 83.2846 83.5895 83.2745C83.5856 83.2644 83.5856 83.2644 83.6044 83.4525L83.6047 83.4522Z" fill="#8F32E7"/>
</svg>
