<svg width="250" height="250" viewBox="0 0 250 250" fill="none" xmlns="http://www.w3.org/2000/svg">
<rect width="250" height="250" fill="#00283D"/>
<path d="M151.112 169.346V185.891H146.806L147.269 181.08L146.929 181.049C146.517 184.665 144.817 186.458 141.325 186.458C137.575 186.458 135.381 184.037 135.381 179.793V169.347H140.037V179.226C140.037 181.235 141.005 182.306 142.767 182.306C145.353 182.306 146.456 181.235 146.456 178.845V169.346H151.112Z" fill="#00BDFF"/>
<path d="M126.656 165.287C126.656 163.742 127.604 162.887 129.366 162.887C131.127 162.887 132.075 163.742 132.075 165.287C132.075 166.853 131.127 167.677 129.366 167.677C127.604 167.677 126.656 166.853 126.656 165.287ZM127.037 185.891H131.694V169.346H127.037V185.891Z" fill="#00BDFF"/>
<path d="M93.958 177.299C93.958 172.272 90.8467 168.903 86.1903 168.903C81.4001 168.903 78.0416 172.488 78.0416 177.618H78.0312C78.0312 182.903 81.1526 186.334 86.8806 186.334C89.0233 186.334 91.1457 185.849 93.0824 184.922L92.7322 180.76C90.435 181.77 88.6424 182.182 87.0662 182.182C84.1609 182.182 82.8629 181.101 82.5335 178.875H93.8653C93.9269 178.361 93.958 177.835 93.958 177.299ZM82.5847 175.95C82.9863 173.941 84.202 172.9 86.1903 172.9C88.0136 172.9 89.2501 173.869 89.5487 175.95H82.5847Z" fill="#00BDFF"/>
<path d="M55.5948 168.904C51.9789 168.904 50.2174 170.665 49.8053 174.188L49.4552 174.157L49.9291 169.346H45.1797V192H50.0936V186.746L49.692 182.965L50.0321 182.935C50.5986 184.892 52.2675 186.334 55.3788 186.334C59.788 186.334 62.59 182.842 62.59 177.619C62.5897 172.365 59.7877 168.904 55.5948 168.904ZM54.0909 182.213C51.4434 182.213 50.0321 180.606 50.0321 177.619C50.0321 174.631 51.4434 173.024 54.0909 173.024C56.6972 173.024 58.0881 174.631 58.0881 177.619C58.0878 180.606 56.6972 182.213 54.0909 182.213Z" fill="#00BDFF"/>
<path d="M77.1564 169.377L76.8062 174.188L75.0755 174.034C71.305 173.684 70.1408 175.672 70.1408 178.876V185.891H65.4844V169.346H69.9141L69.4917 174.281L69.9141 174.322C70.4187 170.696 71.9023 168.904 74.6427 168.904C75.4975 168.893 76.3527 169.058 77.1564 169.377Z" fill="#00BDFF"/>
<path d="M123.36 175.445V185.891H118.693V176.012C118.693 174.003 117.756 172.932 116.056 172.932C113.532 172.932 112.471 174.003 112.471 176.393V185.891H107.815V176.012C107.815 174.003 106.867 172.932 105.167 172.932C102.643 172.932 101.582 174.003 101.582 176.393V185.891H96.9258V169.346H101.232L100.758 174.157L101.108 174.188C101.52 170.572 103.22 168.78 106.681 168.78C109.731 168.78 111.75 170.511 112.049 174.168L112.275 174.188C112.595 170.408 114.387 168.78 117.498 168.78C121.186 168.78 123.36 171.201 123.36 175.445Z" fill="#00BDFF"/>
<path d="M181.265 175.445V185.891H176.608V176.012C176.608 174.003 175.661 172.932 173.961 172.932C171.447 172.932 170.376 174.003 170.376 176.393H170.366V185.891H165.709V176.012C165.709 174.003 164.772 172.932 163.072 172.932C160.548 172.932 159.487 174.003 159.487 176.393V185.891H154.82V169.346H159.137L158.663 174.157L159.013 174.188C159.425 170.572 161.125 168.78 164.587 168.78C167.646 168.78 169.655 170.511 169.954 174.168L170.181 174.188C170.5 170.408 172.292 168.78 175.403 168.78C179.091 168.78 181.265 171.201 181.265 175.445Z" fill="#00BDFF"/>
<path d="M195.835 182.251L200.941 181.716H207.151V185.902H190.98V181.432L199.806 175.767C201.729 174.538 202.548 173.308 202.548 171.676C202.548 169.818 201.288 168.748 199.144 168.748C196.717 168.748 195.141 170.07 194.637 172.556L190.318 171.581C191.106 167.332 194.353 164.877 199.239 164.877C204.092 164.877 207.025 167.427 207.025 171.613C207.025 175.952 202.389 180.237 195.803 181.967L195.835 182.251Z" fill="#00BDFF"/>
<path d="M41.401 139.871C37.7901 139.871 36.0308 141.631 35.614 145.149L35.2745 145.118L35.7374 140.304H31V162.927H35.9073V157.68L35.506 153.915L35.8301 153.884C36.401 155.828 38.0677 157.279 41.185 157.279C45.5832 157.279 48.3764 153.791 48.3764 148.575C48.3764 143.328 45.5832 139.871 41.401 139.871ZM39.8889 153.158C37.2499 153.158 35.8304 151.553 35.8304 148.575C35.8304 145.581 37.2502 143.976 39.8889 143.976C42.4967 143.976 43.8858 145.581 43.8858 148.575C43.8855 151.553 42.4967 153.158 39.8889 153.158Z" fill="#0073FF"/>
<path d="M62.9838 148.572C62.9838 145.619 61.57 144.015 58.8996 144.015C56.2295 144.015 54.8157 145.619 54.8157 148.572C54.8157 151.557 56.2295 153.126 58.8996 153.126C61.57 153.126 62.9838 151.557 62.9838 148.572ZM67.4769 148.572C67.4769 153.818 64.0516 157.274 58.8996 157.274C53.7476 157.274 50.3223 153.818 50.3223 148.572C50.3223 143.325 53.7476 139.869 58.8996 139.869C64.0519 139.869 67.4769 143.325 67.4769 148.572Z" fill="#0073FF"/>
<path d="M78.1593 152.436L78.5685 156.52C77.4985 157.024 76.3689 157.275 75.0166 157.275C71.8124 157.275 70.0527 155.17 70.0527 151.775V134.025H74.7035V151.053C74.7035 152.248 75.2047 152.876 76.2423 152.876C76.9031 152.876 77.3428 152.749 78.1593 152.436Z" fill="#0073FF"/>
<path d="M93.6172 140.874L93.208 144.928C91.166 144.048 89.218 143.608 87.3333 143.608C85.5737 143.608 84.8514 143.954 84.8514 144.801C84.8514 145.398 85.2279 145.681 86.3902 145.933L90.0671 146.782C93.1464 147.504 94.4029 149.325 94.4029 151.934C94.4029 155.421 91.7941 157.275 87.4583 157.275C84.3483 157.275 82.4637 157.056 80.7675 156.489L81.2075 152.311C83.0921 153.127 85.0091 153.473 87.4583 153.473C89.3756 153.473 90.0364 153.16 90.0671 152.217C90.0671 151.494 89.6579 151.179 88.2133 150.803L84.5364 149.862C81.7414 149.137 80.5156 147.662 80.5156 144.99C80.5156 141.786 83.1226 139.87 87.4907 139.87C89.6579 139.87 91.7633 140.215 93.6172 140.874Z" fill="#0073FF"/>
<path d="M108.977 140.304L109.224 142.85L108.884 142.881C108.128 141.091 106.817 139.871 103.668 139.871C99.1778 139.871 96.3535 143.359 96.3535 148.575C96.3535 153.822 99.1467 157.279 103.329 157.279C106.94 157.279 108.699 155.365 109.1 151.615L109.471 151.646L108.915 156.831H113.73V140.303H108.977V140.304ZM104.826 153.158C102.218 153.158 100.844 151.553 100.844 148.575C100.844 145.581 102.218 143.976 104.826 143.976C107.48 143.976 108.884 145.581 108.884 148.575C108.884 151.553 107.48 153.158 104.826 153.158Z" fill="#0073FF"/>
<path d="M128.36 156.523C127.356 156.955 126.261 157.279 124.286 157.279C120.983 157.279 118.885 155.396 118.885 151.801V144.548H116.369V140.304H118.885V136.847L123.529 136.168V140.304H127.449V144.548H123.529V150.551C123.529 152.341 124.023 152.881 125.628 152.881C126.385 152.881 127.048 152.742 127.928 152.403L128.36 156.523Z" fill="#0073FF"/>
<path d="M152.084 140.886L151.675 144.939C149.633 144.06 147.685 143.62 145.801 143.62C144.042 143.62 143.319 143.965 143.319 144.812C143.319 145.41 143.696 145.692 144.858 145.944L148.534 146.793C151.614 147.515 152.87 149.336 152.87 151.944C152.87 155.431 150.261 157.285 145.926 157.285C142.816 157.285 140.931 157.066 139.236 156.499L139.676 152.321C141.56 153.137 143.477 153.483 145.926 153.483C147.843 153.483 148.502 153.17 148.535 152.227C148.535 151.504 148.125 151.189 146.681 150.813L143.005 149.87C140.21 149.148 138.984 147.672 138.984 145C138.984 141.797 141.591 139.881 145.959 139.881C148.125 139.881 150.231 140.227 152.084 140.886Z" fill="#0073FF"/>
<path d="M166.164 139.883C162.537 139.883 160.778 141.642 160.377 145.16L160.023 145.13L160.501 140.315H155.764V162.936H160.655V157.69L160.254 153.925L160.593 153.894C161.164 155.838 162.83 157.289 165.932 157.289C170.33 157.289 173.123 153.801 173.123 148.586C173.123 143.339 170.33 139.883 166.164 139.883ZM164.652 153.169C162.013 153.169 160.593 151.564 160.593 148.586C160.593 145.592 162.013 144.003 164.652 144.003C167.259 144.003 168.633 145.592 168.633 148.586C168.633 151.564 167.259 153.169 164.652 153.169Z" fill="#0073FF"/>
<path d="M187.739 148.583C187.739 145.63 186.325 144.029 183.655 144.029C180.985 144.029 179.572 145.63 179.572 148.583C179.572 151.568 180.985 153.137 183.655 153.137C186.325 153.137 187.739 151.568 187.739 148.583ZM192.232 148.583C192.232 153.829 188.807 157.284 183.655 157.284C178.503 157.284 175.078 153.829 175.078 148.583C175.078 143.337 178.503 139.881 183.655 139.881C188.807 139.881 192.232 143.337 192.232 148.583Z" fill="#0073FF"/>
<path d="M206.654 140.346L206.314 145.16L204.571 145.006C200.806 144.651 199.648 146.641 199.648 149.836V156.841H195.004V140.315H199.432L199 145.253L199.432 145.284C199.926 141.673 201.407 139.883 204.139 139.883C205.049 139.883 205.867 140.037 206.654 140.346Z" fill="#0073FF"/>
<path d="M219.276 152.412L219.724 156.532C218.721 156.965 217.625 157.289 215.635 157.289C212.332 157.289 210.234 155.406 210.234 151.811V144.558H207.719V140.315H210.234V136.858L214.878 136.179V140.315H218.813V144.558H214.878V150.561C214.878 152.351 215.388 152.891 216.992 152.891C217.749 152.891 218.396 152.767 219.276 152.412Z" fill="#0073FF"/>
<path d="M103.614 103.042C111.124 104.112 119.958 97.219 127.073 91.8682C133.752 86.8459 141.98 80.6777 148.143 80.7449C152.175 80.7917 155.707 83.1027 156.813 86.2329C156.706 85.0376 156.135 81.4844 155.727 79.7829C154.945 77.4577 152.812 72.2953 145.696 72.3264C138.352 72.3588 130.143 78.7164 123.595 83.5264C115.469 89.4971 108.184 95.7527 100.453 94.3241C96.3027 93.5572 94.5067 91.6386 93.9141 89.9311C94.1559 92.0758 94.5123 94.2057 94.9821 96.312C95.9777 98.544 98.096 102.256 103.609 103.042" fill="#0098FF"/>
<path d="M135.589 58.6967C120.916 53.8343 106.171 59.7686 98.1895 72.079C98.1895 72.079 99.8376 75.6234 106.62 69.9677C117.189 61.1557 122.695 57.1453 135.589 58.6967Z" fill="#00BDFF"/>
<path d="M118.918 68.4301C115.668 70.8124 110.947 74.4177 107.602 76.6513C103.646 79.2952 98.1172 83.0249 95.4393 78.1028C95.0483 79.3201 94.3193 81.8541 94.293 82.9756C94.4258 84.5751 95.9895 87.9982 100.591 88.0792C106.507 88.181 111.987 83.0733 120.362 76.8592C129.162 70.3291 135.29 66.043 142.458 66.879C148.138 67.5425 150.861 70.2192 152.939 72.8993C151.138 69.4466 147.504 65.255 142.807 62.2386C137.601 58.8933 129.41 60.7456 118.918 68.4301Z" fill="#00E1FF"/>
<path d="M115.071 116.928C129.745 121.791 144.489 115.857 152.471 103.546C152.471 103.546 150.823 100.002 144.04 105.657C133.471 114.469 127.965 118.48 115.071 116.928ZM131.742 107.194C134.992 104.813 139.713 101.208 143.057 98.9723C147.014 96.3283 152.542 92.5993 155.221 97.5208C155.612 96.3035 156.34 93.7698 156.366 92.648C156.234 91.0485 154.67 87.6254 150.069 87.5443C144.153 87.4426 138.673 92.5503 130.298 98.7644C121.496 105.294 115.37 109.581 108.202 108.745C102.522 108.081 99.7985 105.404 97.7207 102.725C99.5215 106.177 103.156 110.369 107.853 113.385C113.058 116.727 121.25 114.875 131.742 107.191" fill="#0073FF"/>
</svg>
