<svg width="250" height="250" viewBox="0 0 250 250" fill="none" xmlns="http://www.w3.org/2000/svg">
<rect width="250" height="250" fill="#00283D"/>
<path d="M63.6766 172.983C57.8735 172.983 55.0599 175.826 54.4151 181.453L53.8582 181.395L54.6202 173.657H47V210H54.8547V201.588L54.2099 195.522L54.7375 195.492C55.646 198.628 58.3131 200.944 63.2956 200.944C70.3589 200.944 74.8432 195.346 74.8432 186.963C74.8725 178.523 70.3883 172.983 63.6766 172.983ZM61.2733 194.32C57.0528 194.32 54.7668 191.741 54.7668 186.963C54.7668 182.186 57.0528 179.607 61.2733 179.607C65.4644 179.607 67.6626 182.186 67.6626 186.963C67.6626 191.741 65.4644 194.32 61.2733 194.32Z" fill="#FFC700"/>
<path d="M91.7835 172.983C84.5736 172.573 78.4188 178.112 78.0085 185.322C77.9792 185.879 77.9792 186.407 78.0085 186.963C77.5103 194.173 82.9324 200.416 90.1423 200.914C90.6991 200.944 91.2267 200.944 91.7835 200.914C98.9935 201.325 105.148 195.785 105.559 188.575C105.588 188.019 105.588 187.491 105.559 186.934C106.057 179.724 100.635 173.482 93.4248 172.983C92.868 172.954 92.3111 172.954 91.7835 172.983ZM91.7835 194.261C87.5045 194.261 85.2184 191.741 85.2184 186.963C85.2184 182.215 87.4752 179.666 91.7835 179.666C96.0626 179.666 98.3487 182.245 98.3487 186.963C98.3194 191.741 96.0626 194.261 91.7835 194.261Z" fill="#FFC700"/>
<path d="M119.597 193.88C117.927 193.88 117.135 192.884 117.135 190.949V163.634H109.662V192.122C109.662 197.573 112.505 200.944 117.634 200.944C119.597 200.973 121.561 200.563 123.32 199.742L122.675 193.177C121.708 193.616 120.652 193.851 119.597 193.88Z" fill="#FFC700"/>
<path d="M141.784 184.091L135.893 182.743C134.017 182.333 133.431 181.893 133.431 180.926C133.431 179.578 134.603 179.021 137.417 179.021C140.67 179.079 143.894 179.783 146.854 181.131L147.499 174.625C144.334 173.54 141.022 172.983 137.681 173.013C130.676 173.013 126.485 176.09 126.485 181.219C126.485 185.498 128.449 187.872 132.933 189.044L138.824 190.568C141.139 191.184 141.813 191.682 141.813 192.825C141.755 194.349 140.7 194.847 137.622 194.847C134.193 194.965 130.764 194.32 127.569 192.972L126.866 199.654C130.354 200.651 133.988 201.09 137.593 200.914C144.539 200.914 148.73 197.925 148.73 192.356C148.994 188.194 145.946 184.56 141.784 184.091Z" fill="#FFC700"/>
<path d="M172.529 177.79L171.972 177.819C170.77 174.947 168.66 172.983 163.59 172.983C156.38 172.983 151.837 178.581 151.837 186.963C151.837 195.375 156.321 200.944 163.033 200.944C168.836 200.944 171.649 197.866 172.294 191.858L172.88 191.917L172.001 200.24H179.709V173.716H172.089L172.529 177.79ZM165.495 194.32C161.303 194.32 159.105 191.741 159.105 186.963C159.105 182.186 161.303 179.607 165.495 179.607C169.715 179.607 172.001 182.186 172.001 186.963C172.001 191.741 169.715 194.32 165.495 194.32Z" fill="#FFC700"/>
<path d="M202.541 193.118C201.368 193.617 200.137 193.88 198.848 193.88C196.269 193.88 195.477 193.03 195.477 190.158V180.516H201.779V173.716H195.477V167.063L188.004 168.177V173.716H183.988V180.516H188.033V192.151C187.564 196.518 190.729 200.445 195.096 200.914C195.624 200.973 196.181 200.973 196.708 200.914C198.965 201.002 201.193 200.592 203.273 199.713L202.541 193.118Z" fill="#FFC700"/>
<path d="M90.2009 113.897C102.247 115.626 116.432 104.548 127.862 95.9603C138.589 87.9004 151.778 77.9941 161.685 78.1113C167.693 77.9355 173.173 81.4232 175.606 86.9039C175.43 84.9989 174.522 79.2837 173.877 76.558C172.03 69.2601 165.319 64.2777 157.786 64.6001C146.004 64.6587 132.816 74.8581 122.323 82.5662C109.281 92.1502 97.5866 102.174 85.1891 99.8876C78.5361 98.6567 75.6638 95.5793 74.6966 92.8243C75.0776 96.2534 75.6638 99.6825 76.4258 103.053C78.6533 108.973 83.9581 113.106 90.2009 113.897Z" fill="#FFC700"/>
<path d="M141.52 42.7066C118.953 35.0863 94.0989 43.9668 81.4962 64.1897C81.4962 64.1897 84.134 69.8756 95.0368 60.79C112.006 46.6632 120.828 40.2153 141.52 42.7066Z" fill="#FFE103"/>
<path d="M114.761 58.328C109.545 62.1382 101.983 67.9413 96.5901 71.5169C90.2302 75.7667 81.379 81.7456 77.0706 73.8323C76.1914 76.3821 75.5759 78.9906 75.2242 81.6577C75.9569 86.5815 80.3532 90.1279 85.3356 89.8348C94.8316 90.0106 103.624 81.8042 117.048 71.8393C131.174 61.3468 140.993 54.4886 152.511 55.8368C159.281 56.3937 165.436 59.94 169.334 65.5086C165.436 58.5332 159.838 52.6715 153.097 48.3924C144.744 43.029 131.614 46.0184 114.761 58.328Z" fill="#FFF32D"/>
<path d="M108.607 136.172C131.174 143.792 156.028 134.911 168.631 114.688C168.631 114.688 165.993 109.003 155.09 118.088C138.12 132.215 129.299 138.634 108.607 136.172Z" fill="#FBAD18"/>
<path d="M135.365 120.55C140.582 116.74 148.144 110.937 153.537 107.361C159.897 103.112 168.748 97.1326 173.056 105.046C173.936 102.496 174.551 99.8876 174.903 97.2205C174.17 92.2967 169.774 88.7504 164.791 89.0434C155.295 88.8676 146.503 97.074 133.05 107.039C118.923 117.531 109.105 124.39 97.5866 123.041C90.8163 122.485 84.6322 118.938 80.7635 113.37C84.6908 120.316 90.2888 126.207 97.0298 130.486C105.383 135.849 118.513 132.889 135.365 120.55Z" fill="#FBAD18"/>
</svg>
