<svg width="250" height="250" viewBox="0 0 250 250" fill="none" xmlns="http://www.w3.org/2000/svg">
<rect width="250" height="250" fill="#00283D"/>
<path d="M148.194 165.2V180.104H144.315L144.732 175.77L144.426 175.742C144.055 178.999 142.524 180.614 139.378 180.614C136 180.614 134.023 178.433 134.023 174.61V165.2H138.218V174.1C138.218 175.909 139.09 176.874 140.677 176.874C143.006 176.874 143.999 175.909 143.999 173.756V165.2H148.194Z" fill="#00BDFF"/>
<path d="M126.164 161.544C126.164 160.152 127.017 159.382 128.604 159.382C130.191 159.382 131.045 160.152 131.045 161.544C131.045 162.955 130.191 163.697 128.604 163.697C127.017 163.697 126.164 162.955 126.164 161.544ZM126.507 180.104H130.701V165.2H126.507V180.104Z" fill="#00BDFF"/>
<path d="M96.71 172.364C96.71 167.836 93.9073 164.801 89.7129 164.801C85.3979 164.801 82.3726 168.03 82.3726 172.652H82.3633C82.3633 177.412 85.175 180.502 90.3347 180.502C92.2648 180.502 94.1766 180.066 95.9212 179.231L95.6058 175.482C93.5364 176.391 91.9217 176.763 90.5019 176.763C87.8848 176.763 86.7156 175.788 86.4188 173.784H96.6265C96.6819 173.32 96.71 172.847 96.71 172.364ZM86.465 171.149C86.8268 169.339 87.9219 168.402 89.7129 168.402C91.3553 168.402 92.4691 169.274 92.7381 171.149H86.465Z" fill="#00BDFF"/>
<path d="M62.1518 164.801C58.8945 164.801 57.3078 166.388 56.9366 169.562L56.6212 169.534L57.0481 165.2H52.7699V185.606H57.1963V180.874L56.8345 177.468L57.1409 177.44C57.6512 179.204 59.1545 180.503 61.9572 180.503C65.929 180.503 68.453 177.357 68.453 172.652C68.4527 167.919 65.9287 164.801 62.1518 164.801ZM60.797 176.791C58.4122 176.791 57.1409 175.343 57.1409 172.652C57.1409 169.961 58.4122 168.513 60.797 168.513C63.1447 168.513 64.3977 169.961 64.3977 172.652C64.3974 175.343 63.1447 176.791 60.797 176.791Z" fill="#00BDFF"/>
<path d="M81.5742 165.228L81.2588 169.562L79.6998 169.423C76.3033 169.107 75.2546 170.898 75.2546 173.784V180.103H71.0602V165.2H75.0504L74.6699 169.645L75.0504 169.682C75.505 166.416 76.8414 164.801 79.3099 164.801C80.08 164.792 80.8503 164.94 81.5742 165.228Z" fill="#00BDFF"/>
<path d="M123.195 170.694V180.103H118.991V171.204C118.991 169.395 118.146 168.43 116.615 168.43C114.341 168.43 113.386 169.395 113.386 171.548V180.103H109.191V171.204C109.191 169.395 108.338 168.43 106.807 168.43C104.533 168.43 103.577 169.395 103.577 171.548V180.103H99.3828V165.2H103.262L102.835 169.534L103.15 169.562C103.522 166.305 105.053 164.69 108.171 164.69C110.918 164.69 112.736 166.249 113.005 169.543L113.21 169.562C113.497 166.156 115.112 164.69 117.914 164.69C121.236 164.69 123.195 166.871 123.195 170.694Z" fill="#00BDFF"/>
<path d="M175.356 170.694V180.103H171.161V171.204C171.161 169.395 170.307 168.43 168.776 168.43C166.512 168.43 165.547 169.395 165.547 171.548H165.538V180.103H161.343V171.204C161.343 169.395 160.499 168.43 158.968 168.43C156.694 168.43 155.738 169.395 155.738 171.548V180.103H151.535V165.2H155.423L154.996 169.534L155.312 169.562C155.683 166.305 157.214 164.69 160.332 164.69C163.088 164.69 164.898 166.249 165.167 169.543L165.371 169.562C165.659 166.156 167.273 164.69 170.076 164.69C173.398 164.69 175.356 166.871 175.356 170.694Z" fill="#00BDFF"/>
<path d="M188.481 176.824L193.08 176.342H198.674V180.113H184.108V176.087L192.058 170.984C193.79 169.876 194.528 168.769 194.528 167.298C194.528 165.625 193.393 164.661 191.462 164.661C189.275 164.661 187.856 165.852 187.401 168.092L183.511 167.213C184.221 163.386 187.146 161.174 191.547 161.174C195.919 161.174 198.56 163.471 198.56 167.242C198.56 171.151 194.384 175.01 188.452 176.569L188.481 176.824Z" fill="#00BDFF"/>
<path d="M49.3692 138.649C46.1164 138.649 44.5317 140.234 44.1563 143.403L43.8505 143.376L44.2675 139.039H40V159.417H44.4205V154.691L44.059 151.299L44.3509 151.272C44.8652 153.023 46.3665 154.33 49.1745 154.33C53.1365 154.33 55.6525 151.188 55.6525 146.49C55.6525 141.763 53.1365 138.649 49.3692 138.649ZM48.007 150.618C45.6299 150.618 44.3512 149.172 44.3512 146.49C44.3512 143.793 45.6302 142.347 48.007 142.347C50.3562 142.347 51.6074 143.793 51.6074 146.49C51.6071 149.172 50.3562 150.618 48.007 150.618Z" fill="#0073FF"/>
<path d="M68.81 146.486C68.81 143.827 67.5364 142.382 65.1309 142.382C62.7258 142.382 61.4522 143.827 61.4522 146.486C61.4522 149.176 62.7258 150.589 65.1309 150.589C67.5364 150.589 68.81 149.175 68.81 146.486ZM72.8573 146.486C72.8573 151.212 69.7718 154.325 65.1309 154.325C60.4901 154.325 57.4045 151.212 57.4045 146.486C57.4045 141.761 60.4901 138.648 65.1309 138.648C69.7721 138.648 72.8573 141.76 72.8573 146.486Z" fill="#0073FF"/>
<path d="M82.4801 149.967L82.8487 153.646C81.8849 154.1 80.8673 154.327 79.6492 154.327C76.7628 154.327 75.1777 152.43 75.1777 149.372V133.383H79.3671V148.722C79.3671 149.798 79.8186 150.364 80.7533 150.364C81.3485 150.364 81.7445 150.249 82.4801 149.967Z" fill="#0073FF"/>
<path d="M96.4044 139.553L96.0358 143.204C94.1964 142.411 92.4416 142.015 90.744 142.015C89.1589 142.015 88.5083 142.327 88.5083 143.09C88.5083 143.628 88.8475 143.883 89.8945 144.109L93.2066 144.874C95.9804 145.525 97.1122 147.165 97.1122 149.515C97.1122 152.656 94.7622 154.326 90.8566 154.326C88.0551 154.326 86.3575 154.129 84.8295 153.618L85.2259 149.855C86.9235 150.59 88.6503 150.902 90.8566 150.902C92.5837 150.902 93.1789 150.62 93.2066 149.77C93.2066 149.119 92.838 148.836 91.5367 148.496L88.2245 147.649C85.7068 146.996 84.6027 145.667 84.6027 143.26C84.6027 140.374 86.951 138.649 90.8857 138.649C92.838 138.648 94.7345 138.959 96.4044 139.553Z" fill="#0073FF"/>
<path d="M110.241 139.039L110.464 141.332L110.158 141.36C109.477 139.748 108.295 138.649 105.459 138.649C101.414 138.649 98.8701 141.791 98.8701 146.49C98.8701 151.216 101.386 154.33 105.153 154.33C108.406 154.33 109.991 152.606 110.352 149.228L110.686 149.256L110.186 153.926H114.523V139.038H110.241V139.039ZM106.502 150.618C104.153 150.618 102.915 149.172 102.915 146.49C102.915 143.793 104.153 142.347 106.502 142.347C108.893 142.347 110.158 143.793 110.158 146.49C110.158 149.172 108.893 150.618 106.502 150.618Z" fill="#0073FF"/>
<path d="M127.7 153.649C126.797 154.038 125.81 154.33 124.031 154.33C121.056 154.33 119.166 152.634 119.166 149.395V142.862H116.9V139.039H119.166V135.925L123.35 135.314V139.039H126.88V142.862H123.35V148.269C123.35 149.882 123.794 150.368 125.24 150.368C125.921 150.368 126.519 150.243 127.311 149.937L127.7 153.649Z" fill="#0073FF"/>
<path d="M149.07 139.564L148.701 143.215C146.862 142.422 145.107 142.026 143.41 142.026C141.825 142.026 141.175 142.337 141.175 143.1C141.175 143.638 141.514 143.893 142.561 144.119L145.872 144.884C148.646 145.535 149.778 147.175 149.778 149.525C149.778 152.665 147.428 154.335 143.523 154.335C140.721 154.335 139.024 154.138 137.496 153.627L137.893 149.864C139.59 150.599 141.317 150.911 143.523 150.911C145.25 150.911 145.843 150.629 145.873 149.779C145.873 149.128 145.504 148.845 144.203 148.505L140.891 147.656C138.374 147.005 137.27 145.677 137.27 143.27C137.27 140.384 139.618 138.659 143.552 138.659C145.504 138.659 147.4 138.97 149.07 139.564Z" fill="#0073FF"/>
<path d="M161.754 138.66C158.488 138.66 156.903 140.244 156.542 143.414L156.222 143.386L156.653 139.049H152.386V159.426H156.792V154.7L156.431 151.308L156.736 151.281C157.251 153.032 158.752 154.339 161.546 154.339C165.507 154.339 168.023 151.197 168.023 146.499C168.023 141.773 165.507 138.66 161.754 138.66ZM160.392 150.627C158.015 150.627 156.737 149.182 156.737 146.499C156.737 143.803 158.015 142.371 160.392 142.371C162.741 142.371 163.978 143.803 163.978 146.499C163.978 149.182 162.741 150.627 160.392 150.627Z" fill="#0073FF"/>
<path d="M181.189 146.497C181.189 143.837 179.915 142.394 177.511 142.394C175.105 142.394 173.832 143.837 173.832 146.497C173.832 149.186 175.106 150.599 177.511 150.599C179.916 150.599 181.189 149.186 181.189 146.497ZM185.236 146.497C185.236 151.222 182.151 154.335 177.51 154.335C172.87 154.335 169.784 151.222 169.784 146.497C169.784 141.771 172.87 138.659 177.51 138.659C182.151 138.659 185.236 141.771 185.236 146.497Z" fill="#0073FF"/>
<path d="M198.227 139.077L197.921 143.413L196.35 143.274C192.959 142.955 191.916 144.748 191.916 147.625V153.936H187.733V139.049H191.722L191.332 143.497L191.722 143.525C192.166 140.272 193.501 138.66 195.961 138.66C196.781 138.66 197.518 138.799 198.227 139.077Z" fill="#0073FF"/>
<path d="M209.597 149.946L210 153.657C209.096 154.047 208.11 154.339 206.317 154.339C203.342 154.339 201.452 152.643 201.452 149.404V142.871H199.186V139.049H201.452V135.935L205.636 135.324V139.049H209.18V142.871H205.636V148.278C205.636 149.891 206.094 150.377 207.54 150.377C208.221 150.377 208.805 150.266 209.597 149.946Z" fill="#0073FF"/>
<path d="M105.41 105.474C112.175 106.438 120.132 100.229 126.541 95.4089C132.557 90.8849 139.969 85.3286 145.521 85.3891C149.153 85.4313 152.334 87.5131 153.33 90.3327C153.234 89.256 152.72 86.0553 152.352 84.5226C151.648 82.4281 149.727 77.7779 143.316 77.8059C136.701 77.835 129.306 83.5619 123.408 87.8947C116.088 93.273 109.526 98.908 102.562 97.6211C98.8234 96.9303 97.2056 95.2021 96.6718 93.664C96.8896 95.5959 97.2107 97.5145 97.6339 99.4118C98.5306 101.422 100.439 104.766 105.405 105.474" fill="#0098FF"/>
<path d="M134.212 65.5284C120.995 61.1484 107.713 66.4939 100.523 77.583C100.523 77.583 102.008 80.7757 108.118 75.6811C117.638 67.7434 122.598 64.1309 134.212 65.5284Z" fill="#00BDFF"/>
<path d="M119.195 74.2961C116.268 76.4421 112.016 79.6897 109.003 81.7016C105.439 84.0833 100.459 87.4429 98.0464 83.0092C97.6942 84.1056 97.0376 86.3883 97.0138 87.3985C97.1335 88.8393 98.542 91.9228 102.687 91.9958C108.016 92.0874 112.952 87.4865 120.496 81.8889C128.423 76.0067 133.944 72.1458 140.4 72.8989C145.517 73.4966 147.97 75.9077 149.842 78.3219C148.219 75.2118 144.946 71.436 140.715 68.7188C136.026 65.7055 128.647 67.374 119.195 74.2961Z" fill="#00E1FF"/>
<path d="M115.731 117.983C128.949 122.363 142.231 117.017 149.42 105.928C149.42 105.928 147.936 102.735 141.826 107.83C132.306 115.767 127.346 119.38 115.731 117.983ZM130.748 109.214C133.675 107.07 137.928 103.822 140.94 101.808C144.505 99.4265 149.485 96.0674 151.898 100.501C152.25 99.4041 152.906 97.1218 152.93 96.1113C152.81 94.6705 151.401 91.587 147.257 91.514C141.927 91.4223 136.991 96.0233 129.448 101.621C121.518 107.503 116 111.364 109.544 110.611C104.427 110.013 101.974 107.602 100.102 105.188C101.724 108.298 104.998 112.074 109.229 114.791C113.918 117.802 121.297 116.133 130.748 109.211" fill="#0073FF"/>
</svg>
