<svg width="250" height="250" viewBox="0 0 250 250" fill="none" xmlns="http://www.w3.org/2000/svg">
<rect width="250" height="250" fill="#00283D"/>
<path d="M99.5338 98.6242C108.723 99.8098 119.69 91.5103 128.582 84.9892C136.882 78.7646 146.96 71.3543 154.666 71.3543C159.705 71.3543 164.152 74.3184 165.337 78.1718C165.337 76.6897 164.448 72.2435 163.855 70.1686C162.966 67.2045 160.298 60.9799 151.406 60.9799C142.217 60.9799 132.139 68.6866 124.136 74.6148C114.058 82.0251 105.166 89.7318 95.384 87.9534C90.345 87.0641 87.9737 84.6928 87.3809 82.6179C87.3809 84.1 88.2701 88.2498 88.5665 90.3246C90.0486 92.9924 92.4199 97.4385 99.5338 98.6242Z" fill="#0098FF"/>
<path d="M138.959 44.0844C120.878 38.1562 102.5 45.2701 92.7188 60.3871C92.7188 60.3871 94.7936 64.8333 103.093 57.7194C116.135 47.0485 122.953 42.0095 138.959 44.0844Z" fill="#00BDFF"/>
<path d="M118.208 55.9407C114.058 58.9048 108.427 63.351 104.277 66.0187C99.2378 69.2792 92.4203 73.7254 89.1598 67.7971C88.567 69.2792 87.6777 72.5397 87.6777 73.7254C87.9741 75.8003 89.7526 79.95 95.3844 79.95C102.795 79.95 109.612 73.7254 119.987 66.0187C130.954 58.0155 138.364 52.6801 147.257 53.8658C154.37 54.755 157.631 58.0155 160.299 61.2761C157.927 57.1263 153.481 51.7909 147.849 48.2339C141.328 44.3806 131.25 46.4555 118.208 55.9407Z" fill="#00E1FF"/>
<path d="M113.465 115.519C131.546 121.448 149.924 114.334 159.705 99.2168C159.705 99.2168 157.63 94.7706 149.331 101.884C136.289 112.555 129.471 117.594 113.465 115.519ZM134.214 103.663C138.364 100.699 143.995 96.2526 148.145 93.5849C153.184 90.3244 160.002 85.8782 163.262 91.8065C163.855 90.3244 164.744 87.0639 164.744 85.8782C164.448 83.8033 162.669 79.6536 157.037 79.6536C149.627 79.6536 142.81 85.8782 132.435 93.5849C121.468 101.588 114.058 106.923 105.165 105.738C98.0515 104.849 94.791 101.588 92.1233 98.3275C94.4946 102.477 98.9407 107.813 104.573 111.37C111.094 115.223 121.172 113.148 134.214 103.663ZM66.039 144.568H71.9672L71.078 152.867V156.424L71.9672 165.909V172.431H66.039V144.568ZM71.9672 161.167L69.8924 161.463V150.496L71.6708 150.792C72.2637 146.346 74.3385 144.271 78.7847 144.271C83.8237 144.271 87.3807 148.421 87.3807 154.942C87.3807 161.463 83.8237 165.613 78.4883 165.613C74.9314 165.317 72.8565 163.538 71.9672 161.167ZM82.0453 154.646C82.0453 151.089 80.2668 149.014 77.0063 149.014C73.7457 149.014 71.9672 151.089 71.9672 154.646C71.9672 158.203 73.7457 160.278 77.0063 160.278C80.2668 160.278 82.0453 158.499 82.0453 154.646ZM111.094 154.646C111.094 161.167 106.944 165.317 100.423 165.317C93.9017 165.317 89.752 161.167 89.752 154.646C89.752 148.125 93.9017 143.975 100.423 143.975C106.944 143.975 111.094 148.421 111.094 154.646ZM105.758 154.646C105.758 151.089 103.98 149.014 100.719 149.014C97.4587 149.014 95.6802 151.089 95.6802 154.646C95.6802 158.203 97.4587 160.278 100.719 160.278C103.98 160.278 105.758 158.499 105.758 154.646ZM124.432 159.388L125.025 164.427C123.839 165.02 122.357 165.317 120.579 165.317C116.725 165.317 114.354 162.649 114.354 158.499V136.861H119.986V157.906C119.986 159.388 120.579 160.278 121.764 160.278C122.95 159.981 123.543 159.981 124.432 159.388ZM143.403 145.161L142.81 150.2C140.438 149.31 138.067 148.718 135.696 148.718C133.621 148.718 132.732 149.014 132.732 150.2C132.732 150.792 133.325 151.385 134.51 151.682L138.956 152.867C142.81 153.757 144.292 156.128 144.292 159.092C144.292 163.242 141.031 165.613 135.696 165.613C131.842 165.613 129.471 165.317 127.396 164.724L127.989 159.685C130.36 160.574 132.732 161.167 135.696 161.167C138.067 161.167 138.956 160.87 138.956 159.685C138.956 158.796 138.364 158.499 136.585 157.906L132.139 156.721C128.582 155.831 127.1 154.053 127.1 150.792C127.1 146.939 130.36 144.568 135.696 144.568C138.66 143.975 141.328 144.568 143.403 145.161ZM146.959 154.646C146.959 148.125 150.516 143.975 156.148 143.975C160.002 143.975 161.78 145.457 162.669 147.828L164.744 147.532V158.499L162.966 158.203C162.373 162.649 160.298 165.02 155.852 165.02C150.516 165.317 146.959 161.167 146.959 154.646ZM162.373 154.646C162.373 151.089 160.594 149.014 157.334 149.014C154.073 149.014 152.295 151.089 152.295 154.646C152.295 158.203 154.073 160.278 157.334 160.278C160.594 160.278 162.373 158.499 162.373 154.646ZM163.262 156.424V152.867L162.373 144.568H168.301V164.724H162.373L163.262 156.424ZM185.493 149.903H171.858V144.568H185.493V149.903ZM186.086 159.388L186.679 164.427C185.493 165.02 184.011 165.317 181.64 165.317C177.49 165.317 174.822 162.945 174.822 158.499V140.122L180.454 139.232V157.017C180.454 159.092 181.047 159.981 183.122 159.981C184.011 159.981 184.9 159.981 186.086 159.388ZM77.3027 181.026L76.7098 186.065C74.3385 184.88 71.9672 184.287 69.596 184.287C67.5211 184.287 66.6318 184.583 66.6318 185.769C66.6318 186.362 67.2247 186.955 68.4103 187.251L72.8565 188.437C76.4134 189.326 78.1919 191.401 78.1919 194.661C78.1919 198.811 75.2278 201.182 69.596 201.182C65.7426 201.182 63.3713 200.886 61.2964 200.293L61.8892 195.254C64.2605 196.143 66.6318 196.736 69.596 196.736C71.9672 196.736 72.8565 196.44 72.8565 195.254C72.8565 194.365 72.2637 194.069 70.4852 193.476L66.039 192.29C62.4821 191.401 61 189.622 61 186.362C61 182.509 64.2605 180.137 69.596 180.137C72.5601 179.544 74.9314 180.137 77.3027 181.026ZM87.9735 196.736H87.6771L88.2699 201.479V208H82.3417V180.137H88.2699L87.6771 186.065H87.9735C88.5663 181.619 90.6412 179.544 95.0874 179.544C100.126 179.544 103.683 183.694 103.683 190.215C103.683 196.736 100.126 200.886 94.791 200.886C90.9376 201.182 88.5663 199.7 87.9735 196.736ZM97.7551 190.215C97.7551 186.658 95.9766 184.583 92.7161 184.583C89.4556 184.583 87.6771 186.658 87.6771 190.215C87.6771 193.772 89.4556 195.847 92.7161 195.847C95.9766 195.847 97.7551 194.069 97.7551 190.215ZM126.803 190.215C126.803 196.736 122.654 200.886 116.133 200.886C109.908 200.886 105.462 196.736 105.462 190.215C105.462 183.694 109.612 179.544 116.133 179.544C122.654 179.544 126.803 183.991 126.803 190.215ZM121.172 190.215C121.172 186.658 119.393 184.583 116.133 184.583C112.872 184.583 111.094 186.658 111.094 190.215C111.094 193.772 112.872 195.847 116.133 195.847C119.69 195.847 121.172 194.069 121.172 190.215ZM144.292 186.065L142.217 185.769C138.067 185.473 136.289 187.251 136.289 191.697V200.293H130.657V179.841H135.992L135.399 185.769H135.992C136.585 181.323 138.364 179.248 141.92 179.248C143.106 179.248 143.995 179.544 144.885 179.841L144.292 186.065ZM160.298 194.958L160.891 199.997C159.409 200.59 157.927 200.886 155.852 200.886C151.702 200.886 149.331 198.515 149.331 194.069V185.176H146.367V179.841H149.331V175.691L154.963 174.802V179.841H159.705V185.176H154.963V192.587C154.963 194.661 155.555 195.551 157.63 195.551C158.223 195.551 159.112 195.551 160.298 194.958ZM170.376 199.108L171.562 194.365C174.822 195.551 176.897 196.143 179.861 196.143C183.122 196.143 184.604 194.958 184.604 192.587C184.604 190.512 183.122 189.326 179.861 189.326C178.083 189.326 176.601 189.622 175.119 189.919L173.637 186.065L181.936 180.137H171.265V175.395H189.05V180.434L181.936 184.88C187.568 185.176 189.939 187.548 189.939 192.587C189.939 197.922 186.382 200.886 179.565 200.886C176.601 200.886 173.34 200.293 170.376 199.108Z" fill="#0073FF"/>
</svg>
