<svg width="250" height="250" viewBox="0 0 250 250" fill="none" xmlns="http://www.w3.org/2000/svg">
<rect width="250" height="250" fill="#00283D"/>
<path d="M96.3128 100.37C106.161 101.773 117.741 92.736 127.075 85.7189C135.833 79.1326 146.62 71.0426 154.705 71.1333C159.989 71.1939 164.621 74.226 166.072 78.3292C165.931 76.7626 165.183 72.1032 164.646 69.8741C163.621 66.8241 160.825 60.0565 151.494 60.0966C141.865 60.1368 131.103 68.4737 122.519 74.7803C111.863 82.6109 102.312 90.8113 92.175 88.9402C86.7346 87.9327 84.382 85.4192 83.6013 83.1801C83.7047 84.6032 84.4199 89.0964 85.0018 91.5471C86.3059 94.4736 89.0841 99.3397 96.3128 100.37Z" fill="#8F36E5"/>
<path d="M138.237 42.2243C118.997 35.8496 99.6639 43.6299 89.199 59.7717C89.199 59.7717 91.3601 64.4184 100.253 57.0039C114.111 45.4483 121.332 40.1892 138.237 42.2243Z" fill="#C400FF"/>
<path d="M116.379 54.9863C112.117 58.1069 105.929 62.8343 101.541 65.7661C96.3555 69.2343 89.1068 74.123 85.5932 67.6677C85.0821 69.2622 84.1248 72.5865 84.092 74.0576C84.266 76.1555 86.316 80.6438 92.3483 80.7472C100.106 80.8807 107.291 74.1836 118.273 66.0356C129.811 57.4723 137.845 51.8505 147.245 52.9487C154.692 53.8175 158.264 57.3285 160.987 60.842C158.627 56.3161 153.861 50.8203 147.703 46.8662C140.878 42.4812 130.135 44.9118 116.379 54.9863Z" fill="#D18CE5"/>
<path d="M111.336 118.577C130.576 124.951 149.909 117.171 160.374 101.029C160.374 101.029 158.213 96.3826 149.32 103.797C135.462 115.353 128.241 120.612 111.336 118.577Z" fill="#6114AD"/>
<path d="M133.194 105.815C137.456 102.694 143.644 97.9667 148.031 95.035C153.217 91.5667 160.466 86.678 163.98 93.1334C164.491 91.5389 165.448 88.2145 165.481 86.7434C165.307 84.6455 163.257 80.1572 157.224 80.0538C149.467 79.9204 142.281 86.6174 131.3 94.7654C119.762 103.329 111.728 108.951 102.328 107.852C94.8806 106.984 91.309 103.473 88.5862 99.959C90.9462 104.485 95.7115 109.981 101.872 113.935C108.695 118.32 119.437 115.889 133.194 105.815Z" fill="#6114AD"/>
<path d="M74.6368 148.668C69.9023 148.668 67.5959 150.974 67.0698 155.588L66.6044 155.547L67.2316 149.235H61V178.896H67.4338V172.016L66.9078 167.08L67.3528 167.039C68.1015 169.588 70.2663 171.49 74.3531 171.49C80.1196 171.49 83.7815 166.918 83.7815 160.079C83.7819 153.2 80.12 148.668 74.6368 148.668ZM72.6542 166.088C69.2146 166.088 67.3531 163.984 67.3531 160.079C67.3531 156.154 69.2146 154.05 72.6542 154.05C76.0938 154.05 77.8942 156.154 77.8942 160.079C77.8942 163.984 76.0938 166.088 72.6542 166.088Z" fill="#8F36E5"/>
<path d="M102.941 160.075C102.941 156.203 101.087 154.103 97.5861 154.103C94.0851 154.103 92.2315 156.203 92.2315 160.075C92.2315 163.989 94.0851 166.046 97.5861 166.046C101.087 166.046 102.941 163.989 102.941 160.075ZM108.832 160.075C108.832 166.953 104.341 171.484 97.5861 171.484C90.831 171.484 86.3401 166.953 86.3401 160.075C86.3401 153.196 90.831 148.665 97.5861 148.665C104.341 148.665 108.832 153.196 108.832 160.075Z" fill="#8F36E5"/>
<path d="M122.837 165.141L123.374 170.496C121.971 171.155 120.49 171.486 118.719 171.486C114.516 171.486 112.208 168.725 112.208 164.275V141.003H118.306V163.328C118.306 164.895 118.966 165.718 120.323 165.718C121.19 165.718 121.767 165.552 122.837 165.141Z" fill="#8F36E5"/>
<path d="M143.104 149.982L142.568 155.297C139.89 154.143 137.337 153.566 134.865 153.566C132.559 153.566 131.611 154.02 131.611 155.13C131.611 155.914 132.105 156.284 133.629 156.614L138.45 157.727C142.487 158.674 144.134 161.062 144.134 164.482C144.134 169.053 140.714 171.484 135.029 171.484C130.952 171.484 128.481 171.197 126.257 170.454L126.834 164.976C129.305 166.046 131.818 166.499 135.029 166.499C137.543 166.499 138.407 166.089 138.45 164.852C138.45 163.905 137.913 163.492 136.019 162.999L131.198 161.764C127.534 160.815 125.927 158.88 125.927 155.377C125.927 151.176 129.345 148.665 135.072 148.665C137.913 148.665 140.674 149.118 143.104 149.982Z" fill="#8F36E5"/>
<path d="M163.256 149.235L163.58 152.573L163.135 152.614C162.144 150.267 160.404 148.668 156.296 148.668C150.389 148.668 146.686 153.241 146.686 160.079C146.686 166.959 150.348 171.491 155.831 171.491C160.565 171.491 162.872 168.982 163.418 164.065L163.884 164.106L163.176 170.904H169.468V149.235L163.256 149.235ZM157.814 166.088C154.394 166.088 152.573 163.984 152.573 160.079C152.573 156.154 154.394 154.05 157.814 154.05C161.273 154.05 163.135 156.154 163.135 160.079C163.135 163.984 161.274 166.088 157.814 166.088Z" fill="#8F36E5"/>
<path d="M188.668 170.499C187.353 171.066 185.896 171.49 183.307 171.49C178.977 171.49 176.225 169.022 176.225 164.308V154.798H172.927V149.235H176.225V144.702L182.315 143.812V149.234H187.475V154.798H182.315V162.669C182.315 165.016 182.983 165.724 185.087 165.724C186.079 165.724 186.928 165.542 188.082 165.097L188.668 170.499Z" fill="#8F36E5"/>
<path d="M95.8205 188.081V189.599H101.344V195.284H95.8205V209.427H89.7102V195.284H86.8372V189.599H89.7102V186.524C89.7102 181.91 92.7654 178.936 97.4998 178.936C99.604 178.936 101.668 179.26 103.024 179.806L102.396 185.532C101.162 185.067 100.272 184.824 98.5724 184.824C96.4682 184.824 95.8205 185.492 95.8205 188.081Z" fill="#8F36E5"/>
<path d="M111.838 209.423H105.741V187.756H111.838V209.423ZM108.791 179.311C111.097 179.311 112.334 180.424 112.334 182.441C112.334 184.502 111.097 185.572 108.791 185.572C106.483 185.572 105.25 184.502 105.25 182.441C105.25 180.424 106.484 179.311 108.791 179.311Z" fill="#8F36E5"/>
<path d="M127.08 203.655L127.617 209.01C126.216 209.67 124.733 210 122.962 210C118.759 210 116.454 207.24 116.454 202.792V179.517H122.549V201.842C122.549 203.409 123.209 204.232 124.566 204.232C125.433 204.232 126.01 204.066 127.08 203.655Z" fill="#8F36E5"/>
<path d="M165.563 195.749V209.427H159.452V196.478C159.452 193.847 158.218 192.451 155.993 192.451C152.695 192.451 151.299 193.847 151.299 196.984V209.427H145.209V196.478C145.209 193.847 143.975 192.451 141.749 192.451C138.451 192.451 137.055 193.847 137.055 196.984V209.427H130.945V187.757H136.59L135.983 194.05L136.428 194.09C136.974 189.356 139.2 187.009 143.732 187.009C147.717 187.009 150.348 189.275 150.753 194.07L151.056 194.09C151.461 189.153 153.807 187.009 157.895 187.009C162.71 187.009 165.563 190.185 165.563 195.749Z" fill="#8F36E5"/>
</svg>
