<svg width="250" height="250" viewBox="0 0 250 250" fill="none" xmlns="http://www.w3.org/2000/svg">
<rect width="250" height="250" fill="#00283D"/>
<path d="M96.3473 100.567C106.225 101.975 117.846 93.7752 127.207 86.7354C135.996 80.1301 146.819 71.1449 154.927 71.2357C160.231 71.2962 164.878 74.3387 166.333 78.4548C166.192 76.8833 165.442 72.2083 164.903 69.9722C163.875 66.9121 161.07 60.1201 151.708 60.163C142.048 60.2035 131.251 68.5672 122.639 74.8944C111.948 82.7504 102.366 90.9779 92.196 89.0979C86.738 88.0898 84.3752 85.5679 83.5945 83.3217C83.6982 84.7493 84.4158 89.2574 84.9995 91.7157C86.3079 94.6495 89.095 99.5338 96.3473 100.567Z" fill="#33F214"/>
<path d="M138.408 42.2326C119.105 35.8348 99.7095 43.6427 89.2103 59.8373C89.2103 59.8373 91.3786 64.4994 100.301 57.0604C114.203 45.467 121.448 40.1934 138.408 42.2326Z" fill="#5CF545"/>
<path d="M116.478 55.036C112.203 58.1667 105.994 62.9099 101.595 65.8511C96.3898 69.3304 89.1177 74.235 85.5951 67.7588C85.0795 69.3608 84.1194 72.6938 84.0867 74.1695C84.261 76.2745 86.3177 80.7748 92.3696 80.8809C100.152 81.0146 107.361 74.2958 118.378 66.1217C129.954 57.5303 138.014 51.8906 147.445 52.9922C154.916 53.8638 158.499 57.3864 161.231 60.9113C158.864 56.3705 154.083 50.8571 147.904 46.89C141.057 42.4931 130.28 44.9261 116.478 55.036Z" fill="#F7BDE3"/>
<path d="M111.42 118.834C130.72 125.23 150.116 117.424 160.617 101.23C160.617 101.23 158.449 96.5677 149.524 104.007C135.624 115.597 128.38 120.873 111.42 118.834Z" fill="#26B50F"/>
<path d="M133.349 106.03C137.624 102.899 143.833 98.1565 148.232 95.215C153.438 91.7357 160.71 86.8334 164.235 93.3072C164.747 91.7052 165.708 88.3722 165.741 86.8965C165.566 84.7915 163.51 80.2912 157.458 80.1852C149.675 80.0514 142.466 86.7702 131.449 94.9443C119.874 103.536 111.813 109.175 102.383 108.074C94.911 107.202 91.3279 103.68 88.5962 100.155C90.9637 104.696 95.7471 110.209 101.923 114.176C108.77 118.576 119.547 116.14 133.349 106.03Z" fill="#26B50F"/>
<path d="M75.019 148.962C70.2894 148.962 67.9956 151.256 67.468 155.843L67.0215 155.803L67.6306 149.531H61.4391V179.045H67.833V172.205L67.3257 167.272L67.7519 167.252C68.503 169.789 70.6747 171.656 74.7347 171.656C80.459 171.656 84.1127 167.109 84.1127 160.309C84.1131 153.468 80.459 148.962 75.019 148.962ZM73.05 166.297C69.5992 166.297 67.7523 164.206 67.7523 160.309C67.7523 156.412 69.5996 154.321 73.05 154.321C76.44 154.321 78.2464 156.412 78.2464 160.309C78.2468 164.206 76.44 166.297 73.05 166.297Z" fill="#33F214"/>
<path d="M103.174 160.312C103.174 156.459 101.33 154.367 97.8451 154.367C94.3604 154.367 92.5158 156.459 92.5158 160.312C92.5158 164.206 94.3604 166.255 97.8451 166.255C101.329 166.255 103.174 164.206 103.174 160.312ZM109.037 160.312C109.037 167.157 104.569 171.665 97.8455 171.665C91.124 171.665 86.6542 167.157 86.6542 160.312C86.6542 153.464 91.124 148.957 97.8455 148.957C104.569 148.957 109.037 153.465 109.037 160.312Z" fill="#33F214"/>
<path d="M122.974 165.354L123.507 170.683C122.112 171.34 120.637 171.666 118.876 171.666C114.694 171.666 112.397 168.92 112.397 164.493V141.334H118.464V163.55C118.464 165.109 119.121 165.928 120.473 165.928C121.334 165.928 121.908 165.763 122.974 165.354Z" fill="#33F214"/>
<path d="M143.143 150.268L142.609 155.557C139.946 154.41 137.404 153.834 134.946 153.834C132.649 153.834 131.706 154.286 131.706 155.393C131.706 156.171 132.199 156.54 133.715 156.869L138.511 157.975C142.528 158.918 144.166 161.296 144.166 164.697C144.166 169.248 140.764 171.666 135.107 171.666C131.049 171.666 128.59 171.381 126.376 170.643L126.95 165.19C129.411 166.256 131.911 166.708 135.107 166.708C137.608 166.708 138.47 166.297 138.51 165.069C138.51 164.124 137.977 163.714 136.092 163.224L131.296 161.993C127.648 161.051 126.048 159.123 126.048 155.638C126.048 151.459 129.452 148.957 135.15 148.957C137.978 148.957 140.725 149.407 143.143 150.268Z" fill="#33F214"/>
<path d="M163.197 149.53L163.521 152.859L163.075 152.9C162.08 150.566 160.355 148.962 156.255 148.962C150.409 148.962 146.714 153.509 146.714 160.309C146.714 167.149 150.368 171.656 155.808 171.656C160.517 171.656 162.811 169.159 163.359 164.287L163.826 164.328L163.115 171.087H169.388V149.53H163.197ZM157.777 166.297C154.366 166.297 152.58 164.206 152.58 160.309C152.58 156.412 154.367 154.321 157.777 154.321C161.228 154.321 163.074 156.412 163.074 160.309C163.074 164.206 161.228 166.297 157.777 166.297Z" fill="#33F214"/>
<path d="M188.488 170.681C187.169 171.25 185.728 171.676 183.15 171.676C178.846 171.676 176.106 169.2 176.106 164.531V155.072H172.818V149.53H176.106V145.024L182.175 144.111V149.531H187.29V155.072H182.175V162.887C182.175 165.242 182.825 165.932 184.915 165.932C185.89 165.932 186.763 165.769 187.9 165.303L188.488 170.681Z" fill="#33F214"/>
<path d="M75.0943 188.596L74.5608 193.885C71.8977 192.738 69.3555 192.162 66.8971 192.162C64.6002 192.162 63.6577 192.614 63.6577 193.721C63.6577 194.499 64.1502 194.868 65.6664 195.196L70.4622 196.303C74.4797 197.246 76.1199 199.623 76.1199 203.025C76.1199 207.576 72.7163 209.994 67.0586 209.994C63.0006 209.994 60.5418 209.708 58.3284 208.97L58.902 203.518C61.3631 204.584 63.8624 205.034 67.0586 205.034C69.5602 205.034 70.4217 204.624 70.4622 203.394C70.4622 202.451 69.9292 202.042 68.044 201.549L63.2482 200.321C59.5997 199.378 58 197.45 58 193.966C58 189.784 61.4037 187.285 67.1015 187.285C69.9292 187.285 72.6757 187.734 75.0943 188.596Z" fill="#33F214"/>
<path d="M99.3979 198.226C99.3979 191.67 95.3383 187.285 89.2891 187.285C83.0574 187.285 78.6527 191.954 78.6527 198.632C78.6527 205.534 82.7123 210 90.1821 210C92.7602 210 95.6222 209.411 98.2611 208.152L97.8146 202.733C94.8103 204.052 92.4759 204.58 90.4259 204.58C86.6502 204.58 84.9453 203.179 84.519 200.276H99.2762C99.3573 199.627 99.3979 198.917 99.3979 198.226ZM84.6001 196.461C85.1075 193.842 86.6908 192.482 89.2891 192.482C91.664 192.482 93.2676 193.741 93.6533 196.461H84.6001Z" fill="#33F214"/>
<path d="M118.458 187.895L118.012 194.167L115.758 193.964C110.846 193.518 109.324 196.095 109.324 200.277V209.411H103.255V187.854H109.04L108.492 194.289L109.04 194.329C109.69 189.62 111.618 187.285 115.191 187.285C116.367 187.286 117.443 187.489 118.458 187.895Z" fill="#33F214"/>
<path d="M127.732 209.42H121.664V187.858H127.732V209.42ZM124.697 179.455C126.991 179.455 128.222 180.561 128.222 182.57C128.222 184.619 126.991 185.685 124.697 185.685C122.4 185.685 121.172 184.619 121.172 182.57C121.172 180.561 122.4 179.455 124.697 179.455Z" fill="#33F214"/>
<path d="M147.81 187.854L148.135 191.183L147.689 191.224C146.714 188.889 144.989 187.286 140.888 187.286C135.022 187.286 131.328 191.833 131.328 198.633C131.328 205.494 134.982 210 140.442 210C145.151 210 147.445 207.503 147.973 202.611L148.46 202.652L147.729 209.411H154.001V187.854H147.81ZM142.411 204.621C139.001 204.621 137.194 202.53 137.194 198.633C137.194 194.735 139.001 192.645 142.411 192.645C145.841 192.645 147.689 194.735 147.689 198.633C147.688 202.53 145.841 204.621 142.411 204.621Z" fill="#33F214"/>
<path d="M169.174 203.682L169.707 209.011C168.312 209.665 166.836 209.994 165.075 209.994C160.893 209.994 158.596 207.248 158.596 202.82V179.662H164.664V201.878C164.664 203.434 165.321 204.255 166.672 204.255C167.534 204.255 168.107 204.091 169.174 203.682Z" fill="#33F214"/>
<path d="M191.919 198.226C191.919 191.67 187.859 187.285 181.81 187.285C175.578 187.285 171.174 191.954 171.174 198.632C171.174 205.534 175.233 210 182.703 210C185.281 210 188.143 209.411 190.782 208.152L190.336 202.733C187.331 204.052 184.997 204.58 182.947 204.58C179.171 204.58 177.466 203.179 177.04 200.276H191.797C191.878 199.627 191.919 198.917 191.919 198.226ZM177.122 196.461C177.629 193.842 179.212 192.482 181.811 192.482C184.185 192.482 185.789 193.741 186.175 196.461H177.122Z" fill="#33F214"/>
</svg>
