<svg width="250" height="250" viewBox="0 0 250 250" fill="none" xmlns="http://www.w3.org/2000/svg">
<rect width="250" height="250" fill="#00283D"/>
<path d="M96.9633 100.368C106.811 101.771 118.391 92.7323 127.722 85.7155C136.479 79.1321 147.269 71.0424 155.351 71.1332C160.637 71.1936 165.269 74.2261 166.72 78.3286C166.578 76.7619 165.83 72.1028 165.294 69.8738C164.269 66.8236 161.473 60.054 152.142 60.0967C142.514 60.1369 131.75 68.4735 123.169 74.7798C112.513 82.6102 102.962 90.8105 92.8253 88.9365C87.3852 87.9316 85.0303 85.4183 84.2522 83.1792C84.3555 84.6023 85.0709 89.0954 85.6524 91.546C86.957 94.4703 89.7325 99.3386 96.9633 100.368Z" fill="#FF6600"/>
<path d="M117.028 54.9868C112.766 58.1073 106.578 62.8344 102.193 65.7664C97.0049 69.2344 89.754 74.1227 86.2434 67.6677C85.7322 69.2646 84.7752 72.5866 84.7422 74.0572C84.9159 76.1551 86.966 80.6405 92.998 80.7463C100.755 80.8798 107.941 74.1831 118.921 66.0354C130.459 57.4724 138.493 51.8509 147.892 52.9492C155.34 53.8182 158.911 57.3288 161.634 60.8422C159.274 56.3162 154.506 50.8211 148.351 46.8669C141.526 42.4848 130.784 44.9101 117.028 54.9868Z" fill="#FFC700"/>
<path d="M111.986 118.575C131.225 124.95 150.557 117.17 161.022 101.029C161.022 101.029 158.861 96.3821 149.968 103.797C136.111 115.349 128.89 120.608 111.986 118.575Z" fill="#FF4A33"/>
<path d="M133.843 105.813C138.104 102.693 144.295 97.9657 148.68 95.0341C153.865 91.5661 161.116 86.6802 164.627 93.1328C165.138 91.536 166.095 88.2139 166.128 86.7433C165.955 84.6454 163.905 80.16 157.873 80.0542C150.115 79.9207 142.93 86.6174 131.949 94.7651C120.412 103.328 112.378 108.95 102.978 107.851C95.5309 106.982 91.9599 103.472 89.2371 99.9583C91.5968 104.484 96.3645 109.979 102.522 113.934C109.345 118.318 120.087 115.89 133.843 105.813Z" fill="#FF4A33"/>
<path d="M138.886 42.2254C119.649 35.8484 100.314 43.6309 89.8494 59.7722C89.8494 59.7722 92.0104 64.4188 100.903 57.0043C114.76 45.4489 121.981 40.193 138.886 42.2254Z" fill="#FF8533"/>
<path d="M75.2985 148.656C70.5642 148.656 68.2579 150.963 67.7114 155.575L67.2462 155.535L67.8735 149.243H61.6621V178.903H68.0758V172.024L67.5498 167.068L67.9949 167.027C68.7433 169.576 70.9285 171.478 74.9953 171.478C80.7816 171.478 84.4434 166.906 84.4434 160.067C84.4434 153.188 80.7812 148.656 75.2985 148.656ZM73.3156 166.076C69.856 166.076 67.9945 163.992 67.9945 160.067C67.9945 156.163 69.856 154.058 73.3156 154.058C76.7349 154.058 78.5353 156.163 78.5353 160.067C78.5357 163.993 76.7349 166.076 73.3156 166.076Z" fill="#FF6600"/>
<path d="M103.59 160.071C103.59 156.2 101.739 154.096 98.2356 154.096C94.7346 154.096 92.8812 156.2 92.8812 160.071C92.8812 163.982 94.7346 166.045 98.2356 166.045C101.739 166.045 103.59 163.982 103.59 160.071ZM109.481 160.071C109.481 166.949 104.991 171.482 98.236 171.482C91.4814 171.482 86.9907 166.949 86.9907 160.071C86.9907 153.19 91.4814 148.662 98.236 148.662C104.991 148.662 109.481 153.19 109.481 160.071Z" fill="#FF6600"/>
<path d="M123.487 165.138L124.023 170.492C122.62 171.152 121.14 171.482 119.369 171.482C115.165 171.482 112.858 168.722 112.858 164.271V141H118.956V163.324C118.956 164.891 119.616 165.714 120.976 165.714C121.839 165.714 122.416 165.548 123.487 165.138Z" fill="#FF6600"/>
<path d="M143.753 149.979L143.219 155.293C140.539 154.139 137.985 153.562 135.514 153.562C133.207 153.562 132.26 154.016 132.26 155.126C132.26 155.91 132.754 156.282 134.28 156.61L139.098 157.72C143.135 158.67 144.783 161.06 144.783 164.478C144.783 169.052 141.365 171.48 135.681 171.48C131.601 171.48 129.13 171.192 126.906 170.449L127.483 164.971C129.953 166.044 132.467 166.495 135.681 166.495C138.192 166.495 139.058 166.084 139.098 164.848C139.098 163.901 138.562 163.488 136.668 162.994L131.85 161.76C128.183 160.811 126.576 158.874 126.576 155.376C126.576 151.175 129.996 148.659 135.721 148.659C138.562 148.659 141.322 149.112 143.753 149.979Z" fill="#FF6600"/>
<path d="M163.895 149.243L164.218 152.582L163.773 152.622C162.782 150.275 161.062 148.657 156.935 148.657C151.047 148.657 147.345 153.229 147.345 160.068C147.345 166.947 151.007 171.479 156.49 171.479C161.224 171.479 163.531 168.97 164.056 164.074L164.542 164.114L163.814 170.913H170.106V149.243H163.895ZM158.452 166.076C155.033 166.076 153.232 163.992 153.232 160.067C153.232 156.163 155.033 154.058 158.452 154.058C161.912 154.058 163.773 156.163 163.773 160.067C163.773 163.993 161.912 166.076 158.452 166.076Z" fill="#FF6600"/>
<path d="M189.306 170.487C187.991 171.074 186.554 171.479 183.965 171.479C179.635 171.479 176.863 169.01 176.863 164.317V154.808H173.586V149.244H176.863V144.712L182.973 143.801V149.244H188.112V154.808H182.973V162.658C182.973 165.005 183.621 165.713 185.725 165.713C186.716 165.713 187.586 165.551 188.739 165.106L189.306 170.487Z" fill="#FF6600"/>
<path d="M66.2952 187.785L65.8299 194.097L63.5639 193.895C58.6273 193.43 57.11 196.02 57.11 200.228V209.414H51V187.745H56.8265L56.2599 194.219L56.8265 194.26C57.474 189.526 59.4163 187.179 62.9973 187.179C64.1912 187.178 65.2637 187.381 66.2952 187.785Z" fill="#FF6600"/>
<path d="M84.045 198.584C84.045 194.713 82.1916 192.61 78.6906 192.61C75.1896 192.61 73.3362 194.713 73.3362 198.584C73.3362 202.495 75.1896 204.558 78.6906 204.558C82.1916 204.558 84.045 202.495 84.045 198.584ZM89.9359 198.584C89.9359 205.462 85.4453 209.993 78.6906 209.993C71.9359 209.993 67.4453 205.462 67.4453 198.584C67.4453 191.703 71.9359 187.172 78.6906 187.172C85.4453 187.172 89.9359 191.703 89.9359 198.584Z" fill="#FF6600"/>
<path d="M108.681 179.51V185.863L109.207 191.083L108.762 191.123C107.771 188.776 106.051 187.178 101.924 187.178C96.0362 187.178 92.3337 191.75 92.3337 198.589C92.3337 205.467 95.9956 209.999 101.479 209.999C106.213 209.999 108.52 207.491 109.045 202.574L109.531 202.615L108.803 209.413H115.095V179.51L108.681 179.51ZM103.441 204.598C100.022 204.598 98.2214 202.494 98.2214 198.589C98.2214 194.664 100.022 192.56 103.441 192.56C106.901 192.56 108.762 194.664 108.762 198.589C108.762 202.494 106.901 204.598 103.441 204.598Z" fill="#FF6600"/>
<path d="M137.431 204.072V209.413H119.586V204.274L129.52 193.106H119.89V187.745H137.188V192.621L126.931 204.072H137.431Z" fill="#FF6600"/>
<path d="M147.975 209.418H141.878V187.751H147.975V209.418ZM144.928 179.306C147.235 179.306 148.469 180.419 148.469 182.436C148.469 184.497 147.235 185.567 144.928 185.567C142.621 185.567 141.384 184.497 141.384 182.436C141.384 180.419 142.621 179.306 144.928 179.306Z" fill="#FF6600"/>
<path d="M157.861 194.052L158.314 194.093C158.851 189.358 161.115 187.008 165.729 187.008C170.713 187.008 173.597 190.181 173.597 195.742V209.416H167.499V196.483C167.499 193.846 166.223 192.446 163.835 192.446C160.415 192.446 158.931 193.846 158.931 196.976V209.416H152.836V187.749H158.478L157.861 194.052Z" fill="#FF6600"/>
<path d="M193.737 187.745L194.061 191.083L193.615 191.123C192.624 188.777 190.904 187.178 186.777 187.178C180.889 187.178 177.187 191.751 177.187 198.589C177.187 205.468 180.849 210 186.332 210C191.066 210 193.373 207.491 193.899 202.575L194.384 202.615L193.656 209.413H199.968V187.745H193.737ZM188.294 204.598C184.875 204.598 183.075 202.494 183.075 198.589C183.075 194.664 184.875 192.56 188.294 192.56C191.754 192.56 193.615 194.664 193.615 198.589C193.615 202.494 191.754 204.598 188.294 204.598Z" fill="#FF6600"/>
</svg>
