<svg width="250" height="250" viewBox="0 0 250 250" fill="none" xmlns="http://www.w3.org/2000/svg">
<rect width="250" height="250" fill="#00283D"/>
<path d="M83.1041 154.926C83.1041 161.561 79.551 165.998 73.9368 165.998C69.9911 165.998 67.871 164.153 67.1446 161.679L66.7126 161.718L67.2231 166.508V173.183H61V144.405H67.0268L66.4182 150.529L66.8695 150.569C67.3996 146.093 69.6376 143.855 74.2309 143.855C79.5506 143.855 83.1038 148.252 83.1041 154.926ZM77.3718 154.926C77.3718 151.118 75.6246 149.076 72.3071 149.076C68.9502 149.076 67.1442 151.118 67.1442 154.926C67.1442 158.715 68.9502 160.756 72.3071 160.756C75.6246 160.756 77.3718 158.715 77.3718 154.926Z" fill="#FF3EFF"/>
<path d="M101.681 154.918C101.681 151.162 99.8823 149.124 96.4853 149.124C93.0883 149.124 91.29 151.162 91.29 154.918C91.29 158.716 93.0883 160.715 96.4853 160.715C99.8823 160.715 101.681 158.716 101.681 154.918ZM107.397 154.918C107.397 161.592 103.039 165.988 96.4857 165.988C89.9321 165.988 85.5748 161.592 85.5748 154.918C85.5748 148.245 89.9321 143.848 96.4857 143.848C103.039 143.848 107.397 148.245 107.397 154.918Z" fill="#FF3EFF"/>
<path d="M120.985 159.834L121.505 165.029C120.147 165.67 118.707 165.99 116.99 165.99C112.911 165.99 110.673 163.311 110.673 158.996V136.414H116.589V158.075C116.589 159.595 117.229 160.394 118.546 160.394C119.387 160.394 119.947 160.232 120.985 159.834Z" fill="#FF3EFF"/>
<path d="M140.649 145.127L140.131 150.283C137.531 149.164 135.053 148.604 132.655 148.604C130.417 148.604 129.498 149.044 129.498 150.121C129.498 150.881 129.977 151.241 131.456 151.561L136.133 152.641C140.05 153.559 141.648 155.879 141.648 159.195C141.648 163.63 138.332 165.988 132.817 165.988C128.858 165.988 126.461 165.709 124.303 164.989L124.863 159.674C127.26 160.714 129.698 161.152 132.817 161.152C135.253 161.152 136.094 160.753 136.133 159.554C136.133 158.635 135.612 158.234 133.774 157.755L129.097 156.558C125.542 155.637 123.983 153.76 123.983 150.361C123.983 146.285 127.299 143.848 132.856 143.848C135.613 143.849 138.291 144.289 140.649 145.127Z" fill="#FF3EFF"/>
<path d="M166.219 144.404V165.429H160.114L160.821 158.833L160.349 158.794C159.839 163.544 157.601 165.978 153.008 165.978C147.688 165.978 144.135 161.601 144.135 154.926C144.135 148.291 147.727 143.855 153.439 143.855C157.444 143.855 159.113 145.406 160.074 147.683L160.506 147.643L160.192 144.404H166.219ZM160.074 154.926C160.074 151.118 158.268 149.076 154.912 149.076C151.594 149.076 149.847 151.118 149.847 154.926C149.847 158.715 151.594 160.756 154.912 160.756C158.268 160.756 160.074 158.715 160.074 154.926Z" fill="#FF3EFF"/>
<path d="M184.848 165.036C183.572 165.585 182.178 165.998 179.665 165.998C175.465 165.998 172.775 163.583 172.775 159.029V149.802H169.595V144.404H172.775V140.007L178.703 139.124V144.404H183.689V149.803H178.703V157.439C178.703 159.716 179.331 160.403 181.373 160.403C182.334 160.403 183.179 160.226 184.298 159.794L184.848 165.036Z" fill="#FF3EFF"/>
<path d="M86.2282 90.017C85.6638 87.6394 84.9689 83.2763 84.8689 81.8957C85.6263 84.068 87.9446 86.501 93.2231 87.4784C103.059 89.2942 112.3 81.3252 122.639 73.7278C130.968 67.6088 141.431 59.5261 150.773 59.4871C159.826 59.448 162.542 66.0204 163.537 68.9796C164.057 71.1424 164.747 75.6686 164.884 77.1885C163.476 73.2078 158.983 70.2702 153.856 70.2114C146.012 70.1235 135.571 77.9842 127.074 84.3743C118.018 91.1822 106.76 99.9436 97.2055 98.5828C90.1923 97.5835 87.4942 92.8566 86.2282 90.017Z" fill="#FF3EFF"/>
<path d="M137.897 42.158C121.495 40.1835 114.489 45.2862 101.044 56.4977C92.4151 63.6919 90.3184 59.1832 90.3184 59.1832C100.472 43.5218 119.229 35.9733 137.897 42.158Z" fill="#9BA5BC"/>
<path d="M116.689 54.1755C130.036 44.4007 140.458 42.0427 147.078 46.2971C153.055 50.1338 157.679 55.4659 159.968 59.8571C157.327 56.4484 153.862 53.0419 146.636 52.1988C137.516 51.1331 129.721 56.5874 118.526 64.8959C107.872 72.8012 100.9 79.299 93.3739 79.1695C87.5212 79.0691 85.5321 74.7144 85.3635 72.679C85.3953 71.2517 86.3238 68.0262 86.82 66.4793C90.229 72.7425 97.2616 67.9992 102.293 64.6343C106.55 61.79 112.554 57.2033 116.689 54.1755Z" fill="#BFC8D8"/>
<path d="M133.004 103.855C119.657 113.63 109.235 115.988 102.612 111.733C96.64 107.897 92.0142 102.565 89.7245 98.1735C92.3663 101.582 95.8312 104.989 103.057 105.832C112.177 106.898 119.972 101.443 131.167 93.1347C141.821 85.2294 148.793 78.7316 156.319 78.8612C162.172 78.9615 164.161 83.3162 164.329 85.3516C164.298 86.7789 163.369 90.0044 162.873 91.5513C159.464 85.2882 152.431 90.0314 147.4 93.3963C143.143 96.2406 137.139 100.827 133.004 103.855Z" fill="#9BA5BC"/>
<path d="M97.2204 98.5723C106.775 99.9332 90.2072 97.573 97.2204 98.5723ZM111.797 116.237C128.199 118.212 135.205 113.11 148.65 101.898C157.278 94.7039 159.375 99.2126 159.375 99.2126C149.221 114.874 130.464 122.422 111.797 116.237Z" fill="#6E7691"/>
<path d="M116.104 181.155H122.189V202.316H116.024L116.736 195.677L116.262 195.638C115.748 200.439 113.495 202.889 108.872 202.889C103.518 202.889 99.9414 198.463 99.9414 191.746C99.9414 185.067 103.557 180.602 109.307 180.602C113.338 180.602 115.017 182.163 115.985 184.455L116.42 184.416L116.104 181.156V181.155ZM115.985 191.746C115.985 187.913 114.187 185.858 110.788 185.858C107.45 185.858 105.691 187.913 105.691 191.746C105.691 195.559 107.45 197.614 110.788 197.614C114.187 197.614 115.985 195.559 115.985 191.746Z" fill="#FF3EFF"/>
<path d="M137.014 196.202L137.538 201.432C136.168 202.076 134.721 202.398 132.99 202.398C128.888 202.398 126.635 199.703 126.635 195.356V172.631H132.589V194.432C132.589 195.962 133.231 196.766 134.559 196.766C135.405 196.766 135.968 196.603 137.014 196.202Z" fill="#FF3EFF"/>
<path d="M143.348 178.984C145.603 178.984 146.816 177.929 146.816 175.924C146.816 173.946 145.603 172.851 143.348 172.851C141.092 172.851 139.879 173.946 139.879 175.924C139.879 177.929 141.092 178.984 143.348 178.984ZM140.367 181.12H146.329V202.303H140.367V181.12Z" fill="#FF3EFF"/>
<path d="M164.703 201.798C163.419 202.351 162.016 202.766 159.487 202.766C155.259 202.766 152.572 200.355 152.572 195.752V186.466H149.351V181.032H152.572V176.607L158.519 175.737V181.032H163.537V186.466H158.519V194.152C158.519 196.444 159.151 197.135 161.206 197.135C162.174 197.135 163.024 196.957 164.15 196.523L164.703 201.798Z" fill="#FF3EFF"/>
<path d="M97.3464 193.436H82.8379C83.2597 196.285 84.9219 197.67 88.6412 197.67C90.6593 197.67 92.9544 197.142 95.8957 195.849L96.344 201.178C93.8643 202.365 91.147 202.985 88.4036 202.985C81.0699 202.985 77.0736 198.593 77.0736 191.826H77.0869C77.0869 185.258 81.3868 180.668 87.5198 180.668C93.4816 180.668 97.465 184.981 97.465 191.418C97.465 192.103 97.4256 192.776 97.3464 193.436ZM91.8197 189.69C91.4373 187.026 89.8543 185.786 87.5198 185.786C84.9742 185.786 83.4177 187.118 82.9035 189.69H91.8197Z" fill="#FF3EFF"/>
<path d="M76.013 181.159L75.5647 187.318L73.3488 187.12C68.5214 186.672 67.0308 189.218 67.0308 193.32V202.302H61.0691V181.119H66.7405L66.1997 187.437L66.7405 187.49C67.3867 182.847 69.2861 180.552 72.7947 180.552C73.8896 180.539 74.9841 180.75 76.013 181.159Z" fill="#FF3EFF"/>
<path d="M172.17 181.054L177.236 195.064L182.115 181.054H188.134L179.456 203.777C177.636 208.529 175.418 210 172.332 210C170.627 209.991 168.938 209.68 167.342 209.081L167.894 203.862C168.928 204.219 170.013 204.406 171.107 204.415C172.263 204.415 173.335 204.236 174.236 202.018L165.794 181.054L172.17 181.054Z" fill="#FF3EFF"/>
</svg>
