<svg width="250" height="250" viewBox="0 0 250 250" fill="none" xmlns="http://www.w3.org/2000/svg">
<rect width="250" height="250" fill="#00283D"/>
<path d="M97.8621 97.9008C107.307 99.2464 118.414 90.5766 127.364 83.8493C135.763 77.5327 146.112 69.776 153.863 69.8605C158.933 69.9186 163.375 72.8268 164.767 76.7618C164.632 75.2594 163.914 70.7903 163.4 68.6526C162.417 65.7273 159.735 59.2367 150.785 59.2752C141.55 59.3137 131.226 67.3117 122.996 73.3581C112.776 80.868 103.616 88.7359 93.8932 86.9386C88.6754 85.9724 86.4168 83.5616 85.6681 81.4142C85.7697 82.779 86.4557 87.0884 87.0136 89.439C88.2647 92.2459 90.9265 96.9129 97.8621 97.9008Z" fill="#4A8FF5"/>
<path d="M138.071 42.1343C119.618 36.018 101.076 43.4823 91.0392 58.9639C91.0392 58.9639 93.1117 63.4205 101.644 56.3092C114.932 45.229 121.857 40.1852 138.071 42.1343Z" fill="#9CA6BD"/>
<path d="M117.106 54.3743C113.019 57.3674 107.084 61.9014 102.878 64.713C97.902 68.0394 90.9501 72.7277 87.5802 66.5366C87.0899 68.0682 86.1744 71.2542 86.1405 72.665C86.3074 74.6772 88.2736 78.9816 94.059 79.0807C101.502 79.2087 108.391 72.7858 118.923 64.9711C129.989 56.7581 137.697 51.3663 146.709 52.4195C153.852 53.2527 157.277 56.6226 159.891 59.99C157.625 55.6493 153.055 50.3783 147.149 46.5859C140.603 42.3832 130.3 44.712 117.106 54.3743Z" fill="#BFC7D9"/>
<path d="M112.271 115.364C130.721 121.48 149.266 114.016 159.303 98.534C159.303 98.534 157.23 94.0774 148.698 101.189C135.407 112.271 128.484 117.315 112.271 115.364Z" fill="#6E7591"/>
<path d="M133.235 103.124C137.322 100.131 143.258 95.5966 147.463 92.785C152.439 89.4586 159.391 84.7702 162.761 90.9613C163.251 89.4297 164.167 86.2438 164.2 84.833C164.034 82.8207 162.067 78.5185 156.282 78.4172C148.842 78.2892 141.95 84.7121 131.418 92.5269C120.352 100.74 112.644 106.132 103.632 105.078C96.4887 104.245 93.0635 100.878 90.4498 97.5079C92.7156 101.849 97.2859 107.12 103.192 110.912C109.738 115.117 120.041 112.788 133.235 103.124Z" fill="#9CA6BD"/>
<path d="M77.0775 144.22C72.5353 144.22 70.3213 146.434 69.8079 150.855L69.3729 150.816L69.9647 144.773H64V173.22H70.1644V166.621L69.6617 161.872L70.086 161.84C70.7954 164.289 72.8883 166.108 76.803 166.108C82.3327 166.108 85.8481 161.722 85.8481 155.162C85.8481 148.566 82.3327 144.22 77.0775 144.22ZM75.1808 160.931C71.8615 160.931 70.086 158.916 70.086 155.162C70.086 151.412 71.8615 149.394 75.1808 149.394C78.4608 149.394 80.1971 151.412 80.1971 155.162C80.1971 158.916 78.4608 160.931 75.1808 160.931Z" fill="#4A8FF5"/>
<path d="M104.219 155.163C104.219 151.45 102.441 149.434 99.0832 149.434C95.7254 149.434 93.9478 151.45 93.9478 155.163C93.9478 158.917 95.7254 160.893 99.0832 160.893C102.441 160.893 104.219 158.917 104.219 155.163ZM109.869 155.163C109.869 161.763 105.562 166.108 99.0832 166.108C92.6022 166.108 88.2975 161.763 88.2975 155.163C88.2975 148.566 92.6022 144.221 99.0832 144.221C105.562 144.221 109.869 148.566 109.869 155.163Z" fill="#4A8FF5"/>
<path d="M123.301 160.022L123.815 165.158C122.472 165.791 121.05 166.107 119.351 166.107C115.322 166.107 113.107 163.46 113.107 159.194V136.871H118.955V158.283C118.955 159.785 119.588 160.575 120.892 160.575C121.721 160.575 122.274 160.419 123.301 160.022Z" fill="#4A8FF5"/>
<path d="M142.739 145.485L142.224 150.582C139.657 149.475 137.207 148.922 134.837 148.922C132.625 148.922 131.716 149.357 131.716 150.422C131.716 151.173 132.19 151.528 133.654 151.845L138.275 152.913C142.147 153.821 143.727 156.113 143.727 159.391C143.727 163.775 140.449 166.106 134.997 166.106C131.084 166.106 128.714 165.831 126.581 165.118L127.134 159.865C129.504 160.893 131.915 161.326 134.997 161.326C137.405 161.326 138.237 160.932 138.275 159.746C138.275 158.838 137.761 158.442 135.944 157.968L131.321 156.784C127.806 155.874 126.265 154.016 126.265 150.659C126.265 146.629 129.545 144.221 135.036 144.221C137.76 144.221 140.407 144.654 142.739 145.485Z" fill="#4A8FF5"/>
<path d="M162.056 144.773L162.374 147.978L161.939 148.01C160.994 145.761 159.332 144.22 155.382 144.22C149.731 144.22 146.176 148.606 146.176 155.166C146.176 161.762 149.695 166.108 154.947 166.108C159.493 166.108 161.703 163.698 162.217 158.999L162.666 159.038L161.981 165.555H168.024V144.773H162.056ZM156.844 160.931C153.564 160.931 151.824 158.917 151.824 155.166C151.824 151.412 153.564 149.397 156.844 149.397C160.163 149.397 161.939 151.412 161.939 155.166C161.939 158.917 160.163 160.931 156.844 160.931Z" fill="#4A8FF5"/>
<path d="M186.436 165.159C185.17 165.712 183.787 166.108 181.298 166.108C177.152 166.108 174.503 163.737 174.503 159.234V150.107H171.344V144.773H174.503V140.427L180.35 139.557V144.773H185.291V150.107H180.35V157.654C180.35 159.904 180.984 160.574 182.999 160.574C183.944 160.574 184.774 160.417 185.883 159.983L186.436 165.159Z" fill="#4A8FF5"/>
<path d="M96.1981 180.569C91.6559 180.569 89.4419 182.779 88.932 187.204L88.4935 187.164L89.0889 181.121H83.1206V209.565H89.285V202.966L88.7859 198.22L89.2066 198.188C89.9196 200.638 92.0124 202.456 95.92 202.456C101.453 202.456 104.969 198.067 104.969 191.51C104.969 184.915 101.453 180.569 96.1981 180.569ZM94.3014 197.279C90.9856 197.279 89.2066 195.265 89.2066 191.51C89.2066 187.76 90.9856 185.742 94.3014 185.742C97.5814 185.742 99.3213 187.76 99.3213 191.51C99.3213 195.265 97.5814 197.279 94.3014 197.279Z" fill="#4A8FF5"/>
<path d="M118.56 196.369L119.075 201.505C117.729 202.137 116.309 202.454 114.611 202.454C110.582 202.454 108.366 199.806 108.366 195.538V173.218H114.215V194.63C114.215 196.132 114.847 196.922 116.152 196.922C116.981 196.923 117.534 196.766 118.56 196.369Z" fill="#4A8FF5"/>
<path d="M136.379 181.118L136.693 184.326L136.261 184.358C135.313 182.105 133.652 180.569 129.701 180.569C124.054 180.569 120.496 184.954 120.496 191.51C120.496 198.106 124.015 202.452 129.266 202.452C133.812 202.452 136.022 200.042 136.536 195.343L136.985 195.382L136.301 201.9H142.344V181.118H136.379ZM131.163 197.279C127.883 197.279 126.147 195.261 126.147 191.51C126.147 187.756 127.883 185.742 131.163 185.742C134.482 185.742 136.261 187.756 136.261 191.51C136.261 195.261 134.482 197.279 131.163 197.279Z" fill="#4A8FF5"/>
<path d="M167.312 181.121L158.662 203.796C156.844 208.538 154.63 210 151.549 210C150.088 210 148.43 209.761 146.572 209.091L147.125 203.875C148.387 204.271 149.26 204.427 150.323 204.427C151.478 204.427 152.548 204.253 153.453 202.046L145.028 181.121H151.392L156.441 195.094L161.308 181.121H167.312Z" fill="#4A8FF5"/>
</svg>
