<svg width="250" height="250" viewBox="0 0 250 250" fill="none" xmlns="http://www.w3.org/2000/svg">
<rect width="250" height="250" fill="#7CA52A"/>
<path d="M174.095 40H174.095H141.677V72.5919L149.648 93.0966L141.677 83.2086V83.3604L106.731 40H76V138.234H108.556V92.902L145.046 138.234H174.095V40Z" fill="white"/>
<path d="M174.229 142.051H76V161.185H174.229V142.051Z" fill="#939598"/>
<path d="M133.701 150.868C133.12 150.568 132.452 150.477 130.717 150.477H128.449C127.725 150.477 127.434 150.191 127.434 149.501V149.354C127.433 149.322 127.435 149.29 127.439 149.258C127.47 148.638 127.777 148.374 128.449 148.374H130.921C131.184 148.352 131.446 148.421 131.663 148.569C131.677 148.58 131.69 148.591 131.702 148.604C131.835 148.753 131.909 148.946 131.91 149.146C132.2 149.129 134.547 148.937 134.859 148.911C134.803 148.643 134.732 148.378 134.646 148.118C134.082 146.431 132.912 145.802 130.557 145.802H128.761C125.856 145.802 124.438 146.768 124.438 148.76V150.116C124.438 151.167 124.858 151.952 125.626 152.325C126.207 152.628 126.874 152.715 128.61 152.715H130.878C131.597 152.715 131.896 152.997 131.896 153.681V153.843C131.896 154.536 131.589 154.835 130.878 154.835H128.406C128.037 154.835 127.781 154.757 127.621 154.588C127.491 154.43 127.419 154.233 127.417 154.029C127.139 154.046 124.771 154.142 124.463 154.154C124.819 156.536 126.004 157.424 128.761 157.424H130.557C133.476 157.424 134.89 156.453 134.89 154.446V153.079C134.89 152.025 134.468 151.24 133.701 150.868Z" fill="white"/>
<path d="M158.768 145.902H147.258V148.647H151.395V157.385H154.622V148.647H158.768V145.902Z" fill="white"/>
<path d="M115.678 153.994L117.156 150.048L118.639 153.994H115.678ZM118.292 145.902H115.998L111.033 157.433H114.381L114.867 156.136H119.446L119.932 157.433H123.254L118.292 145.902Z" fill="white"/>
<path d="M140.575 153.994L142.054 150.034L143.537 153.994H140.575ZM143.19 145.902H140.901L135.935 157.433H139.279L139.764 156.136H144.344L144.834 157.433H148.152L143.19 145.902Z" fill="white"/>
<path d="M97.584 153.296L94.8132 145.902H91.4652L96.4219 157.433H98.7208L103.686 145.902H100.36L97.584 153.296Z" fill="white"/>
<path d="M109.003 145.902H105.777V157.385H109.003V145.902Z" fill="white"/>
<path d="M76 182.57V202.807C76.001 203.754 76.1886 204.69 76.5519 205.564C76.9152 206.438 77.4472 207.231 78.1174 207.899C78.7875 208.567 79.5828 209.097 80.4577 209.457C81.3326 209.818 82.27 210.002 83.2162 210H167.02C168.931 210.002 170.764 209.246 172.116 207.897C173.469 206.548 174.23 204.718 174.234 202.807V186.049H83.2162C81.8296 186.047 80.4614 185.732 79.2124 185.13C77.9635 184.528 76.8657 183.653 76 182.57Z" fill="white"/>
<path d="M99.1791 196.807C99.1895 197.183 99.1172 197.557 98.9671 197.902C98.817 198.247 98.5929 198.555 98.3107 198.804C97.7172 199.309 96.9582 199.577 96.1792 199.557H91.0878V197.677H96.1792C96.8839 197.677 97.2386 197.386 97.2386 196.807V195.597C97.2386 194.975 96.8839 194.667 96.1792 194.667H89.2845V203.091H87.3458V192.831H96.1659C96.9498 192.816 97.7112 193.093 98.3016 193.609C98.5844 193.856 98.8095 194.162 98.9611 194.506C99.1127 194.849 99.1872 195.222 99.1791 195.597L99.1791 196.807Z" fill="#7CA52A"/>
<path d="M111.636 200.343V195.58C111.634 195.453 111.603 195.327 111.545 195.214C111.487 195.1 111.405 195.001 111.303 194.923C111.102 194.747 110.846 194.647 110.579 194.641H104.836C104.566 194.643 104.307 194.744 104.106 194.923C104.006 195.001 103.923 195.101 103.865 195.214C103.808 195.328 103.776 195.453 103.772 195.58V200.343C103.772 200.958 104.122 201.263 104.836 201.263H110.579C111.282 201.263 111.636 200.958 111.636 200.343ZM113.573 200.322C113.584 200.7 113.51 201.075 113.356 201.42C113.202 201.766 112.971 202.071 112.682 202.315C112.101 202.831 111.346 203.108 110.568 203.091H104.844C104.063 203.108 103.305 202.831 102.719 202.315C102.432 202.07 102.203 201.764 102.051 201.419C101.898 201.074 101.825 200.699 101.838 200.322V195.58C101.835 195.206 101.916 194.835 102.075 194.496C102.235 194.158 102.468 193.859 102.758 193.622C103.326 193.098 104.071 192.807 104.844 192.808H110.568C111.34 192.808 112.084 193.099 112.651 193.622C112.94 193.86 113.172 194.159 113.332 194.498C113.491 194.836 113.574 195.206 113.573 195.58L113.573 200.322Z" fill="#7CA52A"/>
<path d="M125.251 203.091H119.54C118.761 203.109 118.004 202.831 117.42 202.315C117.138 202.066 116.914 201.759 116.763 201.415C116.612 201.071 116.538 200.698 116.547 200.322V192.808H118.481V200.343C118.481 200.958 118.831 201.263 119.54 201.263H125.251V203.091Z" fill="#7CA52A"/>
<path d="M139.296 194.636H130.713C130.445 194.643 130.189 194.745 129.989 194.923C129.89 195.003 129.81 195.102 129.753 195.216C129.697 195.329 129.665 195.454 129.661 195.58V196.093C129.661 196.712 130.01 197.015 130.713 197.015L136.455 197.028C137.226 197.008 137.977 197.275 138.563 197.776C138.853 198.024 139.084 198.334 139.239 198.682C139.394 199.031 139.47 199.41 139.46 199.791V200.331C139.463 200.705 139.382 201.076 139.224 201.415C139.066 201.754 138.834 202.054 138.546 202.293C137.976 202.809 137.233 203.094 136.464 203.091H127.881V201.263H136.468C136.734 201.258 136.99 201.161 137.192 200.988C137.293 200.911 137.376 200.811 137.433 200.697C137.49 200.584 137.52 200.458 137.521 200.331V199.791C137.521 199.171 137.176 198.874 136.468 198.874L130.731 198.847C129.953 198.865 129.195 198.594 128.605 198.086C128.319 197.841 128.091 197.534 127.938 197.19C127.785 196.845 127.712 196.47 127.723 196.093V195.58C127.723 195.206 127.805 194.836 127.963 194.497C128.122 194.158 128.353 193.857 128.64 193.617C129.213 193.098 129.958 192.809 130.731 192.808H139.296V194.636Z" fill="#7CA52A"/>
<path d="M154.023 203.121H151.957L151.018 199.531H146.308L146.753 197.646H150.511C150.428 197.334 150.173 196.219 149.995 195.597C149.826 194.975 149.472 194.663 148.949 194.663H146.57C146.035 194.663 145.679 194.975 145.508 195.597L143.583 203.121H141.514L143.442 195.605C143.926 193.761 144.931 192.83 146.451 192.83H149.067C150.596 192.83 151.603 193.761 152.076 195.605L154.023 203.121Z" fill="#7CA52A"/>
<path d="M164.74 194.636H160.447V203.092H158.508V194.636H154.279V192.808H164.74V194.636Z" fill="#7CA52A"/>
<path d="M76 165.001H79.1746L86.508 174.638V165.001H89.9036V180.649H86.9764L79.3957 170.704V180.649H76V165.001Z" fill="white"/>
<path d="M103.765 174.126L101.687 169.052L99.6051 174.126H103.765ZM100.139 164.888H103.317L110.022 180.649H106.423L104.996 177.139H98.3777L96.9467 180.649H93.4386L100.139 164.888Z" fill="white"/>
<path d="M115.188 168.18H110.425V165.001H123.389V168.18H118.626V180.648H115.188V168.18Z" fill="white"/>
<path d="M133.675 180.896C131.572 180.896 129.919 180.314 128.71 179.14C127.509 177.973 126.901 176.242 126.901 173.944V165.001H130.345V173.857C130.345 175.136 130.64 176.103 131.238 176.745C131.832 177.395 132.659 177.721 133.719 177.721C134.776 177.721 135.603 177.409 136.199 176.784C136.797 176.155 137.092 175.219 137.092 173.965V165.001H140.54V173.831C140.561 174.884 140.398 175.933 140.059 176.931C139.772 177.761 139.302 178.516 138.684 179.14C138.074 179.738 137.335 180.189 136.525 180.458C135.606 180.763 134.643 180.911 133.675 180.896Z" fill="white"/>
<path d="M152.094 172.625C152.948 172.625 153.594 172.421 154.05 172.017C154.277 171.816 154.456 171.566 154.575 171.286C154.694 171.006 154.748 170.704 154.735 170.4V170.357C154.735 169.612 154.496 169.048 154.015 168.674C153.542 168.297 152.88 168.109 152.029 168.11H148.607V172.625H152.094ZM145.164 165.001H152.319C154.301 165.001 155.822 165.53 156.882 166.589C157.771 167.486 158.221 168.678 158.221 170.166V170.21C158.221 171.48 157.91 172.508 157.293 173.31C156.664 174.109 155.825 174.716 154.869 175.062L158.69 180.649H154.665L151.313 175.643H148.607V180.649H145.164L145.164 165.001Z" fill="white"/>
<path d="M162.338 165.001H174.116V168.062H165.733V171.242H173.11V174.304H165.733V177.587H174.229V180.649H162.338V165.001Z" fill="white"/>
<path d="M77.7575 122.223H81.8021V127.681H86.9927V122.223H91.0387V136.812H86.9927V131.268H81.8021V136.812H77.7575V122.223Z" fill="#7CA52A"/>
<path d="M98.3129 133.228C100.728 133.228 102.336 131.896 102.336 129.539V129.494C102.336 127.164 100.728 125.804 98.3129 125.804H96.6649V133.228H98.3129ZM92.6208 122.223H98.2519C103.462 122.223 106.486 125.221 106.486 129.429V129.477C106.486 133.687 103.423 136.812 98.1655 136.812H92.6208V122.223Z" fill="#7CA52A"/>
</svg>
