<svg width="250" height="250" viewBox="0 0 250 250" fill="none" xmlns="http://www.w3.org/2000/svg">
<rect width="250" height="250" fill="#00283D"/>
<path d="M96.281 100.312C106.117 101.713 117.689 92.685 127.014 85.675C135.763 79.0947 146.54 71.0128 154.616 71.1033C159.898 71.1635 164.523 74.1934 165.972 78.2919C165.831 76.727 165.084 72.0721 164.548 69.8449C163.524 66.7977 160.731 60.0368 151.409 60.077C141.789 60.1171 131.037 68.4457 122.462 74.7462C111.816 82.5692 102.275 90.762 92.147 88.8898C86.7117 87.886 84.3595 85.3747 83.5815 83.1377C83.6846 84.5594 84.3992 89.0483 84.9808 91.4966C86.284 94.421 89.0593 99.2822 96.281 100.312Z" fill="#8F36E5"/>
<path d="M138.165 42.222C118.944 35.8538 99.6295 43.6264 89.1746 59.7527C89.1746 59.7527 91.3336 64.3951 100.218 56.9873C114.062 45.4431 121.277 40.1893 138.165 42.222Z" fill="#9CA6BD"/>
<path d="M116.328 54.9718C112.07 58.0894 105.888 62.8125 101.505 65.7412C96.3239 69.2059 89.0798 74.0898 85.5722 67.641C85.0615 69.2338 84.1053 72.5552 84.0726 74.0245C84.2462 76.1206 86.2943 80.6044 92.3209 80.7075C100.071 80.8409 107.249 74.1504 118.22 66.0103C129.747 57.4551 137.773 51.8392 147.164 52.9363C154.604 53.8043 158.172 57.3119 160.892 60.8222C158.534 56.3006 153.774 50.8103 147.622 46.8596C140.803 42.4789 130.071 44.9072 116.328 54.9718Z" fill="#BFC7D9"/>
<path d="M111.29 118.501C130.511 124.87 149.825 117.097 160.28 100.971C160.28 100.971 158.122 96.3283 149.237 103.736C135.393 115.28 128.179 120.534 111.29 118.501Z" fill="#6E7591"/>
<path d="M133.127 105.751C137.384 102.634 143.567 97.9105 147.95 94.9817C153.131 91.5171 160.373 86.6331 163.883 93.082C164.393 91.4891 165.35 88.1677 165.382 86.6984C165.209 84.6023 163.161 80.1185 157.134 80.0154C149.384 79.882 142.205 86.5725 131.235 94.7126C119.708 103.268 111.682 108.884 102.291 107.787C94.8507 106.919 91.2829 103.411 88.5627 99.9007C90.9205 104.422 95.6813 109.913 101.833 113.863C108.652 118.244 119.384 115.816 133.127 105.751Z" fill="#9CA6BD"/>
<path d="M74.6238 148.554C69.894 148.554 67.5898 150.859 67.0641 155.467L66.5993 155.427L67.2258 149.14H61V178.773H67.4276V171.9L66.9023 166.948L67.347 166.908C68.095 169.455 70.2781 171.355 74.3404 171.355C80.1011 171.355 83.7598 166.787 83.7598 159.955C83.7598 153.082 80.1015 148.554 74.6238 148.554ZM72.663 165.958C69.2066 165.958 67.347 163.876 67.347 159.955C67.347 156.054 69.2066 153.952 72.663 153.952C76.0789 153.952 77.8779 156.054 77.8779 159.955C77.8779 163.876 76.0789 165.958 72.663 165.958Z" fill="#9CA6BD"/>
<path d="M102.902 159.958C102.902 156.091 101.05 153.992 97.5528 153.992C94.055 153.992 92.2037 156.091 92.2037 159.958C92.2037 163.868 94.0554 165.927 97.5531 165.927C101.051 165.927 102.902 163.868 102.902 159.958ZM108.788 159.958C108.788 166.83 104.301 171.357 97.5528 171.357C90.8044 171.357 86.3179 166.83 86.3179 159.958C86.3179 153.086 90.8044 148.56 97.5528 148.56C104.301 148.56 108.788 153.087 108.788 159.958Z" fill="#9CA6BD"/>
<path d="M122.78 165.02L123.316 170.369C121.917 171.028 120.435 171.358 118.666 171.358C114.466 171.358 112.162 168.6 112.162 164.157V140.905H118.253V163.208C118.253 164.773 118.912 165.596 120.269 165.596C121.134 165.596 121.711 165.43 122.78 165.02Z" fill="#9CA6BD"/>
<path d="M143.027 149.876L142.491 155.185C139.817 154.033 137.265 153.457 134.796 153.457C132.492 153.457 131.545 153.91 131.545 155.019C131.545 155.802 132.039 156.172 133.561 156.501L138.377 157.613C142.41 158.559 144.056 160.947 144.056 164.362C144.056 168.928 140.639 171.357 134.96 171.357C130.886 171.357 128.418 171.07 126.196 170.328L126.772 164.855C129.24 165.927 131.752 166.377 134.96 166.377C137.471 166.377 138.334 165.967 138.377 164.732C138.377 163.786 137.841 163.373 135.949 162.88L131.133 161.647C127.472 160.699 125.866 158.766 125.866 155.266C125.866 151.069 129.281 148.56 135.003 148.56C137.841 148.56 140.599 149.013 143.027 149.876Z" fill="#9CA6BD"/>
<path d="M163.157 149.141L163.481 152.476L163.036 152.516C162.046 150.172 160.307 148.555 156.204 148.555C150.322 148.555 146.603 153.123 146.603 159.955C146.603 166.828 150.281 171.355 155.739 171.355C160.469 171.355 162.773 168.849 163.319 163.957L163.784 163.998L163.076 170.789H169.362V149.141H163.157V149.141ZM157.719 165.958C154.304 165.958 152.485 163.876 152.485 159.955C152.485 156.054 154.304 153.952 157.719 153.952C161.176 153.952 163.036 156.054 163.036 159.955C163.036 163.876 161.176 165.958 157.719 165.958Z" fill="#9CA6BD"/>
<path d="M188.545 170.365C187.231 170.951 185.796 171.355 183.188 171.355C178.883 171.355 176.114 168.889 176.114 164.2V154.7H172.819V149.141H176.114V144.613L182.198 143.703V149.141H187.352V154.699H182.198V162.542C182.198 164.887 182.865 165.594 184.967 165.594C185.957 165.594 186.806 165.432 187.959 164.988L188.545 170.365Z" fill="#9CA6BD"/>
<path d="M93.2602 179.38V185.726L93.7855 190.941L93.3409 190.982C92.3504 188.637 90.612 187.04 86.5087 187.04C80.6268 187.04 76.9076 191.608 76.9076 198.44C76.9076 205.313 80.5863 209.841 86.044 209.841C90.7942 209.841 93.0985 207.334 93.6238 202.423L94.1089 202.463L93.3814 209.255H99.6678V179.38H93.2602V179.38ZM88.0248 204.444C84.609 204.444 82.8099 202.342 82.8099 198.44C82.8099 194.519 84.609 192.417 88.0248 192.417C91.4812 192.417 93.3409 194.519 93.3409 198.44C93.3409 202.342 91.4812 204.444 88.0248 204.444Z" fill="#9CA6BD"/>
<path d="M119.878 198.436C119.878 194.569 118.026 192.47 114.529 192.47C111.031 192.47 109.179 194.569 109.179 198.436C109.179 202.346 111.031 204.404 114.529 204.404C118.026 204.404 119.878 202.346 119.878 198.436ZM125.764 198.436C125.764 205.308 121.277 209.834 114.529 209.834C107.781 209.834 103.294 205.308 103.294 198.436C103.294 191.564 107.781 187.038 114.529 187.038C121.277 187.038 125.764 191.564 125.764 198.436Z" fill="#9CA6BD"/>
<path d="M149.917 209.254H142.762L137.628 201.008L135.485 203.271V209.254H129.381V179.38H135.485V195.267L142.095 187.606H149.756L141.63 196.621L149.917 209.254Z" fill="#9CA6BD"/>
<path d="M167.617 202.962L167.164 202.922C166.631 207.655 164.407 210 159.84 210C154.943 210 152.062 206.83 152.062 201.274V187.613H158.151V200.534C158.151 203.168 159.427 204.568 161.732 204.568C165.106 204.568 166.548 203.169 166.548 200.041V187.613H172.637V209.258H167.001L167.617 202.962Z" fill="#9CA6BD"/>
</svg>
