<svg width="250" height="250" viewBox="0 0 250 250" fill="none" xmlns="http://www.w3.org/2000/svg">
<rect width="250" height="250" fill="#002C6B"/>
<path d="M85.1415 101.116H40V117.04H85.1415V101.116Z" fill="#01E6FC"/>
<path d="M61.7611 111.518H63.4929C63.6306 112.307 64.2257 112.686 65.2659 112.686C66.1595 112.686 66.76 112.403 66.76 111.783C66.76 111.29 66.4365 110.87 64.8566 110.778C62.9443 110.669 62.0256 109.685 62.0256 108.519C62.0256 107.227 63.241 106.272 65.0335 106.272C67.0227 106.272 68.1075 107.45 68.2469 108.71H66.5545C66.5241 108.045 65.9343 107.636 65.0049 107.636C64.2829 107.636 63.6288 107.936 63.6288 108.508C63.6288 109.239 64.4223 109.407 65.4392 109.474C66.76 109.559 68.4149 110.065 68.4149 111.656C68.4149 112.611 67.7537 114.132 65.2927 114.132C62.8317 114.132 61.9059 112.546 61.7611 111.518ZM48.6787 106.455L46.5662 112.26L44.4537 106.455H42.7577L45.4832 113.947H47.6475L50.3748 106.455C50.3748 106.455 48.6787 106.455 48.6787 106.455ZM51.2219 106.455H52.9073V113.947H51.2219C51.2219 113.947 51.2219 106.455 51.2219 106.455ZM59.1196 113.093C58.6496 113.687 57.7435 114.13 56.6247 114.13C55.0734 114.13 54.1905 113.086 54.1655 111.922C54.1458 111.054 54.6891 110.203 55.6006 109.858C56.1118 109.665 56.8106 109.508 57.8007 109.397C58.7175 109.295 59.1536 109.034 59.0803 108.58C58.991 108.024 58.4476 107.65 57.5862 107.65C56.6104 107.65 56.0832 108.04 56.0295 108.709L54.337 108.703C54.4604 107.81 55.0841 106.76 56.3763 106.424C56.7712 106.321 57.05 106.272 57.5308 106.272C58.0902 106.272 58.5602 106.36 58.7961 106.433C59.8917 106.775 60.7871 107.709 60.7871 109.12V113.955H59.1214V113.093C59.1214 113.093 59.1196 113.093 59.1196 113.093ZM59.1339 110.809V110.289C58.8837 110.473 58.1402 110.618 57.1001 110.753C56.1332 110.879 55.6989 111.257 55.6989 111.81C55.6989 112.362 56.0796 112.748 56.8213 112.748C57.4629 112.748 58.1027 112.555 58.5531 112.133C58.932 111.779 59.1321 111.275 59.1321 110.811L59.1339 110.809ZM74.277 113.093C73.807 113.687 72.9009 114.13 71.7821 114.13C70.2308 114.13 69.3479 113.086 69.3229 111.922C69.3032 111.054 69.8465 110.203 70.758 109.858C71.2691 109.665 71.9679 109.508 72.958 109.397C73.8749 109.295 74.311 109.034 74.2377 108.58C74.1483 108.024 73.605 107.65 72.7436 107.65C71.7678 107.65 71.2405 108.04 71.1869 108.709L69.4944 108.703C69.6177 107.81 70.2415 106.76 71.5336 106.424C71.9286 106.321 72.2074 106.272 72.6882 106.272C73.2476 106.272 73.7176 106.36 73.9535 106.433C75.0491 106.775 75.9445 107.709 75.9445 109.12V113.955H74.2788V113.093L74.277 113.093ZM74.2913 110.809V110.289C74.0411 110.473 73.2976 110.618 72.2575 110.753C71.2906 110.879 70.8563 111.257 70.8563 111.81C70.8563 112.362 71.237 112.748 71.9787 112.748C72.6203 112.748 73.2601 112.555 73.7105 112.133C74.0894 111.779 74.2895 111.275 74.2895 110.811L74.2913 110.809ZM78.9595 107.298V104.208H77.1795V105.706C77.1795 107.568 78.6897 109.079 80.5519 109.079H82.0496V107.298L78.9595 107.298ZM78.9595 112.167V109.077H77.1795V110.575C77.1795 112.437 78.6897 113.947 80.5519 113.947H82.0496V112.167H78.9595Z" fill="#002C6B"/>
<path d="M210 117.038H85.1397V148.884H210V117.038Z" fill="#01E6FC"/>
<path d="M103.543 123.219H107.718V142.707H103.543V134.549H95.5252V142.705H91.3235V123.219H95.5252V130.958H103.543V123.219ZM111.145 142.705H115.376V123.219H111.146L111.145 142.705ZM129.691 132.043C128.848 131.709 127.767 131.402 126.449 131.125C125.542 130.919 124.832 130.735 124.321 130.567C123.812 130.399 123.384 130.152 123.041 129.829C122.698 129.505 122.527 129.073 122.527 128.535C122.527 127.939 122.768 127.471 123.25 127.128C123.733 126.785 124.382 126.613 125.198 126.613C126.126 126.613 126.869 126.84 127.425 127.296C127.983 127.75 128.299 128.358 128.372 129.119H132.353C132.315 127.895 131.995 126.822 131.393 125.903C130.789 124.985 129.954 124.272 128.887 123.76C127.818 123.251 126.589 122.995 125.198 122.995C123.899 122.995 122.739 123.231 121.719 123.705C120.698 124.179 119.901 124.833 119.326 125.668C118.75 126.502 118.462 127.459 118.462 128.535C118.462 129.927 118.763 131.023 119.367 131.82C119.969 132.619 120.693 133.194 121.538 133.546C122.382 133.9 123.463 134.235 124.78 134.549C125.651 134.773 126.333 134.966 126.825 135.134C127.316 135.3 127.729 135.538 128.063 135.843C128.397 136.151 128.564 136.553 128.564 137.055C128.564 137.777 128.28 138.335 127.715 138.725C127.148 139.114 126.394 139.309 125.447 139.309C124.426 139.309 123.606 139.016 122.984 138.431C122.362 137.847 122.005 137.062 121.912 136.079H117.903C117.958 137.454 118.307 138.66 118.947 139.699C119.587 140.739 120.464 141.536 121.577 142.094C122.691 142.65 123.981 142.929 125.447 142.929C126.912 142.929 128.199 142.687 129.302 142.205C130.406 141.722 131.261 141.034 131.863 140.144C132.465 139.252 132.767 138.204 132.767 136.998C132.767 135.606 132.465 134.517 131.863 133.727C131.261 132.939 130.535 132.377 129.691 132.043ZM149.204 123.219H133.479V126.838H139.239V142.705H143.442V126.838H149.204L149.204 123.219ZM167.759 127.854C168.622 129.366 169.053 131.069 169.053 132.962C169.053 134.855 168.622 136.556 167.759 138.07C166.896 139.583 165.709 140.769 164.197 141.633C162.685 142.496 160.982 142.927 159.089 142.927C157.197 142.927 155.517 142.494 153.996 141.633C152.475 140.769 151.281 139.583 150.42 138.07C149.556 136.558 149.126 134.855 149.126 132.962C149.126 131.069 149.558 129.366 150.42 127.854C151.283 126.341 152.475 125.155 153.996 124.291C155.517 123.428 157.215 122.997 159.089 122.997C160.964 122.997 162.683 123.43 164.197 124.291C165.709 125.155 166.898 126.341 167.759 127.854ZM164.825 132.989C164.825 131.8 164.583 130.692 164.101 129.718C163.618 128.744 162.935 127.982 162.054 127.435C161.173 126.888 160.185 126.615 159.089 126.615C157.994 126.615 157.011 126.888 156.139 127.435C155.266 127.984 154.586 128.74 154.094 129.705C153.603 130.671 153.356 131.755 153.356 132.962C153.356 134.168 153.603 135.253 154.094 136.219C154.586 137.184 155.268 137.94 156.139 138.487C157.011 139.034 157.996 139.307 159.089 139.307C160.183 139.307 161.171 139.034 162.054 138.487C162.935 137.94 163.618 137.184 164.101 136.219C164.583 135.253 164.825 134.177 164.825 132.989ZM186.175 137.332L186.704 142.705H182.5L181.971 137.89C181.916 137.221 181.664 136.683 181.219 136.274C180.774 135.867 180.225 135.663 179.576 135.663H175.823V142.705H171.593V123.219H179.83C181.185 123.219 182.357 123.48 183.351 123.998C184.344 124.518 185.099 125.242 185.621 126.17C186.139 127.097 186.4 128.165 186.4 129.371C186.4 130.578 186.08 131.5 185.44 132.252C185.037 132.725 184.542 133.117 183.955 133.429C184.127 133.546 184.292 133.672 184.45 133.811C185.451 134.692 186.026 135.867 186.175 137.332ZM175.819 132.043H179.578C180.189 132.043 180.704 131.923 181.122 131.682L181.124 131.68C181.54 131.439 181.851 131.116 182.055 130.706C182.259 130.299 182.361 129.854 182.361 129.371C182.361 128.592 182.128 127.952 181.665 127.45C181.201 126.949 180.506 126.699 179.578 126.699H175.819C175.819 126.699 175.819 132.043 175.819 132.043ZM200.101 123.219L195.843 130.735L191.585 123.219H187.102L193.727 134.66V142.705H197.931V134.66L204.583 123.219L200.101 123.219Z" fill="#002C6B"/>
<path d="M210 101.117H85.1415V117.041H210V101.117Z" fill="#002C6B"/>
<path d="M95.4528 105.652C94.017 105.652 93.3176 106.352 93.1581 107.753L93.017 107.741L93.2072 105.824H91.3235V114.833H93.2686V112.744L93.1091 111.244L93.2441 111.232C93.4711 112.006 94.1338 112.584 95.367 112.584C97.1157 112.584 98.2263 111.195 98.2263 109.118C98.2262 107.028 97.1156 105.652 95.4528 105.652ZM94.8577 110.943C93.8084 110.943 93.244 110.304 93.244 109.118C93.244 107.926 93.8084 107.286 94.8577 107.286C95.8946 107.286 96.4407 107.926 96.4407 109.118C96.4407 110.304 95.8946 110.943 94.8577 110.943ZM104.037 109.115C104.037 107.94 103.475 107.302 102.413 107.302C101.352 107.302 100.79 107.94 100.79 109.115C100.79 110.304 101.352 110.929 102.413 110.929C103.475 110.929 104.037 110.304 104.037 109.115ZM105.824 109.115C105.824 111.205 104.462 112.581 102.413 112.581C100.365 112.581 99.0031 111.205 99.0031 109.115C99.0031 107.026 100.365 105.65 102.413 105.65C104.462 105.65 105.824 107.026 105.824 109.115ZM110.071 110.654L110.234 112.281C109.808 112.481 109.359 112.582 108.822 112.582C107.548 112.582 106.848 111.743 106.848 110.391V103.323H108.697V110.104C108.697 110.579 108.896 110.83 109.309 110.83C109.572 110.83 109.747 110.779 110.071 110.654ZM116.217 106.05L116.055 107.664C115.243 107.314 114.468 107.139 113.719 107.139C113.019 107.139 112.732 107.276 112.732 107.614C112.732 107.852 112.882 107.964 113.344 108.064L114.806 108.402C116.03 108.69 116.53 109.415 116.53 110.454C116.53 111.843 115.493 112.581 113.769 112.581C112.532 112.581 111.783 112.494 111.108 112.268L111.283 110.604C112.032 110.929 112.795 111.067 113.769 111.067C114.531 111.067 114.793 110.942 114.806 110.567C114.806 110.279 114.643 110.153 114.069 110.004L112.607 109.629C111.495 109.34 111.008 108.753 111.008 107.689C111.008 106.413 112.045 105.65 113.781 105.65C114.643 105.65 115.48 105.788 116.217 106.05ZM122.327 105.824L122.426 106.838L122.291 106.85C121.99 106.137 121.462 105.652 120.217 105.652C118.431 105.652 117.302 107.041 117.302 109.118C117.302 111.207 118.413 112.584 120.076 112.584C121.511 112.584 122.217 111.816 122.377 110.329L122.524 110.341L122.303 112.406H124.211V105.824L122.327 105.824ZM120.677 110.943C119.64 110.943 119.094 110.304 119.094 109.118C119.094 107.926 119.64 107.286 120.677 107.286C121.726 107.286 122.291 107.926 122.291 109.118C122.291 110.304 121.726 110.943 120.677 110.943ZM130.034 112.283C129.635 112.455 129.199 112.584 128.408 112.584C127.101 112.584 126.26 111.828 126.26 110.402V107.514H125.26V105.824H126.26V104.447L128.107 104.171V105.824H129.672V107.514H128.107V109.904C128.107 110.617 128.31 110.832 128.948 110.832C129.249 110.832 129.506 110.777 129.856 110.642L130.034 112.283Z" fill="#01E6FC"/>
</svg>
