<svg width="250" height="250" viewBox="0 0 250 250" fill="none" xmlns="http://www.w3.org/2000/svg">
<rect width="250" height="250" fill="#FF043C"/>
<path d="M66.8838 83.5097H70.4544C71.1369 83.5294 71.8142 83.3858 72.4301 83.091C73.0459 82.7961 73.5824 82.3585 73.995 81.8144C74.9507 80.4734 75.4214 78.8469 75.3298 77.2027C75.42 75.5212 74.9506 73.8572 73.995 72.4708C73.5916 71.9128 73.0585 71.4614 72.4416 71.1556C71.8248 70.8498 71.1427 70.6987 70.4544 70.7155H66.8838C66.8435 70.71 66.8025 70.7138 66.7639 70.7268C66.7254 70.7398 66.6903 70.7615 66.6616 70.7903C66.6328 70.819 66.6111 70.8541 66.5981 70.8926C66.5852 70.9312 66.5813 70.9722 66.5868 71.0125V83.2127C66.5805 83.2531 66.5839 83.2944 66.5966 83.3333C66.6093 83.3722 66.631 83.4075 66.66 83.4365C66.6889 83.4654 66.7243 83.4871 66.7631 83.4998C66.802 83.5125 66.8434 83.5159 66.8838 83.5097Z" fill="white"/>
<path d="M95.7318 70.7789H92.1145C92.0742 70.7734 92.0332 70.7773 91.9946 70.7902C91.9561 70.8032 91.921 70.8249 91.8923 70.8537C91.8635 70.8825 91.8418 70.9175 91.8288 70.956C91.8158 70.9946 91.812 71.0356 91.8175 71.0759V82.9157C91.812 82.956 91.8158 82.997 91.8288 83.0356C91.8418 83.0741 91.8635 83.1091 91.8923 83.1379C91.921 83.1667 91.9561 83.1884 91.9946 83.2014C92.0332 83.2143 92.0742 83.2182 92.1145 83.2127H95.7452C96.4157 83.2283 97.0805 83.0854 97.6854 82.7954C98.2902 82.5055 98.818 82.0768 99.2257 81.5442C100.179 80.2363 100.651 78.6386 100.56 77.0225C100.646 75.3976 100.176 73.792 99.2257 72.4708C98.8223 71.9317 98.296 71.4966 97.6907 71.2018C97.0853 70.9069 96.4183 70.7608 95.7452 70.7756" fill="white"/>
<path d="M121.73 74.7633C121.689 74.6454 121.631 74.5865 121.553 74.5865C121.475 74.5865 121.416 74.6454 121.376 74.7633L117.985 93.5641C117.945 93.7643 118.045 93.8611 118.282 93.8611H124.886C125.123 93.8611 125.22 93.761 125.183 93.5641L121.73 74.7633Z" fill="white"/>
<path d="M162.976 39.9984H40V162.974C40.0049 172.276 42.7667 181.368 47.9366 189.101C53.1064 196.834 60.4523 202.86 69.0461 206.42C77.6398 209.98 87.0959 210.912 96.2194 209.1C105.343 207.288 113.725 202.812 120.305 196.238C124.688 191.88 128.163 186.697 130.528 180.987C132.893 175.277 134.102 169.155 134.084 162.974V134.082H162.976C172.277 134.077 181.368 131.315 189.1 126.145C196.832 120.975 202.859 113.63 206.418 105.037C209.978 96.444 210.91 86.9887 209.099 77.8657C207.287 68.7427 202.812 60.3613 196.239 53.7803C191.882 49.3971 186.699 45.9219 180.989 43.5562C175.279 41.1905 169.156 39.9812 162.976 39.9984ZM59.6884 65.4799C59.688 65.386 59.7062 65.293 59.7419 65.2061C59.7776 65.1193 59.8302 65.0404 59.8966 64.974C59.963 64.9076 60.0419 64.855 60.1288 64.8193C60.2156 64.7835 60.3087 64.7654 60.4026 64.7658H71.5816C73.5472 64.7285 75.4808 65.2667 77.1444 66.3142C78.7773 67.3783 80.0763 68.8821 80.8919 70.6523C81.8103 72.646 82.2666 74.8213 82.2267 77.016C82.3756 80.1409 81.3695 83.2114 79.4002 85.6422C78.4822 86.7141 77.3342 87.5651 76.0418 88.1319C74.7493 88.6987 73.3457 88.9667 71.9353 88.9159H66.8797C66.8394 88.9103 66.7984 88.9142 66.7598 88.9272C66.7213 88.9401 66.6863 88.9619 66.6575 88.9906C66.6287 89.0194 66.607 89.0544 66.594 89.093C66.5811 89.1315 66.5772 89.1726 66.5827 89.2128V105.751C66.5832 105.845 66.565 105.938 66.5293 106.025C66.4935 106.112 66.441 106.191 66.3746 106.257C66.3082 106.323 66.2293 106.376 66.1424 106.412C66.0556 106.448 65.9625 106.466 65.8686 106.465H60.3959C60.302 106.466 60.2089 106.448 60.1221 106.412C60.0352 106.376 59.9563 106.323 59.8899 106.257C59.8235 106.191 59.771 106.112 59.7352 106.025C59.6995 105.938 59.6813 105.845 59.6818 105.751L59.6884 65.4799ZM106.146 118.562L97.5803 158.796C97.5749 158.892 97.5504 158.985 97.5082 159.07C97.466 159.156 97.407 159.232 97.3348 159.294C97.2626 159.357 97.1785 159.404 97.0877 159.433C96.9969 159.462 96.9011 159.473 96.8062 159.464H90.7228C90.6278 159.473 90.532 159.462 90.4412 159.433C90.3504 159.404 90.2663 159.357 90.1941 159.294C90.1219 159.232 90.0629 159.156 90.0207 159.07C89.9785 158.985 89.954 158.892 89.9486 158.796L82.537 123.758H75.0921C75.0518 123.752 75.0108 123.756 74.9723 123.769C74.9337 123.782 74.8987 123.804 74.8699 123.832C74.8412 123.861 74.8194 123.896 74.8065 123.935C74.7935 123.973 74.7896 124.014 74.7951 124.055V158.72C74.7956 158.814 74.7774 158.907 74.7417 158.994C74.706 159.08 74.6534 159.159 74.587 159.226C74.5206 159.292 74.4417 159.345 74.3548 159.38C74.268 159.416 74.1749 159.434 74.081 159.434H68.605C68.5111 159.434 68.418 159.416 68.3312 159.38C68.2443 159.345 68.1654 159.292 68.099 159.226C68.0326 159.159 67.98 159.08 67.9443 158.994C67.9086 158.907 67.8904 158.814 67.8908 158.72V124.038C67.8964 123.998 67.8925 123.957 67.8795 123.918C67.8666 123.88 67.8448 123.845 67.8161 123.816C67.7873 123.787 67.7523 123.765 67.7137 123.752C67.6752 123.739 67.6341 123.736 67.5938 123.741H60.456C60.3621 123.741 60.269 123.723 60.1821 123.688C60.0953 123.652 60.0164 123.599 59.95 123.533C59.8836 123.466 59.831 123.388 59.7953 123.301C59.7596 123.214 59.7414 123.121 59.7418 123.027V118.502C59.7414 118.408 59.7596 118.315 59.7953 118.228C59.831 118.141 59.8836 118.062 59.95 117.996C60.0164 117.93 60.0953 117.877 60.1821 117.841C60.269 117.806 60.3621 117.787 60.456 117.788H88.0531C88.1493 117.772 88.2477 117.778 88.3414 117.804C88.4352 117.831 88.522 117.877 88.5958 117.941C88.6695 118.005 88.7285 118.084 88.7685 118.172C88.8085 118.261 88.8286 118.358 88.8273 118.455L93.7661 147.074C93.8062 147.191 93.8651 147.25 93.943 147.25C94.0209 147.25 94.0798 147.191 94.1198 147.074L98.9385 118.455C98.9373 118.358 98.9573 118.261 98.9973 118.172C99.0373 118.084 99.0963 118.005 99.1701 117.941C99.2439 117.877 99.3307 117.831 99.4244 117.804C99.5181 117.778 99.6165 117.772 99.7127 117.788H105.542C106.056 117.788 106.257 118.048 106.136 118.562M107.088 106.472H101.401C101.222 106.483 101.045 106.429 100.903 106.32C100.761 106.21 100.663 106.054 100.627 105.878L95.5715 88.8057C95.4914 88.6456 95.3946 88.5688 95.2745 88.5688H92.121C92.0807 88.5633 92.0396 88.5672 92.0011 88.5801C91.9625 88.5931 91.9275 88.6148 91.8987 88.6436C91.87 88.6723 91.8483 88.7074 91.8353 88.7459C91.8223 88.7845 91.8184 88.8255 91.824 88.8658V105.761C91.8244 105.855 91.8062 105.948 91.7705 106.035C91.7348 106.122 91.6822 106.201 91.6158 106.267C91.5494 106.333 91.4705 106.386 91.3837 106.422C91.2968 106.458 91.2038 106.476 91.1099 106.475H85.6371C85.5432 106.476 85.4502 106.458 85.3633 106.422C85.2765 106.386 85.1976 106.333 85.1312 106.267C85.0648 106.201 85.0122 106.122 84.9765 106.035C84.9407 105.948 84.9226 105.855 84.923 105.761V65.54C84.9226 65.4461 84.9407 65.353 84.9765 65.2662C85.0122 65.1794 85.0648 65.1005 85.1312 65.0341C85.1976 64.9677 85.2765 64.9151 85.3633 64.8793C85.4502 64.8436 85.5432 64.8254 85.6371 64.8259H96.8228C98.773 64.7705 100.696 65.2911 102.352 66.3226C104.008 67.3541 105.323 68.8508 106.133 70.6256C107.055 72.6099 107.512 74.7785 107.468 76.966C107.526 79.1738 107.035 81.3615 106.04 83.333C105.149 85.0578 103.755 86.4708 102.042 87.3842C101.884 87.4264 101.825 87.5455 101.865 87.7412L107.695 105.648C107.737 105.741 107.758 105.842 107.755 105.945C107.755 106.301 107.532 106.479 107.088 106.479M134.394 105.945C134.394 106.301 134.172 106.479 133.727 106.479H128.218C128.121 106.494 128.023 106.489 127.929 106.462C127.836 106.436 127.749 106.389 127.675 106.325C127.601 106.262 127.542 106.183 127.502 106.094C127.462 106.005 127.442 105.909 127.443 105.811L126.312 99.5643C126.312 99.3663 126.193 99.2673 125.955 99.2673H117.279C117.041 99.2673 116.922 99.3663 116.922 99.5643L115.79 105.811C115.792 105.909 115.772 106.005 115.732 106.094C115.692 106.183 115.633 106.262 115.559 106.325C115.485 106.389 115.398 106.436 115.305 106.462C115.211 106.489 115.112 106.494 115.016 106.479H109.597C109.04 106.479 108.823 106.222 108.93 105.704L117.753 65.4799C117.759 65.3849 117.783 65.2919 117.826 65.2066C117.868 65.1213 117.927 65.0453 117.999 64.9831C118.071 64.9209 118.155 64.8738 118.246 64.8445C118.336 64.8152 118.432 64.8043 118.527 64.8125H124.834C124.929 64.8043 125.024 64.8152 125.115 64.8445C125.206 64.8738 125.289 64.9209 125.362 64.9831C125.434 65.0453 125.493 65.1213 125.535 65.2066C125.577 65.2919 125.602 65.3849 125.608 65.4799L134.404 105.698L134.394 105.945ZM159.202 105.768C159.202 105.862 159.184 105.955 159.148 106.042C159.113 106.128 159.06 106.207 158.994 106.274C158.927 106.34 158.848 106.393 158.761 106.428C158.675 106.464 158.582 106.482 158.488 106.482H153.025C152.931 106.482 152.838 106.464 152.751 106.428C152.664 106.393 152.585 106.34 152.519 106.274C152.453 106.207 152.4 106.128 152.364 106.042C152.329 105.955 152.31 105.862 152.311 105.768V88.9225C152.316 88.8822 152.313 88.8412 152.3 88.8026C152.287 88.7641 152.265 88.7291 152.236 88.7003C152.207 88.6715 152.172 88.6498 152.134 88.6369C152.095 88.6239 152.054 88.62 152.014 88.6255H144.449C144.409 88.62 144.368 88.6239 144.329 88.6369C144.29 88.6498 144.255 88.6715 144.227 88.7003C144.198 88.7291 144.176 88.7641 144.163 88.8026C144.15 88.8412 144.146 88.8822 144.152 88.9225V105.758C144.153 105.946 144.079 106.126 143.947 106.26C143.815 106.394 143.636 106.47 143.448 106.472H137.975C137.881 106.472 137.788 106.454 137.701 106.418C137.614 106.383 137.535 106.33 137.469 106.264C137.403 106.197 137.35 106.118 137.314 106.032C137.279 105.945 137.26 105.852 137.261 105.758V65.54C137.26 65.4461 137.279 65.353 137.314 65.2662C137.35 65.1794 137.403 65.1005 137.469 65.0341C137.535 64.9677 137.614 64.9151 137.701 64.8793C137.788 64.8436 137.881 64.8254 137.975 64.8259H143.448C143.542 64.8254 143.635 64.8436 143.722 64.8793C143.808 64.9151 143.887 64.9677 143.954 65.0341C144.02 65.1005 144.073 65.1794 144.108 65.2662C144.144 65.353 144.162 65.4461 144.162 65.54V82.3186C144.156 82.3589 144.16 82.3999 144.173 82.4384C144.186 82.477 144.208 82.512 144.237 82.5408C144.265 82.5695 144.3 82.5913 144.339 82.6042C144.378 82.6172 144.419 82.6211 144.459 82.6156H152.014C152.054 82.6211 152.095 82.6172 152.134 82.6042C152.172 82.5913 152.207 82.5695 152.236 82.5408C152.265 82.512 152.287 82.477 152.3 82.4384C152.313 82.3999 152.316 82.3589 152.311 82.3186V65.54C152.31 65.4461 152.329 65.353 152.364 65.2662C152.4 65.1794 152.453 65.1005 152.519 65.0341C152.585 64.9677 152.664 64.9151 152.751 64.8793C152.838 64.8436 152.931 64.8254 153.025 64.8259H158.498C158.592 64.8254 158.685 64.8436 158.772 64.8793C158.858 64.9151 158.937 64.9677 159.004 65.0341C159.07 65.1005 159.123 65.1794 159.158 65.2662C159.194 65.353 159.212 65.4461 159.212 65.54L159.202 105.768ZM187.52 105.945C187.52 106.301 187.297 106.479 186.852 106.479H181.343C181.247 106.494 181.148 106.489 181.055 106.462C180.961 106.436 180.874 106.389 180.8 106.325C180.727 106.262 180.668 106.183 180.628 106.094C180.588 106.005 180.568 105.909 180.569 105.811L179.438 99.5643C179.438 99.3663 179.319 99.2673 179.08 99.2673H170.404C170.166 99.2673 170.047 99.3663 170.047 99.5643L168.916 105.811C168.917 105.909 168.897 106.005 168.857 106.094C168.817 106.183 168.758 106.262 168.684 106.325C168.611 106.389 168.524 106.436 168.43 106.462C168.336 106.489 168.238 106.494 168.142 106.479H162.722C162.165 106.479 161.948 106.222 162.055 105.704L170.875 65.4799C170.881 65.3849 170.905 65.2919 170.948 65.2066C170.99 65.1213 171.049 65.0453 171.121 64.9831C171.193 64.9209 171.277 64.8738 171.368 64.8445C171.458 64.8152 171.554 64.8043 171.649 64.8125H177.956C178.051 64.8043 178.146 64.8152 178.237 64.8445C178.328 64.8738 178.411 64.9209 178.484 64.9831C178.556 65.0453 178.615 65.1213 178.657 65.2066C178.699 65.2919 178.724 65.3849 178.73 65.4799L187.53 105.698L187.52 105.945Z" fill="white"/>
<path d="M174.858 74.7633C174.818 74.6454 174.759 74.5865 174.681 74.5865C174.604 74.5865 174.545 74.6454 174.505 74.7633L171.101 93.5641C171.061 93.7643 171.161 93.8611 171.398 93.8611H178.002C178.239 93.8611 178.336 93.761 178.299 93.5641L174.858 74.7633Z" fill="white"/>
</svg>
