<?xml version="1.0" encoding="utf-8"?>
<!-- Generator: Adobe Illustrator 28.0.0, SVG Export Plug-In . SVG Version: 6.00 Build 0)  -->
<svg version="1.1" id="Vrstva_1" xmlns="http://www.w3.org/2000/svg" xmlns:xlink="http://www.w3.org/1999/xlink" x="0px" y="0px"
	 viewBox="0 0 1024 1024" style="enable-background:new 0 0 1024 1024;" xml:space="preserve">
<style type="text/css">
	.st0{fill:#03451C;}
	.st1{fill:#FDFEFD;}
	.st2{fill:#A40E33;}
</style>
<rect y="0" class="st0" width="1024" height="1024"/>
<g>
	<path class="st0" d="M501.8,579.3c-74.4,0-148.7,0-223.1,0c-33.4,0-66.6-0.1-100-0.2c-28.7-0.1-57.4-0.5-86.2-0.3
		c-15.9,0.1-27.2-14-24.4-29c4.8-26,8.9-52.1,13.4-78.2c2.6-15.3,15.8-26.3,31.3-26.3c51.8-0.1,103.6-0.1,155.4-0.2
		c54-0.1,108.1-0.1,162-0.2c67.9-0.1,135.8-0.2,203.6-0.2c51.5,0,103.1,0.1,154.6,0.2c47.4,0.1,94.8,0.5,142.2,0.1
		c13.7-0.1,28.7,10.1,25.2,29.9c-4.8,26-8.9,52.1-13.4,78.2c-2.5,14.4-15.7,25.6-30.4,25.6c-35.2,0.1-70.5,0.1-105.7,0.2
		c-39,0.1-78.1,0.2-117,0.3C626.8,579.3,564.3,579.2,501.8,579.3C501.8,579.2,501.8,579.2,501.8,579.3z M502.9,573
		c35.9,0,71.8,0,107.6,0c27.7,0,55.2-0.1,82.9-0.2c46.5-0.2,93-0.4,139.5-0.6c26.3-0.1,52.5-0.3,78.9,0.1c11.8,0.1,21.4-9,23.2-19.4
		c4.6-26.2,9.5-52.3,14.3-78.4c2.4-13.1-5.4-22.5-18.7-22.5c-53.2-0.1-106.4-0.2-159.7-0.3c-29.2-0.1-58.4-0.2-87.6-0.2
		c-122,0.1-244,0.1-366,0.2c-33.9,0-67.8,0.2-101.7,0.2c-34.7,0.1-69.3,0.1-104,0.1c-11,0-20.1,7.3-22.1,18.1
		c-5,26.5-9.9,53.1-14.7,79.7c-2.3,13,5.6,22.3,18.9,22.3c34.6,0.1,69.1,0.3,103.6,0.5c18.3,0.1,36.4,0.1,54.7,0.1
		c43.6,0.1,87.2,0.3,130.8,0.3C422.9,573,462.9,573,502.9,573z"/>
	<path class="st1" d="M502.9,573c-40,0-80.1,0.1-120.1,0c-43.6-0.1-87.2-0.2-130.8-0.3c-18.3-0.1-36.4-0.1-54.7-0.1
		c-34.6-0.1-69.1-0.3-103.6-0.5c-13.3-0.1-21.2-9.3-18.9-22.3c4.8-26.6,9.7-53.1,14.7-79.7c2-10.8,11.1-18.1,22.1-18.1
		c34.7-0.1,69.3-0.1,104-0.1c33.9-0.1,67.8-0.2,101.7-0.2c122-0.1,244-0.2,366-0.2c29.2,0,58.4,0.1,87.6,0.2
		c53.2,0.1,106.4,0.2,159.7,0.3c13.4,0,21.1,9.4,18.7,22.5c-4.8,26.1-9.7,52.2-14.3,78.4c-1.8,10.4-11.4,19.5-23.2,19.4
		c-26.3-0.3-52.5-0.1-78.9-0.1c-46.5,0.1-93,0.4-139.5,0.6c-27.7,0.1-55.2,0.2-82.9,0.2C574.7,573,538.8,573,502.9,573z
		 M502.9,568.7c1.2,0.1,2.4,0.3,3.6,0.3c17.3-0.1,34.6-0.2,52-0.2c19.6-0.1,39.1-0.1,58.7-0.1c45.4-0.2,90.8-0.4,136.2-0.5
		c20.9-0.1,41.7-0.1,62.6-0.1c0.9,0,1.9,0.5,2.5-0.5c0.6-1-0.6-1.5-1.1-2.1c-2.3-3.1-3.7-6.5-3.9-10.4c-0.2-5.5,1.5-10.7,2.3-16.1
		c2.5-15.1,5.4-30.1,8.5-45.1c2.2-10.9,2.7-22.1,7.6-32.4c1.8-1.2,3-3,4.9-5c-24.3,0-47.9,0-71.5,0c-115.6,0.1-231.3,0.1-346.9,0.1
		c-55.5,0-110.9,0.1-166.4,0.1c-46.5,0-93,0-139.6,0c-10.1,0-17,5.8-18.9,15.8c-4.8,26.2-9.4,52.5-14.6,78.7
		c-1.4,7.1,4.3,16.6,13.4,16.4c11.1-0.3,22.3,0.3,33.5,0.3c30.7,0.3,61.5,0.5,92.2,0.7c43.7,0.2,87.4,0.4,131.1,0.5
		c48.3,0.1,96.6,0,145,0C497.2,568.9,500,568.8,502.9,568.7z M902.6,513.3c3.6-2.1,5.9-5,6.8-8.7c0.9-3.9,1.7-7.9,2.2-11.8
		c1.1-8.9-2.5-12.8-11.4-12.8c-7,0-14.1,0-21.1,0c-7.5,0.1-12.5,3.8-14.4,11.1c-0.6,2.3-0.9,4.8-1.5,7.2c-0.5,2-0.1,3.2,2.3,3.1
		c2.3-0.1,4.7,0.1,7,0.1c4.8,0,4.9,0,5.5-4.8c0.4-2.8,1.7-3.9,4.4-3.7c2.2,0.1,4.5,0,6.7,0c7.7,0,7.7,0,6.4,7.6
		c-1.3,7.5-0.5,6.2-7.7,6.4c-3.4,0.1-7.9-1.5-10,0.7c-2,2.1-1.4,6.5-2.3,9.9c-0.5,2,0.3,2.3,1.9,2.2c4.2,0,8.3,0.1,12.4,0.1
		c2.1,0,2.8,0.7,2.3,2.8c-0.7,3.4-1.2,6.8-1.7,10.2c-0.3,2-1.3,2.9-3.4,2.8c-3.4-0.1-6.7,0-10.1,0c-6.2,0-6.2,0-5.8-6
		c0.1-1.8,0-2.8-2.1-2.6c-3.4,0.1-6.7,0.1-10.1,0.1c-1.1,0-1.9,0.1-2.1,1.5c-0.4,3.2-1.3,6.3-1.3,9.6c-0.1,6.9,3.2,10.4,10.1,10.4
		c8.2,0.1,16.3,0.1,24.5,0c7.1-0.1,12.1-3.8,13.9-10.7c1.1-4.1,1.5-8.3,2.3-12.5C907.7,520.7,906.9,516.5,902.6,513.3z"/>
	<path class="st0" d="M502.9,568.7c-2.9,0.1-5.8,0.2-8.7,0.2c-48.3,0-96.6,0.1-145,0c-43.7-0.1-87.4-0.3-131.1-0.5
		c-30.7-0.1-61.5-0.4-92.2-0.7c-11.1-0.1-22.3-0.6-33.5-0.3c-9.1,0.2-14.8-9.3-13.4-16.4c5.2-26.2,9.7-52.4,14.6-78.7
		c1.8-10,8.8-15.8,18.9-15.8c46.5,0,93,0,139.6,0c55.5,0,110.9-0.1,166.4-0.1c115.6-0.1,231.3-0.1,346.9-0.1c23.6,0,47.2,0,71.5,0
		c-1.9,2.1-3.1,3.8-4.9,5c-5.2-0.5-10.5-0.6-15.8-1.1c-15.2-1.4-30.7,1.3-45.8-2.3c-80.9,0-161.8,0-242.7-0.1
		c-3.4,0-4.6,1.3-5.2,4.4c-1.5,7.3-2.8,14.7-4.1,22c-3.6,19.5-7.3,39-10.9,58.5C505.8,551.4,503.8,560,502.9,568.7z M337.2,504.2
		L337.2,504.2c0.7,1,0.1,2.1-0.1,3.2c-2.1,11.7-4.2,23.5-6.4,35.2c-1.1,6-1.1,6,4.8,6c1.7,0,3.4-0.1,5,0.1c1.9,0.2,2.8-0.4,3.1-2.4
		c3.8-22,7.6-44,11.5-66c0.3-1.6-0.1-2.1-1.8-2.1c-3.8,0.1-7.6,0.1-11.4,0c-1.9-0.1-3,0.5-4,2.2c-6.4,10.9-13,21.9-19.5,32.8
		c-1.2,1.9-2.4,4-3.8,6.2c-3.3-13.3-6.5-26-9.5-38.9c-0.5-1.9-1.2-2.6-3.1-2.4c-3.5,0.1-6.9,0.1-10.4,0c-1.8-0.1-2.4,0.5-2.8,2.3
		c-1.7,10.9-3.7,21.7-5.6,32.5c-1.9,10.8-3.7,21.5-5.7,32.3c-0.5,2.6,0.1,3.6,2.8,3.3c2.6-0.3,5.2-0.1,7.7,0
		c1.7,0.1,2.4-0.5,2.7-2.1c0.6-4,1.3-7.9,2.1-11.9c1.9-10.3,3.8-20.6,5.6-31.1c1,0.7,0.9,1.6,1.1,2.3c2.1,8.5,4.2,17.1,6.4,25.6
		c1.5,5.9,1.5,5.8,7.7,6c2.8,0.1,4.2-0.9,5.4-3.2c3.4-6.2,7-12.2,10.7-18.2C332.3,512.1,334.2,507.9,337.2,504.2z M221.9,548.5
		c-2.1-8.2-4.1-16-6.2-23.9c-0.5-1.8-0.3-2.7,1.7-3.4c3.8-1.3,6.6-3.9,8-7.9c2.4-7.2,3.5-14.6,4.4-22.1c0.9-8-3.9-13-11.9-13.1
		c-10.6-0.1-21.2,0-31.9-0.1c-2,0-2.9,0.3-3.2,2.6c-2.5,14.8-5.1,29.5-7.7,44.3c-1.3,7.8-2.6,15.5-4,23.6c4.2,0,8.1-0.1,11.9,0.1
		c1.8,0.1,2.2-0.7,2.5-2.3c0.8-5.3,1.8-10.5,2.8-15.8c1.4-8.1,1.4-8.1,9.8-8c1.9,0,2.7,0.5,3.2,2.4c1.6,7.2,3.5,14.3,5.2,21.4
		c0.3,1.1,0.3,2.4,2.1,2.3C212.9,548.5,217.2,548.5,221.9,548.5z M467.3,548.6c1.5,0,3.2-0.1,4.7,0c2.3,0.2,3.2-0.2,2.4-2.9
		c-2-6.8-3.6-13.6-5.4-20.4c-0.6-2.1-0.5-3.4,1.9-4.2c3.4-1.1,5.6-3.5,7.2-6.6c1.1-2,1-4.2,1.6-6.3c1.5-5.8,2.7-11.7,3.2-17.7
		c0.6-7.5-4.1-12.3-11.7-12.3c-10.6-0.1-21.3,0-31.9-0.1c-2.4-0.1-3.2,0.6-3.6,3c-1.5,9.8-3.4,19.6-5.1,29.3c-2,11.7-4,23.3-6.1,35
		c-0.5,2.5,0.1,3.4,2.8,3.2c2.9-0.3,5.8-0.1,8.7,0c1.7,0.1,2.3-0.5,2.6-2.2c0.8-5.4,1.8-10.8,2.9-16.2c1.5-8.1,1.5-8,9.9-7.9
		c1.8,0.1,2.5,0.6,2.9,2.3c1.3,5.6,2.8,11.3,4.2,16.9C460.1,548.6,460.1,548.5,467.3,548.6z M284,478.1c-14.6,0-29.1,0.1-43.5-0.1
		c-2.1,0-2,1.2-2.2,2.5c-4,22.5-7.9,45-11.8,67.7c0.7,0.1,1.2,0.2,1.7,0.2c13.8,0.1,27.5,0.1,41.3,0.1c1.9,0,2.5-0.6,2.7-2.4
		c0.3-2.9,0.8-5.8,1.5-8.6c0.5-2.1,0-2.6-2.1-2.6c-8.5,0.1-17,0-25.5,0.1c-2.5,0.1-3.4-0.4-2.8-3.1c0.8-3.2,1.3-6.6,1.7-9.9
		c0.3-2.2,1.1-3,3.4-3c6,0.1,12.1-0.1,18.1,0.1c3.2,0.1,5.1-0.3,5-4.1c0-2.3,0.5-4.6,1.1-6.9c0.5-2.1-0.2-2.5-2.1-2.4
		c-6.6,0.1-13.2-0.1-19.8,0.1c-2.4,0.1-2.9-0.7-2.4-2.9c0.6-3,1.1-5.9,1.5-8.9c0.3-2.2,1.3-2.8,3.5-2.8c8.6,0.1,17.2,0,25.8,0.1
		c1.7,0,2.6-0.3,2.8-2.3C282.6,485.6,283.3,482.1,284,478.1z M373.7,548.1c0.5,0.1,0.8,0.3,1.1,0.3c14.1,0.1,28.2,0.1,42.2,0.2
		c1.7,0,2-0.7,2.2-2.1c0.5-3,1-6,1.7-8.9c0.5-2.1-0.1-2.6-2.3-2.6c-8.6,0.1-17.2,0-25.8,0.1c-2.3,0.1-3-0.7-2.6-2.8
		c0.6-3.4,1.5-6.6,1.9-10c0.3-2.2,1.1-3.2,3.6-3.2c6.6,0.2,13.2,0,19.8,0.1c1.9,0,2.8-0.5,3-2.6c0.2-2.6,0.5-5.2,1.3-7.6
		c1-3.2-0.4-3.4-3-3.4c-6.2,0.1-12.6-0.1-18.8,0.1c-2.4,0.1-2.8-0.9-2.4-3c0.6-3,1.3-5.9,1.5-8.9c0.2-2.3,1.3-2.8,3.4-2.8
		c8.6,0.1,17.2,0,25.8,0.1c1.7,0,2.6-0.2,2.8-2.2c0.3-3,0.9-6,1.5-8.9c0.5-1.9-0.3-2.2-1.9-2.2c-13.6,0-27.2,0-40.9-0.1
		c-1.7,0-2.3,0.5-2.6,2.2c-0.6,4.3-1.5,8.6-2.2,12.8C380,511.4,376.8,529.8,373.7,548.1z M149.3,478.1L149.3,478.1
		c-5.7-0.1-11.4,0-17.1-0.1c-1.7,0-2.2,0.5-2.5,2.1c-0.8,5.5-1.9,10.9-2.9,16.4c-2.9,16.6-5.6,33.2-8.6,49.7
		c-0.3,1.7-0.1,2.1,1.6,2.1c3.2-0.1,6.2-0.1,9.4,0.1c2.1,0.1,2.9-0.7,3.2-2.7c1-6.5,2.3-13,3.3-19.5c0.3-2.1,1.1-2.8,3.2-2.7
		c6.6,0.1,13.2,0.2,19.8,0c7.7-0.2,13.2-5.1,14.6-12.6c1.1-6,2.2-12.1,3.2-18.1c1.5-8.9-3.5-14.8-12.6-14.8
		C159.1,478.1,154.2,478.1,149.3,478.1z M351.3,548.5c3.9,0,7.6-0.2,11.3,0.1c2.6,0.2,3.2-0.9,3.5-3.2c1.3-9,2.6-18,4.4-26.8
		c2.6-12.7,4.1-25.5,6.9-38.1c0.4-1.9-0.1-2.6-2.1-2.5c-3.1,0.1-6.2,0.1-9.4,0c-1.5-0.1-2.4,0.2-2.6,2.1c-0.3,3-1.1,5.9-1.5,8.9
		C358.2,508.7,354.7,528.4,351.3,548.5z"/>
	<path class="st2" d="M502.9,568.7c0.9-8.8,2.9-17.4,4.4-26c3.6-19.5,7.3-38.9,10.9-58.5c1.3-7.3,2.6-14.7,4.1-22
		c0.6-3.2,1.8-4.4,5.2-4.4c80.9,0.1,161.8,0.1,242.7,0.1c15.2,3.6,30.7,0.9,45.8,2.3c5.2,0.5,10.5,0.6,15.8,1.1
		c-4.9,10.3-5.3,21.5-7.6,32.4c-3.1,15-6,30-8.5,45.1c-0.9,5.3-2.6,10.6-2.3,16.1c0.1,4,1.5,7.3,3.9,10.4c0.5,0.6,1.7,1.1,1.1,2.1
		c-0.5,0.9-1.6,0.5-2.5,0.5c-20.9,0.1-41.7,0-62.6,0.1c-45.4,0.1-90.8,0.4-136.2,0.5c-19.6,0.1-39.1,0.1-58.7,0.1
		c-17.3,0.1-34.6,0.1-52,0.2C505.3,568.9,504.1,568.8,502.9,568.7z M743.7,548.5c-2.1-8.3-4-16.3-6.1-24.3c-0.3-1.4-0.5-2.1,1.2-2.8
		c5.8-1.9,8.8-6.2,9.9-12c1.1-6,2.3-12.1,3.2-18.1c1.1-7.1-4-13.1-11.3-13.2c-11.1-0.2-22.1-0.1-33.2-0.1c-1.6,0-2.3,0.3-2.6,2.1
		c-0.8,5.5-1.9,10.9-2.9,16.4c-2.9,16.6-5.7,33.2-8.6,49.8c-0.3,1.6-0.1,2.2,1.7,2.1c3.2-0.1,6.2-0.2,9.4,0c2.3,0.1,2.8-0.9,3.2-2.8
		c1.3-7.2,2.6-14.4,3.9-21.6c0.1-0.5-0.5-0.9,0.1-1.4c0.5-0.3,10.1-0.6,10.6-0.1c0.3,0.4,0.7,1,0.7,1.5c0.1,2.8,1.5,5.2,1.9,7.9
		c0.7,5,2.9,9.6,3.7,14.6c0.2,1.2,0.6,2.1,2.1,2C734.8,548.5,739.2,548.5,743.7,548.5z M555.4,548.9L555.4,548.9
		c3.6,0.1,7.2,0.1,10.7,0.1c7.8-0.2,12.2-4,14.8-11.4c1.5-4.3,1.8-8.7,2.8-13c1.6-7.9-1.2-12.4-8.8-15.1c-4.6-1.6-9.5-2.3-14.2-3.6
		c-8.5-2.3-8.5-2.3-6.6-10.7c0.6-2.8,2.1-4,4.9-4c3.8,0,7.6,0,11.4,0c3.9,0,4.3,0.5,3.5,4.3c-0.9,4.5-0.9,4.5,3.7,4.4
		c0.2,0,0.5,0,0.7,0c9.6-0.1,9.9-0.4,10-10.1c0.1-7.1-4.2-11.6-11.3-11.7c-7.2-0.1-14.3-0.2-21.5-0.1c-7,0.1-11.5,3.9-13.8,10.3
		c-1.5,4.3-1.8,8.7-2.8,13c-1.9,8.3,1.3,13.1,9.5,15.7c4.1,1.3,8.5,2,12.7,3c8.9,2.1,8.8,2.1,7.2,11.2c-0.5,3.3-2.2,4.7-5.4,4.7
		c-4,0-8.1,0.1-12.1,0c-3.8,0-4.2-0.5-3.6-4.4c1-5.3,1-5.3-4.4-5.2c-9,0-9,0-9.9,9.2c-0.9,8.4,3.6,13.4,11.9,13.6
		C548.5,549,551.9,548.9,555.4,548.9z M615.7,478.1L615.7,478.1c-5.4-0.1-10.7,0.1-16.1-0.1c-2.2-0.1-3.1,0.5-3.4,2.8
		c-1.8,11.2-3.9,22.4-5.8,33.6c-1.8,10.5-3.6,20.9-5.4,31.3c-0.3,1.9-0.1,2.9,2.3,2.8c3.1-0.2,6.2-0.1,9.4,0c1.5,0.1,2.1-0.4,2.3-2
		c1-6.6,2.3-13.2,3.4-19.7c0.3-2.2,1.1-3.2,3.6-3.1c5.9,0.3,11.9,0,17.8,0.1c9.1,0.1,15-5.2,16.6-13.9c1.1-5.9,2.1-11.9,3-17.9
		c1.3-8-3.7-13.8-11.8-13.9C626.2,478.1,621,478.1,615.7,478.1z M779.4,478.1L779.4,478.1c-7.5-0.1-15,0-22.5-0.1
		c-1.7,0-2.8,0.3-3,2.1c-0.4,2.9-0.7,5.8-1.3,8.6c-0.3,1.9,0.1,2.6,2.1,2.6c4.4-0.1,8.7,0,13.1-0.1c1.7-0.1,2.4,0.3,2,2.2
		c-1.7,9-3.3,18-4.8,27c-1.5,8.6-3,17.2-4.4,25.8c-0.1,0.8-1.1,2.1,0.9,2.2c3.3,0.2,6.6,0.4,9.9,0.6c2.1,0.1,3-0.9,3.2-2.9
		c0.6-4.2,1.3-8.5,2.1-12.7c2.3-13.2,4.8-26.4,7.1-39.7c0.3-1.9,0.9-2.6,3-2.6c3.4,0.1,6.7,0,10.1,0c5.2,0,5.2,0,6.1-5
		c0.3-1.7,0.5-3.6,1-5.2c0.6-2.2-0.1-2.9-2.4-2.8C794.1,478.3,786.7,478.1,779.4,478.1z M664.2,477.7c-10.1-0.1-15.4,4.1-17.2,14
		c-2.6,14.4-5.2,28.9-7.6,43.3c-1.3,7.9,3.6,13.6,11.8,13.9c6,0.2,5.9,0.2,6.8-5.6c0.3-1.6,0.7-3.2,1.1-4.8c0.5-1.9,0.3-3.2-2.2-2.8
		c-2.8,0.3-3.5-1.1-3-3.7c0.7-3.4,1.3-6.9,1.9-10.4c1.5-8.7,3.1-17.4,4.6-26.2c0.4-2.1,1.3-4.2,3.6-4.1c3.4,0.2,3.8-1.7,4-4.2
		c0.1-1.2,0.4-2.4,0.6-3.6C669.7,477.8,669.7,477.8,664.2,477.7z M672.7,549c9.4,0.5,15.8-5.2,17.4-15.2c2.3-13.8,4.7-27.6,7.2-41.3
		c1.5-8.6-3.4-14.6-12.2-14.6c-4.8-0.1-4.8-0.1-5.6,4.4c-0.3,2.2-0.5,4.4-0.9,6.6c-0.3,1.5-0.2,2.3,1.7,2.2c2.3-0.2,3,1,2.6,3.1
		c-2.3,12.6-4.5,25.2-6.7,37.8c-0.3,1.5-0.9,3.1-2.5,3.2c-3.4,0.1-3.6,2.4-4,4.9c-0.3,2.2-0.5,4.4-1.1,6.6c-0.6,2.2,0.3,2.5,2.1,2.3
		C671.3,548.9,672,549,672.7,549z"/>
	<path class="st0" d="M902.6,513.3c4.3,3.3,5,7.4,4,12.1c-0.9,4.2-1.3,8.4-2.3,12.5c-1.7,7-6.7,10.7-13.9,10.7
		c-8.2,0.1-16.3,0.1-24.5,0c-6.9-0.1-10.1-3.6-10.1-10.4c0-3.3,0.9-6.4,1.3-9.6c0.1-1.4,1-1.5,2.1-1.5c3.4,0,6.7,0.1,10.1-0.1
		c2.1-0.1,2.3,0.9,2.1,2.6c-0.5,6-0.4,6,5.8,6c3.4,0,6.7-0.1,10.1,0c2.1,0.1,3.1-0.8,3.4-2.8c0.5-3.4,1-6.8,1.7-10.2
		c0.5-2.1-0.3-2.9-2.3-2.8c-4.2,0-8.3-0.1-12.4-0.1c-1.6,0-2.5-0.2-1.9-2.2c0.9-3.4,0.3-7.8,2.3-9.9c2.1-2.1,6.6-0.6,10-0.7
		c7.2-0.2,6.3,1.1,7.7-6.4c1.3-7.6,1.4-7.6-6.4-7.6c-2.2,0-4.5,0.1-6.7,0c-2.8-0.2-4,0.9-4.4,3.7c-0.7,4.8-0.8,4.8-5.5,4.8
		c-2.3,0-4.7-0.2-7-0.1c-2.4,0.1-2.8-1-2.3-3.1c0.5-2.4,0.9-4.8,1.5-7.2c1.9-7.2,6.8-11,14.4-11.1c7-0.1,14.1,0,21.1,0
		c8.9,0,12.5,3.9,11.4,12.8c-0.5,4-1.3,7.9-2.2,11.8C908.6,508.3,906.3,511.2,902.6,513.3z"/>
	<path class="st1" d="M337.2,504.2c-3,3.6-4.9,7.9-7.3,11.8c-3.6,6-7.2,12-10.7,18.2c-1.3,2.3-2.8,3.3-5.4,3.2
		c-6.2-0.3-6.2-0.1-7.7-6c-2.1-8.5-4.3-17.1-6.4-25.6c-0.2-0.7-0.2-1.5-1.1-2.3c-1.9,10.5-3.8,20.8-5.6,31.1
		c-0.7,4-1.5,7.9-2.1,11.9c-0.3,1.6-1,2.2-2.7,2.1c-2.6-0.1-5.2-0.3-7.7,0c-2.8,0.3-3.3-0.7-2.8-3.3c1.9-10.7,3.8-21.5,5.7-32.3
		c1.9-10.8,3.8-21.7,5.6-32.5c0.3-1.8,0.9-2.4,2.8-2.3c3.5,0.1,6.9,0.1,10.4,0c1.9-0.1,2.7,0.5,3.1,2.4c3,12.8,6.2,25.6,9.5,38.9
		c1.4-2.3,2.7-4.3,3.8-6.2c6.5-10.9,13.1-21.8,19.5-32.8c1-1.7,2-2.3,4-2.2c3.8,0.1,7.6,0.1,11.4,0c1.7-0.1,2.1,0.5,1.8,2.1
		c-3.8,22-7.7,44-11.5,66c-0.3,2-1.1,2.6-3.1,2.4c-1.7-0.2-3.4-0.1-5-0.1c-5.9,0-5.9,0-4.8-6c2.1-11.7,4.3-23.5,6.4-35.2
		C337.4,506.4,337.9,505.3,337.2,504.2c0.5,0.2,0.5-0.1,0.5-0.5c0-0.1-0.1-0.3-0.2-0.5C337.4,503.6,337.3,503.9,337.2,504.2z"/>
	<path class="st1" d="M221.9,548.5c-4.6,0-9-0.1-13.4,0c-1.8,0.1-1.9-1.2-2.1-2.3c-1.8-7.1-3.6-14.2-5.2-21.4
		c-0.5-2-1.3-2.4-3.2-2.4c-8.4-0.1-8.4-0.1-9.8,8c-0.9,5.3-1.9,10.5-2.8,15.8c-0.3,1.6-0.7,2.3-2.5,2.3c-3.9-0.1-7.8-0.1-11.9-0.1
		c1.3-8.1,2.6-15.8,4-23.6c2.6-14.8,5.2-29.5,7.7-44.3c0.4-2.2,1.3-2.6,3.2-2.6c10.6,0.1,21.2,0,31.9,0.1
		c8.1,0.1,12.8,5.1,11.9,13.1c-0.9,7.4-2,14.9-4.4,22.1c-1.3,4.1-4.2,6.6-8,7.9c-2,0.7-2.2,1.5-1.7,3.4
		C217.8,532.5,219.8,540.4,221.9,548.5z M204.8,491.4L204.8,491.4c-2.7,0-5.4,0.1-8.1,0c-1.1,0-1.8,0.2-2,1.6
		c-0.7,4.8-1.6,9.5-2.5,14.2c-0.3,1.3-0.1,2.1,1.5,2.1c5-0.1,10.1,0.1,15.1-0.1c2.1-0.1,3.7-1.1,4.1-3.2c0.8-4,1.4-7.9,2.1-11.9
		c0.4-2.1-0.7-2.8-2.6-2.8C210,491.5,207.4,491.4,204.8,491.4z"/>
	<path class="st1" d="M467.3,548.6c-7.1,0-7.1,0-8.9-7c-1.4-5.6-2.9-11.2-4.2-16.9c-0.4-1.7-1.1-2.3-2.9-2.3
		c-8.3-0.2-8.4-0.3-9.9,7.9c-1,5.4-2,10.7-2.9,16.2c-0.3,1.7-0.9,2.2-2.6,2.2c-2.9-0.1-5.8-0.2-8.7,0c-2.7,0.2-3.2-0.7-2.8-3.2
		c2.1-11.6,4.1-23.3,6.1-35c1.7-9.8,3.6-19.5,5.1-29.3c0.4-2.4,1.2-3,3.6-3c10.6,0.1,21.3,0,31.9,0.1c7.6,0.1,12.3,4.8,11.7,12.3
		c-0.5,6-1.6,11.9-3.2,17.7c-0.5,2.1-0.5,4.3-1.6,6.3c-1.7,3.1-4,5.5-7.2,6.6c-2.4,0.8-2.6,2.1-1.9,4.2c1.9,6.8,3.4,13.7,5.4,20.4
		c0.8,2.7-0.1,3.1-2.4,2.9C470.4,548.5,468.8,548.6,467.3,548.6z M458,491.4L458,491.4c-2.6,0-5.1,0.1-7.7,0c-1.8-0.1-3,0.9-3,2.3
		c0.2,4.6-1.3,9-1.9,13.5c-0.2,1.5,0.1,2,1.6,1.9c4.9-0.1,9.8,0,14.7,0c2.4,0,4-1.1,4.5-3.6c0.7-3.8,1.4-7.7,2.1-11.5
		c0.3-1.9-0.5-2.8-2.3-2.8C463.3,491.4,460.6,491.4,458,491.4z"/>
	<path class="st1" d="M284,478.1c-0.7,4-1.5,7.5-1.9,11.1c-0.2,1.9-1.1,2.3-2.8,2.3c-8.6-0.1-17.2,0.1-25.8-0.1
		c-2.2,0-3.2,0.5-3.5,2.8c-0.3,3-0.9,6-1.5,8.9c-0.5,2.1,0,3,2.4,2.9c6.6-0.1,13.2,0,19.8-0.1c1.9,0,2.6,0.3,2.1,2.4
		c-0.6,2.3-1.2,4.6-1.1,6.9c0,3.8-1.9,4.2-5,4.1c-6-0.2-12.1,0-18.1-0.1c-2.3-0.1-3.1,0.7-3.4,3c-0.4,3.3-0.9,6.6-1.7,9.9
		c-0.7,2.7,0.2,3.2,2.8,3.1c8.5-0.1,17,0,25.5-0.1c2.1,0,2.7,0.5,2.1,2.6c-0.7,2.8-1.2,5.7-1.5,8.6c-0.2,1.8-0.8,2.4-2.7,2.4
		c-13.8-0.1-27.5-0.1-41.3-0.1c-0.5,0-1.1-0.1-1.7-0.2c4-22.6,7.9-45.2,11.8-67.7c0.2-1.3,0.1-2.5,2.2-2.5
		C255,478.1,269.4,478.1,284,478.1z"/>
	<path class="st1" d="M373.7,548.1c3.2-18.4,6.3-36.7,9.5-55c0.7-4.3,1.6-8.5,2.2-12.8c0.3-1.7,0.9-2.2,2.6-2.2
		c13.6,0.1,27.2,0.1,40.9,0.1c1.7,0,2.4,0.3,1.9,2.2c-0.7,3-1.3,5.9-1.5,8.9c-0.2,2-1.1,2.3-2.8,2.2c-8.6-0.1-17.2,0.1-25.8-0.1
		c-2.1,0-3.2,0.3-3.4,2.8c-0.3,3-0.9,6-1.5,8.9c-0.5,2.1,0,3,2.4,3c6.2-0.1,12.6,0.1,18.8-0.1c2.6-0.1,4,0.1,3,3.4
		c-0.7,2.4-1.1,5-1.3,7.6c-0.2,2-1,2.6-3,2.6c-6.6-0.1-13.2,0.1-19.8-0.1c-2.6-0.1-3.2,0.9-3.6,3.2c-0.5,3.4-1.3,6.6-1.9,10
		c-0.4,2.1,0.4,2.8,2.6,2.8c8.6-0.1,17.2,0,25.8-0.1c2.1-0.1,2.8,0.5,2.3,2.6c-0.7,3-1.2,5.9-1.7,8.9c-0.2,1.4-0.5,2.1-2.2,2.1
		c-14.1-0.1-28.2-0.1-42.2-0.2C374.5,548.5,374.1,548.3,373.7,548.1z"/>
	<path class="st1" d="M149.3,478.1c4.9,0,9.8,0,14.8,0c9.1,0.1,14,5.8,12.6,14.8c-1,6-2.1,12.1-3.2,18.1
		c-1.4,7.5-6.9,12.4-14.6,12.6c-6.6,0.2-13.2,0.1-19.8,0c-2.1-0.1-2.9,0.6-3.2,2.7c-1,6.5-2.3,13-3.3,19.5c-0.3,2-1,2.8-3.2,2.7
		c-3.1-0.2-6.2-0.1-9.4-0.1c-1.7,0.1-1.9-0.4-1.6-2.1c3-16.6,5.7-33.2,8.6-49.7c0.9-5.5,2.1-10.9,2.9-16.4c0.3-1.7,0.8-2.2,2.5-2.1
		C137.9,478.2,143.6,478.1,149.3,478.1L149.3,478.1z M138.7,510.3c5.9,0,11.5,0,17,0c2.3,0,3.7-1.1,4.1-3.2
		c0.9-4.1,1.5-8.3,2.2-12.4c0.4-2.5-0.7-3.4-3.2-3.3c-4.8,0.1-9.6,0.2-14.4,0c-2.3-0.1-2.8,0.9-3.1,2.8
		C140.6,499.4,139.6,504.7,138.7,510.3z"/>
	<path class="st1" d="M351.3,548.5c3.5-20.1,7-39.8,10.4-59.5c0.5-3,1.3-5.8,1.5-8.9c0.2-1.9,1.1-2.1,2.6-2.1c3.2,0.1,6.2,0.1,9.4,0
		c2-0.1,2.6,0.6,2.1,2.5c-2.8,12.6-4.3,25.4-6.9,38.1c-1.8,8.9-3.2,17.9-4.4,26.8c-0.3,2.2-0.9,3.3-3.5,3.2
		C358.8,548.3,355.1,548.5,351.3,548.5z"/>
	<path class="st1" d="M743.7,548.5c-4.4,0-8.8-0.1-13.2,0c-1.5,0-1.9-0.8-2.1-2c-0.8-5-3-9.5-3.7-14.6c-0.3-2.6-1.7-5.1-1.9-7.9
		c0-0.5-0.3-1.1-0.7-1.5c-0.5-0.5-10.1-0.3-10.6,0.1c-0.7,0.5-0.1,0.9-0.1,1.4c-1.3,7.2-2.7,14.4-3.9,21.6c-0.3,1.9-0.9,3-3.2,2.8
		c-3.1-0.2-6.2-0.1-9.4,0c-1.7,0.1-1.9-0.5-1.7-2.1c3-16.6,5.8-33.2,8.6-49.8c0.9-5.5,2.1-10.9,2.9-16.4c0.3-1.7,0.9-2.1,2.6-2.1
		c11.1,0.1,22.1-0.1,33.2,0.1c7.3,0.1,12.4,6,11.3,13.2c-0.9,6-2.1,12.1-3.2,18.1c-1.1,5.8-4.1,10.1-9.9,12
		c-1.7,0.6-1.5,1.3-1.2,2.8C739.6,532.2,741.6,540.3,743.7,548.5z M726.9,491.4L726.9,491.4c-2.7,0-5.4,0.1-8.1,0
		c-1.1,0-1.9,0-2.1,1.4c-0.7,4.8-1.6,9.7-2.5,14.5c-0.3,1.5,0.3,1.9,1.7,1.9c4.9-0.1,9.8,0,14.7,0c2.3,0,3.8-1.3,4.3-3.5
		c0.8-3.8,1.4-7.7,2.1-11.5c0.3-2-0.5-2.9-2.6-2.9C732,491.4,729.4,491.4,726.9,491.4z"/>
	<path class="st1" d="M555.4,548.9c-3.5,0-6.9,0.1-10.4,0c-8.5-0.2-12.9-5.2-11.9-13.6c0.9-9.2,0.9-9.2,9.9-9.2c5.3,0,5.3,0,4.4,5.2
		c-0.7,3.8-0.3,4.4,3.6,4.4c4,0,8.1,0,12.1,0c3.2,0,4.8-1.4,5.4-4.7c1.5-9.1,1.6-9.1-7.2-11.2c-4.2-1-8.6-1.7-12.7-3
		c-8.1-2.7-11.3-7.4-9.5-15.7c1-4.3,1.3-8.7,2.8-13c2.3-6.4,6.7-10.2,13.8-10.3c7.2-0.1,14.3-0.1,21.5,0.1
		c7.1,0.1,11.3,4.6,11.3,11.7c-0.1,9.8-0.4,10.1-10,10.1c-0.2,0-0.5,0-0.7,0c-4.6,0.1-4.6,0.1-3.7-4.4c0.7-3.8,0.3-4.3-3.5-4.3
		c-3.8,0-7.6,0.1-11.4,0c-2.8,0-4.3,1.3-4.9,4c-1.9,8.5-1.9,8.5,6.6,10.7c4.7,1.3,9.5,1.9,14.2,3.6c7.6,2.7,10.5,7.2,8.8,15.1
		c-0.9,4.4-1.3,8.7-2.8,13c-2.6,7.5-7,11.3-14.8,11.4C562.6,549,559,548.9,555.4,548.9L555.4,548.9z"/>
	<path class="st1" d="M615.7,478.1c5.2,0,10.5-0.1,15.8,0c8.1,0.1,13,5.9,11.8,13.9c-0.9,6-1.9,11.9-3,17.9
		c-1.5,8.7-7.5,14-16.6,13.9c-5.9-0.1-11.9,0.1-17.8-0.1c-2.6-0.1-3.2,0.9-3.6,3.1c-1.1,6.6-2.3,13.2-3.4,19.7
		c-0.3,1.5-0.8,2.1-2.3,2c-3.2-0.1-6.2-0.2-9.4,0c-2.3,0.1-2.6-0.8-2.3-2.8c1.8-10.5,3.6-20.9,5.4-31.3c1.9-11.2,4-22.3,5.8-33.6
		c0.4-2.3,1.2-2.9,3.4-2.8C605,478.2,610.4,478.1,615.7,478.1L615.7,478.1z M618.3,491.4L618.3,491.4c-2.7,0-5.4,0.1-8.1,0
		c-1.1,0-1.8,0.1-2,1.5c-0.7,5.1-1.7,10.1-2.6,15.2c-0.3,1.4-0.1,2.3,1.7,2.2c5-0.1,10.1,0,15.1-0.1c2.2,0,3.4-1.2,4-3.3
		c1-4,1.3-8.1,2.7-11.9c0.7-2.2-0.3-3.6-2.8-3.6C623.7,491.4,621,491.4,618.3,491.4z"/>
	<path class="st1" d="M779.4,478.1c7.4,0,14.8,0.1,22.1-0.1c2.3-0.1,3,0.7,2.4,2.8c-0.5,1.7-0.7,3.5-1,5.2c-0.9,5-0.9,5-6.1,5
		c-3.4,0-6.7,0.1-10.1,0c-2-0.1-2.6,0.6-3,2.6c-2.3,13.2-4.8,26.4-7.1,39.7c-0.7,4.2-1.5,8.5-2.1,12.7c-0.3,2-1.1,3-3.2,2.9
		c-3.3-0.2-6.6-0.4-9.9-0.6c-1.9-0.1-1-1.4-0.9-2.2c1.4-8.6,2.9-17.2,4.4-25.8c1.5-9,3.2-18.1,4.8-27c0.3-1.9-0.3-2.3-2-2.2
		c-4.4,0.1-8.7-0.1-13.1,0.1c-2.1,0.1-2.5-0.7-2.1-2.6c0.5-2.8,0.9-5.7,1.3-8.6c0.3-1.9,1.3-2.2,3-2.1c7.5,0.1,15,0,22.5,0
		C779.4,478.1,779.4,478.1,779.4,478.1z"/>
	<path class="st1" d="M664.2,477.7c5.4,0,5.4,0,4.5,5.6c-0.2,1.2-0.5,2.4-0.6,3.6c-0.1,2.6-0.6,4.4-4,4.2c-2.3-0.1-3.2,1.9-3.6,4.1
		c-1.5,8.7-3.1,17.4-4.6,26.2c-0.6,3.5-1.2,6.9-1.9,10.4c-0.5,2.6,0.2,4,3,3.7c2.6-0.3,2.8,0.9,2.2,2.8c-0.4,1.6-0.9,3.2-1.1,4.8
		c-0.9,5.8-0.8,5.8-6.8,5.6c-8.3-0.3-13.2-6-11.8-13.9c2.4-14.4,5-28.9,7.6-43.3C648.8,481.8,654.1,477.7,664.2,477.7z"/>
	<path class="st1" d="M672.7,549c-0.7,0-1.3-0.1-2,0c-1.7,0.1-2.8-0.1-2.1-2.3c0.6-2.1,0.8-4.4,1.1-6.6c0.3-2.5,0.5-4.8,4-4.9
		c1.6-0.1,2.2-1.7,2.5-3.2c2.2-12.6,4.5-25.2,6.7-37.8c0.4-2.1-0.3-3.3-2.6-3.1c-1.8,0.1-1.9-0.7-1.7-2.2c0.4-2.1,0.5-4.4,0.9-6.6
		c0.7-4.5,0.7-4.5,5.6-4.4c8.9,0.1,13.8,6,12.2,14.6c-2.4,13.8-4.9,27.6-7.2,41.3C688.4,543.8,682,549.4,672.7,549z"/>
	<path class="st0" d="M337.2,504.2c0.1-0.3,0.2-0.6,0.3-0.9c0.1,0.1,0.2,0.3,0.2,0.5C337.6,504.1,337.6,504.4,337.2,504.2
		C337.1,504.2,337.2,504.2,337.2,504.2z"/>
	<path class="st0" d="M204.8,491.4c2.6,0,5.2,0.1,7.7,0c1.9-0.1,3,0.7,2.6,2.8c-0.7,4-1.3,7.9-2.1,11.9c-0.4,2.1-2,3.2-4.1,3.2
		c-5,0.1-10.1,0-15.1,0.1c-1.7,0-1.8-0.8-1.5-2.1c0.9-4.7,1.7-9.5,2.5-14.2c0.2-1.3,0.9-1.6,2-1.6
		C199.5,491.5,202.1,491.4,204.8,491.4L204.8,491.4z"/>
	<path class="st0" d="M458,491.4c2.7,0,5.4,0,8.1,0c1.8,0,2.7,0.9,2.3,2.8c-0.7,3.8-1.4,7.7-2.1,11.5c-0.5,2.5-2,3.6-4.5,3.6
		c-4.9,0-9.8-0.1-14.7,0c-1.5,0-1.8-0.5-1.6-1.9c0.6-4.5,2.1-8.9,1.9-13.5c-0.1-1.5,1.1-2.4,3-2.3
		C452.8,491.6,455.4,491.4,458,491.4L458,491.4z"/>
	<path class="st0" d="M138.7,510.3c0.9-5.6,1.9-10.9,2.8-16.2c0.3-1.9,0.8-2.8,3.1-2.8c4.8,0.2,9.6,0.1,14.4,0
		c2.5-0.1,3.6,0.8,3.2,3.3c-0.7,4.2-1.3,8.3-2.2,12.4c-0.4,2-1.8,3.2-4.1,3.2C150.2,510.3,144.6,510.3,138.7,510.3z"/>
	<path class="st2" d="M726.9,491.4c2.6,0,5.1,0.1,7.7,0c2.1-0.1,2.9,0.9,2.6,2.9c-0.7,3.8-1.3,7.7-2.1,11.5
		c-0.5,2.1-1.9,3.4-4.3,3.5c-4.9,0-9.8,0-14.7,0c-1.5,0-2-0.4-1.7-1.9c0.9-4.8,1.7-9.7,2.5-14.5c0.2-1.4,1.1-1.4,2.1-1.4
		C721.5,491.4,724.2,491.4,726.9,491.4L726.9,491.4z"/>
	<path class="st2" d="M618.3,491.4c2.7,0,5.4,0,8.1,0c2.5,0,3.5,1.3,2.8,3.6c-1.3,3.9-1.6,8-2.7,11.9c-0.5,2.1-1.7,3.3-4,3.3
		c-5,0-10.1-0.1-15.1,0.1c-1.9,0.1-1.9-0.8-1.7-2.2c0.9-5,1.8-10.1,2.6-15.2c0.2-1.4,0.9-1.5,2-1.5
		C612.9,491.4,615.6,491.4,618.3,491.4L618.3,491.4z"/>
</g>
</svg>
