<?xml version="1.0" encoding="UTF-8"?>
<svg id="Vrstva_1" data-name="Vrstva 1" xmlns="http://www.w3.org/2000/svg" version="1.1" viewBox="0 0 1024 1024">
  <defs>
    <style>
      .cls-1 {
        fill: #060702;
      }

      .cls-1, .cls-2, .cls-3, .cls-4, .cls-5 {
        stroke-width: 0px;
      }

      .cls-2 {
        fill: #03451c;
      }

      .cls-3 {
        fill: #ffd005;
      }

      .cls-4 {
        fill: #fdfefd;
      }

      .cls-5 {
        fill: #fff;
      }
    </style>
  </defs>
  <rect class="cls-3" width="1024" height="1024"/>
  <g>
    <path class="cls-3" d="M501.8,579.3h-223.1c-33.4,0-66.6,0-100-.2-28.7,0-57.4-.5-86.2-.3-15.9,0-27.2-14-24.4-29,4.8-26,8.9-52.1,13.4-78.2,2.6-15.3,15.8-26.3,31.3-26.3,51.8-.1,103.6-.1,155.4-.2,54-.1,108.1-.1,162-.2,67.9-.1,135.8-.2,203.6-.2s103.1.1,154.6.2c47.4.1,94.8.5,142.2.1,13.7-.1,28.7,10.1,25.2,29.9-4.8,26-8.9,52.1-13.4,78.2-2.5,14.4-15.7,25.6-30.4,25.6-35.2,0-70.5,0-105.7.2-39,0-78.1.2-117,.3-62.5.1-125,0-187.5.1q0,0,0,0ZM502.9,573h107.6c27.7,0,55.2,0,82.9-.2,46.5-.2,93-.4,139.5-.6,26.3,0,52.5-.3,78.9,0,11.8,0,21.4-9,23.2-19.4,4.6-26.2,9.5-52.3,14.3-78.4,2.4-13.1-5.4-22.5-18.7-22.5-53.2-.1-106.4-.2-159.7-.3-29.2-.1-58.4-.2-87.6-.2-122,.1-244,.1-366,.2-33.9,0-67.8.2-101.7.2-34.7.1-69.3.1-104,.1s-20.1,7.3-22.1,18.1c-5,26.5-9.9,53.1-14.7,79.7-2.3,13,5.6,22.3,18.9,22.3,34.6,0,69.1.3,103.6.5,18.3,0,36.4,0,54.7,0,43.6,0,87.2.3,130.8.3,40.1,0,80.1,0,120.1,0Z"/>
    <path class="cls-1" d="M502.9,573c-40,0-80.1,0-120.1,0-43.6,0-87.2-.2-130.8-.3-18.3,0-36.4,0-54.7,0-34.6,0-69.1-.3-103.6-.5-13.3,0-21.2-9.3-18.9-22.3,4.8-26.6,9.7-53.1,14.7-79.7,2-10.8,11.1-18.1,22.1-18.1,34.7-.1,69.3-.1,104-.1,33.9-.1,67.8-.2,101.7-.2,122-.1,244-.2,366-.2s58.4.1,87.6.2c53.2.1,106.4.2,159.7.3,13.4,0,21.1,9.4,18.7,22.5-4.8,26.1-9.7,52.2-14.3,78.4-1.8,10.4-11.4,19.5-23.2,19.4-26.3-.3-52.5,0-78.9,0-46.5,0-93,.4-139.5.6-27.7,0-55.2.2-82.9.2-35.8,0-71.7,0-107.6,0ZM502.9,568.7c1.2,0,2.4.3,3.6.3,17.3,0,34.6-.2,52-.2,19.6,0,39.1,0,58.7,0,45.4-.2,90.8-.4,136.2-.5,20.9,0,41.7,0,62.6,0s1.9.5,2.5-.5-.6-1.5-1.1-2.1c-2.3-3.1-3.7-6.5-3.9-10.4-.2-5.5,1.5-10.7,2.3-16.1,2.5-15.1,5.4-30.1,8.5-45.1,2.2-10.9,2.7-22.1,7.6-32.4,1.8-1.2,3-3,4.9-5h-71.5c-115.6.1-231.3.1-346.9.1s-110.9.1-166.4.1H112.4c-10.1,0-17,5.8-18.9,15.8-4.8,26.2-9.4,52.5-14.6,78.7-1.4,7.1,4.3,16.6,13.4,16.4,11.1-.3,22.3.3,33.5.3,30.7.3,61.5.5,92.2.7,43.7.2,87.4.4,131.1.5,48.3,0,96.6,0,145,0,3.1-.2,5.9-.3,8.8-.4ZM902.6,513.3c3.6-2.1,5.9-5,6.8-8.7.9-3.9,1.7-7.9,2.2-11.8,1.1-8.9-2.5-12.8-11.4-12.8h-21.1c-7.5.1-12.5,3.8-14.4,11.1-.6,2.3-.9,4.8-1.5,7.2-.5,2,0,3.2,2.3,3.1,2.3-.1,4.7.1,7,.1,4.8,0,4.9,0,5.5-4.8.4-2.8,1.7-3.9,4.4-3.7,2.2.1,4.5,0,6.7,0q7.7,0,6.4,7.6c-1.3,7.5-.5,6.2-7.7,6.4-3.4.1-7.9-1.5-10,.7-2,2.1-1.4,6.5-2.3,9.9-.5,2,.3,2.3,1.9,2.2,4.2,0,8.3,0,12.4,0s2.8.7,2.3,2.8c-.7,3.4-1.2,6.8-1.7,10.2-.3,2-1.3,2.9-3.4,2.8-3.4,0-6.7,0-10.1,0q-6.2,0-5.8-6c0-1.8,0-2.8-2.1-2.6-3.4,0-6.7,0-10.1,0s-1.9,0-2.1,1.5c-.4,3.2-1.3,6.3-1.3,9.6,0,6.9,3.2,10.4,10.1,10.4,8.2,0,16.3,0,24.5,0,7.1,0,12.1-3.8,13.9-10.7,1.1-4.1,1.5-8.3,2.3-12.5,1.4-4.8.6-9-3.7-12.2Z"/>
    <path class="cls-3" d="M502.9,568.7c-2.9,0-5.8.2-8.7.2-48.3,0-96.6,0-145,0-43.7,0-87.4-.3-131.1-.5-30.7,0-61.5-.4-92.2-.7-11.1,0-22.3-.6-33.5-.3-9.1.2-14.8-9.3-13.4-16.4,5.2-26.2,9.7-52.4,14.6-78.7,1.8-10,8.8-15.8,18.9-15.8h139.6c55.5,0,110.9-.1,166.4-.1,115.6-.1,231.3-.1,346.9-.1h71.5c-1.9,2.1-3.1,3.8-4.9,5-5.2-.5-10.5-.6-15.8-1.1-15.2-1.4-30.7,1.3-45.8-2.3-80.9,0-161.8,0-242.7-.1-3.4,0-4.6,1.3-5.2,4.4-1.5,7.3-2.8,14.7-4.1,22-3.6,19.5-7.3,39-10.9,58.5-1.7,8.7-3.7,17.3-4.6,26ZM337.2,504.2h0c.7,1,.1,2.1-.1,3.2-2.1,11.7-4.2,23.5-6.4,35.2q-1.1,6,4.8,6c1.7,0,3.4,0,5,0,1.9.2,2.8-.4,3.1-2.4,3.8-22,7.6-44,11.5-66,.3-1.6-.1-2.1-1.8-2.1-3.8.1-7.6.1-11.4,0-1.9-.1-3,.5-4,2.2-6.4,10.9-13,21.9-19.5,32.8-1.2,1.9-2.4,4-3.8,6.2-3.3-13.3-6.5-26-9.5-38.9-.5-1.9-1.2-2.6-3.1-2.4-3.5.1-6.9.1-10.4,0-1.8-.1-2.4.5-2.8,2.3-1.7,10.9-3.7,21.7-5.6,32.5s-3.7,21.5-5.7,32.3c-.5,2.6.1,3.6,2.8,3.3,2.6-.3,5.2,0,7.7,0,1.7,0,2.4-.5,2.7-2.1.6-4,1.3-7.9,2.1-11.9,1.9-10.3,3.8-20.6,5.6-31.1,1,.7.9,1.6,1.1,2.3,2.1,8.5,4.2,17.1,6.4,25.6,1.5,5.9,1.5,5.8,7.7,6,2.8,0,4.2-.9,5.4-3.2,3.4-6.2,7-12.2,10.7-18.2,2.6-3.8,4.5-8,7.5-11.7ZM221.9,548.5c-2.1-8.2-4.1-16-6.2-23.9-.5-1.8-.3-2.7,1.7-3.4,3.8-1.3,6.6-3.9,8-7.9,2.4-7.2,3.5-14.6,4.4-22.1.9-8-3.9-13-11.9-13.1-10.6-.1-21.2,0-31.9-.1-2,0-2.9.3-3.2,2.6-2.5,14.8-5.1,29.5-7.7,44.3-1.3,7.8-2.6,15.5-4,23.6,4.2,0,8.1,0,11.9,0,1.8,0,2.2-.7,2.5-2.3.8-5.3,1.8-10.5,2.8-15.8q1.4-8.1,9.8-8c1.9,0,2.7.5,3.2,2.4,1.6,7.2,3.5,14.3,5.2,21.4.3,1.1.3,2.4,2.1,2.3,4.3,0,8.6,0,13.3,0ZM467.3,548.6c1.5,0,3.2,0,4.7,0,2.3.2,3.2-.2,2.4-2.9-2-6.8-3.6-13.6-5.4-20.4-.6-2.1-.5-3.4,1.9-4.2,3.4-1.1,5.6-3.5,7.2-6.6,1.1-2,1-4.2,1.6-6.3,1.5-5.8,2.7-11.7,3.2-17.7.6-7.5-4.1-12.3-11.7-12.3-10.6-.1-21.3,0-31.9-.1-2.4-.1-3.2.6-3.6,3-1.5,9.8-3.4,19.6-5.1,29.3-2,11.7-4,23.3-6.1,35-.5,2.5.1,3.4,2.8,3.2,2.9-.3,5.8,0,8.7,0,1.7,0,2.3-.5,2.6-2.2.8-5.4,1.8-10.8,2.9-16.2,1.5-8.1,1.5-8,9.9-7.9,1.8,0,2.5.6,2.9,2.3,1.3,5.6,2.8,11.3,4.2,16.9,1.6,7.1,1.6,7,8.8,7.1ZM284,478.1c-14.6,0-29.1.1-43.5-.1-2.1,0-2,1.2-2.2,2.5-4,22.5-7.9,45-11.8,67.7.7,0,1.2.2,1.7.2,13.8,0,27.5,0,41.3,0s2.5-.6,2.7-2.4c.3-2.9.8-5.8,1.5-8.6.5-2.1,0-2.6-2.1-2.6-8.5,0-17,0-25.5,0-2.5,0-3.4-.4-2.8-3.1.8-3.2,1.3-6.6,1.7-9.9.3-2.2,1.1-3,3.4-3,6,0,12.1,0,18.1,0,3.2,0,5.1-.3,5-4.1,0-2.3.5-4.6,1.1-6.9.5-2.1-.2-2.5-2.1-2.4-6.6.1-13.2-.1-19.8.1-2.4.1-2.9-.7-2.4-2.9.6-3,1.1-5.9,1.5-8.9.3-2.2,1.3-2.8,3.5-2.8,8.6.1,17.2,0,25.8.1,1.7,0,2.6-.3,2.8-2.3.7-3.4,1.4-6.9,2.1-10.9ZM373.7,548.1c.5,0,.8.3,1.1.3,14.1,0,28.2,0,42.2.2,1.7,0,2-.7,2.2-2.1.5-3,1-6,1.7-8.9.5-2.1-.1-2.6-2.3-2.6-8.6,0-17.2,0-25.8,0-2.3,0-3-.7-2.6-2.8.6-3.4,1.5-6.6,1.9-10,.3-2.2,1.1-3.2,3.6-3.2,6.6.2,13.2,0,19.8,0,1.9,0,2.8-.5,3-2.6.2-2.6.5-5.2,1.3-7.6,1-3.2-.4-3.4-3-3.4-6.2.1-12.6-.1-18.8.1-2.4.1-2.8-.9-2.4-3,.6-3,1.3-5.9,1.5-8.9.2-2.3,1.3-2.8,3.4-2.8,8.6.1,17.2,0,25.8.1,1.7,0,2.6-.2,2.8-2.2.3-3,.9-6,1.5-8.9.5-1.9-.3-2.2-1.9-2.2-13.6,0-27.2,0-40.9-.1-1.7,0-2.3.5-2.6,2.2-.6,4.3-1.5,8.6-2.2,12.8-3,18.7-6.2,37.1-9.3,55.4ZM149.3,478.1h0c-5.7-.1-11.4,0-17.1-.1-1.7,0-2.2.5-2.5,2.1-.8,5.5-1.9,10.9-2.9,16.4-2.9,16.6-5.6,33.2-8.6,49.7-.3,1.7,0,2.1,1.6,2.1,3.2,0,6.2,0,9.4,0,2.1,0,2.9-.7,3.2-2.7,1-6.5,2.3-13,3.3-19.5.3-2.1,1.1-2.8,3.2-2.7,6.6,0,13.2.2,19.8,0,7.7-.2,13.2-5.1,14.6-12.6,1.1-6,2.2-12.1,3.2-18.1,1.5-8.9-3.5-14.8-12.6-14.8-4.8.1-9.7.1-14.6.1ZM351.3,548.5c3.9,0,7.6-.2,11.3,0,2.6.2,3.2-.9,3.5-3.2,1.3-9,2.6-18,4.4-26.8,2.6-12.7,4.1-25.5,6.9-38.1.4-1.9-.1-2.6-2.1-2.5-3.1.1-6.2.1-9.4,0-1.5-.1-2.4.2-2.6,2.1-.3,3-1.1,5.9-1.5,8.9-3.6,19.7-7.1,39.4-10.5,59.5Z"/>
    <path class="cls-1" d="M770.2,457.9,838.7,454.5c-4.9,10.3-12.2,28.3-14.5,39.2-3.1,15-6,30-8.5,45.1-.9,5.3-2.6,10.6-2.3,16.1,0,4,1.5,7.3,3.9,10.4.5.6,1.7,1.1,1.1,2.1-.5.9,0,1.7-2.5.5-20.4,1.6-41.6,2.9-62.5,1.6-45.4,0-90.8-.9-136.2-.8-19.6,0-39.1,0-58.7,0-17.3,0-34.6,0-52,.2-1.1.1-2.3,0-3.5,0,.9-8.8,2.8-17.6,4.3-26.2,3.6-19.5,7.3-38.9,10.9-58.5,1.3-7.3,2.6-14.7,4.1-22,.6-3.2,4.2-7.7,7.6-7.7M743.7,548.5c-2.1-8.3-4-16.3-6.1-24.3-.3-1.4-.5-2.1,1.2-2.8,5.8-1.9,8.8-6.2,9.9-12,1.1-6,2.3-12.1,3.2-18.1,1.1-7.1-4-13.1-11.3-13.2-11.1-.2-22.1-.1-33.2-.1s-2.3.3-2.6,2.1c-.8,5.5-1.9,10.9-2.9,16.4-2.9,16.6-5.7,33.2-8.6,49.8-.3,1.6,0,2.2,1.7,2.1,3.2,0,6.2-.2,9.4,0,2.3,0,2.8-.9,3.2-2.8,1.3-7.2,2.6-14.4,3.9-21.6,0-.5-.5-.9,0-1.4.5-.3,10.1-.6,10.6,0,.3.4.7,1,.7,1.5,0,2.8,1.5,5.2,1.9,7.9.7,5,2.9,9.6,3.7,14.6.2,1.2.6,2.1,2.1,2h13.1ZM555.4,548.9h0c3.6,0,7.2,0,10.7,0,7.8-.2,12.2-4,14.8-11.4,1.5-4.3,1.8-8.7,2.8-13,1.6-7.9-1.2-12.4-8.8-15.1-4.6-1.6-9.5-2.3-14.2-3.6q-8.5-2.3-6.6-10.7c.6-2.8,2.1-4,4.9-4h11.4c3.9,0,4.3.5,3.5,4.3q-.9,4.5,3.7,4.4h.7c9.6-.1,9.9-.4,10-10.1,0-7.1-4.2-11.6-11.3-11.7-7.2-.1-14.3-.2-21.5-.1-7,.1-11.5,3.9-13.8,10.3-1.5,4.3-1.8,8.7-2.8,13-1.9,8.3,1.3,13.1,9.5,15.7,4.1,1.3,8.5,2,12.7,3,8.9,2.1,8.8,2.1,7.2,11.2-.5,3.3-2.2,4.7-5.4,4.7s-8.1,0-12.1,0c-3.8,0-4.2-.5-3.6-4.4q1-5.3-4.4-5.2-9,0-9.9,9.2c-.9,8.4,3.6,13.4,11.9,13.6,3.7,0,7.1-.2,10.6-.2ZM615.7,478.1h0c-5.4-.1-10.7.1-16.1-.1-2.2-.1-3.1.5-3.4,2.8-1.8,11.2-3.9,22.4-5.8,33.6-1.8,10.5-3.6,20.9-5.4,31.3-.3,1.9,0,2.9,2.3,2.8,3.1-.2,6.2,0,9.4,0,1.5,0,2.1-.4,2.3-2,1-6.6,2.3-13.2,3.4-19.7.3-2.2,1.1-3.2,3.6-3.1,5.9.3,11.9,0,17.8,0,9.1,0,15-5.2,16.6-13.9,1.1-5.9,2.1-11.9,3-17.9,1.3-8-3.7-13.8-11.8-13.9-5.4,0-10.6,0-15.9,0ZM779.4,478.1h0c-7.5-.1-15,0-22.5-.1-1.7,0-2.8.3-3,2.1-.4,2.9-.7,5.8-1.3,8.6-.3,1.9,0,2.6,2.1,2.6,4.4-.1,8.7,0,13.1-.1,1.7-.1,2.4.3,2,2.2-1.7,9-3.3,18-4.8,27-1.5,8.6-3,17.2-4.4,25.8,0,.8-1.1,2.1.9,2.2,3.3.2,6.6.4,9.9.6,2.1,0,3-.9,3.2-2.9.6-4.2,1.3-8.5,2.1-12.7,2.3-13.2,4.8-26.4,7.1-39.7.3-1.9.9-2.6,3-2.6,3.4.1,6.7,0,10.1,0q5.2,0,6.1-5c.3-1.7.5-3.6,1-5.2.6-2.2,0-2.9-2.4-2.8-7.5.2-14.9,0-22.2,0ZM664.2,477.7c-10.1-.1-15.4,4.1-17.2,14-2.6,14.4-5.2,28.9-7.6,43.3-1.3,7.9,3.6,13.6,11.8,13.9,6,.2,5.9.2,6.8-5.6.3-1.6.7-3.2,1.1-4.8.5-1.9.3-3.2-2.2-2.8-2.8.3-3.5-1.1-3-3.7.7-3.4,1.3-6.9,1.9-10.4,1.5-8.7,3.1-17.4,4.6-26.2.4-2.1,1.3-4.2,3.6-4.1,3.4.2,3.8-1.7,4-4.2,0-1.2.4-2.4.6-3.6q1.1-5.7-4.4-5.8ZM672.7,549c9.4.5,15.8-5.2,17.4-15.2,2.3-13.8,4.7-27.6,7.2-41.3,1.5-8.6-3.4-14.6-12.2-14.6q-4.8-.1-5.6,4.4c-.3,2.2-.5,4.4-.9,6.6-.3,1.5-.2,2.3,1.7,2.2,2.3-.2,3,1,2.6,3.1-2.3,12.6-4.5,25.2-6.7,37.8-.3,1.5-.9,3.1-2.5,3.2-3.4,0-3.6,2.4-4,4.9-.3,2.2-.5,4.4-1.1,6.6-.6,2.2.3,2.5,2.1,2.3.6,0,1.3,0,2,0Z"/>
    <path class="cls-5" d="M870.6,568.5c-13.1,0-26.3.1-39.4,0-10.9-.1-16.3-5.9-14.5-16.5,4.5-26.5,9.6-52.9,14.4-79.3,1.9-10.1,8.7-15,18.2-15.1,26.9-.5,53.9-.4,80.8-.2,8.9,0,14.5,6.4,13,15.2-4.6,27.4-9.7,54.8-14.9,82.1-1.7,9.2-8.2,13.4-17.3,13.5-13.5.2-26.9,0-40.4,0v.3Z"/>
    <path class="cls-1" d="M902.6,513.3c4.3,3.3,5,7.4,4,12.1-.9,4.2-1.3,8.4-2.3,12.5-1.7,7-6.7,10.7-13.9,10.7-8.2,0-16.3,0-24.5,0-6.9,0-10.1-3.6-10.1-10.4s.9-6.4,1.3-9.6c0-1.4,1-1.5,2.1-1.5,3.4,0,6.7,0,10.1,0,2.1,0,2.3.9,2.1,2.6-.5,6-.4,6,5.8,6s6.7,0,10.1,0c2.1,0,3.1-.8,3.4-2.8.5-3.4,1-6.8,1.7-10.2.5-2.1-.3-2.9-2.3-2.8-4.2,0-8.3,0-12.4,0s-2.5-.2-1.9-2.2c.9-3.4.3-7.8,2.3-9.9,2.1-2.1,6.6-.6,10-.7,7.2-.2,6.3,1.1,7.7-6.4,1.3-7.6,1.4-7.6-6.4-7.6s-4.5.1-6.7,0c-2.8-.2-4,.9-4.4,3.7-.7,4.8-.8,4.8-5.5,4.8s-4.7-.2-7-.1c-2.4.1-2.8-1-2.3-3.1.5-2.4.9-4.8,1.5-7.2,1.9-7.2,6.8-11,14.4-11.1,7-.1,14.1,0,21.1,0s12.5,3.9,11.4,12.8c-.5,4-1.3,7.9-2.2,11.8-1.1,3.8-3.4,6.7-7.1,8.8Z"/>
    <path class="cls-1" d="M337.2,504.2c-3,3.6-4.9,7.9-7.3,11.8-3.6,6-7.2,12-10.7,18.2-1.3,2.3-2.8,3.3-5.4,3.2-6.2-.3-6.2,0-7.7-6-2.1-8.5-4.3-17.1-6.4-25.6-.2-.7-.2-1.5-1.1-2.3-1.9,10.5-3.8,20.8-5.6,31.1-.7,4-1.5,7.9-2.1,11.9-.3,1.6-1,2.2-2.7,2.1-2.6,0-5.2-.3-7.7,0-2.8.3-3.3-.7-2.8-3.3,1.9-10.7,3.8-21.5,5.7-32.3,1.9-10.8,3.8-21.7,5.6-32.5.3-1.8.9-2.4,2.8-2.3,3.5.1,6.9.1,10.4,0,1.9-.1,2.7.5,3.1,2.4,3,12.8,6.2,25.6,9.5,38.9,1.4-2.3,2.7-4.3,3.8-6.2,6.5-10.9,13.1-21.8,19.5-32.8,1-1.7,2-2.3,4-2.2,3.8.1,7.6.1,11.4,0,1.7-.1,2.1.5,1.8,2.1-3.8,22-7.7,44-11.5,66-.3,2-1.1,2.6-3.1,2.4-1.7-.2-3.4,0-5,0q-5.9,0-4.8-6c2.1-11.7,4.3-23.5,6.4-35.2.1-1.1.6-2.2,0-3.3.5.2.5-.1.5-.5s-.1-.3-.2-.5c-.1.4-.2.7-.3,1Z"/>
    <path class="cls-1" d="M221.9,548.5c-4.6,0-9,0-13.4,0-1.8,0-1.9-1.2-2.1-2.3-1.8-7.1-3.6-14.2-5.2-21.4-.5-2-1.3-2.4-3.2-2.4q-8.4,0-9.8,8c-.9,5.3-1.9,10.5-2.8,15.8-.3,1.6-.7,2.3-2.5,2.3-3.9,0-7.8,0-11.9,0,1.3-8.1,2.6-15.8,4-23.6,2.6-14.8,5.2-29.5,7.7-44.3.4-2.2,1.3-2.6,3.2-2.6,10.6.1,21.2,0,31.9.1,8.1.1,12.8,5.1,11.9,13.1-.9,7.4-2,14.9-4.4,22.1-1.3,4.1-4.2,6.6-8,7.9-2,.7-2.2,1.5-1.7,3.4,2.2,8,4.2,15.9,6.3,24ZM204.8,491.4h0c-2.7,0-5.4.1-8.1,0-1.1,0-1.8.2-2,1.6-.7,4.8-1.6,9.5-2.5,14.2-.3,1.3-.1,2.1,1.5,2.1,5-.1,10.1.1,15.1-.1,2.1-.1,3.7-1.1,4.1-3.2.8-4,1.4-7.9,2.1-11.9.4-2.1-.7-2.8-2.6-2.8-2.4.2-5,0-7.6,0Z"/>
    <path class="cls-1" d="M467.3,548.6q-7.1,0-8.9-7c-1.4-5.6-2.9-11.2-4.2-16.9-.4-1.7-1.1-2.3-2.9-2.3-8.3-.2-8.4-.3-9.9,7.9-1,5.4-2,10.7-2.9,16.2-.3,1.7-.9,2.2-2.6,2.2-2.9,0-5.8-.2-8.7,0-2.7.2-3.2-.7-2.8-3.2,2.1-11.6,4.1-23.3,6.1-35,1.7-9.8,3.6-19.5,5.1-29.3.4-2.4,1.2-3,3.6-3,10.6.1,21.3,0,31.9.1,7.6.1,12.3,4.8,11.7,12.3-.5,6-1.6,11.9-3.2,17.7-.5,2.1-.5,4.3-1.6,6.3-1.7,3.1-4,5.5-7.2,6.6-2.4.8-2.6,2.1-1.9,4.2,1.9,6.8,3.4,13.7,5.4,20.4.8,2.7-.1,3.1-2.4,2.9-1.5-.2-3.1-.1-4.6-.1ZM458,491.4h0c-2.6,0-5.1.1-7.7,0-1.8-.1-3,.9-3,2.3.2,4.6-1.3,9-1.9,13.5-.2,1.5.1,2,1.6,1.9,4.9-.1,9.8,0,14.7,0s4-1.1,4.5-3.6c.7-3.8,1.4-7.7,2.1-11.5.3-1.9-.5-2.8-2.3-2.8-2.7.2-5.4.2-8,.2Z"/>
    <path class="cls-1" d="M284,478.1c-.7,4-1.5,7.5-1.9,11.1-.2,1.9-1.1,2.3-2.8,2.3-8.6-.1-17.2.1-25.8-.1-2.2,0-3.2.5-3.5,2.8-.3,3-.9,6-1.5,8.9-.5,2.1,0,3,2.4,2.9,6.6-.1,13.2,0,19.8-.1,1.9,0,2.6.3,2.1,2.4-.6,2.3-1.2,4.6-1.1,6.9,0,3.8-1.9,4.2-5,4.1-6-.2-12.1,0-18.1,0-2.3,0-3.1.7-3.4,3-.4,3.3-.9,6.6-1.7,9.9-.7,2.7.2,3.2,2.8,3.1,8.5,0,17,0,25.5,0,2.1,0,2.7.5,2.1,2.6-.7,2.8-1.2,5.7-1.5,8.6-.2,1.8-.8,2.4-2.7,2.4-13.8,0-27.5,0-41.3,0s-1.1,0-1.7-.2c4-22.6,7.9-45.2,11.8-67.7.2-1.3.1-2.5,2.2-2.5,14.3,0,28.7,0,43.3,0Z"/>
    <path class="cls-1" d="M373.7,548.1c3.2-18.4,6.3-36.7,9.5-55,.7-4.3,1.6-8.5,2.2-12.8.3-1.7.9-2.2,2.6-2.2,13.6.1,27.2.1,40.9.1s2.4.3,1.9,2.2c-.7,3-1.3,5.9-1.5,8.9-.2,2-1.1,2.3-2.8,2.2-8.6-.1-17.2.1-25.8-.1-2.1,0-3.2.3-3.4,2.8-.3,3-.9,6-1.5,8.9-.5,2.1,0,3,2.4,3,6.2-.1,12.6.1,18.8-.1,2.6-.1,4,.1,3,3.4-.7,2.4-1.1,5-1.3,7.6-.2,2-1,2.6-3,2.6-6.6,0-13.2,0-19.8,0-2.6,0-3.2.9-3.6,3.2-.5,3.4-1.3,6.6-1.9,10-.4,2.1.4,2.8,2.6,2.8,8.6,0,17.2,0,25.8,0,2.1,0,2.8.5,2.3,2.6-.7,3-1.2,5.9-1.7,8.9-.2,1.4-.5,2.1-2.2,2.1-14.1,0-28.2,0-42.2-.2-.5-.3-.9-.5-1.3-.7Z"/>
    <path class="cls-1" d="M149.3,478.1h14.8c9.1.1,14,5.8,12.6,14.8-1,6-2.1,12.1-3.2,18.1-1.4,7.5-6.9,12.4-14.6,12.6-6.6.2-13.2,0-19.8,0-2.1,0-2.9.6-3.2,2.7-1,6.5-2.3,13-3.3,19.5-.3,2-1,2.8-3.2,2.7-3.1-.2-6.2,0-9.4,0-1.7,0-1.9-.4-1.6-2.1,3-16.6,5.7-33.2,8.6-49.7.9-5.5,2.1-10.9,2.9-16.4.3-1.7.8-2.2,2.5-2.1,5.5,0,11.2,0,16.9,0h0ZM138.7,510.3h17c2.3,0,3.7-1.1,4.1-3.2.9-4.1,1.5-8.3,2.2-12.4.4-2.5-.7-3.4-3.2-3.3-4.8.1-9.6.2-14.4,0-2.3-.1-2.8.9-3.1,2.8-.7,5.2-1.7,10.5-2.6,16.1Z"/>
    <path class="cls-1" d="M351.3,548.5c3.5-20.1,7-39.8,10.4-59.5.5-3,1.3-5.8,1.5-8.9.2-1.9,1.1-2.1,2.6-2.1,3.2.1,6.2.1,9.4,0,2-.1,2.6.6,2.1,2.5-2.8,12.6-4.3,25.4-6.9,38.1-1.8,8.9-3.2,17.9-4.4,26.8-.3,2.2-.9,3.3-3.5,3.2-3.7-.3-7.4,0-11.2,0Z"/>
    <path class="cls-4" d="M743.7,548.5c-4.4,0-8.8,0-13.2,0-1.5,0-1.9-.8-2.1-2-.8-5-3-9.5-3.7-14.6-.3-2.6-1.7-5.1-1.9-7.9,0-.5-.3-1.1-.7-1.5s-10.1-.3-10.6,0c-.7.5,0,.9,0,1.4-1.3,7.2-2.7,14.4-3.9,21.6-.3,1.9-.9,3-3.2,2.8-3.1-.2-6.2,0-9.4,0-1.7,0-1.9-.5-1.7-2.1,3-16.6,5.8-33.2,8.6-49.8.9-5.5,2.1-10.9,2.9-16.4.3-1.7.9-2.1,2.6-2.1,11.1.1,22.1-.1,33.2.1,7.3.1,12.4,6,11.3,13.2-.9,6-2.1,12.1-3.2,18.1-1.1,5.8-4.1,10.1-9.9,12-1.7.6-1.5,1.3-1.2,2.8,2.1,8,4.1,16.1,6.2,24.3ZM726.9,491.4h0c-2.7,0-5.4.1-8.1,0-1.1,0-1.9,0-2.1,1.4-.7,4.8-1.6,9.7-2.5,14.5-.3,1.5.3,1.9,1.7,1.9,4.9-.1,9.8,0,14.7,0s3.8-1.3,4.3-3.5c.8-3.8,1.4-7.7,2.1-11.5.3-2-.5-2.9-2.6-2.9-2.4.1-5,.1-7.5.1Z"/>
    <path class="cls-4" d="M555.4,548.9c-3.5,0-6.9,0-10.4,0-8.5-.2-12.9-5.2-11.9-13.6q.9-9.2,9.9-9.2,5.3,0,4.4,5.2c-.7,3.8-.3,4.4,3.6,4.4h12.1c3.2,0,4.8-1.4,5.4-4.7,1.5-9.1,1.6-9.1-7.2-11.2-4.2-1-8.6-1.7-12.7-3-8.1-2.7-11.3-7.4-9.5-15.7,1-4.3,1.3-8.7,2.8-13,2.3-6.4,6.7-10.2,13.8-10.3,7.2-.1,14.3-.1,21.5.1,7.1.1,11.3,4.6,11.3,11.7,0,9.8-.4,10.1-10,10.1h-.7q-4.6.1-3.7-4.4c.7-3.8.3-4.3-3.5-4.3s-7.6.1-11.4,0c-2.8,0-4.3,1.3-4.9,4q-1.9,8.5,6.6,10.7c4.7,1.3,9.5,1.9,14.2,3.6,7.6,2.7,10.5,7.2,8.8,15.1-.9,4.4-1.3,8.7-2.8,13-2.6,7.5-7,11.3-14.8,11.4-3.7.2-7.3,0-10.9,0h0Z"/>
    <path class="cls-4" d="M615.7,478.1c5.2,0,10.5-.1,15.8,0,8.1.1,13,5.9,11.8,13.9-.9,6-1.9,11.9-3,17.9-1.5,8.7-7.5,14-16.6,13.9-5.9,0-11.9,0-17.8,0-2.6,0-3.2.9-3.6,3.1-1.1,6.6-2.3,13.2-3.4,19.7-.3,1.5-.8,2.1-2.3,2-3.2,0-6.2-.2-9.4,0-2.3,0-2.6-.8-2.3-2.8,1.8-10.5,3.6-20.9,5.4-31.3,1.9-11.2,4-22.3,5.8-33.6.4-2.3,1.2-2.9,3.4-2.8,5.5.2,10.9,0,16.2,0h0ZM618.3,491.4h0c-2.7,0-5.4.1-8.1,0-1.1,0-1.8.1-2,1.5-.7,5.1-1.7,10.1-2.6,15.2-.3,1.4,0,2.3,1.7,2.2,5-.1,10.1,0,15.1-.1,2.2,0,3.4-1.2,4-3.3,1-4,1.3-8.1,2.7-11.9.7-2.2-.3-3.6-2.8-3.6-2.6,0-5.3,0-8,0Z"/>
    <path class="cls-4" d="M779.4,478.1c7.4,0,14.8.1,22.1-.1,2.3-.1,3,.7,2.4,2.8-.5,1.7-.7,3.5-1,5.2q-.9,5-6.1,5c-3.4,0-6.7.1-10.1,0-2-.1-2.6.6-3,2.6-2.3,13.2-4.8,26.4-7.1,39.7-.7,4.2-1.5,8.5-2.1,12.7-.3,2-1.1,3-3.2,2.9-3.3-.2-6.6-.4-9.9-.6-1.9,0-1-1.4-.9-2.2,1.4-8.6,2.9-17.2,4.4-25.8,1.5-9,3.2-18.1,4.8-27,.3-1.9-.3-2.3-2-2.2-4.4.1-8.7-.1-13.1.1-2.1.1-2.5-.7-2.1-2.6.5-2.8.9-5.7,1.3-8.6.3-1.9,1.3-2.2,3-2.1,7.5.1,15,0,22.5,0v.2Z"/>
    <path class="cls-4" d="M664.2,477.7q5.4,0,4.5,5.6c-.2,1.2-.5,2.4-.6,3.6,0,2.6-.6,4.4-4,4.2-2.3-.1-3.2,1.9-3.6,4.1-1.5,8.7-3.1,17.4-4.6,26.2-.6,3.5-1.2,6.9-1.9,10.4-.5,2.6.2,4,3,3.7,2.6-.3,2.8.9,2.2,2.8-.4,1.6-.9,3.2-1.1,4.8-.9,5.8-.8,5.8-6.8,5.6-8.3-.3-13.2-6-11.8-13.9,2.4-14.4,5-28.9,7.6-43.3,1.7-9.7,7-13.8,17.1-13.8Z"/>
    <path class="cls-4" d="M672.7,549c-.7,0-1.3,0-2,0-1.7,0-2.8,0-2.1-2.3.6-2.1.8-4.4,1.1-6.6.3-2.5.5-4.8,4-4.9,1.6,0,2.2-1.7,2.5-3.2,2.2-12.6,4.5-25.2,6.7-37.8.4-2.1-.3-3.3-2.6-3.1-1.8.1-1.9-.7-1.7-2.2.4-2.1.5-4.4.9-6.6q.7-4.5,5.6-4.4c8.9.1,13.8,6,12.2,14.6-2.4,13.8-4.9,27.6-7.2,41.3-1.7,10-8.1,15.6-17.4,15.2Z"/>
    <path class="cls-2" d="M337.2,504.2c.1-.3.2-.6.3-.9.1.1.2.3.2.5-.1.3-.1.6-.5.4-.1,0,0,0,0,0Z"/>
    <path class="cls-3" d="M204.8,491.4c2.6,0,5.2.1,7.7,0,1.9-.1,3,.7,2.6,2.8-.7,4-1.3,7.9-2.1,11.9-.4,2.1-2,3.2-4.1,3.2-5,.1-10.1,0-15.1.1-1.7,0-1.8-.8-1.5-2.1.9-4.7,1.7-9.5,2.5-14.2.2-1.3.9-1.6,2-1.6,2.7,0,5.3,0,8,0h0Z"/>
    <path class="cls-3" d="M458,491.4h8.1c1.8,0,2.7.9,2.3,2.8-.7,3.8-1.4,7.7-2.1,11.5-.5,2.5-2,3.6-4.5,3.6-4.9,0-9.8-.1-14.7,0-1.5,0-1.8-.5-1.6-1.9.6-4.5,2.1-8.9,1.9-13.5-.1-1.5,1.1-2.4,3-2.3,2.4,0,5-.2,7.6-.2h0Z"/>
    <path class="cls-3" d="M138.7,510.3c.9-5.6,1.9-10.9,2.8-16.2.3-1.9.8-2.8,3.1-2.8,4.8.2,9.6.1,14.4,0,2.5-.1,3.6.8,3.2,3.3-.7,4.2-1.3,8.3-2.2,12.4-.4,2-1.8,3.2-4.1,3.2-5.7.1-11.3.1-17.2.1Z"/>
    <path class="cls-1" d="M726.9,491.4c2.6,0,5.1.1,7.7,0,2.1-.1,2.9.9,2.6,2.9-.7,3.8-1.3,7.7-2.1,11.5-.5,2.1-1.9,3.4-4.3,3.5h-14.7c-1.5,0-2-.4-1.7-1.9.9-4.8,1.7-9.7,2.5-14.5.2-1.4,1.1-1.4,2.1-1.4,2.5-.1,5.2-.1,7.9-.1h0Z"/>
    <path class="cls-1" d="M618.3,491.4h8.1c2.5,0,3.5,1.3,2.8,3.6-1.3,3.9-1.6,8-2.7,11.9-.5,2.1-1.7,3.3-4,3.3-5,0-10.1-.1-15.1.1-1.9.1-1.9-.8-1.7-2.2.9-5,1.8-10.1,2.6-15.2.2-1.4.9-1.5,2-1.5,2.6,0,5.3,0,8,0h0Z"/>
  </g>
</svg>