<?xml version="1.0" encoding="utf-8"?>
<!-- Generator: Adobe Illustrator 28.0.0, SVG Export Plug-In . SVG Version: 6.00 Build 0)  -->
<svg version="1.1" id="Vrstva_1" xmlns="http://www.w3.org/2000/svg" xmlns:xlink="http://www.w3.org/1999/xlink" x="0px" y="0px"
	 viewBox="0 0 1024 1024" style="enable-background:new 0 0 1024 1024;" xml:space="preserve">
<style type="text/css">
	.st0{fill:#192A4E;}
	.st1{fill:#FEFEFE;}
	.st2{fill:#A20F32;}
	.st3{fill:#011635;}
	.st4{fill:#A60D3C;}
</style>
<rect y="0" class="st0" width="1024" height="1024"/>
<g>
	<path class="st0" d="M501.7,579.2c-136.6,0-273.2,0-409.7,0c-10.5,0-19.1-5.9-22.9-15.5c-1.9-4.8-1.5-9.7-0.7-14.7
		c4.1-24.4,8.4-48.8,12.2-73.3c2.2-14.2,9.1-24.1,22.8-28.9c3-1,6.2-1.4,9.4-1.4c227.2-0.4,454.3-0.9,681.5-0.2
		c46,0.1,92,0.1,138,0.3c10.1,0,17.8,4.6,22.2,13.9c2.4,5.1,2.2,10.5,1.2,16c-4.3,25.4-8.7,50.9-12.8,76.4
		c-2.6,16-15.7,27.5-31.7,27.5C774.6,579.2,638.2,579.2,501.7,579.2C501.7,579.2,501.7,579.2,501.7,579.2z M533.5,451.6
		c-148.9-0.2-286,0-423,0.5c-8.7,0-17.6,6.3-20.3,14.9c-1.8,5.6-2.4,11.5-3.5,17.2c-1.5,7.3-2.9,14.7-4.3,22.1
		c-1.3,7-2.5,14.1-3.7,21.1c-1.5,8.4-3.5,16.7-4.5,25.1c-1.3,10.4,6.7,20,17.9,20c98.5,0.3,197.1,0.5,295.6,0.9
		c174.9,0.7,349.8-0.5,524.6-0.8c9.5,0,20.5-7,22.7-19.3c4.7-26.4,9.6-52.8,14.5-79.1c2.3-12.3-5.7-22-18.2-22
		C794.7,452.1,658.1,451.1,533.5,451.6z"/>
	<path class="st1" d="M533.5,451.6c124.7-0.5,261.2,0.5,397.8,0.5c12.5,0,20.4,9.7,18.2,22c-4.9,26.4-9.8,52.7-14.5,79.1
		c-2.2,12.4-13.2,19.3-22.7,19.3c-174.9,0.3-349.8,1.5-524.6,0.8c-98.5-0.4-197.1-0.6-295.6-0.9c-11.2,0-19.2-9.6-17.9-20
		c1.1-8.4,3-16.7,4.5-25.1c1.3-7,2.4-14.1,3.7-21.1c1.4-7.4,2.8-14.7,4.3-22.1c1.2-5.7,1.7-11.6,3.5-17.2
		c2.7-8.6,11.5-14.9,20.3-14.9C247.5,451.6,384.5,451.4,533.5,451.6z M502.8,569.5c1.1,0,2.2,0.1,3.4,0.1
		c21.7-0.1,43.4-0.1,65.2-0.2c82.1-0.4,164.2-0.8,246.4-1.2c0.5,0,1.1,0.3,1.5-0.6c-5.1-5.2-6.3-11.4-4.9-18.6
		c4.2-22.1,8.1-44.3,12.3-66.4c1.8-9.2,1.7-19.3,11.1-26.1c-1.6,0-2.3,0-3.1,0c-92.5-0.1-185-0.3-277.5-0.4
		c-11.1,0-22.3,0.1-33.4,0.1c-0.9,0-1.9-0.1-2.8-0.1c-136.5,0.1-272.9,0.3-409.4,0.4c-8.8,0-16.2,6.2-17.8,14.9
		c-4.9,26.5-9.6,52.9-14.6,79.4c-2,10.2,5.9,17.4,14.2,17.3c33-0.1,65.9,0.5,98.9,0.7c102.9,0.6,205.9,1,308.8,0.8
		C501.5,569.6,502.1,569.5,502.8,569.5z M852,549c15.7,0,31.4,0,47.1,0c1.2,0,1.6-0.5,1.7-1.6c0.4-3.2,0.9-6.3,1.6-9.4
		c0.4-1.9-0.1-2.4-2-2.4c-8.4,0.1-16.8,0-25.3,0c-2.1,0-4.9,0.6-5.9-0.5c-1.1-1.1,0.4-3.8,0.6-5.8c0.2-2.4,1-4.1,3.5-4.8
		c2.2-0.6,4.4-1.4,6.6-2.2c6.6-2.4,13.4-3.9,19.6-7.4c4.8-2.7,8.2-6.4,9-12.2c0.5-3.3,1.3-6.6,1.8-10c1.3-8.6-4.1-15-12.7-15.1
		c-6.1,0-12.2,0-18.3,0c-4.1,0-7.6,1.4-10.8,4c-5.2,4.4-5.4,10.6-6.6,16.6c-0.2,1.2,0.7,1.1,1.4,1.1c2.8,0,5.6-0.1,8.4,0.2
		c3.3,0.4,4.6-0.7,5-4c0.4-3.4,1.9-4.4,5.3-4.5c3.6,0,7.1,0.1,10.7-0.1c2.4-0.1,3,1.1,2.9,3.3c-0.7,9.3-0.9,9.7-9.6,12.6
		c-0.2,0.1-0.4,0.1-0.5,0.1c-6.7,2.5-13.8,4-20.1,7.4c-5.5,3-8.9,7.3-9.7,13.9C854.7,535,853.3,541.7,852,549z"/>
	<path class="st0" d="M502.8,569.5c-0.7,0-1.3,0.1-2,0.1c-102.9,0.2-205.9-0.2-308.8-0.8c-33-0.2-65.9-0.8-98.9-0.7
		c-8.2,0-16.1-7.1-14.2-17.3c5.1-26.4,9.8-52.9,14.6-79.4c1.6-8.7,9-14.8,17.8-14.9c136.5-0.1,272.9-0.3,409.4-0.4
		c0.9,0,1.9,0.1,2.8,0.1c-0.4,1.8-0.9,3.6-1.2,5.5c-1.7,9.3-3.2,18.6-4.9,27.9c-2.1,11.2-4.2,22.5-6.3,33.7
		C508.4,538.7,505.6,554.1,502.8,569.5z M314.4,520.3c-0.9-3.4-1.6-6.3-2.3-9.2c-2.4-10-4.9-20-7.3-30c-0.5-2.1-1.3-2.8-3.5-2.7
		c-2.9,0.2-5.8,0.3-8.7,0c-2.9-0.3-3.7,0.9-4.1,3.6c-1.4,9.3-3.2,18.6-4.8,27.9c-2.1,12.2-4.3,24.4-6.4,36.6
		c-0.3,1.6-0.2,2.5,1.9,2.4c3-0.2,6-0.2,9,0c1.6,0.1,2-0.6,2.2-2c0.6-3.7,1.3-7.4,2-11.1c2-11,3.9-22,5.9-33.2
		c0.8,0.4,0.8,0.9,0.9,1.5c2.2,9.1,4.4,18.1,6.7,27.2c0.5,2.1,0.1,5.1,2.1,6c1.8,0.9,4.4,0.1,6.7,0.3c1.6,0.1,2.7-0.3,3.6-1.9
		c4.9-8.5,9.8-17,14.8-25.5c1.3-2.3,2.7-4.5,4.1-6.8c0.2,0.1,0.5,0.2,0.7,0.3c-2.7,15-5.3,30-8,45.1c3.8,0,7.5-0.1,11.1,0
		c1.5,0,2-0.3,2.3-1.9c2.1-12.5,4.4-24.9,6.5-37.4c1.6-9.1,3.1-18.3,4.8-27.4c0.6-3.6,0.7-3.6-2.8-3.6c-3.3,0-6.6,0.1-9.8,0
		c-1.9-0.1-3,0.5-4,2.2C330.4,493.6,322.6,506.6,314.4,520.3z M474.7,548.7c-2.1-8.3-4.2-16.2-6.3-24.2c-0.4-1.6-0.3-2.4,1.5-3
		c5.7-1.8,8.6-6.1,9.7-11.7c1.1-5.6,2-11.3,3-16.9c1.5-8.8-3.1-14.5-11.9-14.6c-10.8-0.1-21.5,0-32.3-0.1c-1.6,0-2.1,0.6-2.3,2
		c-1,6.1-2.3,12.1-3.3,18.2c-1.6,10-3.4,20-5.1,29.9c-1,5.9-2.2,11.8-3.3,17.8c-0.3,1.6-0.2,2.7,2.1,2.6c3.1-0.2,6.2-0.2,9.3,0
		c1.9,0.1,2.6-0.6,2.9-2.3c1.1-6.8,2.4-13.7,3.5-20.5c0.4-2.3,0.9-3.8,3.7-3.3c1.8,0.3,3.8,0.2,5.6,0c2-0.2,2.7,0.6,3.1,2.4
		c1.6,7.2,3.5,14.3,5.2,21.5c0.4,1.5,0.9,2.3,2.7,2.2C466.3,548.6,470.3,548.7,474.7,548.7z M221.5,548.7c-2.1-8.2-4-16.3-6.2-24.3
		c-0.6-2,0.1-2.4,1.6-2.9c4.4-1.5,7.2-4.5,8.8-8.8c1.1-3,1.5-6.2,2-9.3c0.8-5.1,2.5-10.1,2-15.3c-0.4-4.9-4.3-9-9.2-9.4
		c-11.9-0.8-23.8-0.1-35.6-0.4c-1.4,0-1.7,0.6-1.9,1.8c-1,5.9-2,11.8-3.1,17.7c-2.9,16.3-5.7,32.7-8.6,49c-0.2,1.3-0.1,1.9,1.5,1.8
		c3.5-0.1,6.9-0.1,10.4,0c1.3,0,1.9-0.3,2.1-1.8c1.2-7.4,2.6-14.8,3.8-22.2c0.3-1.6,0.8-2.3,2.5-2.2c2.3,0.1,4.7,0.1,7,0
		c1.6-0.1,2.2,0.3,2.6,2c1.7,7.4,3.7,14.7,5.4,22.1c0.3,1.5,0.8,2,2.3,2C212.9,548.7,217.1,548.7,221.5,548.7z M273.6,535.7
		c-9.4,0-18.8-0.1-28.2,0c-2.1,0-2.9-0.3-2.4-2.6c0.8-3.8,1.6-7.5,2-11.4c0.2-2.4,1.3-2.6,3.2-2.5c6.7,0.1,13.5,0,20.2,0.1
		c1.8,0,2.5-0.5,2.7-2.2c0.3-2.8,0.8-5.6,1.5-8.3c0.5-2,0.2-2.6-2-2.5c-6.7,0.1-13.5-0.1-20.2,0.1c-2.4,0.1-2.6-0.8-2.2-2.7
		c0.6-3.1,1.2-6.3,1.7-9.4c0.3-1.9,0.9-2.8,3.1-2.7c8.8,0.2,17.6,0.1,26.4,0c0.9,0,2.1,0.6,2.4-1.1c0.5-3.5,1.1-7,1.8-10.5
		c0.3-1.3-0.2-1.6-1.4-1.6c-14,0-27.9,0-41.9,0c-1.1,0-1.5,0.3-1.8,1.5c-2.1,10.7-4,21.5-5.9,32.3c-2,11.5-3.8,23.1-6,34.6
		c-0.3,1.7,0.2,1.9,1.6,1.9c14,0,27.9,0,41.9,0c1.1,0,1.5-0.2,1.8-1.5C272.5,543.5,273.2,539.8,273.6,535.7z M420.8,535.7
		c-2,0-3.7,0-5.3,0c-7.6,0-15.2-0.1-22.8,0.1c-2.2,0-3.2-0.1-2.6-2.8c0.9-3.8,1.4-7.7,2-11.6c0.2-1.6,0.9-2.1,2.5-2.1
		c6.9,0.1,13.9-0.1,20.8,0.1c2,0.1,2.5-0.7,2.8-2.4c0.4-2.9,0.7-5.8,1.5-8.6c0.6-2.1-0.2-2.1-1.8-2.1c-6.8,0.1-13.7-0.1-20.5,0.1
		c-2.2,0.1-2.6-0.5-2.2-2.6c0.7-3,1.4-6.1,1.6-9.1c0.2-2.7,1.3-3.1,3.7-3.1c8.7,0.1,17.4,0,26.1,0.1c1.3,0,2.1-0.1,2.3-1.6
		c0.5-3.2,1.1-6.5,1.7-9.7c0.2-1.2,0.2-1.9-1.4-1.9c-14,0.1-28.1,0-42.2,0c-1.1,0-1.6,0.1-1.6,1.5c0,2.1-0.6,4.3-0.9,6.4
		c-3.5,20.2-7,40.5-10.6,60.7c-0.2,1.4-0.2,1.7,1.3,1.7c14-0.1,27.9,0,41.9,0c0.8,0,1.6,0.1,1.8-1.2
		C419.5,543.7,420.2,539.9,420.8,535.7z M117.8,548.7c3.9,0,7.6-0.2,11.2,0.1c2.1,0.1,2.9-0.6,3.2-2.6c1.1-6.8,2.4-13.5,3.4-20.3
		c0.3-1.7,0.9-2.1,2.5-2.1c6.8,0.1,13.7,0.1,20.5,0c7-0.1,12.6-4.5,14.1-11.4c1.4-6.2,2.4-12.5,3.5-18.8c1.7-9.7-2.9-15.2-12.7-15.2
		c-10.3,0-20.6,0.1-30.9-0.1c-2.3,0-2.8,0.8-3.1,2.8C125.7,503.6,121.8,526,117.8,548.7z M358.4,548.7c1.7,0,3.4-0.1,5,0
		c1.4,0.1,1.9-0.3,2.2-1.8c3.8-22.2,7.7-44.5,11.6-66.7c0.2-1.2,0.2-1.9-1.4-1.9c-3.6,0.1-7.1,0.1-10.7,0c-1.5-0.1-2.1,0.8-2.1,1.9
		c0,1.2-0.5,2.4-0.6,3.5c-2.9,19.7-6.7,39.3-10.1,59c-1,6-1.1,5.9,4.9,5.9C357.6,548.7,358,548.7,358.4,548.7z"/>
	<path class="st2" d="M502.8,569.5c2.8-15.4,5.6-30.8,8.4-46.1c2.1-11.2,4.2-22.5,6.3-33.7c1.7-9.3,3.3-18.6,4.9-27.9
		c0.3-1.8,0.8-3.7,1.2-5.5c11.1-0.1,22.3-0.2,33.4-0.1c92.5,0.1,185,0.2,277.5,0.4c0.7,0,1.5,0,3.1,0c-9.4,6.8-9.3,16.8-11.1,26.1
		c-4.2,22.1-8.1,44.3-12.3,66.4c-1.4,7.2-0.2,13.4,4.9,18.6c-0.3,0.9-1,0.6-1.5,0.6c-82.1,0.4-164.2,0.8-246.4,1.2
		c-21.7,0.1-43.4,0.1-65.2,0.2C505,569.6,503.9,569.5,502.8,569.5z M735.8,548.7c2.1,0,3.8-0.1,5.5,0c2,0.2,2.1-0.5,1.6-2.2
		c-2-7.3-3.8-14.7-5.8-22c-0.4-1.5-0.3-2.4,1.4-2.9c5.5-1.8,8.6-5.8,9.7-11.4c1.2-6,2.3-12,3.3-18c0.3-1.8,0.3-3.7-0.2-5.6
		c-1.5-5.3-5.6-8.2-12.2-8.2c-10.2,0-20.4,0.1-30.6-0.1c-2.9-0.1-3.5,1-3.9,3.5c-1.7,10.5-3.6,20.9-5.4,31.4
		c-1.9,11.1-3.9,22.2-5.8,33.3c-0.3,1.7-0.1,2.5,1.9,2.4c3.1-0.2,6.2-0.2,9.3,0c1.7,0.1,2.4-0.4,2.7-2.2c0.8-5.1,1.8-10.2,2.7-15.2
		c0.5-2.8-0.1-6.8,1.9-8.2c2.1-1.4,5.8-0.3,8.7-0.5c1.7-0.1,2.2,0.7,2.6,2.1c1.3,5.7,2.7,11.3,4.1,16.9c0.6,2.3,0.5,5.2,2,6.6
		C730.8,549.7,733.8,548.5,735.8,548.7z M573.2,500c2,0,3.9,0,5.7,0c2.4,0,5.4,0.8,7.1-0.3c1.9-1.3,1.3-4.6,1.8-7.1
		c1.7-8.5-3.2-14.5-11.8-14.5c-6.8,0-13.7-0.1-20.5,0c-7.1,0.1-12.8,4.6-14.4,11.5c-1.1,4.8-1.8,9.6-2.5,14.4
		c-0.7,4.5,1.1,7.9,4.7,10.4c2.2,1.6,4.6,2.4,7.2,3c5.5,1.3,11.1,2.6,16.6,3.8c1.7,0.4,2.8,1.1,2.5,3c-0.5,2.8-0.9,5.6-1.5,8.3
		c-0.4,2.1-1.8,3.3-3.9,3.3c-5.1,0-10.1,0.1-15.2,0.1c-1.8,0-2.5-0.9-2.2-2.7c0.3-1.8,0.4-3.6,0.9-5.3c0.3-1.3,0-1.7-1.3-1.6
		c-3.5,0.1-6.9,0-10.4,0c-1.2,0-1.6,0.5-1.8,1.6c-0.4,2.8-0.9,5.6-1.3,8.4c-1,7.3,4.1,12.8,11.4,12.8c7.4,0,14.8,0.1,22.2,0
		c7.5-0.1,13.3-5.2,14.7-12.6c0.9-4.7,1.7-9.4,2.5-14.1c0.6-3.2-0.3-6.1-2.5-8.6c-2.7-3-6.3-4.3-10.1-5.2
		c-5.2-1.2-10.4-2.4-15.6-3.5c-2.5-0.5-3.5-1.8-2.8-4.4c0.5-1.8,0.7-3.7,1-5.5c0.4-2.7,1.9-4.2,4.7-4.2c4.4,0,8.8,0,13.2,0
		c1.9,0,2.8,0.8,2.5,2.8C573.9,495.8,573.6,497.8,573.2,500z M615.7,478.4c-5.6,0-11.2,0-16.9,0c-1.5,0-2,0.3-2.3,1.9
		c-2.7,15.9-5.5,31.8-8.3,47.7c-1.1,6.2-2,12.4-3.5,18.5c-0.6,2.3-0.1,2.5,1.9,2.6c3.3,0.2,6.5-0.7,9.7-0.5c1.6,0.1,2.2-0.4,2.5-2.1
		c1-6.8,2.3-13.5,3.4-20.3c0.3-1.8,0.9-2.7,3-2.6c6.6,0.2,13.3,0.1,19.9,0.1c7.4-0.1,13.2-5,14.6-12.3c1.1-6,2.2-12,3.3-18
		c1.6-9.3-3.3-15.1-12.8-15.1C625.4,478.4,620.6,478.4,615.7,478.4z M752.4,491.3c5.4,0,10.5,0.1,15.7,0c1.7,0,2.2,0.3,1.9,2.2
		c-1.6,8.6-3.1,17.2-4.6,25.9c-1.6,9.4-3.2,18.8-4.9,28.1c-0.3,1.5,0.2,1.6,1.5,1.7c3,0.2,6-0.8,8.9-0.5c2.9,0.4,3.5-0.9,3.9-3.4
		c1.7-10.4,3.6-20.9,5.5-31.3c1.2-6.7,2.3-13.4,3.7-20.1c0.6-3.1,1.7-2.6,3.4-2.6c4.3-0.1,8.6,0,12.9,0c0.9,0,1.9,0.3,2.1-1.2
		c0.5-3.2,1.1-6.5,1.7-9.7c0.3-1.6-0.2-2.1-1.9-2.1c-15.2,0.1-30.3,0-45.5,0c-1.3,0-2,0.2-2.2,1.7
		C753.8,483.8,753.1,487.4,752.4,491.3z M669.5,478.1c-2.5,0-4.8,0-7,0c-8.2-0.2-13.8,5.2-15.2,12.6c-2.8,14.9-5.3,29.7-7.9,44.6
		c-1.2,7.3,2.8,12.9,9.7,13.8c2.2,0.3,4.5,0,6.7,0.1c1.3,0.1,1.3-0.7,1.4-1.5c0.5-3.1,0.9-6.3,1.7-9.4c0.5-2-0.2-2.1-1.8-2.2
		c-3.7,0-4-0.4-3.4-3.9c2.1-12.2,4.2-24.4,6.4-36.6c0.6-3.4,1.9-4.5,5.3-4.5c1.5,0,1.8-0.7,2-1.9C668.2,485.6,668.9,482,669.5,478.1
		z M672.7,549.2c9.7,0,15.1-4.4,16.9-14.1c2.6-14.2,5.1-28.4,7.4-42.6c0.6-3.4,0.6-6.9-1.8-9.9c-3-3.7-9.3-5.9-13.9-4.5
		c-0.9,0.3-0.9,0.8-1,1.5c-0.5,3.1-1.1,6.1-1.6,9.1c-0.3,1.5-0.3,2.7,1.9,2.4c1.8-0.2,2.8,0.8,2.5,2.8c-2.2,12.7-4.5,25.5-6.7,38.2
		c-0.3,1.7-1.1,3.6-3,3.6c-2.9,0-3.3,1.7-3.5,3.9c-0.2,1.8-0.5,3.5-0.8,5.3C668.3,549.2,668.3,549.2,672.7,549.2z"/>
	<path class="st0" d="M852,549c1.3-7.3,2.8-13.9,3.6-20.7c0.8-6.5,4.2-10.9,9.7-13.9c6.4-3.4,13.4-5,20.1-7.4
		c0.2-0.1,0.4-0.1,0.5-0.1c8.7-2.9,8.9-3.2,9.6-12.6c0.2-2.1-0.4-3.3-2.9-3.3c-3.6,0.1-7.1,0-10.7,0.1c-3.4,0-5,1.1-5.3,4.5
		c-0.4,3.4-1.7,4.4-5,4c-2.8-0.3-5.6-0.2-8.4-0.2c-0.8,0-1.6,0.1-1.4-1.1c1.1-5.9,1.4-12.2,6.6-16.6c3.1-2.7,6.7-4,10.8-4
		c6.1,0,12.2,0,18.3,0c8.6,0,14,6.5,12.7,15.1c-0.5,3.3-1.3,6.6-1.8,10c-0.8,5.7-4.3,9.4-9,12.2c-6.1,3.5-13,5-19.6,7.4
		c-2.2,0.8-4.4,1.6-6.6,2.2c-2.5,0.7-3.3,2.4-3.5,4.8c-0.1,2-1.7,4.7-0.6,5.8c1.1,1.1,3.9,0.5,5.9,0.5c8.4,0,16.9,0.1,25.3,0
		c1.9,0,2.4,0.5,2,2.4c-0.7,3.1-1.2,6.3-1.6,9.4c-0.2,1.2-0.5,1.6-1.7,1.6C883.3,548.9,867.6,549,852,549z"/>
	<path class="st1" d="M314.4,520.3c8.1-13.6,15.9-26.6,23.6-39.7c1-1.7,2.1-2.3,4-2.2c3.3,0.1,6.6,0,9.8,0c3.5,0,3.4,0,2.8,3.6
		c-1.6,9.1-3.2,18.3-4.8,27.4c-2.2,12.5-4.4,24.9-6.5,37.4c-0.3,1.6-0.8,1.9-2.3,1.9c-3.6-0.1-7.3,0-11.1,0
		c2.7-15.2,5.4-30.2,8-45.1c-0.2-0.1-0.5-0.2-0.7-0.3c-1.4,2.3-2.7,4.5-4.1,6.8c-5,8.5-9.9,16.9-14.8,25.5c-0.9,1.6-1.9,2-3.6,1.9
		c-2.2-0.1-4.8,0.6-6.7-0.3c-2-0.9-1.5-3.9-2.1-6c-2.3-9-4.5-18.1-6.7-27.2c-0.1-0.5-0.2-1.1-0.9-1.5c-2,11.1-3.9,22.1-5.9,33.2
		c-0.7,3.7-1.4,7.4-2,11.1c-0.2,1.4-0.6,2-2.2,2c-3-0.2-6-0.2-9,0c-2.1,0.1-2.2-0.7-1.9-2.4c2.2-12.2,4.3-24.4,6.4-36.6
		c1.6-9.3,3.3-18.6,4.8-27.9c0.4-2.7,1.2-3.9,4.1-3.6c2.9,0.3,5.8,0.2,8.7,0c2.1-0.1,3,0.6,3.5,2.7c2.3,10,4.8,20,7.3,30
		C312.9,513.9,313.6,516.8,314.4,520.3z"/>
	<path class="st1" d="M474.7,548.7c-4.4,0-8.4-0.1-12.4,0.1c-1.9,0.1-2.4-0.7-2.7-2.2c-1.7-7.2-3.5-14.3-5.2-21.5
		c-0.4-1.8-1.1-2.7-3.1-2.4c-1.8,0.2-3.8,0.3-5.6,0c-2.8-0.4-3.4,1-3.7,3.3c-1.1,6.9-2.4,13.7-3.5,20.5c-0.3,1.8-1,2.4-2.9,2.3
		c-3.1-0.2-6.2-0.2-9.3,0c-2.2,0.2-2.4-1-2.1-2.6c1.1-5.9,2.3-11.8,3.3-17.8c1.7-10,3.5-19.9,5.1-29.9c1-6.1,2.2-12.1,3.3-18.2
		c0.2-1.4,0.8-2,2.3-2c10.8,0.1,21.5,0,32.3,0.1c8.8,0.1,13.4,5.8,11.9,14.6c-1,5.6-1.8,11.3-3,16.9c-1.1,5.6-4,9.9-9.7,11.7
		c-1.8,0.6-1.9,1.4-1.5,3C470.5,532.5,472.6,540.5,474.7,548.7z M454.2,509.7c2.4,0,4.9,0,7.3,0c2.6,0,4.3-1.1,4.8-3.7
		c0.7-3.9,1.5-7.9,2.1-11.8c0.3-1.7-0.3-2.7-2.2-2.6c-5.5,0.1-11,0-16.6,0c-1.2,0-1.8,0.3-2.1,1.6c-0.8,5-1.6,10-2.6,15
		c-0.3,1.4,0.1,1.6,1.3,1.6C449,509.7,451.6,509.7,454.2,509.7z"/>
	<path class="st1" d="M221.5,548.7c-4.4,0-8.5-0.1-12.6,0c-1.5,0-2-0.5-2.3-2c-1.7-7.4-3.7-14.7-5.4-22.1c-0.4-1.7-1-2.1-2.6-2
		c-2.3,0.1-4.7,0.1-7,0c-1.7-0.1-2.2,0.5-2.5,2.2c-1.2,7.4-2.6,14.8-3.8,22.2c-0.2,1.5-0.8,1.8-2.1,1.8c-3.5-0.1-6.9-0.1-10.4,0
		c-1.5,0.1-1.7-0.6-1.5-1.8c2.9-16.3,5.8-32.7,8.6-49c1-5.9,2.1-11.8,3.1-17.7c0.2-1.2,0.5-1.9,1.9-1.8c11.9,0.2,23.8-0.4,35.6,0.4
		c4.9,0.3,8.7,4.4,9.2,9.4c0.5,5.2-1.2,10.2-2,15.3c-0.5,3.1-0.9,6.3-2,9.3c-1.6,4.3-4.4,7.4-8.8,8.8c-1.5,0.5-2.2,0.9-1.6,2.9
		C217.5,532.4,219.4,540.5,221.5,548.7z M201,509.7C201,509.7,201,509.7,201,509.7c2.5,0,5,0,7.6,0c2.7,0,4.2-1.4,4.7-3.9
		c0.8-3.9,1.3-7.7,2-11.6c0.3-1.8-0.3-2.7-2.2-2.7c-5.6,0-11.2,0-16.8,0c-1.1,0-1.6,0.2-1.8,1.5c-0.8,5-1.7,9.9-2.7,14.9
		c-0.2,1.3,0,1.9,1.5,1.8C195.9,509.7,198.5,509.7,201,509.7z"/>
	<path class="st1" d="M273.6,535.7c-0.3,4-1.1,7.8-1.8,11.6c-0.2,1.2-0.6,1.5-1.8,1.5c-14,0-27.9,0-41.9,0c-1.4,0-1.9-0.2-1.6-1.9
		c2.2-11.5,4-23.1,6-34.6c1.9-10.8,3.7-21.6,5.9-32.3c0.2-1.2,0.6-1.5,1.8-1.5c14,0,27.9,0,41.9,0c1.2,0,1.7,0.2,1.4,1.6
		c-0.7,3.5-1.2,7-1.8,10.5c-0.3,1.7-1.5,1.1-2.4,1.1c-8.8,0-17.6,0.1-26.4,0c-2.2,0-2.9,0.8-3.1,2.7c-0.5,3.2-1,6.3-1.7,9.4
		c-0.4,1.9-0.2,2.8,2.2,2.7c6.7-0.2,13.5,0,20.2-0.1c2.1,0,2.5,0.6,2,2.5c-0.7,2.7-1.1,5.5-1.5,8.3c-0.2,1.8-0.9,2.3-2.7,2.2
		c-6.7-0.1-13.5,0-20.2-0.1c-1.9,0-3,0.1-3.2,2.5c-0.4,3.8-1.2,7.6-2,11.4c-0.5,2.3,0.3,2.6,2.4,2.6
		C254.8,535.7,264.1,535.7,273.6,535.7z"/>
	<path class="st1" d="M420.8,535.7c-0.7,4.1-1.4,8-1.9,11.8c-0.2,1.3-1,1.2-1.8,1.2c-14,0-27.9,0-41.9,0c-1.5,0-1.5-0.3-1.3-1.7
		c3.6-20.2,7.1-40.5,10.6-60.7c0.4-2.1,0.9-4.3,0.9-6.4c0-1.4,0.5-1.5,1.6-1.5c14.1,0,28.1,0,42.2,0c1.6,0,1.6,0.7,1.4,1.9
		c-0.6,3.2-1.2,6.5-1.7,9.7c-0.2,1.5-1,1.6-2.3,1.6c-8.7,0-17.4,0.1-26.1-0.1c-2.4,0-3.5,0.4-3.7,3.1c-0.2,3.1-0.9,6.1-1.6,9.1
		c-0.5,2.1-0.1,2.7,2.2,2.6c6.8-0.2,13.7,0,20.5-0.1c1.6,0,2.4,0,1.8,2.1c-0.8,2.8-1.1,5.7-1.5,8.6c-0.2,1.7-0.8,2.5-2.8,2.4
		c-6.9-0.2-13.9,0-20.8-0.1c-1.7,0-2.3,0.5-2.5,2.1c-0.6,3.9-1.1,7.8-2,11.6c-0.6,2.7,0.4,2.8,2.6,2.8c7.6-0.1,15.2-0.1,22.8-0.1
		C417.2,535.7,418.9,535.7,420.8,535.7z"/>
	<path class="st1" d="M117.8,548.7c3.9-22.7,7.9-45.2,11.7-67.6c0.3-1.9,0.8-2.8,3.1-2.8c10.3,0.2,20.6,0.1,30.9,0.1
		c9.7,0,14.4,5.6,12.7,15.2c-1.1,6.3-2.1,12.6-3.5,18.8c-1.5,6.9-7.2,11.3-14.1,11.4c-6.8,0.1-13.7,0.1-20.5,0
		c-1.6,0-2.2,0.4-2.5,2.1c-1,6.8-2.3,13.5-3.4,20.3c-0.3,2-1.1,2.7-3.2,2.6C125.4,548.6,121.8,548.7,117.8,548.7z M151.5,491.6
		c-2.7,0-5.4,0-8.1,0c-1,0-1.8,0-2,1.3c-0.9,5.4-1.9,10.8-2.9,16.3c-0.2,1,0,1.7,1.4,1.7c5.2-0.1,10.5,0,15.7-0.1
		c2.2,0,3.8-1.2,4.3-3.4c0.9-4.3,1.6-8.7,2.3-13c0.3-2-0.3-3-2.5-2.9C156.9,491.7,154.2,491.6,151.5,491.6z"/>
	<path class="st1" d="M358.4,548.7c-0.4,0-0.7,0-1.1,0c-6.1,0-6,0-4.9-5.9c3.4-19.7,7.2-39.2,10.1-59c0.2-1.2,0.6-2.3,0.6-3.5
		c0-1.1,0.6-2,2.1-1.9c3.5,0.1,7.1,0.1,10.7,0c1.6,0,1.6,0.7,1.4,1.9c-3.9,22.2-7.8,44.5-11.6,66.7c-0.3,1.5-0.8,1.9-2.2,1.8
		C361.7,548.7,360,548.7,358.4,548.7z"/>
	<path class="st1" d="M735.8,548.7c-2-0.2-5,1-6.6-0.5c-1.4-1.3-1.4-4.3-2-6.6c-1.4-5.6-2.8-11.3-4.1-16.9c-0.3-1.5-0.9-2.3-2.6-2.1
		c-3,0.2-6.7-0.9-8.7,0.5c-2,1.3-1.4,5.3-1.9,8.2c-0.9,5.1-1.9,10.1-2.7,15.2c-0.3,1.8-1,2.3-2.7,2.2c-3.1-0.1-6.2-0.2-9.3,0
		c-2,0.1-2.2-0.7-1.9-2.4c2-11.1,3.9-22.2,5.8-33.3c1.8-10.4,3.7-20.9,5.4-31.4c0.4-2.4,1-3.6,3.9-3.5c10.2,0.3,20.4,0.1,30.6,0.1
		c6.6,0,10.7,2.9,12.2,8.2c0.5,1.9,0.5,3.8,0.2,5.6c-1,6-2.1,12-3.3,18c-1.1,5.5-4.2,9.6-9.7,11.4c-1.7,0.5-1.8,1.4-1.4,2.9
		c1.9,7.3,3.8,14.7,5.8,22c0.5,1.7,0.3,2.4-1.6,2.2C739.6,548.6,737.9,548.7,735.8,548.7z M723,509.8C723,509.8,723,509.8,723,509.8
		c2.5,0,5,0,7.6,0c2.2,0,3.9-0.9,4.4-3.1c0.9-4.2,1.6-8.4,2.3-12.6c0.3-1.6-0.3-2.5-2.1-2.5c-5.6,0-11.2,0-16.8,0
		c-1.2,0-1.7,0.4-1.8,1.5c-0.8,5-1.7,10-2.6,14.9c-0.3,1.7,0.5,1.8,1.8,1.8C718.1,509.7,720.6,509.8,723,509.8z"/>
	<path class="st1" d="M573.2,500c0.4-2.2,0.7-4.2,1-6.2c0.3-1.9-0.5-2.8-2.5-2.8c-4.4,0-8.8,0-13.2,0c-2.8,0-4.3,1.5-4.7,4.2
		c-0.3,1.9-0.5,3.7-1,5.5c-0.7,2.6,0.3,3.9,2.8,4.4c5.2,1.1,10.4,2.3,15.6,3.5c3.8,0.9,7.3,2.2,10.1,5.2c2.2,2.4,3.1,5.3,2.5,8.6
		c-0.8,4.7-1.6,9.4-2.5,14.1c-1.4,7.4-7.3,12.5-14.7,12.6c-7.4,0.1-14.8,0-22.2,0c-7.2,0-12.3-5.5-11.4-12.8
		c0.4-2.8,0.9-5.6,1.3-8.4c0.1-1.1,0.6-1.7,1.8-1.6c3.5,0,6.9,0.1,10.4,0c1.3,0,1.6,0.3,1.3,1.6c-0.4,1.7-0.5,3.5-0.9,5.3
		c-0.3,1.8,0.3,2.7,2.2,2.7c5.1,0,10.1,0,15.2-0.1c2.2,0,3.5-1.2,3.9-3.3c0.5-2.8,1-5.5,1.5-8.3c0.3-2-0.9-2.6-2.5-3
		c-5.5-1.3-11.1-2.5-16.6-3.8c-2.6-0.6-5-1.5-7.2-3c-3.6-2.6-5.4-6-4.7-10.4c0.7-4.8,1.4-9.7,2.5-14.4c1.6-6.9,7.3-11.5,14.4-11.5
		c6.8-0.1,13.7,0,20.5,0c8.6,0,13.5,6,11.8,14.5c-0.5,2.4,0.1,5.8-1.8,7.1c-1.7,1.1-4.7,0.3-7.1,0.3C577.1,500,575.2,500,573.2,500z
		"/>
	<path class="st1" d="M615.7,478.4c4.9,0,9.7,0,14.6,0c9.5,0,14.4,5.8,12.8,15.1c-1,6-2.2,12-3.3,18c-1.4,7.3-7.2,12.2-14.6,12.3
		c-6.6,0.1-13.3,0.1-19.9-0.1c-2.1-0.1-2.7,0.8-3,2.6c-1.1,6.8-2.4,13.5-3.4,20.3c-0.3,1.7-0.8,2.2-2.5,2.1
		c-3.3-0.2-6.5,0.7-9.7,0.5c-2-0.1-2.4-0.3-1.9-2.6c1.5-6.1,2.4-12.3,3.5-18.5c2.8-15.9,5.6-31.8,8.3-47.7c0.3-1.6,0.8-2,2.3-1.9
		C604.4,478.4,610.1,478.4,615.7,478.4z M614.5,510.9C614.5,510.9,614.5,510.9,614.5,510.9c2.3,0,4.7,0,7,0c3.4,0,4.9-1.3,5.5-4.7
		c0.7-3.9,1.3-7.8,2-11.6c0.4-2.1-0.3-3-2.4-3c-5.4,0-10.8,0.1-16.2,0c-1.6,0-2.1,0.6-2.3,2c-0.9,5.3-1.7,10.5-2.7,15.8
		c-0.3,1.3,0.1,1.7,1.3,1.6C609.2,510.8,611.8,510.9,614.5,510.9z"/>
	<path class="st1" d="M752.4,491.3c0.7-3.9,1.4-7.6,1.9-11.3c0.2-1.5,0.9-1.7,2.2-1.7c15.2,0,30.3,0,45.5,0c1.7,0,2.1,0.5,1.9,2.1
		c-0.6,3.2-1.2,6.5-1.7,9.7c-0.2,1.5-1.2,1.2-2.1,1.2c-4.3,0-8.6,0-12.9,0c-1.7,0-2.8-0.5-3.4,2.6c-1.3,6.7-2.4,13.4-3.7,20.1
		c-1.9,10.4-3.8,20.8-5.5,31.3c-0.4,2.5-1,3.8-3.9,3.4c-2.9-0.4-5.9,0.7-8.9,0.5c-1.3-0.1-1.8-0.2-1.5-1.7
		c1.7-9.4,3.2-18.7,4.9-28.1c1.5-8.6,3-17.3,4.6-25.9c0.4-1.9-0.1-2.2-1.9-2.2C762.9,491.4,757.8,491.3,752.4,491.3z"/>
	<path class="st1" d="M669.5,478.1c-0.7,3.9-1.4,7.5-2,11.1c-0.2,1.2-0.5,1.9-2,1.9c-3.4,0-4.7,1.2-5.3,4.5
		c-2.2,12.2-4.3,24.4-6.4,36.6c-0.6,3.5-0.2,3.9,3.4,3.9c1.6,0,2.3,0.2,1.8,2.2c-0.8,3.1-1.2,6.3-1.7,9.4c-0.1,0.8-0.1,1.6-1.4,1.5
		c-2.2-0.1-4.5,0.1-6.7-0.1c-7-0.8-11-6.5-9.7-13.8c2.5-14.9,5.1-29.8,7.9-44.6c1.4-7.4,6.9-12.7,15.2-12.6
		C664.8,478.1,667,478.1,669.5,478.1z"/>
	<path class="st1" d="M672.7,549.2c-4.4,0-4.4,0-3.6-4.3c0.3-1.8,0.6-3.5,0.8-5.3c0.3-2.2,0.6-3.9,3.5-3.9c1.9,0,2.7-1.9,3-3.6
		c2.3-12.7,4.5-25.5,6.7-38.2c0.3-2-0.6-3-2.5-2.8c-2.2,0.3-2.2-0.9-1.9-2.4c0.6-3,1.1-6.1,1.6-9.1c0.1-0.6,0.1-1.2,1-1.5
		c4.5-1.4,10.8,0.8,13.9,4.5c2.4,3,2.4,6.5,1.8,9.9c-2.4,14.2-4.8,28.4-7.4,42.6C687.8,544.8,682.4,549.2,672.7,549.2z"/>
	<path class="st3" d="M454.2,509.7c-2.6,0-5.2,0-7.9,0c-1.2,0-1.6-0.2-1.3-1.6c1-5,1.8-10,2.6-15c0.2-1.3,0.8-1.7,2.1-1.6
		c5.5,0.1,11,0.1,16.6,0c1.9,0,2.5,0.9,2.2,2.6c-0.7,3.9-1.4,7.9-2.1,11.8c-0.5,2.6-2.2,3.8-4.8,3.7
		C459.1,509.7,456.7,509.7,454.2,509.7z"/>
	<path class="st3" d="M201,509.7c-2.5,0-5-0.1-7.6,0c-1.5,0.1-1.7-0.6-1.5-1.8c0.9-5,1.9-9.9,2.7-14.9c0.2-1.3,0.7-1.5,1.8-1.5
		c5.6,0,11.2,0,16.8,0c1.9,0,2.5,0.9,2.2,2.7c-0.7,3.9-1.3,7.8-2,11.6c-0.5,2.5-2.1,3.9-4.7,3.9C206,509.7,203.5,509.7,201,509.7
		C201,509.7,201,509.7,201,509.7z"/>
	<path class="st3" d="M151.5,491.6c2.7,0,5.4,0.1,8.1,0c2.2-0.1,2.9,0.9,2.5,2.9c-0.8,4.3-1.4,8.7-2.3,13c-0.4,2.2-2,3.3-4.3,3.4
		c-5.2,0-10.5,0-15.7,0.1c-1.4,0-1.6-0.7-1.4-1.7c0.9-5.4,2-10.8,2.9-16.3c0.2-1.3,1.1-1.3,2-1.3
		C146.1,491.6,148.8,491.6,151.5,491.6z"/>
	<path class="st4" d="M723,509.8c-2.4,0-4.9,0-7.3,0c-1.3,0-2.1-0.1-1.8-1.8c0.9-5,1.7-10,2.6-14.9c0.2-1.1,0.6-1.5,1.8-1.5
		c5.6,0.1,11.2,0.1,16.8,0c1.8,0,2.4,0.9,2.1,2.5c-0.7,4.2-1.4,8.4-2.3,12.6c-0.5,2.2-2.2,3.1-4.4,3.1
		C728,509.8,725.5,509.8,723,509.8C723,509.8,723,509.8,723,509.8z"/>
	<path class="st4" d="M614.5,510.9c-2.6,0-5.2,0-7.8,0c-1.2,0-1.6-0.3-1.3-1.6c1-5.2,1.9-10.5,2.7-15.8c0.2-1.4,0.7-2,2.3-2
		c5.4,0.1,10.8,0.1,16.2,0c2.1,0,2.8,0.9,2.4,3c-0.8,3.9-1.3,7.8-2,11.6c-0.6,3.4-2,4.7-5.5,4.7
		C619.1,510.9,616.8,510.9,614.5,510.9C614.5,510.9,614.5,510.9,614.5,510.9z"/>
</g>
</svg>
