<svg width="250" height="250" viewBox="0 0 250 250" fill="none" xmlns="http://www.w3.org/2000/svg">
<rect width="250" height="250" fill="url(#paint0_linear_288_2)"/>
<mask id="mask0_288_2" style="mask-type:luminance" maskUnits="userSpaceOnUse" x="40" y="112" width="170" height="26">
<path d="M210 112.151H40V137.849H210V112.151Z" fill="white"/>
</mask>
<g mask="url(#mask0_288_2)">
<path fill-rule="evenodd" clip-rule="evenodd" d="M189.93 113.128C187.575 113.136 185.356 114.907 184.926 117.335C184.044 122.484 183.176 127.636 182.328 132.791C182.013 134.786 183.652 136.897 185.801 136.897C194.191 136.897 183.833 136.897 201.489 136.897C203.846 136.897 206.041 135.081 206.463 132.689C207.343 127.54 208.214 122.389 209.061 117.234C209.374 115.244 207.783 113.128 205.587 113.128C187.961 113.128 207.556 113.128 189.93 113.128ZM205.594 112.265C207.071 112.281 208.517 113.083 209.299 114.337C209.859 115.231 210.077 116.324 209.913 117.371C209.064 122.529 208.194 127.683 207.313 132.837C206.844 135.489 204.434 137.646 201.696 137.755C201.629 137.758 201.562 137.759 201.493 137.759C183.827 137.759 188.525 137.759 185.796 137.759C183.28 137.759 181.056 135.317 181.476 132.653C182.325 127.495 183.195 122.339 184.076 117.187C184.555 114.482 187.079 112.265 189.896 112.265C207.563 112.265 188.752 112.263 205.594 112.265Z" fill="#19315C"/>
<mask id="mask1_288_2" style="mask-type:luminance" maskUnits="userSpaceOnUse" x="40" y="112" width="170" height="26">
<path d="M209.202 117.32C209.396 116.167 209.073 114.987 208.317 114.094C207.562 113.202 206.452 112.687 205.283 112.687H48.5043C45.8132 112.687 43.5169 114.63 43.0713 117.283C42.3325 121.679 41.2227 128.276 40.4818 132.685C40.288 133.839 40.6113 135.019 41.3667 135.911C42.1221 136.803 43.2319 137.318 44.4008 137.318H201.179C203.871 137.318 206.167 135.375 206.612 132.722C207.351 128.325 208.461 121.728 209.202 117.319V117.32Z" fill="white"/>
</mask>
<g mask="url(#mask1_288_2)">
<path d="M210.395 112.942H40.3953V137.453H210.395V112.942Z" fill="url(#paint1_linear_288_2)"/>
</g>
<path fill-rule="evenodd" clip-rule="evenodd" d="M48.5055 113.119C46.1501 113.126 43.9315 114.897 43.5014 117.326C42.6196 122.475 41.7512 127.626 40.9036 132.782C40.5886 134.776 42.2269 136.865 44.3771 136.887C87.5352 137.036 157.844 137.002 201.002 136.887C203.359 136.866 205.554 135.072 205.976 132.68C206.856 127.531 207.728 122.38 208.574 117.225C208.887 115.235 207.296 113.142 205.1 113.119C161.952 112.97 91.6535 113.119 48.5055 113.119ZM205.521 112.256C206.999 112.271 208.445 113.073 209.227 114.327C209.787 115.221 210.005 116.315 209.84 117.361C208.992 122.52 208.121 127.674 207.24 132.827C206.772 135.48 204.362 137.636 201.624 137.745C201.557 137.748 201.489 137.749 201.421 137.749C158.26 137.864 87.5332 137.899 44.3709 137.749C41.8559 137.723 39.6311 135.308 40.0518 132.644C40.9005 127.485 41.7699 122.33 42.6517 117.178C43.1294 114.472 45.6537 112.28 48.4702 112.256C91.6326 112.126 162.359 112.107 205.521 112.256Z" fill="#144A24"/>
<mask id="mask2_288_2" style="mask-type:luminance" maskUnits="userSpaceOnUse" x="123" y="113" width="74" height="24">
<path d="M127.327 113.695L123.151 136.311C140.805 136.311 171.724 136.365 189.378 136.311C191.723 136.291 193.912 134.513 194.347 132.131C195.188 127.363 196.021 122.593 196.833 117.82C197.161 115.816 195.529 113.717 193.363 113.695C175.772 113.634 144.918 113.695 127.327 113.695Z" fill="white"/>
</mask>
<g mask="url(#mask2_288_2)">
<path d="M197.309 113.733H121.837V137.082H197.309V113.733Z" fill="url(#paint2_linear_288_2)"/>
</g>
<g filter="url(#filter0_d_288_2)">
<path d="M136.656 122.679L136.861 121.539C136.898 121.328 136.889 121.184 136.833 121.109C136.777 121.035 136.656 120.997 136.468 120.997H133.852C133.378 120.997 133.104 121.241 133.029 121.727L132.805 123.036C132.78 123.223 132.796 123.351 132.852 123.419C132.908 123.488 133.029 123.547 133.217 123.596L136.488 124.345C137.297 124.545 137.909 124.88 138.319 125.354C138.73 125.827 138.867 126.413 138.73 127.111L138.301 129.504C138.164 130.288 137.827 130.912 137.291 131.373C136.755 131.834 136.108 132.064 135.347 132.064H131.217C130.444 132.064 129.846 131.802 129.422 131.28C129.011 130.769 128.874 130.114 129.011 129.317L129.292 127.692H131.908L131.683 128.982C131.646 129.194 131.655 129.337 131.711 129.412C131.767 129.486 131.894 129.524 132.095 129.524H134.917C135.391 129.524 135.665 129.28 135.74 128.794L135.982 127.336C136.007 127.15 135.992 127.021 135.936 126.953C135.88 126.884 135.759 126.825 135.571 126.776L132.3 126.027C131.502 125.841 130.901 125.507 130.497 125.027C130.091 124.548 129.952 123.959 130.076 123.261L130.468 121.018C130.605 120.233 130.942 119.61 131.478 119.149C132.013 118.688 132.661 118.458 133.422 118.458H137.329C138.101 118.458 138.693 118.72 139.104 119.243C139.528 119.754 139.671 120.408 139.535 121.206L139.272 122.682H136.656V122.679Z" fill="url(#paint3_linear_288_2)"/>
<path d="M142.806 124.698H146.096C146.545 124.698 146.819 124.455 146.919 123.969L147.33 121.614C147.368 121.403 147.358 121.259 147.302 121.184C147.246 121.109 147.119 121.072 146.919 121.072H143.442L142.807 124.698H142.806ZM141.198 118.529H147.871C148.631 118.529 149.223 118.791 149.647 119.315C150.071 119.838 150.22 120.492 150.096 121.277L149.48 124.679C149.355 125.465 149.025 126.087 148.489 126.549C147.953 127.01 147.298 127.241 146.526 127.241H142.357L141.535 131.989H138.844L141.199 118.53L141.198 118.529Z" fill="url(#paint4_linear_288_2)"/>
<path d="M167.666 123.764L168.04 121.614C168.078 121.403 168.069 121.259 168.012 121.184C167.957 121.109 167.829 121.072 167.629 121.072H164.171L163.573 124.493H166.845C167.293 124.493 167.568 124.25 167.668 123.764H167.666ZM161.928 118.53H168.582C169.355 118.53 169.954 118.792 170.377 119.316C170.801 119.826 170.944 120.481 170.807 121.278L170.246 124.438C169.997 125.796 169.244 126.625 167.985 126.924L169.293 131.989H166.471L165.237 126.998H163.143L162.264 131.989H159.573L161.929 118.53H161.928Z" fill="url(#paint5_linear_288_2)"/>
<path d="M180.47 121.035H177.05L175.124 131.989H172.433L174.359 121.035H170.938L171.368 118.53H180.9L180.47 121.035Z" fill="url(#paint6_linear_288_2)"/>
<path d="M157.221 118.456H158.208C158.981 118.456 159.572 118.718 159.984 119.241C160.407 119.752 160.551 120.406 160.414 121.204L158.956 129.503C158.819 130.287 158.482 130.911 157.946 131.372C157.411 131.833 156.763 132.063 156.002 132.063H154.848L155.292 129.522H155.591C156.04 129.522 156.307 129.278 156.394 128.792L157.666 121.539C157.703 121.328 157.694 121.184 157.638 121.109C157.581 121.035 157.461 120.997 157.273 120.997H156.778L157.22 118.456H157.221ZM155.145 118.456L154.702 120.997H154.208C153.759 120.997 153.485 121.241 153.385 121.727L152.115 128.98C152.077 129.192 152.087 129.335 152.142 129.41C152.198 129.484 152.326 129.522 152.526 129.522H153.216L152.772 132.063H151.573C150.813 132.063 150.214 131.801 149.778 131.279C149.367 130.768 149.23 130.113 149.367 129.316L150.824 121.017C150.961 120.232 151.298 119.609 151.834 119.148C152.369 118.687 153.017 118.457 153.778 118.457H155.145L155.145 118.456Z" fill="url(#paint7_linear_288_2)"/>
</g>
<g filter="url(#filter1_d_288_2)">
<path d="M53.5446 124.698H56.8347C57.2834 124.698 57.558 124.455 57.6575 123.969L58.0689 121.614C58.1062 121.403 58.0969 121.259 58.0409 121.184C57.9849 121.109 57.8575 121.072 57.6575 121.072H54.1809L53.5457 124.698H53.5446ZM51.9364 118.529H58.6098C59.3694 118.529 59.9621 118.791 60.3859 119.315C60.8097 119.838 60.9589 120.492 60.8346 121.277L60.218 124.679C60.0937 125.465 59.7631 126.087 59.2274 126.549C58.6917 127.01 58.0368 127.241 57.2648 127.241H53.096L52.2732 131.989H49.5821L51.9375 118.53L51.9364 118.529Z" fill="url(#paint8_linear_288_2)"/>
<path d="M67.8437 123.764L68.2178 121.614C68.2551 121.403 68.2458 121.259 68.1898 121.184C68.1338 121.109 68.0064 121.072 67.8064 121.072H64.3485L63.7506 124.493H67.022C67.4707 124.493 67.7453 124.25 67.8447 123.764H67.8437ZM62.105 118.53H68.7597C69.5328 118.53 70.1307 118.792 70.5545 119.316C70.9783 119.827 71.1213 120.481 70.9846 121.278L70.4229 124.438C70.1742 125.796 69.4198 126.625 68.1608 126.924L69.4696 131.989H66.6469L65.4127 126.998H63.3195L62.4407 131.989H59.7486L62.104 118.53H62.105Z" fill="url(#paint9_linear_288_2)"/>
<path d="M72.7223 118.53H81.3768L80.9285 121.072H74.9658L74.4798 123.839H79.3014L78.8527 126.381H74.0311L73.5068 129.446H79.4703L79.0216 131.989H70.3669L72.7223 118.53Z" fill="url(#paint10_linear_288_2)"/>
<path d="M95.0223 118.53L92.6668 131.989H90.1247L91.7322 123.016L87.732 129.839H85.8628L84.1798 123.016L82.5727 131.989H80.031L82.3861 118.53H85.2651L87.2078 126.493L91.956 118.53H95.0223Z" fill="url(#paint11_linear_288_2)"/>
<path d="M94.2367 131.989L96.5922 118.53H99.2841L96.9279 131.989H94.2367Z" fill="url(#paint12_linear_288_2)"/>
<path d="M100.854 118.53H109.508L109.06 121.072H103.098L102.611 123.839H107.433L106.984 126.381H102.162L101.638 129.446H107.601L107.153 131.989H98.4986L100.854 118.53Z" fill="url(#paint13_linear_288_2)"/>
<path d="M116.256 123.764L116.63 121.614C116.667 121.403 116.658 121.259 116.602 121.184C116.546 121.109 116.418 121.072 116.219 121.072H112.76L112.163 124.493H115.434C115.882 124.493 116.157 124.25 116.257 123.764H116.256ZM110.517 118.53H117.172C117.945 118.53 118.543 118.792 118.967 119.316C119.39 119.827 119.533 120.481 119.396 121.278L118.836 124.438C118.587 125.796 117.833 126.625 116.574 126.924L117.883 131.989H115.06L113.826 126.998H111.732L110.854 131.989H108.162L110.518 118.53H110.517Z" fill="url(#paint14_linear_288_2)"/>
</g>
<g filter="url(#filter2_d_288_2)">
<path fill-rule="evenodd" clip-rule="evenodd" d="M48.295 114.387C46.7469 114.391 45.3055 115.554 45.006 117.111C44.0351 122.312 43.0372 127.51 42.1367 132.726C41.9056 134.114 43.0299 135.593 44.5469 135.62C87.7186 136.07 145.612 135.983 188.785 135.62C190.308 135.599 191.729 134.449 192.031 132.915C193.034 127.719 193.965 122.508 194.902 117.299C195.146 115.896 194.027 114.404 192.477 114.388C149.321 114.231 91.4503 114.388 48.294 114.388L48.295 114.387ZM192.484 113.524C193.619 113.537 194.722 114.159 195.311 115.121C195.733 115.81 195.89 116.651 195.753 117.448C194.817 122.655 193.854 127.856 192.884 133.057C192.52 134.943 190.758 136.455 188.796 136.482C145.624 136.845 87.7332 136.617 44.5594 136.482C42.6289 136.462 40.9429 134.574 41.2911 132.558C42.2299 127.352 43.1895 122.15 44.1594 116.949C44.5242 115.053 46.2837 113.541 48.2712 113.524C91.4377 113.397 149.319 113.367 192.484 113.524Z" fill="white"/>
</g>
<path fill-rule="evenodd" clip-rule="evenodd" d="M200.987 136.284H186.283C184.065 136.284 182.588 134.47 183.002 132.252L185.704 117.755C186.118 115.538 188.271 113.723 190.488 113.723H205.193C207.41 113.723 208.887 115.538 208.474 117.755L205.771 132.252C205.357 134.47 203.204 136.284 200.987 136.284Z" fill="white"/>
<g filter="url(#filter3_d_288_2)">
<path fill-rule="evenodd" clip-rule="evenodd" d="M189.721 114.397C188.172 114.401 186.731 115.563 186.432 117.12C185.461 122.322 184.463 127.52 183.562 132.735C183.331 134.123 184.456 135.629 185.973 135.629H201.708C203.231 135.629 204.652 134.458 204.955 132.925C205.958 127.728 206.888 122.518 207.825 117.308C208.068 115.905 206.951 114.398 205.4 114.398C185.634 114.398 193.181 114.398 189.72 114.398L189.721 114.397ZM205.407 113.533C206.542 113.546 207.645 114.169 208.234 115.13C208.656 115.819 208.813 116.661 208.676 117.458C207.74 122.665 206.777 127.866 205.807 133.067C205.444 134.952 203.681 136.491 201.719 136.491C184.016 136.491 203.688 136.491 185.985 136.491C184.054 136.491 182.369 134.584 182.717 132.567C183.656 127.361 184.615 122.159 185.585 116.958C185.95 115.062 187.709 113.533 189.697 113.533C207.376 113.533 187.728 113.533 205.407 113.533Z" fill="white"/>
</g>
<g filter="url(#filter4_d_288_2)">
<path d="M193.961 131.989L195.855 121.298L193.285 122.161L193.642 119.91L196.868 118.485H199.025L196.661 131.989H193.961Z" fill="#144A24"/>
</g>
</g>
<defs>
<filter id="filter0_d_288_2" x="127.649" y="117.145" width="57.183" height="18.851" filterUnits="userSpaceOnUse" color-interpolation-filters="sRGB">
<feFlood flood-opacity="0" result="BackgroundImageFix"/>
<feColorMatrix in="SourceAlpha" type="matrix" values="0 0 0 0 0 0 0 0 0 0 0 0 0 0 0 0 0 0 127 0" result="hardAlpha"/>
<feOffset dx="1.31054" dy="1.31054"/>
<feGaussianBlur stdDeviation="1.31054"/>
<feColorMatrix type="matrix" values="0 0 0 0 0 0 0 0 0 0 0 0 0 0 0 0 0 0 0.35 0"/>
<feBlend mode="normal" in2="BackgroundImageFix" result="effect1_dropShadow_288_2"/>
<feBlend mode="normal" in="SourceGraphic" in2="effect1_dropShadow_288_2" result="shape"/>
</filter>
<filter id="filter1_d_288_2" x="48.2716" y="117.219" width="75.1066" height="18.7019" filterUnits="userSpaceOnUse" color-interpolation-filters="sRGB">
<feFlood flood-opacity="0" result="BackgroundImageFix"/>
<feColorMatrix in="SourceAlpha" type="matrix" values="0 0 0 0 0 0 0 0 0 0 0 0 0 0 0 0 0 0 127 0" result="hardAlpha"/>
<feOffset dx="1.31054" dy="1.31054"/>
<feGaussianBlur stdDeviation="1.31054"/>
<feColorMatrix type="matrix" values="0 0 0 0 0 0 0 0 0 0 0 0 0 0 0 0 0 0 0.35 0"/>
<feBlend mode="normal" in2="BackgroundImageFix" result="effect1_dropShadow_288_2"/>
<feBlend mode="normal" in="SourceGraphic" in2="effect1_dropShadow_288_2" result="shape"/>
</filter>
<filter id="filter2_d_288_2" x="39.9347" y="112.106" width="159.798" height="28.5027" filterUnits="userSpaceOnUse" color-interpolation-filters="sRGB">
<feFlood flood-opacity="0" result="BackgroundImageFix"/>
<feColorMatrix in="SourceAlpha" type="matrix" values="0 0 0 0 0 0 0 0 0 0 0 0 0 0 0 0 0 0 127 0" result="hardAlpha"/>
<feOffset dx="1.31054" dy="1.31054"/>
<feGaussianBlur stdDeviation="1.31054"/>
<feColorMatrix type="matrix" values="0 0 0 0 0 0 0 0 0 0 0 0 0 0 0 0 0 0 0.35 0"/>
<feBlend mode="normal" in2="BackgroundImageFix" result="effect1_dropShadow_288_2"/>
<feBlend mode="normal" in="SourceGraphic" in2="effect1_dropShadow_288_2" result="shape"/>
</filter>
<filter id="filter3_d_288_2" x="181.491" y="112.354" width="30.7713" height="27.6757" filterUnits="userSpaceOnUse" color-interpolation-filters="sRGB">
<feFlood flood-opacity="0" result="BackgroundImageFix"/>
<feColorMatrix in="SourceAlpha" type="matrix" values="0 0 0 0 0 0 0 0 0 0 0 0 0 0 0 0 0 0 127 0" result="hardAlpha"/>
<feOffset dx="1.17948" dy="1.17948"/>
<feGaussianBlur stdDeviation="1.17948"/>
<feColorMatrix type="matrix" values="0 0 0 0 0 0 0 0 0 0 0 0 0 0 0 0 0 0 0.4 0"/>
<feBlend mode="normal" in2="BackgroundImageFix" result="effect1_dropShadow_288_2"/>
<feBlend mode="normal" in="SourceGraphic" in2="effect1_dropShadow_288_2" result="shape"/>
</filter>
<filter id="filter4_d_288_2" x="191.975" y="117.174" width="10.9818" height="18.7464" filterUnits="userSpaceOnUse" color-interpolation-filters="sRGB">
<feFlood flood-opacity="0" result="BackgroundImageFix"/>
<feColorMatrix in="SourceAlpha" type="matrix" values="0 0 0 0 0 0 0 0 0 0 0 0 0 0 0 0 0 0 127 0" result="hardAlpha"/>
<feOffset dx="1.31054" dy="1.31054"/>
<feGaussianBlur stdDeviation="1.31054"/>
<feColorMatrix type="matrix" values="0 0 0 0 0 0 0 0 0 0 0 0 0 0 0 0 0 0 0.35 0"/>
<feBlend mode="normal" in2="BackgroundImageFix" result="effect1_dropShadow_288_2"/>
<feBlend mode="normal" in="SourceGraphic" in2="effect1_dropShadow_288_2" result="shape"/>
</filter>
<linearGradient id="paint0_linear_288_2" x1="-0.77484" y1="124.169" x2="252.419" y2="124.169" gradientUnits="userSpaceOnUse">
<stop stop-color="#112918"/>
<stop offset="1" stop-color="#144A24"/>
</linearGradient>
<linearGradient id="paint1_linear_288_2" x1="39.8685" y1="125.116" x2="212.04" y2="125.116" gradientUnits="userSpaceOnUse">
<stop stop-color="#112918"/>
<stop offset="0.15" stop-color="#144A24"/>
<stop offset="0.33" stop-color="#144A24"/>
<stop offset="1" stop-color="#144A24"/>
</linearGradient>
<linearGradient id="paint2_linear_288_2" x1="123.387" y1="125.385" x2="197.346" y2="125.385" gradientUnits="userSpaceOnUse">
<stop stop-color="#B21F37"/>
<stop offset="0.67" stop-color="#9C1B31"/>
<stop offset="0.85" stop-color="#641027"/>
<stop offset="1" stop-color="#340114"/>
</linearGradient>
<linearGradient id="paint3_linear_288_2" x1="128.885" y1="130.759" x2="139.765" y2="119.879" gradientUnits="userSpaceOnUse">
<stop stop-color="#C7C8CA"/>
<stop offset="0.5" stop-color="white"/>
<stop offset="1" stop-color="#C7C8CA"/>
</linearGradient>
<linearGradient id="paint4_linear_288_2" x1="137.121" y1="130.267" x2="148.869" y2="118.52" gradientUnits="userSpaceOnUse">
<stop stop-color="#C7C8CA"/>
<stop offset="0.5" stop-color="white"/>
<stop offset="1" stop-color="#C7C8CA"/>
</linearGradient>
<linearGradient id="paint5_linear_288_2" x1="159.227" y1="131.643" x2="170.974" y2="119.895" gradientUnits="userSpaceOnUse">
<stop stop-color="#C7C8CA"/>
<stop offset="0.5" stop-color="white"/>
<stop offset="1" stop-color="#C7C8CA"/>
</linearGradient>
<linearGradient id="paint6_linear_288_2" x1="169.475" y1="129.03" x2="180.438" y2="118.067" gradientUnits="userSpaceOnUse">
<stop stop-color="#C7C8CA"/>
<stop offset="0.5" stop-color="white"/>
<stop offset="1" stop-color="#C7C8CA"/>
</linearGradient>
<linearGradient id="paint7_linear_288_2" x1="149.318" y1="130.831" x2="160.457" y2="119.692" gradientUnits="userSpaceOnUse">
<stop stop-color="#C7C8CA"/>
<stop offset="0.5" stop-color="white"/>
<stop offset="1" stop-color="#C7C8CA"/>
</linearGradient>
<linearGradient id="paint8_linear_288_2" x1="47.8598" y1="130.267" x2="59.6067" y2="118.52" gradientUnits="userSpaceOnUse">
<stop stop-color="#C7C8CA"/>
<stop offset="0.5" stop-color="white"/>
<stop offset="1" stop-color="#C7C8CA"/>
</linearGradient>
<linearGradient id="paint9_linear_288_2" x1="59.4036" y1="131.643" x2="71.1514" y2="119.895" gradientUnits="userSpaceOnUse">
<stop stop-color="#C7C8CA"/>
<stop offset="0.5" stop-color="white"/>
<stop offset="1" stop-color="#C7C8CA"/>
</linearGradient>
<linearGradient id="paint10_linear_288_2" x1="69.7545" y1="131.376" x2="81.9884" y2="119.143" gradientUnits="userSpaceOnUse">
<stop stop-color="#C7C8CA"/>
<stop offset="0.5" stop-color="white"/>
<stop offset="1" stop-color="#C7C8CA"/>
</linearGradient>
<linearGradient id="paint11_linear_288_2" x1="80.4141" y1="132.371" x2="94.6388" y2="118.147" gradientUnits="userSpaceOnUse">
<stop stop-color="#C7C8CA"/>
<stop offset="0.5" stop-color="white"/>
<stop offset="1" stop-color="#C7C8CA"/>
</linearGradient>
<linearGradient id="paint12_linear_288_2" x1="92.1343" y1="129.885" x2="101.387" y2="120.633" gradientUnits="userSpaceOnUse">
<stop stop-color="#C7C8CA"/>
<stop offset="0.5" stop-color="white"/>
<stop offset="1" stop-color="#C7C8CA"/>
</linearGradient>
<linearGradient id="paint13_linear_288_2" x1="97.8862" y1="131.376" x2="110.12" y2="119.143" gradientUnits="userSpaceOnUse">
<stop stop-color="#C7C8CA"/>
<stop offset="0.5" stop-color="white"/>
<stop offset="1" stop-color="#C7C8CA"/>
</linearGradient>
<linearGradient id="paint14_linear_288_2" x1="107.817" y1="131.643" x2="119.563" y2="119.896" gradientUnits="userSpaceOnUse">
<stop stop-color="#C7C8CA"/>
<stop offset="0.5" stop-color="white"/>
<stop offset="1" stop-color="#C7C8CA"/>
</linearGradient>
</defs>
</svg>
