<?xml version="1.0" encoding="utf-8"?>
<!-- Generator: Adobe Illustrator 28.0.0, SVG Export Plug-In . SVG Version: 6.00 Build 0)  -->
<svg version="1.1" id="Vrstva_1" xmlns="http://www.w3.org/2000/svg" xmlns:xlink="http://www.w3.org/1999/xlink" x="0px" y="0px"
	 viewBox="0 0 1024 1024" style="enable-background:new 0 0 1024 1024;" xml:space="preserve">
<style type="text/css">
	.st0{fill:#192A4E;}
	.st1{fill:#FAFAFB;}
	.st2{fill:#A20F32;}
</style>
<rect y="0" class="st0" width="1024" height="1024"/>
<g>
	<path class="st0" d="M212.8,444.7c210.7,0,421.3,0,632,0c0.9,0.7,1.9,0.3,2.9,0.3c28.6,0.1,57.2,0.1,85.8,0.2
		c13.7,0,24.7,12.7,22.5,26.3c-4.2,25.7-8.5,51.5-12.8,77.2c-1,6.3-2.5,12.2-6.8,17.3c-6.9,8.3-15.4,12.9-26.3,12.9
		c-43.4,0-86.8,0.1-130.2,0.1c-82.2,0.1-164.4,0.1-246.6,0.1c-106.1,0-212.3,0-318.4-0.1c-41.1,0-82.1-0.4-123.2-0.3
		c-11.9,0-20.9-8.9-23.1-17.1c-0.2-0.7,0-1.7-0.9-2.1c0-2.9,0-5.8,0-8.7c0.9-0.4,0.6-1.2,0.7-1.9c4.3-25.4,8.7-50.9,12.8-76.3
		c2.6-16,15.7-27.5,31.9-27.5c32.4-0.1,64.8-0.1,97.2-0.2C211.1,445,212,445.4,212.8,444.7z M502.7,573c0,0.1,0,0.2,0,0.2
		c15.7,0,31.4,0,47.1,0c44.7,0,89.4,0,134-0.2c47.6-0.3,95.1-0.2,142.7-0.8c28.7-0.4,57.4,0,86.1,0c10.9,0,20.1-7.5,22-18.3
		c5-27.2,10-54.5,15-81.8c0.8-4.3-0.2-8.3-2.4-11.8c-3.7-5.9-9.3-8.4-16.1-8.4c-22.1-0.1-44.2-0.1-66.3-0.1
		c-56.1-0.1-112.3-0.3-168.4-0.4c-56.9-0.1-113.7-0.2-170.6-0.1c-110.5,0.1-220.9,0.3-331.4,0.4c-27.5,0-55.1,0.2-82.6,0.1
		c-9.7,0-20.4,6.8-22.4,18.3c-4.8,26.9-9.8,53.8-14.7,80.7c-2.1,11.3,6.2,21.3,17.6,21.3c32.9,0.1,65.9,0.3,98.8,0.4
		c55.7,0.2,111.4,0.4,167.1,0.4C406.3,573,454.5,573,502.7,573z"/>
	<path class="st1" d="M502.7,573c-48.2,0-96.4,0.1-144.6,0c-55.7-0.1-111.4-0.3-167.1-0.4c-32.9-0.1-65.9-0.2-98.8-0.4
		c-11.4,0-19.7-10-17.6-21.3c4.9-26.9,9.9-53.8,14.7-80.7c2-11.5,12.8-18.4,22.4-18.3c27.5,0,55.1-0.1,82.6-0.1
		c110.5-0.1,220.9-0.3,331.4-0.4c56.9,0,113.7,0.1,170.6,0.1c56.1,0.1,112.3,0.2,168.4,0.4c22.1,0,44.2,0,66.3,0.1
		c6.8,0,12.4,2.5,16.1,8.4c2.2,3.6,3.2,7.6,2.4,11.8c-5,27.3-9.9,54.5-15,81.8c-2,10.7-11.2,18.3-22,18.3c-28.7,0-57.4-0.4-86.1,0
		c-47.6,0.6-95.1,0.6-142.7,0.8c-44.7,0.2-89.4,0.1-134,0.2c-15.7,0-31.4,0-47.1,0C502.7,573.1,502.7,573.1,502.7,573z M896.5,547.1
		c1.4,0.4,1.3-0.8,1.5-1.5c0.4-1.6,0.7-3.3,1-5c0.3-1.8,0.7-3.5,2.1-4.8c1.7,0,3.4,0,5.1,0c1.2,0,2.2-0.2,2.2-1.7
		c0.9,0.6,1.1-0.3,1.2-0.8c1-3.2,1.5-6.5,1.9-9.8c0.1-0.6,0.1-1.5-1.1-1.2c0.2-1.3-0.4-1.8-1.6-1.8c-1.3,0-2.7,0-4.1-0.1
		c-2.1-0.1-3-0.7-2.6-3.2c1.9-10,3.6-20.1,5.3-30.1c0.4-2.3,0.9-4.6,1.1-6.9c0.2-2.1-0.4-3.3-3-3.2c-4.1,0.2-8.3,0.2-12.4,0.1
		c-2.2-0.1-3.7,0.7-5.1,2.4c-11.6,13.4-23.3,26.8-35.1,40.1c-2,2.2-3.2,4.3-2.4,7.4c0.5,1.8,0.6,3.8,0.6,5.6c0,2.4,1,3.1,3.2,3.1
		c8.2-0.1,16.4,0.1,24.6,0c2.5,0,2.9,0.8,2.5,2.9c-0.6,2.7-1,5.5-1.5,8.3c-0.2,1.2-0.2,2,1.5,2c4.2-0.1,8.5,0,12.7,0
		C895.6,548.9,896.5,548.6,896.5,547.1z M502.9,569c1.1,0.1,2.1,0.2,3.2,0.2c18.3,0,36.6-0.1,55-0.1c80.2-0.1,160.5-0.5,240.7-1.1
		c5.8,0,11.6,0,17.9,0c-0.9-1-1.4-1.6-1.9-2.2c-2.6-3.4-4.5-7.1-4.2-11.7c0.4-6.2,2-12.2,3-18.3c0.9-5.3,2.2-10.6,2.9-15.9
		c1.1-7.4,2.6-14.8,3.9-22.1c1.2-6.5,2.2-13,3.7-19.4c0.8-3.3,1.1-6.8,2-10.1c1.3-4.7,4.3-8.1,8.1-11.9c-6.7,0-12.9,0-19,0
		c-79.4-0.1-158.9-0.1-238.3-0.2c-18.8,0-37.5,0.1-56.3,0.1c-1.1,0-2.2-0.1-3.2-0.1c-113.8,0.1-227.6,0.2-341.4,0.3
		c-22.4,0-44.8,0-67.1,0.1c-9.4,0-16.6,5.9-18.2,14.9c-4.9,26.4-9.8,52.9-14.6,79.3c-1.8,10,4,17,14.2,17.1
		c46.3,0.4,92.6,0.8,138.9,1c84.1,0.3,168.2,0.4,252.3,0.5C490.6,569.2,496.7,569,502.9,569z"/>
	<path class="st0" d="M502.9,569c-6.1,0.1-12.3,0.3-18.4,0.3c-84.1-0.1-168.2-0.2-252.3-0.5c-46.3-0.2-92.6-0.6-138.9-1
		c-10.2-0.1-16-7-14.2-17.1c4.8-26.4,9.7-52.9,14.6-79.3c1.7-9,8.8-14.8,18.2-14.9c22.4,0,44.8,0,67.1-0.1
		c113.8-0.1,227.6-0.2,341.4-0.3c1.1,0,2.2,0.1,3.2,0.1c-0.5,2.2-1.1,4.3-1.5,6.6c-3.1,19.1-6.9,38.2-10.4,57.2
		C508.8,536.3,505.8,552.6,502.9,569z M314.6,519.6c-0.8-2.6-1.6-4.6-2-6.6c-2.1-11.2-5.4-22.2-7.9-33.4c-0.2-0.8-0.5-1.5-1.6-1.4
		c-4.2,0-8.5,0-12.7,0c-1,0-1.4,0.5-1.6,1.7c-0.7,4.9-1.5,9.8-2.4,14.7c-1.9,10.8-3.8,21.7-5.7,32.5c-1.1,6.4-2.2,12.9-3.4,19.3
		c-0.3,1.8,0.2,2.4,2,2.3c3.1-0.1,6.1,0,9.2,0c0.8,0,1.4,0,1.6-1.2c0.7-4.4,1.4-8.9,2.3-13.2c1.9-8.6,2.7-17.4,4.9-25.9
		c0.5-1.8-0.3-4,1.4-6c2.3,9.7,4.6,19,6.7,28.4c1.5,6.6,1.4,6.6,8.1,6.7c0.5,0,0.9-0.1,1.4,0c1.7,0.3,2.6-0.5,3.4-1.9
		c5.7-9.8,11.4-19.6,17.1-29.4c0.5-0.8,0.6-1.9,1.9-2.2c0,0.6,0.1,1.2,0,1.7c-1.1,6.5-2.3,13-3.5,19.4c-1.3,7.3-2.6,14.7-4,22
		c-0.2,1.3,0.2,1.6,1.4,1.6c2.5-0.1,5.1,0,7.6,0c3.9,0,3.9,0,4.5-4c0.2-1,0.7-2,0.9-3c3.6-20.5,7.1-41.1,10.7-61.6
		c0.3-1.6-0.2-1.8-1.6-1.8c-4.2,0-8.5,0-12.7,0c-1.1,0-1.7,0.4-2.3,1.4c-4,6.8-8.2,13.5-12.2,20.3
		C322.3,506.3,318.6,512.7,314.6,519.6z M214.1,548.6c1.7,0,3.4-0.1,5.1,0c1.9,0.1,2.5-0.3,1.9-2.4c-2-7.4-3.8-14.9-5.8-22.3
		c-0.4-1.5-0.2-2,1.3-2.4c5-1.6,8.4-5.2,9.5-10.3c1.5-6.9,2.7-13.9,3.6-20.9c0.8-6.6-4.1-11.9-10.7-12c-11.4-0.2-22.7-0.1-34.1-0.2
		c-1.4,0-1.8,0.4-2,1.8c-0.6,4.1-1.6,8.1-2.2,12.3c-1.6,10.6-3.6,21.2-5.5,31.9c-1.3,7.5-2.6,15.1-4,22.6c-0.3,1.4,0,2,1.5,1.9
		c3.1-0.1,6.1-0.2,9.2,0c2.4,0.2,3.1-0.8,3.5-2.9c1.1-6.8,2.4-13.6,3.5-20.4c0.3-2,0.9-3.3,3.3-2.9c1.9,0.3,4,0.1,5.9,0
		c1.6-0.1,2.4,0.2,2.8,2c1.2,5.5,2.7,11,3.8,16.5C206.6,548.6,206.5,548.6,214.1,548.6z M467.2,548.6
		C467.2,548.6,467.2,548.6,467.2,548.6c1.6,0,3.3-0.1,4.9,0c2.5,0.3,2.8-0.6,2.2-2.8c-2-7.1-3.8-14.3-5.6-21.5
		c-0.2-1-1.1-2.2,0.8-2.8c6.3-2,9.3-6.6,10.4-12.9c0.8-4.9,1.3-9.9,2.4-14.6c2.1-9.4-2.2-15.8-11.7-15.9c-10.6-0.1-21.1,0-31.7-0.1
		c-1.9,0-2.7,0.4-3,2.4c-0.6,4.6-1.6,9.2-2.4,13.8c-3,17.3-5.9,34.6-9,51.9c-0.3,1.8-0.1,2.4,1.8,2.3c3.1-0.1,6.1-0.2,9.2,0
		c2.2,0.2,2.7-0.8,3-2.7c0.8-5,1.7-10,2.6-14.9c0.5-2.8-0.1-6.6,1.9-8.2c2-1.6,5.6-0.2,8.4-0.5c1.8-0.2,2.4,0.7,2.6,2.2
		c1.3,7.4,3.5,14.5,5.1,21.8c0.3,1.6,0.8,2.5,2.7,2.3C463.8,548.5,465.5,548.6,467.2,548.6z M274,535.3c-9.8,0-19.4-0.1-28.9,0
		c-1.9,0-2.2-0.6-1.9-2.3c0.6-3.7,1.6-7.4,1.7-11.2c0-1.6,0.9-2.8,3.1-2.7c6.9,0.2,13.9,0,20.8,0.1c1.6,0,2.2-0.5,2.4-2
		c0.5-3,1-6.1,1.6-9.1c0.4-1.8-0.1-2.3-1.9-2.3c-7,0.1-14.1,0-21.1,0.1c-1.4,0-1.9-0.3-1.6-1.8c0.7-3.4,1.4-6.9,1.8-10.4
		c0.2-2,0.9-2.5,2.9-2.5c8.8,0.1,17.7,0,26.5,0.1c1.7,0,2.4-0.4,2.6-2.1c0.4-3.1,1-6.2,1.6-9.3c0.2-1.3-0.1-1.7-1.5-1.7
		c-13.9,0-27.8,0-41.7-0.1c-1.2,0-1.8,0.3-2,1.5c-1.5,8.2-3,16.4-4.5,24.6c-0.8,4.4-1.4,8.7-2.1,13.1c-0.8,4.7-1.8,9.4-2.6,14.1
		c-0.8,4.8-1.5,9.7-2.5,14.5c-0.5,2.1,0.1,2.5,2,2.5c13.6,0,27.2,0,40.9,0.1c1.7,0,2.3-0.6,2.5-2.2
		C272.6,542.8,273.3,539.2,274,535.3z M420.2,506c-1.1,0-2,0-2.8,0c-6.7,0-13.4-0.1-20,0c-1.8,0-2.4-0.4-2-2.3
		c0.7-3.4,1.3-6.7,1.8-10.1c0.3-1.7,0.9-2.3,2.7-2.3c8.9,0.1,17.9,0,26.8,0c1.5,0,2.2-0.2,2.4-2c0.3-2.6,0.9-5.1,1.4-7.7
		c0.6-3.5,0.6-3.5-3.1-3.5c-1.3,0-2.5,0-3.8,0c-11.7,0-23.5,0-35.2-0.1c-1.8,0-2.6,0.2-3,2.3c-0.5,2.3-0.7,4.6-1.1,6.8
		c-2.2,13-4.5,26-6.7,38.9c-1.3,7.4-2.6,14.8-3.9,22.4c2.7,0,5.6,0,8.5,0c11.5,0,22.9,0,34.4,0.1c1.1,0,2.4,0.3,2.6-1.4
		c0.5-3.5,1.1-6.9,1.8-10.4c0.2-1.3-0.2-1.5-1.3-1.5c-3.3,0.1-6.7,0-10,0c-6.5,0-13,0-19.6,0c0.8-4.8,1.7-9.4,2.4-14.1
		c0.3-1.8,1.2-2.1,2.7-2c6.9,0.1,13.9,0,20.8,0.1c1.5,0,2.2-0.3,2.4-2C418.7,513.7,419.5,510,420.2,506z M149.2,478.3
		c0,0,0-0.1,0-0.1c-5.2,0-10.5,0.2-15.7-0.1c-2.7-0.1-3.6,0.8-4,3.4c-1.8,11.1-3.8,22.2-5.7,33.3c-1.8,10.5-3.6,21-5.5,31.4
		c-0.3,1.8,0.1,2.4,2,2.3c3.2-0.1,6.5-0.1,9.7,0c1.5,0,2-0.5,2.2-2c1.1-6.9,2.5-13.8,3.6-20.7c0.3-1.9,1.1-2.2,2.8-2.2
		c6.5,0.1,13,0.1,19.5,0c6.9-0.1,12.7-3.8,14.4-10.1c2.2-7.7,3.5-15.6,4.2-23.6c0.6-6.8-4.3-11.6-11.2-11.8
		C160,478.2,154.6,478.3,149.2,478.3z M358,548.4c0,0.1,0,0.1,0,0.2c1.7,0,3.4-0.1,5.1,0c1.5,0.1,2.3-0.4,2.5-2
		c0.2-1.6,0.1-3.3,0.5-4.8c2.1-7.4,2.8-15,4.2-22.4c2.5-13.1,4.6-26.3,6.9-39.4c0.2-1.4-0.1-1.8-1.5-1.7c-3.2,0.1-6.3,0.2-9.5-0.1
		c-2.1-0.1-2.9,0.5-3.3,2.6c-0.4,1.8-0.5,3.7-0.8,5.5c-3.3,18.6-6.5,37.3-9.7,55.9c-0.4,2.1-0.8,4.1-1.3,6.2
		C353.5,548.4,355.7,548.4,358,548.4z"/>
	<path class="st2" d="M502.9,569c3-16.3,6-32.7,8.9-49c3.5-19.1,7.3-38.1,10.4-57.2c0.4-2.2,1-4.4,1.5-6.6c18.8,0,37.5-0.1,56.3-0.1
		c79.4,0,158.9,0.1,238.3,0.2c6.1,0,12.2,0,19,0c-3.8,3.7-6.8,7.2-8.1,11.9c-0.9,3.3-1.3,6.8-2,10.1c-1.5,6.4-2.5,13-3.7,19.4
		c-1.3,7.4-2.9,14.7-3.9,22.1c-0.8,5.3-2.1,10.6-2.9,15.9c-1,6.1-2.6,12.1-3,18.3c-0.3,4.5,1.6,8.2,4.2,11.7c0.5,0.6,1,1.2,1.9,2.2
		c-6.2,0-12,0-17.9,0c-80.2,0.6-160.5,1-240.7,1.1c-18.3,0-36.6,0.1-55,0.1C505,569.1,503.9,569,502.9,569z M736.8,522.2
		c7.7-2.2,10.9-7.2,12.1-14.9c0.8-5,1.7-10,2.6-14.9c0.1-0.5-0.5-1.3,1-1.3c4,0.2,7.9,0.1,11.9,0.2c1.8,0,4.2-0.6,5.2,0.4
		c1,1-0.2,3.3-0.6,5c-0.2,1-0.3,2-0.4,2.9c-2.7,15.6-5.4,31.1-8.1,46.6c-0.3,1.7-0.1,2.5,1.9,2.4c3.1-0.2,6.1-0.2,9.2,0
		c1.9,0.1,2.5-0.8,2.8-2.3c0.4-2.6,0.5-5.4,1.1-7.9c2.4-9.3,3.4-18.9,5.3-28.3c1.1-5.5,2-11,2.8-16.5c0.3-1.9,1.1-2.4,3-2.4
		c4.3,0.2,8.7-0.1,13,0.1c2.1,0.1,2.6-0.8,2.8-2.5c0.4-2.7,0.7-5.4,1.4-8c0.6-2.2-0.2-2.5-2.1-2.5c-14.7,0-29.4,0-44.1-0.2
		c-2.9,0-3.6,1.1-3.8,3.7c-0.2,2.4-0.4,4.8-1.6,7.6c-2.4-8.6-5.5-11-13.9-11.1c-10.1,0-20.2,0-30.3-0.1c-2.1,0-3,0.5-3.3,2.7
		c-0.5,3.9-1.3,7.8-2,11.7c-2.1,12.1-4.1,24.2-6.3,36.2c-1.1,6.1-1.6,12.3-3.5,18.3c-0.4,1.2,0.3,1.6,1.4,1.6c2.9-0.1,5.8-0.3,8.7,0
		c3.1,0.4,4.2-1.1,4.6-3.7c0.1-0.4,0.2-0.7,0.2-1.1c1.1-6.4,2.3-12.9,3.4-19.4c0.2-1.5,0.8-2.2,2.4-2.1c2.2,0.1,4.3,0.2,6.5,0
		c1.9-0.2,2.6,0.5,3.1,2.4c1.7,7.3,3.6,14.5,5.4,21.8c0.3,1.1,0.4,2.1,1.9,2.1c4-0.1,7.9,0,11.9,0c1.2,0,1.3-0.4,1.1-1.5
		C741.1,538.9,739,530.5,736.8,522.2z M555.5,548.8c0,0,0,0.1,0,0.1c3.5,0,7,0,10.6,0c8.2-0.1,14-4.9,15.5-13
		c0.7-3.8,1.5-7.6,2-11.5c0.2-1.8,0.8-3.7,0.4-5.6c-1.2-6.2-5.8-8.6-11.2-10.1c-5.6-1.5-11.3-2.7-17-3.9c-2.4-0.5-3.4-1.7-2.8-4.2
		c0.4-1.9,0.7-3.9,1-5.9c0.4-2.5,1.9-3.8,4.4-3.8c4.3,0,8.7,0,13-0.1c2.3,0,3,1,2.7,3.2c-0.3,1.8-1.7,4.3-0.6,5.4
		c1.2,1.2,3.8,0.3,5.7,0.3c7.6,0,7.6,0,8.7-7.4c1.3-9.2-3.3-14.6-12.6-14.7c-6.6,0-13.2-0.1-19.8,0c-7.3,0.1-13.2,4.9-14.6,12
		c-1,4.7-1.8,9.4-2.5,14.1c-0.5,3.4,0.6,6.4,3,8.9c2.4,2.3,5.2,3.8,8.4,4.5c5.6,1.3,11.2,2.6,16.9,3.9c1.6,0.4,3.1,0.8,2.7,2.9
		c-0.5,2.8-0.9,5.5-1.4,8.3c-0.4,2.2-1.9,3.3-4,3.3c-5,0.1-9.9,0.1-14.9,0.1c-1.9,0-2.5-1-2.2-2.8c0.3-1.8,0.6-3.6,1-5.3
		c0.3-1.2-0.1-1.6-1.3-1.6c-3.5,0.1-7,0-10.6,0c-0.9,0-1.5,0-1.7,1.2c-0.5,3.8-1.6,7.4-1.4,11.3c0.3,5.6,4.5,10,10.1,10.2
		C547.2,549,551.3,548.8,555.5,548.8z M615.9,478.2C615.9,478.2,615.9,478.2,615.9,478.2c-5.6-0.1-11.2,0-16.8-0.1
		c-1.7,0-2.5,0.4-2.8,2.3c-1.7,10.3-3.5,20.6-5.4,30.8c-2.1,11.8-3.5,23.7-6.4,35.3c-0.2,0.9-0.2,2.1,1.4,2c3.8,0,7.6,0,11.4,0
		c0.6,0,1.2-0.1,1.2-0.8c-0.2-1.7,0.8-3.1,1.1-4.6c0.9-5.7,2-11.4,2.9-17.1c0.3-1.7,0.8-2.4,2.7-2.3c6.6,0.2,13.2,0.2,19.8,0
		c7.6-0.1,13.5-5,14.9-12.2c0.5-2.5,0.9-5.1,1.4-7.6c0.8-3.6,1.1-7.2,1.9-10.8c1.9-8.5-3.1-14.7-11.7-14.9
		C626.2,478.1,621.1,478.2,615.9,478.2z M659.5,536.1c-1.1-0.5-2.2-0.2-3.3-0.3c-1.9,0-2.8-0.9-2.5-2.9c2.2-12.5,4.4-25,6.7-37.5
		c0.7-3.7,1.4-4.3,5.1-4.4c1.5-0.1,2-0.5,2.2-2c0.4-2.8,0.8-5.5,1.5-8.3c0.6-2.5-0.1-3.4-2.7-3.1c-1.5,0.2-3.1,0-4.6,0
		c-5.7,0.1-9.9,2.8-12.9,7.6c-1.8,3-2,6.5-2.6,9.8c-2.4,13.5-4.7,27-7,40.5c-0.7,3.9,0.2,7.4,3.3,10.2c4.1,3.7,9.1,2.9,13.9,2.9
		c0.7,0,0.7-0.6,0.8-1.2C658.1,543.8,658.8,539.9,659.5,536.1z M673,549c9.4,0,14.8-4.4,16.6-13.7c1.1-5.7,2-11.4,3-17.1
		c1.4-7.9,2.5-15.9,4.2-23.7c2.2-10.4-2.5-17.7-14.5-16.7c-1.3,0.1-1.9,0.3-2.2,1.7c-0.6,3.1-1.5,6.1-2.1,9.2
		c-0.3,1.3,0.1,2.5,2,2.3c1.3-0.1,2.9,0.1,2.7,1.7c-0.6,4.4-1.5,8.7-2.2,13c-0.7,4.4-1.9,8.7-2.5,13.1c-0.6,4.3-1.5,8.6-2.2,12.9
		c-0.2,1.6-1.1,3.6-2.8,3.6c-3.2,0-3.3,2.3-3.6,4.2c-0.2,1.5-0.6,2.9-0.7,4.4C668.3,549,668.2,549,673,549z"/>
	<path class="st0" d="M908.4,534.1c0,1.5-1,1.7-2.2,1.7c-1.7,0-3.4,0-5.1,0c-2.1-0.2-3,0.7-3.2,2.8c-0.3,2.8-0.9,5.7-1.4,8.5
		c0,1.5-0.9,1.8-2.1,1.8c-4.2,0-8.5-0.1-12.7,0c-1.7,0-1.7-0.7-1.5-2c0.5-2.7,0.9-5.5,1.5-8.3c0.4-2.1,0-3-2.5-2.9
		c-8.2,0.1-16.4,0-24.6,0c-2.3,0-3.3-0.7-3.2-3.1c0-1.9-0.1-3.8-0.6-5.6c-0.8-3.1,0.4-5.2,2.4-7.4c11.8-13.3,23.5-26.7,35.1-40.1
		c1.4-1.6,2.9-2.4,5.1-2.4c4.1,0.1,8.3,0.2,12.4-0.1c2.6-0.1,3.2,1.1,3,3.2c-0.3,2.3-0.7,4.6-1.1,6.9c-1.8,10-3.4,20.1-5.3,30.1
		c-0.5,2.4,0.5,3.1,2.6,3.2c1.4,0,2.7,0.1,4.1,0.1c1.3,0,1.9,0.4,1.6,1.7C909.8,526.3,909.1,530.2,908.4,534.1z M871.5,519.7
		c2.4,1.1,4.8,0.8,7.2,0.8c6,0,6.1,0,7.1-5.8c0.8-4.6,2-9.1,1.9-14.2C882.1,507.2,876.4,513.1,871.5,519.7z"/>
	<path class="st2" d="M896.5,547.1c0.5-2.8,1.1-5.6,1.4-8.5c0.2-2.2,1.2-3,3.2-2.8c-1.5,1.3-1.8,3-2.1,4.8c-0.3,1.7-0.6,3.4-1,5
		C897.8,546.3,897.8,547.5,896.5,547.1z"/>
	<path class="st2" d="M908.4,534.1c0.7-3.9,1.4-7.9,2.1-11.8c1.2-0.3,1.1,0.6,1.1,1.2c-0.4,3.3-0.9,6.6-1.9,9.8
		C909.5,533.8,909.3,534.7,908.4,534.1z"/>
	<path class="st1" d="M314.6,519.6c4-6.9,7.7-13.3,11.5-19.7c4-6.8,8.2-13.5,12.2-20.3c0.6-1,1.2-1.4,2.3-1.4c4.2,0,8.5,0.1,12.7,0
		c1.4,0,1.8,0.2,1.6,1.8c-3.6,20.5-7.1,41.1-10.7,61.6c-0.2,1-0.7,2-0.9,3c-0.6,4-0.6,4-4.5,4c-2.5,0-5.1,0-7.6,0
		c-1.2,0-1.6-0.3-1.4-1.6c1.4-7.3,2.7-14.7,4-22c1.2-6.5,2.3-13,3.5-19.4c0.1-0.5,0-1.1,0-1.7c-1.3,0.3-1.4,1.4-1.9,2.2
		c-5.7,9.8-11.5,19.5-17.1,29.4c-0.8,1.4-1.7,2.2-3.4,1.9c-0.4-0.1-0.9,0-1.4,0c-6.7,0-6.6,0-8.1-6.7c-2.1-9.4-4.4-18.7-6.7-28.4
		c-1.7,2-0.9,4.1-1.4,6c-2.3,8.5-3,17.3-4.9,25.9c-1,4.3-1.7,8.8-2.3,13.2c-0.2,1.2-0.8,1.2-1.6,1.2c-3.1,0-6.1-0.1-9.2,0
		c-1.9,0.1-2.3-0.5-2-2.3c1.2-6.4,2.3-12.9,3.4-19.3c1.9-10.8,3.8-21.7,5.7-32.5c0.8-4.9,1.7-9.8,2.4-14.7c0.2-1.1,0.5-1.7,1.6-1.7
		c4.2,0,8.5,0,12.7,0c1.1,0,1.4,0.6,1.6,1.4c2.5,11.2,5.7,22.1,7.9,33.4C313,515,313.8,517,314.6,519.6z"/>
	<path class="st1" d="M214.1,548.6c-7.6,0-7.6,0-9.2-7.6c-1.2-5.5-2.7-11-3.8-16.5c-0.4-1.8-1.2-2.1-2.8-2c-2,0.1-4,0.2-5.9,0
		c-2.5-0.4-3,0.9-3.3,2.9c-1.1,6.8-2.4,13.6-3.5,20.4c-0.3,2.1-1.1,3.1-3.5,2.9c-3-0.3-6.1-0.1-9.2,0c-1.5,0-1.8-0.5-1.5-1.9
		c1.4-7.5,2.7-15.1,4-22.6c1.8-10.6,3.8-21.2,5.5-31.9c0.6-4.1,1.6-8.1,2.2-12.3c0.2-1.4,0.7-1.8,2-1.8c11.4,0.1,22.7,0,34.1,0.2
		c6.6,0.1,11.4,5.4,10.7,12c-0.8,7-2.1,14-3.6,20.9c-1.1,5.1-4.4,8.6-9.5,10.3c-1.5,0.5-1.7,1-1.3,2.4c2,7.4,3.8,14.9,5.8,22.3
		c0.6,2.1,0,2.5-1.9,2.4C217.6,548.6,215.8,548.6,214.1,548.6z M201.3,509.3C201.3,509.3,201.3,509.3,201.3,509.3c2.3,0,4.7,0,7,0
		c3.1,0,4.4-1.1,5-4.1c0.7-3.5,1.1-7.1,1.9-10.6c0.5-2.5-0.4-3.3-2.7-3.3c-5.2,0.1-10.4,0.1-15.7,0c-1.3,0-1.9,0.2-2.1,1.6
		c-0.8,4.9-1.6,9.8-2.5,14.6c-0.3,1.6,0.3,1.8,1.6,1.7C196.3,509.3,198.8,509.3,201.3,509.3z"/>
	<path class="st1" d="M467.2,548.6c-1.7,0-3.4-0.1-5.1,0c-1.9,0.2-2.4-0.7-2.7-2.3c-1.6-7.3-3.9-14.4-5.1-21.8
		c-0.3-1.5-0.9-2.3-2.6-2.2c-2.9,0.2-6.4-1.1-8.4,0.5c-2,1.6-1.4,5.3-1.9,8.2c-0.9,5-1.8,9.9-2.6,14.9c-0.3,1.8-0.8,2.8-3,2.7
		c-3-0.2-6.1-0.2-9.2,0c-1.9,0.1-2.2-0.5-1.8-2.3c3.1-17.3,6-34.6,9-51.9c0.8-4.6,1.8-9.2,2.4-13.8c0.3-2,1.1-2.4,3-2.4
		c10.6,0.1,21.1,0,31.7,0.1c9.5,0.1,13.9,6.5,11.7,15.9c-1.1,4.8-1.6,9.7-2.4,14.6c-1,6.2-4.1,10.9-10.4,12.9
		c-1.9,0.6-1.1,1.8-0.8,2.8c1.8,7.2,3.6,14.3,5.6,21.5c0.6,2.2,0.4,3.1-2.2,2.8C470.5,548.5,468.8,548.7,467.2,548.6
		C467.2,548.6,467.2,548.6,467.2,548.6z M458,491.4C458,491.4,458,491.4,458,491.4c-2.7,0-5.4,0.1-8.1,0c-1.3,0-1.9,0.3-2.1,1.8
		c-0.7,4.8-1.6,9.6-2.5,14.4c-0.3,1.4,0.1,1.9,1.6,1.9c5-0.1,10.1,0,15.1,0c2.6,0,3.9-1.4,4.3-3.9c0.6-3.7,1.4-7.4,2.1-11.1
		c0.4-1.9-0.2-3-2.3-3C463.4,491.4,460.7,491.4,458,491.4z"/>
	<path class="st1" d="M274,535.3c-0.7,3.9-1.4,7.5-1.9,11.1c-0.2,1.7-0.8,2.2-2.5,2.2c-13.6-0.1-27.2-0.1-40.9-0.1
		c-1.9,0-2.4-0.4-2-2.5c1-4.8,1.6-9.7,2.5-14.5c0.8-4.7,1.8-9.4,2.6-14.1c0.8-4.4,1.4-8.7,2.1-13.1c1.5-8.2,3-16.4,4.5-24.6
		c0.2-1.2,0.8-1.6,2-1.5c13.9,0.1,27.8,0.1,41.7,0.1c1.4,0,1.7,0.4,1.5,1.7c-0.6,3.1-1.2,6.2-1.6,9.3c-0.2,1.7-1,2.1-2.6,2.1
		c-8.8-0.1-17.7,0-26.5-0.1c-1.9,0-2.6,0.5-2.9,2.5c-0.4,3.5-1.1,6.9-1.8,10.4c-0.3,1.5,0.1,1.8,1.6,1.8c7-0.1,14.1,0,21.1-0.1
		c1.8,0,2.3,0.5,1.9,2.3c-0.6,3-1.1,6-1.6,9.1c-0.2,1.5-0.8,2.1-2.4,2c-6.9-0.1-13.9,0.1-20.8-0.1c-2.2-0.1-3.1,1.1-3.1,2.7
		c-0.1,3.8-1.1,7.5-1.7,11.2c-0.3,1.7,0,2.3,1.9,2.3C254.6,535.3,264.2,535.3,274,535.3z"/>
	<path class="st1" d="M420.2,506c-0.7,4.1-1.5,7.7-2,11.3c-0.2,1.7-0.9,2-2.4,2c-6.9-0.1-13.9,0-20.8-0.1c-1.6,0-2.4,0.2-2.7,2
		c-0.7,4.6-1.5,9.2-2.4,14.1c6.6,0,13.1,0,19.6,0c3.3,0,6.7,0,10,0c1.2,0,1.6,0.3,1.3,1.5c-0.7,3.5-1.3,6.9-1.8,10.4
		c-0.3,1.8-1.5,1.4-2.6,1.4c-11.5,0-22.9,0-34.4-0.1c-2.9,0-5.7,0-8.5,0c1.3-7.6,2.6-15,3.9-22.4c2.3-13,4.5-26,6.7-38.9
		c0.4-2.3,0.7-4.6,1.1-6.8c0.4-2.1,1.2-2.3,3-2.3c11.7,0.1,23.5,0.1,35.2,0.1c1.3,0,2.5,0,3.8,0c3.6,0,3.7,0,3.1,3.5
		c-0.4,2.6-1.1,5.1-1.4,7.7c-0.2,1.7-0.9,2-2.4,2c-8.9,0-17.9,0.1-26.8,0c-1.9,0-2.5,0.6-2.7,2.3c-0.5,3.4-1.1,6.8-1.8,10.1
		c-0.4,1.8,0.2,2.3,2,2.3c6.7-0.1,13.4,0,20,0C418.3,506,419.1,506,420.2,506z"/>
	<path class="st1" d="M149.2,478.3c5.4,0,10.8-0.1,16.2,0c6.9,0.2,11.7,5,11.2,11.8c-0.7,8-2,15.9-4.2,23.6
		c-1.8,6.3-7.5,10-14.4,10.1c-6.5,0.1-13,0.1-19.5,0c-1.7,0-2.5,0.3-2.8,2.2c-1.1,6.9-2.4,13.8-3.6,20.7c-0.2,1.5-0.7,2-2.2,2
		c-3.2-0.1-6.5-0.1-9.7,0c-1.9,0.1-2.3-0.6-2-2.3c1.9-10.5,3.6-21,5.5-31.4c1.9-11.1,3.9-22.2,5.7-33.3c0.4-2.6,1.3-3.5,4-3.4
		c5.2,0.3,10.5,0.1,15.7,0.1C149.2,478.2,149.2,478.2,149.2,478.3z M151.7,491.3C151.7,491.3,151.7,491.4,151.7,491.3
		c-2.5,0-5.1,0.2-7.6,0c-2.1-0.2-2.6,0.8-2.8,2.5c-0.8,4.8-1.5,9.6-2.5,14.4c-0.4,2,0.2,2.2,2,2.2c4.7-0.1,9.4,0,14.1,0
		c3.4,0,4.7-1,5.3-4.5c0.7-3.9,1.3-7.8,2-11.7c0.4-2-0.3-2.9-2.3-2.9C157.1,491.3,154.4,491.3,151.7,491.3z"/>
	<path class="st1" d="M358,548.4c-2.2,0-4.5,0-6.7,0c0.4-2.1,0.9-4.1,1.3-6.2c3.3-18.6,6.5-37.3,9.7-55.9c0.3-1.8,0.5-3.7,0.8-5.5
		c0.4-2.1,1.2-2.8,3.3-2.6c3.1,0.2,6.3,0.1,9.5,0.1c1.3,0,1.7,0.4,1.5,1.7c-2.3,13.1-4.4,26.3-6.9,39.4c-1.4,7.5-2.1,15.1-4.2,22.4
		c-0.4,1.5-0.3,3.2-0.5,4.8c-0.2,1.6-1,2.1-2.5,2c-1.7-0.1-3.4,0-5.1,0C358,548.5,358,548.5,358,548.4z"/>
	<path class="st1" d="M736.8,522.2c2.2,8.3,4.3,16.7,6.5,25c0.3,1.1,0.1,1.5-1.1,1.5c-4,0-7.9-0.1-11.9,0c-1.6,0-1.7-1-1.9-2.1
		c-1.8-7.3-3.7-14.5-5.4-21.8c-0.4-1.8-1.1-2.5-3.1-2.4c-2.2,0.2-4.3,0.1-6.5,0c-1.6-0.1-2.2,0.6-2.4,2.1
		c-1.1,6.5-2.2,12.9-3.4,19.4c-0.1,0.4-0.2,0.7-0.2,1.1c-0.4,2.7-1.5,4.2-4.6,3.7c-2.8-0.4-5.8-0.1-8.7,0c-1.2,0-1.8-0.4-1.4-1.6
		c1.9-6,2.4-12.2,3.5-18.3c2.2-12.1,4.2-24.2,6.3-36.2c0.7-3.9,1.5-7.8,2-11.7c0.3-2.2,1.2-2.7,3.3-2.7c10.1,0.1,20.2,0.1,30.3,0.1
		c8.4,0,11.5,2.4,13.9,11.1c1.2-2.8,1.5-5.2,1.6-7.6c0.2-2.6,0.9-3.7,3.8-3.7c14.7,0.2,29.4,0.2,44.1,0.2c2,0,2.7,0.3,2.1,2.5
		c-0.7,2.6-1,5.3-1.4,8c-0.2,1.7-0.7,2.7-2.8,2.5c-4.3-0.2-8.7,0.1-13-0.1c-1.9-0.1-2.7,0.4-3,2.4c-0.8,5.5-1.7,11.1-2.8,16.5
		c-1.9,9.4-3,19-5.3,28.3c-0.7,2.6-0.7,5.3-1.1,7.9c-0.2,1.5-0.9,2.4-2.8,2.3c-3.1-0.2-6.1-0.2-9.2,0c-2,0.1-2.2-0.7-1.9-2.4
		c2.7-15.5,5.4-31.1,8.1-46.6c0.2-1,0.2-2,0.4-2.9c0.4-1.7,1.6-4,0.6-5c-1-0.9-3.4-0.3-5.2-0.4c-4-0.1-7.9,0.1-11.9-0.2
		c-1.4-0.1-0.9,0.8-1,1.3c-0.9,5-1.9,9.9-2.6,14.9C747.7,515,744.5,520,736.8,522.2z M726.7,491.3
		C726.7,491.4,726.7,491.4,726.7,491.3c-2.6,0-5.2,0.1-7.8,0c-1.4-0.1-2.1,0.3-2.3,1.8c-0.8,4.9-1.6,9.8-2.5,14.6
		c-0.2,1.3,0.2,1.5,1.3,1.5c5.2,0,10.4,0,15.7,0c2.2,0,3.6-1.2,4-3.3c0.8-3.9,1.4-7.8,2.1-11.7c0.4-2.1-0.6-3-2.6-3
		C731.9,491.4,729.3,491.3,726.7,491.3z"/>
	<path class="st1" d="M555.5,548.8c-4.2,0-8.3,0.1-12.5,0c-5.6-0.3-9.8-4.6-10.1-10.2c-0.2-3.8,0.9-7.5,1.4-11.3
		c0.1-1.1,0.8-1.2,1.7-1.2c3.5,0,7,0,10.6,0c1.2,0,1.6,0.4,1.3,1.6c-0.4,1.8-0.7,3.5-1,5.3c-0.3,1.8,0.3,2.8,2.2,2.8
		c5,0,9.9,0,14.9-0.1c2.1,0,3.6-1.1,4-3.3c0.5-2.7,1-5.5,1.4-8.3c0.4-2.1-1.2-2.6-2.7-2.9c-5.6-1.3-11.2-2.6-16.9-3.9
		c-3.2-0.7-6.1-2.2-8.4-4.5c-2.5-2.4-3.5-5.5-3-8.9c0.7-4.7,1.5-9.4,2.5-14.1c1.5-7.2,7.4-11.9,14.6-12c6.6-0.1,13.2,0,19.8,0
		c9.3,0,13.9,5.5,12.6,14.7c-1.1,7.4-1.1,7.4-8.7,7.4c-2,0-4.5,0.9-5.7-0.3c-1.1-1.1,0.3-3.5,0.6-5.4c0.4-2.2-0.3-3.2-2.7-3.2
		c-4.3,0.1-8.7,0-13,0.1c-2.6,0-4,1.4-4.4,3.8c-0.3,2-0.6,3.9-1,5.9c-0.6,2.5,0.4,3.6,2.8,4.2c5.7,1.2,11.4,2.4,17,3.9
		c5.3,1.4,9.9,3.9,11.2,10.1c0.4,1.9-0.2,3.8-0.4,5.6c-0.5,3.8-1.3,7.7-2,11.5c-1.6,8.1-7.3,12.9-15.5,13c-3.5,0-7,0-10.6,0
		C555.5,548.9,555.5,548.8,555.5,548.8z"/>
	<path class="st1" d="M615.9,478.2c5.1,0,10.3-0.1,15.4,0c8.6,0.2,13.6,6.4,11.7,14.9c-0.8,3.6-1.1,7.2-1.9,10.8
		c-0.6,2.5-0.9,5.1-1.4,7.6c-1.4,7.3-7.4,12.1-14.9,12.2c-6.6,0.1-13.2,0.1-19.8,0c-1.9,0-2.5,0.6-2.7,2.3c-0.9,5.7-2,11.4-2.9,17.1
		c-0.2,1.6-1.2,3-1.1,4.6c0.1,0.7-0.6,0.8-1.2,0.8c-3.8,0-7.6,0-11.4,0c-1.6,0-1.6-1.2-1.4-2c2.9-11.6,4.3-23.6,6.4-35.3
		c1.9-10.3,3.7-20.5,5.4-30.8c0.3-1.9,1.1-2.3,2.8-2.3C604.7,478.2,610.3,478.2,615.9,478.2C615.9,478.2,615.9,478.2,615.9,478.2z
		 M618.3,491.4C618.3,491.4,618.3,491.4,618.3,491.4c-2.7,0-5.4,0-8.1,0c-1.1,0-1.8,0.2-2,1.5c-0.8,5.2-1.8,10.5-2.7,15.7
		c-0.2,1.4,0.1,1.9,1.6,1.9c5-0.1,10.1-0.1,15.1,0c2.3,0,3.9-1.1,4.3-3.3c0.9-4.4,1.6-8.8,2.4-13.2c0.3-1.7-0.5-2.5-2.2-2.5
		C623.9,491.4,621.1,491.4,618.3,491.4z"/>
	<path class="st1" d="M659.5,536.1c-0.7,3.9-1.4,7.7-2.1,11.6c-0.1,0.5-0.1,1.2-0.8,1.2c-4.8,0-9.8,0.9-13.9-2.9
		c-3.1-2.8-3.9-6.3-3.3-10.2c2.3-13.5,4.6-27,7-40.5c0.6-3.3,0.8-6.8,2.6-9.8c2.9-4.8,7.1-7.5,12.9-7.6c1.5,0,3.1,0.1,4.6,0
		c2.6-0.3,3.3,0.6,2.7,3.1c-0.7,2.7-1.1,5.5-1.5,8.3c-0.2,1.5-0.8,1.9-2.2,2c-3.7,0.1-4.4,0.7-5.1,4.4c-2.3,12.5-4.4,25-6.7,37.5
		c-0.4,2,0.5,2.8,2.5,2.9C657.3,535.8,658.4,535.6,659.5,536.1z"/>
	<path class="st1" d="M673,549c-4.9,0-4.7,0-4.2-5c0.2-1.5,0.5-2.9,0.7-4.4c0.2-1.9,0.4-4.2,3.6-4.2c1.7,0,2.6-2,2.8-3.6
		c0.6-4.3,1.6-8.6,2.2-12.9c0.6-4.4,1.7-8.7,2.5-13.1c0.7-4.3,1.7-8.6,2.2-13c0.2-1.6-1.4-1.9-2.7-1.7c-1.9,0.2-2.3-1-2-2.3
		c0.6-3.1,1.5-6.1,2.1-9.2c0.3-1.4,0.9-1.6,2.2-1.7c12-1,16.7,6.3,14.5,16.7c-1.7,7.9-2.8,15.8-4.2,23.7c-1,5.7-1.9,11.4-3,17.1
		C687.8,544.6,682.4,548.9,673,549z"/>
	<path class="st1" d="M871.5,519.7c4.9-6.6,10.7-12.6,16.2-19.2c0,5-1.1,9.6-1.9,14.2c-1,5.9-1.1,5.9-7.1,5.8
		C876.3,520.6,873.8,520.8,871.5,519.7z"/>
	<path class="st0" d="M201.3,509.3c-2.5,0-5,0-7.6,0c-1.3,0-1.9-0.1-1.6-1.7c0.9-4.9,1.8-9.7,2.5-14.6c0.2-1.4,0.9-1.7,2.1-1.6
		c5.2,0,10.4,0,15.7,0c2.4,0,3.3,0.8,2.7,3.3c-0.7,3.5-1.2,7.1-1.9,10.6c-0.6,3-1.9,4.1-5,4.1C206,509.4,203.7,509.3,201.3,509.3
		C201.3,509.3,201.3,509.3,201.3,509.3z"/>
	<path class="st0" d="M458,491.4c2.7,0,5.4,0,8.1,0c2.1,0,2.7,1.1,2.3,3c-0.7,3.7-1.4,7.4-2.1,11.1c-0.4,2.5-1.7,3.9-4.3,3.9
		c-5.1,0-10.1-0.1-15.1,0c-1.5,0-1.8-0.5-1.6-1.9c0.9-4.8,1.8-9.6,2.5-14.4c0.2-1.4,0.8-1.8,2.1-1.8
		C452.5,491.4,455.2,491.4,458,491.4C458,491.4,458,491.4,458,491.4z"/>
	<path class="st0" d="M151.7,491.3c2.7,0,5.4,0,8.1,0c2,0,2.7,0.9,2.3,2.9c-0.7,3.9-1.3,7.8-2,11.7c-0.6,3.4-1.9,4.4-5.3,4.5
		c-4.7,0-9.4-0.1-14.1,0c-1.7,0-2.4-0.2-2-2.2c1-4.8,1.8-9.6,2.5-14.4c0.3-1.7,0.7-2.8,2.8-2.5C146.7,491.5,149.2,491.4,151.7,491.3
		C151.7,491.4,151.7,491.3,151.7,491.3z"/>
	<path class="st2" d="M726.7,491.3c2.6,0,5.2,0,7.8,0c2,0,3,0.9,2.6,3c-0.7,3.9-1.3,7.8-2.1,11.7c-0.4,2.1-1.8,3.3-4,3.3
		c-5.2,0-10.4,0-15.7,0c-1.1,0-1.6-0.2-1.3-1.5c0.9-4.9,1.7-9.7,2.5-14.6c0.2-1.5,0.9-1.9,2.3-1.8
		C721.4,491.4,724.1,491.4,726.7,491.3C726.7,491.4,726.7,491.4,726.7,491.3z"/>
	<path class="st2" d="M618.3,491.4c2.8,0,5.6,0,8.4,0c1.7,0,2.5,0.8,2.2,2.5c-0.8,4.4-1.5,8.9-2.4,13.2c-0.5,2.2-2,3.3-4.3,3.3
		c-5,0-10.1-0.1-15.1,0c-1.5,0-1.8-0.5-1.6-1.9c0.9-5.2,1.9-10.5,2.7-15.7c0.2-1.3,0.9-1.6,2-1.5
		C612.9,491.4,615.6,491.4,618.3,491.4C618.3,491.4,618.3,491.4,618.3,491.4z"/>
</g>
</svg>
