<svg width="1024" height="1024" viewBox="0 0 1024 1024" fill="none" xmlns="http://www.w3.org/2000/svg">
<g clip-path="url(#clip0_38_73)">
<rect width="1024" height="1024" fill="white"/>
<path d="M1024 0H0V1024H1024V0Z" fill="url(#paint0_linear_38_73)"/>
<path d="M933.5 445.5C941.22 445.59 948.78 449.77 952.89 456.33C955.82 460.99 956.96 466.73 956.11 472.17C951.66 499.13 947.11 526.05 942.5 552.97C940.05 566.82 927.45 578 913.1 578.57C912.76 578.61 912.39 578.57 912.05 578.57L829.93 578.68C816.77 578.7 805.15 565.93 807.32 552.01C811.77 525.05 816.32 498.13 820.93 471.21C823.46 457.09 836.64 445.5 851.36 445.5H933.48M851.56 450.01C839.23 450.05 827.62 459.27 825.36 471.97C820.75 498.89 816.22 525.79 811.79 552.71C810.15 563.13 818.73 574.17 829.95 574.17H912.02C924.35 574.17 935.84 564.68 938.04 552.19C942.63 525.27 947.18 498.37 951.61 471.45C953.25 461.05 944.94 450.01 933.45 450.01H851.56Z" fill="#006530"/>
<path d="M112.47 446.88C98.3802 446.88 86.3502 457.02 84.0202 470.89C80.1802 493.88 74.3402 528.37 70.4602 551.43C69.4602 557.43 71.1402 563.62 75.1002 568.25C79.0302 572.95 84.8702 575.6 90.9702 575.6H911.51C925.6 575.6 937.62 565.46 939.93 551.59C943.81 528.6 949.61 494.15 953.49 471.07C954.5 465.06 952.81 458.86 948.85 454.22C944.92 449.56 939.12 446.87 932.99 446.87H112.47V446.89V446.88Z" fill="url(#paint1_linear_38_73)"/>
<path d="M933.5 445.5C941.22 445.59 948.78 449.77 952.89 456.33C955.82 460.99 956.96 466.73 956.11 472.17C951.66 499.13 947.11 526.05 942.5 552.97C940.05 566.82 927.45 577.99 913.1 578.56C912.76 578.6 912.39 578.6 912.05 578.6C799.16 578.89 650.22 579 501.27 579.03C352.33 579.05 203.38 579 90.49 578.6C77.33 578.46 65.68 565.94 67.88 552.02C72.33 525.06 76.88 498.14 81.49 471.22C83.98 457.08 97.2 445.65 111.94 445.55C337.72 444.87 707.71 444.77 933.49 445.55M111.75 450C99.44 450.05 88.08 459.12 85.85 471.8C81.24 498.72 76.6 525.8 72.19 552.72C70.52 563.14 79.27 574.06 90.53 574.18C203.41 574.56 351.8 574.62 500.2 574.6C648.59 574.58 796.98 574.48 909.87 574.18C922.2 574.07 932.97 564.51 935.18 552.03C939.79 525.11 945.05 498.39 949.5 471.47C951.12 461.07 942.79 450.1 931.3 449.97C705.59 449.21 337.5 449.97 111.76 449.97" fill="#006530"/>
<path d="M524.85 452.25L503 570.46C595.41 570.46 757.24 570.74 849.65 570.46C861.91 570.37 873.34 561.08 875.63 548.63C880.04 523.7 884.4 498.75 888.66 473.78C890.39 463.32 881.84 452.32 870.51 452.23C839.8 452.12 801.39 452.05 760.43 452.05C678.47 452.05 586.25 452.23 524.86 452.23" fill="url(#paint2_linear_38_73)"/>
<g opacity="0.37">
<path d="M558.91 480.43C554.92 480.43 551.53 481.61 548.71 484.03C545.92 486.43 544.15 489.69 543.44 493.78L541.34 505.54C540.72 509.19 541.39 512.27 543.51 514.79C545.63 517.28 548.81 519.03 552.98 520.02L570.1 523.92C571.1 524.17 571.74 524.49 572.02 524.83C572.3 525.2 572.39 525.88 572.27 526.86L570.99 534.46C570.6 536.97 569.16 538.22 566.68 538.22H551.87C550.86 538.22 550.18 538.05 549.86 537.66C549.61 537.29 549.56 536.52 549.72 535.44L550.95 528.68H537.25L535.77 537.19C535.06 541.37 535.77 544.77 537.92 547.46C540.16 550.2 543.28 551.55 547.32 551.55H568.94C572.91 551.55 576.32 550.34 579.14 547.96C581.93 545.52 583.7 542.28 584.41 538.17L586.62 525.68C587.33 522.03 586.62 518.97 584.5 516.5C582.33 514.04 579.14 512.28 574.91 511.25L557.76 507.32C556.8 507.07 556.18 506.79 555.89 506.39C555.59 506.05 555.5 505.38 555.64 504.41L556.83 497.54C557.22 495 558.66 493.73 561.14 493.73H574.86C575.82 493.73 576.44 493.93 576.76 494.32C577.04 494.71 577.1 495.46 576.9 496.54L575.83 502.5H589.5L590.85 494.78C591.58 490.6 590.81 487.18 588.59 484.51C586.47 481.79 583.36 480.43 579.3 480.43H558.91Z" fill="black"/>
<path d="M599.56 480.83L587.25 551.13H601.34L605.65 526.4H627.47C631.51 526.4 634.94 525.12 637.74 522.75C640.53 520.31 642.26 517.08 642.92 512.97L646.14 495.21C646.8 491.09 646 487.69 643.79 484.95C641.58 482.21 638.47 480.83 634.48 480.83H599.57H599.56ZM611.3 494.2H629.5C630.55 494.2 631.19 494.38 631.48 494.77C631.78 495.14 631.89 495.84 631.66 496.96L629.51 509.28C628.99 511.82 627.59 513.12 625.2 513.12H607.99L611.3 494.2Z" fill="black"/>
<path d="M708.019 480.87L695.689 551.17H709.779L714.389 525.05H725.329L731.789 551.17H746.539L739.719 524.66C746.289 523.08 750.249 518.83 751.549 511.73L754.439 495.23C755.169 491.05 754.439 487.64 752.219 484.97C750.009 482.23 746.859 480.83 742.819 480.83H707.999V480.87H708.019ZM719.729 494.19H737.849C738.899 494.19 739.489 494.42 739.769 494.81C740.049 495.18 740.229 495.91 740.039 497.03L738.079 508.19C737.559 510.7 736.089 511.94 733.739 511.94H716.649L719.759 494.16H719.729V494.18V494.19Z" fill="black"/>
<path d="M757.43 480.83L755.17 493.89H773.07L763 551.14H777.06L787.15 493.89H805.05L807.29 480.83H757.43Z" fill="black"/>
<path d="M683.4 480.44L681.09 493.73H683.69C684.65 493.73 685.31 493.93 685.61 494.32C685.89 494.71 685.91 495.46 685.75 496.54L679.08 534.48C678.65 536.99 677.26 538.27 674.9 538.27H673.32L671.01 551.56H677.04C681.03 551.56 684.41 550.35 687.2 547.97C689.99 545.53 691.79 542.29 692.52 538.18L700.14 494.78C700.85 490.6 700.07 487.18 697.84 484.51C695.69 481.79 692.61 480.42 688.55 480.42H683.41V480.44H683.4ZM665.41 480.44C661.44 480.44 658.04 481.63 655.21 484.05C652.42 486.45 650.65 489.71 649.94 493.8L642.32 537.2C641.55 541.38 642.32 544.78 644.44 547.47C646.74 550.21 649.87 551.56 653.84 551.56H660.12L662.43 538.27H658.84C657.79 538.27 657.08 538.07 656.83 537.68C656.53 537.31 656.46 536.54 656.65 535.46L663.31 497.56C663.84 495.02 665.27 493.75 667.62 493.75H670.22L672.53 480.46H665.41V480.44Z" fill="black"/>
</g>
<path d="M556.24 477.76C552.25 477.76 548.86 478.94 546.04 481.36C543.25 483.76 541.48 487.02 540.77 491.11L538.67 502.87C538.05 506.52 538.72 509.6 540.84 512.12C542.96 514.61 546.14 516.36 550.31 517.35L567.43 521.25C568.43 521.5 569.07 521.82 569.35 522.16C569.63 522.53 569.72 523.21 569.6 524.19L568.32 531.79C567.93 534.3 566.49 535.55 564.01 535.55H549.2C548.19 535.55 547.51 535.38 547.19 534.99C546.94 534.62 546.89 533.85 547.05 532.77L548.28 526.01H534.58L533.1 534.52C532.39 538.7 533.1 542.1 535.25 544.79C537.49 547.53 540.61 548.88 544.65 548.88H566.27C570.24 548.88 573.65 547.67 576.47 545.29C579.26 542.85 581.03 539.61 581.74 535.5L583.95 523.01C584.66 519.36 583.95 516.3 581.83 513.83C579.66 511.37 576.47 509.61 572.24 508.58L555.09 504.65C554.13 504.4 553.51 504.12 553.22 503.72C552.92 503.38 552.83 502.71 552.97 501.74L554.16 494.87C554.55 492.33 555.99 491.06 558.47 491.06H572.19C573.15 491.06 573.77 491.26 574.09 491.65C574.37 492.04 574.43 492.79 574.23 493.87L573.16 499.83H586.83L588.18 492.11C588.91 487.93 588.14 484.51 585.92 481.84C583.8 479.12 580.69 477.76 576.63 477.76H556.24Z" fill="url(#paint3_linear_38_73)"/>
<path d="M596.89 478.16L584.58 548.46H598.67L602.98 523.73H624.8C628.84 523.73 632.27 522.45 635.07 520.08C637.86 517.64 639.59 514.41 640.25 510.3L643.47 492.54C644.13 488.42 643.33 485.02 641.12 482.28C638.91 479.54 635.8 478.16 631.81 478.16H596.9H596.89ZM608.63 491.53H626.83C627.88 491.53 628.52 491.71 628.81 492.1C629.11 492.47 629.22 493.17 628.99 494.29L626.84 506.61C626.32 509.15 624.92 510.45 622.53 510.45H605.32L608.63 491.53Z" fill="url(#paint4_linear_38_73)"/>
<path d="M705.349 478.2L693.02 548.5H707.109L711.719 522.38H722.659L729.12 548.5H743.87L737.049 521.99C743.619 520.41 747.58 516.16 748.88 509.06L751.77 492.56C752.5 488.38 751.769 484.97 749.549 482.3C747.339 479.56 744.19 478.16 740.15 478.16H705.33V478.2H705.349ZM717.06 491.52H735.18C736.23 491.52 736.819 491.75 737.099 492.14C737.379 492.51 737.56 493.24 737.37 494.36L735.409 505.52C734.889 508.03 733.42 509.27 731.07 509.27H713.979L717.09 491.49H717.06V491.51V491.52Z" fill="url(#paint5_linear_38_73)"/>
<path d="M754.76 478.16L752.5 491.22H770.4L760.33 548.47H774.39L784.48 491.22H802.38L804.62 478.16H754.76Z" fill="url(#paint6_linear_38_73)"/>
<path d="M680.73 477.77L678.42 491.06H681.02C681.98 491.06 682.64 491.26 682.94 491.65C683.22 492.04 683.24 492.79 683.08 493.87L676.41 531.81C675.98 534.32 674.59 535.6 672.23 535.6H670.65L668.34 548.89H674.37C678.36 548.89 681.74 547.68 684.53 545.3C687.32 542.86 689.12 539.62 689.85 535.51L697.47 492.11C698.18 487.93 697.4 484.51 695.17 481.84C693.02 479.12 689.94 477.75 685.88 477.75H680.74V477.77H680.73ZM662.74 477.77C658.77 477.77 655.37 478.96 652.54 481.38C649.75 483.78 647.98 487.04 647.27 491.13L639.65 534.53C638.88 538.71 639.65 542.11 641.77 544.8C644.07 547.54 647.2 548.89 651.17 548.89H657.45L659.76 535.6H656.17C655.12 535.6 654.41 535.4 654.16 535.01C653.86 534.64 653.79 533.87 653.98 532.79L660.64 494.89C661.17 492.35 662.6 491.08 664.95 491.08H667.55L669.86 477.79H662.74V477.77Z" fill="url(#paint7_linear_38_73)"/>
<path d="M129.87 478.2L117.56 548.52H131.62L135.94 523.75H157.74C161.78 523.75 165.23 522.51 168.04 520.14C170.83 517.7 172.56 514.47 173.18 510.36L176.44 492.59C177.1 488.46 176.3 485.07 174.09 482.33C171.85 479.59 168.77 478.2 164.78 478.2H129.87ZM141.61 491.48H159.81C160.86 491.48 161.5 491.71 161.82 492.1C162.1 492.47 162.16 493.2 161.96 494.32L159.81 506.64C159.29 509.18 157.85 510.4 155.5 510.4H138.26L141.61 491.47V491.48Z" fill="url(#paint8_linear_38_73)"/>
<path d="M183.07 478.2L170.76 548.52H184.84L189.43 522.38H200.37L206.83 548.52H221.59L214.74 522.08C221.34 520.5 225.29 516.18 226.58 509.08L229.5 492.58C230.21 488.4 229.46 484.99 227.26 482.32C225.05 479.58 221.91 478.19 217.87 478.19H183.07V478.21V478.2ZM194.81 491.52H212.88C213.93 491.52 214.64 491.75 214.89 492.14C215.19 492.51 215.26 493.24 215.07 494.36L213.11 505.6C212.59 508.11 211.14 509.3 208.79 509.3H191.7L194.81 491.5V491.52Z" fill="url(#paint9_linear_38_73)"/>
<path d="M238.61 478.2L226.3 548.52H271.55L273.93 535.24H242.75L245.47 519.24H270.67L273.02 505.95H247.82L250.36 491.53H281.54L283.89 478.2H238.6V478.22L238.61 478.2Z" fill="url(#paint10_linear_38_73)"/>
<path d="M339.25 478.2L314.43 519.81L304.23 478.2H289.18L276.85 548.52H290.14L298.57 501.64L307.34 537.3H317.13L338.07 501.64L329.67 548.52H342.96L355.27 478.2H339.24H339.25Z" fill="url(#paint11_linear_38_73)"/>
<path d="M363.519 478.2L351.189 548.52H365.279L377.589 478.24V478.2H363.509H363.519Z" fill="url(#paint12_linear_38_73)"/>
<path d="M385.799 478.2L373.489 548.52H418.739L421.119 535.24H389.939L392.659 519.26H417.859L420.209 505.98H395.009L397.549 491.53H428.729L431.079 478.2H385.789V478.22L385.799 478.2Z" fill="url(#paint13_linear_38_73)"/>
<path d="M436.37 478.2L424.04 548.52H438.13L442.72 522.38H453.66L460.14 548.52H474.91L468.04 522.08C474.66 520.5 478.57 516.18 479.89 509.08L482.81 492.58C483.54 488.4 482.77 484.99 480.57 482.32C478.36 479.58 475.21 478.19 471.17 478.19H436.36V478.21L436.37 478.2ZM448.11 491.52H466.19C467.24 491.52 467.88 491.75 468.2 492.14C468.48 492.51 468.54 493.24 468.34 494.36L466.38 505.6C465.85 508.11 464.42 509.3 462.07 509.3H444.95L448.1 491.5V491.52H448.11Z" fill="url(#paint14_linear_38_73)"/>
<path opacity="0.75" d="M869.05 454.67C874.99 454.72 880.78 459.76 883.86 464.79C886.07 468.4 886.89 472.79 886.16 476.97C881.27 504.15 875.7 531.34 870.63 558.51C868.73 568.36 857.91 576.08 847.62 576.22C734.65 577.16 604.46 577.16 472.14 577.02C339.82 576.88 207.49 576.58 94.5102 576.22C84.4002 576.11 74.1502 566.42 75.9902 555.91C80.8802 528.7 85.9202 501.52 90.9902 474.33C92.9102 464.44 103.89 454.82 114.28 454.73C340.2 454.05 643.13 453.91 869.05 454.73M114.39 460.56C106.29 460.56 98.3902 467.07 96.8402 475.2C91.7502 502.38 86.5402 529.53 81.8002 556.78C80.6102 564.04 86.8202 571.79 94.7702 571.93C207.74 573.1 339.98 572.69 472.21 572.63C604.45 572.57 734.55 572.88 847.53 571.93C855.52 571.82 864.56 565.79 866.14 557.81C871.37 530.65 876.78 503.42 881.67 476.21C882.95 468.86 877.11 460.65 868.98 460.56C643.13 459.71 340.26 460.56 114.37 460.56" fill="black"/>
<path d="M865.49 452C871.43 452.05 877.22 455.31 880.3 460.34C882.51 463.95 883.33 468.34 882.6 472.52C877.71 499.7 872.67 526.89 867.6 554.06C865.7 563.91 856.48 571.81 846.19 571.95C620.25 573.84 317.25 572.66 91.2904 571.95C81.1804 571.84 72.3604 561.97 74.1904 551.46C79.0804 524.25 84.1204 497.07 89.1904 469.88C91.1104 459.99 100.31 452.15 110.7 452.06C336.62 451.38 639.55 451.24 865.47 452.06M110.85 456.54C102.75 456.54 95.1904 462.62 93.6404 470.75C88.5504 497.93 83.3404 525.08 78.6004 552.33C77.4104 559.59 83.2604 567.34 91.2204 567.48C317.16 569.83 620.16 569.37 846.12 567.48C854.11 567.37 861.55 561.34 863.13 553.36C868.36 526.2 873.24 498.97 878.13 471.76C879.41 464.41 873.57 456.64 865.44 456.55C639.59 455.7 336.72 456.55 110.83 456.55" fill="white"/>
<path d="M910.28 570.75H833.32C821.72 570.75 813.99 561.25 816.17 549.66L830.3 473.89C832.47 462.31 843.74 452.8 855.36 452.8H932.32C943.92 452.8 951.65 462.3 949.47 473.89L935.34 549.66C933.17 561.24 921.9 570.75 910.28 570.75Z" fill="white"/>
<path opacity="0.43" d="M935.29 454.73C941.26 454.78 947.06 458.17 950.15 463.21C952.37 466.83 953.2 471.23 952.47 475.42C947.56 502.65 942.79 529.9 937.69 557.13C935.78 567 926.58 575.26 916.25 575.24L835.19 575.06C825.04 575.04 814.4 565.1 816.22 554.55C821.17 527.32 826.19 500.07 831.32 472.84C833.23 462.93 842.47 454.73 852.92 454.73H935.28H935.29ZM853.04 459.19C844.91 459.23 837.35 465.48 835.76 473.64C830.67 500.87 825.42 528.08 820.7 555.39C819.49 562.66 825.38 570.52 833.35 570.54L916.21 570.72C924.23 570.74 931.66 564.57 933.29 556.53C938.54 529.35 943.26 501.87 948.17 474.61C949.46 467.25 943.6 459.21 935.43 459.21L853.04 459.19Z" fill="black"/>
<path d="M932.51 452.06C938.45 452.11 944.41 455.32 947.49 460.35C949.7 463.96 950.53 468.36 949.8 472.54C944.91 499.73 939.98 526.76 934.91 553.95C933.01 563.81 923.84 572.03 913.56 572.03H831.22C821.11 572.03 812.29 562.1 814.1 551.57C819.03 524.38 824.03 497.17 829.14 469.98C831.04 460.09 840.42 452.06 850.83 452.06H932.51ZM850.94 456.52C842.84 456.56 835.14 462.63 833.55 470.78C828.48 497.97 823.25 525.14 818.55 552.41C817.34 559.67 823.21 567.52 831.15 567.52H913.5C921.49 567.52 928.89 561.38 930.51 553.36C935.74 526.22 940.62 499.14 945.51 471.91C946.79 464.56 940.78 456.54 932.64 456.54L850.93 456.52H850.94Z" fill="white"/>
<path opacity="0.41" d="M902.99 478.85L890.73 548.87H876.26L885.08 494.59L870.8 500.17L872.6 487.21L891.45 479.02L903 478.86L902.99 478.85Z" fill="black"/>
<path d="M898 481.35L886.17 548.71H872.27L881.51 495.86L867.64 500.26L869.54 488.64L886.99 481.34H898V481.35Z" fill="#004B1D"/>
<path d="M837.87 456.46L850.94 456.51L850.96 452.02L837.02 451.97L837.88 456.45L837.87 456.46Z" fill="white"/>
</g>
<defs>
<linearGradient id="paint0_linear_38_73" x1="0" y1="512" x2="1024" y2="512" gradientUnits="userSpaceOnUse">
<stop stop-color="#00250D"/>
<stop offset="0.02" stop-color="#003010"/>
<stop offset="0.15" stop-color="#003412"/>
<stop offset="0.27" stop-color="#00441A"/>
<stop offset="0.32" stop-color="#004B1D"/>
<stop offset="0.35" stop-color="#004B1D"/>
<stop offset="0.46" stop-color="#004B1D"/>
<stop offset="0.95" stop-color="#004A1C"/>
</linearGradient>
<linearGradient id="paint1_linear_38_73" x1="70.6852" y1="510.849" x2="973.517" y2="510.849" gradientUnits="userSpaceOnUse">
<stop stop-color="#00250D"/>
<stop offset="0.02" stop-color="#003010"/>
<stop offset="0.15" stop-color="#003412"/>
<stop offset="0.27" stop-color="#00441A"/>
<stop offset="0.32" stop-color="#004B1D"/>
<stop offset="0.35" stop-color="#004B1D"/>
<stop offset="0.46" stop-color="#004B1D"/>
<stop offset="0.95" stop-color="#004A1C"/>
</linearGradient>
<linearGradient id="paint2_linear_38_73" x1="505.582" y1="511.401" x2="884.492" y2="511.401" gradientUnits="userSpaceOnUse">
<stop stop-color="#AD0434"/>
<stop offset="0.32" stop-color="#A80A33"/>
<stop offset="0.61" stop-color="#A41233"/>
<stop offset="0.72" stop-color="#941530"/>
<stop offset="0.84" stop-color="#831B2F"/>
<stop offset="1" stop-color="#51252B"/>
</linearGradient>
<linearGradient id="paint3_linear_38_73" x1="531.473" y1="542.711" x2="588.819" y2="485.366" gradientUnits="userSpaceOnUse">
<stop stop-color="#CFD1D2"/>
<stop offset="0.5" stop-color="white"/>
<stop offset="1" stop-color="#CFD1D2"/>
</linearGradient>
<linearGradient id="paint4_linear_38_73" x1="530.986" y1="589.84" x2="591.812" y2="529.078" gradientUnits="userSpaceOnUse">
<stop stop-color="#CFD1D2"/>
<stop offset="0.5" stop-color="white"/>
<stop offset="1" stop-color="#CFD1D2"/>
</linearGradient>
<linearGradient id="paint5_linear_38_73" x1="646.732" y1="597.029" x2="707.558" y2="536.267" gradientUnits="userSpaceOnUse">
<stop stop-color="#CFD1D2"/>
<stop offset="0.5" stop-color="white"/>
<stop offset="1" stop-color="#CFD1D2"/>
</linearGradient>
<linearGradient id="paint6_linear_38_73" x1="745.206" y1="526.984" x2="801.956" y2="470.235" gradientUnits="userSpaceOnUse">
<stop stop-color="#CFD1D2"/>
<stop offset="0.5" stop-color="white"/>
<stop offset="1" stop-color="#CFD1D2"/>
</linearGradient>
<linearGradient id="paint7_linear_38_73" x1="638.862" y1="542.533" x2="696.53" y2="484.866" gradientUnits="userSpaceOnUse">
<stop stop-color="#CFD1D2"/>
<stop offset="0.5" stop-color="white"/>
<stop offset="1" stop-color="#CFD1D2"/>
</linearGradient>
<linearGradient id="paint8_linear_38_73" x1="78.5701" y1="575.974" x2="139.946" y2="514.641" gradientUnits="userSpaceOnUse">
<stop stop-color="#CFD1D2"/>
<stop offset="0.5" stop-color="white"/>
<stop offset="1" stop-color="#CFD1D2"/>
</linearGradient>
<linearGradient id="paint9_linear_38_73" x1="167.454" y1="546.752" x2="228.785" y2="485.421" gradientUnits="userSpaceOnUse">
<stop stop-color="#CFD1D2"/>
<stop offset="0.5" stop-color="white"/>
<stop offset="1" stop-color="#CFD1D2"/>
</linearGradient>
<linearGradient id="paint10_linear_38_73" x1="187.035" y1="576.455" x2="251.515" y2="512.02" gradientUnits="userSpaceOnUse">
<stop stop-color="#CFD1D2"/>
<stop offset="0.5" stop-color="white"/>
<stop offset="1" stop-color="#CFD1D2"/>
</linearGradient>
<linearGradient id="paint11_linear_38_73" x1="240.484" y1="588.515" x2="314.122" y2="514.928" gradientUnits="userSpaceOnUse">
<stop stop-color="#CFD1D2"/>
<stop offset="0.5" stop-color="white"/>
<stop offset="1" stop-color="#CFD1D2"/>
</linearGradient>
<linearGradient id="paint12_linear_38_73" x1="314.458" y1="562.391" x2="362.357" y2="514.525" gradientUnits="userSpaceOnUse">
<stop stop-color="#CFD1D2"/>
<stop offset="0.5" stop-color="white"/>
<stop offset="1" stop-color="#CFD1D2"/>
</linearGradient>
<linearGradient id="paint13_linear_38_73" x1="334.378" y1="576.46" x2="398.858" y2="512.025" gradientUnits="userSpaceOnUse">
<stop stop-color="#CFD1D2"/>
<stop offset="0.5" stop-color="white"/>
<stop offset="1" stop-color="#CFD1D2"/>
</linearGradient>
<linearGradient id="paint14_linear_38_73" x1="393.897" y1="581.779" x2="454.712" y2="521.006" gradientUnits="userSpaceOnUse">
<stop stop-color="#CFD1D2"/>
<stop offset="0.5" stop-color="white"/>
<stop offset="1" stop-color="#CFD1D2"/>
</linearGradient>
<clipPath id="clip0_38_73">
<rect width="1024" height="1024" fill="white"/>
</clipPath>
</defs>
</svg>
