<?xml version="1.0" encoding="utf-8"?>
<!-- Generator: Adobe Illustrator 28.0.0, SVG Export Plug-In . SVG Version: 6.00 Build 0)  -->
<svg version="1.1" id="Vrstva_1" xmlns="http://www.w3.org/2000/svg" xmlns:xlink="http://www.w3.org/1999/xlink" x="0px" y="0px"
	 viewBox="0 0 1024 1024" style="enable-background:new 0 0 1024 1024;" xml:space="preserve">
<style type="text/css">
	.st0{fill:#192A4E;}
	.st1{fill:#F8F8F9;}
	.st2{fill:#A20F32;}
	.st3{fill:#0C2A51;}
	.st4{fill:#9E113A;}
</style>
<rect y="0" class="st0" width="1024" height="1024"/>
<g>
	<path class="st0" d="M303.3,444.8c153.2,0,306.4,0,459.6,0c0.7,0.5,1.4,0.2,2.1,0.2c30.4,0.1,60.8,0.1,91.2,0.2
		c25.3,0,50.7,0.1,76,0.1c12.5,0,22.1,8.2,23.9,20.3c0.7,4.7-0.6,9.2-1.3,13.8c-4,23.9-8.2,47.8-12,71.8
		c-1.6,9.9-6.9,17.1-14.8,22.7c-4.9,3.5-10.6,4.9-16.7,4.9c-62.9,0.1-125.9,0.2-188.8,0.3c-50.3,0.1-100.6,0.1-150.9,0.1
		c-133.5,0-267,0.1-400.5-0.3c-26.5-0.1-53-0.1-79.5-0.2c-11.3,0-20.7-7.5-23.4-18.5c-0.2-0.6,0.1-1.5-0.7-1.9c0-1.9,0-3.8,0-5.7
		c0.4-0.2,0.4-0.5,0.5-0.9c4.5-26.7,9-53.4,13.5-80.1c2.2-13.5,14.1-24.8,27.8-26.1c5.4-0.5,10.7-0.2,16.1-0.3
		c58.5-0.1,117-0.2,175.5-0.3C301.8,445,302.6,445.3,303.3,444.8z M502.8,573c0-0.1,0-0.1,0-0.2c64.8,0,129.7,0,194.5,0
		c16.5,0,33-0.1,49.4-0.2c26.8-0.1,53.6-0.4,80.3-0.6c28.5-0.2,57.1,0,85.6,0c10.5,0,20-7.6,21.8-17.8c5-27.1,10-54.1,14.9-81.2
		c2.1-11.7-5.9-21.1-17.8-21.1c-34.6-0.1-69.3-0.2-103.9-0.3c-29.6-0.1-59.2-0.1-88.9-0.2c-46.3-0.1-92.6-0.2-138.9-0.2
		c-64.7,0-129.4,0-194,0.1c-29.6,0-59.2,0.1-88.9,0.1c-53.6,0.1-107.1,0.1-160.7,0.2c-14.9,0-29.8,0.1-44.6,0.2
		c-11.3,0.1-20.2,7.7-22.2,18.8c-4.7,25.7-9.4,51.4-14.3,77.1c-0.9,4.6-1.4,9.1,0.5,13.4c2.6,6,7.6,9.5,14.1,10.4
		c5.1,0.7,10.3,0.3,15.4,0.3c53,0.2,106,0.4,159,0.5c50.5,0.1,101,0.3,151.6,0.4C444.7,573.1,473.8,573,502.8,573z"/>
	<path class="st1" d="M502.8,573c-29,0-58.1,0-87.1,0c-50.5-0.1-101-0.2-151.6-0.4c-53-0.2-106-0.3-159-0.5
		c-5.1,0-10.3,0.4-15.4-0.3c-6.5-0.9-11.4-4.4-14.1-10.4c-1.9-4.3-1.3-8.8-0.5-13.4c4.8-25.7,9.5-51.4,14.3-77.1
		c2-11.1,11-18.8,22.2-18.8c14.9-0.1,29.8-0.2,44.6-0.2c53.6-0.1,107.1-0.2,160.7-0.2c29.6,0,59.2-0.1,88.9-0.1
		c64.7,0,129.4-0.1,194-0.1c46.3,0,92.6,0.2,138.9,0.2c29.6,0.1,59.2,0.1,88.9,0.2c34.6,0.1,69.3,0.2,103.9,0.3
		c11.9,0,19.9,9.4,17.8,21.1c-4.9,27.1-9.9,54.1-14.9,81.2c-1.9,10.1-11.3,17.8-21.8,17.8c-28.5,0-57.1-0.2-85.6,0
		c-26.8,0.2-53.6,0.5-80.3,0.6c-16.5,0.1-33,0.2-49.4,0.2c-64.8,0-129.7,0-194.5,0C502.8,572.9,502.8,573,502.8,573z M876.2,495
		c0.2,1.1,1.1,0.7,1.7,0.7c1.3-0.1,2.7-0.5,4-0.7c-0.3,1.7-0.5,3.4-0.8,5.1c-2.7,15.6-5.5,31.2-8.3,46.8c-0.3,1.7,0.2,2,1.7,1.9
		c3-0.1,6.1,0.1,9.1,0.1c3.4,0,3.4,0,4-3.5c2.1-12.2,4.3-24.3,6.4-36.5c1.5-8.8,3-17.5,4.4-26.3c0.2-1.5,1.2-3.4,0.3-4.4
		c-1-1-3-0.4-4.6-0.3c-2.4,0.1-5-0.6-7.3,0.4c-4.9,2.1-9.8,4.3-14.7,6.5c-0.5,0.2-1.1,0.3-1.3,1c-0.6,3.7-1.2,7.4-1.8,11.3
		C871.6,496.3,874,496,876.2,495z M502.8,569c0.7,0,1.4,0.1,2.2,0.1c17.3,0,34.6-0.1,51.8-0.1c47.7-0.2,95.4-0.3,143.1-0.5
		c35.4-0.1,70.8-0.4,106.3-0.5c4.4,0,8.8,0,13.5,0c-0.8-0.9-1.3-1.5-1.8-2.1c-3.4-4-5-8.8-4.3-13.9c0.7-5.3,2.1-10.6,3.1-15.9
		c2.2-11.9,4.4-23.8,6.5-35.8c0.9-5.1,1.5-10.3,2.6-15.4c0.9-4.4,1.6-8.8,2.5-13.2c0.6-3,1.3-5.9,3.2-8.5c1.6-2.3,3.4-4.4,5.9-6.6
		c-1.2,0-1.7,0-2.3,0c-22.6-0.1-45.1-0.2-67.7-0.2c-25.1-0.1-50.2-0.1-75.3-0.1c-51.6,0-103.2,0-154.8,0c-4.5,0-9,0.1-13.5,0.1
		c-0.7,0-1.3-0.1-2-0.1c-33.8,0.1-67.5,0.1-101.3,0.2c-14.9,0-29.8,0-44.6,0c-46.2,0-92.3,0.1-138.5,0.1c-41.9,0-83.8,0-125.7,0
		c-8.6,0-15.7,5.6-17.6,14c-0.9,3.9-1.5,7.8-2.2,11.7c-4.3,23.2-8.6,46.4-12.8,69.6c-1.5,8.2,4.7,15.5,12.9,15.6
		c23.7,0.2,47.3,0.5,71,0.7c23.7,0.2,47.5,0.3,71.2,0.4c44.4,0.2,88.7,0.4,133.1,0.4c43.3,0.1,86.5,0,129.8,0.1
		C498.9,569.1,500.9,569.1,502.8,569z"/>
	<path class="st0" d="M502.8,569c-2,0.1-3.9,0.1-5.9,0.1c-43.3,0-86.5,0-129.8-0.1c-44.4-0.1-88.7-0.3-133.1-0.4
		c-23.7-0.1-47.5-0.2-71.2-0.4c-23.7-0.2-47.3-0.4-71-0.7c-8.2-0.1-14.3-7.4-12.9-15.6c4.2-23.2,8.5-46.4,12.8-69.6
		c0.7-3.9,1.4-7.9,2.2-11.7c1.9-8.4,9-14,17.6-14c41.9,0,83.8,0,125.7,0c46.2,0,92.3-0.1,138.5-0.1c14.9,0,29.8,0,44.6,0
		c33.8-0.1,67.5-0.1,101.3-0.2c0.7,0,1.3,0.1,2,0.1c-0.5,2.5-1,5-1.4,7.4C515.8,498.8,509.3,533.9,502.8,569z M298.7,501.9
		c0.4,1.2,0.6,1.7,0.7,2.3c1,4.3,2.2,8.5,3,12.8c1.1,5.8,3.2,11.4,4.1,17.3c0.4,2.6,1,3,3.7,3c1.9,0,3.8,0,5.7,0c1,0,1.5-0.3,2-1.2
		c2.6-4.5,5.3-8.9,7.9-13.4c3.7-6.2,7.3-12.4,10.9-18.7c0.4-0.6,0.5-1.3,1.4-1.7c-1.2,6.2-2.3,12.4-3.4,18.5
		c-0.7,3.5-1.6,6.9-2.1,10.4c-0.7,4.9-1.7,9.7-2.6,14.6c-0.4,2.2-0.2,2.6,2.1,2.6c3.1,0,6.2,0,9.4,0c0.5,0,1.4,0.3,1.4-0.5
		c0-1.3,0.8-2.3,1-3.5c2.1-12.3,4.2-24.6,6.4-36.9c1.6-9.2,3.2-18.4,4.8-27.6c0.2-1.3-0.1-1.9-1.6-1.8c-4.1,0.1-8.1,0.1-12.2,0
		c-1.5,0-2.2,0.5-2.9,1.7c-5.4,9.2-10.8,18.4-16.4,27.4c-2.2,3.5-4.1,7.2-6.3,10.7c-0.3,0.4-0.4,1.1-1.2,1.2
		c-0.7-3.5-1.8-6.8-2.6-10.3c-2.2-9.8-4.7-19.6-7.1-29.3c-0.2-1-0.6-1.5-1.7-1.4c-4.1,0.1-8.3,0.1-12.4,0c-1.3,0-1.6,0.6-1.7,1.7
		c-1.7,9.9-3.3,19.8-5.1,29.7c-2.1,12-3.8,24.2-6.5,36.1c-0.1,0.5-1.4,2.7,1,2.7c3.6,0,7.1,0,10.7,0c0.6,0,1-0.1,1.1-0.9
		c0.8-4.4,1.8-8.8,2.6-13.1C294.8,523.8,296.7,513.2,298.7,501.9z M455.3,478.3C455.3,478.3,455.3,478.3,455.3,478.3
		c-5.7-0.1-11.3,0-17-0.1c-1.3,0-2.1,0.2-2.3,1.8c-0.3,2.5-0.9,5-1.3,7.5c-2.6,15.4-5.3,30.8-8,46.2c-0.8,4.4-1.5,8.7-2.2,13.1
		c-0.2,1.1-0.1,1.7,1.3,1.7c3.6-0.1,7.1-0.1,10.7,0c1.2,0,1.8-0.6,1.7-1.3c-0.1-1.7,0.7-3,1-4.6c1-6.1,2.1-12.1,3.2-18.2
		c0.2-1.4,0.7-2.1,2.3-2c2.5,0.2,4.9,0.1,7.4,0c1.2,0,1.7,0.4,2,1.6c1.8,7.7,3.8,15.3,5.6,23.1c0.3,1.3,0.8,1.4,1.8,1.4
		c3.8,0,7.6-0.1,11.3,0c1.9,0.1,2-0.6,1.5-2.2c-2-7.6-3.9-15.2-5.9-22.7c-0.3-1.1-0.2-1.6,1.1-2c5.7-1.8,9-5.9,10.1-11.6
		c1.2-6.1,2.3-12.2,3.2-18.4c1.1-7.7-3.8-13.3-11.6-13.3C465.9,478.3,460.6,478.3,455.3,478.3z M221.7,548.5
		c-0.7-4.4-2.4-8.4-3.2-12.7c-0.8-4-2-8-3.1-12c-0.3-1.1-0.4-1.8,1-2.2c5.8-1.8,9-6,10.1-11.8c1.2-6.2,2.4-12.5,3.2-18.8
		c0.8-6.5-3.6-12.5-10.6-12.6c-11.5-0.2-23.1-0.1-34.6-0.2c-1.3,0-1.9,0.7-2,1.8c-0.2,4.8-1.4,9.4-2.2,14.1
		c-1.8,10.6-3.6,21.2-5.5,31.8c-1.2,6.9-2.4,13.8-3.6,20.7c-0.2,1.3,0.1,1.8,1.5,1.7c3.6-0.1,7.1-0.1,10.7,0c1.2,0,1.6-0.4,1.8-1.5
		c0.5-3.1,1.1-6.2,1.6-9.3c0.8-4.6,1.7-9.1,2.4-13.7c0.2-1.2,0.6-1.6,1.8-1.5c2.7,0.1,5.4,0.1,8.1,0c1.1,0,1.6,0.3,1.7,1.4
		c0.4,2.2,0.9,4.3,1.4,6.5c1.4,5.7,2.9,11.4,4.3,17.2c0.2,0.7,0.4,1,1,1C212.3,548.5,217,548.5,221.7,548.5z M284,478.4
		c-0.4,0-0.7-0.1-0.9-0.1c-14.2,0-28.4,0-42.7-0.1c-1.8,0-1.7,1.1-1.9,2.2c-1,5.6-1.9,11.1-2.9,16.7c-1.8,10.5-3.5,21-5.5,31.4
		c-1.1,5.7-1.6,11.6-3.2,17.2c-0.2,0.7-1.1,2.8,1.5,2.7c13.9-0.1,27.9,0,41.8,0.1c1.3,0,1.7-0.4,1.9-1.7c0.4-3.2,0.9-6.5,1.7-9.6
		c0.5-2-0.3-2-1.8-2c-9,0.1-18,0-27,0.1c-1.4,0-2.2-0.1-1.8-1.8c0.8-4.1,1.6-8.2,2.1-12.3c0.2-1.7,0.8-2.1,2.5-2.1
		c7.1,0.1,14.2,0,21.3,0.1c1.5,0,2-0.4,2.2-1.8c0.4-3.2,0.9-6.3,1.7-9.4c0.4-1.8-0.2-2-1.7-2c-7.1,0.1-14.2,0-21.3,0
		c-1.4,0-1.9-0.3-1.5-1.8c0.7-3.5,1.5-7.1,1.8-10.7c0.2-2,0.9-2.2,2.5-2.2c9.1,0.1,18.1,0,27.2,0c0.9,0,1.9,0.4,2.1-1.1
		C282.5,486.3,283.3,482.4,284,478.4z M421.2,535.3c-1.1,0-1.8,0-2.5,0c-8.9,0-17.7,0-26.6,0.1c-1.8,0-2.1-0.4-1.8-2.1
		c0.8-4,1.5-8,2.1-12.1c0.2-1.5,0.7-2,2.3-2c7.2,0.1,14.4,0,21.6,0.1c1.4,0,1.9-0.4,2.1-1.8c0.5-3.2,1-6.3,1.7-9.4
		c0.3-1.6,0-2.1-1.7-2.1c-7,0.1-14.1,0-21.1,0.1c-1.8,0-2-0.5-1.7-2.1c0.7-3.5,1.4-7,1.8-10.5c0.2-1.9,0.9-2.1,2.6-2.1
		c9.1,0.1,18.1,0,27.2,0c1.4,0,1.9-0.5,2.1-1.7c0.5-3.4,1.1-6.7,1.8-10c0.2-1.1-0.2-1.4-1.2-1.3c-1.3,0.1-2.6,0-3.9,0
		c-12.5,0-25,0-37.5-0.1c-1.7,0-2.6,0.2-2.8,2.2c-0.3,2.9-1.1,5.7-1.6,8.5c-2.3,13.1-4.5,26.3-6.7,39.4c-1,6.1-2.1,12.1-3.2,18.2
		c-0.3,1.5,0.1,2.1,1.7,2c0.9-0.1,1.9,0,2.8,0c12.8,0,25.6,0.1,38.3,0.1c1,0,2,0.3,2.3-1.3C419.7,543.3,420.5,539.4,421.2,535.3z
		 M148.6,523.7C148.6,523.7,148.6,523.7,148.6,523.7c3.3,0,6.7,0.1,10,0c7.9-0.3,13.3-5.1,14.7-12.8c1.1-6.1,2.2-12.3,3.2-18.4
		c1.4-8.3-3.6-14.1-11.9-14.1c-10.5,0-20.9,0-31.4,0c-3.3,0-3.3,0-3.8,3.1c-1.9,10.8-3.7,21.7-5.6,32.5c-1.9,10.8-3.7,21.7-5.7,32.5
		c-0.3,1.6,0,2.2,1.8,2.1c3.2-0.1,6.4-0.1,9.6,0c1.6,0.1,2.3-0.3,2.6-2c1.1-7.1,2.5-14.1,3.7-21.2c0.2-1.2,0.6-1.6,1.8-1.6
		C141.4,523.7,145,523.7,148.6,523.7z M377.5,478.3c-4.4,0-8.5,0-12.6,0c-1,0-1.7,0.2-1.8,1.4c-0.3,2.6-0.5,5.2-1,7.8
		c-1.9,11.1-3.9,22.2-5.9,33.3c-1.5,8.5-2.9,17-4.4,25.5c-0.3,1.6-0.1,2.3,1.8,2.2c3.4-0.2,6.8,0,10.2,0c0.9,0,1.8,0,1.7-1.3
		c-0.1-1.6,0.6-3.1,0.9-4.6c1.3-7.3,2.6-14.6,3.9-21.9c1.3-7.7,2.7-15.5,4-23.2c0.5-3.2,1-6.4,1.5-9.6
		C376.2,484.7,377,481.6,377.5,478.3z"/>
	<path class="st2" d="M502.8,569c6.5-35.1,13-70.2,19.4-105.3c0.5-2.5,1-5,1.4-7.4c4.5,0,9-0.1,13.5-0.1c51.6,0,103.2,0,154.8,0
		c25.1,0,50.2,0,75.3,0.1c22.6,0,45.1,0.1,67.7,0.2c0.6,0,1.1,0,2.3,0c-2.6,2.2-4.3,4.3-5.9,6.6c-1.9,2.6-2.5,5.5-3.2,8.5
		c-0.9,4.4-1.6,8.8-2.5,13.2c-1.1,5.1-1.7,10.3-2.6,15.4c-2.1,11.9-4.3,23.9-6.5,35.8c-1,5.3-2.4,10.5-3.1,15.9
		c-0.7,5.2,0.9,9.9,4.3,13.9c0.5,0.6,1,1.2,1.8,2.1c-4.8,0-9.2,0-13.5,0c-35.4,0.2-70.8,0.4-106.3,0.5c-47.7,0.2-95.4,0.4-143.1,0.5
		c-17.3,0.1-34.6,0.1-51.8,0.1C504.3,569.1,503.6,569,502.8,569z M736,548.5c2,0,4.1-0.1,6.1,0c1.3,0,1.5-0.4,1.2-1.6
		c-0.7-2.6-1.5-5.1-2.1-7.8c-1.1-5.1-2.6-10.2-3.9-15.3c-0.3-1-0.6-1.8,1-2.3c5.5-1.7,8.9-5.6,10-11.1c1.3-6.4,2.5-12.9,3.3-19.5
		c0.9-7.3-4-12.7-11.4-12.7c-11-0.1-22.1,0-33.1-0.1c-1.4,0-2,0.2-2.2,1.8c-2.5,14.7-5.1,29.4-7.7,44.1c-1.3,7.2-2.5,14.4-3.7,21.6
		c-0.5,2.8-0.5,2.8,2.4,2.8c2,0,3.9,0,5.9,0c5.1,0,5.2,0,6.1-5c1.2-6.4,2.4-12.8,3.3-19.3c0.2-1.4,0.5-1.7,1.7-1.7
		c2.8,0,5.5,0.1,8.3,0c1.2,0,1.6,0.5,1.8,1.6c1.7,7.4,3.5,14.8,5.2,22.2c0.4,1.6,1,2.5,2.9,2.3C732.6,548.4,734.3,548.5,736,548.5z
		 M555.2,548.7c0,0,0,0.1,0,0.1c3.6,0,7.3,0,10.9,0c9,0,13.6-5.2,15.5-12.7c1.1-4.6,1.8-9.4,2.5-14.1c0.6-3.4-0.4-6.4-2.9-8.9
		c-2.7-2.7-6.2-4-9.8-4.8c-5.2-1.2-10.5-2.4-15.7-3.6c-2.6-0.6-3-1.2-2.5-3.8c0.4-2.1,0.7-4.3,1.1-6.4c0.4-2.1,1.7-3.4,3.8-3.4
		c4.7-0.1,9.4-0.1,14.2-0.1c1.9,0,2.4,1,2.1,2.7c-0.3,1.6-0.6,3.2-0.9,4.8c-0.2,1,0,1.3,1,1.3c3.7-0.1,7.4-0.1,11.1-0.1
		c0.9,0,1.3-0.3,1.4-1.2c0.3-2.4,0.9-4.7,1.2-7.1c1-8.4-3.7-13.7-12.2-13.7c-6.5,0-12.9-0.1-19.4,0c-2.2,0-4.5,0.2-6.5,1.1
		c-5.3,2.3-8.2,6.4-9.3,12c-0.7,3.9-1.4,7.8-2.1,11.7c-0.9,5.5,1,9.7,5.8,12.5c1.9,1.1,4,1.8,6.1,2.3c5.4,1.2,10.9,2.5,16.3,3.8
		c2.7,0.6,2.9,1.1,2.5,3.8c-0.4,2.4-0.8,4.7-1.2,7.1c-0.5,2.4-1.7,3.6-4.2,3.6c-5,0.1-10,0-15,0.1c-1.8,0-2.3-0.9-2.1-2.5
		c0.3-1.9,0.7-3.7,1-5.6c0.2-1,0.3-1.6-1.1-1.6c-3.6,0.1-7.3,0-10.9,0c-0.7,0-1.4-0.1-1.5,0.8c-0.6,4.2-1.8,8.2-1.5,12.5
		c0.3,4.2,5,9.5,10,9.3C547,548.6,551.1,548.7,555.2,548.7z M615.1,523.7C615.1,523.7,615.1,523.7,615.1,523.7c3.5,0,7,0.1,10.4-0.1
		c7.6-0.4,13-5.2,14.3-12.4c1.2-6.4,2.4-12.9,3.4-19.4c1.2-7.7-3.9-13.6-11.7-13.6c-11,0-21.9,0-32.9-0.1c-1.3,0-2.1,0.2-2.3,1.7
		c-0.2,1.3-0.4,2.6-0.6,3.8c-3.7,21-7.3,41.9-11,62.9c-0.3,1.5,0.2,1.8,1.6,1.8c3.2-0.1,6.4-0.2,9.6,0c2.1,0.2,2.6-0.7,2.9-2.5
		c1.1-6.7,2.4-13.4,3.4-20.1c0.3-1.8,1-2.2,2.7-2.1C608.4,523.8,611.8,523.7,615.1,523.7z M779.5,478.3
		C779.5,478.3,779.5,478.3,779.5,478.3c-7.7-0.1-15.4-0.1-23.1-0.1c-1.4,0-2.1,0.3-2.2,1.8c-0.4,3.2-1,6.4-1.6,9.6
		c-0.3,1.4,0.1,1.7,1.5,1.7c4.6-0.1,9.3,0.1,13.9-0.1c2.1-0.1,2.3,0.7,1.8,2.3c-0.4,1.4-0.6,2.8-0.8,4.2c-0.9,5-2,10-2.8,15
		c-0.4,2.6-0.9,5.3-1.4,7.9c-0.9,4.5-1.3,9.1-2.2,13.6c-0.9,4.3-1.3,8.6-2.1,12.8c-0.2,0.9,0,1.3,1.1,1.3c3.8,0,7.5-0.1,11.3,0
		c1,0,1.2-0.5,1.5-1.3c0.9-2.7,0.9-5.5,1.5-8.2c1.7-8.4,3.1-16.9,4.6-25.3c1.2-6.8,2.4-13.7,3.5-20.5c0.2-1.5,0.9-1.8,2.3-1.8
		c4.6,0.1,9.3-0.1,13.9,0.1c1.8,0.1,2.2-0.7,2.4-2.1c0.4-3,0.8-6,1.5-9c0.4-1.7-0.1-1.9-1.6-1.9
		C794.7,478.3,787.1,478.3,779.5,478.3z M652.6,548.9C652.6,548.9,652.6,548.9,652.6,548.9c1.2-0.1,2.3-0.1,3.5-0.1
		c0.7,0,1.3-0.2,1.3-1.1c0.1-3.2,1.1-6.1,1.7-9.2c0.5-2.8,0.5-2.8-2.4-2.8c-2.8,0-3.3-0.5-2.8-3.2c1.2-7.2,2.5-14.3,3.8-21.5
		c0.9-5,1.7-10.1,2.7-15.1c0.8-4.1,1.5-4.8,5.7-4.9c1.2,0,1.4-0.5,1.6-1.5c0.6-3.5,1.2-7,1.9-10.5c0.2-1,0-1.3-1-1.3
		c-2,0-3.9,0-5.9,0c-7.7,0.1-13.5,4.6-15.1,12c-0.8,3.5-1.3,7.1-2,10.7c-1.2,6.2-2.2,12.5-3.4,18.7c-1,5-1.8,10.1-2.5,15.1
		c-1.2,7.7,2.3,12.6,8.4,14.1C649.4,548.9,651,548.8,652.6,548.9z M673,548.9c8.9,0.4,15-4.5,16.6-12.9c2.8-14.9,5.3-29.9,7.8-44.8
		c1.1-6.4-2.8-11.9-9.2-13c-2-0.4-4.1-0.1-6.1-0.2c-1.1-0.1-1.5,0.4-1.7,1.4c-0.7,3.3-1.1,6.7-1.9,10c-0.6,2.3,0.5,1.8,1.7,1.8
		c2.9,0,3.3,0.4,2.8,3.2c-1.1,6.1-2.5,12.1-3.5,18.2c-1,6.6-2.1,13.1-3.5,19.6c-0.5,2.4-1.6,3.6-3.9,3.6c-1.1,0-1.5,0.4-1.7,1.4
		c-0.6,2.7-1,5.5-1.7,8.3c-0.8,3-0.3,3.5,2.9,3.5C671.9,548.9,672.5,548.9,673,548.9z"/>
	<path class="st3" d="M876.2,495c-2.2,1-4.5,1.4-7.2,2.3c0.6-4,1.3-7.7,1.8-11.3c0.1-0.7,0.8-0.8,1.3-1c4.9-2.2,9.8-4.4,14.7-6.5
		c2.3-1,4.9-0.3,7.3-0.4c1.6-0.1,3.6-0.7,4.6,0.3c0.9,0.9,0,2.9-0.3,4.4c-1.4,8.8-2.9,17.5-4.4,26.3c-2.1,12.2-4.3,24.3-6.4,36.5
		c-0.6,3.4-0.6,3.5-4,3.5c-3,0-6.1-0.1-9.1-0.1c-1.5,0-2-0.3-1.7-1.9c2.8-15.6,5.6-31.2,8.3-46.8c0.3-1.7,0.5-3.4,0.8-5.1
		c0.7-1.6,0.2-2-1.4-1.4C879.1,494,877.6,494.5,876.2,495z"/>
	<path class="st1" d="M876.2,495c1.4-0.5,2.9-0.9,4.3-1.5c1.6-0.6,2.1-0.2,1.4,1.4c-1.3,0.2-2.6,0.6-4,0.7
		C877.3,495.7,876.4,496.1,876.2,495z"/>
	<path class="st1" d="M298.7,501.9c-2,11.2-3.9,21.9-5.9,32.5c-0.8,4.4-1.8,8.8-2.6,13.1c-0.2,0.8-0.5,0.9-1.1,0.9
		c-3.6,0-7.1,0-10.7,0c-2.4,0-1.1-2.2-1-2.7c2.6-12,4.3-24.1,6.5-36.1c1.8-9.9,3.4-19.8,5.1-29.7c0.2-1,0.5-1.7,1.7-1.7
		c4.1,0.1,8.3,0.1,12.4,0c1.1,0,1.4,0.4,1.7,1.4c2.4,9.8,4.9,19.5,7.1,29.3c0.8,3.4,1.9,6.7,2.6,10.3c0.8-0.1,0.9-0.8,1.2-1.2
		c2.3-3.5,4.1-7.2,6.3-10.7c5.6-9.1,11-18.2,16.4-27.4c0.7-1.2,1.4-1.7,2.9-1.7c4.1,0.1,8.1,0.1,12.2,0c1.5,0,1.8,0.5,1.6,1.8
		c-1.6,9.2-3.2,18.4-4.8,27.6c-2.1,12.3-4.3,24.6-6.4,36.9c-0.2,1.2-1,2.2-1,3.5c0,0.8-0.9,0.5-1.4,0.5c-3.1,0-6.2,0-9.4,0
		c-2.3,0-2.5-0.4-2.1-2.6c0.9-4.9,1.9-9.7,2.6-14.6c0.5-3.5,1.5-6.9,2.1-10.4c1.2-6.1,2.3-12.3,3.4-18.5c-0.8,0.4-1,1.1-1.4,1.7
		c-3.6,6.2-7.3,12.4-10.9,18.7c-2.6,4.5-5.4,8.9-7.9,13.4c-0.5,0.9-1.1,1.2-2,1.2c-1.9-0.1-3.8,0-5.7,0c-2.7,0-3.3-0.4-3.7-3
		c-0.9-5.9-3-11.5-4.1-17.3c-0.8-4.3-2-8.6-3-12.8C299.3,503.6,299.1,503.1,298.7,501.9z"/>
	<path class="st1" d="M455.3,478.3c5.3,0,10.6,0,15.9,0c7.8,0.1,12.7,5.6,11.6,13.3c-0.9,6.2-2,12.3-3.2,18.4
		c-1.1,5.7-4.4,9.8-10.1,11.6c-1.3,0.4-1.4,0.9-1.1,2c2,7.6,3.9,15.2,5.9,22.7c0.4,1.6,0.3,2.2-1.5,2.2c-3.8-0.1-7.5,0-11.3,0
		c-1,0-1.5-0.1-1.8-1.4c-1.7-7.7-3.7-15.4-5.6-23.1c-0.3-1.2-0.8-1.7-2-1.6c-2.5,0.1-4.9,0.1-7.4,0c-1.6-0.1-2.1,0.6-2.3,2
		c-1,6.1-2.1,12.1-3.2,18.2c-0.3,1.5-1.1,2.9-1,4.6c0,0.7-0.6,1.4-1.7,1.3c-3.6-0.1-7.1-0.1-10.7,0c-1.4,0-1.5-0.6-1.3-1.7
		c0.8-4.4,1.5-8.7,2.2-13.1c2.7-15.4,5.5-30.8,8-46.2c0.4-2.5,1.1-5,1.3-7.5c0.2-1.6,0.9-1.8,2.3-1.8
		C444,478.3,449.7,478.2,455.3,478.3C455.3,478.3,455.3,478.3,455.3,478.3z M457.9,491.4C457.9,491.4,457.9,491.4,457.9,491.4
		c-2.8,0-5.5,0-8.3,0c-0.9,0-1.5,0.1-1.7,1.2c-0.8,5.1-1.7,10.1-2.6,15.2c-0.2,1.2,0.1,1.6,1.4,1.6c5.1-0.1,10.1,0,15.2,0
		c2.6,0,3.9-1,4.4-3.5c0.8-3.8,1.5-7.7,2.1-11.5c0.4-2.3-0.2-2.8-2.5-2.9C463.2,491.3,460.5,491.4,457.9,491.4z"/>
	<path class="st1" d="M221.7,548.5c-4.7,0-9.4,0-14,0c-0.6,0-0.8-0.3-1-1c-1.4-5.7-2.8-11.5-4.3-17.2c-0.5-2.1-1-4.3-1.4-6.5
		c-0.2-1.1-0.7-1.4-1.7-1.4c-2.7,0-5.4,0.1-8.1,0c-1.2,0-1.6,0.4-1.8,1.5c-0.8,4.6-1.6,9.1-2.4,13.7c-0.6,3.1-1.2,6.2-1.6,9.3
		c-0.2,1.2-0.6,1.6-1.8,1.5c-3.6-0.1-7.1-0.1-10.7,0c-1.4,0-1.7-0.4-1.5-1.7c1.2-6.9,2.4-13.8,3.6-20.7c1.8-10.6,3.6-21.2,5.5-31.8
		c0.8-4.7,2-9.3,2.2-14.1c0-1.1,0.6-1.8,2-1.8c11.5,0.1,23.1-0.1,34.6,0.2c7,0.1,11.4,6.1,10.6,12.6c-0.8,6.3-2,12.6-3.2,18.8
		c-1.1,5.8-4.3,10-10.1,11.8c-1.5,0.4-1.3,1.2-1,2.2c1.1,4,2.3,7.9,3.1,12C219.3,540,221,544,221.7,548.5z M201.2,509.4
		c2.5,0,5.1,0,7.6,0c2.6,0,3.8-0.9,4.4-3.4c0.9-4,1.5-8.1,2.2-12.1c0.3-1.7-0.6-2.5-2.2-2.5c-5.7,0-11.5,0-17.2,0
		c-0.6,0-1,0-1.2,0.9c-0.8,5.2-1.7,10.5-2.7,15.7c-0.2,1.3,0.4,1.4,1.4,1.4C196.1,509.3,198.7,509.4,201.2,509.4z"/>
	<path class="st1" d="M284,478.4c-0.7,4-1.4,7.9-2,11.8c-0.2,1.5-1.2,1.1-2.1,1.1c-9.1,0-18.1,0.1-27.2,0c-1.7,0-2.4,0.2-2.5,2.2
		c-0.3,3.6-1,7.2-1.8,10.7c-0.3,1.5,0.1,1.8,1.5,1.8c7.1-0.1,14.2,0,21.3,0c1.6,0,2.2,0.2,1.7,2c-0.7,3.1-1.3,6.2-1.7,9.4
		c-0.2,1.5-0.7,1.9-2.2,1.8c-7.1-0.1-14.2,0-21.3-0.1c-1.6,0-2.2,0.4-2.5,2.1c-0.6,4.1-1.3,8.2-2.1,12.3c-0.3,1.8,0.4,1.8,1.8,1.8
		c9-0.1,18,0,27-0.1c1.5,0,2.3,0,1.8,2c-0.8,3.1-1.2,6.4-1.7,9.6c-0.2,1.3-0.6,1.7-1.9,1.7c-13.9-0.1-27.9-0.1-41.8-0.1
		c-2.7,0-1.7-2.1-1.5-2.7c1.6-5.6,2.2-11.5,3.2-17.2c1.9-10.5,3.6-21,5.5-31.4c1-5.6,1.9-11.1,2.9-16.7c0.2-1.1,0.2-2.2,1.9-2.2
		c14.2,0.1,28.4,0.1,42.7,0.1C283.3,478.3,283.6,478.4,284,478.4z"/>
	<path class="st1" d="M421.2,535.3c-0.7,4.1-1.4,8-2,12c-0.2,1.5-1.3,1.3-2.3,1.3c-12.8,0-25.6-0.1-38.3-0.1c-0.9,0-1.9-0.1-2.8,0
		c-1.6,0.2-2-0.4-1.7-2c1.1-6,2.1-12.1,3.2-18.2c2.3-13.1,4.5-26.3,6.7-39.4c0.5-2.8,1.3-5.7,1.6-8.5c0.2-2,1.1-2.2,2.8-2.2
		c12.5,0.1,25,0.1,37.5,0.1c1.3,0,2.6,0.1,3.9,0c1.1-0.1,1.4,0.3,1.2,1.3c-0.6,3.3-1.2,6.7-1.8,10c-0.2,1.3-0.7,1.8-2.1,1.7
		c-9.1-0.1-18.1,0-27.2,0c-1.6,0-2.4,0.2-2.6,2.1c-0.4,3.5-1.1,7-1.8,10.5c-0.3,1.6-0.1,2.1,1.7,2.1c7-0.1,14.1,0,21.1-0.1
		c1.8,0,2.1,0.5,1.7,2.1c-0.6,3.1-1.2,6.3-1.7,9.4c-0.2,1.3-0.7,1.8-2.1,1.8c-7.2-0.1-14.4,0-21.6-0.1c-1.6,0-2.1,0.4-2.3,2
		c-0.6,4-1.2,8.1-2.1,12.1c-0.4,1.8,0,2.2,1.8,2.1c8.9-0.1,17.7-0.1,26.6-0.1C419.4,535.3,420.1,535.3,421.2,535.3z"/>
	<path class="st1" d="M148.6,523.7c-3.6,0-7.3,0-10.9,0c-1.2,0-1.6,0.4-1.8,1.6c-1.2,7.1-2.5,14.1-3.7,21.2c-0.3,1.7-1,2.1-2.6,2
		c-3.2-0.1-6.4-0.1-9.6,0c-1.7,0.1-2.1-0.5-1.8-2.1c1.9-10.8,3.8-21.7,5.7-32.5c1.9-10.8,3.7-21.7,5.6-32.5c0.5-3.1,0.5-3.1,3.8-3.1
		c10.5,0,20.9,0,31.4,0c8.3,0,13.3,5.8,11.9,14.1c-1,6.1-2.1,12.3-3.2,18.4c-1.4,7.8-6.8,12.5-14.7,12.8
		C155.3,523.8,152,523.7,148.6,523.7C148.6,523.7,148.6,523.7,148.6,523.7z M148,510.5c2.5,0,4.9,0,7.4,0c2.8,0,4.2-1.1,4.7-3.8
		c0.8-4.1,1.4-8.3,2.2-12.4c0.4-2-0.4-2.9-2.3-2.9c-5.6,0-11.2,0-16.8,0c-1,0-1.4,0.3-1.6,1.3c-0.9,5.5-1.9,11-2.9,16.5
		c-0.2,1.1,0.1,1.4,1.2,1.4C142.6,510.4,145.3,510.5,148,510.5z"/>
	<path class="st1" d="M377.5,478.3c-0.5,3.4-1.2,6.5-1.7,9.5c-0.5,3.2-0.9,6.4-1.5,9.6c-1.3,7.7-2.6,15.5-4,23.2
		c-1.3,7.3-2.6,14.6-3.9,21.9c-0.3,1.5-1,3-0.9,4.6c0.1,1.3-0.8,1.3-1.7,1.3c-3.4,0-6.8-0.1-10.2,0c-1.9,0.1-2.1-0.6-1.8-2.2
		c1.5-8.5,2.9-17,4.4-25.5c1.9-11.1,4-22.2,5.9-33.3c0.4-2.6,0.7-5.2,1-7.8c0.1-1.2,0.8-1.4,1.8-1.4
		C369,478.3,373.1,478.3,377.5,478.3z"/>
	<path class="st1" d="M736,548.5c-1.7,0-3.4-0.1-5,0c-1.9,0.2-2.5-0.7-2.9-2.3c-1.7-7.4-3.5-14.8-5.2-22.2c-0.3-1.1-0.6-1.6-1.8-1.6
		c-2.8,0.1-5.5,0-8.3,0c-1.2,0-1.5,0.3-1.7,1.7c-0.9,6.4-2.1,12.9-3.3,19.3c-0.9,5.1-1,5-6.1,5c-2,0-3.9,0-5.9,0
		c-2.9,0-2.9,0-2.4-2.8c1.3-7.2,2.5-14.4,3.7-21.6c2.6-14.7,5.2-29.4,7.7-44.1c0.3-1.5,0.9-1.8,2.2-1.8c11,0.1,22.1,0,33.1,0.1
		c7.4,0,12.4,5.4,11.4,12.7c-0.8,6.5-2,13-3.3,19.5c-1.1,5.6-4.5,9.4-10,11.1c-1.5,0.5-1.2,1.3-1,2.3c1.3,5.1,2.8,10.2,3.9,15.3
		c0.6,2.6,1.4,5.2,2.1,7.8c0.3,1.1,0.1,1.6-1.2,1.6C740.1,548.4,738,548.5,736,548.5z M723.1,509.4
		C723.1,509.3,723.1,509.3,723.1,509.4c2.5,0,4.9,0,7.4,0c2.8,0,4-0.9,4.6-3.6c0.8-3.8,1.4-7.7,2.1-11.6c0.3-1.8-0.4-2.8-2.3-2.8
		c-5.6,0-11.2,0-16.7,0c-1,0-1.4,0.3-1.6,1.3c-0.8,5.1-1.7,10.1-2.6,15.2c-0.2,1.2,0,1.5,1.3,1.5
		C717.9,509.3,720.5,509.4,723.1,509.4z"/>
	<path class="st1" d="M555.2,548.7c-4.1,0-8.1-0.1-12.2,0c-5,0.2-9.6-5.1-10-9.3c-0.3-4.3,0.9-8.3,1.5-12.5c0.1-0.9,0.8-0.8,1.5-0.8
		c3.6,0,7.3,0,10.9,0c1.4,0,1.3,0.6,1.1,1.6c-0.4,1.8-0.7,3.7-1,5.6c-0.3,1.6,0.3,2.5,2.1,2.5c5,0,10,0,15-0.1
		c2.5,0,3.7-1.2,4.2-3.6c0.5-2.3,0.8-4.7,1.2-7.1c0.4-2.7,0.2-3.1-2.5-3.8c-5.4-1.3-10.9-2.5-16.3-3.8c-2.1-0.5-4.2-1.2-6.1-2.3
		c-4.8-2.8-6.8-7-5.8-12.5c0.7-3.9,1.3-7.8,2.1-11.7c1-5.6,3.9-9.7,9.3-12c2.1-0.9,4.3-1.1,6.5-1.1c6.5-0.1,12.9,0,19.4,0
		c8.5,0,13.1,5.3,12.2,13.7c-0.3,2.4-0.9,4.7-1.2,7.1c-0.1,0.9-0.5,1.2-1.4,1.2c-3.7,0-7.4,0-11.1,0.1c-1,0-1.3-0.3-1-1.3
		c0.4-1.6,0.6-3.2,0.9-4.8c0.3-1.7-0.2-2.7-2.1-2.7c-4.7,0-9.4,0-14.2,0.1c-2.2,0-3.5,1.3-3.8,3.4c-0.4,2.1-0.8,4.3-1.1,6.4
		c-0.5,2.6-0.1,3.2,2.5,3.8c5.2,1.2,10.5,2.4,15.7,3.6c3.6,0.8,7.1,2.1,9.8,4.8c2.5,2.5,3.5,5.5,2.9,8.9c-0.8,4.7-1.4,9.5-2.5,14.1
		c-1.8,7.5-6.5,12.6-15.5,12.7c-3.6,0-7.3,0-10.9,0C555.2,548.8,555.2,548.8,555.2,548.7z"/>
	<path class="st1" d="M615.1,523.7c-3.3,0-6.7,0.1-10,0c-1.7-0.1-2.4,0.3-2.7,2.1c-1,6.7-2.3,13.4-3.4,20.1
		c-0.3,1.9-0.8,2.7-2.9,2.5c-3.2-0.2-6.4-0.1-9.6,0c-1.4,0-1.9-0.3-1.6-1.8c3.7-21,7.3-41.9,11-62.9c0.2-1.3,0.4-2.6,0.6-3.8
		c0.3-1.6,1-1.8,2.3-1.7c11,0.1,21.9,0,32.9,0.1c7.8,0,12.9,5.9,11.7,13.6c-1,6.5-2.2,12.9-3.4,19.4c-1.4,7.2-6.7,12-14.3,12.4
		C622.1,523.8,618.6,523.7,615.1,523.7C615.1,523.7,615.1,523.7,615.1,523.7z M618.2,491.4C618.2,491.4,618.2,491.4,618.2,491.4
		c-2.8,0-5.5,0.1-8.3,0c-1.2,0-1.5,0.4-1.7,1.5c-0.8,5.3-1.7,10.6-2.8,15.9c-0.3,1.6,0,1.7,1.3,1.7c4.9,0,9.9,0,14.8,0
		c3.4,0,4.7-1,5.3-4.4c0.7-3.9,1.4-7.8,2.1-11.7c0.4-2.3-0.1-2.9-2.5-2.9C623.7,491.3,620.9,491.4,618.2,491.4z"/>
	<path class="st1" d="M779.5,478.3c7.6,0,15.2,0,22.9,0c1.5,0,2,0.2,1.6,1.9c-0.7,3-1.1,6-1.5,9c-0.2,1.5-0.6,2.2-2.4,2.1
		c-4.6-0.2-9.3,0-13.9-0.1c-1.4,0-2,0.3-2.3,1.8c-1.1,6.9-2.3,13.7-3.5,20.5c-1.5,8.4-2.8,16.9-4.6,25.3c-0.6,2.7-0.6,5.5-1.5,8.2
		c-0.3,0.9-0.5,1.4-1.5,1.3c-3.8,0-7.5,0-11.3,0c-1,0-1.2-0.4-1.1-1.3c0.8-4.3,1.2-8.6,2.1-12.8c1-4.5,1.3-9.1,2.2-13.6
		c0.6-2.6,1-5.3,1.4-7.9c0.8-5,1.9-10,2.8-15c0.3-1.4,0.5-2.8,0.8-4.2c0.4-1.7,0.2-2.4-1.8-2.3c-4.6,0.2-9.3,0-13.9,0.1
		c-1.4,0-1.8-0.3-1.5-1.7c0.6-3.2,1.2-6.4,1.6-9.6c0.2-1.5,0.8-1.8,2.2-1.8C764.1,478.3,771.8,478.2,779.5,478.3
		C779.5,478.3,779.5,478.3,779.5,478.3z"/>
	<path class="st1" d="M652.6,548.9c-1.6-0.1-3.2-0.1-4.8-0.4c-6.1-1.5-9.6-6.4-8.4-14.1c0.8-5.1,1.5-10.1,2.5-15.1
		c1.3-6.2,2.2-12.5,3.4-18.7c0.7-3.5,1.2-7.2,2-10.7c1.7-7.5,7.5-12,15.1-12c2,0,3.9,0,5.9,0c1,0,1.2,0.3,1,1.3
		c-0.7,3.5-1.3,7-1.9,10.5c-0.2,1-0.4,1.5-1.6,1.5c-4.3,0.1-5,0.8-5.7,4.9c-0.9,5-1.8,10-2.7,15.1c-1.3,7.2-2.5,14.3-3.8,21.5
		c-0.5,2.7,0,3.1,2.8,3.2c2.9,0,2.9,0,2.4,2.8c-0.5,3.1-1.6,6.1-1.7,9.2c0,0.9-0.6,1.1-1.3,1.1C655,548.8,653.8,548.8,652.6,548.9
		C652.6,548.9,652.6,548.9,652.6,548.9z"/>
	<path class="st1" d="M673,548.9c-0.5,0-1,0-1.5,0c-3.2,0-3.8-0.5-2.9-3.5c0.7-2.7,1.1-5.5,1.7-8.3c0.2-1,0.6-1.4,1.7-1.4
		c2.3-0.1,3.4-1.2,3.9-3.6c1.4-6.5,2.5-13,3.5-19.6c1-6.1,2.4-12.1,3.5-18.2c0.5-2.7,0.1-3.1-2.8-3.2c-1.2,0-2.3,0.5-1.7-1.8
		c0.8-3.3,1.3-6.7,1.9-10c0.2-1,0.5-1.5,1.7-1.4c2,0.1,4.1-0.1,6.1,0.2c6.4,1.1,10.3,6.6,9.2,13c-2.5,15-5,29.9-7.8,44.8
		C687.9,544.4,681.9,549.3,673,548.9z"/>
	<path class="st3" d="M457.9,491.4c2.7,0,5.4,0,8,0c2.4,0,2.9,0.6,2.5,2.9c-0.6,3.8-1.3,7.7-2.1,11.5c-0.5,2.6-1.8,3.5-4.4,3.5
		c-5.1,0-10.1,0-15.2,0c-1.3,0-1.6-0.4-1.4-1.6c0.9-5.1,1.8-10.1,2.6-15.2c0.2-1.1,0.8-1.2,1.7-1.2
		C452.3,491.4,455.1,491.4,457.9,491.4C457.9,491.4,457.9,491.4,457.9,491.4z"/>
	<path class="st3" d="M201.2,509.4c-2.5,0-5.1,0-7.6,0c-1,0-1.6-0.1-1.4-1.4c0.9-5.2,1.8-10.5,2.7-15.7c0.1-0.8,0.6-0.9,1.2-0.9
		c5.7,0,11.5,0,17.2,0c1.6,0,2.5,0.7,2.2,2.5c-0.7,4.1-1.3,8.1-2.2,12.1c-0.5,2.5-1.8,3.3-4.4,3.4
		C206.3,509.4,203.8,509.4,201.2,509.4z"/>
	<path class="st3" d="M148,510.5c-2.7,0-5.4,0-8.1,0c-1.1,0-1.4-0.3-1.2-1.4c1-5.5,2-11,2.9-16.5c0.2-1,0.6-1.3,1.6-1.3
		c5.6,0,11.2,0,16.8,0c2,0,2.7,0.9,2.3,2.9c-0.8,4.1-1.4,8.3-2.2,12.4c-0.5,2.8-1.9,3.8-4.7,3.8C152.9,510.5,150.5,510.5,148,510.5z
		"/>
	<path class="st4" d="M723.1,509.4c-2.6,0-5.2,0-7.8,0c-1.2,0-1.5-0.4-1.3-1.5c0.9-5,1.8-10.1,2.6-15.2c0.2-1,0.6-1.3,1.6-1.3
		c5.6,0,11.2,0,16.7,0c1.9,0,2.6,0.9,2.3,2.8c-0.7,3.9-1.3,7.8-2.1,11.6c-0.6,2.7-1.8,3.6-4.6,3.6
		C728,509.4,725.6,509.3,723.1,509.4C723.1,509.3,723.1,509.3,723.1,509.4z"/>
	<path class="st4" d="M618.2,491.4c2.8,0,5.5,0,8.3,0c2.4,0,2.8,0.7,2.5,2.9c-0.7,3.9-1.3,7.8-2.1,11.7c-0.6,3.4-1.9,4.4-5.3,4.4
		c-4.9,0-9.9,0-14.8,0c-1.3,0-1.6-0.1-1.3-1.7c1.1-5.3,2-10.6,2.8-15.9c0.2-1.2,0.5-1.6,1.7-1.5
		C612.6,491.5,615.4,491.4,618.2,491.4C618.2,491.4,618.2,491.4,618.2,491.4z"/>
</g>
</svg>
