<svg width="250" height="250" viewBox="0 0 250 250" fill="none" xmlns="http://www.w3.org/2000/svg">
<rect width="250" height="250" fill="url(#paint0_linear_288_57)"/>
<mask id="mask0_288_57" style="mask-type:luminance" maskUnits="userSpaceOnUse" x="40" y="112" width="170" height="26">
<path d="M210 112.181H40V137.819H210V112.181Z" fill="white"/>
</mask>
<g mask="url(#mask0_288_57)">
<path fill-rule="evenodd" clip-rule="evenodd" d="M189.583 113.156C187.233 113.163 185.02 114.93 184.591 117.353C183.711 122.49 182.845 127.63 181.999 132.773C181.685 134.763 183.319 136.869 185.464 136.869C193.834 136.869 183.5 136.869 201.115 136.869C203.467 136.869 205.656 135.058 206.078 132.672C206.956 127.534 207.825 122.395 208.67 117.252C208.982 115.267 207.395 113.156 205.205 113.156C187.619 113.156 207.169 113.156 189.583 113.156ZM205.211 112.295C206.685 112.31 208.127 113.11 208.907 114.361C209.466 115.254 209.684 116.344 209.52 117.388C208.673 122.535 207.805 127.677 206.926 132.818C206.458 135.465 204.054 137.616 201.323 137.725C201.255 137.728 201.188 137.729 201.12 137.729C183.494 137.729 188.181 137.729 185.458 137.729C182.949 137.729 180.73 135.293 181.149 132.635C181.996 127.489 182.863 122.346 183.743 117.205C184.221 114.506 186.739 112.295 189.549 112.295C207.175 112.295 188.408 112.293 205.211 112.295Z" fill="#19315C"/>
<mask id="mask1_288_57" style="mask-type:luminance" maskUnits="userSpaceOnUse" x="40" y="112" width="169" height="26">
<path d="M208.81 117.338C209.004 116.187 208.681 115.011 207.928 114.119C207.174 113.229 206.067 112.715 204.9 112.715H48.4856C45.8008 112.715 43.5098 114.654 43.0652 117.301C42.3281 121.687 41.2209 128.268 40.4817 132.667C40.2884 133.818 40.6109 134.996 41.3646 135.886C42.1183 136.776 43.2255 137.29 44.3916 137.29H200.807C203.491 137.29 205.782 135.351 206.227 132.704C206.964 128.317 208.071 121.736 208.81 117.337V117.338Z" fill="white"/>
</mask>
<g mask="url(#mask1_288_57)">
<path d="M40.2885 112.715H209.761L209.254 137.291H40.2885V112.715Z" fill="url(#paint1_linear_288_57)"/>
</g>
<path fill-rule="evenodd" clip-rule="evenodd" d="M48.4869 113.147C46.1369 113.154 43.9235 114.921 43.4945 117.344C42.6147 122.481 41.7483 127.62 40.9026 132.764C40.5884 134.754 42.2229 136.838 44.368 136.86C87.426 137.008 157.572 136.974 200.63 136.86C202.981 136.839 205.171 135.048 205.592 132.662C206.47 127.525 207.34 122.386 208.184 117.243C208.496 115.258 206.909 113.169 204.719 113.147C161.67 112.998 91.5344 113.147 48.4869 113.147ZM205.138 112.285C206.613 112.301 208.055 113.101 208.835 114.352C209.394 115.244 209.612 116.335 209.447 117.379C208.601 122.525 207.732 127.668 206.854 132.809C206.386 135.456 203.982 137.607 201.25 137.716C201.183 137.719 201.116 137.72 201.048 137.72C157.986 137.835 87.4241 137.869 44.3618 137.72C41.8527 137.694 39.6331 135.284 40.0528 132.626C40.8995 127.48 41.7669 122.336 42.6467 117.196C43.1233 114.497 45.6417 112.309 48.4517 112.285C91.5139 112.156 162.076 112.137 205.138 112.285Z" fill="#19315C"/>
<mask id="mask2_288_57" style="mask-type:luminance" maskUnits="userSpaceOnUse" x="122" y="113" width="75" height="24">
<path d="M127.125 113.721L122.959 136.285C140.572 136.285 171.419 136.339 189.032 136.285C191.372 136.265 193.556 134.491 193.99 132.114C194.829 127.358 195.66 122.599 196.471 117.837C196.797 115.838 195.169 113.743 193.008 113.721C175.458 113.66 144.675 113.721 127.125 113.721Z" fill="white"/>
</mask>
<g mask="url(#mask2_288_57)">
<path d="M196.796 113.661H121.51V136.339H196.796V113.661Z" fill="url(#paint2_linear_288_57)"/>
</g>
<g filter="url(#filter0_d_288_57)">
<path d="M136.433 122.685L136.638 121.547C136.675 121.337 136.665 121.193 136.61 121.118C136.554 121.044 136.433 121.007 136.246 121.007H133.635C133.163 121.007 132.889 121.25 132.814 121.735L132.591 123.04C132.566 123.227 132.582 123.355 132.638 123.423C132.693 123.491 132.814 123.55 133.001 123.6L136.265 124.346C137.073 124.546 137.683 124.881 138.092 125.353C138.503 125.825 138.639 126.41 138.503 127.106L138.073 129.494C137.937 130.276 137.601 130.899 137.066 131.359C136.532 131.819 135.886 132.048 135.127 132.048H131.006C130.235 132.048 129.638 131.787 129.216 131.266C128.805 130.756 128.669 130.102 128.805 129.307L129.086 127.685H131.696L131.471 128.973C131.434 129.184 131.443 129.327 131.499 129.402C131.555 129.476 131.682 129.513 131.882 129.513H134.698C135.17 129.513 135.445 129.27 135.519 128.785L135.761 127.331C135.786 127.145 135.77 127.016 135.714 126.948C135.658 126.88 135.538 126.821 135.35 126.771L132.087 126.025C131.29 125.839 130.691 125.506 130.288 125.027C129.883 124.549 129.744 123.961 129.868 123.265L130.26 121.027C130.396 120.244 130.732 119.623 131.267 119.162C131.801 118.702 132.447 118.473 133.206 118.473H137.104C137.875 118.473 138.465 118.734 138.876 119.257C139.299 119.766 139.441 120.419 139.305 121.215L139.043 122.688H136.433V122.685Z" fill="url(#paint3_linear_288_57)"/>
<path d="M142.569 124.699H145.851C146.298 124.699 146.573 124.457 146.672 123.972L147.082 121.622C147.119 121.411 147.11 121.267 147.054 121.193C146.999 121.118 146.871 121.081 146.672 121.081H143.203L142.57 124.699H142.569ZM140.964 118.544H147.622C148.38 118.544 148.971 118.806 149.394 119.328C149.817 119.85 149.966 120.502 149.842 121.286L149.226 124.68C149.102 125.464 148.773 126.085 148.238 126.545C147.703 127.005 147.05 127.236 146.28 127.236H142.121L141.3 131.973H138.615L140.965 118.545L140.964 118.544Z" fill="url(#paint4_linear_288_57)"/>
<path d="M167.371 123.767L167.745 121.622C167.782 121.411 167.773 121.267 167.717 121.193C167.661 121.118 167.534 121.081 167.334 121.081H163.884L163.287 124.494H166.551C166.999 124.494 167.273 124.252 167.372 123.767H167.371ZM161.646 118.545H168.285C169.056 118.545 169.653 118.807 170.076 119.329C170.498 119.839 170.641 120.492 170.505 121.287L169.945 124.439C169.696 125.794 168.945 126.622 167.689 126.919L168.994 131.973H166.178L164.947 126.994H162.859L161.982 131.973H159.297L161.647 118.545H161.646Z" fill="url(#paint5_linear_288_57)"/>
<path d="M180.145 121.044H176.732L174.812 131.973H172.127L174.048 121.044H170.635L171.064 118.545H180.574L180.145 121.044Z" fill="url(#paint6_linear_288_57)"/>
<path d="M156.95 118.471H157.935C158.706 118.471 159.296 118.732 159.706 119.254C160.129 119.764 160.272 120.417 160.136 121.213L158.681 129.493C158.544 130.275 158.208 130.898 157.674 131.358C157.139 131.818 156.493 132.047 155.734 132.047H154.583L155.025 129.511H155.324C155.772 129.511 156.038 129.268 156.125 128.783L157.394 121.548C157.431 121.337 157.421 121.193 157.366 121.118C157.31 121.044 157.189 121.007 157.002 121.007H156.508L156.949 118.471H156.95ZM154.879 118.471L154.437 121.007H153.944C153.496 121.007 153.223 121.25 153.123 121.735L151.856 128.97C151.818 129.182 151.828 129.325 151.883 129.399C151.939 129.474 152.066 129.511 152.266 129.511H152.955L152.512 132.047H151.315C150.557 132.047 149.96 131.786 149.524 131.264C149.114 130.755 148.977 130.101 149.114 129.306L150.568 121.026C150.705 120.243 151.041 119.621 151.575 119.161C152.11 118.701 152.756 118.472 153.515 118.472H154.879L154.879 118.471Z" fill="url(#paint7_linear_288_57)"/>
</g>
<g filter="url(#filter1_d_288_57)">
<path d="M53.5145 124.699H56.7969C57.2445 124.699 57.5185 124.457 57.6178 123.972L58.0282 121.622C58.0654 121.411 58.0561 121.267 58.0003 121.193C57.9445 121.118 57.8173 121.081 57.6178 121.081H54.1492L53.5155 124.699H53.5145ZM51.91 118.544H58.5679C59.3256 118.544 59.917 118.806 60.3398 119.328C60.7627 119.85 60.9116 120.502 60.7875 121.286L60.1724 124.68C60.0483 125.464 59.7185 126.085 59.184 126.545C58.6495 127.005 57.9962 127.236 57.226 127.236H53.0668L52.246 131.973H49.5611L51.911 118.545L51.91 118.544Z" fill="url(#paint8_linear_288_57)"/>
<path d="M67.7802 123.767L68.1534 121.622C68.1906 121.411 68.1813 121.267 68.1254 121.193C68.0696 121.118 67.9425 121.081 67.7429 121.081H64.293L63.6965 124.494H66.9603C67.408 124.494 67.6819 124.252 67.7812 123.767H67.7802ZM62.0548 118.545H68.6941C69.4653 118.545 70.0618 118.807 70.4847 119.329C70.9075 119.839 71.0502 120.492 70.9137 121.287L70.3533 124.439C70.1053 125.794 69.3526 126.622 68.0965 126.919L69.4022 131.973H66.5861L65.3548 126.994H63.2664L62.3897 131.973H59.7039L62.0538 118.545H62.0548Z" fill="url(#paint9_linear_288_57)"/>
<path d="M72.6476 118.545H81.282L80.8343 121.081H74.8858L74.4009 123.842H79.2114L78.7637 126.378H73.9533L73.4302 129.436H79.3799L78.9322 131.973H70.2977L72.6476 118.545Z" fill="url(#paint10_linear_288_57)"/>
<path d="M94.8958 118.545L92.5458 131.973H90.01L91.6133 123.021L87.6229 129.827H85.7576L84.0789 123.021L82.4752 131.973H79.9394L82.2894 118.545H85.1612L87.0995 126.489L91.8366 118.545H94.8958Z" fill="url(#paint11_linear_288_57)"/>
<path d="M94.1121 131.973L96.4621 118.545H99.1482L96.797 131.973H94.1121Z" fill="url(#paint12_linear_288_57)"/>
<path d="M100.714 118.545H109.348L108.901 121.081H102.952L102.467 123.842H107.278L106.83 126.378H102.019L101.497 129.436H107.445L106.999 131.973H98.3644L100.714 118.545Z" fill="url(#paint13_linear_288_57)"/>
<path d="M116.08 123.767L116.453 121.622C116.49 121.411 116.481 121.267 116.425 121.193C116.369 121.118 116.242 121.081 116.042 121.081H112.593L111.996 124.494H115.26C115.708 124.494 115.982 124.252 116.081 123.767H116.08ZM110.354 118.545H116.994C117.765 118.545 118.361 118.807 118.784 119.329C119.207 119.839 119.35 120.492 119.213 121.287L118.654 124.439C118.406 125.794 117.653 126.622 116.397 126.919L117.703 131.973H114.887L113.655 126.994H111.567L110.69 131.973H108.006L110.356 118.545H110.354Z" fill="url(#paint14_linear_288_57)"/>
</g>
<g filter="url(#filter2_d_288_57)">
<path fill-rule="evenodd" clip-rule="evenodd" d="M48.2768 114.412C46.7323 114.416 45.2942 115.576 44.9955 117.129C44.0267 122.319 43.0312 127.504 42.1328 132.708C41.9022 134.093 43.0239 135.568 44.5375 135.595C87.6091 136.044 145.368 135.957 188.441 135.595C189.96 135.575 191.378 134.427 191.68 132.897C192.68 127.712 193.609 122.514 194.543 117.317C194.786 115.917 193.671 114.428 192.124 114.413C149.068 114.256 91.3317 114.413 48.2758 114.413L48.2768 114.412ZM192.131 113.551C193.263 113.563 194.364 114.184 194.952 115.144C195.372 115.831 195.53 116.671 195.392 117.466C194.459 122.661 193.498 127.85 192.531 133.039C192.168 134.92 190.409 136.428 188.452 136.455C145.379 136.817 87.6237 136.59 44.5499 136.455C42.6238 136.436 40.9418 134.552 41.2892 132.54C42.2258 127.346 43.1831 122.156 44.1508 116.968C44.5147 115.076 46.2702 113.567 48.253 113.551C91.3195 113.424 149.066 113.394 192.131 113.551Z" fill="white"/>
</g>
<path fill-rule="evenodd" clip-rule="evenodd" d="M200.615 136.258H185.944C183.732 136.258 182.259 134.448 182.671 132.235L185.367 117.772C185.78 115.56 187.928 113.749 190.141 113.749H204.811C207.023 113.749 208.496 115.56 208.084 117.772L205.388 132.235C204.975 134.448 202.827 136.258 200.615 136.258Z" fill="white"/>
<g filter="url(#filter3_d_288_57)">
<path fill-rule="evenodd" clip-rule="evenodd" d="M189.375 114.421C187.83 114.425 186.392 115.585 186.093 117.138C185.125 122.328 184.129 127.514 183.231 132.717C183 134.102 184.122 135.605 185.635 135.605H201.334C202.854 135.605 204.271 134.436 204.573 132.906C205.574 127.722 206.502 122.523 207.437 117.326C207.68 115.927 206.565 114.422 205.018 114.422C185.297 114.422 192.827 114.422 189.374 114.422L189.375 114.421ZM205.025 113.56C206.157 113.573 207.257 114.194 207.845 115.153C208.266 115.841 208.423 116.68 208.285 117.475C207.352 122.67 206.392 127.859 205.424 133.048C205.061 134.929 203.303 136.465 201.345 136.465C183.684 136.465 203.31 136.465 185.648 136.465C183.722 136.465 182.04 134.561 182.387 132.55C183.324 127.356 184.281 122.166 185.249 116.977C185.613 115.085 187.368 113.56 189.351 113.56C206.989 113.56 187.387 113.56 205.025 113.56Z" fill="white"/>
</g>
<g filter="url(#filter4_d_288_57)">
<path d="M194.348 121.774L194.198 122.541H191.504L191.785 121.025C191.923 120.265 192.265 119.647 192.815 119.173C193.389 118.675 194.043 118.424 194.779 118.424H198.503C199.252 118.424 199.838 118.704 200.262 119.267C200.71 119.816 200.873 120.464 200.749 121.213L200.356 123.384C200.156 124.581 199.096 125.498 197.175 126.135L193.807 127.257C193.506 127.37 193.316 127.46 193.236 127.528C193.154 127.596 193.095 127.737 193.058 127.949L192.815 129.427H199.346L198.897 131.973H189.672L190.439 127.538C190.651 126.34 191.718 125.423 193.639 124.786L197.026 123.664C197.312 123.551 197.494 123.461 197.569 123.393C197.643 123.325 197.7 123.184 197.737 122.972L197.98 121.588C198.03 121.339 198.02 121.167 197.952 121.073C197.884 120.98 197.731 120.932 197.494 120.932H195.304C194.78 120.932 194.463 121.213 194.35 121.775L194.348 121.774Z" fill="#19315C"/>
</g>
</g>
<defs>
<filter id="filter0_d_288_57" x="127.443" y="117.16" width="57.0624" height="18.8195" filterUnits="userSpaceOnUse" color-interpolation-filters="sRGB">
<feFlood flood-opacity="0" result="BackgroundImageFix"/>
<feColorMatrix in="SourceAlpha" type="matrix" values="0 0 0 0 0 0 0 0 0 0 0 0 0 0 0 0 0 0 127 0" result="hardAlpha"/>
<feOffset dx="1.31054" dy="1.31054"/>
<feGaussianBlur stdDeviation="1.31054"/>
<feColorMatrix type="matrix" values="0 0 0 0 0 0 0 0 0 0 0 0 0 0 0 0 0 0 0.35 0"/>
<feBlend mode="normal" in2="BackgroundImageFix" result="effect1_dropShadow_288_57"/>
<feBlend mode="normal" in="SourceGraphic" in2="effect1_dropShadow_288_57" result="shape"/>
</filter>
<filter id="filter1_d_288_57" x="48.2506" y="117.234" width="74.9444" height="18.6706" filterUnits="userSpaceOnUse" color-interpolation-filters="sRGB">
<feFlood flood-opacity="0" result="BackgroundImageFix"/>
<feColorMatrix in="SourceAlpha" type="matrix" values="0 0 0 0 0 0 0 0 0 0 0 0 0 0 0 0 0 0 127 0" result="hardAlpha"/>
<feOffset dx="1.31054" dy="1.31054"/>
<feGaussianBlur stdDeviation="1.31054"/>
<feColorMatrix type="matrix" values="0 0 0 0 0 0 0 0 0 0 0 0 0 0 0 0 0 0 0.35 0"/>
<feBlend mode="normal" in2="BackgroundImageFix" result="effect1_dropShadow_288_57"/>
<feBlend mode="normal" in="SourceGraphic" in2="effect1_dropShadow_288_57" result="shape"/>
</filter>
<filter id="filter2_d_288_57" x="39.9328" y="112.133" width="159.44" height="28.4486" filterUnits="userSpaceOnUse" color-interpolation-filters="sRGB">
<feFlood flood-opacity="0" result="BackgroundImageFix"/>
<feColorMatrix in="SourceAlpha" type="matrix" values="0 0 0 0 0 0 0 0 0 0 0 0 0 0 0 0 0 0 127 0" result="hardAlpha"/>
<feOffset dx="1.31054" dy="1.31054"/>
<feGaussianBlur stdDeviation="1.31054"/>
<feColorMatrix type="matrix" values="0 0 0 0 0 0 0 0 0 0 0 0 0 0 0 0 0 0 0.35 0"/>
<feBlend mode="normal" in2="BackgroundImageFix" result="effect1_dropShadow_288_57"/>
<feBlend mode="normal" in="SourceGraphic" in2="effect1_dropShadow_288_57" result="shape"/>
</filter>
<filter id="filter3_d_288_57" x="181.162" y="112.381" width="30.7107" height="27.6225" filterUnits="userSpaceOnUse" color-interpolation-filters="sRGB">
<feFlood flood-opacity="0" result="BackgroundImageFix"/>
<feColorMatrix in="SourceAlpha" type="matrix" values="0 0 0 0 0 0 0 0 0 0 0 0 0 0 0 0 0 0 127 0" result="hardAlpha"/>
<feOffset dx="1.17948" dy="1.17948"/>
<feGaussianBlur stdDeviation="1.17948"/>
<feColorMatrix type="matrix" values="0 0 0 0 0 0 0 0 0 0 0 0 0 0 0 0 0 0 0.4 0"/>
<feBlend mode="normal" in2="BackgroundImageFix" result="effect1_dropShadow_288_57"/>
<feBlend mode="normal" in="SourceGraphic" in2="effect1_dropShadow_288_57" result="shape"/>
</filter>
<filter id="filter4_d_288_57" x="188.362" y="117.114" width="16.359" height="18.7905" filterUnits="userSpaceOnUse" color-interpolation-filters="sRGB">
<feFlood flood-opacity="0" result="BackgroundImageFix"/>
<feColorMatrix in="SourceAlpha" type="matrix" values="0 0 0 0 0 0 0 0 0 0 0 0 0 0 0 0 0 0 127 0" result="hardAlpha"/>
<feOffset dx="1.31054" dy="1.31054"/>
<feGaussianBlur stdDeviation="1.31054"/>
<feColorMatrix type="matrix" values="0 0 0 0 0 0 0 0 0 0 0 0 0 0 0 0 0 0 0.35 0"/>
<feBlend mode="normal" in2="BackgroundImageFix" result="effect1_dropShadow_288_57"/>
<feBlend mode="normal" in="SourceGraphic" in2="effect1_dropShadow_288_57" result="shape"/>
</filter>
<linearGradient id="paint0_linear_288_57" x1="-0.75284" y1="123.776" x2="250.959" y2="123.776" gradientUnits="userSpaceOnUse">
<stop stop-color="#041735"/>
<stop offset="1" stop-color="#19315C"/>
</linearGradient>
<linearGradient id="paint1_linear_288_57" x1="39.7782" y1="124.883" x2="210.411" y2="124.883" gradientUnits="userSpaceOnUse">
<stop stop-color="#041735"/>
<stop offset="0.15" stop-color="#112447"/>
<stop offset="0.33" stop-color="#162F57"/>
<stop offset="1" stop-color="#19315C"/>
</linearGradient>
<linearGradient id="paint2_linear_288_57" x1="124.003" y1="124.841" x2="196.242" y2="124.841" gradientUnits="userSpaceOnUse">
<stop stop-color="#9B233E"/>
<stop offset="0.65" stop-color="#8F253B"/>
<stop offset="0.84" stop-color="#6E2132"/>
<stop offset="1" stop-color="#4B2029"/>
</linearGradient>
<linearGradient id="paint3_linear_288_57" x1="128.68" y1="130.746" x2="139.534" y2="119.891" gradientUnits="userSpaceOnUse">
<stop stop-color="#C7C8CA"/>
<stop offset="0.5" stop-color="white"/>
<stop offset="1" stop-color="#C7C8CA"/>
</linearGradient>
<linearGradient id="paint4_linear_288_57" x1="136.897" y1="130.254" x2="148.617" y2="118.535" gradientUnits="userSpaceOnUse">
<stop stop-color="#C7C8CA"/>
<stop offset="0.5" stop-color="white"/>
<stop offset="1" stop-color="#C7C8CA"/>
</linearGradient>
<linearGradient id="paint5_linear_288_57" x1="158.952" y1="131.627" x2="170.671" y2="119.907" gradientUnits="userSpaceOnUse">
<stop stop-color="#C7C8CA"/>
<stop offset="0.5" stop-color="white"/>
<stop offset="1" stop-color="#C7C8CA"/>
</linearGradient>
<linearGradient id="paint6_linear_288_57" x1="169.175" y1="129.021" x2="180.113" y2="118.083" gradientUnits="userSpaceOnUse">
<stop stop-color="#C7C8CA"/>
<stop offset="0.5" stop-color="white"/>
<stop offset="1" stop-color="#C7C8CA"/>
</linearGradient>
<linearGradient id="paint7_linear_288_57" x1="149.065" y1="130.818" x2="160.179" y2="119.704" gradientUnits="userSpaceOnUse">
<stop stop-color="#C7C8CA"/>
<stop offset="0.5" stop-color="white"/>
<stop offset="1" stop-color="#C7C8CA"/>
</linearGradient>
<linearGradient id="paint8_linear_288_57" x1="47.8429" y1="130.254" x2="59.5624" y2="118.535" gradientUnits="userSpaceOnUse">
<stop stop-color="#C7C8CA"/>
<stop offset="0.5" stop-color="white"/>
<stop offset="1" stop-color="#C7C8CA"/>
</linearGradient>
<linearGradient id="paint9_linear_288_57" x1="59.3596" y1="131.627" x2="71.0801" y2="119.907" gradientUnits="userSpaceOnUse">
<stop stop-color="#C7C8CA"/>
<stop offset="0.5" stop-color="white"/>
<stop offset="1" stop-color="#C7C8CA"/>
</linearGradient>
<linearGradient id="paint10_linear_288_57" x1="69.6867" y1="131.362" x2="81.8922" y2="119.156" gradientUnits="userSpaceOnUse">
<stop stop-color="#C7C8CA"/>
<stop offset="0.5" stop-color="white"/>
<stop offset="1" stop-color="#C7C8CA"/>
</linearGradient>
<linearGradient id="paint11_linear_288_57" x1="80.322" y1="132.354" x2="94.5132" y2="118.163" gradientUnits="userSpaceOnUse">
<stop stop-color="#C7C8CA"/>
<stop offset="0.5" stop-color="white"/>
<stop offset="1" stop-color="#C7C8CA"/>
</linearGradient>
<linearGradient id="paint12_linear_288_57" x1="92.0145" y1="129.874" x2="101.246" y2="120.643" gradientUnits="userSpaceOnUse">
<stop stop-color="#C7C8CA"/>
<stop offset="0.5" stop-color="white"/>
<stop offset="1" stop-color="#C7C8CA"/>
</linearGradient>
<linearGradient id="paint13_linear_288_57" x1="97.7534" y1="131.362" x2="109.959" y2="119.156" gradientUnits="userSpaceOnUse">
<stop stop-color="#C7C8CA"/>
<stop offset="0.5" stop-color="white"/>
<stop offset="1" stop-color="#C7C8CA"/>
</linearGradient>
<linearGradient id="paint14_linear_288_57" x1="107.66" y1="131.627" x2="119.38" y2="119.908" gradientUnits="userSpaceOnUse">
<stop stop-color="#C7C8CA"/>
<stop offset="0.5" stop-color="white"/>
<stop offset="1" stop-color="#C7C8CA"/>
</linearGradient>
</defs>
</svg>
