<svg width="250" height="250" viewBox="0 0 250 250" fill="none" xmlns="http://www.w3.org/2000/svg">
<rect width="250" height="250" fill="#BFA301"/>
<path d="M187.544 119.166C181.276 119.166 180.652 116.779 180.652 115.388V115.257H186.241C186.285 115.766 186.504 116.576 188.398 116.576H188.458C190.194 116.576 190.543 116.155 190.543 115.706V115.678C190.543 115.23 190.341 114.884 188.299 114.809L186.158 114.749C181.828 114.634 180.831 113.096 180.831 111.404V111.273C180.831 109.374 182.265 108 187.373 108H188.966C194.555 108 195.842 109.609 195.842 111.388V111.488H190.341C190.297 111.098 190.095 110.491 188.271 110.491H188.2C186.519 110.491 186.289 110.781 186.289 111.17V111.186C186.289 111.607 186.666 111.881 188.49 111.925L190.547 111.968C194.702 112.084 196.236 113.053 196.236 115.253V115.456C196.236 117.323 195.092 119.162 189.185 119.162H187.548L187.544 119.166Z" fill="white"/>
<path d="M196.959 118.964V108.191H201.837V112.203L206.906 108.191H212.9L206.556 113.057L212.999 118.964H206.628L201.837 114.419V118.964H196.959Z" fill="white"/>
<path d="M106.673 120.616H99.8047V123.115H106.673C107.96 123.115 108.417 122.586 108.417 121.875V121.851C108.417 121.14 107.956 120.612 106.673 120.612" fill="white"/>
<path d="M48.2883 122.193C48.2883 122.999 48.757 123.341 50.1791 123.341H53.2854V121.347H49.615C48.7967 121.347 48.2843 121.585 48.2843 122.189M48.2883 118.149C48.2883 119.111 49.039 119.206 50.1672 119.206H53.2894V117.212H49.4839C48.7332 117.212 48.2923 117.569 48.2923 118.149M47.1959 134.464C46.2823 134.464 45.8493 134.944 45.7698 135.592L45.5831 137.061H48.189L48.3161 135.592C48.3717 134.932 48.0857 134.464 47.1959 134.464ZM50.6876 111.551C50.8067 112.052 51.0212 112.473 51.5734 112.473C52.1255 112.473 52.3639 112.036 52.3639 111.535C52.3639 110.467 51.7482 110.109 50.3142 110.161C50.5128 110.479 50.5525 111.059 50.6915 111.547M45.9963 126.15L45.7619 127.75H43.9624L44.2484 126.15H45.9923H45.9963ZM41.4758 126.146L38 141.491H53.2894V139.385H43.0925L43.7519 135.274C43.9902 133.8 45.0072 132.473 47.2396 132.473C49.472 132.473 50.4333 133.538 50.342 135.274L50.2466 137.065H53.2934V132.048H45.7341L45.9883 130.169H47.319V130.146C46.3895 129.872 46.0876 129.2 46.1909 128.434C46.2068 128.299 46.2386 128.068 46.2386 128.068H48.3717L48.328 128.553C48.2684 129.176 48.3836 130.11 49.8216 130.11H53.2934V127.746H46.3975L46.6159 126.13H53.2974V125.486H46.6199V123.405H47.5733V123.381C46.8741 122.972 46.4173 122.245 46.4173 121.415C46.4173 120.584 46.6994 119.889 47.5455 119.52C46.8106 118.979 46.4173 118.308 46.4173 117.383C46.4173 115.206 48.0936 115.063 49.4244 115.063H53.2974V114.002C52.9518 114.443 52.4155 114.717 51.6767 114.717C49.4085 114.717 49.5832 112.29 49.2615 110.737C49.182 110.356 49.047 110.141 48.618 110.141C48.0936 110.141 47.891 110.761 47.891 111.222C47.891 111.841 48.1731 112.235 48.761 112.342V114.439C47.8513 114.399 47.2594 113.974 46.898 113.371C46.5484 112.763 46.4133 111.972 46.4133 111.194C46.4133 109.764 46.6954 108.373 48.1175 108.064H41.4797V126.146H41.4758Z" fill="white"/>
<path d="M177.388 108.004H169.702C169.956 108.564 170.099 109.188 170.099 109.847C170.099 112.31 168.101 114.304 165.634 114.304C163.167 114.304 161.169 112.306 161.169 109.847C161.169 109.192 161.312 108.568 161.57 108.004H126.813C127.067 108.564 127.214 109.188 127.214 109.847C127.214 112.31 125.216 114.304 122.749 114.304C120.282 114.304 118.284 112.306 118.284 109.847C118.284 109.192 118.427 108.568 118.685 108.004H57.2734V141.435H177.511L177.388 108.004ZM80.6306 133.252L73.0276 126.05V133.252H65.2856V116.187H73.0276V122.539L81.0676 116.187H90.5773L80.5154 123.893L90.7362 133.252H80.6306ZM116.779 133.252H108.83C108.715 133.137 108.671 132.906 108.671 132.565V130.523C108.671 128.688 107.797 127.611 105.295 127.611H99.8049V133.252H92.0629V116.187H109.45C113.744 116.187 116.385 117.403 116.385 120.521V120.751C116.385 123.321 114.089 124.283 112.663 124.652C115.074 125.133 116.453 126.622 116.453 128.827V131.397C116.453 132.406 116.592 132.819 116.775 133.117V133.256L116.779 133.252ZM126.69 133.252H118.971V116.187H126.69V133.252ZM158.949 133.252H151.254V123.826L146.039 133.252H142.249L137.057 123.826V133.252H129.43V116.187H139.79L144.362 124.652L149.05 116.187H158.949V133.252ZM169.499 133.252H161.781V116.187H169.499V133.252Z" fill="white"/>
</svg>
