<svg width="250" height="250" viewBox="0 0 250 250" fill="none" xmlns="http://www.w3.org/2000/svg">
<rect width="250" height="250" fill="#C42127"/>
<path d="M83.7863 115.595C85.3746 117.551 86.179 120.257 86.179 123.7C86.179 127.796 85.3339 130.986 83.6229 133.284C81.9187 135.581 79.5534 136.733 76.5678 136.733C74.0047 136.733 71.8848 135.833 70.2282 134.054C68.565 132.268 67.7335 130.094 67.7335 127.537V123.216C67.7335 120.189 68.6128 117.674 70.3715 115.663C72.1232 113.659 74.434 112.657 77.3176 112.657C80.0441 112.657 82.1983 113.638 83.7863 115.595Z" fill="white"/>
<path d="M208.543 90.1966C204.058 102.221 190.677 108.335 178.646 103.864C177.405 103.393 176.226 102.834 175.115 102.193L175.128 102.221C175.128 102.221 175.067 102.187 174.965 102.112C174.624 101.914 174.304 101.71 173.977 101.498C172.675 100.742 170.589 99.7942 169.628 100.708C168.878 101.41 169.089 102.957 169.416 104.204C169.559 104.648 169.709 105.098 169.846 105.547C169.941 105.827 170.016 105.997 170.016 105.997L169.934 105.854C173.977 119.255 173.833 134.04 168.578 148.165C155.783 182.513 117.576 199.984 83.221 187.196C48.8723 174.394 31.4015 136.188 44.1893 101.839C56.9908 67.4837 95.1977 50.0129 129.539 62.8076C140.862 67.0202 150.33 73.9935 157.508 82.6642L157.412 82.4733C157.412 82.4733 160.514 86.9041 162.368 86.3111C164.12 85.7452 163.431 82.7187 163.431 82.7187L163.513 82.8891C163.404 79.9307 163.861 76.911 164.965 73.9799C169.437 61.9487 182.824 55.8274 194.856 60.3059C206.887 64.7912 213.001 78.1721 208.543 90.1966ZM91.2508 123.788C91.2508 119.126 90.1397 115.411 87.897 112.643C85.6545 109.869 82.5391 108.485 78.5516 108.485C73.8482 108.485 70.283 110.544 67.8494 114.661H67.7269V109.208H62.7644V154.436H67.7269V135.711H67.8494C70.0241 139.18 73.1188 140.912 77.1337 140.912C81.5099 140.912 84.9591 139.351 87.4881 136.242C90.0033 133.12 91.2577 128.969 91.2508 123.788ZM119.58 109.208H114.618V127.06C114.618 129.937 113.827 132.268 112.273 134.054C110.705 135.84 108.715 136.733 106.295 136.733C101.298 136.733 98.7966 133.468 98.7966 126.931V109.208H93.8752V127.728C93.8752 136.515 97.5629 140.912 104.938 140.912C109.246 140.912 112.437 139.037 114.488 135.281H114.618V140.189H119.58L119.58 109.208ZM129.901 94.334H124.945V140.189H129.901V94.334ZM153.956 131.9C153.956 130.646 153.759 129.569 153.343 128.669C152.934 127.763 152.341 126.958 151.577 126.263C150.807 125.561 149.894 124.94 148.789 124.381C147.699 123.829 146.478 123.284 145.101 122.759C144.072 122.357 143.159 121.989 142.355 121.648C141.55 121.307 140.862 120.919 140.303 120.496C139.737 120.067 139.307 119.589 139.008 119.037C138.708 118.499 138.571 117.824 138.571 117.013C138.571 116.365 138.708 115.779 139.008 115.24C139.301 114.709 139.717 114.245 140.241 113.863C140.773 113.482 141.421 113.189 142.171 112.971C142.907 112.766 143.745 112.657 144.679 112.657C147.63 112.657 150.255 113.407 152.539 114.893V109.869C150.425 108.942 148.012 108.479 145.34 108.479C143.827 108.479 142.368 108.669 140.937 109.058C139.519 109.433 138.251 110.005 137.147 110.762C136.035 111.519 135.156 112.453 134.475 113.577C133.82 114.695 133.486 115.983 133.486 117.429C133.486 118.621 133.657 119.658 134.011 120.551C134.366 121.437 134.89 122.234 135.586 122.923C136.281 123.625 137.147 124.245 138.19 124.797C139.226 125.356 140.432 125.908 141.802 126.447C142.798 126.829 143.704 127.204 144.57 127.551C145.429 127.906 146.179 128.301 146.813 128.751C147.453 129.194 147.951 129.698 148.326 130.278C148.701 130.857 148.878 131.552 148.878 132.384C148.878 135.274 146.697 136.733 142.355 136.733C139.11 136.733 136.138 135.738 133.425 133.741V139.064C135.777 140.298 138.53 140.912 141.721 140.912C143.329 140.912 144.877 140.728 146.349 140.373C147.821 140.005 149.13 139.453 150.248 138.703C151.38 137.953 152.266 137.02 152.954 135.895C153.622 134.763 153.963 133.427 153.956 131.9ZM180.854 90.3531V88.2127C180.854 87.3063 181.079 86.6588 181.515 86.2701C181.782 86.0314 182.415 85.6566 183.915 85.2475L190.718 83.3322C192.845 82.7392 194.304 81.8734 195.046 80.7283C195.694 79.7399 196.014 78.138 196.014 75.8476C196.014 73.864 195.823 72.453 195.435 71.5532C194.958 70.4285 193.976 69.5287 192.545 68.8879C191.556 68.4517 189.395 68.2404 185.912 68.2404C182.668 68.2404 180.459 68.6834 179.164 69.59C177.732 70.6057 176.996 72.4939 176.996 75.2205V77.3609H180.861V75.3773C180.861 73.8436 181.154 72.8279 181.693 72.4393C182.088 72.1735 183.118 71.8599 185.749 71.8599C190.152 71.8599 191.188 72.2758 191.427 72.453C191.768 72.712 191.986 73.0665 192.095 73.5573C192.17 73.8299 192.252 74.4162 192.252 75.6363C192.252 77.804 192.006 78.3902 191.904 78.5402C191.659 78.8946 190.963 79.4263 188.993 79.9648L183.492 81.4713C180.929 82.1802 179.253 83.0254 178.387 84.0614C177.453 85.2 176.989 86.9177 176.989 89.3239V93.9797H196.008V90.3531L180.854 90.3531Z" fill="white"/>
</svg>
