<svg width="250" height="250" viewBox="0 0 250 250" fill="none" xmlns="http://www.w3.org/2000/svg">
<rect width="250" height="250" fill="#4144C5"/>
<path d="M114.783 125.412C119.763 125.412 122.657 128.979 122.657 133.219C122.657 137.593 119.763 140.958 114.783 140.958C109.803 140.958 106.91 137.593 106.91 133.219C106.91 128.979 109.803 125.412 114.783 125.412Z" fill="white"/>
<path d="M69.1872 109.832C73.4522 109.832 78.2505 110.638 78.2505 116.102C78.2505 121.567 73.4522 122.373 69.1872 122.373H67.9465V109.832H69.1872Z" fill="white"/>
<path fill-rule="evenodd" clip-rule="evenodd" d="M168.745 189.372H40V60.6276H168.745V189.372ZM111.57 114.78C101.341 114.78 94.2579 123.26 94.2579 133.153C94.2579 143.046 101.459 151.594 111.688 151.594C115.725 151.594 119.965 150.08 122.119 146.617H122.287V150.438H134.469V115.923H122.287V119.288C119.659 116.26 115.54 114.78 111.57 114.78ZM141.515 116.162V150.319H153.697V116.162H141.515ZM54.8092 150.08H67.9465V130.733H68.0543L80.3829 150.08H96.6436L80.8495 129.485C87.9801 128.218 91.8454 122.218 91.8454 115.287C91.8454 104.558 84.3149 99.8005 74.3853 99.8005H54.8092V150.08ZM147.598 96.2257C143.866 96.2257 140.801 99.2911 140.801 103.023C140.801 106.755 143.866 109.82 147.598 109.82C151.33 109.82 154.396 106.755 154.396 103.023C154.396 99.2912 151.33 96.2257 147.598 96.2257Z" fill="white"/>
<path d="M204.947 140.723H210V151.148H187.206V140.723H192.931V109.236H183.885V99.6945H204.947V140.723Z" fill="white"/>
</svg>
