<svg width="250" height="250" viewBox="0 0 250 250" fill="none" xmlns="http://www.w3.org/2000/svg">
<rect width="250" height="250" fill="#E61C23"/>
<path d="M111.098 125.392C115.832 125.392 118.583 128.783 118.583 132.814C118.583 136.972 115.832 140.171 111.098 140.171C106.363 140.171 103.612 136.972 103.612 132.814C103.612 128.783 106.363 125.392 111.098 125.392Z" fill="white"/>
<path d="M67.7487 110.58C71.8036 110.58 76.3654 111.346 76.3654 116.541C76.3654 121.736 71.8036 122.502 67.7487 122.502H66.5692V110.58H67.7487Z" fill="white"/>
<path fill-rule="evenodd" clip-rule="evenodd" d="M162.4 63.8V186.2H40V63.8H162.4ZM108.043 115.284C98.3176 115.284 91.5838 123.346 91.5838 132.751C91.5838 142.156 98.4297 150.283 108.155 150.283C111.993 150.283 116.024 148.844 118.071 145.551H118.231V149.185H129.813L129.813 116.371H118.231V119.57C115.733 116.691 111.817 115.284 108.043 115.284ZM136.512 116.598V149.071H148.093V116.598H136.512ZM54.0794 101.042V148.844H66.5692V130.45H66.6717L78.3928 148.844H93.852L78.8363 129.264C85.6155 128.06 89.2903 122.355 89.2903 115.766C89.2903 105.565 82.1309 101.042 72.6906 101.042H54.0794ZM142.295 97.6438C138.747 97.6438 135.833 100.558 135.833 104.106C135.833 107.654 138.747 110.568 142.295 110.568C145.843 110.568 148.758 107.654 148.758 104.106C148.758 100.558 145.843 97.6438 142.295 97.6438Z" fill="white"/>
<path d="M210 149.9H176.167V139.249C179.695 137.144 182.787 135.072 185.444 133.034C188.102 130.996 190.334 128.98 192.143 126.986C195.805 122.977 197.636 119.214 197.636 115.698C197.636 114.04 197.209 112.719 196.356 111.733C195.502 110.748 194.333 110.255 192.847 110.255C191.318 110.255 190.11 110.888 189.223 112.153C188.336 113.419 187.893 115.126 187.893 117.276V117.848V118.385H175.865V118.049C175.865 112.674 177.463 108.323 180.66 104.997C183.856 101.67 188.048 100.007 193.234 100.007C198.308 100.007 202.371 101.357 205.423 104.056C208.474 106.755 210 110.344 210 114.824C210 118.475 208.488 122.4 205.464 126.6C202.44 130.799 197.927 135.24 191.925 139.921H200.022V136.83H210L210 149.9Z" fill="white"/>
</svg>
