<svg width="250" height="250" viewBox="0 0 250 250" fill="none" xmlns="http://www.w3.org/2000/svg">
<rect width="250" height="250" fill="#00B46E"/>
<path d="M112.601 125.4C117.436 125.4 120.245 128.863 120.245 132.979C120.245 137.226 117.436 140.492 112.601 140.492C107.766 140.492 104.957 137.226 104.957 132.979C104.957 128.863 107.766 125.4 112.601 125.4Z" fill="white"/>
<path d="M68.3355 110.275C72.4761 110.275 77.1343 111.057 77.1343 116.362C77.1343 121.667 72.4761 122.449 68.3355 122.449H67.131V110.275H68.3355Z" fill="white"/>
<path fill-rule="evenodd" clip-rule="evenodd" d="M164.988 62.506V187.494H40V62.506H164.988ZM109.481 115.079C99.5509 115.079 92.6746 123.311 92.6746 132.915C92.6746 142.519 99.6653 150.818 109.596 150.818C113.516 150.818 117.632 149.348 119.722 145.986H119.886V149.696H131.712V116.188H119.886V119.455C117.335 116.515 113.336 115.079 109.481 115.079ZM138.553 116.42V149.58H150.379V116.42H138.553ZM54.3771 149.348H67.131V130.565H67.2357L79.2045 149.348H94.9907L79.6575 129.354C86.5801 128.125 90.3325 122.299 90.3325 115.57C90.3325 105.154 83.0217 100.536 73.3819 100.536H54.3771V149.348ZM144.458 97.0653C140.835 97.0653 137.859 100.041 137.859 103.664C137.859 107.287 140.835 110.263 144.458 110.263C148.081 110.263 151.057 107.287 151.057 103.664C151.057 100.041 148.081 97.0653 144.458 97.0653Z" fill="white"/>
<path d="M174.869 134.82H187.186V135.306C187.186 136.859 187.649 138.052 188.575 138.886C189.501 139.72 190.857 140.137 192.641 140.137C194.264 140.137 195.562 139.669 196.534 138.731C197.506 137.793 197.992 136.535 197.992 134.957C197.992 133.104 197.295 131.715 195.9 130.788C194.504 129.862 192.389 129.399 189.553 129.399H188.043H187.117V120.067L187.7 120.136H188.283C190.891 120.136 192.846 119.633 194.15 118.626C195.454 117.62 196.106 116.111 196.106 114.098C196.106 112.543 195.739 111.319 195.008 110.427C194.321 109.535 193.349 109.089 192.092 109.089C190.948 109.089 190.01 109.466 189.278 110.221C188.615 110.953 188.283 111.982 188.283 113.309V114.098H176.344V113.926C176.344 109.421 177.79 105.801 180.684 103.068C183.577 100.335 187.448 98.9681 192.297 98.9681C196.757 98.9681 200.377 100.243 203.156 102.793C205.935 105.344 207.324 108.666 207.324 112.76C207.324 115.161 206.718 117.232 205.506 118.97C204.293 120.708 202.532 122.012 200.222 122.881C203.356 123.773 205.768 125.214 207.461 127.203C209.154 129.193 210 131.607 210 134.442C210 139.291 208.382 143.248 205.146 146.313C201.909 149.378 197.718 150.91 192.572 150.91C189.781 150.91 187.311 150.565 185.161 149.877C183.011 149.188 181.153 148.137 179.586 146.724C178.019 145.311 176.842 143.611 176.053 141.624C175.264 139.638 174.869 137.369 174.869 134.82Z" fill="white"/>
</svg>
