<svg width="250" height="250" viewBox="0 0 250 250" fill="none" xmlns="http://www.w3.org/2000/svg">
<rect width="250" height="250" fill="#000099"/>
<path d="M93.8603 125.352C97.4133 125.352 99.4815 127.901 99.4815 130.922C99.4815 134.045 97.4218 136.448 93.8603 136.448C90.3074 136.448 88.2392 134.045 88.2392 130.922C88.2392 127.892 90.3074 125.352 93.8603 125.352Z" fill="white"/>
<path d="M60.9314 114.204C64.0038 114.204 67.4623 114.779 67.4623 118.718C67.4623 122.657 64.0038 123.232 60.9314 123.232H60.0217V114.204H60.9314Z" fill="white"/>
<path fill-rule="evenodd" clip-rule="evenodd" d="M132.514 171.257H40V78.7433H132.514V171.257ZM91.5604 117.757C84.2571 117.757 79.211 123.807 79.211 130.879C79.211 137.942 84.3516 144.043 91.6548 144.043C94.5384 144.043 97.5678 142.936 99.104 140.49H99.1983V143.228H107.943V118.572H99.1983V120.975C97.3704 118.812 94.3924 117.757 91.5604 117.757ZM50.6074 143.22H60.0217V129.291H60.1161L69.007 143.228H80.73L69.3417 128.373C74.4823 127.463 77.2714 123.138 77.2714 118.134C77.2714 110.394 71.8391 106.986 64.6818 106.986H50.6074V143.22ZM112.972 143.22H121.717V118.572H112.972V143.22ZM117.349 104.206C114.654 104.206 112.449 106.42 112.449 109.106C112.449 111.792 114.663 114.007 117.349 114.007C120.044 114.007 122.25 111.792 122.25 109.106C122.25 106.42 120.035 104.206 117.349 104.206Z" fill="white"/>
<path d="M155.281 136.629H159.512V133.53H143.773V126.51L158.74 106.806H168.446V126.519H173.192V133.539H168.446V136.637H171.596V143.503H155.29V136.629H155.281ZM160.13 115.423L152.441 126.519H160.13V115.423Z" fill="white"/>
<path d="M191.369 136.577V143.494H175.423V135.908H178.985V114.333H175.423V106.806H191.369V113.766H187.962V123.318L197.565 113.766H193.694V106.806H209.588V114.333H206.49L196.217 124.657L207.829 135.908H210V143.494H194.055V136.577H197.565L187.962 126.982V136.577H191.369Z" fill="white"/>
</svg>
