<svg width="250" height="250" viewBox="0 0 250 250" fill="none" xmlns="http://www.w3.org/2000/svg">
<rect width="250" height="250" fill="#9D2FE5"/>
<path d="M110.317 125.388C114.999 125.388 117.72 128.741 117.72 132.728C117.72 136.841 114.999 140.005 110.317 140.005C105.634 140.005 102.913 136.841 102.913 132.728C102.913 128.741 105.634 125.388 110.317 125.388Z" fill="white"/>
<path d="M67.4439 110.738C71.4542 110.738 75.9659 111.496 75.9659 116.634C75.9659 121.772 71.4542 122.53 67.4439 122.53H66.2773V110.738H67.4439Z" fill="white"/>
<path fill-rule="evenodd" clip-rule="evenodd" d="M161.055 64.4724V185.528H40V64.4724H161.055ZM107.295 115.391C97.6771 115.391 91.0172 123.364 91.0172 132.666C91.0172 141.968 97.7879 150.005 107.406 150.005C111.203 150.005 115.189 148.582 117.214 145.326H117.372V148.919H128.826V116.466H117.372V119.63C114.902 116.782 111.029 115.391 107.295 115.391ZM135.452 116.69V148.807H146.906V116.69H135.452ZM53.9247 148.582H66.2773V130.39H66.3787L77.9709 148.582H93.2604L78.4097 129.217C85.1144 128.026 88.7488 122.384 88.7488 115.867C88.7488 105.779 81.6681 101.306 72.3315 101.306H53.9247V148.582ZM141.172 97.9443C137.663 97.9444 134.78 100.827 134.78 104.336C134.78 107.845 137.663 110.727 141.172 110.727C144.681 110.727 147.563 107.845 147.563 104.336C147.563 100.827 144.681 97.9443 141.172 97.9443Z" fill="white"/>
<path d="M186.408 149.514V140.476H191.99V136.389H171.223V127.118L190.96 101.134H203.753V127.118H210V136.389H203.753V140.476H207.907V149.514H186.408ZM192.788 127.118V112.498L182.653 127.118H192.788Z" fill="white"/>
</svg>
