<svg width="250" height="250" viewBox="0 0 250 250" fill="none" xmlns="http://www.w3.org/2000/svg">
<rect width="250" height="250" fill="#59662B"/>
<path d="M110.268 125.388C114.947 125.388 117.666 128.739 117.666 132.723C117.666 136.833 114.947 139.994 110.268 139.994C105.588 139.994 102.869 136.833 102.869 132.723C102.869 128.739 105.588 125.388 110.268 125.388Z" fill="white"/>
<path d="M67.4247 110.748C71.4322 110.748 75.9408 111.505 75.9408 116.64C75.9408 121.774 71.4322 122.531 67.4247 122.531H66.2589V110.748H67.4247Z" fill="white"/>
<path fill-rule="evenodd" clip-rule="evenodd" d="M160.971 64.5146V185.485H40V64.5146H160.971ZM107.248 115.397C97.6368 115.397 90.9816 123.365 90.9816 132.661C90.9816 141.956 97.7475 149.988 107.359 149.988C111.153 149.988 115.137 148.566 117.16 145.311H117.318V148.902H128.764V116.471H117.318V119.633C114.849 116.788 110.979 115.397 107.248 115.397ZM135.385 116.696V148.79H146.831V116.696H135.385ZM53.915 148.566H66.2589V130.386H66.3603L77.9444 148.566H93.2232L78.3828 129.214C85.0829 128.024 88.7147 122.386 88.7147 115.874C88.7147 105.792 81.6389 101.322 72.3089 101.322H53.915V148.566ZM141.101 97.9632C137.594 97.9632 134.714 100.843 134.714 104.35C134.714 107.857 137.594 110.737 141.101 110.737C144.608 110.737 147.488 107.857 147.488 104.35C147.488 100.844 144.607 97.9632 141.101 97.9632Z" fill="white"/>
<path d="M173.209 136.588H185.661C186.192 137.518 186.944 138.26 187.919 138.813C188.893 139.367 189.911 139.643 190.974 139.643C193.01 139.643 194.687 139.007 196.004 137.734C197.321 136.461 197.98 134.806 197.98 132.77C197.98 130.999 197.338 129.505 196.054 128.287C194.77 127.07 193.209 126.461 191.372 126.461C189.845 126.461 188.544 126.821 187.471 127.54C186.396 128.259 185.528 129.394 184.864 130.943L175.068 128.221L179.485 101.158H205.982V110.821H188.782L187.288 118.159C188.262 117.606 189.335 117.163 190.509 116.831C191.682 116.499 192.877 116.333 194.095 116.333C198.788 116.333 202.612 117.883 205.567 120.982C208.522 124.081 210 128.099 210 133.035C210 138.149 208.29 142.333 204.87 145.587C201.45 148.841 196.994 150.468 191.505 150.468C186.568 150.468 182.556 149.289 179.468 146.932C176.38 144.574 174.293 141.126 173.209 136.588Z" fill="white"/>
</svg>
