<svg width="250" height="250" viewBox="0 0 250 250" fill="none" xmlns="http://www.w3.org/2000/svg">
<rect width="250" height="250" fill="#0F2D70"/>
<path d="M90.2896 139.991L85.9258 135.533C88.3488 128.805 92.5126 122.853 98.4526 117.749L102.369 121.807C96.7118 126.441 92.3009 132.769 90.2896 140.003M131.987 137.733L161.134 167.868C159.51 170.596 157.476 173.278 155.064 176.183L162.38 183.464C157.546 188.722 151.665 193.027 145.043 195.968L132.763 183.429C140.82 181.559 147.783 176.936 153.135 170.385L144.808 161.975C140.362 167.279 133.528 172.231 126.282 172.69V168.773H136.692V158.375H126.282V156.235H136.821V146.566H115.096V165.35L100.582 150.506C100.558 150.012 100.558 149.507 100.558 149.013C100.734 140.779 104.64 134.086 110.191 129.817L123.836 143.896L125.024 145.084L131.987 137.733ZM132.128 124.124C129.705 123.536 127.329 123.03 124.824 122.947C122.318 122.853 119.86 123.359 117.437 123.912L124.341 131.04L125.094 131.546L132.116 124.124H132.128ZM175.342 149.577C175.342 161.857 170.967 173.066 163.616 181.818L157.852 176.054C164.051 168.526 168.073 161.069 168.073 149.119C168.073 136.556 161.487 122.254 150.959 114.973L144.208 121.877C147.795 124.571 150.665 127.382 153.053 131.193L147.348 136.121C145.266 132.381 142.538 129.687 139.021 127.3L124.988 142.12L110.438 127.1C103.028 132.263 98.6996 139.803 98.4996 148.966C98.2644 161.081 106.075 169.808 117.155 173.502V148.625H134.763V154.165H124.224V160.422H134.633V166.691H124.224V174.713C131.81 175.101 140.091 170.444 144.925 165.009L150.359 170.502C143.831 178.171 134.21 182.229 124.224 182.288V189.981H117.155V181.441C101.922 177.654 90.96 164.139 91.16 148.26C91.3011 137.427 97.0411 128.346 105.439 122.018L98.5937 114.937C87.6666 123.877 81.809 134.921 81.3149 149.095C80.9268 161.857 87.6078 172.067 91.701 176.242L86.6315 181.418C79.0919 172.69 74.6457 161.916 74.6457 149.577C74.6457 130.946 84.9495 114.549 100.123 105.845L112.003 118.254C116.072 116.643 120.401 115.808 125.047 115.808C129.493 115.867 133.422 116.666 137.562 118.243L138.162 117.643L149.724 105.704C165.027 114.408 175.342 130.805 175.342 149.565V149.577ZM125 89.7191C158.134 89.7191 185.105 116.749 185.105 149.895C185.105 182.97 158.134 210 125 210C91.8657 210 64.8948 182.97 64.8948 149.895C64.8948 116.761 91.8657 89.7191 125 89.7191ZM125 96.8353C95.8178 96.8353 71.9404 120.642 71.9404 149.895C71.9404 179.077 95.8061 202.943 125 202.943C154.194 202.943 178.06 179.077 178.06 149.895C178.06 120.642 154.194 96.8353 125 96.8353ZM153.665 89.2486L154.147 91.2129L152.183 92.3068C152.5 92.495 152.618 92.8949 152.465 93.236C152.288 93.6006 151.9 93.7888 151.524 93.6242C143.467 89.825 134.516 87.7313 125.012 87.7313C115.52 87.7313 106.557 89.825 98.4996 93.6242C98.1232 93.8006 97.7351 93.6124 97.5586 93.236C97.4057 92.8949 97.5351 92.495 97.8409 92.3068L95.8766 91.2129L96.3589 89.2486C96.0766 89.3074 95.7708 89.1663 95.6414 88.8957C95.4885 88.5781 95.5826 88.2018 95.9002 88.0488C104.745 83.885 114.59 81.5561 125.012 81.5561C135.445 81.5561 145.278 83.8732 154.123 88.0488C154.441 88.2018 154.535 88.5781 154.382 88.8957C154.253 89.1663 153.947 89.3074 153.665 89.2486ZM127.494 69.4527C127.494 68.0765 126.376 66.9709 125 66.9709C123.624 66.9709 122.518 68.0883 122.518 69.4527C122.518 70.8171 123.636 71.9463 125 71.9463C126.364 71.9463 127.494 70.8289 127.494 69.4527ZM107.721 71.3229C107.38 69.9938 106.016 69.1939 104.687 69.535C103.357 69.8761 102.558 71.2288 102.899 72.5697C103.24 73.8988 104.592 74.6987 105.933 74.3576C107.263 74.0165 108.062 72.6638 107.721 71.3229ZM90.8777 78.5214C90.219 77.3217 88.7017 76.8747 87.5019 77.5451C86.3022 78.2038 85.8552 79.7212 86.5256 80.9209C87.1961 82.1207 88.7016 82.5676 89.9132 81.8972C91.1129 81.2385 91.5599 79.7212 90.8894 78.5214H90.8777ZM142.279 71.3229C141.938 72.652 142.737 74.0047 144.067 74.3576C145.396 74.6987 146.748 73.8988 147.101 72.5697C147.442 71.2406 146.643 69.8879 145.313 69.535C143.984 69.1939 142.62 69.9938 142.291 71.3229H142.279ZM159.487 78.7567C158.817 79.9564 159.263 81.4737 160.463 82.1324C161.663 82.7911 163.18 82.3559 163.839 81.1562C164.498 79.9564 164.062 78.4391 162.863 77.7804C161.663 77.1217 160.146 77.5569 159.487 78.7567ZM148.83 80.6974C150.606 81.3208 152.335 82.0148 154.041 82.7676C153.382 82.0619 152.924 81.1679 152.759 80.2387C152.077 80.0976 151.771 79.9446 151.512 79.7447C150.748 80.3093 149.807 80.6504 148.83 80.7092V80.6974ZM122.377 76.6865C123.247 76.6512 124.118 76.6395 125 76.6395C125.882 76.6395 126.753 76.6512 127.623 76.6865C126.235 76.0278 125.223 74.6987 125 73.1108C124.777 74.6869 123.765 76.0161 122.377 76.6865ZM106.263 75.4867C106.439 77.0629 105.804 78.5802 104.64 79.5683C106.286 79.086 107.956 78.6508 109.65 78.2862C108.156 77.9804 106.863 76.9453 106.251 75.4867H106.263ZM118.813 76.91C117.731 76.5571 116.79 75.8514 116.167 74.9339C115.92 75.0045 115.673 75.0398 115.402 75.0398C114.896 76.0749 114.167 76.9923 113.202 77.604C115.049 77.2981 116.919 77.0629 118.801 76.8982L118.813 76.91ZM136.798 77.604C135.845 76.9923 135.104 76.0749 134.739 75.0398C134.339 75.0398 134.092 75.0045 133.845 74.9339C133.222 75.8514 132.281 76.5571 131.199 76.91C133.081 77.0747 134.963 77.3099 136.798 77.6157V77.604ZM143.737 75.4867C143.137 76.9453 141.844 77.9804 140.338 78.2862C142.032 78.6508 143.702 79.086 145.349 79.5683C144.196 78.5802 143.561 77.0629 143.726 75.4867H143.737ZM101.17 80.6974C100.193 80.6386 99.2642 80.2975 98.4996 79.7329C98.2291 79.9329 97.9233 80.0858 97.5822 80.1681C97.0764 81.1562 96.6176 82.0501 95.959 82.7676C97.6645 82.0148 99.4053 81.3208 101.17 80.6974ZM142.196 62.1483C139.773 56.6789 134.539 52.8679 127.705 53.2443C127.717 53.9853 127.576 54.4205 127.329 54.7852V56.8788C127.576 57.2435 127.729 57.6787 127.729 58.1609C127.729 58.6314 127.588 59.0784 127.329 59.443V59.9606C128.834 59.6077 130.34 59.4077 131.987 59.4077C135.739 59.4077 139.244 60.4075 142.196 62.1601V62.1483ZM127.717 62.807C127.717 63.7362 127.164 64.5361 126.364 64.889C127.494 65.0771 127.917 65.677 128.176 67.0885C129.881 67.4296 130.34 68.5941 130.34 69.982C130.34 71.6287 129.693 72.9579 127.129 72.9814C127.329 74.1929 128.376 75.1221 129.646 75.1221C130.799 75.1221 131.775 74.3576 132.093 73.3107C132.022 73.0755 131.975 72.8285 131.975 72.5579C131.975 71.1112 133.139 69.9467 134.586 69.9467C136.033 69.9467 137.197 71.1112 137.197 72.5579C137.197 73.0402 137.068 73.4754 136.845 73.8636C136.868 74.981 137.621 75.9808 138.762 76.2748C139.985 76.5924 141.232 75.9572 141.726 74.8281C139.244 74.1694 138.95 72.7226 139.362 71.123C139.703 69.7703 140.444 68.7587 142.185 68.8528C142.538 68.1 143.02 67.6648 143.584 67.4414C143.537 66.9591 143.467 66.4886 143.384 66.0299C140.432 63.454 136.409 61.8425 131.987 61.8425C130.481 61.8425 129.105 62.019 127.682 62.3836L127.717 62.807ZM100.064 66.171C100.193 65.0536 101.029 64.1597 102.111 63.9244C101.499 63.454 101.111 62.7129 101.111 61.8778C97.147 63.5951 94.7004 65.6535 93.2184 68.4059C92.6538 69.7938 92.5361 70.1232 92.3244 70.7348C94.1829 68.6411 96.747 67.112 99.8523 66.5945L100.076 66.1593L100.064 66.171ZM91.7834 76.6983C92.3244 77.0864 92.7126 77.7333 92.9713 78.4156C93.5124 79.827 93.4418 81.1914 91.5716 82.1207C92.2421 82.3677 93.0066 82.3324 93.6888 81.9678C94.6063 81.462 95.0886 80.4622 94.9945 79.4859C94.7239 79.1801 94.524 78.8155 94.4181 78.4038C94.0535 77.0041 94.9004 75.5808 96.3001 75.228C97.6998 74.8633 99.123 75.7102 99.4759 77.1099C99.5229 77.2864 99.5465 77.4746 99.5582 77.651C100.158 78.4508 101.205 78.8508 102.24 78.592C103.463 78.2744 104.251 77.1217 104.145 75.8984C101.664 76.5218 100.699 75.3927 100.287 73.793C99.9464 72.4403 100.099 71.1935 101.664 70.4407C101.628 69.8409 101.722 69.3586 101.922 68.9587C96.5706 69.0763 92.9713 72.5579 91.7951 76.71L91.7834 76.6983ZM95.7237 86.2022C94.9945 86.5433 94.1711 86.2139 93.83 85.4847C93.6418 85.073 93.6536 84.6143 93.83 84.2379C92.3597 84.6848 90.7718 84.379 89.5838 83.4616C88.2429 84.3673 86.855 83.9321 85.8199 83.1205C84.726 82.2618 83.785 80.2387 85.1142 79.1213C84.0908 77.7804 84.3496 76.0631 85.5964 75.275C85.3729 74.8986 85.2435 74.4517 85.2435 73.9694C85.2435 72.7226 86.1257 71.6758 87.3019 71.4288C86.6903 70.9583 86.3021 70.2173 86.3021 69.3821C86.3021 68.0295 87.3372 66.9238 88.6546 66.7944C88.3841 66.3828 88.2194 65.8887 88.2194 65.3594C88.2194 63.9244 89.3839 62.76 90.8189 62.76C91.0541 62.76 91.2776 62.7953 91.5011 62.8541C91.3482 62.5247 91.2658 62.1601 91.2658 61.7837C91.2658 60.3487 92.4303 59.1843 93.8653 59.1843C94.2887 59.1843 94.6886 59.2901 95.0415 59.4665C95.0062 57.6316 96.1707 56.4672 97.6057 56.4672C98.1585 56.4672 98.6761 56.6436 99.0995 56.9377C99.3465 55.7732 100.393 54.891 101.64 54.891C102.558 54.891 103.357 55.3733 103.828 56.0908C104.298 55.5732 104.981 55.2439 105.745 55.2439C105.945 55.2439 106.145 55.2674 106.333 55.3145C106.216 55.0204 106.157 54.7146 106.157 54.3853C106.157 52.9503 107.321 51.7858 108.756 51.7858C109.262 51.7858 109.733 51.9387 110.132 52.1857C110.097 50.339 111.262 49.1746 112.685 49.1746C113.261 49.1746 113.802 49.3745 114.238 49.6921C114.496 48.5276 115.531 47.6572 116.766 47.6572C117.484 47.6572 118.131 47.9513 118.601 48.4218C119.013 47.5396 119.907 46.928 120.954 46.928C121.248 46.928 121.53 46.975 121.801 47.0691C122.259 46.5398 122.848 46.1399 123.506 45.8811L123.977 43.7522H122.024V41.7643H123.977V40H126.07V41.7643H128.035V43.7522H126.07V45.7282C127.2 46.1281 127.788 46.5398 128.246 47.0691C128.517 46.975 128.787 46.928 129.093 46.928C130.128 46.928 131.034 47.5396 131.446 48.4218C131.916 47.9513 132.563 47.6572 133.281 47.6572C134.527 47.6572 135.563 48.5276 135.81 49.6921C136.245 49.3745 136.774 49.1746 137.362 49.1746C138.797 49.1746 139.962 50.339 139.962 51.774C140.326 51.9387 140.797 51.7976 141.302 51.7976C142.737 51.7976 143.902 52.962 143.902 54.397C143.902 54.7264 143.843 55.0439 143.726 55.3262C143.914 55.2792 144.114 55.2557 144.314 55.2557C145.078 55.2557 145.76 55.585 146.231 56.1025C146.69 55.385 147.501 54.9028 148.419 54.9028C149.665 54.9028 150.701 55.7732 150.959 56.9494C151.383 56.6554 151.889 56.4789 152.441 56.4789C153.876 56.4789 155.041 57.6434 155.041 59.0784C155.358 59.3019 155.758 59.196 156.182 59.196C157.617 59.196 158.781 60.3605 158.781 61.7955C158.781 62.1836 158.699 62.5483 158.546 62.8658C158.758 62.807 158.993 62.7717 159.228 62.7717C160.663 62.7717 161.828 63.9362 161.828 65.3712C161.828 65.9005 161.663 66.3945 161.392 66.8062C162.71 66.9356 163.745 68.0412 163.745 69.3939C163.745 70.229 163.357 70.9583 162.745 71.4405C163.921 71.6875 164.803 72.7344 164.803 73.9812C164.803 74.4634 164.674 74.8986 164.451 75.2868C165.697 76.0749 165.968 77.7921 164.933 79.133C166.262 80.2505 165.333 82.2736 164.239 83.1322C163.204 83.9438 161.804 84.3673 160.475 83.4733C159.287 84.3908 157.699 84.6966 156.217 84.2496C156.393 84.626 156.417 85.0848 156.217 85.4964C155.876 86.2257 155.006 86.5433 154.265 86.2022C145.466 82.0383 135.527 79.6976 125.035 79.6976C114.543 79.6976 104.663 82.0266 95.759 86.2257L95.7237 86.2022ZM107.851 62.0778C111.038 60.3134 114.39 59.396 117.99 59.396C119.636 59.396 121.154 59.5959 122.671 59.9488V59.4195C122.424 59.0549 122.271 58.6197 122.271 58.1374C122.271 57.6669 122.424 57.22 122.671 56.8553V54.7616C122.424 54.397 122.271 53.9618 122.271 53.4796C115.555 52.8562 110.309 56.6201 107.851 62.0542V62.0778ZM106.616 65.9946C106.521 66.4651 106.451 66.9473 106.404 67.4414C106.968 67.6648 107.451 68.1 107.804 68.8528C109.544 68.7587 110.274 69.7703 110.627 71.123C111.038 72.7109 110.744 74.1694 108.262 74.8281C108.756 75.9455 110.003 76.5806 111.226 76.2748C112.356 75.9808 113.12 74.981 113.144 73.8636C112.92 73.4754 112.791 73.0402 112.791 72.5579C112.791 71.1112 113.955 69.9467 115.402 69.9467C116.849 69.9467 118.013 71.1112 118.013 72.5579C118.013 72.8167 117.978 73.0637 117.907 73.3107C118.225 74.3576 119.189 75.1221 120.354 75.1221C121.624 75.1221 122.671 74.1929 122.871 72.9814C120.307 72.9579 119.66 71.6287 119.66 69.982C119.66 68.5941 120.119 67.4178 121.824 67.0885C122.095 65.6653 122.506 65.0654 123.624 64.889C122.824 64.5361 122.271 63.7362 122.271 62.807C120.883 62.0307 119.507 61.8543 117.99 61.8543C113.579 61.8543 109.58 63.4422 106.627 66.0064L106.616 65.9946ZM156.664 68.2059C155.17 65.5594 152.747 63.5598 148.877 61.5955C148.877 62.7129 148.489 63.4422 147.889 63.9244C148.971 64.1479 149.807 65.0419 149.936 66.1593C150.183 66.1593 150.277 66.3945 150.277 66.6768C153.406 67.1944 155.982 68.7587 157.852 70.8877C157.57 69.982 157.182 69.0763 156.664 68.2059ZM148.136 68.9352C148.289 69.3468 148.395 69.8409 148.348 70.4407C149.912 71.1935 150.077 72.4403 149.724 73.793C149.313 75.3809 148.36 76.5101 145.866 75.8984C145.76 77.1217 146.537 78.2744 147.772 78.592C148.807 78.8625 149.842 78.4508 150.454 77.651C150.454 77.4746 150.489 77.2864 150.524 77.1099C150.889 75.7102 152.312 74.8751 153.7 75.228C155.1 75.5808 155.947 77.0041 155.582 78.4038C155.476 78.8155 155.276 79.1919 155.006 79.4859C154.911 80.4739 155.394 81.462 156.311 81.9678C156.982 82.3324 157.746 82.3677 158.417 82.1207C156.546 81.1914 156.476 79.827 157.017 78.4156C157.287 77.6981 157.687 77.0158 158.275 76.6395C157.04 72.4638 153.359 69.0057 148.125 68.9234L148.136 68.9352Z" fill="white"/>
</svg>
