<svg width="250" height="250" viewBox="0 0 250 250" fill="none" xmlns="http://www.w3.org/2000/svg">
<rect width="250" height="250" fill="#242424"/>
<path d="M129.284 138.542H119.863L119.274 137.953V128.532L119.863 127.943H129.284C133.404 127.943 135.171 129.71 135.171 133.241C135.171 136.772 133.404 138.539 129.284 138.539M119.274 112.047L119.863 111.458H129.284C132.815 111.458 133.993 113.225 133.993 116.167C133.993 118.523 132.815 120.875 129.284 120.875H119.863L119.274 120.286V112.054V112.047ZM136.345 124.409V123.82C140.465 122.642 142.232 119.112 142.232 114.988C142.232 107.335 136.345 104.393 130.459 104.393H111.621L111.032 104.982V145.018L111.621 145.607H131.637C137.523 145.607 143.41 142.662 143.41 134.423C143.41 129.121 141.058 125.591 136.345 124.413M148.039 104.4L147.45 104.989V145.018L148.039 145.607H175.709L176.298 145.018V139.131L175.709 138.542H156.282L155.693 137.953V128.532L156.282 127.943H174.531L175.12 127.354V121.468L174.531 120.879H156.282L155.693 120.29V112.054L156.282 111.465H175.709L176.298 110.876V104.989L175.709 104.4H148.039ZM78.6532 104.4L78.0642 104.989V145.018L78.6532 145.607H106.32L106.909 145.018V139.131L106.32 138.542H86.896L86.3069 137.953V128.532L86.896 127.943H105.145L105.734 127.354V121.468L105.145 120.879H86.896L86.3069 120.29V112.054L86.896 111.465H106.32L106.909 110.876V104.989L106.32 104.4H78.6532ZM60.0161 122.06H48.8283L48.2393 121.471V112.054L48.8283 111.465H60.0161C63.5502 111.465 65.9028 112.643 65.9028 116.762C65.9028 120.882 63.5467 122.06 60.0161 122.06ZM74.1455 116.762C74.1455 108.52 68.2554 104.4 60.0161 104.4H40.589L40 104.989V145.018L40.589 145.607H47.6537L48.2427 145.018V129.71L48.8318 129.121H54.7184L55.8965 129.71L67.6698 145.018L68.8479 145.607H72.3785L72.9675 145.018V139.131L65.3138 129.121V128.532C70.0259 127.354 74.1455 123.235 74.1455 116.759M209.418 122.036H205.884L204.706 122.625L192.932 137.932L191.754 138.521H189.27L189.236 138.49L188.678 137.912V104.989L188.089 104.4H181.024L180.435 104.989V145.018L181.024 145.607H195.611H197.049C198.178 144.477 210 128.515 210 128.515V122.628L209.411 122.039L209.418 122.036Z" fill="white"/>
</svg>
