<svg width="250" height="250" viewBox="0 0 250 250" fill="none" xmlns="http://www.w3.org/2000/svg">
<rect width="250" height="250" fill="#C2C2C2"/>
<path d="M204.379 127.09C203.402 127.09 202.426 127.09 201.458 127.09C200.927 127.09 200.773 127.278 200.782 127.783C200.782 129.496 200.782 131.209 200.782 132.922C200.806 133.281 200.753 133.641 200.626 133.978C200.499 134.315 200.302 134.62 200.047 134.874C199.792 135.128 199.486 135.325 199.149 135.451C198.812 135.576 198.451 135.628 198.092 135.603C197.657 135.639 197.218 135.61 196.791 135.517C196.224 135.378 195.723 135.045 195.376 134.576C195.029 134.107 194.857 133.531 194.889 132.948C194.889 131.235 194.889 129.522 194.889 127.809C194.889 127.252 194.735 127.047 194.153 127.055C192.243 127.055 190.333 127.055 188.423 127.055C187.876 127.082 187.334 126.937 186.874 126.64C186.413 126.344 186.056 125.911 185.854 125.402C185.636 124.837 185.595 124.219 185.737 123.629C185.879 123.04 186.198 122.509 186.65 122.105C187.271 121.64 188.034 121.404 188.809 121.437H193.947C194.881 121.437 194.889 121.437 194.889 120.521C194.889 118.911 194.889 117.292 194.889 115.673C194.852 115.309 194.897 114.94 195.019 114.595C195.141 114.25 195.338 113.935 195.596 113.675C195.854 113.415 196.166 113.215 196.51 113.089C196.854 112.964 197.222 112.916 197.587 112.95C198.085 112.914 198.586 112.96 199.069 113.087C199.581 113.202 200.035 113.497 200.35 113.918C200.664 114.339 200.817 114.858 200.782 115.382C200.782 117.146 200.782 118.911 200.782 120.675C200.782 121.274 200.987 121.463 201.578 121.446C203.291 121.446 205.004 121.446 206.717 121.446C207.07 121.443 207.423 121.474 207.77 121.54C208.447 121.646 209.055 122.011 209.468 122.557C209.88 123.104 210.064 123.789 209.98 124.469C209.98 124.811 209.912 125.151 209.779 125.466C209.646 125.782 209.451 126.068 209.206 126.307C208.961 126.547 208.671 126.735 208.352 126.86C208.034 126.986 207.693 127.046 207.351 127.038C206.383 127.038 205.407 127.038 204.43 127.038L204.379 127.09Z" fill="#F7BE14"/>
<path d="M90.1281 114.371H94.5474C94.8276 114.332 95.1131 114.355 95.3835 114.439C95.6539 114.522 95.9026 114.664 96.1119 114.855C96.3212 115.045 96.486 115.279 96.5945 115.541C96.7031 115.802 96.7527 116.084 96.7399 116.367C96.8469 118.19 96.8469 120.017 96.7399 121.84C96.7399 122.122 96.7399 122.413 96.7399 122.696C96.7399 127.321 96.7399 131.954 96.7399 136.579C96.7399 141.067 93.5453 144.013 89.186 144.116C86.8478 144.176 84.5012 144.116 82.1545 144.116C81.9212 144.125 81.6886 144.085 81.472 143.998C81.2554 143.91 81.0598 143.778 80.8979 143.61C80.7361 143.442 80.6118 143.241 80.5331 143.021C80.4544 142.801 80.4233 142.567 80.4416 142.335C80.4235 142.105 80.4555 141.874 80.5352 141.658C80.6149 141.442 80.7405 141.246 80.9033 141.083C81.0661 140.92 81.2622 140.795 81.4782 140.715C81.6942 140.636 81.925 140.604 82.1545 140.622C84.1243 140.622 86.0942 140.622 88.064 140.622C88.6033 140.622 89.1417 140.579 89.6741 140.493C90.5961 140.395 91.4481 139.956 92.0629 139.262C92.6777 138.568 93.0109 137.669 92.9972 136.742C93.0486 134.678 93.2199 135.029 91.3785 135.029C89.5371 135.029 87.5244 135.08 85.5974 135.029C83.6359 135.047 81.7429 134.308 80.3131 132.965C79.6008 132.273 79.0368 131.442 78.6554 130.525C78.2741 129.608 78.0834 128.623 78.0949 127.629C78.0264 125.642 78.0949 123.647 78.0949 121.634C78.0888 119.965 78.6657 118.347 79.7259 117.059C80.7861 115.77 82.2631 114.892 83.9017 114.577C85.3779 114.355 86.8724 114.277 88.3638 114.346C88.9633 114.354 89.5457 114.371 90.1281 114.371ZM92.9287 124.649C92.9287 122.619 92.9287 120.589 92.9287 118.551C92.9287 118.011 92.7317 117.814 92.2007 117.84C91.3442 117.84 90.4193 117.84 89.52 117.84C88.0916 117.791 86.6616 117.829 85.2377 117.951C84.4155 118.046 83.6479 118.411 83.0557 118.989C82.4635 119.568 82.0802 120.326 81.9661 121.146C81.7178 123.29 81.7005 125.455 81.9147 127.604C82.1374 130.019 83.2764 131.029 85.6745 131.295C87.8242 131.526 89.9568 131.295 92.1407 131.406C92.7317 131.406 92.9372 131.218 92.9287 130.618C92.9115 128.683 92.9287 126.661 92.9287 124.666V124.649Z" fill="white"/>
<path d="M178.103 126.456V136.733C178.162 138.39 177.635 140.014 176.613 141.32C175.591 142.625 174.141 143.527 172.519 143.868C171.755 144.06 170.969 144.155 170.181 144.15C167.963 144.15 165.744 144.15 163.526 144.15C162.438 144.15 161.813 143.474 161.813 142.3C161.798 142.074 161.833 141.848 161.914 141.637C161.996 141.426 162.123 141.236 162.286 141.079C162.45 140.922 162.645 140.803 162.859 140.73C163.074 140.657 163.301 140.632 163.526 140.656H169.624C170.266 140.671 170.907 140.59 171.525 140.416C172.364 140.187 173.101 139.68 173.616 138.979C174.131 138.278 174.393 137.423 174.36 136.553C174.36 134.841 174.506 135.072 172.939 135.063C171.011 135.063 169.076 135.123 167.149 135.063C164.511 134.952 162.259 134.01 160.794 131.637C160.069 130.439 159.69 129.064 159.698 127.663C159.655 123.698 159.698 119.741 159.698 115.776C159.639 115.407 159.717 115.029 159.918 114.714C160.118 114.398 160.427 114.167 160.785 114.063C161.211 113.919 161.67 113.906 162.104 114.025C162.537 114.144 162.925 114.39 163.218 114.731C163.393 115.04 163.468 115.397 163.432 115.75V126.884C163.415 127.55 163.516 128.215 163.732 128.845C164.024 129.632 164.559 130.306 165.26 130.768C165.96 131.23 166.79 131.456 167.628 131.415C169.641 131.415 171.654 131.415 173.666 131.415C174.266 131.415 174.403 131.175 174.394 130.635C174.394 125.736 174.394 120.84 174.394 115.947C174.348 115.652 174.378 115.351 174.48 115.071C174.582 114.79 174.754 114.54 174.979 114.345C175.204 114.149 175.475 114.013 175.767 113.95C176.058 113.888 176.361 113.9 176.647 113.986C176.858 113.996 177.065 114.05 177.254 114.143C177.444 114.236 177.613 114.366 177.751 114.526C177.889 114.687 177.992 114.873 178.056 115.075C178.119 115.276 178.141 115.489 178.12 115.699C178.114 119.285 178.109 122.87 178.103 126.456Z" fill="white"/>
<path d="M66.6785 126.567C64.8115 126.567 62.9444 126.567 61.0773 126.567C60.4692 126.567 60.2894 126.781 60.298 127.372C60.2844 127.934 60.3867 128.492 60.5983 129.013C60.81 129.533 61.1265 130.005 61.5282 130.398C61.9299 130.791 62.4082 131.097 62.9332 131.297C63.4583 131.497 64.0189 131.586 64.5802 131.56C66.6785 131.56 68.7683 131.56 70.8666 131.56C71.1848 131.532 71.5047 131.593 71.79 131.736C72.0754 131.88 72.3149 132.101 72.4815 132.373C72.6481 132.646 72.7352 132.96 72.7328 133.279C72.7304 133.599 72.6388 133.911 72.4681 134.181C72.3815 134.42 72.2266 134.629 72.0227 134.781C71.8187 134.934 71.5746 135.023 71.3205 135.038C68.4599 135.038 65.5823 135.303 62.756 134.901C61.0379 134.662 59.4665 133.803 58.3383 132.486C57.2102 131.168 56.6033 129.483 56.6323 127.749C56.6323 125.814 56.6323 123.884 56.6323 121.96C56.6435 119.961 57.44 118.047 58.8501 116.63C60.2601 115.214 62.1706 114.409 64.1691 114.388C65.5369 114.289 66.9112 114.326 68.2715 114.5C70.065 114.783 71.6935 115.711 72.851 117.11C74.0086 118.508 74.6156 120.282 74.5579 122.097C74.5579 122.867 74.5579 123.63 74.5579 124.4C74.5917 124.693 74.5593 124.989 74.4631 125.267C74.3668 125.545 74.2092 125.798 74.0019 126.007C73.7946 126.216 73.543 126.376 73.2656 126.474C72.9882 126.573 72.6923 126.607 72.3996 126.576C70.5154 126.576 68.6227 126.576 66.7385 126.576L66.6785 126.567ZM65.4966 123.458H69.2821C70.9094 123.458 70.8152 123.732 70.7467 121.9C70.7831 121.207 70.6118 120.518 70.2547 119.923C69.8977 119.328 69.3712 118.853 68.7426 118.559C67.784 118.131 66.7486 117.902 65.699 117.886C64.6494 117.87 63.6074 118.067 62.6361 118.465C60.7519 119.21 60.298 120.889 60.298 122.747C60.298 123.296 60.4864 123.475 61.0174 123.467C62.5076 123.441 64.0064 123.458 65.4966 123.458Z" fill="white"/>
<path d="M133.019 124.983C132.95 126.036 133.113 127.321 132.925 128.606C132.359 132.614 129.345 134.892 125.482 135.029C123.929 135.142 122.369 135.104 120.823 134.918C119.087 134.671 117.5 133.804 116.355 132.476C115.21 131.148 114.585 129.451 114.597 127.698C114.597 125.745 114.597 123.792 114.597 121.84C114.559 119.924 115.272 118.071 116.582 116.674C117.893 115.277 119.697 114.447 121.611 114.363C123.488 114.129 125.39 114.192 127.246 114.551C128.917 114.877 130.417 115.788 131.475 117.121C132.533 118.454 133.081 120.121 133.019 121.822C133.027 122.799 133.019 123.775 133.019 124.983ZM118.348 124.4C118.348 125.582 118.348 126.499 118.348 127.407C118.425 130.053 119.967 131.552 122.63 131.569C123.581 131.569 124.54 131.569 125.491 131.569C126.406 131.571 127.29 131.236 127.974 130.628C128.658 130.019 129.094 129.181 129.199 128.272C129.443 126.023 129.443 123.754 129.199 121.506C128.968 119.219 127.769 118.08 125.456 117.806C124.345 117.66 123.219 117.66 122.108 117.806C119.83 118.131 118.75 119.219 118.408 121.506C118.33 122.468 118.31 123.435 118.348 124.4Z" fill="white"/>
<path d="M137.25 125.017V116.555C137.25 114.988 137.978 114.251 139.528 114.251C142.372 114.251 145.215 114.2 148.093 114.251C149.124 114.219 150.152 114.392 151.116 114.759C152.081 115.127 152.963 115.682 153.711 116.393C154.36 117.055 154.871 117.84 155.213 118.701C155.556 119.563 155.724 120.484 155.707 121.411C155.766 125.497 155.707 129.582 155.707 133.667C155.707 134.789 155.141 135.277 153.891 135.277C152.64 135.277 152.092 134.781 152.092 133.667C152.092 130.241 152.092 126.838 152.092 123.458C152.104 122.713 152.055 121.969 151.947 121.232C151.873 120.534 151.596 119.874 151.15 119.334C150.703 118.793 150.108 118.396 149.437 118.191C148.748 117.958 148.024 117.842 147.296 117.849H141.815C141.044 117.849 141.018 117.849 141.01 118.654C141.01 123.57 141.01 128.486 141.01 133.402C141.01 134.113 140.907 134.763 140.196 135.072C139.832 135.253 139.427 135.335 139.022 135.311C138.616 135.287 138.224 135.157 137.884 134.935C137.669 134.787 137.497 134.585 137.387 134.348C137.277 134.111 137.233 133.85 137.259 133.59C137.259 130.747 137.25 127.878 137.25 125.017Z" fill="white"/>
<path d="M43.7341 126.208C43.7341 128.648 43.7341 131.098 43.7341 133.547C43.7553 133.784 43.7232 134.022 43.6401 134.244C43.5571 134.466 43.4252 134.667 43.2542 134.831C43.0832 134.995 42.8775 135.119 42.6523 135.194C42.427 135.268 42.1879 135.291 41.9527 135.26C40.5824 135.26 40 134.746 40 133.496V117.095C40.0029 116.68 40.0488 116.267 40.137 115.862C40.1926 115.432 40.4092 115.039 40.7429 114.762C41.0767 114.486 41.5029 114.346 41.9356 114.371C44.1966 114.371 46.4662 114.243 48.7187 114.371C49.8799 114.397 51.012 114.739 51.9931 115.361C52.9741 115.983 53.7668 116.861 54.2856 117.9C54.4426 118.155 54.5379 118.442 54.5638 118.74C54.5897 119.039 54.5456 119.339 54.4349 119.616C54.3242 119.894 54.1501 120.143 53.9264 120.341C53.7027 120.54 53.4356 120.683 53.1465 120.76C52.8374 120.895 52.4912 120.917 52.1676 120.823C51.8439 120.729 51.5632 120.525 51.3737 120.247C51.2281 120.067 51.0739 119.904 50.9455 119.716C50.54 119.164 50.0058 118.719 49.3893 118.421C48.7729 118.122 48.0928 117.979 47.4083 118.003C46.4148 118.003 45.4128 118.003 44.4193 118.003C43.9054 118.003 43.7256 118.191 43.7341 118.696C43.7513 121.18 43.7427 123.69 43.7341 126.208Z" fill="white"/>
<path d="M108.996 124.914V133.479C108.996 134.395 108.722 134.901 107.985 135.14C107.6 135.303 107.177 135.356 106.763 135.294C106.349 135.232 105.96 135.058 105.639 134.789C105.484 134.622 105.368 134.422 105.3 134.204C105.232 133.986 105.213 133.756 105.245 133.53C105.245 128.643 105.245 123.75 105.245 118.851C105.245 117.849 105.245 117.849 104.26 117.84C103.275 117.831 102.401 117.84 101.468 117.84C101.243 117.847 101.02 117.805 100.813 117.717C100.606 117.629 100.421 117.496 100.271 117.329C100.121 117.162 100.009 116.964 99.9439 116.749C99.8784 116.534 99.8607 116.307 99.892 116.084C99.892 114.997 100.423 114.371 101.416 114.371C103.344 114.371 105.279 114.371 107.206 114.371C107.451 114.344 107.699 114.373 107.93 114.456C108.162 114.54 108.372 114.675 108.543 114.852C108.714 115.029 108.843 115.243 108.918 115.477C108.994 115.712 109.015 115.96 108.979 116.204C108.996 119.105 109.002 122.008 108.996 124.914Z" fill="white"/>
<path d="M106.735 110.26C106.444 110.271 106.154 110.222 105.882 110.117C105.611 110.012 105.364 109.853 105.155 109.65C104.947 109.446 104.782 109.203 104.671 108.934C104.56 108.665 104.504 108.376 104.508 108.085C104.508 107.492 104.743 106.924 105.163 106.504C105.582 106.085 106.15 105.85 106.743 105.85C107.336 105.85 107.905 106.085 108.324 106.504C108.743 106.924 108.979 107.492 108.979 108.085C108.975 108.376 108.915 108.662 108.8 108.929C108.685 109.196 108.518 109.438 108.31 109.64C108.101 109.842 107.855 110.001 107.584 110.108C107.314 110.214 107.025 110.266 106.735 110.26Z" fill="white"/>
</svg>
