<svg width="250" height="250" viewBox="0 0 250 250" fill="none" xmlns="http://www.w3.org/2000/svg">
<rect width="250" height="250" fill="#DF3F79"/>
<path fill-rule="evenodd" clip-rule="evenodd" d="M150.95 129.564L150.464 129.077L155.53 115.353H156.139L161.208 129.077L160.721 129.564H150.948H150.95ZM152.234 104.981L151.497 105.719L138.457 138.715L138.491 144.424L139.069 145.003H144.181L144.822 144.362L147.479 137.161L148.717 136.412H162.952L164.19 137.161L166.848 144.362L167.488 145.003H172.6L173.176 144.424L173.209 138.715L160.176 105.717L159.438 104.978H152.234V104.981ZM136.229 145.113H110.6L110.031 144.544V105.573L110.6 104.997H117.477L118.051 105.571V137.662L118.624 138.233H136.227L136.8 138.809V144.542L136.227 145.111L136.229 145.113ZM104.881 145.113H77.9446L77.3761 144.544V105.573L77.9446 104.997H104.881L105.454 105.573V111.306L104.881 111.875H85.9687L85.3954 112.453V120.475L85.9687 121.048H103.737L104.315 121.619V127.352L103.737 127.923H85.9687L85.3954 128.501V137.665L85.9687 138.236H104.881L105.454 138.811V144.544L104.881 145.113ZM73.2429 117.016C73.2429 116.577 73.2261 116.15 73.1902 115.735C72.6072 108.564 67.0636 104.976 59.4833 104.976H40.5757L40 105.556V144.528L40.5757 145.094H47.4508L48.0193 144.528V129.619L48.5998 129.053H54.3282L55.4748 129.619L66.9364 144.528L68.0855 145.094H71.5254L72.0963 144.528V138.794L64.6455 129.053V128.472C68.8747 127.417 72.612 123.929 73.171 118.452C73.2189 117.989 73.2429 117.51 73.2429 117.018V117.016ZM59.3849 122.171H48.4966L47.9281 121.602V112.429L48.4966 111.858H59.3849C62.8272 111.858 65.1205 113.007 65.1205 117.016C65.1205 121.024 62.8248 122.171 59.3849 122.171ZM193.203 119.419C196.284 119.419 198.783 121.919 198.783 124.999C198.783 128.079 196.284 130.578 193.203 130.578C190.123 130.578 187.624 128.081 187.624 124.999C187.624 121.916 190.121 119.419 193.203 119.419ZM181.987 134.762C185.067 134.762 187.566 137.259 187.566 140.342C187.566 143.424 185.067 145.921 181.987 145.921C178.906 145.921 176.409 143.422 176.409 140.342C176.409 137.262 178.909 134.762 181.987 134.762ZM204.42 134.762C207.5 134.762 210 137.259 210 140.342C210 143.424 207.5 145.921 204.42 145.921C201.34 145.921 198.841 143.422 198.841 140.342C198.841 137.262 201.338 134.762 204.42 134.762ZM204.42 104.079C207.5 104.079 210 106.578 210 109.658C210 112.738 207.5 115.238 204.42 115.238C201.34 115.238 198.841 112.738 198.841 109.658C198.841 106.578 201.338 104.079 204.42 104.079ZM181.987 104.079C185.067 104.079 187.566 106.578 187.566 109.658C187.566 112.738 185.067 115.238 181.987 115.238C178.906 115.238 176.409 112.738 176.409 109.658C176.409 106.578 178.909 104.079 181.987 104.079Z" fill="white"/>
</svg>
