<svg width="250" height="250" viewBox="0 0 250 250" fill="none" xmlns="http://www.w3.org/2000/svg">
<rect width="250" height="250" fill="#00CBFF"/>
<path d="M192.245 106.088C202.819 106.088 210 113.826 210 125C210 135.779 203.105 143.912 192.245 143.912C181.759 143.912 174.491 136.075 174.491 125C174.491 114.221 181.291 106.088 192.245 106.088ZM182.419 125C182.419 131.172 185.533 136.95 192.15 136.95C198.665 136.95 201.874 131.461 201.874 125C201.874 118.729 198.95 113.05 192.15 113.05C185.635 113.142 182.419 118.63 182.419 125Z" fill="white"/>
<path d="M140.205 143.221V106.871H159C165.609 106.871 171.281 110.694 171.281 118.334C171.281 125.487 166.181 129.501 159.476 129.797L172.511 143.319H162.026L149.561 129.797H148.337V143.319H140.211V143.221H140.205ZM148.235 113.826V122.94H159C161.74 122.94 163.25 121.177 163.25 118.334C163.25 115.491 161.74 113.826 159 113.826H148.235Z" fill="white"/>
<path d="M105.45 106.871H135.955V113.925H124.715V143.221H116.684V113.826H105.45V106.871Z" fill="white"/>
<path d="M93.2645 132.442V136.167H74.7549V143.221H101.295V132.442H93.2645Z" fill="white"/>
<path d="M77.9648 125L87.4101 130.686V119.413L77.9648 125Z" fill="white"/>
<path d="M93.2645 117.65H101.295V106.871H74.7549V113.826H93.2645V117.65Z" fill="white"/>
<path d="M40 143.221V106.871H58.7952C65.4048 106.871 71.076 110.694 71.076 118.334C71.076 125.487 65.976 129.501 59.3664 129.797L72.402 143.319H61.7192L49.2548 129.698H48.024V143.221H40ZM48.0308 113.826V122.94H58.7952C61.5356 122.94 63.0452 121.177 63.0452 118.334C63.0452 115.491 61.5356 113.826 58.7952 113.826H48.0308Z" fill="white"/>
</svg>
