<svg width="250" height="250" viewBox="0 0 250 250" fill="none" xmlns="http://www.w3.org/2000/svg">
<rect width="250" height="250" fill="#020203"/>
<path d="M93.125 110.06H40V139.94H93.125V110.06Z" fill="#0336EE"/>
<path fill-rule="evenodd" clip-rule="evenodd" d="M68.863 124.397C71.1442 124.397 72.2538 123.662 72.2538 122.162C72.2538 120.662 71.1442 119.947 68.863 119.947H58.8682V124.397H68.863ZM55.1719 116.927H69.3463C73.6612 116.927 76.0623 118.864 76.0623 122.116C76.0623 124.907 74.2605 126.775 71.1906 127.215L78.1386 133.073H72.8067L66.2724 127.42H58.8682V133.073H55.1719V116.927Z" fill="white"/>
<path d="M210 110.06H156.875V139.94H210V110.06Z" fill="#9624BB"/>
<path fill-rule="evenodd" clip-rule="evenodd" d="M173.439 116.927H177.128V129.891H193.529V133.073H173.439V116.927Z" fill="white"/>
<path d="M151.539 110.06H98.4607V139.94H151.539V110.06Z" fill="#03AAED"/>
<path fill-rule="evenodd" clip-rule="evenodd" d="M123.156 120.109H113.818V116.927H136.182V120.109H126.844V133.073H123.156V120.109Z" fill="white"/>
</svg>
