<svg width="250" height="250" viewBox="0 0 250 250" fill="none" xmlns="http://www.w3.org/2000/svg">
<rect width="250" height="250" fill="#00BFF0"/>
<path d="M40 162.948V190.837H43.7108V178.951H52.3499C54.1034 178.886 54.959 179.2 55.8005 179.859C57.194 181.064 57.5538 184.405 57.6073 186.072C57.7459 189.144 57.7684 190.014 58.3905 190.837H62.5856C61.721 189.716 61.1471 188.579 60.9891 184.112C60.7385 179.074 59.1389 177.957 56.6554 177.35C59.4014 176.623 61.572 174.425 61.572 170.254C61.572 165.261 57.7097 162.948 53.1969 162.948H40ZM43.7108 166.079H52.8583C56.0079 166.079 57.8597 167.807 57.8597 170.801C57.8597 174.578 55.4177 175.82 51.2483 175.82H43.7108V166.079Z" fill="white"/>
<path d="M75.2525 190.837H71.5417V166.079H62.2068V162.949H84.5294V166.079H75.2525V190.837Z" fill="white"/>
<path d="M104.881 187.706V190.837H86.4426V162.949H90.1534V187.706H104.881Z" fill="white"/>
<path d="M132.596 183.706V190.837H107.664V184.112L120.652 170.08H108.418V162.949H131.958V169.21L118.854 183.706H132.596Z" fill="white"/>
<path d="M141.641 190.837L134.074 162.949H142.51L145.946 180.366L149.323 162.949H156.922L160.22 180.583L163.709 162.949H172.209L164.392 190.837H156.049L153.001 173.663L150.037 190.837H141.641Z" fill="white"/>
<path d="M197.882 183.706V190.837H174.4V162.949H197.476V170.109H182.981V173.588H196.142V180.227H182.981V183.706H197.882Z" fill="white"/>
<path d="M201.419 190.837V162.949H210V190.837H201.419Z" fill="white"/>
<path d="M107.722 135.292V149.149H80.0359V59.1627H128.479V73.0201H93.8643V135.292H107.722Z" fill="white"/>
<path d="M142.278 73.0201V59.1627H169.964V149.149H121.521V135.292H156.136V73.0201H142.278Z" fill="white"/>
<path d="M107.722 124.815L121.521 122.13V87.5153L107.722 90.1971V124.815Z" fill="white"/>
<path d="M128.479 120.774L142.278 118.089V83.4744L128.479 86.1562V120.774Z" fill="white"/>
</svg>
