<svg width="250" height="250" viewBox="0 0 250 250" fill="none" xmlns="http://www.w3.org/2000/svg">
<rect width="250" height="250" fill="white"/>
<path d="M108.741 92.2992H92.446V76.0039H108.741V92.2992Z" fill="#80CC28"/>
<path d="M92.446 92.2992H76.1506V76.0039H92.446V92.2992Z" fill="#40B93C"/>
<path d="M141.332 92.2992H125.037V76.0039H141.332V92.2992Z" fill="#ED1C24"/>
<path d="M157.627 92.2992H141.332V76.0039H157.627V92.2992Z" fill="#9B161B"/>
<path d="M173.923 92.2992H157.627V76.0039H173.923V92.2992Z" fill="#7641A4"/>
<path d="M92.446 108.595H76.1506V92.2992H92.446V108.595Z" fill="#F68712"/>
<path d="M157.627 108.595H141.332V92.2992H157.627V108.595Z" fill="#68BCE2"/>
<path d="M92.446 124.89H76.1506V108.595H92.446V124.89Z" fill="#FFF200"/>
<path d="M157.627 124.89H141.332V108.595H157.627V124.89Z" fill="#2E3192"/>
<path d="M41.468 144.488C41.9819 143.828 42.4223 143.351 43.3398 143.351C44.2573 143.351 44.2206 143.497 44.6611 143.754L43.9637 145.076C43.6701 144.892 43.4866 144.709 43.0829 144.709C41.5047 144.709 41.4313 146.764 41.4313 147.865V152.122H40V143.608H41.4313V144.525L41.468 144.488Z" fill="black"/>
<path d="M52.0746 146.911C51.8911 145.663 50.8268 144.672 49.579 144.672C48.3311 144.672 47.1567 145.663 46.9732 146.911H52.0746ZM46.8998 148.158C46.8998 149.737 48.0375 150.984 49.6891 150.984C51.3406 150.984 51.7076 150.25 52.2581 149.223L53.506 149.92C52.6986 151.425 51.3039 152.306 49.579 152.306C47.0466 152.306 45.395 150.361 45.395 147.938C45.395 145.516 46.8631 143.351 49.5056 143.351C52.148 143.351 53.6895 145.626 53.5427 148.158H46.8631H46.8998Z" fill="black"/>
<path d="M56.222 147.755C56.222 149.406 57.213 150.984 59.0113 150.984C60.8097 150.984 61.8373 149.48 61.8373 147.755C61.8373 146.03 60.773 144.672 58.9746 144.672C57.1763 144.672 56.222 146.14 56.222 147.718M63.232 151.682C63.232 153.04 63.232 154.214 62.3511 155.352C61.5437 156.38 60.3326 156.857 59.048 156.857C56.6625 156.857 54.9008 155.352 54.8641 152.966H56.2954C56.2954 154.544 57.4332 155.535 59.0113 155.535C61.2501 155.535 61.7272 153.884 61.7272 151.975V150.948C61.0299 151.829 59.9289 152.379 58.7911 152.379C56.2954 152.379 54.7173 150.287 54.7173 147.938C54.7173 145.589 56.3321 143.424 58.8278 143.424C61.3235 143.424 61.0299 143.938 61.7272 144.855V143.644H63.1953V151.718L63.232 151.682Z" fill="black"/>
<path d="M67.7828 152.085H66.3515V143.571H67.7828V152.085ZM68.1131 140.378C68.1131 140.965 67.636 141.405 67.0855 141.405C66.535 141.405 66.0579 140.965 66.0579 140.378C66.0579 139.791 66.535 139.35 67.0855 139.35C67.636 139.35 68.1131 139.827 68.1131 140.378Z" fill="black"/>
<path d="M71.4897 147.828C71.4897 149.553 72.7375 150.984 74.4992 150.984C76.2609 150.984 77.5087 149.553 77.5087 147.828C77.5087 146.103 76.2609 144.672 74.4992 144.672C72.7375 144.672 71.4897 146.103 71.4897 147.828ZM70.0583 147.865C70.0583 145.369 72.0402 143.351 74.5359 143.351C77.0316 143.351 79.0134 145.369 79.0134 147.865C79.0134 150.361 77.0316 152.342 74.5359 152.342C72.0402 152.342 70.0583 150.361 70.0583 147.865Z" fill="black"/>
<path d="M82.4265 144.598C83.0138 143.791 83.8212 143.351 84.8488 143.351C87.1977 143.351 87.7482 145.039 87.7482 147.057V152.122H86.3169V147.314C86.3169 145.956 86.2068 144.709 84.5185 144.709C82.8303 144.709 82.3898 146.544 82.3898 148.085V152.122H80.9585V143.608H82.3898V144.635L82.4265 144.598Z" fill="black"/>
<path d="M91.3084 147.755C91.3084 149.406 92.2993 150.984 94.0977 150.984C95.896 150.984 96.9237 149.48 96.9237 147.755C96.9237 146.03 95.8593 144.672 94.061 144.672C92.2626 144.672 91.3084 146.14 91.3084 147.718M98.3183 152.085H96.8503V150.911C96.1162 151.865 95.1253 152.342 93.9142 152.342C91.4185 152.342 89.8403 150.214 89.8403 147.865C89.8403 145.516 91.3818 143.351 93.9142 143.351C96.4465 143.351 96.1162 143.901 96.8503 144.782V143.571H98.3183V152.085Z" fill="black"/>
<path d="M102.429 152.085H100.997V137.148H102.429V152.085Z" fill="black"/>
<path d="M106.576 144.598C107.163 143.791 107.971 143.351 108.998 143.351C111.347 143.351 111.898 145.039 111.898 147.057V152.122H110.466V147.314C110.466 145.956 110.356 144.709 108.668 144.709C106.98 144.709 106.539 146.544 106.539 148.085V152.122H105.108V143.608H106.539V144.635L106.576 144.598Z" fill="black"/>
<path d="M116.412 152.085H114.981V143.571H116.412V152.085ZM116.706 140.378C116.706 140.965 116.229 141.405 115.678 141.405C115.128 141.405 114.65 140.965 114.65 140.378C114.65 139.791 115.128 139.35 115.678 139.35C116.229 139.35 116.706 139.827 116.706 140.378Z" fill="black"/>
<path d="M122.504 152.085H119.348V145.81H118.32V143.241H119.348V140.598H122.504V143.241H124.266V145.81H122.504V152.085Z" fill="black"/>
<path d="M131.459 146.397C131.312 145.553 130.542 145.002 129.698 145.002C128.853 145.002 128.009 145.479 127.826 146.397H131.459ZM134.395 148.195H127.789C127.789 149.48 128.45 150.14 129.771 150.14C131.092 150.14 130.909 149.92 131.276 149.333H134.285C133.771 151.425 131.79 152.379 129.771 152.379C126.835 152.379 124.633 150.728 124.633 147.681C124.633 144.635 126.651 142.947 129.514 142.947C132.377 142.947 134.359 144.855 134.359 147.865V148.195H134.395Z" fill="black"/>
<path d="M138.946 152.085H135.79V137.772H138.946V152.085Z" fill="black"/>
<path d="M147.204 146.397C147.057 145.553 146.287 145.002 145.443 145.002C144.598 145.002 143.754 145.479 143.571 146.397H147.204ZM150.104 148.195H143.497C143.497 149.48 144.158 150.14 145.479 150.14C146.8 150.14 146.617 149.92 146.984 149.333H149.993C149.48 151.425 147.498 152.379 145.479 152.379C142.543 152.379 140.341 150.728 140.341 147.681C140.341 144.635 142.36 142.947 145.222 142.947C148.085 142.947 150.067 144.855 150.067 147.865V148.195H150.104Z" fill="black"/>
<path d="M155.866 147.791L157.958 143.24H161.481L156.857 152.085H154.875L150.25 143.24H153.774L155.902 147.791H155.866Z" fill="black"/>
<path d="M165.408 152.085H162.288V143.24H165.408V152.085ZM165.591 139.864C165.591 140.818 164.784 141.626 163.83 141.626C162.876 141.626 162.068 140.818 162.068 139.864C162.068 138.91 162.876 138.102 163.83 138.102C164.784 138.102 165.591 138.91 165.591 139.864Z" fill="black"/>
<path d="M175.574 149.48V152.085H166.619L170.766 145.846H167.17V143.24H176.015L171.867 149.48H175.611H175.574Z" fill="black"/>
<path d="M183.318 146.397C183.171 145.553 182.401 145.002 181.557 145.002C180.712 145.002 179.868 145.479 179.685 146.397H183.318ZM186.218 148.195H179.611C179.611 149.48 180.272 150.14 181.593 150.14C182.914 150.14 182.731 149.92 183.098 149.333H186.107C185.594 151.425 183.612 152.379 181.593 152.379C178.657 152.379 176.455 150.728 176.455 147.681C176.455 144.635 178.474 142.947 181.336 142.947C184.199 142.947 186.181 144.855 186.181 147.865V148.195H186.218Z" fill="black"/>
<path d="M190.401 151.278C190.401 151.829 189.961 152.306 189.374 152.306C188.787 152.306 188.346 151.829 188.346 151.278C188.346 150.728 188.787 150.287 189.374 150.287C189.961 150.287 190.401 150.728 190.401 151.278Z" fill="black"/>
<path d="M199.87 146.103C199.21 145.259 198.366 144.672 197.228 144.672C195.466 144.672 194.218 146.103 194.218 147.828C194.218 149.553 195.393 150.984 197.154 150.984C198.916 150.984 199.21 150.434 199.907 149.516H199.944V151.462C199.1 152.012 198.256 152.342 197.228 152.342C194.659 152.342 192.714 150.434 192.714 147.865C192.714 145.296 194.769 143.387 197.265 143.387C199.76 143.387 199.136 143.681 199.907 144.231V146.14L199.87 146.103Z" fill="black"/>
<path d="M209.78 150.764V152.085H200.971L207.101 144.929H202.109V143.608H210L203.871 150.764H209.743H209.78Z" fill="black"/>
<path d="M101.695 164.821H103.163V169.665C103.163 170.399 103.163 170.913 103.2 171.133C103.273 171.537 103.42 171.831 103.677 172.051C103.934 172.271 104.264 172.381 104.668 172.381C105.071 172.381 105.292 172.308 105.512 172.161C105.732 172.014 105.879 171.794 105.952 171.537C106.026 171.28 106.062 170.693 106.062 169.812V164.858H107.53V169.555C107.53 170.766 107.457 171.611 107.347 172.161C107.237 172.712 106.943 173.115 106.466 173.446C106.026 173.776 105.438 173.959 104.704 173.959C103.97 173.959 103.346 173.813 102.906 173.556C102.466 173.299 102.172 172.895 101.988 172.381C101.805 171.867 101.695 170.95 101.695 169.629V164.858V164.821ZM103.824 164.234L104.521 162.399H106.099L104.704 164.234H103.824Z" fill="black"/>
<path d="M109.916 171.941L111.31 171.684C111.421 172.345 111.824 172.712 112.448 172.712C113.072 172.712 113.035 172.638 113.219 172.528C113.402 172.381 113.476 172.234 113.476 172.014C113.476 171.794 113.476 171.757 113.366 171.684C113.292 171.611 113.145 171.537 112.925 171.464C111.788 171.17 111.054 170.877 110.723 170.583C110.319 170.253 110.136 169.775 110.136 169.152C110.136 168.528 110.319 168.051 110.723 167.72C111.09 167.353 111.677 167.17 112.375 167.17C113.072 167.17 113.586 167.317 113.953 167.573C114.32 167.83 114.577 168.271 114.724 168.895L113.402 169.188C113.292 168.674 112.962 168.418 112.411 168.418C111.861 168.418 111.824 168.454 111.677 168.564C111.531 168.674 111.457 168.785 111.457 168.968C111.457 169.152 111.531 169.225 111.641 169.335C111.788 169.445 112.191 169.592 112.889 169.775C113.659 169.996 114.21 170.253 114.503 170.583C114.797 170.913 114.907 171.317 114.907 171.831C114.907 172.345 114.687 172.968 114.247 173.372C113.806 173.776 113.219 173.996 112.485 173.996C111.751 173.996 111.237 173.813 110.797 173.482C110.356 173.152 110.063 172.638 109.952 172.014L109.916 171.941Z" fill="black"/>
<path d="M119.862 167.28V168.638H118.908V171.244C118.908 171.794 118.908 172.124 118.944 172.234C119.018 172.381 119.128 172.491 119.275 172.491C119.421 172.491 119.605 172.455 119.825 172.345L119.935 173.666C119.605 173.849 119.238 173.923 118.834 173.923C118.431 173.923 118.174 173.849 117.99 173.666C117.77 173.482 117.623 173.262 117.55 172.932C117.476 172.712 117.476 172.198 117.476 171.5V168.674H116.816V167.316H117.476V166.032L118.871 165.041V167.316H119.825L119.862 167.28Z" fill="black"/>
<path d="M125.257 171.721L126.652 172.014C126.468 172.675 126.174 173.152 125.771 173.446C125.367 173.776 124.89 173.923 124.339 173.923C123.789 173.923 122.945 173.666 122.504 173.152C121.991 172.528 121.734 171.684 121.734 170.583C121.734 169.482 121.991 168.638 122.504 167.977C122.945 167.427 123.495 167.17 124.156 167.17C124.817 167.17 125.514 167.463 125.954 168.014C126.468 168.674 126.688 169.592 126.688 170.84V171.023H123.165C123.165 171.537 123.275 171.941 123.495 172.198C123.716 172.455 123.972 172.601 124.303 172.601C124.743 172.601 125.073 172.308 125.22 171.684L125.257 171.721ZM125.33 169.959C125.33 169.445 125.22 169.078 125 168.821C124.78 168.564 124.56 168.454 124.266 168.454C123.972 168.454 123.716 168.601 123.532 168.858C123.312 169.115 123.238 169.519 123.238 169.996H125.33V169.959Z" fill="black"/>
<path d="M133.845 169.188L132.45 169.482C132.34 168.821 132.01 168.454 131.496 168.454C130.982 168.454 130.872 168.601 130.652 168.895C130.432 169.188 130.322 169.665 130.322 170.363C130.322 171.06 130.432 171.684 130.652 171.978C130.872 172.271 131.129 172.455 131.496 172.455C131.863 172.455 131.973 172.381 132.157 172.198C132.34 172.014 132.45 171.684 132.524 171.244L133.918 171.537C133.625 173.079 132.817 173.886 131.459 173.886C130.101 173.886 129.955 173.556 129.551 172.895C129.147 172.234 128.927 171.427 128.927 170.51C128.927 169.592 129.147 168.564 129.624 167.977C130.101 167.39 130.725 167.096 131.496 167.096C132.267 167.096 132.634 167.243 133.001 167.573C133.368 167.904 133.661 168.418 133.845 169.152V169.188Z" fill="black"/>
<path d="M136.157 173.776V164.858H137.552V169.592L139.203 167.316H140.928L139.13 169.702L141.075 173.813H139.57L138.212 170.913L137.552 171.757V173.813H136.157V173.776Z" fill="black"/>
<path d="M142.91 170.436C142.91 169.812 143.02 169.225 143.277 168.711C143.534 168.197 143.864 167.794 144.268 167.537C144.672 167.28 145.149 167.133 145.626 167.133C146.47 167.133 147.167 167.463 147.645 168.124C148.122 168.785 148.379 169.592 148.379 170.473C148.379 171.354 148.269 171.757 148.012 172.271C147.755 172.822 147.424 173.225 147.021 173.482C146.617 173.739 146.14 173.886 145.663 173.886C144.892 173.886 144.231 173.592 143.718 172.968C143.204 172.381 142.947 171.5 142.947 170.399L142.91 170.436ZM144.342 170.546C144.342 171.207 144.452 171.684 144.709 172.051C144.965 172.381 145.259 172.565 145.626 172.565C145.993 172.565 146.287 172.381 146.544 172.051C146.8 171.721 146.911 171.207 146.911 170.546C146.911 169.886 146.8 169.408 146.544 169.078C146.287 168.748 145.993 168.564 145.626 168.564C145.259 168.564 144.965 168.748 144.709 169.078C144.452 169.408 144.342 169.922 144.342 170.546Z" fill="black"/>
</svg>
