<svg width="250" height="250" viewBox="0 0 250 250" fill="none" xmlns="http://www.w3.org/2000/svg">
<rect width="250" height="250" fill="#FD5A41"/>
<path d="M53.4877 144.606C48.0345 144.606 42.9094 142.499 40.7053 138.969C39.2673 136.666 40.096 134.781 42.5739 134.107L43.3118 133.906C45.3789 133.344 46.6497 134.023 47.9195 135.329C49.4286 136.882 51.2585 137.715 53.4114 137.715C55.9321 137.715 57.4977 136.634 57.4977 134.888C57.4977 129.863 40.4566 132.819 40.4566 120.721C40.4566 114.702 45.5827 110.788 53.0258 110.788C58.5699 110.788 63.139 112.523 65.2428 115.798C66.9327 118.428 66.2042 120.341 63.4222 120.904L62.676 121.056C59.7989 121.639 58.8479 120.367 57.412 119.183C56.2248 118.204 54.9623 117.685 53.3905 117.685C51.0861 117.685 49.6157 118.73 49.6157 120.366C49.6157 126.15 66.9055 122.434 66.9055 134.448C66.9055 140.626 61.2819 144.607 53.4867 144.607L53.4877 144.606ZM75.5546 144.276C73.0495 144.276 71.6899 142.917 71.6899 140.412V114.951C71.6899 112.446 73.0495 111.087 75.5546 111.087H77.1055C79.6105 111.087 80.9702 112.446 80.9702 114.951V124.211L88.1572 113.756C89.4364 111.911 90.9392 111.086 93.0607 111.086H95.1592C98.6059 111.086 99.9802 112.69 97.658 115.752L89.2963 126.779L98.2401 139.624C100.394 142.716 99.1546 144.275 95.825 144.275H93.5164C91.3813 144.275 89.8032 143.313 88.662 141.528L80.9712 129.363V140.411C80.9712 142.916 79.6116 144.275 77.1065 144.275H75.5556L75.5546 144.276ZM116.052 144.275C113.825 144.275 112.4 143.266 111.62 141.171L102.095 115.533C101.111 112.884 102.361 111.088 105.189 111.088H107.204C109.462 111.088 110.864 112.152 111.55 114.311L117.597 133.34L123.644 114.311C124.331 112.152 125.732 111.088 127.99 111.088H130.005C132.833 111.088 134.103 112.88 133.113 115.537L123.561 141.172C122.781 143.267 121.356 144.276 119.129 144.276L116.052 144.275ZM137.11 140.412V114.951C137.11 112.446 138.469 111.087 140.975 111.087H155.543C158.048 111.087 159.408 112.446 159.408 114.951V115.432C159.408 117.937 158.048 119.297 155.543 119.297H146.39V124.217H154.718C157.222 124.217 158.583 125.42 158.583 127.579V127.625C158.583 129.814 157.223 131.003 154.718 131.003H146.39V136.099H155.543C158.048 136.099 159.408 137.458 159.408 139.963V140.413C159.408 142.918 158.048 144.277 155.543 144.277H140.975C138.469 144.277 137.11 142.917 137.11 140.412ZM164.847 140.412V114.951C164.847 112.446 166.207 111.087 168.712 111.087H170.294C172.799 111.087 174.159 112.446 174.159 114.951V136.098H180.737C183.242 136.098 184.601 137.457 184.601 139.962V140.412C184.601 142.917 183.242 144.276 180.737 144.276H168.712C166.207 144.276 164.847 142.917 164.847 140.412ZM201.303 108.88C201.832 108.889 202.024 108.708 202.085 108.227C202.085 108.227 202.793 104.126 202.793 97.8371C202.793 95.1408 200.812 93.3934 198.368 93.3934C195.925 93.3934 193.943 95.5682 193.943 97.8371C193.943 103.593 194.651 108.307 194.651 108.307C194.71 108.707 194.863 108.885 195.328 108.878H201.302L201.303 108.88ZM185.631 127.751C185.631 144.33 194.165 144.279 194.165 144.279H206.682C208.515 144.279 210 142.793 210 140.961C210 139.129 208.514 137.643 206.682 137.643H197.911C197.299 137.643 196.805 137.148 196.805 136.537C196.805 135.927 197.3 135.432 197.911 135.432H206.682C208.515 135.432 210 133.946 210 132.114C210 130.282 208.514 128.796 206.682 128.796H197.911C197.299 128.796 196.805 128.3 196.805 127.69C196.805 127.08 197.3 126.584 197.911 126.584H206.682C208.515 126.584 210 125.098 210 123.266C210 121.434 208.514 119.948 206.682 119.948H197.911C197.299 119.948 196.805 119.453 196.805 118.842C196.805 118.232 197.3 117.736 197.911 117.736H206.682C208.515 117.736 210 116.25 210 114.418C210 112.586 208.514 111.1 206.682 111.1H193.283C193.283 111.1 185.632 111.376 185.632 127.759L185.631 127.751Z" fill="white"/>
</svg>
