<svg width="250" height="250" viewBox="0 0 250 250" fill="none" xmlns="http://www.w3.org/2000/svg">
<rect width="250" height="250" fill="#1C1C1C"/>
<path d="M207.259 104.439H108.432C106.924 104.439 105.691 105.672 105.691 107.18V142.82C105.691 144.327 106.924 145.561 108.432 145.561H207.259C208.767 145.561 210 144.327 210 142.82V107.18C210 105.672 208.767 104.439 207.259 104.439Z" fill="url(#paint0_linear_370_4138)"/>
<path opacity="0.35" d="M107.644 124.829H107.918C116.039 124.554 207.945 121.333 207.945 121.333C208.973 121.299 210 120.545 210 119.243V107.18C210 105.672 208.767 104.439 207.259 104.439H108.432C106.924 104.439 105.691 105.672 105.691 107.18V126.988C105.691 126.748 105.725 125.034 107.644 124.829Z" fill="url(#paint1_linear_370_4138)"/>
<path fill-rule="evenodd" clip-rule="evenodd" d="M65.9747 132.916C65.9747 134.801 65.2208 135.897 61.5199 135.897C61.0402 135.897 60.5947 135.863 60.1834 135.795V110.71C60.1834 108.791 60.8346 106.803 64.5697 106.803C65.0494 106.803 65.5291 106.837 65.9747 106.94V132.916ZM81.0866 142.614C81.5663 142.854 82.56 143.162 83.8279 143.197C85.9868 143.231 87.152 142.408 88.0086 140.489L99.5225 114.856C99.0427 114.617 97.9804 114.308 97.1237 114.308C95.6502 114.274 93.6627 114.582 92.3948 117.598L88.6596 126.371L81.3607 114.479C80.881 114.342 79.7159 114.137 78.8935 114.137C76.2891 114.137 74.8499 115.096 73.3765 116.707L66.2488 124.452L71.9714 133.43C73.0338 135.075 74.4045 135.897 76.6661 135.897C78.1396 135.897 79.3732 135.555 79.9558 135.28L73.068 124.966L77.934 119.791L85.9525 132.333L81.0866 142.614ZM51.3425 135.726C56.0371 135.212 58.3331 132.642 58.3331 129.112C58.3331 126.062 56.4483 123.595 52.1307 122.875L47.8815 122.087C46.5108 121.847 45.6541 121.539 45.6541 120.751C45.6541 119.997 46.5451 119.414 48.7039 119.414C49.9408 119.414 51.0765 119.482 52.0465 119.539C52.7694 119.582 53.4003 119.62 53.9125 119.62C55.4889 119.62 57.0995 118.969 57.0995 115.884C57.0995 115.473 57.0309 115.062 56.9623 114.685C54.6321 114.377 50.383 113.965 46.922 114.342C42.3302 114.822 40 117.598 40 120.888C40 123.595 41.9875 126.165 45.6884 126.85L50.1432 127.707C51.788 128.05 52.6104 128.392 52.6104 129.283C52.6104 129.935 51.9593 130.654 49.869 130.654C48.8675 130.654 47.6887 130.58 46.5615 130.508C45.5288 130.443 44.5394 130.38 43.7694 130.38C42.1931 130.38 40.5483 131.065 40.5483 134.15C40.5483 134.527 40.6168 135.006 40.6853 135.383C43.0155 135.657 47.95 136.103 51.3425 135.726Z" fill="#EBEBEB"/>
<path fill-rule="evenodd" clip-rule="evenodd" d="M64.5697 106.803C60.8346 106.803 60.2177 108.791 60.2177 110.71V127.913C60.2177 127.227 60.766 126.508 61.6227 126.473C61.9178 126.457 62.4714 126.441 63.025 126.424H63.0253C63.6292 126.406 64.2331 126.389 64.5012 126.371C65.0838 126.336 65.9405 125.959 65.9747 124.897V106.94C65.5293 106.872 65.0494 106.803 64.5697 106.803ZM81.3607 114.479L88.4883 126.062C88.2142 125.685 87.8716 125.514 87.5631 125.514C87.4556 125.514 86.2338 125.561 85.0674 125.605C84.0028 125.646 82.9845 125.685 82.9027 125.685C82.6972 125.685 81.8063 125.685 81.2237 124.897L77.934 119.757L73.068 124.931L74.3359 126.85C73.9932 126.405 73.4449 126.028 72.554 126.062C72.4246 126.062 71.5926 126.093 70.7141 126.125H70.7137H70.7135C69.7313 126.161 68.6913 126.199 68.5104 126.199C67.5509 126.234 67.0712 125.685 66.8313 125.343L66.2487 124.452L73.3764 116.707C74.8498 115.096 76.289 114.137 78.8934 114.137C79.7158 114.137 80.881 114.342 81.3607 114.479ZM95.3075 124.246L99.5225 114.856C99.0427 114.582 97.9804 114.308 97.158 114.308C95.6845 114.274 93.697 114.582 92.4291 117.598L88.8127 126.127C88.8101 126.133 88.8078 126.138 88.8058 126.143C88.8042 126.146 88.803 126.15 88.8018 126.152L88.7968 126.165L88.8127 126.127C88.8764 125.988 89.1367 125.509 89.7219 125.48C89.7219 125.48 93.2857 125.343 93.5599 125.343C94.7021 125.309 95.1528 124.518 95.2992 124.261L95.3075 124.246ZM47.8472 122.019L52.0964 122.807C56.4483 123.595 58.3331 126.062 58.3673 129.112C58.3673 129.326 58.3673 129.513 58.3429 129.697C58.3963 128.113 57.3432 126.613 55.5231 126.679C55.1864 126.693 54.3614 126.719 53.4692 126.746C52.1821 126.786 50.7551 126.83 50.4515 126.85C48.8067 126.919 46.6479 126.782 45.6884 126.61C44.5233 126.405 43.3925 126.096 42.2617 125.377C40.7539 124.212 40 122.567 40 120.888C40 117.598 42.3302 114.822 46.8877 114.274C50.383 113.897 54.5978 114.342 56.928 114.616C57.0309 115.028 57.0652 115.405 57.0652 115.816C57.0652 118.9 55.4546 119.551 53.8782 119.551C53.3637 119.551 52.7231 119.513 51.9914 119.47C51.0177 119.413 49.8828 119.346 48.6696 119.346C46.5108 119.346 45.6198 119.962 45.6198 120.682C45.6198 121.47 46.4765 121.779 47.8472 122.019ZM58.3429 129.697C58.34 129.719 58.3367 129.741 58.3331 129.763V129.797V129.866C58.3378 129.81 58.3411 129.753 58.3429 129.697Z" fill="url(#paint2_linear_370_4138)"/>
<path d="M131.494 123.423V133.876C131.494 134.629 131.049 135.143 129.712 135.143C129.164 135.143 128.513 135.075 128.17 134.972V123.869C128.17 119.997 126.285 118.146 123.407 118.146C121.179 118.146 118.781 119.688 117.787 121.504V133.91C117.787 134.664 117.341 135.178 116.005 135.178C115.457 135.178 114.806 135.109 114.463 135.006V115.542C114.772 115.473 115.423 115.37 116.005 115.37C117.341 115.37 117.787 115.85 117.787 116.638V118.283C119.192 116.536 121.351 115.165 124.195 115.165C128.17 115.165 131.494 117.666 131.494 123.423Z" fill="white"/>
<path fill-rule="evenodd" clip-rule="evenodd" d="M138.827 126.439H153.836C153.939 125.754 153.973 125.068 153.905 124.486C153.905 119.791 150.958 115.165 144.995 115.165C139.718 115.165 135.4 119.346 135.4 125.171C135.4 131.237 139.478 135.315 145.544 135.315C148.353 135.315 150.992 134.458 152.74 133.704C152.911 131.922 152.294 131.168 151.369 131.168C151.089 131.168 150.809 131.26 150.25 131.442C150.124 131.483 149.984 131.529 149.827 131.579C148.628 131.991 147.325 132.299 145.681 132.299C141.843 132.299 139.273 130.209 138.827 126.439ZM150.752 123.869H138.827C139.341 120.031 142.048 117.975 145.064 117.975C148.49 117.975 150.615 120.545 150.752 123.869Z" fill="white"/>
<path d="M184.403 115.85L179.262 133.704C178.954 134.835 178.098 135.109 176.864 135.109C176.178 135.109 175.494 134.972 174.911 134.835L170.01 119.14L165.419 133.704C165.042 134.835 164.151 135.109 163.088 135.109C162.403 135.109 161.649 134.972 161.067 134.835L155.584 115.85C156.064 115.61 156.955 115.37 157.674 115.37C158.599 115.37 159.079 115.645 159.319 116.536L163.191 131.442H163.226L168.023 115.85C168.571 115.542 169.325 115.37 170.079 115.37C171.347 115.37 172.032 115.645 172.375 116.81L176.829 131.408H176.864L180.634 116.501C180.874 115.61 181.353 115.336 182.278 115.336C183.101 115.37 183.923 115.61 184.403 115.85Z" fill="white"/>
<path d="M186.596 133.978C186.357 132.299 186.87 131.408 187.864 131.408C188.79 131.408 191.051 132.402 194.203 132.402C197.527 132.402 198.76 131.237 198.76 129.695C198.76 128.598 198.281 127.639 195.3 126.816L191.873 125.891C188.07 124.897 186.596 122.978 186.596 120.648C186.596 117.735 188.891 115.165 194.1 115.165C196.43 115.165 199.343 115.679 201.126 116.364C201.433 118.009 200.92 118.9 199.926 118.9C199.034 118.9 197.013 118.043 194.169 118.043C191.084 118.043 189.954 119.106 189.954 120.476C189.954 121.436 190.4 122.327 193.141 123.115L196.636 124.075C200.543 125.171 202.119 126.988 202.119 129.558C202.119 132.573 199.789 135.28 194.134 135.28C191.599 135.315 188.481 134.698 186.596 133.978Z" fill="white"/>
<defs>
<linearGradient id="paint0_linear_370_4138" x1="105.677" y1="104.439" x2="105.677" y2="145.561" gradientUnits="userSpaceOnUse">
<stop offset="0.4" stop-color="#E90E10"/>
<stop offset="1" stop-color="#BC0000"/>
</linearGradient>
<linearGradient id="paint1_linear_370_4138" x1="205.434" y1="123.657" x2="205.4" y2="103.176" gradientUnits="userSpaceOnUse">
<stop stop-color="white"/>
<stop offset="1" stop-color="white" stop-opacity="0.25"/>
</linearGradient>
<linearGradient id="paint2_linear_370_4138" x1="87.8199" y1="125.992" x2="87.7476" y2="112.217" gradientUnits="userSpaceOnUse">
<stop stop-color="white"/>
<stop offset="1" stop-color="white" stop-opacity="0.25"/>
</linearGradient>
</defs>
</svg>
