<svg width="250" height="250" viewBox="0 0 250 250" fill="none" xmlns="http://www.w3.org/2000/svg">
<rect width="250" height="250" fill="#2B2C2D"/>
<mask id="mask0_272_486" style="mask-type:luminance" maskUnits="userSpaceOnUse" x="73" y="40" width="105" height="170">
<path d="M177.767 40H73V210H177.767V40Z" fill="white"/>
</mask>
<g mask="url(#mask0_272_486)">
<path d="M73 118.787C73 147.38 96.212 170.559 124.856 170.559C153.499 170.559 176.703 147.38 176.703 118.778C176.703 90.1761 153.491 66.998 124.856 66.998C96.2206 66.998 73 90.1847 73 118.787Z" fill="url(#paint0_radial_272_486)"/>
<path d="M113.431 109.138L124.475 121.978L107.602 143.638L137.869 169.041C154.501 164.704 167.877 152.33 173.594 136.326L133.715 96.5059L113.431 109.138Z" fill="#142870"/>
<path d="M123.931 133.248L134.708 124.358C138.888 120.866 141.599 116.054 141.599 111.01C141.599 105.965 140.011 101.861 136.841 98.6961C133.638 95.5574 129.432 93.9795 124.216 93.9795C120.814 93.9795 117.455 95.0141 114.38 97.0146C111.272 99.0152 108.681 102.507 107.291 106.81C106.937 107.845 107.23 108.552 108.163 108.94L115.581 111.88C116.617 112.398 117.817 112.07 118.172 110.811C118.914 107.155 121.375 105.31 124.354 105.31C125.978 105.31 127.334 105.862 128.43 106.931C129.527 108 130.08 109.354 130.08 110.975C130.08 112.751 128.88 114.692 126.522 116.856L107.524 134.343C107.17 134.671 107.006 135.343 107.006 136.413V142.069C107.006 143.199 107.913 143.915 109.338 143.915H140.736C141.936 143.915 142.713 143.199 142.713 141.94V135.378C142.713 133.99 141.936 133.248 140.546 133.248H123.94H123.931Z" fill="white"/>
<mask id="mask1_272_486" style="mask-type:luminance" maskUnits="userSpaceOnUse" x="110" y="40" width="30" height="22">
<path d="M116.263 58.5653C116.125 60.9625 117.032 61.9196 119.406 61.8162C123.102 61.661 126.816 61.6523 130.52 61.8162C133.016 61.9283 133.94 60.9453 133.707 58.5653H116.263ZM122.671 42.5182C122.671 43.4494 123.18 44.2428 123.923 44.6825C121.419 48.123 118.612 49.0974 115.054 47.7436C115.313 47.347 115.469 46.8727 115.469 46.364C115.469 44.9757 114.338 43.8461 112.947 43.8461C111.557 43.8461 110.426 44.9757 110.426 46.364C110.426 47.6057 111.332 48.6318 112.515 48.8387C112.74 49.1837 112.939 49.5458 113.085 49.8994C113.785 51.5549 114.372 53.2968 114.752 55.0558C115.123 56.7718 115.996 57.2805 117.697 57.2374C122.222 57.1339 126.772 57.0218 131.289 57.2719C133.923 57.4185 134.933 56.4355 135.624 54.0383C136.125 52.3051 136.366 50.3908 137.291 48.8301C138.43 48.5887 139.277 47.5798 139.277 46.3726C139.277 44.9843 138.145 43.8547 136.755 43.8547C135.365 43.8547 134.233 44.9843 134.233 46.3726C134.233 46.9331 134.424 47.4504 134.743 47.873C131.151 48.9853 128.5 48.0196 126.237 44.8205C127.118 44.4238 127.731 43.5529 127.731 42.5268C127.731 41.1385 126.6 40.0089 125.21 40.0089C123.819 40.0089 122.688 41.1385 122.688 42.5268" fill="white"/>
</mask>
<g mask="url(#mask1_272_486)">
<path d="M139.277 39.9999H110.426V61.9279H139.277V39.9999Z" fill="url(#paint1_radial_272_486)"/>
</g>
<path d="M84.7617 192.462C84.6408 192.462 84.4076 192.574 84.0622 192.798L80.2454 196.307C79.9172 196.592 79.7531 196.807 79.7272 196.954C79.71 197.109 79.8395 197.351 80.1245 197.696C80.5303 198.179 81.0139 198.644 81.5752 199.101C82.1365 199.558 82.7583 199.955 83.4232 200.3C84.0881 200.645 84.7876 200.912 85.5302 201.119C86.2642 201.317 87.0155 201.421 87.7841 201.421C89.0967 201.421 90.3488 201.257 91.5405 200.938C92.7322 200.619 93.8116 200.136 94.7787 199.498C95.7459 198.86 96.5663 198.084 97.2312 197.17C97.8961 196.256 98.3538 195.212 98.5956 194.04C98.8374 192.893 98.8633 191.927 98.6733 191.151C98.4834 190.375 98.112 189.719 97.568 189.185C97.024 188.65 96.3331 188.202 95.5041 187.84C94.6751 187.478 93.7598 187.124 92.7494 186.779C92.4904 186.702 92.214 186.615 91.9291 186.538C91.6441 186.46 91.3937 186.365 91.1691 186.253C90.9446 186.141 90.7719 186.003 90.6424 185.831C90.5129 185.658 90.4783 185.451 90.5388 185.21C90.6424 184.77 90.8756 184.468 91.2382 184.322C91.6009 184.166 91.9636 184.097 92.3263 184.097C92.7926 184.097 93.2762 184.227 93.7943 184.494C94.3125 184.753 94.7701 185.089 95.176 185.494C95.4005 185.718 95.6337 185.865 95.8755 185.951C96.1172 186.029 96.3936 185.934 96.6958 185.649L99.8477 182.744C100.15 182.459 100.366 182.192 100.487 181.942C100.608 181.692 100.616 181.424 100.513 181.14C99.6059 179.967 98.5438 179.182 97.3348 178.777C96.1259 178.372 94.7615 178.174 93.2417 178.174C91.9895 178.174 90.8151 178.329 89.727 178.639C88.639 178.95 87.6632 179.389 86.7996 179.958C85.9447 180.527 85.228 181.2 84.6494 182.002C84.0708 182.795 83.6823 183.683 83.4836 184.649C83.3023 185.494 83.2332 186.296 83.2678 187.055C83.3109 187.814 83.5268 188.521 83.9154 189.176C84.3126 189.832 84.9085 190.427 85.7202 190.961C86.5233 191.496 87.62 191.953 88.993 192.341H88.9326C89.822 192.6 90.4006 192.893 90.6597 193.203C90.9187 193.514 91.0223 193.807 90.9619 194.065C90.7978 194.85 90.2365 195.247 89.2694 195.247C88.9067 195.247 88.5612 195.178 88.2418 195.031C87.9222 194.893 87.6027 194.704 87.3005 194.471C86.9982 194.238 86.696 193.979 86.3938 193.703C86.0915 193.419 85.7634 193.143 85.4266 192.858C85.1071 192.617 84.8826 192.496 84.7617 192.496M98.3624 200.472C98.2847 200.912 98.4661 201.136 98.9065 201.136H104.088C104.589 201.136 104.882 200.912 104.968 200.472L109.45 179.389C109.493 179.191 109.45 179.027 109.312 178.906C109.183 178.786 109.036 178.725 108.872 178.725H103.665C103.44 178.725 103.259 178.794 103.121 178.924C102.982 179.053 102.888 179.208 102.844 179.389L98.3624 200.472ZM116.505 195.307C116.099 195.669 115.625 195.85 115.081 195.85C114.537 195.85 114.139 195.669 113.88 195.307C113.63 194.945 113.561 194.471 113.682 193.884C113.785 193.324 114.044 192.85 114.467 192.462C114.891 192.074 115.374 191.884 115.918 191.884C116.462 191.884 116.851 192.074 117.084 192.462C117.317 192.841 117.386 193.315 117.283 193.884C117.162 194.471 116.903 194.945 116.497 195.307M107.084 196.721C107.248 197.652 107.568 198.463 108.052 199.153C108.535 199.851 109.165 200.395 109.925 200.8C110.694 201.205 111.566 201.403 112.559 201.403C113.164 201.403 113.69 201.334 114.131 201.205C114.571 201.076 114.96 200.921 115.296 200.74C115.633 200.558 115.918 200.369 116.16 200.162C116.402 199.963 116.609 199.782 116.799 199.618C116.86 200.205 116.929 200.61 116.998 200.826C117.067 201.05 117.274 201.162 117.619 201.162H120.918C121.143 201.162 121.367 201.093 121.583 200.947C121.807 200.808 121.946 200.593 122.006 200.308L124.795 187.124C124.873 186.839 124.83 186.633 124.657 186.486C124.485 186.348 124.286 186.279 124.07 186.279H120.771C120.426 186.279 120.175 186.391 120.011 186.615C119.847 186.839 119.614 187.245 119.312 187.823C119.191 187.659 119.053 187.478 118.906 187.279C118.759 187.081 118.543 186.883 118.284 186.702C118.025 186.52 117.697 186.365 117.317 186.236C116.929 186.107 116.436 186.038 115.832 186.038C114.839 186.038 113.88 186.236 112.939 186.641C111.998 187.046 111.143 187.598 110.366 188.288C109.588 188.987 108.923 189.797 108.362 190.72C107.809 191.651 107.421 192.625 107.197 193.651L107.162 193.772C106.937 194.798 106.912 195.781 107.076 196.704M121.989 179.286C122.006 179.2 122.032 179.113 122.049 179.027C122.11 178.803 121.998 178.691 121.713 178.691H118.414C118.215 178.691 118.043 178.743 117.896 178.837C117.758 178.941 117.602 179.096 117.438 179.32L115.469 182.407C115.288 182.649 115.184 182.856 115.167 183.011C115.107 183.252 115.245 183.373 115.59 183.373H118.802C119.148 183.373 119.459 183.157 119.744 182.735L121.807 179.562C121.911 179.458 121.972 179.363 121.989 179.277M125.763 209.983C126.229 210.026 129.027 209.94 129.614 209.94C131.065 209.94 132.36 209.587 133.422 209.181C134.484 208.776 135.382 208.224 136.134 207.534C136.876 206.836 137.895 205.017 138.405 203.473C138.871 202.542 138.776 201.645 139.044 200.593L139.078 200.412L141.893 187.133C141.971 186.848 141.928 186.641 141.755 186.494C141.583 186.357 141.384 186.288 141.168 186.288H137.869C137.524 186.288 137.273 186.4 137.11 186.624C136.946 186.848 136.712 187.253 136.41 187.831C136.289 187.667 136.151 187.486 136.004 187.288C135.849 187.089 135.641 186.891 135.382 186.71C135.123 186.529 134.795 186.374 134.415 186.244C134.035 186.115 133.534 186.046 132.93 186.046C131.937 186.046 130.978 186.244 130.037 186.65C129.096 187.055 128.241 187.607 127.464 188.297C126.686 188.995 126.022 189.806 125.46 190.728C124.908 191.66 124.519 192.634 124.295 193.66L124.26 193.781C124.036 194.807 124.01 195.79 124.165 196.713C124.329 197.644 124.649 198.455 125.132 199.144C125.616 199.834 126.246 200.386 127.006 200.791C127.775 201.197 128.647 201.395 129.64 201.395C130.633 201.395 131.324 201.291 131.79 201.093C132.256 200.895 132.679 200.627 133.059 200.308L133.025 200.464C132.826 201.395 132.524 203.05 131.859 203.861C131.298 204.335 131.246 204.387 129.493 204.49C128.75 204.534 127.999 204.542 126.971 204.49M133.586 195.307C133.18 195.669 132.705 195.85 132.161 195.85C131.617 195.85 131.22 195.669 130.961 195.307C130.711 194.945 130.642 194.471 130.762 193.884C130.866 193.324 131.125 192.85 131.548 192.462C131.971 192.074 132.455 191.884 132.999 191.884C133.543 191.884 133.932 192.074 134.165 192.462C134.398 192.841 134.467 193.315 134.364 193.884C134.243 194.471 133.984 194.945 133.578 195.307" fill="white"/>
<path d="M153.914 200.265C153.793 200.852 154.035 201.145 154.64 201.145H159.096C159.726 201.145 160.097 200.852 160.218 200.265L161.582 193.85C161.686 193.307 161.928 192.815 162.325 192.384C162.722 191.953 163.206 191.729 163.793 191.729C164.018 191.729 164.19 191.746 164.311 191.772C164.432 191.806 164.536 191.849 164.631 191.91C164.717 191.97 164.804 192.048 164.89 192.151C164.968 192.255 165.08 192.384 165.218 192.548C165.382 192.729 165.598 192.781 165.866 192.703C166.142 192.625 166.375 192.461 166.582 192.22L169.639 188.892C169.881 188.633 169.993 188.4 169.976 188.21C169.959 188.021 169.838 187.823 169.613 187.624C169.052 187.124 168.517 186.745 168.025 186.503C167.532 186.262 166.859 186.141 166.013 186.141C165.607 186.141 165.227 186.219 164.864 186.365C164.501 186.512 164.156 186.71 163.819 186.952C163.482 187.193 163.172 187.452 162.869 187.736C162.567 188.021 162.273 188.288 161.988 188.555L161.746 187.288C161.703 187.064 161.66 186.857 161.6 186.667C161.539 186.477 161.367 186.383 161.082 186.383H157.809C157.55 186.383 157.308 186.46 157.092 186.607C156.885 186.753 156.747 186.96 156.686 187.228L153.932 200.265H153.914Z" fill="white"/>
<path d="M147.699 182.596C146.715 183.174 146.335 183.993 146.033 184.717C145.23 186.606 146.335 188.986 146.94 189.434C146.396 189.374 140.869 188.546 138.304 193.772C136.56 197.316 138.486 201.42 139.202 202.377C141.638 205.585 144.988 205.818 147.311 205.818C152.786 205.818 153.813 202.903 159.176 201.67C166.602 199.954 168.537 204.921 168.537 204.921C168.537 204.921 168.373 199.23 159.66 199.376C156.68 199.428 153.986 200.903 151.465 201.084C148.399 201.299 145.782 199.989 145.843 196.764C145.938 191.59 151.991 192.909 152.613 192.219C153.218 191.538 150.549 190.262 150.54 188.374C150.54 187.787 150.705 187.08 151.361 186.356C152.561 185.028 155.627 185.201 156.741 187.054C156.819 186.882 156.914 186.727 157.069 186.623C157.112 186.597 157.155 186.58 157.198 186.554C156.819 184.131 153.649 181.846 150.532 181.846C149.556 181.846 148.58 182.07 147.708 182.588" fill="url(#paint2_linear_272_486)"/>
<path d="M97.7237 172.473C97.7237 172.06 97.3869 171.715 96.9638 171.715C96.5406 171.715 96.2038 172.051 96.2038 172.473C96.2038 172.646 96.2643 172.801 96.3593 172.922C95.2799 173.258 94.4854 172.965 93.8032 172.008C94.0709 171.887 94.2523 171.628 94.2523 171.318C94.2523 170.904 93.9155 170.559 93.4923 170.559C93.0692 170.559 92.7324 170.896 92.7324 171.318C92.7324 171.594 92.8878 171.835 93.1037 171.965C92.3525 172.999 91.5062 173.293 90.444 172.887C90.5217 172.767 90.5649 172.629 90.5649 172.473C90.5649 172.06 90.2281 171.715 89.805 171.715C89.3819 171.715 89.0451 172.051 89.0451 172.473C89.0451 172.844 89.3128 173.155 89.6755 173.215C89.7446 173.318 89.805 173.422 89.8482 173.534C90.0554 174.034 90.2368 174.552 90.349 175.078C90.4613 175.595 90.7204 175.742 91.2298 175.733C92.5856 175.698 93.95 175.664 95.3058 175.742C96.1002 175.784 96.4025 175.491 96.6097 174.767C96.7565 174.25 96.8342 173.672 97.1106 173.206C97.4474 173.129 97.7064 172.827 97.7064 172.465M90.8154 176.129C90.7722 176.845 91.0485 177.138 91.7566 177.104C92.8706 177.061 93.9845 177.052 95.0899 177.104C95.8412 177.138 96.1175 176.845 96.0484 176.129H90.8154Z" fill="white"/>
<path d="M107.767 206.017C107.68 206.017 107.62 206.06 107.602 206.146L107.153 208.233C107.102 208.431 106.981 208.595 106.791 208.733C106.601 208.871 106.393 208.94 106.177 208.94C105.962 208.94 105.815 208.871 105.711 208.733C105.608 208.603 105.582 208.422 105.625 208.207L106.065 206.146C106.082 206.06 106.048 206.017 105.962 206.017H105.064C104.977 206.017 104.925 206.06 104.9 206.146L104.468 208.207C104.355 208.733 104.416 209.155 104.632 209.483C104.848 209.819 105.185 209.983 105.633 209.983C105.893 209.983 106.16 209.914 106.437 209.776C106.704 209.638 106.929 209.466 107.093 209.25L107.188 209.802C107.214 209.862 107.257 209.888 107.309 209.888H107.835C107.922 209.888 107.982 209.845 108 209.75L108.285 208.414L108.768 206.146C108.785 206.06 108.751 206.017 108.664 206.017H107.767ZM109.873 206.017C109.77 206.017 109.709 206.068 109.684 206.163L109.519 206.948C109.502 207.043 109.545 207.103 109.64 207.103H110.893L108.725 209.561L108.63 209.742C108.656 209.845 108.699 209.897 108.751 209.897H112.153C112.248 209.897 112.309 209.845 112.335 209.742L112.499 208.948C112.516 208.862 112.473 208.793 112.378 208.793H110.789L112.931 206.31C112.973 206.249 112.999 206.206 113.017 206.155C113.034 206.06 112.991 206.008 112.896 206.008H109.873V206.017ZM114.027 206.017C113.941 206.017 113.889 206.06 113.872 206.146L113.103 209.768C113.086 209.854 113.112 209.897 113.198 209.897H114.105C114.191 209.897 114.243 209.854 114.269 209.768L115.037 206.146C115.055 206.06 115.02 206.017 114.934 206.017H114.027ZM101.782 206.163C101.506 206.318 101.29 206.525 101.134 206.776C100.996 206.249 100.599 205.93 100.038 205.93C99.7872 205.93 99.5281 205.999 99.2777 206.129C99.0274 206.258 98.8115 206.439 98.6474 206.655L98.5524 206.103C98.5352 206.042 98.492 206.017 98.4229 206.017H97.9048C97.8184 206.017 97.758 206.06 97.7407 206.155L97.4557 207.491L96.9722 209.759C96.9549 209.845 96.9894 209.888 97.0758 209.888H97.9739C98.0602 209.888 98.1207 209.845 98.1379 209.759L98.587 207.638C98.6474 207.448 98.7597 207.284 98.9324 207.163C99.0965 207.043 99.2864 206.974 99.4936 206.974C99.6837 206.974 99.8218 207.043 99.9168 207.181C100.012 207.319 100.029 207.491 99.986 207.707L99.5454 209.768C99.5281 209.854 99.5627 209.897 99.6491 209.897H100.539C100.625 209.897 100.685 209.854 100.703 209.768L101.134 207.715C101.178 207.517 101.29 207.336 101.463 207.189C101.635 207.051 101.834 206.974 102.059 206.974C102.248 206.974 102.386 207.043 102.482 207.181C102.577 207.319 102.594 207.491 102.551 207.707L102.11 209.768C102.093 209.854 102.127 209.897 102.214 209.897H103.112C103.198 209.897 103.25 209.854 103.276 209.768L103.708 207.707C103.82 207.181 103.768 206.75 103.561 206.422C103.354 206.094 103.034 205.93 102.611 205.93C102.335 205.93 102.058 206.008 101.791 206.163M121.186 208.655C121.056 208.526 120.987 208.362 120.987 208.155C120.987 207.879 121.099 207.621 121.324 207.405C121.548 207.181 121.807 207.077 122.084 207.077C122.291 207.077 122.464 207.137 122.602 207.267C122.732 207.396 122.801 207.569 122.801 207.776C122.801 208.06 122.688 208.31 122.455 208.526C122.231 208.742 121.972 208.845 121.695 208.845C121.488 208.845 121.315 208.776 121.186 208.647M120.936 206.275C120.573 206.508 120.288 206.827 120.089 207.207C119.882 207.595 119.778 208.008 119.778 208.448C119.778 208.888 119.925 209.233 120.21 209.535C120.495 209.837 120.849 209.992 121.263 209.992C121.773 209.992 122.222 209.785 122.602 209.379L122.68 209.811C122.706 209.871 122.749 209.897 122.809 209.897H123.327C123.414 209.897 123.474 209.854 123.5 209.759L123.759 208.526L123.906 207.819L124.26 206.155C124.277 206.06 124.243 206.017 124.156 206.017H123.63C123.569 206.017 123.509 206.051 123.466 206.103L123.207 206.534C122.991 206.137 122.602 205.922 122.092 205.922C121.669 205.922 121.281 206.042 120.918 206.275M114.347 204.439C114.191 204.568 114.096 204.723 114.053 204.904C114.01 205.085 114.044 205.241 114.148 205.37C114.243 205.499 114.39 205.56 114.571 205.56C114.752 205.56 114.925 205.499 115.081 205.37C115.236 205.241 115.331 205.085 115.366 204.904C115.4 204.723 115.366 204.568 115.27 204.439C115.167 204.309 115.029 204.249 114.847 204.249C114.666 204.249 114.493 204.309 114.338 204.439M116.523 204.111C116.445 204.111 116.393 204.154 116.367 204.24L115.193 209.776C115.176 209.862 115.202 209.906 115.288 209.906H116.195C116.281 209.906 116.333 209.862 116.359 209.776L116.575 208.767L117.205 208.241L118.025 209.793C118.06 209.871 118.086 209.914 118.181 209.906H119.225C119.329 209.897 119.39 209.811 119.338 209.707L118.215 207.551L119.675 206.215C119.744 206.146 119.77 206.034 119.64 206.025H118.647C118.535 206.017 118.492 206.025 118.396 206.103L116.86 207.5L117.55 204.24C117.568 204.154 117.533 204.111 117.447 204.111H116.54H116.523Z" fill="url(#paint3_linear_272_486)"/>
</g>
<defs>
<radialGradient id="paint0_radial_272_486" cx="0" cy="0" r="1" gradientUnits="userSpaceOnUse" gradientTransform="translate(124.851 118.778) rotate(180) scale(51.8512 51.7718)">
<stop stop-color="#015AAB"/>
<stop offset="0.515" stop-color="#015AAB"/>
<stop offset="1" stop-color="#242176"/>
</radialGradient>
<radialGradient id="paint1_radial_272_486" cx="0" cy="0" r="1" gradientUnits="userSpaceOnUse" gradientTransform="translate(123.818 49.3097) scale(14.4298 14.4088)">
<stop stop-color="#C0151B"/>
<stop offset="0.49" stop-color="#C0151B"/>
<stop offset="0.59" stop-color="#BA1319"/>
<stop offset="0.72" stop-color="#AA0F13"/>
<stop offset="0.86" stop-color="#90080A"/>
<stop offset="1" stop-color="#710000"/>
</radialGradient>
<linearGradient id="paint2_linear_272_486" x1="137.493" y1="197.574" x2="168.58" y2="198.872" gradientUnits="userSpaceOnUse">
<stop stop-color="#ED1D23"/>
<stop offset="1" stop-color="#250101"/>
</linearGradient>
<linearGradient id="paint3_linear_272_486" x1="97.1795" y1="210.733" x2="123.947" y2="205.977" gradientUnits="userSpaceOnUse">
<stop stop-color="#7B0304"/>
<stop offset="0.22183" stop-color="#BD141A"/>
<stop offset="0.485" stop-color="#C1161C"/>
<stop offset="0.784183" stop-color="#B31217"/>
<stop offset="1" stop-color="#730909"/>
</linearGradient>
</defs>
</svg>
