<svg width="250" height="250" viewBox="0 0 250 250" fill="none" xmlns="http://www.w3.org/2000/svg">
<rect width="250" height="250" fill="#2B2C2D"/>
<path d="M72.6512 159.939H76.7568V161.281C77.9562 160.216 79.2821 159.684 80.7359 159.684C82.2562 159.684 83.4811 160.163 84.4107 161.117C85.3403 162.072 85.8044 163.334 85.8044 164.905C85.8044 165.294 85.7622 165.758 85.6778 166.299C85.4579 167.583 85.0232 168.706 84.3723 169.669C83.7215 170.632 82.9147 171.38 81.9519 171.912C80.9891 172.444 79.933 172.71 78.7835 172.71C78.0393 172.71 77.3731 172.592 76.7811 172.356C76.1891 172.119 75.7084 171.773 75.3363 171.316L74.2213 177.677H69.5326L72.6499 159.938L72.6512 159.939ZM76.0728 166.883C76.0728 167.508 76.2543 168.003 76.6175 168.366C76.9806 168.729 77.4831 168.911 78.125 168.911C78.9701 168.911 79.6913 168.594 80.2923 167.961C80.8919 167.327 81.1924 166.529 81.1924 165.566C81.1924 164.924 81.0057 164.418 80.6349 164.046C80.2628 163.674 79.7565 163.488 79.1146 163.488C78.3705 163.488 77.7248 163.742 77.1762 164.249C76.6264 164.755 76.2761 165.415 76.1239 166.226C76.0894 166.378 76.0728 166.597 76.0728 166.883Z" fill="white"/>
<path d="M87.7557 159.939H92.0391L91.7603 161.763C92.1823 161.088 92.6976 160.568 93.3062 160.205C93.9148 159.842 94.59 159.66 95.3341 159.66C95.9594 159.66 96.5373 159.774 97.0705 160.003C97.6024 160.23 98.0371 160.565 98.376 161.004L95.8929 164.374C95.3686 163.868 94.76 163.614 94.0683 163.614C93.3586 163.614 92.759 163.859 92.2692 164.349C91.7795 164.839 91.4586 165.515 91.3064 166.377L90.2413 172.459H85.5526L87.757 159.94L87.7557 159.939Z" fill="white"/>
<path d="M99.6034 172.065C98.6482 171.618 97.9181 170.989 97.4118 170.177C96.9054 169.365 96.651 168.42 96.651 167.338C96.651 166.9 96.6842 166.485 96.752 166.097C97.1075 164.052 97.9808 162.469 99.3758 161.345C100.769 160.221 102.539 159.66 104.685 159.66C105.884 159.66 106.931 159.867 107.827 160.282C108.723 160.696 109.407 161.279 109.881 162.031C110.354 162.783 110.591 163.648 110.591 164.629C110.591 165.507 110.387 166.454 109.982 167.467H101.29C101.374 167.957 101.653 168.355 102.126 168.659C102.599 168.963 103.199 169.116 103.925 169.116C104.989 169.116 106.045 168.778 107.094 168.102L108.969 170.839C108.141 171.516 107.255 172.001 106.308 172.297C105.362 172.592 104.256 172.741 102.989 172.741C101.688 172.741 100.56 172.517 99.6059 172.069L99.6034 172.065ZM106.179 165.16C106.23 164.974 106.255 164.805 106.255 164.653C106.255 164.197 106.077 163.834 105.723 163.564C105.369 163.294 104.861 163.158 104.203 163.158C102.935 163.158 102.074 163.793 101.617 165.06L101.592 165.161H106.179V165.16Z" fill="white"/>
<path d="M112.363 159.939H116.468L116.342 161.282C116.848 160.775 117.44 160.378 118.115 160.09C118.79 159.803 119.492 159.659 120.219 159.659C120.996 159.659 121.655 159.824 122.195 160.154C122.736 160.484 123.108 160.944 123.31 161.535C124.577 160.284 126.14 159.659 127.999 159.659C129.334 159.659 130.352 160.018 131.052 160.736C131.753 161.454 132.103 162.481 132.103 163.814C132.103 164.321 132.052 164.88 131.951 165.487L130.735 172.457H126.047L127.288 165.386C127.321 165.116 127.339 164.929 127.339 164.828C127.339 164.39 127.229 164.051 127.009 163.814C126.789 163.578 126.469 163.46 126.047 163.46C125.506 163.46 125.049 163.642 124.678 164.005C124.306 164.368 124.061 164.88 123.943 165.538L122.727 172.457H118.14L119.381 165.386C119.414 165.116 119.432 164.929 119.432 164.828C119.432 164.39 119.318 164.051 119.09 163.814C118.862 163.578 118.536 163.46 118.114 163.46C117.573 163.46 117.126 163.642 116.771 164.005C116.417 164.368 116.179 164.88 116.062 165.538L114.846 172.457H110.157L112.361 159.938L112.363 159.939Z" fill="white"/>
<path d="M134.463 159.939H139.151L136.947 172.458H132.258L134.463 159.939ZM135.78 154.922C136.337 154.483 136.979 154.263 137.705 154.263C138.415 154.263 138.976 154.441 139.39 154.795C139.805 155.149 140.011 155.64 140.011 156.266C140.011 156.383 139.994 156.561 139.961 156.797C139.842 157.439 139.508 157.976 138.96 158.407C138.41 158.838 137.772 159.053 137.047 159.053C136.337 159.053 135.78 158.871 135.374 158.508C134.969 158.145 134.766 157.643 134.766 157.001C134.766 156.797 134.775 156.647 134.791 156.544C134.892 155.902 135.222 155.362 135.78 154.923V154.922Z" fill="white"/>
<path d="M140.278 171.66C139.61 170.942 139.277 169.949 139.277 168.682C139.277 168.159 139.328 167.609 139.429 167.035L140.67 159.939H145.359L144.143 166.858C144.109 167.129 144.092 167.314 144.092 167.415C144.092 167.872 144.206 168.239 144.435 168.517C144.662 168.796 145.013 168.935 145.486 168.935C146.076 168.935 146.617 168.728 147.108 168.314C147.598 167.9 147.91 167.305 148.046 166.528L149.212 159.939H153.9L151.696 172.458H147.59V171.09C146.982 171.664 146.314 172.082 145.588 172.344C144.862 172.606 144.134 172.737 143.408 172.737C141.989 172.737 140.945 172.377 140.278 171.66Z" fill="white"/>
<path d="M155.496 159.939H159.602L159.475 161.282C159.981 160.775 160.573 160.378 161.249 160.09C161.924 159.803 162.626 159.659 163.352 159.659C164.129 159.659 164.788 159.824 165.329 160.154C165.87 160.484 166.242 160.944 166.444 161.535C167.711 160.284 169.273 159.659 171.132 159.659C172.467 159.659 173.485 160.018 174.186 160.736C174.886 161.454 175.237 162.481 175.237 163.814C175.237 164.321 175.186 164.88 175.085 165.487L173.869 172.457H169.18L170.421 165.386C170.455 165.116 170.473 164.929 170.473 164.828C170.473 164.39 170.363 164.051 170.143 163.814C169.923 163.578 169.602 163.46 169.18 163.46C168.639 163.46 168.183 163.642 167.812 164.005C167.44 164.368 167.194 164.88 167.077 165.538L165.861 172.457H161.273L162.514 165.386C162.548 165.116 162.566 164.929 162.566 164.828C162.566 164.39 162.452 164.051 162.223 163.814C161.995 163.578 161.669 163.46 161.247 163.46C160.706 163.46 160.259 163.642 159.905 164.005C159.551 164.368 159.313 164.88 159.195 165.538L157.979 172.457H153.29L155.495 159.938L155.496 159.939Z" fill="white"/>
<path d="M210 86.4562C210 93.426 205.056 99.24 198.482 100.583C193.903 105.978 187.662 124.328 184.996 137.009C182.228 150.182 172.33 149.343 168.808 149.343C141.816 148.788 125.301 148.674 125.007 148.672C124.992 148.672 108.416 148.784 81.1923 149.343C77.6697 149.343 67.7731 150.182 65.0036 137.009C62.3376 124.328 56.0966 105.978 51.5179 100.583C44.9445 99.24 40 93.426 40 86.4562C40 78.4929 46.4545 72.0384 54.4178 72.0384C62.3811 72.0384 68.8356 78.4929 68.8356 86.4562C68.8356 89.3485 67.9802 92.04 66.5136 94.2981C71.2931 96.7671 96.3965 107.655 117.572 76.7757C113.383 74.253 110.582 69.6627 110.582 64.4178C110.582 56.4545 117.036 50 124.999 50C132.963 50 139.417 56.4545 139.417 64.4178C139.417 69.6627 136.616 74.253 132.427 76.7757C153.604 107.655 178.707 96.7671 183.485 94.2981C182.019 92.04 181.163 89.3485 181.163 86.4562C181.163 78.4929 187.618 72.0384 195.581 72.0384C203.544 72.0384 210 78.4929 210 86.4562ZM174.365 182.146H75.6341C75.6341 182.146 72.2777 201.165 90.7372 200.717C109.197 200.27 111.491 199.822 124.999 199.822C138.508 199.822 140.802 200.27 159.261 200.717C177.721 201.165 174.365 182.146 174.365 182.146Z" fill="url(#paint0_radial_272_506)"/>
<defs>
<radialGradient id="paint0_radial_272_506" cx="0" cy="0" r="1" gradientUnits="userSpaceOnUse" gradientTransform="translate(124.999 125.362) scale(80.326)">
<stop stop-color="#BC0F0C"/>
<stop offset="0.267" stop-color="#B80E0B"/>
<stop offset="0.48" stop-color="#AE0E09"/>
<stop offset="0.674" stop-color="#9E0E07"/>
<stop offset="0.856" stop-color="#860E03"/>
<stop offset="1" stop-color="#6E0E00"/>
</radialGradient>
</defs>
</svg>
