<svg width="250" height="250" viewBox="0 0 250 250" fill="none" xmlns="http://www.w3.org/2000/svg">
<rect width="250" height="250" fill="#2B2C2D"/>
<mask id="mask0_272_467" style="mask-type:luminance" maskUnits="userSpaceOnUse" x="74" y="40" width="103" height="170">
<path d="M176.386 40H74V210H176.386V40Z" fill="white"/>
</mask>
<g mask="url(#mask0_272_467)">
<path d="M73.8218 118.792C73.8218 146.838 96.6423 169.572 124.803 169.572C152.963 169.572 175.775 146.838 175.775 118.792C175.775 90.7463 152.955 68.0037 124.803 68.0037C96.6507 68.0037 73.8218 90.7379 73.8218 118.792Z" fill="url(#paint0_radial_272_467)"/>
<path d="M133.514 92.2012L115.541 107.544L122.647 114.623L123.436 140.004L149.321 163.331C161.173 156.759 170.121 145.62 173.763 132.299L172.999 131.538L133.505 92.1929L133.514 92.2012Z" fill="#780000"/>
<path d="M126.332 91.761C125.296 91.761 124.056 92.1162 122.664 92.7928L116.169 95.9307C115.456 96.3536 115.1 97.1233 115.1 98.2566V106.469C115.1 107.661 116.135 108.406 117.434 107.856L122.953 105.429V138.617C122.953 140.038 123.861 140.917 125.321 140.917H132.037C133.497 140.917 134.499 139.978 134.499 138.558V93.9263C134.499 92.4716 133.853 91.761 132.521 91.761H126.323H126.332Z" fill="white"/>
<mask id="mask1_272_467" style="mask-type:luminance" maskUnits="userSpaceOnUse" x="110" y="40" width="29" height="22">
<path d="M116.355 58.7507C116.219 61.102 117.11 62.0408 119.445 61.9393C123.079 61.7871 126.729 61.7786 130.371 61.9393C132.825 62.0493 133.733 61.0851 133.504 58.7507H116.355ZM122.654 43.0109C122.654 43.9159 123.155 44.7025 123.885 45.1338C121.423 48.5085 118.664 49.4642 115.166 48.1363C115.421 47.7473 115.574 47.2821 115.574 46.7831C115.574 45.4214 114.462 44.3134 113.095 44.3134C111.728 44.3134 110.616 45.4214 110.616 46.7831C110.616 48.001 111.507 49.0075 112.67 49.2104C112.891 49.5487 113.086 49.904 113.231 50.2507C113.918 51.8746 114.495 53.5831 114.869 55.3085C115.234 56.9916 116.092 57.4905 117.764 57.4483C122.213 57.3468 126.687 57.2368 131.127 57.4821C133.716 57.6259 134.71 56.6617 135.389 54.3104C135.881 52.6104 136.119 50.7328 137.027 49.202C138.148 48.9567 138.98 47.9756 138.98 46.7915C138.98 45.4299 137.868 44.3219 136.501 44.3219C135.134 44.3219 134.022 45.4299 134.022 46.7915C134.022 47.3413 134.209 47.8487 134.514 48.2632C130.982 49.3542 128.376 48.4069 126.152 45.2691C127.018 44.8801 127.621 44.0259 127.621 43.0194C127.621 41.6577 126.508 40.5497 125.142 40.5497C123.775 40.5497 122.663 41.6577 122.663 43.0194" fill="white"/>
</mask>
<g mask="url(#mask1_272_467)">
<path d="M138.98 40.5414H110.616V62.0494H138.98V40.5414Z" fill="url(#paint1_radial_272_467)"/>
</g>
<path d="M85.3848 191.055C85.2659 191.055 85.0367 191.165 84.6971 191.384L80.9446 194.827C80.622 195.106 80.4607 195.317 80.4352 195.461C80.4183 195.613 80.5456 195.85 80.8258 196.188C81.2248 196.662 81.7002 197.119 82.2521 197.567C82.8039 198.015 83.4152 198.404 84.0689 198.743C84.7226 199.081 85.4103 199.343 86.1404 199.546C86.862 199.741 87.6006 199.842 88.3562 199.842C89.6466 199.842 90.8776 199.682 92.0492 199.368C93.2208 199.056 94.282 198.582 95.2329 197.956C96.1837 197.33 96.9903 196.569 97.644 195.672C98.2977 194.776 98.7476 193.753 98.9853 192.602C99.2231 191.478 99.2485 190.53 99.0618 189.769C98.875 189.008 98.5099 188.365 97.9751 187.841C97.4402 187.316 96.761 186.876 95.946 186.521C95.131 186.166 94.2311 185.819 93.2378 185.481C92.9831 185.405 92.7114 185.32 92.4313 185.244C92.1511 185.168 91.9049 185.075 91.6842 184.965C91.4634 184.855 91.2936 184.72 91.1663 184.55C91.039 184.382 91.005 184.179 91.0644 183.942C91.1663 183.51 91.3955 183.214 91.7521 183.07C92.1087 182.918 92.4652 182.85 92.8218 182.85C93.2802 182.85 93.7557 182.978 94.265 183.24C94.7744 183.493 95.2244 183.823 95.6234 184.221C95.8442 184.441 96.0734 184.585 96.3111 184.669C96.5488 184.745 96.8205 184.652 97.1176 184.373L100.216 181.523C100.514 181.244 100.726 180.982 100.845 180.736C100.964 180.491 100.972 180.229 100.87 179.95C99.9787 178.799 98.9344 178.03 97.7458 177.632C96.5573 177.235 95.2159 177.04 93.7217 177.04C92.4907 177.04 91.3361 177.192 90.2664 177.497C89.1967 177.801 88.2373 178.233 87.3968 178.791C86.5564 179.349 85.8517 180.009 85.2829 180.795C84.7141 181.573 84.332 182.445 84.1368 183.392C83.9585 184.221 83.8906 185.007 83.9245 185.751C83.967 186.496 84.1792 187.189 84.5613 187.832C84.9518 188.475 85.5376 189.059 86.3356 189.583C87.1337 190.107 88.2034 190.556 89.5533 190.936H89.4938C90.3682 191.19 90.9371 191.478 91.1918 191.782C91.4465 192.086 91.5483 192.374 91.4889 192.628C91.3276 193.397 90.7758 193.786 89.8249 193.786C89.4684 193.786 89.1287 193.719 88.8146 193.575C88.5005 193.44 88.1864 193.254 87.8893 193.025C87.5921 192.797 87.295 192.543 86.9978 192.272C86.7007 191.993 86.3866 191.723 86.047 191.444C85.7328 191.207 85.5121 191.088 85.3933 191.088M98.7561 198.912C98.6797 199.343 98.858 199.563 99.291 199.563H104.385C104.877 199.563 105.166 199.343 105.251 198.912L109.657 178.233C109.699 178.038 109.657 177.878 109.521 177.759C109.394 177.641 109.25 177.582 109.088 177.582H103.969C103.748 177.582 103.57 177.649 103.434 177.776C103.298 177.903 103.205 178.055 103.162 178.233L98.7561 198.912ZM116.593 193.837C116.194 194.192 115.727 194.37 115.192 194.37C114.657 194.37 114.267 194.192 114.012 193.837C113.766 193.482 113.698 193.017 113.817 192.442C113.919 191.892 114.174 191.427 114.59 191.046C115.005 190.666 115.481 190.48 116.016 190.48C116.551 190.48 116.933 190.666 117.162 191.046C117.391 191.418 117.459 191.884 117.357 192.442C117.238 193.017 116.984 193.482 116.585 193.837M107.339 195.233C107.501 196.146 107.815 196.941 108.29 197.618C108.765 198.303 109.385 198.836 110.132 199.233C110.888 199.631 111.745 199.825 112.722 199.825C113.316 199.825 113.834 199.758 114.267 199.631C114.7 199.504 115.09 199.352 115.413 199.174C115.744 198.996 116.024 198.81 116.262 198.607C116.5 198.413 116.704 198.235 116.89 198.074C116.95 198.65 117.017 199.047 117.085 199.259C117.153 199.479 117.357 199.588 117.697 199.588H120.94C121.16 199.588 121.373 199.521 121.594 199.377C121.814 199.242 121.95 199.03 122.009 198.751L124.752 185.819C124.828 185.54 124.786 185.337 124.616 185.193C124.446 185.058 124.251 184.99 124.039 184.99H120.796C120.456 184.99 120.21 185.1 120.048 185.32C119.887 185.54 119.658 185.938 119.361 186.504C119.242 186.344 119.106 186.166 118.962 185.971C118.817 185.777 118.605 185.583 118.35 185.405C118.096 185.227 117.773 185.075 117.399 184.948C117.017 184.821 116.534 184.754 115.939 184.754C114.963 184.754 114.021 184.948 113.095 185.346C112.17 185.743 111.33 186.285 110.565 186.961C109.801 187.646 109.148 188.441 108.596 189.346C108.052 190.26 107.67 191.215 107.45 192.222L107.416 192.34C107.195 193.347 107.17 194.311 107.331 195.216M121.984 178.131C122.001 178.047 122.027 177.962 122.044 177.878C122.103 177.658 121.993 177.548 121.721 177.548H118.478C118.283 177.548 118.113 177.598 117.968 177.691C117.833 177.793 117.68 177.945 117.518 178.165L115.583 181.193C115.405 181.43 115.303 181.633 115.286 181.785C115.226 182.022 115.362 182.14 115.702 182.14H118.86C119.199 182.14 119.505 181.929 119.785 181.514L121.814 178.402C121.916 178.301 121.976 178.207 121.993 178.123M125.702 208.241C126.161 208.283 128.912 208.198 129.489 208.198C130.915 208.198 132.189 207.851 133.233 207.454C134.277 207.057 135.16 206.515 135.899 205.839C136.629 205.154 137.631 203.369 138.132 201.855C138.59 200.942 138.497 200.062 138.76 199.03L138.794 198.853L141.561 185.828C141.638 185.549 141.595 185.346 141.426 185.202C141.256 185.067 141.06 184.999 140.848 184.999H137.605C137.266 184.999 137.019 185.109 136.858 185.329C136.697 185.549 136.467 185.946 136.17 186.513C136.052 186.352 135.916 186.174 135.772 185.98C135.619 185.785 135.415 185.591 135.16 185.413C134.905 185.236 134.583 185.084 134.209 184.957C133.836 184.83 133.343 184.762 132.749 184.762C131.773 184.762 130.83 184.957 129.905 185.354C128.98 185.751 128.139 186.293 127.375 186.969C126.611 187.655 125.957 188.45 125.406 189.355C124.862 190.268 124.48 191.224 124.259 192.23L124.225 192.349C124.005 193.355 123.979 194.319 124.132 195.224C124.293 196.138 124.607 196.933 125.083 197.609C125.558 198.294 126.178 198.827 126.933 199.225C127.689 199.622 128.547 199.817 129.523 199.817C130.499 199.817 131.179 199.715 131.637 199.521C132.095 199.326 132.511 199.064 132.885 198.751L132.851 198.903C132.656 199.817 132.359 201.441 131.705 202.236C131.153 202.701 131.102 202.751 129.379 202.853C128.649 202.895 127.91 202.904 126.9 202.853L125.686 208.232L125.702 208.241ZM133.394 193.837C132.995 194.192 132.528 194.37 131.993 194.37C131.459 194.37 131.068 194.192 130.813 193.837C130.567 193.482 130.499 193.017 130.618 192.442C130.72 191.892 130.975 191.427 131.391 191.046C131.807 190.666 132.282 190.48 132.817 190.48C133.352 190.48 133.734 190.666 133.963 191.046C134.192 191.427 134.26 191.884 134.158 192.442C134.04 193.017 133.785 193.482 133.386 193.837" fill="white"/>
<path d="M153.379 198.709C153.26 199.284 153.498 199.571 154.093 199.571H158.473C159.093 199.571 159.458 199.284 159.577 198.709L160.918 192.416C161.02 191.883 161.258 191.401 161.649 190.978C162.039 190.556 162.514 190.336 163.092 190.336C163.312 190.336 163.482 190.352 163.601 190.378C163.72 190.403 163.822 190.454 163.915 190.513C164 190.572 164.085 190.648 164.17 190.75C164.246 190.851 164.357 190.978 164.492 191.139C164.654 191.317 164.866 191.367 165.129 191.291C165.401 191.215 165.63 191.054 165.825 190.818L168.831 187.553C169.068 187.299 169.179 187.071 169.162 186.885C169.145 186.699 169.026 186.504 168.805 186.31C168.253 185.819 167.727 185.447 167.243 185.21C166.759 184.973 166.097 184.855 165.265 184.855C164.866 184.855 164.492 184.931 164.136 185.075C163.779 185.219 163.44 185.413 163.109 185.65C162.778 185.887 162.472 186.141 162.175 186.42C161.878 186.699 161.589 186.961 161.309 187.223L161.071 185.98C161.029 185.76 160.978 185.557 160.927 185.371C160.867 185.185 160.698 185.092 160.418 185.092H157.2C156.945 185.092 156.707 185.168 156.504 185.312C156.3 185.455 156.164 185.659 156.105 185.921L153.396 198.709H153.379Z" fill="white"/>
<path d="M147.284 181.354C146.316 181.92 145.942 182.724 145.645 183.434C144.856 185.286 145.942 187.621 146.537 188.061C146.002 188.001 140.568 187.189 138.047 192.315C136.332 195.791 138.225 199.817 138.93 200.756C141.324 203.902 144.618 204.13 146.902 204.13C152.284 204.13 153.294 201.271 158.567 200.062C165.868 198.379 167.769 203.25 167.769 203.25C167.769 203.25 167.608 197.668 159.042 197.812C156.113 197.863 153.464 199.309 150.985 199.487C147.971 199.698 145.399 198.413 145.458 195.249C145.552 190.175 151.503 191.469 152.114 190.792C152.709 190.124 150.085 188.872 150.077 187.02C150.077 186.445 150.238 185.752 150.883 185.041C152.063 183.739 155.077 183.908 156.172 185.726C156.249 185.557 156.342 185.405 156.495 185.303C156.538 185.278 156.58 185.261 156.622 185.236C156.249 182.859 153.133 180.618 150.068 180.618C149.109 180.618 148.15 180.838 147.292 181.345" fill="url(#paint2_linear_272_467)"/>
<path d="M98.1276 171.449C98.1276 171.044 97.7965 170.705 97.3805 170.705C96.9644 170.705 96.6334 171.035 96.6334 171.449C96.6334 171.619 96.6928 171.771 96.7862 171.889C95.725 172.219 94.9439 171.932 94.2732 170.993C94.5364 170.874 94.7147 170.621 94.7147 170.316C94.7147 169.91 94.3836 169.572 93.9676 169.572C93.5516 169.572 93.2205 169.902 93.2205 170.316C93.2205 170.587 93.3733 170.824 93.5855 170.95C92.8469 171.966 92.0149 172.253 90.9707 171.856C91.0471 171.737 91.0896 171.602 91.0896 171.449C91.0896 171.044 90.7585 170.705 90.3425 170.705C89.9265 170.705 89.5954 171.035 89.5954 171.449C89.5954 171.813 89.8585 172.118 90.2151 172.177C90.283 172.279 90.3425 172.38 90.3849 172.49C90.5887 172.981 90.7669 173.488 90.8773 174.004C90.9877 174.511 91.2424 174.655 91.7433 174.647C93.0762 174.613 94.4175 174.579 95.7504 174.655C96.5315 174.697 96.8286 174.41 97.0324 173.699C97.1767 173.192 97.2531 172.625 97.5248 172.168C97.8559 172.092 98.1106 171.796 98.1106 171.441M91.3442 175.036C91.3018 175.738 91.5735 176.025 92.2696 175.991C93.3648 175.949 94.46 175.941 95.5467 175.991C96.2853 176.025 96.557 175.738 96.489 175.036H91.3442Z" fill="white"/>
<path d="M123.249 203.09C123.172 203.09 123.13 203.133 123.113 203.209L122.044 208.241C122.027 208.326 122.052 208.359 122.137 208.359H122.96C123.037 208.359 123.088 208.326 123.105 208.241L124.183 203.209C124.2 203.133 124.166 203.09 124.09 203.09H123.258H123.249ZM119.539 207.404C119.344 207.404 119.191 207.345 119.072 207.226C118.953 207.108 118.894 206.955 118.894 206.769C118.894 206.516 118.996 206.287 119.199 206.084C119.403 205.881 119.641 205.78 119.896 205.78C120.082 205.78 120.244 205.839 120.363 205.957C120.481 206.076 120.541 206.228 120.541 206.414C120.541 206.676 120.439 206.905 120.227 207.099C120.015 207.294 119.785 207.395 119.53 207.395M121.313 204.833C121.254 204.833 121.203 204.858 121.16 204.909L120.923 205.306C120.728 204.951 120.371 204.748 119.913 204.748C119.522 204.748 119.166 204.858 118.843 205.069C118.512 205.281 118.257 205.568 118.07 205.915C117.884 206.262 117.79 206.643 117.79 207.04C117.79 207.438 117.917 207.759 118.189 208.03C118.452 208.309 118.775 208.444 119.148 208.444C119.615 208.444 120.023 208.258 120.371 207.886L120.439 208.275C120.465 208.326 120.498 208.359 120.558 208.359H121.033C121.11 208.359 121.169 208.317 121.186 208.233L121.424 207.116L121.56 206.465L121.882 204.951C121.899 204.867 121.865 204.824 121.789 204.824H121.313V204.833ZM120.524 204.291C120.634 204.291 120.677 204.266 120.778 204.139L121.687 203.141C121.772 203.04 121.729 202.93 121.619 202.93H121.093C120.991 202.93 120.906 202.98 120.838 203.082L120.125 204.097C120.048 204.207 120.091 204.291 120.201 204.291H120.532H120.524ZM116.194 204.748C115.956 204.748 115.71 204.807 115.464 204.934C115.218 205.061 115.014 205.222 114.853 205.425L114.768 204.909C114.751 204.858 114.708 204.833 114.657 204.833H114.182C114.106 204.833 114.046 204.875 114.029 204.959L113.766 206.177L113.324 208.241C113.307 208.317 113.342 208.359 113.426 208.359H114.242C114.318 208.359 114.369 208.317 114.394 208.241L114.81 206.304C114.87 206.135 114.98 205.991 115.15 205.873C115.32 205.754 115.498 205.695 115.693 205.695C115.888 205.695 116.024 205.754 116.118 205.881C116.211 206.008 116.236 206.169 116.194 206.364L115.795 208.241C115.778 208.317 115.812 208.359 115.897 208.359H116.712C116.797 208.359 116.848 208.317 116.865 208.241L117.264 206.364C117.366 205.881 117.315 205.492 117.111 205.196C116.916 204.9 116.61 204.756 116.203 204.756M112.263 204.833C112.187 204.833 112.136 204.867 112.119 204.951L111.414 208.25C111.397 208.334 111.423 208.368 111.508 208.368H112.331C112.408 208.368 112.459 208.334 112.475 208.25L113.18 204.951C113.197 204.875 113.163 204.833 113.087 204.833H112.263ZM112.764 204.41C112.934 204.41 113.087 204.351 113.231 204.232C113.367 204.122 113.46 203.978 113.494 203.809C113.528 203.649 113.494 203.505 113.409 203.386C113.316 203.268 113.189 203.209 113.019 203.209C112.849 203.209 112.696 203.268 112.561 203.386C112.416 203.505 112.331 203.649 112.297 203.809C112.263 203.978 112.289 204.122 112.382 204.232C112.475 204.351 112.603 204.41 112.773 204.41M108.307 206.558C108.358 206.33 108.477 206.144 108.655 206C108.842 205.856 109.046 205.78 109.283 205.78C109.521 205.78 109.708 205.856 109.827 206C109.945 206.144 109.98 206.33 109.929 206.558C109.886 206.778 109.767 206.964 109.581 207.099C109.394 207.243 109.182 207.319 108.944 207.319C108.714 207.319 108.545 207.243 108.426 207.099C108.307 206.955 108.265 206.769 108.307 206.558ZM110.701 204.833C110.642 204.833 110.591 204.858 110.548 204.909L110.311 205.306C110.124 204.951 109.767 204.748 109.292 204.748C108.816 204.748 108.366 204.917 107.984 205.264C107.602 205.611 107.348 206.051 107.229 206.609C107.008 207.573 107.594 208.368 108.536 208.351C108.927 208.351 109.292 208.224 109.623 207.953L109.572 208.156C109.513 208.385 109.402 208.579 109.232 208.715C109.063 208.858 108.867 208.926 108.63 208.926C108.358 208.926 108.069 208.867 107.772 208.757C107.687 208.732 107.628 208.749 107.585 208.808L107.229 209.357C107.17 209.451 107.17 209.51 107.22 209.544C107.373 209.637 107.569 209.713 107.798 209.772C108.035 209.823 108.273 209.848 108.519 209.848C109.037 209.84 109.479 209.687 109.861 209.391C110.234 209.087 110.481 208.681 110.591 208.173L110.769 207.353L110.956 206.49L111.279 204.968C111.295 204.892 111.262 204.841 111.176 204.841H110.701V204.833ZM106.015 204.833C105.939 204.833 105.888 204.867 105.871 204.951L105.166 208.25C105.149 208.334 105.174 208.368 105.259 208.368H106.083C106.159 208.368 106.21 208.334 106.227 208.25L106.932 204.951C106.949 204.875 106.915 204.833 106.838 204.833H106.015ZM106.507 204.41C106.677 204.41 106.83 204.351 106.974 204.232C107.11 204.122 107.203 203.978 107.237 203.809C107.271 203.649 107.237 203.505 107.152 203.386C107.059 203.268 106.932 203.209 106.762 203.209C106.592 203.209 106.439 203.268 106.303 203.386C106.159 203.505 106.074 203.649 106.04 203.809C106.006 203.978 106.032 204.122 106.125 204.232C106.219 204.351 106.346 204.41 106.516 204.41M105.217 205.086C104.996 204.858 104.741 204.74 104.453 204.74C104.24 204.74 104.028 204.799 103.808 204.917C103.587 205.035 103.391 205.205 103.23 205.399L103.145 204.9C103.128 204.85 103.086 204.824 103.035 204.824H102.559C102.483 204.824 102.432 204.867 102.407 204.951L102.143 206.169L101.702 208.233C101.685 208.309 101.719 208.351 101.796 208.351H102.61C102.687 208.351 102.746 208.309 102.763 208.233L103.154 206.431C103.213 206.22 103.341 206.034 103.519 205.881C103.697 205.729 103.884 205.653 104.096 205.653C104.258 205.653 104.402 205.729 104.538 205.865C104.589 205.924 104.648 205.907 104.724 205.822L105.191 205.264C105.259 205.188 105.268 205.129 105.225 205.086M99.3334 207.438C98.9344 207.438 98.6712 207.175 98.6712 206.795C98.6712 206.516 98.7731 206.27 98.9768 206.059C99.1806 205.848 99.4183 205.746 99.6985 205.746C100.097 205.746 100.352 206.008 100.352 206.389C100.352 206.659 100.25 206.905 100.047 207.116C99.8428 207.328 99.6051 207.438 99.3249 207.438M99.1212 208.444C99.4353 208.444 99.7324 208.385 100.021 208.267C100.31 208.148 100.556 207.987 100.768 207.784C100.972 207.581 101.142 207.345 101.269 207.066C101.388 206.786 101.456 206.499 101.456 206.203C101.456 205.78 101.311 205.433 101.031 205.154C100.743 204.883 100.378 204.748 99.9192 204.748C99.2655 204.748 98.6627 205.002 98.2552 205.408C97.8477 205.814 97.593 206.38 97.593 206.989C97.593 207.387 97.7373 207.725 98.026 208.013C98.3147 208.3 98.6797 208.444 99.1297 208.444" fill="white"/>
</g>
<defs>
<radialGradient id="paint0_radial_272_467" cx="0" cy="0" r="1" gradientUnits="userSpaceOnUse" gradientTransform="translate(124.799 118.788) rotate(90) scale(50.7842 50.9766)">
<stop stop-color="#C1161C"/>
<stop offset="0.471161" stop-color="#BF151B"/>
<stop offset="0.728661" stop-color="#9C0C0E"/>
<stop offset="1" stop-color="#720101"/>
</radialGradient>
<radialGradient id="paint1_radial_272_467" cx="0" cy="0" r="1" gradientUnits="userSpaceOnUse" gradientTransform="translate(124.802 49.1497) scale(14.1864 14.1328)">
<stop stop-color="#0059AA"/>
<stop offset="0.49" stop-color="#0059AA"/>
<stop offset="0.61" stop-color="#0353A4"/>
<stop offset="0.77" stop-color="#0D4395"/>
<stop offset="0.95" stop-color="#1D297D"/>
<stop offset="1" stop-color="#232075"/>
</radialGradient>
<linearGradient id="paint2_linear_272_467" x1="137.249" y1="196.045" x2="167.812" y2="197.323" gradientUnits="userSpaceOnUse">
<stop stop-color="#ED1D23"/>
<stop offset="1" stop-color="#250101"/>
</linearGradient>
</defs>
</svg>
