<svg width="250" height="250" viewBox="0 0 250 250" fill="none" xmlns="http://www.w3.org/2000/svg">
<rect width="250" height="250" fill="#FFA500"/>
<path fill-rule="evenodd" clip-rule="evenodd" d="M43.7907 100.643C42.7558 100.643 41.8799 101.017 41.1217 101.742C40.3739 102.49 40 103.397 40 104.432V145.717C40 146.785 40.3739 147.659 41.1217 148.373C41.8799 149.121 42.7558 149.505 43.7907 149.505H43.8754C44.9104 149.505 45.7863 149.121 46.5444 148.373C47.2922 147.659 47.6641 146.783 47.6641 145.717V128.608C47.6641 126.538 48.3788 124.786 49.8208 123.313C51.2833 121.84 53.0331 121.126 55.1154 121.126C57.175 121.126 58.9247 121.84 60.3873 123.313C61.8292 124.786 62.544 126.536 62.544 128.608V145.717C62.544 146.785 62.9179 147.659 63.6636 148.373C64.4218 149.121 65.3286 149.505 66.3636 149.505H66.4173C67.4853 149.505 68.3592 149.121 69.0863 148.373C69.8341 147.659 70.208 146.783 70.208 145.717V128.608C70.208 124.445 68.7351 120.88 65.7687 117.903C62.7919 114.937 59.2676 113.464 55.1174 113.464C51.7874 113.464 49.3208 114.094 47.6682 115.31V104.432C47.6682 103.397 47.2943 102.49 46.5486 101.742C45.7904 101.017 44.9145 100.643 43.8796 100.643H43.7907ZM93.5494 121.19C96.4002 121.19 98.8316 122.194 100.871 124.233C102.899 126.261 103.901 128.705 103.901 131.587C103.901 134.435 102.897 136.881 100.871 138.92C98.8316 140.949 96.3981 141.951 93.5494 141.951C90.6676 141.951 88.2341 140.947 86.1952 138.92C84.1996 136.881 83.1957 134.438 83.1957 131.587C83.1957 128.705 84.1996 126.261 86.1952 124.233C88.2341 122.192 90.6676 121.19 93.5494 121.19ZM93.5494 113.462C88.575 113.462 84.3484 115.211 80.8159 118.744C77.2834 122.287 75.5316 126.513 75.5316 131.488C75.5316 136.472 77.2813 140.699 80.8159 144.231C84.3484 147.754 88.575 149.503 93.5494 149.503C98.5238 149.503 102.75 147.754 106.283 144.231C109.815 140.699 111.567 136.472 111.567 131.488C111.567 126.513 109.817 122.287 106.283 118.744C102.75 115.211 98.5238 113.462 93.5494 113.462ZM124.555 128.511C124.555 126.472 125.27 124.722 126.712 123.28C128.153 121.838 129.903 121.124 131.932 121.124C133.96 121.124 135.71 121.838 137.15 123.28C138.592 124.722 139.307 126.472 139.307 128.511V145.717C139.307 146.785 139.681 147.659 140.428 148.373C141.186 149.121 142.093 149.505 143.128 149.505H143.182C144.25 149.505 145.124 149.121 145.851 148.373C146.599 147.659 146.971 146.783 146.971 145.717V128.511C146.971 126.472 147.696 124.722 149.127 123.28C150.569 121.838 152.329 121.124 154.358 121.124C156.428 121.124 158.18 121.838 159.62 123.28C161.061 124.722 161.776 126.472 161.776 128.511V145.717C161.776 146.785 162.15 147.659 162.908 148.373C163.623 149.121 164.499 149.505 165.555 149.505H165.619C166.643 149.505 167.55 149.121 168.298 148.373C169.023 147.659 169.397 146.752 169.397 145.717V128.511C169.397 124.379 167.924 120.847 164.989 117.87C162.063 114.934 158.521 113.462 154.358 113.462C149.384 113.462 145.659 115.116 143.151 118.403C140.623 115.116 136.908 113.462 131.934 113.462C127.782 113.462 124.249 114.934 121.303 117.87C118.368 120.847 116.895 124.381 116.895 128.511V145.717C116.895 146.785 117.269 147.659 118.017 148.373C118.775 149.121 119.651 149.505 120.686 149.505H120.766C121.801 149.505 122.677 149.121 123.435 148.373C124.183 147.659 124.555 146.783 124.555 145.717V128.511ZM192.682 121.19C195.895 121.19 198.275 122.097 199.801 123.943L182.349 131.81V131.585C182.349 128.703 183.353 126.259 185.349 124.23C187.367 122.192 189.801 121.19 192.682 121.19ZM209.023 123.974C207.614 120.847 205.426 118.306 202.491 116.407C199.524 114.432 196.269 113.462 192.682 113.462C187.708 113.462 183.492 115.211 179.959 118.744C176.437 122.287 174.687 126.513 174.687 131.488C174.687 136.472 176.437 140.699 179.972 144.231C183.504 147.754 187.731 149.503 192.705 149.503C196.579 149.503 200.08 148.371 203.208 146.099C206.302 143.911 208.459 141.04 209.686 137.474C209.835 137.005 209.932 136.567 209.932 136.129C209.932 135.404 209.686 134.688 209.217 134.026C208.428 132.927 207.403 132.392 206.123 132.392C204.309 132.392 203.082 133.246 202.493 134.964C201.768 137.003 200.551 138.689 198.768 139.98C196.955 141.294 194.926 141.945 192.705 141.945C189.354 141.945 186.888 140.941 185.287 138.945C186.322 138.476 189.759 136.875 195.672 134.217L207.178 129.019C208.149 128.581 208.843 127.856 209.184 126.885C209.333 126.447 209.43 126.009 209.43 125.573C209.397 125.042 209.269 124.509 209.023 123.974Z" fill="white"/>
<path d="M79.4958 104.052C78.2873 103.806 77.5457 103.628 77.5457 103.112C77.5457 102.6 78.0683 102.292 78.9422 102.292C80.0019 102.292 81.0369 102.635 81.7806 103.234L81.8529 103.294L83.1626 101.794L83.1027 101.744C82.0718 100.916 80.7229 100.495 79.095 100.495C76.7814 100.495 75.1639 101.618 75.1639 103.228C75.1639 105.231 77.2606 105.649 78.9463 105.985L79.0145 105.998C80.1734 106.233 80.9935 106.446 80.9935 107.043C80.9935 107.483 80.4709 107.954 79.3223 107.954C77.6944 107.954 76.6492 107.225 76.1699 106.789L76.0955 106.721L74.8023 108.278L74.856 108.326C75.9427 109.27 77.4094 109.749 79.2169 109.749C81.8116 109.749 83.3609 108.663 83.3609 106.845C83.3609 104.816 81.1278 104.374 79.4958 104.052Z" fill="white"/>
<path d="M97.4021 100.631H92.5743V109.596H94.9107V106.44H97.4021C99.8128 106.44 100.893 104.988 100.893 103.548C100.891 102.096 99.8128 100.631 97.4021 100.631ZM98.5093 103.535C98.5093 104.205 97.935 104.672 97.1128 104.672H94.9107V102.399H97.1128C97.935 102.399 98.5093 102.866 98.5093 103.535Z" fill="white"/>
<path d="M109.908 109.596H117.866V107.814H112.177V105.926H117.76V104.155H112.177V102.399H117.866V100.631H109.908V109.596Z" fill="white"/>
<path d="M136.193 100.714H133.297L129.849 104.502V100.714H127.511V109.679H129.849V106.923L130.544 106.202L133.57 109.679H136.46L132.091 104.928L136.193 100.714Z" fill="white"/>
<path d="M144.585 102.438H147.799V109.596H150.127V102.438H153.319V100.631H144.585V102.438Z" fill="white"/>
<path d="M171.114 103.548C171.114 101.802 169.711 100.629 167.622 100.629H162.336V109.594H164.672V106.44H166.565L168.554 109.596H171.24L168.942 106.213C169.973 105.959 171.114 105.126 171.114 103.548ZM164.674 102.399H167.304C168.145 102.399 168.732 102.866 168.732 103.535C168.732 104.205 168.145 104.672 167.304 104.672H164.674V102.399Z" fill="white"/>
<path d="M187.169 105.938C187.169 107.206 186.355 107.933 184.936 107.933C183.498 107.933 182.674 107.206 182.674 105.938V100.631H180.306V106.006C180.306 108.39 181.994 109.756 184.936 109.756C187.859 109.756 189.536 108.384 189.536 105.992V100.631H187.169V105.938Z" fill="white"/>
<path d="M206.812 100.631L204.414 105.985L202.038 100.68L202.016 100.631H198.843V109.596H201.179V103.595L203.858 109.545L203.881 109.596H204.947L207.649 103.595V109.596H210V100.631H206.812Z" fill="white"/>
</svg>
