<svg width="250" height="250" viewBox="0 0 250 250" fill="none" xmlns="http://www.w3.org/2000/svg">
<rect width="250" height="250" fill="#46358B"/>
<path d="M54.9984 123.888C54.0659 123.453 53.0362 123.09 51.9424 122.808L48.9134 122.031C47.9995 121.795 47.218 121.504 46.5936 121.165C45.9878 120.834 45.6797 120.418 45.6797 119.926C45.6797 119.293 45.9485 118.785 46.4799 118.415C47.0174 118.036 47.77 117.846 48.7149 117.846H48.7625C51.2333 117.846 53.3526 118.648 55.0583 120.232L55.1121 120.282L57.8124 116.686L57.7669 116.645C55.5401 114.625 52.6351 113.599 49.1305 113.599C46.6101 113.599 44.5591 114.248 43.0394 115.528C41.5155 116.812 40.7423 118.421 40.7423 120.313C40.7423 121.622 41.0627 122.746 41.6934 123.656C42.324 124.564 43.12 125.24 44.0587 125.662C44.9912 126.081 46.025 126.431 47.1311 126.7L50.1747 127.44C51.0844 127.661 51.8556 127.967 52.4697 128.349C53.0672 128.724 53.3712 129.199 53.3712 129.764C53.3712 130.417 53.0507 130.984 52.418 131.449C51.7791 131.918 50.8425 132.156 49.6309 132.156C46.9203 132.146 44.5921 131.137 42.7065 129.158L42.6507 129.098L40.0331 132.82L40 132.865L40.0393 132.904C42.3653 135.222 45.5267 136.399 49.4365 136.399C52.3001 136.399 54.5166 135.741 56.026 134.445C57.5394 133.144 58.3065 131.414 58.3065 129.299C58.3065 127.975 57.9881 126.84 57.3596 125.924C56.7331 125.012 55.9391 124.326 54.9984 123.888Z" fill="white"/>
<path d="M70.2986 113.92H59.9482V136H64.7574V128.176H70.2965C72.5915 128.176 74.4276 127.485 75.755 126.123C77.0824 124.762 77.7543 123.056 77.7543 121.055C77.7543 119.033 77.0886 117.321 75.7715 115.965C74.4545 114.608 72.6122 113.92 70.2986 113.92ZM64.7554 118.167H69.6204C70.5426 118.167 71.3138 118.431 71.9134 118.952C72.5109 119.473 72.8149 120.18 72.8149 121.055C72.8149 121.909 72.5109 122.608 71.9134 123.133C71.3117 123.66 70.5405 123.927 69.6204 123.927H64.7554V118.167Z" fill="white"/>
<path d="M79.3733 136H95.0436V131.753H84.1825V126.89H94.8017V122.643H84.1825V118.167H95.0436V113.92H79.3733V136Z" fill="white"/>
<path d="M116.083 113.92H110.141L102.479 123.563V113.92H97.6715V136H102.479V129.21L104.114 127.221L110.714 135.973L110.735 136H116.673L107.302 124.287L116.083 113.92Z" fill="white"/>
<path d="M116.197 118.167H122.64V136H127.449V118.167H133.859V113.92H116.197V118.167Z" fill="white"/>
<path d="M151.828 125.478C152.787 124.351 153.273 122.862 153.273 121.057C153.273 118.971 152.591 117.24 151.245 115.917C149.899 114.592 148.067 113.922 145.801 113.922H135.467V136H140.276V128.207H143.593L147.881 135.964L147.9 136H153.455L148.477 127.622C149.765 127.299 150.892 126.578 151.828 125.478ZM148.338 121.024C148.338 121.921 148.034 122.641 147.437 123.166C146.835 123.693 146.064 123.96 145.144 123.96H140.279V118.167H145.144C146.066 118.167 146.837 118.431 147.437 118.952C148.034 119.473 148.338 120.17 148.338 121.024Z" fill="white"/>
<path d="M170.002 113.92V127.039C170.002 128.591 169.56 129.844 168.685 130.767C167.813 131.687 166.547 132.154 164.928 132.154C163.307 132.154 162.04 131.687 161.155 130.767C160.27 129.844 159.821 128.591 159.821 127.039V113.92H155.012V127.144C155.012 129.956 155.858 132.226 157.522 133.891C159.189 135.555 161.682 136.401 164.937 136.401C168.189 136.401 170.697 135.557 172.39 133.891C174.084 132.226 174.942 129.956 174.942 127.144V113.92H170.002Z" fill="white"/>
<path d="M200.516 113.676C197.477 113.676 195.02 114.552 193.35 116.306C191.71 114.563 189.285 113.676 186.239 113.676C180.355 113.676 176.629 116.932 176.629 123.567V135.933H181.451V123.379C181.451 119.903 183.235 118.119 186.177 118.119C189.119 118.119 190.904 119.965 190.904 123.534V135.931H190.906H195.723H195.725V123.379C195.725 119.903 197.51 118.119 200.452 118.119C203.394 118.119 205.178 119.965 205.178 123.534V135.931H210V123.41C210.002 116.963 206.4 113.676 200.516 113.676Z" fill="white"/>
</svg>
