<svg width="250" height="250" viewBox="0 0 250 250" fill="none" xmlns="http://www.w3.org/2000/svg">
<rect width="250" height="250" fill="#010101"/>
<path fill-rule="evenodd" clip-rule="evenodd" d="M173.463 108.272H56.9275C47.2857 108.272 40 115.376 40 124.801V141.728H172.991H199.706C205.977 141.728 210 137.27 210 131.289V108.272H173.463Z" fill="white"/>
<path fill-rule="evenodd" clip-rule="evenodd" d="M178.429 110.193H57.435C49.4606 110.193 42.2111 115.811 42.2111 124.764V139.735H178.429V110.193Z" fill="#010101"/>
<path fill-rule="evenodd" clip-rule="evenodd" d="M84.2218 112.549C77.4073 112.549 71.8614 118.095 71.8614 124.909V137.342H79.2196V135.965V124.909C79.2196 122.155 81.467 119.907 84.2218 119.907C86.9766 119.907 89.2239 122.155 89.2239 124.909C89.2239 127.664 86.9766 129.912 84.2218 129.912C83.3156 129.912 82.4456 129.658 81.7207 129.223V136.98C82.5544 137.161 83.3881 137.234 84.258 137.234C91.1088 137.234 96.6546 131.688 96.6546 124.837C96.5821 118.095 91.0363 112.549 84.2218 112.549Z" fill="white"/>
<path fill-rule="evenodd" clip-rule="evenodd" d="M111.117 129.984C108.362 129.984 106.115 127.737 106.115 124.982C106.115 122.227 108.362 119.98 111.117 119.98C113.872 119.98 116.119 122.227 116.119 124.982C116.119 127.737 113.872 129.984 111.117 129.984ZM111.081 112.622C104.267 112.622 98.7207 118.167 98.7207 124.982C98.7207 131.833 104.267 137.342 111.081 137.342C117.896 137.342 123.441 131.796 123.441 124.982C123.441 118.167 117.932 112.622 111.081 112.622Z" fill="white"/>
<path fill-rule="evenodd" clip-rule="evenodd" d="M148.923 112.549H137.687C131.017 112.803 125.725 118.276 125.689 125.018V137.378H133.156V125.018C133.156 122.227 135.403 119.944 138.23 119.944H148.96L148.923 112.549Z" fill="white"/>
<path fill-rule="evenodd" clip-rule="evenodd" d="M163.966 129.948C161.175 129.948 158.891 127.7 158.891 124.873V112.585H151.497V124.873C151.497 131.76 157.079 137.342 163.966 137.342C169.041 137.342 173.426 134.297 175.384 129.912H163.966V129.948Z" fill="white"/>
<path d="M175.964 112.585H161.429V119.907H175.964V112.585Z" fill="white"/>
<path fill-rule="evenodd" clip-rule="evenodd" d="M69.3966 112.549C69.3966 112.549 59.6098 112.549 57.1812 112.549C54.7527 112.549 52.9403 113.093 51.3817 113.963C49.2793 115.086 46.887 116.826 45.4733 120.596C44.0597 124.366 44.9659 127.519 44.9659 127.519H52.7953C52.7953 127.519 51.3092 125.199 52.3966 122.916C53.5565 120.487 55.4051 119.907 56.7825 119.907C58.7761 119.907 69.3603 119.907 69.3603 119.907L69.3966 112.549Z" fill="white"/>
<path fill-rule="evenodd" clip-rule="evenodd" d="M44.5672 137.342H56.7825C59.2111 137.342 61.0235 136.762 62.5821 135.892C64.6844 134.732 67.0405 133.029 68.4542 129.259C69.8678 125.489 68.9979 122.372 68.9979 122.372H61.2047C61.2047 122.372 62.6546 124.656 61.5672 126.939C60.4073 129.368 58.5586 129.948 57.1812 129.948C55.1876 129.948 44.6034 129.948 44.6034 129.948L44.5672 137.342Z" fill="white"/>
<path fill-rule="evenodd" clip-rule="evenodd" d="M59.8273 124.909C59.8273 126.541 58.4861 127.882 56.855 127.882C55.2239 127.882 53.8827 126.541 53.8827 124.909C53.8827 123.278 55.2239 121.937 56.855 121.937C58.5224 121.937 59.8273 123.278 59.8273 124.909Z" fill="#E22122"/>
<path fill-rule="evenodd" clip-rule="evenodd" d="M178.429 139.735H197.893C202.388 139.735 204.273 138.14 204.962 137.632C207.1 136.001 207.789 133.391 207.789 129.948V110.193H178.429V139.735Z" fill="#E22122"/>
<path fill-rule="evenodd" clip-rule="evenodd" d="M203.475 114.869C202.134 113.347 200.431 112.549 198.401 112.549H180.893V119.907H197.023C198.328 119.907 198.328 122.01 197.023 122.01H192.601C184.119 122.01 180.785 126.106 180.893 134.297V137.27H198.945C198.945 137.27 201.699 137.161 203.693 135.385C205.36 133.899 205.397 130.492 205.397 130.492V129.839H188.795C189.013 128.933 189.774 127.773 192.493 127.737H198.401C200.467 127.737 202.134 126.976 203.475 125.417C204.708 123.967 205.36 122.227 205.36 120.125C205.36 118.131 204.744 116.355 203.475 114.869Z" fill="white"/>
</svg>
