<svg width="250" height="250" viewBox="0 0 250 250" fill="none" xmlns="http://www.w3.org/2000/svg">
<rect width="250" height="250" fill="#010101"/>
<path fill-rule="evenodd" clip-rule="evenodd" d="M173.463 108.272H56.9275C47.2857 108.272 40 115.376 40 124.801V141.728H172.991H199.706C205.977 141.728 210 137.27 210 131.289V108.272H173.463Z" fill="white"/>
<path fill-rule="evenodd" clip-rule="evenodd" d="M178.429 110.193H57.4349C49.4605 110.193 42.2111 115.811 42.2111 124.764V139.735H178.429V110.193Z" fill="#010101"/>
<path fill-rule="evenodd" clip-rule="evenodd" d="M84.2217 112.549C77.4072 112.549 71.8614 118.095 71.8614 124.909V137.342H79.2196V135.965V124.909C79.2196 122.155 81.4669 119.907 84.2217 119.907C86.9765 119.907 89.2239 122.155 89.2239 124.909C89.2239 127.664 86.9765 129.912 84.2217 129.912C83.3155 129.912 82.4456 129.658 81.7207 129.223V136.98C82.5544 137.161 83.388 137.234 84.258 137.234C91.1087 137.234 96.6546 131.688 96.6546 124.837C96.5821 118.095 91.0362 112.549 84.2217 112.549Z" fill="white"/>
<path fill-rule="evenodd" clip-rule="evenodd" d="M111.117 129.984C108.362 129.984 106.115 127.737 106.115 124.982C106.115 122.227 108.362 119.98 111.117 119.98C113.872 119.98 116.119 122.227 116.119 124.982C116.119 127.737 113.872 129.984 111.117 129.984ZM111.081 112.622C104.267 112.622 98.7207 118.167 98.7207 124.982C98.7207 131.833 104.267 137.342 111.081 137.342C117.896 137.342 123.441 131.796 123.441 124.982C123.441 118.167 117.932 112.622 111.081 112.622Z" fill="white"/>
<path fill-rule="evenodd" clip-rule="evenodd" d="M148.923 112.549H137.687C131.017 112.803 125.725 118.276 125.689 125.018V137.378H133.156V125.018C133.156 122.227 135.403 119.944 138.23 119.944H148.96L148.923 112.549Z" fill="white"/>
<path fill-rule="evenodd" clip-rule="evenodd" d="M163.966 129.948C161.175 129.948 158.891 127.7 158.891 124.873V112.585H151.497V124.873C151.497 131.76 157.079 137.342 163.966 137.342C169.041 137.342 173.426 134.297 175.384 129.912H163.966V129.948Z" fill="white"/>
<path d="M175.964 112.585H161.429V119.907H175.964V112.585Z" fill="white"/>
<path fill-rule="evenodd" clip-rule="evenodd" d="M69.3966 112.549C69.3966 112.549 59.6098 112.549 57.1812 112.549C54.7527 112.549 52.9403 113.093 51.3817 113.963C49.2793 115.086 46.887 116.826 45.4733 120.596C44.0597 124.366 44.9659 127.519 44.9659 127.519H52.7953C52.7953 127.519 51.3092 125.199 52.3966 122.916C53.5565 120.487 55.4051 119.907 56.7825 119.907C58.7761 119.907 69.3603 119.907 69.3603 119.907L69.3966 112.549Z" fill="white"/>
<path fill-rule="evenodd" clip-rule="evenodd" d="M44.5671 137.342H56.7825C59.2111 137.342 61.0234 136.762 62.5821 135.892C64.6844 134.732 67.0405 133.029 68.4541 129.259C69.8678 125.489 68.9978 122.372 68.9978 122.372H61.2047C61.2047 122.372 62.6546 124.656 61.5671 126.939C60.4072 129.368 58.5586 129.948 57.1812 129.948C55.1876 129.948 44.6034 129.948 44.6034 129.948L44.5671 137.342Z" fill="white"/>
<path fill-rule="evenodd" clip-rule="evenodd" d="M59.8273 124.909C59.8273 126.541 58.4862 127.882 56.855 127.882C55.2239 127.882 53.8828 126.541 53.8828 124.909C53.8828 123.278 55.2239 121.937 56.855 121.937C58.5224 121.937 59.8273 123.278 59.8273 124.909Z" fill="#E22122"/>
<path fill-rule="evenodd" clip-rule="evenodd" d="M178.429 139.735H197.893C202.388 139.735 204.273 138.14 204.962 137.632C207.1 136.001 207.789 133.391 207.789 129.948V110.193H178.429V139.735Z" fill="#E22122"/>
<path d="M180.854 112.622C183.149 112.622 185.526 112.622 187.821 112.622C188.887 112.622 189.953 112.622 191.1 112.622C192.166 112.622 193.232 112.622 194.215 112.622C194.625 112.622 195.035 112.622 195.445 112.622C198.724 112.622 201.074 113.141 202.495 114.179C202.659 114.261 202.823 114.425 203.069 114.507C204.708 116.064 205.282 118.032 205.364 120.245C205.364 120.819 205.364 121.311 205.364 121.885C205.364 122.212 205.364 122.458 205.364 122.786C205.364 123.36 205.364 124.016 205.364 124.59C205.364 125.327 205.364 126.147 205.364 126.885C205.364 127.459 205.364 128.115 205.364 128.688C205.364 129.098 205.364 129.508 205.364 129.918C205.364 131.967 205.118 134.017 203.724 135.574C202.003 137.05 200.036 137.541 197.822 137.541C197.658 137.541 197.494 137.541 197.248 137.541C196.675 137.541 196.019 137.541 195.445 137.541C195.035 137.541 194.625 137.541 194.215 137.541C193.15 137.541 192.002 137.541 190.936 137.541C189.789 137.541 188.641 137.541 187.576 137.541C185.362 137.541 183.149 137.541 180.936 137.541V130.082C186.51 130.027 192.139 129.945 197.822 129.836V128.36C194.871 128.36 191.92 128.196 188.805 128.115V122.376C189.379 122.376 190.035 122.376 190.691 122.376C191.264 122.376 191.838 122.376 192.494 122.376C192.904 122.376 193.314 122.376 193.724 122.376C194.297 122.376 194.871 122.376 195.527 122.376C195.691 122.376 195.882 122.376 196.101 122.376C196.319 122.376 196.839 122.294 197.658 122.13C198.478 121.967 198.478 121.529 197.658 120.819C197.248 120.409 196.511 120.573 195.937 120.573C195.773 120.573 195.609 120.573 195.445 120.573C194.871 120.573 194.379 120.573 193.806 120.573C193.478 120.573 193.068 120.573 192.74 120.573C191.756 120.573 190.773 120.573 189.789 120.573C188.641 120.573 187.494 120.573 186.264 120.573C184.461 120.573 182.739 120.573 180.936 120.573V113.113L180.854 112.622Z" fill="#FEF9F9"/>
</svg>
