<svg width="250" height="250" viewBox="0 0 250 250" fill="none" xmlns="http://www.w3.org/2000/svg">
<rect width="250" height="250" fill="#010101"/>
<path fill-rule="evenodd" clip-rule="evenodd" d="M173.499 108.272H56.9638C47.2857 108.272 40 115.376 40 124.801V141.728H172.991H199.706C205.977 141.728 210 137.27 210 131.289V108.272H173.499Z" fill="white"/>
<path fill-rule="evenodd" clip-rule="evenodd" d="M178.465 110.266H57.4712C49.4968 110.266 42.2473 115.884 42.2473 124.837V139.807H178.465V110.266Z" fill="#010101"/>
<path fill-rule="evenodd" clip-rule="evenodd" d="M84.2217 112.622C77.4072 112.622 71.8614 118.167 71.8614 124.982V137.415H79.2196V136.037V124.982C79.2196 122.227 81.4669 119.98 84.2217 119.98C86.9765 119.98 89.2239 122.227 89.2239 124.982C89.2239 127.737 86.9765 129.984 84.2217 129.984C83.3156 129.984 82.4456 129.73 81.7207 129.295V137.052C82.5544 137.234 83.3881 137.306 84.258 137.306C91.1087 137.306 96.6546 131.76 96.6546 124.909C96.6183 118.167 91.0725 112.622 84.2217 112.622Z" fill="white"/>
<path fill-rule="evenodd" clip-rule="evenodd" d="M111.117 130.057C108.362 130.057 106.115 127.809 106.115 125.054C106.115 122.3 108.362 120.052 111.117 120.052C113.872 120.052 116.119 122.3 116.119 125.054C116.119 127.809 113.908 130.057 111.117 130.057ZM111.117 112.658C104.267 112.658 98.7569 118.204 98.7569 125.018C98.7569 131.869 104.303 137.379 111.117 137.379C117.932 137.379 123.478 131.833 123.478 125.018C123.478 118.204 117.932 112.658 111.117 112.658Z" fill="white"/>
<path fill-rule="evenodd" clip-rule="evenodd" d="M148.959 112.585H137.723C131.053 112.839 125.761 118.312 125.725 125.054V137.415H133.156V125.054C133.156 122.263 135.403 119.98 138.23 119.98H148.959V112.585Z" fill="white"/>
<path fill-rule="evenodd" clip-rule="evenodd" d="M164.002 129.984C161.211 129.984 158.928 127.737 158.928 124.909V112.658H151.533V124.946C151.533 131.833 157.115 137.415 164.002 137.415C169.077 137.415 173.463 134.37 175.42 129.984H164.002Z" fill="white"/>
<path d="M176 112.658H161.465V119.98H176V112.658Z" fill="white"/>
<path fill-rule="evenodd" clip-rule="evenodd" d="M69.3966 112.622C69.3966 112.622 59.6098 112.622 57.1812 112.622C54.7527 112.622 52.9403 113.165 51.3817 114.035C49.2793 115.195 46.9232 116.899 45.5096 120.668C44.0959 124.438 45.0021 127.592 45.0021 127.592H52.8316C52.8316 127.592 51.3454 125.272 52.4328 122.988C53.5928 120.56 55.4414 119.98 56.8188 119.98C58.8124 119.98 69.3966 119.98 69.3966 119.98V112.622Z" fill="white"/>
<path fill-rule="evenodd" clip-rule="evenodd" d="M44.6034 137.378H56.8188C59.2473 137.378 61.0597 136.799 62.6183 135.929C64.7207 134.769 67.0768 133.065 68.4904 129.295C69.9041 125.526 69.0341 122.408 69.0341 122.408H61.2047C61.2047 122.408 62.6546 124.692 61.5672 126.975C60.4073 129.404 58.5586 129.984 57.1812 129.984C55.1876 129.984 44.6034 129.984 44.6034 129.984V137.378Z" fill="white"/>
<path fill-rule="evenodd" clip-rule="evenodd" d="M59.8635 124.982C59.8635 126.613 58.5224 127.954 56.8913 127.954C55.2601 127.954 53.919 126.613 53.919 124.982C53.919 123.351 55.2601 122.01 56.8913 122.01C58.5224 122.01 59.8635 123.351 59.8635 124.982Z" fill="#E22122"/>
<path fill-rule="evenodd" clip-rule="evenodd" d="M178.465 139.771H197.93C202.424 139.771 204.309 138.176 204.998 137.668C207.136 136.037 207.825 133.428 207.825 129.984V110.229H178.465V139.771Z" fill="#E22122"/>
<path fill-rule="evenodd" clip-rule="evenodd" d="M205.324 112.622H191.985V119.944H197.531V137.342C197.531 137.342 198.582 137.379 200.322 137.089C201.554 136.871 203.077 136.182 203.802 135.312C204.454 134.587 204.817 133.718 205.034 132.92C205.36 131.724 205.324 130.709 205.324 130.709V112.622Z" fill="white"/>
</svg>
