<svg width="250" height="250" viewBox="0 0 250 250" fill="none" xmlns="http://www.w3.org/2000/svg">
<rect width="250" height="250" fill="#F70D2F"/>
<path fill-rule="evenodd" clip-rule="evenodd" d="M159.078 158.438H163.115L161.11 144.851L159.078 158.438Z" fill="white"/>
<path fill-rule="evenodd" clip-rule="evenodd" d="M133.464 90.7549L130.29 112.193H136.638L133.464 90.7549Z" fill="white"/>
<path fill-rule="evenodd" clip-rule="evenodd" d="M157.909 89.2515H154.735V102.309H157.407C159.913 102.309 161.417 101.14 161.417 97.7988V93.6226C161.277 90.5879 160.247 89.2515 157.909 89.2515Z" fill="white"/>
<path fill-rule="evenodd" clip-rule="evenodd" d="M179.848 40L53.7258 53.2247L70.1523 210L196.274 196.775L179.848 40ZM138.642 83.21L145.519 125.585H138.809L137.64 117.873H129.427L128.257 125.585H122.049L128.926 83.21C128.926 83.21 138.642 83.21 138.642 83.21ZM103.144 83.21H123.747V89.2516H116.703V125.613H109.993V89.2516H102.95V83.21H103.144ZM81.3724 112.861H87.7481V115.868C87.7481 118.875 89.0845 120.044 91.2561 120.044C93.4278 120.044 94.7642 118.875 94.7642 115.868C94.7642 107.154 81.7065 105.483 81.7065 93.4278C81.7065 86.5509 85.0475 82.7088 91.5902 82.7088C98.133 82.7088 101.474 86.5509 101.474 93.4278V94.7642H94.9312V93.0937C94.9312 90.0868 93.7619 88.9175 91.5902 88.9175C89.4186 88.9175 88.2493 90.0868 88.2493 93.0937C88.2493 101.808 101.307 103.479 101.307 115.534C101.307 122.411 97.9659 126.253 91.4232 126.253C84.8804 126.253 81.5395 122.411 81.5395 115.534V112.861H81.3724ZM93.9289 149.055H89.9197V146.215C89.9197 144.378 89.0845 143.542 87.7481 143.542C86.4117 143.542 85.5765 144.211 85.5765 146.215V160.776C85.5765 162.614 86.4117 163.449 87.7481 163.449C89.0845 163.449 89.9197 162.781 89.9197 160.776V156.934H93.9289V160.442C93.9289 164.785 91.7573 167.152 87.5532 167.152C83.3492 167.152 81.1775 164.646 81.1775 160.442V146.549C81.1775 142.206 83.3492 139.84 87.5532 139.84C91.7573 139.84 93.9289 142.345 93.9289 146.549V149.055ZM100.806 166.79H96.6295V139.979H100.806V166.79ZM117.204 166.79H112.861L107.655 147.357V166.79H103.813V139.979H109.186L113.529 156.071V139.979H117.204C117.204 140.007 117.204 166.79 117.204 166.79ZM131.793 143.849H124.582V151.394H130.457V155.236H124.582V163.115H131.793V166.957H120.239V139.979H131.793V143.849ZM152.062 166.79H148.053V147.524L145.213 166.79H141.204L138.03 147.858V166.79H134.355V139.979H140.229L143.403 159.078L146.243 139.979H152.118V166.79H152.062ZM164.451 166.79L163.783 161.946H158.577L157.909 166.79H154.066L158.41 139.979H164.618L168.962 166.79H164.451ZM168.795 133.798H81.3724V131.793H168.655V133.798H168.795ZM161.946 125.585C161.612 124.415 161.277 123.914 161.277 120.378V113.669C161.277 109.659 159.941 108.295 156.934 108.295H154.595V125.557H147.886V83.21H157.936C164.813 83.21 167.82 86.3839 167.82 92.9266V96.2676C167.82 100.611 166.484 103.479 163.477 104.815C166.818 106.151 167.82 109.492 167.82 113.863V120.406C167.82 122.411 167.82 123.914 168.488 125.613H161.946V125.585Z" fill="white"/>
</svg>
