<svg width="250" height="250" viewBox="0 0 250 250" fill="none" xmlns="http://www.w3.org/2000/svg">
<rect width="250" height="250" fill="#E21E27"/>
<path d="M132.088 85.4866H135.631V95.4316H138.001V85.4866H141.517V83.2577H132.088V85.4866Z" fill="#494949"/>
<path d="M146.4 83.2578H143.979V95.4316H146.4V83.2578Z" fill="#494949"/>
<path d="M157.984 91.2088L152.032 83.2577H149.725V95.4316H152.096V87.5004L158.049 95.4316H160.354V83.2577H157.984V91.2088Z" fill="#494949"/>
<path d="M170.06 91.327H172.328C171.935 92.687 170.799 93.4621 169.186 93.4621C166.466 93.4621 165.228 91.3439 165.228 89.3792C165.228 87.3653 166.565 85.2272 169.04 85.2272C170.439 85.2272 171.595 85.941 171.851 86.9617L171.94 87.304H174.298L174.219 86.782C173.886 84.5902 171.694 83 169.008 83C164.993 83 162.827 86.294 162.827 89.3945C162.827 92.5228 164.993 95.6877 169.136 95.6877C172.057 95.6877 174.225 94.0209 174.821 91.327H176.107V89.0998H170.06V91.327Z" fill="#494949"/>
<path d="M207.374 83.2577L204.958 88.0529L201.951 83.2577H199.174L203.722 90.5272L201.251 95.4299H203.879L210 83.2577H207.374Z" fill="#494949"/>
<path d="M184.858 90.8129C185.619 90.3587 186.211 89.6682 186.543 88.8464C186.875 88.0247 186.93 87.1169 186.698 86.2613C186.467 85.4057 185.962 84.6493 185.26 84.1073C184.559 83.5654 183.7 83.2676 182.813 83.2594H178.112V95.4146H180.479V91.39H182.448L184.296 95.4329H186.965L184.858 90.8129ZM182.81 89.1582H180.479V85.4866H182.79C183.273 85.4899 183.736 85.6834 184.077 86.0252C184.418 86.367 184.611 86.8295 184.614 87.3126C184.616 87.7956 184.428 88.2602 184.091 88.6057C183.753 88.9512 183.293 89.1497 182.81 89.1582Z" fill="#494949"/>
<path d="M195.044 83.3623L195.008 83.2594H192.907L188.7 95.4329H191.278L192.179 92.7161H195.741L196.642 95.4329H199.219L195.044 83.3623ZM192.678 90.7224L193.958 86.8528L195.242 90.7224H192.678Z" fill="#494949"/>
<path d="M127.602 88.4337L125.408 87.9241C124.504 87.7092 124.055 87.2979 124.055 86.6103C124.055 85.7475 124.819 85.2011 125.955 85.2011C127.209 85.2011 127.896 85.8274 128.17 86.6316H130.661C130.268 84.5902 128.681 83.1396 125.935 83.1396C123.405 83.1396 121.605 84.67 121.605 86.8465C121.605 88.825 122.937 89.7461 124.661 90.1406L126.817 90.6287C127.86 90.8651 128.286 91.2548 128.286 91.9824C128.286 92.9434 127.484 93.4913 126.27 93.4913C125.094 93.4913 124.21 93.0017 123.881 91.9425H121.29C121.7 94.2373 123.603 95.5681 126.288 95.5681C128.837 95.5681 130.758 94.159 130.758 91.8229C130.758 90.0024 129.562 88.8833 127.602 88.4337Z" fill="#494949"/>
<path d="M56.611 108.611L69.9384 106.115V143.877H73.4843V144.926H60.09V141.381C59.3106 142.429 58.3942 143.368 57.3653 144.173C56.2056 145.112 54.794 145.582 53.1306 145.582C50.941 145.582 49.0261 145.167 47.3858 144.336C45.7915 143.544 44.3906 142.412 43.2822 141.019C42.1734 139.612 41.3382 138.009 40.8199 136.294C40.2766 134.54 40.0003 132.714 40 130.877C39.9986 129.051 40.2751 127.236 40.8199 125.493C41.3429 123.79 42.1779 122.199 43.2822 120.801C44.3913 119.409 45.792 118.277 47.3858 117.484C49.027 116.652 50.9419 116.237 53.1306 116.238C54.9698 116.238 56.4579 116.565 57.5949 117.219C58.735 117.878 59.5667 118.71 60.09 119.716V109.004L56.611 109.66L56.611 108.611ZM51.2926 134.158C51.2926 136.26 51.3468 137.935 51.4553 139.183C51.5668 140.429 51.7399 141.381 51.9827 142.037C52.2214 142.693 52.5611 143.134 52.9993 143.352C53.5139 143.586 54.0755 143.698 54.6405 143.68C55.2196 143.677 55.7871 143.517 56.2831 143.218C56.8353 142.891 57.3428 142.495 57.793 142.037C58.2715 141.56 58.7103 141.044 59.1048 140.495C59.4653 140.002 59.7944 139.486 60.09 138.952V122.015C59.4814 120.926 58.7188 119.931 57.8258 119.06C57.4103 118.638 56.9141 118.304 56.3669 118.079C55.8196 117.853 55.2325 117.739 54.6405 117.745C54.0683 117.72 53.5034 117.882 53.0309 118.206C52.6164 118.513 52.2774 119.038 52.0141 119.781C51.7531 120.528 51.5668 121.534 51.4553 122.801C51.3465 124.072 51.2922 125.671 51.2926 127.596L51.2926 134.158Z" fill="white"/>
<path d="M89.4421 155.579C88.6353 158.029 87.4699 160.121 85.9459 161.855C84.4127 163.593 82.5141 164.971 80.3861 165.89C78.2031 166.845 75.7364 167.323 72.9859 167.323C70.5366 167.323 68.4751 166.756 66.8016 165.622C65.1276 164.486 64.2902 162.901 64.2894 160.868C64.2894 159.373 64.7971 158.162 65.8125 157.237C66.8318 156.308 67.9652 155.846 69.2221 155.846C70.5957 155.846 71.7458 156.249 72.6724 157.056C73.5998 157.864 74.0638 159.044 74.0642 160.598C74.0788 161.254 73.9242 161.903 73.6155 162.482C73.3329 162.999 72.9518 163.456 72.4938 163.828C72.0656 164.176 71.5811 164.448 71.0613 164.633C70.6159 164.801 70.1452 164.891 69.6694 164.901C70.3548 165.451 71.214 165.738 72.0924 165.711C72.6851 165.703 73.2737 165.612 73.8412 165.441C74.4748 165.274 75.0622 164.965 75.559 164.538C76.0558 164.111 76.449 163.576 76.7089 162.975C77.0356 162.288 77.1996 161.436 77.2009 160.419V106.438L72.3588 107.156V105.721L90.6529 102.851V147.416C90.6529 150.407 90.2493 153.128 89.4421 155.579Z" fill="white"/>
<path d="M121.086 105.764C123.447 106.212 125.391 106.975 126.916 108.052C128.415 109.097 129.57 110.564 130.234 112.267C130.921 114 131.265 116.122 131.265 118.633V137.464C131.265 138.897 131.429 140.018 131.758 140.828C132.085 141.633 132.847 142.036 134.045 142.037C135.06 142.037 135.762 141.708 136.152 141.051C136.565 140.326 136.853 139.538 137.004 138.718C137.062 138.18 137.302 137.913 137.721 137.913C138.079 137.913 138.26 138.151 138.26 138.629C138.249 139.357 138.144 140.08 137.946 140.78C137.705 141.608 137.239 142.353 136.6 142.932C135.911 143.593 134.94 144.162 133.685 144.637C132.431 145.115 130.728 145.354 128.575 145.354C125.525 145.354 123.194 144.891 121.581 143.966C119.967 143.037 118.891 141.946 118.352 140.694C117.799 141.235 117.215 141.743 116.603 142.216C115.857 142.792 115.062 143.302 114.227 143.74C113.247 144.251 112.208 144.642 111.134 144.905C109.828 145.22 108.487 145.371 107.143 145.354C104.871 145.354 102.884 145.041 101.181 144.414C99.6013 143.861 98.1518 142.99 96.921 141.856C95.7939 140.794 94.9205 139.492 94.3656 138.047C93.7962 136.574 93.5074 135.008 93.5142 133.429C93.5184 131.847 93.8224 130.28 94.4102 128.811C95.0182 127.27 95.9511 125.879 97.1454 124.731C98.4664 123.473 100.019 122.483 101.717 121.816C103.541 121.068 105.678 120.695 108.13 120.696H117.814V113.521C117.814 111.371 117.485 109.697 116.828 108.5C116.169 107.304 114.734 106.706 112.523 106.707C110.07 106.707 108.397 106.871 107.503 107.199C106.605 107.53 106.157 107.933 106.158 108.41C106.158 108.768 106.365 109.07 106.785 109.306C107.92 110.025 108.488 111.131 108.489 112.625C108.477 113.078 108.416 113.528 108.308 113.968C108.188 114.511 107.943 115.018 107.592 115.449C107.185 115.937 106.68 116.334 106.111 116.616C105.485 116.944 104.664 117.108 103.647 117.109C102.432 117.123 101.247 116.728 100.282 115.989C99.2969 115.241 98.8045 114 98.805 112.267C98.805 109.875 100.09 108.082 102.659 106.887C105.229 105.692 108.487 105.093 112.433 105.092C115.841 105.092 118.725 105.316 121.086 105.764ZM114.138 122.309C111.685 122.309 109.936 123.325 108.891 125.358C107.845 127.391 107.322 130.051 107.322 133.337C107.322 136.687 107.636 139.094 108.265 140.557C108.891 142.022 109.952 142.754 111.449 142.754C111.806 142.754 112.345 142.607 113.063 142.305C113.809 141.99 114.529 141.616 115.215 141.184C115.896 140.765 116.514 140.252 117.052 139.66C117.558 139.093 117.814 138.54 117.814 138.002V122.309L114.138 122.309Z" fill="white"/>
<path d="M172.773 107.963L153.045 142.843H161.564C165.03 142.843 167.645 141.902 169.41 140.02C171.174 138.136 172.294 135.64 172.773 132.531H173.669V144.278H139.237V142.305L159.503 107.157H151.789C149.375 107.143 147.031 107.967 145.155 109.487C143.182 111.042 142.046 113.373 141.748 116.481H140.849V105.72H172.773V107.963Z" fill="white"/>
<path d="M208.506 107.963L188.778 142.843H197.298C200.763 142.843 203.378 141.902 205.143 140.02C206.907 138.136 208.027 135.64 208.506 132.531H209.403V144.278H174.97V142.305L195.236 107.157H187.524C185.109 107.143 182.764 107.967 180.888 109.487C178.915 111.042 177.779 113.373 177.481 116.481H176.582V105.72H208.506V107.963Z" fill="white"/>
<path d="M87.2868 97.8394C86.5164 98.6133 85.5333 99.1407 84.4625 99.3547C83.3917 99.5687 82.2814 99.4595 81.2728 99.0411C80.2641 98.6227 79.4026 97.9139 78.7977 97.0048C78.1927 96.0957 77.8717 95.0273 77.8753 93.9353C77.8728 93.2105 78.0133 92.4924 78.2889 91.8221C78.5645 91.1518 78.9698 90.5425 79.4813 90.0292C79.9929 89.5158 80.6008 89.1085 81.2702 88.8305C81.9395 88.5526 82.6571 88.4095 83.3819 88.4095C84.1066 88.4095 84.8242 88.5526 85.4936 88.8305C86.1629 89.1085 86.7708 89.5158 87.2824 90.0292C87.794 90.5425 88.1992 91.1518 88.4748 91.8221C88.7504 92.4924 88.891 93.2105 88.8885 93.9353C88.902 94.6609 88.7669 95.3816 88.4914 96.053C88.216 96.7244 87.806 97.3323 87.2868 97.8394Z" fill="white"/>
</svg>
