<svg width="250" height="250" viewBox="0 0 250 250" fill="none" xmlns="http://www.w3.org/2000/svg">
<rect width="250" height="250" fill="#14C6FF"/>
<path d="M120.96 98.211H124.11V107.054H126.217V98.211H129.344V96.2291H120.96V98.211Z" fill="#494949"/>
<path d="M133.686 96.2292H131.534V107.054H133.686V96.2292Z" fill="#494949"/>
<path d="M143.987 103.299L138.694 96.2291H136.642V107.054H138.751V100.002L144.044 107.054H146.094V96.2291H143.987V103.299Z" fill="#494949"/>
<path d="M154.725 103.405H156.742C156.393 104.614 155.382 105.303 153.948 105.303C151.529 105.303 150.428 103.42 150.428 101.673C150.428 99.8818 151.617 97.9805 153.818 97.9805C155.062 97.9805 156.089 98.6152 156.317 99.5228L156.397 99.8272H158.493L158.423 99.3631C158.127 97.414 156.178 96 153.79 96C150.219 96 148.293 98.9291 148.293 101.686C148.293 104.468 150.219 107.282 153.903 107.282C156.5 107.282 158.429 105.8 158.958 103.405H160.102V101.424H154.725V103.405Z" fill="#494949"/>
<path d="M187.905 96.2291L185.757 100.493L183.083 96.2291H180.614L184.658 102.693L182.461 107.053H184.797L190.241 96.2291H187.905Z" fill="#494949"/>
<path d="M167.883 102.947C168.56 102.543 169.087 101.929 169.382 101.199C169.678 100.468 169.726 99.6608 169.52 98.8999C169.314 98.1391 168.865 97.4665 168.242 96.9846C167.618 96.5027 166.854 96.2379 166.066 96.2306H161.885V107.039H163.989V103.461H165.741L167.384 107.056H169.758L167.883 102.947ZM166.063 101.476H163.989V98.2111H166.045C166.475 98.214 166.886 98.3861 167.189 98.69C167.493 98.9939 167.664 99.4052 167.667 99.8348C167.669 100.264 167.502 100.677 167.202 100.985C166.901 101.292 166.492 101.468 166.063 101.476Z" fill="#494949"/>
<path d="M176.941 96.3221L176.91 96.2306H175.041L171.3 107.056H173.593L174.394 104.64H177.561L178.362 107.056H180.654L176.941 96.3221ZM174.838 102.867L175.976 99.4259L177.117 102.867H174.838Z" fill="#494949"/>
<path d="M116.97 100.832L115.02 100.379C114.216 100.188 113.816 99.8218 113.816 99.2103C113.816 98.4431 114.496 97.9573 115.506 97.9573C116.621 97.9573 117.232 98.5141 117.475 99.2293H119.69C119.341 97.414 117.93 96.1241 115.488 96.1241C113.239 96.1241 111.638 97.485 111.638 99.4204C111.638 101.18 112.822 101.999 114.355 102.35L116.273 102.784C117.199 102.994 117.579 103.34 117.579 103.987C117.579 104.842 116.865 105.329 115.785 105.329C114.74 105.329 113.954 104.894 113.662 103.952H111.358C111.722 105.992 113.415 107.176 115.802 107.176C118.069 107.176 119.776 105.923 119.776 103.845C119.776 102.227 118.713 101.232 116.97 100.832Z" fill="#494949"/>
<path d="M43.0589 141.316C43.0589 141.38 43.3138 141.077 43.8237 140.408C44.333 139.738 45.034 138.862 45.9268 137.779C46.8185 136.696 47.8381 135.461 48.9857 134.075C50.1327 132.688 51.3595 131.278 52.6659 129.845C52.7616 129.749 52.9125 129.765 53.1201 129.892C53.3449 130.039 53.5329 130.235 53.6697 130.466C53.8314 130.728 53.9371 131.021 53.9804 131.326C54.0049 131.48 53.994 131.638 53.9484 131.787C53.9029 131.936 53.8239 132.073 53.7175 132.187C53.5898 132.346 53.2552 132.729 52.7139 133.334C52.1716 133.939 51.5343 134.656 50.802 135.485C50.0686 136.314 49.2799 137.198 48.436 138.137C47.5913 139.078 46.8186 139.946 46.118 140.742C45.4167 141.539 44.8272 142.2 44.3494 142.726C43.8715 143.252 43.6166 143.53 43.5847 143.562C43.5176 143.628 43.4357 143.677 43.3458 143.706C43.1735 143.746 42.9966 143.762 42.8199 143.753C42.5956 143.727 42.3774 143.662 42.1748 143.562C41.8238 143.401 41.5073 143.174 41.2427 142.893C40.8769 142.503 40.5853 142.049 40.3824 141.555C40.1269 140.981 39.9994 140.248 40 139.356C40.0189 138.036 40.253 136.729 40.6931 135.485C41.1657 134.09 41.7573 132.739 42.4615 131.446C43.1706 130.136 43.9525 128.868 44.8035 127.646C45.6475 126.435 46.444 125.376 47.1933 124.468C47.9417 123.559 48.587 122.834 49.1291 122.293C49.6706 121.751 49.9892 121.48 50.085 121.48C50.4743 121.494 50.85 121.627 51.1604 121.863C51.5317 122.123 51.8619 122.437 52.1402 122.795C52.4199 123.15 52.6602 123.535 52.8571 123.942C53.0267 124.259 53.1247 124.61 53.144 124.969C53.144 125.16 52.8971 125.551 52.4032 126.14C51.9087 126.73 51.2873 127.447 50.5391 128.291C49.79 129.136 48.9775 130.092 48.1014 131.159C47.2328 132.216 46.4192 133.317 45.6638 134.457C44.935 135.551 44.3109 136.711 43.7997 137.922C43.329 138.993 43.0771 140.146 43.0589 141.316ZM56.1072 112.59C56.362 112.59 56.6726 112.726 57.0393 112.996C57.4239 113.284 57.7764 113.613 58.0908 113.976C58.4078 114.335 58.6955 114.719 58.9511 115.123C59.1901 115.506 59.3096 115.793 59.3096 115.984C59.3096 116.175 59.1184 116.541 58.7361 117.083C58.3215 117.665 57.8747 118.224 57.3979 118.756C56.9245 119.293 56.4133 119.797 55.8683 120.261C55.3582 120.692 54.9758 120.907 54.7212 120.907C54.4249 120.898 54.133 120.833 53.8609 120.716C53.5542 120.595 53.2648 120.434 53.0006 120.238C52.7589 120.06 52.5419 119.851 52.3553 119.616C52.2005 119.444 52.1079 119.226 52.0925 118.995C52.0925 118.613 52.2518 118.063 52.5704 117.346C52.8992 116.609 53.2826 115.898 53.7175 115.219C54.1212 114.576 54.5684 113.961 55.0559 113.379C55.5016 112.853 55.8521 112.59 56.1072 112.59Z" fill="white"/>
<path d="M87.0401 107.775C87.2251 107.765 87.41 107.798 87.5801 107.871C87.7501 107.945 87.9007 108.057 88.0199 108.199C88.2613 108.506 88.4411 108.857 88.5495 109.232C88.6726 109.637 88.7525 110.054 88.7878 110.476C88.8225 110.9 88.8402 111.271 88.8408 111.589C88.8408 111.906 88.4612 112.295 87.7021 112.754C86.9425 113.213 86.0951 113.743 85.1601 114.343C84.2513 114.922 83.4001 115.587 82.618 116.328C81.8582 117.053 81.4787 117.803 81.4793 118.579C81.4793 118.862 81.4263 119.021 81.3204 119.056C81.2355 119.087 81.1461 119.105 81.0556 119.109C80.8764 119.084 80.7048 119.021 80.5525 118.924C80.2982 118.782 80.0662 118.603 79.864 118.394C79.6077 118.128 79.3934 117.824 79.2284 117.494C79.0232 117.074 78.9232 116.61 78.9373 116.143C78.936 115.877 78.9537 115.612 78.9902 115.349C79.0291 115.081 79.082 114.816 79.149 114.555C78.0899 114.66 76.7218 115.146 75.0447 116.011C73.1877 116.991 71.4162 118.124 69.7486 119.4C67.7828 120.892 65.9164 122.511 64.1613 124.246C62.3073 126.062 60.6067 128.028 59.0771 130.125C57.608 132.122 56.373 134.281 55.3964 136.56C54.4912 138.622 54.0137 140.847 53.9929 143.1C53.9929 144.124 54.3459 144.777 55.0521 145.059C55.758 145.342 56.6759 145.36 57.806 145.112C59.1248 144.798 60.4039 144.336 61.6191 143.736C63.0644 143.047 64.4701 142.278 65.8295 141.432C67.2239 140.567 68.5479 139.658 69.8015 138.704C70.9106 137.875 71.9633 136.973 72.9527 136.003C73.4922 136.016 74.0271 136.105 74.5415 136.268C74.6851 136.337 74.8089 136.441 74.9015 136.571C74.9941 136.7 75.0524 136.851 75.0712 137.009C75.1058 137.327 74.8057 137.804 74.1708 138.439C72.784 139.8 71.3066 141.065 69.7486 142.226C67.9838 143.561 66.1353 144.782 64.2143 145.88C62.3718 146.946 60.4403 147.85 58.4415 148.581C56.5351 149.27 54.8139 149.579 53.278 149.508C51.7421 149.437 50.4975 148.899 49.5443 147.893C48.591 146.887 48.1143 145.236 48.1143 142.941C48.1249 139.926 48.7747 136.948 50.0208 134.203C51.3277 131.284 53.0005 128.543 54.9991 126.047C57.0776 123.438 59.4203 121.051 61.9899 118.924C64.4724 116.845 67.1105 114.959 69.881 113.283C72.3234 111.794 74.904 110.543 77.5867 109.55C80.0758 108.649 82.2383 108.199 84.0743 108.199H84.6569C84.8561 108.197 85.0538 108.233 85.2395 108.305C85.9453 107.952 86.5455 107.776 87.0401 107.775Z" fill="white"/>
<path d="M97.0486 131.819C97.1545 131.713 97.3217 131.732 97.5517 131.872C97.8016 132.037 98.0028 132.266 98.1343 132.534C98.295 132.841 98.4025 133.172 98.4521 133.514C98.4792 133.685 98.4671 133.859 98.4166 134.025C98.3662 134.19 98.2786 134.341 98.1608 134.468C97.6658 135.033 97.0832 135.651 96.413 136.321C95.7408 136.993 95.0337 137.63 94.2947 138.228C93.6061 138.792 92.8708 139.297 92.0967 139.737C91.3727 140.143 90.7284 140.346 90.1638 140.346C89.7928 140.362 89.4225 140.299 89.078 140.161C88.7796 140.015 88.5033 139.828 88.2573 139.605C87.692 140.311 87.1712 140.912 86.6949 141.405C86.2399 141.881 85.7436 142.315 85.2119 142.703C84.7083 143.069 84.1668 143.38 83.5967 143.63C82.9673 143.896 82.31 144.092 81.6371 144.212C80.9649 144.354 80.2704 144.354 79.5982 144.212C78.9062 144.083 78.2426 143.832 77.6386 143.471C77.07 143.131 76.5749 142.681 76.1823 142.147C75.7908 141.609 75.5862 140.958 75.5997 140.293C75.6021 138.762 75.8894 137.244 76.4471 135.818C77.0097 134.357 77.7477 132.97 78.6449 131.687C79.5355 130.41 80.5368 129.214 81.6371 128.112C82.641 127.098 83.7114 126.151 84.8412 125.279C85.7378 124.578 86.6949 123.957 87.7011 123.425C88.5659 122.984 89.2279 122.763 89.6871 122.763C90.223 122.748 90.7532 122.876 91.223 123.134C91.6285 123.366 91.9875 123.671 92.2821 124.034C92.5288 123.576 92.7936 123.346 93.0765 123.346C93.4406 123.367 93.7824 123.528 94.0299 123.796C94.3711 124.128 94.6572 124.512 94.8773 124.935C95.1326 125.415 95.3368 125.921 95.4863 126.444C95.639 126.951 95.7192 127.477 95.7245 128.006C95.7245 128.395 95.5657 128.907 95.248 129.542C94.8974 130.234 94.5084 130.906 94.0828 131.555C93.6235 132.261 93.1203 132.985 92.5734 133.726C92.0256 134.468 91.5225 135.156 91.0641 135.792C90.6048 136.427 90.2252 136.983 89.9254 137.46C89.625 137.936 89.4926 138.245 89.5282 138.386C89.563 138.704 89.8632 138.642 90.4286 138.201C90.9929 137.76 91.6725 137.169 92.4675 136.427C93.2619 135.686 94.0828 134.882 94.9302 134.017C95.7775 133.153 96.4836 132.42 97.0486 131.819ZM79.4658 142.57C79.8182 142.57 80.2772 142.385 80.8428 142.014C81.48 141.586 82.0821 141.108 82.6434 140.584C83.2789 140.002 83.9233 139.366 84.5765 138.678C85.2294 137.989 85.8208 137.327 86.3506 136.692C86.3153 136.518 86.2976 136.34 86.2976 136.162V135.633C86.2976 134.679 86.6595 133.452 87.3834 131.952C88.142 130.389 88.9999 128.877 89.9519 127.424C88.8889 128.111 87.8956 128.9 86.9861 129.78C85.9444 130.77 84.9545 131.813 84.0204 132.905C83.0918 133.985 82.2253 135.117 81.4252 136.295C80.7366 137.293 80.1173 138.336 79.5717 139.419C79.1124 140.355 78.8476 141.114 78.7773 141.697C78.7062 142.279 78.9357 142.57 79.4658 142.57Z" fill="white"/>
<path d="M105.099 121.651C106.053 121.651 106.829 121.784 107.43 122.048C108.029 122.313 108.33 122.675 108.33 123.134C108.33 123.275 108.1 123.593 107.641 124.087C107.182 124.582 106.688 125.147 106.158 125.782C105.629 126.418 105.134 127.035 104.675 127.636C104.216 128.236 103.987 128.713 103.987 129.066C103.996 129.175 104.023 129.283 104.067 129.383C104.12 129.525 104.199 129.542 104.305 129.436C104.34 129.401 104.666 129.11 105.285 128.563C105.902 128.016 106.661 127.327 107.562 126.497C108.462 125.668 109.451 124.776 110.528 123.822C111.604 122.869 112.619 121.995 113.573 121.201C114.526 120.407 115.338 119.736 116.009 119.188C116.679 118.642 117.068 118.368 117.174 118.368C117.617 118.387 118.043 118.545 118.392 118.818C118.826 119.128 119.21 119.503 119.531 119.93C119.854 120.353 120.138 120.805 120.378 121.28C120.579 121.638 120.697 122.036 120.723 122.445C120.723 122.869 120.414 123.531 119.796 124.431C119.178 125.332 118.401 126.409 117.465 127.662C116.529 128.916 115.514 130.284 114.42 131.766C113.325 133.249 112.31 134.759 111.375 136.295C110.477 137.757 109.697 139.289 109.045 140.876C108.427 142.394 108.118 143.807 108.118 145.112C108.118 145.36 108.383 145.227 108.912 144.715C109.442 144.204 110.104 143.489 110.898 142.57C111.693 141.653 112.567 140.602 113.52 139.419C114.473 138.237 115.374 137.116 116.221 136.056C117.068 134.997 117.819 134.07 118.472 133.276C119.125 132.481 119.539 131.996 119.716 131.819C119.857 131.643 120.042 131.634 120.272 131.793C120.519 131.972 120.719 132.208 120.855 132.481C121.017 132.794 121.116 133.136 121.146 133.488C121.169 133.652 121.157 133.82 121.112 133.979C121.066 134.139 120.988 134.287 120.881 134.415C120.704 134.626 120.298 135.138 119.663 135.95C119.028 136.763 118.269 137.698 117.386 138.757C116.503 139.816 115.55 140.946 114.526 142.147C113.502 143.347 112.522 144.442 111.587 145.43C110.777 146.298 109.92 147.121 109.018 147.893C108.241 148.546 107.659 148.872 107.271 148.873C106.986 148.855 106.707 148.783 106.45 148.661C106.096 148.508 105.774 148.293 105.496 148.025C105.168 147.704 104.899 147.328 104.702 146.913C104.46 146.4 104.343 145.838 104.358 145.271C104.365 143.864 104.525 142.461 104.834 141.088C105.145 139.664 105.534 138.258 106 136.877C106.458 135.518 106.952 134.238 107.482 133.038C108.012 131.838 108.489 130.787 108.912 129.886C109.336 128.986 109.68 128.271 109.945 127.742C110.21 127.212 110.289 126.947 110.183 126.947C110.078 126.947 109.707 127.238 109.071 127.821C108.436 128.404 107.659 129.145 106.741 130.045C105.823 130.946 104.843 131.943 103.802 133.038C102.76 134.132 101.798 135.209 100.915 136.268C100.135 137.193 99.4012 138.156 98.7175 139.154C98.1349 140.02 97.8436 140.682 97.8436 141.141C97.8365 141.224 97.8116 141.305 97.7705 141.378C97.7294 141.451 97.673 141.515 97.6053 141.564C97.4464 141.706 97.1728 141.776 96.7845 141.776C96.3955 141.776 96.0159 141.467 95.6458 140.849C95.2751 140.232 95.0897 139.252 95.0897 137.91C95.0897 137.134 95.2751 136.189 95.6458 135.077C96.0486 133.887 96.5353 132.728 97.1021 131.608C97.7022 130.408 98.3731 129.216 99.1147 128.033C99.8019 126.928 100.544 125.859 101.339 124.829C101.97 123.995 102.679 123.223 103.457 122.525C104.128 121.943 104.675 121.651 105.099 121.651Z" fill="white"/>
<path d="M132.215 121.969C133.062 121.969 133.68 122.154 134.069 122.525C134.458 122.899 134.71 123.393 134.784 123.928C134.87 124.53 134.834 125.142 134.678 125.729C134.525 126.345 134.322 126.948 134.069 127.53C133.86 128.027 133.593 128.498 133.274 128.933C132.991 129.304 132.779 129.489 132.639 129.489C131.12 129.489 129.567 129.975 127.978 130.946C126.353 131.947 124.889 133.188 123.635 134.626C122.343 136.087 121.257 137.718 120.405 139.472C119.557 141.22 119.134 142.853 119.134 144.371C119.134 144.795 119.425 144.971 120.008 144.901C120.59 144.83 121.358 144.557 122.311 144.08C123.456 143.493 124.57 142.848 125.648 142.147C126.919 141.335 128.243 140.391 129.62 139.313C130.997 138.237 132.392 137.063 133.804 135.792C135.197 134.539 136.523 133.213 137.776 131.819C137.882 131.713 138.049 131.732 138.279 131.872C138.528 132.033 138.744 132.239 138.914 132.481C139.111 132.754 139.23 133.074 139.259 133.408C139.29 133.773 139.176 134.134 138.941 134.415C138.835 134.556 138.42 134.989 137.696 135.712C136.972 136.436 136.063 137.292 134.969 138.281C133.874 139.269 132.629 140.32 131.235 141.432C129.84 142.544 128.41 143.577 126.945 144.53C125.56 145.44 124.098 146.229 122.576 146.887C121.128 147.505 119.804 147.814 118.604 147.813C118.236 147.787 117.881 147.669 117.571 147.469C117.129 147.212 116.728 146.891 116.38 146.516C115.973 146.084 115.633 145.593 115.374 145.059C115.092 144.501 114.947 143.884 114.95 143.259C114.963 141.533 115.304 139.826 115.956 138.228C116.639 136.509 117.5 134.868 118.525 133.329C119.568 131.755 120.746 130.276 122.047 128.907C123.254 127.622 124.545 126.419 125.913 125.305C127.034 124.382 128.24 123.567 129.514 122.869C130.644 122.269 131.544 121.969 132.215 121.969Z" fill="white"/>
<path d="M154.987 131.872C155.093 131.766 155.26 131.785 155.49 131.925C155.735 132.082 155.943 132.29 156.099 132.534C156.281 132.814 156.399 133.131 156.444 133.461C156.468 133.64 156.455 133.822 156.405 133.995C156.355 134.169 156.269 134.33 156.152 134.467C156.046 134.609 155.631 135.033 154.908 135.739C154.184 136.445 153.284 137.284 152.207 138.254C151.13 139.226 149.947 140.258 148.659 141.352C147.369 142.447 146.089 143.459 144.819 144.389C143.696 145.224 142.519 145.985 141.297 146.666C140.219 147.255 139.345 147.549 138.675 147.549C138.032 147.557 137.402 147.362 136.875 146.992C136.32 146.594 135.859 146.079 135.525 145.483C135.134 144.797 134.848 144.056 134.677 143.285C134.477 142.408 134.38 141.511 134.386 140.611C134.388 139.079 134.675 137.562 135.233 136.136C135.796 134.675 136.534 133.288 137.431 132.005C138.322 130.728 139.323 129.531 140.423 128.43C141.427 127.415 142.497 126.469 143.627 125.597C144.524 124.895 145.481 124.275 146.487 123.743C147.352 123.302 148.014 123.081 148.473 123.081C149.021 123.068 149.561 123.205 150.036 123.479C150.46 123.73 150.836 124.054 151.148 124.435C151.434 124.783 151.658 125.179 151.81 125.603C151.932 125.917 152.003 126.248 152.022 126.585C151.534 126.596 151.051 126.686 150.592 126.85C151.201 127.07 151.753 127.424 152.207 127.885C152.578 128.293 152.763 128.549 152.763 128.655C152.763 129.575 152.472 130.522 151.889 131.496C151.24 132.541 150.395 133.452 149.4 134.177C148.19 135.06 146.85 135.75 145.428 136.221C143.71 136.796 141.916 137.109 140.105 137.149C139.71 137.882 139.373 138.646 139.099 139.432C138.794 140.271 138.555 141.132 138.384 142.008C138.236 142.705 138.174 143.418 138.199 144.131C138.234 144.715 138.41 145.007 138.728 145.006C139.258 145.006 139.964 144.75 140.847 144.238C141.849 143.646 142.813 142.992 143.733 142.279C144.774 141.485 145.851 140.584 146.964 139.578C148.076 138.572 149.144 137.583 150.168 136.612C151.191 135.642 152.127 134.733 152.974 133.885L154.987 131.872ZM148.209 128.112C147.03 128.925 145.939 129.856 144.951 130.892C143.903 131.971 142.922 133.111 142.012 134.309C143.283 134.097 144.316 133.77 145.11 133.329C145.828 132.951 146.46 132.428 146.964 131.793C147.39 131.241 147.704 130.611 147.891 129.939C148.057 129.342 148.163 128.73 148.209 128.112Z" fill="white"/>
<path d="M173.522 131.819C173.628 131.679 173.804 131.687 174.051 131.846C174.31 132.017 174.527 132.243 174.687 132.508C174.866 132.798 174.983 133.123 175.031 133.461C175.058 133.632 175.046 133.806 174.996 133.971C174.945 134.137 174.858 134.288 174.74 134.414C174.563 134.592 174.175 135.042 173.575 135.765C172.974 136.489 172.25 137.345 171.404 138.333C170.556 139.322 169.647 140.373 168.676 141.485C167.704 142.597 166.769 143.621 165.869 144.556C164.969 145.492 164.166 146.269 163.459 146.887C162.753 147.505 162.241 147.814 161.924 147.813C161.335 147.806 160.763 147.622 160.282 147.284C159.758 146.936 159.286 146.517 158.878 146.039C158.489 145.589 158.16 145.091 157.899 144.556C157.651 144.045 157.528 143.648 157.528 143.365C157.528 142.941 157.775 142.226 158.269 141.22C158.763 140.214 159.373 139.066 160.096 137.777C160.82 136.489 161.614 135.13 162.48 133.699C163.344 132.269 164.139 130.928 164.863 129.674C165.586 128.421 166.195 127.345 166.69 126.444C167.184 125.544 167.431 124.952 167.431 124.67C166.937 124.811 166.266 124.997 165.419 125.226C164.572 125.456 163.742 125.659 162.93 125.835C162.4 126.542 161.818 127.318 161.182 128.165C160.547 129.013 159.911 129.842 159.275 130.654C158.64 131.467 158.04 132.208 157.475 132.879C156.91 133.55 156.468 134.062 156.151 134.414C155.833 134.768 155.551 134.883 155.304 134.759C155.027 134.601 154.819 134.346 154.721 134.044C154.577 133.673 154.523 133.274 154.562 132.879C154.583 132.489 154.732 132.116 154.986 131.819C155.853 130.894 156.658 129.912 157.396 128.88C158.084 127.91 158.658 127.106 159.117 126.47C158.924 126.504 158.729 126.522 158.534 126.523H158.005C157.757 126.523 157.466 126.338 157.131 125.967C156.795 125.597 156.518 125.177 156.31 124.723C156.117 124.331 155.992 123.911 155.939 123.478C155.903 123.107 156.08 122.922 156.469 122.922C156.857 122.922 157.439 122.798 158.216 122.551C158.993 122.305 159.858 122.005 160.811 121.651C161.765 121.298 162.753 120.901 163.777 120.459C164.801 120.018 165.745 119.621 166.61 119.268C167.475 118.915 168.208 118.615 168.808 118.367C169.408 118.121 169.761 117.997 169.868 117.997C170.256 117.997 170.697 118.217 171.192 118.659C171.721 119.141 172.192 119.683 172.595 120.274C173.03 120.898 173.402 121.563 173.707 122.26C174.007 122.948 174.157 123.522 174.157 123.981C174.157 124.299 173.857 124.943 173.257 125.914C172.656 126.886 171.906 128.042 171.006 129.383C170.106 130.725 169.135 132.155 168.093 133.673C167.051 135.192 166.081 136.648 165.181 138.042C164.28 139.437 163.53 140.7 162.93 141.829C162.329 142.959 162.029 143.789 162.03 144.318C162.1 144.318 162.391 144.053 162.903 143.524C163.415 142.994 164.05 142.314 164.81 141.485C165.569 140.656 166.398 139.746 167.299 138.757C168.199 137.769 169.064 136.807 169.894 135.871C170.723 134.936 171.465 134.106 172.119 133.382C172.771 132.659 173.239 132.138 173.522 131.819Z" fill="white"/>
<path d="M191.581 117.52C192.746 117.909 193.717 118.253 194.494 118.553C195.27 118.853 195.658 119.109 195.659 119.321C195.65 119.641 195.578 119.956 195.447 120.248C195.386 120.406 195.276 120.54 195.133 120.631C194.99 120.722 194.821 120.764 194.653 120.751C194.547 120.751 193.973 120.707 192.932 120.618C191.89 120.53 190.627 120.398 189.145 120.221C187.273 122.339 185.322 124.687 183.293 127.265C181.28 129.817 179.398 132.468 177.652 135.209C176.003 137.774 174.577 140.476 173.389 143.285C172.277 145.952 171.721 148.45 171.721 150.779C171.712 150.841 171.717 150.904 171.735 150.963C171.753 151.023 171.785 151.078 171.827 151.124C171.871 151.164 171.926 151.192 171.986 151.203C172.268 151.203 172.877 150.779 173.813 149.932C174.748 149.085 175.842 148.008 177.096 146.701C178.349 145.395 179.691 143.966 181.121 142.412C182.551 140.858 183.902 139.367 185.173 137.936C186.444 136.507 187.573 135.236 188.562 134.123C189.55 133.011 190.239 132.243 190.628 131.819C190.734 131.713 190.919 131.705 191.184 131.793C191.467 131.892 191.727 132.045 191.952 132.243C192.193 132.448 192.376 132.713 192.481 133.011C192.532 133.162 192.54 133.324 192.502 133.479C192.465 133.633 192.384 133.774 192.27 133.885C192.198 133.991 191.889 134.362 191.343 134.997C190.795 135.633 190.106 136.436 189.277 137.407C188.447 138.378 187.494 139.473 186.417 140.69C185.34 141.908 184.228 143.144 183.081 144.397C181.933 145.651 180.777 146.869 179.612 148.052C178.447 149.234 177.352 150.285 176.328 151.203C175.461 151.994 174.55 152.736 173.601 153.427C172.806 153.991 172.197 154.274 171.774 154.275C171.298 154.272 170.826 154.2 170.37 154.063C169.881 153.914 169.429 153.661 169.046 153.321C168.604 152.914 168.267 152.405 168.067 151.838C167.819 151.203 167.696 150.391 167.696 149.402C167.712 146.752 168.123 144.12 168.914 141.591C169.748 138.871 170.82 136.231 172.118 133.7C173.455 131.082 174.959 128.552 176.62 126.126C178.296 123.673 180 121.386 181.73 119.268C180.749 119.129 179.777 118.934 178.817 118.685C178.041 118.473 177.652 118.262 177.653 118.05C177.658 117.712 177.693 117.375 177.758 117.043C177.831 116.65 177.974 116.273 178.182 115.931C178.398 115.575 178.686 115.268 179.029 115.031C179.457 114.764 179.956 114.634 180.459 114.66C180.847 114.766 181.271 114.872 181.73 114.978C182.118 115.084 182.577 115.19 183.107 115.296C183.637 115.402 184.202 115.543 184.802 115.719C187.132 113.178 189.171 111.156 190.919 109.656C192.667 108.155 193.788 107.405 194.282 107.405C194.508 107.405 194.732 107.449 194.941 107.535C195.15 107.621 195.34 107.748 195.5 107.908C195.857 108.249 196.16 108.642 196.4 109.073C196.637 109.488 196.815 109.934 196.93 110.397C197.017 110.717 197.071 111.045 197.089 111.377C197.089 111.518 196.568 112.127 195.526 113.204C194.485 114.281 193.169 115.72 191.581 117.52Z" fill="white"/>
<path d="M192.003 142.147C191.706 142.182 191.419 142.271 191.155 142.411C190.766 142.589 190.394 142.801 190.044 143.047C189.75 143.241 189.483 143.473 189.249 143.736C189.072 143.947 189.125 144.071 189.408 144.106C190.449 144.319 191.529 144.246 192.532 143.894C193.578 143.531 194.567 143.023 195.472 142.385C196.413 141.727 197.283 140.973 198.067 140.134C198.804 139.355 199.494 138.533 200.132 137.671C200.635 137.006 201.078 136.297 201.456 135.553C201.756 134.936 201.871 134.521 201.801 134.309C201.765 134.132 201.403 134.132 200.715 134.309C200.026 134.486 199.205 134.715 198.252 134.997C197.299 135.28 196.328 135.553 195.34 135.818C194.53 136.055 193.694 136.189 192.85 136.215C192.744 136.215 192.567 136.022 192.321 135.635C192.073 135.248 191.817 134.817 191.553 134.342C191.288 133.867 191.058 133.41 190.864 132.97C190.67 132.531 190.573 132.241 190.573 132.1C190.573 131.854 190.82 131.441 191.314 130.86C191.93 130.163 192.603 129.519 193.327 128.935C194.274 128.158 195.264 127.436 196.293 126.772C197.463 126.012 198.683 125.333 199.947 124.741C201.255 124.125 202.61 123.613 203.999 123.211C205.331 122.816 206.713 122.612 208.103 122.604C208.738 122.604 209.197 122.753 209.48 123.051C209.768 123.361 209.945 123.758 209.983 124.18C210.031 124.684 209.977 125.193 209.824 125.676C209.676 126.192 209.481 126.693 209.242 127.173C209.046 127.574 208.806 127.953 208.527 128.302C208.279 128.6 208.067 128.748 207.891 128.748C206.202 128.742 204.522 129.001 202.913 129.515C201.489 129.96 200.107 130.527 198.782 131.21C197.832 131.692 196.928 132.259 196.081 132.905C195.445 133.417 195.216 133.673 195.392 133.673C195.815 133.625 196.232 133.536 196.637 133.408C197.29 133.232 198.067 133.047 198.967 132.852C199.867 132.659 200.803 132.5 201.774 132.375C202.67 132.252 203.579 132.252 204.475 132.375C205.227 132.467 205.941 132.76 206.54 133.223C207.087 133.665 207.361 134.344 207.361 135.262C207.361 135.968 206.982 136.966 206.223 138.254C205.356 139.674 204.296 140.967 203.072 142.094C201.65 143.42 200.045 144.535 198.305 145.404C196.451 146.344 194.399 146.825 192.321 146.807C191.597 146.81 190.877 146.721 190.176 146.542C189.549 146.392 188.95 146.141 188.402 145.801C187.936 145.511 187.532 145.133 187.21 144.689C186.918 144.289 186.76 143.807 186.76 143.312C186.76 142.779 186.907 142.257 187.184 141.802C187.467 141.325 187.824 140.896 188.243 140.531C188.657 140.167 189.12 139.864 189.62 139.631C190.031 139.422 190.483 139.305 190.944 139.287C191.05 139.287 191.173 139.411 191.314 139.657C191.467 139.93 191.6 140.213 191.712 140.505C191.835 140.823 191.941 141.123 192.029 141.405C192.097 141.593 192.142 141.789 192.162 141.988C192.165 142.009 192.163 142.031 192.156 142.052C192.149 142.073 192.137 142.092 192.122 142.107C192.107 142.122 192.088 142.134 192.067 142.141C192.046 142.148 192.024 142.15 192.003 142.147Z" fill="white"/>
</svg>
