<svg width="250" height="250" viewBox="0 0 250 250" fill="none" xmlns="http://www.w3.org/2000/svg">
<rect width="250" height="250" fill="white"/>
<path d="M127.767 102.625H131.507V113.121H134.008V102.625H137.719V100.272H127.767V102.625Z" fill="black"/>
<path d="M140.318 113.121H141.596H142.873V106.696V100.272H141.596H140.318V106.696V113.121Z" fill="black"/>
<path d="M155.099 108.664L148.817 100.272H146.382V113.121H148.885V104.75L155.168 113.121H157.601V100.272H155.099V108.664Z" fill="black"/>
<path d="M167.844 108.789H170.239C169.824 110.225 168.625 111.042 166.923 111.042C164.052 111.042 162.745 108.807 162.745 106.733C162.745 104.608 164.155 102.351 166.769 102.351C168.245 102.351 169.465 103.104 169.735 104.181L169.829 104.543H172.317L172.235 103.992C171.883 101.678 169.57 100 166.735 100C162.497 100 160.211 103.477 160.211 106.749C160.211 110.051 162.497 113.392 166.869 113.392C169.952 113.392 172.241 111.632 172.87 108.789H174.228V106.438H167.844V108.789Z" fill="black"/>
<path d="M207.228 100.272L204.678 105.333L201.504 100.272H198.574L203.374 107.945L200.766 113.12H203.539L210 100.272H207.228Z" fill="black"/>
<path d="M183.463 108.246C184.266 107.767 184.891 107.038 185.242 106.171C185.593 105.304 185.65 104.345 185.406 103.442C185.162 102.539 184.629 101.741 183.888 101.169C183.148 100.597 182.241 100.283 181.306 100.274H176.343V113.103H178.841V108.855H180.92L182.87 113.123H185.688L183.463 108.246ZM181.302 106.5H178.841V102.625H181.281C181.791 102.628 182.279 102.832 182.639 103.193C182.999 103.554 183.203 104.042 183.205 104.552C183.208 105.062 183.01 105.552 182.654 105.917C182.297 106.281 181.812 106.491 181.302 106.5Z" fill="black"/>
<path d="M194.214 100.383L194.177 100.274H191.959L187.518 113.123H190.24L191.191 110.255H194.949L195.9 113.123H198.62L194.214 100.383ZM191.718 108.151L193.068 104.067L194.423 108.151H191.718Z" fill="black"/>
<path d="M123.032 105.735L120.717 105.198C119.763 104.97 119.289 104.536 119.289 103.811C119.289 102.9 120.095 102.324 121.294 102.324C122.617 102.324 123.343 102.984 123.631 103.833H126.261C125.846 101.679 124.171 100.148 121.273 100.148C118.603 100.148 116.702 101.763 116.702 104.06C116.702 106.148 118.108 107.121 119.928 107.537L122.204 108.052C123.305 108.301 123.755 108.713 123.755 109.481C123.755 110.495 122.907 111.073 121.626 111.073C120.385 111.073 119.452 110.557 119.105 109.439H116.371C116.803 111.861 118.812 113.265 121.645 113.265C124.336 113.265 126.363 111.778 126.363 109.312C126.363 107.391 125.101 106.21 123.032 105.735Z" fill="black"/>
<path d="M71.9436 121.152H79.7525V124.124C80.1865 123.362 80.7688 122.693 81.4651 122.159C82.6745 121.152 84.6393 120.195 87.5613 120.195C89.4757 120.195 91.8938 120.698 93.9592 122.864C94.6272 123.549 95.1877 124.33 95.6219 125.183C96.1787 124.287 96.8568 123.473 97.6368 122.764C99.2989 121.252 101.567 120.195 104.488 120.195C106.453 120.195 109.577 120.648 111.844 123.016C114.463 125.787 114.866 127.651 114.866 133.848V149.112H106.503V134.25C106.503 133.091 106.503 131.58 105.949 130.321C105.446 129.011 104.387 128.054 102.221 128.054C99.9039 128.054 98.745 129.112 98.1912 130.371C97.5862 131.631 97.5862 133.041 97.5862 133.848V149.112H89.2235V133.898C89.2235 133.143 89.2235 131.681 88.7196 130.422C88.1658 129.112 87.1581 128.054 85.0421 128.054C82.6745 128.054 81.5157 129.162 80.9107 130.522C80.3063 131.883 80.3063 133.394 80.3063 134.25V149.112H71.9436V121.152Z" fill="black"/>
<path d="M143.149 149.112H135.341V146.14C134.383 147.5 132.62 150.069 127.582 150.069C118.111 150.069 117.154 142.412 117.154 138.634V121.152H125.517V136.417C125.517 139.49 126.172 142.21 129.951 142.21C134.131 142.21 134.786 139.238 134.786 136.366V121.152H143.149V149.112Z" fill="black"/>
<path d="M158.596 129.011C158.545 128.406 158.445 126.895 155.976 126.895C154.213 126.895 153.608 128.003 153.608 128.759C153.608 130.019 155.673 130.875 157.89 131.53C162.627 132.84 167.664 134.25 167.664 140.295C167.664 146.442 162.475 150.069 156.278 150.069C152.046 150.069 145.649 148.155 144.893 140.8H153.205C153.558 143.369 156.027 143.369 156.379 143.369C157.79 143.369 159.301 142.563 159.301 141.203C159.301 139.288 157.235 139.037 151.896 136.971C148.268 135.812 145.246 133.445 145.246 129.666C145.246 123.873 150.284 120.195 156.077 120.195C159.755 120.195 166.102 121.656 166.808 129.011L158.596 129.011Z" fill="black"/>
<path d="M169.328 121.152H173.509H177.691V135.132V149.112H173.509H169.328V135.132V121.152Z" fill="black"/>
<path d="M70.0317 134.762C70.117 141.287 65.9616 147.684 58.6336 149.53C50.4266 151.598 42.5003 146.737 40.4696 138.676C38.4639 130.713 43.0434 122.702 51.153 120.659C58.334 118.85 65.3414 122.124 68.3829 128.423L60.1758 130.491C58.8292 128.856 56.7244 127.308 53.3537 128.157C52.4649 128.321 51.6247 128.684 50.8957 129.219C50.1668 129.753 49.5679 130.445 49.1437 131.243C48.3397 132.797 48.1478 134.716 48.6399 136.669C49.6369 140.627 52.9642 142.906 56.8235 141.933C60.1947 141.085 61.3147 138.725 61.7757 136.842L70.0317 134.762Z" fill="black"/>
<path d="M209.36 134.762C209.444 141.287 205.289 147.684 197.962 149.53C189.755 151.598 181.828 146.737 179.798 138.676C177.791 130.713 182.371 122.702 190.481 120.659C197.662 118.85 204.669 122.124 207.711 128.423L199.503 130.491C198.157 128.856 196.052 127.308 192.681 128.157C191.792 128.321 190.952 128.684 190.223 129.219C189.494 129.753 188.895 130.445 188.471 131.243C187.668 132.797 187.476 134.716 187.968 136.669C188.965 140.627 192.292 142.906 196.151 141.933C199.522 141.085 200.643 138.725 201.103 136.842L209.36 134.762Z" fill="black"/>
</svg>
