<svg width="250" height="250" viewBox="0 0 250 250" fill="none" xmlns="http://www.w3.org/2000/svg">
<rect width="250" height="250" fill="#BD9C5C"/>
<path d="M140.197 106.228H143.357V115.141H145.484V106.228H148.644V104.219H140.197V106.228ZM150.843 115.127H153.013V104.218H150.843V115.127ZM163.397 111.355L158.067 104.233H155.998V115.141H158.125V108.034L163.455 115.141H165.523V104.233H163.397V111.355ZM174.218 111.457H176.242C175.892 112.68 174.873 113.364 173.431 113.364C170.999 113.364 169.892 111.471 169.892 109.709C169.892 107.903 171.086 105.995 173.3 105.995C174.552 105.995 175.586 106.636 175.819 107.539L175.907 107.845H178.018L177.946 107.379C177.64 105.427 175.688 104 173.271 104C169.674 104 167.737 106.942 167.737 109.723C167.737 112.534 169.674 115.36 173.387 115.36C176.009 115.36 177.946 113.874 178.485 111.456H179.635V109.461H174.218V111.457ZM207.655 104.233L205.485 108.529L202.791 104.233H200.301L204.379 110.743L202.165 115.127H204.524L210 104.233H207.655ZM185.635 109.52H183.553V106.228H185.621C186.524 106.228 187.252 106.957 187.252 107.874C187.252 108.762 186.538 109.505 185.635 109.52ZM187.47 110.991C188.012 110.671 188.461 110.215 188.773 109.668C189.085 109.122 189.248 108.503 189.247 107.874C189.247 105.879 187.631 104.248 185.65 104.233H181.427V115.127H183.553V111.515H185.315L186.975 115.141H189.364L187.47 110.991ZM194.49 110.918L195.626 107.452L196.776 110.918H194.49ZM196.602 104.32L196.572 104.233H194.693L190.921 115.141H193.237L194.038 112.695H197.227L198.043 115.141H200.344L196.602 104.32ZM136.177 108.864L134.211 108.413C133.396 108.209 132.988 107.845 132.988 107.233C132.988 106.461 133.673 105.966 134.692 105.966C135.813 105.966 136.44 106.534 136.673 107.248H138.915C138.566 105.413 137.139 104.117 134.678 104.117C132.406 104.117 130.804 105.486 130.804 107.437C130.804 109.214 131.998 110.044 133.542 110.394L135.464 110.83C136.396 111.049 136.789 111.398 136.789 112.039C136.789 112.913 136.061 113.394 134.983 113.394C133.92 113.394 133.134 112.957 132.842 112.01H130.512C130.877 114.063 132.595 115.258 134.998 115.258C137.284 115.258 139.003 113.991 139.003 111.908C139.003 110.277 137.925 109.272 136.177 108.864Z" fill="#574C4A"/>
<path d="M77.2244 144.385V109.767H76.365L76.278 109.899C75.4186 111.151 74.3263 112.2 73.0302 113.015C71.7341 113.845 70.3069 114.326 68.763 114.472L68.5011 114.486V115.447H69.0981C69.3603 115.447 69.506 115.52 69.506 115.928V144.385C69.506 144.705 69.4041 144.807 69.0981 144.807H68.5011V145.798H78.1858V144.807H77.5887C77.3558 144.807 77.2244 144.749 77.2244 144.385Z" fill="white"/>
<path d="M89.8218 144.123C89.1374 143.409 88.7295 142.244 88.6131 140.671C88.4819 139.025 88.4382 137.147 88.4674 135.05V132.457C88.4375 130.404 88.4819 128.525 88.6131 126.865C88.7294 125.277 89.1374 124.127 89.8218 123.442C90.3171 122.947 90.9578 122.7 91.7589 122.7H91.8752C93.4188 122.7 94.8897 122.991 96.2588 123.588C97.6313 124.164 98.8706 125.017 99.8996 126.093C100.249 126.442 100.424 126.879 100.424 127.433V140.074C100.424 140.656 100.235 141.093 99.8415 141.428C98.8366 142.462 97.6423 143.292 96.2878 143.904C94.9334 144.501 93.4479 144.807 91.8752 144.807H91.7589C90.987 144.807 90.3461 144.574 89.8218 144.123ZM104.895 124.986C103.497 124.185 102.303 123.122 101.342 121.84L101.254 121.724H100.424V125.219C99.3466 124.127 98.0941 123.282 96.6815 122.685C95.1814 122.044 93.5648 121.724 91.8755 121.724C90.2298 121.724 88.6423 122.044 87.1714 122.685C85.7006 123.326 84.419 124.214 83.3268 125.321C82.2345 126.428 81.3606 127.71 80.7197 129.137C80.0791 130.564 79.7587 132.093 79.7587 133.666C79.7587 135.37 80.0934 136.972 80.749 138.428C81.4043 139.899 82.3072 141.195 83.4141 142.273C84.5209 143.366 85.8172 144.239 87.2881 144.851C88.7589 145.477 90.3026 145.797 91.8757 145.797C93.6085 145.797 95.2397 145.448 96.7251 144.763C98.1087 144.137 99.3466 143.307 100.424 142.273V144.385C100.424 144.705 100.308 144.807 100.002 144.807H99.3758V145.798H109.847V144.807H109.221C108.827 144.807 108.74 144.661 108.74 144.385V127.87C108.74 127.608 108.827 127.447 109.221 127.447H109.847V126.501L109.585 126.471C107.866 126.296 106.293 125.802 104.895 124.986Z" fill="white"/>
<path d="M156.232 144.385V121.724H155.416L155.329 121.855C154.455 123.137 153.333 124.185 152.023 125.001C150.698 125.802 149.227 126.297 147.654 126.472L147.392 126.502V127.448H147.989C148.236 127.448 148.367 127.521 148.367 127.871V144.386C148.367 144.75 148.237 144.808 147.989 144.808H147.392V145.798H157.266V144.807H156.654C156.334 144.807 156.232 144.706 156.232 144.385ZM66.0542 117.006C64.6851 116.001 63.1706 115.214 61.554 114.646C59.9229 114.064 58.1753 113.772 56.2966 113.772C54.0683 113.772 51.9274 114.224 49.9469 115.083C47.9663 115.957 46.2186 117.136 44.7622 118.593C43.3059 120.049 42.1407 121.782 41.2817 123.763C40.4368 125.758 40 127.884 40 130.156C40 132.399 40.4369 134.525 41.2817 136.506C42.1409 138.501 43.3059 140.234 44.7622 141.691C46.2186 143.147 47.9663 144.327 49.9469 145.2C51.9274 146.06 54.0683 146.511 56.3403 146.511C58.1753 146.511 59.9229 146.205 61.554 145.637C63.1706 145.069 64.6851 144.268 66.0542 143.278C66.0686 143.264 66.0979 143.248 66.156 143.234L66.3745 143.176V141.895L65.8939 142.259C64.5976 143.264 63.1413 144.079 61.5831 144.676C59.952 145.288 58.2044 145.594 56.3839 145.594H56.1073C54.3888 145.594 52.9616 145.346 51.8693 144.88C50.7914 144.414 50.0779 144.006 49.7721 143.672C49.3498 143.205 49.0149 142.608 48.7818 141.88C48.5489 141.123 48.374 140.235 48.2721 139.23C48.1604 138.136 48.0971 137.038 48.0826 135.938C48.0681 134.744 48.0681 133.492 48.0681 132.181V128.103C48.0681 126.792 48.0681 125.54 48.0826 124.346C48.097 123.166 48.17 122.059 48.2721 121.054C48.374 120.049 48.5487 119.161 48.7818 118.404C49.0147 117.676 49.3498 117.064 49.7721 116.612C50.0779 116.278 50.7916 115.87 51.8693 115.404C52.9616 114.923 54.3888 114.69 56.1073 114.69H56.3839C58.2044 114.69 59.952 114.996 61.5831 115.608C63.1413 116.205 64.5978 117.02 65.8939 118.025L66.3745 118.389V117.108L66.156 117.05C66.0979 117.035 66.0688 117.019 66.0542 117.006Z" fill="white"/>
<path d="M127.265 136.39C126.77 135.472 126.129 134.584 125.386 133.754C124.643 132.938 123.842 132.122 122.998 131.365C122.167 130.608 121.367 129.85 120.638 129.108C119.91 128.365 119.313 127.622 118.847 126.879C118.396 126.18 118.163 125.438 118.163 124.695C118.163 124.2 118.381 123.792 118.803 123.457C119.255 123.108 119.765 122.933 120.361 122.933C121.177 122.933 121.964 123.049 122.706 123.253C123.449 123.471 124.134 123.777 124.731 124.171C125.022 124.345 125.255 124.535 125.401 124.695C125.532 124.826 125.619 124.928 125.663 124.971C125.736 125.088 125.852 125.277 126.027 125.554C126.173 125.801 126.245 126.122 126.245 126.501V128.175H127.105V123.384H126.245V124.345L125.983 124.083C125.779 123.879 125.517 123.675 125.197 123.471C124.542 123.02 123.784 122.685 122.954 122.452C121.207 121.971 119.124 122.001 117.42 122.51C116.517 122.772 115.716 123.151 115.046 123.631C114.362 124.112 113.808 124.695 113.415 125.365C113.007 126.049 112.803 126.806 112.803 127.651C112.803 128.598 113.066 129.515 113.619 130.36C114.143 131.19 114.813 132.006 115.614 132.792C116.386 133.564 117.245 134.336 118.148 135.122C119.036 135.88 119.867 136.68 120.653 137.481C121.41 138.282 122.051 139.127 122.546 140.001C123.035 140.831 123.291 141.776 123.289 142.739C123.289 143.336 123.173 143.817 122.969 144.151C122.75 144.501 122.474 144.763 122.153 144.938C121.804 145.127 121.44 145.244 121.047 145.302C120.676 145.369 120.301 145.403 119.925 145.404C119.095 145.404 118.308 145.302 117.595 145.113C116.9 144.934 116.234 144.659 115.614 144.297C115.032 143.963 114.507 143.555 114.085 143.089C113.939 142.914 113.794 142.739 113.663 142.521L113.576 142.389H112.614L112.906 142.841C113.313 143.482 113.823 144.021 114.449 144.487C115.148 145.025 115.978 145.448 116.911 145.768C117.857 146.074 118.862 146.234 119.925 146.234C121.046 146.234 122.11 146.089 123.085 145.783C124.061 145.477 124.935 145.04 125.663 144.457C126.399 143.882 126.992 143.144 127.396 142.302C127.804 141.457 128.022 140.482 128.022 139.419C128.022 138.341 127.76 137.322 127.265 136.39Z" fill="white"/>
<path d="M171.101 121.957C169.484 121.957 167.912 122.277 166.441 122.904C164.955 123.544 163.645 124.418 162.508 125.539C161.373 126.646 160.47 127.957 159.814 129.443C159.232 130.753 158.911 132.195 158.853 133.724H158.838V134.569H158.853C158.911 136.098 159.232 137.525 159.814 138.851C160.47 140.321 161.373 141.632 162.509 142.754C163.645 143.86 164.955 144.749 166.441 145.375C167.912 146.016 169.484 146.336 171.101 146.336C173.533 146.336 175.776 145.681 177.757 144.37L177.888 144.283V143.089L177.436 143.409C175.528 144.691 173.402 145.346 171.101 145.346C170.271 145.346 169.616 145.098 169.106 144.589C168.407 143.89 167.985 142.724 167.868 141.137C167.737 139.477 167.693 137.584 167.722 135.486V132.792C167.692 130.71 167.737 128.816 167.868 127.156C167.984 125.554 168.407 124.389 169.106 123.705C169.616 123.195 170.271 122.933 171.101 122.933C173.402 122.933 175.528 123.588 177.436 124.87L177.888 125.19V123.996L177.757 123.908C175.776 122.612 173.533 121.957 171.101 121.957Z" fill="white"/>
<path d="M188.665 144.123C187.98 143.409 187.572 142.244 187.456 140.671C187.325 139.025 187.281 137.147 187.31 135.05V132.457C187.28 130.404 187.325 128.525 187.456 126.865C187.572 125.277 187.98 124.127 188.665 123.442C189.16 122.947 189.801 122.7 190.602 122.7H190.718C192.262 122.7 193.733 122.991 195.102 123.588C196.474 124.164 197.714 125.017 198.743 126.093C199.092 126.442 199.267 126.879 199.267 127.433V140.074C199.267 140.656 199.077 141.093 198.684 141.428C197.679 142.462 196.485 143.292 195.131 143.904C193.776 144.501 192.291 144.807 190.718 144.807H190.602C189.83 144.807 189.189 144.574 188.665 144.123ZM203.738 124.986C202.34 124.185 201.146 123.122 200.185 121.84L200.097 121.724H199.267V125.219C198.189 124.127 196.937 123.282 195.524 122.685C194.024 122.044 192.408 121.724 190.718 121.724C189.073 121.724 187.485 122.044 186.014 122.685C184.543 123.326 183.262 124.214 182.17 125.321C181.077 126.428 180.204 127.71 179.563 129.137C178.922 130.564 178.602 132.093 178.602 133.666C178.602 135.37 178.936 136.972 179.592 138.428C180.247 139.899 181.15 141.195 182.257 142.273C183.364 143.366 184.66 144.239 186.131 144.851C187.602 145.477 189.146 145.797 190.719 145.797C192.451 145.797 194.083 145.448 195.568 144.763C196.952 144.137 198.189 143.307 199.267 142.273V144.385C199.267 144.705 199.151 144.807 198.845 144.807H198.219V145.798H208.69V144.807H208.064C207.67 144.807 207.583 144.661 207.583 144.385V127.87C207.583 127.608 207.67 127.447 208.064 127.447H208.69V126.501L208.428 126.471C206.709 126.296 205.136 125.802 203.738 124.986Z" fill="white"/>
<path d="M144.537 136.39C144.041 135.472 143.401 134.584 142.658 133.754C141.915 132.938 141.114 132.122 140.269 131.365C139.439 130.608 138.638 129.85 137.91 129.108C137.182 128.365 136.585 127.622 136.119 126.879C135.668 126.18 135.434 125.438 135.434 124.695C135.434 124.2 135.653 123.792 136.075 123.457C136.527 123.108 137.036 122.933 137.633 122.933C138.449 122.933 139.235 123.049 139.978 123.253C140.721 123.471 141.405 123.777 142.002 124.171C142.294 124.345 142.527 124.535 142.672 124.695C142.804 124.826 142.891 124.928 142.935 124.971C143.007 125.088 143.124 125.277 143.299 125.554C143.444 125.801 143.517 126.122 143.517 126.501V128.175H144.377V123.384H143.517V124.345L143.255 124.083C143.051 123.879 142.789 123.675 142.469 123.471C141.813 123.02 141.056 122.685 140.226 122.452C138.478 121.971 136.396 122.001 134.692 122.51C133.789 122.772 132.988 123.151 132.318 123.631C131.634 124.112 131.08 124.695 130.687 125.365C130.279 126.049 130.075 126.806 130.075 127.651C130.075 128.598 130.337 129.515 130.891 130.36C131.415 131.19 132.085 132.006 132.886 132.792C133.658 133.564 134.517 134.336 135.42 135.122C136.308 135.88 137.138 136.68 137.925 137.481C138.682 138.282 139.323 139.127 139.818 140.001C140.307 140.831 140.563 141.776 140.561 142.739C140.561 143.336 140.445 143.817 140.241 144.151C140.022 144.501 139.745 144.763 139.425 144.938C139.076 145.127 138.712 145.244 138.318 145.302C137.948 145.369 137.573 145.403 137.197 145.404C136.367 145.404 135.58 145.302 134.867 145.113C134.172 144.934 133.506 144.659 132.886 144.297C132.304 143.963 131.779 143.555 131.357 143.089C131.211 142.914 131.066 142.739 130.935 142.521L130.847 142.389H129.886L130.177 142.841C130.585 143.482 131.095 144.021 131.721 144.487C132.42 145.025 133.25 145.448 134.182 145.768C135.129 146.074 136.134 146.234 137.197 146.234C138.318 146.234 139.382 146.089 140.357 145.783C141.333 145.477 142.207 145.04 142.935 144.457C143.671 143.882 144.264 143.144 144.668 142.302C145.076 141.457 145.294 140.482 145.294 139.419C145.294 138.341 145.032 137.322 144.537 136.39Z" fill="white"/>
</svg>
