<svg width="250" height="250" viewBox="0 0 250 250" fill="none" xmlns="http://www.w3.org/2000/svg">
<rect width="250" height="250" fill="url(#paint0_linear_304_17)"/>
<path d="M183.677 115.673H210V185.054H183.677V159.254H123.152L155.471 64.9456H183.956L162.026 133.454H183.677V115.673ZM72.5981 134.849L41.0457 163.961V185.054H114.178L123.152 159.254L84.4522 159.255L91.9482 152.281C110.426 135.024 121.234 123.344 121.234 102.948C121.234 79.0659 103.976 64.9456 80.7916 64.9456C56.5605 64.9456 40 82.3778 40 107.829H67.8918C67.8918 98.0666 71.9012 91.0941 80.7916 91.0941C88.8104 91.0941 93.3427 96.8462 93.3427 103.645C93.3427 113.407 85.8467 122.647 72.5981 134.849Z" fill="white"/>
<defs>
<linearGradient id="paint0_linear_304_17" x1="125" y1="0" x2="125" y2="250" gradientUnits="userSpaceOnUse">
<stop stop-color="#294DA9"/>
<stop offset="1" stop-color="#192F68"/>
</linearGradient>
</defs>
</svg>
