<svg width="250" height="250" viewBox="0 0 250 250" fill="none" xmlns="http://www.w3.org/2000/svg">
<rect width="250" height="250" fill="url(#paint0_linear_304_13)"/>
<path d="M95.9471 133.363C91.2901 133.363 88.3789 129.797 88.3789 125.649C88.3789 121.501 91.2901 117.936 95.9471 117.936C100.605 117.936 103.516 121.501 103.516 125.649C103.516 129.797 100.605 133.363 95.9471 133.363ZM95.9471 107.093C84.9588 107.093 77.0268 114.879 77.0268 125.649V157.887H88.2333V142.77C90.5537 143.699 93.1507 144.206 95.9471 144.206C106.936 144.206 114.868 136.419 114.868 125.649C114.868 114.879 106.936 107.093 95.9471 107.093ZM137.694 133.363C142.352 133.363 145.263 129.797 145.263 125.649C145.263 121.502 142.352 117.936 137.694 117.936C133.037 117.936 130.126 121.502 130.126 125.649C130.126 129.797 133.037 133.363 137.694 133.363ZM118.774 125.649C118.774 114.879 126.706 107.093 137.694 107.093C148.683 107.093 156.615 114.879 156.615 125.649C156.615 136.419 148.683 144.206 137.694 144.206C126.706 144.206 118.774 136.419 118.774 125.649ZM175.399 107.966C165.793 107.966 161.136 113.715 161.136 122.084V143.333H172.343V123.03C172.343 120.337 173.725 118.664 176.636 118.664H184.448V107.966H175.399ZM206.279 143.333L210 132.635H204.615C200.904 132.635 199.667 130.67 199.667 127.614V118.664H210V107.966H199.667V100.907H188.46V129.215C188.46 137.584 193.117 143.333 202.723 143.333H206.279ZM55.7371 103.458C50.5301 103.458 45.6351 101.431 41.9541 97.7488L47.5563 92.1477C49.741 94.3327 52.6468 95.5364 55.7371 95.5364C58.8273 95.5364 61.7331 94.3327 63.9193 92.1477L63.9525 92.1131L69.5733 97.6956L69.5298 97.7401C65.8388 101.431 60.9441 103.458 55.7371 103.458ZM58.1634 121.136L58.1594 121.136C54.8144 120.614 51.6547 120.122 51.6547 118.595C51.6547 117.201 53.7649 116.336 57.162 116.336C60.9792 116.336 64.5031 116.989 67.6357 118.275L68.0501 118.445L71.0415 109.845L70.7263 109.672C67.3653 107.836 62.1678 106.695 57.162 106.695C46.7365 106.695 40 111.519 40 118.985C40 128.356 48.5674 129.609 54.8276 130.525C58.0581 130.998 61.1094 131.446 61.1094 132.82C61.1094 133.389 59.9355 135.014 54.7188 135.014C51.1841 135.014 46.8337 134.359 43.3709 133.067L42.9647 132.915L40 141.438L40.3306 141.606C44.0449 143.487 50.267 144.655 55.2774 144.655C65.901 144.655 72.7652 139.908 72.7652 132.56C72.7652 123.414 64.3256 122.098 58.1634 121.136Z" fill="white"/>
<defs>
<linearGradient id="paint0_linear_304_13" x1="125" y1="0" x2="125" y2="250" gradientUnits="userSpaceOnUse">
<stop stop-color="#34B5A3"/>
<stop offset="1" stop-color="#4D8B82"/>
</linearGradient>
</defs>
</svg>
