<svg width="250" height="250" viewBox="0 0 250 250" fill="none" xmlns="http://www.w3.org/2000/svg">
<rect width="250" height="250" fill="#00283D"/>
<path d="M97.9601 98.0521C107.427 99.4011 118.566 90.7113 127.542 83.9637C135.963 77.6303 146.336 69.8508 154.111 69.9382C159.192 69.9961 163.646 72.9123 165.041 76.8576C164.906 75.3511 164.186 70.8705 163.67 68.7271C162.685 65.794 159.996 59.2862 151.023 59.3252C141.764 59.3638 131.415 67.3808 123.161 73.4452C112.913 80.975 103.73 88.8609 93.9812 87.0614C88.7496 86.0925 86.4852 83.6754 85.7369 81.5225C85.8362 82.8908 86.5242 87.2118 87.0835 89.5683C88.3376 92.3825 91.0092 97.0616 97.9601 98.0521Z" fill="#FFA300"/>
<path d="M138.275 42.139C119.774 36.0089 101.183 43.4904 91.1196 59.0128C91.1196 59.0128 93.1976 63.4812 101.75 56.3511C115.075 45.2391 122.019 40.1819 138.275 42.139Z" fill="#FFC700"/>
<path d="M117.256 54.411C113.158 57.4118 107.207 61.9578 102.988 64.777C98.0011 68.1119 91.0309 72.813 87.652 66.6054C87.1604 68.1387 86.24 71.3353 86.2085 72.75C86.3758 74.7674 88.3471 79.0833 94.1476 79.1826C101.607 79.311 108.517 72.871 119.077 65.0359C130.172 56.8014 137.898 51.3952 146.937 52.4512C154.099 53.2866 157.533 56.6631 160.151 60.0417C157.882 55.6895 153.299 50.4047 147.378 46.6023C140.814 42.386 130.484 44.7232 117.256 54.411Z" fill="#FFE003"/>
<path d="M112.407 115.56C130.908 121.69 149.499 114.209 159.562 98.6863C159.562 98.6863 157.484 94.2179 148.932 101.348C135.607 112.46 128.663 117.517 112.407 115.56Z" fill="#FF870D"/>
<path d="M133.426 103.288C137.524 100.287 143.475 95.741 147.694 92.9218C152.68 89.5869 159.651 84.8858 163.03 91.0934C163.521 89.5602 164.442 86.3635 164.473 84.9488C164.306 82.9314 162.334 78.6155 156.534 78.5162C149.075 78.3878 142.165 84.8279 131.605 92.663C120.51 100.897 112.784 106.304 103.745 105.248C96.583 104.412 93.1489 101.036 90.5305 97.6571C92.7999 102.009 97.3822 107.294 103.304 111.097C109.868 115.313 120.197 112.976 133.426 103.288Z" fill="#FF870D"/>
<path d="M87.6974 145.76L87.1838 150.871C84.6068 149.761 82.151 149.207 79.7749 149.207C77.5566 149.207 76.6456 149.643 76.6456 150.711C76.6456 151.464 77.1206 151.82 78.5882 152.137L83.2215 153.208C87.1038 154.118 88.6879 156.415 88.6879 159.703C88.6879 164.099 85.4012 166.436 79.9324 166.436C76.0115 166.436 73.6353 166.16 71.4967 165.446L72.0512 160.178C74.4274 161.208 76.8442 161.643 79.9321 161.643C82.3492 161.643 83.1826 161.248 83.2212 160.059C83.2212 159.148 82.7052 158.751 80.884 158.276L76.251 157.087C72.7247 156.177 71.1796 154.317 71.1796 150.948C71.1796 146.908 74.4684 144.493 79.9737 144.493C82.7059 144.494 85.3602 144.927 87.6974 145.76Z" fill="#FFA300"/>
<path d="M107.266 159.822L106.83 159.783C106.317 164.337 104.176 166.596 99.7796 166.596C95.0663 166.596 92.2935 163.545 92.2935 158.197V145.048H98.1545V157.485C98.1545 160.02 99.3826 161.367 101.601 161.367C104.849 161.367 106.237 160.02 106.237 157.01V145.048H112.098V165.882H106.672L107.266 159.822Z" fill="#FFA300"/>
<path d="M129.878 144.492C125.325 144.492 123.107 146.709 122.602 151.146L122.154 151.107L122.757 145.056H116.765V173.559H122.952V166.944L122.446 162.197L122.874 162.158C123.594 164.609 125.695 166.438 129.606 166.438C135.151 166.438 138.672 162.041 138.672 155.465C138.672 148.85 135.151 144.492 129.878 144.492ZM127.991 161.243C124.664 161.243 122.874 159.22 122.874 155.465C122.874 151.71 124.664 149.687 127.991 149.687C131.279 149.687 133.01 151.71 133.01 155.465C133.01 159.22 131.279 161.243 127.991 161.243Z" fill="#FFA300"/>
<path d="M161.183 155.076C161.183 148.733 157.253 144.492 151.396 144.492C145.365 144.492 141.143 149.005 141.143 155.465C141.143 162.118 145.054 166.438 152.272 166.438C154.762 166.438 157.525 165.873 160.074 164.648L159.627 159.433C156.747 160.698 154.49 161.204 152.506 161.204C148.848 161.204 147.214 159.842 146.805 157.04H161.066C161.144 156.418 161.183 155.737 161.183 155.076ZM146.883 153.364C147.369 150.834 148.906 149.531 151.396 149.531C153.692 149.531 155.249 150.737 155.618 153.364H146.883Z" fill="#FFA300"/>
<path d="M179.588 145.095L179.16 151.146L176.981 150.951C172.234 150.523 170.755 153.013 170.755 157.041V165.874H164.899V145.056H170.483L169.938 151.263L170.483 151.301C171.125 146.749 172.973 144.492 176.436 144.492C177.584 144.492 178.615 144.686 179.588 145.095Z" fill="#FFA300"/>
<path d="M77.1135 180.933C72.5607 180.933 70.3428 183.151 69.837 187.587L69.3895 187.548L69.9925 181.497H64V210H70.187V203.385L69.6812 198.638L70.1094 198.599C70.8293 201.05 72.9303 202.879 76.8411 202.879C82.3861 202.879 85.9076 198.482 85.9076 191.906C85.9076 185.291 82.3861 180.933 77.1135 180.933ZM75.2262 197.684C71.8991 197.684 70.1094 195.661 70.1094 191.906C70.1094 188.151 71.8995 186.127 75.2262 186.127C78.5143 186.127 80.2458 188.151 80.2458 191.906C80.2458 195.661 78.514 197.684 75.2262 197.684Z" fill="#FFA300"/>
<path d="M99.1766 180.933C92.6976 180.933 88.3783 185.291 88.3783 191.906C88.3783 198.521 92.6976 202.879 99.1766 202.879C105.675 202.879 109.994 198.521 109.994 191.906C109.994 185.291 105.675 180.933 99.1766 180.933ZM99.1766 197.645C95.8106 197.645 94.0402 195.661 94.0402 191.906C94.0402 188.19 95.8106 186.166 99.1766 186.166C102.542 186.166 104.332 188.19 104.332 191.906C104.332 195.661 102.542 197.645 99.1766 197.645Z" fill="#FFA300"/>
<path d="M121.05 197.333C119.742 197.333 119.11 196.541 119.11 195.035V177.073H113.247V195.948C113.247 200.225 115.465 202.879 119.505 202.879C121.208 202.879 122.634 202.562 123.981 201.927L123.468 196.778C122.436 197.176 121.883 197.333 121.05 197.333Z" fill="#FFA300"/>
<path d="M138.479 189.649L133.846 188.578C132.378 188.261 131.904 187.905 131.904 187.154C131.904 186.084 132.814 185.648 135.033 185.648C137.409 185.648 139.865 186.202 142.442 187.311L142.955 182.201C140.618 181.37 137.964 180.934 135.231 180.934C129.726 180.934 126.437 183.352 126.437 187.391C126.437 190.758 127.982 192.62 131.509 193.531L136.142 194.718C137.963 195.195 138.479 195.59 138.479 196.5C138.44 197.689 137.607 198.087 135.192 198.087C132.102 198.087 129.685 197.651 127.309 196.619L126.754 201.889C128.893 202.602 131.269 202.878 135.192 202.878C140.659 202.878 143.945 200.543 143.945 196.145C143.946 192.858 142.362 190.56 138.479 189.649Z" fill="#FFA300"/>
<path d="M162.331 181.497L162.642 184.707L162.214 184.746C161.26 182.47 159.587 180.933 155.638 180.933C149.976 180.933 146.396 185.33 146.396 191.906C146.396 198.521 149.917 202.879 155.19 202.879C159.743 202.879 161.961 200.467 162.486 195.758L162.934 195.797L162.253 202.335H168.304V181.497H162.331ZM157.097 197.684C153.809 197.684 152.058 195.661 152.058 191.906C152.058 188.151 153.809 186.127 157.097 186.127C160.424 186.127 162.214 188.151 162.214 191.906C162.214 195.661 160.424 197.684 157.097 197.684Z" fill="#FFA300"/>
<path d="M186.768 201.926C185.503 202.49 184.102 202.879 181.612 202.879C177.468 202.879 174.802 200.506 174.802 195.992V186.828H171.631V181.497H174.802V177.139L180.658 176.263V181.497H185.619V186.828H180.658V194.396C180.658 196.653 181.3 197.334 183.324 197.334C184.277 197.334 185.094 197.178 186.203 196.731L186.768 201.926Z" fill="#FFA300"/>
</svg>
