<svg width="250" height="250" viewBox="0 0 250 250" fill="none" xmlns="http://www.w3.org/2000/svg">
<rect width="250" height="250" fill="#0F4C8B"/>
<path d="M120.038 128.794H116.925C108.162 128.794 95.8238 129.832 95.8238 138.018C95.8238 143.323 100.783 144.936 105.51 144.936C114.963 144.936 120.038 139.517 120.038 130.753V128.794ZM120.269 147.012H119.924C117.155 151.852 110.583 155.428 102.742 155.428C93.8644 155.428 81.9887 151.163 81.9887 138.249C81.9887 121.759 102.742 119.455 120.038 119.455V118.07C120.038 111.266 114.273 107.925 107.354 107.925C101.475 107.925 95.8238 110.691 92.2502 114.266L85.1008 105.85C91.328 100.083 100.088 97.0852 108.508 97.0852C128.34 97.0852 133.183 109.309 133.183 120.377V154.044H120.269V147.012ZM40 107.348V97.1151H48.9453V89.225L62.55 82V97.1151H74.2378V107.349H62.55V134.638C62.55 139.596 62.3031 143.169 68.4131 143.169C70.2569 143.169 72.6786 142.824 74.2944 142.016L74.7551 152.854C72.3334 153.776 68.6443 154.354 65.5315 154.354C50.8882 154.354 48.9453 145.36 48.9453 134.752V107.348H40Z" fill="white"/>
<path d="M195.717 122.036V121.797C203.398 120.477 207.359 112.796 207.359 105.474C207.359 88.5755 190.958 82.4183 176.525 82.3153V82.3106C176.49 82.3106 176.456 82.3145 176.421 82.3145C176.332 82.3137 176.241 82.3106 176.152 82.3106V82.3239C158.457 82.4592 145.077 92.1632 144.599 110.755H163.682C163.563 103.248 168.299 98.94 176.474 98.8795C182.982 98.9392 188.275 101.929 188.275 107.275C188.275 114.476 180.714 116.036 174.713 116.036C172.913 116.158 171.112 115.797 169.313 115.917V130.081C171.112 129.96 172.913 129.841 174.713 129.841C182.875 129.841 189.597 131.999 189.597 141.243C189.597 148.563 182.995 151.564 176.033 151.564C165.712 151.564 160.79 146.643 161.031 136.681H141.947C140.748 158.164 156.589 168.126 176.153 168.126C192.716 168.126 210 160.205 210 141.243C209.999 131.398 205.319 124.558 195.717 122.036Z" fill="#E4110F"/>
</svg>
