<svg width="250" height="250" viewBox="0 0 250 250" fill="none" xmlns="http://www.w3.org/2000/svg">
<rect width="250" height="250" fill="#231F20"/>
<path d="M67.8296 183.861C50.5589 183.861 40 173.302 40 156.238V125.961L58.987 119.823V155.507C58.987 162.373 62.2126 166.172 67.883 166.172C73.5534 166.172 76.779 162.323 76.779 155.507V114.049L95.766 107.965V156.238C95.766 173.302 85.2071 183.861 67.9364 183.861H67.8296Z" fill="white"/>
<path d="M113.086 135.742H105.544V118.679H113.086V102.344L132.073 96.2054V118.679H139.772V135.742H132.073L131.967 182.299H112.983L113.086 135.742Z" fill="white"/>
<path d="M144.299 118.68H164.847L177.696 156.967L190.545 118.68H210L186.849 182.299H167.756L144.35 118.68H144.299Z" fill="white"/>
<path d="M40 115.506L132.073 86.0101V66.1394L40 95.5811V115.506Z" fill="#FFCA05"/>
</svg>
