<svg width="250" height="250" viewBox="0 0 250 250" fill="none" xmlns="http://www.w3.org/2000/svg">
<rect width="250" height="250" fill="#E00521"/>
<path d="M127.143 139.727H147.386V133.401H134.312V110.205H127.143V139.727Z" fill="white"/>
<path d="M151.603 139.727H158.351V117.797H151.603V139.727ZM151.603 115.266H158.351V108.518H151.603V115.266Z" fill="white"/>
<path d="M169.738 139.727H177.33L185.764 117.796H178.974L173.745 132.684L168.557 117.796H161.303L169.738 139.727Z" fill="white"/>
<path d="M186.819 128.762C186.819 135.214 191.922 140.149 198.628 140.149C203.351 140.149 206.936 137.787 208.918 134.497L203.435 131.967C202.465 133.527 200.778 134.413 198.838 134.413C196.055 134.413 194.621 132.937 193.862 131.208H209.761C211.195 123.785 206.008 117.375 198.417 117.375C191.838 117.375 186.819 122.309 186.819 128.762ZM193.946 126.147C194.663 124.46 196.266 123.11 198.417 123.11C200.568 123.11 202.17 124.291 202.929 126.147H193.946Z" fill="white"/>
<path fill-rule="evenodd" clip-rule="evenodd" d="M110.383 160.191H40V89.8087H110.383V160.191ZM47.2602 110.034V116.448H56.0265V139.967H63.296V116.448L73.452 116.466V139.967H80.7212V122.263L93.7636 139.967H100.819V110.034H93.5499V127.737L80.5079 110.034H47.2602Z" fill="white"/>
</svg>
