<svg width="250" height="250" viewBox="0 0 250 250" fill="none" xmlns="http://www.w3.org/2000/svg">
<rect width="250" height="250" fill="#101E28"/>
<path d="M41.0623 118.479C44.0324 108.929 52.9014 102 63.3789 102C73.8563 102 82.7254 108.929 85.6955 118.479H66.9362V127.171H66.7753L62.0397 119.765C61.4638 118.81 60.8876 118.483 59.7355 118.483H41.0623V118.479ZM81.3525 121.896V135.781H76.6955V121.896H71.3689V135.781H68.2604C67.1083 135.781 66.5584 135.454 65.9562 134.499L59.93 125.434H59.8328V135.785H55.3066V121.9H50.0024V135.785H45.2668V121.9H40.2731C40.0935 123.073 40 124.276 40 125.502C40 138.481 50.4663 149 63.3789 149C76.2914 149 86.7577 138.481 86.7577 125.502C86.7577 124.276 86.6642 123.073 86.4847 121.9H81.3525V121.896Z" fill="#FF28FF"/>
<path d="M117.001 118.479H109.968V135.781H113.754V130.593H116.63C120.491 130.593 123.588 128.517 123.588 124.513V124.464C123.588 120.93 121.104 118.483 116.997 118.483L117.001 118.479ZM119.754 124.585C119.754 126.066 118.647 127.175 116.754 127.175H113.754V121.896H116.679C118.572 121.896 119.754 122.829 119.754 124.536V124.585ZM159.341 124.239V124.19C159.341 120.629 156.906 118.479 152.851 118.479H144.981V135.781H148.766V130.243H151.74L154.874 134.95C155.219 135.469 155.798 135.781 156.419 135.781H159.853L155.649 129.604C157.837 128.788 159.337 127.032 159.337 124.242L159.341 124.239ZM155.507 124.438C155.507 125.897 154.448 126.829 152.604 126.829H148.77V121.896H152.533C154.377 121.896 155.507 122.757 155.507 124.389V124.438ZM160.77 121.896H166.007V135.781H169.792V121.896H173.791C174.475 121.896 175.029 121.34 175.029 120.652V118.483H160.766V121.9L160.77 121.896ZM183.789 125.427C180.819 124.664 180.083 124.291 180.083 123.156V123.107C180.083 122.269 180.842 121.603 182.293 121.603C183.434 121.603 184.609 122.002 185.798 122.69C186.359 123.013 187.07 122.855 187.437 122.321L188.727 120.441C186.984 119.035 184.848 118.246 182.342 118.246C178.829 118.246 176.327 120.317 176.327 123.453V123.502C176.327 126.934 178.56 127.893 182.024 128.784C184.897 129.525 185.488 130.017 185.488 130.98V131.029C185.488 132.04 184.556 132.657 183.008 132.657C181.459 132.657 180.056 132.127 178.777 131.243C178.25 130.878 177.532 130.972 177.12 131.465L175.639 133.247C177.7 135.097 180.329 136.01 182.933 136.01C186.64 136.01 189.243 134.085 189.243 130.653V130.604C189.243 127.592 187.28 126.333 183.793 125.419L183.789 125.427ZM101.638 125.427C98.668 124.664 97.9311 124.291 97.9311 123.156V123.107C97.9311 122.269 98.6904 121.603 100.142 121.603C101.283 121.603 102.457 122.002 103.647 122.69C104.204 123.013 104.919 122.855 105.285 122.321L106.576 120.441C104.833 119.035 102.697 118.246 100.19 118.246C96.678 118.246 94.1754 120.317 94.1754 123.453V123.502C94.1754 126.934 96.4086 127.893 99.8725 128.784C102.745 129.525 103.336 130.017 103.336 130.98V131.029C103.336 132.04 102.405 132.657 100.856 132.657C99.3076 132.657 97.9048 132.127 96.6257 131.243C96.0982 130.878 95.3801 130.972 94.9685 131.465L93.4872 133.247C95.5483 135.097 98.1779 136.01 100.781 136.01C104.488 136.01 107.092 134.085 107.092 130.653V130.604C107.092 127.592 105.128 126.333 101.642 125.419L101.638 125.427ZM133.688 118.246C128.806 118.246 124.849 122.223 124.849 127.13C124.849 132.036 128.806 136.014 133.688 136.014C138.569 136.014 142.527 132.036 142.527 127.13C142.527 122.223 138.569 118.246 133.688 118.246ZM133.688 132.423C130.781 132.423 128.424 130.055 128.424 127.134C128.424 124.212 130.781 121.844 133.688 121.844C136.594 121.844 138.951 124.212 138.951 127.134C138.951 130.055 136.594 132.423 133.688 132.423ZM202.504 132.499L205.305 130.326C208.354 127.953 209.828 126.521 209.828 123.633V123.585C209.828 120.347 207.468 118.249 203.907 118.249C200.835 118.249 199.19 119.509 197.491 121.832L199.216 123.227C199.725 123.637 200.458 123.577 200.907 123.1C201.823 122.122 202.612 121.66 203.66 121.66C205.01 121.66 205.971 122.449 205.971 123.908C205.971 125.367 205.137 126.28 202.998 128.059L198.172 132.033C197.604 132.502 197.271 133.206 197.271 133.946V135.789H210V132.502H202.504V132.499Z" fill="white"/>
</svg>
