<svg width="250" height="250" viewBox="0 0 250 250" fill="none" xmlns="http://www.w3.org/2000/svg">
<rect width="250" height="250" fill="#101E28"/>
<path d="M41.0623 118.395C44.0324 108.894 52.9014 102 63.3789 102C73.8564 102 82.7255 108.894 85.6956 118.395H66.9363V127.044H66.7756L62.0398 119.675C61.4639 118.724 60.8877 118.399 59.7356 118.399H41.0623V118.395ZM81.3526 121.795V135.61H76.6956V121.795H71.369V135.61H68.2605C67.1084 135.61 66.5585 135.284 65.9562 134.334L59.9301 125.315H59.8329V135.613H55.3067V121.799H50.0025V135.613H45.2668V121.799H40.2731C40.0935 122.966 40 124.163 40 125.383C40 138.295 50.4663 148.762 63.3789 148.762C76.2918 148.762 86.7579 138.295 86.7579 125.383C86.7579 124.163 86.6644 122.966 86.4848 121.799H81.3526V121.795Z" fill="#FF28FF"/>
<path d="M117.001 118.395H109.969V135.61H113.754V130.448H116.631C120.491 130.448 123.588 128.383 123.588 124.399V124.35C123.588 120.834 121.104 118.399 116.997 118.399L117.001 118.395ZM119.754 124.47C119.754 125.944 118.647 127.047 116.754 127.047H113.754V121.796H116.679C118.572 121.796 119.754 122.723 119.754 124.422V124.47ZM159.341 124.126V124.077C159.341 120.535 156.906 118.395 152.851 118.395H144.981V135.61H148.767V130.1H151.74L154.875 134.783C155.219 135.299 155.799 135.61 156.42 135.61H159.854L155.649 129.464C157.838 128.652 159.338 126.905 159.338 124.13L159.341 124.126ZM155.507 124.324C155.507 125.776 154.448 126.703 152.604 126.703H148.77V121.796H152.533C154.377 121.796 155.507 122.652 155.507 124.276V124.324ZM160.77 121.796H166.007V135.61H169.793V121.796H173.791C174.476 121.796 175.03 121.242 175.03 120.557V118.399H160.767V121.799L160.77 121.796ZM183.79 125.308C180.82 124.549 180.083 124.178 180.083 123.049V123C180.083 122.166 180.842 121.504 182.294 121.504C183.435 121.504 184.609 121.9 185.799 122.585C186.36 122.907 187.071 122.749 187.437 122.218L188.728 120.348C186.985 118.949 184.849 118.163 182.342 118.163C178.83 118.163 176.328 120.225 176.328 123.344V123.393C176.328 126.808 178.561 127.762 182.025 128.648C184.897 129.385 185.488 129.875 185.488 130.833V130.882C185.488 131.888 184.557 132.501 183.008 132.501C181.46 132.501 180.057 131.974 178.778 131.095C178.25 130.732 177.532 130.825 177.121 131.316L175.639 133.089C177.7 134.929 180.33 135.838 182.933 135.838C186.64 135.838 189.244 133.923 189.244 130.508V130.459C189.244 127.463 187.28 126.21 183.794 125.301L183.79 125.308ZM101.638 125.308C98.6682 124.549 97.9313 124.178 97.9313 123.049V123C97.9313 122.166 98.6906 121.504 100.142 121.504C101.283 121.504 102.457 121.9 103.647 122.585C104.204 122.907 104.919 122.749 105.285 122.218L106.576 120.348C104.833 118.949 102.697 118.163 100.19 118.163C96.6782 118.163 94.1756 120.225 94.1756 123.344V123.393C94.1756 126.808 96.4087 127.762 99.8726 128.648C102.745 129.385 103.337 129.875 103.337 130.833V130.882C103.337 131.888 102.405 132.501 100.856 132.501C99.3078 132.501 97.905 131.974 96.6259 131.095C96.0984 130.732 95.3802 130.825 94.9686 131.316L93.4873 133.089C95.5484 134.929 98.178 135.838 100.782 135.838C104.489 135.838 107.092 133.923 107.092 130.508V130.459C107.092 127.463 105.128 126.21 101.642 125.301L101.638 125.308ZM133.688 118.163C128.806 118.163 124.849 122.121 124.849 127.003C124.849 131.884 128.806 135.842 133.688 135.842C138.57 135.842 142.527 131.884 142.527 127.003C142.527 122.121 138.57 118.163 133.688 118.163ZM133.688 132.269C130.782 132.269 128.425 129.913 128.425 127.006C128.425 124.1 130.782 121.743 133.688 121.743C136.595 121.743 138.951 124.1 138.951 127.006C138.951 129.913 136.595 132.269 133.688 132.269Z" fill="white"/>
<path d="M198.703 118.392L198.211 126.86L200.378 128.294C201.376 127.869 202.334 127.657 203.25 127.657C204.166 127.657 204.903 127.864 205.459 128.289C206.015 128.697 206.299 129.266 206.299 129.984C206.299 130.752 206.045 131.348 205.538 131.772C205.031 132.197 204.322 132.409 203.422 132.409C202.338 132.409 201.318 132.048 200.266 131.299C199.73 130.919 198.998 130.959 198.574 131.462L197.053 133.27C198.853 134.985 200.914 135.839 203.401 135.839C205.381 135.839 207.03 135.313 208.208 134.252C209.403 133.174 210 131.723 210 129.911C210 126.897 208.462 125.496 206.856 124.866C205.783 124.445 204.681 124.374 203.986 124.374C203.266 124.374 202.524 124.462 201.739 124.658L201.935 121.782H208.009C208.694 121.782 209.244 121.237 209.244 120.551V118.392H198.703Z" fill="white"/>
</svg>
