<svg width="250" height="250" viewBox="0 0 250 250" fill="none" xmlns="http://www.w3.org/2000/svg">
<rect width="250" height="250" fill="#101E28"/>
<path d="M41.0624 118.396C44.0327 108.894 52.9022 102 63.3804 102C73.8585 102 82.7282 108.894 85.6983 118.396H66.938V127.045H66.777L62.0412 119.676C61.465 118.725 60.8888 118.4 59.7368 118.4H41.0624V118.396ZM81.3553 121.797V135.612H76.6978V121.797H71.3709V135.612H68.2622C67.1101 135.612 66.5601 135.286 65.9579 134.336L59.9313 125.317H59.834V135.615H55.3076V121.8H50.0031V135.615H45.2671V121.8H40.2731C40.0935 122.968 40 124.165 40 125.384C40 138.298 50.4669 148.764 63.3804 148.764C76.2939 148.764 86.7608 138.298 86.7608 125.384C86.7608 124.165 86.6673 122.968 86.4877 121.8H81.3553V121.797Z" fill="#FF28FF"/>
<path d="M117.006 118.396H109.973V135.612H113.759V130.449H116.636C120.496 130.449 123.593 128.384 123.593 124.4V124.352C123.593 120.835 121.11 118.4 117.002 118.4L117.006 118.396ZM119.759 124.471C119.759 125.945 118.652 127.049 116.759 127.049H113.759V121.797H116.684C118.577 121.797 119.759 122.724 119.759 124.423V124.471ZM159.349 124.127V124.079C159.349 120.536 156.913 118.396 152.858 118.396H144.987V135.612H148.773V130.102H151.747L154.882 134.785C155.226 135.301 155.806 135.612 156.427 135.612H159.861L155.656 129.466C157.845 128.654 159.345 126.907 159.345 124.131L159.349 124.127ZM155.514 124.326C155.514 125.777 154.456 126.705 152.611 126.705H148.777V121.797H152.54C154.385 121.797 155.514 122.653 155.514 124.277V124.326ZM160.778 121.797H166.015V135.612H169.801V121.797H173.8C174.484 121.797 175.038 121.243 175.038 120.558V118.4H160.774V121.8L160.778 121.797ZM183.799 125.309C180.829 124.55 180.092 124.18 180.092 123.05V123.001C180.092 122.167 180.851 121.505 182.303 121.505C183.444 121.505 184.618 121.901 185.808 122.586C186.369 122.908 187.08 122.751 187.446 122.219L188.737 120.349C186.994 118.95 184.858 118.164 182.351 118.164C178.839 118.164 176.336 120.226 176.336 123.345V123.394C176.336 126.809 178.569 127.763 182.033 128.65C184.906 129.387 185.497 129.877 185.497 130.835V130.883C185.497 131.89 184.566 132.503 183.017 132.503C181.468 132.503 180.066 131.976 178.786 131.097C178.259 130.734 177.541 130.827 177.129 131.317L175.648 133.09C177.709 134.931 180.339 135.84 182.942 135.84C186.649 135.84 189.253 133.924 189.253 130.509V130.461C189.253 127.464 187.289 126.211 183.803 125.302L183.799 125.309ZM101.642 125.309C98.672 124.55 97.9351 124.18 97.9351 123.05V123.001C97.9351 122.167 98.6944 121.505 100.146 121.505C101.287 121.505 102.461 121.901 103.651 122.586C104.208 122.908 104.923 122.751 105.29 122.219L106.58 120.349C104.837 118.95 102.701 118.164 100.195 118.164C96.6817 118.164 94.1791 120.226 94.1791 123.345V123.394C94.1791 126.809 96.4126 127.763 99.8765 128.65C102.749 129.387 103.341 129.877 103.341 130.835V130.883C103.341 131.89 102.409 132.503 100.86 132.503C99.3116 132.503 97.9088 131.976 96.6295 131.097C96.102 130.734 95.3838 130.827 94.9722 131.317L93.4909 133.09C95.552 134.931 98.1819 135.84 100.785 135.84C104.493 135.84 107.096 133.924 107.096 130.509V130.461C107.096 127.464 105.133 126.211 101.646 125.302L101.642 125.309ZM133.694 118.164C128.812 118.164 124.854 122.122 124.854 127.004C124.854 131.886 128.812 135.844 133.694 135.844C138.576 135.844 142.534 131.886 142.534 127.004C142.534 122.122 138.576 118.164 133.694 118.164ZM133.694 132.271C130.787 132.271 128.43 129.914 128.43 127.008C128.43 124.101 130.787 121.744 133.694 121.744C136.601 121.744 138.957 124.101 138.957 127.008C138.957 129.914 136.601 132.271 133.694 132.271ZM205.403 125.384L209.742 121.243V118.4H198.149V120.394C198.149 121.078 198.702 121.632 199.387 121.632H204.886L200.794 125.747L201.381 128.149H202.948C205.055 128.149 206.304 128.934 206.304 130.33V130.378C206.304 131.65 205.298 132.462 203.876 132.462C202.455 132.462 201.463 132.009 200.509 131.175C200.034 130.763 199.32 130.797 198.863 131.231L197.135 132.877C198.605 134.617 200.738 135.844 203.824 135.844C207.647 135.844 210 133.468 210 130.232V130.184C210 127 207.722 125.773 205.391 125.38L205.403 125.384Z" fill="white"/>
</svg>
