<svg width="250" height="250" viewBox="0 0 250 250" fill="none" xmlns="http://www.w3.org/2000/svg">
<rect width="250" height="250" fill="#101E28"/>
<path d="M129.752 102.622H121.939V121.741H126.146V116.005H129.342C133.631 116.005 137.072 113.709 137.072 109.287V109.233C137.072 105.329 134.311 102.622 129.752 102.622ZM132.811 109.37C132.811 111.007 131.58 112.233 129.478 112.233H126.146V106.398H129.396C131.501 106.398 132.811 107.43 132.811 109.316V109.37ZM176.785 108.988V108.934C176.785 105.001 174.083 102.626 169.573 102.626H160.832V121.745H165.039V115.628H168.343L171.828 120.829C172.21 121.401 172.856 121.745 173.544 121.745H177.357L172.686 114.915C175.119 114.016 176.785 112.076 176.785 108.988ZM172.524 109.208C172.524 110.82 171.351 111.852 169.3 111.852H165.039V106.402H169.217C171.264 106.402 172.52 107.351 172.52 109.154V109.208H172.524ZM178.372 106.402H184.192V121.745H188.398V106.402H192.841C193.6 106.402 194.217 105.785 194.217 105.026V102.626H178.377V106.402H178.372ZM203.945 110.306C200.646 109.461 199.825 109.05 199.825 107.799V107.745C199.825 106.816 200.67 106.079 202.279 106.079C203.547 106.079 204.848 106.518 206.174 107.281C206.796 107.637 207.588 107.463 207.994 106.875L209.428 104.798C207.492 103.244 205.118 102.369 202.336 102.369C198.437 102.369 195.655 104.661 195.655 108.126V108.18C195.655 111.972 198.138 113.033 201.984 114.016C205.175 114.832 205.831 115.379 205.831 116.444V116.498C205.831 117.617 204.794 118.297 203.074 118.297C201.355 118.297 199.796 117.709 198.375 116.735C197.786 116.333 196.99 116.432 196.534 116.979L194.889 118.948C197.181 120.995 200.098 122.002 202.992 122.002C207.111 122.002 210 119.876 210 116.084V116.03C210 112.702 207.82 111.309 203.945 110.302V110.306ZM112.685 110.306C109.386 109.461 108.565 109.05 108.565 107.799V107.745C108.565 106.816 109.41 106.079 111.019 106.079C112.287 106.079 113.588 106.518 114.914 107.281C115.536 107.637 116.328 107.463 116.734 106.875L118.168 104.798C116.232 103.244 113.858 102.369 111.076 102.369C107.176 102.369 104.391 104.661 104.391 108.126V108.18C104.391 111.972 106.874 113.033 110.72 114.016C113.911 114.832 114.566 115.379 114.566 116.444V116.498C114.566 117.617 113.53 118.297 111.81 118.297C110.09 118.297 108.532 117.709 107.11 116.735C106.521 116.333 105.726 116.432 105.27 116.979L103.625 118.948C105.916 120.995 108.834 122.002 111.727 122.002C115.847 122.002 118.736 119.876 118.736 116.084V116.03C118.736 112.702 116.551 111.309 112.68 110.302L112.685 110.306ZM148.287 102.369C142.866 102.369 138.468 106.767 138.468 112.188C138.468 117.609 142.866 122.006 148.287 122.006C153.708 122.006 158.105 117.609 158.105 112.188C158.105 106.767 153.708 102.369 148.287 102.369ZM148.287 118.036C145.058 118.036 142.439 115.417 142.439 112.188C142.439 108.959 145.058 106.34 148.287 106.34C151.515 106.34 154.135 108.959 154.135 112.188C154.135 115.417 151.515 118.036 148.287 118.036Z" fill="white"/>
<path d="M65.4045 103.373L70.8621 111.867H71.047V101.897H92.6713C89.2476 90.9478 79.0292 83 66.9485 83C54.8677 83 44.6448 90.9478 41.2257 101.897H62.7509C64.0799 101.897 64.7422 102.272 65.4088 103.368L65.4045 103.373ZM93.5831 105.82H87.665V121.741H82.2977V105.82H76.1606V121.741H72.5781C71.2492 121.741 70.617 121.367 69.9203 120.27L62.9746 109.871H62.8627V121.741H57.6459V105.82H51.5303V121.741H46.0684V105.82H40.3139C40.1075 107.166 40 108.546 40 109.953C40 124.838 52.0636 136.901 66.9485 136.901C81.8332 136.901 93.897 124.838 93.897 109.953C93.897 108.546 93.7894 107.166 93.5831 105.82Z" fill="#FF28FF"/>
<path d="M75.7676 158.447C75.7676 162.583 73.5507 164.691 70.0638 164.691C66.5769 164.691 64.2799 162.393 64.2799 158.312V147.445H62.1432V158.447C62.1432 163.799 65.3315 166.664 70.0093 166.664C74.6866 166.664 77.9001 163.799 77.9001 158.283V147.445H75.7634V158.447H75.7676ZM83.5153 147.445H81.3786V166.365H94.1616V164.392H83.5153V147.445ZM93.5643 149.418H99.8636V166.365H102.078V149.418H108.429V147.445H93.5643V149.418ZM111.92 166.365H114.024V147.445H111.92V166.365ZM126.567 157.77L119.677 147.445H117.515V166.365H119.597V151.068L126.487 161.178H126.596L133.486 151.042V166.369H135.623V147.449H133.461L126.571 157.774L126.567 157.77ZM147.717 147.31L139.098 166.365H141.285L143.527 161.379H153.824L156.041 166.365H158.337L149.719 147.31H147.721H147.717ZM144.364 159.448L148.688 149.797L152.987 159.448H144.368H144.364ZM157.652 149.418H164.003V166.365H166.113V149.418H172.517V147.445H157.652V149.418ZM178.17 164.421V157.799H188.492V155.851H178.17V149.393H189.708V147.445H176.033V166.365H189.843V164.417H178.17V164.421Z" fill="white"/>
</svg>
