<svg width="250" height="250" viewBox="0 0 250 250" fill="none" xmlns="http://www.w3.org/2000/svg">
<rect width="250" height="250" fill="#101E28"/>
<path d="M41.0917 117.849C44.1439 108.085 53.2582 101 64.0256 101C74.7927 101 83.907 108.085 86.9593 117.849H67.6811V126.736H67.516L62.6493 119.163C62.0572 118.187 61.4653 117.852 60.2813 117.852H41.0917V117.849ZM82.4963 121.343V135.539H77.7103V121.343H72.2363V135.539H69.0418C67.858 135.539 67.2929 135.204 66.6739 134.228L60.4812 124.96H60.3813V135.543H55.7299V121.347H50.279V135.543H45.4124V121.347H40.2806C40.0961 122.546 40 123.776 40 125.029C40 138.299 50.7557 149.055 64.0256 149.055C77.2951 149.055 88.0509 138.299 88.0509 125.029C88.0509 123.776 87.9548 122.546 87.7704 121.347H82.4963V121.343Z" fill="#FF28FF"/>
<path d="M119.13 117.849H111.903V135.539H115.793V130.234H118.749C122.716 130.234 125.899 128.112 125.899 124.018V123.968C125.899 120.355 123.347 117.852 119.126 117.852L119.13 117.849ZM121.959 124.091C121.959 125.606 120.821 126.74 118.876 126.74H115.793V121.343H118.799C120.744 121.343 121.959 122.296 121.959 124.041V124.091ZM162.641 123.738V123.688C162.641 120.047 160.138 117.849 155.972 117.849H147.883V135.539H151.774V129.877H154.83L158.051 134.689C158.405 135.22 159.001 135.539 159.639 135.539H163.168L158.847 129.223C161.096 128.389 162.637 126.594 162.637 123.741L162.641 123.738ZM158.701 123.941C158.701 125.433 157.613 126.386 155.718 126.386H151.777V121.343H155.645C157.54 121.343 158.701 122.223 158.701 123.891V123.941ZM164.109 121.343H169.491V135.539H173.381V121.343H177.491C178.194 121.343 178.763 120.774 178.763 120.07V117.852H164.106V121.347L164.109 121.343ZM187.766 124.952C184.714 124.172 183.956 123.791 183.956 122.631V122.581C183.956 121.723 184.737 121.043 186.228 121.043C187.401 121.043 188.608 121.45 189.83 122.154C190.407 122.484 191.137 122.323 191.514 121.777L192.84 119.855C191.049 118.417 188.854 117.61 186.278 117.61C182.668 117.61 180.097 119.728 180.097 122.934V122.984C180.097 126.494 182.392 127.474 185.952 128.385C188.904 129.142 189.511 129.646 189.511 130.63V130.68C189.511 131.714 188.554 132.345 186.962 132.345C185.371 132.345 183.929 131.802 182.615 130.899C182.073 130.526 181.335 130.622 180.912 131.126L179.39 132.948C181.508 134.839 184.21 135.773 186.885 135.773C190.695 135.773 193.37 133.805 193.37 130.296V130.246C193.37 127.167 191.352 125.879 187.77 124.945L187.766 124.952ZM103.342 124.952C100.29 124.172 99.5328 123.791 99.5328 122.631V122.581C99.5328 121.723 100.313 121.043 101.805 121.043C102.977 121.043 104.184 121.45 105.407 122.154C105.979 122.484 106.713 122.323 107.09 121.777L108.417 119.855C106.625 118.417 104.43 117.61 101.855 117.61C98.2452 117.61 95.6733 119.728 95.6733 122.934V122.984C95.6733 126.494 97.9683 127.474 101.528 128.385C104.48 129.142 105.088 129.646 105.088 130.63V130.68C105.088 131.714 104.13 132.345 102.539 132.345C100.947 132.345 99.506 131.802 98.1913 130.899C97.6491 130.526 96.9112 130.622 96.4883 131.126L94.966 132.948C97.0843 134.839 99.7865 135.773 102.462 135.773C106.271 135.773 108.947 133.805 108.947 130.296V130.246C108.947 127.167 106.929 125.879 103.346 124.945L103.342 124.952ZM136.278 117.61C131.262 117.61 127.195 121.677 127.195 126.694C127.195 131.71 131.262 135.777 136.278 135.777C141.295 135.777 145.362 131.71 145.362 126.694C145.362 121.677 141.295 117.61 136.278 117.61ZM136.278 132.106C133.292 132.106 130.87 129.684 130.87 126.698C130.87 123.711 133.292 121.289 136.278 121.289C139.265 121.289 141.687 123.711 141.687 126.698C141.687 129.684 139.265 132.106 136.278 132.106ZM207.367 117.852L202.323 119.359L202.815 121.297C202.988 121.973 203.673 122.388 204.353 122.219L206.187 121.769V135.543H210V117.852H207.367Z" fill="white"/>
</svg>
