<svg width="250" height="250" viewBox="0 0 250 250" fill="none" xmlns="http://www.w3.org/2000/svg">
<rect width="250" height="250" fill="#101E28"/>
<path d="M41.0623 118.395C44.0324 108.894 52.9014 102 63.3788 102C73.8562 102 82.7253 108.894 85.6954 118.395H66.9362V127.044H66.7755L62.0397 119.674C61.4638 118.724 60.8876 118.399 59.7355 118.399H41.0623V118.395ZM81.3524 121.795V135.609H76.6955V121.795H71.3688V135.609H68.2604C67.1083 135.609 66.5583 135.284 65.9561 134.334L59.93 125.315H59.8328V135.613H55.3066V121.799H50.0024V135.613H45.2668V121.799H40.2731C40.0935 122.966 40 124.163 40 125.383C40 138.295 50.4662 148.762 63.3788 148.762C76.2916 148.762 86.7577 138.295 86.7577 125.383C86.7577 124.163 86.6642 122.966 86.4846 121.799H81.3524V121.795Z" fill="#FF28FF"/>
<path d="M117.001 118.395H109.968V135.61H113.754V130.448H116.63C120.491 130.448 123.588 128.383 123.588 124.399V124.35C123.588 120.834 121.104 118.399 116.997 118.399L117.001 118.395ZM119.754 124.47C119.754 125.944 118.647 127.047 116.754 127.047H113.754V121.796H116.679C118.572 121.796 119.754 122.723 119.754 124.421V124.47ZM159.341 124.126V124.077C159.341 120.535 156.905 118.395 152.851 118.395H144.98V135.61H148.766V130.1H151.74L154.874 134.783C155.219 135.299 155.798 135.61 156.419 135.61H159.853L155.649 129.464C157.837 128.652 159.337 126.905 159.337 124.13L159.341 124.126ZM155.507 124.324C155.507 125.775 154.448 126.703 152.604 126.703H148.77V121.796H152.533C154.377 121.796 155.507 122.652 155.507 124.276V124.324ZM160.77 121.796H166.006V135.61H169.792V121.796H173.791C174.475 121.796 175.029 121.242 175.029 120.557V118.399H160.766V121.799L160.77 121.796ZM183.789 125.308C180.819 124.549 180.082 124.178 180.082 123.049V123C180.082 122.166 180.842 121.504 182.293 121.504C183.434 121.504 184.609 121.9 185.798 122.585C186.359 122.906 187.07 122.749 187.436 122.218L188.727 120.348C186.984 118.949 184.848 118.163 182.342 118.163C178.829 118.163 176.327 120.224 176.327 123.344V123.393C176.327 126.808 178.56 127.762 182.024 128.648C184.897 129.385 185.488 129.875 185.488 130.833V130.881C185.488 131.888 184.556 132.501 183.008 132.501C181.459 132.501 180.056 131.974 178.777 131.095C178.249 130.732 177.531 130.825 177.12 131.315L175.639 133.089C177.7 134.929 180.329 135.838 182.933 135.838C186.64 135.838 189.243 133.923 189.243 130.507V130.459C189.243 127.463 187.28 126.21 183.793 125.301L183.789 125.308ZM101.638 125.308C98.6679 124.549 97.931 124.178 97.931 123.049V123C97.931 122.166 98.6903 121.504 100.142 121.504C101.283 121.504 102.457 121.9 103.647 122.585C104.204 122.906 104.919 122.749 105.285 122.218L106.575 120.348C104.832 118.949 102.696 118.163 100.19 118.163C96.6779 118.163 94.1753 120.224 94.1753 123.344V123.393C94.1753 126.808 96.4085 127.762 99.8723 128.648C102.745 129.385 103.336 129.875 103.336 130.833V130.881C103.336 131.888 102.405 132.501 100.856 132.501C99.3075 132.501 97.9047 131.974 96.6256 131.095C96.0981 130.732 95.38 130.825 94.9684 131.315L93.4871 133.089C95.5482 134.929 98.1778 135.838 100.781 135.838C104.488 135.838 107.092 133.923 107.092 130.507V130.459C107.092 127.463 105.128 126.21 101.642 125.301L101.638 125.308ZM133.688 118.163C128.806 118.163 124.848 122.121 124.848 127.003C124.848 131.884 128.806 135.842 133.688 135.842C138.569 135.842 142.527 131.884 142.527 127.003C142.527 122.121 138.569 118.163 133.688 118.163ZM133.688 132.269C130.781 132.269 128.425 129.913 128.425 127.006C128.425 124.1 130.781 121.743 133.688 121.743C136.594 121.743 138.951 124.1 138.951 127.006C138.951 129.913 136.594 132.269 133.688 132.269ZM207.703 128.873V118.399H203.963C203.218 118.399 202.511 118.736 202.044 119.319L195.617 127.309C195.266 127.747 195.075 128.289 195.075 128.85V131.925H204.116V135.613H207.703V131.925H210V128.873H207.703ZM204.116 128.873H198.546L204.116 121.949V128.873Z" fill="white"/>
</svg>
