<svg width="250" height="250" viewBox="0 0 250 250" fill="none" xmlns="http://www.w3.org/2000/svg">
<g clip-path="url(#clip0_363_2678)">
<path d="M250 0H0V250H250V0Z" fill="#C3243A"/>
<path d="M115.21 82.1721L189.101 29.3957L0 5.45932V24.8624L115.21 82.1721Z" fill="#AF2437"/>
<path d="M189.101 29.3957L166.399 0H240.775L189.101 29.3957Z" fill="#D9243D"/>
<path d="M189.101 29.3957L240.775 0H250V108.26L189.101 29.3957Z" fill="#AF2437"/>
<path d="M115.21 82.1721L11.2538 134.172L250 206.713V171.268L115.21 82.1721Z" fill="#D9243D"/>
<path d="M219.855 197.55L250 206.713V240.298L0 249.047L0.0176392 241.498L219.855 197.55Z" fill="#9B2032"/>
<path d="M250 240.298V250H0.0176392L0 249.048L250 240.298Z" fill="#891E2E"/>
<path d="M11.2538 134.172L0 109.636V156.883L11.2538 134.172Z" fill="#AF2437"/>
<path d="M137.713 107.535L144.81 107.533L144.811 136.247H137.712L137.713 107.535Z" fill="white"/>
<path d="M42.9303 111.598H50.0304V116.449H54.5945L54.5951 122.217L50.0303 122.218V128.055C50.0303 128.71 50.0074 129.375 50.166 130.016C50.3483 130.584 50.855 130.99 51.3821 131.227C52.336 131.617 53.4145 131.474 54.3598 131.131L55.2383 135.804C53.2289 136.635 51.0236 136.992 48.8569 136.786C47.5024 136.668 46.0667 136.301 45.086 135.3C44.4081 134.601 43.7402 133.853 43.356 132.946C43.0314 132.077 42.9599 131.137 42.9318 130.217L42.9311 122.219L40 122.218V116.449L42.9305 116.448L42.9303 111.598Z" fill="white"/>
<path d="M121.257 116.409C122.65 115.943 124.138 115.796 125.6 115.871C127.078 115.949 128.556 116.289 129.873 116.976C131.971 118.069 133.609 119.98 134.441 122.188C135 123.678 135.234 125.279 135.201 126.867C135.201 127.283 135.201 127.699 135.201 128.115L121.026 128.116C121.154 129.22 121.643 130.311 122.504 131.035C123.604 131.987 125.268 132.176 126.577 131.568C127.614 131.088 128.481 130.246 128.991 129.223L134.658 131.272C134.361 131.938 133.919 132.524 133.53 133.137C132.963 134.072 132.029 134.701 131.098 135.232C130.006 135.856 128.825 136.332 127.588 136.573C126.021 136.89 124.399 136.915 122.817 136.688C121.454 136.482 120.116 136.042 118.935 135.323C117.936 134.72 117.051 133.932 116.324 133.02C115.469 131.941 114.876 130.664 114.571 129.324C114.211 127.744 114.188 126.095 114.442 124.497C114.665 123.144 115.141 121.828 115.874 120.668C117.124 118.703 119.031 117.131 121.257 116.409M122.578 121.204C121.639 121.924 121.152 123.096 121.026 124.246L128.486 124.248C128.452 123.787 128.43 123.321 128.292 122.877C128.003 121.804 127.14 120.9 126.063 120.604C124.895 120.284 123.541 120.426 122.578 121.204V121.204Z" fill="white"/>
<path d="M65.2342 116.961C66.3546 116.167 67.766 115.912 69.1152 115.922C69.6758 115.965 70.237 115.994 70.7968 116.043L69.565 122.812C68.4137 122.462 67.1701 122.358 65.9947 122.647C65.4316 122.784 64.8841 123.063 64.5203 123.524C64.0744 124.089 63.6431 124.704 63.4989 125.422C63.3763 126.027 63.3449 126.647 63.3449 127.264L63.3431 136.245L56.2413 136.241L56.2395 116.451L63.3428 116.447L63.3471 119.616C63.7011 118.575 64.3192 117.596 65.2332 116.961H65.2342Z" fill="white"/>
<path d="M75.1534 117.25C76.9583 115.989 79.3047 115.655 81.4325 116.12C82.5595 116.375 83.6261 116.947 84.4062 117.808C84.666 118.122 84.8547 118.485 85.0658 118.831V116.451L92.209 116.449L92.2097 136.248L85.0664 136.247V133.8C84.5584 134.712 83.8444 135.528 82.9228 136.037C82.0771 136.521 81.1074 136.753 80.1404 136.818C78.7205 136.919 77.2599 136.699 75.9723 136.074C73.8115 135.014 72.2742 132.944 71.5254 130.692C70.8665 128.644 70.7361 126.444 71.0147 124.318C71.2298 122.786 71.7359 121.285 72.5724 119.978C73.2522 118.919 74.1124 117.963 75.1534 117.25ZM81.1875 121.774C80.4926 121.837 79.812 122.097 79.2778 122.549C78.3587 123.301 77.8532 124.463 77.7384 125.628C77.6328 126.767 77.7341 127.966 78.2615 128.998C78.7094 129.89 79.4974 130.636 80.4696 130.912C81.3782 131.163 82.3872 131.123 83.2466 130.72C84.2982 130.212 85.0234 129.172 85.3079 128.057C85.5241 127.27 85.5346 126.443 85.4751 125.634C85.3484 124.358 84.7171 123.101 83.6408 122.372C82.9314 121.874 82.0396 121.706 81.1875 121.774Z" fill="white"/>
<path d="M180.918 116.009C182.411 115.812 183.967 115.935 185.374 116.492C187.037 117.146 188.397 118.432 189.318 119.945C189.961 121 190.384 122.18 190.621 123.39C190.873 124.62 190.898 125.881 190.858 127.133C190.762 129.223 190.237 131.339 189.07 133.099C188.413 134.098 187.567 134.982 186.56 135.632C185.674 136.202 184.665 136.569 183.626 136.73C182.357 136.92 181.031 136.887 179.808 136.471C178.785 136.123 177.885 135.438 177.267 134.554C177.062 134.276 176.905 133.969 176.732 133.672L176.731 143.655L169.633 143.654V116.45L176.729 116.448L176.734 119.078C177.006 118.482 177.336 117.897 177.815 117.44C178.629 116.599 179.777 116.165 180.918 116.009M179.609 121.868C178.536 122.005 177.575 122.672 177 123.579C176.237 124.762 176.126 126.25 176.344 127.61C176.52 128.719 177.096 129.795 178.039 130.432C179.013 131.086 180.284 131.215 181.403 130.915C182.631 130.583 183.537 129.503 183.893 128.313C184.204 127.245 184.221 126.098 183.977 125.016C183.721 123.908 183.06 122.861 182.065 122.28C181.327 121.855 180.442 121.755 179.609 121.868Z" fill="white"/>
<path d="M92.6037 116.443L92.6043 116.444H92.6037L100.745 136.244H106.357L114.498 116.444H114.498L114.498 116.443H106.992C106.18 118.862 105.342 121.274 104.52 123.691C104.273 124.408 104.028 125.13 103.905 125.88C103.764 126.644 103.624 127.41 103.551 128.185C103.479 127.41 103.338 126.645 103.197 125.88C103.074 125.13 102.829 124.408 102.582 123.691C101.76 121.274 100.922 118.862 100.11 116.443H92.6037Z" fill="white"/>
<path d="M145.796 116.443L152.969 125.805L145.043 136.24L153.5 136.243L153.501 136.242H153.547C154.3 135.155 155.058 134.071 155.812 132.985C156.112 132.554 156.43 132.13 156.644 131.647C156.912 131.095 157.064 130.499 157.227 129.911C157.39 130.499 157.543 131.095 157.811 131.647C158.024 132.13 158.342 132.554 158.642 132.985C159.396 134.071 160.154 135.155 160.907 136.242H160.953L160.954 136.243L169.412 136.24L161.486 125.805L168.658 116.443H160.148C159.627 117.248 159.099 118.048 158.576 118.852C158.295 119.295 157.98 119.719 157.747 120.19C157.468 120.753 157.38 121.379 157.227 121.983C157.074 121.379 156.985 120.753 156.706 120.19C156.474 119.719 156.159 119.295 155.878 118.852C155.355 118.048 154.827 117.248 154.306 116.443H145.806L145.796 116.443Z" fill="white"/>
<path d="M198.105 113.349V106.345H195.163L190.686 113.708L190.88 115.38H195.48V117.369H198.105V115.38H199.224V113.349H198.105ZM195.48 110.572V113.349H193.325L195.08 110.476C195.163 110.338 195.245 110.199 195.315 110.034C195.384 109.867 195.508 109.55 195.688 109.066C195.551 109.633 195.48 110.13 195.48 110.572Z" fill="white"/>
<path d="M200.426 106.345H203.244V111.304L206.325 106.345H209.558L206.076 111.677L210 117.369H206.712L203.244 112.092V117.369H200.426V106.345Z" fill="white"/>
</g>
<defs>
<clipPath id="clip0_363_2678">
<rect width="250" height="250" fill="white"/>
</clipPath>
</defs>
</svg>
