<svg width="250" height="250" viewBox="0 0 250 250" fill="none" xmlns="http://www.w3.org/2000/svg">
<rect width="250" height="250" fill="#0059A8"/>
<path d="M195.206 91.6633H186.408L201.874 125L186.134 158.337H194.933L210 125L195.206 91.6633Z" fill="white"/>
<path d="M101.465 127.804V131.132C101.066 131.793 97.4645 133.263 96.8034 131.268C96.0056 128.601 98.7979 127.94 99.7325 127.804H101.465ZM143.463 118.333C140.398 118.333 140.398 122.869 140.398 122.869H146.267C146.267 123.005 146.404 118.333 143.463 118.333ZM197.862 125L182.533 158.337H65.9969C51.5909 158.337 40 146.598 40 132.34V91.6747H182.544L197.873 125.011L197.862 125ZM73.861 132.066C73.861 131.531 73.7242 131.132 73.3253 131.132H69.587C67.9914 131.132 67.1822 129.661 67.1822 128.727V119.655H72.915C73.4507 119.655 73.576 119.119 73.576 119.119V113.922C73.576 113.261 72.915 113.124 72.915 113.124H67.319V104.588C67.319 103.927 66.5212 104.052 66.5212 104.052C66.5212 104.052 60.3895 106.046 59.9906 106.183C59.5917 106.183 59.455 106.445 59.455 106.719V128.317C59.455 136.454 65.7234 137.651 67.8547 137.651H73.0518C73.5874 137.651 73.8496 137.389 73.8496 136.99C73.8496 136.454 73.8496 132.59 73.8496 132.055L73.861 132.066ZM83.5941 121.661C85.0644 120.065 90.1247 119.791 90.5236 119.791C90.9225 119.791 91.1846 119.393 91.1846 118.994V113.797C91.1846 113.136 91.1846 112.463 90.5236 112.463C85.3265 112.463 83.0585 116.327 83.0585 116.327C83.0585 116.327 81.9871 113.66 81.8618 113.398C81.7364 113.136 81.5996 112.737 81.064 112.737H76.6647C76.2658 112.737 75.7301 112.737 75.7301 113.534V136.466C75.7301 136.864 75.8669 137.263 76.2658 137.263C76.5279 137.263 82.3974 137.127 82.9331 137.127C83.4688 137.127 83.7309 137.389 83.7309 136.728C83.5941 136.591 83.5941 121.661 83.5941 121.661ZM109.329 122.595C109.192 111.791 100.792 113.124 99.7325 113.124H93.6008C93.2019 113.124 92.803 113.261 92.803 113.523V118.72C92.803 119.119 93.0652 119.518 93.4641 119.518H98.7979C100.929 119.518 101.465 120.988 101.465 121.387V122.857H98.5358C93.9997 122.857 88.6659 123.792 88.6659 130.06C88.6659 134.859 91.5949 138.061 96.131 138.061C99.8693 138.061 102.536 135.257 102.536 135.257L103.608 137.525H108.941C109.34 137.525 109.34 137.127 109.34 136.864C109.34 136.466 109.477 133.4 109.34 122.595H109.329ZM116.657 137.525H125.855C125.855 137.525 132.784 114.059 132.921 113.797C133.058 113.534 133.058 112.999 132.522 112.999H125.855C125.456 112.999 125.057 113.136 124.92 113.534C124.783 113.933 121.455 131.405 121.455 131.405C121.455 131.405 118.253 114.332 118.128 113.808C117.991 113.272 117.865 112.873 117.466 112.873H110.263C109.728 112.873 109.466 113.409 109.602 113.945L116.669 137.548L116.657 137.525ZM120.396 143.395C121.057 142.46 122.527 142.46 123.461 143.133L124.122 141.936C124.122 141.936 122.253 140.739 120.259 141.674C117.854 142.871 118.264 146.871 118.789 147.806C119.324 148.74 120.521 150.872 124.122 149.276L123.587 148.079C123.587 148.079 122.117 149.151 120.783 148.079C119.586 147.008 119.712 144.216 120.384 143.418L120.396 143.395ZM131.599 141.4H130.129V144.865H127.063V141.4H125.593V149.8H127.063V146.199H130.129V149.663H131.599V141.4ZM132.796 125.935C132.796 136.067 141.195 137.936 145.059 137.936C148.923 137.936 151.726 136.34 152.125 136.067C152.524 135.793 152.786 135.668 152.524 135.132C151.992 133.62 151.369 132.066 150.655 130.471C150.518 130.072 150.256 130.072 149.857 130.208C149.458 130.345 147.589 131.143 144.785 131.143C140.249 131.143 140.523 127.815 140.523 127.815H154.257C154.519 113.945 147.988 112.748 143.988 112.748C139.987 112.748 132.784 115.016 132.784 125.946L132.796 125.935ZM139.862 149.8L137.195 141.4H135.463L132.796 149.8H134.266L134.802 147.931H137.605L138.266 149.8H139.862ZM147.19 141.4H145.72V146.871L142.654 141.4H141.184V149.8H142.654V144.204L145.72 149.8H147.19V141.4ZM155.453 141.4H153.983V146.871L150.917 141.4H149.322V149.8H150.792V144.204L153.858 149.8H155.328V141.4H155.465H155.453ZM162.519 141.4H157.448V149.8H162.519V148.467H158.918V146.199H161.722V144.865H158.918V142.597H162.519V141.4ZM169.05 148.467H165.722V141.4H164.252V149.8H169.05V148.467ZM169.187 131.804C169.187 131.405 169.05 131.006 168.651 131.006H166.121C164.525 131.006 163.716 129.536 163.716 128.601V104.2C163.716 103.801 163.454 103.402 162.918 103.539C162.519 103.676 156.65 105.534 156.251 105.807C155.852 105.944 155.59 106.343 155.59 106.605C155.59 106.605 155.727 120.601 155.727 128.476C155.727 136.352 162.656 137.411 164.126 137.411H168.264C168.799 137.411 169.061 137.149 169.061 136.75C169.198 136.488 169.198 132.351 169.198 131.815L169.187 131.804ZM135.189 146.609H137.32L136.249 143.007L135.178 146.609H135.189Z" fill="white"/>
</svg>
