<svg width="284" height="284" viewBox="0 0 284 284" fill="none" xmlns="http://www.w3.org/2000/svg">
<g clip-path="url(#clip0_52_35)">
<path d="M283.5 0.0400085H0.0400391V283.5H283.5V0.0400085Z" fill="#C3243A"/>
<path d="M130.67 93.21L214.45 33.37L0.0400391 6.23001V28.23L130.67 93.21Z" fill="#AF2437"/>
<path d="M214.45 33.37L188.71 0.0400085H273.04L214.45 33.37Z" fill="#D9243D"/>
<path d="M214.45 33.37L273.04 0.0400085H283.5V122.79L214.45 33.37Z" fill="#AF2437"/>
<path d="M130.67 93.21L12.7998 152.17L283.5 234.42V194.23L130.67 93.21Z" fill="#D9243D"/>
<path d="M249.32 224.03L283.5 234.42V272.5L0.0400391 282.42L0.0600391 273.86L249.32 224.03Z" fill="#9B2032"/>
<path d="M283.5 272.5V283.5H0.0600391L0.0400391 282.42L283.5 272.5Z" fill="#891E2E"/>
<path d="M12.8 152.17L0.0400391 124.35V177.92L12.8 152.17Z" fill="#AF2437"/>
<g clip-path="url(#clip1_52_35)">
<path fill-rule="evenodd" clip-rule="evenodd" d="M73.1627 133.972V129.711H63.8877V155.77H73.1627V144.161C73.1627 142.87 73.2863 141.969 73.5456 141.32C73.6752 140.678 74.0643 139.906 74.8362 138.999C75.6081 138.097 76.8925 137.708 78.6955 137.708C79.4674 137.708 80.3689 137.838 81.4001 137.967L82.944 129.199L80.7579 129.069C76.7627 129.069 74.3173 130.743 73.1627 133.973V133.972Z" fill="white"/>
<path fill-rule="evenodd" clip-rule="evenodd" d="M59.2644 149.436C58.3629 149.436 57.4656 149.177 56.9512 148.787C56.3084 148.405 55.9225 147.886 55.794 147.373C55.794 146.855 55.6656 145.953 55.6656 144.922V137.179H61.7099V129.441H55.6656V122.995H46.4073V129.441H42.5498V137.179H46.4073V146.725C46.4073 148.664 46.5357 149.948 46.9217 150.856C47.1786 151.887 48.0789 153.048 49.3645 154.339C50.6508 155.629 52.8367 156.272 55.9224 156.272C57.0796 156.272 58.2392 156.142 59.1346 156.012C60.2955 155.753 61.4502 155.37 62.6111 154.851L61.4502 148.787C60.5487 149.306 59.9066 149.436 59.2644 149.436Z" fill="white"/>
<path fill-rule="evenodd" clip-rule="evenodd" d="M101.937 132.916C101.548 132.274 101.288 131.755 101.035 131.373C100.004 130.335 98.7133 129.563 97.4228 129.174C96.5212 129.051 95.6196 128.921 94.7181 128.921C91.4947 128.921 88.7901 130.212 86.5981 132.787C84.406 135.368 83.3809 138.591 83.3809 142.592C83.3809 146.594 84.5356 150.076 86.5981 152.528C88.6606 155.109 91.3651 156.393 94.5884 156.393C95.6196 156.393 96.6509 156.27 97.4227 156.01C99.4851 155.362 100.905 154.201 101.937 152.269V155.492H111.341V129.692H101.937V132.916ZM101.035 147.106C100.133 148.267 98.8429 148.916 97.4228 148.916C95.7494 148.916 94.5884 148.267 93.6869 147.106C92.6557 146.075 92.2728 144.525 92.2728 142.722C92.2728 140.919 92.6557 139.499 93.6869 138.338C94.5884 137.177 95.879 136.658 97.2931 136.658H97.4228C98.8429 136.658 100.004 137.307 101.035 138.338C102.066 139.499 102.449 140.919 102.449 142.722C102.32 144.655 101.937 146.205 101.035 147.106Z" fill="white"/>
<path fill-rule="evenodd" clip-rule="evenodd" d="M140.57 129.711H130.777L127.3 140.017L126.658 142.333L126.139 145.556C126.139 144.908 126.139 144.395 126.01 144.006C126.01 143.624 125.88 142.981 125.75 142.333C125.627 141.561 125.497 141.178 125.497 140.919C125.367 140.66 125.238 140.4 125.108 139.888L121.632 129.582H111.838L122.533 155.603H130.004L140.446 130.1L140.57 129.711Z" fill="white"/>
<path fill-rule="evenodd" clip-rule="evenodd" d="M211.716 129.73H200.508L197.933 133.855C197.544 134.367 197.291 134.886 197.161 135.269C197.031 135.788 196.902 136.43 196.772 137.331C196.513 135.788 196.13 134.756 195.488 133.985L192.907 129.86H181.699L191.104 142.228L180.668 155.875H191.876L195.229 150.855C195.741 150.083 196.13 149.441 196.26 149.052C196.39 148.663 196.513 148.021 196.772 147.249C197.032 148.793 197.544 149.824 198.063 150.725L201.539 155.752H212.747L202.312 141.969L211.716 129.73Z" fill="white"/>
<path d="M180.379 117.952H171.109V155.73H180.379V117.952Z" fill="white"/>
<path fill-rule="evenodd" clip-rule="evenodd" d="M154.224 128.924H153.964C150.092 129.054 146.74 130.344 144.158 132.926C141.967 135.254 140.806 137.841 140.423 140.941C140.293 141.583 140.293 142.361 140.293 143.133C140.293 143.911 140.293 144.553 140.423 145.331C140.806 148.302 142.096 150.889 144.158 153.081C146.74 155.538 149.969 156.699 153.964 156.699H154.224C156.805 156.699 159.127 156.181 161.319 155.149C163.381 154.118 164.672 153.081 165.443 152.179C166.092 151.018 166.481 150.37 166.734 150.111C166.864 149.851 166.994 149.592 167.123 149.339L159.639 146.751C158.997 147.783 158.349 148.69 157.317 149.339C156.286 149.981 155.255 150.24 154.353 150.24H153.964C152.674 150.24 151.643 149.722 150.871 148.95C149.839 147.912 149.321 146.751 149.061 145.201H167.766V143.392C167.766 139.131 166.481 135.643 164.03 133.055C161.578 130.474 158.349 128.924 154.224 128.924L154.224 128.924ZM153.964 140.033H149.061C149.32 138.354 149.839 137.322 150.741 136.415C151.642 135.513 152.803 135.124 153.964 134.994H154.223C155.644 134.994 156.805 135.513 157.577 136.415C158.478 137.322 158.867 138.613 158.867 140.033H153.964Z" fill="white"/>
<path fill-rule="evenodd" clip-rule="evenodd" d="M237.892 132.814C235.7 130.233 232.995 129.072 229.772 129.072C228.741 129.072 227.839 129.072 227.067 129.332C224.875 129.844 223.455 131.264 222.553 133.197V129.715H213.278V165.588H222.553V152.297C223.584 154.359 225.134 155.65 227.067 156.168C227.969 156.428 228.87 156.557 229.642 156.557C232.995 156.557 235.83 155.267 237.892 152.685C240.078 150.104 240.979 146.751 240.979 142.62C241.109 138.489 240.078 135.266 237.892 132.815V132.814ZM230.932 147.394C229.901 148.425 228.611 149.073 227.19 149.073H227.067C225.517 148.943 224.356 148.425 223.325 147.394C222.423 146.233 221.911 144.812 221.911 142.88C221.911 140.941 222.423 139.65 223.455 138.489C224.356 137.328 225.647 136.816 227.067 136.686H227.19C228.74 136.686 229.901 137.328 230.803 138.489C231.834 139.65 232.347 141.07 232.347 143.009C232.217 144.812 231.704 146.362 230.932 147.394Z" fill="white"/>
</g>
</g>
<defs>
<clipPath id="clip0_52_35">
<rect width="283.46" height="283.46" fill="white" transform="translate(0.0400391 0.0400085)"/>
</clipPath>
<clipPath id="clip1_52_35">
<rect width="198.44" height="47.6356" fill="white" transform="translate(42.5498 117.952)"/>
</clipPath>
</defs>
</svg>
