<svg width="284" height="284" viewBox="0 0 284 284" fill="none" xmlns="http://www.w3.org/2000/svg">
<g clip-path="url(#clip0_52_2)">
<path d="M283.5 0.0400085H0.0400391V283.5H283.5V0.0400085Z" fill="#C3243A"/>
<path d="M130.67 93.21L214.45 33.37L0.0400391 6.23001V28.23L130.67 93.21Z" fill="#AF2437"/>
<path d="M214.45 33.37L188.71 0.0400085H273.04L214.45 33.37Z" fill="#D9243D"/>
<path d="M214.45 33.37L273.04 0.0400085H283.5V122.79L214.45 33.37Z" fill="#AF2437"/>
<path d="M130.67 93.21L12.7998 152.17L283.5 234.42V194.23L130.67 93.21Z" fill="#D9243D"/>
<path d="M249.32 224.03L283.5 234.42V272.5L0.0400391 282.42L0.0600391 273.86L249.32 224.03Z" fill="#9B2032"/>
<path d="M283.5 272.5V283.5H0.0600391L0.0400391 282.42L283.5 272.5Z" fill="#891E2E"/>
<path d="M12.8 152.17L0.0400391 124.35V177.92L12.8 152.17Z" fill="#AF2437"/>
<g clip-path="url(#clip1_52_2)">
<path d="M156.61 121.383L164.894 121.381L164.895 154.898H156.609L156.61 121.383Z" fill="white"/>
<path d="M45.9704 126.126H54.2583V131.789H59.5858L59.5865 138.522L54.2581 138.523V145.336C54.2581 146.1 54.2314 146.877 54.4165 147.626C54.6293 148.288 55.2208 148.762 55.8361 149.039C56.9496 149.494 58.2085 149.327 59.3119 148.927L60.3373 154.382C57.9918 155.352 55.4175 155.769 52.8884 155.528C51.3074 155.391 49.6314 154.962 48.4867 153.793C47.6954 152.977 46.9157 152.104 46.4672 151.045C46.0883 150.032 46.0049 148.933 45.9721 147.86L45.9712 138.524L42.5498 138.523V131.789L45.9705 131.788L45.9704 126.126Z" fill="white"/>
<path d="M137.401 131.741C139.027 131.197 140.763 131.026 142.47 131.114C144.195 131.205 145.92 131.601 147.458 132.404C149.907 133.679 151.82 135.91 152.79 138.488C153.443 140.227 153.716 142.096 153.678 143.95C153.678 144.435 153.677 144.92 153.678 145.406L137.131 145.407C137.28 146.695 137.851 147.969 138.856 148.815C140.14 149.926 142.083 150.147 143.611 149.436C144.821 148.876 145.833 147.894 146.428 146.7L153.044 149.092C152.696 149.868 152.181 150.553 151.727 151.269C151.065 152.36 149.975 153.094 148.888 153.714C147.613 154.442 146.235 154.998 144.791 155.279C142.961 155.65 141.068 155.679 139.222 155.413C137.631 155.173 136.069 154.659 134.69 153.82C133.524 153.116 132.491 152.197 131.642 151.132C130.644 149.873 129.952 148.382 129.596 146.817C129.176 144.973 129.149 143.048 129.445 141.183C129.706 139.604 130.261 138.068 131.117 136.713C132.577 134.42 134.802 132.584 137.4 131.742M138.942 137.339C137.846 138.18 137.278 139.547 137.131 140.89L145.839 140.892C145.8 140.354 145.774 139.811 145.612 139.292C145.276 138.039 144.268 136.984 143.011 136.639C141.647 136.265 140.066 136.431 138.942 137.339V137.339Z" fill="white"/>
<path d="M72.0053 132.386C73.3131 131.46 74.9607 131.161 76.5356 131.173C77.19 131.223 77.8451 131.258 78.4985 131.315L77.0606 139.215C75.7168 138.808 74.2651 138.686 72.893 139.024C72.2357 139.183 71.5967 139.509 71.172 140.047C70.6515 140.706 70.148 141.424 69.9797 142.263C69.8366 142.969 69.7999 143.693 69.7999 144.412L69.7978 154.897L61.5079 154.892L61.5059 131.791L69.7975 131.786L69.8025 135.486C70.2157 134.271 70.9373 133.127 72.0041 132.386H72.0053Z" fill="white"/>
<path d="M83.5839 132.724C85.6907 131.251 88.4297 130.861 90.9135 131.404C92.229 131.702 93.4741 132.37 94.3847 133.374C94.6878 133.741 94.9082 134.165 95.1546 134.569V131.791L103.493 131.789L103.494 154.9L95.1553 154.899V152.042C94.5622 153.107 93.7289 154.059 92.653 154.654C91.6658 155.218 90.5339 155.489 89.4052 155.565C87.7477 155.684 86.0428 155.426 84.5398 154.696C82.0175 153.459 80.223 151.043 79.3489 148.414C78.5798 146.024 78.4276 143.456 78.7528 140.974C79.0039 139.185 79.5947 137.433 80.5711 135.908C81.3646 134.672 82.3687 133.556 83.5839 132.724ZM90.6274 138.005C89.8163 138.078 89.0219 138.382 88.3982 138.909C87.3254 139.787 86.7353 141.143 86.6013 142.503C86.4781 143.833 86.5963 145.232 87.2119 146.437C87.7348 147.478 88.6546 148.348 89.7894 148.671C90.8501 148.964 92.0278 148.917 93.0311 148.447C94.2585 147.853 95.105 146.64 95.4371 145.339C95.6895 144.42 95.7018 143.454 95.6323 142.51C95.4845 141.02 94.7475 139.553 93.4911 138.703C92.6631 138.121 91.6221 137.925 90.6274 138.005Z" fill="white"/>
<path d="M207.042 131.275C208.785 131.045 210.601 131.188 212.244 131.839C214.185 132.602 215.772 134.104 216.848 135.869C217.599 137.101 218.092 138.478 218.369 139.891C218.663 141.327 218.692 142.798 218.645 144.259C218.533 146.7 217.921 149.17 216.559 151.225C215.791 152.39 214.803 153.422 213.629 154.181C212.595 154.846 211.416 155.274 210.203 155.463C208.722 155.684 207.174 155.646 205.747 155.16C204.553 154.754 203.503 153.954 202.78 152.922C202.542 152.598 202.358 152.239 202.157 151.893L202.155 163.546L193.869 163.545V131.789L202.153 131.787L202.159 134.857C202.476 134.161 202.862 133.479 203.42 132.945C204.371 131.963 205.71 131.457 207.042 131.275M205.515 138.114C204.262 138.274 203.14 139.053 202.469 140.111C201.579 141.492 201.449 143.229 201.704 144.817C201.909 146.111 202.581 147.367 203.682 148.11C204.819 148.875 206.302 149.025 207.609 148.675C209.042 148.287 210.1 147.027 210.515 145.637C210.878 144.391 210.898 143.052 210.613 141.788C210.314 140.495 209.543 139.273 208.381 138.595C207.52 138.099 206.487 137.982 205.515 138.114Z" fill="white"/>
<path d="M103.954 131.781L103.955 131.783H103.954L113.458 154.895H120.008L129.511 131.783H129.511L129.511 131.781H120.75C119.801 134.606 118.823 137.421 117.864 140.243C117.576 141.079 117.29 141.921 117.146 142.797C116.981 143.69 116.818 144.583 116.733 145.487C116.648 144.583 116.485 143.69 116.32 142.797C116.176 141.921 115.89 141.079 115.602 140.243C114.643 137.421 113.664 134.606 112.716 131.781H103.954Z" fill="white"/>
<path d="M166.045 131.781L174.418 142.709L165.166 154.89L175.038 154.894L175.039 154.892H175.093C175.972 153.624 176.857 152.359 177.737 151.091C178.087 150.588 178.458 150.093 178.707 149.529C179.02 148.884 179.198 148.19 179.388 147.502C179.579 148.19 179.757 148.884 180.07 149.529C180.319 150.093 180.69 150.588 181.04 151.091C181.92 152.359 182.805 153.624 183.684 154.892H183.738L183.739 154.894L193.611 154.89L184.359 142.709L192.732 131.781H182.798C182.19 132.721 181.573 133.655 180.963 134.594C180.635 135.111 180.268 135.605 179.996 136.155C179.67 136.812 179.567 137.544 179.388 138.248C179.21 137.544 179.106 136.812 178.781 136.155C178.509 135.605 178.142 135.111 177.813 134.594C177.203 133.655 176.587 132.721 175.978 131.781H166.057L166.045 131.781Z" fill="white"/>
<path d="M227.105 128.17V119.994H223.67L218.445 128.589L218.671 130.54H224.041V132.863H227.105V130.54H228.411V128.17H227.105ZM224.041 124.929V128.17H221.525L223.574 124.816C223.67 124.655 223.766 124.493 223.848 124.3C223.929 124.106 224.074 123.735 224.284 123.171C224.123 123.832 224.041 124.412 224.041 124.929Z" fill="white"/>
<path d="M229.814 119.994H233.104V125.783L236.7 119.994H240.474L236.41 126.219L240.99 132.863H237.152L233.104 126.703V132.863H229.814V119.994Z" fill="white"/>
</g>
</g>
<defs>
<clipPath id="clip0_52_2">
<rect width="283.46" height="283.46" fill="white" transform="translate(0.0400391 0.0400085)"/>
</clipPath>
<clipPath id="clip1_52_2">
<rect width="198.44" height="43.552" fill="white" transform="translate(42.5498 119.994)"/>
</clipPath>
</defs>
</svg>
