<svg width="250" height="250" viewBox="0 0 250 250" fill="none" xmlns="http://www.w3.org/2000/svg">
<g clip-path="url(#clip0_58_27)">
<path d="M250 0H0V250H250V0Z" fill="#C3243A"/>
<path d="M115.21 82.1721L189.101 29.3957L0 5.45935V24.8624L115.21 82.1721Z" fill="#AF2437"/>
<path d="M189.101 29.3957L166.399 0H240.775L189.101 29.3957Z" fill="#D9243D"/>
<path d="M189.101 29.3957L240.775 0H250V108.26L189.101 29.3957Z" fill="#AF2437"/>
<path d="M115.21 82.1721L11.2539 134.172L250 206.714V171.268L115.21 82.1721Z" fill="#D9243D"/>
<path d="M219.855 197.55L250 206.713V240.298L0 249.047L0.0176392 241.498L219.855 197.55Z" fill="#9B2032"/>
<path d="M250 240.298V250H0.0176392L0 249.048L250 240.298Z" fill="#891E2E"/>
<path d="M11.2538 134.172L0 109.636V156.883L11.2538 134.172Z" fill="#AF2437"/>
<path d="M37.501 119.858V114.028H41.0288V108.049H48.0845V114.028H54.0112V119.858H48.0845V130.689C48.3138 132.288 49.3251 133.088 51.1184 133.088C51.9528 133.06 52.7787 132.912 53.5703 132.647L54.5492 137.841C52.7189 138.387 50.8232 138.684 48.9135 138.723C47.7215 138.798 46.5286 138.594 45.4293 138.127C44.3301 137.66 43.3548 136.943 42.5811 136.033C42.0231 135.347 41.6092 134.555 41.364 133.705C41.1284 132.47 41.0308 131.213 41.0729 129.957V119.858H37.501Z" fill="white"/>
<path d="M55.8721 138.079V114.028H62.9277V118.094C63.2856 116.712 64.1115 115.496 65.2649 114.655C66.5621 113.773 68.1077 113.331 69.6747 113.393C70.47 113.368 71.2644 113.466 72.0296 113.684L70.7507 120.493C69.9367 120.273 69.098 120.157 68.2548 120.149C67.4829 120.119 66.7145 120.267 66.0093 120.582C65.3041 120.897 64.6811 121.371 64.1889 121.966C63.7506 122.482 63.4234 123.082 63.2276 123.73C63.0245 124.597 62.9355 125.486 62.963 126.376V138.079H55.8721Z" fill="white"/>
<path d="M89.4303 117.3V114.02H96.4859V138.071H89.4303V134.984C87.9309 137.53 85.5144 138.806 82.1806 138.811C80.6785 138.85 79.1868 138.553 77.8138 137.943C76.4408 137.333 75.221 136.424 74.2429 135.284C72.2214 132.686 71.1282 129.486 71.1378 126.195C71.1473 122.903 72.2592 119.71 74.2958 117.124C75.2464 115.96 76.4478 115.027 77.8101 114.393C79.1725 113.759 80.6605 113.442 82.1629 113.464C83.339 113.426 84.5105 113.628 85.6055 114.059C86.7005 114.489 87.6959 115.139 88.5307 115.969L89.4303 117.3ZM83.7857 119.267C82.9862 119.259 82.1949 119.429 81.47 119.767C80.745 120.104 80.1048 120.599 79.5964 121.216C78.5094 122.627 77.9198 124.357 77.9198 126.138C77.9198 127.918 78.5094 129.649 79.5964 131.059C80.1431 131.667 80.8116 132.153 81.5584 132.486C82.3052 132.819 83.1136 132.991 83.9312 132.991C84.7488 132.991 85.5573 132.819 86.3041 132.486C87.0509 132.153 87.7194 131.667 88.2661 131.059C89.4236 129.68 90.0271 127.919 89.9594 126.12C90.0142 124.326 89.3835 122.579 88.1955 121.234C87.6521 120.6 86.9746 120.095 86.2119 119.754C85.4493 119.414 84.6206 119.248 83.7857 119.267Z" fill="white"/>
<path d="M97.2715 114.028H104.618L108.984 125.397L109.619 127.505C109.707 127.9 109.772 128.301 109.813 128.704C109.883 129.242 109.945 129.736 110.007 130.195C110.078 129.577 110.13 129.128 110.183 128.845L110.448 127.505L111.092 125.397L115.449 114.028H122.751L112.706 138.079H107.317L97.2715 114.028Z" fill="white"/>
<path d="M147.64 128.281H129.648C129.832 129.788 130.534 131.185 131.633 132.232C132.7 133.193 134.095 133.707 135.531 133.67C136.777 133.65 137.995 133.297 139.059 132.647C140.225 131.981 141.223 131.058 141.978 129.948L146.97 133.379C145.621 135.144 143.89 136.583 141.908 137.586C139.906 138.489 137.726 138.926 135.531 138.864C133.832 138.936 132.136 138.667 130.542 138.074C128.949 137.48 127.49 136.573 126.253 135.407C125.073 134.236 124.15 132.832 123.542 131.285C122.935 129.738 122.657 128.081 122.725 126.42C122.674 124.708 122.964 123.002 123.579 121.403C124.193 119.804 125.12 118.343 126.306 117.106C127.47 115.885 128.878 114.923 130.438 114.281C131.999 113.64 133.677 113.335 135.363 113.385C137.022 113.323 138.674 113.614 140.211 114.239C141.748 114.864 143.135 115.808 144.28 117.009C146.573 119.426 147.717 122.595 147.711 126.517L147.64 128.281ZM135.293 118.438C132.188 118.438 130.292 120.202 129.604 123.73H140.726C140.606 122.273 139.982 120.904 138.962 119.858C138.476 119.389 137.901 119.021 137.271 118.777C136.641 118.533 135.968 118.418 135.293 118.438Z" fill="white"/>
<path d="M151.212 138.079V102.801H158.268V138.124L151.212 138.079Z" fill="white"/>
<path d="M159 138.079L168.605 125.441L159.882 114.028H168.455L171.497 118.482C172.123 119.447 172.541 120.531 172.723 121.666C172.874 120.523 173.294 119.432 173.949 118.482L176.983 114.028H185.512L176.789 125.441L186.491 138.079H177.962L174.143 132.594C173.436 131.546 172.952 130.362 172.723 129.119C172.604 129.746 172.424 130.361 172.185 130.953C171.905 131.526 171.577 132.075 171.206 132.594L167.476 138.079H159Z" fill="white"/>
<path d="M187.125 147.287V114.028H194.181V117.653C195.451 114.813 197.917 113.393 201.58 113.393C203.075 113.352 204.56 113.648 205.925 114.259C207.29 114.869 208.5 115.779 209.465 116.921C211.494 119.238 212.505 122.263 212.499 125.997C212.649 129.363 211.553 132.666 209.421 135.275C208.445 136.436 207.22 137.362 205.836 137.984C204.453 138.605 202.947 138.906 201.43 138.864C197.967 138.864 195.551 137.491 194.181 134.746V147.287H187.125ZM199.816 119.364C198.997 119.334 198.18 119.485 197.426 119.807C196.671 120.129 195.997 120.613 195.451 121.225C194.296 122.587 193.7 124.336 193.784 126.12C193.699 127.936 194.293 129.719 195.451 131.121C195.996 131.75 196.675 132.248 197.438 132.579C198.201 132.911 199.029 133.066 199.86 133.035C200.664 133.056 201.461 132.898 202.195 132.571C202.929 132.245 203.581 131.758 204.103 131.147C205.234 129.78 205.819 128.043 205.743 126.27C205.818 124.468 205.235 122.7 204.103 121.296C203.587 120.661 202.932 120.153 202.189 119.81C201.446 119.468 200.634 119.3 199.816 119.32V119.364Z" fill="white"/>
</g>
<defs>
<clipPath id="clip0_58_27">
<rect width="250" height="250" fill="white"/>
</clipPath>
</defs>
</svg>
