<svg width="250" height="250" viewBox="0 0 250 250" fill="none" xmlns="http://www.w3.org/2000/svg">
<g clip-path="url(#clip0_58_49)">
<path d="M250 0H0V250H250V0Z" fill="#C3243A"/>
<path d="M115.21 82.1721L189.101 29.3957L0 5.45935V24.8624L115.21 82.1721Z" fill="#AF2437"/>
<path d="M189.101 29.3957L166.399 0H240.775L189.101 29.3957Z" fill="#D9243D"/>
<path d="M189.101 29.3957L240.775 0H250V108.26L189.101 29.3957Z" fill="#AF2437"/>
<path d="M115.21 82.1721L11.2539 134.172L250 206.714V171.268L115.21 82.1721Z" fill="#D9243D"/>
<path d="M219.855 197.55L250 206.713V240.298L0 249.047L0.0176392 241.498L219.855 197.55Z" fill="#9B2032"/>
<path d="M250 240.298V250H0.0176392L0 249.048L250 240.298Z" fill="#891E2E"/>
<path d="M11.2538 134.172L0 109.636V156.883L11.2538 134.172Z" fill="#AF2437"/>
<path d="M137.592 107.225L144.898 107.223L144.899 136.783H137.592L137.592 107.225Z" fill="white"/>
<path d="M40.0167 111.408H47.326V116.402H52.0246L52.0252 122.34L47.3259 122.341V128.35C47.3259 129.024 47.3024 129.709 47.4656 130.369C47.6533 130.954 48.1749 131.371 48.7176 131.616C49.6996 132.017 50.8098 131.869 51.783 131.517L52.6873 136.328C50.6187 137.183 48.3484 137.551 46.1179 137.338C44.7235 137.217 43.2455 136.839 42.2359 135.808C41.538 135.089 40.8504 134.319 40.4549 133.385C40.1207 132.491 40.0471 131.522 40.0182 130.576L40.0175 122.342L37 122.341V116.402L40.0169 116.401L40.0167 111.408Z" fill="white"/>
<path d="M120.652 116.36C122.086 115.881 123.617 115.729 125.123 115.807C126.644 115.887 128.166 116.237 129.522 116.945C131.682 118.069 133.368 120.037 134.224 122.31C134.8 123.844 135.041 125.493 135.007 127.127C135.007 127.555 135.007 127.983 135.007 128.411L120.414 128.412C120.546 129.549 121.049 130.672 121.935 131.418C123.068 132.398 124.781 132.593 126.129 131.966C127.196 131.472 128.088 130.606 128.614 129.553L134.448 131.662C134.142 132.347 133.687 132.951 133.286 133.582C132.703 134.544 131.742 135.191 130.783 135.738C129.659 136.381 128.444 136.871 127.17 137.119C125.556 137.446 123.887 137.471 122.258 137.237C120.855 137.025 119.477 136.572 118.262 135.832C117.233 135.211 116.322 134.4 115.574 133.461C114.693 132.351 114.083 131.036 113.769 129.656C113.398 128.029 113.375 126.332 113.636 124.687C113.866 123.294 114.355 121.94 115.111 120.745C116.398 118.723 118.36 117.104 120.652 116.361M122.011 121.297C121.045 122.038 120.543 123.244 120.414 124.429L128.094 124.431C128.059 123.956 128.036 123.477 127.894 123.019C127.597 121.914 126.708 120.984 125.6 120.68C124.397 120.35 123.003 120.497 122.011 121.297V121.297Z" fill="white"/>
<path d="M62.9775 116.929C64.1309 116.112 65.584 115.849 66.9729 115.86C67.5501 115.903 68.1278 115.934 68.7041 115.984L67.436 122.952C66.2508 122.592 64.9705 122.485 63.7604 122.783C63.1807 122.924 62.6172 123.21 62.2426 123.686C61.7836 124.267 61.3396 124.9 61.1911 125.639C61.0649 126.263 61.0325 126.901 61.0325 127.535L61.0307 136.782L53.7196 136.777L53.7178 116.404L61.0304 116.4L61.0348 119.663C61.3993 118.591 62.0356 117.583 62.9765 116.929H62.9775Z" fill="white"/>
<path d="M73.1898 117.227C75.0478 115.928 77.4634 115.584 79.654 116.063C80.8141 116.326 81.9122 116.915 82.7153 117.8C82.9827 118.124 83.177 118.498 83.3943 118.855V116.404L90.748 116.402L90.7487 136.785L83.3949 136.784V134.264C82.8719 135.203 82.1369 136.043 81.1881 136.567C80.3175 137.065 79.3192 137.304 78.3238 137.371C76.862 137.476 75.3583 137.249 74.0328 136.605C71.8083 135.514 70.2257 133.383 69.4549 131.064C68.7766 128.956 68.6423 126.692 68.9291 124.503C69.1505 122.925 69.6716 121.38 70.5327 120.035C71.2326 118.945 72.1181 117.961 73.1898 117.227ZM79.4017 121.884C78.6863 121.949 77.9857 122.217 77.4357 122.682C76.4896 123.456 75.9691 124.652 75.8509 125.852C75.7422 127.024 75.8465 128.258 76.3895 129.321C76.8506 130.239 77.6618 131.007 78.6626 131.291C79.5981 131.55 80.6367 131.508 81.5215 131.093C82.6041 130.57 83.3506 129.5 83.6435 128.352C83.8661 127.542 83.877 126.69 83.8156 125.858C83.6852 124.544 83.0353 123.25 81.9273 122.5C81.197 121.987 80.2789 121.814 79.4017 121.884Z" fill="white"/>
<path d="M182.071 115.949C183.608 115.746 185.21 115.872 186.659 116.447C188.37 117.119 189.77 118.444 190.719 120.001C191.381 121.087 191.816 122.301 192.061 123.547C192.32 124.814 192.345 126.112 192.304 127.4C192.205 129.552 191.665 131.731 190.464 133.543C189.787 134.571 188.916 135.481 187.88 136.15C186.968 136.737 185.929 137.115 184.859 137.281C183.553 137.476 182.187 137.442 180.929 137.014C179.875 136.656 178.949 135.951 178.312 135.04C178.102 134.754 177.94 134.438 177.762 134.132L177.76 144.41L170.453 144.409V116.403L177.759 116.401L177.764 119.109C178.044 118.494 178.384 117.893 178.876 117.422C179.715 116.556 180.896 116.11 182.071 115.949M180.724 121.98C179.619 122.122 178.63 122.808 178.038 123.742C177.253 124.96 177.138 126.492 177.363 127.892C177.543 129.034 178.137 130.141 179.107 130.797C180.11 131.471 181.418 131.603 182.57 131.295C183.834 130.952 184.768 129.841 185.134 128.615C185.454 127.516 185.472 126.335 185.22 125.221C184.957 124.08 184.276 123.003 183.252 122.405C182.492 121.967 181.581 121.864 180.724 121.98Z" fill="white"/>
<path d="M91.1543 116.396L91.1549 116.397H91.1543L99.5359 136.78H105.312L113.694 116.397H113.693L113.694 116.396H105.967C105.13 118.886 104.268 121.37 103.422 123.858C103.168 124.595 102.915 125.338 102.788 126.111C102.643 126.898 102.499 127.686 102.424 128.483C102.35 127.686 102.205 126.898 102.06 126.111C101.933 125.338 101.681 124.595 101.427 123.858C100.581 121.369 99.7181 118.886 98.8813 116.396H91.1543Z" fill="white"/>
<path d="M145.914 116.396L153.298 126.033L145.139 136.776L153.845 136.78L153.846 136.778H153.894C154.669 135.659 155.449 134.544 156.225 133.426C156.534 132.982 156.861 132.545 157.081 132.048C157.357 131.479 157.514 130.866 157.682 130.261C157.85 130.866 158.007 131.479 158.283 132.048C158.503 132.545 158.83 132.982 159.138 133.426C159.914 134.544 160.695 135.659 161.47 136.778H161.518L161.518 136.78L170.226 136.776L162.066 126.033L169.45 116.395H160.689C160.153 117.224 159.609 118.048 159.071 118.876C158.781 119.332 158.457 119.768 158.217 120.253C157.93 120.832 157.839 121.478 157.682 122.099C157.524 121.478 157.433 120.832 157.146 120.253C156.906 119.768 156.582 119.332 156.293 118.876C155.755 118.048 155.211 117.224 154.674 116.395H145.924L145.914 116.396Z" fill="white"/>
<path d="M199.764 113.211V106H196.735L192.127 113.58L192.326 115.301H197.062V117.349H199.764V115.301H200.916V113.211H199.764ZM197.062 110.352V113.211H194.843L196.65 110.253C196.735 110.11 196.82 109.968 196.892 109.798C196.963 109.626 197.091 109.299 197.276 108.802C197.134 109.385 197.062 109.897 197.062 110.352Z" fill="white"/>
<path d="M202.154 106H205.056V111.106L208.227 106H211.555L207.971 111.49L212.01 117.349H208.625L205.056 111.916V117.349H202.154V106Z" fill="white"/>
</g>
<defs>
<clipPath id="clip0_58_49">
<rect width="250" height="250" fill="white"/>
</clipPath>
</defs>
</svg>
