<svg width="250" height="250" viewBox="0 0 250 250" fill="none" xmlns="http://www.w3.org/2000/svg">
<g clip-path="url(#clip0_363_2659)">
<path d="M250 0H0V250H250V0Z" fill="#C3243A"/>
<path d="M115.21 82.1721L189.101 29.3957L0 5.45932V24.8624L115.21 82.1721Z" fill="#AF2437"/>
<path d="M189.101 29.3957L166.399 0H240.775L189.101 29.3957Z" fill="#D9243D"/>
<path d="M189.101 29.3957L240.775 0H250V108.26L189.101 29.3957Z" fill="#AF2437"/>
<path d="M115.21 82.1721L11.2538 134.172L250 206.713V171.268L115.21 82.1721Z" fill="#D9243D"/>
<path d="M219.855 197.55L250 206.713V240.298L0 249.047L0.0176392 241.498L219.855 197.55Z" fill="#9B2032"/>
<path d="M250 240.298V250H0.0176392L0 249.048L250 240.298Z" fill="#891E2E"/>
<path d="M11.2538 134.172L0 109.636V156.883L11.2538 134.172Z" fill="#AF2437"/>
<path d="M40 119.963V114.3H43.4268V108.491H50.2804V114.3H56.0375V119.963H50.2804V130.483C50.5032 132.036 51.4855 132.813 53.2275 132.813C54.0379 132.787 54.8402 132.642 55.6091 132.385L56.56 137.431C54.7821 137.961 52.9407 138.249 51.0857 138.287C49.9279 138.36 48.7691 138.162 47.7013 137.708C46.6335 137.255 45.6862 136.558 44.9346 135.675C44.3927 135.008 43.9906 134.238 43.7524 133.413C43.5235 132.213 43.4287 130.992 43.4696 129.772V119.963H40Z" fill="white"/>
<path d="M57.8451 137.662V114.3H64.6987V118.249C65.0463 116.906 65.8486 115.726 66.969 114.908C68.229 114.052 69.7303 113.623 71.2525 113.683C72.025 113.658 72.7966 113.754 73.5399 113.966L72.2977 120.579C71.507 120.365 70.6923 120.253 69.8732 120.245C69.1235 120.216 68.377 120.36 67.692 120.666C67.007 120.972 66.4019 121.432 65.9238 122.01C65.498 122.511 65.1801 123.094 64.99 123.724C64.7927 124.565 64.7063 125.429 64.733 126.294V137.662H57.8451Z" fill="white"/>
<path d="M90.4426 117.478V114.291H97.2962V137.653H90.4426V134.655C88.9862 137.128 86.6389 138.367 83.4005 138.373C81.9415 138.41 80.4925 138.122 79.1588 137.529C77.8251 136.937 76.6402 136.054 75.6902 134.946C73.7265 132.423 72.6646 129.315 72.674 126.118C72.6833 122.92 73.7633 119.818 75.7416 117.307C76.665 116.176 77.8319 115.27 79.1553 114.654C80.4786 114.038 81.924 113.73 83.3834 113.751C84.5258 113.714 85.6637 113.911 86.7274 114.329C87.791 114.748 88.758 115.379 89.5688 116.185L90.4426 117.478ZM84.9597 119.389C84.1831 119.38 83.4145 119.546 82.7103 119.874C82.0061 120.201 81.3842 120.682 80.8904 121.282C79.8345 122.652 79.2618 124.333 79.2618 126.062C79.2618 127.792 79.8345 129.473 80.8904 130.843C81.4214 131.433 82.0707 131.905 82.7962 132.229C83.5216 132.552 84.3069 132.719 85.1011 132.719C85.8953 132.719 86.6806 132.552 87.406 132.229C88.1314 131.905 88.7807 131.433 89.3118 130.843C90.4361 129.503 91.0224 127.793 90.9566 126.045C91.0099 124.303 90.3972 122.606 89.2432 121.299C88.7154 120.683 88.0572 120.192 87.3164 119.862C86.5756 119.531 85.7707 119.37 84.9597 119.389Z" fill="white"/>
<path d="M98.0587 114.3H105.195L109.436 125.343L110.053 127.39C110.138 127.775 110.201 128.164 110.241 128.555C110.31 129.078 110.369 129.558 110.429 130.003C110.498 129.403 110.549 128.967 110.601 128.692L110.858 127.39L111.483 125.343L115.715 114.3H122.809L113.051 137.662H107.817L98.0587 114.3Z" fill="white"/>
<path d="M146.985 128.144H129.508C129.687 129.608 130.368 130.965 131.436 131.982C132.473 132.915 133.828 133.415 135.222 133.379C136.433 133.359 137.616 133.016 138.649 132.385C139.782 131.738 140.751 130.842 141.485 129.763L146.334 133.096C145.023 134.811 143.342 136.208 141.416 137.182C139.472 138.06 137.354 138.485 135.222 138.425C133.572 138.494 131.925 138.233 130.377 137.656C128.829 137.08 127.412 136.199 126.21 135.066C125.064 133.929 124.167 132.565 123.577 131.062C122.987 129.559 122.717 127.95 122.783 126.336C122.733 124.673 123.015 123.017 123.612 121.463C124.209 119.91 125.11 118.491 126.261 117.29C127.392 116.103 128.76 115.168 130.276 114.546C131.792 113.923 133.422 113.626 135.06 113.674C136.67 113.614 138.275 113.897 139.769 114.504C141.262 115.111 142.609 116.029 143.721 117.195C145.948 119.543 147.059 122.621 147.053 126.431L146.985 128.144ZM134.991 118.583C131.975 118.583 130.134 120.297 129.465 123.724H140.268C140.152 122.309 139.546 120.979 138.555 119.963C138.083 119.507 137.525 119.15 136.912 118.913C136.3 118.676 135.647 118.564 134.991 118.583Z" fill="white"/>
<path d="M150.455 137.662V103.394H157.308V137.705L150.455 137.662Z" fill="white"/>
<path d="M158.019 137.662L167.349 125.386L158.876 114.3H167.203L170.159 118.626C170.766 119.563 171.172 120.616 171.35 121.719C171.496 120.608 171.904 119.548 172.54 118.626L175.487 114.3H183.772L175.299 125.386L184.723 137.662H176.438L172.729 132.333C172.041 131.315 171.572 130.166 171.35 128.958C171.234 129.568 171.059 130.164 170.827 130.74C170.554 131.296 170.236 131.829 169.876 132.333L166.252 137.662H158.019Z" fill="white"/>
<path d="M185.339 146.606V114.3H192.193V117.821C193.427 115.062 195.823 113.683 199.381 113.683C200.833 113.643 202.275 113.93 203.601 114.523C204.927 115.117 206.102 116.001 207.04 117.11C209.01 119.36 209.992 122.299 209.987 125.925C210.133 129.195 209.068 132.404 206.997 134.938C206.049 136.066 204.859 136.965 203.515 137.569C202.171 138.173 200.708 138.465 199.235 138.425C195.871 138.425 193.524 137.091 192.193 134.424V146.606H185.339ZM197.667 119.483C196.871 119.454 196.078 119.6 195.345 119.913C194.612 120.225 193.957 120.696 193.427 121.29C192.305 122.613 191.726 124.312 191.808 126.045C191.725 127.809 192.303 129.541 193.427 130.903C193.956 131.514 194.616 131.998 195.357 132.319C196.098 132.641 196.903 132.792 197.71 132.762C198.49 132.783 199.265 132.629 199.978 132.312C200.691 131.994 201.324 131.522 201.831 130.928C202.93 129.601 203.498 127.913 203.424 126.191C203.497 124.44 202.931 122.723 201.831 121.359C201.33 120.742 200.694 120.249 199.972 119.916C199.25 119.583 198.462 119.42 197.667 119.44V119.483Z" fill="white"/>
</g>
<defs>
<clipPath id="clip0_363_2659">
<rect width="250" height="250" fill="white"/>
</clipPath>
</defs>
</svg>
