<svg width="250" height="250" viewBox="0 0 250 250" fill="none" xmlns="http://www.w3.org/2000/svg">
<rect width="250" height="250" fill="#078CD8"/>
<mask id="mask0_356_1440" style="mask-type:luminance" maskUnits="userSpaceOnUse" x="40" y="43" width="170" height="164">
<path d="M210 43.6338H40V206.366H210V43.6338Z" fill="white"/>
</mask>
<g mask="url(#mask0_356_1440)">
<path d="M209.938 139.359C210.722 147.755 204.539 155.186 196.15 155.968C187.748 156.739 180.324 150.571 179.541 142.186C178.769 133.78 184.941 126.348 193.33 125.577C201.731 124.795 209.155 130.974 209.938 139.359Z" fill="white"/>
<path d="M143.243 189.058L99.2937 140.044C98.7154 139.391 98.769 138.406 99.4224 137.817L113.665 124.988C117.938 121.165 118.28 114.6 114.447 110.338C110.624 106.065 104.059 105.723 99.7972 109.557L77.0841 129.978C76.9234 130.107 76.7843 130.224 76.6557 130.353C76.5058 130.481 76.3667 130.61 76.2273 130.749L53.4929 151.192C49.2309 155.025 48.8774 161.601 52.7111 165.852C56.5342 170.114 63.0986 170.467 67.3713 166.634L81.6245 153.815C82.2563 153.248 83.2202 153.28 83.809 153.869L127.8 202.925C131.634 207.198 138.199 207.541 142.46 203.707C146.727 199.873 147.076 193.32 143.243 189.058Z" fill="white"/>
<path d="M136.828 93.3865L116.396 70.6734C116.278 70.5235 116.149 70.3842 116.021 70.2343C115.903 70.0951 115.764 69.9559 115.625 69.8274L95.1817 47.0822C91.3479 42.8202 84.7837 42.4668 80.5215 46.3005C76.2596 50.1342 75.9063 56.6986 79.7398 60.9499L92.5904 75.2461C93.1363 75.8777 93.0936 76.8095 92.5153 77.3983L43.4482 121.4C39.1862 125.234 38.8328 131.788 42.6665 136.06C46.5002 140.323 53.0539 140.676 57.3266 136.842L106.329 92.8938C106.983 92.305 107.968 92.3691 108.557 93.0009L121.386 107.265C125.22 111.527 131.773 111.88 136.035 108.046C140.308 104.213 140.651 97.6592 136.828 93.3865Z" fill="white"/>
<path d="M161.936 84.0592C156.2 84.0592 151.559 88.6962 151.559 94.436L152.74 157.852V158.142C152.716 158.474 152.439 158.72 152.113 158.72C151.945 158.72 151.801 158.667 151.691 158.57C151.68 158.549 151.607 158.484 151.607 158.484L131.12 133.083C127.308 128.811 120.754 128.425 116.471 132.237C112.187 136.05 111.812 142.603 115.614 146.887L145.822 180.769C146.316 181.337 146.87 181.829 147.462 182.258C150.076 184.357 153.402 185.62 157.019 185.62C165.106 185.62 171.724 179.323 172.241 171.356C172.291 170.96 172.314 170.553 172.314 170.146V94.436C172.314 88.6962 167.674 84.0592 161.936 84.0592Z" fill="white"/>
</g>
</svg>
