<svg width="250" height="250" viewBox="0 0 250 250" fill="none" xmlns="http://www.w3.org/2000/svg">
<rect width="250" height="250" fill="#003BC4"/>
<path d="M120.627 110.892C120.627 102.533 108.176 105.284 108.176 105.284L108.67 103.062H119.216V97.2075H103.45L101.122 110.187C101.616 110.081 113.925 107.506 113.925 110.857C113.925 116.253 100.77 112.303 100.77 112.303L99.8527 117.523C99.8527 117.523 103.45 119.286 108.212 119.286C115.865 119.286 120.627 116.077 120.627 110.892Z" fill="white"/>
<path d="M60.0685 102.992H53.7905V119.286H46.278V102.992H40V97.2075H60.0685V102.992Z" fill="white"/>
<path d="M84.3693 119.286L90.7531 97.2075H83.8755L80.1369 111.104L76.3631 97.2075H69.4855L75.8693 119.286H84.3693Z" fill="white"/>
<path d="M78.2676 145.033L75.834 140.871V152.405H70.0851V130.326H76.7863L80.1369 136.71L83.4875 130.326H90.1535V152.405H84.4398V140.871L81.9709 145.033H78.2676Z" fill="white"/>
<path d="M150.359 152.405H143.728L136.039 140.201V152.405H130.29V130.326H136.992L144.645 142.494V130.326H150.359V152.405Z" fill="white"/>
<path d="M207.566 143.975H197.162V146.832H210V152.405H190.919V130.326H210V135.898H197.162V138.72H207.566V143.975Z" fill="white"/>
<path d="M114.031 141.295C114.031 140.483 113.961 139.707 113.82 139.002C113.678 138.297 113.432 137.697 113.149 137.203C112.832 136.71 112.444 136.322 111.95 136.039C111.456 135.757 110.998 135.616 110.328 135.616C109.658 135.616 108.952 135.757 108.494 136.039C108.035 136.322 107.683 136.71 107.4 137.203C107.118 137.697 106.907 138.297 106.801 139.002C106.695 139.707 106.624 140.448 106.624 141.295V141.4C106.624 142.212 106.695 142.988 106.801 143.658C106.907 144.363 107.118 144.963 107.4 145.456C107.683 145.95 108.035 146.373 108.494 146.656C108.952 146.938 109.622 147.079 110.328 147.079C111.033 147.079 111.456 146.938 111.95 146.656C112.444 146.373 112.832 145.985 113.114 145.456C113.432 144.963 113.643 144.363 113.784 143.658C113.925 142.952 113.996 142.212 113.996 141.365V141.259L114.031 141.295ZM120.38 142.988C120.38 144.398 120.133 145.739 119.674 146.938C119.216 148.137 118.546 149.16 117.664 150.041C116.782 150.923 115.724 151.593 114.454 152.052C113.185 152.546 111.915 152.793 110.328 152.793C108.741 152.793 107.189 152.546 105.99 152.052C104.755 151.558 103.732 150.888 102.886 150.006C102.039 149.124 101.405 148.102 100.981 146.902C100.558 145.703 100.311 144.398 100.311 142.952V139.707C100.311 138.297 100.523 136.956 100.981 135.757C101.405 134.558 102.075 133.535 102.886 132.653C103.732 131.772 104.755 131.102 105.99 130.608C107.224 130.114 108.776 129.867 110.363 129.867C111.95 129.867 113.22 130.114 114.49 130.608C115.759 131.102 116.817 131.772 117.699 132.653C118.581 133.535 119.251 134.558 119.71 135.757C120.168 136.956 120.415 138.261 120.415 139.707V142.952L120.38 142.988Z" fill="white"/>
<path d="M167.112 136.039V146.691C168.276 146.691 170.357 146.867 171.415 146.338C173.355 145.527 174.06 143.517 174.06 141.471C174.131 139.39 173.355 137.274 171.38 136.463C170.357 135.934 168.311 136.11 167.147 136.075M160.411 152.405V130.326H170.533C173.425 130.326 176.071 131.243 178.01 133.183C179.915 135.087 180.832 137.697 180.832 140.483V142.317C180.832 145.104 179.915 147.678 178.046 149.618C177.164 150.5 176.106 151.205 174.871 151.699C173.637 152.193 171.521 152.44 170.039 152.44H160.411V152.405Z" fill="white"/>
</svg>
