<svg width="250" height="250" viewBox="0 0 250 250" fill="none" xmlns="http://www.w3.org/2000/svg">
<rect width="250" height="250" fill="#00283D"/>
<path d="M104.7 127.866C111.622 120.463 120.215 116.883 130.007 116.883C153.406 116.883 167.251 131.926 167.251 156.996C167.251 193.049 153.162 210 123.078 210C84.8869 209.993 61.4876 181.343 61.4876 134.551C61.4876 87.7598 77.7208 53.8444 107.088 44.2968C87.7491 55.7597 75.3321 91.3321 75.3321 134.544C75.3321 173.459 93.7172 197.576 123.085 197.576C145.049 197.576 155.078 185.159 155.078 157.707C155.078 138.131 145.53 126.904 128.816 126.904C119.025 126.904 111.385 130.728 103.982 139.321L104.7 127.859V127.866Z" fill="#31C700"/>
<path d="M146.728 173.23C141.951 177.763 135.265 179.915 125.717 179.915C106.141 179.915 98.0212 167.261 98.0212 136.703C98.0212 79.159 110.912 52.4242 138.608 52.4242C151.261 52.4242 165.587 60.781 173.707 72.7174L183.735 65.3146C173.463 50.0283 155.795 40 138.608 40C104.226 40 84.1696 74.6183 84.1696 133.834C84.1696 170.124 98.7314 190.417 124.283 190.417C134.311 190.417 142.187 184.212 146.728 173.23Z" fill="#219E00"/>
<path d="M105.897 108.527C112.583 101.841 123.085 97.781 134.074 97.781C167.265 97.781 188.512 119.509 188.512 153.654C188.512 174.184 177.049 193.523 159.862 201.643C169.41 194.24 176.095 175.618 176.095 156.76C176.095 127.392 159.145 108.29 133.12 108.29C122.138 108.29 111.629 112.587 105.187 119.99L105.905 108.527H105.897Z" fill="#9FDE00"/>
<path d="M113.537 76.2898C120.459 65.5442 127.862 60.53 137.173 60.53C149.827 60.53 160.336 66.2615 168.212 77.0071L159.855 83.212C153.406 74.6184 144.339 70.5583 132.159 70.5583C123.802 70.5583 118.071 72.2297 113.537 76.2898Z" fill="#EC172C"/>
</svg>
