<svg width="250" height="250" viewBox="0 0 250 250" fill="none" xmlns="http://www.w3.org/2000/svg">
<rect width="250" height="250" fill="white"/>
<path d="M176.903 158.747L168.046 155.121C158.399 149.355 149.902 141.231 141.824 133.443C141.429 133.06 140.639 132.444 140.627 131.898C149.193 129.259 156.923 124.168 165.675 122.053C184.993 117.38 195.744 131.142 208.727 142.486C209.029 142.777 209.041 143.079 209.029 143.474C208.994 146.903 207.914 153.249 207.251 156.783C205.682 165.128 204.368 167.395 196.128 169.94C172.44 177.251 139.174 179.587 114.475 178.576C95.4829 177.797 71.8298 175.484 53.6629 169.94C45.3175 167.395 44.0738 164.779 42.5395 156.434C41.6329 151.541 41.3424 146.473 40.7263 141.545C50.42 135.687 58.6492 127.469 67.7966 120.983C88.1139 106.606 105.316 108.082 124.215 123.68C132.944 130.886 140.848 139.034 149.902 145.88C157.609 151.715 167.058 157.945 176.891 158.735L176.903 158.747ZM209.738 114.451C209.343 108.117 207.786 89.752 204.682 84.9633C202.788 82.0343 198.917 80.8371 195.721 79.8956C170.382 72.4103 137.698 70.3181 111.395 71.5153C93.5419 72.3173 71.1906 74.8163 54.0929 79.8956C43.051 83.1849 43.3299 87.9039 41.8305 98.4229C40.0289 110.999 39.8546 123.471 40.0754 136.175C40.6333 136.314 40.8658 136.059 41.2842 135.838C43.0277 134.908 46.6658 131.758 48.4557 130.352C60.474 120.879 79.8382 100.678 95.6921 101.259C110.767 101.817 124.994 118.938 136.117 127.55C141.917 126.167 147.682 123.645 152.994 120.949C158.271 118.275 163.641 114.149 169.476 112.801C185.167 109.174 197.918 127.655 208.75 136C209.099 136.268 209.18 136.663 209.773 136.512C209.878 129.131 210.227 121.809 209.773 114.451H209.738Z" fill="#E52D2F"/>
</svg>
