<svg width="250" height="250" viewBox="0 0 250 250" fill="none" xmlns="http://www.w3.org/2000/svg">
<rect width="250" height="250" fill="white"/>
<path d="M90.2103 108.17H40V141.83H90.2103V108.17Z" fill="#B2B2B0"/>
<path d="M196.84 108.17H90.2092V141.83H196.84V108.17Z" fill="#E20612"/>
<path d="M115.467 127.29C114.89 126.382 114.085 125.696 113.053 125.231C112.867 125.147 112.676 125.071 112.479 125.002C113.299 124.538 113.957 123.911 114.45 123.122C114.996 122.246 115.269 121.214 115.269 120.025C115.269 118.252 114.596 116.825 113.25 115.744C111.904 114.663 109.896 114.122 107.224 114.122H96.8411V136.825H107.831C110.625 136.825 112.738 136.28 114.176 135.187C115.612 134.095 116.331 132.576 116.331 130.63C116.331 129.311 116.042 128.197 115.466 127.289L115.467 127.29ZM106.617 118.079C107.812 118.079 108.727 118.301 109.364 118.744C110.002 119.188 110.321 119.852 110.321 120.739C110.321 121.647 110.002 122.322 109.364 122.766C108.727 123.21 107.811 123.431 106.617 123.431H101.73V118.079H106.617ZM110.366 132.204C109.708 132.648 108.742 132.869 107.467 132.869H101.729V127.258H107.467C108.741 127.258 109.708 127.49 110.366 127.955C111.024 128.42 111.352 129.128 111.352 130.079C111.352 131.052 111.023 131.76 110.366 132.203V132.204Z" fill="white"/>
<path d="M139.753 136.825L134.73 129.547C134.744 129.541 134.76 129.535 134.774 129.528C136.23 128.879 137.354 127.945 138.147 126.723C138.939 125.502 139.335 124.048 139.335 122.361C139.335 120.653 138.939 119.183 138.147 117.95C137.354 116.718 136.23 115.772 134.774 115.112C133.317 114.453 131.583 114.123 129.57 114.123H119.837V136.826H125.041V130.501H129.57C129.653 130.501 129.733 130.5 129.814 130.499L134.132 136.826H139.752L139.753 136.825ZM132.88 119.441C133.671 120.134 134.068 121.106 134.068 122.36C134.068 123.593 133.671 124.56 132.88 125.263C132.087 125.965 130.888 126.317 129.282 126.317H125.042V118.403H129.282C130.888 118.403 132.087 118.749 132.88 119.44V119.441Z" fill="white"/>
<path d="M157.863 114.122V127.895L147.032 114.122H142.862V136.825H147.841V123.045L158.703 136.825H162.843V114.122H157.863Z" fill="white"/>
<path d="M178.887 137.214C177.165 137.214 175.573 136.923 174.11 136.338C172.647 135.755 171.381 134.933 170.312 133.873C169.244 132.814 168.414 131.57 167.823 130.144C167.232 128.717 166.935 127.16 166.935 125.473C166.935 123.787 167.231 122.23 167.823 120.803C168.414 119.377 169.249 118.133 170.328 117.074C171.407 116.015 172.672 115.193 174.125 114.609C175.577 114.025 177.154 113.733 178.856 113.733C180.579 113.733 182.16 114.024 183.603 114.609C185.044 115.192 186.299 116.015 187.369 117.074C188.438 118.134 189.273 119.372 189.874 120.788C190.475 122.204 190.777 123.766 190.777 125.475C190.777 127.161 190.476 128.723 189.874 130.161C189.272 131.599 188.437 132.843 187.369 133.891C186.3 134.939 185.045 135.756 183.603 136.339C182.16 136.923 180.589 137.215 178.887 137.215V137.214ZM178.856 132.738C179.831 132.738 180.728 132.566 181.549 132.219C182.368 131.873 183.089 131.376 183.712 130.727C184.335 130.078 184.817 129.311 185.16 128.424C185.501 127.538 185.673 126.554 185.673 125.472C185.673 124.391 185.502 123.408 185.16 122.521C184.817 121.634 184.34 120.867 183.727 120.218C183.115 119.569 182.394 119.072 181.564 118.725C180.734 118.379 179.831 118.207 178.856 118.207C177.881 118.207 176.983 118.38 176.164 118.725C175.344 119.072 174.623 119.569 174.001 120.218C173.378 120.867 172.896 121.634 172.553 122.521C172.21 123.407 172.039 124.391 172.039 125.472C172.039 126.532 172.21 127.51 172.553 128.408C172.895 129.306 173.372 130.078 173.984 130.727C174.596 131.376 175.317 131.873 176.147 132.219C176.977 132.566 177.879 132.738 178.855 132.738L178.856 132.738Z" fill="white"/>
<path d="M200.627 116.622L210 113.432V136.129H205.038V119.812L200.627 121.095V116.622Z" fill="#B2B2B0"/>
<path d="M79.8864 114.197L73.3576 130.438L66.9245 114.197H46.1675V118.485H52.9352V136.937H57.8299V118.485H63.358L70.7619 136.937H75.596L84.7513 114.197H79.8864Z" fill="white"/>
</svg>
