<svg width="250" height="250" viewBox="0 0 250 250" fill="none" xmlns="http://www.w3.org/2000/svg">
<rect width="250" height="250" fill="white"/>
<path d="M45.1112 164.637V149.51H40V146.829H53.1976V149.51H48.1082V164.637H45.1221H45.1112Z" fill="black"/>
<path d="M59.4424 164.637L53.6555 146.829H56.7397L61.3278 161.422L65.9159 146.829H69.0001L63.2132 164.637H59.4533H59.4424Z" fill="black"/>
<path d="M76.5525 164.637V146.829H83.3529C85.0312 146.829 86.2627 147.221 87.0692 148.006C87.8757 148.791 88.2789 149.946 88.2789 151.461C88.2789 152.169 88.1699 152.79 87.9519 153.335C87.734 153.88 87.4397 154.316 87.0692 154.665C86.6987 155.013 86.2627 155.253 85.7614 155.373C86.132 155.471 86.5025 155.624 86.8621 155.82C87.2218 156.027 87.5596 156.299 87.8648 156.648C88.1699 156.997 88.4097 157.433 88.5949 157.945C88.7693 158.457 88.8565 159.046 88.8565 159.721C88.8565 160.942 88.6494 161.912 88.2462 162.631C87.843 163.351 87.2436 163.863 86.4589 164.179C85.6742 164.495 84.737 164.647 83.6472 164.647H76.5525V164.637ZM79.5168 154.36H83.4074C84.0068 154.36 84.4863 154.142 84.8569 153.695C85.2274 153.248 85.4236 152.67 85.4345 151.951C85.4454 151.036 85.2492 150.404 84.846 150.044C84.4318 149.695 83.9305 149.51 83.342 149.51H79.5277V154.36H79.5168ZM79.5168 161.956H83.5491C84.0504 161.956 84.4863 161.868 84.8569 161.694C85.2274 161.52 85.5108 161.236 85.7178 160.833C85.9249 160.441 86.023 159.896 86.023 159.198C86.023 158.653 85.914 158.196 85.7069 157.825C85.4999 157.455 85.2056 157.171 84.8351 156.964C84.4645 156.768 84.0395 156.659 83.56 156.659H79.5277V161.945L79.5168 161.956Z" fill="black"/>
<path d="M91.0034 164.637V146.829H98.2398C98.8937 146.829 99.5258 146.905 100.114 147.058C100.703 147.21 101.226 147.483 101.684 147.886C102.141 148.289 102.501 148.845 102.773 149.564C103.046 150.284 103.166 151.21 103.166 152.354C103.166 153.237 103.079 153.978 102.904 154.567C102.73 155.155 102.49 155.635 102.207 156.005C101.912 156.376 101.596 156.659 101.226 156.866C100.866 157.073 100.507 157.237 100.147 157.357L103.569 164.647H100.55L97.466 157.793H96.6813C96.3871 157.793 96.0711 157.793 95.755 157.782C95.4281 157.782 95.1229 157.771 94.8178 157.76C94.5126 157.749 94.2293 157.749 93.9677 157.749V164.647H91.0034V164.637ZM93.9677 155.395H97.7276C98.0763 155.395 98.4033 155.351 98.6866 155.264C98.9809 155.177 99.2315 155.013 99.4604 154.796C99.6892 154.567 99.8527 154.262 99.9835 153.88C100.103 153.499 100.169 152.997 100.169 152.387C100.169 151.777 100.114 151.308 99.9835 150.927C99.8636 150.545 99.6892 150.262 99.4604 150.055C99.2315 149.859 98.97 149.717 98.6757 149.63C98.3815 149.554 98.0654 149.51 97.7276 149.51H93.9677V155.395Z" fill="black"/>
<path d="M104.855 164.637L110.642 146.829H114.402L120.189 164.637H117.072L115.699 160.408H109.258L107.906 164.637H104.844H104.855ZM109.966 157.738H114.979L112.473 149.39L109.966 157.738Z" fill="black"/>
<path d="M124.548 164.637V149.51H119.437V146.829H132.634V149.51H127.545V164.637H124.559H124.548Z" fill="black"/>
<path d="M134.193 164.637V146.829H137.157V164.637H134.193Z" fill="black"/>
<path d="M145.756 164.778C145.32 164.778 144.862 164.767 144.372 164.746C143.881 164.724 143.38 164.68 142.879 164.626C142.366 164.571 141.898 164.517 141.44 164.451C140.993 164.397 140.59 164.331 140.23 164.244V161.901C140.677 161.934 141.211 161.966 141.811 161.999C142.41 162.032 143.042 162.054 143.707 162.075C144.361 162.086 145.004 162.097 145.614 162.097C146.257 162.097 146.824 162.043 147.325 161.912C147.826 161.792 148.208 161.574 148.48 161.269C148.753 160.964 148.894 160.528 148.894 159.961V159.111C148.894 158.479 148.72 158 148.36 157.662C148.012 157.324 147.488 157.15 146.791 157.15H145.124C143.5 157.15 142.246 156.801 141.375 156.081C140.503 155.373 140.056 154.163 140.056 152.442V151.526C140.056 149.804 140.535 148.562 141.494 147.799C142.453 147.036 143.827 146.655 145.603 146.655C146.213 146.655 146.845 146.687 147.499 146.742C148.153 146.796 148.774 146.862 149.374 146.949C149.973 147.036 150.475 147.123 150.889 147.21V149.554C150.18 149.51 149.374 149.455 148.469 149.412C147.565 149.368 146.715 149.336 145.952 149.336C145.342 149.336 144.797 149.401 144.339 149.532C143.87 149.662 143.522 149.891 143.282 150.218C143.042 150.545 142.922 151.036 142.922 151.679V152.256C142.922 153.019 143.129 153.542 143.532 153.847C143.947 154.153 144.535 154.305 145.309 154.305H147.162C148.208 154.305 149.069 154.501 149.744 154.883C150.42 155.264 150.921 155.798 151.248 156.463C151.575 157.128 151.739 157.891 151.739 158.741V159.874C151.739 161.193 151.477 162.206 150.965 162.915C150.453 163.623 149.744 164.103 148.84 164.364C147.935 164.626 146.911 164.746 145.745 164.746L145.756 164.778Z" fill="black"/>
<path d="M158.103 164.637C157.264 164.637 156.545 164.506 155.945 164.255C155.346 163.994 154.888 163.579 154.583 162.991C154.278 162.402 154.125 161.629 154.125 160.659V146.829H157.09V160.168C157.09 160.615 157.166 160.975 157.329 161.247C157.493 161.52 157.7 161.694 157.972 161.792C158.234 161.89 158.528 161.934 158.855 161.934H164.762V164.637H158.103Z" fill="black"/>
<path d="M166.386 164.637L172.172 146.829H175.932L181.719 164.637H178.602L177.229 160.408H170.788L169.437 164.637H166.364H166.386ZM171.497 157.738H176.51L174.003 149.39L171.497 157.738Z" fill="black"/>
<path d="M186.798 164.637L181.011 146.829H184.095L188.683 161.422L193.271 146.829H196.356L190.569 164.637H186.809H186.798Z" fill="black"/>
<path d="M194.666 164.637L200.453 146.829H204.213L210 164.637H206.883L205.51 160.408H199.069L197.718 164.637H194.645H194.666ZM199.778 157.738H204.791L202.284 149.39L199.778 157.738Z" fill="black"/>
<path d="M45.1112 164.637V149.51H40V146.829H53.1976V149.51H48.1082V164.637H45.1221H45.1112Z" fill="url(#paint0_linear_353_225)"/>
<path d="M59.4424 164.637L53.6555 146.829H56.7397L61.3278 161.422L65.9159 146.829H69.0001L63.2132 164.637H59.4533H59.4424Z" fill="url(#paint1_linear_353_225)"/>
<path d="M76.5525 164.637V146.829H83.3529C85.0312 146.829 86.2627 147.221 87.0692 148.006C87.8757 148.791 88.2789 149.946 88.2789 151.461C88.2789 152.169 88.1699 152.79 87.9519 153.335C87.734 153.88 87.4397 154.316 87.0692 154.665C86.6987 155.013 86.2627 155.253 85.7614 155.373C86.132 155.471 86.5025 155.624 86.8621 155.82C87.2218 156.027 87.5596 156.299 87.8648 156.648C88.1699 156.997 88.4097 157.433 88.5949 157.945C88.7693 158.457 88.8565 159.046 88.8565 159.721C88.8565 160.942 88.6494 161.912 88.2462 162.631C87.843 163.351 87.2436 163.863 86.4589 164.179C85.6742 164.495 84.737 164.647 83.6472 164.647H76.5525V164.637ZM79.5168 154.36H83.4074C84.0068 154.36 84.4863 154.142 84.8569 153.695C85.2274 153.248 85.4236 152.67 85.4345 151.951C85.4454 151.036 85.2492 150.404 84.846 150.044C84.4318 149.695 83.9305 149.51 83.342 149.51H79.5277V154.36H79.5168ZM79.5168 161.956H83.5491C84.0504 161.956 84.4863 161.868 84.8569 161.694C85.2274 161.52 85.5108 161.236 85.7178 160.833C85.9249 160.441 86.023 159.896 86.023 159.198C86.023 158.653 85.914 158.196 85.7069 157.825C85.4999 157.455 85.2056 157.171 84.8351 156.964C84.4645 156.768 84.0395 156.659 83.56 156.659H79.5277V161.945L79.5168 161.956Z" fill="url(#paint2_linear_353_225)"/>
<path d="M91.0034 164.637V146.829H98.2398C98.8937 146.829 99.5258 146.905 100.114 147.058C100.703 147.21 101.226 147.483 101.684 147.886C102.141 148.289 102.501 148.845 102.773 149.564C103.046 150.284 103.166 151.21 103.166 152.354C103.166 153.237 103.079 153.978 102.904 154.567C102.73 155.155 102.49 155.635 102.207 156.005C101.912 156.376 101.596 156.659 101.226 156.866C100.866 157.073 100.507 157.237 100.147 157.357L103.569 164.647H100.55L97.466 157.793H96.6813C96.3871 157.793 96.0711 157.793 95.755 157.782C95.4281 157.782 95.1229 157.771 94.8178 157.76C94.5126 157.749 94.2293 157.749 93.9677 157.749V164.647H91.0034V164.637ZM93.9677 155.395H97.7276C98.0763 155.395 98.4033 155.351 98.6866 155.264C98.9809 155.177 99.2315 155.013 99.4604 154.796C99.6892 154.567 99.8527 154.262 99.9835 153.88C100.103 153.499 100.169 152.997 100.169 152.387C100.169 151.777 100.114 151.308 99.9835 150.927C99.8636 150.545 99.6892 150.262 99.4604 150.055C99.2315 149.859 98.97 149.717 98.6757 149.63C98.3815 149.554 98.0654 149.51 97.7276 149.51H93.9677V155.395Z" fill="url(#paint3_linear_353_225)"/>
<path d="M104.855 164.637L110.642 146.829H114.402L120.189 164.637H117.072L115.699 160.408H109.258L107.906 164.637H104.844H104.855ZM109.966 157.738H114.979L112.473 149.39L109.966 157.738Z" fill="url(#paint4_linear_353_225)"/>
<path d="M124.548 164.637V149.51H119.437V146.829H132.634V149.51H127.545V164.637H124.559H124.548Z" fill="url(#paint5_linear_353_225)"/>
<path d="M134.193 164.637V146.829H137.157V164.637H134.193Z" fill="url(#paint6_linear_353_225)"/>
<path d="M145.756 164.778C145.32 164.778 144.862 164.767 144.372 164.746C143.881 164.724 143.38 164.68 142.879 164.626C142.366 164.571 141.898 164.517 141.44 164.451C140.993 164.397 140.59 164.331 140.23 164.244V161.901C140.677 161.934 141.211 161.966 141.811 161.999C142.41 162.032 143.042 162.054 143.707 162.075C144.361 162.086 145.004 162.097 145.614 162.097C146.257 162.097 146.824 162.043 147.325 161.912C147.826 161.792 148.208 161.574 148.48 161.269C148.753 160.964 148.894 160.528 148.894 159.961V159.111C148.894 158.479 148.72 158 148.36 157.662C148.012 157.324 147.488 157.15 146.791 157.15H145.124C143.5 157.15 142.246 156.801 141.375 156.081C140.503 155.373 140.056 154.163 140.056 152.442V151.526C140.056 149.804 140.535 148.562 141.494 147.799C142.453 147.036 143.827 146.655 145.603 146.655C146.213 146.655 146.845 146.687 147.499 146.742C148.153 146.796 148.774 146.862 149.374 146.949C149.973 147.036 150.475 147.123 150.889 147.21V149.554C150.18 149.51 149.374 149.455 148.469 149.412C147.565 149.368 146.715 149.336 145.952 149.336C145.342 149.336 144.797 149.401 144.339 149.532C143.87 149.662 143.522 149.891 143.282 150.218C143.042 150.545 142.922 151.036 142.922 151.679V152.256C142.922 153.019 143.129 153.542 143.532 153.847C143.947 154.153 144.535 154.305 145.309 154.305H147.162C148.208 154.305 149.069 154.501 149.744 154.883C150.42 155.264 150.921 155.798 151.248 156.463C151.575 157.128 151.739 157.891 151.739 158.741V159.874C151.739 161.193 151.477 162.206 150.965 162.915C150.453 163.623 149.744 164.103 148.84 164.364C147.935 164.626 146.911 164.746 145.745 164.746L145.756 164.778Z" fill="url(#paint7_linear_353_225)"/>
<path d="M158.103 164.637C157.264 164.637 156.545 164.506 155.945 164.255C155.346 163.994 154.888 163.579 154.583 162.991C154.278 162.402 154.125 161.629 154.125 160.659V146.829H157.09V160.168C157.09 160.615 157.166 160.975 157.329 161.247C157.493 161.52 157.7 161.694 157.972 161.792C158.234 161.89 158.528 161.934 158.855 161.934H164.762V164.637H158.103Z" fill="url(#paint8_linear_353_225)"/>
<path d="M166.386 164.637L172.172 146.829H175.932L181.719 164.637H178.602L177.229 160.408H170.788L169.437 164.637H166.364H166.386ZM171.497 157.738H176.51L174.003 149.39L171.497 157.738Z" fill="url(#paint9_linear_353_225)"/>
<path d="M186.798 164.637L181.011 146.829H184.095L188.683 161.422L193.271 146.829H196.356L190.569 164.637H186.809H186.798Z" fill="url(#paint10_linear_353_225)"/>
<path d="M194.666 164.637L200.453 146.829H204.213L210 164.637H206.883L205.51 160.408H199.069L197.718 164.637H194.645H194.666ZM199.778 157.738H204.791L202.284 149.39L199.778 157.738Z" fill="url(#paint11_linear_353_225)"/>
<path d="M122.357 89.4503H104.07V107.737H122.357V89.4503Z" fill="#303062"/>
<mask id="mask0_353_225" style="mask-type:luminance" maskUnits="userSpaceOnUse" x="104" y="89" width="19" height="19">
<path d="M122.357 89.4503H104.07V107.737H122.357V89.4503Z" fill="white"/>
</mask>
<g mask="url(#mask0_353_225)">
<path d="M124.428 143.592C142.882 143.592 157.842 128.632 157.842 110.179C157.842 91.7247 142.882 76.7649 124.428 76.7649C105.974 76.7649 91.0142 91.7247 91.0142 110.179C91.0142 128.632 105.974 143.592 124.428 143.592Z" fill="url(#paint12_radial_353_225)"/>
</g>
<path d="M144.884 111.781H126.597V130.068H144.884V111.781Z" fill="#303062"/>
<mask id="mask1_353_225" style="mask-type:luminance" maskUnits="userSpaceOnUse" x="126" y="111" width="19" height="20">
<path d="M144.884 111.781H126.597V130.068H144.884V111.781Z" fill="white"/>
</mask>
<g mask="url(#mask1_353_225)">
<path d="M124.428 143.592C142.882 143.592 157.842 128.632 157.842 110.179C157.842 91.7246 142.882 76.7648 124.428 76.7648C105.974 76.7648 91.0142 91.7246 91.0142 110.179C91.0142 128.632 105.974 143.592 124.428 143.592Z" fill="url(#paint13_radial_353_225)"/>
</g>
<path d="M149.123 85.2218H126.597V107.748H149.123V85.2218Z" fill="#60091A"/>
<mask id="mask2_353_225" style="mask-type:luminance" maskUnits="userSpaceOnUse" x="126" y="85" width="24" height="23">
<path d="M149.123 85.2218H126.597V107.748H149.123V85.2218Z" fill="white"/>
</mask>
<g mask="url(#mask2_353_225)">
<path d="M124.428 145.521C143.947 145.521 159.771 129.698 159.771 110.179C159.771 90.6593 143.947 74.8359 124.428 74.8359C104.909 74.8359 89.0852 90.6593 89.0852 110.179C89.0852 129.698 104.909 145.521 124.428 145.521Z" fill="url(#paint14_radial_353_225)"/>
</g>
<path d="M122.368 111.781H99.8416V134.307H122.368V111.781Z" fill="#302F61"/>
<mask id="mask3_353_225" style="mask-type:luminance" maskUnits="userSpaceOnUse" x="99" y="111" width="24" height="24">
<path d="M122.368 111.781H99.8416V134.307H122.368V111.781Z" fill="white"/>
</mask>
<g mask="url(#mask3_353_225)">
<path d="M124.428 143.592C142.881 143.592 157.841 128.632 157.841 110.179C157.841 91.7246 142.881 76.7648 124.428 76.7648C105.974 76.7648 91.0139 91.7246 91.0139 110.179C91.0139 128.632 105.974 143.592 124.428 143.592Z" fill="url(#paint15_radial_353_225)"/>
</g>
<defs>
<linearGradient id="paint0_linear_353_225" x1="46.6043" y1="164.778" x2="46.6043" y2="146.676" gradientUnits="userSpaceOnUse">
<stop stop-color="#505A9E"/>
<stop offset="1" stop-color="#36377A"/>
</linearGradient>
<linearGradient id="paint1_linear_353_225" x1="61.3278" y1="8030.22" x2="61.3278" y2="8030.22" gradientUnits="userSpaceOnUse">
<stop stop-color="#505A9E"/>
<stop offset="1" stop-color="#36377A"/>
</linearGradient>
<linearGradient id="paint2_linear_353_225" x1="82.7099" y1="8030.22" x2="82.7099" y2="8030.22" gradientUnits="userSpaceOnUse">
<stop stop-color="#505A9E"/>
<stop offset="1" stop-color="#36377A"/>
</linearGradient>
<linearGradient id="paint3_linear_353_225" x1="97.2916" y1="164.778" x2="97.2916" y2="146.676" gradientUnits="userSpaceOnUse">
<stop stop-color="#505A9E"/>
<stop offset="1" stop-color="#36377A"/>
</linearGradient>
<linearGradient id="paint4_linear_353_225" x1="112.527" y1="8030.22" x2="112.527" y2="8030.22" gradientUnits="userSpaceOnUse">
<stop stop-color="#505A9E"/>
<stop offset="1" stop-color="#36377A"/>
</linearGradient>
<linearGradient id="paint5_linear_353_225" x1="126.03" y1="8030.22" x2="126.03" y2="8030.22" gradientUnits="userSpaceOnUse">
<stop stop-color="#505A9E"/>
<stop offset="1" stop-color="#36377A"/>
</linearGradient>
<linearGradient id="paint6_linear_353_225" x1="135.675" y1="8030.22" x2="135.675" y2="8030.22" gradientUnits="userSpaceOnUse">
<stop stop-color="#505A9E"/>
<stop offset="1" stop-color="#36377A"/>
</linearGradient>
<linearGradient id="paint7_linear_353_225" x1="145.897" y1="164.778" x2="145.897" y2="146.676" gradientUnits="userSpaceOnUse">
<stop stop-color="#505A9E"/>
<stop offset="1" stop-color="#36377A"/>
</linearGradient>
<linearGradient id="paint8_linear_353_225" x1="159.444" y1="8030.22" x2="159.444" y2="146.676" gradientUnits="userSpaceOnUse">
<stop stop-color="#505A9E"/>
<stop offset="1" stop-color="#36377A"/>
</linearGradient>
<linearGradient id="paint9_linear_353_225" x1="174.058" y1="8030.22" x2="174.058" y2="8030.22" gradientUnits="userSpaceOnUse">
<stop stop-color="#505A9E"/>
<stop offset="1" stop-color="#36377A"/>
</linearGradient>
<linearGradient id="paint10_linear_353_225" x1="188.672" y1="8030.22" x2="188.672" y2="8030.22" gradientUnits="userSpaceOnUse">
<stop stop-color="#505A9E"/>
<stop offset="1" stop-color="#36377A"/>
</linearGradient>
<linearGradient id="paint11_linear_353_225" x1="202.339" y1="8030.22" x2="202.339" y2="8030.22" gradientUnits="userSpaceOnUse">
<stop stop-color="#505A9E"/>
<stop offset="1" stop-color="#36377A"/>
</linearGradient>
<radialGradient id="paint12_radial_353_225" cx="0" cy="0" r="1" gradientUnits="userSpaceOnUse" gradientTransform="translate(124.428 110.179) scale(33.4137 33.4137)">
<stop stop-color="#475FA5"/>
<stop offset="1" stop-color="#475EAF" stop-opacity="0"/>
</radialGradient>
<radialGradient id="paint13_radial_353_225" cx="0" cy="0" r="1" gradientUnits="userSpaceOnUse" gradientTransform="translate(124.428 110.178) scale(33.4137 33.4137)">
<stop stop-color="#475FA5"/>
<stop offset="1" stop-color="#475EAF" stop-opacity="0"/>
</radialGradient>
<radialGradient id="paint14_radial_353_225" cx="0" cy="0" r="1" gradientUnits="userSpaceOnUse" gradientTransform="translate(124.428 110.179) scale(35.3427 35.3427)">
<stop stop-color="#FF1A2D"/>
<stop offset="0.08" stop-color="#F91A2D"/>
<stop offset="0.41" stop-color="#E21A2D"/>
<stop offset="0.73" stop-color="#D41A2D"/>
<stop offset="1" stop-color="#CF1A2D"/>
</radialGradient>
<radialGradient id="paint15_radial_353_225" cx="0" cy="0" r="1" gradientUnits="userSpaceOnUse" gradientTransform="translate(124.428 110.178) scale(33.4137 33.4137)">
<stop stop-color="#475FA5"/>
<stop offset="1" stop-color="#475EAF" stop-opacity="0"/>
</radialGradient>
</defs>
</svg>
