<svg width="250" height="250" viewBox="0 0 250 250" fill="none" xmlns="http://www.w3.org/2000/svg">
<rect width="250" height="250" fill="#1B356F"/>
<path d="M118.75 64.0625C116.25 64.0625 114.375 65.3125 114.375 68.4375V114.688C114.375 116.563 113.75 117.813 112.5 117.813C111.875 117.813 110.625 117.188 109.375 115.938L107.5 114.688C100 108.438 91.2504 105.938 81.8754 105.938C71.8754 105.938 63.1254 109.063 55.6254 115.313C48.1254 121.563 43.1254 129.063 41.2504 138.438C40.6254 141.563 42.5004 142.813 45.6254 142.813C47.5004 142.813 48.7504 142.188 49.3754 140.313C51.2504 138.438 51.8754 137.813 51.2504 137.813C53.1254 130.938 56.8754 125.313 62.5004 120.938C68.1254 116.563 74.3754 114.688 81.8754 114.688C90.6254 114.688 98.1254 117.813 104.375 124.063C110.625 130.313 113.75 137.813 113.75 146.563C113.75 155.313 110.625 162.813 104.375 169.063C98.1254 175.313 90.6254 178.438 81.8754 178.438C74.3754 178.438 68.1254 176.563 62.5004 172.188C56.8754 167.813 53.1254 162.188 50.6254 155.313C50.6254 152.188 48.7504 150.938 46.2504 150.938C42.5004 150.938 40.6254 152.188 41.8754 155.313C44.3754 164.688 48.7504 172.813 56.2504 178.438C63.7504 184.688 72.5004 187.188 81.8754 187.188C93.1254 187.188 103.125 183.438 110.625 175.313C118.75 167.188 122.5 157.813 122.5 145.938V68.4375C123.125 65.3125 121.25 64.0625 118.75 64.0625Z" fill="white"/>
<path fill-rule="evenodd" clip-rule="evenodd" d="M208.125 160.938H197.5V150.313C197.5 149.063 196.875 148.438 195.625 148.438H185.625C184.375 148.438 183.75 149.063 183.75 150.313V160.938H173.125C171.875 160.938 171.25 161.563 171.25 162.813V172.813C171.25 174.063 171.875 174.688 173.125 174.688H183.75V185.313C183.75 186.563 184.375 187.188 185.625 187.188H195.625C196.875 187.188 197.5 186.563 197.5 185.313V175.313H208.125C209.375 175.313 210 174.688 210 173.438V162.813C210 162.188 208.75 160.938 208.125 160.938Z" fill="#CB1411"/>
<path d="M186.25 104.687C182.5 104.062 176.875 104.062 171.875 104.687C170 104.687 168.75 105.312 166.875 105.312C165 105.937 162.5 106.562 160 107.812C154.375 110.312 149.375 114.062 145 119.062C138.75 126.562 135.625 135.312 135.625 145.312V184.062C135.625 186.562 137.5 187.187 140 187.187C142.5 187.187 144.375 185.937 144.375 184.062V145.312C144.375 138.437 146.25 131.562 150.625 125.937C155 120.312 160.625 116.562 166.875 114.687H167.5L168.75 114.062C171.875 113.437 177.5 114.062 180.625 117.187C185 122.187 189.375 123.437 195.625 125.312C201.875 126.562 203.75 125.937 205.625 122.812C205.625 122.812 202.5 122.187 198.75 120.937C195.625 119.687 192.5 119.062 192.5 117.187C193.75 117.187 207.5 119.062 207.5 119.062C210.625 112.812 203.125 105.937 186.25 104.687ZM193.125 113.437C191.25 112.812 189.375 111.562 189.375 110.937C189.375 109.687 191.25 109.687 193.75 109.687C195.625 110.312 197.5 111.562 197.5 112.187C197.5 113.437 195 114.062 193.125 113.437Z" fill="white"/>
<path d="M109.375 115.937C108.75 115.312 108.125 115.312 107.5 114.687L109.375 115.937Z" fill="#00417A"/>
<path d="M98.125 63.4375C98.125 62.8125 97.5 62.8125 96.875 62.8125C96.25 62.8125 95.625 62.8125 94.375 64.0625L83.125 83.4375C81.875 82.1875 78.125 75.9375 71.25 64.6875C71.25 64.0625 70.625 64.0625 70.625 63.4375C70 62.8125 69.375 62.8125 68.75 62.8125H43.125C41.25 62.8125 40 64.0625 40 65.3125C40 66.5625 41.25 67.8125 42.5 67.8125H51.25C53.125 68.4375 53.125 69.0625 53.125 69.0625V89.6875C53.125 91.5625 54.375 92.1875 55.625 92.1875C57.5 92.1875 58.125 90.9375 58.125 89.6875V69.0625C58.125 68.4375 58.125 68.4375 59.375 68.4375H66.25L80 90.3125C81.25 92.1875 81.875 92.8125 82.5 92.8125C83.125 92.8125 83.75 92.1875 85 90.3125C85.625 89.0625 90.625 80.9375 98.75 67.1875C98.75 66.5625 99.375 66.5625 99.375 65.9375C100 64.6875 99.375 63.4375 98.125 63.4375Z" fill="#CB1411"/>
</svg>
