<svg width="250" height="250" viewBox="0 0 250 250" fill="none" xmlns="http://www.w3.org/2000/svg">
<rect width="250" height="250" fill="#210DFE"/>
<path d="M171.795 121.587C171.474 121.853 171.385 122.141 171.374 122.507C171.33 123.837 171.208 125.101 170.942 126.409L169.09 135.944L167.749 142.884H160.343L163.614 126.021C163.791 124.746 163.835 123.516 163.492 122.296C163.082 120.833 162.051 119.735 160.576 119.325C157.549 118.483 154.6 119.691 152.416 121.82C152.228 122.008 152.217 122.352 152.173 122.629L149.733 135.29L148.303 142.884H140.565L141.518 137.961L146.308 113.194H153.614L153.17 115.367C154.634 114.303 156.164 113.471 157.893 112.995C159.013 112.684 160.099 112.596 161.263 112.54C163.314 112.452 165.31 112.817 167.139 113.749C168.281 114.325 169.146 115.212 169.9 116.299C171.818 114.791 173.758 113.704 176.152 113.095C179.368 112.285 183.88 112.197 186.906 113.749C187.583 114.092 188.192 114.536 188.747 115.057C189.733 115.977 190.354 117.152 190.742 118.438C191.507 120.988 191.197 123.915 190.742 126.52L189.013 135.434L187.605 142.873H179.966L180.642 139.392L181.662 134.037L182.826 128.072C183.203 126.132 183.625 124.236 183.104 122.285C182.705 120.8 181.64 119.702 180.132 119.303C177.062 118.494 174.157 119.536 171.784 121.554L171.795 121.587Z" fill="white"/>
<path d="M90.5652 147.762L91.563 143.349C91.8401 143.471 92.0618 143.582 92.2947 143.715C93.2148 144.281 94.1128 144.768 95.1328 145.156C97.9377 146.254 100.887 146.831 103.913 146.786C105.321 146.764 106.641 146.598 107.949 146.143C109.7 145.533 111.053 144.247 111.674 142.496C112.062 141.409 112.317 140.29 112.45 139.137C111.74 139.691 111.175 140.201 110.443 140.6C109.068 141.343 107.583 141.709 106.02 141.864C102.106 142.041 98.7026 141.387 95.6982 138.76C92.6938 136.132 91.5408 132.584 91.4632 128.616C91.3745 124.081 92.8933 119.835 96.0862 116.587C98.7026 113.904 102.062 112.718 105.776 112.518C108.17 112.385 110.521 112.74 112.771 113.538C113.858 113.926 114.878 114.414 115.698 115.201L116.607 116.066L116.94 114.392L117.195 113.216H124.811L124.268 115.977L123.348 120.755L119.7 139.425C118.98 143.094 118.06 146.265 115.598 149.137C114.49 150.423 113.126 151.365 111.563 152.03C108.78 153.205 105.199 153.449 102.195 153.261C99.6117 153.105 95.4876 152.518 93.1372 151.531L90.0663 150.245L90.5873 147.751L90.5652 147.762ZM112.793 132.995C113.137 132.651 113.436 132.318 113.691 131.886L115.487 123.139C114.789 121.742 113.481 120.822 112.084 120.223C110.077 119.425 107.915 119.203 105.798 119.624C104.279 119.924 102.971 120.633 101.873 121.709C100.776 122.784 100.022 124.092 99.6339 125.611C99.2459 127.13 99.1572 128.593 99.4787 130.101C99.7447 131.332 100.288 132.474 101.23 133.316C102.794 134.724 104.468 135.245 106.574 135.278C108.98 135.323 111.075 134.724 112.805 133.006L112.793 132.995Z" fill="white"/>
<path d="M203.769 133.205L201.895 142.906H194.124L195.942 133.46L196.962 128.272L199.877 113.228H207.594C207.605 113.505 207.571 113.738 207.505 114.015L205.753 123.028L203.78 133.205H203.769Z" fill="white"/>
<path d="M134.911 135.567L133.481 142.906H125.698L128.891 126.542L131.452 113.228H139.224L138.337 117.917L135.609 131.964L134.911 135.567Z" fill="white"/>
<path d="M141.352 103.438C141.729 104.68 141.652 106.044 141.097 107.174C140.443 108.505 139.179 109.392 137.86 109.636C136.263 109.935 134.778 109.425 133.68 108.35C132.793 107.485 132.428 106.443 132.361 105.234C132.295 104.026 132.561 102.884 133.436 101.975C133.558 101.853 133.669 101.698 133.78 101.52C130.676 101.908 129.168 103.161 127.261 105.545C127.128 105.035 127.162 104.58 127.162 104.081C127.162 102.884 127.35 101.698 127.893 100.6C128.78 98.8041 130.31 97.5181 132.25 97.0192C134.9 96.3429 138.991 96.7864 141.663 97.4516C143.082 97.8063 144.467 98.1278 145.809 98.6822L150.798 100.733C152.283 101.343 153.581 102.208 154.944 103.039C156.02 103.693 156.973 104.436 157.96 105.223C157.96 105.223 158.957 106.066 158.359 105.888L151.031 103.76C148.858 103.128 146.762 102.729 144.578 102.263C143.658 102.064 142.771 101.975 141.851 101.831C141.297 101.742 140.765 101.62 140.188 101.631C140.654 102.241 141.119 102.695 141.341 103.427L141.352 103.438Z" fill="white"/>
<path d="M207.372 109.27C206.418 109.68 205.41 109.835 204.412 109.625C202.793 109.281 201.507 108.061 200.964 106.52C200.786 106.021 200.786 105.545 200.764 105.035C200.72 103.993 201.041 103.072 201.662 102.263C202.283 101.454 203.037 100.899 204.002 100.578C204.711 100.334 205.398 100.301 206.13 100.423C206.995 100.578 207.715 100.911 208.37 101.476C209.733 102.64 210.276 104.381 209.866 106.143C209.545 107.518 208.724 108.682 207.372 109.27Z" fill="white"/>
<path d="M81.4746 99.103C83.5588 99.1032 86.0755 101.709 86.0645 103.871L86.0312 138.139C86.031 140.822 83.4805 142.883 80.8975 143.005L80.9092 143.028H45.3438C43.5699 143.028 41.962 142.163 40.9531 140.733C40.4543 140.023 40 139.181 40 138.272V103.638C40.0111 101.687 42.5388 99.103 44.6562 99.103H81.4746ZM69.9775 130.888L71.9512 130.944L71.9531 130.943L71.9619 130.944C72.1392 130.944 72.3611 130.811 72.4277 130.656L74.0244 126.986L77.2832 119.536L80.0996 113.206C80.41 112.518 80.7206 111.886 80.9756 111.155H76.585L76.5811 111.166H76.5703L75.1221 114.713L71.1914 124.534C70.8516 123.84 70.6523 123.212 70.4209 122.551C70.0218 121.343 69.5561 120.201 69.0684 119.015L66.4189 112.562L65.8428 111.155H61.3965L69.9775 130.888ZM44.124 111.166H44.1016L44.1133 114.857H44.124V114.869L50.3438 114.878V130.766C50.3473 130.767 50.3509 130.767 50.3545 130.768V130.778C50.516 130.808 50.6961 130.836 50.8525 130.841C50.8641 130.842 50.8754 130.844 50.8867 130.844H53.7578C53.9463 130.844 54.1575 130.8 54.3682 130.778L54.3906 114.869H60.6426V111.166L44.124 111.155V111.166Z" fill="white"/>
</svg>
