<svg width="250" height="250" viewBox="0 0 250 250" fill="none" xmlns="http://www.w3.org/2000/svg">
<rect width="250" height="250" fill="url(#paint0_linear_352_78)"/>
<path d="M48.2592 157.089H40V154.029H59.9192V157.089H51.66V178.417H48.3078V157.089H48.2592Z" fill="white"/>
<path d="M63.8546 154.029H78.0895L78.4296 157.041H67.2555V164.425H77.6037V167.438H67.2555V175.405H78.4296L78.0895 178.417H63.8546V154.029Z" fill="white"/>
<path d="M83.6764 154.029H87.0286V175.357H98.3972L98.0085 178.417H83.6278V154.029H83.6764Z" fill="white"/>
<path d="M102.381 154.029H116.616L116.956 157.041H105.782V164.425H116.13V167.438H105.782V175.405H116.956L116.616 178.417H102.381V154.029Z" fill="white"/>
<path d="M130.802 178.855L120.308 154.029H124.049L129.879 168.506C130.414 169.818 130.997 171.178 131.483 172.636H131.628C132.163 171.178 132.649 169.867 133.183 168.555L139.013 154.029H142.754L132.309 178.855H130.754H130.802Z" fill="white"/>
<path d="M146.689 154.029H150.041V178.417H146.689V154.029Z" fill="white"/>
<path d="M169.329 157.089H154.948V154.029H175.11V154.66L159.855 175.259H174.576V178.417H154.074V177.786L169.377 157.089H169.329Z" fill="white"/>
<path d="M179.143 154.029H182.495V178.417H179.143V154.029Z" fill="white"/>
<path d="M206.203 178.369L203.774 172.296H192.357L189.928 178.369H186.187L196.535 153.98H199.548L209.847 178.369H206.106H206.203ZM193.475 169.478H202.608L199.693 162.239C199.062 160.636 198.527 159.227 198.09 157.867H198.041C197.556 159.227 197.021 160.636 196.39 162.239L193.523 169.478H193.475Z" fill="white"/>
<path d="M146.495 150.336L149.993 145.478H152.908L149.847 150.336H146.543H146.495Z" fill="white"/>
<path d="M98.6404 71.1454H50.3485C44.7614 71.1454 40.1946 75.7122 40.1946 81.2993V131.194C40.1946 136.83 44.7614 141.348 50.3485 141.348H98.6404C104.276 141.348 108.794 136.781 108.794 131.194V81.2993C108.794 75.6636 104.227 71.1454 98.6404 71.1454ZM87.9034 130.757C76.6321 133.381 67.1098 134.061 60.7939 133.866C54.9153 133.672 51.5631 129.494 54.0408 122.547C60.4053 104.862 68.13 93.1536 70.6078 89.3641C71.7252 87.6637 77.4094 78.2871 79.4985 78.8701C81.9763 79.5503 81.4904 82.6596 80.5188 84.8459C79.5471 87.0321 71.4823 106.028 69.3932 113.753C68.5673 116.911 68.0328 119.632 68.9073 121.283C69.7818 122.935 72.4539 125.85 86.6403 124.587C91.45 124.15 95.9197 123.567 96.697 124.976C97.7173 126.822 94.8023 129.105 87.8549 130.709L87.9034 130.757Z" fill="white"/>
<path d="M159.127 87.518C159.127 83.6799 159.224 80.8135 159.029 80.1819C158.349 77.9957 155.288 78.4329 153.297 80.1819C151.11 82.1738 151.548 85.3317 151.548 88.684V110.255C151.548 121.818 147.078 126.725 138.527 126.579C129.977 126.676 125.507 121.866 125.507 110.255V88.684C125.507 85.3803 125.944 82.1738 123.758 80.1819C121.766 78.3843 118.657 77.9471 118.025 80.1819C117.831 80.8135 117.928 83.6799 117.928 87.518C117.928 95.3399 117.928 110.352 117.928 110.352C117.928 117.008 118.559 121.866 121.523 126.336C124.73 131.194 130.122 133.867 138.576 133.867C147.029 133.867 152.422 131.243 155.629 126.385C158.592 121.866 159.224 117.057 159.224 110.401C159.224 110.401 159.224 95.3885 159.224 87.5666L159.127 87.518Z" fill="white"/>
<path d="M209.896 130.66C209.701 130.028 208.001 127.745 205.815 124.587C201.442 118.125 192.891 105.737 192.891 105.737C192.6 105.251 192.26 104.814 191.968 104.376C191.531 103.745 191.094 103.065 190.657 102.433L178.462 84.6515C176.567 81.9308 175.11 79.1616 172.195 78.8215C169.523 78.4814 166.559 79.4045 167.288 81.5907C167.482 82.2223 169.329 84.7972 171.515 88.0037C175.887 94.4653 184.438 106.854 184.438 106.854C184.729 107.34 185.07 107.777 185.361 108.214C185.798 108.846 186.236 109.526 186.673 110.158L198.867 127.939C200.762 130.66 202.22 133.575 205.135 133.964C207.807 134.304 210.576 132.943 209.896 130.757V130.66Z" fill="white"/>
<path d="M166.365 130.708C166.56 130.077 168.26 127.793 170.446 124.636C174.819 118.174 183.369 105.785 183.369 105.785C183.661 105.299 184.001 104.862 184.293 104.425C184.73 103.793 185.167 103.113 185.604 102.482L197.799 84.7C199.693 81.9794 201.151 79.2101 204.066 78.87C206.738 78.53 209.507 79.7445 208.827 81.9308C208.633 82.5624 206.932 84.8458 204.746 88.0037C200.374 94.4653 191.823 106.854 191.823 106.854C191.531 107.34 191.191 107.777 190.9 108.214C190.463 108.846 190.025 109.526 189.588 110.158L177.394 127.939C175.499 130.66 174.041 133.575 171.126 133.964C168.454 134.304 165.685 132.943 166.365 130.757V130.708Z" fill="white"/>
<defs>
<linearGradient id="paint0_linear_352_78" x1="125" y1="0" x2="125" y2="250" gradientUnits="userSpaceOnUse">
<stop stop-color="#B10152"/>
<stop offset="1" stop-color="#910043"/>
</linearGradient>
</defs>
</svg>
