<svg width="250" height="250" viewBox="0 0 250 250" fill="none" xmlns="http://www.w3.org/2000/svg">
<rect width="250" height="250" fill="url(#paint0_linear_261_143)"/>
<path fill-rule="evenodd" clip-rule="evenodd" d="M40 118.459V124.289H42.6479V131.251C42.6479 133.978 42.7322 134.481 43.2771 135.572C44.2 137.501 46.3382 138.431 49.735 138.431C51.7475 138.431 53.6767 138.221 55.983 137.669V131.923C55.1442 132.133 54.5566 132.217 53.8442 132.217C53.0061 132.217 52.5023 132.048 52.2088 131.713C51.8317 131.294 51.7896 131.043 51.7896 129.449V124.289H55.3168L59.4592 137.879H72.2066L78.2028 118.459H68.433L65.8753 130.916L63.2755 118.459H51.7899V112L42.6483 115.271V118.459H40Z" fill="#0B6BB4"/>
<path fill-rule="evenodd" clip-rule="evenodd" d="M201.323 130.2C201.323 132.762 200.694 133.686 198.976 133.686C197.802 133.686 197.005 132.847 197.005 131.586C197.005 130.746 197.383 130.031 198.012 129.695C198.557 129.359 199.437 129.275 201.323 129.275V130.2ZM197.592 124.066C197.55 122.763 198.179 122.092 199.395 122.092C200.904 122.092 201.239 122.596 201.239 124.822V125.536C198.473 125.495 196.838 125.621 195.035 125.957C191.011 126.671 188.873 128.939 188.873 132.468C188.873 136.208 191.43 138.525 195.664 138.525C198.263 138.525 199.562 137.937 201.407 135.913C201.449 136.333 201.449 136.375 201.449 137.005C201.49 137.467 201.49 137.593 201.532 137.894H210C209.832 136.838 209.79 134.821 209.79 131.543V127.049C209.79 123.352 209.623 122.008 208.952 120.873C207.736 118.899 204.593 117.806 199.94 117.806C193.274 117.806 190.173 119.78 189.838 124.15L197.592 124.066ZM165.955 118.437L171.872 137.888H184.616L190.61 118.437H180.843L178.287 130.914L175.687 118.437H165.955ZM158.07 130.2C158.07 132.762 157.442 133.686 155.723 133.686C154.549 133.686 153.753 132.847 153.753 131.586C153.753 130.746 154.13 130.031 154.759 129.695C155.304 129.359 156.184 129.275 158.07 129.275V130.2ZM119.22 122.973C120.099 122.973 120.897 123.436 121.273 124.192C121.609 124.822 121.819 126.335 121.819 128.225C121.819 131.754 120.981 133.35 119.178 133.35C117.417 133.35 116.621 131.881 116.621 128.646C116.621 124.696 117.417 122.973 119.22 122.973ZM119.052 117.806C111.8 117.806 107.231 121.756 107.231 128.015C107.231 131.166 108.153 133.561 110.082 135.451C112.219 137.551 115.112 138.525 119.261 138.525C123.118 138.525 125.927 137.678 127.981 135.871C130.077 134.064 131.209 131.376 131.209 128.225C131.209 121.63 126.723 117.806 119.052 117.806ZM131.204 118.437C131.204 118.94 131.204 118.94 131.247 121.503C131.289 122.428 131.331 124.696 131.331 124.738V137.888H140.721V129.696C140.721 128.435 140.762 127.805 140.888 127.259C141.181 126.083 142.146 125.41 143.529 125.41C144.325 125.41 145.331 125.578 147.175 125.998V124.144L154.34 124.066C154.298 122.764 154.927 122.092 156.143 122.092C157.652 122.092 157.987 122.597 157.987 124.822V125.537C155.221 125.495 153.586 125.621 151.783 125.957C147.759 126.671 145.621 128.939 145.621 132.468C145.621 136.208 148.178 138.525 152.411 138.525C155.011 138.525 156.31 137.937 158.155 135.913C158.197 136.333 158.197 136.375 158.197 137.006C158.239 137.468 158.239 137.593 158.28 137.894H166.748C166.581 136.838 166.538 134.821 166.538 131.543V127.049C166.538 123.352 166.371 122.008 165.7 120.873C164.484 118.899 161.341 117.806 156.688 117.806C151.431 117.806 148.39 119.034 147.175 121.698V118.646C146.379 118.31 145.541 118.1 144.661 118.1C143.194 118.1 141.727 118.94 140.512 120.536L140.218 118.436H131.204V118.437ZM75.0543 137.879H81.4748V126.889C81.4748 125.715 81.5166 125.128 81.6845 124.751C81.9786 124.079 82.5656 123.66 83.279 123.66C84.0338 123.66 84.6208 124.079 84.8308 124.835C84.9565 125.254 84.9565 125.463 84.9565 127.602V137.879H94.3527V127.687C94.3527 126.176 94.3948 125.59 94.4366 125.212C94.6465 124.248 95.2338 123.66 96.0729 123.66C96.7856 123.66 97.3733 124.037 97.5826 124.667C97.7501 125.087 97.7501 125.338 97.7501 126.974V137.879H107.147V125.883C107.147 123.198 107.062 122.402 106.601 121.353C105.678 119.172 103.245 117.788 100.309 117.788C97.4144 117.788 95.1917 119.13 93.9331 121.647C92.8424 119.13 90.745 117.829 87.7662 117.829C84.6626 117.829 82.2297 119.214 81.2649 121.478L81.0553 118.459H81.0506L75.0543 137.879Z" fill="#F58220"/>
<defs>
<linearGradient id="paint0_linear_261_143" x1="250" y1="125" x2="0" y2="125" gradientUnits="userSpaceOnUse">
<stop stop-color="#100544"/>
<stop offset="1" stop-color="#0A002E"/>
</linearGradient>
</defs>
</svg>
