<svg width="250" height="250" viewBox="0 0 250 250" fill="none" xmlns="http://www.w3.org/2000/svg">
<rect width="250" height="250" fill="url(#paint0_linear_356_1469)"/>
<path fill-rule="evenodd" clip-rule="evenodd" d="M82.4971 51.2279C108.798 36.0106 141.202 36.0106 167.503 51.2279C193.803 66.4452 210.004 94.5671 210 124.999C210.004 155.432 193.804 183.555 167.503 198.772C141.202 213.989 108.798 213.989 82.4971 198.772C56.1964 183.555 39.9963 155.432 40 124.999C39.9964 94.5671 56.1966 66.4452 82.4971 51.2279ZM72.1162 94.5512L71.875 107.836H65.7549V118.232H71.875V131.116L71.835 135.892C71.835 140.521 72.9955 143.892 75.3174 146.006C77.6393 148.12 81.2699 149.177 86.209 149.177C89.2691 149.177 92.3833 148.87 95.5508 148.254V136.855C93.7793 137.31 92.2493 137.537 90.9609 137.538C90.1289 137.538 89.3233 137.343 88.5449 136.955C87.7664 136.568 87.3769 135.343 87.377 133.283V118.232H95.5508V107.836H87.377V94.31L72.1162 94.5512ZM97.6934 107.836L112.994 148.655H124.993L140.012 107.836H128.496L122.456 126.018C122.161 126.928 121.986 127.436 121.933 127.543C121.664 128.293 121.463 128.908 121.329 129.39C120.953 127.999 120.523 126.593 120.04 125.175L114.202 107.836H97.6934ZM168.741 106.994C163.078 106.994 159.145 109.201 156.944 113.616V107.836H142.046V148.655H158.111V124.131C158.111 120.065 159.574 118.031 162.5 118.031C163.493 118.031 164.319 118.325 164.977 118.913C165.634 119.502 165.963 120.854 165.963 122.968V148.655H182.029V122.526C182.029 118.058 181.586 114.921 180.7 113.115C179.814 111.308 178.345 109.836 176.291 108.699C174.238 107.562 171.721 106.994 168.741 106.994Z" fill="white"/>
<defs>
<linearGradient id="paint0_linear_356_1469" x1="-4.60385" y1="-37.8982" x2="270.433" y2="303.649" gradientUnits="userSpaceOnUse">
<stop offset="0.15" stop-color="#75C7F9"/>
<stop offset="0.22" stop-color="#6DBEF5"/>
<stop offset="0.34" stop-color="#57A5EA"/>
<stop offset="0.37" stop-color="#519FE7"/>
<stop offset="0.71" stop-color="#1451CD"/>
<stop offset="0.75" stop-color="#124FCC"/>
<stop offset="1" stop-color="#0A44C8"/>
</linearGradient>
</defs>
</svg>
