<svg width="250" height="250" viewBox="0 0 250 250" fill="none" xmlns="http://www.w3.org/2000/svg">
<rect width="250" height="250" fill="url(#paint0_radial_356_1507)"/>
<path d="M167.139 80.8488H162.516V76.7904H176V80.8488H171.401V93.4526H167.139V80.8488H167.139ZM188.581 76.7904H193.428L186.799 93.4526H183.034L176.315 76.7904H181.207L184.928 87.3198L188.581 76.7904ZM205.851 76.7904H210V93.4526H206.821L199.245 84.5235V93.4526H195.119V76.7904H198.14L205.851 85.832V76.7904H205.851Z" fill="white"/>
<path fill-rule="evenodd" clip-rule="evenodd" d="M103.134 61.8653C138.003 61.8653 166.269 90.1316 166.269 125C166.269 159.868 138.003 188.135 103.134 188.135C68.2663 188.135 40 159.868 40 125C40.0001 90.1317 68.2664 61.8654 103.134 61.8653ZM82.6658 96.9127H122.194L90.7166 159.798L95.2429 159.849L126.685 96.0139V93.3191H82.6658V96.9127Z" fill="white"/>
<defs>
<radialGradient id="paint0_radial_356_1507" cx="0" cy="0" r="1" gradientUnits="userSpaceOnUse" gradientTransform="translate(220.249 13.8755) scale(382.477)">
<stop stop-color="#FF10FF"/>
<stop offset="0.071" stop-color="#FF14FA"/>
<stop offset="0.155" stop-color="#FF21EC"/>
<stop offset="0.246" stop-color="#FF36D4"/>
<stop offset="0.341" stop-color="#FE54B3"/>
<stop offset="0.44" stop-color="#FE7A88"/>
<stop offset="0.54" stop-color="#FEA855"/>
<stop offset="0.639" stop-color="#FDDC1A"/>
</radialGradient>
</defs>
</svg>
