<svg width="250" height="250" viewBox="0 0 250 250" fill="none" xmlns="http://www.w3.org/2000/svg">
<rect width="250" height="250" fill="#68C7C6"/>
<path d="M78.9527 143.592H88.4455V145.296C88.4455 146.934 90.0853 147.714 93.3536 147.714C96.1089 147.714 97.4809 147.056 97.4809 145.753C97.4809 143.659 95.2499 143.336 90.8661 141.966C85.9579 140.395 80.124 137.911 80.124 131.171C80.124 123.262 88.1108 121.034 94.5918 121.034C99.8346 121.034 107.487 122.861 107.487 128.353V132.931H97.994V131.428C97.994 130.38 97.0124 129.601 94.5918 129.601C92.7624 129.601 91.3792 129.991 91.3792 131.305C91.3792 133.332 94.0675 134.112 97.269 134.97C102.311 136.34 108.725 138.434 108.725 145.43C108.725 153.016 101.396 156.28 93.3424 156.28C87.3188 156.28 78.9415 153.662 78.9415 148.104V143.592H78.9527Z" fill="white"/>
<path d="M129.707 121.023C139.791 121.023 145.425 127.952 145.425 137.309C145.425 137.833 145.358 138.679 145.291 139.404L145.157 140.707H123.751C124.598 145.085 127.945 146.923 131.604 146.923C134.158 146.923 136.445 146.076 138.219 145.285C139.267 144.828 140.249 144.305 141.096 143.715L145.224 151.557C144.108 152.403 142.803 153.194 141.364 153.907C138.81 155.155 135.341 156.258 130.689 156.258C118.642 156.258 112.161 147.558 112.161 138.601C112.161 128.732 118.831 121.012 129.707 121.012L129.707 121.023ZM133.701 134.491C133.701 131.806 131.994 129.523 129.44 129.523C126.104 129.523 124.598 131.873 124.007 134.491H133.701Z" fill="white"/>
<path d="M149.173 147.313H153.434V131.361C153.434 130.447 152.976 129.991 151.995 129.991H148.849V121.814H159.524C162.603 121.814 164.243 123.318 164.243 125.602V127.239C164.243 127.306 164.243 127.44 164.176 127.495H164.31C166.083 124.877 169.285 121.023 174.985 121.023C178.655 121.023 182.124 122.661 183.764 127.362H183.898C185.727 123.697 189.787 121.023 195.03 121.023C200.797 121.023 205.638 124.354 205.638 133.644V147.313H209.9V155.489H194.316V135.549C194.316 132.998 193.859 131.294 191.695 131.294C186.787 131.294 185.214 136.006 185.214 141.565V147.324H189.475V155.5H173.892V135.56C173.892 133.009 173.434 131.305 171.27 131.305C166.095 131.305 164.789 136.797 164.789 142.222V147.324H169.051V155.5H149.206V147.324L149.173 147.313Z" fill="white"/>
<path d="M42.1306 100.549H40.0223V98.6883H42.1864V93.7423H44.5512V98.6883H47.563V100.549H44.5512V106.43C44.5512 108.992 46.2914 109.304 47.2395 109.304C47.5853 109.304 47.8084 109.282 47.8084 109.282V111.298C47.8084 111.298 47.4626 111.343 46.9384 111.343C45.3432 111.343 42.1418 110.842 42.1418 106.653V100.549H42.1306Z" fill="white"/>
<path d="M64.2172 98.3875C67.7979 98.3875 69.6608 101.016 69.6608 104.269C69.6608 104.592 69.5827 105.183 69.5827 105.183H60.3911C60.5361 107.968 62.4994 109.449 64.7415 109.449C66.9836 109.449 68.4896 108.034 68.4896 108.034L69.4823 109.794C69.4823 109.794 67.5972 111.532 64.5854 111.532C60.6365 111.532 57.9259 108.68 57.9259 104.96C57.9259 100.961 60.6365 98.3875 64.2172 98.3875ZM67.1733 103.645C67.0952 101.44 65.7566 100.292 64.1615 100.292C62.3209 100.292 60.8262 101.529 60.4804 103.645H67.1733Z" fill="white"/>
<path d="M82.6338 95.5803H80.5479V93.72H85.0433V107.522C85.0433 108.591 85.2887 109.304 86.3818 109.304C86.7834 109.304 87.0511 109.282 87.0511 109.282L87.0288 111.265C87.0288 111.265 86.5269 111.309 85.958 111.309C84.1732 111.309 82.6227 110.585 82.6227 107.656V95.5692L82.6338 95.5803Z" fill="white"/>
<path d="M104.23 98.3875C107.81 98.3875 109.673 101.016 109.673 104.269C109.673 104.592 109.595 105.183 109.595 105.183H100.404C100.549 107.968 102.512 109.449 104.754 109.449C106.996 109.449 108.502 108.034 108.502 108.034L109.495 109.794C109.495 109.794 107.61 111.532 104.598 111.532C100.649 111.532 97.9384 108.68 97.9384 104.96C97.9384 100.961 100.649 98.3875 104.23 98.3875ZM107.186 103.645C107.108 101.44 105.769 100.292 104.174 100.292C102.333 100.292 100.839 101.529 100.493 103.645H107.186Z" fill="white"/>
<path d="M116.812 98.6882H122.457V100.549H120.839L123.494 107.867C123.695 108.413 123.773 109.037 123.773 109.037H123.851C123.851 109.037 123.929 108.413 124.13 107.867L126.818 100.549H125.201V98.6882H130.823V100.549H129.261L125.19 111.243H122.479L118.43 100.549H116.835V98.6882H116.812Z" fill="white"/>
<path d="M140.405 109.382H142.245V100.549H140.36V98.6883H144.666V109.382H146.484V111.243H140.416V109.382H140.405ZM144.51 93.72H147.265L144.186 96.8725H141.922L144.51 93.72Z" fill="white"/>
<path d="M165.392 101.273C165.76 100.827 166.083 100.549 166.083 100.549V100.504C166.083 100.504 165.559 100.549 165.068 100.549H160.696V102.565H158.587V98.6882H169.006V100.281L162.123 108.669C161.755 109.115 161.432 109.36 161.432 109.36V109.405C161.432 109.405 161.934 109.382 162.425 109.382H167.076V107.366H169.184V111.243H158.476V109.65L165.414 101.262L165.392 101.273Z" fill="white"/>
<path d="M180.696 109.382H182.659V100.549H180.573V98.6883H185.069V109.382H187.054V111.243H180.696V109.382ZM182.615 93.72H185.147V96.1819H182.615V93.72Z" fill="white"/>
<path d="M204.98 103.534H205.772V103.066C205.772 101.083 204.634 100.381 203.084 100.381C201.098 100.381 199.481 101.596 199.481 101.596L198.51 99.8802C198.51 99.8802 200.351 98.3875 203.285 98.3875C206.486 98.3875 208.182 100.047 208.182 103.233V108.848C208.182 109.215 208.383 109.393 208.728 109.393H210V111.254H207.49C206.375 111.254 205.928 110.708 205.928 109.884V109.705C205.928 109.204 206.029 108.892 206.029 108.892H205.984C205.984 108.892 204.891 111.543 201.835 111.543C199.749 111.543 197.663 110.329 197.663 107.745C197.663 103.801 202.906 103.523 204.991 103.523L204.98 103.534ZM202.348 109.694C204.489 109.694 205.806 107.511 205.806 105.628V105.105H205.181C204.043 105.105 200.083 105.149 200.083 107.567C200.083 108.68 200.898 109.705 202.348 109.705V109.694Z" fill="white"/>
<path d="M57.8812 156.258C48.0203 156.258 40 148.248 40 138.401C40 128.554 48.0203 120.544 57.8812 120.544C67.7421 120.544 75.7625 128.554 75.7625 138.401C75.7625 148.248 67.7421 156.258 57.8812 156.258ZM57.8812 129.378C52.9062 129.378 48.857 133.422 48.857 138.39C48.857 143.358 52.9062 147.402 57.8812 147.402C62.8563 147.402 66.9055 143.358 66.9055 138.39C66.9055 133.422 62.8563 129.378 57.8812 129.378Z" fill="white"/>
</svg>
