<svg width="250" height="250" viewBox="0 0 250 250" fill="none" xmlns="http://www.w3.org/2000/svg">
<rect width="250" height="250" fill="#0099D8"/>
<path fill-rule="evenodd" clip-rule="evenodd" d="M215 157V94L189.344 107.56V123.5L200.414 116.749V157H215ZM35.0194 97.6485H169.864V157H35V97.6485H35.0194ZM38.0104 100.321H78.9706V154.327H38.0104V100.321ZM72.6975 116.34V109.218H44.303V116.34H54.5576V146.015H62.4234V116.34H72.6975ZM102.451 147.128L85.4769 108.77H93.7117L102.141 128.163L102.432 129.314L102.723 128.144L111.152 108.77H119.387L102.451 147.128ZM142.169 116.34H144.849C149.083 116.398 151.2 117.842 151.491 122.076C151.239 126.466 148.753 127.871 144.48 127.949H142.169V116.34ZM134.769 109.218V146.035H142.188V134.797L143.781 134.836C153.763 134.836 158.677 128.319 158.677 121.881C158.677 115.52 153.938 109.218 144.461 109.218H134.769ZM125.913 100.321H166.873V154.327H125.913V100.321ZM81.9616 100.321H122.922V154.327H81.9616V100.321Z" fill="white"/>
</svg>
