<svg width="250" height="250" viewBox="0 0 250 250" fill="none" xmlns="http://www.w3.org/2000/svg">
<rect width="250" height="250" fill="#0099D8"/>
<path fill-rule="evenodd" clip-rule="evenodd" d="M210 155V96L185.769 108.699V123.627L196.225 117.305V155H210ZM40.0183 99.4168H167.372V155H40V99.4168H40.0183ZM42.8431 101.92H81.5278V152.497H42.8431V101.92ZM75.6032 116.921V110.252H48.7861V116.921H58.4711V144.713H65.8999V116.921H75.6032ZM103.704 145.754L87.6726 109.832H95.4499L103.411 127.994L103.686 129.072L103.961 127.976L111.922 109.832H119.699L103.704 145.754ZM141.215 116.921H143.746C147.745 116.976 149.744 118.328 150.019 122.293C149.781 126.404 147.433 127.72 143.398 127.793H141.215V116.921ZM134.226 110.252V144.731H141.233V134.207L142.737 134.243C152.166 134.243 156.806 128.14 156.806 122.111C156.806 116.154 152.331 110.252 143.379 110.252H134.226ZM125.862 101.92H164.547V152.497H125.862V101.92ZM84.3526 101.92H123.037V152.497H84.3526V101.92Z" fill="white"/>
</svg>
