<svg width="250" height="250" viewBox="0 0 250 250" fill="none" xmlns="http://www.w3.org/2000/svg">
<rect width="250" height="250" fill="#E77A34"/>
<path fill-rule="evenodd" clip-rule="evenodd" d="M81.5816 101.665H117.869V149.638H81.5816V101.665ZM120.542 101.665H156.829V149.638H120.542V101.665ZM128.389 109.568V142.256H134.96V132.269L136.374 132.321C145.239 132.321 149.585 126.537 149.585 120.805C149.585 115.16 145.377 109.568 136.978 109.568H128.389ZM134.943 115.89H137.305C141.065 115.942 142.928 117.227 143.204 120.979C142.962 124.887 140.772 126.12 136.978 126.19H134.925V115.89H134.943ZM99.7423 143.229L84.7205 109.151H92.0158L99.4836 126.381L99.7423 127.406L100.001 126.363L107.469 109.151H114.764L99.7423 143.229ZM73.3722 115.89V109.568H48.2094V115.89H57.2984V142.256H64.2833V115.89H73.3722ZM42.6387 101.665H78.9256V149.638H42.6387V101.665ZM40 99.2853H159.485V152H40V99.2853ZM210 114.952C210 105.156 202.808 98 190.494 98C178.473 98 170.833 105.399 170.833 117.488V117.853H183.595V117.193C183.595 111.652 186.2 108.665 190.649 108.665C194.495 108.665 197.031 111.287 197.031 115.022C197.031 117.488 195.616 120.25 192.805 123.619L168.97 152H209.483V140.658H193.236L202.791 130.046C207.396 124.887 210 120.545 210 114.952Z" fill="white"/>
</svg>
