<svg width="250" height="250" viewBox="0 0 250 250" fill="none" xmlns="http://www.w3.org/2000/svg">
<rect width="250" height="250" fill="#E77A34"/>
<path fill-rule="evenodd" clip-rule="evenodd" d="M79.0276 100.868H117.449V151.507H79.0276V100.868ZM120.28 100.868H158.701V151.507H120.28V100.868ZM128.588 109.21V143.715H135.546V133.173L137.043 133.228C146.429 133.228 151.031 127.123 151.031 121.072C151.031 115.114 146.576 109.21 137.682 109.21H128.588ZM135.528 115.884H138.029C142.01 115.939 143.982 117.296 144.275 121.256C144.019 125.381 141.7 126.683 137.682 126.756H135.509V115.884H135.528ZM98.2566 144.741L82.3511 108.77H90.0756L97.9827 126.958L98.2566 128.039L98.5305 126.939L106.438 108.77H114.162L98.2566 144.741ZM70.3353 115.884V109.21H43.6923V115.884H53.3159V143.715H60.7117V115.884H70.3353ZM37.794 100.868H76.2154V151.507H37.794V100.868ZM35 98.3567H161.513V154H35V98.3567ZM215 114.894C215 104.554 207.385 97 194.347 97C181.619 97 173.529 104.81 173.529 117.571V117.956H187.042V117.259C187.042 111.41 189.8 108.257 194.511 108.257C198.583 108.257 201.268 111.025 201.268 114.967C201.268 117.571 199.77 120.486 196.794 124.042L171.557 154H214.452V142.028H197.25L207.367 130.826C212.243 125.381 215 120.797 215 114.894Z" fill="white"/>
</svg>
