<svg width="250" height="250" viewBox="0 0 250 250" fill="none" xmlns="http://www.w3.org/2000/svg">
<rect width="250" height="250" fill="#0053A0"/>
<path d="M204.397 122.509C209.946 120.864 212.77 115.832 212.77 110.899C212.77 101.531 206.131 96 194.29 96C182.944 96 174.372 101.481 174.174 112.593H187.552C187.898 108.806 190.078 106.514 193.943 106.564C197.56 106.613 199.839 109.204 199.839 113.29C199.839 120.765 194.835 121.612 193.299 122.758C194.934 123.854 201.424 125.598 201.127 134.667C200.979 138.802 199.046 142.241 194.191 142.241C189.038 142.241 187.304 139.251 187.155 133.869H173.035V134.966C173.035 147.074 182.597 154 193.15 154C206.874 154 215 146.924 215 135.165C215 128.837 211.334 123.405 204.397 122.509ZM43.621 108.407V114.935H53.1338V142.191H60.417V114.935H69.9298V108.407H43.621ZM43.621 108.407V114.935H53.1338V142.191H60.417V114.935H69.9298V108.407H43.621ZM43.621 108.407V114.935H53.1338V142.191H60.417V114.935H69.9298V108.407H43.621ZM105.603 107.959L97.7746 125.747L97.5268 126.844L97.2791 125.797L89.4013 107.959H81.7713L97.5268 143.187L113.183 107.959H105.603ZM136.42 108.407H127.453V142.191H134.339V131.876L135.826 131.926C145.091 131.926 149.649 125.947 149.649 120.017C149.6 114.187 145.239 108.407 136.42 108.407ZM136.47 125.598H134.339V114.935H136.817C140.731 114.985 142.713 116.33 142.96 120.216C142.713 124.203 140.434 125.498 136.47 125.598ZM136.42 108.407H127.453V142.191H134.339V131.876L135.826 131.926C145.091 131.926 149.649 125.947 149.649 120.017C149.6 114.187 145.239 108.407 136.42 108.407ZM136.47 125.598H134.339V114.935H136.817C140.731 114.985 142.713 116.33 142.96 120.216C142.713 124.203 140.434 125.498 136.47 125.598ZM105.603 107.959L97.7746 125.747L97.5268 126.844L97.2791 125.797L89.4013 107.959H81.7713L97.5268 143.187L113.183 107.959H105.603ZM43.621 108.407V114.935H53.1338V142.191H60.417V114.935H69.9298V108.407H43.621ZM35 97.744V152.206H159.955V97.744H35ZM75.7762 149.814H37.8241V100.235H75.7762V149.814ZM116.503 149.814H78.5508V100.235H116.503V149.814ZM157.23 149.814H119.228V100.235H157.18V149.814H157.23ZM134.339 131.876L135.826 131.926C145.091 131.926 149.649 125.947 149.649 120.017C149.649 114.187 145.239 108.407 136.47 108.407H127.502V142.191H134.389V131.876H134.339ZM134.339 114.935H136.817C140.731 114.985 142.713 116.33 142.96 120.216C142.713 124.253 140.434 125.548 136.47 125.598H134.339V114.935ZM113.183 107.959H105.553L97.725 125.747L97.4773 126.844L97.2296 125.797L89.4013 107.959H81.7713L97.5268 143.187L113.183 107.959ZM53.1338 142.141H60.417V114.935H69.9298V108.407H43.621V114.935H53.1338V142.141ZM43.621 108.407V114.935H53.1338V142.191H60.417V114.935H69.9298V108.407H43.621ZM105.603 107.959L97.7746 125.747L97.5268 126.844L97.2791 125.797L89.4013 107.959H81.7713L97.5268 143.187L113.183 107.959H105.603ZM105.603 107.959L97.7746 125.747L97.5268 126.844L97.2791 125.797L89.4013 107.959H81.7713L97.5268 143.187L113.183 107.959H105.603ZM43.621 108.407V114.935H53.1338V142.191H60.417V114.935H69.9298V108.407H43.621ZM43.621 108.407V114.935H53.1338V142.191H60.417V114.935H69.9298V108.407H43.621ZM43.621 108.407V114.935H53.1338V142.191H60.417V114.935H69.9298V108.407H43.621ZM105.603 107.959L97.7746 125.747L97.5268 126.844L97.2791 125.797L89.4013 107.959H81.7713L97.5268 143.187L113.183 107.959H105.603ZM136.42 108.407H127.453V142.191H134.339V131.876L135.826 131.926C145.091 131.926 149.649 125.947 149.649 120.017C149.6 114.187 145.239 108.407 136.42 108.407ZM136.47 125.598H134.339V114.935H136.817C140.731 114.985 142.713 116.33 142.96 120.216C142.713 124.203 140.434 125.498 136.47 125.598ZM136.42 108.407H127.453V142.191H134.339V131.876L135.826 131.926C145.091 131.926 149.649 125.947 149.649 120.017C149.6 114.187 145.239 108.407 136.42 108.407ZM136.47 125.598H134.339V114.935H136.817C140.731 114.985 142.713 116.33 142.96 120.216C142.713 124.203 140.434 125.498 136.47 125.598ZM105.603 107.959L97.7746 125.747L97.5268 126.844L97.2791 125.797L89.4013 107.959H81.7713L97.5268 143.187L113.183 107.959H105.603Z" fill="white"/>
</svg>
