<svg width="250" height="250" viewBox="0 0 250 250" fill="none" xmlns="http://www.w3.org/2000/svg">
<rect width="250" height="250" fill="#164890"/>
<path d="M199.986 122.68C205.227 121.149 207.894 116.464 207.894 111.871C207.894 103.149 201.624 98 190.44 98C179.725 98 171.63 103.103 171.442 113.448H184.077C184.404 109.923 186.463 107.789 190.113 107.835C193.529 107.881 195.681 110.294 195.681 114.098C195.681 121.057 190.955 121.845 189.505 122.912C191.049 123.933 197.179 125.557 196.898 134C196.757 137.851 194.933 141.052 190.347 141.052C185.48 141.052 183.843 138.268 183.702 133.258H170.366V134.278C170.366 145.552 179.397 152 189.364 152C202.326 152 210 145.412 210 134.464C210 128.572 206.537 123.515 199.986 122.68ZM48.142 109.552V115.629H57.1263V141.005H64.005V115.629H72.9893V109.552H48.142ZM48.142 109.552V115.629H57.1263V141.005H64.005V115.629H72.9893V109.552H48.142ZM48.142 109.552V115.629H57.1263V141.005H64.005V115.629H72.9893V109.552H48.142ZM106.68 109.134L99.2871 125.696L99.0531 126.716L98.8192 125.742L91.379 109.134H84.1729L99.0531 141.933L113.84 109.134H106.68ZM135.786 109.552H127.316V141.005H133.821V131.402L135.224 131.448C143.975 131.448 148.28 125.881 148.28 120.361C148.233 114.933 144.115 109.552 135.786 109.552ZM135.833 125.557H133.821V115.629H136.16C139.857 115.675 141.729 116.928 141.963 120.546C141.729 124.258 139.576 125.464 135.833 125.557ZM135.786 109.552H127.316V141.005H133.821V131.402L135.224 131.448C143.975 131.448 148.28 125.881 148.28 120.361C148.233 114.933 144.115 109.552 135.786 109.552ZM135.833 125.557H133.821V115.629H136.16C139.857 115.675 141.729 116.928 141.963 120.546C141.729 124.258 139.576 125.464 135.833 125.557ZM106.68 109.134L99.2871 125.696L99.0531 126.716L98.8192 125.742L91.379 109.134H84.1729L99.0531 141.933L113.84 109.134H106.68ZM48.142 109.552V115.629H57.1263V141.005H64.005V115.629H72.9893V109.552H48.142ZM40 99.6237V150.33H158.013V99.6237H40ZM78.5109 148.103H42.6672V101.943H78.5109V148.103ZM116.975 148.103H81.1313V101.943H116.975V148.103ZM155.439 148.103H119.549V101.943H155.392V148.103H155.439ZM133.821 131.402L135.224 131.448C143.975 131.448 148.28 125.881 148.28 120.361C148.28 114.933 144.115 109.552 135.833 109.552H127.363V141.005H133.867V131.402H133.821ZM133.821 115.629H136.16C139.857 115.675 141.729 116.928 141.963 120.546C141.729 124.304 139.576 125.51 135.833 125.557H133.821V115.629ZM113.84 109.134H106.634L99.2403 125.696L99.0063 126.716L98.7724 125.742L91.379 109.134H84.1729L99.0531 141.933L113.84 109.134ZM57.1263 140.959H64.005V115.629H72.9893V109.552H48.142V115.629H57.1263V140.959ZM48.142 109.552V115.629H57.1263V141.005H64.005V115.629H72.9893V109.552H48.142ZM106.68 109.134L99.2871 125.696L99.0531 126.716L98.8192 125.742L91.379 109.134H84.1729L99.0531 141.933L113.84 109.134H106.68ZM106.68 109.134L99.2871 125.696L99.0531 126.716L98.8192 125.742L91.379 109.134H84.1729L99.0531 141.933L113.84 109.134H106.68ZM48.142 109.552V115.629H57.1263V141.005H64.005V115.629H72.9893V109.552H48.142ZM48.142 109.552V115.629H57.1263V141.005H64.005V115.629H72.9893V109.552H48.142ZM48.142 109.552V115.629H57.1263V141.005H64.005V115.629H72.9893V109.552H48.142ZM106.68 109.134L99.2871 125.696L99.0531 126.716L98.8192 125.742L91.379 109.134H84.1729L99.0531 141.933L113.84 109.134H106.68ZM135.786 109.552H127.316V141.005H133.821V131.402L135.224 131.448C143.975 131.448 148.28 125.881 148.28 120.361C148.233 114.933 144.115 109.552 135.786 109.552ZM135.833 125.557H133.821V115.629H136.16C139.857 115.675 141.729 116.928 141.963 120.546C141.729 124.258 139.576 125.464 135.833 125.557ZM135.786 109.552H127.316V141.005H133.821V131.402L135.224 131.448C143.975 131.448 148.28 125.881 148.28 120.361C148.233 114.933 144.115 109.552 135.786 109.552ZM135.833 125.557H133.821V115.629H136.16C139.857 115.675 141.729 116.928 141.963 120.546C141.729 124.258 139.576 125.464 135.833 125.557ZM106.68 109.134L99.2871 125.696L99.0531 126.716L98.8192 125.742L91.379 109.134H84.1729L99.0531 141.933L113.84 109.134H106.68Z" fill="white"/>
</svg>
