<svg width="250" height="250" viewBox="0 0 250 250" fill="none" xmlns="http://www.w3.org/2000/svg">
<rect width="250" height="250" fill="#164890"/>
<path d="M54.1915 88.4667H62.7898V113.219H69.4033V88.4667H78.0016V82.5347H54.1915V88.4667Z" fill="white"/>
<path d="M46.4273 122.368H159.393V72.89H46.4273V122.368ZM122.594 75.1131H156.913V120.149H122.594V75.1131ZM85.7658 75.1131H120.085V120.149H85.7658V75.1131ZM48.9372 75.1131H83.2559V120.149H48.9372V75.1131Z" fill="white"/>
<path d="M138.119 82.5087H129.99V113.193H136.212V103.809L137.546 103.861C145.909 103.861 150.013 98.4243 150.013 93.0397C150.039 87.7854 146.066 82.505 138.119 82.505V82.5087ZM138.145 98.1376H136.212V88.4668H138.462C142.018 88.519 143.794 89.7218 144.029 93.2482C143.794 96.9088 141.727 98.0855 138.149 98.1376H138.145Z" fill="white"/>
<path d="M103.175 98.3237L102.914 99.2919L102.679 98.3237L95.6227 82.1698H88.7225L102.914 114.135L117.132 82.1698H110.231L103.175 98.3237Z" fill="white"/>
<path d="M198.028 95.3409C203.074 93.8253 205.636 89.7477 205.636 84.7541C205.636 77.1203 199.756 72 189.351 72C177.93 72 171.473 77.4628 171.265 86.6123H183.237C183.237 83.2162 185.564 81.2798 188.7 81.3319C191.809 81.384 194.058 83.3726 194.163 86.4037C194.397 93.1476 190.711 94.3765 188.126 95.6575C190.923 97.3816 195.235 97.9848 195.261 106.766C195.261 110.348 192.986 112.988 188.83 112.988C184.883 112.988 182.794 110.713 182.794 106.401V105.563H170.274V106.241C170.274 116.619 177.539 123.281 189.042 123.281C199.994 123.281 207.52 116.693 207.52 107.075C207.572 100.539 204.254 96.3836 198.032 95.3372L198.028 95.3409Z" fill="white"/>
<path d="M74.788 154.099H74.423L62.3727 178.486H68.0441L69.5858 175.035H79.1784L80.694 178.486H86.5999L74.7842 154.099H74.788ZM71.2057 170.961L74.3411 163.565L77.3984 170.961H71.2019H71.2057Z" fill="white"/>
<path d="M210 178.46H194.632V153.734H209.87V158.832H200.355V163.301H208.51V168.373H200.355V173.262H210V178.46Z" fill="white"/>
<path d="M124.892 157.395C122.565 155.093 119.82 153.917 116.554 153.917C115.013 153.917 113.523 154.203 112.112 154.833C110.648 155.458 109.367 156.296 108.295 157.395C105.994 159.774 104.817 162.701 104.817 166.202C104.817 169.654 105.968 172.554 108.269 174.93C110.57 177.306 113.341 178.486 116.58 178.486C118.435 178.486 120.163 178.069 121.809 177.258C123.429 176.446 124.788 175.273 125.938 173.78C127.532 171.661 128.344 169.128 128.344 166.224C128.318 162.668 127.167 159.741 124.892 157.391V157.395ZM120.896 171.247C119.694 172.58 118.256 173.258 116.558 173.258C114.834 173.258 113.397 172.554 112.22 171.247C111.043 169.914 110.47 168.216 110.47 166.202C110.47 164.165 111.043 162.463 112.22 161.13C113.397 159.797 114.834 159.119 116.558 159.119C118.282 159.119 119.746 159.771 120.922 161.104C122.073 162.437 122.647 164.161 122.647 166.228C122.647 168.212 122.047 169.914 120.896 171.247Z" fill="white"/>
<path d="M61.4567 178.46H54.4261L45.7496 167.248V178.46H40V154.099H45.7496V164.686L53.8005 154.099H60.7268L51.5513 165.703L61.4567 178.46Z" fill="white"/>
<path d="M162.167 153.917H168.021V178.46H162.167V153.917Z" fill="white"/>
<path d="M158.846 154.676L149.253 178.46H148.914L143.973 165.286L139.165 178.46H138.748L129.104 154.676H134.671L139.165 167.118L143.973 153.917H144.416L149.253 167.118L153.696 154.676H158.846Z" fill="white"/>
<path d="M103.748 158.989H95.9579V178.46H90.078V158.989H82.2356V153.812H103.748V158.989Z" fill="white"/>
<path d="M190.893 170.305L190.528 176.42C188.543 177.779 186.242 178.457 183.654 178.457C180.883 178.457 178.452 177.619 176.284 175.947C174.821 174.796 173.67 173.385 172.888 171.687C172.077 170.015 171.686 168.157 171.686 166.172C171.686 164.474 171.972 162.88 172.576 161.387C173.123 159.897 173.987 158.564 175.112 157.413C177.413 155.034 180.288 153.857 183.684 153.857C186.246 153.857 188.625 154.561 190.74 156.028L190.167 161.934C188.208 159.923 186.141 158.903 183.918 158.903C181.96 158.903 180.362 159.555 179.133 160.888C177.904 162.221 177.279 163.945 177.279 166.09C177.279 168.209 177.904 169.933 179.107 171.24C180.31 172.547 181.93 173.199 183.915 173.199C186.242 173.225 188.592 172.23 190.893 170.298V170.305Z" fill="white"/>
</svg>
