<svg width="250" height="250" viewBox="0 0 250 250" fill="none" xmlns="http://www.w3.org/2000/svg">
<rect width="250" height="250" fill="#BF2726"/>
<path d="M197.128 131.827C193.622 131.827 190.779 128.985 190.779 125.478C190.779 121.972 193.622 119.129 197.128 119.129C200.635 119.129 203.477 121.972 203.477 125.478C203.477 128.985 200.635 131.827 197.128 131.827ZM206.738 113.389C205.028 113.389 203.628 114.706 203.491 116.382C201.548 114.888 199.116 113.998 196.476 113.998C190.111 113.998 184.952 119.157 184.952 125.522C184.952 131.886 190.111 137.046 196.476 137.046C199.186 137.046 201.675 136.108 203.642 134.543C204.071 135.844 205.294 136.785 206.738 136.785C208.54 136.785 210 135.325 210 133.523V116.651C210 114.849 208.54 113.389 206.738 113.389Z" fill="white"/>
<path d="M101.448 131.827C97.942 131.827 95.0997 128.985 95.0997 125.478C95.0997 121.972 97.942 119.129 101.448 119.129C104.955 119.129 107.798 121.972 107.798 125.478C107.798 128.985 104.955 131.827 101.448 131.827ZM111.059 113.389C109.349 113.389 107.948 114.706 107.811 116.382C105.868 114.888 103.437 113.998 100.796 113.998C94.4316 113.998 89.2722 119.157 89.2722 125.522C89.2722 131.886 94.4316 137.046 100.796 137.046C103.506 137.046 105.995 136.108 107.963 134.543C108.391 135.844 109.614 136.785 111.059 136.785C112.86 136.785 114.32 135.325 114.32 133.523V116.651C114.32 114.849 112.86 113.389 111.059 113.389Z" fill="white"/>
<path d="M160.298 137.046H159.845C158.202 137.046 156.87 135.713 156.87 134.07V116.292C156.87 114.649 158.202 113.317 159.845 113.317H160.298C161.942 113.317 163.274 114.649 163.274 116.292V134.07C163.274 135.713 161.942 137.046 160.298 137.046Z" fill="white"/>
<path d="M185.535 134.047L178.251 124.585L182.998 118.879C184.112 117.54 183.929 115.551 182.59 114.438C181.252 113.324 179.263 113.507 178.149 114.846L172.375 121.788V107.078C172.375 105.408 171.021 104.054 169.351 104.054H168.994C167.324 104.054 165.97 105.408 165.97 107.078V134.022C165.97 135.691 167.324 137.046 168.994 137.046H169.351C171.021 137.046 172.375 135.691 172.375 134.022V127.453L178.566 135.522L184.346 136.901L184.901 136.643C185.895 136.18 186.204 134.916 185.535 134.047Z" fill="white"/>
<path d="M76.2288 131.682C72.7224 131.682 69.8797 128.84 69.8797 125.333C69.8797 121.827 72.7224 118.984 76.2288 118.984C79.7353 118.984 82.5777 121.827 82.5777 125.333C82.5777 128.84 79.7353 131.682 76.2288 131.682ZM76.8812 113.853C74.2406 113.853 71.8094 114.743 69.8659 116.237C69.7292 114.561 68.3288 113.244 66.6185 113.244C64.8171 113.244 63.3569 114.704 63.3569 116.506V125.668V133.378V143.002C63.3569 144.628 64.6746 145.946 66.3006 145.946H66.8178C68.4433 145.946 69.7614 144.628 69.7614 143.002V134.432C71.7218 135.976 74.1922 136.901 76.8812 136.901C83.2458 136.901 88.4052 131.741 88.4052 125.377C88.4052 119.012 83.2458 113.853 76.8812 113.853Z" fill="white"/>
<path d="M128.937 131.682C125.43 131.682 122.588 128.84 122.588 125.333C122.588 121.827 125.43 118.984 128.937 118.984C132.443 118.984 135.286 121.827 135.286 125.333C135.286 128.84 132.443 131.682 128.937 131.682ZM129.589 113.853C126.948 113.853 124.517 114.743 122.574 116.237C122.437 114.561 121.037 113.244 119.326 113.244C117.525 113.244 116.065 114.704 116.065 116.506V125.668V133.378V143.002C116.065 144.628 117.383 145.946 119.008 145.946H119.526C121.152 145.946 122.469 144.628 122.469 143.002V134.432C124.43 135.976 126.9 136.901 129.589 136.901C135.954 136.901 141.113 131.741 141.113 125.377C141.113 119.012 135.954 113.853 129.589 113.853Z" fill="white"/>
<path d="M152.089 113.473C151.026 113.689 150.008 114.371 148.586 115.337C148.458 115.425 148.282 115.381 148.215 115.239C147.761 114.279 146.748 113.316 145.654 113.316H145.395C143.627 113.316 142.597 114.782 142.597 116.589V133.773C142.597 135.581 144.03 137.046 145.798 137.046C147.567 137.046 149.001 135.581 149.001 133.773V121.487C149.001 121.03 149.423 120.709 149.784 120.439C150.717 119.745 152.441 119.152 153.543 119.152C154.834 119.152 155.458 117.917 155.637 116.61C155.947 114.359 155.123 112.857 152.089 113.473Z" fill="white"/>
<path d="M184.346 136.901C181.9 137.561 179.861 137.209 178.566 135.522Z" fill="white"/>
<path d="M60.6364 116.871C60.6364 122.569 56.0168 127.189 50.318 127.189C44.6196 127.189 40 122.569 40 116.871C40 111.172 44.6196 106.552 50.318 106.552C56.0168 106.552 60.6364 111.172 60.6364 116.871Z" fill="#F2B417"/>
<path d="M57.1592 113.837C57.0261 113.639 56.8033 113.521 56.5649 113.521H55.4102C55.054 113.521 54.7348 113.74 54.6061 114.072L52.8309 118.668C52.7728 118.818 52.5606 118.818 52.5029 118.668L50.7043 113.981C50.5981 113.704 50.3319 113.521 50.0353 113.521H48.0007C47.8288 113.521 47.6892 113.382 47.6892 113.209V111.969C47.6892 111.573 47.3685 111.253 46.9731 111.253H45.8047C45.4089 111.253 45.0882 111.574 45.0882 111.969V112.57C45.0882 113.095 44.6625 113.521 44.1372 113.521C43.7414 113.521 43.4207 113.842 43.4207 114.237V115.217C43.4207 115.612 43.7414 115.933 44.1372 115.933H44.8203C44.9683 115.933 45.0882 116.053 45.0882 116.201V120.236C45.0882 122.348 46.5232 123.1 47.8664 123.1C48.4562 123.1 48.9751 123.008 49.5008 122.811C49.7888 122.703 49.972 122.415 49.9567 122.107L49.9054 121.093C49.8938 120.851 49.7606 120.632 49.5516 120.51C49.343 120.388 49.0864 120.38 48.8698 120.488C48.6454 120.6 48.3796 120.67 48.1758 120.67C47.8417 120.67 47.6892 120.67 47.6892 119.908V116.197C47.6892 116.051 47.8075 115.933 47.9535 115.933H48.4034C48.551 115.933 48.6838 116.022 48.7394 116.159L51.2433 122.295C51.4164 122.719 51.8295 122.996 52.2874 122.996H52.9382C53.4292 122.987 53.8472 122.632 53.9565 122.362L57.2286 114.507C57.3186 114.286 57.2928 114.035 57.1592 113.837Z" fill="white"/>
</svg>
