<svg width="250" height="250" viewBox="0 0 250 250" fill="none" xmlns="http://www.w3.org/2000/svg">
<rect width="250" height="250" fill="#CF922A"/>
<g clip-path="url(#clip0_266_66)">
<mask id="mask0_266_66" style="mask-type:luminance" maskUnits="userSpaceOnUse" x="40" y="88" width="170" height="74">
<path d="M209.75 88H40V161.269H209.75V88Z" fill="white"/>
</mask>
<g mask="url(#mask0_266_66)">
<path d="M209.751 160.761H203.699L202.128 155.835H193.714L192.143 160.761H186.242L194.63 136.397H201.368L209.751 160.761ZM200.713 151.366L197.919 142.63L195.129 151.366H200.713Z" fill="white"/>
<path d="M184.932 160.761H171.638V156.443H175.358V140.714H171.638V136.397H184.932V140.714H181.212V156.443H184.932V160.761Z" fill="white"/>
<path d="M169.794 160.761H162.644L156.452 151.824H153.757V160.761H147.935V136.397H157.748C159.091 136.397 160.246 136.475 161.208 136.642C162.176 136.804 163.082 137.156 163.925 137.704C164.778 138.251 165.454 138.955 165.959 139.821C166.464 140.692 166.713 141.781 166.713 143.088C166.713 144.887 166.323 146.356 165.548 147.49C164.767 148.623 163.659 149.567 162.218 150.321L169.794 160.761ZM160.662 143.859C160.662 143.245 160.543 142.72 160.313 142.284C160.079 141.848 159.673 141.508 159.106 141.256C158.711 141.083 158.248 140.977 157.722 140.938C157.192 140.899 156.578 140.876 155.875 140.876H153.757V147.44H155.553C156.489 147.44 157.275 147.389 157.904 147.294C158.534 147.194 159.059 146.97 159.486 146.624C159.892 146.283 160.194 145.909 160.381 145.501C160.568 145.093 160.662 144.546 160.662 143.859Z" fill="white"/>
<path d="M144.392 148.585C144.392 152.472 143.357 155.555 141.281 157.84C139.21 160.124 136.343 161.269 132.685 161.269C129.038 161.269 126.176 160.124 124.1 157.84C122.029 155.555 120.993 152.472 120.993 148.585C120.993 144.669 122.029 141.575 124.1 139.301C126.176 137.022 129.038 135.888 132.685 135.888C136.322 135.888 139.184 137.022 141.265 139.301C143.352 141.575 144.392 144.669 144.392 148.585ZM136.634 154.756C137.202 154.014 137.623 153.137 137.899 152.131C138.175 151.12 138.31 149.936 138.31 148.568C138.31 147.11 138.154 145.864 137.836 144.836C137.524 143.814 137.108 142.982 136.603 142.351C136.083 141.698 135.484 141.223 134.813 140.927C134.137 140.631 133.429 140.485 132.701 140.485C131.957 140.485 131.259 140.625 130.604 140.91C129.948 141.195 129.344 141.664 128.798 142.317C128.288 142.932 127.877 143.77 127.555 144.848C127.232 145.92 127.076 147.166 127.076 148.585C127.076 150.036 127.227 151.271 127.539 152.293C127.851 153.316 128.257 154.142 128.767 154.79C129.277 155.432 129.87 155.907 130.552 156.214C131.234 156.516 131.946 156.672 132.701 156.672C133.45 156.672 134.168 156.516 134.85 156.203C135.531 155.89 136.124 155.41 136.634 154.756Z" fill="white"/>
<path d="M119.879 141.105H112.787V160.761H106.933V141.105H99.8461V136.397H119.879V141.105Z" fill="white"/>
<path d="M98.726 153.103C98.726 155.505 97.7788 157.454 95.8797 158.951C93.986 160.453 91.4152 161.202 88.1631 161.202C86.2796 161.202 84.6409 161.024 83.2462 160.671C81.8466 160.314 80.5406 159.867 79.3178 159.32V153.477H79.9578C81.1702 154.516 82.5229 155.309 84.0214 155.868C85.52 156.427 86.9613 156.7 88.3454 156.7C88.6993 156.7 89.1676 156.672 89.745 156.605C90.3282 156.538 90.7961 156.432 91.1655 156.276C91.613 156.08 91.9771 155.834 92.2689 155.538C92.5602 155.248 92.7057 154.812 92.7057 154.231C92.7057 153.695 92.4924 153.237 92.0707 152.846C91.6494 152.461 91.0303 152.165 90.2187 151.958C89.365 151.74 88.4651 151.533 87.513 151.344C86.5608 151.154 85.6712 150.908 84.8383 150.618C82.9287 149.947 81.5552 149.048 80.7123 147.909C79.8746 146.769 79.4583 145.35 79.4583 143.658C79.4583 141.39 80.4053 139.541 82.2994 138.106C84.1935 136.67 86.6335 135.956 89.6098 135.956C91.1034 135.956 92.5807 136.106 94.0379 136.419C95.4948 136.732 96.7592 137.123 97.8258 137.592V143.2H97.2013C96.2855 142.418 95.1671 141.759 93.8402 141.228C92.5133 140.703 91.1606 140.435 89.7765 140.435C89.2873 140.435 88.8035 140.474 88.3192 140.541C87.8407 140.614 87.3724 140.748 86.9249 140.943C86.5293 141.105 86.1914 141.357 85.9049 141.686C85.6189 142.022 85.4783 142.401 85.4783 142.826C85.4783 143.468 85.7075 143.965 86.1652 144.306C86.6233 144.652 87.4868 144.965 88.7565 145.25C89.5889 145.434 90.3903 145.613 91.1553 145.786C91.9252 145.965 92.7474 146.205 93.6317 146.507C95.3697 147.121 96.655 147.953 97.4825 149.003C98.3096 150.053 98.726 151.422 98.726 153.103Z" fill="white"/>
<path d="M77.175 160.761H63.8807V156.443H67.601V140.714H63.8807V136.397H77.175V140.714H73.4546V156.443H77.175V160.761Z" fill="white"/>
<path d="M60.3499 160.761H54.4964V150.025H45.8537V160.761H40V136.397H45.8537V145.311H54.4964V136.397H60.3499V160.761Z" fill="white"/>
<path fill-rule="evenodd" clip-rule="evenodd" d="M113.162 95.7397H131.377V119.646H113.162V95.7397ZM132.706 95.7397H150.921V119.646H132.706V95.7397ZM136.645 99.6758V115.966H139.944V110.992L140.655 111.015C145.098 111.015 147.279 108.134 147.279 105.277C147.279 102.465 145.167 99.6759 140.958 99.6759L136.645 99.6758ZM139.939 102.828H141.127C143.011 102.857 143.951 103.495 144.086 105.37C143.969 107.316 142.867 107.935 140.969 107.967H139.939V102.828ZM122.269 116.459L114.727 99.4818H118.389L122.138 108.068L122.269 108.578L122.401 108.061L126.149 99.4818H129.811L122.269 116.459ZM109.038 102.831V99.679H96.413V102.831H100.974V115.966H104.477V102.831H109.038ZM93.6186 95.7397H111.833V119.646H93.6186V95.7397ZM92.2885 94.5579H152.25V120.828L92.2885 120.829V94.5579Z" fill="white"/>
</g>
</g>
<defs>
<clipPath id="clip0_266_66">
<rect width="170" height="73.5577" fill="white" transform="translate(40 88)"/>
</clipPath>
</defs>
</svg>
