<svg width="250" height="250" viewBox="0 0 250 250" fill="none" xmlns="http://www.w3.org/2000/svg">
<rect width="250" height="250" fill="#2C2D55"/>
<mask id="mask0_370_4477" style="mask-type:luminance" maskUnits="userSpaceOnUse" x="40" y="108" width="170" height="34">
<path d="M209.99 108.468H40V141.532H210V108.468H209.99Z" fill="white"/>
</mask>
<g mask="url(#mask0_370_4477)">
<path d="M189 129.906C189 132.054 188.229 133.816 186.696 135.182C185.163 136.548 183.38 137.236 181.368 137.236C179.355 137.236 177.583 136.548 176.04 135.182C174.507 133.816 173.735 132.054 173.735 129.906V124.213C173.735 122.065 174.507 120.303 176.04 118.937C177.572 117.571 179.355 116.883 181.368 116.883C183.38 116.883 185.153 117.571 186.696 118.937C188.229 120.303 189 122.065 189 124.213V129.906ZM178.511 129.906C178.511 130.73 178.792 131.418 179.345 132.002C179.898 132.575 180.575 132.857 181.368 132.857C182.16 132.857 182.807 132.575 183.37 132.002C183.933 131.428 184.225 130.74 184.225 129.906V124.213C184.225 123.389 183.943 122.701 183.391 122.117C182.838 121.544 182.16 121.262 181.368 121.262C180.575 121.262 179.898 121.544 179.345 122.117C178.792 122.69 178.511 123.379 178.511 124.213V129.906Z" fill="white"/>
<path d="M166.708 134.765C166.708 135.38 166.478 135.901 166.03 136.329C165.581 136.767 165.008 136.986 164.32 136.986C163.632 136.986 163.069 136.767 162.62 136.35C162.172 135.922 161.942 135.39 161.942 134.765V121.429H159.753C159.325 121.429 158.96 121.262 158.637 120.918C158.314 120.574 158.158 120.136 158.158 119.604C158.158 119.072 158.314 118.624 158.637 118.249C158.96 117.873 159.315 117.665 159.711 117.613L161.901 117.289H161.942V115.611C161.942 113.567 162.631 111.899 164.017 110.595C165.394 109.292 167.104 108.656 169.147 108.656C171.191 108.656 170.305 108.666 170.524 108.812C171.254 109.302 171.233 110.449 171.222 110.731C171.222 110.971 171.191 111.721 170.68 112.264C170.326 112.649 169.846 112.847 169.231 112.847C168.616 112.847 167.886 113.108 167.417 113.598C166.958 114.099 166.718 114.776 166.718 115.631V117.216H169.377C169.919 117.216 170.357 117.425 170.732 117.821C171.108 118.217 171.285 118.739 171.285 119.375C171.285 120.011 171.108 120.449 170.732 120.845C170.357 121.241 169.909 121.45 169.377 121.45H166.718V134.786V134.765H166.708Z" fill="white"/>
<path d="M140.275 119.01C140.275 118.447 140.484 117.998 140.88 117.654C141.276 117.31 141.746 117.143 142.309 117.143C142.872 117.143 143.341 117.383 143.821 117.842C144.3 118.301 144.665 118.541 144.936 118.541C145.207 118.541 145.729 118.269 146.688 117.727C147.647 117.175 148.565 116.914 149.461 116.914C151.098 116.914 152.517 117.581 153.695 118.895C154.873 120.23 155.467 121.929 155.467 124.025V134.775C155.467 135.39 155.238 135.912 154.79 136.339C154.341 136.777 153.768 136.996 153.08 136.996C152.391 136.996 151.828 136.777 151.38 136.36C150.932 135.933 150.702 135.401 150.702 134.775V124.119C150.702 123.274 150.431 122.586 149.889 122.065C149.347 121.554 148.679 121.293 147.887 121.293C147.095 121.293 146.386 121.554 145.864 122.044C145.332 122.544 145.072 123.233 145.072 124.119V134.775C145.072 135.39 144.842 135.912 144.394 136.339C143.946 136.777 143.372 136.996 142.684 136.996C141.996 136.996 141.433 136.777 140.974 136.36C140.526 135.943 140.296 135.401 140.296 134.775V119.01H140.275Z" fill="white"/>
<path d="M130.704 109.219C131.235 108.718 131.882 108.468 132.643 108.468C133.404 108.468 134.03 108.729 134.572 109.219C135.114 109.719 135.385 110.366 135.385 111.158C135.385 111.951 135.114 112.608 134.572 113.098C134.03 113.598 133.383 113.848 132.643 113.848C131.903 113.848 131.225 113.588 130.704 113.098C130.172 112.597 129.911 111.951 129.911 111.158C129.911 110.366 130.182 109.709 130.704 109.219ZM135.031 134.765C135.031 135.38 134.801 135.901 134.353 136.329C133.905 136.767 133.331 136.986 132.643 136.986C131.955 136.986 131.392 136.767 130.933 136.35C130.485 135.922 130.255 135.39 130.255 134.765V119.364C130.255 118.728 130.485 118.196 130.933 117.779C131.381 117.352 131.955 117.143 132.643 117.143C133.331 117.143 133.894 117.362 134.353 117.8C134.801 118.238 135.031 118.77 135.031 119.364V134.754V134.765Z" fill="white"/>
<path d="M118.973 134.692C118.973 135.359 118.733 135.901 118.275 136.35C117.816 136.788 117.222 137.007 116.502 137.007C115.783 137.007 115.199 136.788 114.73 136.35C114.271 135.912 114.031 135.359 114.031 134.692V112.086C114.031 111.419 114.271 110.877 114.73 110.428C115.188 109.99 115.783 109.771 116.502 109.771C117.222 109.771 117.805 109.99 118.275 110.428C118.733 110.866 118.973 111.419 118.973 112.086V134.681V134.692Z" fill="#BA2324"/>
<path d="M194.005 141.521C193.453 141.521 192.973 141.313 192.598 140.906C192.212 140.5 192.024 139.978 192.024 139.373C192.024 138.769 192.212 138.226 192.598 137.82C192.983 137.413 193.453 137.215 194.005 137.215H207.988C208.561 137.215 209.051 137.424 209.416 137.82C209.781 138.216 209.969 138.737 209.969 139.373C209.969 140.009 209.791 140.489 209.416 140.906C209.041 141.313 208.572 141.521 207.988 141.521H194.005Z" fill="#BA2324"/>
<path d="M51.8032 134.692C51.8032 135.359 51.5634 135.901 51.1046 136.35C50.6459 136.788 50.0515 137.006 49.3321 137.006C48.6126 137.006 48.0287 136.788 47.5595 136.35C47.1007 135.912 46.8609 135.359 46.8609 134.692V114.318H42.0541C41.4702 114.318 40.9801 114.099 40.5839 113.682C40.1877 113.264 39.9791 112.722 39.9791 112.097C39.9791 111.471 40.1877 110.929 40.5839 110.512C40.9801 110.084 41.4702 109.876 42.0541 109.876H56.5996C57.2357 109.876 57.7361 110.095 58.1115 110.512C58.4869 110.929 58.6641 111.471 58.6641 112.097C58.6641 112.722 58.4869 113.264 58.1115 113.682C57.7361 114.099 57.2461 114.318 56.5996 114.318H51.7928V134.681H51.8032V134.692Z" fill="white"/>
<path d="M69.9877 136.339C69.4038 135.849 69.0076 135.244 68.7991 134.525L62.1988 112.681C62.1259 112.357 62.0842 112.118 62.0842 111.961C62.0842 111.294 62.3448 110.772 62.8349 110.376C63.3354 109.98 63.961 109.771 64.7013 109.771C65.4416 109.771 65.7023 109.928 66.1089 110.251C66.5156 110.574 66.7971 110.981 66.9222 111.481L71.1347 127.038L72.0418 131.303L72.949 127.038L77.1614 111.481C77.2866 110.981 77.5681 110.564 77.9747 110.251C78.3814 109.928 78.8506 109.771 79.3824 109.771C79.9141 109.771 80.7483 109.98 81.2488 110.376C81.7493 110.772 81.9995 111.304 81.9995 111.961C81.9995 112.618 81.9578 112.357 81.8848 112.681L75.2846 134.525C75.0656 135.244 74.6694 135.849 74.0959 136.339C73.512 136.829 72.8238 137.08 72.021 137.08C71.2181 137.08 70.5404 136.829 69.946 136.339H69.9669H69.9877Z" fill="white"/>
<path d="M91.7487 134.692C91.7487 135.359 91.5088 135.901 91.05 136.35C90.5913 136.788 89.9969 137.007 89.2775 137.007C88.558 137.007 87.9741 136.788 87.5049 136.35C87.0461 135.912 86.8063 135.359 86.8063 134.692V112.086C86.8063 111.419 87.0253 110.887 87.4423 110.481C87.8698 110.074 88.4016 109.865 89.0272 109.865H94.6682C97.2645 109.865 99.402 110.658 101.07 112.253C102.739 113.838 103.573 115.965 103.573 118.624C103.573 121.283 102.759 123.389 101.122 124.974C99.4958 126.548 97.3375 127.351 94.6682 127.351H91.7278V134.713H91.7382L91.7487 134.692ZM97.5877 115.548C96.8683 114.724 95.909 114.318 94.6786 114.318H91.7382V122.878H94.6786C95.9507 122.878 96.9308 122.471 97.619 121.669C98.3072 120.866 98.6513 119.844 98.6513 118.634C98.6513 117.425 98.2967 116.393 97.5773 115.579H97.5877V115.548Z" fill="white"/>
</g>
</svg>
