<svg width="250" height="250" viewBox="0 0 250 250" fill="none" xmlns="http://www.w3.org/2000/svg">
<rect width="250" height="250" fill="#D8127D"/>
<path fill-rule="evenodd" clip-rule="evenodd" d="M115.53 114.018H132.354V91.8944H115.53V114.018ZM133.64 91.8944H150.465V114.018H133.64V91.8944ZM137.242 95.5474V110.622H140.277V106.043H140.946C145.062 106.043 147.069 103.368 147.069 100.744C147.069 98.12 145.114 95.5474 141.204 95.5474C141.255 95.5474 137.242 95.5474 137.242 95.5474ZM140.329 98.4801H141.409C143.159 98.5316 144.033 99.0975 144.136 100.847C144.033 102.648 143.004 103.214 141.255 103.265H140.329V98.4801ZM123.968 111.086L116.97 95.3931H120.366L123.813 103.316L123.916 103.78L124.019 103.316L127.466 95.3931H130.862L123.968 111.086ZM111.722 98.4801V95.5474H100.043V98.4801H104.262V110.622H107.503V98.4801H111.722ZM97.4705 114.018H114.295V91.8944H97.4705V114.018ZM96.2357 115.099H151.7V90.814H96.2357V115.099Z" fill="#FFFFFE"/>
<path fill-rule="evenodd" clip-rule="evenodd" d="M57.3389 159.449C57.0302 159.141 56.4642 159.089 56.207 158.729C55.8983 158.317 55.641 157.854 55.3838 157.443C55.0236 156.877 54.7149 156.362 54.3033 155.951L54.046 155.488L54.1489 155.539C52.8627 153.687 52.0395 152.555 50.9076 151.474C50.959 151.114 49.8271 149.982 49.5698 149.519H49.6213C49.1068 149.056 48.7466 148.439 48.335 147.873L48.1807 147.616C48.2836 147.461 48.335 147.358 48.4379 147.204C48.4379 147.255 48.4894 147.307 48.2836 147.564C48.7981 146.792 49.5698 145.66 49.7242 145.712C51.0619 143.86 52.9656 141.339 53.6344 140.001V140.104C53.9946 139.332 54.2519 139.229 54.7149 138.406C54.7664 138.354 54.8178 138.354 54.8178 138.354C54.9722 138.097 55.178 137.737 55.3838 137.428C55.4867 137.377 55.5381 137.325 55.641 137.274C55.8468 137.12 56.0012 136.811 56.207 136.605C56.4128 136.348 56.6186 136.091 56.8244 135.782C56.9273 135.679 57.0816 135.576 57.1845 135.473C57.3389 135.267 57.3903 135.165 57.4418 134.959C57.5961 134.753 57.699 134.547 57.8019 134.341C57.8019 134.29 57.8534 134.29 57.8534 134.238C57.9049 134.547 57.9049 134.444 57.8534 134.238L57.9049 134.187C58.0592 133.93 58.3165 133.467 58.2136 133.158C58.1621 133.158 58.1107 133.106 58.1107 133.106C58.1107 133.004 58.0592 132.901 58.0592 132.798C57.9563 132.746 57.8534 132.695 57.7505 132.695C57.699 132.746 57.6476 132.746 57.5961 132.798C57.5447 132.746 57.5447 132.695 57.5447 132.643C57.4932 132.643 57.3903 132.695 57.3389 132.695C57.3389 132.592 57.2874 132.438 57.3389 132.283C57.2874 132.335 57.1331 132.386 57.0816 132.438C57.0816 132.335 57.0302 132.283 57.0302 132.18C56.8758 132.232 56.7215 132.283 56.5671 132.335C56.5671 132.18 56.5671 132.077 56.5157 131.975C56.4642 131.975 56.3613 131.975 56.3099 131.975C56.3613 131.82 56.4128 131.666 56.4128 131.512C56.2584 131.614 56.1041 131.769 55.8983 131.82C55.8468 131.769 55.7954 131.717 55.7439 131.717C55.7439 131.717 55.7439 131.717 55.6925 131.717C55.6925 131.666 55.6925 131.563 55.6925 131.512C55.4352 131.614 55.178 131.769 54.9207 131.872V132.026C54.8178 132.077 54.7149 132.18 54.6635 132.283L54.612 132.386L54.4062 132.798C54.3548 132.952 54.2519 133.106 54.2004 133.209C53.8917 133.467 53.583 133.724 53.3772 134.084C53.1714 134.393 53.2228 134.753 53.0685 135.01C53.017 135.113 52.9656 135.165 52.9141 135.216L52.8627 135.267C52.8112 135.319 52.7598 135.37 52.6569 135.422C52.6569 135.319 52.8112 135.113 52.6569 135.216C52.554 135.37 52.4511 135.525 52.3482 135.679L52.2453 135.73V135.782C51.8851 136.194 51.525 136.554 51.1134 137.223L51.0105 137.171C50.3416 138.457 49.2611 139.281 48.8495 140.155C48.0263 141.39 47.9749 140.721 47.2546 142.11L46.7915 142.522C46.3799 143.036 46.6886 143.036 46.1741 143.551C46.1226 143.448 45.5567 144.271 45.711 143.86C45.5567 144.065 45.4023 144.22 45.248 144.426C45.1965 144.22 45.1965 144.014 45.1965 143.86C45.4023 143.242 45.248 142.573 45.1965 141.905C45.1965 141.802 45.1965 141.699 45.1451 141.596C45.1451 141.39 45.1965 141.339 45.248 141.802C45.248 141.905 45.248 142.11 45.248 142.059L45.3509 142.213C45.5567 140.978 45.248 139.949 45.248 138.715C45.1965 139.075 45.1965 139.589 45.1451 139.229V138.097L45.248 138.354L45.2994 136.657L45.1965 136.914C45.248 136.091 45.4538 135.782 45.2994 134.856C45.248 134.701 45.248 134.753 45.1965 134.804C45.248 133.775 45.2994 132.695 45.1965 131.666C45.1451 131.717 44.9907 131.82 44.9393 131.872C44.7335 131.872 44.6306 131.82 44.6306 131.666C44.5277 131.769 44.4248 131.769 44.3219 131.82C44.0132 131.306 43.2414 131.563 42.5725 131.717C42.3153 131.717 42.1095 131.769 41.8522 131.769C41.8522 131.769 41.8522 131.769 41.8522 131.82C41.6979 131.82 41.595 131.769 41.4921 131.666C41.1834 131.975 40.7203 131.717 40.4116 131.975C40.1029 132.232 40 132.798 40.2058 133.158C40.3087 134.393 39.9485 133.621 40.0515 135.01L40 134.907L40.2573 135.319C40.5145 136.657 40 136.039 40.3087 137.531C40.3087 136.914 40.566 137.274 40.5145 137.994L40.4116 137.788C40.4116 138.2 40.4631 138.354 40.4631 138.612C40.4116 138.354 40.3087 138.509 40.3087 139.075L40.1544 138.663L40.3602 139.795C40.2573 140.67 40.4116 142.059 40.2058 142.419C40.2058 142.419 40.1029 144.271 40.3087 144.734C40.2058 144.374 40.1544 145.403 40 145.094C40.1029 145.558 40.2058 146.998 40.1029 147.564V147.461C39.9485 149.571 40.3087 151.063 40.1029 152.966C40.2573 152.864 40.1544 153.893 40.3602 153.635C40.5145 155.59 40 157.237 40.566 157.957C40.6174 158.832 40.4116 159.038 40.4116 159.501L40.3602 159.295C40.3602 160.118 40.4116 160.684 40.4116 161.147V161.867V162.228C40.2058 162.691 40.3602 163.051 40.9261 163.051C40.9261 163.154 40.9776 163.257 40.9261 163.36C41.029 163.36 41.2348 163.36 41.3892 163.411C41.595 163.617 41.5435 163.565 41.3892 163.411C41.8522 163.411 42.3667 163.411 42.624 163.257C42.6754 163.514 44.0646 163.36 44.3733 163.257C45.0422 162.948 44.7849 162.485 44.682 161.919C44.682 161.507 44.6306 161.353 44.6306 161.404C44.6306 161.199 44.6306 160.993 44.6306 160.838C44.6306 160.272 44.6306 159.707 44.7335 159.655C44.682 157.546 44.5277 156.054 44.4248 154.356C44.5277 154.15 44.5791 154.561 44.6306 155.076V153.79C44.7849 153.79 44.682 154.51 44.7335 154.87C44.9393 153.378 44.5277 151.835 44.7335 150.137L44.682 149.982C44.7335 150.034 44.7335 150.034 44.7849 150.085C45.1451 150.445 45.5052 150.857 45.8139 151.166C45.5567 150.754 45.6596 150.857 45.8139 151.011C46.0712 151.32 46.1226 151.629 46.3799 151.835L46.3284 151.937C46.4313 151.937 47.1517 152.761 47.2546 152.812C47.306 153.069 46.7915 152.349 46.6371 152.298L48.2321 154.304C48.901 154.973 48.2321 154.098 48.6437 154.356C49.1582 154.973 49.7242 155.539 50.2387 156.311L50.1872 156.002C50.5988 156.722 51.1134 157.34 51.6279 157.957C51.9366 158.266 52.0909 158.78 52.3482 159.141C52.6054 159.501 53.017 159.758 53.2743 160.118C54.046 161.25 54.9207 162.279 56.0526 162.999C56.0012 162.896 56.0012 162.845 55.9497 162.742C56.207 162.845 56.4128 162.845 56.6186 162.999C56.5671 162.948 56.5671 162.794 56.4642 162.691C56.8244 162.639 57.1845 162.948 57.2874 162.639C57.5447 162.794 57.9563 162.536 58.1621 162.845C58.4708 162.742 58.3679 162.125 58.6252 162.022C58.3679 161.559 58.2136 161.096 57.9563 160.633C57.7505 160.272 57.6476 159.758 57.3389 159.449ZM81.778 132.283V132.335V132.798C81.778 133.415 81.778 134.033 81.778 134.599C81.7265 134.599 81.7265 134.701 81.6751 134.856V134.907C81.6236 135.37 81.6751 136.245 81.6751 136.914C81.6751 136.605 81.5722 136.605 81.5722 136.554C81.778 137.84 81.3664 139.281 81.5722 140.618V140.567C81.4693 141.081 81.7265 142.676 81.4693 142.882C81.6751 144.426 81.6751 145.815 81.5722 148.027L81.5207 147.924C81.3149 149.828 81.1091 151.166 80.9548 152.092C81.2635 152.606 80.9033 153.687 80.9548 154.15C81.0062 154.15 81.0062 154.098 81.0577 154.098C81.0577 154.561 81.0577 155.024 81.0577 155.488C81.1091 155.385 81.1606 155.282 81.212 155.179C81.212 155.539 80.9548 155.899 80.8519 156.208C80.749 156.619 80.8519 157.134 80.6975 157.494C80.6975 157.443 80.6975 157.34 80.6975 157.288C80.6461 157.494 80.4403 157.957 80.2859 158.214C80.2345 158.42 80.183 158.626 80.1316 158.883C79.5656 159.758 79.0511 160.581 77.7648 161.456L78.0735 161.404C77.1989 161.816 76.4786 162.176 75.6554 162.33C75.2437 162.536 76.3757 162.382 75.4495 162.639C73.6488 162.845 74.5749 162.794 72.7741 162.794C72.877 162.691 73.8031 162.742 73.5459 162.639C73.3915 162.691 72.3111 162.691 72.2082 162.794V162.691C71.848 162.691 71.6422 162.588 71.1791 162.485C70.9733 162.485 70.7675 162.536 71.282 162.639C70.3559 162.588 68.9668 162.176 68.4008 161.662C67.629 161.044 67.9377 161.147 67.8348 160.89C67.629 160.684 67.2689 160.427 67.2689 160.478L67.2174 160.375L66.9087 160.118C66.0341 158.42 65.4167 156.877 65.4681 155.333C65.5196 155.745 65.571 156.465 65.6739 156.414C65.571 156.002 65.5196 155.59 65.5196 155.179C65.571 155.693 65.7254 156.105 65.7768 155.899C65.5196 154.15 65.4167 152.658 65.3652 150.6C65.5196 150.497 65.4167 149.262 65.5196 148.542C65.4681 148.645 65.4681 148.645 65.4681 148.645C65.4681 148.953 65.4167 149.108 65.3652 148.387C65.3652 148.284 65.3138 148.182 65.3138 148.079C65.3652 147.513 65.4167 147.616 65.4167 147.873C65.4167 147.461 65.4167 146.998 65.5196 147.358C65.571 146.278 65.3138 146.175 65.2623 145.558C65.2623 144.323 65.2623 143.86 65.2109 142.213L65.2623 142.419C65.3138 141.956 65.4681 141.802 65.4167 140.927C64.8507 140.207 65.4167 138.612 65.2109 136.657C65.0051 136.914 65.108 135.885 64.9536 135.988C65.0565 135.062 65.0051 134.187 64.9536 133.364V133.055V132.901V132.849C64.8507 132.952 64.7478 133.055 64.9536 132.849C64.9022 132.695 64.9536 132.489 65.0051 132.335C65.0051 132.283 65.1594 132.283 65.1594 132.232C65.1594 132.129 65.108 131.975 65.108 131.975C65.1594 131.82 65.1594 131.563 65.3138 131.46C65.4167 131.409 65.6739 131.46 65.8283 131.46C66.137 131.409 66.4971 131.254 66.8058 131.203C67.166 131.151 67.6805 131.203 68.0921 131.203C68.0921 131.254 68.0921 131.306 68.0921 131.357C68.2464 131.357 68.3493 131.357 68.5037 131.357C68.6581 131.357 68.8124 131.357 68.9668 131.357C69.0182 131.563 69.0697 131.563 69.3269 131.563C69.3269 131.614 69.3269 131.614 69.3269 131.666C69.3784 131.666 69.4298 131.614 69.4813 131.563C69.4813 131.614 69.5327 131.666 69.5842 131.666C69.6356 131.614 69.79 131.563 69.8414 131.512C69.8929 131.563 69.8929 131.614 69.8929 131.666L69.9958 131.614C70.0472 131.614 69.9958 131.614 70.0472 131.614C70.2016 132.18 70.0987 133.106 69.9958 133.775C70.0472 134.084 70.0472 134.393 70.0987 134.547C69.9443 134.238 69.9443 135.267 69.79 134.907C69.9958 135.319 69.8929 137.171 69.8929 137.171C69.7385 137.531 69.8929 138.869 69.7385 139.744L69.9443 140.876L69.79 140.464C69.79 141.03 69.6871 141.184 69.6356 140.927C69.6356 141.184 69.6356 141.339 69.6871 141.75L69.5842 141.544C69.5327 142.265 69.8414 142.573 69.79 142.007C70.0987 143.5 69.6356 142.882 69.8414 144.22L70.0987 144.631L69.9958 144.477C70.1501 145.969 69.6871 144.992 69.8414 146.484L69.7385 146.535C69.79 146.947 69.7385 147.307 69.8929 147.153C69.8414 148.542 69.7385 150.188 69.6356 151.32C69.6871 152.195 69.7385 151.011 69.8414 151.423C69.9958 152.349 69.79 152.658 69.7385 153.481L69.8414 153.224C69.8414 153.79 69.79 154.356 69.79 154.87L69.6871 154.664C69.6871 155.024 69.6871 155.385 69.7385 155.693C69.8414 155.951 69.79 155.539 69.79 155.23C69.8414 156.362 70.3559 157.134 70.6646 157.854H70.5103C70.5617 157.854 70.4588 157.751 70.4074 157.7C69.79 156.98 70.6646 158.369 70.6646 158.369C70.9219 158.472 71.5907 158.883 72.0538 158.78C73.8546 159.398 75.4495 158.626 76.1184 158.009C76.0155 158.266 76.4271 157.751 76.4786 157.803C76.8387 157.34 76.53 157.34 76.7358 156.877C76.8387 156.722 76.9416 156.568 76.9931 156.414C76.9416 155.024 77.3532 155.488 77.3018 154.047C77.096 153.121 77.4561 151.835 77.2503 150.394L77.3532 150.342C77.2503 149.262 77.4561 148.696 77.4047 147.821C77.5076 147.616 77.4561 148.027 77.6105 148.027C77.5076 147.153 77.8677 148.233 77.7134 147.667C77.8677 146.381 77.1989 145.146 77.2503 143.963C77.0445 142.676 77.559 141.544 77.2503 141.287V141.956L77.1989 140.155L77.3018 140.104C77.2503 139.383 77.3532 137.634 77.1989 136.759C77.1989 136.759 77.1989 136.708 77.2503 136.657C77.1474 135.73 77.3018 135.473 77.1474 134.65L77.1989 134.753C77.1474 134.393 77.096 133.93 77.0445 133.364V133.158C76.8387 132.849 77.1989 132.129 77.3018 131.872C77.3018 131.872 77.4047 131.975 77.4047 132.026C77.4047 131.975 77.4047 131.872 77.4047 131.872C77.559 131.769 77.7134 131.666 77.8677 131.512C78.4337 131.82 79.4627 131.203 79.9772 131.306C80.0801 131.357 80.0801 131.357 80.2345 131.357C80.3888 131.512 80.4917 131.409 80.6461 131.254C80.6975 131.357 80.8004 131.357 80.8004 131.46C80.8519 131.46 80.9033 131.46 80.9548 131.409C80.9548 131.512 81.0062 131.666 81.0062 131.769L81.0577 131.717C81.1091 131.872 81.1606 132.026 81.1606 132.232L81.3149 132.386C81.3664 132.335 81.4178 132.232 81.4178 132.232C81.4178 132.335 81.4178 132.438 81.4178 132.489L81.778 132.283ZM97.8306 133.672V133.827V134.084C97.8306 134.29 97.8306 134.444 97.7792 134.65L97.7277 134.599C97.7792 135.113 97.7792 135.679 97.7277 136.245C97.4705 137.634 97.8306 138.766 97.6763 139.847C97.5734 139.589 97.6248 140.207 97.5219 140.155C97.419 140.618 97.6763 140.515 97.6248 140.927L97.4705 141.339C97.7277 142.316 97.2647 142.007 97.3676 142.985C97.5734 143.602 97.2132 144.426 97.419 145.352L97.3161 145.403C97.419 146.124 97.2132 146.484 97.2647 147.05C97.1618 147.204 97.2132 146.895 97.0589 146.947C97.1618 147.513 96.8016 146.792 96.9559 147.204C96.8016 148.027 97.4705 148.85 97.419 149.622C97.6248 150.445 97.1103 151.217 97.419 151.371V150.96V152.143L97.3161 152.195C97.3676 152.658 97.2647 153.79 97.419 154.407C97.419 154.407 97.419 154.459 97.3676 154.459C97.4705 155.076 97.3161 155.23 97.4705 155.745L97.419 155.693C97.6763 156.568 97.6248 158.472 97.6248 159.912C98.3966 159.861 99.2198 160.118 99.9915 159.964H99.9401C100.3 160.067 101.329 159.809 101.484 160.067C102.204 159.912 102.873 159.861 103.747 159.912L103.799 159.809C104.108 159.809 105.034 159.243 105.188 159.758C105.651 159.655 106.114 159.449 106.577 159.346C106.68 159.604 107.195 159.655 107.452 159.707C107.864 159.758 108.532 159.758 108.841 159.552V159.655C108.893 159.604 108.944 159.501 108.995 159.449C108.995 159.552 109.047 159.707 109.047 159.809C109.304 159.655 109.973 159.295 109.922 159.964C110.076 159.912 110.179 159.758 110.179 159.604C110.796 160.375 110.642 162.176 110.487 163.102C110.179 163.411 109.922 163.565 109.458 163.617C108.944 163.668 108.275 163.72 107.761 163.565C107.709 163.565 107.658 163.514 107.606 163.514C107.4 163.565 107.246 163.565 107.04 163.617C106.371 163.462 105.805 163.462 104.828 163.565L105.034 163.72C104.416 163.617 103.953 163.72 103.387 163.771C103.13 163.925 103.799 163.925 103.233 164.028C102.152 164.028 102.667 164.028 101.587 164.028C101.638 163.925 102.255 163.977 102.101 163.823C101.998 163.874 101.329 163.874 101.278 164.028V163.925C101.072 163.977 100.918 163.874 100.609 163.874C100.455 163.925 100.403 163.977 100.66 163.977C100.094 164.028 99.2712 164.183 98.8596 164.08C98.2937 164.08 98.4995 163.925 98.3451 163.823C98.1908 163.823 97.9335 163.925 97.9335 163.977H97.8821L97.6763 164.08C96.5443 163.874 95.5668 164.286 94.5892 164.08C94.8465 164.08 95.3095 164.131 95.3095 163.977L94.5378 164.028C94.8465 163.977 95.1037 163.925 95.0008 163.823L94.1776 163.874H94.0747H94.0233C94.5378 164.389 93.3544 163.205 93.4573 163.308V163.257V163.051L93.4059 162.639C93.3544 162.022 93.3029 161.456 93.2515 160.838C93.4059 160.787 93.303 159.964 93.4059 159.501C93.3544 159.552 93.3544 159.604 93.3544 159.552C93.3544 159.758 93.3029 159.861 93.2515 159.398C93.2515 159.398 93.2515 159.398 93.3029 159.398C93.3029 159.346 93.2515 159.243 93.2515 159.192C93.3029 158.832 93.3544 158.883 93.3544 159.038C93.3544 158.78 93.3544 158.472 93.4573 158.729C93.5088 158.009 93.2515 157.957 93.2 157.546C93.2 156.722 93.2 156.414 93.1486 155.333L93.2 155.488C93.2515 155.179 93.4058 155.076 93.3544 154.51C92.7884 154.047 93.3544 153.018 93.1486 151.732C92.9942 151.886 93.0457 151.217 92.8913 151.32C93.0457 150.085 92.737 149.108 92.8913 147.77V147.821C93.0457 147.461 92.9428 146.535 92.7884 146.226C92.9428 146.432 92.9428 145.763 93.0971 145.969C92.8913 145.712 92.9942 144.477 92.9942 144.477C93.1486 144.271 92.9942 143.345 93.1486 142.779L92.9428 142.059L93.0971 142.316C93.0971 141.956 93.2 141.853 93.2515 142.007C93.2515 141.853 93.2515 141.75 93.2 141.493L93.3029 141.596C93.3544 141.133 93.0457 140.927 93.0971 141.287C92.7884 140.31 93.2515 140.721 93.0457 139.847L92.8913 139.692C92.737 138.715 93.2 139.332 93.0457 138.354L93.1486 138.303C93.0971 138.046 93.1486 137.788 92.9942 137.891C93.0457 136.965 93.1486 135.885 93.2515 135.165C93.2 134.599 93.1486 135.37 93.0457 135.113C92.9428 134.804 92.9428 134.599 92.9942 134.444L93.0457 134.135V134.084C93.0457 133.724 93.0971 133.312 93.3029 133.004C93.3029 133.055 93.4059 133.158 93.4059 133.209C93.4573 133.158 93.4573 133.106 93.5088 133.055L93.5602 133.106C93.5602 133.004 93.6117 132.901 93.6117 132.798C94.2291 132.746 94.795 132.643 95.4124 132.643C95.9784 132.643 96.3385 132.541 96.853 132.489C96.9045 132.489 97.0074 132.541 97.1103 132.541C97.1103 132.695 97.2132 132.849 97.2132 133.004C97.2647 133.004 97.3161 133.004 97.3676 133.004C97.419 132.849 97.4705 132.643 97.5734 132.489C97.6248 132.746 97.6248 133.106 97.6248 133.364C97.6248 133.106 97.7792 132.849 97.9335 132.643C98.0364 132.952 97.985 133.312 97.9335 133.672H97.8306Z" fill="white"/>
<path fill-rule="evenodd" clip-rule="evenodd" d="M115.478 131.82H115.633H115.941C116.765 131.82 117.691 131.82 118.462 131.769C118.514 131.923 119.389 131.872 120.006 131.82C119.8 131.82 119.8 131.923 119.749 131.923C120.623 131.717 121.601 132.129 122.527 131.923H122.476C122.836 132.026 123.865 131.769 124.071 132.026C125.1 131.82 126.026 131.82 127.518 131.923L127.466 131.974C127.672 132.026 127.929 132.077 128.135 132.077C128.804 131.872 129.987 131.563 130.039 131.666C130.245 131.563 130.45 131.511 130.656 131.511C130.656 131.614 130.656 131.717 130.656 131.82C131.222 131.614 131.685 132.232 132.354 131.717C133.126 132.283 133.383 134.238 132.971 135.113C132.663 135.73 132.148 135.73 131.685 135.627C131.377 135.576 131.016 135.473 130.656 135.422C130.399 135.473 130.142 135.525 129.884 135.525C129.216 135.37 128.598 135.37 127.569 135.473L127.775 135.627C127.158 135.525 126.643 135.627 126.077 135.679C125.82 135.833 126.437 135.833 125.974 135.936V136.348C125.923 136.348 125.923 136.142 125.923 135.988H125.871C125.923 136.245 125.923 136.708 126.026 136.708H125.923C125.974 136.914 125.871 137.068 125.871 137.377C125.923 137.531 125.974 137.634 125.974 137.274C126.026 137.84 126.18 138.714 126.077 139.126C126.077 139.692 125.923 139.538 125.82 139.692C125.82 139.846 125.923 140.104 125.974 140.104V140.155L126.077 140.412C125.871 141.544 126.283 142.625 126.077 143.602C126.077 143.345 126.129 142.882 125.974 142.882L126.026 143.705C125.974 143.345 125.923 143.088 125.82 143.242C125.871 144.425 126.077 145.403 126.129 146.792C125.974 146.844 126.077 147.718 125.974 148.181C126.026 148.13 126.026 148.078 126.026 148.13C126.026 147.924 126.077 147.821 126.129 148.284C126.129 148.336 126.18 148.439 126.18 148.49C126.129 148.85 126.077 148.799 126.077 148.644C126.077 148.902 126.077 149.21 125.974 149.005C125.923 149.725 126.18 149.828 126.231 150.239C126.231 151.063 126.231 151.371 126.283 152.503L126.231 152.349C126.18 152.658 126.026 152.761 126.077 153.378C126.643 153.841 126.077 154.921 126.283 156.259C126.489 156.105 126.386 156.774 126.54 156.722C126.386 158.008 126.695 158.986 126.54 160.427V160.375C126.386 160.735 126.489 161.713 126.643 162.022C126.592 161.97 126.592 161.97 126.54 162.022C124.482 164.285 125.974 162.639 125.511 163.154H125.46H125.357C125.254 163.102 125.1 163.102 125.254 163.051C124.997 163.256 123.71 163.308 123.71 163.308C123.607 163.256 123.299 163.256 122.939 163.308H122.836H122.784C122.321 162.896 123.813 164.285 121.704 162.33V162.279V162.022C121.704 161.867 121.704 161.661 121.755 161.559L121.447 160.735L121.601 160.993C121.601 160.581 121.704 160.53 121.755 160.684C121.755 160.53 121.755 160.427 121.704 160.118L121.807 160.221C121.858 159.758 121.549 159.501 121.601 159.912C121.292 158.883 121.755 159.346 121.549 158.42L121.292 158.214L121.395 158.317C121.241 157.34 121.704 157.957 121.549 156.928L121.652 156.877C121.601 156.619 121.652 156.362 121.498 156.465C121.549 155.487 121.652 154.407 121.755 153.635C121.704 153.069 121.652 153.841 121.549 153.584C121.395 152.966 121.601 152.761 121.652 152.195L121.549 152.349L121.601 151.217L121.704 151.371V150.6C121.601 150.394 121.652 150.702 121.601 150.96C121.652 150.137 121.292 149.468 121.498 148.644L121.601 148.747C121.549 148.747 121.549 148.85 121.601 148.953C121.807 149.776 121.704 148.336 121.807 148.284C121.652 148.027 121.755 147.307 121.549 146.998C121.807 145.557 121.447 144.374 121.601 143.294C121.704 143.602 121.652 142.933 121.807 142.985C121.91 142.47 121.652 142.625 121.704 142.162L121.858 141.75C121.601 140.721 122.064 141.03 121.961 140.052C121.755 139.435 122.115 138.56 121.91 137.583L122.012 137.531C121.91 136.811 122.115 136.399 122.064 135.833C122.167 135.679 122.115 135.988 122.27 135.936C122.167 135.319 122.527 136.09 122.373 135.679C122.373 135.627 122.373 135.525 122.373 135.473H122.321C122.115 135.525 121.91 135.576 121.704 135.627C121.292 135.782 120.881 135.936 120.469 135.885C120.16 135.936 119.903 135.936 119.646 135.885C118.72 136.142 117.794 136.039 116.765 136.039C116.559 136.039 115.787 136.09 115.221 136.039C114.809 135.988 114.552 135.833 114.552 135.576C114.501 135.576 114.398 135.525 114.295 135.473C114.243 134.65 114.346 134.084 114.501 133.415C114.501 133.209 114.501 133.055 114.552 132.849V132.798V132.746L114.758 132.54C114.912 132.026 115.067 131.357 115.375 131.872L115.478 131.82ZM158.079 133.724C158.079 133.364 158.028 133.158 157.925 132.901C157.874 132.901 157.874 132.901 157.822 132.901C157.822 132.849 157.822 132.798 157.822 132.695C157.822 132.695 157.771 132.746 157.719 132.746C157.719 132.232 156.382 132.232 155.97 132.283C155.97 132.18 155.919 132.077 155.97 131.974C155.61 132.335 155.095 132.643 154.787 133.106H154.735C154.684 132.798 154.684 132.386 154.529 132.129C154.426 132.386 154.221 132.54 154.015 132.489C153.758 132.849 153.758 133.312 153.809 133.775L153.5 134.084V134.135V134.547C153.552 135.061 153.552 135.525 153.655 135.936L153.603 135.833C153.758 136.656 153.655 136.914 153.706 137.84C153.706 137.891 153.655 137.943 153.655 137.943C153.809 138.817 153.706 140.567 153.758 141.287L153.706 141.338L153.758 143.139V142.47C154.066 142.728 153.552 143.808 153.758 145.146C153.706 146.329 154.375 147.564 154.221 148.85C154.375 149.468 154.015 148.336 154.118 149.21C153.963 149.262 154.015 148.799 153.912 149.005C153.963 149.879 153.758 150.445 153.86 151.526L153.706 151.629C153.912 153.069 153.552 154.304 153.758 155.23C153.809 156.671 153.449 156.156 153.449 157.597C153.346 157.751 153.295 157.906 153.192 158.06C152.986 158.574 153.295 158.523 152.934 158.986C152.883 158.935 152.471 159.449 152.574 159.192C151.905 159.809 150.31 160.581 148.51 159.964C148.047 160.118 147.378 159.655 147.12 159.552C147.069 159.552 146.246 158.214 146.863 158.883C146.915 158.935 146.966 159.037 146.966 159.037H147.12C146.812 158.317 146.297 157.545 146.246 156.414C146.246 156.722 146.297 157.185 146.194 156.877C146.143 156.516 146.143 156.208 146.143 155.848L146.246 156.053C146.246 155.539 146.297 154.973 146.297 154.407L146.194 154.664C146.246 153.841 146.452 153.532 146.297 152.606C146.194 152.195 146.143 153.378 146.091 152.503C146.194 151.423 146.297 149.725 146.349 148.336C146.194 148.49 146.194 148.078 146.194 147.718L146.297 147.667C146.143 146.175 146.554 147.101 146.452 145.66L146.297 145.403C146.04 144.065 146.554 144.683 146.194 143.191C146.194 143.757 145.937 143.448 145.989 142.728L146.091 142.933C146.091 142.522 146.04 142.419 146.04 142.11C146.091 142.367 146.194 142.213 146.194 141.647L146.349 142.059L146.143 140.927C146.246 140.052 146.091 138.714 146.297 138.354C146.297 138.354 146.4 136.502 146.194 136.09C146.297 136.451 146.349 135.422 146.503 135.73C146.452 135.473 146.4 135.01 146.349 134.547V134.238C146.349 134.084 146.349 133.981 146.349 133.827V133.569C146.349 133.158 146.246 133.055 146.091 132.695C146.04 132.746 145.886 132.849 145.834 132.849C145.834 132.798 145.783 132.695 145.731 132.695C145.731 132.695 145.525 132.695 145.577 132.695C145.577 132.849 145.525 132.952 145.423 133.003L145.114 132.746C144.908 132.746 144.754 132.746 144.548 132.746H144.651C144.496 132.746 144.394 132.746 144.239 132.746C144.085 132.695 143.982 132.643 143.828 132.695C143.776 132.592 143.673 132.54 143.622 132.489C143.519 132.643 143.262 132.695 143.159 132.849C143.107 132.798 143.056 132.746 143.107 132.695C142.799 132.695 142.541 132.901 142.284 133.055C142.284 133.003 142.233 132.849 142.233 132.798C142.13 132.901 142.078 132.901 142.027 133.055C141.975 133.003 142.027 132.952 141.924 132.952C141.564 133.312 141.461 133.261 141.512 133.621C140.843 134.341 141.718 133.724 141.358 134.135V134.187V134.341V134.65C141.409 135.525 141.461 136.348 141.358 137.274C141.512 137.171 141.409 138.2 141.615 137.943C141.77 139.898 141.255 141.493 141.821 142.213C141.872 143.088 141.667 143.242 141.667 143.705L141.615 143.499C141.667 145.146 141.667 145.66 141.667 146.844C141.718 147.461 141.975 147.564 141.924 148.644C141.821 148.284 141.821 148.747 141.821 149.159C141.821 148.902 141.77 148.799 141.718 149.365C141.77 149.416 141.77 149.571 141.77 149.673C141.821 150.342 141.821 150.239 141.872 149.931C141.872 149.931 141.924 149.931 141.924 149.828C141.77 150.548 141.924 151.834 141.77 151.886C141.821 153.944 141.924 155.436 142.181 157.185C142.13 157.391 141.975 156.979 141.924 156.465C141.975 156.877 142.027 157.288 142.078 157.751C141.924 157.751 141.872 157.031 141.872 156.619C141.821 158.163 142.438 159.706 143.313 161.404L143.622 161.661L143.673 161.764C143.725 161.713 144.033 162.022 144.239 162.176C144.342 162.433 144.033 162.382 144.805 162.948C145.371 163.514 146.76 163.874 147.686 163.925C147.172 163.822 147.378 163.771 147.584 163.771C147.995 163.874 148.252 163.977 148.613 163.977V164.08C148.664 163.977 149.796 164.028 149.95 163.977C150.207 164.08 149.281 164.08 149.127 164.131C150.928 164.131 150.002 164.183 151.802 163.977C152.729 163.668 151.597 163.874 152.06 163.668C152.883 163.514 153.603 163.154 154.478 162.742L154.169 162.793C155.455 161.919 155.97 161.096 156.536 160.221C156.793 159.295 156.948 158.472 156.948 157.803C157.102 156.928 157.153 155.95 157.153 154.87V154.201C157.359 153.378 157.616 151.886 157.874 149.313L157.925 149.416C158.028 147.204 158.079 145.815 157.822 144.271C158.079 144.014 157.874 142.47 157.925 141.956V142.007C157.719 140.67 158.079 139.229 157.925 137.943C157.925 137.994 158.028 138.046 158.028 138.303C157.977 137.377 157.925 136.039 158.079 135.988C158.079 135.422 158.079 134.856 158.079 134.238C158.079 134.032 158.131 133.878 158.131 133.672L158.079 133.724Z" fill="white"/>
<path fill-rule="evenodd" clip-rule="evenodd" d="M169.604 130.225C169.399 130.122 169.193 130.122 168.936 130.122C169.038 130.637 168.575 130.431 168.472 130.74C168.421 130.945 168.472 131.151 168.575 131.306L168.524 131.408V131.46L168.575 131.974C168.627 132.695 168.627 133.466 168.524 134.341C168.575 134.393 168.575 134.444 168.575 134.547C168.73 134.547 168.936 134.547 169.09 134.598C168.833 134.701 169.45 134.65 169.399 134.804C169.862 134.907 169.759 134.65 170.17 134.701L170.582 134.856C171.56 134.598 171.251 135.061 172.228 134.959C172.537 134.856 172.897 134.907 173.309 134.959C173.309 134.907 173.309 134.856 173.309 134.804C173.72 134.804 174.029 135.113 174.184 134.65C174.389 134.598 174.441 134.804 174.595 134.804L174.544 134.856C174.955 134.804 175.11 134.804 175.418 134.856C175.573 134.804 175.624 134.547 175.881 134.65C175.778 134.753 175.881 134.753 175.984 134.753C175.933 134.753 175.881 134.804 176.036 134.856C176.036 134.804 176.087 134.804 176.139 134.804C176.293 134.804 176.293 134.753 176.19 134.701V134.65C176.344 134.804 176.653 134.701 176.653 134.856C177.168 134.907 177.528 134.804 177.939 134.856C177.939 134.959 177.837 135.01 177.734 135.01C177.837 135.01 177.888 135.061 177.991 135.061C177.939 135.164 177.837 135.061 177.734 135.061C177.939 135.37 178.402 135.164 178.608 135.525H178.711V135.576C178.763 135.525 178.866 135.525 178.917 135.576C178.866 135.679 178.711 135.782 178.866 135.885C178.917 136.039 179.174 136.142 179.38 136.296C179.329 136.193 179.38 136.193 179.483 136.193C179.534 136.296 179.483 136.399 179.586 136.399L179.483 136.502C179.586 136.399 179.74 136.605 179.843 136.605C179.792 136.708 179.689 136.554 179.586 136.554C179.792 136.862 179.689 136.708 179.895 137.068C180.1 137.222 179.997 136.965 180.203 137.017C180.306 137.171 180.46 137.325 180.46 137.583L180.563 137.48C180.769 137.788 180.821 138.046 180.718 138.354C180.872 138.612 180.975 138.869 181.078 139.023C181.078 139.229 181.129 139.486 181.129 139.692C181.129 139.743 181.129 139.795 181.129 139.898C180.924 140.104 180.666 140.464 180.306 141.03L180.255 140.978C180.049 141.441 179.946 141.699 179.997 142.11C179.74 142.059 179.792 142.47 179.637 142.522C179.637 142.882 179.174 142.882 179.123 143.139C179.123 143.139 179.071 143.036 179.123 143.036C179.02 143.191 178.814 143.396 178.711 143.242C178.351 143.551 177.682 143.705 177.373 144.014V143.962C177.219 144.168 177.116 144.065 176.91 144.168L176.859 144.117C176.653 144.323 176.242 144.22 176.036 144.323V144.22V144.425V144.374C175.933 144.323 175.83 144.323 175.727 144.323C175.676 144.374 175.624 144.374 175.521 144.323C175.264 144.323 175.058 144.374 174.801 144.425C174.595 144.58 174.338 144.889 174.081 144.786C173.926 144.94 174.235 144.58 173.978 144.683C173.978 144.528 174.081 144.58 174.029 144.477C173.772 144.528 173.669 144.323 173.36 144.425V144.323H173.309C173.257 144.323 173.257 144.374 173.206 144.374L173.257 144.323C173 144.323 172.794 144.323 172.794 144.323C172.589 144.117 171.662 144.323 171.096 144.168L170.376 144.477L170.633 144.271C170.273 144.323 170.17 144.168 170.325 144.065C170.17 144.014 170.067 144.117 169.81 144.117L169.913 143.962C169.45 143.911 169.244 144.271 169.604 144.271C168.833 144.631 168.936 144.271 168.575 144.271C168.524 144.734 168.524 145.197 168.472 145.66C168.627 145.557 168.627 145.866 168.627 146.175L168.524 146.226C168.678 147.41 168.267 146.689 168.37 147.873L168.524 148.078C168.781 149.159 168.267 148.644 168.627 149.828C168.627 149.365 168.884 149.622 168.833 150.188L168.73 150.034C168.73 150.342 168.781 150.445 168.781 150.702C168.73 150.497 168.627 150.6 168.627 151.063L168.472 150.754L168.678 151.629C168.575 152.297 168.73 153.429 168.524 153.687C168.524 153.687 168.421 155.179 168.627 155.487C168.524 155.179 168.472 156.002 168.318 155.796C168.421 156.156 168.524 157.34 168.421 157.751V157.648C168.37 158.472 168.421 159.192 168.421 159.912L168.472 160.427V160.684H168.37C168.318 160.993 168.267 161.353 167.907 161.456C167.752 162.536 168.678 161.867 169.09 161.456L169.656 161.919C169.707 162.022 169.862 162.125 170.016 162.125C170.17 162.176 170.325 161.919 170.531 161.919C170.633 161.919 171.354 162.176 171.56 162.227C171.662 162.022 171.817 161.919 172.023 161.816C172.177 162.073 172.743 162.073 173.052 162.022C173.103 161.661 173.052 161.096 172.897 160.632L173 160.53V160.478C173 160.118 173.052 159.809 173.052 159.501C173.103 158.935 173.103 158.472 172.794 158.163C172.743 157.443 172.949 157.34 172.949 156.979L173 157.134C172.949 155.796 172.949 155.436 172.949 154.407C172.897 153.892 172.64 153.841 172.691 152.966C172.794 153.275 172.794 152.915 172.794 152.555C172.794 152.761 172.846 152.812 172.897 152.4C172.846 152.349 172.846 152.246 172.846 152.143C172.794 151.577 172.794 151.68 172.743 151.937C172.743 151.937 172.691 151.937 172.691 152.04C172.846 151.474 172.691 150.445 172.846 150.394C172.846 149.673 172.794 148.902 172.691 148.181V147.924L173.309 147.873C173.463 147.976 173.154 148.027 172.743 148.078H173.72C173.72 148.233 173.154 148.13 172.846 148.181C174.029 148.387 175.264 148.027 176.653 148.027C176.602 148.13 176.499 148.13 176.705 148.644C176.807 149.159 177.373 150.034 177.682 150.651C177.528 150.291 177.682 150.394 177.734 150.497C177.888 150.805 177.837 151.011 177.991 151.268L177.888 151.32C177.991 151.32 178.351 152.092 178.454 152.195C178.402 152.4 178.145 151.731 178.042 151.68C178.608 152.915 178.3 152.297 178.866 153.532C179.277 154.15 178.968 153.378 179.226 153.635C179.483 154.201 179.843 154.767 180.049 155.436L180.1 155.179C180.306 155.59 180.46 155.899 180.615 156.259C180.615 156.259 180.615 156.259 180.615 156.311C180.666 157.545 181.078 158.935 181.85 159.912C182.261 160.427 182.158 160.478 182.313 161.044C182.416 161.559 182.519 161.559 183.033 161.559C183.702 161.61 185.554 161.301 185.76 160.684C185.554 160.632 185.503 160.53 185.297 160.53L185.245 160.427C185.297 160.067 185.503 159.861 185.4 159.501C185.348 159.038 184.937 158.883 184.782 158.574C184.577 158.214 184.679 157.7 184.474 157.34C184.422 157.185 184.165 157.031 184.113 156.928C183.959 156.105 183.753 155.333 183.548 154.51L183.599 154.561C183.033 152.863 182.621 151.834 181.901 150.805C182.107 150.497 181.335 149.468 181.284 149.056L181.335 149.108C181.026 148.644 180.872 148.13 180.666 147.615C180.615 147.41 180.512 147.204 180.46 146.998C180.563 146.947 180.615 146.895 180.666 146.895C181.026 146.689 181.284 146.535 181.335 146.586C183.187 145.455 184.371 142.522 184.216 141.287L184.268 141.39C184.216 140.67 184.319 140.464 184.319 139.692C184.319 139.641 184.371 139.589 184.371 139.589C184.216 138.817 184.165 137.325 183.908 136.759L184.011 136.708C183.856 136.193 183.65 135.73 183.445 135.267L183.65 135.833C183.29 135.782 183.393 134.65 182.519 133.827C181.901 132.901 180.615 132.746 179.843 132.129C179.329 132.026 180.358 132.129 179.586 131.872C179.637 131.717 179.946 131.923 179.843 131.717C179.123 131.46 178.711 131.151 177.734 131.1V130.997C176.499 131.048 175.521 130.637 174.698 130.843C173.515 130.945 173.926 130.482 172.691 130.74L172.228 130.585C171.714 130.534 171.868 130.791 171.251 130.688C171.302 130.585 170.531 130.585 170.839 130.482C170.531 130.431 170.17 130.431 169.862 130.431H169.656C169.604 130.379 169.553 130.379 169.501 130.328L169.604 130.225Z" fill="white"/>
<path fill-rule="evenodd" clip-rule="evenodd" d="M209.736 160.838C209.633 160.53 209.427 160.375 209.376 159.964C209.376 159.861 209.479 159.706 209.427 159.552C209.376 159.346 209.221 159.295 209.119 159.089C208.913 158.523 208.964 157.751 208.758 157.134C208.758 156.979 208.758 156.877 208.707 156.722L208.758 156.774C208.707 156.516 208.655 156.259 208.604 155.95C208.655 155.745 208.604 155.899 208.604 155.899C208.398 154.87 208.192 154.15 207.832 153.378C208.09 153.172 207.575 152.143 207.575 151.783L207.626 151.834C207.215 151.011 207.369 149.931 206.958 149.108C207.009 149.159 207.061 149.159 207.112 149.313C206.906 148.696 206.649 147.873 206.803 147.77C206.392 146.278 205.929 144.168 205.466 143.242L205.517 143.294C205.208 142.779 205.311 142.573 205.054 142.007C205.054 141.956 205.054 141.904 205.054 141.904C204.745 141.338 204.591 140.155 204.385 139.692L204.488 139.641L204.179 138.457L204.282 138.92C203.973 138.817 204.231 137.994 203.819 137.171C203.665 136.348 202.79 135.679 202.739 134.804C202.481 134.444 203.047 135.113 202.79 134.547C202.944 134.496 202.944 134.804 203.047 134.598C202.842 134.084 202.944 133.672 202.739 133.106C202.79 133.055 202.79 132.952 202.842 132.901C202.842 132.746 202.739 132.54 202.636 132.335C202.43 132.026 202.173 131.717 202.07 131.563C201.658 131.563 201.144 131.872 200.835 131.614C200.423 132.026 199.96 131.563 199.497 131.666C199.24 131.717 198.931 131.82 198.725 131.872C198.52 131.923 198.417 131.511 198.057 131.82C197.851 132.026 197.851 132.232 197.851 132.54L197.799 132.592V132.695V132.901L197.542 133.261C197.388 133.672 197.645 133.621 197.491 134.084C197.388 134.032 197.285 134.65 197.233 134.393C196.822 135.422 196.925 136.656 196.307 138.046C196.41 138.406 196.153 139.126 196.204 139.383C196.102 139.383 195.844 140.824 195.844 139.949C195.844 139.898 195.896 139.744 195.896 139.795L195.793 139.692C195.381 140.464 195.536 141.236 195.33 142.007C195.433 141.802 195.484 141.441 195.536 141.699L195.33 142.47L195.278 142.265L194.97 143.397L195.124 143.294C194.918 143.808 194.661 143.962 194.712 144.631C194.764 144.94 195.021 144.168 194.918 144.734C194.661 145.455 194.249 146.535 193.992 147.461C194.146 147.41 194.095 147.667 194.043 147.924H193.941C193.889 148.953 193.58 148.233 193.478 149.262L193.58 149.468C193.58 150.394 193.22 149.879 193.323 150.96C193.375 150.548 193.632 150.857 193.478 151.32L193.375 151.166C193.323 151.423 193.375 151.526 193.272 151.732C193.272 151.577 193.117 151.629 193.066 151.989L192.963 151.68L193.014 152.452C192.757 153.018 192.706 153.944 192.449 154.15C192.449 154.15 192.088 155.385 192.191 155.693C192.14 155.436 191.934 156.105 191.831 155.848C191.883 156.208 191.728 157.185 191.522 157.494V157.443C191.059 158.78 191.111 159.861 190.648 161.096C190.699 161.096 190.699 161.198 190.699 161.301C190.648 161.507 190.596 161.662 190.596 161.867C190.596 161.97 190.596 162.022 190.596 162.073C190.596 162.588 190.545 162.639 191.059 162.793C191.162 162.793 191.214 162.845 191.317 162.845C191.419 162.999 191.471 163.102 191.471 163.051H191.522L191.985 163.102C192.294 163.154 192.551 163.205 192.809 163.256C193.169 163.308 193.478 163.359 193.735 163.256C194.249 163.359 194.815 163.462 194.918 162.742C194.918 162.639 194.918 162.485 194.918 162.382C194.97 162.279 194.97 162.227 195.021 162.176C195.072 162.022 195.175 161.97 195.227 161.816V161.97C195.433 160.838 195.484 160.53 195.69 159.706C195.741 159.295 195.484 159.14 195.741 158.42C195.793 158.677 195.844 158.369 195.896 158.111C195.896 158.266 195.896 158.369 196.05 158.009C196.05 157.957 196.05 157.854 196.05 157.803C196.05 157.803 196.05 157.803 196.102 157.803C196.153 157.34 196.102 157.391 196.05 157.597C196.05 157.597 195.999 157.597 195.947 157.648C196.204 157.185 196.256 156.311 196.41 156.311C196.462 155.95 196.513 155.642 196.565 155.333V155.282C196.719 155.076 196.822 154.921 196.822 154.767C196.77 154.767 196.719 154.819 196.616 154.819L196.667 154.664C196.719 154.613 196.77 154.51 196.77 154.407C196.822 154.201 196.976 153.738 196.976 153.532C196.976 153.584 196.925 153.635 196.925 153.687C196.925 153.635 196.925 153.635 196.925 153.584L196.976 153.326C196.976 153.275 197.028 153.172 197.028 153.121V153.172L197.491 151.011C197.439 150.857 197.542 150.805 197.542 150.548H197.594C197.594 150.497 197.594 150.445 197.594 150.394C197.645 150.239 197.696 150.137 197.696 149.982C197.748 149.828 197.799 149.725 197.748 149.622H197.851L197.954 149.108L197.902 149.262C197.645 149.108 198.16 148.953 198.057 148.542C198.16 148.233 197.594 147.718 197.851 147.41C197.748 147.204 198.057 147.615 198.005 147.358C198.16 147.41 198.057 147.513 198.211 147.461C198.211 147.204 198.468 147.101 198.417 146.792H198.52C198.417 146.329 198.828 146.123 198.725 145.815C198.725 145.403 199.137 145.609 199.034 145.146L199.24 145.043C199.291 144.889 199.086 144.889 199.189 144.683C199.291 144.734 199.343 144.477 199.394 144.58C199.652 144.168 199.394 143.602 199.806 143.088C199.652 142.933 199.806 142.625 199.703 142.522C199.806 142.522 199.857 141.956 199.96 142.316C199.96 142.367 199.96 142.419 199.909 142.367L200.012 142.419C200.32 142.162 200.063 141.802 200.166 141.441C200.115 141.544 200.063 141.647 200.012 141.544L200.115 141.236L200.218 141.338L200.372 140.875L200.218 140.927C200.32 140.721 200.578 140.67 200.475 140.412C200.423 140.258 200.269 140.567 200.269 140.361C200.372 140.207 200.475 140.001 200.578 139.795C200.629 139.795 200.681 139.846 200.732 139.846C200.835 140.104 200.681 140.155 200.681 140.309L200.629 140.258C200.784 140.721 200.835 140.824 200.886 141.184C200.989 141.338 201.247 141.287 201.247 141.596C201.144 141.544 201.195 141.647 201.195 141.75C201.144 141.699 201.144 141.647 201.092 141.853C201.144 141.853 201.144 141.904 201.195 141.904C201.298 142.059 201.298 142.059 201.298 141.956C201.298 141.956 201.349 141.956 201.349 141.904C201.247 142.11 201.504 142.419 201.298 142.522C201.452 143.088 201.761 143.448 201.915 143.86C201.864 143.911 201.71 143.86 201.658 143.705L201.761 144.014C201.658 144.065 201.658 143.86 201.607 143.757C201.504 144.22 202.018 144.528 201.915 145.043L202.018 145.094V145.146C202.07 145.146 202.173 145.197 202.224 145.3C202.121 145.403 201.967 145.352 202.018 145.609C201.967 145.815 202.173 146.123 202.327 146.329C202.327 146.175 202.378 146.226 202.43 146.278C202.481 146.381 202.378 146.484 202.43 146.586L202.276 146.638C202.43 146.535 202.481 146.895 202.584 146.947C202.481 147.05 202.43 146.792 202.378 146.792C202.481 147.255 202.43 146.998 202.584 147.461C202.739 147.667 202.739 147.358 202.893 147.461C202.996 147.667 203.15 147.873 203.099 148.13L203.202 148.027C203.408 148.387 203.459 148.644 203.356 148.953C203.51 149.21 203.665 149.365 203.768 149.571L204.179 151.217L204.385 155.076C204.385 155.127 204.385 155.127 204.385 155.179C204.437 155.282 204.437 155.385 204.437 155.436C204.488 155.59 204.488 155.693 204.642 156.259C204.9 156.825 204.745 156.105 204.951 156.362C205.105 156.877 205.311 157.391 205.363 158.009L205.466 157.803C205.774 158.78 205.929 159.398 205.929 160.067C206.083 160.478 206.237 160.838 206.34 161.147C206.34 161.198 206.34 161.198 206.34 161.25C206.443 161.61 206.289 162.948 206.649 163.154C207.009 163.359 207.935 163.102 208.295 163.051C208.758 162.999 209.787 163.154 209.993 162.639C210.045 162.279 209.787 161.044 209.736 160.838Z" fill="white"/>
</svg>
