<svg width="250" height="250" viewBox="0 0 250 250" fill="none" xmlns="http://www.w3.org/2000/svg">
<rect width="250" height="250" fill="#ED1B2E"/>
<path fill-rule="evenodd" clip-rule="evenodd" d="M210 159.261L197.657 133.749H197.279L184.74 159.261H190.666L192.235 155.605H202.252L203.822 159.261H210ZM200.417 151.373H193.93L197.209 143.626L200.417 151.373ZM179.121 159.261V134.505H173.195V159.261H179.121ZM164.509 160.2V134.491H159.087V148.109L143.648 133.679H143.143V159.261H148.565V145.713L164.004 160.2H164.509ZM136.909 146.848C136.909 143.192 135.648 139.913 133.196 137.461C130.8 134.996 127.648 133.679 124.313 133.679C120.909 133.679 117.757 135.01 115.431 137.461C112.965 139.927 111.718 143.192 111.718 146.848C111.718 150.505 112.979 153.713 115.431 156.305C117.757 158.701 120.979 160.088 124.313 160.088C128.152 160.088 131.879 158.196 134.331 154.988C136.026 152.704 136.909 149.93 136.909 146.848ZM130.8 146.848C130.8 151.261 127.9 154.47 124.313 154.47C120.657 154.47 117.757 151.261 117.757 146.848C117.757 142.435 120.657 139.227 124.313 139.227C127.9 139.227 130.8 142.435 130.8 146.848ZM108.496 159.261V153.909H98.8569V134.505H92.9306V159.261H108.496ZM86.6821 146.848C86.6821 143.192 85.4211 139.913 83.0254 137.461C80.5596 134.996 77.4213 133.679 74.0729 133.679C70.7384 133.679 67.5161 135.01 65.1904 137.461C62.7246 139.927 61.4777 143.192 61.4777 146.848C61.4777 150.505 62.7386 153.713 65.1904 156.305C67.5861 158.701 70.7384 160.088 74.0729 160.088C77.9817 160.088 81.6384 158.196 84.0902 154.988C85.7994 152.704 86.6821 149.93 86.6821 146.848ZM80.5736 146.848C80.5736 151.261 77.7435 154.47 74.0869 154.47C70.4302 154.47 67.5301 151.261 67.5301 146.848C67.5301 142.435 70.4302 139.227 74.0869 139.227C77.7435 139.227 80.5736 142.435 80.5736 146.848ZM57.0084 142.057C57.0084 139.857 55.9436 137.714 54.0523 136.327C51.9787 134.757 49.5129 134.505 46.3606 134.505H40V159.261H45.9263V150.183C46.3046 150.253 46.6829 150.253 47.0612 150.253C53.2957 150.239 57.0084 146.974 57.0084 142.057ZM51.5304 142.239C51.5304 144.382 50.0173 145.643 46.9911 145.643H45.9263V139.03H46.7389C49.9473 139.03 51.5304 139.913 51.5304 142.239Z" fill="white"/>
<path fill-rule="evenodd" clip-rule="evenodd" d="M141.098 104.159H141.728C145.819 104.159 147.837 101.511 147.837 98.8632C147.837 96.2573 145.903 93.6794 142.022 93.6794H138.044V108.726H141.098V104.159ZM141.056 96.6356H142.177C143.928 96.6356 144.782 97.224 144.895 98.9473C144.782 100.769 143.774 101.329 142.022 101.371H141.056V96.6356ZM105.148 96.6356H100.944V93.6934H112.601V96.6356H108.356V108.74H105.148V96.6356ZM124.776 109.189L117.855 93.5393H121.203L124.664 101.441L124.776 101.931L124.888 101.441L128.348 93.5393H131.697L124.776 109.189ZM97.0916 89V113.252H152.446V89H97.0916ZM115.165 112.131H98.3245V90.0788H115.165V112.131ZM133.154 112.131H116.398V90.0788H133.168V112.131H133.154ZM151.227 112.131H134.387V90.0788H151.227V112.131Z" fill="white"/>
</svg>
