<svg width="250" height="250" viewBox="0 0 250 250" fill="none" xmlns="http://www.w3.org/2000/svg">
<rect width="250" height="250" fill="white"/>
<path d="M116.881 172.499C116.84 176.881 116.812 181.262 116.771 185.643C116.702 193.231 116.646 200.818 116.577 208.42C116.577 208.765 116.577 209.124 116.577 209.47C116.564 209.981 116.342 210.119 115.942 209.898C115.734 209.788 115.541 209.663 115.333 209.553C100.573 200.901 85.8953 192.139 71.494 182.893C67.5689 180.363 63.6715 177.793 59.8708 175.07C57.0652 173.066 54.3978 170.896 51.9929 168.409C50.0719 166.432 48.3581 164.304 46.9484 161.927C45.1931 158.983 44.0045 155.845 43.507 152.446C43.1477 149.958 42.8574 147.47 42.8574 144.955C42.8712 136.192 42.8574 127.444 42.9403 118.681C43.0233 108.813 43.2029 98.9455 43.355 89.0775C43.3964 86.106 43.4932 83.1207 43.5761 80.1493C43.5761 80.0111 43.8249 79.8452 43.9631 79.9005C44.1289 79.9696 44.2948 80.0249 44.4468 80.1078C44.9167 80.3566 45.3728 80.6053 45.8289 80.8679C61.7642 89.575 77.7825 98.1024 93.9389 106.395C96.5925 107.749 99.2599 109.076 101.886 110.458C103.379 111.246 104.857 112.089 106.295 112.96C107.235 113.54 108.147 114.19 109.017 114.867C111.657 116.94 113.537 119.566 114.725 122.689C115.596 124.998 116.121 127.375 116.494 129.807C117.185 134.327 117.324 138.874 117.407 143.421C117.462 146.461 117.407 149.488 117.351 152.528C117.282 157.255 117.172 161.982 117.075 166.709C117.033 168.63 116.978 170.565 116.937 172.486C116.937 172.486 116.923 172.486 116.909 172.486L116.881 172.499ZM108.133 154.076H108.216C108.216 153.441 108.216 152.791 108.216 152.155C108.285 147.484 108.382 142.826 108.437 138.155C108.465 135.584 108.395 133.027 108.078 130.471C107.912 129.075 107.677 127.706 107.29 126.352C106.543 123.671 105.051 121.501 102.701 119.953C102.121 119.566 101.527 119.193 100.918 118.847C100.048 118.364 99.177 117.894 98.2925 117.438C93.7316 115.074 89.157 112.752 84.6238 110.361C78.902 107.335 73.2078 104.239 67.4998 101.184C66.9885 100.908 66.4633 100.645 65.9381 100.397C65.869 100.369 65.6755 100.466 65.6617 100.535C65.5926 100.756 65.5649 100.991 65.5649 101.226C65.4958 103.797 65.4129 106.353 65.3853 108.924C65.3162 114.356 65.2609 119.773 65.2194 125.205C65.1918 128.771 65.1503 132.323 65.1641 135.888C65.1641 137.519 65.2194 139.15 65.33 140.781C65.5373 143.946 66.5877 146.821 68.4949 149.35C69.1307 150.179 69.8217 150.981 70.5404 151.741C71.7843 153.067 73.1802 154.215 74.659 155.265C76.1793 156.343 77.6996 157.435 79.2751 158.444C83.2555 161.001 87.2359 163.544 91.2577 166.018C96.2332 169.058 101.264 172.016 106.267 175.015C106.668 175.25 107.082 175.471 107.483 175.692C107.718 175.816 107.981 175.678 107.995 175.443C107.995 174.863 108.022 174.282 108.022 173.688C108.064 167.151 108.105 160.614 108.133 154.076Z" fill="#105EA5"/>
<path d="M206.95 112.034C206.95 115.13 206.908 118.225 206.964 121.321C207.005 123.367 207.116 125.398 207.116 127.444C207.116 132.295 207.13 137.132 207.143 141.983C207.143 144.609 206.922 147.221 206.604 149.833C206.439 151.229 206.204 152.598 205.858 153.952C205.25 156.343 204.269 158.582 203.011 160.697C201.961 162.452 200.758 164.11 199.404 165.644C197.897 167.344 196.266 168.934 194.525 170.426C191.858 172.707 188.983 174.697 186.081 176.673C180.442 180.515 174.678 184.192 168.86 187.771C162.903 191.448 156.919 195.096 150.921 198.717C145.627 201.91 140.279 205.033 134.958 208.171C134.557 208.406 134.128 208.599 133.714 208.793C133.603 208.848 133.34 208.668 133.34 208.53C133.327 207.95 133.285 207.369 133.285 206.789C133.258 200.486 133.244 194.184 133.202 187.882C133.202 186.071 133.078 184.261 133.05 182.464C132.981 176.452 132.94 170.44 132.871 164.428C132.857 162.853 132.719 161.277 132.691 159.701C132.622 153.869 132.594 148.023 132.539 142.191C132.511 138.86 132.636 135.543 132.967 132.226C133.244 129.448 133.617 126.67 134.377 123.961C134.93 121.985 135.69 120.091 136.754 118.336C138.219 115.945 140.182 114.079 142.49 112.517C144.383 111.232 146.373 110.14 148.391 109.09C150.257 108.122 152.137 107.196 154.003 106.229C158.674 103.824 163.345 101.433 168.003 99.0008C172.191 96.8171 176.378 94.6196 180.538 92.3806C186.716 89.0775 192.88 85.7605 199.044 82.4435C200.841 81.4761 202.624 80.481 204.421 79.4997C204.932 79.2233 205.457 78.9745 205.982 78.7257C206.121 78.6566 206.369 78.7948 206.369 78.9469C206.397 79.472 206.425 79.9972 206.438 80.5224C206.48 84.6686 206.508 88.8149 206.563 92.9611C206.591 94.7163 206.701 96.4577 206.729 98.213C206.798 102.829 206.825 107.431 206.867 112.048C206.881 112.048 206.908 112.048 206.922 112.048L206.95 112.034ZM184.09 123.629C184.063 120.409 184.035 116.912 184.007 113.402C184.007 112.932 184.035 112.462 183.98 112.006C183.814 110.721 183.842 109.449 183.828 108.164C183.8 105.123 183.772 102.097 183.745 99.056C183.745 98.8211 183.745 98.5861 183.745 98.3512C183.745 98.1715 183.745 98.0057 183.745 97.826C183.745 96.9276 183.676 96.5545 182.681 97.1073C181.962 97.5081 181.243 97.8675 180.525 98.2544C174.927 101.267 169.344 104.294 163.719 107.266C159.227 109.643 154.707 111.923 150.202 114.259C149.221 114.77 148.267 115.323 147.299 115.876C146.387 116.401 145.558 117.064 144.812 117.797C143.706 118.861 142.918 120.146 142.365 121.584C141.536 123.795 141.218 126.103 141.039 128.425C140.942 129.641 140.997 130.885 140.873 132.101C140.665 134.147 140.707 136.179 140.804 138.224C140.873 139.62 140.942 141.016 140.956 142.412C141.011 147.083 141.052 151.741 141.094 156.412C141.094 157.352 141.052 158.278 141.122 159.218C141.343 162.079 141.232 164.926 141.287 167.787C141.301 168.837 141.287 169.887 141.301 170.938C141.301 171.228 141.343 171.518 141.37 171.808C141.37 171.933 141.661 172.099 141.771 172.043C142.144 171.864 142.517 171.712 142.863 171.504C144.48 170.565 146.097 169.625 147.686 168.671C151.335 166.474 154.984 164.29 158.619 162.065C163.249 159.232 167.851 156.371 172.329 153.302C173.863 152.252 175.397 151.174 176.821 149.972C178.576 148.493 180.124 146.834 181.354 144.913C182.335 143.379 183.109 141.762 183.482 139.965C183.842 138.252 184.09 136.524 184.09 134.769C184.09 131.148 184.09 127.541 184.09 123.643V123.629Z" fill="#EEDC3B"/>
<path d="M125.243 40.0138C128.602 39.9862 131.863 40.5252 135.056 41.5894C138.981 42.8885 142.865 44.3259 146.735 45.7909C157.473 49.868 168.129 54.111 178.785 58.3954C185.004 60.897 191.21 63.4262 197.415 65.9553C197.788 66.1074 198.162 66.2732 198.521 66.4529C198.549 66.4667 198.549 66.7017 198.493 66.7293C198.162 66.9504 197.816 67.1716 197.457 67.3512C192.053 70.0877 186.635 72.8381 181.231 75.5608C167.963 82.2638 154.695 88.9807 141.358 95.5456C139.216 96.5959 137.06 97.6187 134.904 98.6552C133.591 99.291 132.209 99.7609 130.772 100.037C128.463 100.48 126.155 100.632 123.806 100.452C118.526 100.051 113.482 98.6829 108.506 96.9553C102.881 95.0065 97.4497 92.5879 92.101 89.9758C85.3841 86.7003 78.8469 83.1207 72.3512 79.4444C67.279 76.5697 62.2067 73.695 57.1207 70.8341C55.3378 69.839 53.5273 68.8992 51.7306 67.9179C51.5786 67.835 51.468 67.6968 51.3436 67.5724C51.3298 67.5586 51.3436 67.4618 51.3574 67.448C51.6062 67.3098 51.855 67.1439 52.1176 67.0334C55.3378 65.6928 58.5719 64.3521 61.8059 63.0115C74.9357 57.5385 88.0516 52.0655 101.181 46.5787C104.249 45.2933 107.332 44.0633 110.372 42.7227C112.044 41.9902 113.772 41.5065 115.541 41.1195C117.821 40.6219 120.143 40.3179 122.465 40.1106C123.391 40.0276 124.331 40.0415 125.271 40L125.243 40.0138ZM123.336 96.1675C125.285 96.2089 126.432 96.0984 127.579 95.6976C128.298 95.4488 128.989 95.1448 129.666 94.8131C133.743 92.809 137.82 90.805 141.883 88.7596C148.6 85.3873 155.303 81.9874 162.02 78.6013C162.435 78.394 162.836 78.1591 163.236 77.9241C163.278 77.8965 163.306 77.8274 163.333 77.7859C163.402 77.6753 163.361 77.6062 163.209 77.5371C162.891 77.3989 162.573 77.2607 162.241 77.1225C154.267 73.847 146.265 70.6268 138.235 67.5309C135.194 66.3561 132.154 65.1814 129.044 64.1587C126.736 63.3985 124.386 63.1083 121.968 63.3709C121.622 63.4123 121.263 63.4262 120.917 63.4676C118.996 63.6887 117.13 64.0619 115.334 64.822C108.727 67.6 102.107 70.3365 95.5009 73.1007C92.0043 74.5518 88.5215 76.0168 85.0248 77.4818C84.6516 77.6339 84.2647 77.7721 83.8915 77.9517C83.7533 78.0209 83.6427 78.1867 83.5598 78.3249C83.546 78.3526 83.6842 78.5046 83.7671 78.546C85.3427 79.4167 86.9321 80.2875 88.5076 81.172C92.2254 83.2451 95.9156 85.3458 99.6472 87.419C102.909 89.2295 106.24 90.888 109.667 92.3806C112.183 93.4724 114.726 94.4537 117.379 95.1862C119.411 95.739 121.456 96.1813 123.308 96.1675H123.336Z" fill="#DB2922"/>
</svg>
