<svg width="250" height="250" viewBox="0 0 250 250" fill="none" xmlns="http://www.w3.org/2000/svg">
<rect width="250" height="250" fill="#C42127"/>
<path d="M113.064 116.045V138.273C113.064 139.846 112.377 140.638 110.987 140.638C109.597 140.638 108.899 139.851 108.899 138.273V116.045C108.899 114.477 109.597 113.685 110.987 113.685C112.377 113.685 113.064 114.477 113.064 116.045Z" fill="white"/>
<path d="M160.279 179.14C134.81 182.391 108.943 173.412 91.34 159.111C75.5206 146.255 63.8056 132.307 60.5375 128.269C60.028 127.638 60.1554 126.724 60.8145 126.253C65.9824 122.575 87.6235 107.443 120.957 88.0615C140.842 76.4961 156.152 67.689 172.193 70.9183C187.431 73.9869 204.674 88.1281 208.9 113.087C214.134 143.889 201.14 173.928 160.279 179.14ZM124.596 141.125V113.142C124.596 108.6 122.093 106.34 117.086 106.34C113.529 106.34 110.782 107.697 108.854 110.428H108.677V107.099H97.3666V156.131H108.86V144.117H109.037C110.848 146.659 113.535 147.933 117.091 147.933C122.098 147.933 124.602 145.656 124.602 141.125L124.596 141.125ZM155.044 147.047V107.044H143.518V138.09C143.518 139.669 142.847 140.45 141.518 140.45C140.067 140.45 139.341 139.669 139.341 138.09V107.044H127.815V141.004C127.815 145.496 130.318 147.745 135.32 147.745C138.876 147.745 141.596 146.399 143.468 143.712H143.734V147.047H155.039H155.044ZM170.149 97.0348H158.628V147.047H170.149V97.0348ZM200.331 114.876C200.331 112.101 199.135 109.935 196.748 108.384C194.355 106.833 190.987 106.058 186.628 106.058C182.335 106.058 178.99 106.789 176.602 108.246C174.215 109.703 173.019 111.774 173.019 114.461V118C173.019 120.365 173.711 122.287 175.107 123.766C176.01 124.785 178.009 126.27 181.089 128.214C184.54 130.391 186.451 131.621 186.816 131.892C188.14 132.966 188.81 134.119 188.81 135.37V138.982C188.81 140.599 188.101 141.408 186.717 141.408C185.321 141.408 184.628 140.599 184.628 138.982V131.482H173.013V138.91C173.013 141.785 174.209 144.022 176.597 145.623C178.984 147.213 182.357 148.016 186.717 148.016C195.79 148.016 200.331 144.936 200.331 138.777V134.196C200.331 131.925 199.722 130.097 198.509 128.712C197.545 127.599 195.429 126.048 192.161 124.054C188.711 121.922 186.861 120.764 186.622 120.581C185.293 119.518 184.628 118.294 184.628 116.898V114.749C184.628 113.131 185.326 112.317 186.717 112.317C188.107 112.317 188.81 113.131 188.81 114.749V120.997H200.331V114.876Z" fill="white"/>
<path d="M103.243 93.9385C98.0146 97.1455 78.6889 109.005 76.645 110.306C69.9871 114.533 62.7255 118.1 55.8958 116.654C49.3986 115.286 42.0926 109.182 40.3976 98.5081C38.2873 85.3419 44.4744 73.0287 61.4183 70.5195C72.2582 68.9132 83.1478 73.4884 90.7585 79.3542C96.929 84.1178 101.648 89.5572 103.581 91.9278C104.102 92.5647 103.941 93.5064 103.243 93.9385ZM80.2066 82.5392H77.3485L71.9368 98.353L66.5141 82.5392L50.4233 82.5447V85.1203H56.6712V102.646H59.5295V85.1204H64.5034L70.6076 102.646H73.2163L80.2066 82.5392Z" fill="white"/>
</svg>
