<svg width="250" height="250" viewBox="0 0 250 250" fill="none" xmlns="http://www.w3.org/2000/svg">
<rect width="250" height="250" fill="white"/>
<path d="M53.4307 97.7355C54.1494 97.7602 54.6714 98.0217 55.1121 98.4613C55.8143 99.1605 77.2202 120.599 79.4308 122.823C79.7212 123.116 80.0435 123.38 80.3029 123.698C81.1153 124.688 80.5171 126.101 79.852 126.767C79.3505 127.251 55.3417 151.203 55.1759 151.455C54.5591 152.391 53.1352 152.549 52.2765 151.769C51.739 151.281 41.3696 140.94 40.6736 140.211C40.4409 139.967 40.2916 139.633 40.1402 139.323C39.9343 138.902 40.0146 138.354 40.0136 138.277C40.0126 137.868 40.6427 137.256 40.9135 136.985C44.128 133.778 50.9596 126.949 51.1645 126.745C52.3887 125.524 52.017 124.169 51.0893 123.178C50.4973 122.545 43.7007 115.79 40.9269 113.016C40.898 112.987 40.8672 112.959 40.8383 112.929C39.7243 111.767 39.7552 110.774 40.8352 109.595C41.7979 108.544 50.4839 99.9121 51.5568 98.8536C51.8749 98.5396 52.2209 98.2523 52.5699 97.9733C52.676 97.8878 52.8335 97.86 52.9725 97.825C53.1506 97.7787 53.3339 97.7509 53.4307 97.7324V97.7355Z" fill="#E6713B"/>
<path d="M136.696 132.095C136.809 131.727 136.926 131.358 137.035 130.988C138.608 125.645 140.179 120.301 141.753 114.957C142.97 110.819 144.188 106.682 145.404 102.544C145.582 101.936 145.576 101.93 146.189 101.93C150.199 101.93 154.207 101.93 158.216 101.93C158.399 101.93 158.582 101.93 158.823 101.93C158.546 102.712 158.299 103.43 158.036 104.143C156.049 109.545 154.057 114.948 152.068 120.35C150.28 125.21 148.494 130.072 146.706 134.933C145.182 139.078 143.658 143.223 142.133 147.368C141.843 148.152 141.839 148.126 141.036 148.118C139.467 148.102 137.898 148.114 136.329 148.116C134.863 148.118 133.398 148.112 131.934 148.134C131.543 148.14 131.351 148.004 131.215 147.632C130.202 144.86 129.169 142.097 128.14 139.331C126.269 134.302 124.396 129.273 122.526 124.243C120.729 119.408 118.935 114.571 117.137 109.736C116.274 107.415 115.407 105.096 114.542 102.775C114.449 102.526 114.366 102.272 114.265 101.979C114.435 101.96 114.569 101.932 114.705 101.932C118.797 101.93 122.889 101.929 126.981 101.931C127.531 101.931 127.541 101.934 127.7 102.465C128.61 105.486 129.518 108.509 130.422 111.532C131.402 114.814 132.38 118.095 133.355 121.378C134.336 124.681 135.312 127.986 136.294 131.29C136.375 131.564 136.472 131.833 136.561 132.103C136.607 132.101 136.653 132.098 136.698 132.096L136.696 132.095Z" fill="#176990"/>
<path d="M114.456 112.865C114.204 112.865 113.984 112.865 113.765 112.865C112.07 112.864 110.376 112.862 108.682 112.861C107.998 112.861 107.995 112.862 107.995 113.534C107.994 124.836 107.993 136.139 107.992 147.441C107.992 147.564 107.987 147.689 107.995 147.812C108.012 148.061 107.881 148.138 107.656 148.135C107.243 148.129 106.83 148.133 106.416 148.132C103.876 148.122 101.336 148.11 98.7962 148.105C97.8262 148.103 96.8553 148.118 95.8854 148.127C95.4169 148.132 95.3953 148.116 95.3881 147.659C95.3829 147.349 95.386 147.039 95.386 146.729C95.386 135.675 95.386 124.621 95.3871 113.567C95.3871 113.485 95.3891 113.401 95.386 113.319C95.3685 112.895 95.3613 112.886 94.9155 112.867C94.7713 112.861 94.6262 112.864 94.482 112.864C90.6178 112.864 86.7547 112.864 82.8905 112.865C82.7041 112.865 82.5188 112.853 82.3324 112.861C82.0915 112.871 81.9957 112.757 82.007 112.525C82.0132 112.401 82.007 112.277 82.007 112.153C82.006 108.972 82.004 105.789 82.0029 102.608C82.0029 102.484 82.0132 102.36 82.006 102.236C81.9937 102.022 82.1028 101.939 82.3026 101.938C82.4889 101.938 82.6742 101.931 82.8606 101.931C91.8482 101.931 100.837 101.931 109.824 101.931C110.445 101.931 110.456 101.93 110.648 102.447C111.899 105.812 113.146 109.179 114.392 112.546C114.42 112.621 114.424 112.703 114.456 112.867V112.865Z" fill="#176990"/>
<path d="M198.354 106.925C198.279 106.847 198.229 106.81 198.198 106.76C197.583 105.767 196.633 105.514 195.566 105.657C194.6 105.786 193.973 106.407 193.645 107.304C193.298 108.252 193.301 109.206 193.749 110.132C194.168 110.999 194.847 111.535 195.816 111.593C196.808 111.653 197.643 111.324 198.168 110.413C198.188 110.379 198.223 110.353 198.281 110.29C198.999 110.719 199.719 111.155 200.444 111.58C200.642 111.696 200.639 111.832 200.516 111.982C200.259 112.302 200.034 112.668 199.719 112.917C198.02 114.262 196.096 114.629 194.07 113.892C192.075 113.168 190.933 111.633 190.474 109.57C189.905 107.008 191.422 103.916 194.603 103.189C196.378 102.784 198.098 102.994 199.58 104.199C199.628 104.239 199.675 104.28 199.72 104.322C200.688 105.219 200.683 105.292 199.612 106.041C199.193 106.335 198.775 106.629 198.352 106.926L198.354 106.925Z" fill="#176990"/>
<path d="M203.06 147.302C202.251 145.886 201.439 144.471 200.627 143.059C198.384 139.158 196.137 135.259 193.894 131.358C193.579 130.81 193.579 130.797 194.082 130.416C195.376 129.433 196.482 128.269 197.394 126.927C199.334 124.075 200.241 120.911 200.257 117.471C200.259 117.015 200.076 116.809 199.701 116.639C199.435 116.518 199.225 116.617 198.991 116.691C196.141 117.599 193.428 117.375 190.99 115.552C188.624 113.782 187.411 111.362 187.417 108.405C187.421 106.332 188.159 104.491 189.535 102.922C189.638 102.804 189.732 102.677 189.857 102.518C189.533 102.4 189.268 102.289 188.994 102.207C187.481 101.747 185.931 101.579 184.351 101.582C177.635 101.593 170.921 101.587 164.206 101.585C163.337 101.585 163.486 101.581 163.486 102.327C163.484 117.223 163.485 132.12 163.486 147.017C163.486 147.161 163.493 147.306 163.485 147.45C163.474 147.679 163.559 147.799 163.806 147.786C163.991 147.776 164.177 147.787 164.364 147.787C168 147.787 171.636 147.787 175.272 147.784C176.135 147.784 176.1 147.918 176.1 146.949C176.099 142.692 176.098 138.437 176.098 134.18C176.098 133.562 176.109 133.55 176.719 133.549C177.959 133.546 179.198 133.56 180.438 133.542C180.816 133.537 181.039 133.664 181.225 133.999C181.854 135.137 182.515 136.257 183.161 137.384C185.061 140.697 186.966 144.005 188.85 147.326C189.053 147.684 189.277 147.797 189.678 147.796C193.707 147.782 197.736 147.787 201.765 147.787H203.296C203.202 147.592 203.141 147.443 203.062 147.303L203.06 147.302ZM186.924 120.331C186.679 120.863 186.315 121.362 185.919 121.798C185.432 122.332 184.788 122.578 184.033 122.572C181.555 122.553 179.078 122.566 176.6 122.565C176.116 122.565 176.105 122.561 176.103 122.043C176.098 120.556 176.101 119.07 176.101 117.584H176.098C176.098 116.117 176.095 114.652 176.099 113.186C176.101 112.57 176.108 112.564 176.712 112.563C179.066 112.559 181.419 112.566 183.773 112.554C184.693 112.549 185.384 113.003 186.009 113.598C186.688 114.242 187.117 115.039 187.277 115.958C187.534 117.443 187.568 118.928 186.924 120.331Z" fill="#176990"/>
<path d="M209.999 114.036H201.297V111.947L206.22 105.506H201.517V103.117H209.999V105.199L205.059 111.648H209.999V114.036Z" fill="#176990"/>
</svg>
