<svg width="250" height="250" viewBox="0 0 250 250" fill="none" xmlns="http://www.w3.org/2000/svg">
<rect width="250" height="250" fill="#ACEEFF"/>
<path d="M71.3035 147.967C70.6543 153.148 71.3441 158.112 71.5876 163.306C61.8352 162.968 52.0965 161.845 42.0736 163.238C41.6137 162.914 41.7896 162.089 41.749 161.372C40.4099 138.107 39.4361 114.842 40.3694 91.5366C40.4235 90.2652 40.1529 88.9667 42.0736 88.5474C59.5629 84.8412 76.8357 84.6383 93.6621 91.5907C99.059 93.8225 103.915 96.9741 107.499 101.681C112.626 108.417 114.776 115.897 111.76 124.162C109.65 129.937 104.916 133.454 99.9923 136.7C99.2484 137.201 98.4639 137.634 97.4224 138.256C102.968 146.223 109.461 153.351 115.06 161.358C113.613 162.008 112.288 161.926 111.03 161.98C101.791 162.346 92.553 162.643 83.3011 162.508C81.2993 162.481 79.9602 161.845 78.9052 160.06C76.4705 155.961 73.8599 151.985 71.317 147.954L71.3035 147.967ZM68.8688 118.968C69.0717 120.753 69.2475 122.552 69.4775 124.337C69.6128 125.406 70.1538 125.906 71.3306 125.609C74.4145 124.824 77.2009 123.485 79.4192 121.172C81.0017 119.536 81.2993 117.534 80.5554 115.397C79.7979 113.246 78.2153 112.204 75.9971 112.123C74.401 112.056 72.8049 112.096 71.2224 112.069C69.8968 112.042 69.207 112.543 69.1123 113.99C69.0041 115.654 68.8147 117.304 68.8688 118.981V118.968Z" fill="#403466"/>
<path d="M117.076 162.156C117.373 147.94 117.657 134.279 117.955 120.334C125.475 119.874 132.766 120.239 139.935 120.726V162.156H117.076Z" fill="#403466"/>
<path d="M171.491 145.127C171.829 150.74 172.154 155.907 172.479 161.237C164.106 161.683 155.95 162.102 147.428 162.549C147.618 137.796 145.805 113.178 147.523 88.385C156.031 88.0469 164.471 87.7087 173.277 87.3571C172.614 98.719 171.965 110.027 171.275 121.808C178.579 114.166 185.599 106.808 192.795 99.26C196.88 106.618 200.856 113.814 204.982 121.253C199.585 126.082 193.593 130.221 187.817 134.982C195.175 142.76 202.52 150.51 210 158.41C208.133 159.113 206.334 159.154 204.603 159.411C198.625 160.263 192.619 160.912 186.586 161.372C183.272 161.629 181.041 160.574 179.35 157.72C176.929 153.608 174.305 149.604 171.478 145.113L171.491 145.127Z" fill="#403466"/>
<path d="M117.603 103.061C117.603 96.2978 122.919 90.982 129.723 90.955C136.553 90.9279 142.085 96.4195 142.045 103.142C142.004 109.878 136.648 115.167 129.858 115.18C122.919 115.194 117.617 109.946 117.603 103.061Z" fill="#403466"/>
<path d="M68.0167 159.925C67.0428 159.87 66.0689 159.83 65.1086 159.776C61.2266 159.573 57.2093 159.356 53.1921 159.356C50.4598 159.356 47.9169 159.451 45.5228 159.668C44.3054 138.134 43.3451 115.14 44.2513 92.2535C51.6501 90.7521 58.3996 90.0217 64.8786 90.0217C74.8609 90.0217 83.9233 91.7666 92.58 95.351C98.0175 97.5963 102.062 100.531 104.929 104.292C109.799 110.676 111.016 116.912 108.663 123.35C106.918 128.125 102.765 131.168 98.3016 134.117C97.8823 134.401 97.4089 134.671 96.8543 135.009C96.5432 135.199 96.2186 135.388 95.8534 135.605L92.5665 137.593L94.7577 140.745C97.6253 144.856 100.75 148.765 103.766 152.553C105.416 154.622 107.107 156.746 108.757 158.897C102.211 159.154 95.2853 159.356 88.3599 159.356C86.7503 159.356 85.1677 159.356 83.6393 159.316C82.6925 159.302 82.6113 159.181 82.3002 158.64C80.5418 155.677 78.6752 152.742 76.8627 149.902C76.1188 148.752 75.3884 147.589 74.658 146.439L69.2746 137.918L68.0302 147.913C67.5027 152.093 67.7732 156.07 68.0437 159.925H68.0167ZM71.4117 108.85C68.206 108.85 66.0013 110.92 65.7984 114.139C65.7713 114.544 65.7443 114.95 65.7037 115.343C65.5955 116.655 65.5008 118.021 65.5414 119.468V119.617L65.5685 119.766C65.6226 120.293 65.6902 120.821 65.7443 121.335C65.8795 122.593 66.0283 123.891 66.1907 125.19C66.6235 128.503 69.0582 129.694 71.0059 129.694C71.4929 129.694 71.9933 129.626 72.5073 129.491C76.5787 128.463 79.7708 126.691 82.3002 124.067C84.789 121.483 85.4789 118.129 84.248 114.599C83.0442 111.122 80.1902 109.053 76.4164 108.904C75.429 108.864 74.4551 108.864 73.5083 108.864C72.8455 108.864 72.2098 108.864 71.574 108.85C71.5199 108.85 71.4523 108.85 71.3982 108.85H71.4117Z" fill="#E85656"/>
<path d="M68.0167 159.925C60.6315 159.695 52.5834 159.438 45.1982 160.019C43.6021 137.458 42.5471 114.829 43.291 92.2129L43.3181 91.469L44.062 91.3202C52.8404 89.5077 61.8759 88.5744 70.8842 89.2101C81.9756 90.2111 93.838 92.8351 102.63 100.166C111.719 108.201 114.546 122.552 104.321 130.952C101.359 133.603 96.4756 136.362 93.067 138.432L93.3646 137.025C95.8804 140.717 98.4369 144.302 101.21 147.805C101.67 148.373 110.38 159.613 110.489 159.722L108.798 159.749C101.291 159.749 90.4835 160.222 83.0848 159.938C82.2461 159.897 81.8945 159.208 81.5293 158.572C81.0153 157.733 79.5545 155.366 79.0269 154.487C76.9169 151.024 71.1818 141.678 68.9906 138.12L69.6263 137.985C68.5713 145.289 67.3539 152.553 68.0573 159.952L68.0167 159.925ZM68.0167 159.925C66.9752 152.255 68.152 144.559 69.0176 136.917L69.5451 137.728L76.5381 148.454C78.6753 151.714 80.88 155.258 82.9766 158.545C83.0307 158.612 83.0307 158.612 83.0307 158.612C83.0307 158.612 83.1118 158.64 83.2065 158.653C85.2084 158.68 87.4807 158.694 89.5232 158.626C93.6216 158.504 104.47 158.166 108.69 158.031L108.04 159.397L99.6677 148.955C96.6514 145.195 93.838 141.218 91.1057 137.268C94.7037 135.05 99.8165 132.182 102.941 129.383C109.88 123.891 110.326 113.611 105.24 106.659C101.778 101.113 95.9886 97.6369 89.9154 95.4592C75.429 89.8864 59.4817 90.0893 44.4137 93.1733L45.1847 92.267C44.1702 114.707 44.9006 137.174 45.8474 159.613L45.4687 159.289C52.7863 158.883 60.7126 159.411 68.0032 159.911L68.0167 159.925Z" fill="#C13D3D"/>
<path d="M71.4117 108.85C67.1645 108.85 65.582 112.326 65.9472 116.127C65.9743 116.1 65.9878 119.752 66.0013 119.576C66.3395 121.321 66.6641 124.121 67.0969 125.798C69.0988 132.074 78.6076 126.245 81.5428 123.431C86.331 119.319 84.2074 110.257 77.7961 109.161C75.9971 108.782 73.2783 108.958 71.4117 108.85ZM71.4117 108.85C73.3054 108.918 75.97 108.728 77.8366 108.958C79.9602 109.269 82.0568 110.351 83.4364 112.137C90.0913 121.24 80.0414 130.099 70.9789 130.722C67.6515 130.749 65.2709 127.597 65.4332 124.486L65.325 122.877C65.325 122.836 65.1221 119.671 65.1221 119.63L65.4332 116.086C65.4873 112.259 67.1104 108.782 71.4253 108.85H71.4117Z" fill="#C13D3D"/>
<path d="M121.039 158.951L121.769 124.175C122.96 124.134 124.163 124.121 125.421 124.121C129.276 124.121 133.023 124.283 136.607 124.5V158.951H121.039Z" fill="#FFEC00"/>
<path d="M121.039 158.951C120.931 150.903 120.85 141.069 120.85 132.994C120.823 129.788 120.89 126.556 120.904 123.323C123.338 123.228 126.733 123.188 129.195 123.323C129.723 123.35 137.216 123.566 137.541 123.58V124.5C137.541 136.159 137.392 147.819 137.121 159.478C132.32 159.438 125.868 159.072 121.025 158.937L121.039 158.951ZM121.039 158.951C125.57 158.775 132.171 158.531 136.607 158.423L136.08 158.951C135.796 147.467 135.661 135.983 135.674 124.513L136.567 125.46L129.182 125.176C127.342 125.068 123.649 125.014 121.81 125.041L122.649 124.189C122.31 135.415 121.634 147.683 121.052 158.937L121.039 158.951Z" fill="#FFBC00"/>
<path d="M151.324 159.154C151.324 151.376 151.148 143.558 150.986 135.97C150.675 121.646 150.35 106.862 151.189 92.267L169.719 91.5231L167.379 131.804L192.294 105.698L200.694 120.848C198.232 122.917 195.662 124.892 192.984 126.948C190.631 128.76 188.196 130.627 185.802 132.602L182.826 135.064L203.061 156.421C197.664 157.165 192.132 157.747 186.6 158.166C186.37 158.18 186.154 158.193 185.951 158.193C184.368 158.193 183.597 157.733 182.745 156.286C181.027 153.378 179.242 150.551 177.348 147.562C176.523 146.277 175.684 144.951 174.832 143.585L168.177 145.722L168.935 158.207L151.324 159.126V159.154Z" fill="#32D0EA"/>
<path d="M151.324 159.154C150.932 139.162 149.403 111.352 150.553 91.6313L151.162 91.6042L169.692 90.7386L170.558 90.698L170.504 91.5772L168.259 131.871L166.73 131.209C175.035 122.498 183.272 113.733 191.618 105.076L192.497 104.17C192.957 105.009 201.289 120.104 201.83 121.105C196.42 125.406 188.629 131.384 183.354 135.726L183.435 134.509C190.495 141.989 197.542 149.482 204.549 157.003L203.156 157.138C200.126 157.449 192.565 158.193 189.643 158.477C188.196 158.518 186.478 158.978 185.004 158.721C183.191 158.531 182.339 156.692 181.528 155.38L179.174 151.538L174.44 143.856L174.967 144.045L168.286 146.101L168.543 145.722L169.165 158.22V158.464H168.948L151.324 159.154ZM151.324 159.154L168.921 157.99L168.705 158.234L167.799 145.763L167.772 145.479C167.947 145.425 174.873 143.112 175.008 143.071C177.876 147.426 180.811 152.282 183.651 156.665C184.923 158.396 187.695 157.314 189.522 157.26L193.999 156.746L202.953 155.731L202.534 156.922C195.527 149.645 188.548 142.327 181.595 134.996C186.884 130.586 194.675 124.54 200.112 120.185L199.91 121.294L191.483 106.158L192.957 106.348C184.693 115.086 176.32 123.729 168.015 132.426L166.351 134.171L166.5 131.763L168.935 91.4825L169.746 92.3076L151.216 92.9163L151.851 92.2941C150.539 113.814 151.513 137.512 151.324 159.14V159.154Z" fill="#27A4D6"/>
<path d="M130.101 111.961C125.191 111.961 121.485 108.295 121.485 103.44C121.485 98.6919 125.218 94.9587 130.007 94.9452H130.034C132.387 94.9452 134.592 95.865 136.242 97.5151C137.852 99.1248 138.718 101.262 138.704 103.507C138.677 108.241 134.903 111.947 130.115 111.961H130.088H130.101Z" fill="#FFEC00"/>
<path d="M130.101 111.961C122.297 112.218 118.036 102.533 123.392 96.8253C126.801 93.0786 133.307 93.0921 136.716 96.8253C142.234 102.466 137.865 112.164 130.101 111.961ZM130.101 111.961C137.433 112.123 141.112 102.736 135.579 98.0021C130.764 93.4709 122.148 96.7036 121.959 103.48C121.553 108.011 125.516 112.11 130.101 111.961Z" fill="#FFBC00"/>
<path d="M133.672 105.252C135.644 105.252 137.243 103.653 137.243 101.681C137.243 99.709 135.644 98.1103 133.672 98.1103C131.7 98.1103 130.101 99.709 130.101 101.681C130.101 103.653 131.7 105.252 133.672 105.252Z" fill="#FFF5CA"/>
<path d="M129.817 125.379C131.197 125.419 135.35 125.69 135.35 125.69V145.303C135.35 145.303 135.255 131.412 132.36 128.071C130.832 126.299 124.366 125.365 124.366 125.365C124.366 125.365 128.451 125.325 129.817 125.365V125.379Z" fill="#FFF5CA"/>
<path d="M152.095 93.1868L168.8 92.4564L167.041 116.546C167.041 116.546 167.596 100.721 163.998 96.7036C161.468 93.8766 152.108 93.1868 152.108 93.1868H152.095Z" fill="#5EF1FC"/>
<path d="M179.282 121.226L192.132 107.809L196.379 115.762C196.379 115.762 193.485 113.003 191.645 112.867C187.479 112.543 179.282 121.24 179.282 121.24V121.226Z" fill="#5EF1FC"/>
<path d="M92.9994 140.677L107.148 158.234L90.8893 158.315C90.8893 158.315 97.5577 157.706 98.8426 155.109C100.939 150.876 92.9994 140.69 92.9994 140.69V140.677Z" fill="#F27D75"/>
<path d="M85.2895 93.9848C71.6552 90.0893 56.6007 91.3067 45.5499 93.3762L45.2117 104.332C45.2117 104.332 45.2793 102.831 46.2262 101.181C46.9431 99.9228 48.5797 98.3673 50.2028 97.0147C52.624 94.9993 57.3717 93.3762 69.748 93.2815C75.2667 93.6737 80.7853 94.3906 84.8567 95.608C99.0997 99.8822 105.944 108.85 105.944 108.85C105.944 108.85 101.927 98.7325 85.2895 93.9848Z" fill="#F27D75"/>
<path d="M85.8305 117.967C85.8305 117.967 85.6006 127.151 72.9537 130.938C72.9537 130.938 78.0395 131.804 83.247 126.772C83.247 126.772 87.1967 123.796 85.8305 117.967Z" fill="#F27D75"/>
<path d="M45.5228 143.098L45.9015 159.154L53.7196 158.951C53.7196 158.951 48.9314 159.194 47.2947 154.176C47.2947 154.176 45.8068 149.063 45.5228 143.098Z" fill="#F27D75"/>
<path d="M121.607 150.375L121.039 158.951L126.963 158.64C126.963 158.64 123.758 158.626 122.446 155.109C121.769 153.283 121.607 150.375 121.607 150.375Z" fill="#FFF5CA"/>
<path d="M151.446 143.653L151.324 159.154L161.266 158.423C161.266 158.423 153.677 157.382 152.609 152.472C152.081 150.05 151.432 143.666 151.432 143.666L151.446 143.653Z" fill="#5EF1FC"/>
<path d="M192.01 146.453C192.01 146.453 197.096 153.148 192.01 156.813L200.816 155.691L192.01 146.453Z" fill="#5EF1FC"/>
</svg>
