<svg width="284" height="284" viewBox="0 0 284 284" fill="none" xmlns="http://www.w3.org/2000/svg">
<rect width="283.5" height="283.5" fill="#262634"/>
<g clip-path="url(#clip0_49_8)">
<path d="M129.824 159.998C129.282 164.348 129.857 168.513 130.062 172.876C121.876 172.595 113.698 171.653 105.284 172.821C104.902 172.547 105.05 171.855 105.015 171.255C103.896 151.731 103.08 132.201 103.857 112.638C103.9 111.569 103.678 110.477 105.292 110.134C119.967 107.025 134.467 106.851 148.592 112.695C153.118 114.567 157.198 117.215 160.204 121.161C164.512 126.821 166.308 133.097 163.778 140.028C162.008 144.877 158.029 147.831 153.901 150.557C153.273 150.97 152.613 151.34 151.744 151.864C156.399 158.551 161.849 164.532 166.552 171.255C165.334 171.798 164.22 171.734 163.165 171.776C155.408 172.085 147.652 172.333 139.885 172.216C138.204 172.192 137.086 171.657 136.201 170.164C134.163 166.723 131.961 163.38 129.826 159.998H129.824ZM127.782 135.659C127.952 137.161 128.103 138.664 128.299 140.161C128.416 141.061 128.866 141.481 129.861 141.23C132.452 140.575 134.786 139.443 136.649 137.512C137.972 136.14 138.233 134.461 137.605 132.661C136.973 130.851 135.638 129.985 133.773 129.913C132.437 129.86 131.1 129.894 129.762 129.868C128.648 129.846 128.065 130.268 127.986 131.476C127.895 132.871 127.734 134.257 127.78 135.661L127.782 135.659Z" fill="#403466"/>
<path d="M168.243 171.915C168.493 159.984 168.734 148.511 168.978 136.803C175.291 136.42 181.415 136.727 187.426 137.138V171.915H168.241H168.243Z" fill="#403466"/>
<path d="M213.922 157.619C214.209 162.329 214.473 166.667 214.746 171.144C207.722 171.514 200.869 171.875 193.72 172.25C193.884 151.473 192.352 130.81 193.797 109.999C200.938 109.714 208.028 109.432 215.416 109.137C214.861 118.671 214.31 128.167 213.735 138.06C219.861 131.642 225.755 125.467 231.804 119.129C235.23 125.31 238.576 131.347 242.038 137.592C237.512 141.648 232.474 145.125 227.629 149.118C233.812 155.646 239.972 162.151 246.252 168.782C244.68 169.371 243.18 169.411 241.724 169.619C236.699 170.335 231.659 170.88 226.596 171.265C223.814 171.477 221.937 170.596 220.527 168.2C218.493 164.744 216.289 161.388 213.924 157.617L213.922 157.619Z" fill="#403466"/>
<path d="M168.688 122.301C168.683 116.621 173.149 112.158 178.855 112.138C184.586 112.118 189.237 116.718 189.203 122.372C189.166 128.028 184.675 132.465 178.97 132.479C173.149 132.493 168.692 128.082 168.688 122.303V122.301Z" fill="#403466"/>
<path d="M127.07 170.035C126.251 169.994 125.434 169.95 124.629 169.907C121.372 169.734 118.004 169.552 114.623 169.552C112.326 169.552 110.198 169.637 108.184 169.809C107.163 151.735 106.358 132.437 107.114 113.225C113.327 111.964 118.995 111.351 124.425 111.351C132.801 111.351 140.406 112.812 147.674 115.818C152.24 117.707 155.63 120.163 158.036 123.322C162.118 128.686 163.145 133.918 161.173 139.318C159.708 143.329 156.222 145.883 152.471 148.357C152.115 148.591 151.716 148.827 151.254 149.102C150.993 149.255 150.717 149.419 150.416 149.602L147.652 151.273L149.496 153.922C151.899 157.373 154.523 160.66 157.061 163.838C158.451 165.577 159.868 167.353 161.25 169.159C155.749 169.369 149.938 169.546 144.129 169.546C142.781 169.546 141.447 169.536 140.168 169.518C139.373 169.506 139.308 169.399 139.042 168.949C137.567 166.459 135.995 163.999 134.474 161.62C133.854 160.652 133.235 159.683 132.621 158.711L128.106 151.556L127.058 159.95C126.62 163.457 126.846 166.798 127.07 170.033V170.035ZM129.915 127.164C127.23 127.164 125.379 128.906 125.204 131.603C125.182 131.942 125.156 132.279 125.129 132.618C125.043 133.724 124.954 134.868 124.994 136.087L124.998 136.206L125.012 136.325C125.063 136.765 125.109 137.205 125.158 137.645C125.273 138.7 125.392 139.792 125.535 140.877C125.898 143.664 127.942 144.653 129.583 144.653C129.986 144.653 130.41 144.598 130.842 144.487C134.254 143.624 136.944 142.134 139.066 139.937C141.155 137.774 141.736 134.951 140.703 131.989C139.688 129.075 137.293 127.334 134.131 127.211C133.297 127.178 132.478 127.176 131.687 127.176C131.126 127.176 130.596 127.176 130.065 127.164C130.014 127.164 129.966 127.164 129.918 127.164H129.915Z" fill="#E85656"/>
<path d="M127.07 170.035C120.722 169.869 114.096 169.568 107.788 170.281C107.07 160.714 106.462 151.14 106.111 141.549C105.768 131.807 105.665 122.047 106.014 112.299C119.233 109.361 133.418 108.982 146.239 113.873C149.899 115.213 153.435 116.956 156.365 119.594C158.572 121.589 160.33 124.041 161.655 126.7C163.713 130.831 163.996 135.639 162.285 139.947C160.443 144.705 155.983 147.623 151.869 150.147C151.12 150.585 149.04 151.828 148.263 152.29L148.622 150.597C151.594 155.077 155.269 159.839 158.61 164.08C159.395 165.105 162.513 169.133 163.269 170.119L161.286 170.176C155.009 170.349 148.719 170.491 142.438 170.341C141.986 170.339 140.852 170.303 140.416 170.299C139.508 170.299 138.822 170.236 138.362 169.288L138.194 168.999C134.847 163.323 131.124 157.427 127.744 151.786L128.525 151.612C128.172 154.247 127.532 158.186 127.197 160.791C126.824 163.854 126.937 166.957 127.068 170.037L127.07 170.035ZM127.07 170.035C126.767 166.949 126.501 163.848 126.739 160.745C126.979 158.132 127.417 154.154 127.683 151.505L127.805 150.331C129.994 153.654 132.169 157.002 134.364 160.315C136.142 163.015 138.259 166.16 139.772 168.731C143.245 168.769 146.951 168.675 150.485 168.576C154.058 168.471 157.632 168.319 161.207 168.146L160.438 169.778C157.03 165.486 153.197 160.932 149.95 156.55C148.691 154.845 147.182 152.661 145.951 150.924C147.71 149.838 150.025 148.444 151.776 147.356C155.202 145.046 158.873 142.49 160.128 138.434C160.679 136.813 160.921 135.092 160.842 133.383C160.677 130.562 159.575 127.889 158.009 125.55C157.049 124.079 155.923 122.713 154.609 121.543C151.964 119.16 148.669 117.519 145.331 116.294C133.247 111.672 119.891 111.821 107.336 114.339L108.242 113.274C108.038 117.971 107.887 122.675 107.826 127.382C107.649 141.519 108.064 155.66 108.607 169.786L108.143 169.383C114.36 168.961 120.855 169.54 127.066 170.035H127.07Z" fill="#C13D3D"/>
<path d="M129.915 127.164C127.552 127.152 125.663 128.684 125.433 131.073C125.351 132.729 125.316 134.551 125.504 136.188C125.649 136.86 125.839 137.982 126.011 138.795C126.095 139.221 126.315 140.355 126.398 140.768C126.42 140.843 126.489 141.107 126.509 141.184C126.915 142.576 128.105 143.504 129.562 143.434C130.294 143.4 131.073 143.101 131.781 142.875C132.578 142.607 133.351 142.29 134.098 141.931C135.585 141.216 136.963 140.286 138.172 139.156C138.598 138.763 138.985 138.323 139.306 137.843C141.263 134.993 140.545 130.528 137.667 128.48C136.782 127.858 135.704 127.469 134.616 127.33C134.179 127.261 133.067 127.235 132.607 127.217C131.711 127.174 130.813 127.178 129.917 127.16L129.915 127.164ZM129.915 127.164C130.813 127.162 131.709 127.172 132.607 127.16C133.503 127.168 134.403 127.094 135.309 127.227C136.211 127.352 137.098 127.626 137.926 128.06C140.494 129.444 141.955 132.354 142.034 135.238C142.147 139.39 138.705 142.572 135.244 144.287C134.378 144.715 133.478 145.058 132.568 145.339C131.566 145.621 130.615 145.92 129.542 145.873C127.009 145.801 124.967 143.896 124.713 141.386C124.677 141.158 124.653 140.561 124.647 140.32C124.596 138.995 124.536 137.538 124.493 136.226C124.57 134.503 124.85 132.719 125.103 131.022C125.571 128.643 127.506 127.13 129.917 127.166L129.915 127.164Z" fill="#C13D3D"/>
<path d="M171.571 169.215L172.183 140.028C173.177 139.998 174.196 139.983 175.252 139.983C178.484 139.983 181.638 140.123 184.639 140.302V169.215H171.571Z" fill="#FFEC00"/>
<path d="M171.571 169.215C171.391 162.234 171.175 154.423 171.151 147.476C171.123 144.921 171.159 141.604 171.165 139.031C171.799 139.019 174.608 138.936 175.3 138.92C178.785 138.886 182.277 139.047 185.752 139.253L185.75 140.302C185.75 147.465 185.673 154.816 185.5 161.988C185.445 164.102 185.336 167.763 185.256 169.875C181.24 169.78 175.629 169.415 171.573 169.215H171.571ZM171.571 169.215C174.513 169.072 178.53 168.856 181.47 168.709C182.536 168.65 183.587 168.618 184.64 168.578L184.003 169.215C183.654 159.647 183.535 149.869 183.53 140.302L184.574 141.41C180.514 141.144 176.291 141.006 172.215 141.051L173.207 140.05C173.127 142.425 173.026 144.798 172.911 147.175C172.574 154.156 172.029 162.197 171.573 169.217L171.571 169.215Z" fill="#FFBC00"/>
<path d="M196.996 169.387C196.996 162.857 196.853 156.297 196.714 149.925C196.451 137.899 196.181 125.49 196.881 113.242L212.436 112.622L210.471 146.438L231.388 124.525L238.438 137.243C236.376 138.981 234.219 140.637 231.967 142.368C229.989 143.888 227.945 145.458 225.94 147.112L223.438 149.175L240.421 167.107C235.891 167.728 231.248 168.223 226.601 168.576C226.414 168.59 226.232 168.598 226.063 168.598C224.739 168.598 224.085 168.208 223.371 166.994C221.932 164.548 220.427 162.181 218.835 159.675C218.147 158.592 217.443 157.484 216.724 156.338L211.139 158.13L211.779 168.61L196.998 169.387H196.996Z" fill="#32D0EA"/>
<path d="M196.997 169.387C196.591 150.66 195.189 131.932 196.085 113.197L196.119 112.479C197.031 112.432 212.616 111.69 213.418 111.649C213.089 117.86 212.34 131.997 212.017 138.046L211.545 146.501L209.697 145.698C216.069 139.023 225.294 129.269 231.63 122.689L232.351 123.994L239.381 136.725L239.808 137.5C238.356 138.728 236.862 139.935 235.367 141.093C231.737 143.9 227.617 147.032 224.08 149.949L224.17 148.486C228.941 153.563 237.429 162.641 242.167 167.738C237.857 168.307 233.519 168.792 229.187 169.123C228.462 169.179 227.02 169.286 226.309 169.31C224.846 169.401 223.662 168.858 222.921 167.563C222.77 167.319 222.354 166.586 222.197 166.32C220.948 164.159 217.631 158.836 216.277 156.622L216.892 156.846L211.281 158.557L211.591 158.103L212.068 168.594L212.082 168.888C207.663 169.008 201.351 169.254 197.001 169.389L196.997 169.387ZM196.997 169.387C201.295 169.127 207.415 168.608 211.763 168.323L211.493 168.628L210.692 158.158L210.665 157.817C211.117 157.665 216.507 155.849 216.947 155.702C218.513 158.105 221.868 163.245 223.337 165.634C224.576 167.666 224.602 168.091 227.173 167.801C231.554 167.401 235.958 166.909 240.307 166.271L239.808 167.692L231.247 158.791L222.712 149.867L221.969 149.092C223.478 147.855 224.969 146.566 226.511 145.361C230.103 142.445 234.223 139.37 237.748 136.426L237.5 137.768L230.43 125.06L232.183 125.286C226.366 131.404 217.159 141.015 211.248 147.183L209.225 149.296C209.342 147.34 209.788 140.006 209.911 137.925C210.25 132.503 211.16 118.159 211.513 112.57L212.473 113.548L196.914 114.043L197.681 113.29C196.46 131.648 197.396 150.991 196.997 169.389V169.387Z" fill="#27A4D6"/>
<path d="M179.182 129.779C175.064 129.779 171.954 126.704 171.952 122.626C171.95 118.639 175.092 115.505 179.103 115.491H179.129C181.109 115.491 182.959 116.258 184.343 117.65C185.689 119.004 186.424 120.79 186.412 122.679C186.388 126.65 183.22 129.769 179.2 129.777H179.18L179.182 129.779Z" fill="#FFEC00"/>
<path d="M179.182 129.779C173.829 129.842 170.126 124.729 171.763 119.61C173.143 115.292 178.212 113.237 182.308 115.035C190.052 118.577 187.596 129.67 179.182 129.781V129.779ZM179.182 129.779C183.107 129.769 186.204 126.569 185.855 122.632C185.585 119.198 182.477 116.561 179.144 116.601C175.77 116.541 172.741 119.19 172.507 122.659C172.146 126.62 175.233 129.8 179.184 129.779H179.182Z" fill="#FFBC00"/>
<path d="M182.176 124.138C183.83 124.138 185.17 122.797 185.17 121.143C185.17 119.489 183.83 118.149 182.176 118.149C180.522 118.149 179.182 119.489 179.182 121.143C179.182 122.797 180.522 124.138 182.176 124.138Z" fill="#FFF5CA"/>
<path d="M178.946 141.035C180.108 141.069 183.586 141.301 183.586 141.301V157.764C183.586 157.764 183.502 146.105 181.08 143.301C179.801 141.82 174.369 141.035 174.369 141.035C174.369 141.035 177.801 141.002 178.946 141.035Z" fill="#FFF5CA"/>
<path d="M197.639 114.022L211.66 113.415L210.179 133.637C210.179 133.637 210.649 120.354 207.623 116.978C205.498 114.61 197.639 114.022 197.639 114.022Z" fill="#5EF1FC"/>
<path d="M220.468 137.554L231.253 126.287L234.822 132.965C234.822 132.965 232.391 130.651 230.849 130.532C227.348 130.258 220.468 137.556 220.468 137.556V137.554Z" fill="#5EF1FC"/>
<path d="M148.033 153.884L159.906 168.62L146.262 168.683C146.262 168.683 151.857 168.17 152.941 165.989C154.706 162.433 148.035 153.884 148.035 153.884H148.033Z" fill="#F27D75"/>
<path d="M141.564 114.692C130.117 111.427 117.481 112.44 108.211 114.184L107.925 123.381C107.925 123.381 107.983 122.122 108.776 120.732C109.376 119.68 110.752 118.367 112.116 117.229C114.146 115.536 118.129 114.178 128.519 114.097C133.153 114.426 137.784 115.025 141.198 116.052C153.15 119.646 158.903 127.164 158.903 127.164C158.903 127.164 155.531 118.675 141.562 114.692H141.564Z" fill="#F27D75"/>
<path d="M142.014 134.818C142.014 134.818 141.824 142.53 131.2 145.706C131.2 145.706 135.47 146.43 139.844 142.211C139.844 142.211 143.16 139.711 142.014 134.816V134.818Z" fill="#F27D75"/>
<path d="M108.186 155.908L108.498 169.387L115.06 169.215C115.06 169.215 111.037 169.415 109.671 165.202C109.671 165.202 108.422 160.906 108.188 155.908H108.186Z" fill="#F27D75"/>
<path d="M172.05 162.018L171.572 169.217L176.546 168.957C176.546 168.957 173.856 168.943 172.755 165.989C172.182 164.453 172.053 162.018 172.053 162.018H172.05Z" fill="#FFF5CA"/>
<path d="M197.094 156.38L196.997 169.387L205.347 168.773C205.347 168.773 198.983 167.906 198.083 163.775C197.641 161.745 197.094 156.38 197.094 156.38Z" fill="#5EF1FC"/>
<path d="M231.148 158.723C231.148 158.723 235.418 164.346 231.148 167.419L238.544 166.481L231.148 158.723Z" fill="#5EF1FC"/>
<path d="M90.225 93.4004H87.2568V190.1H90.225V93.4004Z" fill="url(#paint0_linear_49_8)"/>
<path d="M66.6049 165.109H68.3483C68.5924 165.109 68.7922 164.911 68.7942 164.665V154.039L58.001 162.044C60.2044 163.937 63.2432 165.107 66.6049 165.107V165.109Z" fill="url(#paint1_linear_49_8)"/>
<path d="M58.0011 162.046L68.7943 154.041V153.485L56.5059 160.494C56.9457 161.053 57.4482 161.572 58.0011 162.048V162.046Z" fill="url(#paint2_linear_49_8)"/>
<path d="M68.0233 126.335C67.8982 126.335 67.771 126.367 67.654 126.432L56.887 132.582C56.77 132.649 56.6731 132.746 56.6085 132.861C56.4048 133.218 56.5299 133.674 56.887 133.878L67.656 140.02C67.769 140.084 67.8961 140.117 68.0253 140.119C68.4369 140.119 68.7698 139.786 68.7698 139.374V127.082C68.7698 126.952 68.7355 126.825 68.673 126.712C68.5358 126.47 68.2836 126.335 68.0233 126.335Z" fill="url(#paint3_linear_49_8)"/>
<path d="M76.2723 147.921L64.2805 141.081L55.5535 136.099C55.4425 136.037 55.3154 136.002 55.1862 136.002H55.1842C55.1318 136.002 55.0813 136.008 55.0309 136.018C54.6919 136.087 54.4356 136.388 54.4336 136.747V154.647C54.4396 155.71 54.6233 156.755 54.9744 157.744C55.0369 157.922 55.1075 158.097 55.1822 158.273C55.1943 158.303 55.2084 158.333 55.2205 158.364C55.2972 158.541 55.3799 158.715 55.4667 158.888C55.4667 158.888 55.4667 158.892 55.4687 158.892C55.7573 159.455 56.1023 159.992 56.5018 160.492L68.7903 153.483L76.2682 149.217C76.3853 149.15 76.4821 149.053 76.5467 148.938C76.7505 148.581 76.6254 148.125 76.2682 147.921H76.2723Z" fill="url(#paint4_linear_49_8)"/>
<path d="M60.4463 126.341C64.3547 126.969 68.0332 124.307 68.6607 120.397C69.2883 116.486 66.6268 112.81 62.7163 112.182C62.3309 112.12 61.9495 112.091 61.5722 112.091C58.1137 112.091 55.0668 114.601 54.5018 118.127C53.8743 122.035 56.5358 125.714 60.4463 126.341Z" fill="url(#paint5_linear_49_8)"/>
</g>
<defs>
<linearGradient id="paint0_linear_49_8" x1="69.825" y1="136.787" x2="166.492" y2="162.147" gradientUnits="userSpaceOnUse">
<stop stop-color="#333333"/>
<stop offset="0.32" stop-color="#999999"/>
</linearGradient>
<linearGradient id="paint1_linear_49_8" x1="62.1577" y1="156.112" x2="81.9584" y2="186.956" gradientUnits="userSpaceOnUse">
<stop stop-color="#333333"/>
<stop offset="0.33" stop-color="#999999"/>
</linearGradient>
<linearGradient id="paint2_linear_49_8" x1="65.2208" y1="161.184" x2="58.7981" y2="150.708" gradientUnits="userSpaceOnUse">
<stop stop-color="#333333"/>
<stop offset="1" stop-color="#1A1A1A"/>
</linearGradient>
<linearGradient id="paint3_linear_49_8" x1="60.1115" y1="121.464" x2="80.9432" y2="193.07" gradientUnits="userSpaceOnUse">
<stop stop-color="#333333"/>
<stop offset="0.33" stop-color="#999999"/>
</linearGradient>
<linearGradient id="paint4_linear_49_8" x1="63.0819" y1="159.716" x2="73.0579" y2="90.5251" gradientUnits="userSpaceOnUse">
<stop stop-color="#333333"/>
<stop offset="0.33" stop-color="#999999"/>
</linearGradient>
<linearGradient id="paint5_linear_49_8" x1="51.6668" y1="129.293" x2="109.35" y2="70.9302" gradientUnits="userSpaceOnUse">
<stop stop-color="#333333"/>
<stop offset="0.33" stop-color="#999999"/>
</linearGradient>
<clipPath id="clip0_49_8">
<rect width="209" height="96.6992" fill="white" transform="translate(37.25 93.4004)"/>
</clipPath>
</defs>
</svg>
