<svg width="250" height="250" viewBox="0 0 250 250" fill="none" xmlns="http://www.w3.org/2000/svg">
<rect width="250" height="250" fill="#262634"/>
<path d="M105.759 142.487C105.25 146.569 105.79 150.476 105.983 154.57C98.3017 154.306 90.6284 153.422 82.7335 154.518C82.3757 154.261 82.5139 153.612 82.4817 153.049C81.431 134.73 80.6661 116.405 81.395 98.0503C81.4347 97.0468 81.2265 96.0226 82.7411 95.7007C96.5107 92.7832 110.116 92.6204 123.368 98.1033C127.615 99.8602 131.443 102.344 134.264 106.047C138.306 111.358 139.991 117.246 137.617 123.749C135.957 128.299 132.223 131.071 128.35 133.628C127.761 134.016 127.142 134.363 126.326 134.855C130.693 141.129 135.807 146.741 140.22 153.049C139.077 153.559 138.032 153.498 137.041 153.538C129.764 153.827 122.486 154.06 115.199 153.95C113.622 153.928 112.573 153.426 111.742 152.025C109.83 148.797 107.764 145.66 105.761 142.487H105.759ZM103.843 119.65C104.002 121.059 104.144 122.469 104.328 123.874C104.438 124.719 104.86 125.112 105.793 124.878C108.224 124.262 110.415 123.2 112.162 121.388C113.404 120.101 113.648 118.526 113.06 116.837C112.467 115.139 111.214 114.327 109.464 114.258C108.211 114.209 106.956 114.241 105.701 114.217C104.656 114.196 104.108 114.592 104.035 115.726C103.949 117.034 103.798 118.335 103.841 119.652L103.843 119.65Z" fill="#403466"/>
<path d="M141.807 153.668C142.041 142.474 142.267 131.709 142.496 120.724C148.42 120.364 154.166 120.652 159.806 121.038V153.668H141.805H141.807Z" fill="#403466"/>
<path d="M184.666 140.255C184.935 144.674 185.183 148.744 185.438 152.945C178.848 153.292 172.418 153.63 165.711 153.983C165.864 134.488 164.427 115.101 165.783 95.5739C172.483 95.3069 179.136 95.0419 186.067 94.7654C185.546 103.711 185.029 112.621 184.49 121.903C190.238 115.881 195.768 110.088 201.444 104.141C204.659 109.94 207.798 115.604 211.046 121.464C206.8 125.27 202.072 128.532 197.527 132.278C203.328 138.403 209.108 144.507 215 150.728C213.525 151.281 212.118 151.319 210.751 151.514C206.037 152.186 201.308 152.697 196.557 153.059C193.947 153.258 192.186 152.43 190.862 150.183C188.954 146.94 186.887 143.791 184.668 140.253L184.666 140.255Z" fill="#403466"/>
<path d="M142.224 107.117C142.22 101.788 146.41 97.5997 151.764 97.5808C157.141 97.5618 161.505 101.878 161.472 107.183C161.438 112.49 157.224 116.653 151.872 116.667C146.41 116.68 142.227 112.541 142.224 107.119V107.117Z" fill="#403466"/>
<path d="M103.176 151.904C102.407 151.866 101.64 151.824 100.885 151.785C97.8291 151.622 94.6693 151.451 91.4962 151.451C89.3417 151.451 87.3443 151.531 85.4548 151.692C84.4968 134.734 83.7414 116.627 84.4514 98.6012C90.2807 97.418 95.5989 96.8424 100.694 96.8424C108.553 96.8424 115.688 98.2131 122.508 101.034C126.792 102.806 129.973 105.11 132.23 108.075C136.06 113.107 137.023 118.017 135.174 123.083C133.799 126.847 130.528 129.244 127.008 131.565C126.675 131.784 126.3 132.006 125.866 132.263C125.622 132.407 125.363 132.561 125.081 132.733L122.487 134.3L124.217 136.786C126.472 140.024 128.933 143.108 131.315 146.09C132.62 147.722 133.949 149.388 135.246 151.082C130.084 151.279 124.632 151.446 119.181 151.446C117.917 151.446 116.665 151.436 115.465 151.419C114.719 151.408 114.658 151.308 114.408 150.885C113.024 148.549 111.55 146.241 110.122 144.009C109.541 143.1 108.96 142.192 108.384 141.279L104.147 134.565L103.164 142.441C102.753 145.732 102.966 148.867 103.176 151.902V151.904ZM105.845 111.68C103.325 111.68 101.589 113.314 101.424 115.845C101.404 116.163 101.379 116.479 101.354 116.797C101.273 117.835 101.19 118.908 101.228 120.052L101.231 120.164L101.245 120.275C101.292 120.688 101.335 121.101 101.381 121.513C101.489 122.504 101.6 123.528 101.735 124.546C102.076 127.161 103.994 128.089 105.533 128.089C105.911 128.089 106.309 128.038 106.714 127.933C109.916 127.123 112.439 125.726 114.431 123.664C116.391 121.635 116.936 118.986 115.967 116.207C115.014 113.473 112.767 111.839 109.8 111.723C109.018 111.693 108.25 111.691 107.507 111.691C106.981 111.691 106.483 111.691 105.985 111.68C105.938 111.68 105.893 111.68 105.847 111.68H105.845Z" fill="#E85656"/>
<path d="M103.175 151.904C97.2188 151.749 91.0014 151.467 85.0831 152.135C84.4091 143.159 83.8392 134.175 83.5098 125.177C83.1879 116.036 83.0914 106.879 83.4189 97.7322C95.8216 94.9756 109.131 94.6197 121.161 99.2089C124.595 100.466 127.912 102.102 130.661 104.576C132.732 106.449 134.381 108.749 135.625 111.244C137.556 115.12 137.822 119.631 136.216 123.674C134.488 128.138 130.303 130.875 126.443 133.244C125.741 133.655 123.789 134.821 123.06 135.255L123.397 133.666C126.186 137.869 129.633 142.337 132.768 146.317C133.505 147.279 136.43 151.058 137.14 151.983L135.279 152.036C129.389 152.199 123.488 152.332 117.594 152.192C117.17 152.19 116.106 152.156 115.697 152.152C114.845 152.152 114.201 152.093 113.77 151.203L113.613 150.933C110.472 145.607 106.979 140.075 103.807 134.781L104.54 134.618C104.209 137.091 103.609 140.787 103.294 143.231C102.944 146.105 103.05 149.017 103.173 151.906L103.175 151.904ZM103.175 151.904C102.891 149.009 102.641 146.099 102.865 143.187C103.09 140.736 103.501 137.004 103.751 134.518L103.864 133.416C105.918 136.534 107.959 139.675 110.019 142.784C111.687 145.317 113.673 148.269 115.093 150.681C118.351 150.717 121.829 150.628 125.144 150.535C128.497 150.437 131.85 150.295 135.205 150.132L134.484 151.663C131.286 147.636 127.689 143.363 124.643 139.251C123.461 137.651 122.045 135.603 120.89 133.973C122.541 132.954 124.713 131.646 126.356 130.626C129.571 128.458 133.015 126.059 134.192 122.254C134.709 120.733 134.936 119.118 134.862 117.515C134.707 114.868 133.673 112.359 132.204 110.165C131.303 108.785 130.247 107.503 129.014 106.405C126.532 104.169 123.44 102.63 120.309 101.481C108.97 97.1434 96.4388 97.2835 84.659 99.6463L85.5091 98.6466C85.3178 103.054 85.1758 107.467 85.119 111.884C84.9524 125.148 85.3424 138.416 85.8517 151.671L85.4163 151.292C91.2494 150.897 97.3438 151.44 103.171 151.904H103.175Z" fill="#C13D3D"/>
<path d="M105.844 111.68C103.627 111.668 101.855 113.105 101.639 115.347C101.561 116.901 101.529 118.611 101.705 120.146C101.842 120.777 102.02 121.83 102.181 122.593C102.26 122.992 102.466 124.056 102.544 124.444C102.565 124.514 102.629 124.762 102.648 124.834C103.029 126.14 104.146 127.011 105.513 126.945C106.2 126.913 106.931 126.633 107.595 126.421C108.343 126.169 109.068 125.872 109.769 125.535C111.164 124.864 112.457 123.992 113.591 122.931C113.991 122.562 114.354 122.15 114.655 121.699C116.492 119.026 115.818 114.836 113.118 112.914C112.287 112.331 111.276 111.966 110.255 111.835C109.844 111.771 108.801 111.746 108.37 111.729C107.529 111.689 106.687 111.693 105.846 111.676L105.844 111.68ZM105.844 111.68C106.687 111.678 107.527 111.687 108.37 111.676C109.21 111.684 110.055 111.614 110.905 111.739C111.751 111.856 112.584 112.113 113.36 112.52C115.77 113.819 117.141 116.549 117.215 119.255C117.321 123.151 114.091 126.137 110.844 127.746C110.032 128.147 109.187 128.469 108.334 128.732C107.393 128.997 106.501 129.278 105.494 129.234C103.118 129.166 101.202 127.379 100.963 125.023C100.929 124.81 100.906 124.249 100.901 124.024C100.853 122.78 100.797 121.413 100.757 120.182C100.829 118.566 101.092 116.892 101.329 115.3C101.768 113.068 103.583 111.648 105.846 111.682L105.844 111.68Z" fill="#C13D3D"/>
<path d="M144.93 151.135L145.503 123.749C146.437 123.721 147.393 123.708 148.383 123.708C151.416 123.708 154.375 123.838 157.19 124.007V151.135H144.93Z" fill="#FFEC00"/>
<path d="M144.929 151.135C144.761 144.585 144.558 137.256 144.535 130.737C144.509 128.34 144.543 125.228 144.549 122.814C145.143 122.803 147.779 122.725 148.428 122.71C151.698 122.678 154.975 122.829 158.235 123.022L158.233 124.007C158.233 130.728 158.161 137.625 157.998 144.354C157.947 146.338 157.845 149.772 157.769 151.754C154.002 151.665 148.736 151.323 144.931 151.135H144.929ZM144.929 151.135C147.69 151.001 151.459 150.798 154.217 150.66C155.217 150.605 156.203 150.575 157.192 150.537L156.593 151.135C156.266 142.157 156.154 132.983 156.15 124.007L157.129 125.046C153.32 124.796 149.357 124.668 145.533 124.709L146.465 123.77C146.389 125.998 146.294 128.225 146.186 130.455C145.87 137.006 145.359 144.55 144.931 151.137L144.929 151.135Z" fill="#FFBC00"/>
<path d="M168.785 151.296C168.785 145.17 168.65 139.015 168.52 133.036C168.274 121.752 168.02 110.108 168.677 98.6164L183.272 98.0352L181.428 129.764L201.053 109.203L207.669 121.137C205.734 122.767 203.71 124.321 201.597 125.945C199.741 127.371 197.824 128.844 195.942 130.397L193.594 132.331L209.53 149.157C205.279 149.74 200.923 150.204 196.563 150.535C196.387 150.548 196.216 150.556 196.057 150.556C194.815 150.556 194.202 150.191 193.532 149.051C192.182 146.756 190.769 144.535 189.276 142.184C188.63 141.167 187.969 140.128 187.295 139.052L182.055 140.734L182.655 150.567L168.787 151.296H168.785Z" fill="#32D0EA"/>
<path d="M168.786 151.296C168.405 133.725 167.089 116.154 167.93 98.5747L167.962 97.9007C168.818 97.8572 183.441 97.1605 184.193 97.1226C183.884 102.95 183.182 116.214 182.879 121.89L182.436 129.823L180.702 129.069C186.681 122.806 195.337 113.655 201.281 107.481L201.957 108.706L208.553 120.65L208.955 121.377C207.592 122.53 206.191 123.662 204.788 124.749C201.382 127.382 197.516 130.321 194.197 133.058L194.282 131.686C198.758 136.449 206.723 144.967 211.168 149.749C207.124 150.283 203.053 150.738 198.989 151.048C198.309 151.101 196.955 151.202 196.289 151.224C194.916 151.309 193.805 150.8 193.11 149.585C192.968 149.356 192.578 148.668 192.43 148.418C191.258 146.391 188.146 141.396 186.876 139.319L187.453 139.53L182.188 141.135L182.479 140.709L182.926 150.552L182.94 150.829C178.793 150.94 172.871 151.171 168.789 151.298L168.786 151.296ZM168.786 151.296C172.818 151.052 178.56 150.565 182.64 150.298L182.387 150.584L181.635 140.76L181.61 140.44C182.035 140.298 187.091 138.594 187.504 138.456C188.973 140.711 192.122 145.533 193.5 147.775C194.663 149.681 194.687 150.081 197.099 149.808C201.209 149.433 205.342 148.971 209.422 148.373L208.955 149.706L200.922 141.355L192.913 132.981L192.216 132.254C193.633 131.093 195.032 129.883 196.478 128.753C199.848 126.017 203.714 123.132 207.022 120.37L206.789 121.629L200.155 109.705L201.8 109.917C196.342 115.658 187.703 124.675 182.158 130.463L180.259 132.445C180.368 130.61 180.787 123.729 180.902 121.777C181.22 116.689 182.074 103.23 182.406 97.9859L183.307 98.9042L168.708 99.368L169.427 98.6618C168.282 115.887 169.16 134.035 168.786 151.298V151.296Z" fill="#27A4D6"/>
<path d="M152.071 114.133C148.207 114.133 145.289 111.248 145.287 107.422C145.285 103.681 148.233 100.741 151.997 100.727H152.021C153.879 100.727 155.615 101.447 156.914 102.753C158.176 104.024 158.866 105.699 158.854 107.471C158.831 111.197 155.859 114.124 152.088 114.132H152.069L152.071 114.133Z" fill="#FFEC00"/>
<path d="M152.07 114.133C147.047 114.192 143.573 109.395 145.109 104.591C146.404 100.54 151.16 98.6126 155.003 100.299C162.269 103.622 159.965 114.031 152.07 114.135V114.133ZM152.07 114.133C155.753 114.124 158.659 111.121 158.331 107.428C158.077 104.205 155.162 101.731 152.034 101.769C148.869 101.712 146.027 104.198 145.807 107.452C145.468 111.169 148.365 114.152 152.072 114.133H152.07Z" fill="#FFBC00"/>
<path d="M154.88 108.84C156.432 108.84 157.689 107.582 157.689 106.03C157.689 104.479 156.432 103.221 154.88 103.221C153.328 103.221 152.07 104.479 152.07 106.03C152.07 107.582 153.328 108.84 154.88 108.84Z" fill="#FFF5CA"/>
<path d="M151.849 124.694C152.939 124.726 156.203 124.944 156.203 124.944V140.391C156.203 140.391 156.124 129.452 153.852 126.82C152.651 125.431 147.555 124.694 147.555 124.694C147.555 124.694 150.775 124.664 151.849 124.694Z" fill="#FFF5CA"/>
<path d="M169.388 99.349L182.544 98.7792L181.154 117.753C181.154 117.753 181.595 105.29 178.756 102.123C176.762 99.9 169.388 99.349 169.388 99.349Z" fill="#5EF1FC"/>
<path d="M190.808 121.428L200.927 110.856L204.276 117.123C204.276 117.123 201.995 114.951 200.548 114.84C197.264 114.582 190.808 121.43 190.808 121.43V121.428Z" fill="#5EF1FC"/>
<path d="M122.844 136.75L133.984 150.577L121.182 150.635C121.182 150.635 126.432 150.154 127.448 148.108C129.105 144.772 122.846 136.75 122.846 136.75H122.844Z" fill="#F27D75"/>
<path d="M116.774 99.9776C106.034 96.9144 94.1784 97.8648 85.4808 99.5005L85.2119 108.13C85.2119 108.13 85.2668 106.949 86.0109 105.644C86.5732 104.658 87.8644 103.425 89.1442 102.357C91.0488 100.769 94.7861 99.4949 104.534 99.4191C108.883 99.7277 113.228 100.29 116.432 101.254C127.645 104.626 133.043 111.68 133.043 111.68C133.043 111.68 129.879 103.715 116.772 99.9776H116.774Z" fill="#F27D75"/>
<path d="M117.196 118.861C117.196 118.861 117.018 126.097 107.05 129.077C107.05 129.077 111.056 129.757 115.161 125.798C115.161 125.798 118.271 123.452 117.196 118.859V118.861Z" fill="#F27D75"/>
<path d="M85.4561 138.649L85.7495 151.296L91.9064 151.135C91.9064 151.135 88.1312 151.323 86.8495 147.37C86.8495 147.37 85.6776 143.339 85.4579 138.649H85.4561Z" fill="#F27D75"/>
<path d="M145.379 144.382L144.931 151.137L149.598 150.893C149.598 150.893 147.074 150.88 146.04 148.108C145.502 146.667 145.381 144.382 145.381 144.382H145.379Z" fill="#FFF5CA"/>
<path d="M168.877 139.092L168.786 151.296L176.62 150.721C176.62 150.721 170.649 149.906 169.805 146.031C169.39 144.126 168.877 139.092 168.877 139.092Z" fill="#5EF1FC"/>
<path d="M200.829 141.29C200.829 141.29 204.835 146.567 200.829 149.45L207.768 148.57L200.829 141.29Z" fill="#5EF1FC"/>
<path d="M68.6043 80H65.8193V170.73H68.6043V80Z" fill="url(#paint0_linear_49_8)"/>
<path d="M46.442 147.282H48.0777C48.3068 147.282 48.4943 147.097 48.4962 146.866V136.896L38.3691 144.407C40.4366 146.182 43.2878 147.281 46.442 147.281V147.282Z" fill="url(#paint1_linear_49_8)"/>
<path d="M38.3697 144.409L48.4967 136.898V136.375L36.9668 142.953C37.3795 143.477 37.8509 143.964 38.3697 144.41V144.409Z" fill="url(#paint2_linear_49_8)"/>
<path d="M47.7726 110.902C47.6552 110.902 47.5359 110.932 47.4261 110.993L37.3237 116.763C37.2139 116.826 37.1231 116.917 37.0625 117.024C36.8713 117.36 36.9886 117.787 37.3237 117.979L47.428 123.742C47.5341 123.802 47.6533 123.833 47.7745 123.834C48.1607 123.834 48.4731 123.522 48.4731 123.136V111.602C48.4731 111.481 48.4409 111.362 48.3822 111.256C48.2535 111.029 48.0168 110.902 47.7726 110.902Z" fill="url(#paint3_linear_49_8)"/>
<path d="M55.5131 131.156L44.2615 124.738L36.0732 120.063C35.9691 120.004 35.8498 119.972 35.7286 119.972H35.7268C35.6775 119.972 35.6302 119.978 35.5829 119.987C35.2648 120.052 35.0244 120.334 35.0225 120.671V137.466C35.0281 138.464 35.2004 139.444 35.5299 140.372C35.5885 140.539 35.6548 140.703 35.7249 140.868C35.7362 140.896 35.7495 140.925 35.7608 140.953C35.8328 141.12 35.9104 141.283 35.9918 141.446C35.9918 141.446 35.9918 141.449 35.9937 141.449C36.2644 141.978 36.5882 142.481 36.963 142.951L48.493 136.373L55.5094 132.371C55.6192 132.309 55.71 132.218 55.7706 132.11C55.9618 131.775 55.8445 131.347 55.5094 131.156H55.5131Z" fill="url(#paint4_linear_49_8)"/>
<path d="M40.6635 110.907C44.3308 111.496 47.7822 108.999 48.371 105.33C48.9598 101.661 46.4626 98.2112 42.7934 97.6224C42.4318 97.5637 42.074 97.5372 41.72 97.5372C38.4749 97.5372 35.6161 99.8924 35.086 103.2C34.4972 106.867 36.9944 110.319 40.6635 110.907Z" fill="url(#paint5_linear_49_8)"/>
<defs>
<linearGradient id="paint0_linear_49_8" x1="49.4635" y1="120.709" x2="140.164" y2="144.503" gradientUnits="userSpaceOnUse">
<stop stop-color="#333333"/>
<stop offset="0.32" stop-color="#999999"/>
</linearGradient>
<linearGradient id="paint1_linear_49_8" x1="42.2692" y1="138.84" x2="60.8477" y2="167.781" gradientUnits="userSpaceOnUse">
<stop stop-color="#333333"/>
<stop offset="0.33" stop-color="#999999"/>
</linearGradient>
<linearGradient id="paint2_linear_49_8" x1="45.1438" y1="143.6" x2="39.1175" y2="133.77" gradientUnits="userSpaceOnUse">
<stop stop-color="#333333"/>
<stop offset="1" stop-color="#1A1A1A"/>
</linearGradient>
<linearGradient id="paint3_linear_49_8" x1="40.3492" y1="106.331" x2="59.8951" y2="173.517" gradientUnits="userSpaceOnUse">
<stop stop-color="#333333"/>
<stop offset="0.33" stop-color="#999999"/>
</linearGradient>
<linearGradient id="paint4_linear_49_8" x1="43.1369" y1="142.222" x2="52.4972" y2="77.3021" gradientUnits="userSpaceOnUse">
<stop stop-color="#333333"/>
<stop offset="0.33" stop-color="#999999"/>
</linearGradient>
<linearGradient id="paint5_linear_49_8" x1="32.426" y1="113.677" x2="86.5484" y2="58.9168" gradientUnits="userSpaceOnUse">
<stop stop-color="#333333"/>
<stop offset="0.33" stop-color="#999999"/>
</linearGradient>
</defs>
</svg>
