<svg width="250" height="250" viewBox="0 0 250 250" fill="none" xmlns="http://www.w3.org/2000/svg">
<rect width="250" height="250" fill="white"/>
<path d="M104.597 151.692C103.851 151.447 102.859 150.816 102.357 150.199C101.237 148.834 100.993 147.212 101.482 145.59C103.477 139.617 105.46 133.644 107.455 127.8V99.1836C106.953 97.819 106.58 96.4417 106.09 95.2059C104.597 90.5974 102.975 86.0018 101.482 81.5221C100.607 78.9089 102.1 76.2957 104.224 75.4204C103.104 73.9271 101.237 72.9359 99.4996 72.3051C88.3003 75.7937 79.7141 82.8866 73.9857 93.5839C70.6259 99.8015 69.1326 106.521 69.0039 113.498C69.1326 116.858 69.3772 120.218 70.2526 123.449C74.1144 139.372 84.9404 150.572 99.2421 154.678C100.98 154.434 103.104 153.43 104.597 151.692ZM88.7894 84.7403C88.7894 82.6291 90.1539 80.8784 92.2779 80.3893C94.2732 79.8872 96.5131 81.0072 97.5043 83.1312C100.117 88.6021 102.859 93.9572 105.473 99.4282C105.975 100.419 106.464 101.295 106.837 102.286C107.339 103.161 106.966 103.908 106.219 104.526C105.473 105.144 104.726 104.77 104.224 104.152C102.859 102.659 101.611 101.295 100.246 99.8015C96.7577 95.8238 93.282 91.9619 89.9222 87.9842C89.1756 86.993 88.6736 85.9889 88.8023 84.7531L88.7894 84.7403ZM79.212 93.6997C79.3408 92.0778 80.5766 90.5845 82.4431 89.9666C82.8164 89.8379 83.1897 89.8379 83.4343 89.8379C84.683 89.7092 85.6742 90.2112 86.5495 90.8291C90.656 94.4335 94.7624 98.0508 98.9975 101.655C100.246 102.775 101.482 103.766 102.602 104.886C103.593 105.877 103.851 106.508 103.22 107.371C102.602 108.117 101.855 108.246 100.735 107.744C94.5178 104.629 88.1715 101.526 81.9411 98.4112C80.0745 97.5358 79.0833 95.798 79.1992 93.6869L79.212 93.6997ZM75.6077 103.277C76.9722 102.028 78.5942 101.913 80.4607 102.53C87.0516 104.77 93.5266 107.01 100.117 109.25C101.482 109.752 101.855 110.241 101.739 111.245C101.611 112.121 100.864 112.61 99.4996 112.494H98.9975C95.0199 112.249 91.0293 111.876 87.0516 111.619C84.3097 111.49 81.5806 111.245 78.71 111.117C76.8434 110.988 74.9769 109.868 74.359 108.13C73.7411 106.508 74.1144 104.642 75.6077 103.277ZM74.9898 122.818C73.7411 121.196 73.7411 119.214 74.9898 117.463C75.8651 116.343 77.1009 115.725 78.4783 115.596C85.3266 115.094 92.2908 114.721 99.8858 114.232C100.761 114.232 101.508 114.605 101.752 115.596C101.881 116.588 101.379 117.218 99.757 117.708C93.282 119.947 86.8199 122.059 80.4736 124.298C78.3624 124.916 76.2384 124.427 75.0026 122.805L74.9898 122.818ZM81.5806 136.386C80.0874 135.511 79.3408 134.146 79.212 132.653C79.212 130.413 80.332 129.164 82.0698 128.302C88.2874 125.187 94.6337 122.084 100.864 119.098C101.984 118.596 102.731 118.596 103.233 119.342C103.735 120.089 103.606 120.964 102.731 121.827C98.3797 125.689 93.8999 129.538 89.536 133.399C88.4161 134.391 87.2962 135.511 86.0475 136.386C84.5543 137.261 83.061 137.261 81.5678 136.386H81.5806ZM92.6513 146.465C90.9134 146.337 89.4202 144.972 88.9181 143.106C88.7894 142.732 88.7894 142.359 88.6736 141.986C88.6736 140.737 89.1756 139.746 89.9222 138.87C94.5307 133.644 99.1263 128.289 103.863 123.063C104.366 122.445 104.983 121.943 105.859 122.187C106.979 122.561 107.352 123.552 106.734 124.929C105.112 128.289 103.374 131.649 101.752 135.009C100.259 137.995 98.8946 140.853 97.4013 143.839C96.526 145.577 94.7881 146.581 92.677 146.453L92.6513 146.465Z" fill="#E92428"/>
<path d="M114.419 71.3011V155.669H111.806C110.815 155.669 109.193 155.798 106.953 156.171C105.087 156.545 102.847 156.674 100.362 156.674V155.18C102.975 154.807 105.087 153.185 106.837 150.083C108.575 147.096 109.451 141.368 109.451 132.782V91.7173C109.451 80.1447 106.464 73.4251 100.491 71.8031V70.3099C103.104 70.6832 107.713 71.0565 114.432 71.3011H114.419ZM120.637 155.669H118.899V71.3011C121.384 71.3011 123.881 71.1723 126.739 70.9277C129.854 70.5544 132.467 70.3099 134.45 70.3099C140.049 70.3099 144.156 72.5497 146.898 77.0295C149.639 81.5092 151.004 86.9801 151.004 93.4552C151.004 104.526 147.4 111.619 140.307 114.605C143.795 115.223 146.782 116.6 149.137 118.712C151.751 120.951 155.612 125.56 160.71 132.524C168.678 143.106 175.025 148.332 180.122 148.332C181.113 148.332 182.118 147.83 183.237 146.967L183.482 148.461C181.86 151.203 179.62 152.567 176.762 152.567C173.647 152.567 170.416 151.074 167.056 147.959C163.941 145.101 159.217 139.372 152.87 131.031C145.276 120.823 137.938 115.725 130.845 115.725C135.325 117.592 141.298 123.693 148.764 134.017C154.119 141.239 158.341 146.581 161.585 149.825C164.816 153.185 167.932 154.807 170.918 154.807V155.554C169.554 156.171 168.176 156.545 166.812 156.545C162.834 156.545 159.474 155.296 156.604 152.567C155.11 151.074 153.115 148.963 150.759 145.976C148.391 142.99 145.533 139.128 142.173 134.532C137.32 127.684 133.716 123.088 131.347 120.591C128.863 118.107 126.365 116.356 124.01 115.365V134.275C124.01 146.967 126.867 153.932 132.725 155.052V156.545C127.871 155.927 123.894 155.669 120.65 155.669H120.637ZM123.997 93.3264V110.743C126.365 111.49 128.979 111.992 131.836 111.992C140.925 111.992 145.52 105.774 145.52 93.3264C145.52 81.625 141.04 75.7808 131.952 75.7808C129.094 75.7808 126.726 76.5274 125.104 78.1494C124.357 80.016 123.984 85.1136 123.984 93.3264H123.997ZM151.493 110.499C154.106 105.028 155.471 98.9261 155.471 92.3352C155.471 86.3622 153.978 80.2605 150.862 74.1717C157.827 78.0335 161.315 84.2511 161.315 92.5927C161.315 100.934 158.084 107.152 151.48 110.512L151.493 110.499Z" fill="black"/>
<path d="M91.4025 46.405C61.1643 59.4709 40.0014 88.9626 40.0014 123.938C40.0014 130.413 39.8726 131.275 42.1125 142.604C48.9608 167.242 71.6041 186.654 97.6201 192.383C70.4971 181.428 51.3294 154.923 51.3294 123.938C51.3294 83.247 84.4254 50.1382 125.129 50.1382C139.444 50.1382 152.883 54.2446 164.198 61.3375C150.888 49.5203 133.342 42.4273 114.175 42.4273C106.09 42.4273 98.3667 43.7919 91.4025 46.405Z" fill="#234797"/>
<path d="M144.168 41.0628C169.554 51.0135 189.339 73.0389 195.312 100.175C197.423 107.77 198.801 115.609 198.801 123.938C198.801 157.034 175.784 184.414 147.026 194.996C136.947 199.347 125.747 201.213 114.046 201.213C97.749 201.213 82.4432 196.489 69.4932 188.276C84.4256 201.213 103.838 208.937 125.001 208.937C171.909 208.937 210 170.859 210 123.938C210 83.6204 181.873 49.7649 144.168 41.0628Z" fill="#1A8A4A"/>
<path d="M90.0392 172.597L89.7946 171.979C89.2926 170.988 88.9193 170.242 88.3014 169.739C89.55 169.122 90.2967 167.873 90.2967 166.624C90.2967 165.26 89.3055 164.14 87.9281 163.766C87.0527 163.522 86.5635 163.522 85.5595 163.522H81.9551V165.015H83.075V173.601H81.9551V175.095H86.5635V173.601L85.199 173.473V170.357H85.8169C86.5635 170.357 86.8081 170.486 87.0656 170.975C87.3102 171.349 87.5676 171.966 87.9409 172.713C88.443 173.588 88.8163 174.58 89.1896 174.953L89.3183 175.082H92.0602V173.46H90.6957C90.567 173.588 90.1937 172.842 90.0778 172.584L90.0392 172.597ZM88.1726 166.998C88.1726 167.744 87.6706 168.993 85.6882 168.993H85.1862V165.015H85.804C86.5507 165.015 88.1726 165.26 88.1726 167.01V166.998Z" fill="black"/>
<path d="M104.597 164.256C103.722 163.638 102.731 163.38 101.611 163.38C100.246 163.38 99.2423 163.754 98.2511 164.372C97.0024 165.247 95.7666 166.985 95.7666 169.469C95.7666 171.336 96.2686 172.829 97.3886 173.82C98.3798 174.811 99.6284 175.313 101.122 175.313C102.744 175.313 103.979 174.811 105.099 173.82C106.348 172.571 106.966 170.834 106.966 168.967C106.837 166.972 105.975 165.234 104.597 164.243V164.256ZM101.238 173.833C100.62 173.833 99.6156 173.704 98.9977 172.842C98.251 171.966 97.8777 170.975 97.8777 169.353C97.8777 167.113 98.8689 166.122 99.2423 165.749C99.8602 165.247 100.491 165.002 101.353 165.002C102.216 165.002 102.975 165.247 103.593 165.878C104.34 166.624 104.713 167.873 104.713 169.366C104.713 170.859 104.34 171.979 103.593 172.855C102.975 173.473 102.229 173.846 101.225 173.846L101.238 173.833Z" fill="black"/>
<path d="M124.138 165.131H125.258V163.509H121.77L121.641 163.754C121.023 165.247 120.392 166.869 119.646 168.607C119.272 169.727 118.77 170.847 118.397 171.838C117.65 170.1 117.032 168.349 116.402 166.74C116.028 165.62 115.526 164.629 115.153 163.754L115.024 163.509H111.42V165.131H112.669V173.846H111.549V175.468H115.9V173.846H114.406V167.126C115.398 169.611 116.402 171.979 117.522 174.593L117.65 174.837H118.899L119.028 174.593C120.019 172.353 121.023 169.984 122.143 167.255V173.73H120.778V175.352H125.387V173.859H124.138C124.138 170.872 124.138 167.757 124.138 165.144V165.131Z" fill="black"/>
<path d="M138.066 170.486C137.191 168.117 136.329 165.504 135.582 163.522L135.453 163.277H133.96L133.831 163.522C133.329 164.886 132.711 166.508 132.093 168.13C131.347 169.997 130.6 171.992 129.982 173.601H128.862V175.095H133.342V173.601H131.978L132.106 173.357C132.351 172.855 132.48 172.237 132.724 171.735H136.329C136.457 172.237 136.702 172.726 136.831 173.099L136.959 173.601H135.711V175.095H140.319V173.601H139.199C138.826 172.726 138.453 171.606 138.079 170.486H138.066ZM135.826 170.242H133.213C133.458 169.624 133.715 168.877 133.96 168.13C134.205 167.628 134.333 167.139 134.462 166.637C134.964 167.886 135.453 169.122 135.826 170.242Z" fill="black"/>
<path d="M155.24 163.509H150.76V165.002H152.382V171.851C150.889 169.611 149.151 166.998 146.911 163.638L146.782 163.509H143.796V165.002H145.045V173.588H143.925V175.21H148.533V173.588H146.911V166.869C148.906 169.855 151.018 172.842 152.64 175.082L152.768 175.21H153.013C153.386 175.21 153.759 175.082 154.004 174.966L154.249 174.837V164.886H155.369V163.766L155.24 163.522V163.509Z" fill="black"/>
<path d="M169.052 173.717C168.679 172.726 168.305 171.606 167.932 170.486C167.057 168.117 166.194 165.504 165.448 163.522L165.319 163.277H163.826L163.697 163.522C163.195 164.886 162.577 166.508 161.959 168.13C161.212 169.997 160.466 171.992 159.848 173.73H158.728V175.223H163.208V173.73H161.843L161.972 173.485C162.217 172.983 162.345 172.366 162.59 171.863H166.194C166.323 172.366 166.568 172.855 166.696 173.228L166.825 173.73H165.576V175.223H170.185V173.73H169.065L169.052 173.717ZM165.692 170.229H163.079C163.324 169.611 163.581 168.864 163.826 168.117C164.07 167.615 164.199 167.126 164.444 166.496C164.817 167.86 165.19 169.109 165.692 170.229Z" fill="black"/>
</svg>
