<svg width="250" height="250" viewBox="0 0 250 250" fill="none" xmlns="http://www.w3.org/2000/svg">
<rect width="250" height="250" fill="white"/>
<path d="M96.9631 147.336C109.299 147.336 119.299 137.336 119.299 125C119.299 112.664 109.299 102.664 96.9631 102.664C84.6272 102.664 74.627 112.664 74.627 125C74.627 137.336 84.6272 147.336 96.9631 147.336Z" fill="#B1252F"/>
<path d="M121.704 143.455L125.484 105.342C125.514 105.009 125.797 104.756 126.131 104.756H136.218C136.501 104.756 136.753 104.948 136.844 105.221L144.374 129.872C144.394 129.932 144.485 129.932 144.495 129.872L151.823 105.221C151.903 104.948 152.156 104.756 152.449 104.756H162.657C162.991 104.756 163.274 105.009 163.304 105.342L167.155 143.455C167.195 143.839 166.892 144.173 166.508 144.173H158.058C157.725 144.173 157.452 143.93 157.412 143.597L154.986 122.797C154.986 122.726 154.875 122.716 154.855 122.787L148.902 143.698C148.821 143.981 148.568 144.173 148.275 144.173H140.523C140.23 144.173 139.977 143.981 139.896 143.698L133.893 122.787C133.873 122.716 133.772 122.726 133.762 122.797L131.316 143.597C131.275 143.92 131.002 144.173 130.669 144.173H122.341C121.957 144.173 121.654 143.839 121.694 143.455H121.704Z" fill="#324192"/>
<path d="M195.312 105.17C195.211 104.918 194.979 104.756 194.706 104.756H186.56C186.287 104.756 186.044 104.918 185.953 105.17L171.288 143.283C171.127 143.708 171.44 144.173 171.895 144.173H180.455C180.728 144.173 180.96 144.011 181.062 143.758L183.427 137.714H197.819L200.184 143.758C200.285 144.011 200.517 144.173 200.79 144.173H209.351C209.805 144.173 210.119 143.718 209.957 143.283L195.292 105.17H195.312ZM190.633 129.366H186.448L190.633 117.036L194.817 129.366H190.633Z" fill="#324192"/>
<path d="M72.4329 143.223L64.8831 128.709C64.8831 128.709 71.2403 125.697 71.2403 117.885C71.2403 105.484 59.9105 104.766 59.9105 104.766H40.6468C40.283 104.766 40 105.059 40 105.413V143.526C40 143.89 40.2931 144.173 40.6468 144.173H49.5308C49.8946 144.173 50.1776 143.88 50.1776 143.526V130.902H54.5438L61.2547 143.829C61.3659 144.041 61.5882 144.183 61.8308 144.183H71.8467C72.3318 144.183 72.6451 143.667 72.4228 143.233L72.4329 143.223ZM56.0093 122.625H50.1877V112.67H56.0093C56.0093 112.67 61.0627 112.518 61.0627 117.652C61.0627 122.787 56.0093 122.635 56.0093 122.635V122.625Z" fill="#324192"/>
<path d="M79.0736 119.007V114.6C79.0736 114.256 79.3566 113.973 79.7002 113.973H98.1351C98.408 113.973 98.6506 114.145 98.7314 114.408L103.815 129.75L108.798 114.408C108.879 114.145 109.121 113.973 109.394 113.973H114.872C115.317 113.973 115.62 114.418 115.458 114.833L106.534 137.977C106.443 138.22 106.21 138.381 105.948 138.381H101.541C101.278 138.381 101.046 138.22 100.955 137.977L93.9205 119.573H91.788V137.745C91.788 138.088 91.505 138.371 91.1614 138.371H86.0574C85.7138 138.371 85.4308 138.088 85.4308 137.745V119.603L79.7002 119.633C79.3566 119.633 79.0635 119.35 79.0635 119.007H79.0736Z" fill="white"/>
</svg>
