<svg width="250" height="250" viewBox="0 0 250 250" fill="none" xmlns="http://www.w3.org/2000/svg">
<rect width="250" height="250" fill="#191919"/>
<mask id="mask0_355_904" style="mask-type:luminance" maskUnits="userSpaceOnUse" x="40" y="67" width="170" height="116">
<path d="M210 67.0633H40V182.937H210V67.0633Z" fill="white"/>
</mask>
<g mask="url(#mask0_355_904)">
<path d="M70.6456 157.401C66.0837 158.288 62.6653 158.54 58.1075 158.54C47.0887 158.54 40 154.238 40 145.626V82.3441H52.1543V93.9586H70.6456V105.101H52.1543V143.471C52.1543 146.01 54.5611 147.274 60.0066 147.274C63.6769 147.274 66.7194 147.022 70.6456 146.01V157.401Z" fill="#DB0A33"/>
</g>
<mask id="mask1_355_904" style="mask-type:luminance" maskUnits="userSpaceOnUse" x="40" y="67" width="170" height="116">
<path d="M210 67.0633H40V182.937H210V67.0633Z" fill="white"/>
</mask>
<g mask="url(#mask1_355_904)">
<path d="M97.871 157.277C93.4411 157.277 91.0343 156.897 90.1467 150.564L78.876 93.9626H91.2861L100.782 143.731C100.906 145.878 101.161 147.022 102.049 147.022H103.696C104.456 147.022 104.84 145.878 104.964 143.731L114.459 93.9626H126.869L115.599 150.568C114.711 156.901 112.308 157.281 107.874 157.281L97.871 157.277Z" fill="#DB0A33"/>
</g>
<mask id="mask2_355_904" style="mask-type:luminance" maskUnits="userSpaceOnUse" x="40" y="67" width="170" height="116">
<path d="M210 67.0633H40V182.937H210V67.0633Z" fill="white"/>
</mask>
<g mask="url(#mask2_355_904)">
<path d="M172.336 94.4664V104.977C167.018 103.71 161.829 103.458 156.631 103.458C148.279 103.458 145.872 104.722 145.872 107V115.992C145.872 118.399 147.775 119.79 154.736 119.79C169.553 119.79 173.351 124.476 173.351 132.832V145.622C173.351 154.614 167.778 158.536 151.821 158.536C145.74 158.536 140.175 157.905 134.597 156.893V146.13C140.547 147.393 145.868 147.901 151.062 147.901C158.786 147.901 161.189 146.638 161.189 144.227V133.084C161.189 130.805 159.166 129.414 152.201 129.414C137.388 129.414 133.714 125.36 133.714 117.004V105.733C133.714 96.7413 139.155 92.6872 155.744 92.6872C161.829 92.6912 167.526 93.4548 172.336 94.4664Z" fill="#DB0A33"/>
</g>
<mask id="mask3_355_904" style="mask-type:luminance" maskUnits="userSpaceOnUse" x="40" y="67" width="170" height="116">
<path d="M210 67.0633H40V182.937H210V67.0633Z" fill="white"/>
</mask>
<g mask="url(#mask3_355_904)">
<path d="M184.4 167.352C189.982 166.928 193.668 162.71 193.668 157.129V92.8711C193.668 87.2897 189.982 83.0757 184.4 82.6519L189.454 67.0633C201.992 69.0623 210 79.0696 210 91.8156V158.184C210 170.93 201.992 180.934 189.454 182.937L184.4 167.352Z" fill="#FFD500"/>
</g>
</svg>
