<svg width="250" height="250" viewBox="0 0 250 250" fill="none" xmlns="http://www.w3.org/2000/svg">
<rect width="250" height="250" fill="#262634"/>
<path d="M65.0425 84H62.5527V165.113H65.0425V84Z" fill="url(#paint0_linear_49_11)"/>
<path d="M45.2288 144.15H46.6912C46.896 144.15 47.0636 143.984 47.0653 143.778V134.865L38.0117 141.579C39.86 143.167 42.409 144.149 45.2288 144.149V144.15Z" fill="url(#paint1_linear_49_11)"/>
<path d="M38.012 141.581L47.0655 134.867V134.399L36.7578 140.279C37.1268 140.748 37.5482 141.183 38.012 141.583V141.581Z" fill="url(#paint2_linear_49_11)"/>
<path d="M46.4186 111.626C46.3137 111.626 46.207 111.653 46.1089 111.707L37.0773 116.866C36.9792 116.922 36.8979 117.003 36.8438 117.1C36.6728 117.399 36.7778 117.782 37.0773 117.953L46.1106 123.105C46.2053 123.159 46.312 123.186 46.4203 123.188C46.7656 123.188 47.0449 122.909 47.0449 122.563V112.252C47.0449 112.144 47.0161 112.037 46.9636 111.942C46.8485 111.739 46.6369 111.626 46.4186 111.626Z" fill="url(#paint3_linear_49_11)"/>
<path d="M53.3372 129.733L43.2783 123.995L35.9579 119.816C35.8648 119.764 35.7582 119.735 35.6499 119.735H35.6482C35.6042 119.735 35.5619 119.74 35.5196 119.749C35.2352 119.806 35.0202 120.058 35.0186 120.36V135.374C35.0236 136.266 35.1777 137.143 35.4722 137.972C35.5246 138.121 35.5839 138.269 35.6465 138.416C35.6567 138.441 35.6685 138.467 35.6787 138.492C35.743 138.641 35.8124 138.787 35.8851 138.932C35.8851 138.932 35.8851 138.935 35.8868 138.935C36.1289 139.408 36.4183 139.858 36.7534 140.278L47.0612 134.398L53.3338 130.82C53.432 130.764 53.5132 130.683 53.5674 130.586C53.7383 130.286 53.6334 129.904 53.3338 129.733H53.3372Z" fill="url(#paint4_linear_49_11)"/>
<path d="M40.0632 111.631C43.3417 112.157 46.4272 109.925 46.9536 106.645C47.48 103.365 45.2475 100.281 41.9673 99.7543C41.644 99.7019 41.3241 99.6782 41.0076 99.6782C38.1066 99.6782 35.5508 101.784 35.0769 104.741C34.5505 108.019 36.783 111.105 40.0632 111.631Z" fill="url(#paint5_linear_49_11)"/>
<path d="M93.8908 107.488V112.308L102.609 112.318V105.639C102.609 104.204 102.33 102.774 101.783 101.391C101.243 100.015 100.436 98.7405 99.3832 97.6014C98.3372 96.4708 97.0441 95.5365 95.536 94.8206C94.0144 94.108 92.3134 93.7458 90.4769 93.7458C88.6405 93.7458 86.9395 94.108 85.4585 94.8256C83.9961 95.5416 82.7267 96.4759 81.6874 97.5998C80.6448 98.7152 79.8341 99.9897 79.2755 101.393C78.7339 102.784 78.458 104.213 78.458 105.639V109.793C78.458 111.924 78.6865 113.826 79.1367 115.444C79.5751 117.054 80.1997 118.552 80.9918 119.898C81.7771 121.213 82.6488 122.375 83.5831 123.355C84.4649 124.28 85.3891 125.183 86.408 126.118L86.4791 126.175C87.5454 126.937 88.4645 127.739 89.2109 128.558L89.2786 128.624C90.7748 129.904 91.9308 131.341 92.7111 132.893C93.4829 134.443 93.8739 136.248 93.8739 138.252V142.632C93.8739 143.483 93.5658 144.252 92.9278 144.986C92.3269 145.687 91.5246 146.027 90.4786 146.027C89.4326 146.027 88.7082 145.768 88.2614 145.23C87.757 144.629 87.4438 143.859 87.3034 142.879L87.2966 142.828L87.2814 142.778C87.1426 142.295 87.0732 141.804 87.0732 141.322C87.0732 140.784 87.1849 136.642 87.1866 136.6L87.2086 135.831H78.4614V142.632C78.4614 144.062 78.7373 145.489 79.2806 146.875C79.8358 148.268 80.6448 149.544 81.6874 150.67C82.7385 151.804 84.013 152.72 85.4822 153.393C86.9598 154.062 88.6405 154.4 90.4786 154.4C92.3167 154.4 94.0008 154.064 95.5241 153.395C97.0322 152.725 98.3304 151.807 99.3866 150.667C100.439 149.519 101.247 148.241 101.782 146.875C102.33 145.499 102.609 144.071 102.609 142.632V138.252C102.609 136.077 102.381 134.137 101.931 132.483C101.475 130.843 100.849 129.364 100.069 128.076C99.285 126.81 98.3914 125.666 97.4097 124.676C96.4838 123.75 95.5445 122.853 94.5238 121.915L91.7243 119.461C91.3283 118.997 90.9474 118.555 90.5531 118.119C90.1655 117.696 89.7779 117.247 89.4309 116.836C88.764 115.871 88.214 114.811 87.7942 113.689C87.3931 112.582 87.1883 111.271 87.1883 109.793V105.639C87.1883 104.707 87.4828 103.893 88.0955 103.146C88.6523 102.457 89.4326 102.122 90.4786 102.122C91.5805 102.122 92.3624 102.391 92.8042 102.914C93.3052 103.522 93.6285 104.314 93.7808 105.348C93.84 105.584 93.8739 105.836 93.8925 106.173C93.9128 106.486 93.9044 106.821 93.8959 107.186L93.8891 107.489L93.8908 107.488Z" fill="url(#paint6_linear_49_11)"/>
<path d="M129.144 101.393C128.599 100.003 127.79 98.727 126.742 97.6015C125.696 96.4759 124.428 95.5433 122.959 94.8308C121.482 94.1097 119.792 93.7492 117.954 93.7492C116.116 93.7492 114.408 94.1097 112.887 94.8223C111.382 95.5349 110.089 96.4759 109.043 97.6032C107.997 98.7287 107.186 100.005 106.641 101.395C106.096 102.776 105.813 104.209 105.813 105.643V153.815H114.549V143.118C116.835 142.617 118.929 141.789 120.777 140.655C122.783 139.423 124.489 137.912 125.837 136.143C127.182 134.393 128.221 132.467 128.924 130.417C129.619 128.367 129.97 126.29 129.97 124.251V105.645C129.97 104.211 129.689 102.786 129.144 101.396V101.393ZM121.236 124.247C121.236 124.528 121.218 124.82 121.201 125.101C121.192 125.189 121.174 125.285 121.165 125.373C121.148 125.566 121.121 125.75 121.085 125.937C121.069 126.06 121.041 126.182 121.014 126.306C120.989 126.446 120.953 126.595 120.918 126.737C120.874 126.905 120.83 127.071 120.777 127.238C120.75 127.326 120.733 127.406 120.708 127.484C120.629 127.712 120.54 127.951 120.452 128.171C120.452 128.179 120.452 128.188 120.444 128.188C120.364 128.391 120.276 128.592 120.188 128.787C120.004 129.175 119.811 129.544 119.591 129.896C119.484 130.089 119.362 130.273 119.239 130.459C119.23 130.459 119.23 130.468 119.23 130.468L119.222 130.476C118.949 130.881 118.65 131.268 118.333 131.62C118.308 131.647 118.281 131.681 118.254 131.708C118.13 131.849 117.998 131.981 117.866 132.113C116.829 133.177 115.657 133.942 114.551 134.311V105.643C114.551 104.71 114.859 103.901 115.492 103.163C116.099 102.459 116.908 102.124 117.956 102.124C118.924 102.124 119.689 102.459 120.295 103.163C120.928 103.901 121.236 104.71 121.236 105.643V124.249V124.247Z" fill="url(#paint7_linear_49_11)"/>
<path d="M185.17 101.269C184.617 99.8799 183.808 98.6037 182.768 97.4866C181.722 96.3611 180.446 95.4369 178.969 94.7599C177.499 94.0913 175.819 93.7477 173.981 93.7477C172.142 93.7477 170.445 94.0913 168.932 94.7599C167.419 95.4369 166.117 96.3526 165.069 97.4866C164.013 98.6206 163.204 99.8968 162.668 101.278C162.123 102.676 161.84 104.101 161.84 105.526V153.813H170.575V139.438C172.554 140.283 174.094 141.568 175.255 143.326C176.601 145.412 177.261 147.47 177.261 149.624V153.812H185.996V149.624C185.996 146.678 185.292 143.731 183.894 140.881C182.653 138.311 180.824 136.113 178.466 134.327C180.824 132.541 182.653 130.36 183.894 127.826C185.292 125.001 185.996 122.081 185.996 119.143V105.525C185.996 104.099 185.713 102.674 185.168 101.268L185.17 101.269ZM177.263 119.145C177.263 119.277 177.262 119.409 177.246 119.541C177.237 119.92 177.202 120.297 177.141 120.666C177.114 120.851 177.08 121.035 177.044 121.22C177.036 121.291 177.017 121.36 177 121.43C176.973 121.57 176.929 121.702 176.895 121.843C176.86 121.993 176.816 122.142 176.763 122.291C176.403 123.515 175.822 124.666 175.022 125.705C174.89 125.873 174.758 126.04 174.617 126.198C173.552 127.491 172.207 128.511 170.58 129.205V105.525C170.58 104.672 170.888 103.907 171.521 103.158C172.129 102.463 172.928 102.119 173.984 102.119C174.952 102.119 175.717 102.463 176.315 103.158C176.958 103.905 177.266 104.672 177.266 105.525V119.143L177.263 119.145Z" fill="url(#paint8_linear_49_11)"/>
<path d="M156.475 106.117C156.475 104.683 156.202 103.248 155.649 101.867C155.102 100.477 154.293 99.2009 153.256 98.0754C152.2 96.9413 150.898 96.0172 149.395 95.3486C147.882 94.6801 146.184 94.3365 144.344 94.3365H137.43V102.711H144.344C145.39 102.711 146.191 103.055 146.799 103.757C147.44 104.487 147.748 105.262 147.748 106.115V109.994C145.407 110.495 143.297 111.332 141.459 112.484C139.488 113.708 137.808 115.229 136.454 116.988C135.108 118.747 134.069 120.683 133.375 122.722C132.679 124.764 132.327 126.839 132.327 128.89V142.622C132.327 144.064 132.6 145.489 133.145 146.87C133.69 148.26 134.5 149.536 135.546 150.662C136.603 151.806 137.904 152.72 139.409 153.388C140.93 154.057 142.628 154.4 144.458 154.4C146.287 154.4 147.977 154.057 149.454 153.388C150.923 152.72 152.198 151.796 153.254 150.662C154.292 149.536 155.101 148.26 155.647 146.87C156.201 145.481 156.473 144.056 156.473 142.622V106.115L156.475 106.117ZM147.74 142.624C147.74 143.477 147.432 144.25 146.799 144.981C146.191 145.685 145.426 146.029 144.458 146.029C143.41 146.029 142.611 145.685 142.004 144.981C141.362 144.25 141.054 143.477 141.054 142.624V128.892C141.054 128.548 141.081 128.215 141.115 127.871C141.115 127.854 141.115 127.836 141.123 127.819C141.15 127.519 141.203 127.23 141.255 126.939C141.281 126.798 141.316 126.649 141.352 126.507C141.589 125.459 141.976 124.466 142.505 123.552C142.53 123.516 142.549 123.491 142.565 123.455C142.601 123.376 142.653 123.296 142.706 123.217C142.821 123.015 142.953 122.812 143.102 122.619C143.11 122.592 143.138 122.567 143.163 122.54C143.234 122.425 143.322 122.311 143.41 122.205C143.515 122.064 143.622 121.932 143.735 121.8C143.752 121.783 143.771 121.764 143.779 121.748C143.964 121.544 144.15 121.343 144.333 121.159C144.404 121.087 144.465 121.018 144.536 120.947C144.571 120.922 144.597 120.894 144.632 120.859C144.649 120.85 144.668 120.834 144.676 120.823C144.949 120.576 145.23 120.339 145.521 120.119C145.538 120.111 145.556 120.092 145.573 120.075C145.609 120.058 145.644 120.031 145.678 120.014C145.89 119.857 146.118 119.706 146.347 119.566C146.426 119.522 146.496 119.469 146.575 119.425C146.592 119.417 146.611 119.408 146.628 119.398C146.944 119.214 147.269 119.046 147.604 118.897C147.648 118.88 147.692 118.845 147.736 118.826V142.622L147.74 142.624Z" fill="url(#paint9_linear_49_11)"/>
<path d="M215 118.55V94.3365H206.268V118.55C206.268 118.874 206.248 119.195 206.215 119.517C206.207 119.612 206.193 119.703 206.182 119.796C206.158 119.992 206.127 120.187 206.092 120.382C205.73 122.46 204.787 124.334 203.433 125.837C203.352 125.93 203.269 126.02 203.184 126.111C202.989 126.312 202.785 126.505 202.575 126.692C202.317 126.923 202.047 127.142 201.764 127.348C201.596 127.472 201.429 127.594 201.255 127.707C201.075 127.822 200.894 127.934 200.706 128.04C200.417 128.206 200.119 128.357 199.814 128.496C199.733 128.533 199.662 128.58 199.579 128.616V94.3365H190.849V153.811H199.579V137.918H202.983C203.947 137.918 204.714 138.26 205.322 138.963C205.956 139.701 206.266 140.472 206.266 141.32V153.811H214.998V144.049C214.998 141.701 214.69 139.342 214.084 137.038C213.51 134.853 212.063 133.047 209.782 131.661C211.401 129.948 212.657 128.008 213.519 125.888C214.501 123.479 214.998 121.01 214.998 118.549L215 118.55Z" fill="url(#paint10_linear_49_11)"/>
<defs>
<linearGradient id="paint0_linear_49_11" x1="47.9307" y1="120.393" x2="129.016" y2="141.666" gradientUnits="userSpaceOnUse">
<stop stop-color="#333333"/>
<stop offset="0.32" stop-color="#999999"/>
</linearGradient>
<linearGradient id="paint1_linear_49_11" x1="41.4984" y1="136.603" x2="58.1092" y2="162.474" gradientUnits="userSpaceOnUse">
<stop stop-color="#333333"/>
<stop offset="0.33" stop-color="#999999"/>
</linearGradient>
<linearGradient id="paint2_linear_49_11" x1="44.0697" y1="140.858" x2="38.6806" y2="132.07" gradientUnits="userSpaceOnUse">
<stop stop-color="#333333"/>
<stop offset="1" stop-color="#1A1A1A"/>
</linearGradient>
<linearGradient id="paint3_linear_49_11" x1="39.7821" y1="107.54" x2="57.256" y2="167.604" gradientUnits="userSpaceOnUse">
<stop stop-color="#333333"/>
<stop offset="0.33" stop-color="#999999"/>
</linearGradient>
<linearGradient id="paint4_linear_49_11" x1="42.2729" y1="139.626" x2="50.6426" y2="81.5881" gradientUnits="userSpaceOnUse">
<stop stop-color="#333333"/>
<stop offset="0.33" stop-color="#999999"/>
</linearGradient>
<linearGradient id="paint5_linear_49_11" x1="32.7005" y1="114.107" x2="81.0858" y2="65.1515" gradientUnits="userSpaceOnUse">
<stop stop-color="#333333"/>
<stop offset="0.33" stop-color="#999999"/>
</linearGradient>
<linearGradient id="paint6_linear_49_11" x1="80.1861" y1="154.81" x2="98.393" y2="100.833" gradientUnits="userSpaceOnUse">
<stop stop-color="#615F5F"/>
<stop offset="0.74" stop-color="#ADB1B8"/>
</linearGradient>
<linearGradient id="paint7_linear_49_11" x1="105.091" y1="157.51" x2="123.127" y2="98.314" gradientUnits="userSpaceOnUse">
<stop stop-color="#615F5F"/>
<stop offset="0.74" stop-color="#ADB1B8"/>
</linearGradient>
<linearGradient id="paint8_linear_49_11" x1="169.336" y1="157.375" x2="178.992" y2="98.0672" gradientUnits="userSpaceOnUse">
<stop stop-color="#615F5F"/>
<stop offset="0.74" stop-color="#ADB1B8"/>
</linearGradient>
<linearGradient id="paint9_linear_49_11" x1="137.359" y1="155.294" x2="152.259" y2="99.2618" gradientUnits="userSpaceOnUse">
<stop stop-color="#615F5F"/>
<stop offset="0.74" stop-color="#ADB1B8"/>
</linearGradient>
<linearGradient id="paint10_linear_49_11" x1="202.031" y1="154.949" x2="203.739" y2="95.9613" gradientUnits="userSpaceOnUse">
<stop stop-color="#615F5F"/>
<stop offset="0.74" stop-color="#ADB1B8"/>
</linearGradient>
</defs>
</svg>
