<svg width="284" height="284" viewBox="0 0 284 284" fill="none" xmlns="http://www.w3.org/2000/svg">
<rect width="283.5" height="283.5" fill="#262634"/>
<g clip-path="url(#clip0_49_11)">
<path d="M72.1311 94.8411H69.2402V189.022H72.1311V94.8411Z" fill="url(#paint0_linear_49_11)"/>
<path d="M49.126 164.683H50.824C51.0618 164.683 51.2563 164.49 51.2583 164.25V153.901L40.7461 161.697C42.8922 163.541 45.8519 164.681 49.126 164.681V164.683Z" fill="url(#paint1_linear_49_11)"/>
<path d="M40.7463 161.699L51.2585 153.903V153.361L39.29 160.188C39.7185 160.733 40.2078 161.238 40.7463 161.701V161.699Z" fill="url(#paint2_linear_49_11)"/>
<path d="M50.5077 126.918C50.3858 126.918 50.262 126.95 50.148 127.013L39.6614 133.003C39.5474 133.067 39.4531 133.162 39.3902 133.274C39.1917 133.622 39.3135 134.066 39.6614 134.264L50.15 140.247C50.2601 140.309 50.3839 140.341 50.5097 140.343C50.9106 140.343 51.2348 140.019 51.2348 139.618V127.645C51.2348 127.52 51.2014 127.396 51.1405 127.286C51.0069 127.05 50.7612 126.918 50.5077 126.918Z" fill="url(#paint3_linear_49_11)"/>
<path d="M58.5415 147.943L46.862 141.28L38.3622 136.428C38.2541 136.367 38.1303 136.334 38.0045 136.334H38.0026C37.9515 136.334 37.9023 136.34 37.8532 136.349C37.523 136.416 37.2734 136.709 37.2715 137.059V154.493C37.2774 155.529 37.4562 156.547 37.7982 157.51C37.8591 157.682 37.9279 157.853 38.0006 158.024C38.0124 158.054 38.0261 158.083 38.0379 158.113C38.1126 158.286 38.1932 158.455 38.2777 158.624C38.2777 158.624 38.2777 158.628 38.2797 158.628C38.5607 159.176 38.8968 159.699 39.2859 160.186L51.2543 153.359L58.5376 149.204C58.6516 149.139 58.7459 149.045 58.8088 148.933C59.0073 148.585 58.8855 148.141 58.5376 147.943H58.5415Z" fill="url(#paint4_linear_49_11)"/>
<path d="M43.128 126.924C46.9347 127.535 50.5174 124.943 51.1286 121.134C51.7398 117.326 49.1476 113.745 45.3389 113.134C44.9635 113.073 44.5921 113.045 44.2246 113.045C40.8561 113.045 37.8886 115.49 37.3383 118.923C36.7271 122.73 39.3193 126.313 43.128 126.924Z" fill="url(#paint5_linear_49_11)"/>
<path d="M105.627 122.113V127.71L115.75 127.722V119.967C115.75 118.3 115.426 116.64 114.791 115.034C114.164 113.436 113.227 111.957 112.005 110.634C110.79 109.321 109.289 108.236 107.538 107.405C105.771 106.578 103.796 106.157 101.663 106.157C99.531 106.157 97.5559 106.578 95.8363 107.411C94.1384 108.242 92.6644 109.327 91.4577 110.632C90.2471 111.927 89.3058 113.407 88.6572 115.036C88.0283 116.652 87.708 118.31 87.708 119.967V124.79C87.708 127.264 87.9733 129.473 88.4961 131.352C89.0051 133.221 89.7303 134.96 90.65 136.522C91.5619 138.049 92.574 139.4 93.6588 140.537C94.6827 141.61 95.7558 142.66 96.9389 143.745L97.0214 143.812C98.2595 144.696 99.3267 145.627 100.193 146.579L100.272 146.655C102.009 148.141 103.352 149.81 104.257 151.612C105.154 153.412 105.608 155.507 105.608 157.834V162.92C105.608 163.908 105.25 164.801 104.509 165.654C103.811 166.467 102.88 166.862 101.665 166.862C100.451 166.862 99.6097 166.561 99.0908 165.937C98.5052 165.239 98.1416 164.345 97.9785 163.207L97.9706 163.148L97.9529 163.089C97.7918 162.529 97.7112 161.959 97.7112 161.399C97.7112 160.774 97.8409 155.965 97.8429 155.916L97.8684 155.023H87.7119V162.92C87.7119 164.581 88.0323 166.237 88.6631 167.847C89.3077 169.464 90.2471 170.946 91.4577 172.253C92.6782 173.57 94.158 174.633 95.8639 175.415C97.5795 176.191 99.531 176.584 101.665 176.584C103.8 176.584 105.755 176.193 107.524 175.417C109.275 174.639 110.782 173.574 112.009 172.249C113.231 170.917 114.168 169.433 114.789 167.847C115.426 166.249 115.75 164.59 115.75 162.92V157.834C115.75 155.308 115.485 153.056 114.962 151.136C114.434 149.232 113.706 147.514 112.801 146.019C111.891 144.549 110.853 143.22 109.713 142.07C108.638 140.995 107.547 139.954 106.362 138.865L103.112 136.015C102.652 135.477 102.21 134.964 101.752 134.457C101.302 133.966 100.852 133.445 100.449 132.967C99.6745 131.847 99.0358 130.617 98.5484 129.314C98.0826 128.029 97.8448 126.505 97.8448 124.79V119.967C97.8448 118.884 98.1868 117.939 98.8982 117.072C99.5448 116.272 100.451 115.883 101.665 115.883C102.945 115.883 103.853 116.196 104.366 116.803C104.947 117.508 105.323 118.428 105.5 119.629C105.568 119.902 105.608 120.195 105.629 120.586C105.653 120.95 105.643 121.339 105.633 121.763L105.625 122.115L105.627 122.113Z" fill="url(#paint6_linear_49_11)"/>
<path d="M146.56 115.036C145.927 113.423 144.988 111.941 143.771 110.634C142.557 109.327 141.085 108.244 139.379 107.417C137.663 106.58 135.702 106.161 133.568 106.161C131.433 106.161 129.45 106.58 127.684 107.407C125.936 108.234 124.435 109.327 123.22 110.636C122.006 111.943 121.065 113.425 120.432 115.038C119.799 116.642 119.471 118.306 119.471 119.971V175.904H129.613V163.484C132.269 162.902 134.7 161.941 136.846 160.624C139.174 159.194 141.155 157.439 142.72 155.385C144.282 153.353 145.489 151.116 146.304 148.737C147.112 146.357 147.519 143.945 147.519 141.577V119.973C147.519 118.308 147.193 116.654 146.56 115.04V115.036ZM137.378 141.573C137.378 141.899 137.357 142.237 137.337 142.564C137.327 142.666 137.305 142.778 137.296 142.88C137.276 143.104 137.245 143.318 137.203 143.534C137.184 143.678 137.152 143.819 137.121 143.963C137.091 144.126 137.05 144.299 137.009 144.464C136.958 144.659 136.907 144.851 136.846 145.046C136.814 145.148 136.795 145.24 136.765 145.331C136.673 145.596 136.57 145.873 136.468 146.129C136.468 146.138 136.468 146.148 136.458 146.148C136.366 146.384 136.264 146.618 136.162 146.844C135.947 147.294 135.723 147.722 135.468 148.131C135.344 148.355 135.203 148.569 135.059 148.786C135.049 148.786 135.049 148.795 135.049 148.795L135.04 148.805C134.723 149.275 134.375 149.725 134.008 150.134C133.978 150.165 133.947 150.205 133.915 150.236C133.772 150.399 133.619 150.552 133.465 150.706C132.261 151.942 130.901 152.83 129.615 153.259V119.971C129.615 118.888 129.973 117.949 130.708 117.092C131.414 116.274 132.353 115.885 133.57 115.885C134.694 115.885 135.582 116.274 136.286 117.092C137.021 117.949 137.378 118.888 137.378 119.971V141.575V141.573Z" fill="url(#paint7_linear_49_11)"/>
<path d="M211.614 114.893C210.971 113.279 210.032 111.797 208.825 110.5C207.61 109.193 206.129 108.12 204.413 107.334C202.707 106.558 200.756 106.159 198.621 106.159C196.487 106.159 194.516 106.558 192.759 107.334C191.002 108.12 189.491 109.184 188.274 110.5C187.048 111.817 186.108 113.299 185.485 114.903C184.853 116.526 184.524 118.181 184.524 119.835V175.902H194.667V159.211C196.965 160.192 198.753 161.684 200.101 163.726C201.663 166.147 202.43 168.537 202.43 171.038V175.9H212.573V171.038C212.573 167.617 211.755 164.195 210.132 160.886C208.691 157.903 206.567 155.35 203.829 153.276C206.567 151.203 208.691 148.67 210.132 145.728C211.755 142.448 212.573 139.058 212.573 135.646V119.833C212.573 118.179 212.244 116.524 211.612 114.891L211.614 114.893ZM202.432 135.648C202.432 135.801 202.432 135.954 202.412 136.108C202.402 136.548 202.361 136.986 202.29 137.415C202.259 137.629 202.22 137.843 202.178 138.057C202.169 138.14 202.147 138.22 202.127 138.301C202.096 138.464 202.045 138.617 202.005 138.78C201.964 138.955 201.913 139.128 201.852 139.301C201.434 140.722 200.759 142.059 199.83 143.265C199.677 143.46 199.523 143.654 199.36 143.837C198.124 145.339 196.562 146.524 194.673 147.329V119.833C194.673 118.843 195.031 117.955 195.766 117.086C196.471 116.278 197.399 115.879 198.625 115.879C199.749 115.879 200.638 116.278 201.331 117.086C202.078 117.953 202.436 118.843 202.436 119.833V135.646L202.432 135.648Z" fill="url(#paint8_linear_49_11)"/>
<path d="M178.295 120.521C178.295 118.857 177.979 117.19 177.336 115.586C176.701 113.973 175.762 112.491 174.557 111.184C173.331 109.868 171.82 108.794 170.075 108.018C168.318 107.242 166.346 106.843 164.21 106.843H156.182V116.567H164.21C165.425 116.567 166.354 116.966 167.06 117.782C167.805 118.629 168.162 119.529 168.162 120.519V125.024C165.444 125.605 162.994 126.576 160.859 127.915C158.572 129.335 156.62 131.102 155.048 133.144C153.486 135.186 152.279 137.434 151.473 139.802C150.666 142.173 150.257 144.582 150.257 146.964V162.908C150.257 164.582 150.573 166.237 151.206 167.841C151.839 169.454 152.78 170.936 153.995 172.243C155.221 173.572 156.732 174.633 158.479 175.409C160.246 176.185 162.217 176.584 164.342 176.584C166.466 176.584 168.428 176.185 170.143 175.409C171.849 174.633 173.329 173.56 174.555 172.243C175.76 170.936 176.699 169.454 177.334 167.841C177.977 166.227 178.293 164.573 178.293 162.908V120.519L178.295 120.521ZM168.153 162.91C168.153 163.901 167.795 164.799 167.06 165.648C166.354 166.465 165.466 166.864 164.342 166.864C163.125 166.864 162.198 166.465 161.492 165.648C160.747 164.799 160.39 163.901 160.39 162.91V146.966C160.39 146.567 160.421 146.18 160.46 145.781C160.46 145.761 160.46 145.74 160.47 145.72C160.502 145.372 160.563 145.036 160.624 144.698C160.653 144.535 160.694 144.362 160.736 144.197C161.011 142.98 161.461 141.827 162.074 140.765C162.103 140.724 162.125 140.695 162.145 140.653C162.186 140.561 162.247 140.469 162.308 140.376C162.441 140.142 162.595 139.907 162.768 139.683C162.778 139.651 162.809 139.622 162.838 139.59C162.921 139.457 163.023 139.325 163.125 139.201C163.247 139.038 163.371 138.885 163.503 138.731C163.522 138.712 163.544 138.69 163.554 138.67C163.768 138.435 163.984 138.201 164.196 137.987C164.279 137.904 164.35 137.823 164.432 137.741C164.474 137.711 164.503 137.68 164.544 137.639C164.564 137.629 164.586 137.609 164.595 137.597C164.912 137.31 165.238 137.035 165.576 136.78C165.596 136.77 165.617 136.748 165.637 136.729C165.678 136.709 165.72 136.678 165.759 136.658C166.005 136.475 166.27 136.3 166.535 136.137C166.627 136.086 166.708 136.025 166.8 135.974C166.82 135.964 166.842 135.954 166.861 135.943C167.229 135.728 167.606 135.534 167.995 135.361C168.046 135.341 168.098 135.3 168.149 135.278V162.908L168.153 162.91Z" fill="url(#paint9_linear_49_11)"/>
<path d="M246.249 134.958V106.843H236.111V134.958C236.111 135.333 236.087 135.707 236.05 136.08C236.04 136.19 236.024 136.296 236.01 136.405C235.983 136.632 235.947 136.858 235.906 137.084C235.486 139.498 234.391 141.673 232.819 143.419C232.724 143.527 232.628 143.631 232.53 143.737C232.304 143.971 232.066 144.195 231.822 144.411C231.524 144.68 231.209 144.934 230.881 145.174C230.686 145.317 230.492 145.458 230.289 145.59C230.081 145.724 229.871 145.853 229.653 145.977C229.317 146.17 228.971 146.345 228.617 146.506C228.523 146.549 228.44 146.604 228.344 146.645V106.843H218.207V175.9H228.344V157.447H232.296C233.416 157.447 234.306 157.844 235.012 158.659C235.749 159.516 236.109 160.412 236.109 161.397V175.9H246.247V164.565C246.247 161.839 245.89 159.099 245.186 156.425C244.52 153.887 242.84 151.791 240.19 150.181C242.071 148.192 243.529 145.94 244.53 143.477C245.67 140.681 246.247 137.814 246.247 134.956L246.249 134.958Z" fill="url(#paint10_linear_49_11)"/>
</g>
<defs>
<linearGradient id="paint0_linear_49_11" x1="52.2623" y1="137.098" x2="146.412" y2="161.798" gradientUnits="userSpaceOnUse">
<stop stop-color="#333333"/>
<stop offset="0.32" stop-color="#999999"/>
</linearGradient>
<linearGradient id="paint1_linear_49_11" x1="44.7945" y1="155.92" x2="64.0817" y2="185.959" gradientUnits="userSpaceOnUse">
<stop stop-color="#333333"/>
<stop offset="0.33" stop-color="#999999"/>
</linearGradient>
<linearGradient id="paint2_linear_49_11" x1="47.78" y1="160.86" x2="41.5226" y2="150.657" gradientUnits="userSpaceOnUse">
<stop stop-color="#333333"/>
<stop offset="1" stop-color="#1A1A1A"/>
</linearGradient>
<linearGradient id="paint3_linear_49_11" x1="42.8019" y1="122.174" x2="63.0913" y2="191.915" gradientUnits="userSpaceOnUse">
<stop stop-color="#333333"/>
<stop offset="0.33" stop-color="#999999"/>
</linearGradient>
<linearGradient id="paint4_linear_49_11" x1="45.6946" y1="159.43" x2="55.4128" y2="92.0406" gradientUnits="userSpaceOnUse">
<stop stop-color="#333333"/>
<stop offset="0.33" stop-color="#999999"/>
</linearGradient>
<linearGradient id="paint5_linear_49_11" x1="34.5791" y1="129.799" x2="90.7601" y2="72.9559" gradientUnits="userSpaceOnUse">
<stop stop-color="#333333"/>
<stop offset="0.33" stop-color="#999999"/>
</linearGradient>
<linearGradient id="paint6_linear_49_11" x1="89.7145" y1="177.06" x2="110.855" y2="114.386" gradientUnits="userSpaceOnUse">
<stop stop-color="#615F5F"/>
<stop offset="0.74" stop-color="#ADB1B8"/>
</linearGradient>
<linearGradient id="paint7_linear_49_11" x1="118.632" y1="180.195" x2="139.573" y2="111.461" gradientUnits="userSpaceOnUse">
<stop stop-color="#615F5F"/>
<stop offset="0.74" stop-color="#ADB1B8"/>
</linearGradient>
<linearGradient id="paint8_linear_49_11" x1="193.229" y1="180.037" x2="204.44" y2="111.174" gradientUnits="userSpaceOnUse">
<stop stop-color="#615F5F"/>
<stop offset="0.74" stop-color="#ADB1B8"/>
</linearGradient>
<linearGradient id="paint9_linear_49_11" x1="156.1" y1="177.622" x2="173.4" y2="112.562" gradientUnits="userSpaceOnUse">
<stop stop-color="#615F5F"/>
<stop offset="0.74" stop-color="#ADB1B8"/>
</linearGradient>
<linearGradient id="paint10_linear_49_11" x1="231.192" y1="177.221" x2="233.174" y2="108.73" gradientUnits="userSpaceOnUse">
<stop stop-color="#615F5F"/>
<stop offset="0.74" stop-color="#ADB1B8"/>
</linearGradient>
<clipPath id="clip0_49_11">
<rect width="209" height="94.545" fill="white" transform="translate(37.25 94.4775)"/>
</clipPath>
</defs>
</svg>
