<?xml version="1.0" encoding="utf-8"?>
<!-- Generator: Adobe Illustrator 28.3.0, SVG Export Plug-In . SVG Version: 6.00 Build 0)  -->
<svg version="1.1" id="Vrstva_1" xmlns="http://www.w3.org/2000/svg" xmlns:xlink="http://www.w3.org/1999/xlink" x="0px" y="0px"
	 viewBox="0 0 283.5 283.5" style="enable-background:new 0 0 283.5 283.5;" xml:space="preserve">
<style type="text/css">
	.st0{fill:#3DC1FF;}
	.st1{fill:#FFFFFF;}
</style>
<rect class="st0" width="283.5" height="283.5"/>
<g>
	<g>
		<path class="st1" d="M189.2,220.7c-1.6-9.8-3-19.2-4.7-28.5c-0.3-1.9-1.7-3.6-2.7-5.3c-0.8-1.2-1.9-2.2-3.8-4.4
			c0,13.5,0,25.7,0,38.2c-4.6,0-8.5,0-13.2,0c0-1.7,0-3.5,0-5.2c0-40.9,0-81.8,0-122.7c0-7.9,1.3-15.5,5.2-22.5
			c2.8-5.1,6.5-9.3,13.1-9.3c6.3,0,10.2,4,12.6,9.1c2.2,4.7,4.7,9.9,4.8,15c0.3,19,0.2,38.1-0.6,57.1c-0.4,9.7-4.2,18.7-9.8,26.8
			c10.4,15.7,11.8,33.3,10.7,51.8C196.5,220.7,192.5,220.7,189.2,220.7z M177.8,154.1c0.4,0.1,0.7,0.3,1.1,0.4
			c1.3-1.8,3.2-3.3,3.9-5.3c1.9-5.9,4.4-11.9,4.8-18c0.7-12.9,0.3-25.8,0.2-38.7c0-1.9-0.3-4.1-1.2-5.7c-0.7-1.4-2.4-2.9-3.9-3.1
			c-1.1-0.1-3,1.6-3.4,2.9c-0.9,2.4-1.3,5.1-1.3,7.7c-0.1,18.5-0.1,37.1-0.1,55.6C177.8,151.3,177.8,152.7,177.8,154.1z"/>
		<path class="st1" d="M208.8,62.8c4.3,0,8.2,0,12.5,0c0,30,0,59.8,0,89.5c0.4,0.2,0.7,0.4,1.1,0.6c1.4-1.8,3.5-3.4,4.1-5.5
			c2-6.9,4.5-14,4.8-21c0.7-19.2,0.2-38.4,0.2-57.6c0-1.8,0-3.6,0-5.9c4.3,0,8.3,0,12.8,0c0.1,1.6,0.3,3.2,0.3,4.8
			c0,19.7,0,39.4,0,59.1c0,11.2-1.9,22-6.3,32.4c-0.5,1.2-0.9,3.2-0.3,4c5.2,6.7,5.9,14.7,6.3,22.6c0.5,11.5,0.1,23.1,0.1,35
			c-4.2,0-8.3,0-12.8,0c0-10.1,0-20,0-29.9c0-2,0-4-0.3-5.9c-1.1-5.7-2.9-6.8-9.6-5.9c0,13.8,0,27.6,0,41.7c-4.4,0-8.3,0-12.7,0
			C208.8,168.2,208.8,115.7,208.8,62.8z"/>
		<path class="st1" d="M128.1,84.7c0-7.5,0-14.5,0-21.4c11.6-3.4,20.1,0,24.3,10.8c2.4,6.2,4,13.1,4.1,19.7
			c0.4,32.4,0.2,64.9,0.2,97.3c0,8.2-1.6,16.1-6,23.2c-6.7,10.9-18.5,11.1-24.3-0.2c-3.4-6.7-5.5-14.7-5.9-22.2
			c-0.7-15.7-0.3-31.4,0.5-47.1c0.5-11,3.8-21.5,10.4-30.6c2.4-3.3,5.6-6,8.9-8.4c4.3-3.1,4.5-17.8-0.2-20.2c-2-1-4.8-0.6-7.3-0.7
			C131.5,84.8,130,84.8,128.1,84.7z M143.6,129.2c-6.7,5.2-9.3,12.2-9.6,19.7c-0.5,14.4-0.3,28.8-0.3,43.2c0,1.9,0.6,4,1.5,5.7
			c1.8,3.2,4.9,3.3,6.4,0c1.2-2.8,1.8-6,1.9-9.1c0.2-18.5,0.1-37.1,0.1-55.6C143.6,131.8,143.6,130.5,143.6,129.2z"/>
		<path class="st1" d="M93.9,220.8c-4.7,0-8.6,0-13.1,0c-0.1-2-0.2-3.7-0.2-5.5c0-40.4-0.2-80.8,0.2-121.2
			c0.1-7.6,2.3-15.3,4.8-22.5c2-5.7,6.1-10.4,13.1-10.5c7.1-0.1,10.9,4.8,13.3,10.3c2.3,5.6,4.6,11.7,4.7,17.5
			c0.3,21.7,0.1,43.4-0.8,65c-0.5,10.8-4.3,21.1-11,29.8c-1.5,1.9-3.2,4.3-5.3,5.2c-5.9,2.4-6,6.9-5.8,12.1
			C94,207.4,93.9,213.9,93.9,220.8z M94.3,168.9c5.7-6.3,8.6-12.8,8.8-19.8c0.6-19.2,0.6-38.3,0.7-57.5c0-1.6-0.4-3.4-1.2-4.8
			c-0.8-1.4-2.4-3.3-3.7-3.3c-1.3,0-3.1,1.7-3.8,3.1c-0.9,2-1.2,4.5-1.2,6.7c-0.1,23.8-0.1,47.6,0,71.4
			C93.9,165.8,94,166.7,94.3,168.9z"/>
		<path class="st1" d="M62.6,110.3c0-3.1,0-6.1,0-9c0-3.1,0.1-6.3-0.2-9.4c-0.4-3.5,0.2-8.4-4.9-8.3c-4.4,0.1-4.5,4.8-4.8,8.1
			c-1.1,15.3,0.7,29.9,10.1,43c15.1,21.1,15.1,44.9,11.2,69.1c-0.8,4.8-3.5,9.7-6.6,13.6c-5.6,7.2-14.6,7.1-19.8-0.3
			c-3.2-4.6-6-10.2-6.9-15.7c-1.5-9-1.2-18.4-1.8-28c4.9,0,8.9,0,13.1,0c0.3,6.8,0.6,13.5,1.1,20.2c0.1,1.4,0.5,3,1.2,4.3
			c1.6,2.9,4.4,3.1,6.3,0.3c0.9-1.3,1.5-3,1.7-4.6c1.2-16.5,0.3-32.2-10.5-46.2c-8.4-10.9-11.9-24.1-12.1-37.7
			c-0.2-10.2,0.4-20.5,1.9-30.6c0.7-4.8,3.7-9.6,6.8-13.5c5.3-6.7,13.1-6.3,18.8,0.2c6,6.8,8,15.2,8.4,23.9
			c0.4,6.7,0.1,13.5,0.1,20.6C71.4,110.3,67.3,110.3,62.6,110.3z"/>
	</g>
</g>
</svg>
