<svg width="250" height="250" viewBox="0 0 250 250" fill="none" xmlns="http://www.w3.org/2000/svg">
<rect width="250" height="250" fill="#186283"/>
<path d="M94.9191 105.403C94.9191 100.934 91.3094 97.41 86.8402 97.41H48.0789C43.6097 97.41 40 100.934 40 105.403C40 109.872 43.6097 113.396 48.0789 113.396C48.4226 113.482 59.4237 113.482 59.4237 113.482C59.4237 113.482 59.4237 144.508 59.5096 144.68C59.5096 149.149 63.1193 152.673 67.5885 152.673C72.0576 152.673 75.6673 149.063 75.6673 144.594C75.6673 144.336 75.5814 113.396 75.5814 113.396C75.5814 113.396 86.9262 113.396 87.27 113.31C91.5672 113.138 95.0051 109.614 95.0051 105.317L94.9191 105.403Z" fill="white"/>
<path d="M209.914 105.403C209.914 100.934 206.304 97.41 201.835 97.41H163.074C158.605 97.41 154.995 100.934 154.995 105.403C154.995 109.872 158.605 113.396 163.074 113.396C163.418 113.482 174.419 113.482 174.419 113.482C174.419 113.482 174.419 144.508 174.504 144.68C174.504 149.149 178.114 152.673 182.583 152.673C187.053 152.673 190.662 149.063 190.662 144.594C190.662 144.336 190.576 113.396 190.576 113.396C190.576 113.396 201.921 113.396 202.265 113.31C206.562 113.138 210 109.614 210 105.317L209.914 105.403Z" fill="white"/>
<path d="M132.477 141.414C132.391 141.156 118.21 102.996 118.038 102.567C116.491 98.3554 111.85 96.2927 107.639 97.8397C103.6 99.3008 101.537 103.684 102.74 107.723C102.826 108.153 117.179 146.743 117.265 147.001C117.265 147.086 117.265 147.086 117.351 147.172C118.898 151.384 123.539 153.446 127.75 151.899C131.962 150.352 134.024 145.711 132.477 141.5V141.414Z" fill="white"/>
<path d="M136.517 112.966C140.728 114.513 145.369 112.365 146.916 108.239C148.463 104.028 146.314 99.3868 142.189 97.8397C137.978 96.2927 133.337 98.4414 131.79 102.567C130.243 106.778 132.391 111.419 136.517 112.966Z" fill="#14A0AE"/>
</svg>
