<svg width="250" height="250" viewBox="0 0 250 250" fill="none" xmlns="http://www.w3.org/2000/svg">
<rect width="250" height="250" fill="#9E184D"/>
<path d="M174.9 84.632C180.117 84.632 184.346 80.4029 184.346 75.186C184.346 69.9691 180.117 65.74 174.9 65.74C169.683 65.74 165.454 69.9691 165.454 75.186C165.454 80.4029 169.683 84.632 174.9 84.632Z" fill="white"/>
<path d="M200.554 84.632C205.771 84.632 210 80.4029 210 75.186C210 69.9691 205.771 65.74 200.554 65.74C195.337 65.74 191.108 69.9691 191.108 75.186C191.108 80.4029 195.337 84.632 200.554 84.632Z" fill="white"/>
<path d="M174.9 109.539C180.117 109.539 184.346 105.31 184.346 100.093C184.346 94.8761 180.117 90.647 174.9 90.647C169.683 90.647 165.454 94.8761 165.454 100.093C165.454 105.31 169.683 109.539 174.9 109.539Z" fill="white"/>
<path d="M200.554 109.539C205.771 109.539 210 105.31 210 100.093C210 94.8761 205.771 90.647 200.554 90.647C195.337 90.647 191.108 94.8761 191.108 100.093C191.108 105.31 195.337 109.539 200.554 109.539Z" fill="white"/>
<path d="M174.9 134.446C180.117 134.446 184.346 130.217 184.346 125C184.346 119.783 180.117 115.554 174.9 115.554C169.683 115.554 165.454 119.783 165.454 125C165.454 130.217 169.683 134.446 174.9 134.446Z" fill="white"/>
<path d="M200.554 134.446C205.771 134.446 210 130.217 210 125C210 119.783 205.771 115.554 200.554 115.554C195.337 115.554 191.108 119.783 191.108 125C191.108 130.217 195.337 134.446 200.554 134.446Z" fill="white"/>
<path d="M174.9 159.353C180.117 159.353 184.346 155.124 184.346 149.907C184.346 144.69 180.117 140.461 174.9 140.461C169.683 140.461 165.454 144.69 165.454 149.907C165.454 155.124 169.683 159.353 174.9 159.353Z" fill="white"/>
<path d="M200.554 159.353C205.771 159.353 210 155.124 210 149.907C210 144.69 205.771 140.461 200.554 140.461C195.337 140.461 191.108 144.69 191.108 149.907C191.108 155.124 195.337 159.353 200.554 159.353Z" fill="white"/>
<path d="M174.9 184.26C180.117 184.26 184.346 180.031 184.346 174.814C184.346 169.597 180.117 165.368 174.9 165.368C169.683 165.368 165.454 169.597 165.454 174.814C165.454 180.031 169.683 184.26 174.9 184.26Z" fill="white"/>
<path d="M153.847 84.632C148.63 84.632 144.401 80.4032 144.401 75.186C144.401 69.9687 148.63 65.74 153.847 65.74H124.912L100.851 141.811L76.789 65.74H40L52.2948 98.514L84.3451 183.944H117.356L154.678 84.4642C154.39 84.4905 154.142 84.632 153.847 84.632Z" fill="white"/>
<path d="M200.554 184.26C205.771 184.26 210 180.031 210 174.814C210 169.597 205.771 165.368 200.554 165.368C195.337 165.368 191.108 169.597 191.108 174.814C191.108 180.031 195.337 184.26 200.554 184.26Z" fill="white"/>
</svg>
