<svg width="250" height="250" viewBox="0 0 250 250" fill="none" xmlns="http://www.w3.org/2000/svg">
<rect width="250" height="250" fill="#207102"/>
<path d="M87.9381 99.6371H40V116.547H87.9381V99.6371Z" fill="#B3F10B"/>
<path d="M63.1093 110.684H64.9484C65.0945 111.521 65.7265 111.923 66.8311 111.923C67.7801 111.923 68.4178 111.623 68.4178 110.965C68.4178 110.441 68.0743 109.995 66.3965 109.898C64.3657 109.782 63.3902 108.736 63.3902 107.499C63.3902 106.127 64.6808 105.113 66.5844 105.113C68.6968 105.113 69.8488 106.364 69.9969 107.702H68.1995C68.1673 106.996 67.541 106.561 66.554 106.561C65.7873 106.561 65.0926 106.88 65.0926 107.487C65.0926 108.264 65.9353 108.442 67.0152 108.512C68.4178 108.604 70.1753 109.141 70.1753 110.83C70.1753 111.844 69.4731 113.459 66.8596 113.459C64.2461 113.459 63.263 111.775 63.1093 110.684ZM49.2164 105.307L46.973 111.472L44.7297 105.307H42.9285L45.8229 113.263H48.1213L51.0175 105.307H49.2164ZM51.9172 105.307H53.7069V113.263H51.9172V105.307ZM60.3041 112.356C59.805 112.986 58.8427 113.457 57.6546 113.457C56.0072 113.457 55.0696 112.348 55.0431 111.113C55.0222 110.19 55.5991 109.287 56.5671 108.921C57.1099 108.716 57.852 108.549 58.9035 108.431C59.8771 108.323 60.3402 108.046 60.2624 107.563C60.1675 106.973 59.5905 106.576 58.6757 106.576C57.6394 106.576 57.0795 106.99 57.0226 107.7L55.2253 107.694C55.3562 106.745 56.0186 105.631 57.3908 105.274C57.8102 105.164 58.1063 105.113 58.6169 105.113C59.2109 105.113 59.7101 105.206 59.9606 105.284C61.124 105.646 62.0749 106.639 62.0749 108.137V113.271H60.306V112.356L60.3041 112.356ZM60.3193 109.93V109.378C60.0536 109.573 59.2641 109.727 58.1595 109.871C57.1327 110.004 56.6715 110.407 56.6715 110.993C56.6715 111.58 57.0757 111.99 57.8634 111.99C58.5447 111.99 59.2242 111.785 59.7025 111.337C60.1048 110.961 60.3174 110.426 60.3174 109.932L60.3193 109.93ZM76.4005 112.356C75.9014 112.986 74.9391 113.457 73.751 113.457C72.1036 113.457 71.166 112.348 71.1394 111.113C71.1186 110.19 71.6955 109.287 72.6635 108.921C73.2063 108.716 73.9484 108.549 74.9998 108.431C75.9735 108.323 76.4366 108.046 76.3588 107.563C76.2639 106.973 75.6869 106.576 74.7721 106.576C73.7358 106.576 73.1759 106.99 73.119 107.7L71.3216 107.694C71.4526 106.745 72.115 105.631 73.4872 105.274C73.9066 105.164 74.2027 105.113 74.7133 105.113C75.3073 105.113 75.8065 105.206 76.057 105.284C77.2204 105.646 78.1713 106.639 78.1713 108.137V113.271H76.4024V112.356L76.4005 112.356ZM76.4157 109.93V109.378C76.15 109.573 75.3605 109.727 74.2559 109.871C73.2291 110.004 72.7679 110.407 72.7679 110.993C72.7679 111.58 73.1721 111.99 73.9598 111.99C74.6411 111.99 75.3206 111.785 75.7989 111.337C76.2012 110.961 76.4138 110.426 76.4138 109.932L76.4157 109.93ZM81.3731 106.203V102.921H79.4828V104.511C79.4828 106.489 81.0865 108.093 83.0642 108.093H84.6546V106.203L81.3731 106.203ZM81.3731 111.373V108.091H79.4828V109.682C79.4828 111.659 81.0865 113.263 83.0642 113.263H84.6546V111.373H81.3731Z" fill="#207102"/>
<path d="M210 116.545H87.938V150.363H210V116.545Z" fill="#B3F10B"/>
<path d="M107.567 123.109H112V143.801H107.27L98.9651 130.114V143.801H94.5031V123.109H99.2612L107.567 136.796V123.109ZM125.815 123.109L133.707 143.801H129.097L127.477 139.309H119.976L118.366 143.801H113.754L121.617 123.109H125.815ZM126.124 135.554L123.716 128.873L121.322 135.554H126.124ZM131.35 126.952H137.469V143.801H141.931V126.952H148.049V123.109H131.35V126.952ZM162.252 136.175C162.252 137.496 161.878 138.49 161.128 139.16C160.379 139.832 159.384 140.166 158.143 140.166C157.334 140.166 156.626 140.018 156.015 139.722C155.404 139.426 154.922 138.982 154.567 138.392C154.212 137.801 154.034 137.061 154.034 136.175V123.109H149.866V136.175C149.866 137.87 150.211 139.309 150.9 140.491C151.591 141.674 152.555 142.56 153.796 143.152C155.038 143.742 156.488 144.039 158.143 144.039C159.798 144.039 161.246 143.742 162.487 143.152C163.728 142.56 164.689 141.674 165.368 140.491C166.05 139.309 166.389 137.87 166.389 136.175V123.109H162.252V136.175ZM185.393 138.096L185.955 143.801H181.493L180.931 138.688C180.872 137.978 180.607 137.407 180.132 136.972C179.66 136.539 179.077 136.323 178.388 136.323H174.395V143.801H169.902V123.109H178.652C180.09 123.109 181.337 123.386 182.391 123.936C183.444 124.488 184.249 125.257 184.799 126.242C185.35 127.227 185.627 128.361 185.627 129.642C185.627 130.923 185.287 131.902 184.608 132.701C184.179 133.202 183.655 133.619 183.033 133.949C183.216 134.074 183.392 134.209 183.56 134.356C184.625 135.292 185.236 136.539 185.393 138.096ZM174.4 132.479H178.39C179.039 132.479 179.587 132.352 180.03 132.096L180.028 132.094C180.472 131.838 180.8 131.494 181.019 131.06C181.235 130.627 181.345 130.154 181.345 129.642C181.345 128.814 181.098 128.135 180.607 127.601C180.113 127.07 179.375 126.804 178.39 126.804H174.4V132.479ZM193.475 139.96V135.14H201.159V131.297H193.475V126.952H203.111V123.109H189.013V143.803H203.437V139.96H193.475Z" fill="#207102"/>
</svg>
