<svg width="250" height="250" viewBox="0 0 250 250" fill="none" xmlns="http://www.w3.org/2000/svg">
<rect width="250" height="250" fill="#131928"/>
<mask id="mask0_211_291" style="mask-type:luminance" maskUnits="userSpaceOnUse" x="41" y="96" width="169" height="38">
<path d="M183.21 133.814L210 133.923V131.493L183.21 133.814ZM97.1129 119.321V127.509C97.1129 127.509 107.941 130.088 113.354 131.373H123.666C120.065 129.152 116.456 126.911 112.855 124.68C113.516 125.656 114.185 126.642 114.854 127.608V127.678H106.094C104.221 124.889 102.357 122.11 100.485 119.321H97.1129ZM42.2113 133.595C65.9511 133.575 113.456 133.535 113.456 133.535L97.4941 129.67H89.7588V127.738L64.8328 121.921V129.839L57.233 129.889C57.233 129.889 57.1991 123.355 57.1822 120.088C52.1918 118.893 47.1931 117.697 42.2113 116.492V133.595ZM97.994 106.153C97.9771 108.334 97.9516 110.536 97.9431 112.727C101.891 112.777 106.432 113.384 107.085 110.077C107.78 106.571 104.619 106.073 101.324 106.073C100.171 106.073 99.0191 106.133 97.994 106.153ZM72.8223 106.87C70.0687 106.89 67.3067 106.9 64.5617 106.92V119.809C72.8647 121.771 81.1592 123.724 89.4537 125.676V110.556L72.8223 100.356V106.87ZM72.6189 100.226L72.8223 100.356V100.226H72.6189ZM117.93 98.8418L131.943 133.485H138.026C138.026 133.485 141.026 131.045 142.517 129.829C141.076 129.7 139.806 128.953 138.806 128.325C134.061 125.367 133.875 120.706 133.875 113.066V102.388H141.568V114.779C141.568 117.199 141.441 119.699 142.347 121.203C143.118 122.488 144.279 123.116 146.067 123.405C148.676 123.843 150.549 122.279 151.226 120.706C151.896 119.132 151.718 116.612 151.718 114.39V102.388H159.428V116.323L180.27 98.8418H117.93ZM180.914 101.163C188.26 101.183 195.597 101.202 202.934 101.223C202.951 103.364 202.968 105.506 202.985 107.637H188.463V111.791C192.843 111.811 197.223 111.821 201.604 111.84V117.877H188.522V122.19C193.402 122.21 198.282 122.229 203.163 122.249C203.18 124.401 203.188 126.562 203.213 128.724C195.8 128.704 188.387 128.684 180.982 128.664V128.674C180.956 119.5 180.939 110.336 180.914 101.163ZM163.122 115.167C163.147 124.779 159.843 127.837 151.472 129.112C149.549 129.401 147.744 129.152 146.143 128.724C144.728 129.849 141.712 132.32 141.712 132.32L170.933 132.379L182.083 132.35L209.475 129.999C209.475 129.999 209.542 105.765 209.525 97.7958C201.383 97.7463 193.224 97.6864 185.074 97.6265C177.762 103.484 170.433 109.32 163.122 115.167ZM41.991 96.8496C41.9825 102.717 41.957 108.593 41.9401 114.44C46.9389 115.626 51.9207 116.811 56.9111 117.986C56.928 114.321 56.9449 110.655 56.9619 106.98H48.7605C48.7689 104.758 48.7944 102.547 48.8113 100.336C56.75 100.306 64.6888 100.266 72.6189 100.226L66.934 96.7401C66.934 96.7401 50.582 96.8097 41.991 96.8496ZM69.1706 96.1325L90.2841 109.579L90.3349 99.6288L90.3434 99.6188C90.3434 99.6188 107.551 98.6029 111.914 102.049C116.972 106.043 114.939 115.855 109.144 117.428L113.693 124.122C113.693 124.122 117.828 126.632 119.904 127.887C121.412 128.853 122.928 129.81 124.445 130.766H129.105C124.098 119.201 114.075 96.0729 114.075 96.0729L69.1706 96.1325Z" fill="white"/>
</mask>
<g mask="url(#mask0_211_291)">
<path d="M210 96.0729H41.94V133.923H210V96.0729Z" fill="url(#paint0_radial_211_291)"/>
</g>
<mask id="mask1_211_291" style="mask-type:luminance" maskUnits="userSpaceOnUse" x="40" y="74" width="170" height="102">
<path d="M162.961 173.975H168.502C166.655 172.132 164.808 170.28 162.961 168.437V173.975ZM98.9599 172.023L99.9511 173.238L112.27 173.268L106.263 164.682L98.9599 172.023ZM40 161.216C42.0164 167.142 44.592 170.818 50.2516 173.069C59.1308 176.585 69.4079 171.863 71.9327 165.439C68.9334 163.726 65.9257 162.022 62.935 160.309C62.0707 161.953 60.8253 163.377 59.0206 164.094C54.5811 165.817 51.2344 162.092 50.7599 158.546C50.7091 158.546 43.533 160.329 40 161.216ZM123.479 174.165H127.944V156.474L123.479 174.165ZM180.787 149.801C180.77 157.43 180.736 172.68 180.736 172.68L208.755 172.621L208.814 163.646L191.488 163.696V160.14L207.39 160.08V160.07L207.458 156.684L180.838 149.801H180.787ZM135.586 175.19H143.466L135.696 149.243L135.586 175.19ZM88.2422 156.404V150.02C92.1225 149.97 96.5707 149.392 97.1891 152.679C97.7991 156.006 94.6982 156.474 91.4955 156.474C90.3687 156.474 89.2334 156.425 88.2422 156.404ZM77.2619 151.942C77.2788 159.154 77.2957 166.365 77.3127 173.577C80.9559 173.597 84.599 173.616 88.2422 173.637V164.313C89.0131 164.294 89.7927 164.273 90.5637 164.263C92.3174 166.913 94.0628 169.563 95.8166 172.222L95.9351 172.272C98.3922 169.851 100.841 167.411 103.289 164.991C102.764 164.144 102.23 163.287 101.705 162.451C105.823 161.146 109.389 155.418 107.822 149.343V149.353C107.339 147.46 106.644 146.305 105.501 144.94C96.0877 147.281 86.6747 149.612 77.2619 151.942ZM136.925 148.157C136.925 148.157 137.908 151.016 138.391 152.45C140.738 159.532 143.076 166.614 145.414 173.686H147.626C147.643 168.328 147.677 157.59 147.677 157.59L155.259 169.114L158.648 164.144L136.976 142.171L136.925 148.157ZM116.371 152.988V171.943H122.818C124.309 166.047 127.292 154.253 127.292 154.253V142.141L116.371 152.988ZM122.911 139.81L114.168 142.709V153.018L125.148 142.121V139.8L122.911 139.81ZM137.391 139.262V139.979L159.258 161.903L163.266 155.996L163.384 155.936C163.384 155.936 163.418 162.939 163.435 166.445C165.282 168.308 167.129 170.18 168.976 172.043H174.305C174.322 163.825 174.348 155.618 174.356 147.41C169.603 146.225 160.097 143.844 160.097 143.844C160.097 143.844 157.344 148.436 155.963 150.737L155.844 150.797L150.328 139.302L141.805 139.262H137.391ZM182.142 138.954L182.092 148.775L208.755 155.279V151.205H192.843V147.938L209.89 147.878L209.941 138.954H182.142ZM115.278 138.475V140.328L124.03 138.436L115.278 138.475ZM90.5637 138.415H79.6935V149.213L107.712 142.48C104.704 138.465 98.138 138.415 91.0804 138.415H90.5637ZM164.223 138.246C163.317 139.77 162.419 141.304 161.512 142.828C166.223 143.993 170.942 145.159 175.661 146.334V138.246H164.223ZM51.2768 139.8C46.2357 142.29 43.0416 146.802 41.991 153.247C41.669 155.259 41.8809 157.112 42.3384 158.835C45.9391 157.948 49.5399 157.281 53.1407 156.404C52.7426 152.43 54.1743 149.392 56.9364 148.217C60.5117 146.703 64.1972 149.163 65.0276 151.723C68.0269 150.01 71.0346 148.297 74.0253 146.583L74.0932 146.464C71.9666 142.47 66.1121 137.937 59.0206 137.937C56.5466 137.937 53.9371 138.485 51.2768 139.8ZM65.8494 84.5781H68.3657L67.1119 81.4106L65.8494 84.5781ZM88.6404 84.5781H91.1567L89.9028 81.4106L88.6404 84.5781ZM52.0309 77.8149H55.4198L50.8701 89.0903V89.0802H47.9895L43.4483 77.8149H46.9135L49.4552 84.8969L52.0309 77.8149ZM56.5976 77.8149H59.6985V89.0006H56.5976V77.8149ZM95.2404 77.8149H105.06V80.534H101.688V89.0106H98.587V80.534H95.2404V77.8149ZM65.6377 77.7353H68.6284L73.4069 89.0006H70.0771L69.2808 86.9986H64.9344L64.1295 89.0006H60.8761L65.6377 77.7353ZM88.4201 77.7353H91.4194L96.1978 89.0006H92.8597L92.0632 86.9986H87.7168L86.9121 89.0006H83.667L88.4201 77.7353ZM80.1594 85.8532V85.8231C80.1594 85.345 79.7867 85.1061 78.2532 84.7376C75.8554 84.1996 74.0169 83.5223 74.0169 81.2413V81.2015C74.0169 79.1196 75.669 77.6155 78.3633 77.6155C80.2611 77.6155 81.7608 78.1335 82.9808 79.1098L81.4218 81.3012C80.3966 80.5641 79.2784 80.1953 78.2785 80.1953C77.5245 80.1953 77.1517 80.4941 77.1517 80.9127V80.9525C77.1517 81.4605 77.5415 81.6897 79.1173 82.038C81.676 82.5958 83.2774 83.4226 83.2774 85.5243V85.5544H83.2858C83.2858 87.8352 81.4726 89.2 78.7446 89.2C76.7535 89.2 74.881 88.5823 73.4915 87.3473L75.22 85.2854C76.3468 86.1618 77.5668 86.6299 78.8547 86.6299C79.7104 86.6299 80.1594 86.3411 80.1594 85.8532ZM42.2197 74L42.2113 91.9291H112.846L106.238 74H42.2197Z" fill="white"/>
</mask>
<g mask="url(#mask1_211_291)">
<path d="M210 74.0003H40V175.19H210V74.0003Z" fill="url(#paint1_radial_211_291)"/>
</g>
<defs>
<radialGradient id="paint0_radial_211_291" cx="0" cy="0" r="1" gradientUnits="userSpaceOnUse" gradientTransform="translate(124.37 114.998) scale(94.7888 94.5889)">
<stop stop-color="#F0ECE7"/>
<stop offset="0.238634" stop-color="#EBE8E3"/>
<stop offset="0.485858" stop-color="#DFDCD9"/>
<stop offset="0.736114" stop-color="#CAC9C7"/>
<stop offset="0.9" stop-color="#B9B9B9"/>
</radialGradient>
<radialGradient id="paint1_radial_211_291" cx="0" cy="0" r="1" gradientUnits="userSpaceOnUse" gradientTransform="translate(134.37 134.859) scale(89.0042 87.5786)">
<stop stop-color="#FF9900"/>
<stop offset="0.275951" stop-color="#FD9500"/>
<stop offset="0.497564" stop-color="#F88B00"/>
<stop offset="0.700325" stop-color="#F07A00"/>
<stop offset="0.890703" stop-color="#E46300"/>
<stop offset="1" stop-color="#DC5200"/>
</radialGradient>
</defs>
</svg>
