<svg width="250" height="250" viewBox="0 0 250 250" fill="none" xmlns="http://www.w3.org/2000/svg">
<rect width="250" height="250" fill="#1B4D9B"/>
<path d="M184.362 40L143.776 57.6291V105.049H106.658V57.6291L66.0739 40L66.0731 40.0008V158.437H106.658V140.084H143.776V158.437H184.362L184.363 158.434V40H184.362Z" fill="white"/>
<path d="M184.387 163.023H66V186.085H184.387V163.023Z" fill="#939598"/>
<path d="M135.547 173.649C134.841 173.289 134.035 173.179 131.945 173.179H129.212C128.344 173.179 127.986 172.834 127.986 172.003V171.824C127.985 171.785 127.988 171.747 127.994 171.709C128.03 170.963 128.401 170.644 129.212 170.644H132.191C132.507 170.618 132.822 170.701 133.084 170.879C133.105 170.894 133.121 170.91 133.136 170.92C133.294 171.102 133.381 171.334 133.383 171.575C133.732 171.552 136.559 171.323 136.937 171.292C136.871 170.968 136.786 170.648 136.682 170.334C136.001 168.301 134.591 167.544 131.75 167.544H129.588C126.086 167.544 124.375 168.709 124.375 171.108V172.744C124.375 174.01 124.884 174.955 125.808 175.406C126.514 175.772 127.314 175.876 129.405 175.876H132.139C133.005 175.876 133.366 176.215 133.366 177.042V177.235C133.366 178.071 132.995 178.433 132.139 178.433H129.165C128.714 178.433 128.41 178.338 128.214 178.134C128.056 177.944 127.969 177.706 127.967 177.46C127.633 177.48 124.78 177.596 124.408 177.611C124.836 180.48 126.269 181.553 129.588 181.553H131.75C135.271 181.553 136.973 180.382 136.973 177.962V176.315C136.973 175.045 136.466 174.099 135.547 173.649Z" fill="white"/>
<path d="M165.754 167.665H151.887V170.972H156.867V181.506H160.756V170.972H165.754V167.665Z" fill="white"/>
<path d="M113.816 177.418L115.599 172.661L117.394 177.418H113.816ZM116.97 167.664H114.206L108.219 181.564H112.26L112.841 179.998H118.36L118.945 181.564H122.948L116.97 167.664Z" fill="white"/>
<path d="M143.825 177.418L145.61 172.645L147.403 177.418H143.825ZM146.984 167.664H144.219L138.232 181.564H142.267L142.849 179.998H148.368L148.959 181.564H152.963L146.984 167.664Z" fill="white"/>
<path d="M92.0101 176.577L88.6722 167.665H84.6373L90.6087 181.564H93.3792L99.3647 167.665H95.3555L92.0101 176.577Z" fill="white"/>
<path d="M105.772 167.664H101.884V181.506H105.772V167.664Z" fill="white"/>
<path d="M66.5981 190.78H70.7537V198.258H78.4196V190.78H82.5789V209.67H78.4196V202.091H70.7537V209.67H66.5981V190.78Z" fill="white"/>
<path d="M90.2939 190.78H86.136V209.67H90.2939V190.78Z" fill="white"/>
<path d="M100.894 209.945C99.4504 209.942 98.0183 209.693 96.6596 209.206C95.2623 208.709 93.9773 207.941 92.8787 206.944L95.3358 204.004C96.145 204.675 97.0376 205.239 97.9914 205.681C98.9304 206.098 99.9474 206.311 100.975 206.305C101.84 206.305 102.507 206.141 102.988 205.826C103.212 205.689 103.396 205.495 103.522 205.263C103.647 205.032 103.709 204.772 103.701 204.509V204.457C103.706 204.212 103.655 203.969 103.552 203.746C103.423 203.503 103.226 203.302 102.985 203.169C102.62 202.944 102.23 202.761 101.824 202.623C101.188 202.401 100.54 202.211 99.8833 202.056C98.9307 201.8 98.0602 201.537 97.2899 201.258C96.578 201.014 95.9097 200.657 95.3102 200.202C94.772 199.782 94.3413 199.241 94.0538 198.622C93.7329 197.879 93.5797 197.074 93.605 196.265V196.209C93.5938 195.405 93.7582 194.608 94.0867 193.875C94.4061 193.187 94.8684 192.575 95.4427 192.08C96.0501 191.553 96.759 191.155 97.5257 190.912C98.3875 190.634 99.2884 190.497 100.194 190.506C101.493 190.49 102.785 190.7 104.012 191.125C105.17 191.532 106.252 192.13 107.211 192.896L105.053 196.013C104.273 195.477 103.44 195.02 102.568 194.652C101.8 194.325 100.974 194.155 100.139 194.15C99.3276 194.15 98.7221 194.314 98.3157 194.62C98.1269 194.754 97.973 194.931 97.8667 195.137C97.7605 195.342 97.7051 195.57 97.7051 195.802V195.861C97.701 196.136 97.763 196.408 97.886 196.655C98.0364 196.914 98.258 197.124 98.5244 197.261C98.9204 197.481 99.3415 197.654 99.7786 197.773C100.311 197.934 100.98 198.126 101.797 198.344C102.668 198.569 103.522 198.854 104.354 199.197C105.041 199.475 105.68 199.859 106.247 200.334C106.746 200.756 107.145 201.285 107.412 201.882C107.687 202.56 107.82 203.287 107.803 204.019V204.077C107.818 204.937 107.644 205.79 107.295 206.576C106.967 207.291 106.48 207.921 105.872 208.419C105.225 208.931 104.486 209.315 103.696 209.552C102.787 209.825 101.842 209.958 100.894 209.945Z" fill="white"/>
<path d="M114.96 194.606H109.206V190.781H124.865V194.606H119.114V209.672H114.96V194.606Z" fill="white"/>
<path d="M136.012 206.164C136.804 206.174 137.59 206.019 138.32 205.708C138.996 205.413 139.604 204.98 140.103 204.437C140.602 203.888 140.995 203.252 141.264 202.561C141.547 201.832 141.688 201.057 141.683 200.275V200.228C141.687 199.443 141.546 198.663 141.264 197.93C140.722 196.519 139.646 195.378 138.268 194.755C137.54 194.436 136.752 194.276 135.958 194.287C135.17 194.278 134.389 194.434 133.665 194.744C132.983 195.035 132.37 195.468 131.867 196.013C131.366 196.562 130.972 197.199 130.705 197.893C130.426 198.619 130.285 199.39 130.29 200.168V200.228C130.286 201.011 130.427 201.789 130.705 202.521C130.974 203.223 131.379 203.865 131.897 204.409C132.415 204.951 133.034 205.386 133.72 205.69C134.441 206.009 135.223 206.171 136.012 206.164ZM135.958 209.999C133.277 210.038 130.69 209.014 128.762 207.152C127.87 206.275 127.164 205.227 126.687 204.071C126.187 202.869 125.934 201.578 125.944 200.275V200.228C125.934 198.926 126.19 197.635 126.697 196.436C127.19 195.276 127.901 194.222 128.791 193.33C129.703 192.423 130.787 191.706 131.98 191.223C134.567 190.199 137.446 190.199 140.033 191.223C141.215 191.705 142.293 192.412 143.207 193.303C144.097 194.179 144.804 195.224 145.286 196.376C145.787 197.577 146.039 198.867 146.029 200.168V200.228C146.039 201.529 145.781 202.817 145.272 204.014C144.273 206.383 142.375 208.259 139.995 209.231C138.714 209.752 137.341 210.014 135.958 209.999Z" fill="white"/>
<path d="M157.638 199.983C158.663 199.983 159.449 199.741 160 199.247C160.272 199.002 160.487 198.7 160.628 198.362C160.77 198.024 160.835 197.66 160.819 197.294V197.245C160.819 196.343 160.534 195.656 159.96 195.204C159.382 194.752 158.579 194.53 157.555 194.53H153.426V199.983L157.638 199.983ZM149.267 190.78H157.904C160.3 190.78 162.137 191.418 163.414 192.694C164.492 193.773 165.032 195.217 165.032 197.013V197.07C165.032 198.596 164.658 199.845 163.91 200.804C163.157 201.776 162.141 202.511 160.983 202.921L165.6 209.672H160.744L156.691 203.628H153.426V209.672H149.267V190.78Z" fill="white"/>
<path d="M172.968 202.224L165.709 190.78H170.565L175.076 198.363L179.661 190.78H184.388L177.124 202.144V209.671H172.968V202.224Z" fill="white"/>
</svg>
