<svg width="250" height="250" viewBox="0 0 250 250" fill="none" xmlns="http://www.w3.org/2000/svg">
<rect width="250" height="250" fill="#CE3615"/>
<path d="M84.1256 101.656H40V117.22H84.1256V101.656Z" fill="white"/>
<path d="M61.2714 111.82H62.9642C63.0988 112.59 63.6805 112.961 64.6973 112.961C65.5708 112.961 66.1577 112.685 66.1577 112.078C66.1577 111.596 65.8415 111.186 64.2972 111.097C62.4279 110.99 61.53 110.027 61.53 108.888C61.53 107.625 62.7179 106.692 64.4702 106.692C66.4146 106.692 67.475 107.844 67.6112 109.075H65.9568C65.9271 108.425 65.3506 108.025 64.4422 108.025C63.7364 108.025 63.097 108.319 63.097 108.878C63.097 109.592 63.8727 109.757 64.8667 109.821C66.1577 109.905 67.7755 110.4 67.7755 111.954C67.7755 112.887 67.1291 114.374 64.7235 114.374C62.3179 114.374 61.4129 112.824 61.2714 111.82ZM48.4834 106.874L46.4185 112.548L44.3535 106.874H42.6956L45.3598 114.198H47.4754L50.1413 106.874H48.4834ZM50.9694 106.871H52.6168V114.194H50.9694V106.871ZM58.6893 113.359C58.2299 113.939 57.3442 114.372 56.2505 114.372C54.7342 114.372 53.8711 113.352 53.8467 112.215C53.8275 111.366 54.3585 110.534 55.2495 110.197C55.7492 110.008 56.4322 109.855 57.4001 109.746C58.2963 109.647 58.7225 109.392 58.6509 108.948C58.5636 108.405 58.0325 108.039 57.1904 108.039C56.2366 108.039 55.7212 108.42 55.6688 109.074L54.0144 109.068C54.1349 108.195 54.7446 107.169 56.0077 106.841C56.3938 106.74 56.6663 106.692 57.1363 106.692C57.6831 106.692 58.1425 106.778 58.3731 106.85C59.444 107.183 60.3193 108.097 60.3193 109.475V114.201H58.6911V113.359L58.6893 113.359ZM58.7033 111.126V110.618C58.4587 110.798 57.732 110.939 56.7152 111.072C55.7701 111.194 55.3456 111.565 55.3456 112.105C55.3456 112.644 55.7177 113.022 56.4427 113.022C57.0699 113.022 57.6953 112.833 58.1356 112.421C58.5059 112.075 58.7016 111.582 58.7016 111.128L58.7033 111.126ZM73.5056 113.359C73.0461 113.939 72.1604 114.372 71.0668 114.372C69.5504 114.372 68.6874 113.352 68.6629 112.215C68.6437 111.366 69.1748 110.534 70.0658 110.197C70.5654 110.008 71.2485 109.855 72.2163 109.746C73.1125 109.647 73.5388 109.392 73.4672 108.948C73.3798 108.405 72.8487 108.039 72.0067 108.039C71.0528 108.039 70.5375 108.42 70.485 109.074L68.8306 109.068C68.9512 108.195 69.5609 107.169 70.824 106.841C71.2101 106.74 71.4826 106.692 71.9525 106.692C72.4993 106.692 72.9588 106.778 73.1894 106.85C74.2603 107.183 75.1355 108.097 75.1355 109.475V114.201H73.5073V113.359L73.5056 113.359ZM73.5196 111.126V110.618C73.275 110.798 72.5483 110.939 71.5315 111.072C70.5864 111.194 70.1619 111.565 70.1619 112.105C70.1619 112.644 70.534 113.022 71.259 113.022C71.8861 113.022 72.5116 112.833 72.9518 112.421C73.3222 112.075 73.5178 111.582 73.5178 111.128L73.5196 111.126ZM78.0827 107.699V104.678H76.3427V106.142C76.3427 107.963 77.8189 109.439 79.6393 109.439H81.1033V107.699L78.0827 107.699ZM78.0827 112.458V109.437H76.3427V110.901C76.3427 112.721 77.8189 114.198 79.6393 114.198H81.1033V112.458H78.0827Z" fill="#CE3615"/>
<path d="M210 117.218H84.1238V148.344H210V117.218Z" fill="white"/>
<path d="M94.2774 138.769H103.447V142.307H90.1702V123.259H103.147V126.797H94.2774V130.796H101.351V134.333H94.2774V138.769ZM120.771 123.259H116.499C116.499 123.259 114.419 126.67 112.839 129.259L109.179 123.259H104.936C104.936 123.259 107.816 128.015 110.697 132.771C107.789 137.538 104.882 142.305 104.882 142.305H109.235L112.853 136.331C114.411 138.903 116.471 142.305 116.471 142.305H120.797L114.995 132.794L120.771 123.259ZM135.947 126.157C136.455 127.073 136.708 128.121 136.708 129.3C136.708 130.479 136.455 131.494 135.947 132.403C135.438 133.31 134.696 134.017 133.716 134.525C132.737 135.034 131.584 135.287 130.26 135.287H126.56V142.307H122.425V123.259H130.26C131.584 123.259 132.736 123.514 133.716 124.021C134.696 124.529 135.438 125.242 135.947 126.157ZM132.736 129.272C132.736 128.511 132.509 127.908 132.056 127.408C131.602 126.909 130.931 126.661 130.042 126.661H126.56V131.884H130.042C130.931 131.884 131.602 131.639 132.056 131.149C132.51 130.659 132.736 130.034 132.736 129.272ZM142.573 123.259H138.438V142.305H151.198V138.767H142.573V123.259ZM169.347 127.789C170.191 129.267 170.612 130.932 170.612 132.782C170.612 134.632 170.191 136.295 169.347 137.775C168.504 139.253 167.344 140.413 165.866 141.257C164.388 142.1 162.723 142.521 160.873 142.521C159.023 142.521 157.381 142.099 155.894 141.257C154.407 140.413 153.24 139.253 152.398 137.775C151.554 136.297 151.133 134.632 151.133 132.782C151.133 130.932 151.556 129.267 152.398 127.789C153.242 126.311 154.407 125.151 155.894 124.307C157.381 123.464 159.04 123.043 160.873 123.043C162.705 123.043 164.386 123.465 165.866 124.307C167.344 125.151 168.505 126.311 169.347 127.789ZM166.479 132.808C166.479 131.646 166.243 130.563 165.771 129.611C165.3 128.659 164.632 127.915 163.771 127.38C162.91 126.846 161.944 126.578 160.873 126.578C159.802 126.578 158.841 126.846 157.988 127.38C157.136 127.917 156.47 128.656 155.99 129.599C155.509 130.542 155.268 131.603 155.268 132.782C155.268 133.961 155.509 135.022 155.99 135.965C156.47 136.908 157.138 137.647 157.988 138.182C158.841 138.716 159.804 138.984 160.873 138.984C161.942 138.984 162.908 138.716 163.771 138.182C164.632 137.647 165.3 136.908 165.771 135.965C166.243 135.022 166.479 133.97 166.479 132.808ZM187.35 137.053L187.867 142.305H183.758L183.241 137.598C183.187 136.945 182.941 136.419 182.506 136.019C182.071 135.621 181.534 135.422 180.9 135.422H177.232V142.305H173.096V123.259H181.148C182.473 123.259 183.619 123.514 184.59 124.021C185.561 124.529 186.298 125.237 186.809 126.143C187.315 127.05 187.57 128.093 187.57 129.272C187.57 130.452 187.258 131.353 186.632 132.088C186.238 132.55 185.754 132.934 185.181 133.238C185.349 133.353 185.51 133.476 185.664 133.612C186.643 134.473 187.205 135.621 187.35 137.053ZM177.228 131.884H180.902C181.5 131.884 182.003 131.767 182.411 131.531L182.413 131.529C182.82 131.294 183.124 130.977 183.323 130.577C183.523 130.179 183.622 129.744 183.622 129.272C183.622 128.511 183.395 127.885 182.943 127.394C182.488 126.905 181.809 126.661 180.902 126.661H177.228V131.884ZM194.789 138.769V134.333H201.862V130.796H194.789V126.797H203.658V123.259H190.68V142.307H203.957V138.769H194.789Z" fill="#CE3615"/>
</svg>
