<svg width="250" height="250" viewBox="0 0 250 250" fill="none" xmlns="http://www.w3.org/2000/svg">
<rect width="250" height="250" fill="#4F2984"/>
<path d="M74.6222 106.692H40V118.899H74.6222V106.692Z" fill="#B3D2FF"/>
<path d="M56.6906 114.664H58.02C58.1254 115.269 58.581 115.558 59.38 115.558C60.0634 115.558 60.5257 115.341 60.5257 114.865C60.5257 114.488 60.2776 114.165 59.0672 114.094C57.6018 114.009 56.8946 113.254 56.8946 112.36C56.8946 111.368 57.8262 110.638 59.2032 110.638C60.7298 110.638 61.5628 111.542 61.6682 112.507H60.3694C60.3456 111.997 59.8934 111.681 59.1828 111.681C58.6286 111.681 58.1288 111.912 58.1288 112.35C58.1288 112.911 58.7374 113.04 59.516 113.091C60.5292 113.156 61.7974 113.546 61.7974 114.763C61.7974 115.494 61.2908 116.663 59.4004 116.663C57.51 116.663 56.8028 115.449 56.6906 114.661V114.664Z" fill="#4F2984"/>
<path d="M46.6571 110.784L45.0353 115.235L43.4169 110.784H42.1147L44.2057 116.527H45.8649L47.9559 110.784H46.6571Z" fill="#4F2984"/>
<path d="M48.6053 110.784H49.8973V116.527H48.6053V110.784Z" fill="#4F2984"/>
<path d="M54.6642 115.874C54.3038 116.33 53.6102 116.669 52.75 116.669C51.56 116.669 50.8834 115.871 50.863 114.977C50.8494 114.311 51.2642 113.659 51.9646 113.394C52.3556 113.244 52.8928 113.125 53.651 113.04C54.3548 112.962 54.688 112.761 54.6336 112.415C54.5656 111.987 54.1474 111.701 53.4878 111.701C52.7398 111.701 52.3352 112 52.2944 112.513H50.9956C51.0908 111.824 51.5668 111.018 52.5596 110.763C52.8622 110.685 53.0764 110.648 53.4436 110.648C53.872 110.648 54.2324 110.716 54.416 110.77C55.2558 111.032 55.9426 111.749 55.9426 112.829V116.537H54.6642V115.874ZM54.6744 114.124V113.723C54.4806 113.862 53.9128 113.975 53.1138 114.08C52.3726 114.175 52.0394 114.467 52.0394 114.889C52.0394 115.31 52.3318 115.609 52.8996 115.609C53.3926 115.609 53.8822 115.46 54.229 115.137C54.518 114.865 54.6744 114.478 54.6744 114.121V114.124Z" fill="#4F2984"/>
<path d="M66.2887 115.874C65.9283 116.33 65.2347 116.669 64.3745 116.669C63.1845 116.669 62.5079 115.871 62.4875 114.977C62.4739 114.311 62.8887 113.659 63.5891 113.394C63.9801 113.244 64.5173 113.125 65.2755 113.04C65.9793 112.962 66.3125 112.761 66.2581 112.415C66.1901 111.987 65.7719 111.701 65.1123 111.701C64.3643 111.701 63.9597 112 63.9189 112.513H62.6201C62.7153 111.824 63.1913 111.018 64.1841 110.763C64.4867 110.685 64.7009 110.648 65.0681 110.648C65.4965 110.648 65.8569 110.716 66.0405 110.77C66.8803 111.032 67.5671 111.749 67.5671 112.829V116.537H66.2887V115.878L66.2887 115.874ZM66.2989 114.124V113.723C66.1051 113.862 65.5373 113.975 64.7383 114.08C63.9971 114.175 63.6639 114.467 63.6639 114.889C63.6639 115.31 63.9563 115.609 64.5241 115.609C65.0171 115.609 65.5067 115.46 65.8535 115.137C66.1425 114.865 66.2989 114.478 66.2989 114.121L66.2989 114.124Z" fill="#4F2984"/>
<path d="M69.8826 111.429V109.061H68.5192V110.209C68.5192 111.637 69.6786 112.795 71.1066 112.795H72.2558V111.433H69.886L69.8826 111.429Z" fill="#4F2984"/>
<path d="M69.8826 115.164V112.795H68.5192V113.944C68.5192 115.371 69.6786 116.53 71.1066 116.53H72.2558V115.167H69.886L69.8826 115.164Z" fill="#4F2984"/>
<path d="M127.713 118.899H74.6222V143.308H127.713V118.899Z" fill="#B3D2FF"/>
<path d="M79.3652 123.639H89.5244V126.392H82.568V129.549H88.1168V132.321H82.568V135.798H89.759V138.571H79.3652C79.3652 138.571 79.3652 123.639 79.3652 123.639Z" fill="#4F2984"/>
<path d="M91.4454 123.639H97.5722C100.901 123.639 102.757 125.603 102.757 128.352C102.757 131.101 100.901 133.066 97.5722 133.066H94.6686V138.571H91.4454L91.4454 123.639ZM99.5136 128.352C99.5136 127.265 98.8744 126.303 97.4022 126.303H94.672V130.398H97.4022C98.8744 130.398 99.5136 129.44 99.5136 128.349V128.352Z" fill="#4F2984"/>
<path d="M104.08 123.639H107.283V138.571H104.08V123.639Z" fill="#4F2984"/>
<path d="M109.159 131.125C109.159 126.069 112.638 123.466 116.714 123.466C120.407 123.466 123.181 125.641 123.565 128.821H120.213C119.999 127.265 118.526 126.218 116.65 126.218C114.239 126.218 112.383 127.904 112.383 131.105C112.383 134.306 114.239 135.968 116.673 135.968C118.55 135.968 120.046 134.921 120.301 133.385H123.504C123.225 136.562 120.475 138.741 116.718 138.741C112.576 138.741 109.163 136.138 109.163 131.125L109.159 131.125Z" fill="#4F2984"/>
<path d="M210 118.899H127.713V143.308H210V118.899Z" fill="#4F2984"/>
<path d="M132.453 123.639H137.468C141.589 123.639 145.193 126.008 145.193 131.105C145.193 136.202 141.585 138.571 137.468 138.571H132.453V123.639ZM141.973 131.105C141.973 127.584 139.603 126.392 137.148 126.392H135.656V135.798H137.148C139.603 135.798 141.973 134.625 141.973 131.105Z" fill="#B3D2FF"/>
<path d="M146.923 123.639H153.22C156.399 123.639 158.255 125.26 158.255 127.968C158.255 129.589 157.487 130.697 156.27 131.404C157.317 132.022 157.956 133.11 158.085 134.455L158.49 138.574H155.267L154.862 134.884C154.757 133.861 154.05 133.157 153.047 133.157H150.143V138.574H146.92V123.639H146.923ZM155.161 128.332C155.161 127.265 154.522 126.307 153.026 126.307H150.146V130.401H153.026C154.519 130.401 155.161 129.419 155.161 128.332Z" fill="#B3D2FF"/>
<path d="M164.702 123.639H167.731L173.43 138.571H170.101L168.928 135.308H163.529L162.356 138.571H159.027L164.705 123.639H164.702ZM167.966 132.62L166.215 127.778L164.488 132.62H167.966Z" fill="#B3D2FF"/>
<path d="M174.477 123.639H178.084L182.44 134.071L186.795 123.639H190.402V138.571H187.414V129.464L183.616 138.571H181.267L177.445 129.464V138.571H174.477L174.477 123.639Z" fill="#B3D2FF"/>
<path d="M197.121 123.639H200.15L205.849 138.571H202.52L201.347 135.308H195.948L194.775 138.571H191.446L197.124 123.639H197.121ZM200.385 132.62L198.634 127.778L196.907 132.62H200.385Z" fill="#B3D2FF"/>
</svg>
