<svg width="250" height="250" viewBox="0 0 250 250" fill="none" xmlns="http://www.w3.org/2000/svg">
<rect width="250" height="250" fill="#A61B16"/>
<path d="M110.288 125.952V113.094H155.21V84.504H110.288V72.4861H167.008L184.579 40H66.0014V158.444H184.579L167.85 125.952H110.288Z" fill="white"/>
<path d="M184.444 163.056H66V186.128H184.444V163.056Z" fill="#939598"/>
<path d="M135.579 173.688C134.872 173.328 134.067 173.217 131.977 173.217H129.24C128.375 173.217 128.017 172.871 128.017 172.041V171.862C128.016 171.824 128.018 171.786 128.023 171.748C128.061 170.999 128.432 170.681 129.24 170.681H132.221C132.537 170.654 132.853 170.737 133.115 170.916C133.137 170.931 133.154 170.948 133.167 170.958C133.325 171.139 133.413 171.372 133.415 171.613C133.765 171.591 136.594 171.361 136.97 171.329C136.905 171.005 136.82 170.685 136.715 170.371C136.034 168.338 134.621 167.579 131.782 167.579H129.617C126.114 167.579 124.404 168.746 124.404 171.146V172.783C124.404 174.049 124.911 174.994 125.836 175.446C126.543 175.811 127.342 175.916 129.435 175.916H132.169C133.038 175.916 133.399 176.256 133.399 177.082V177.275C133.399 178.112 133.028 178.474 132.169 178.474H129.193C128.746 178.474 128.44 178.379 128.241 178.175C128.085 177.985 127.999 177.747 127.997 177.501C127.661 177.52 124.807 177.637 124.435 177.651C124.864 180.522 126.298 181.595 129.617 181.595H131.782C135.301 181.595 137.007 180.425 137.007 178.003V176.356C137.007 175.084 136.5 174.139 135.579 173.688Z" fill="white"/>
<path d="M165.799 167.7H151.926V171.01H156.911V181.548H160.802V171.01H165.799V167.7Z" fill="white"/>
<path d="M113.84 177.459L115.624 172.7L117.417 177.459H113.84ZM116.993 167.7H114.227L108.24 181.605H112.283L112.862 180.041H118.385L118.971 181.605H122.976L116.993 167.7Z" fill="white"/>
<path d="M143.862 177.459L145.647 172.683L147.439 177.459H143.862ZM147.022 167.7H144.254L138.267 181.605H142.304L142.886 180.041H148.409L148.998 181.605H153.005L147.022 167.7Z" fill="white"/>
<path d="M92.0222 176.616L88.6837 167.7H84.6478L90.6205 181.605H93.3928L99.3794 167.7H95.3686L92.0222 176.616Z" fill="white"/>
<path d="M105.793 167.7H101.902V181.548H105.793V167.7Z" fill="white"/>
<path d="M66.0006 190.743H80.2505V194.446H70.1052V198.287H79.0308V201.989H70.1052V205.965H80.379V209.668H66.0006V190.743Z" fill="white"/>
<path d="M87.6011 200.045L81.2732 190.744H86.1424L90.1092 196.883L94.1142 190.744H98.8464L92.5189 199.993L99.1172 209.667H94.2499L90.0039 203.183L85.7359 209.667H81.0016L87.6011 200.045Z" fill="white"/>
<path d="M108.013 200.285C109.054 200.285 109.866 200.014 110.446 199.464C110.726 199.203 110.947 198.886 111.096 198.534C111.244 198.182 111.317 197.802 111.308 197.42V197.366C111.308 196.433 111.012 195.715 110.403 195.229C109.799 194.741 108.977 194.502 107.931 194.502H104.713V200.285L108.013 200.285ZM100.546 190.743H108.281C109.316 190.728 110.345 190.888 111.326 191.217C112.165 191.504 112.936 191.958 113.595 192.552C114.217 193.13 114.706 193.837 115.027 194.623C115.37 195.47 115.541 196.377 115.529 197.29V197.341C115.551 198.338 115.347 199.327 114.934 200.234C114.554 201.041 113.996 201.752 113.302 202.314C112.58 202.888 111.751 203.314 110.864 203.569C109.896 203.858 108.89 204.001 107.88 203.995H104.713V209.666H100.546V190.743Z" fill="white"/>
<path d="M116.936 190.743H121.099V205.881H130.538V209.668H116.936V190.743Z" fill="white"/>
<path d="M140.165 206.16C140.959 206.171 141.746 206.014 142.475 205.698C143.154 205.405 143.763 204.97 144.26 204.423C144.763 203.877 145.157 203.239 145.422 202.546C145.704 201.818 145.847 201.044 145.841 200.264V200.21C145.846 199.423 145.704 198.642 145.422 197.907C145.155 197.206 144.753 196.565 144.238 196.02C143.722 195.475 143.105 195.037 142.42 194.731C141.692 194.41 140.903 194.248 140.108 194.258C139.319 194.25 138.537 194.408 137.812 194.72C137.13 195.011 136.517 195.443 136.013 195.986C135.513 196.538 135.117 197.176 134.846 197.87C134.565 198.599 134.423 199.375 134.429 200.157V200.21C134.425 200.996 134.566 201.775 134.846 202.509C135.119 203.211 135.525 203.854 136.04 204.403C136.558 204.945 137.178 205.379 137.864 205.683C138.587 206.007 139.372 206.169 140.165 206.16ZM140.108 209.999C138.727 210.014 137.358 209.751 136.081 209.228C134.899 208.741 133.82 208.035 132.901 207.147C132.008 206.266 131.301 205.215 130.82 204.057C130.319 202.856 130.066 201.566 130.076 200.264V200.21C130.071 198.926 130.321 197.654 130.811 196.468C131.302 195.281 132.023 194.204 132.933 193.299C133.846 192.394 134.928 191.678 136.118 191.193C137.401 190.666 138.777 190.402 140.165 190.418C141.545 190.401 142.915 190.665 144.191 191.193C145.374 191.677 146.452 192.384 147.367 193.275C148.264 194.148 148.972 195.195 149.449 196.352C149.949 197.558 150.203 198.852 150.195 200.157V200.21C150.201 202.145 149.628 204.037 148.551 205.644C147.474 207.25 145.941 208.499 144.149 209.228C142.867 209.751 141.493 210.013 140.108 209.999Z" fill="white"/>
<path d="M160.602 199.968C161.634 199.968 162.417 199.717 162.97 199.227C163.244 198.983 163.46 198.68 163.603 198.342C163.745 198.004 163.812 197.639 163.797 197.272V197.222C163.797 196.317 163.505 195.637 162.93 195.183C162.354 194.731 161.549 194.502 160.525 194.502H156.386V199.968H160.602ZM152.226 190.743H160.878C163.269 190.743 165.107 191.384 166.392 192.667C167.467 193.749 168.014 195.188 168.014 196.987V197.043C168.014 198.577 167.641 199.825 166.894 200.787C166.134 201.755 165.117 202.491 163.959 202.909L168.582 209.666H163.715L159.656 203.619H156.386V209.666H152.226V190.743Z" fill="white"/>
<path d="M170.094 190.743H184.345V194.446H174.205V198.287H183.127V201.989H174.205V205.965H184.48V209.668H170.094V190.743Z" fill="white"/>
</svg>
