<svg width="250" height="250" viewBox="0 0 250 250" fill="none" xmlns="http://www.w3.org/2000/svg">
<g clip-path="url(#clip0_297_380)">
<rect width="250" height="250" fill="black"/>
<ellipse cx="21.0862" cy="244.279" rx="137.261" ry="125.551" fill="#031E4F"/>
<ellipse cx="210" cy="34.947" rx="116.921" ry="108.776" fill="#031E4F"/>
<path d="M75.4328 106.23H40V118.728H75.4328V106.23Z" fill="#E56006"/>
<path d="M57.0809 114.392H58.4403C58.5483 115.011 59.0154 115.308 59.8319 115.308C60.5333 115.308 61.0046 115.086 61.0046 114.6C61.0046 114.212 60.7507 113.883 59.5106 113.811C58.0096 113.726 57.2885 112.953 57.2885 112.038C57.2885 111.024 58.2425 110.275 59.6495 110.275C61.2109 110.275 62.0624 111.199 62.1718 112.188H60.8433C60.8195 111.666 60.3565 111.345 59.6271 111.345C59.0603 111.345 58.5469 111.581 58.5469 112.03C58.5469 112.603 59.1697 112.735 59.9679 112.787C61.0046 112.854 62.3037 113.251 62.3037 114.5C62.3037 115.249 61.7846 116.443 59.8529 116.443C57.9212 116.443 57.1945 115.199 57.0809 114.392ZM46.8122 110.421L45.154 114.977L43.4959 110.421H42.1646L44.3039 116.301H46.0027L48.1435 110.421C48.1435 110.421 46.8122 110.421 46.8122 110.421ZM48.8084 110.418H50.1313V116.298H48.8084C48.8084 116.298 48.8084 110.418 48.8084 110.418ZM55.0075 115.628C54.6386 116.094 53.9273 116.441 53.0492 116.441C51.8315 116.441 51.1385 115.622 51.1189 114.709C51.1034 114.027 51.5299 113.359 52.2453 113.089C52.6465 112.937 53.1951 112.814 53.9722 112.727C54.6919 112.647 55.0342 112.442 54.9767 112.086C54.9065 111.649 54.4801 111.356 53.8039 111.356C53.0379 111.356 52.6241 111.662 52.582 112.187L51.2535 112.182C51.3503 111.481 51.8399 110.658 52.8542 110.394C53.1642 110.312 53.383 110.275 53.7604 110.275C54.1995 110.275 54.5684 110.343 54.7536 110.401C55.6135 110.669 56.3164 111.402 56.3164 112.509V116.304H55.0089V115.628L55.0075 115.628ZM55.0187 113.835V113.427C54.8223 113.571 54.2388 113.685 53.4223 113.791C52.6634 113.89 52.3225 114.187 52.3225 114.621C52.3225 115.054 52.6213 115.357 53.2035 115.357C53.7071 115.357 54.2093 115.206 54.5628 114.874C54.8602 114.597 55.0173 114.201 55.0173 113.836C55.0173 113.836 55.0187 113.835 55.0187 113.835ZM66.905 115.628C66.536 116.094 65.8248 116.441 64.9466 116.441C63.7289 116.441 63.0359 115.622 63.0163 114.709C63.0009 114.027 63.4273 113.359 64.1428 113.089C64.544 112.937 65.0925 112.814 65.8697 112.727C66.5893 112.647 66.9316 112.442 66.8741 112.086C66.8039 111.649 66.3775 111.356 65.7013 111.356C64.9354 111.356 64.5215 111.662 64.4794 112.187L63.151 112.182C63.2478 111.481 63.7373 110.658 64.7516 110.394C65.0616 110.312 65.2805 110.275 65.6578 110.275C66.0969 110.275 66.4659 110.343 66.651 110.401C67.511 110.669 68.2138 111.402 68.2138 112.509V116.304H66.9064V115.628L66.905 115.628ZM66.9162 113.835V113.427C66.7198 113.571 66.1362 113.685 65.3197 113.791C64.5608 113.89 64.2199 114.187 64.2199 114.621C64.2199 115.054 64.5187 115.357 65.1009 115.357C65.6045 115.357 66.1067 115.206 66.4603 114.874C66.7577 114.597 66.9148 114.201 66.9148 113.836C66.9148 113.836 66.9162 113.835 66.9162 113.835ZM70.5804 111.083V108.657H69.1832V109.833C69.1832 111.294 70.3685 112.48 71.8303 112.48H73.0059V111.083L70.5804 111.083ZM70.5804 114.904V112.478H69.1832V113.654C69.1832 115.116 70.3685 116.301 71.8303 116.301H73.0059V114.904H70.5804Z" fill="#031E4F"/>
<path d="M136.342 118.728H75.4328V143.77H136.342V118.728Z" fill="#E56006"/>
<path d="M84.2294 126.342H79.7349V123.541H92.0024V126.342H87.508V138.739H84.2294V126.342ZM93.5439 123.541H99.949C101.006 123.541 101.921 123.743 102.696 124.148C103.47 124.554 104.06 125.118 104.465 125.842C104.87 126.566 105.073 127.391 105.073 128.317C105.073 129.056 104.907 129.689 104.574 130.217C104.241 130.746 103.77 131.169 103.162 131.487C103.654 131.835 104.053 132.269 104.357 132.79C104.661 133.311 104.841 133.897 104.899 134.549L105.312 138.739H102.055L101.643 134.983C101.585 134.462 101.385 134.038 101.046 133.713C100.705 133.387 100.282 133.224 99.7754 133.224H96.8225V138.739H93.5439V123.541ZM101.382 129.816C101.744 129.41 101.925 128.911 101.925 128.317C101.925 127.724 101.744 127.232 101.382 126.841C101.02 126.45 100.477 126.255 99.7536 126.255H96.8225V130.423H99.7536C100.477 130.423 101.02 130.221 101.382 129.816ZM108.58 137.426C107.487 136.434 106.94 135.005 106.94 133.137V123.541H109.98V133.137C109.98 134.107 110.255 134.838 110.805 135.33C111.355 135.823 112.086 136.068 112.998 136.068C113.91 136.068 114.641 135.823 115.191 135.33C115.741 134.838 116.016 134.107 116.016 133.137V123.541H119.056V133.137C119.056 135.005 118.509 136.434 117.417 137.426C116.323 138.417 114.851 138.913 112.998 138.913C111.145 138.913 109.672 138.417 108.58 137.426ZM121.466 123.541H131.801V126.342H124.723V129.555H130.368V132.377H124.723V135.917H132.04V138.739H121.466V123.541Z" fill="#031E4F"/>
<path d="M210 118.687H136.342V143.723H210V118.687Z" fill="#031E4F"/>
<path d="M144.415 138.11C143.257 137.516 142.338 136.633 141.657 135.461C140.977 134.288 140.637 132.877 140.637 131.227C140.637 129.577 140.981 128.165 141.668 126.993C142.356 125.82 143.282 124.938 144.448 124.344C145.612 123.751 146.89 123.454 148.28 123.454C149.539 123.454 150.675 123.678 151.689 124.127C152.702 124.576 153.527 125.213 154.164 126.037C154.801 126.863 155.184 127.818 155.315 128.904H151.884C151.783 128.108 151.396 127.467 150.723 126.982C150.049 126.497 149.228 126.255 148.258 126.255C147.433 126.255 146.695 126.447 146.043 126.83C145.392 127.214 144.878 127.778 144.502 128.523C144.125 129.269 143.937 130.17 143.937 131.227C143.937 132.284 144.125 133.185 144.502 133.93C144.878 134.676 145.392 135.236 146.043 135.613C146.695 135.989 147.433 136.177 148.258 136.177C149.228 136.177 150.057 135.935 150.744 135.45C151.432 134.965 151.841 134.332 151.971 133.55H155.249C155.148 134.621 154.79 135.569 154.175 136.394C153.559 137.219 152.742 137.86 151.721 138.316C150.701 138.772 149.553 139 148.28 139C146.861 139 145.573 138.703 144.415 138.11ZM156.986 123.628H163.392C164.448 123.628 165.364 123.83 166.138 124.235C166.912 124.641 167.502 125.205 167.908 125.929C168.313 126.653 168.516 127.478 168.516 128.404C168.516 129.142 168.349 129.776 168.016 130.304C167.683 130.833 167.213 131.256 166.605 131.574C167.097 131.922 167.495 132.356 167.799 132.877C168.103 133.398 168.284 133.984 168.342 134.636L168.755 138.826H165.498L165.085 135.07C165.027 134.549 164.828 134.125 164.488 133.8C164.148 133.474 163.724 133.311 163.218 133.311H160.265V138.826H156.986V123.628ZM164.825 129.902C165.186 129.497 165.367 128.998 165.367 128.404C165.367 127.811 165.186 127.319 164.825 126.928C164.463 126.537 163.92 126.342 163.196 126.342H160.265V130.51H163.196C163.92 130.51 164.463 130.308 164.825 129.902ZM170.687 123.628H173.965V138.826H170.687V123.628ZM176.527 123.628H180.197L184.626 134.245L189.056 123.628H192.725V138.826H189.685V129.555L185.82 138.826H183.432L179.545 129.555V138.826H176.527V123.628ZM195.222 123.628H205.557V126.428H198.479V129.642H204.124V132.464H198.479V136.004H205.796V138.826H195.222V123.628Z" fill="#E56006"/>
</g>
<defs>
<clipPath id="clip0_297_380">
<rect width="250" height="250" fill="white"/>
</clipPath>
</defs>
</svg>
