<svg width="250" height="250" viewBox="0 0 250 250" fill="none" xmlns="http://www.w3.org/2000/svg">
<rect width="250" height="250" fill="#7CA52A"/>
<path d="M184.358 40H184.357H145.244V79.324L154.86 104.064L145.244 92.1336V92.3168L103.078 40H66V158.525H105.281V103.829L149.308 158.525H184.358V40Z" fill="white"/>
<path d="M184.519 163.13H66V186.217H184.519V163.13Z" fill="#939598"/>
<path d="M135.619 173.768C134.919 173.407 134.112 173.297 132.02 173.297H129.283C128.41 173.297 128.058 172.952 128.058 172.119V171.942C128.057 171.903 128.059 171.865 128.064 171.826C128.101 171.078 128.472 170.759 129.283 170.759H132.265C132.582 170.733 132.898 170.816 133.161 170.995C133.178 171.007 133.193 171.021 133.207 171.037C133.368 171.217 133.457 171.449 133.459 171.691C133.809 171.67 136.64 171.439 137.016 171.407C136.949 171.084 136.864 170.764 136.76 170.45C136.08 168.415 134.668 167.656 131.826 167.656H129.659C126.154 167.656 124.443 168.822 124.443 171.225V172.862C124.443 174.129 124.95 175.076 125.876 175.526C126.578 175.892 127.383 175.997 129.477 175.997H132.213C133.081 175.997 133.442 176.337 133.442 177.163V177.358C133.442 178.194 133.072 178.555 132.213 178.555H129.231C128.786 178.555 128.477 178.461 128.283 178.257C128.127 178.067 128.04 177.829 128.038 177.582C127.702 177.603 124.845 177.719 124.474 177.734C124.903 180.607 126.332 181.679 129.659 181.679H131.826C135.348 181.679 137.054 180.508 137.054 178.085V176.436C137.054 175.165 136.545 174.217 135.619 173.768Z" fill="white"/>
<path d="M165.865 167.777H151.977V171.089H156.968V181.632H160.862V171.089H165.865V167.777Z" fill="white"/>
<path d="M113.873 177.54L115.657 172.779L117.447 177.54H113.873ZM117.028 167.777H114.26L108.269 181.69H112.308L112.895 180.125H118.42L119.006 181.69H123.015L117.028 167.777Z" fill="white"/>
<path d="M143.913 177.54L145.698 172.763L147.487 177.54H143.913ZM147.069 167.777H144.307L138.314 181.69H142.35L142.935 180.125H148.461L149.052 181.69H153.055L147.069 167.777Z" fill="white"/>
<path d="M92.0424 176.698L88.6993 167.777H84.6597L90.6403 181.69H93.414L99.4046 167.777H95.3913L92.0424 176.698Z" fill="white"/>
<path d="M105.82 167.777H101.927V181.632H105.82V167.777Z" fill="white"/>
<path d="M66 190.821H69.8303L78.6785 202.448V190.821H82.7755V209.701H79.2436L70.0972 197.702V209.701H66V190.821Z" fill="white"/>
<path d="M99.4997 201.83L96.9928 195.709L94.4809 201.83H99.4997ZM95.1248 190.684H98.9601L107.05 209.701H102.707L100.986 205.466H93L91.2734 209.701H87.0406L95.1248 190.684Z" fill="white"/>
<path d="M113.282 194.656H107.536V190.821H123.177V194.656H117.431V209.7H113.282V194.656Z" fill="white"/>
<path d="M135.588 209.999C133.05 209.999 131.057 209.297 129.598 207.88C128.148 206.472 127.415 204.383 127.415 201.611V190.821H131.57V201.506C131.57 203.05 131.926 204.216 132.648 204.99C133.365 205.775 134.362 206.168 135.641 206.168C136.917 206.168 137.914 205.791 138.633 205.038C139.355 204.279 139.711 203.149 139.711 201.637V190.821H143.872V201.474C143.896 202.745 143.7 204.011 143.291 205.215C142.945 206.217 142.378 207.128 141.632 207.88C140.896 208.601 140.005 209.145 139.026 209.47C137.918 209.839 136.756 210.017 135.588 209.999Z" fill="white"/>
<path d="M157.811 200.019C158.842 200.019 159.622 199.774 160.172 199.286C160.446 199.043 160.662 198.742 160.805 198.404C160.948 198.067 161.014 197.701 160.998 197.335V197.283C160.998 196.384 160.71 195.703 160.129 195.253C159.558 194.798 158.76 194.571 157.733 194.572H153.604V200.019H157.811ZM149.45 190.821H158.083C160.475 190.821 162.31 191.46 163.588 192.737C164.661 193.819 165.204 195.258 165.204 197.053V197.106C165.204 198.638 164.829 199.879 164.085 200.846C163.326 201.81 162.313 202.543 161.16 202.961L165.771 209.701H160.914L156.869 203.661H153.604V209.701H149.45L149.45 190.821Z" fill="white"/>
<path d="M170.171 190.821H184.382V194.514H174.268V198.351H183.169V202.045H174.268V206.006H184.519V209.701H170.171V190.821Z" fill="white"/>
</svg>
