<svg width="250" height="250" viewBox="0 0 250 250" fill="none" xmlns="http://www.w3.org/2000/svg">
<rect width="250" height="250" fill="#00ADD7"/>
<path d="M90.32 106.657C87.362 104.243 82.976 104.243 74.17 104.243H60.162C51.356 104.243 46.97 104.243 44.012 106.657C43.434 107.133 42.89 107.677 42.414 108.255C40 111.213 40 115.599 40 124.405C40 133.177 40 137.563 42.414 140.521C42.89 141.099 43.434 141.643 44.012 142.119C46.97 144.533 51.39 144.533 60.162 144.533H74.204C82.976 144.533 87.362 144.533 90.354 142.119C90.932 141.643 91.476 141.099 91.952 140.521C94.366 137.563 94.366 133.143 94.366 124.371C94.366 115.599 94.366 111.213 91.952 108.221C91.442 107.643 90.898 107.133 90.32 106.657ZM55.674 132.395H51.832L45.508 118.319H49.792L53.872 127.771L57.986 118.319H62.1C59.924 123.147 57.714 127.873 55.674 132.395ZM71.892 132.055C71.892 135.931 70.022 137.937 66.044 137.937H62.61V134.673H65.738C67.608 134.673 68.118 133.585 68.118 132.191V118.319H71.926V132.055H71.892ZM62.61 132.395V118.319H66.384V132.395H62.61ZM70.022 117.333C68.662 117.333 67.608 116.585 67.132 115.531C66.656 116.619 65.636 117.333 64.31 117.333C62.372 117.333 61.08 115.871 61.08 114.035C61.08 112.233 62.372 110.771 64.31 110.771C65.636 110.771 66.656 111.485 67.132 112.539C67.642 111.485 68.662 110.771 70.022 110.771C71.858 110.771 73.15 112.199 73.15 114.035C73.15 115.837 71.858 117.333 70.022 117.333ZM86.75 126.649C86.75 130.899 84.268 132.905 80.188 132.905C76.108 132.905 73.694 130.933 73.694 126.751V118.319H77.366V126.377C77.366 128.349 78.352 129.573 80.29 129.573C82.194 129.573 83.078 128.247 83.078 126.377V118.319H86.75V126.649Z" fill="black"/>
<path d="M159.51 125.425C165.222 125.425 168.622 121.005 168.622 115.225C168.622 109.445 165.188 105.059 159.51 105.059C153.832 105.059 150.364 109.445 150.398 115.225C150.364 121.039 153.798 125.425 159.51 125.425ZM159.51 109.207C162.706 109.207 164.066 111.791 164.066 115.225C164.066 118.693 162.706 121.277 159.51 121.277C156.314 121.277 154.954 118.693 154.954 115.225C154.92 111.757 156.314 109.207 159.51 109.207Z" fill="black"/>
<path d="M129.862 125.119L137.07 105.331H132.48L127.55 119.305L122.586 105.331H117.86L125.17 125.119H129.862Z" fill="black"/>
<path d="M115.786 105.331H100.452V109.479H106.402V125.119H110.822V109.479H117.248L115.786 105.331Z" fill="black"/>
<path d="M147.168 125.119V105.331H139.28L137.784 109.479H142.714V125.119H147.168Z" fill="black"/>
<path d="M180.182 105.059C174.504 105.059 171.036 109.445 171.07 115.225C171.07 121.039 174.47 125.425 180.182 125.425C185.894 125.425 189.294 121.005 189.294 115.225C189.294 109.445 185.86 105.059 180.182 105.059ZM180.182 121.277C176.986 121.277 175.626 118.693 175.626 115.225C175.626 111.757 177.02 109.207 180.182 109.207C183.378 109.207 184.738 111.791 184.738 115.225C184.772 118.693 183.412 121.277 180.182 121.277Z" fill="black"/>
<path d="M200.888 105.059C195.21 105.059 191.742 109.445 191.776 115.225C191.776 121.039 195.176 125.425 200.888 125.425C206.6 125.425 210 121.005 210 115.225C210 109.445 206.566 105.059 200.888 105.059ZM200.888 121.277C197.692 121.277 196.332 118.693 196.332 115.225C196.332 111.757 197.726 109.207 200.888 109.207C204.084 109.207 205.444 111.791 205.444 115.225C205.444 118.693 204.084 121.277 200.888 121.277Z" fill="black"/>
<path d="M157.98 131.409C155.09 131.409 152.676 133.653 152.676 136.713C152.676 139.773 155.022 141.983 157.98 141.983C160.938 141.983 163.284 139.773 163.284 136.713C163.284 133.687 160.87 131.409 157.98 131.409ZM157.98 139.739C156.348 139.739 155.124 138.481 155.124 136.713C155.124 134.979 156.382 133.687 157.98 133.687C159.578 133.687 160.836 134.979 160.836 136.713C160.836 138.447 159.612 139.739 157.98 139.739Z" fill="black"/>
<path d="M169.744 131.409C166.888 131.409 164.678 133.483 164.678 136.713C164.678 139.943 166.99 141.949 170.22 141.949C171.682 141.949 173.348 141.541 174.368 140.793V138.481C173.348 139.297 171.852 139.739 170.39 139.739C168.758 139.739 167.398 138.957 167.16 137.495H174.606V136.713C174.606 133.381 172.6 131.409 169.744 131.409ZM167.228 135.625C167.5 134.367 168.418 133.619 169.744 133.619C171.07 133.619 171.954 134.435 172.226 135.625H167.228Z" fill="black"/>
<path d="M149.378 131.715L145.468 135.931V131.715H143.088V141.881H145.468V137.699L149.344 141.881H152.438L147.712 136.781L152.438 131.715H149.378Z" fill="black"/>
<path d="M127.278 139.807C125.476 139.807 124.252 138.583 124.252 136.781C124.252 135.081 125.306 133.755 127.176 133.755C128.604 133.755 129.726 134.435 130.576 135.455V132.735C129.692 131.953 128.536 131.477 127.176 131.477C124.184 131.477 121.838 133.653 121.838 136.781C121.838 139.909 124.184 142.051 127.176 142.051C128.57 142.051 129.726 141.609 130.576 140.827V138.107C129.726 139.161 128.638 139.807 127.278 139.807Z" fill="black"/>
<path d="M121.838 131.715H119.288L116.432 137.597L113.508 131.715H110.924L115.14 140.249L112.25 145.757H114.8L121.838 131.715Z" fill="black"/>
<path d="M137.682 139.807C135.88 139.807 134.656 138.583 134.656 136.781C134.656 135.081 135.744 133.755 137.58 133.755C139.008 133.755 140.13 134.435 140.98 135.455V132.735C140.096 131.953 138.94 131.477 137.58 131.477C134.588 131.477 132.242 133.653 132.242 136.781C132.242 139.909 134.588 142.051 137.58 142.051C138.974 142.051 140.13 141.609 140.98 140.827V138.107C140.164 139.161 139.042 139.807 137.682 139.807Z" fill="black"/>
<path d="M105.858 131.477C104.702 131.477 103.512 131.987 102.832 132.837V131.681H100.52V145.723H102.9V140.793C103.512 141.507 104.566 142.051 105.722 142.051C108.884 142.051 110.754 139.637 110.754 136.747C110.72 133.857 109.088 131.477 105.858 131.477ZM105.484 139.773C104.362 139.773 103.274 139.161 102.866 138.209V135.251C103.376 134.299 104.328 133.721 105.484 133.721C107.218 133.721 108.374 135.081 108.374 136.747C108.408 138.379 107.252 139.773 105.484 139.773Z" fill="black"/>
</svg>
