<svg width="250" height="250" viewBox="0 0 250 250" fill="none" xmlns="http://www.w3.org/2000/svg">
<rect width="250" height="250" fill="#1B2932"/>
<path d="M167.653 80.4482C167.653 84.4721 167.391 88.496 167.041 92.5199C166.779 95.4066 166.341 98.2933 165.817 101.18C165.642 102.142 165.467 103.017 165.292 103.979C165.204 104.329 165.292 104.504 165.729 104.417C175.964 103.279 184.274 106.778 190.397 115.089C192.934 118.5 194.421 122.524 194.859 126.723C195.733 134.858 193.371 141.856 187.773 147.805C186.548 149.117 185.149 150.166 183.662 151.216C180.163 153.578 176.401 154.978 172.202 155.415C167.041 155.94 162.143 155.065 157.506 152.703C154.182 150.954 151.383 148.592 149.109 145.618C148.671 145.093 148.671 145.093 148.321 145.618C147.359 147.105 146.309 148.592 145.26 150.079C143.948 151.916 142.548 153.666 141.236 155.503C140.448 156.552 139.486 157.514 138.611 158.564C136.075 161.713 133.275 164.6 130.476 167.399C124.79 172.91 118.667 177.809 112.194 182.183C111.319 182.795 110.532 182.795 109.657 182.183C103.009 177.721 96.7105 172.735 91.0246 167.049C80.615 156.902 72.2173 145.268 65.919 132.146C61.8951 123.836 58.9209 115.176 56.909 106.166C56.2092 103.279 55.6843 100.305 55.247 97.331C54.8971 94.9692 54.6346 92.6073 54.4597 90.158C54.1098 85.9592 53.9348 81.7603 54.0223 77.5615C54.1098 73.4501 54.5471 69.3387 55.3344 65.3149C55.4219 64.7025 55.6843 64.3526 56.2967 64.2651C57.8712 63.9152 59.4458 63.4779 61.0204 63.128C62.7699 62.6906 64.5194 62.2532 66.1814 61.7283C66.4439 61.6409 66.6188 61.4659 66.7063 61.2035C67.1437 59.3665 67.6685 57.5295 68.1059 55.6925C68.1934 55.1676 68.4558 54.9052 68.9807 54.8177C72.3922 53.943 75.7163 52.9808 79.1279 52.106C79.4778 52.0185 79.6527 51.8436 79.6527 51.4937C80.0026 49.8316 80.44 48.2571 80.7899 46.595C80.9649 45.6328 81.1398 45.4578 82.1021 45.2829C85.8635 44.5831 89.625 43.8833 93.299 43.1834C96.0982 42.6586 98.8974 42.1337 101.784 41.6089C104.671 41.084 107.47 40.5592 110.357 40.0343C110.882 39.9468 111.406 40.0343 111.931 40.2093C117.355 41.259 122.778 42.2212 128.289 43.2709C131.701 43.8833 135.2 44.5831 138.611 45.1954C139.049 45.2829 139.486 45.3703 139.924 45.4578C140.448 45.5453 140.711 45.8952 140.886 46.4201C141.236 48.1696 141.673 49.9191 142.111 51.6686C142.198 52.0185 142.373 52.1935 142.723 52.2809C146.047 53.1557 149.371 54.0305 152.695 54.9052C153.307 55.0802 153.657 55.3426 153.745 55.9549C154.182 57.7045 154.62 59.454 155.057 61.2035C155.144 61.6409 155.319 61.8158 155.757 61.9033C158.993 62.778 162.23 63.6528 165.467 64.4401C166.079 64.615 166.341 64.8775 166.429 65.4898C166.954 68.3765 167.304 71.2632 167.566 74.1499C167.653 76.2493 167.566 78.3488 167.653 80.4482ZM106.508 110.19C106.508 100.305 106.508 90.333 106.508 80.4482C106.508 73.0127 106.508 65.6648 106.508 58.2293C106.508 57.7919 106.508 57.3545 105.896 57.442C103.446 57.7044 101.084 58.2293 98.635 58.7542C98.1976 58.8416 98.0227 59.1041 97.9352 59.5414C97.9352 59.8039 97.9352 60.1538 97.9352 60.4162C97.9352 66.8019 98.0227 73.1877 98.0227 79.486C98.1101 92.8698 98.1102 106.254 98.1976 119.637C98.1976 123.574 98.2851 127.51 98.5475 131.447C98.5475 131.709 98.5475 132.059 98.1976 132.059C97.8477 132.146 97.8477 131.797 97.7602 131.622C96.6231 128.298 95.7483 124.886 94.961 121.474C93.6489 115.614 92.6866 109.753 91.9868 103.804C91.3745 98.7307 90.9371 93.5696 90.6747 88.4085C90.4123 83.2474 90.2373 78.1738 90.2373 73.0127C90.2373 69.5137 90.2373 65.9272 90.3248 62.4282C90.3248 61.7283 90.1498 61.5534 89.5375 61.8158C87.0882 62.8655 84.6389 64.0027 82.3645 65.4898C81.9271 65.8397 81.6647 66.1896 81.6647 66.7145C81.6647 68.8139 81.5772 70.9133 81.5772 73.1002C81.5772 78.3488 81.6647 83.5973 82.0146 88.7584C82.1895 91.2952 82.277 93.832 82.5394 96.3688C82.8893 100.305 83.3267 104.329 83.9391 108.266C84.5514 112.114 85.1637 116.051 86.0385 119.812C86.1259 120.337 86.0385 120.687 85.6011 120.95C85.2512 121.124 84.9888 121.387 84.6389 121.562C83.7641 122.087 83.4142 121.999 82.9768 121.124C81.6647 118.325 80.7024 115.439 79.7402 112.552C78.8654 109.84 78.1656 107.128 77.6408 104.329C77.0285 101.355 76.5036 98.4682 76.0662 95.494C75.7163 93.3071 75.4539 91.1202 75.2789 88.8459C75.0165 85.6967 74.7541 82.5476 74.6666 79.3985C74.5791 77.2116 74.4917 75.0247 74.4917 72.8378C74.4917 72.5754 74.4917 72.2255 74.1418 72.0505C73.8793 71.963 73.7044 72.138 73.5294 72.2254C71.1676 74.4123 68.9807 76.5992 66.9687 79.136C66.5313 79.7484 66.2689 80.3607 66.2689 81.148C66.3564 83.4224 66.5314 85.6967 66.7063 87.9711C67.2312 93.3946 68.1059 98.7307 69.2431 103.979C70.9926 111.677 73.1795 119.2 76.4161 126.373C77.2909 128.298 78.2531 130.309 79.3028 132.146C80.0901 133.459 81.2273 133.808 82.452 133.021C84.2015 131.884 85.951 130.834 87.7005 129.697C88.3129 129.26 88.3129 129.26 88.5753 130.047C91.0246 138.182 94.3487 146.055 98.81 153.316C100.822 156.552 103.096 159.701 105.633 162.588C105.721 162.763 105.896 162.938 106.07 162.851C106.333 162.763 106.245 162.501 106.245 162.326C106.508 144.918 106.508 127.51 106.508 110.19ZM142.898 92.6948C142.985 92.5199 143.073 92.4324 143.16 92.3449C145.61 89.5457 147.184 86.3091 147.796 82.6351C148.759 77.2991 147.622 72.4879 144.035 68.3765C141.236 65.1399 137.649 62.953 133.713 61.291C127.939 58.9291 121.904 57.8794 115.78 57.3545C115.08 57.2671 114.993 57.3545 114.993 58.1418C114.993 92.6948 114.993 127.248 114.993 161.888C114.993 162.151 114.906 162.501 115.168 162.588C115.43 162.763 115.693 162.413 115.868 162.238L115.955 162.151C120.941 157.514 125.665 152.791 130.214 147.717C135.025 142.294 139.574 136.52 143.423 130.309C143.598 129.96 143.773 129.61 143.773 129.172C143.685 128.035 143.86 126.898 144.035 125.761C144.997 120.337 147.272 115.614 151.121 111.677C151.296 111.502 151.47 111.327 151.47 111.065C151.645 109.753 151.908 108.44 151.908 107.128C151.995 105.291 151.908 103.454 151.558 101.617C151.033 98.9931 149.896 96.7187 147.796 94.9692C146.397 94.007 144.735 93.2197 142.898 92.6948ZM176.664 130.134H176.576C176.489 129.96 176.401 129.697 176.401 129.522C175.351 126.286 174.302 123.049 173.252 119.9C173.164 119.55 172.99 119.462 172.64 119.462C166.254 119.462 159.868 119.462 153.482 119.462C153.132 119.462 152.958 119.55 152.958 119.987C152.958 121.474 152.958 122.874 152.958 124.361C152.958 124.711 153.045 124.886 153.395 124.798C154.357 124.798 155.232 124.798 156.194 124.798C156.719 124.798 156.894 124.973 156.806 125.498C156.806 130.222 156.806 134.946 156.806 139.669C156.806 140.282 156.981 140.369 157.506 140.369C159.343 140.369 161.18 140.369 163.105 140.369C163.717 140.369 163.805 140.194 163.805 139.669C163.805 134.946 163.805 130.135 163.805 125.411C163.805 124.973 163.892 124.798 164.417 124.798C165.467 124.798 166.604 124.798 167.653 124.798C168.003 124.798 168.178 124.886 168.353 125.236C170.278 130.222 172.202 135.208 174.127 140.194C174.302 140.544 174.477 140.719 174.827 140.719C176.226 140.719 177.713 140.719 179.113 140.719C179.55 140.719 179.725 140.544 179.9 140.194C181.912 134.596 184.011 128.91 186.023 123.311C186.461 122.087 186.898 120.775 187.423 119.55C187.336 119.55 187.248 119.462 187.161 119.462C184.886 119.462 182.699 119.462 180.425 119.462C180.075 119.462 179.988 119.637 179.9 119.9C178.85 123.311 177.713 126.723 176.664 130.134Z" fill="white"/>
<path d="M171.59 194.167C173.602 194.167 175.614 194.167 177.626 194.167C179.025 194.167 180.425 194.167 181.825 194.167C182.874 194.167 182.874 194.167 183.137 195.129C183.574 196.529 184.099 197.841 184.536 199.24C185.061 201.077 185.848 202.827 186.373 204.751C186.461 204.926 186.461 205.189 186.723 205.189C186.986 205.189 186.898 204.926 186.898 204.751C187.073 204.052 187.336 203.439 187.511 202.827C187.86 201.865 188.21 200.815 188.56 199.853C189.085 198.453 189.522 197.054 190.047 195.654C190.135 195.304 190.31 195.042 190.397 194.692C190.397 194.429 190.66 194.254 190.922 194.254C192.059 194.254 193.196 194.254 194.246 194.254C194.596 194.254 194.684 194.342 194.509 194.692C193.984 195.566 193.896 196.616 193.459 197.491C192.847 198.803 192.409 200.115 191.884 201.515C191.447 202.652 190.922 203.789 190.572 204.926C190.31 205.714 189.872 206.501 189.61 207.288C189.348 207.901 189.085 208.6 188.91 209.213C188.735 209.738 188.473 209.913 187.948 209.913C186.898 209.913 185.848 209.913 184.799 209.913C184.536 209.913 184.361 209.825 184.274 209.563C183.574 207.988 183.049 206.413 182.437 204.839C181.912 203.439 181.3 202.04 180.862 200.553C180.6 199.765 180.25 199.066 179.988 198.278C179.638 197.316 179.288 196.354 178.938 195.392V195.304C178.763 195.129 178.763 194.779 178.588 194.779C178.326 194.867 178.501 195.217 178.501 195.392C178.501 196.004 178.501 196.616 178.501 197.229C178.501 197.578 178.413 197.753 177.976 197.753C176.838 197.753 175.614 197.753 174.477 197.753C173.952 197.753 173.864 197.841 173.864 198.366C173.864 202.04 173.864 205.626 173.864 209.3C173.864 209.825 173.689 209.913 173.252 209.913C172.29 209.913 171.415 209.913 170.453 209.913C169.928 209.913 169.84 209.825 169.84 209.3C169.84 205.626 169.84 202.04 169.84 198.366C169.84 197.841 169.665 197.666 169.141 197.666C168.003 197.753 166.866 197.666 165.642 197.666C165.292 197.666 165.204 197.578 165.204 197.229C165.204 196.354 165.204 195.479 165.204 194.692C165.204 194.342 165.379 194.254 165.642 194.254C167.479 194.254 169.49 194.167 171.59 194.167Z" fill="white"/>
<path d="M56.4716 194.167C56.909 194.167 57.2589 194.167 57.6963 194.167C58.6585 194.167 58.746 194.167 58.9209 195.042C59.0959 196.354 59.6207 197.578 59.8832 198.803C60.2331 200.028 60.4955 201.252 60.8454 202.565C61.1078 203.352 61.2828 204.052 61.4577 204.839C61.4577 205.014 61.4577 205.189 61.7202 205.189C61.9826 205.189 61.8951 204.926 61.8951 204.839C62.1576 203.964 62.3325 203.089 62.5949 202.215C62.7699 201.69 62.7699 201.077 62.9448 200.553C63.2073 199.678 63.4697 198.803 63.7321 197.928C63.9945 197.054 64.257 196.091 64.4319 195.217C64.6069 194.342 64.6943 194.254 65.5691 194.254C66.4439 194.254 67.3186 194.254 68.1059 194.254C68.4558 194.254 68.6308 194.254 68.7182 194.692C69.0681 196.091 69.5055 197.491 69.8554 198.978C70.2053 200.553 70.7302 202.04 71.1676 203.614C71.3425 204.139 71.255 204.664 71.5175 205.101C71.6049 205.189 71.6049 205.276 71.6924 205.276C71.7799 205.276 71.8674 205.189 71.8674 205.101C72.0423 204.402 72.2173 203.789 72.3922 203.089C72.6547 202.127 72.9171 201.252 73.1795 200.29C73.3545 199.853 73.4419 199.328 73.5294 198.891C73.7044 197.928 74.1417 197.054 74.3167 196.091C74.4042 195.566 74.4917 195.129 74.7541 194.604C74.8416 194.342 74.929 194.254 75.1915 194.254C76.3286 194.254 77.3784 194.254 78.5155 194.254C78.8654 194.254 78.9529 194.254 78.8654 194.692C78.4281 196.004 77.9907 197.316 77.4658 198.628C77.2034 199.328 76.8535 200.115 76.766 200.903C76.6786 201.515 76.3286 202.04 76.1537 202.652C75.8913 203.439 75.6288 204.314 75.3664 205.101C74.8416 206.588 74.4042 208.076 73.8793 209.563C73.7918 209.825 73.6169 209.825 73.3545 209.825C72.2173 209.825 71.0801 209.825 69.9429 209.825C69.418 209.825 69.4181 209.475 69.3306 209.125C68.9807 207.813 68.5433 206.501 68.2809 205.189C68.1059 204.314 67.756 203.527 67.5811 202.652C67.4061 201.69 67.0562 200.728 66.7938 199.765C66.7938 199.678 66.7063 199.59 66.6188 199.59C66.5313 199.59 66.5313 199.765 66.4439 199.853C66.1814 200.99 65.919 202.04 65.5691 203.177C65.0443 204.664 64.7818 206.239 64.257 207.726C64.082 208.25 63.9071 208.775 63.8196 209.388C63.8196 209.738 63.6446 209.913 63.2073 209.913C62.0701 209.913 60.9329 209.913 59.8832 209.913C59.5333 209.913 59.3583 209.825 59.2708 209.475C59.0084 208.338 58.6585 207.288 58.2211 206.239C57.9587 205.539 57.7838 204.839 57.5213 204.139C57.2589 203.439 56.9965 202.652 56.734 201.952C56.5591 201.34 56.2967 200.64 56.1217 200.028C55.8593 199.328 55.5969 198.628 55.4219 197.928C55.1595 196.879 54.8096 195.916 54.3722 194.954C54.1972 194.429 54.3722 194.342 54.897 194.342C55.4219 194.254 55.9468 194.167 56.4716 194.167Z" fill="white"/>
<path d="M112.719 201.952C112.719 199.59 112.719 197.141 112.719 194.779C112.719 194.342 112.806 194.167 113.243 194.167C114.118 194.167 114.993 194.167 115.78 194.167C116.043 194.167 116.218 194.254 116.48 194.517C116.83 195.129 117.355 195.654 117.792 196.179C118.842 197.666 120.067 199.153 121.116 200.64C121.729 201.515 122.428 202.215 122.953 203.089C123.041 203.177 123.128 203.352 123.303 203.264C123.478 203.177 123.391 203.002 123.391 202.827C123.391 200.115 123.391 197.403 123.391 194.779C123.391 194.254 123.566 194.079 124.09 194.079C124.965 194.167 125.84 194.079 126.627 194.079C126.977 194.079 127.065 194.167 127.065 194.604C127.065 199.503 127.065 204.314 127.065 209.213C127.065 209.65 126.89 209.738 126.54 209.738C125.665 209.738 124.79 209.738 123.916 209.738C123.566 209.738 123.303 209.563 123.128 209.3C122.428 208.163 121.554 207.201 120.766 206.151C119.717 204.664 118.492 203.352 117.53 201.777C117.355 201.427 117.005 201.165 116.743 200.815C116.743 200.728 116.568 200.728 116.568 200.728C116.48 200.728 116.48 200.903 116.48 200.99C116.48 201.427 116.48 201.777 116.48 202.215C116.48 204.577 116.48 206.851 116.48 209.213C116.48 209.65 116.393 209.825 115.868 209.825C114.993 209.825 114.118 209.825 113.243 209.825C112.806 209.825 112.719 209.65 112.719 209.213C112.719 206.763 112.719 204.402 112.719 201.952Z" fill="white"/>
<path d="M145.172 202.04C145.172 199.59 145.172 197.229 145.172 194.779C145.172 194.342 145.26 194.167 145.697 194.167C148.059 194.167 150.508 194.167 152.87 194.167C154.62 194.254 156.282 194.779 157.506 196.179C158.119 196.879 158.556 197.753 158.556 198.716C158.556 199.153 158.556 199.678 158.556 200.115C158.556 202.04 157.769 203.439 156.194 204.489C155.932 204.664 155.844 204.839 156.019 205.014C156.719 205.801 157.156 206.851 157.769 207.726C158.206 208.25 158.556 208.863 158.906 209.388C159.168 209.738 158.818 209.738 158.643 209.738C157.769 209.738 156.894 209.738 156.019 209.738C154.445 209.738 154.445 209.738 153.745 208.338C153.307 207.551 152.958 206.676 152.52 205.889C152.345 205.626 152.17 205.451 151.82 205.451C151.121 205.451 150.421 205.451 149.808 205.451C149.459 205.451 149.284 205.626 149.284 205.976C149.284 207.113 149.284 208.163 149.284 209.3C149.284 209.738 149.196 209.825 148.759 209.825C147.709 209.825 146.659 209.825 145.61 209.825C145.26 209.825 145.085 209.738 145.085 209.3C145.172 206.851 145.172 204.402 145.172 202.04ZM149.284 199.765C149.284 200.465 149.284 201.077 149.284 201.777C149.284 202.127 149.371 202.302 149.808 202.302C150.683 202.302 151.645 202.302 152.52 202.302C153.657 202.302 154.182 201.865 154.62 200.815C155.319 198.803 154.182 197.491 152.258 197.403C151.47 197.316 150.683 197.403 149.896 197.403C149.371 197.403 149.196 197.578 149.196 198.103C149.284 198.628 149.284 199.24 149.284 199.765Z" fill="white"/>
<path d="M96.5356 201.952C96.5356 199.59 96.5356 197.141 96.5356 194.779C96.5356 194.342 96.6231 194.167 97.0604 194.167C99.3348 194.167 101.609 194.167 103.971 194.167C105.633 194.167 107.208 194.604 108.432 195.741C109.132 196.354 109.569 197.141 109.832 198.103C110.269 199.59 110.094 200.99 109.482 202.39C109.132 203.264 108.345 203.877 107.645 204.489C107.383 204.751 107.383 204.926 107.558 205.189C108.432 206.588 109.307 207.901 110.182 209.3C110.269 209.388 110.357 209.475 110.357 209.65C110.269 209.825 110.094 209.738 110.007 209.738C108.782 209.738 107.558 209.738 106.333 209.738C105.633 209.738 105.721 209.213 105.458 208.863C104.846 207.901 104.408 206.763 103.796 205.801C103.621 205.539 103.359 205.451 103.096 205.451C102.484 205.451 101.872 205.451 101.259 205.451C100.822 205.451 100.647 205.626 100.647 206.064C100.647 207.113 100.647 208.163 100.647 209.213C100.647 209.563 100.559 209.738 100.122 209.738C99.0724 209.738 98.0227 209.738 96.973 209.738C96.5356 209.738 96.4481 209.563 96.4481 209.213C96.5356 206.851 96.5356 204.402 96.5356 201.952ZM100.647 199.853C100.647 200.465 100.647 201.077 100.647 201.69C100.647 202.215 100.822 202.302 101.259 202.302C102.134 202.302 103.009 202.302 103.884 202.302C106.158 202.127 106.595 200.378 105.895 198.716C105.546 197.753 104.496 197.578 103.621 197.491C102.834 197.403 102.047 197.491 101.259 197.491C100.822 197.491 100.647 197.666 100.647 198.191C100.647 198.628 100.647 199.24 100.647 199.853Z" fill="white"/>
<path d="M130.126 201.952C130.126 199.503 130.126 197.054 130.126 194.692C130.126 194.254 130.301 194.254 130.651 194.254C134.413 194.254 138.262 194.254 142.023 194.254C142.373 194.254 142.46 194.342 142.46 194.692C142.46 195.479 142.46 196.179 142.46 196.966C142.46 197.403 142.373 197.491 141.936 197.491C139.574 197.491 137.299 197.491 134.938 197.491C134.413 197.491 134.238 197.666 134.238 198.103C134.238 198.716 134.238 199.328 134.238 199.94C134.238 200.378 134.325 200.553 134.763 200.553C136.862 200.553 138.961 200.553 141.061 200.553C141.498 200.553 141.673 200.728 141.673 201.165C141.673 201.865 141.673 202.565 141.673 203.352C141.673 203.789 141.586 203.964 141.061 203.964C138.961 203.964 136.949 203.964 134.85 203.964C134.413 203.964 134.238 204.052 134.238 204.576C134.238 205.101 134.325 205.626 134.238 206.151C134.15 206.763 134.413 206.851 135.025 206.851C137.387 206.851 139.749 206.851 142.111 206.851C142.548 206.851 142.81 206.938 142.723 207.463C142.635 208.163 142.723 208.863 142.723 209.475C142.723 209.913 142.548 210 142.198 210C138.349 210 134.5 210 130.739 210C130.476 210 130.214 210 130.214 209.563C130.126 206.851 130.126 204.402 130.126 201.952Z" fill="white"/>
<path d="M92.8616 209.825C92.3367 209.825 91.8119 209.738 91.287 209.825C90.8496 209.913 90.5872 209.65 90.4997 209.3C90.3248 208.688 90.0624 208.163 89.8874 207.551C89.7999 207.201 89.625 207.113 89.2751 207.113C87.2631 207.113 85.3387 207.113 83.3267 207.113C83.0643 207.113 82.8893 207.201 82.8019 207.463C82.5394 208.163 82.1895 208.775 82.0146 209.475C81.9271 209.825 81.6647 209.913 81.4022 209.913C80.3525 209.913 79.2154 209.913 78.1656 209.913C77.9032 209.913 77.7283 210 77.9032 209.475C78.4281 207.988 79.1279 206.501 79.7402 205.101C80.2651 203.877 80.8774 202.652 81.4022 201.427C82.1021 199.765 82.8893 198.103 83.5017 196.441C83.6766 195.916 84.0265 195.479 84.2015 194.867C84.289 194.517 84.5514 194.342 84.9888 194.342C86.0385 194.429 87.0882 194.342 88.1379 194.342C88.4878 194.342 88.6627 194.429 88.7502 194.779C89.625 196.966 90.5872 199.066 91.462 201.252C92.2493 203.089 92.9491 204.926 93.8238 206.851C94.1737 207.726 94.5236 208.688 94.961 209.563C95.136 209.913 94.961 210 94.6986 210C94.0863 209.825 93.4739 209.825 92.8616 209.825ZM86.3009 204.052C86.8258 204.052 87.4381 204.052 87.9629 204.052C88.2254 204.052 88.5753 203.964 88.4003 203.614C88.0504 203.002 87.9629 202.302 87.7005 201.602C87.3506 200.815 87.0007 199.94 86.7383 199.066C86.6508 198.891 86.6508 198.716 86.4759 198.628C86.2134 198.628 86.2134 198.803 86.1259 198.978C85.8635 199.678 85.6011 200.378 85.3387 200.99C84.9888 201.69 84.8138 202.477 84.4639 203.177C84.2015 203.702 84.3764 203.964 84.9888 203.964C85.4261 204.052 85.8635 204.052 86.3009 204.052Z" fill="white"/>
<path d="M123.478 142.031C123.391 141.856 123.391 141.681 123.391 141.506C123.391 130.747 123.391 119.9 123.391 109.14C123.391 108.703 123.478 108.353 123.916 108.091C126.54 106.254 129.164 104.417 132.051 102.842C133.888 101.88 135.812 101.005 137.912 101.005C140.011 101.005 141.586 101.967 142.373 103.979C143.073 105.816 143.073 107.828 142.81 109.753C142.111 114.301 140.186 118.413 137.999 122.349C134.5 128.647 130.214 134.246 125.49 139.669C124.878 140.457 124.178 141.244 123.478 142.031Z" fill="white"/>
<path d="M123.391 98.3807C123.391 98.0308 123.391 97.7684 123.391 97.506C123.391 87.7087 123.391 77.9114 123.391 68.1141C123.391 67.2393 123.391 67.2393 124.265 67.3268C128.289 67.6767 132.051 68.8139 135.287 71.3507C137.474 73.0127 139.049 75.1122 139.311 77.9114C139.574 80.3607 138.961 82.6351 137.912 84.822C136.425 87.9711 134.15 90.5079 131.526 92.6948C129.077 94.7942 126.452 96.5437 123.741 98.2058C123.653 98.2058 123.566 98.2058 123.391 98.3807Z" fill="white"/>
</svg>
