<?xml version="1.0" encoding="UTF-8"?>
<svg id="Vrstva_1" data-name="Vrstva 1" xmlns="http://www.w3.org/2000/svg" xmlns:xlink="http://www.w3.org/1999/xlink" version="1.1" viewBox="0 0 1024 1024">
  <defs>
    <style>
      .cls-1 {
        fill: #242122;
      }

      .cls-1, .cls-2, .cls-3, .cls-4, .cls-5, .cls-6, .cls-7, .cls-8, .cls-9, .cls-10, .cls-11, .cls-12, .cls-13, .cls-14, .cls-15, .cls-16, .cls-17, .cls-18, .cls-19, .cls-20, .cls-21, .cls-22, .cls-23, .cls-24, .cls-25, .cls-26, .cls-27, .cls-28, .cls-29, .cls-30, .cls-31, .cls-32, .cls-33, .cls-34, .cls-35, .cls-36, .cls-37, .cls-38, .cls-39, .cls-40, .cls-41, .cls-42, .cls-43, .cls-44, .cls-45, .cls-46, .cls-47, .cls-48, .cls-49, .cls-50, .cls-51, .cls-52, .cls-53, .cls-54, .cls-55, .cls-56, .cls-57, .cls-58, .cls-59, .cls-60, .cls-61, .cls-62, .cls-63, .cls-64, .cls-65, .cls-66, .cls-67, .cls-68, .cls-69, .cls-70, .cls-71, .cls-72, .cls-73, .cls-74, .cls-75, .cls-76, .cls-77, .cls-78, .cls-79, .cls-80, .cls-81, .cls-82, .cls-83, .cls-84, .cls-85, .cls-86, .cls-87, .cls-88 {
        stroke-width: 0px;
      }

      .cls-2 {
        fill: #ff5032;
      }

      .cls-3 {
        fill: #291c28;
      }

      .cls-4 {
        fill: #291b2a;
      }

      .cls-5 {
        fill: #514b4a;
      }

      .cls-6 {
        fill: #252122;
      }

      .cls-7 {
        fill: #383534;
      }

      .cls-8 {
        fill: #2e2a2b;
      }

      .cls-9 {
        fill: #281d26;
      }

      .cls-10 {
        fill: #3e3a39;
      }

      .cls-11 {
        fill: #3a3635;
      }

      .cls-12 {
        fill: #43403f;
      }

      .cls-13 {
        fill: #291c26;
      }

      .cls-14 {
        fill: #34302f;
      }

      .cls-15 {
        fill: url(#Nepojmenovaný_přechod_2);
      }

      .cls-89 {
        clip-path: url(#clippath);
      }

      .cls-16 {
        fill: none;
      }

      .cls-17 {
        fill: #5b5653;
      }

      .cls-18 {
        fill: #322e2d;
      }

      .cls-19 {
        fill: #2c2829;
      }

      .cls-20 {
        fill: #6f6a67;
      }

      .cls-21 {
        fill: #442721;
      }

      .cls-22 {
        fill: #2b2729;
      }

      .cls-23 {
        fill: #3d3939;
      }

      .cls-24 {
        fill: #572b21;
      }

      .cls-25 {
        fill: #4b4545;
      }

      .cls-26 {
        fill: #562b22;
      }

      .cls-27 {
        fill: #57524f;
      }

      .cls-28 {
        fill: #504b48;
      }

      .cls-29 {
        fill: #2e1a2e;
      }

      .cls-30 {
        fill: #282425;
      }

      .cls-31 {
        fill: #252021;
      }

      .cls-32 {
        fill: #5a2c22;
      }

      .cls-33 {
        fill: #271c27;
      }

      .cls-34 {
        fill: #363231;
      }

      .cls-35 {
        fill: #484242;
      }

      .cls-36 {
        fill: #252223;
      }

      .cls-37 {
        fill: #352322;
      }

      .cls-38 {
        fill: #2c2220;
      }

      .cls-39 {
        fill: #373332;
      }

      .cls-40 {
        fill: #6c6764;
      }

      .cls-41 {
        fill: #302c2c;
      }

      .cls-42 {
        fill: #2d2a2a;
      }

      .cls-43 {
        fill: #403c3b;
      }

      .cls-44 {
        fill: #402621;
      }

      .cls-45 {
        fill: #433e3e;
      }

      .cls-46 {
        fill: #261d26;
      }

      .cls-47 {
        fill: url(#Nepojmenovaný_přechod_2-2);
      }

      .cls-48 {
        fill: #4e4848;
      }

      .cls-49 {
        fill: #454040;
      }

      .cls-50 {
        fill: #33302f;
      }

      .cls-51 {
        fill: #474242;
      }

      .cls-52 {
        fill: #353130;
      }

      .cls-53 {
        fill: #534e4b;
      }

      .cls-54 {
        fill: #4b4445;
      }

      .cls-55 {
        fill: #5f5b58;
      }

      .cls-56 {
        fill: #75706d;
      }

      .cls-57 {
        fill: #262020;
      }

      .cls-58 {
        fill: #4f2d26;
      }

      .cls-59 {
        fill: #30201d;
      }

      .cls-60 {
        fill: #413d3c;
      }

      .cls-61 {
        fill: #4a4645;
      }

      .cls-62 {
        fill: #322e2e;
      }

      .cls-63 {
        fill: #534d4d;
      }

      .cls-64 {
        fill: #3a2521;
      }

      .cls-65 {
        fill: #3c3838;
      }

      .cls-66 {
        fill: #4c2a21;
      }

      .cls-67 {
        fill: #635f5c;
      }

      .cls-68 {
        fill: #4e4a49;
      }

      .cls-69 {
        fill: #56514e;
      }

      .cls-70 {
        fill: #686360;
      }

      .cls-71 {
        fill: #393534;
      }

      .cls-72 {
        fill: #2e2a2a;
      }

      .cls-73 {
        fill: #4e4849;
      }

      .cls-74 {
        fill: #433f3e;
      }

      .cls-75 {
        fill: #332321;
      }

      .cls-76 {
        fill: #3f3b3a;
      }

      .cls-77 {
        fill: #261e2a;
      }

      .cls-78 {
        fill: #383433;
      }

      .cls-79 {
        fill: #3c3837;
      }

      .cls-80 {
        fill: #2b2829;
      }

      .cls-81 {
        fill: #522a22;
      }

      .cls-82 {
        fill: #231f20;
      }

      .cls-83 {
        fill: #312d2e;
      }

      .cls-84 {
        fill: #726d69;
      }

      .cls-85 {
        fill: #464141;
      }

      .cls-86 {
        fill: #2f2b2c;
      }

      .cls-87 {
        fill: #443f3f;
      }

      .cls-88 {
        fill: #241e25;
      }
    </style>
    <clipPath id="clippath">
      <rect class="cls-16" y="0" width="1024" height="1024"/>
    </clipPath>
    <linearGradient id="Nepojmenovaný_přechod_2" data-name="Nepojmenovaný přechod 2" x1="409.1" y1="502.6" x2="521.9" y2="567.7" gradientTransform="translate(0 1024) scale(1 -1)" gradientUnits="userSpaceOnUse">
      <stop offset="0" stop-color="#ff5032"/>
      <stop offset=".3" stop-color="#ff5234" stop-opacity=".8"/>
      <stop offset=".4" stop-color="#ff573b" stop-opacity=".7"/>
      <stop offset=".4" stop-color="#ff6146" stop-opacity=".7"/>
      <stop offset=".5" stop-color="#ff7057" stop-opacity=".6"/>
      <stop offset=".5" stop-color="#ff836d" stop-opacity=".6"/>
      <stop offset=".6" stop-color="#ff9a89" stop-opacity=".6"/>
      <stop offset=".6" stop-color="#ffb6a9" stop-opacity=".6"/>
      <stop offset=".7" stop-color="#ffd6cf" stop-opacity=".5"/>
      <stop offset=".7" stop-color="#fff9f8" stop-opacity=".5"/>
      <stop offset=".7" stop-color="#fff" stop-opacity=".5"/>
    </linearGradient>
    <linearGradient id="Nepojmenovaný_přechod_2-2" data-name="Nepojmenovaný přechod 2" x1="610.1" y1="480.1" x2="722.9" y2="545.2" xlink:href="#Nepojmenovaný_přechod_2"/>
  </defs>
  <g class="cls-89">
    <g>
      <path class="cls-82" d="M-410.6,692.8c0-231.2,0-462.3-.2-693.5,0-6.5,1.2-8,7.9-8,205.6.2,411.3.2,616.9.2,4.7,5.7,2.9,12.7,3.8,19.1,2.5,17.9,7.4,34.8,18.2,49.6.5.8.8,1.7,1,2.6.8,3.1,1.9,6.2,1.7,9.5,1.9,6.1-5.8,10.1-3.7,16,4,11.3,2.3,23.8,10.4,34.5,6.8,8.9,6.2,21.4,9.5,32.1,1.8,5.9,3.9,11.5,7.6,16.4,3.9,5.1,7.4,10.4,7.5,17.2,0,2.5.8,5.2,2.8,6.6,9.3,6.2,7.8,15.7,7.9,24.7,0,10-.8,19.9,6.4,28.6,4.2,5,8.4,8.3,15,9,9.2,1,13,4.5,12.9,13.3-.2,11.4,5.7,18.3,14.8,23.1,5.3,2.8,8.8,6.5,12.2,11.5,4.6,6.5,11,12,18.4,15.8,5.7,2.9,9.9,6.8,11.8,13.1,2.1,7,7,10.1,14.2,10.7,15.1,1.3,17.1,4.5,12.4,18.6-1.1,3.4.3,4.9,3.1,5,6.1.3,9.2,3.8,11.1,9.1.9,2.6,3.5,4.1,5.8,5.6,8.3,5.2,11.2,12.5,8.9,22.3-.9,1.3-2.1,2-3.7,2.2-7.1,1-7.9,5.4-5.7,11.2,1.9,8.4.7,16.4-3.1,24.1-4.3,1-9,1.5-9.5,7.4-2.1,2.7-1.6,6.4-3.4,9.2-1,1.3-1.8,2.7-2.4,4.2-1.2,2.5-1.7,5.2-3.2,7.6-2,2.4-3.2,5.2-4.5,8-.4,1-1,2-1.4,3.1-.6,1.4-1,2.8-1.3,4.3-.5,1.5-1.1,2.9-1.7,4.3-.9,1.3-2,2.4-2.9,3.8-2.2,2.1-2.8,4.9-3.5,7.6-1.2,3.7-3.2,7-5.8,9.9-1.3,1.4-1.5,3.2-2,4.8-1.3,3.9-2.5,8.2-7.4,9.2-5.1,1-6-3.9-8.7-6.4-.6-.6-1.2-1.3-1.6-2-1.5-3.4-2.6-7.1-5.9-9.5-3.3-10.3-9.5-19.4-13.6-29.4-9-20-20.1-39-28-59.4-1.8-4.5-5.4-7.2-9.5-9.3-15.5-7.7-32.1-2.6-39.6,12.3-.2.8-.4,1.6-.5,2.4-1.1,3.9-1,7.9.1,11.8.7,3.9,3.6,6.3,5.7,9.4,2.2,2.3,2.7,5.3,3.4,8.2,7.7,15.7,13.6,32.1,22.4,47.4,13.1,22.9,24.7,46.8,35.1,71.1.6,1.4,1.5,2.6,2.4,3.9,1.6,2.5,2.9,5.1,3.9,7.9,2.7,6.8,6.4,13.1,9.6,19.6,8.9,18.1,36.2,20.9,46.8-.2,8.4-16.5,17.2-32.8,24.5-49.8.8-2.9,3.8-4.4,5-7.1,2.3-3.4,3.4-7.3,5.2-10.9.6-1.5,1.5-2.8,2.3-4.2,1.9-3.1,3-6.4,3.7-9.9.6-1.5,1.4-2.9,2.1-4.4.9-2,2.6-3.4,3.9-5,1.6-2.1,3.1-4.4,4-6.8,1.6-4.5,4.7-5.7,9-4.4,5.4,3.2,5.1,9.8,8.2,14.3,5.9,12.3,11.4,24.7,18.3,36.5,9.8,16.7,17.4,34.4,26.5,51.5,3.7,7,8.1,13.4,16.4,15.9,5.7,1.7,11.2,2.3,16.5-1.1,1.5-.8,2.8-1.8,4.2-2.7,9.2-6.2,12.2-16.7,17.6-25.5,1.5-2.6,3.5-4.6,6.5-5.1,1,0,1.9,0,2.8.4,2.5,1.7,3.2,4.1,2.8,6.8,0-.2,0,0,0-.1,1.3-4.6-5.2-7.4-2.6-11.8,3.2-5.5,7.7.5,11.6-.8,4.4-1.5,8.5-.7,10.8,4,2.1,4.4-.3,7.6-2.9,10.6-1,1.2-2,2.3-2.8,3.4h.5c8.5,3.1,16.6,6.1,22.4,14.1,7.3,9.9,17.9,16.9,26.3,25.9,7.9,8.4,16.9,15.9,25.4,23.5,12.6,11.2,21.1,25.6,32.9,36.6,6.6,6.2,12.4,12.7,18.2,19.5,4.5,5.2,5.1,10.3,1,15.6-3.3,4.2-5.1,8.7-6.2,13.9-2.7,12.4-9.1,15.8-20.9,11-2.8-1.1-4.5-.5-6.4,1.3-3.5,3.4-7.8,5.8-11.1,9.5-3.8,4.2-8.5,6.6-14.3,7.2-9.7,1-16.2,6.8-20,15.3-2.9,6.7-7.2,10.3-14.5,10.2-2.4,0-5.3-.4-7.1,1.1-13.7,11.4-33.2,13.8-44.1,30.1-4,6-12.8,8.4-17.2,15.3-1.4,2.1-4.8,2.2-7.7,1.8-6.6-.8-9.6,2.8-9.8,9-.2,4-.7,7.9-.9,11.8-.6,10.8-7.3,16-17.5,13.7-9.3-2.1-16.7,3.3-17.3,12.7-.6,9.7-4.2,13.1-14.2,14.1-5.3.5-11.8-2.1-15.7,2.3-4.3,4.8,1.9,9.4,2.8,14.2,1.8,9.8-.2,15.2-8.8,19.4-2.8,1.3-3.1,2.2-2.7,5.3,1.9,14-.9,17.9-14.6,21-5.4,1.3-7.7,4.4-7.9,9.6-.3,7.6,0,15.2-.2,22.8-.5,13.2-6.6,19.1-19.5,18.2-3.5-.2-5.9-.7-7.7,3.6-1.6,3.9-6.8,3.3-10.2,5.2H-74.6c-3.9-3-5.8-6.3-4.3-11.7,6.6-23.1,3.6-46.7,4.2-70.2.6-23.4-9.6-43.6-13.9-65.5-1-5.1-3.8-9.7-7-13.8-16.8-21.8-33.6-44-56.6-59.6-12.3-8.3-24.7-18-40.5-19.8-.9-.1-2-.1-2.6-.7-8.6-9-21.2-9.9-31-15.9-13.7-8.3-28.9-12.2-43.2-18.6-21.6-9.6-44.7-15.5-65.4-27.4-5.1-2.9-11-3.4-16.4-5.6-16.5-6.8-31.5-17-49-21.7-4.8-1.3-7.8-5.2-10.5-9.2l.2-.3Z"/>
      <rect class="cls-82" x="323.8" y="275.7" width="852.8" height="465.6"/>
      <path class="cls-82" d="M191.6,692.8c0-231.2,0-462.3-.2-693.5,0-6.5,1.2-8,7.9-8,205.6.2,411.3.2,616.9.2,4.7,5.7,2.9,12.7,3.8,19.1,2.5,17.9,7.4,34.8,18.2,49.6.5.8.8,1.7,1,2.6.8,3.1,1.9,6.2,1.7,9.5,1.9,6.1-5.8,10.1-3.7,16,4,11.3,2.3,23.8,10.4,34.5,6.8,8.9,6.2,21.4,9.5,32.1,1.8,5.9,3.9,11.5,7.6,16.4,3.9,5.1,7.4,10.4,7.5,17.2,0,2.5.8,5.2,2.8,6.6,9.3,6.2,7.8,15.7,7.9,24.7,0,10-.8,19.9,6.4,28.6,4.2,5,8.4,8.3,15,9,9.2,1,13,4.5,12.9,13.3-.2,11.4,5.7,18.3,14.8,23.1,5.3,2.8,8.8,6.5,12.2,11.5,4.6,6.5,11,12,18.4,15.8,5.7,2.9,9.9,6.8,11.8,13.1,2.1,7,7,10.1,14.2,10.7,15.1,1.3,17.1,4.5,12.4,18.6-1.1,3.4.3,4.9,3.1,5,6.1.3,9.2,3.8,11.1,9.1.9,2.6,3.5,4.1,5.8,5.6,8.3,5.2,11.2,12.5,8.9,22.3-.9,1.3-2.1,2-3.7,2.2-7.1,1-7.9,5.4-5.7,11.2,1.9,8.4.7,16.4-3.1,24.1-4.3,1-9,1.5-9.5,7.4-2.1,2.7-1.6,6.4-3.4,9.2-1,1.3-1.8,2.7-2.4,4.2-1.2,2.5-1.7,5.2-3.2,7.6-2,2.4-3.2,5.2-4.5,8-.4,1-1,2-1.4,3.1-.6,1.4-1,2.8-1.3,4.3-.5,1.5-1.1,2.9-1.7,4.3-.9,1.3-2,2.4-2.9,3.8-2.2,2.1-2.8,4.9-3.5,7.6-1.2,3.7-3.2,7-5.8,9.9-1.3,1.4-1.5,3.2-2,4.8-1.3,3.9-2.5,8.2-7.4,9.2-5.1,1-6-3.9-8.7-6.4-.6-.6-1.2-1.3-1.6-2-1.5-3.4-2.6-7.1-5.9-9.5-3.3-10.3-9.5-19.4-13.6-29.4-9-20-20.1-39-28-59.4-1.8-4.5-5.4-7.2-9.5-9.3-15.5-7.7-32.1-2.6-39.6,12.3-.2.8-.4,1.6-.5,2.4-1.1,3.9-1,7.9.1,11.8.7,3.9,3.6,6.3,5.7,9.4,2.2,2.3,2.7,5.3,3.4,8.2,7.7,15.7,13.6,32.1,22.4,47.4,13.1,22.9,24.7,46.8,35.1,71.1.6,1.4,1.5,2.6,2.4,3.9,1.6,2.5,2.9,5.1,3.9,7.9,2.7,6.8,6.4,13.1,9.6,19.6,8.9,18.1,36.2,20.9,46.8-.2,8.4-16.5,17.2-32.8,24.5-49.8.8-2.9,3.8-4.4,5-7.1,2.3-3.4,3.4-7.3,5.2-10.9.6-1.5,1.5-2.8,2.3-4.2,1.9-3.1,3-6.4,3.7-9.9.6-1.5,1.4-2.9,2.1-4.4.9-2,2.6-3.4,3.9-5,1.6-2.1,3.1-4.4,4-6.8,1.6-4.5,4.7-5.7,9-4.4,5.4,3.2,5.1,9.8,8.2,14.3,5.9,12.3,11.4,24.7,18.3,36.5,9.8,16.7,17.4,34.4,26.5,51.5,3.7,7,8.1,13.4,16.4,15.9,5.7,1.7,11.2,2.3,16.5-1.1,1.5-.8,2.8-1.8,4.2-2.7,9.2-6.2,12.2-16.7,17.6-25.5,1.5-2.6,3.5-4.6,6.5-5.1,1,0,1.9,0,2.8.4,2.5,1.7,3.2,4.1,2.8,6.8,0-.2,0,0,0-.1,1.3-4.6-5.2-7.4-2.6-11.8,3.2-5.5,7.7.5,11.6-.8,4.4-1.5,8.5-.7,10.8,4,2.1,4.4-.3,7.6-2.9,10.6-1,1.2-2,2.3-2.8,3.4h.5c8.5,3.1,16.6,6.1,22.4,14.1,7.3,9.9,17.9,16.9,26.3,25.9,7.9,8.4,16.9,15.9,25.4,23.5,12.6,11.2,21.1,25.6,32.9,36.6,6.6,6.2,12.4,12.7,18.2,19.5,4.5,5.2,5.1,10.3,1,15.6-3.3,4.2-5.1,8.7-6.2,13.9-2.7,12.4-9.1,15.8-20.9,11-2.8-1.1-4.5-.5-6.4,1.3-3.5,3.4-7.8,5.8-11.1,9.5-3.8,4.2-8.5,6.6-14.3,7.2-9.7,1-16.2,6.8-20,15.3-2.9,6.7-7.2,10.3-14.5,10.2-2.4,0-5.3-.4-7.1,1.1-13.7,11.4-33.2,13.8-44.1,30.1-4,6-12.8,8.4-17.2,15.3-1.4,2.1-4.8,2.2-7.7,1.8-6.6-.8-9.6,2.8-9.8,9-.2,4-.7,7.9-.9,11.8-.6,10.8-7.3,16-17.5,13.7-9.3-2.1-16.7,3.3-17.3,12.7-.6,9.7-4.2,13.1-14.2,14.1-5.3.5-11.8-2.1-15.7,2.3-4.3,4.8,1.9,9.4,2.8,14.2,1.8,9.8-.2,15.2-8.8,19.4-2.8,1.3-3.1,2.2-2.7,5.3,1.9,14-.9,17.9-14.6,21-5.4,1.3-7.7,4.4-7.9,9.6-.3,7.6,0,15.2-.2,22.8-.5,13.2-6.6,19.1-19.5,18.2-3.5-.2-5.9-.7-7.7,3.6-1.6,3.9-6.8,3.3-10.2,5.2h-469.4c-3.9-3-5.8-6.3-4.3-11.7,6.6-23.1,3.6-46.7,4.2-70.2.6-23.4-9.6-43.6-13.9-65.5-1-5.1-3.8-9.7-7-13.8-16.8-21.8-33.6-44-56.6-59.6-12.3-8.3-24.7-18-40.5-19.8-.9-.1-2-.1-2.6-.7-8.6-9-21.2-9.9-31-15.9-13.7-8.3-28.9-12.2-43.2-18.6-21.6-9.6-44.7-15.5-65.4-27.4-5.1-2.9-11-3.4-16.4-5.6-16.5-6.8-31.5-17-49-21.7-4.8-1.3-7.8-5.2-10.5-9.2l.2-.3Z"/>
      <path class="cls-82" d="M479-8.5h615.5c5.4,4.3,4.1,10.1,3.7,15.9-1.1,17.5,2.6,33.8,14.8,47.1,9.5,10.4,27.6,14.3,39.4,9,3.7-.8,7.4-1.8,11.1-2.6,3,0,5.3-1.5,7.5-3.4,4.4-5,10.6-8.2,13.9-14.3,1.8-9,10.3-13.2,14.5-20.4,7.9-11.2,13.5-24.4,26.6-31.2,67.3,0,134.6,0,201.8-.2,5.4,0,6.6,1.1,6.5,6.5-.2,122.1-.2,244.1-.2,366.2-5,3.9-4.4,9.6-4.7,15-.7,10.5-2.8,12.6-13.4,13.1-7.3.3-14.6,0-21.9.2-8.8.4-11.2,2.8-12.1,11.5-1.6,15.1-2.7,16.1-17.3,14.5-10.2-1.1-20.2-1.5-27.7,7.4-1.9,2.2-4.8,2.6-7.5,3-3.1.4-6.6,1-8,3.7-3.7,7.2-9.8,9.1-17.2,9.9-5,.5-8.8,3.7-12.4,7.2-9.1,8.8-17.4,18.1-31,21.3-6.7,1.6-12.5,8.2-17.6,13.9-4.2,4.7-9.6,7-15.6,5.5-7.6-2-13.2,1.3-18.3,5.6-4.7,4-9.4,6.3-15.6,6.2-10.7,0-15,8.2-19.3,15.8-6.1,10.7-15.7,12.8-26.7,4.9.4,5.7-.2,10.7-4.5,14.9-4.2,4.1-9.1,4.3-14.3,4.4-3.6,0-7.3-.2-10.9,0-8,.6-12.7-3.5-13.6-10.8-2-15.4-6.2-30.5-1.7-46.6,2.3-8.2,2.2-17.5-1.8-26.6-3.4-7.6-.6-16.8-1.2-25.3,1,10.5-.6,20.8,3.1,31.5,3.1,8.7,0,18.8-1.5,28.3-2.4,15.7.5,31.1,5.8,45.9,1.6,4.4,2.6,8.3-1.7,11.3-3.5,2.4-6.9,1.9-9.6-1.7-.5,2.4,2,4.1,1.3,6.6-.8,2.9-2.6,4.8-5.1,6-6.5,3.1-15.6,2-19.5-2.4-1.2-8.2,3.8-15.7,3-23.8.2-3.2,0-6.4,1.2-9.4,2.7-3.8,3.8-8,3.9-12.7,1-27.2-.8-54.4-2.5-81.5-1.2-19.1-18.6-28.1-36.1-19.8-11.3,6.6-16.6,16.5-16.2,29.6.2,5.8,0,11.6.3,17.3,2.2,23.3,2.6,46.7-.2,70-2.7,22.3-26.5,38-46.1,38s-22.6.8-32.9-4.1c-16.7-8-23.8-22.3-25.3-40.3-.8-9-1.8-18-1.7-27.1,0-20.4.5-40.8-.2-61.1-.5-12.3-6.7-20-17.2-23.1-12.2-3.5-22.7,0-29.6,9.6-1.9,2.7-3.1,5.6-3.2,9.2-1.2,38.3-2.8,76.5,1.9,114.7.9,7.7,5.2,13.4,8.6,19.7,9,16.7,20.7,30.9,36.2,41.9,8.6,6.1,19.1,6.8,28.8,9.9,5,1.7,11.1.7,14.9,5.7,1.9,5.8-1.5,7.8-6.3,8.4-6.7.9-13,2.6-19.5,4.5-5.3,1.5-11.7,3.4-14.9-4-1.1-2.5-3.1-.9-4.5-.9-4.5-.2-6.8-2.2-7-6.5-.4,4,1.8,6,5.7,6.3,3,.2,5.4,1,6,4.3,1.2,6.7-10.4,20-17.3,19.8-8.6-.3-13.2,3.8-13.9,12.3-.7,10-11.6,15.9-19.2,9.4-8.8-7.5-21.6-12.9-20.4-28.1.2-3-2.1-5-5.1-5.6-3.1-.7-4.7,1-6.6,3.4-7.3,8.9-14.8,17.1-27.5,18.8-9.5,1.2-16.1,9.6-21.1,16.1-7.3,9.5-16.7,17.5-21.7,28.6-2.1,3.2-1.5,7.5-3.9,10.7-2.2,2.6-4.7,4.9-6.8,7.5-.5.7-1.1,1.3-1.6,1.9-4.1,2.7-5.5,7-6.9,11.3-4.9,4.4-7.1,11.2-13,14.7-3.8,2.4-7.1,5.6-11.2,7.5-5.1,2.4-8.3.2-9.7-4.6-1.3-4.5,4-15.9,8.4-18.7,5.7-3.6,5.9-6.5-.3-9.6-7.3-3.6-10.1-9.1-9.8-16.8.4-10-5.3-18.6-6.9-28.2-.4-2.4-2.1-4.8-1.7-7,2.3-14.7-5.2-26-12.2-37.6-.9-1.6-1.8-3.1-3.5-4.1-13.1-8.3-14.5-11.8-10.3-26.7-.3-1.3-.4-2.6-.1-4,7.8-17.3,16.3-34.2,23.9-51.5,1.6-2.9,2.5-6.2,4.9-8.7,1-1.8,1.7-3.7,2.3-5.6.8-2.3,1.9-4.5,3.3-6.5,2.6-3.1,3.8-7.1,5.6-10.6,1.5-2.9,1.5-6.3,3.4-9.1,2.2-2,3.9-4.3,4.5-7.3,2.1-2.3,2.6-5.7,5.3-7.6.8-.4,1.7-.6,2.7-.6,6.2,0,7.9,5,9.9,9.3,14.8,31.9,31.2,63.1,46.6,94.7,4.1,8.4,9.9,14.6,18.9,17.1,8.8,2.4,16.9,1.4,23.5-5.7,2.1-2,2.8-4.8,3.5-7.4,1.5-1.9,3.2-3.6,4.1-5.9,1.2-3.9,1.5-7.6-1.6-10.9-.5-.7-.8-1.5-1-2.3-3.5-12-8.6-23.2-15.2-33.8-5.7-14.4-13.3-27.8-20.1-41.6-9.5-19-17.8-38.5-27.4-57.4-.8-1.6-2-3-3.1-4.4-1-7-5.3-12.7-7.8-19.1-2.9-6.9-7.2-13-12.1-18.4-8.8-9.7-22.2-10.4-33.5-2.7-1.7,1.6-3.4,3.3-5.1,4.9-3.1,2.6-4.4,6.1-4.6,10.1-.2,3.6-.2,7.1,0,10.7-.2,4.8,3.6,8.9,2.3,13.9-3.1,5.1-6.2,7.6-11.9,2.3-4.8-4.5-6.4.8-8.2,4.1-.7,1.9-2.1,3.5-2.4,5.6-.4,2.1-2.4,3.2-2.9,5.2-2,3.1-1.3,7.1-3.2,10.3-2.7,1.6-3.2,4.4-3.7,7.1-1.2,2.4-3.7,4-4.6,6.7-.6,1.4-1.2,2.8-1.8,4.2-.8,1.8-1.8,3.5-2.4,5.4-.5,1.1-1.1,2.2-1.8,3.3-2.4,3-3.4,7.1-7.3,8.8-8.6-.4-13.7-4-15.8-11.9-3.6-13.3-8.4-26.3-10.1-40-.8-6.2-.5-12.5.1-18.7.4-3.6-.3-6.5-2.2-9.4-.6-.6-.9-1.4-1.3-2.2-.9-2.6-1.4-5.4-3-7.8-1.8-2.7-3.6-5.4-5.9-7.7-2-2.7-4.6-5-5.1-8.6-1.1-11.2-7.9-20.5-10.1-31.3-2.5-6.4-5.1-12.7-5.7-19.8-.6-7.3-8.5-11.8-8.1-19.7-5-21.1-10.9-41.9-18-62.3-2.3-16-12.1-29.5-14.6-45.4-2-10.3-7-19.4-11-28.9-.3-1.8-.6-3.6-1-5.3-1.1-5.3-2-10.7-2.9-16.1v-2.6c-.7-12.1-5.4-22.7-11.2-33.1-.6-.7-1-1.5-1.3-2.4-2.7-8-4.4-16.4-9.7-23.4-2.4-3.2-2.6-7.4-2.7-11.4,0-2.9-.3-5.8-1.5-8.5-8.1-16.9-9.6-35.9-16.8-53.1-5.4-13.1-10.4-26.4-19.1-37.9-2.5-3.3-7-6.6-4.2-12l-.2.3Z"/>
      <path class="cls-36" d="M1434.2,440.8v56.6c-8,5.3-16.8,9.5-23.3,16.9-1.4,1.6-3.9,1.7-6,1.8-6.1,0-10.4,3.5-15.5,6.3-10.6,5.7-22.7,8.7-30.6,18.8-15.5-.2-24.9,9.3-32.9,21-.7,1-1.7,2.3-2.7,2.3-14.9-.7-22.2,17-37.7,15.3-3.1-.3-6,2.8-8.4,5.1-2.8,2.6-5.9,4.3-9.7,4.6-1.2,0-2.7,0-3.5.7-8.7,7.2-16.9,15.2-29.4,14.5-4.2,6.6-8.7,13.5-15.6,17-12.9,6.3-25.5,13.2-39,18.3-1.3.5-3.6-.2-4.4.8-8.3,10.3-22.6,9.3-32.1,17.3-1.2,1-2.4,2.2-3.9,2.4-15.7,1.7-22.8,16.3-34.9,23-10.6,5.8-21.2,13.5-32.6,16-12.9,2.9-18.8,12.1-26.7,19.9-2.3,2.3-3.3,6.5-6.8,6.9-10.7,1.2-19.8,7.1-30.1,9.2-4.4.9-7.7,2.6-10.8,5.9-8.9,9.4-15.5,22.2-31.1,22.5-2.1,0-4.2,1.5-5.2,3.4-4.2,7.5-11.1,8.6-18.8,8.5-8.2,0-16.5.5-24.6-.1-10.9-.8-22.6.5-30.9-9.8-3-3.7-8.5-3.1-13-2.8-9.9.6-17.4-2.8-23.8-10.6-7.5-9.1-17.3-16-25.6-24.5-7.3-7.6-14.1-15.7-21.4-23.3-6.7-7-13.1-8.9-22-4.8-3.2,1.5-6.2,4.4-9.9,1-1-1.6-.3-2.9.7-4.1,12.6-14.2,25.5-28,44.5-34,5.7-1.8,10.5-6.1,17.1-5.3,5.1.6,8.3,2.3,9.5,7.8,2.5,11.7,3.8,12.2,14.4,7.9,3.9-1.6,7.3-1.5,9.9,1.8,8.2,10.6,21.1,16.2,28.8,27.7,3.9,5.9,14.2,5,18.1-1.3,4.4-7.1,10.1-10.1,18.1-9.7,1.2,0,2.7.1,3.6-.5,13.3-9.5,31.9-10.9,40.8-26.9,3.7-6.6,9.1-9.4,16.6-9,6.5.4,11.9-1.8,16.2-6.7,1.6-1.8,3.6-3.4,6.1-3.7,7-.9,10.5-4.2,11.1-11.8.5-6.1,6.2-7,11.3-6.6,5.3.4,10,.8,13.8-4.2,1.5-2,4.8-2.7,7.5-2.9,6-.6,10.8-2.6,15-7.5,3.6-4.2,9.3-4.3,14.5-3.8,5.6.5,10.2-1,13.9-5.2,1.4-1.6,3.1-3.6,5.1-3.7,14.3-.7,20.6-12.4,29.2-20.9,1.1-1.1,1.8-2.9,3.2-3.2,12.9-2.9,24.1-10.5,36.5-14.4,5.4-1.7,10.4-2.4,13.3-8,2.4-4.6,6.8-6.3,12-7,14-1.9,24.9-10.3,34.9-19.3,3.9-3.5,7.1-6.3,12.4-5.9,1.2,0,0,.4.9,0,13.9-6.2,29-9.7,41.2-19.5.5-.4.6-1.3,1.1-1.4,12.7-2.9,22.2-12.8,34.8-15.8,2-.5,5,.3,6.1-1.3,9.3-12.4,25.8-11.1,37.7-20.2,11.1-8.6,24.2-15.2,35.7-24.1,5.7-4.4,21.4-2.4,27.4,2.4v.2Z"/>
      <path class="cls-31" d="M681.3,608.2c2.3,4.8-1.9,7.5-4.1,10.4,3.5,3.8,5.5-.5,7.8-.2,2.1,4.1-2.5,6.9-1.4,10.6.6.3,1.4.8,1.6.7,7.9-5.8,7.3-5.7,9.3,3.7,1,4.8,1.7,10.4,6.7,13.5,5.1,3.1,6.4,7.8,6,13.3-.8,12.7,2,24.6,6.6,36.3,1.9,4.8,2.7,9.9,2.6,15.2-.2,6.4,1.6,11.1,8.9,12.6,6.6,1.4,7.6,7.4,8.1,12.8.4,3.7-2.2,6.2-6.4,5.8-2.9-.2-6.1,0-6.4,3.4-.3,4.1-5.3,8.8-1.7,11.6,3.2,2.5,6.7-2.5,9.7-4.8,1.2-.9,2.8-1.2,4.2-1.8,3.7,3.2.7,6.9.7,10.3-1.5,3.3-4.9,5.2-6.6,8.4-2,2.3-2.2,6-5.6,7.3-4.3-.5-6.6,2.1-7.4,5.7-1,4.3-3.6,7.4-6.6,10.2-.8.8.4-.4-.5.5.3-.3.6-.6,1-1,1.7-1.7,3.5-2.9,5.9-1.4,4,5,.2,9.1-1.4,13.5-4,4.2-2,11.3-7.2,14.9-.8.3-1.6.4-2.4.4s-1-.4-.9-1.1c-.6.9.1,1.6.3,2.5-2.5,13.2-2.6,13.3-15.6,13-9.1-.2-12,1.8-13.2,11.1-.9,6.9-4.2,10.6-11.1,10.6s-11.7,2.4-13.9,9.3c-.7,2.3-2.9,3.8-5.2,4.9-4.3,2.2-5.6,5.7-5.6,10.5,0,11.9-5.8,15.1-17.7,9.5,2.2,4.6,4.9,8.8,1.5,13.5-3.1,4.3-7.2,5-12.1,4.3-2.8-.4-6.3.3-7.2,2.9-3.5,10.7-15.5,11.8-21.5,19.8-5.5,7.4-14.1,12.3-17.7,21.3-.7,1.7-1.7,3.5-3.3,4.2-6.7,3-8.5,8.5-9.2,15.4-.7,6.5-5,9.9-12.1,9.6-9.7-.3-13.6,2.5-14.4,12.2-.7,8.7-4.3,12.4-13,12.6-9.2,0-12.2,9.1-17.9,14.2-1.4,1.2-.2,3.5,1.1,4.9,2,2.2,3,4.6,1.2,7.4h-100.5c6-3.9,8.2-9.4,7-16.5-.4-2.6-.8-6.1,2.8-6.7,2.8-.4,2.6,2.8,3.1,4.7,1.3,4.9,4.9,5.9,9.2,5.3,6.3-.8,10-4.7,10.4-10.9.5-9.1.7-18.3.2-27.4-.4-8.5,1.8-13.5,11.5-12.7,5.7.5,10.2-2.2,11.7-8.1,1.6-6.2-2-8.9-7.4-10.4-1.8-.5-3.5-1.6-3-3.9.5-2.1,2.4-2.5,4.3-2.8.9-.1,1.8-.1,2.7-.2,15.3-1.3,19-8.8,11-22.2-.9-1.6-2.2-2.9-3.1-4.5-3-5.4-1.4-9,4.8-9.6,6-.6,12.2-.2,18.2-.4,7.3-.3,11.5-3.4,10-11.6-1-5.9-.4-11.1,7-12.4,3.5-.6,4.6-3.4,5.5-6.6,1.4-4.8,3.8-6.6,7-1.3,2.2,3.6,4.5,6.9,9.3,5.5,5.2-1.6,6.5-5.6,6.2-10.8-.2-3,.8-6,.9-9,.6-9.5,5.8-14.7,15.5-15.4,1.2,0,3.3-.1,3.4-.6,2.7-9.2,12.6-10.1,18-15.8,9-9.4,16.9-19.9,31.4-21,.9,0,2.2-.4,2.5-1,4.6-10.5,14.2-9.4,23.1-10,2.9-.2,4.9-2.3,5.9-5.1,4.5-12.3,13.3-18.4,26.2-20.4,10.6-1.6,16-10.9,21.8-18.8,1.6-2.1,1.8-5.3,5.2-5.6,3.3-.3,4.9,1.9,5.9,4.7,1.2,3.1,3,5.5,6.7,4.8s6-3.5,6.7-6.8c1.6-7.5,3-14.9,8.9-20.5.7-.7,1.2-3,.8-3.3-6.4-5.3-6.9-15.8-15-19-9.6-3.8-14.3-12.4-18.1-19.9-3.9-7.9-10-11.6-16.1-16.3-.9-.7-3-.6-3.3-1.3-3.6-8.8-12.1-12.3-18.4-18.3-8.9-8.5-15.7-19.2-25.7-26.9-4.5-3.5-8.5-7.2-12.2-11.8-4.5-5.4-12.2-8.2-18.5-12.1-.3-4.1,1.6-7.5,3.7-10.9.6-1,.3-2.9,0-4.2,0-.5-1.5-1.1-2.2-.9q-8.5,2.2-12.7-1.1c-3.8,3.8,13.1,12.8-3.4,13.5,0-3.4,0-6.7-2.2-9.6-3.8-2.9-2.6-6.8-.9-9.8,8.9-15.8,15.7-32.6,25-48.1,1.4-2.2,3.9-3.1,6.1-3.8,6.4-2.2,8.3-7.2,8.3-13.1s2.3-9.4,5.3-13.1c4.3-5.2,10-5.1,12.2,1,4.3,11.7,14,16.1,24.2,20.1,5.3,2.1,9.6,6.7,5.5,10.8-6.7,6.7-5.2,15.6-8.8,23-2.6,5.4-4.5,11.2-7.8,16.3-6.3,9.6-6.8,20.5-6.4,31.4.2,4.8,1.9,9.7,8.2,10.4,5.9,3,11.5,6.8,18.4,7.1,8.7.4,15.9-2.6,21.4-9.5,2.5-1.7,5.1-1.7,7.9-.9l.8-.2Z"/>
      <path class="cls-1" d="M1434.2,440.8h-16.4c-5.5,0-8.8,3.1-13.2,6-8.4,5.5-14.1,15.5-25.5,16.4-2.3.2-5,1.2-6.6,2.7-7.1,6.9-16.6,9-24.6,13.2-8.7,4.6-17.7,7.6-26,11.9-7.4,3.8-14.3,8.5-22.7,10.4-1.4.3-3.1,1.3-3.7,2.5-4.2,8.1-10.9,10.9-19.6,10.3-1.4,0-3.4.2-4.3,1.1-7.4,7-14.7,12.2-26.2,10.9-4.8-.6-6.3,9.2-12.9,11.5-5.7,1.9-11.9,4.2-15.6,10.3-2.2,3.6-7.2,2.4-11.1,2.4-6.4,0-11.4,1.5-12.8,8.8-1,5.5-5.5,6-9.9,5.8-7.1-.5-13.2,1.3-17.9,7-2,2.4-4.8,4-8,3.8-13.6-.7-20.5,8.4-26.9,18.2-1.2,1.8-2.6,5-3.7,4.9-15.7-1.1-24,18.9-41,14-2.9-.8-6.7.3-7.9,3.3-2.7,6.7-7.9,7.4-14,7.5-5.4,0-9.9.9-10,8.6,0,5.9-4.5,6.8-8.9,3-2.3-2-4.1-4.7-7.5-4.4-3,.3-6.9-1.2-4.5,5.3,2.9,7.8-4.2,10.7-10,12.1-5.6,1.3-10.4,2.6-13.1,8.3-1.3,2.7-4.5,3.8-7.1,3.1-15.4-3.9-22.2,7.7-29.9,16.8-4.4,5.2-8.8,9-15.8,9.4-1.2,0-2.7.2-3.5.9-8.2,7.4-17.6,10.9-28.7,10.7-2.4,0-4.4,2.5-4.8,5-1.7,11-10.2,8.2-17.1,8.6-6.5.3-11.5-.3-13.7-8.5-1.8-6.8-10-9.1-14.7-14.2-3-3.2-7.5-4.9-9.7-9.3-1.8-3.6-3.7-2.2-6.5-.3-10.7,7.2-18.3,3.6-19.3-9.2-.6-7.4-5.1-9.4-10.5-6.9-21.1,9.3-42.5,18.2-57.1,37.5,1.2,8-.1,9.3-7.3,7.3.6-3,1.7-5.9,3.9-8.1,11-11.2,18.6-25.2,30.4-35.8,2.3-2.1,4.6-4.5,7.6-4.6,8.4-.4,14.5-3.9,20.5-9.9s7.7-6.5,6.8-12.5c-.3-1.8,0-3.7,2-4.7,4.5-2.3,19.9,8.3,19.6,13.5-.5,8.2,11.9,25.2,19.7,26.9,5.7,1.2,9.7-2.5,9.4-8.9-.6-14.6,1.9-17,16.5-15.4,4.8.5,15.5-9.6,15.2-14.4-.2-2.4-2.3-2.3-3.9-3-6.3-2.8-9.8-10.7-7.7-16.8.8-2.3,2.1-2.6,4.1-1.6,3.5,1.8,6.9,3.5,10.4,5.2-.6,3.9-8.6,3.6-5.5,7.9,3.1,4.2,6.9-.2,10-2.4,2.5-1.8,5-3.6,8.6-1.6-.4.7-.7,1.6-1.3,2-2.4,1.8-8,2-6.3,6,1.3,3.2,6.1,1.6,9,.1,8.4-4.2,18-2.3,26.5-5.9,2.8-5.8,8.3-4.2,12.8-4.3,14.1-.1,27.7-2.1,41-7.1,23.8-8.9,41.3-24.8,53.5-46.9,2-3.6,3-9.3,9.4-7.7,4.4-1,8.4-4.2,13.4-.8,1.4.9,3.6-1.5,3.1-4.3-.3-2.1-.5-4.2-.3-6.3.3-3.5-3-9.1,3-9.5,4.5-.3,2,5.2,3.2,7.8.8,1.8,1.5,3.5,3.9,2.7,2.1-.8,2.1-2.8,1.8-4.6-1-6.9-1.1-14.1-3.2-20.7-4-13-3.8-25.5,0-38.5,1.9-6.5,2.3-13.7,0-19.8-4-10.8-2.4-21.6-2.6-32.5,0-2.3.9-4.7,1.8-6.9.5-1.4,1.8-2.9,3.4-2.4,2.4.7,1.8,3,1.2,4.6-4.6,12.5-3.5,24.8,0,37.4,1.7,6.3,1.5,13.4.5,19.9-2.1,13.4-1.4,26.6.4,39.9,1.4,10.5,4.8,13.9,15.1,14.1h6.4c6.5,0,13.1.2,16-7.4,2.2-5.6.6-10.1-6.2-17,6.3-1.7,11-2.2,14.7,4.6,4.1,7.6,14,7.1,17.9-.5,6-11.7,12.6-21,28.5-20.8,7.2,0,14.8-6.9,18.9-14.7,1-1.8.9-4.5,3.6-4.6,2.8-.1,2.9,2.6,4,4.3,3.6,5.6,9.8,6.1,14.3,1.1,8.2-9,16.2-17.3,29.6-19.4,8.7-1.4,14.5-10,19.8-16.7,4.9-6.2,10.6-8.7,17.7-9.2,5-.4,8.8-1.7,9.9-7.4,1-5,5.1-5.6,9.2-5.5,5.6.2,9.9-1.6,13.2-6.4,4.2-6.1,10.8-4.3,16.8-4.6h4.6c16.9.4,17.1.4,18-16.3.4-6.5,3.2-9.4,9.6-9.3,8.5,0,17-.4,25.5,0,8.8.5,13.3-2.7,12.4-12-.6-6.6,1.3-11.5,9.1-11.8v76.8h-.2Z"/>
      <path class="cls-30" d="M763.9,707.4c4.6-.3,5.8-3.9,7.3-7.3,5.8-1.5,9.4-7.3,16.2-7.7,5.6-.4,11.3,0,14.4,3.9,5.5,6.9,12.6,12,18,18.9,5.3,6.8,11,13.1,18.4,18.2,6,4.1,11.2,10.1,15.4,16.1,5.3,7.5,12.1,9.5,20.5,9.1,8.2-.3,15.8-.7,21.4,8.2,3.3,5.3,11.8,3.7,18,4.2,10.6.8,21.3.3,31.9.3s8.2-.7,9.8-5.1c2.3-6.4,7.1-7.5,13-7.6s11.9-.6,12.6-8.7c.3-3,2.8-3.6,5.2-4.3,3.4-1,6.4-2.9,7-6.5,1.2-6.6,5.3-8.2,11.2-7.8,5,.4,9.7-.6,13.4-4.4.4-.4,1-1,1.5-1,14.4,1,22.8-9,30.3-18.4,6.6-8.3,13-14.1,24.1-12.6,1.2.2,3.2-1.1,3.8-2.2,4.1-7.9,11.7-7.5,18.8-9.8,8.2-2.6,15.5-9.4,20.6-16.6,3.8-5.4,7.5-8.2,13.9-8.1,4.4,0,8.7-1.4,11.1-5.3,3-5,7.4-5.8,12.5-5.6,5.3.2,9.9-1.6,12-6.7,2.4-5.8,6.6-6.8,11.8-5.5s9.8-.4,12.1-5.4c2.5-5.4,6.9-6.3,12.1-6.1,12.1.5,18.8-8.6,23.3-16.9,3.8-7.1,7.5-9.7,14.5-8.4,6.4,1.2,10.7-.7,12.8-7,.9-2.7,2.3-5.6,5.4-5.5,8.9.3,15.7-3.2,21.7-9.5,2.7-2.8,6.9-1.9,10.5-2.2,4.7-.3,9.5-1,11.3-6.1,2-5.8,6.3-6.9,11.5-6.6,5.4.3,9.2-1.7,11.7-6.8,3.6-7.2,12.2-9.7,16.2-16.9,1.4-2.5,5.1-.8,7.8-.5,6.7.9,12.2-.2,13.8-8.1,1.2-6,6-6.1,10.7-6.1s11.5-.8,14.6-7.1c2.6-5.1,7.9-4,12.2-4.2,4.7-.3,9.7-.4,12.1-4.9,4.8-9.1,12.6-10.3,21.6-9.4v38.4c-2.5,2.3-4.9,4.6-6.7,7.4-3.4,5.2-7.9,8.2-14.4,8.1-5.6,0-10,2.3-12.7,7.3-2.6,4.8-6.3,7.1-12,6.3-2.9-.4-6,.5-7,3.2-2.1,5.9-7.6,8.3-11.2,12.5-4.8,5.6-10.2,7.1-16.8,7-5.5,0-9,3.3-13.4,6-10,6.1-21.1,10.2-29.4,19.1-16.2-.7-24.2,11.8-35.6,19.8-9.1,6.4-19.8,12.7-30.6,16.6-6.6,2.4-13.6,2-16.7,9.9-.6,1.6-2.6,2.8-4.4,2.9-14.4,1-22.8,11.5-32.4,20.1-2.6,2.3-5.3,4-8.8,4.2-1.2,0-2.7-.2-3.6.3-11.5,6.8-24.3,11.3-34.6,19.8-6.4,5.3-13.4,10.3-17.6,17.9-.4.7-1.5,1.4-2.3,1.3-12-1.3-19.7,8.5-30,11.4-9.9,2.8-16.5,10.1-23,17.3-4.2,4.6-8.6,7.4-14.9,7.2-5.5-.2-8.9,3.2-13,6.7-8.2,6.8-13.9,18-27.1,17.4-3.4-.2-6.7,1.7-8.4,4.8-3.6,6.4-11,9.5-13.9,16.6-1.6,3.9-6.1,3.6-9.7,3.7-5.8.2-10.3,2-13.9,7.1-7.2,10.1-18.7,8.5-29.1,9.5-2.7,0-5.4.4-8.1.9-5.5.9-10.5-.2-15.5-2.9-10-5.2-14-4.5-19.6,2.1-.6.6-1.4,1.1-2.2,1.4-5.5.9-8-1.5-7.7-7.1.4-6.5-2.4-10.4-9.1-11.3-3-.4-6.1-1.6-8.3-3.6-7.1-6.4-14.7-10.5-24.5-12.2-6.5-1.2-11-8.9-16.7-13.4-10.4-8.2-18.1-19-26.6-29-8.5-9.9-17.7-19.5-26.7-29.2-4.8-5.1-12.2-2.8-17.6-6.2.7-3.7,3.6-6.1,5.5-9.1l.3-.2Z"/>
      <path class="cls-39" d="M919.2,1032.5h-1.8c-7.2-3.1-13.7-7-17.5-14.4-1.4-2.8-2.6-5.3-1-8.4,2.9-3.4,6.7-6.2,8-10.9.3-1.1,1.2-2.3,2.3-2.8,12.2-5.5,22.1-15.6,36.1-17.5,10.1-1.3,18.6-5.6,23.3-15.2,2.3-4.8,6.2-6.4,11.1-6.4,7,0,12.4-1.8,15.1-9.2,1.5-4.2,5.6-5.3,9.8-5.4,6.3-.2,11.3-2,13.5-8.6.7-2,2.3-3.7,4.2-4.7,9.9-4.8,19.8-9.5,25.1-20,1-1.9,3.3-3,5.5-2.9,9.9.4,15.8-5.6,20.2-13.3,5.4-9.5,12.8-14.4,23.9-12.5,1.5.2,3.8.3,4.3-.8,4.2-8.3,15.7-9.3,18.9-18.5,1.4-3.9,4.1-5.9,8.1-6.3,13.6-1.1,25.2-5.7,36.5-14.2,12.4-9.2,24.2-19.5,37.2-27.6,13.8-8.6,22.5-23.5,38.3-29,2.6-.9,3.7-4,5.4-6.1,3.4-4.2,7-8.1,12.6-9.9,7.5-2.4,11.7-9.4,17.6-14.1,1.9-1.5,3-3.9,5.3-4.9,17.5-7.9,30-22.8,45.7-33.1,9.4-6.2,20.8-9.9,29.3-17.5,10.1-9,21.8-15.9,32-24.8,7.3-6.3,16.1-10.2,24.6-14.5,4.6-2.3,8.6-4.7,11.4-9.5,2-3.4,5.7-6.5,10.3-2.6v14.6c-6,12.6-16.5,19.7-29.3,24-.9.3-1.8.6-2.4,1.3-13.4,15.8-33.1,23.5-48.1,37.5-8.5,7.8-17.5,16.1-29.1,21.5-11.3,5.3-22.3,13.1-32.7,20.7-9.7,7.2-17.6,16.5-26.4,24.5-7.3,6.7-13.3,16.5-24.5,18.9-5.2,1.1-8.3,6-12.1,9.4-16.7,14.7-34.8,28.1-48.2,46.4-2.7,3.6-7.1,4.5-11.3,5.3-6.1,1.3-10.8,4.1-15.3,8.8-9.3,9.9-20.4,18.2-29,28.6-6.5,7.9-14.6,14.1-20.7,22.2-4.2,5.5-10,9.8-15.6,13.6-10.2,6.8-16.3,15.7-18,27.7-.4,3.1-1.2,6.1-3.8,8-7.8,5.3-9,13.2-8.7,21.7.3,8.1,0,15.7-9.1,19.9-4.1,1.9-4.3,8-8.2,10.7h-105.9c-3.8-4.6-8.4-5-13.5-2.8-.2.2-.4.4-.7.6-.8.7-1.5,1.4-2.2,2.1l-.5.4Z"/>
      <path class="cls-11" d="M1041.5,1032.5c0-7.7-.8-15.4,9.6-17.9,3.6-.9,3.2-5.5,3.1-8.8,0-11.3-1-22.9,10.8-29.9.9-.5,1.7-2.2,1.5-3.2-1.8-10.7,6.9-16.9,10.6-25.2.8-1.8,2.4-3.7,4.2-4.6,9-5,17.3-10.5,21.7-20.3,1-2.1,3.2-2.7,5.3-3.2,2.8-.6,6-1.5,6.6-4.3,1.5-6.6,7.3-9,10.9-13.3,8.6-10.6,21.5-16.8,28.2-29,1.1-1.9,2.8-3.7,4.9-3.8,15.9-.6,23-12.2,32.3-22.7,5.1-5.7,10.6-13,18.7-16.3,8.1-3.4,12.6-11.2,19.3-16.5,1.7-1.3,2.8-3.9,4.6-4.3,11.9-2.4,16.7-14.7,27.3-19.2,5-2.1,8.4-8.5,11.9-13,9.5-12.1,22.7-17.7,35.3-24.7,4.6-2.6,7.8-7.9,12.5-10.3,17.2-8.5,31.8-20.2,44.8-34,.4-.4.9-1,1.4-1.2,18.5-6.8,29.2-25.9,48.5-31.4,8.1-2.3,9.7-12.9,18.7-13.6v23.7c-13.8,8.3-24.2,20.7-37.3,30.1-9.1,6.5-17.4,14.4-27.4,19.9-1.6.9-2.6,2.6-3.4,4.2-2.9,6.8-7.7,10.7-15.4,10.6-2.8,0-6,.7-7.2,3.3-4.2,9.4-14.3,12.6-20.5,19.9-.8.9-2.4,1.4-2.6,2.4-2.7,11.5-13.5,13.7-21.6,19.3-7.4,5.1-13.2,12.3-19.7,18.5-1.1,1-1.6,3-3,3.3-10.7,2.8-17.8,10.2-24.7,18.4-8.1,9.7-21.6,15.3-21.8,30.6,0,.6-.2,1.5-.6,1.6-8.7,3.2-11.9,14-22.1,15.7-15.4,2.5-23.7,12.5-26.1,27.7-1.5,9.5-7.9,17.2-15.3,22.4-5.4,3.9-8.3,7.5-8.2,13.8,0,5.6-3.8,8.9-6.2,13.3-7.8,14-22.6,25.2-19.4,44.3,1,5.6,0,11.5,0,17.3,0,4.2-1,7.8-4.5,10.5h-85.8.1Z"/>
      <path class="cls-23" d="M1127.4,1032.5v-38.3c0-4.3,0-8.8,2.9-12.2,5.7-6.7,12.1-12.8,12.8-22.4,0-1.1,1.8-2.7,3.1-3.1,6.9-2.1,7.1-7.5,6.9-13.2-.3-6.8.2-13,9.3-13.6,2.5-.2,14.1-17.4,14.4-20.3,2-17.6,10-27,27.5-30.7,4.8-1,8.8-1.5,10-7.2.3-1.3,1.8-3.3,2.8-3.3,10.3-.2,8.7-8.8,10.6-14.9,1.5-5,4-7.7,8.6-11.2,5.8-4.4,15.8-7.9,16.3-18.2.2-4.4,4.1-4.8,7.4-5.4,13-2.4,20.2-12.8,28.2-21.5,4.9-5.3,11.2-6.9,16.9-10.2,4.7-2.7,8.9-5.2,9-11.4,0-2.6,1.2-5,3.9-5.5,8.2-1.4,9.9-11.5,18-13,1.4-11.8,9.9-12,19-11.9,3.2,0,5.6-2.8,6.3-5.9,1.6-6.9,6.3-9.4,12.4-11.8,6-2.3,11.2-5.4,14.5-12.6,2.8-6.1,12.2-6.6,17.8-11.4,2.7-2.3,6.1-3.9,8-7.2,4.6-7.9,11.7-11.1,20.6-10.8v27.4c-13.5,13.1-28,25-44.1,34.6-5.6,3.3-8.6,8.3-12.9,12.5-12.7,12.6-30,20.4-40.9,33.9-10.4,12.8-27.2,18.5-34.4,34.6-3,6.7-10,11.8-15.1,17.8-11.7,13.8-24,27.1-37.6,39.1-1.1,1-2.4,2.3-2.5,3.7-2,15-15.6,22.6-21.8,34.8-4.9,9.7-7.5,20.6-15.4,28.8-1.3,1.3-.9,4.1-.9,6.2,0,21.6-.6,43.2.4,64.7.2,3.7-.3,6.5-3.2,8.9h-78.5l-.3.2Z"/>
      <path class="cls-22" d="M941.1,822.5c2.7-1.6,5.8-1.9,8.8-1.8,8.2.4,15.6.4,18.3-10.2,1.3-5.1,7.4-4.4,11.9-4.4s11.4,0,11.3-8.2c0-2.5,1.8-3.7,4-4.4,1.2-.3,2.9-.4,3.4-1.2,5.1-9.6,13.9-10.8,23.4-13.6,5.7-1.7,13.4-8.1,17.3-15,2.8-5,6.2-7.3,11.5-7,7.8.4,12.7-2.2,18.2-8.7,5.3-6.1,11.4-14.3,21.5-15.1,2.4-.2,5.3-.8,6.8-2.4,6.6-6.6,13.5-11.8,23.6-9.2.7.2,2.2-.6,2.3-1.2,2.6-9.6,14.2-11.6,17.5-20.7,1.8-4.9,6.6-4.8,10.9-4.8s10.3-1.2,12.2-7.3c1.8-5.7,6.6-5.6,11.2-5.5,6.4.2,10.3-3.2,15.5-7,8.4-6.1,13.5-18.6,27-16.7,2.8.4,6.5-.4,6.8-4.5.6-7.5,5.8-8.5,11.6-8.4,6.9,0,13.3.2,15.9-8.5,1.3-4.2,6.3-4.3,10.3-4.3,5.6.1,8.5-3.2,12.6-6.7,8.5-7.3,14.6-19.8,29.3-17.3,5.1.9,9.8-.7,9.9-7.6,0-4.6,3.9-4.7,7.2-5.3,7.3-1.4,15.3-1,18-10.7.9-3.3,5.1-2.1,8.1-2.2,7.1-.3,14,2,19.2-7.5,2.2-4.1,8.6-12.4,11.3-12.8,11.7-1.7,18.6-10.2,27.8-14.8,6.8-3.3,16-1.3,20.1-10.6,1.5-3.4,5.3-1.8,8.3-1.3v32.9c-8.3,8.3-18.6,13.1-29.7,16.2-8.2,2.3-15.3,5.6-18.1,14.6-1.1,3.5-4.5,4.8-7.5,6.1-10,4.2-19.8,8.6-28.1,15.8-4.3,3.8-10.7,2.2-15.9,5.6-7,4.6-13.7,8.9-17.2,16.7-1.7,3.7-4.6,4.2-8.1,4.5-7.2.6-14.7.8-18.6,8.8-.9,1.9-3.3,3.2-5.4,2.6-6.6-1.8-10.8,1.8-13.1,6.7-5.3,11.3-17.1,12.7-26.3,17.6-4.5,2.4-9.9,4.1-13.6,7.6-4.4,4.2-9.1,6.8-15,7.9-7.3,1.3-12.8,5.4-18.1,10.5-4.8,4.6-8.3,11.9-16.8,10.9-5.3,11-17.9,10.6-26,17-3.6,2.8-6.6,5.3-11.3,5.5-4.6.2-8.8,2.6-11.1,6.1-7.7,11.7-18.3,18.9-31.2,24-9,3.5-15.6,11.2-23.1,17-3.7,2.9-6.8,5.6-11.9,5.2-3.7-.3-7.8.8-9.5,4.3-2.4,4.8-7.3,7.5-9.7,11.6-5.2,8.8-13,9.9-21.8,10.8-4.5.4-9.1.7-13.3,3-2.7,1.4-5.6,1.3-8.5,1.5-4.8.4-9.6-.6-14.3-1.2-12.6-1.7-25.1,1.9-37.7,1.3-4.4-.2-9.4.7-12.1-4.4v.2Z"/>
      <path class="cls-52" d="M941.1,822.5h51.1c4.2,9.3-3.3,6.6-7.3,7.3,4.3,0,8.6-.6,11.5,4.6,2.4,4.2,6,2.3,7.9-.9,3.7-6.1,9-5.6,15.1-5.3,14.1.8,28.1,3.8,41.8,4.1,14.6.3,28.7,2.4,43.1,3.4,6.4.5,11.1-2.8,15.1-7.2,10.7-11.8,23.1-20.9,37.2-28.4,6.8-3.6,13.6-8.6,18.7-15.4,7.8-10.5,20.1-15.3,30.9-22.1,5.3-3.3,10.3-6.1,10.8-13.4.3-4,3.2-7.1,7.3-6.7,7.5.7,12.6-3.6,18-7.5,20.6-15,42.9-27.4,63.7-41.9,2.3-1.6,4.2-3.4,6.2-5.3,6.3-6.1,12.6-11.6,22.2-13.2,8.6-1.4,16.4-5.9,22.9-12.4,10.6-10.6,23.9-17.5,37.4-23.7,5.4-2.5,10.4-5.2,13.6-10.2,4.8-7.4,12.8-8.7,20.3-11,2.3-.7,4,.9,5.5,2.4v16.4c-9,5.9-17.8,12-27.4,16.9-1.3.7-3.5.8-4,1.9-2.7,6.2-8.9,7-13.7,10.2-10.5,7-23.2,10.9-31.1,22.1-3.2,4.6-10,6.2-15.8,7.7-7,1.7-12.1,5.8-15.5,11.8-3.5,6.3-9.1,9.2-15.2,12.1-8.8,4.1-18.2,7.1-24.3,15.7-3.4,4.8-8.8,7.3-14.7,8.3-2.8.5-6,1-6.6,3.9-1.5,7.8-7,10.2-13.6,12.3-6,1.9-11.4,4.9-15,10.7-2.1,3.4-6.2,4.7-9.7,6.5-.9.2-1.8.4-2.7.4-8.8.7-10.6,12.3-17,13.1-8.7,1.1-12.3,5.6-16.9,11.5-7.9,10.1-17.9,18.3-29.1,24.7-3.3,1.9-6.6,3.5-7.8,7.2-2,6.4-7.4,8.3-12.8,10.2-.8.3-2,0-2.7.4-12.9,8.3-26.4,4.8-39.8,2.2-2.2-.4-4.9-.7-5.9.9-4,6.5-12.4,8.5-15.8,15.1-2.5,4.7-5.8,6.7-10.8,6.8-.9,0-2.1-.2-2.7.4-10,9.7-24.4,10.6-36,18.1-10.2,6.6-20.6,16.3-34.5,16.3s-13.4,0-20.1.1c-7.1.2-13.1,2.1-15.7,9.8-1.6,4.6-5.5,6.2-10.3,5.7-8.3-.9-17.1-.8-21.3-10.2-.6-1.4-2-2.4-3-2.5-20.1-3.1-27.5-19.5-36.3-34.4-.6-1-1.5-1.9-2.1-3-.5-1.3-.8-2.6-.6-4.1.5-2.3,2.1-3.9,4.2-4.3,6-1,6.8-5.6,7.9-10.3.6-2.7.7-5.5,2.3-8.2,5.2-8.6,5-8.7-3.3-13.9-.2-.9,0-1.7.6-2.3,5.7-4.6,11.9-5.1,18.9-3.3,5.8,1.5,11.8,1.1,17.6-.4h9.1l.2.3Z"/>
      <path class="cls-6" d="M495.4,1032.5c-3-5.3-12.4-4.7-12.6-10.6-.3-6.5,9.6-5.6,12.3-10.6,4.1-7.7,9.3-12,18.7-10.3,4.1.7,4.9-3.4,5.4-7,2.3-15.3,4.5-17.4,19.4-17.5,5.7,0,7.7-3.2,7.7-7.9,0-7.2,1-13.4,9.3-15.6,1-.3,2.2-1.4,2.5-2.5,4.7-13.5,17-20.7,26.1-30.1,4.7-4.8,11.4-7.1,14.2-14.6,1.6-4.2,7.4-3.1,11.7-2.6,2.8.3,5.6.8,7.4-2,2-3.2,0-5.8-1.8-8.3-.7-1-1.6-1.8-2.3-2.8-2.7-3.7-4.8-8-.3-11.1,4.2-2.8,6.4,1.4,8.2,4.6,1.9,3.4,4.3,6.4,8.6,4.7,4.1-1.6,3-5.4,2.6-8.7-.8-6.3.5-11.5,7.5-13.6,1.3-.4,3.3-1.6,3.5-2.6,1.8-10.6,9-12.3,18.1-12,4.3.2,6.3-2.6,7-6.8,2.6-14.8,3-16,16.7-14.8,8.5.8,12.6-1.4,14.5-9.2.8-.7,1.7-.8,2.5,0,2.5,2.2,1.6,5.2,1.7,8-1.1,4.9-1.2,9.9-3.6,14.5-.5.7-.9,1.5-1.4,2.2-1.4,2.2-2.1,4.7-3.8,6.7-4,3.9-1.9,8.6-1.9,13.1-.5,10.9-.9,21.9-3.1,32.6.1,3.8,1.7,7.9-1.9,11-2.7,1.2-.7,2.9-.2,4.4.2,3.2-.3,6.4-.6,9.6-.6,2.3-2.5,3.8-3.9,5.6-1.3,1.7-3.2,2.5-5,3.4-.5.5-1.1,1-1.5,1.5-1.2,1.9-1.8,4.2-3.3,5.9-1.7,1.3-2.9,3-4.2,4.7-8.6,5.4-15.5,12.5-21.4,20.7-15.6,13.7-27.7,30.4-40.2,46.8-5.9,7.8-10.3,16.9-19.8,21.4h-92.8v-.2Z"/>
      <path class="cls-39" d="M1434.2,647.2c-3.3.8-7.2,1.7-8.3,5-3.1,8.3-10.4,11.2-17.3,13.5-16.3,5.4-27,18.4-40,28.1-12,8.9-23,18.7-37.6,23.3-1.1.4-2.7.8-3.2,1.6-6.5,11.8-21.9,14.2-28,26.4-.7,1.5-2.6,3.1-4.1,3.3-9.6,1-15.7,7.5-21.9,13.7-5.4,5.4-10.3,11.1-18.7,11.9-2.4.2-5,2.5-5.1,4.8,0,9.6-7.2,10.6-14,12.8-7.9,2.6-15.5,6.1-16,16.4,0,2.2-1.7,4.4-4,4.5-12.8.2-19.1,11-27.9,17.5-4.9,3.6-9.2,7.7-14.8,10.3-5.2,2.4-9.9,5.5-13.8,10.1-6.6,7.7-16.6,6.5-25.4,8.3-4.8,1-11.2-.7-7.9,8.4,1.4,4-3.1,4.3-6,4.9-4.8,1-9.4,1.5-10,8.4-.5,5.5-6.6,6.3-10.1,5.3-14.8-4.4-21.3,5.2-27.2,15.4-3.6,6.2-7.9,9.7-15.2,9.2-3.1-.2-6.8.2-7.9,3.4-2.9,9-11.2,11.6-18,15.8-5.3,3.2-10.1,5.6-11.8,12.5-1.2,4.8-6.6,4.8-10.9,4.6-6.1-.2-10.5,1.1-12,8.2-1.4,6.5-7.2,6.6-12.5,6.4-6.7-.2-10.3,1.7-13.7,8.7-3.9,8.1-13.7,11.7-22.6,12.9-6.9.9-13.2,1.5-17.6,7.7-1.4,2-3.8,3.1-6.3,3.4-8,1-13.7,4.1-15,13.1-.7,4.7-4.6,5.1-8.6,3.6-4.6,2.4-7.1-.5-9.5-3.8-4.8-6.5-8.1-13.8-12.3-20.7-2-15.9-9.4-30.3-12.8-45.8.4-8.3,0-16.6,1.7-24.8.6-2.7.4-6.3,3.8-7.9,2.1-.5,3.4.5,4.3,2.3,3,6.2,8.9,7.9,14.8,8.3,5.8.3,9.9,2,12.5,7.3.9,1.9,2.4,4,4.5,4.3,8.2,1.2,14.6,4.8,19.3,12,2,3.1,5.9,1.4,7.4-1.7,4.1-8.2,11.2-9.6,19.2-9,9,.6,16.9-.7,22-9.4,2.3-4,6.6-5.4,11.1-4.9,8.4.9,14.1-2.9,18-9.8,4.4-7.8,10.8-12,19.8-12.5,3.1-.2,5.9-1.2,7.9-3.9,8.2-11.1,20.4-15.7,32.8-20.2,10-3.7,17.3-11,23.3-19.4,3.3-4.7,6.2-6.1,11.9-4.8,17.5,4.2,34-.3,50-7.5,11.2-18.3,34.7-24.1,44.6-43.8,1.6-3.1,4.5-4.9,8.8-4.5,3.5.3,7.2-.5,10.8-1,4.1-.3,6.2-3.4,8.9-5.8,11.4-10.1,21.4-21.9,36-27.8,1.7-.7,3.5-2,3.8-3.7,1.2-7.7,7.5-9.7,13.3-11.9,5.8-2.2,9.7-6.2,14.2-10.4,5.5-5.1,13-8.5,20.3-11.2,5.7-2.1,10-5.8,14.5-9.8,8-7.3,17.8-12,26.7-18,1.7-1.2,4.1-1.6,5.4-3.3,9.7-12.5,25-16.8,37.1-25.6,7.8-5.7,16-10.5,23.8-16.1,4.2-3,8.6-9.3,15.4-4.2v5.5h.1Z"/>
      <path class="cls-43" d="M1205.9,1032.5c-3.8-27.3-1.1-54.6-1.7-82,0-3.7,1.8-6.3,5.3-7.8,2.9-1.2,6.4-3,6.2-6.1-1-16.4,12.2-24,20.8-34.4,1-1.2,2.5-2.4,2.6-3.6,1.9-20.7,22.1-27.2,31.8-41.6,4.8-7.1,11.8-12.2,15.8-19.7,1.5-2.8,3.7-4.7,6.3-6.4,1.8-1.1,4.4-2.4,4.7-4,2.5-12.5,12.3-17.2,22.3-21.9,1-.5,2.4-1.5,2.6-2.4,2.7-13.4,16.5-15.2,23.9-23.4,10.2-11.3,25.8-16,33.4-30.9,3.4-6.6,13.8-10.1,21.5-14.1,5-2.6,9.5-5.5,12.8-9.9,5-6.8,11.9-10.1,20-11.4v16.4c-.4.5-1.1.9-1.1,1.4-.9,13.6-9.5,20.5-20.8,25.9-5.2,2.5-9.1,6.6-11.1,12.6-2,5.9-7.8,9.9-12.4,12.8-7,4.5-12.5,11.3-21.2,13.5-7.1,1.8-12.2,6.4-13.4,14.4-.6,4.3-3,8-7.5,9.5-1.1.4-2.5,1-3,2-6.5,11.9-18.4,19.3-25.6,30.7-1.5,2.4-3.1,4.4-5.6,5.8-4,2.2-6.9,5.9-7.2,10.1-.8,12.2-9.6,18.5-17.8,24.8-5.9,4.5-8.4,9.3-7.1,16.3,1.2,6.3,0,11.3-6.1,14.6-5.8,3.1-5.5,9-5.5,14.5v80.2c0,5.2.4,10.5-4.5,14.1h-58.4Z"/>
      <path class="cls-12" d="M1264.4,1032.5v-98.5c0-6.7-1.4-14.5,9.1-15.8,3.4-.4,2.8-4,2.6-6.8-.4-4.5-.5-9.1-.6-13.6,0-2.5.5-5.5,3-6.2,6.4-1.6,9.3-7.1,13.8-10.6,5-3.8,6.7-7.9,7.9-13.2,1.5-6.2,3.6-11.9,10.4-15.1,4.4-2,6.9-8,8.8-11.4,4.7-8.5,13.2-12.9,18.6-20.8,5.3-7.8,13.8-13.5,15.1-24,0-.8,1.8-1.8,2.8-2,16.1-2.5,25.5-15.8,38.4-23.6,1-.6,2.3-1.9,2.2-2.7-1.4-13,10.7-14.1,17.6-18.3,6.8-4.1,13-7.4,14.9-15.7.6-2.6,2.6-4,5.1-4.7v27.4c-6.4,15.9-19.8,26.1-31.4,37.7-5.7,5.7-12.7,10.1-17.9,16.5-2.3,2.9-5.3,5.8-5.3,9.4,0,13.4-9.7,19.5-18.6,26-4.5,3.3-6.6,7-6.4,12.2.3,6.6-3,11-7.4,15.8-8,9-13.4,19.9-16.3,31.7-2.4,9.9.2,21.6-10.5,28.6-2.2,1.5-2.1,4.9-2.3,7.7-.9,12.2,1.2,24.3.9,36.4,0,3.7,2.3,6.3,5.7,7.5,6.8,2.5,8.1,7.7,7,14-1.3,6.9-.8,14-1,20.9,0,4.4-.6,8.5-4.5,11.4h-62.1l.4-.2Z"/>
      <path class="cls-35" d="M1326.5,1032.5c.4-11.2-1-22.5,1-33.7.9-4.8-1.2-7.7-6-8.2-5.7-.6-7.7-3.9-7.7-9.3v-44.6c0-4.5.3-8.5,6.1-9.5,3.6-.6,4.5-3.6,4.8-6.9.6-6,1.4-12.1,1.9-18.1.3-4.1,1-7.9,4.3-10.6s4.5-6.3,5.3-10.3c.8-3.9,2.4-7.9,6.1-9.8,8.1-4.1,8.9-11,7.7-18.6-1-5.9,1.8-7.8,6.6-10.9,7.9-5,18.2-9,18.2-21.5s2.1-10.1,7.1-13.1c2.7-1.6,4.2-4.2,5-7.3.5-1.7,1.4-4.3,2.5-4.6,15.2-3.8,21.4-18.2,32.5-26.9,4.5-3.5,4.7-11.6,12.5-12v36.5c-8.8,10.5-17.4,21-19.6,35.1-.5,3.2-2.2,5.2-4.8,7.2-11,8.7-21.5,17.8-18.8,34.3.9,5.3,0,10.7-5.8,14.2-4.3,2.6-4.8,7.5-4.8,12.2,0,25.8,0,51.6,0,77.4,0,.6,0,1.3,0,1.8,5.7,11.6,9.6,24,16.2,34.9,4.7,7.8,7.2,15.6,2.8,22h-73.1v.3Z"/>
      <path class="cls-18" d="M1434.2,619.8c-10.1,3.3-19.7,6.6-26.4,16.3-5.2,7.6-16.1,7.8-23.7,12.9-10.1,6.8-20.6,12.6-29.2,21.5-5.6,5.7-13.6,8-21.4,9.3-4.4.8-8.4,1.9-11.3,5.3-12.9,14.8-30.7,23.4-46.5,34.1-13.4,9.1-27.7,17.3-40.6,27.3-4,3.1-8.3-.3-13.1,1,7.9,12.4-4.8,13.4-10.3,17.3-12.6,9-26.9,15.2-37.2,28.2-4.5,5.8-11.4,11.9-20.2,14.2-10.1,2.6-19.2,10.2-24.5,17.7-12.9,18.4-29.1,15.1-47,13-21.6-2.5-43-6.9-64.9-6.4-5.1.1-8.3,1.8-10.4,7-2.6,6.6-13.4,7.9-14.9,1.7-2.9-11.5-10.3-8.4-17.5-8.1-.8,0-1.7-.5-3.3-1.1,2.9-4.5,7.1-2.8,10.5-3.1,4.2-.4,8.9.4,10-5.5h14.6c1.5-1.4,3.1-1.8,5.1-1.2,3.1,1,6.3,1.4,9.5,1.1,5,.5,10,.3,14.8-1.5,1.4-.2,2.7-.2,4.1.1,8.9,8.8,19.5,2.7,29.2,3.1s16.7-5.2,20.2-14.3c1.8-4.8,4.7-7.2,9.9-8,7.4-1.2,14.2-4.4,18-11.2,6.8-12.3,19.4-16,31.1-19.9,10.6-3.5,16.3-11.5,21.4-19.6,3.2-5.2,6.2-8.6,11.9-9.7,7-1.4,13.6-3.5,17.7-10.1.3-.5.9-1.3,1.3-1.2,10.4,1,14-9.3,21.5-13.2,5.9-3.1,11.7-6.3,16.9-10.6,5.3-4.4,11.1-8.3,18.5-9.2,5.6-.7,9.8-4.7,14.1-8,8.8-6.9,17.4-14.1,29.1-15.2,4-.4,6.9-2.8,8.4-5.7,6.9-13,20.4-17.3,31.8-24.3,2.4-1.5,4.3-3.3,6.4-4.9.8-.5,1.6-.9,2.6-1,3,0,6.4.6,7.5-3.3,2.2-8.2,8.1-8.6,15-7.6,5.5.8,9.9,1.1,11.9-6.9,1.4-5.7,8.8-9.1,14.5-11,5.3-1.7,7.8-4.3,9.8-9.2,3.2-7.8,18.5-12,25.4-7.6v27.4h-.3Z"/>
      <path class="cls-25" d="M1399.5,1032.5c-2.1-7,0-16.2-10.8-18.8-3.2-.8-1.9-6-1.9-9.2,0-6-.2-11.4-6.3-15-3.7-2.2-4.6-6.3-4.6-10.4v-89.4c0-3.4.3-7.4,3.7-8.8,7.4-2.9,7.4-8.7,7.2-15,0-4.9,0-9.7,0-14.6s.5-7.9,6.3-7.7c2.7,0,4.4-1.7,5.1-4.4.4-1.5.5-3.6,1.5-4.2,15.1-8.4,14.7-26.2,23.6-38.4,3.4-4.6,6.6-4.4,10.9-3.4,0,77.6,0,155.2.2,232.9,0,5.4-1.1,6.9-6.6,6.5-9.4-.6-18.9-.2-28.3-.2h0Z"/>
      <path class="cls-74" d="M-410.6,1016.1v-38.4c3.6-4.9,9-4.6,14.1-4.5,6.8.1,12.7-1.6,16.4-7.8,3.4-5.6,8.6-4.9,13.8-4.1,7.9,1.2,16.5,3,23.3-1.2,10.2-6.3,19.7-11.3,32.4-9.6,4.5.6,9.2-4.5,12.3-8.6,3-3.9,6.6-4.9,11-5.1,8.8-.3,17.6-.1,26.5-.2,4.7,0,9.1-.6,11.6-5.5,1.7-3.2,4.6-4.8,8.2-5,8.2-.4,16.2-3.1,23.9-5,9.1-2.2,17.6-7.7,25.7-13,3.7-2.5,7-3.9,11.7-3.1,8.5,1.6,12.1-2.5,9.6-11-4.3-14.8-12.3-27.7-23.2-38.6-5.3-5.3-11.3-10.1-17.9-14-9.9-7.7-19.7-15.3-31.7-19.5-3.1-1.1-6.1-2.7-7.6-5.9-.8-1.9-1.2-3.7,0-5.6,1.6-1.7,3.7-2.4,5.8-1.4,19,9.2,39.1,16.5,56.1,29.5,2.5,4.7,6,8.5,10.5,11.2,14.1,8.4,21.4,22.6,28.2,36.1,4.9,9.9,9,21.7,6.6,33.6-2,10.5-5.3,19.6-13.9,28-7.9,7.8-15.4,8.8-24.9,9.2-13.4.6-26.9,1.1-35.6,14.3-2.6,4-7.2,3.6-11.4,1.1-9.5-5.6-14.1-4.9-20.7,4-3.1,4.2-6.8,5.7-11.6,5.9-6.1.2-12.2,0-18.2,1.3-3.4.7-7,1.5-8.6,4.6-4.1,8-11.3,7.6-18.2,6.6-8.2-1.2-15.2-1.2-19.1,7.7-1.2,2.8-4.4,2.9-7,3.7-6.1,1.7-12.5,3.3-18.7,4-16.7,1.9-31.7,11.1-49,10-4.2-.3-7.8-.4-10.5-3.8h.1Z"/>
      <path class="cls-81" d="M479-8.5c12.2,17.8,23.4,36.1,29.6,57.2,8.7,29.7,18,59.2,27.1,88.8,4.6,5.3,2.9,13,6.8,18.5.5.7.9,1.5,1.1,2.4,2.4,7.1,2.1,14.5,2.1,21.9s-.9,5.3-3.7,6.7c-3.1,1.4-5.9,1-8.4-1.3-1.6-1.4-3.6-2.7-4.3-4.6-5.2-14.4-19.5-21.4-27.6-33.4-1.3-2-3.5-3.9-5.9-4.2-9.3-1-12.3-8.3-16.9-14.8-10.8-15.2-22.9-29.1-41.6-35.1-4.9-1.6-9.3-5-12.4-9-4.7-6.2-10.8-9.6-17.8-12.1-1.7-.6-3.7-1.1-4.9-2.4-8-8.3-17.7-13.6-28.7-16.5-1.2-.3-2.3-1-3-2-4.5-6.7-10.9-9.4-18.1-6-8.1,3.8-16.2,9.2-16.2,19.1s-4.5,18.2-12.1,25.1c-8.6,7.8-8.7,12.7-2.5,22.9,3.4,5.6,1.9,9.8-3.9,12.6-.9.2-1.8.2-2.7.2-11.8-4-23.4-8.2-35.2-12.3-3.2-1.5-6-3.3-7.5-6.7-.4-2-.3-3.9,1.2-5.6,4-2.8,6.4,1.9,10,2.2,4.6.3,7.2,0,6.6-5.3-1.3-11.6-.3-23.5,1.7-34.4,2.8-16,4.2-33,13.6-47.4,3.2-4.9,4.7-10.5,6.3-16,1-3.3,2.1-6.3,4.8-8.5h3.7c1.2,1.4,2.4,1.4,3.7,0h32.9c12.5,8.3,22.5,20,36.6,25.9,1.1.5,2.3,1.2,2.7,2.3,5.5,16.6,22.6,17.7,34.5,25.6,2.5,1.6,5.5,2.6,7.5,4.8,17.8,19.7,37,37.9,55.8,56.5,8.4,8.3,18.5,15.5,23.8,26.8,1.6,3.4,4.5,3.8,7.5,1.4,2.3-2.1,2.4-4.7,1.3-7.4-.9-2.9-3.2-5.1-3.9-8.1-1.1-6.7-3.2-12.9-8-17.9-2-2.1-3-4.6-3.1-7.4-.3-17-8.9-31.8-12.3-48-3.1-14.7-11.1-27.4-20.8-38.9-3.7-4.4-7.2-9.4-2.9-15.5h3.7-.2Z"/>
      <path class="cls-35" d="M-209.7,838.9c13.7,5.6,23.9,15.6,31.5,27.9,4.9,8.1,11.3,15.4,13,25.5.8,5,1.8,8.8-.6,13.7-3.3,6.8-6,11.6-13.6,4.6-1.8-1.6-4.9-2.2-6.8-.4-6,5.8-15,6.7-20.6,13.1-2,2.3-4.6,3.5-7.3,3-9.4-1.8-17.3,5.4-26.7,4.2-1.8-.2-3.8,1-3.5,3.3,1.1,7.4-4.3,6.9-8.7,7.1-7,.3-14.1.8-21,0-11.5-1.4-20.9,2-28.1,10.8-4.4,5.4-9.4,6-15.4,4.2-5.8-1.7-10-.9-15.1,4.2-8.2,8.2-20.1,8-31,6-7.2-1.3-12.3-.7-16,6.3-2.2,4.1-6.5,5.2-11,5.2h-20.1v-25.6c1.1-1.4,3-2.2,3.4-4,2.4-11,10.6-11.8,19.6-11.4,7.6.3,15.4,1,19.6-7.7.8-1.6,2.8-2.4,4.7-2.5,10.3-.2,20-3.5,30-5.5,12.6-2.4,23.8-6.6,35.5-11.7,8.8-3.9,18.3-10.8,29.3-9,10.1,1.6,19.5-4.4,29.6-2.1,2.2.5,3.9-1.5,4.9-3.5,2.9-6.2,7.9-8.6,14.6-8.9,9-.4,15.4-7.1,17.7-13.7,2.4-6.9-3.3-13.2-9.6-18.8-10.8-9.5-23.2-16.1-35-23.7-3.6-2.4-7.7-4.6-3.9-9.9,4.9-2.4,9.7.4,12.7,2.6,8.8,6.5,19.6,9.5,27.9,16.6h0Z"/>
      <path class="cls-54" d="M-249.8,820.7c7.2,8.6,18.1,11.6,27.2,17.3,7.4,4.6,23.3,18.2,25.4,27,.6,2.7,1,4.6,4.4,4.2,2.9-.4,4.8.9,4.4,4.1-.4,3.1-2.1,5.5-5.4,5-6.3-1-9.7,2.2-12.2,7.3-2.7,5.6-8.2,4.3-12.8,5.1-5.1.9-10.1.8-10.8,8.3-.6,5.9-6.1,6-10.8,5.1-11.5-2.1-24.4-1.8-33.5,2.2-8.8,3.8-18.7,5.1-27.3,10.8-7.2,4.7-16.5,10.1-26.8,8-2-.4-4.9-.4-6.2.7-6.8,5.9-14.8,4.3-22.6,4.6-3.7.2-8.2-.9-8.1,5.7,0,4.4-3.9,4.9-7.3,5.1-5.2.2-10.3,0-15.5.2-5.8.2-12.3-1.6-13.3,8-.4,4.3-6.1,2.5-9.5,2.9v-31c3.2-3.9,7.5-6,12.3-7.4,7.6-2.2,15.1-4.5,21.1-10.2,2.7-2.6,6.6-3.5,10.3-2.4,8,2.4,13.2-1.9,16.8-7.7,4.2-6.9,9.9-8.6,17.1-7.2,10.1,1.9,18.8.2,27.7-5.4,8.9-5.5,19.9-4.8,30.1-6,6.8-.8,13.1-1,17.4-7.8,2.5-4,7.7-3,11.8-3.3,5-.4,10.2-.7,11.4-6.9,1.2-6.2-3.5-8.2-8.1-10.5-10.4-5.1-17.5-14.1-26.1-21.4-7.3-6.2-15.9-10.7-25.6-12.8-13.6-11.2-29.8-18-44.8-26.9-2.4-1.4-4.5-1.4-6.9-1.1-1,0-1.9,0-2.8-.4-9.6-10.6-22.7-14.3-35.6-18.7-1.4-.5-3.2-.5-4.2-1.6-4.9-5.1-10.4-8.7-17.6-9.6-2.1-.3-3-2.8-4.5-4.3v-7.3c8.6-3.8,13.9,3.5,20.3,6.4,13.3,6,26.8,11.4,40,17.7,8.2,3.9,15.9,8.7,24.5,11.7,8.5,6.2,17.9,10.5,28.2,12.7.9.2,1.7.5,2.5,1.1,12.3,8.8,25.2,16.5,39.2,22.3,3.3,1.4,7.6,1.3,6.1,6.8v-.4Z"/>
      <path class="cls-30" d="M-410.6,692.8c20.3,7.1,39.5,16.8,59.2,25.2,28.9,12.3,57.8,24.7,87.2,35.8,13.9,5.2,29.4,7.7,41.1,18.3,2.2,2,6.2,2,9.5,2.8,2.6.7,6,.4,7.8,2,15.2,13.6,36.6,15.2,52.2,27.7,8.9,7.1,18.8,13.2,26.4,21.9,6.1,7.1,14.3,13,19.3,20.1,10.6,14.9,24.1,28.2,27.3,48.2,2.9,18.6,10.9,36.1,10.5,55.8-.5,23.2,2.9,46.4-3.7,69.2-1.2,4.2-1.2,8.4-.7,12.6h-25.6c-4.2-8.1.2-15.8,2.8-22.6,7.8-20.7,7.5-41.9,7.2-63.3-.3-23.3-7.1-44.8-17.2-65.3-7.5-15.2-20.7-25.9-31.4-38.6-12-14.3-26.9-23.3-43.3-31.7-18.7-9.5-37.8-17.4-57.2-25.3-11.1-4.5-20.7-12.7-32.5-16.1-16.2-4.7-30.4-14.5-46.4-18.7-12-3.1-20.8-11-32.1-14.8-11-3.7-21.9-8-32-13.7-2.2-1.2-4.7-1-7-1.7-6.7-5.1-17-4.4-21.5-13.2v-14.6h.1Z"/>
      <path class="cls-43" d="M-410.6,1016.1c9.5-1.6,19-4.4,28.9-2,1.5.4,4.6-.6,4.9-1.5,2.6-9.3,9.5-5.3,15.5-6,9.9-1,19.6-3.6,29.3-5.7,1.3-.3,2.7-1.7,3.2-2.9,3.9-10,11.8-10.2,20.4-8.4,7.4,1.6,13.9,1.6,17.6-6.7,1.6-3.7,4.9-4.9,9-4.8,6.4,0,12.8-.2,19.1-.4,4.1,0,7.2-.7,8.4-6.1,1.8-7.8,19.4-12,24.9-6.3,3.9,4,8.2,6.5,10.5.3,4.9-13.1,16.4-11.1,26.1-12.8,6.5-1.2,13.3-.5,20-.7,3.7-.1,7.8,0,6.6-5.9-.4-2,.6-3.5,2.6-4.3,3.4-1.4,8.8.4,10-4.7,2.4-10.4,8.4-19.7,6.4-31.4-3.8-22.8-15.8-40-33.5-54-4-3.1-8.4-6.2-10.6-11.1,3.4-4.1,6.5-2,9.3.6,9.2,8.5,19.9,15.8,27,26.2,5.9,8.6,12.6,17,15.2,27.7,2.2,9.1,5.6,17.7,6,27.3.4,8.9,1.4,17.2-2.9,26-3.8,7.9-4.8,16.7-10.7,24.3-4.8,6.2-9.7,9.1-16.5,8.9-8.9-.3-17.5,2.3-26.3,2.5-2.1,0-4.2.7-6,1.9-11.6,8-24.5,11.4-38.4,11.8-1.8,0-3.7.4-5.2,1.4-8.9,6.1-18.3,9.6-29.1,11.7-6.7,1.3-13.3,5.5-20.5,7.5-6.5,1.7-12.7,3.7-19.5,3.7s-10,1.2-14.5,4.4c-7.4,5.2-16.7,3.4-25,5.7-18.6,0-37.1-.3-55.7.2-5.5,0-7.3-1.1-6.5-6.6.5-3.3,0-6.7,0-10v.2Z"/>
      <path class="cls-86" d="M1350.2,641.7c-3,7.5-11.4,7.2-16.7,11.5-7.5,6-17,9.2-22,18.4-1.6,3-5.3,3.9-8.5,5-11.6,4-22.1,10.1-30.8,18.4-7.3,7-18.4,5.2-25.1,11.9-9.3,9.2-21.3,13.9-32,20.5-10.9,6.7-19,19-33.7,18.9-2.9,0-5.3,1.8-5.4,5.2,0,4.2-3.5,5.9-5.6,8.8-9.6,13.1-25,15.3-38.3,21.6-5.3,2.5-8.9,7.9-11.4,12.7-3.3,6.5-7.6,9.4-14.4,10.4-5.9.9-10.9,3.1-13.5,9.6-3.9,9.8-12.3,13.3-22.3,14.6-8.5,1.1-16.8-2-25.4-.4-2.4.5-4-2.4-5.4-4.4.4-3,2.9-3.6,5.2-4.4,2.4-.8,5.2-2,5.5-4.4,1.2-8.2,8.7-11.3,12.9-17.1,1.3-1.8,2.7-3.4,5.1-3.3,8.7.1,14.2-6.2,20.2-10.8,8.6-6.5,16-14.5,27.3-16.4,2.5-.4,4.2-2.4,5.9-4.1,7.2-7.1,15-8,23.4-2.6,2-3.9-1.5-5.1-3.2-7.3-4.1-5-2.2-10.7,4.2-11,14.2-.8,25.6-5.5,32.4-18.9,1.6-3.1,5-4.3,8.6-3.1,6,1.9,9.3-.4,10.7-6.3,1.2-5.4,4.7-8.2,9.8-9.9,7-2.3,12.8-8.1,21-7,1.8.2,3.8-1.1,4.5-2.8,4.5-11.1,15.7-12,24.6-15.9,6.9-3,12.9-5.7,15.8-13.7,2.5-6.9,7.9-7.7,13.8-3.2,1.9,1.4,3.5,3.4,6.8,3.6.9-11,5.2-18.8,18.2-17.4,4.5.5,5.9-3.8,7.6-6.8,5.7-10.6,15-15.7,26.2-18.2,4.6-1,9.3-2.5,12.4-6,5.1-5.7,11.8-8.2,18.6-10.8,8.1-3.1,15.6-7.1,18.2-16.4,1.2-4.4,4.9-6.3,8.9-6.6,6.7-.5,12.8-2.8,18.6-5.8,4.5-2.3,8.1-2.1,11.2,2v12.8c-5.9.5-10.9,3.6-16.4,5.3-4.1,1.3-5,4.6-5.8,8.4-1.1,5.4-3.1,8.8-10.3,8.5-5.8-.2-12,3.6-14.2,10-1.6,4.7-4.3,6.3-8.7,6.1-8.1-.4-15.7-.3-20.3,8.3-1.5,2.8-5.3,2.6-8.3,2.7-.6-.6-1.1-1.2-1.6-1.8.5.6,1,1.2,1.6,1.8v-.2Z"/>
      <path class="cls-32" d="M475.3-8.5c2,6.4,5.3,12.2,9.7,17.3,12.2,14.2,18.3,31,22,49,1.3,6.5,5,12.6,6.2,18.8,2.4,13.3,7.7,25.2,12.9,37.3.7,1.6.3,3.6.4,5.4,1.5,3.4.9,6.6-2,8.9-3.2,2.5-6.5.5-9.3-1.2-7.5-4.6-13-11.6-18.7-18-8.7-9.7-18.6-17.9-27.8-27.1-6.2-6.2-12-12.7-17.9-19.1-7.1-7.5-14.9-14.2-21.8-21.8-5.3-5.8-14.9-6.9-20.1-13.7-6.1-7.9-13.7-14.2-20-21.8-3.2-3.9-6.3-8.5-3-14.1h89.4Z"/>
      <path class="cls-76" d="M-348.5,1032.5c8.7-3.8,19.1-4,25.2-13.2,1-1.5,5.2-1.6,7.8-1.3,10.5.9,22.7.6,30.1-4.7,10.1-7.1,20.9-7.3,31.4-10.6,2.2-.7,4.4-2.3,6.1-3.9,5.4-5.2,10.6-6.6,18.9-6.2,8.5.5,20-.7,26.4-10.1,1.9-2.7,4.5-2.8,7.2-2.9,5.5,0,11,0,16.4,0,12.7-.3,24.5-2.6,32.3-14.1.5-.7,1.5-1.4,1.6-2.2,3.6-20.5,11.5-39.4,3.5-62.3-8.6-24.7-24.5-41-42.4-57.2-2.1-1.9-4.6-2.9-7.4-3.1-10.3-9.9-24.8-11.8-36.4-19.5-6.7-4.4-13.6-9-22.1-9.7-2.5.9-5.2.3-6.9-1.1-7.7-6.6-18.3-7.9-26.1-14.3-3-2.5-6.9-2-10.2-3.5-17.1-7.7-34-16.2-51.2-23.7-13.2-5.8-26.2-12.4-40-17.2-9-3.2-17.3-9.1-26.4-13.1v-7.3c1.9-2.2,4.5-4,7.1-2.6,11.1,6.1,23.2,9.6,34.7,14.5,10.6,4.5,20.6,10.2,31.1,15,14,6.4,28.1,12.8,42.4,18.4,24.4,9.6,46.8,23.4,71.2,32.8,12.5,4.8,23.6,12.2,35.2,18.8,5.5,8.9,15,13.5,22.1,20.6,16.5,16.5,32.2,33.8,36.6,58.1,0,3.9-1.8,7.2.2,11.6,7.4,16.3,2.9,32.2-3.7,47.6-2.9,6.8-7.8,12.7-9.7,20.1-1.1,4.4-4.9,6.7-9.7,6.8-10.5.3-20.3,1.3-27.7,10.7-3,3.8-9.2,2.3-14,2.2-8.7,0-17.1,0-21.4,9.8-1.2,2.9-4.7,2.6-7.7,3.1-11.8,1.7-24,.8-34.9,8.3-5.3,3.7-13.1,3.4-20.1,1.9-4.8-1-9.4-.4-13.1,3.4h-56.6l.2.2Z"/>
      <path class="cls-8" d="M1434.2,579.6c-10,.8-18.9,6.6-29.3,6-3-.2-4.8,2.5-5.1,5.5-1.5,13.2-12,16.4-22.1,19.3-5.7,1.6-11.3,2.1-13.7,8.7-1.2,3.3-4.4,5.4-7.8,5.6-9.5.6-16.9,6.2-25,9.9-2.4,1.1-3.8,2.8-4.9,5.1-3.8,7.2-6.7,14.9-18,12.2-4.2-1-7.5,4-8.5,8.2s3.5,3,5.7,4c1.7.8,3.5,1.6,3.2,3.8s-2.4,3-4.1,2.7c-7.3-.9-15.9,4-21.2-5.6-2.1-3.7-5.4-1.3-5.5,1.9-.3,13.8-12,13.9-20.5,16.4-8.8,2.6-17.1,4.2-19.2,15.1-.7,3.7-4.1,6.2-7.5,5-10.4-3.8-16.2,6.8-25.1,7.5-2.8.2-2.7,4.3-3.2,7-1.8,9.6-5.5,12.1-14.3,8.6-4.1-1.6-6-.9-7.9,2.9-6.1,12.3-15.8,18.5-29.9,17-2-.2-4.2.8-9.2,1.9,8,3.3,13.1,5.6,12.1,13-.7,5-2.7,7.6-7.7,8.5-4.8.8-6.1-1.3-7.5-5.5-2-6-6.4-6.4-9.5-.6-3,5.6-7.1,7.9-13.1,7.8-1.8,0-4.6.2-5.1,1.3-4.3,8.5-15.7,8.8-19.8,17.4-.7,1.5-2.6,3.4-4,3.4-11.6-.4-18.4,7.5-25.8,14.4-1.6,1.5-3.8,2.7-3.7,4.9.3,12.8-8.7,11.6-17,11.4h-3.6c-4.9.4-9.7-.2-14.6,0-3-.6-6.1-1.2-9.1-1.8-.5-.4-.6-.8-.5-1.2.2-.4.3-.6.5-.6,6.6-.8,13.3-1.4,19.9-2.4,4.4-.7,7.3-2.9,9.7-7.2,3.8-6.7,11.4-10.6,14.6-18.4,1.5-3.7,6.6-1.8,10.1-1,4.9,1.1,8.5.1,9.7-5.3.2-.9.5-2.4,1-2.5,9.8-1.6,12.8-13.1,22.7-14.9,12.5-2.2,22.6-8.7,27.8-20.9,2.5-5.8,7.7-6.6,12.7-7.4,5.4-.8,10.1-1.9,12.4-7.7.5-1.3,2.1-3,3.2-3,12.1.5,19.7-8.4,28.7-14,5.8-3.6,10.6-9.1,15.5-14,1.4-1.4,1.9-4.8,3.9-4.6,16,1.8,24.9-12.9,39-16.3,8.1-2,16.8-7.1,22.1-15.1,1.8-2.7,4.7-3.8,7.1-5.5,6.3-4.5,15.4-4.6,18.8-13.9,1.3-3.5,7-2.4,11-1.9,5.9.8,9-.8,12.5-7,5.4-9.5,16-14.4,26.4-18.7,12.9-5.4,25.1-12.2,37.6-18.4,1.8-.9,1.8-2.7,2.5-4.4,2.4-6.1,5.6-11,13.3-12.3,10.5-1.8,20.6-5.5,28.8-12.8,3.3-2.9,6.8-3.8,11-2.8v11l-.5.3Z"/>
      <path class="cls-48" d="M-293.7,809.7c10.8,2.2,19.7,8.3,29.1,13.7,10.8,6.1,16.9,18.9,30.7,20.6,6.9.9,5.7,7.1,5.3,11.7-.4,5.5-1.3,11.3-8.5,12.2-3.6.4-7.3.2-10.9.3-2.4.1-5.8,0-6.1,2.8-1,8.5-7.2,7.3-12.9,7.9-9.1.9-18.1,2-27.1,3.1-4.2.5-7.9,2.2-11.6,4.8-7.8,5.7-17,6-26.2,4.1-6.4-1.3-10.4,0-14.5,5.8-4.8,6.9-10.4,15.2-21.5,9.1-2.6-1.4-5.4.2-7.5,2.2-9.9,9.2-22.8,10.6-35.2,13.1v-21.9c6.1-6.6,13-11.6,22.7-11.4,3.3,0,6.7-.9,9.5-3,4.8-3.6,10.2-4.6,16.2-4.9,8-.4,14.8-4.5,20.3-10.3,3-3.1,6.3-5,10.5-4.2,9.8,1.9,19.1-2.2,28.8-2,2.1,0,4.8-.3,5.8-2.1,4-7.3,11.2-7,17.9-8,8.7-1.3,11.9-5.8,8.7-13.8-3-7.7-6.3-15.4-15.6-18.7-4-1.4-11.9-2.9-7.8-11.2h-.1Z"/>
      <path class="cls-32" d="M219.6-8.5h56.6c4.5,3.4,4.5,8.3,4.5,13.2,0,22.5.3,44.9-.1,67.4,0,5,.2,9.3,4.3,13.2,3.9,3.8,3.7,9,.9,13.4-2.7,4.1-6.4,2.7-10.5,1.3-3.6-1.3-7.8-1.1-10.9-3.9-.7-.6-1.5-1.1-2.2-1.7-3.5-4.4-7.7-8.4-8.8-14.4-1-5.8-7.4-4.1-10.5-7.2-6.7-10.6-13.5-21-17.6-33.2-3.7-11-6.7-21.9-7.8-33.4-.5-5.1-1.9-10.3,2.2-14.7h0Z"/>
      <path class="cls-5" d="M-410.6,890.1v-31c9.5-4.9,18.2-12.3,29.6-11.6,9.2.5,15.3-5.4,22.4-9,5.7-2.8,11.3-4.6,17.5-3.7,7.1,1,12.4-2.1,17.4-6.2,6.2-5.1,6.6-13.3.2-18-7.3-5.2-13.8-11.9-23.2-14.1-8.7-2-12.6-11-20.2-14.9-2.5-1.3-4.3-3.8-7.2-5.2-3.1-1.4-4.2-4.3-2.1-7.6,8.5-1,14.4,5.1,21.4,7.9,2.6,1.1,5.5,2.3,8,3.8h0c15,7.7,29,17.1,43.8,25.1,4.6,2.5,6.8,7.2,10.5,10.6,2.4,2.3,4.7,4.2,7.8,5.5,10.1,4.3,13.6,21.8,6.1,29.8-2.1,2.3-4.7,2.5-7.7,2.6-11.3,0-22.1,2-31,9.9-1.5,1.4-3.6,3.1-5.7,2.6-10.7-2.7-18.7,2.6-26.4,8.6-9.6,7.4-21.5,4.5-32.1,7.5-6.5,1.8-12.9,2.8-18.1,7.7-3.4,3.2-7.5,3.9-11.2-.3h.2Z"/>
      <path class="cls-25" d="M893.6,1032.5h-25.6c-16.6-17.2-28.6-37.3-38.7-58.8-3-6.4-6.5-12.3-11.9-17-1.4-1.2-3.2-2.1-3.7-3.9-4.9-17.8-18.8-31.4-23.1-49.5-.8-3.3-4.7-3.5-6.6-5.8-6.7-9.1-8.6-20.6-14.8-29.9.8-3.1,2.4-5.5,5.5-6.8,4.1-1.1,8.5-.8,12.5-2.5,8.7.4,12.8,5.2,15.9,13.4,3.8,10.1,8.8,19.8,13.9,29.3.9,1.6,2.5,2.8,3,4.5,6.1,22.3,24.5,37.5,33.7,57.6,7,15.4,19.1,27.2,25.6,42.6,2.7,6.5,9.2,10.4,13.6,15.8,3,3.6,4.9,7.1.6,11h.1Z"/>
      <path class="cls-51" d="M893.6,1032.5c-.8-2-1-4.5-2.4-5.8-10.4-9.9-16.5-23-25.3-33.9-10.1-12.5-14-28.1-24-40.5-3.4-4.2-5.9-9.1-9.5-13.2-5.6-6.4-9.5-13.7-12.8-21.8-5.4-13-11.3-26-19.4-37.6-1.2-1.8-2.9-3.4-2.7-5.6.7-7.5-3.8-11-9.9-13.3-1.4-2.8.1-4.8,1.7-6.8,3.8-2.8,8.7-.7,12.6-3,6.7-.6,10.3,2.3,12.8,8.7,5.9,15.1,10.6,31,23.2,42.5,3.1,2.9,3.3,7,3.6,11,.5,7.6,4,13.4,9.4,18.9,12.4,12.8,20,28.9,28.8,44.2,1.6,2.9,2.9,6,4.8,8.8,4.7,9,8.3,18.8,16.4,25.6,3.1,9.1,11.5,14.2,16.5,21.9h-23.8Z"/>
      <path class="cls-53" d="M-375.9,769.5c11.6,9.6,22.5,19.9,37.5,25,7.7,2.6,14.6,8.5,21,13.9,5.8,5,4.6,12.4,2.2,18.7-2.3,6.3-16.6,13.9-23.1,12.4-9.7-2.2-17,2.6-24.6,7-1.8,1.1-3.6,3.6-5.2,3.5-15.1-1.3-27.4,10.8-42.5,8.9v-23.7c11.8-10.5,26.8-13.4,41.4-17.1,2.3-.6,4.8-.7,7.1-1.4,8.8-2.8,9.3-5.9,4.3-13.6-6-9.3-14.4-14.8-23.8-20.4-10.8-6.4-21.3-14-29.1-24.2v-1.8c5-5.3,10.3-2.3,14.6.5,5.4,3.5,10.3,7.4,16.9,8.4,1.7.3,3.1,1.9,3.2,3.9h0Z"/>
      <path class="cls-10" d="M703.6,1032.5h-69.4c-6.5-8.2-5.9-15,2.5-20.3,3.7-2.4,5.5-5.3,5.8-9.6.2-2.4-.4-5.9,1.2-7,11.6-7.6,11.7-21.7,18.6-32.1,5.8-8.6,12.1-16.1,19.6-23,.8-.6,1.7-1,2.8-1.1,1.1,0,2.1.3,3,.8,6,7.2,2.8,16,4,24,1.7,7.4,1.4,15.1,3.9,22.4,0,12.2,7.2,22.4,9.3,34,.7,4.1,2.8,8.2-1.2,11.8h-.1Z"/>
      <path class="cls-60" d="M683.5,941.2c-2.6,4.5,1.5,14-9.3,12.3-.2,0-.7.3-.7.5.4,11.9-16.3,15.6-13.9,28.7.7,3.6,0,7.7-4.3,9.1-7.3,2.3-8.6,7.6-8.4,14.2.2,5.4-.7,9.5-7.7,11.1-8.4,2-3.9,10.1-5,15.5h-45.7c16-26,34.2-50.2,56.5-71.3,6.5-8.2,14.4-15,22-22,1.2-1.2,2.4-2.4,3.6-3.6,4.2-2.5,6.9-6.7,11-9.2l3.3-3.8c1.1.5,1.9,1.3,2.4,2.4.6,5.5,2.5,11.2-1.9,16.1h-1.9Z"/>
      <path class="cls-24" d="M263.4,92c4.2.9,8.1,2.3,11.6,4.9,2.4,1.8,5.2,2.5,7.1-.6,2-3.2,1.6-6.7-1.9-8.7-3.9-2.2-8.1-3.8-14-6.4,9.7-2.3,10.2-8.4,10.1-15.4-.3-24.8-.1-49.6-.1-74.4h40.2c-.4,11.5-.8,22.9-9.8,31.8-1,1-1.2,2.8-1.6,4.2-7.4,24.7-11.7,49.8-10.1,75.6.5,7.3-1.5,7.4-7.3,5.5-5-1.6-9.9-3-13.1-7.5-4.3-2.3-11.5-1-11-9.1h0Z"/>
      <path class="cls-27" d="M-410.6,758.6c7.2-.3,12.2,4.8,16.4,8.8,8,7.7,17.6,12.4,26.9,17.9,8.2,4.8,11.3,14,18.5,19.8,3.2,2.6,2.6,7.3-.9,10.5-1.8,1.6-3.8,3.8-5.9,4.1-19.1,2.6-36.3,11.6-55,15.6v-76.7h0Z"/>
      <path class="cls-26" d="M385.8-8.5c4.5,7.9,8.2,16.4,17.6,20.1,1.5.6,2.8,2.5,3.4,4.1,3.3,9,10.6,13.7,18.9,17.2,5.8,2.5,12.4,3.9,12,12.4,0,.8.7,2.2,1.3,2.3,10.6,1.6,12.6,13.5,21.1,17.6.8.4,2.1.8,2.2,1.5,2.9,11.1,14.4,14.2,20.8,22.3,5.9,7.4,13.5,14.5,21,20.8,5.1,4.3,7.1,11.3,14.1,13.9,5.2,1.9,7.4.9,8.3-4.2l3.6,7.3c-1.7,3.5,1.9,7.8-1.8,10.9-4.3,1.1-1.5,9-6.8,8-5.5-1-7.6-6.1-9.3-11.3-1.6-4.9-5-8.5-9.6-11.6-7.7-5.1-12.6-13.4-19.7-19.5-9.6-8.2-18.8-17.4-27-27-6.5-7.6-17.3-11.5-20-22.4-.3-1.2-2-3-3.1-3-10.2-.2-16.3-9.9-26.6-10.7-6-.4-8.5-8.1-11.9-13-2.3-3.4-5-5.3-8.4-7.4-9.3-6-17.8-13.2-26.5-20-2.5-2-3-5.2-3.1-8.3h29.5Z"/>
      <path class="cls-42" d="M-388.7,718.4c10.7,1.4,20.2,6.7,29.7,11,11.2,5.1,22.4,11.6,33.4,15.6,20.4,7.4,39.6,17.8,60.6,23.6,7.9,2.2,14.9,6.5,21.9,11,5.9,3.8,13,5.4,19.5,8.1,23.9,9.8,47.2,20.9,68.8,34.9,12.7,8.2,21.4,21.2,31.9,31.9,8.8,9,14.4,19.9,20.3,30.9,10.1,18.6,14.2,38.7,16.6,59.2,3.7,30.6-2.9,59.7-14.2,87.9h-9.1c-6-6.8-3-15.9-.3-20.8,6.5-11.7,7-24,8.2-36.4,3.1-20.7,6.4-41.7.3-62-5.2-17.1-9.3-35.3-23.3-48.3-4-3.7-3.5-12.4-12.1-11.3-.9,0-1.9-.1-2.7-.5-3.8-2.5-6.2-6.3-6.8-10.3-1-6.4-5.4-9.7-10.1-12-11-5.5-19.8-15.5-32.8-17.1-1.1-.7-2.3-1.3-3.5-1.8-14.9-10.6-30.5-19.8-49.3-21.5-4.2-.4-8-1.6-11.3-4.3-4.8-10.3-13-13.5-23.7-11.6-2.4.4-4.8.1-7.1-.8-2.6-.8-5.5-.6-7.6-2.7-5.2-8.6-14.6-9.6-22.9-12.5-2.2-.8-4.6-1.2-6.9-2.1-7.4-1.6-13.8-5.4-20.4-9-2.5-3.8-5.2-7.4-10.7-5.5-3.5-1-7.5,0-10.8-2.2-6.9-4.9-13.3-10.4-21.8-12.6-3.5-.9-7.6-3.6-3.9-8.7h0Z"/>
      <path class="cls-10" d="M-291.8,1032.5c2.3-4.2,4.5-8.4,6.8-12.7,9.2,8.1,17.3,9.8,25.6,2.6,9.5-8.4,20.4-6.5,30.9-7.1,4.7-.3,8.3,0,10-5.3,2.1-6.5,7-8.7,13.5-8.6h14.6c2.4,0,5.6.3,6.7-2.1,4.8-10.6,14.9-10.2,23.4-10.2s15.2-3.6,17.5-12.9c2.8-11.3,11.8-20,12.7-32.3.6-8.1,1.3-15.8-2.3-23.2-2.3-4.8-2-9.4-.5-14.2,7.2.8,7.9,6.5,8.1,11.8.4,11.5,2,22.9,1.4,34.4-.3,5.2-.2,10.5-2.7,14.9-8.6,15.1-13.1,32.5-27.1,44.7-7.2,6.2-15.4,6.8-23.6,7.9-6.2.8-11.5,2.2-16.3,6.7-5.7,5.5-13.3,3.8-20.2,2.6-6-1.1-11.7-2.7-16.3,2.9h-62.2Z"/>
      <path class="cls-78" d="M-191.4,831.6c-15.3-7.9-29.9-17.1-46.5-22.6-9.9-3.3-18.8-9.6-27.9-15-12.6-7.5-27.4-9.9-40.1-17.1-16.2-9.3-34.1-14.8-50.7-23.7-12.1-6.5-24.4-14.7-38.8-16.7-5.4-.7-9.2-6.2-15.2-5.3v-11c6.9-3.1,11.4,2.9,16.2,5.3,12.8,6.3,26.6,10.3,39.3,16.3,21.3,10.1,43.7,17.9,64.5,29.3,8,4.4,17.4,7,26.6,9.1,10.2,9.9,23.7,13.8,36.2,19.3,7.5,3.3,14.7,7.3,22.8,9.4,10,1.4,14.1,11.9,23.2,14.6,12.3,3.6,19,12.9,26.7,22.4,7.9,9.9,17.7,18.3,24.7,29.1,2.7,4.2,3.5,9.3,8,12.6,2.6,1.9,2.3,6.1-.8,8.8-3.7,1.5-6.4-.8-9.3-2.3-11-18.1-22.3-36.2-39.5-49.3-6.2-4.7-12-9.9-19.2-13.2h-.2Z"/>
      <path class="cls-17" d="M815,1032.5h-16.4c-11-10.1-18.2-22.8-26.2-35.2-9.8-15.3-17.5-31.6-26.6-47.2-8.1-13.8-12.5-29.5-21.6-42.9-2.8-4.2-1.2-8.8-.7-13.2,14.3-14.5,22.8-7.6,29.2,7.7,7.6,18.2,14.7,36.5,24.8,53.6,5.8,9.8,13.1,18.6,17.3,29.5,5.1,13.3,16.2,23.3,22,36.5,2,4.6,2.2,8-1.7,11.2h0Z"/>
      <path class="cls-69" d="M815,1032.5c-1.5-10.9-7.2-20.1-13.8-28.3-10.4-12.9-15.4-28.6-24.7-42-8.3-11.9-13.6-25.5-20-38.5-3.2-6.6-6.7-12.6-8.3-20-2.9-13.5-11.2-16.2-22.7-8.3-.7,1.9-2,3.3-4.1,3.8-1.6,0-2.9-.4-4-1.6-1.1-2-.4-3.8.3-5.6,6.3-5.7,14.9-7.7,21.2-13.4,1.3-.4,2.7-.8,4-1.2,1.8-.3,3.6,0,5.4-.1,11.4-.8,11.3-.8,12.2,10.6.3,4.2,1.4,8.6,3.6,12.1,9.3,14.6,16.7,30.1,23.6,45.9.6,1.4,1.2,3.2,2.6,3.7,10.5,3.9,11,14.2,15,22.5,8.8,17.7,17,36,31.3,50.3,3.4,3.4,3.9,6.7.2,10.1h-21.9,0Z"/>
      <path class="cls-79" d="M-191.4,831.6c4.5-.2,8.1,1.7,11.7,4.1,21.3,14.3,35.9,34.3,48.6,56.1,9,10.5,9.1,23.8,11.8,36.4,2.1,9.8,3.5,20.1,2.7,29.5-.9,11.8-3.1,24.4-8.9,35.4-2.2,4.3-3.5,8.9-6,13-8,13.3-18.8,23-34.4,26.4h-63.9c1.7-10.9,4.5-12.4,14.3-7.6,10.8,5.2,13.5,4.8,21.3-5,2.7-3.3,6-4,9.7-3.8,23.8,1,37.6-11.5,44.7-33.1.4-1.1.7-2.4,1.4-3.3,15.7-18.9,11.3-41.1,10.3-62.7-.2-4-2.4-7.5-5-10.5-7.7-27-23.6-48-46.8-63.5-4.7-3.1-7.2-8.2-11.7-11.3h.2Z"/>
      <path class="cls-48" d="M-410.6,890.1c2.3-.7,5.4-.7,6.7-2.2,9.5-11.4,22.7-10,35.2-10.4,6.9-.2,13-.9,18.4-5.9,4.3-3.9,10-6.3,15.8-6.5,8.5-.2,14.8-4.5,21.2-9.2,5.6-4.1,11.6-8.2,19.1-6,5.6,1.7,10.7,3.2,13.9-3.7,3.2-7.2.3-16.1-4.5-20.5-18.2-16.6-39.7-28.2-59.5-42.4-.9-.7-1.5-1.9-2.3-2.8,12,0,20,9.3,30.2,13.5,8.4,3.5,17.8,6.7,22.7,15.7,1.3,5.2,5.9,6.6,10,8.4,13.2,5.8,19.8,16.7,19.3,30.8-.3,8.1-4.3,10.9-11.8,9.4-6.6-1.3-12.8-2.4-15,6.6-.6,2.5-3.2,4.3-5.6,3.9-10-2-19.8,2.5-29.8,0-5.7-1.4-10.4-.4-14.1,5.2-4.8,7.3-13.6,7-21.1,8.6-4.6,1-8.8,1.8-12.3,5.2-1.7,1.6-4,3.4-6.1,3.5-10.7.7-20.4,4.9-30.4,7.9v-9.1h0Z"/>
      <path class="cls-53" d="M837,1032.5c-.3-1.2-.1-3-.8-3.5-12-7.5-15.3-21.3-23.2-31.7-7.1-9.3-13.1-19.4-15.1-31.2-.9-5.1-2.1-9.6-8.4-10.1-2.5-.2-3.9-1.8-4.4-4-2.8-13-12-23-16.2-35.4-2.8-8.2-11.8-13.1-12-22.7,0-.9-1.1-1.9-.9-2.5,5.7-16.3-6.2-8.5-12.1-8.8-1.1-6.9,5.6-7.8,8.8-11.4,3.5-1.7,7.3-1.5,11-2.1,6.8-.1,8.2,4.4,7.6,9.7-.7,5.4,0,10.3,2.6,14.8,6.6,11.7,8.2,25.8,17.7,36,1.8,1.9,2.2,4.2,2.6,6.6.5,3.5,2.2,5.8,5.5,7.5,6.3,3.3,11.2,8.2,13.4,15.2,4.1,4.8,8.7,9.1,9.2,16.1.1,2.1,2,3.6,3.5,5.1,12.1,11.9,18.8,27.4,27.3,41.7,2.6,4.4,1.7,8.1-3.2,10.4h-12.8v.3Z"/>
      <path class="cls-34" d="M1434.2,641.7c-4.4.3-8.1,2-11.3,5.3-8.3,8.6-20,12.1-29,19.7-10.5,8.8-24.3,12.7-33.6,23.6-4.2,4.9-10.4,8.3-16.2,11.5-16.9,9.4-32.1,21.3-49.3,30.5-10.5,5.6-21.5,11.8-30.4,21.8-9.3,10.4-20.2,20.2-32.1,28.3-5.6,3.8-7.8,13.3-17.3,11-6.5-8.6-5-14.4,4.6-16.3,3.6-.7,4.7-3.2,6.3-5.6,4-2,8.2-3.6,10.3-8.3,2-4.6,6.5-6,11.3-6.5,7.6-.9,14.4-2.8,16-12,.6-3.5,3.4-5.1,7.4-5.5,8-.6,13.3-4.5,17.6-12,4.2-7.2,13.5-10.2,21.6-12.4,6-1.7,10.3-3.9,13-9.8,3.5-7.6,8.8-13.3,18.2-14.7,8.6-1.2,16.2-5.6,21.1-13.2,2.9-4.4,7.1-7.2,11.6-8.3,14.8-3.6,24.3-15.6,37-22.7,7.5-4.2,14.9-7.7,23.1-9.8v5.5h.1Z"/>
      <path class="cls-30" d="M1154.8,68.2c-28.8,7.6-50.1-6-58.5-33.5-4.4-14.4-2.4-28.8-1.8-43.2h31.1c2.7,2.2,4.2,5,4.3,8.6.4,16.5,5.4,32.6,4,49.4-.7,8,2.8,13.4,11.6,14,1.9.9,3.8,1.4,5.8,1.9,1.5.5,2.8,1.3,3.5,2.8h0Z"/>
      <path class="cls-62" d="M-138.4,849.9h1.8c14,12.6,24.5,27.7,30,45.8,1.5,4.7,2.9,9.5,5.5,13.6,6.3,10.1,3.9,21.5,5,32.3,1.2,12,1.5,24.1-.4,36.2-3.3,4.4.6,9.1-.7,14-1.8,6.4-3,12.5-7,18.2-4.6,6.6-1.6,15.4-5,22.6h-14.6c-3.4-3-2.7-5.9-.8-9.7,8.4-16.8,13.9-34.1,15.3-53.2.8-11,.5-21.8.5-32.6s-1.3-13.6-4.1-19.7c-3.6-8-6.8-15.8-8.6-24.5-1.3-6.3-5.9-11.8-9.6-17.2-11.3-17-24.5-32.8-40.8-44.6-8.7-6.3-17.8-13-27.9-17.5-2-.9-4.1-1.8-2.6-4.7,2.1-2,4.5-1.8,6.9-1,1.4.5,2.8,1.1,4,2h3.6c6.7,7.1,16.6,8.9,24.4,14.7,9.9,7.3,17.2,16.4,24.9,25.5l.2-.2Z"/>
      <path class="cls-73" d="M849.7,1032.5c1.2-11.8-7.5-19.1-13.2-27.4-2.5-3.5-5.2-6.4-5.4-10.8,0-1.2-.5-3.1-1.2-3.3-12.7-4-10.7-19.4-20.4-25.8-1-.7-1.3-2.6-1.9-4-2-6.5-2.6-13.7-10.2-16.9-1.7-.7-2.4-3.2-2.8-5.3-.9-4.8-3-8.6-6.9-12.1-6.7-6.1-6.3-26.4-.2-33.3,7.6,9.1,11.6,20.3,17.7,30.2,6.9,11.2,11,24.1,20,34.2,3.6,4.1,6.4,8.8,8.3,14,4.6,12.7,13.5,22.8,19.9,34.4,4.8,8.7,14.5,14.7,14.5,26h-18.3.1Z"/>
      <path class="cls-55" d="M721.9,897.4c1.2-.6,2.4-1.2,3.7-1.8,2.6,13,11.4,23.2,16.4,35.1,9.3,21.8,21.4,42.2,33.8,62.5,7,11.4,14.3,22.5,22.1,33.3,1.4,2,.9,4,.7,6.1h-14.6c-10-2.4-14.2-11.2-18.2-18.9-4.7-9.1-10.3-17.8-14.6-27.2-4.8-10.5-10-20.8-16.7-30.2-7.3-10.2-10.2-22.5-16-33.5-3.4-6.4-7.9-11-12.5-16.1-.5-5,3.4-6.2,6.8-7.8,3-.9,6.4,1.2,9.1-1.4h0Z"/>
      <path class="cls-67" d="M707.2,906.4c7.4-2.4,10.2,1.9,12.8,7.9,5.5,12.7,10.5,25.7,17.5,37.5,11.2,18.7,20.8,38.2,31.2,57.4,4.4,8.2,10.2,15.6,15.3,23.4h-14.6c-5.2-3.1-9.2-7-12.5-12.4-15.6-25.4-30.1-51.4-42.1-78.8-4.5-10.2-10.5-19.7-16.3-29.2-.5-2.1.4-3.8,1.9-5.3,2.2-1.6,4.5-2,6.9-.4h0Z"/>
      <path class="cls-19" d="M1145.6,68.2c-15.7,0-17.2-.8-16.2-16.3,1.3-20.4-5.7-40.1-3.9-60.4h16.4c8.5,5.6,12.7,13.8,13.3,23.7.8,14.3.6,28.5-1.6,42.7-.8,5.4-4.7,7.5-8,10.4h0Z"/>
      <path class="cls-70" d="M699.9,912c9.3,6.6,14.8,16.4,18.8,26.3,8.8,21.7,20.3,42.1,31.6,62.4,6,10.7,13.3,20.8,19,31.9h-14.6c-7.6-3.3-9.9-10.6-13.6-17.1-10.2-17.9-20.9-35.4-30.6-53.6-5.6-10.5-10.2-21.5-14-32.8-1.5-4.6-1.8-9.2-.8-13.9.5-1.4,1.4-2.4,2.7-3,.5,0,.9,0,1.4-.1h.1Z"/>
      <path class="cls-34" d="M-202.3,809.7c20.5,11.2,40.2,23.8,55.6,41.5,12.1,13.9,24.5,27.9,29.3,46.4,2.8,10.9,9.6,20.3,10.9,31.8,2.1,20.3,3.4,41.1-2.1,60.4-3.6,12.8-2.1,28.3-14.1,38.4-.9.8-.8,2.9-1.1,4.3h-9.1c-4.3-6.5.8-11.6,3.3-16.4,16.2-30.7,20.1-62.7,10.6-96.1-2.2-7.6-1.1-15.8-4.8-23v-1.5c-2.8-9.6-8.3-17.9-13.9-26-8-11.7-19.9-20.1-27.6-32.2-4.2-6.6-12.4-6.9-18.4-10.6-7.7-4.7-13.8-11.8-22.3-15.2-.7-1.5.2-2.2,1.4-2.7.8,0,1.6.3,2.2.9h0Z"/>
      <path class="cls-40" d="M698.1,915.6c3,23.9,16.9,43.2,27.5,63.8,9.3,17.9,21.8,34.1,29.1,53.1h-14.6c-8.4-9.6-13.7-21-19.8-32-2.2-4-4.1-8.1-7-11.8-4.6-6-9.3-12.1-10.5-20.1-.5-3-2.1-6-5-7.6s-4.2-4.2-5-7.2c-3-11.3-7.2-22.5-5.3-34.6,2.8-3.2,5.3-7.2,10.5-3.6h0Z"/>
      <path class="cls-41" d="M1145.6,68.2c6.9-18.4,6.2-37.5,4.5-56.6-.7-7.5-7.4-12.6-8.1-20.1h23.7c4.8,3.7,4.4,9,4.5,14.2.2,18.5,2.8,36.8,2.8,55.2-2.1,2-4.5,3.1-7.3,3.7-4.1,4.4-10,1.4-14.6,3.6h-5.5Z"/>
      <path class="cls-83" d="M-264.5,782.3c-9.4,1.4-17.2-3.6-25-7-22.4-9.7-44.2-20.8-66.5-30.5-13.3-5.8-27.6-9.3-40.3-16.5-4.7-2.7-9.5-5.3-14.2-8v-5.5c6.4-3.1,13.3.4,16.5,3.5,9.1,8.8,21.5,10.6,31.4,17.3.5.3,1,.7,1.4,1.2,3.4,2.1,7.2,1.8,11,1.8,2.9,3.3,7.8,2.6,11,5.5,5.6,5.4,12.5,7.2,20.1,7.3,9.6,5.8,20.6,9,29.2,16.4,2.2,1.5,4.7,1.8,7.3,1.8,11.8,1.9,22.8,5.3,31.1,14.6,3.7,1.2,7.3,2.4,11,3.7,9.2.4,17.1,3.3,22.7,11.1-2.3,5-6.2,2.9-9.2,1.5-11.6-5.2-23.2-10.4-34.8-15.4-1.1-.5-1.7-1.7-2.4-2.7h-.3Z"/>
      <path class="cls-71" d="M-165.8,1032.5c9.4-4,14.1-13.6,22.8-19,8.9-5.4,13.2-16.6,16.3-26.5,1.5-4.6,2.6-9.6,4.2-14.4,4.2-12.4,2.9-25,1.2-37.6-1.9-14.7-5.6-29-9.9-43.2,2.4,1.2,4.9,2.4,7.3,3.7,6.8,20,12.1,40.3,10.9,61.7-1.7,27.7-8.5,53.7-27.3,75.3h-25.6,0Z"/>
      <path class="cls-20" d="M689,921.1c.4,3.9-.7,9.1,1.4,11.4,7,7.5,2.6,19.1,9.4,25.8,8.2,8,10,19.2,16.4,28.1,9,12.5,15.6,26.6,23.3,39.9,1.2,2.1.9,4.1.6,6.2h-7.3c-8-4.8-13-12.2-16.4-20.6-3.6-9-9.3-16.9-14.4-24.9-2.9-4.5-3.9-9.4-6.3-13.8-1.7-3.1-3-6.6-6.9-7.8-3.1-7.7-.6-16.3-3.4-24.1v-16.3c1.1-1.2.4-3.1,1.5-4.3.8-.3,1.5-.1,2,.5h0Z"/>
      <path class="cls-78" d="M1202.3,24.4c-2.4,8.5-11.1,12.4-14.7,20.1-5.7,5.6-6.5,5.3-10.2-1.1-3.4-5.9-2.4-12.4-3-18.6-.8-7.6-.4-15.2-.3-22.7,0-4.1.9-7.8,4.4-10.5h18.3c6.6,7.4,5.8,16.4,5.4,25.2,0,2.6-1.3,5.1.2,7.7h-.1Z"/>
      <path class="cls-14" d="M1178.5-8.5c.3,14.2.6,28.3,1.1,42.5.2,6.7,3.8,11.3,8.1,10.5-2.7,7.4-9,11.6-14.6,16.4-4.7-.7-5.5-4.1-5.4-8,.5-20.5-3.3-40.8-1.9-61.4h12.8,0Z"/>
      <path class="cls-87" d="M-410.6,738.5c5.3-.3,9.8,1.5,14.7,3.7,28.5,13.2,57.7,24.9,85.8,38.9,20.1,10.1,42.3,16.3,60.3,30.5.6,1.2,1.2,2.4,1.8,3.7-5.8,3.4-10.1-1.4-14.2-3.6-11.6-6.4-23.5-12.1-35.2-18.3h0c-10-3.7-19.7-8-29.2-12.8-24.9-11.6-50.5-21.8-74.7-34.8-2.9-1.6-6.2-2.4-9.3-3.6v-3.7h0Z"/>
      <path class="cls-84" d="M688.9,965.3c.1-2.1.3-4.1.4-6,7.2,3.4,10.7,8.9,11.6,16.3.5,3.9,2.5,7.2,5,10.4,11,14.3,18.9,30.5,27,46.6h-12.8c-13.6-10.2-19.2-25.2-24.3-40.4-.7-2.1-1.1-3.9-3.3-4.8-2.6-7.1-3.6-14.5-3.6-22h0Z"/>
      <path class="cls-78" d="M-140.2,1032.5c7.4-13.5,14.1-27.2,19.3-41.8,6.9-19.4,6.9-39,4.5-59.2-1.5-12.3-7.2-23.5-7.3-36,7.9,6.2,6.5,16.1,8.5,24.2,8.5,34.4,5,67.8-12.4,99.2-2.3,4.2-3.5,9-5.2,13.5h-7.4Z"/>
      <path class="cls-65" d="M1202.3,24.4c-3.5.7-5.7-1-5-4.3,2.1-9.6-1.8-19.1-.6-28.6h29.2c-7.1,11.5-15.1,22.4-23.7,32.9h0Z"/>
      <path class="cls-56" d="M692.5,987.3c.1-1.8.3-3.6.4-5.4,7.4,17.8,20.2,32.7,27.2,50.7h-16.4c-4.3-15-9.7-29.6-11.2-45.3h0Z"/>
      <path class="cls-58" d="M263.4,92c2.9,4,8.7,4.4,11,9.1v5.4c-4.2,2-8.1,1.4-11.6-1.6-13-11.6-23.1-25.3-28.5-42.1h0c-13.8-21.8-21-45.2-18.3-71.2h3.7c-.3,29.6,9.4,56,25.6,80.4,8.4,4.6,12.2,13.3,18.2,20.1h0Z"/>
      <path class="cls-48" d="M-375.9,769.5c-12.3-2.2-21.4-13.1-34.7-12.8v-7.3c8.1.6,14.7,4.1,21.2,9,7.4,5.6,17,7.2,25.3,11.2,6.4,3,12.2,6.2,17.4,10.9-7,.3-12.8-3.2-18.4-6.7-3.4-2.1-6.7-4.1-10.8-4.3h0Z"/>
      <path class="cls-72" d="M-361.3,736.7c-17.4-5.2-32.3-15.9-49.3-21.9v-7.3c7.1,4.1,16.3,4,21.9,11,1.2,4.8,5.2,6.1,9.3,7.4,6.9,2.2,13.5,4.9,18.1,10.9h0Z"/>
      <path class="cls-38" d="M215.9-8.5c-.8,25.5,7,48.8,18.3,71.2-5.8-1.7-6.5-7.4-8.5-11.6-8.7-18.8-12.9-38.7-11.6-59.6h1.8Z"/>
      <path class="cls-39" d="M919.2,1027c11.3-5.1,13.4-4.4,16.4,5.5h-16.4v-5.5Z"/>
      <path class="cls-24" d="M323.7-8.5c-.5,1.7.9,4.8-2.2,4.6-1.7-.1-1.2-2.9-1.4-4.6h3.7-.1Z"/>
      <path class="cls-57" d="M425.8,405.7c-1.5-8.5-3-16.9-13.1-19.8-.3,0-.6-.3-.7-.5-3.7-10.2-11.3-13.8-21.8-12.9-1.8.2-3.3-1.6-3.5-3.7-.2-2.8,1.6-4.4,3.8-5.7,3.3-2,8.1-3.3,6.7-8.4-1.6-5.6-6.9-5.5-11.4-5.1-10,.9-15.6-3.8-17.9-13-1.5-5.9-5.5-8.7-10.4-11.8-8.6-5.5-19.1-9.3-22.1-20.9-.9-3.3-4.6-3.7-7.1-5.2-10-6.2-19.6-12.4-17.8-26.8.8-6.6-3.5-9.6-10.1-10.1-11.9-.9-23.8-13.8-24.2-26-.3-7-.2-14,0-21,.2-6.4-.5-12.1-7.2-15.3-2.3-1.1-3.7-3.5-3.5-6,.5-9.3-4.4-16.1-9.4-23.1-6-8.4-6.9-18.7-9.3-28.4-1.8-7.4-4.2-14.4-7.2-21.5-4.7-11.1-6.6-23.2-8.2-35.2-.7-5.1,5.5-8.1,4.6-13.4,1.9-.8,2.9.4,3.4,1.9,2.8,9.7,9.9,17.5,7.2,29.6-2,9.3,7.3,16.6,14.7,22.2,3.8,2.8,7.2,5.1,8.8,9.7,2,5.6,6.2,10.3,10.8,13.2,14.4,9.2,23.7,23.3,35.7,34.6,8.5,8,15.8,17.1,24.4,25,2.1,1.9,4.4,3.2,7,4,3.8,1.2,6.3,3.6,7.3,7.5,1.1,4.4,3.9,7.7,7.4,10.1,16.4,11.1,26.6,28.5,41.6,40.7,6,4.9,10.9,11.3,17.9,15,2.2,1.2,4.1,2.7,5.3,4.9,10,18.4,26,31.4,41.4,44.9,2.1,1.8,4.1,3.6,5.1,6.2.6,1.7,1.3,4,2.9,4.5,12,4.1,15.5,18.1,27.1,22.8,4.2,1.7,7,5.6,9.1,9.8,3.7,7.3,9.6,12.6,17,15.8,6.7,2.8,9.8,7.4,10.1,14.6.5,12.6,7.4,20.6,19.2,24.5,4.3,1.4,5.6,4.1,4.1,8.3-4,11.1-6,23.1-12.3,33.3-2.8,4.5-1.5,9.5-3,14.1-3.9,8.8-8,17.6-13,25.8-3.7,3.9-4.2,10.7-10.7,12.1-.9,0-1.8-.3-2.6-.8-2.8-5.2-7.7-8.5-11.1-13.1-7.3-19.4-15.9-38.3-26.7-56-3.5-11.2-8.8-21.6-13.1-32.5-2.3-5.8-8.3-7.6-12-11.9-1.6-1.6-3.3-3-5.6-3.6-2.5-.6-5.2-.6-7.8-1.2-3.2-.9-6.3.3-9.5.6-2.8-1-5.9.4-8.7-.8-.7-.5-1.2-1.2-1.4-2.1h-.2Z"/>
      <path class="cls-38" d="M583.2,411.5c-13.4,22.7-23.5,47.1-36,70.2-1.3,2.4-2.8,4.6-4.2,6.9-1.3-5.9,1.7-10.9,4.6-15.3,6.2-9.6,8.2-20.6,11.7-31.1,1.1-3.4,1.3-4-2.9-4.9-10.2-2.1-20.4-15.7-20.8-26.6-.2-6-1.9-9.4-8.4-12-7-2.8-13.7-7.9-17.1-15.5-2.4-5.5-6.2-9.5-11.5-12.5-6.2-3.6-13.1-6.6-15.1-14.7-.5-2.2-3.2-2.5-5.3-3.1-2.4-.6-4.9-1.3-6.3-3.4-12-17.7-29.5-30.2-43.1-46.3-5.4-6.4-9.9-13.4-16.5-19.1-11.7-10-23-20.8-33.3-32.3-7.8-8.7-19.7-14.1-24.7-23.5-6.3-11.8-18.6-15.2-25.5-24.9-9.3-13-23.2-21.8-31.7-35.5-3-5-8.3-8-13.1-11.1-8.2-5.4-15.3-11.8-19-21.2-.5-1.4-1.5-3.4-2.5-3.6-11.1-1.3-11.8-13-18.7-18.5-1.9-1.5-4-5.8-3.2-7.1,5.9-9.6-5.2-17.6-2-26.9.9-2.6-.9-5.3-2.5-7.6-.6-3-1.2-6.1-1.8-9.1,8.6,14.2,19.4,26.6,31.1,38.3,5.3,3.6,9.1,9.5,16.2,10.3,2.3,1,4.2,2.6,6.7,3.1,3.2,3,7.1,4.3,11.4,5,.9.2,1.7.4,2.5.8,10.2,5.3,21.1,8.2,32.4,9.8.8.4,1.4,1,2,1.8.4.8,1,1.8.6,2.6-2.7,6-6.1,11.5,1.6,17.2,4.9,3.6,6.8,10.9,14.2,11.8,1.9.2,3.4,1.5,4.5,3,10,14,25.6,22.5,35.5,36.5,1.4,2,3.1,3.8,5.1,5.2,14.6,10.5,27,23.8,38.5,37,9.3,10.8,19.7,21,27.9,32.9,2.1,3.1,3.8,6.1,7.5,7.5,1.7.6,3.3,1.7,4.4,3.1,12.8,16.2,29,29.1,43,44.1,4.5,4.9,9.7,9.2,14.5,13.7,8.6,8.1,18.6,14.7,24.1,25.7.8,1.6,2,3.3,3.5,4.1,11.4,6,16.3,18.3,25.8,26.2,1.1,4-2.3,6.1-3.7,9h-.4Z"/>
      <path class="cls-57" d="M420.9,411.7c-3,.7-4.2,3.2-5.8,5.3-1.6-1.8-3.2-3.6-4.8-5.4-1.7-1.8-.8-5.6-.4-5.3,5.6,3.3,10.6-8.1,16.1-.6.2.3.4.6.6.9,0,3.6-2.3,5-5.6,5.1h0Z"/>
      <path class="cls-88" d="M214.4,578.8c.4,5.1.8,9,1,12.8.2,3-.7,5.7-4.4,5.5-3.8-.3-4.3-3.2-3.2-6,1.4-3.9,2.1-8.2,6.5-12.3h0Z"/>
      <path class="cls-46" d="M71.6,561.4c-3-.6-6.1-1.2-9.1-1.9-.9-1.1-3.2-1.7-2.4-3.3,1.7-3.1,12.8-2.8,14.6.3,2,3.4-1.1,3.9-3.2,4.8h.1Z"/>
      <path class="cls-3" d="M255.8,401.8c1.8,4.6-1.9,7.1-3,11.8-1.5-5.1-.5-9,3-11.8Z"/>
      <path class="cls-4" d="M535.7,630.7c-1.6-.3-3.2-.4-2.6-2,.3-.7,1.9-1.1,2.9-1.2,1.1,0,2.6.4,2.1,1.9-.3.7-1.8,1-2.4,1.3Z"/>
      <path class="cls-31" d="M564.9,595.9c-.6,2.7.5,6.1-3.7,7-1.2-3.7,1-5.4,3.7-7Z"/>
      <path class="cls-31" d="M579.5,599.6c-.4,2,0,5.3-2.4,5.1-2.9-.3-1-2.5,0-3.7.6-.6,1.5-.9,2.4-1.4h0Z"/>
      <path class="cls-29" d="M305.1,402.5c-.5,0-1,.2-1.5.3,0,0-.1-.5-.2-.8.5,0,1-.2,1.5-.3,0,0,.1.5.2.8Z"/>
      <path class="cls-31" d="M558.3,594c1.4-2.5,2.9-5,4.3-7.6.2,3.4-1,6.1-4.3,7.6Z"/>
      <path class="cls-66" d="M316.4,123c2.6-2.2,4.6-4.9,1.1-7.5-2.7-2-7.8-1.9-6.3-7.1,1.8-6.3-.8-14.3,5.5-18.7,9.9-7,14.5-15.4,14.9-28.1.6-16.6,24.9-29.7,37.3-19.3,7.9,6.6,18.7,7.5,24,13.3,8.6,9.4,19.3,13,29.3,18.8,4.8,2.7,6.7,9,11.6,12.5,5,3.6,11.3,2.4,15.9,6.3,13.7,11.5,28.2,22.3,36.4,39,1.1,2.2,2.5,4.6,5.1,4.9,9.6,1,14.4,8.2,19.7,14.9,7.7,9.8,20.4,15.5,23.9,28.8.4,1.5,2.3,3,4.4,2.7,2.7-.4,3-2.7,3.3-4.8,1.1-7.1-1.2-13.9-1.6-20.9,4.7,0,4.2,4.1,5.5,6.9,1.4,3.1,0,6.6,1.8,9.6h0c2,5.4,3.9,10.9,5.5,16.5v5.4c2.7,9.9,5.3,19.9,8.5,29.6,1.3,3.9,1,7.1-.3,10.5-2.3,6.3-7.5,7.8-11.6,2.6-15.3-19.4-35.8-33.8-51.2-53-1.9-2.4-4.2-4.4-6.9-5.9-5.2-2.7-8-6.8-9.4-12.6-2.1-8.5-9.1-13.4-15.6-18.4-4.1-3.1-8.3-5.7-9.6-11.5-1.2-5.3-6.6-6.8-10.9-9-5.9-3-12-5.3-15.8-11.7-2.7-4.5-8.2-4.1-12.4-1.9-10.4,5.6-21.7,4.5-32.8,4.5s-9-.2-11.2,5.2c-1,2.4-3.4,3.9-5.7,4.2-15.6,1.8-31.3,4.2-46.9-.4-2.3-.7-6.7-.5-5.8-5.3h.3Z"/>
      <path class="cls-75" d="M584.9,402.5c-4.5,2-7.9,2.1-9.7-3.7-2.4-7.5-7.4-13-14.5-16.8-3.6-1.9-6.1-4.8-8-8.4-5.5-10.5-14.5-17.5-24-24.1-4.9-3.5-9.2-8.2-12.6-12.7-11.2-14.7-28.2-23.5-38-39.4-2.7-4.4-6.7-7.8-12.4-8.4-2.2-.2-4.5-1.3-4.8-3.6-1.9-11.8-11.6-17-19.6-23.7-1.1-.9-2.7-1.9-3.1-3.1-6.9-17.7-23.4-26.8-35.5-39.9-14.5-15.8-30.4-30.4-45.6-45.6-.9-.8-1.5-2.7-2.3-2.7-12.5-.5-15.4-12.8-23.3-18.8-9-6.9-9-8.1-.4-15.2,1.4-1.1,2.4-2.7,3.5-4,14.3-3.9,28.9-2.9,43.4-2.1,2.5.1,5.1,1.7,6.1,4.6-.4,5.8-4,10.7-3.7,17.2.5,9.3,7.2,12.1,12.7,16.4,3.7,2.9,7.1,5.2,7.9,10.4.6,3.9,4.3,5.5,7.3,7.7,9.7,7.1,20.6,13.3,22,27.2.3,2.5,1.4,5.8,3.7,5.8,10.5.2,15,11,24.2,13.3,2.8.7,4.7,2.7,6.1,5.2,3.3,5.9,7.1,11.3,12.5,15.5,3.1,2.4,4.1,5.7,4.3,9.6.6,10.8,5.9,16,17.1,16.8,7.2.5,11.1,4.1,12.1,11.2,1.1,8.1,3.2,15.5,11.7,19.1,1.7.7,3.2,2.1,3.7,3.9,2.5,9.6,9.7,11.2,18.2,11.8,8.1.6,13.2,5.8,13.8,14.1.4,5,2.6,8.9,5.4,12.3,7.7,9.7,17.3,17.5,27.8,24.2,1.1.7,2.6,1.2,3.4.3,4.6-5.4,10.8-2.3,16.2-3.2,4,9.9,8.4,19.8,9.3,30.7-.5,1.3-1.2,1.4-2.2.5h-3.8c-.5-.6-1-1.3-1.5-2-1.1-2.1-2.1-4.8-4.9-2.1-2.4,2.3-5.2,2-8,2.5-1.1.4-2.4.6-3.3,1.5h-2c-3.4.9-6.9,2.9-9.2-1.8v-.5Z"/>
      <path class="cls-64" d="M382.1,137.6c-1.3-3.2-3.6-4.4-7-4.5-13.5-.2-27-.7-40.5-1h0c-.6-1.1-.3-2,.8-2.6,10.2.1,20.4-1.4,30.6-1.3,3.6,0,6.8-1.1,9.6-3.2,1-.8,2.1-1.5,3.3-1.4,11.1,1.2,22.3,1.1,33.3,2.4,5.8.7,10,4.8,10.6,11.2.8,7.9,4.8,13,12.9,14.3,3.9.6,6.2,3.2,8.8,5.9,11.3,11.4,19.2,25.9,33,34.9,2.7,1.8,3.7,4.8,5.1,7.4,2.5,5,5.1,9.7,11.4,10.8,1.9.3,3.7,1.3,4.3,3.1,5.7,15.1,20.6,21.9,30.2,33.4,7.4,8.8,17,15.8,21.9,26.5.3.5.5,1.2,1,1.5,11.2,5.8,15.8,18.7,27.4,26-1.6-6.8-2.2-12.7-3.5-18.6-.8-4-2.6-8.4,2-11.5,4.9,5.9,5.5,13.4,7.6,20.4,4.1,13.9,10.1,27.3,12.5,41.8.5,5.6,3.1,10.8,4,16.3,1.5,8.9-4.8,14.3-12.4,10.2-7.8-4.2-18.5-6.4-18.2-18.9,0-2.4-2.1-4.2-3.9-6-19-18.8-37.9-37.6-56.9-56.3-6.8-6.7-14.1-12-19.5-20.7-7.7-12.5-20.1-21.6-33.5-28.5-2.5-1.3-4.5-3.1-6-5.4-6.4-9.5-14.2-18-20.1-27.8-1.4-2.4-3.3-4.5-5.5-6-15.3-11.1-25.7-27.2-39.7-39.6-3.8-3.4-6.9-7.1-3.8-12.6l.2-.2Z"/>
      <path class="cls-37" d="M382.1,137.6c1.8,3.9,4.4,7.2,7.7,10.1,15.1,13.3,28.4,28.6,42.7,42.7,6.3,6.1,13.5,13.2,16.8,22.6,4.1,11.4,16.6,14.3,24.8,21.5,6.5,5.7,12.3,12.5,19.8,17.2,1,.6,1.8,1.6,2.4,2.7,10.4,19.1,29,30.7,43.3,46.2,11.4,12.4,24.3,23.5,36.4,35.2.8.8,2,2.3,1.7,3-4.3,10.9,5.6,11.4,11,15.1,2.5,1.7,5.3,3.4,8.3.9s3.2-5.7,2.1-9.1c-1.3-4.1-1.5-8.4-1.4-12.6,5.3,13.1,9.6,26.4,12.8,40.2,0,2.1-.4,4.2-.3,6.4.1,2.8,2.7,6.8-2.2,7.2-4.4.4-6.5-2.7-5.3-7.3.2-.8.2-1.7.2-2.6-.8,0-1.5,0-1.9.2-3.9,2.4-2.9,9.4-8.6,9.7-6.8.4-4.1-8.4-7.8-9.4-8-2.3-11.1-10-17-13.7-6.7-4.2-8.4-12.7-15.9-15.7-2.1-.8-1.7-3.2-.7-5.5,2.9-6.7-.9-12.7-8.1-12.4-10.2.4-18.5-1.7-21.1-13.3-.2-.8-.9-2.1-1.5-2.1-8.3-.6-9.6-7.5-12.7-13.2-1.7-3.1-5.7-4.1-2.4-9.4,2.7-4.4-2.9-9-8.7-6.7-5.2,2.1-7.7.5-10.5-3.6-1.8-2.7-4.7-4.6-7.2-6.8-2-1.8-5.2-4.1-4-6.6,4.1-8.4-.4-11.9-6.8-15.7-2.5-1.5-3.4-5.6-4.9-8.5-2.2-4.2-4.5-8.1-10.2-7.5-2,.2-3.8-.6-4.6-2.4-3.1-7.2-8.8-9.3-16.2-9.2-4.1,0-5.7-2.9-5.9-6.7-.7-13.2-9.1-21.1-19.2-27.7-5.5-3.6-12.7-5.3-12.5-14.8,0-2.7-6.2-6.1-10.2-8.2-11.2-6-12.4-21.5-2-30.1h-.2Z"/>
      <path class="cls-80" d="M895.4,826.2v1.8c-4.6,4.1-9.7,7.4-16,8.3-.9.2-1.7.4-2.6.6-2.9.7-6,.8-9,1.4-.8.2-1.7.2-2.6.1-2.8-1.2-5.7-.8-8.6-.4h-3.9c-6.4.5-10.8-1.4-10.9-8.7,0-1.8-.1-4.5-1.6-5-10.8-3.3-14.2-14.8-23.6-20.2-10.8-6.2-21.4-13.7-28.1-25-2-3.3-4.8-5.3-8.2-6.9-7.7-3.7-13.2-9.6-16.6-17.3-1.1-2.5-1.9-5.3-4-7-4.4-3.6-6.4-7.8-4.6-13.6,1-3.2-1.9-5.7-2.2-8.6.6-3.8,2.9-6.6,5.5-9.1,7.6-4.7,18-2,23.7,4.8,7,8.2,13.2,17.1,22.1,23.9,5.9,4.5,9.4,12.2,13.9,18.3,4.6,6.3,10.9,10.8,16.3,14.9,7.8,5.8,13.9,16.8,26.7,14.2,1-.2,2.9,1.3,3.7,2.4,5.5,7.9,13.1,10.6,22.5,11.6,8.8,1,4.6,9.6,5.7,14.8.4,2.2-1.5,4.6,2.4,4.8h0Z"/>
      <path class="cls-21" d="M378.5,128.5c-14.5,3.9-29.2.9-43.8,1.8-9.7,1.2-18.5-.5-25.8-7.4,1.9-1.3,3.8-1.1,5.7.1h1.8c16.7,7.9,33.9,4.4,51.1,2.5,1.9-.2,3.7-1.2,3.8-3.3.2-4.1-5.7-1.6-6.2-5.8,5-1.5,11-.1,15.1-4.6,1.3-1.4,3.3.1,5,.9,9.7,4.7,19.2,4.3,28.6-1.1,10.9-6.3,17.3-4.7,24.4,5.8,2,3,5.5,3.5,8.3,5.3,7.2,4.6,18.8,4.8,18.4,17.7,0,1.3,3,2.7,4.7,4,8.5,6.4,17.4,12.4,18.9,24.3.2,1.6,1.4,3.5,2.7,4.6,19.7,15.8,35.8,35.3,54.3,52.3,2.2,2,3.9,4.7,6,6.8,1.7,1.8,2.1,6.1,5.7,4.5,2.8-1.3,3.9-5,3.4-8-1.1-6.6-2.7-13.1-4.4-19.5-1.2-4.4-2.4-8.8-2.2-13.4,4.8,9.2,7.4,19,9.2,29.2,4.4,17.9,14.9,34.4,12.4,54-.3,2.5.2,5-2.8,5.9-3.1.9-5.4-.6-6.8-3.3-4.8-9.8-14.8-15.4-18.9-26.1-3-7.9-12.5-10.2-19.5-14.3-3.6-2.1-6.5-4.2-7.4-8.5-.9-4-3.7-6.8-7-9.3-11-8.2-21.3-17.1-28.8-28.9-3.1-5-8.9-7.3-13.2-11.1-8.5-7.5-15.5-16.2-21.4-25.9-2-3.4-4.1-7.1-8.3-8-7.8-1.8-12.4-7.5-16.2-13.6-5.9-9.5-14-12.3-24.5-10.5-7.4,1.3-15.3-1.8-22.3,2.9h0Z"/>
      <path class="cls-41" d="M752.9,725.7c3.1,1.3,4.7,3.7,5.2,6.9,1.7,11.1,8.2,21.5,15.5,27.2,11.9,9.3,20.7,21.5,32.7,30.5,6.7,5.1,12.4,11.4,20.9,13.7,1.5.4,3.4,2.3,3.6,3.7.9,6.1,4.8,8.3,10.1,10.2,4.5,1.7,10.9,2.9,6.2,11.2-2.5,4.4,2.4,5.8,6.3,6.1.7.8.9,1.8.6,2.8-7.3,7.9-17.2,7.9-26.7,9.1-10.1,1.1-17.5-1.9-21.8-12.1-2.9-7-9.7-10.8-16.7-13.3-5.5-2-10-4.5-10.5-11-.2-2.1-1.1-3.4-3.2-3.8-9-1.5-13.6-8.6-18.4-15.2-8.2-11.4-18.1-21.2-27.6-31.3,1.2-3,2.4-6.1,3.6-9.1,3.6-4.9,7.3-9.7,10.9-14.6,2.6-4,7.4-6.2,9.1-11h.2Z"/>
      <path class="cls-44" d="M378.5,128.5c13.4-7.5,27.8-7.9,42.1-4.5,7.5,1.8,8.6,12.2,15.4,16.1,1,.6,1.5,2.7,2.3,2.7,14.3,1,15.6,14.9,22.6,23,6.4,7.3,12.7,14.7,20.9,20,8.9,5.8,11.2,17.2,20.3,23,5.3,3.4,9.5,8.5,15.3,11.3,3,1.5,5,4.1,5.5,6.9,1.7,8.4,8.5,11.2,14.7,14.8,7.6,4.4,14.2,8.4,17.8,18.4,2.6,7.4,10.8,13.9,16.2,22.5,3.4-9.7,2.9-17.8-.6-26.7-3.8-9.8-5.4-20.4-8-30.7,7.2,14.5,12.2,29.7,14.6,45.7,0,10.6,4.2,20,7.5,29.7,1.1,3.2,3.2,7.8.2,9-2.7,1.1-8.4.4-10.3-3.4-4-7.8-10.9-13.3-16.6-18.9-18.7-18.3-32.5-41.4-54.8-56.2-3-2-4.3-5-5.6-8-2.2-5.3-5.2-9.6-11.9-9.4-3.8,0-5.1-2.5-5.5-5.9-.5-4-2-8.2-5.2-10.4-14.5-10.3-23.5-25.8-35.6-38.3-2.1-2.2-4.5-2.7-7.2-3.3-8-1.6-12.8-6.3-13.9-14.5-1.4-10.1-6.3-14.3-16.7-13.2-7.9.8-15.7-2.1-23.5.3h0Z"/>
      <path class="cls-9" d="M740.5,391.7c-7,3.5-11.6-1-16.8-1.7-1.6-.2-2.4-2-1.6-3.6,1.3-2.6,3.6-3.1,6.1-1.8,3.9,2.1,7.6,4.3,12.3,7h0Z"/>
      <path class="cls-59" d="M548.3,174.2c-3.1-5.2-2.9-11.8-7.3-16.5h0c-2.2-6.5-5.8-12.7-3.7-20,6.2,11.4,11.4,23.1,11,36.5Z"/>
      <path class="cls-33" d="M934.4,423.4c-6.7-3.1-9.8-6-10.2-11,0-.3,1.6-1.3,2.1-1.1,4.6,1.8,4.6,6.5,8.2,12h-.1Z"/>
      <path class="cls-13" d="M864.3,409.2c1.9,0,2.8.9,2.9,2.6.1,2-.8,3.6-2.9,3.9-1.9.3-2.8-.9-2.9-2.6-.1-2,.8-3.4,2.9-4h0Z"/>
      <path class="cls-77" d="M1029.9,403.4c1.3,0,2.6.3,2.3,1.9-.4,2.3-2.1,3.6-4.4,3.8-1.7.2-3.2-.6-2.8-2.5.5-2.4,2.7-3,4.9-3.2Z"/>
      <path class="cls-80" d="M752.9,725.7c.3,6.4-4.4,8.7-9.1,11,1.3-5.1,5.1-8.1,9.1-11Z"/>
      <path class="cls-66" d="M537.3,137.7c1.2,6.7,2.5,13.4,3.7,20-4.7-5.9-5.2-13-5.5-20.1h1.8Z"/>
      <path class="cls-59" d="M553.8,190.6c-3-5.1-5.5-10.4-5.5-16.5,4,4.8,5.3,10.4,5.5,16.5Z"/>
      <path class="cls-1" d="M1087.1,541.3c-.2,1.4-.2,2.8-1.7,2.9-.4,0-1.3-1.3-1.2-1.9,0-1.1.6-2.8,1.3-3,1.9-.6,1.2,1.4,1.6,2h0Z"/>
      <path class="cls-19" d="M1151.1,68.2c4.9-1.2,9.8-2.4,14.6-3.6-2.8,3.8-6.9,3.6-11,3.7h-3.7.1Z"/>
      <path class="cls-37" d="M617.5,404.4c.7-.2,1.5-.3,2.2-.5,3.2,1.2,5.7,3.1,7,6.5-3.1-2-6.1-4-9.2-6Z"/>
      <path class="cls-38" d="M635.9,428.2c-1.3-3.7-2.6-7.3-3.9-11,4.4,2.6,4.1,6.8,3.9,11Z"/>
      <path class="cls-1" d="M1140.6,603.4c0,2.4-1.4,3.8-3.8,3.9-2.2,0-3.1-1.6-3.2-3.5,0-2,1.1-3.4,3.2-3.4s3.4.8,3.7,3h0Z"/>
      <path class="cls-50" d="M729.2,760.4c3.7-3.4,5.9-4,9.7,1.3,9,12.7,18.2,25.7,29.6,36.1,6.1,5.6,15.8,6.8,17.7,17.4.3,1.8,6.6,2.2,9.6,4.1,6.7,4.5,13.7,8.7,16.2,17.5,1.9,6.5,7.8,7.9,14,7.6.7.9.8,1.8.4,2.9-5,4.6-10.5,7.5-17.5,5.1-15.1,2.6-24.8-5.1-33.5-16.3-5.5-7.1-12.6-13.1-19.8-18.8-5.8-4.5-10.7-9.9-13.1-17.2-.9-2.6-2.2-5.3-4.5-6.8-9.5-6-14.4-14.4-14.4-25.7,1.8-2.4,3.6-4.9,5.5-7.3h0Z"/>
      <path class="cls-7" d="M791.4,857.2c-1.3,1.2-2.5,2.4-3.8,3.6-3.6,1.2-7.3,2.5-10.9,3.7-2.8,1.3-6.7.8-8.1,4.7-.7.5-1.5.7-2.4.8-3,0-5.6-.1-8.2-2.7-9.3-9.2-18.1-18.6-25.3-29.7-4.6-7.1-10.3-13.6-16.7-19.3-4.3-3.8-6.5-8.4-6.9-14,1.2-4.3,2.4-8.5,3.6-12.8-.3-1.4.1-2.7,1.1-3.8,2.9-2.8,5.9-2.6,9-.4,3,2.1,6.4,3.7,8.6,6.7,8.3,11.6,19.3,20.9,27.8,32.4,8.3,11.2,16.6,22.5,30.4,27.9,1.2.5,1.6,1.8,1.8,3h0Z"/>
      <path class="cls-34" d="M791.4,857.2c-8,.9-14-2.5-19-8.5-13.6-16.1-27.2-32.3-41-48.3-4.4-5.1-8.9-10.8-16.8-10.9-2.4-6.5-.2-11.2,5.5-14.6,2-2.1,3.1-4.6,3.7-7.3,1.8.9,4.5.7,4.5,3.7-.2,8.2,5,12.5,11.1,16.5,2,1.3,4.8,2.9,5.2,4.8,3.2,14.4,15.4,21.3,24.7,30.6,6.7,6.6,13.8,12.8,19.4,20.5,4.8,6.6,12.1,6,19.1,6,.5,4.7-4.4,1.3-5.5,3.6-3.6,1.2-7.3,2.5-10.9,3.7v.2Z"/>
      <path class="cls-10" d="M709.2,804.3c10.5,10.7,21.8,21.1,29.5,34,6.8,11.4,17.9,18.5,25.6,28.8.6.8,2.2.8,3.3,1.2,1,3.4-2.7,2.1-3.6,3.6-3,1.2-6.1,2.4-9.1,3.7-7.3,3.4-12.9,2-17.9-4.8-5.7-7.8-14.5-12.6-20.9-20-7.2-8.3-12.3-17-13.1-28-.2-1.4-.5-2.8.6-3.9.4-5.4,2.4-10.2,5.6-14.5h0Z"/>
      <path class="cls-82" d="M628.5,626.8c12-.8,23.8-1.5,35.6-2.4,5.2-.4,4.4,3.3,3.9,5.8-.6,3.2-12.2,7.1-14.4,4.6-5.7-6.6-12.8-6-20.1-5.5-2,.1-3.5-.7-5-2.4h0Z"/>
      <path class="cls-82" d="M720.1,775c-1.8,4.9-3.7,9.7-5.5,14.6-.6.6-1.2,1.2-1.9,1.8-1.8.6-3.6,1.2-5.4,1.8,2.1-6.2,3.8-12.5,6.4-18.4,1.6-3.8,4.5-6.9,6.4.2Z"/>
      <path class="cls-82" d="M707.3,792.9c-.5,7.2-4.2,9.1-9.4,8.6-2.2-.2-4.8-1.8-3.9-4.1,2.5-6.7,8.5-3.8,13.4-4.5h-.1Z"/>
      <path class="cls-82" d="M628.8,627.6c-8.1-.5-11.8-4.3-12.9-12.7,5.7,3.8,11.6,5.3,12.9,12.7Z"/>
      <path class="cls-82" d="M615,605c-1.4-5.7-7.1-11.3-.4-17.8.9,6.3,4.2,11.8.4,17.8Z"/>
      <path class="cls-82" d="M701.8,820.7h-1.8c.2-3.2-.6-6.5,1.4-10,1.9,2.9,0,5.6.5,8.2.6.4.8.8.6,1.2-.2.4-.4.6-.6.6h0Z"/>
      <path class="cls-7" d="M701.8,820.7v-1.8c.6,0,1.2,0,1.7-.1v3.8c1.9,3.8.6,5.6-3.6,5.5.6-2.4,1.1-4.9,1.7-7.3h.2Z"/>
      <path class="cls-80" d="M931.9,822.5c-11.8,4.6-24.5,1.2-36.5,3.7,2.2-7.9,7.3-9.6,14.5-6.9,7.1,2.6,14.5,3.7,22.1,3.2h-.1Z"/>
      <path class="cls-39" d="M1038.9,954.3c-.2,2.9-1.9,4.4-4.7,4.5-2,0-3.7-.8-3.6-3.1.2-2.8,1.9-4.4,4.7-4.6,2.1-.2,3.4,1,3.6,3.2Z"/>
      <path class="cls-39" d="M919.7,1018.8c-2.7-.5-3.3-2.3-2.9-4.7.3-1.8,1.1-3.8,3.3-3.6,2.4.2,3.6,2.1,3.6,4.4s-1.4,3.8-4,3.8h0Z"/>
      <path class="cls-39" d="M1079.5,907.6c1.3.1,2.3.8,2.5,2,.3,1.7-.7,2.8-2.4,3-1.3.1-2.3-.7-2.5-2-.2-1.7.6-2.8,2.4-3Z"/>
      <path class="cls-39" d="M1093.3,897.7c-.2-.8-.6-1.5-.6-2.2s1.3-.6,1.4-.5c.5.6.7,1.3,1,2-.5.2-1,.4-1.8.7h0Z"/>
      <path class="cls-39" d="M1020.5,982.7c.4.7.8,1.4,1,2.1,0,.2-.8.6-1.2.9-.4-.6-.9-1.2-1.2-1.9,0,0,.8-.6,1.5-1.1h0Z"/>
      <path class="cls-39" d="M920.1,1027.3c-3.1-.9-5.3-1.4-6.1-4.4,3.8-.6,3.6,2.7,6.1,4.4Z"/>
      <path class="cls-86" d="M1012.3,820.7v1.8h-5.5c1.1-2.7,2.9-3.4,5.5-1.8Z"/>
      <path class="cls-52" d="M1226,771.4c-.3,2.4-.6,5.6-3.1,6-10.7,1.6-9.1,8.7-7.9,16-6.6.6-14.9-2.9-16.4,8.8-.5,3.5-6.9,5.3-10.4,8.1-7.9,6.4-14.1,15-23.6,19.5-2.9,1.4-4.9,3.6-6,6.6-1.3,3.6-4.5,4.4-7.5,6-13.2,7-27.7,7.1-42,8.6-1.8.2-3.9.8-5.4.2-7-2.9-11-.6-12.9,6.5-.9,3.2-3.6,4.8-6.5,5.9-4.1,1.6-7.2,4.3-9.6,8.1-.9,1.5-2.7,3.9-3.6,3.7-10.6-2-17.1,6.4-25.5,9.7-2.9,1.1-6.7,2.2-6.9,5.3-.5,9.9-6.8,9.5-13.9,9.3-6.5-.2-11.6,2.7-15,8.6-2.4,4.2-6,7.6-8.4,11.8-2.2,3.7-4.7,4.2-8.3,2.8-7.8-3-13.8-1.2-16.9,7-1.8,4.8-5.4,6.1-10.1,6.1s-9.7.1-14.6,0c-6.5-.2-11.3,1.6-12.7,8.9-.9,5-4.9,5.6-9.1,5.7-4.4,0-7.9-1.2-8.8-6.1-1.2-6.8-5.9-8.7-12-8.5-5.5.2-9.3-1.6-10.4-7.7-.9-5.1-4.6-6.1-9.6-6.1-10,0-14.3-4.2-15.6-13.6-.9-.5-1.6-1.1-2.4-1.8-2.1-3.1-1.5-6.6-1.2-10,.4-2,.7-3.9,1-5.9.4-8.2,7.4-13.6,9.2-21.3.6-2.3,3.6-3,6.1-1.1,2.8.7,5.7,2,6.2,4.8,1.9,10.8,13.9,14.2,17.2,23.9.3,1,2.4,1.9,3.8,2.1,7.8.9,13.7,4.3,18,10.9,3.1,4.7,8.8,3.1,13.3,4.5,7.6,2.4,7.3-3.6,9.3-7.7,2.9-6,8.9-7.1,14.8-7.3,8.2-.3,16.4,0,24.6-.2,2.4,0,6.3,0,6.9-1.2,4.5-9.3,16.1-6.7,20.6-11.3,7.9-8.1,16.4-9.7,25.8-13.4,6.9-2.7,12.7-9.5,21.7-9.3,1,0,2.7-1.1,2.8-1.9,1.2-7.7,8.7-8.7,12.7-12.8,10.5-10.7,21.3-4.9,31.6-3.5,11.6,1.5,20.2-4.9,30.2-7.7.8-.2,1.8-1.2,1.8-1.9.5-11,9.4-13,17-17.1,10.2-5.5,18.5-13.6,24.7-23.6,1.1-1.7,2.9-3.9,4.6-4.1,13.7-1.8,18.5-17.9,32.1-19.8l.3-.5Z"/>
      <path class="cls-71" d="M886.3,868.2c-7.6,6.1-6.7,16.1-11,23.7-4.3-1.1-4.4-4.8-4.2-7.9.8-16.3-6-29.7-15.5-42.1-1.1-1.4-2.3-2.8-2.2-4.7v-1.8h3.6c2.7-2.2,6.4.4,9.1-1.8h0c2.7-2.2,6.4.4,9.1-1.8h1.8c4.9-1.6,10-1.4,15-2.3,5.5-1,10.3,3.4,8.2,7.6-4.8,9.2-3.5,21.5-14.1,27.6v3.7l.2-.2Z"/>
      <path class="cls-52" d="M886.3,864.5c3-8.1,6.2-16.1,8.8-24.4,2-6.6,2-10-6.2-8.9-3.8.5-7.8.3-11.7.4,5.8-2.7,12-3.5,18.3-3.7,7.1-.3,13.2,2.6,21.2,5.5-12.2,3.9-17,11.8-18.3,22.5-.9,6.9-4.1,11.2-12,8.5h0Z"/>
      <path class="cls-52" d="M951.1,852.8c-.3,2.2-1.5,3.3-3.6,2.9-1.9-.4-3.2-1.8-3.1-3.8,0-2.3,1.6-3.1,3.7-2.8,2.1.3,3,1.7,3.1,3.7h-.1Z"/>
      <path class="cls-52" d="M1034.4,850.9c.8.4,1.3.6,1.8.8-.3.7-.6,1.4-1.1,2,0,.1-1.4-.4-1.3-.6,0-.7.4-1.4.7-2.2h-.1Z"/>
      <path class="cls-45" d="M700,828c1.9-1.4,3.1-3.2,3.6-5.5,6.9,7.3,8.4,17.6,15.6,25.1,8.4,8.7,18.5,15.6,26.2,25.2,2.2,2.7,6,2.6,9.4,2.7-3.7,2.4-7.3,4.9-11,7.3h-3.6c-5.8,4.4-11.2,4.5-15.4-1.9-7.1-10.7-18.5-17.8-24.6-29.5-1.5-2.9-1.8-6.2-3.8-8.8,1.2-4.9,2.5-9.7,3.7-14.6h-.1Z"/>
      <path class="cls-85" d="M696.3,842.6c7.6,5.7,11.1,15.3,19.3,20.4.2.2.4.4.6.7,3.7,4.5,11.3,4.7,11.7,13.4.2,4.8,6,8.2,12.2,5.8-5.5,5.8-12.9,8.3-20.1,11-5,3.5-8.5,1.6-10.8-3.3-5.5-11.9-13-23-15.5-36.2,2.3-3,1.2-6.8,2.4-10v-1.7h.2Z"/>
      <path class="cls-63" d="M687.3,921.2c-.6,1.2-1.2,2.4-1.8,3.7-.2-.7-.4-1.5-.5-2.2.1-3.6.2-7.1.4-10.7-1.1-1.2-.9-2.3.1-3.4,1.8-3.6,1.3-7.5,1.7-11.2,1.9-2.3-.2-5.5,1.7-7.9,12.2.8,16.7,7.4,12.9,18.9-.6,1.2-1.3,2.4-1.9,3.6h0c-4.2,3.1-9.4,4.8-12.6,9.3h0Z"/>
      <path class="cls-10" d="M667,939.3c-6.2,8.5-14,15.3-22,22,5.1-9.6,13-16.3,22-22Z"/>
      <path class="cls-61" d="M689,890.2c0,2.5-.3,5-1.8,7.2-.8-11.7,3.8-22.9,3.7-34.6.5-.2,1-.3,1.5-.5,1,.4,1.7,1.1,2.3,2,.5,9.1,2.7,18.7-5.6,25.9h0Z"/>
      <path class="cls-82" d="M692.5,862.4c-.5,0-1,.2-1.5.3-2.1-4.6-3.3-9.2.5-13.6,0,0,.5,0,.7.2s.4.4.6.6c2.8,2.4,1.3,5.8,2.2,8.7-.2,1.6-.9,3-2.4,3.7h-.1Z"/>
      <path class="cls-82" d="M685.5,908.6c0,1.1,0,2.2-.1,3.4-4.9-3.2-3.7-7.2-2.5-12.3,3.8,3,2,6.3,2.7,8.9h0Z"/>
      <path class="cls-45" d="M692.7,859v-9c1.2-1.9,2.4-3.8,3.5-5.7.6,3.1,2.2,6.1,0,9.2-2.5,1,1.6,6.3-3.7,5.5h.2Z"/>
      <path class="cls-10" d="M681.7,926.5c-2.8,4.2-5.8,8-11,9.2,1.2-1.8,2.5-3.6,3.7-5.5-.5-1.8,0-2.4,1.8-1.8l5.5-1.9h0Z"/>
      <path class="cls-82" d="M686.3,874.8c-1.2-3.6-1.2-5.9,0-9.4,2.2,3.2,2.3,5.6,0,9.4Z"/>
      <path class="cls-82" d="M676.2,928.4c-.6.6-1.2,1.2-1.8,1.8-1.6-.8-2.4-1.9-.7-3.1,1.2-.9,2,.2,2.5,1.3h0Z"/>
      <path class="cls-74" d="M802.2,853.5c1.8-1.2,3.7-2.4,5.5-3.6,6.1-1.2,12.1-2.5,18.2-3.7,4.9-2.1,7.5-.5,9.6,4.5,7,16.7,15.5,32.6,23.4,48.9.4.8.8,1.8,1.5,2.3,12.6,9.3,9.8,23.2,10.5,36,0,1.2-.3,2.4.7,3.3,3.2,14.9,7.5,29.5,12.8,43.8-9.4-13.2-21.7-24.4-28.1-39.7-1.7-4-4.4-7.5-8-9.7-7.9-4.7-11.1-11.9-11.1-20.5s-3-11.8-7.5-16c-7.3-6.9-11.6-15.2-14.2-24.8-1.6-5.8-4.4-11.2-6.7-16.8-1.2-3-3.8-3.7-6.6-4h0Z"/>
      <path class="cls-10" d="M871.7,941.2c-4.4-7.1-.4-15.5-5.1-23.4-4.8-8.1-12.2-14-15.6-23.5-5.7-15.6-16.3-29.1-20.9-45.3-.7-2.3-2.3-2.5-4.1-2.8v-1.8c9.1-2.4,18.2-4.9,27.4-7.3,4.4-.4,6.5,1.5,9.1,5.3,10.1,15.1,15.4,31.2,12.8,49.5v5.5c-2.2,2.7.4,6.4-1.8,9.1v1.8c-3.1,6.9-1.9,14.2-1.3,21.3.4,4,.5,7.8-.6,11.6h.1Z"/>
      <path class="cls-86" d="M1021.4,824.3c4.9-2.7,9.7-1.9,14.6,0-4.9,2.5-9.7,2.5-14.6,0Z"/>
      <path class="cls-49" d="M-297.3,793.3c15.2,2.9,27.7,11.6,41,18.6,2.7,1.4,5.1,3.2,8.3,3.3,8.3,4.5,16.6,9.1,25,13.6,5,2.7,10.1,5.2,13.4,10.2-9.8-4.7-20.1-8.5-28.9-15.3-3.3-2.5-7.3-2.9-11.3-3-13.2-7.2-27.2-12.8-39.8-21.2-2.8-1.9-5.9-3.2-7.7-6.2Z"/>
      <path class="cls-66" d="M314.6,123h-5.5c-3.8,2.9-6.2-.6-9.1-1.8h0c-4.5-1.2-9-2.5-12.8-5.5-2.3-.5-4.2-1.7-5.5-3.7-1.2-.6-1.2-1.2,0-1.8,10.7,4.9,22.9,6,32.9,12.8h0Z"/>
      <path class="cls-32" d="M528.3,137.6c-1.2-3.9-3.3-8.1,1.8-10.9.4,3.8,5.3,8.4-1.8,10.9Z"/>
      <path class="cls-75" d="M281.7,110.2v1.8c-7.6-.5-12.4-5.2-16.4-11,3.7.7,6.1,3.7,9.1,5.5,2.4,1.2,4.9,2.5,7.3,3.7h0Z"/>
      <path class="cls-49" d="M-326.6,780.5c10.7,2,20.4,6.4,29.2,12.8-11.1-1.2-20.9-5.3-29.2-12.8Z"/>
      <path class="cls-8" d="M1350.2,641.7c-2.7.9-5.4,1.3-6.4-2.3-.5-1.6.2-3,1.5-3.9,1.9-1.1,4.1-1.6,5.8,0,2.7,2.3,0,4.2-.9,6.2h0Z"/>
      <path class="cls-8" d="M1378.1,625.1h1.4v.7h-1.4v-.8h0Z"/>
      <path class="cls-8" d="M1208.2,723.7h1.4v.7h-1.4v-.8h0Z"/>
      <path class="cls-43" d="M-172.8,983.8c-.3.8-.6,1.3-.8,1.8-.7-.3-1.4-.6-2-1.1,0,0,.4-1.4.5-1.4.7,0,1.4.4,2.2.7h0Z"/>
      <path class="cls-24" d="M263.4,92c-6.9-5.9-13.5-12.2-18.2-20.1,12.7.7,13,12.6,18.2,20.1Z"/>
      <path class="cls-28" d="M763.9,871.8l3.6-3.6h0c1.2-1.1,2.4-1.2,3.6,0,6.2,3.4,9.8,8.7,11,15.6.7,4,2.1,7.5,5.5,10v19.1c0,6.3-1.1,13.2,7.9,14.8.7.1,1.9,1.2,1.9,1.8-1.4,12.2,10.8,20,10.4,31.9-3.2-6.8-5.8-14.1-13.8-17.1-1.4-.5-2.7-2.6-3.3-4.2-7.6-18.1-17.1-35.2-26.3-52.5-1.3-2.5-1.5-4.3.4-6.6,2.7-3.1,3.6-6.4-.8-9.1h-.1Z"/>
      <path class="cls-10" d="M771.2,868.1h-3.6c2.2-3.2,5.6-3.7,9.1-3.7-1.8,1.2-3.6,2.4-5.5,3.7Z"/>
      <path class="cls-10" d="M679.8,938.1c.3-.4.8-1.5,1.3-1.6,1.9-.1,2,1.6,2.2,2.9,0,.4,1.3,1.8-.6,1.6-1.5-.2-2.7-.8-2.9-2.9Z"/>
      <path class="cls-72" d="M-96.4,977.7c1.4-18.5-1.9-36.9-2.1-55.3,0-4-3.4-6.5-4.3-9.8-6.4-23.5-19.5-43.4-33.8-62.7,2.8.1,6-.1,7.6,2.3,9,13.8,21.1,26,25,42.7,1.1,4.6,3.1,8.5,5,12.6,4.5,9.7,4.3,20.1,4.2,30.3-.2,13.3,2.2,26.7-1.6,39.8h0Z"/>
      <path class="cls-72" d="M-138.4,849.9c-10.5-7.1-17.5-18.1-28-25.5-7.1-5-16.8-6.1-21.4-14.7,20.6,8.2,39.9,18.2,49.3,40.2h.1Z"/>
      <path class="cls-72" d="M-218.8,798.8c-6.4-5.5-14-8.5-21.9-11,7.3-3.5,12.9,1.8,18.5,4.3,10.8,4.8,22.9,7.6,30.8,17.6h-3.7c-7.4-3.3-15.8-4.2-22.9-8.5-.5-.8-.8-1.6-.9-2.5h.1Z"/>
      <path class="cls-72" d="M-251.7,784.1c-10.7-4.2-19.9-11.4-31.1-14.6,13.7-1.9,27.2,4.4,31.1,14.6Z"/>
      <path class="cls-72" d="M-290,767.7c-10.2-4.7-20.6-8.9-29.2-16.4,10.5,4.2,22,6.5,29.2,16.4Z"/>
      <path class="cls-72" d="M-339.3,744c-4.5-.1-9.3.3-11-5.5,4.7-.2,8.9.5,11,5.5Z"/>
      <path class="cls-62" d="M-218.8,798.8h1.8c3.2,2,6,4.6,9.6,6,2.1.8,4.6,1.8,3.2,5-.6.6-1.2,1.2-1.8,1.8-18.3-6.5-35.7-15.1-53.3-23.2-2.6-1.2-4.4-3.2-5.1-6,12.3,4.4,24.5,8.9,36,15,3,1.6,6.2,2.5,9.6,1.5h0Z"/>
      <path class="cls-61" d="M692.7,859c1.7-1.5,1.2-4.5,3.7-5.5,4.8,10.8,10.4,21,17.4,30.6,2.2,3-.6,9.3,6.3,9.6-.6,1.2-1.2,2.4-1.8,3.6-.8,2.2-2.7,2.6-4.7,2.9-4.6,2.4-6.8.6-11.1-2.5-13.1-9.6-7.9-23-9.8-34.9l-.3-.4c0-1.1.1-2.3.2-3.4h.1Z"/>
      <path class="cls-17" d="M714.6,899.2c1.2-.6,2.4-1.2,3.7-1.8h3.6c-1.8,2.5-4.3,3.5-7.3,3.7-.7-.4-.9-.8-.7-1.2.2-.4.5-.6.7-.6h0Z"/>
      <path class="cls-83" d="M-204.2,809.7c-4.3-3.6-9.9-5.7-12.8-11,7.8,2.7,15.7,5.2,21.9,11h-9.1Z"/>
      <path class="cls-68" d="M714.6,899.2v1.8c-2.8,1.3-5.5,2.8-7.4,5.4-1.8.6-3.6,1.3-5.3,1.9-.1-9-9.3-11.6-12.8-18.2,1.8-9,3.8-18,3.7-27.3.6,2.3,2,4.9,1.6,7-3,13.6,9.2,19.5,14.3,28.9,1.1,2.1,3.9.7,6,.5h-.1Z"/>
      <path class="cls-67" d="M687.3,921.2c2.3-5.6,7.3-7.7,12.6-9.3-.6,1.2-1.2,2.4-1.8,3.7-3.6.9-6.4,3.1-9.1,5.5-.6,0-1.1,0-1.7.1h0Z"/>
      <path class="cls-37" d="M584.9,402.5c3.1.6,6.1,1.2,9.2,1.8-3.6,2.4-7.2,4.8-10.9,7.2.6-3,1.1-6,1.7-9Z"/>
      <path class="cls-75" d="M300,121.2c3,.6,6.1,1.2,9.1,1.8,7.9,4.8,16.8,5.9,25.6,7.3v1.8c-12.7,0-24.7-2.4-34.7-11h0Z"/>
      <path class="cls-57" d="M554.6,425c3.3,3.6,2.9,5.6,1.2,7.9-2.1-2-1.1-4.1-1.2-7.9Z"/>
      <path class="cls-75" d="M287.2,115.7c4.3,1.8,8.5,3.6,12.8,5.5-5,0-9.6-1.1-12.8-5.5Z"/>
      <path class="cls-52" d="M875.3,831.6c-2.8,1.8-6,1.8-9.1,1.8,2.8-1.8,6-1.8,9.1-1.8Z"/>
      <path class="cls-52" d="M866.2,833.4c-2.8,1.8-6,1.8-9.1,1.8,2.8-1.8,6-1.8,9.1-1.8Z"/>
      <path class="cls-39" d="M924.9,917c0,2.7-1.3,4.7-4.2,4.6-3.7,0-6.3-2.1-6.3-6.1s2-5,5.2-4.8c3.6.2,4.9,2.9,5.3,6.2h0Z"/>
      <path class="cls-39" d="M887.6,904.7c-.3,3-1.7,5.3-4.9,5.3s-3.5-2.8-3.5-5.2.2-5.9,3.9-5.8c3.1,0,4.2,2.8,4.5,5.7Z"/>
      <path class="cls-39" d="M892.7,917.1c-1.8-.3-2.3-1.7-2.4-3.2s0-3.3,2.1-2.9c1.6.3,2.2,1.9,2.2,3.5s-.5,2.3-1.9,2.6h0Z"/>
      <path class="cls-39" d="M873.5,906.5c0-3.2,0-6.3,1.8-9.1,0,3.2,0,6.3-1.8,9.1Z"/>
    </g>
  </g>
  <g>
    <g>
      <g>
        <path class="cls-15" d="M521.4,469.2l-52.1,104.1c-7.3,14.8-28.7,14.8-36,0l-52.1-104.1c-6.8-13.5,3.1-29.5,18.4-29.5h0c7.7,0,14.7,4.2,18.1,11.1l33.7,67.4,33.7-67.4c3.4-6.8,10.4-11.1,18.1-11.1h0c15.1,0,25.1,16,18.2,29.5Z"/>
        <path class="cls-2" d="M625.4,469.2l-52.1,104.1c-7.3,14.8-28.7,14.8-36,0l-52.1-104.1c-6.8-13.5,3.1-29.5,18.4-29.5h0c7.7,0,14.7,4.2,18.1,11.1l33.7,67.4,33.5-67.4c3.4-6.8,10.4-11.1,18.1-11.1h0c15.3,0,25.1,16,18.4,29.5Z"/>
      </g>
      <g>
        <path class="cls-47" d="M711.7,460c0,2.9-.7,6-2.1,9.1l-52.1,104.1c-7.3,14.8-28.7,14.8-36,0h0c-2.9-5.9-2.9-12.9,0-18.9l18.1-36,6.5-13,27-54.6c3.4-6.8,10.4-11.1,18.1-11.1,11.9,0,20.5,9.8,20.5,20.4Z"/>
        <path class="cls-2" d="M761.2,554.3c2.9,5.9,2.9,12.9,0,18.9h0c-7.3,14.8-28.7,14.8-36,0l-52.1-104.1c-6.8-13.5,3.1-29.5,18.4-29.5s7.5,1.1,10.6,2.9c3.1,2,5.7,4.7,7.5,8.1l33.7,67.4,17.9,36.2Z"/>
      </g>
      <path class="cls-2" d="M919.1,460.2v51.6c0,20-8.1,38.1-21.2,51.1-13,13-31.3,21.2-51.1,21.2-39.9,0-72.3-32.4-72.3-72.3v-51.6c0-5.7,2.3-10.7,6-14.5,3.7-3.7,8.8-6,14.5-6,11.2,0,20.5,9.1,20.5,20.5v52.1c0,17.4,14,31.4,31.4,31.4s31.4-14,31.4-31.4v-52.1c0-5.7,2.3-10.7,6-14.5,3.7-3.7,8.8-6,14.5-6,11.1.2,20.2,9.3,20.2,20.5Z"/>
    </g>
    <path class="cls-2" d="M298.2,505.8h0c.2,42.5-34,77-76.4,77.2-48.4.2-87.8-39.1-87.9-87.6,0-49,35.3-90.1,81.9-98.4-61.6.8-111.1,51.3-110.9,113.2.2,64.7,52.8,117.1,117.3,116.8,64.5-.2,116.6-52.9,116.3-117.6-.2-48.5-39.6-87.8-87.9-87.6-41.9.2-75.7,34.4-75.6,76.5.2,27.5,22.5,49.7,49.8,49.7s11.6-1.1,16.8-2.9h-.8c-21.3,0-38.8-17.3-38.8-38.8-.2-26.7,21.3-48.4,48-48.5,26.5-.2,48.2,21.3,48.2,48"/>
  </g>
</svg>