<svg width="250" height="250" viewBox="0 0 250 250" fill="none" xmlns="http://www.w3.org/2000/svg">
<rect width="250" height="250" fill="#18365B"/>
<path d="M164.094 151.468L180.148 92.4579H210L193.946 151.468H164.094Z" fill="#ED2727"/>
<path d="M160.71 128.645C159.061 125.868 157.672 124.393 156.631 123.525V123.438C159.668 122.397 162.879 119.88 162.879 114.586C162.879 108.165 158.28 104.867 150.123 104.867H136.238V115.02C136.238 115.02 136.238 115.975 136.238 116.149H136.151C134.502 109.38 128.862 105.041 118.448 105.041H99.0965L96.0592 118.058C95.4518 120.748 94.8443 124.132 94.8443 124.132H94.7575C94.7575 124.132 94.1501 120.314 93.4558 117.624L90.9393 104.954H80.2654L77.7489 117.624C77.1414 120.314 76.4472 124.132 76.4472 124.132H76.3604C76.3604 124.132 75.8397 120.748 75.1455 118.058L72.1082 104.954H62.5625L71.1536 137.062H80.8729L84.3441 122.31C85.0383 119.359 85.7325 116.496 85.7325 116.496H85.8193C85.8193 116.496 86.4267 119.359 87.2078 122.31L90.6789 136.975H100.225L107.34 110.421H107.427C107.427 110.421 107.34 111.462 107.34 112.851V136.975H118.275C128.775 136.975 134.589 132.116 136.238 125.347H136.325C136.325 125.434 136.325 126.475 136.325 126.475V137.149H145.176V125.607H145.87C146.912 125.607 149.428 125.521 150.817 127.777L156.197 136.889H165.743L160.71 128.645ZM119.056 129.686H116.365V112.243H118.795C124.696 112.243 127.3 114.847 127.3 120.835C127.3 126.562 124.696 129.686 119.056 129.686ZM149.949 118.925H145.089V111.81H149.602C152.639 111.81 153.854 113.024 153.854 115.368C153.941 117.537 152.639 118.925 149.949 118.925Z" fill="white"/>
<path d="M40 157.282H41.7356V152.075H46.682V150.6H41.7356V146.782H47.2894V145.393H40V157.282ZM51.368 157.282H58.9178V155.893H53.1036V151.728H58.2236V150.339H53.1036V146.868H58.831V145.393H51.368V157.282ZM63.17 157.282H64.9056V152.075H65.5998C66.3808 152.075 66.5544 152.249 67.9428 153.984L70.2859 157.282H72.3686L69.5049 153.377C68.8106 152.422 68.3767 151.988 68.1164 151.815V151.728C70.0255 151.554 71.3272 150.513 71.3272 148.43C71.3272 146.261 69.7652 145.133 67.075 145.133H63.2568V157.282H63.17ZM64.9056 150.687V146.695H66.8147C68.6371 146.695 69.5049 147.215 69.5049 148.604C69.5049 149.906 68.7238 150.687 66.9883 150.687H64.9056ZM76.0133 157.282H77.6621V148.951C77.6621 148.43 77.5753 147.649 77.5753 147.476C77.7489 147.823 78.1827 148.604 78.6166 149.211L84.6044 157.282H86.1664V145.306H84.6044V153.203C84.6044 153.897 84.6912 154.678 84.6912 155.026H84.6044C84.4308 154.678 83.9969 153.811 83.3895 153.116L77.7489 145.393H76.0133V157.282ZM93.9765 157.542C96.4931 157.542 98.2287 156.24 98.2287 154.245C98.2287 151.988 96.3196 151.121 94.6708 150.426C93.3691 149.906 92.3277 149.472 92.3277 148.257C92.3277 147.129 93.3691 146.608 94.584 146.608C95.7989 146.608 96.8402 147.129 97.2741 147.476L98.0551 146.174C97.6212 145.827 96.4931 145.133 94.584 145.133C92.5881 145.133 90.6789 146.261 90.6789 148.344C90.6789 150.253 92.1542 151.121 93.7162 151.728C95.4518 152.509 96.7535 152.943 96.7535 154.245C96.7535 155.373 95.6253 156.067 94.1501 156.067C92.5013 156.067 91.5467 155.286 91.1996 154.939L90.4186 156.24C90.7657 156.761 91.9806 157.542 93.9765 157.542ZM102.481 157.282H110.031V155.893H104.216V151.728H109.336V150.339H104.216V146.868H109.944V145.393H102.481V157.282ZM114.196 157.282H115.932V151.728H122.787V157.282H124.523V145.306H122.787V150.339H115.932V145.306H114.196V157.282ZM129.556 157.282H137.106V155.893H131.291V151.728H136.411V150.339H131.291V146.868H137.019V145.393H129.556V157.282ZM141.358 157.282H143.007V148.951C143.007 148.43 142.92 147.649 142.92 147.476C143.093 147.823 143.527 148.604 143.961 149.211L149.949 157.282H151.511V145.306H149.949V153.203C149.949 153.897 150.036 154.678 150.036 155.026H149.949C149.775 154.678 149.342 153.811 148.734 153.116L143.093 145.393H141.358V157.282Z" fill="white"/>
</svg>
