<svg width="250" height="250" viewBox="0 0 250 250" fill="none" xmlns="http://www.w3.org/2000/svg">
<rect width="250" height="250" fill="#B50017"/>
<path d="M68.4786 93.677C74.8156 93.0511 81.337 94.4188 86.8824 97.5521C91.6652 100.227 95.7103 104.183 98.5286 108.881C90.9544 108.885 83.3824 108.879 75.8082 108.885C75.8082 111.509 75.8041 114.134 75.8041 116.76C80.4149 116.762 85.0236 116.758 89.6365 116.762C84.9179 122.732 80.2657 128.754 75.5554 134.731C75.4207 134.917 75.2487 135.11 75.2736 135.363C75.2487 137.391 75.2757 139.422 75.2653 141.453C82.9617 141.439 90.6581 141.457 98.3566 141.443C95.5404 145.942 91.6445 149.769 87.013 152.376C82.1245 155.169 76.4672 156.597 70.8389 156.463C63.3995 156.349 56.045 153.447 50.5224 148.466C46.3551 144.773 43.2198 139.94 41.5101 134.644C39.6865 129.013 39.5145 122.865 40.9941 117.137C42.712 110.44 46.726 104.368 52.1927 100.138C56.8636 96.5035 62.581 94.224 68.4786 93.677Z" fill="white"/>
<path d="M87.1538 133.558C91.9138 127.447 96.6531 121.319 101.428 115.218C103.334 121.12 103.492 127.59 101.784 133.558C96.9059 133.554 92.0299 133.552 87.1538 133.558Z" fill="white"/>
<path d="M179.071 116.281C180.984 116.281 182.897 116.285 184.809 116.279C184.805 118.138 184.807 119.999 184.801 121.858C186.388 121.86 187.978 121.862 189.569 121.856C189.565 123.263 189.563 124.67 189.563 126.077C187.974 126.077 186.384 126.073 184.797 126.079C184.799 128.698 184.78 131.316 184.791 133.935C184.826 134.714 184.903 135.732 185.709 136.115C186.737 136.534 187.816 135.989 188.772 135.613C189.134 137.083 189.495 138.55 189.891 140.011C188.028 141.153 185.756 141.606 183.601 141.227C182.381 140.97 181.216 140.34 180.439 139.35C179.434 138.133 179.094 136.513 179.09 134.971C179.088 132.006 179.084 129.04 179.082 126.077C178.242 126.077 177.403 126.075 176.564 126.077C176.562 124.682 176.562 123.288 176.558 121.893H179.077C179.075 120.024 179.077 118.153 179.071 116.281Z" fill="white"/>
<path d="M190.423 121.021C192.4 121.021 194.377 121.027 196.356 121.016C197.697 125.762 198.911 130.547 200.306 135.276C201.653 130.532 202.927 125.77 204.258 121.021C206.173 121.023 208.085 121.023 210 121.021C207.7 127.708 205.439 134.407 203.151 141.101C201.189 141.093 199.226 141.103 197.264 141.095C194.982 134.403 192.709 127.71 190.423 121.021Z" fill="white"/>
<path d="M172.697 135.332C173.75 135.004 175.012 135.328 175.689 136.223C176.622 137.479 176.562 139.412 175.495 140.57C174.425 141.714 172.324 141.606 171.41 140.322C170.258 138.751 170.691 135.972 172.697 135.332Z" fill="white"/>
<path d="M137.922 96.6217C141.031 96.6259 144.141 96.6135 147.252 96.628C147.266 104.521 147.239 112.412 147.266 120.304C150.48 116.495 153.721 112.709 156.923 108.89C160.454 108.865 163.985 108.887 167.516 108.877C163.915 113.001 160.371 117.174 156.788 121.315C160.481 127.979 164.166 134.65 167.852 141.321C164.166 141.312 160.481 141.331 156.797 141.31C154.685 137.112 152.553 132.926 150.433 128.734C149.372 129.969 148.325 131.216 147.254 132.445C147.26 135.404 147.252 138.361 147.258 141.321C144.143 141.314 141.031 141.325 137.918 141.316C137.931 126.419 137.924 111.521 137.922 96.6217Z" fill="white"/>
<path d="M114.769 128.943C113.77 130.773 114.325 133.545 116.373 134.393C119.133 135.495 122.675 134.264 124.036 131.585C124.77 130.315 124.417 128.8 124.488 127.409C122.357 127.422 120.227 127.389 118.097 127.426C116.862 127.472 115.446 127.805 114.769 128.943ZM107.398 112.048C112.176 109.501 117.624 107.905 123.074 108.49C126.141 108.792 129.264 110.031 131.231 112.489C133.001 114.652 133.685 117.506 133.685 120.256C133.685 127.277 133.682 134.298 133.687 141.318C130.644 141.323 127.604 141.316 124.562 141.323C124.562 140.081 124.571 138.84 124.556 137.597C123.796 138.529 122.99 139.447 121.96 140.09C119.554 141.664 116.532 142.033 113.724 141.673C111.105 141.318 108.585 139.884 107.17 137.613C105.572 135.104 105.23 131.935 105.817 129.055C106.25 126.964 107.466 125.028 109.255 123.839C111.352 122.407 113.944 121.916 116.445 121.854C119.135 121.841 121.827 121.856 124.517 121.847C124.552 120.353 124.305 118.716 123.178 117.63C121.696 116.159 119.423 116.014 117.461 116.229C114.831 116.565 112.34 117.585 110.03 118.853C109.163 116.582 108.295 114.308 107.398 112.048Z" fill="white"/>
</svg>
