<svg width="250" height="250" viewBox="0 0 250 250" fill="none" xmlns="http://www.w3.org/2000/svg">
<rect width="250" height="250" fill="#0B1119"/>
<path d="M193.413 110.731H210V102.874H190.03C179.286 102.874 174.88 108.884 174.88 118.3L174.876 119.224C173.075 108.14 166.483 102.874 154.405 102.874H134.168C126.029 86.5381 109.171 75.3231 89.6801 75.3231C62.2604 75.3231 40 97.5679 40 125.016C40 152.456 62.2604 174.677 89.6801 174.677C109.05 174.677 125.81 163.614 134.002 147.472H154.647C159.584 147.472 164.023 147.178 168.56 143.565C171.823 140.967 173.878 137.318 174.824 132.526V147.415H184.287L184.296 129.893H206.64V122.094H184.285L184.411 118.935C184.411 113.819 185.949 110.731 193.413 110.731ZM154.213 139.61H143.768V110.731H154.213C162.422 110.731 165.367 114.241 165.367 125.171C165.367 136.094 162.422 139.61 154.213 139.61Z" fill="#FA7D19"/>
<path d="M111.685 121.342H117.852C122.754 121.342 125.647 120.36 125.647 116.2C125.647 111.926 122.754 110.731 117.73 110.731H96.8095V102.874H121.15C133.498 102.874 135.242 111.516 135.242 116.33C135.242 121.457 133.152 129.599 121.131 129.599H115.161C107.685 129.599 106.076 132.302 106.076 137.411V139.801H134.017V147.415H96.5325V136.349C96.5325 126.943 100.954 121.342 111.685 121.342Z" fill="white"/>
</svg>
